# Blender v2.92.0 OBJ File: 'convert_to_one_sided.blend'
# www.blender.org
mtllib 1004L.mtl
o Cube
v 0.001000 0.001000 -0.001000
v 0.001000 -0.001000 -0.001000
v 0.001000 0.001000 0.001000
v 0.001000 -0.001000 0.001000
v -0.001000 0.001000 -0.001000
v -0.001000 -0.001000 -0.001000
v -0.001000 0.001000 0.001000
v -0.001000 -0.001000 0.001000
vt 0.625000 0.500000
vt 0.875000 0.500000
vt 0.875000 0.750000
vt 0.625000 0.750000
vt 0.375000 0.750000
vt 0.625000 1.000000
vt 0.375000 1.000000
vt 0.375000 0.000000
vt 0.625000 0.000000
vt 0.625000 0.250000
vt 0.375000 0.250000
vt 0.125000 0.500000
vt 0.375000 0.500000
vt 0.125000 0.750000
vn 0.0000 1.0000 0.0000
vn 0.0000 0.0000 1.0000
vn -1.0000 0.0000 0.0000
vn 0.0000 -1.0000 0.0000
vn 1.0000 0.0000 0.0000
vn 0.0000 0.0000 -1.0000
usemtl Material
s off
f 1/1/1 5/2/1 7/3/1 3/4/1
f 4/5/2 3/4/2 7/6/2 8/7/2
f 8/8/3 7/9/3 5/10/3 6/11/3
f 6/12/4 2/13/4 4/5/4 8/14/4
f 2/13/5 1/1/5 3/4/5 4/5/5
f 6/11/6 5/10/6 1/1/6 2/13/6
o 1004
v 7.468324 6.525315 4.764890
v 7.529943 6.501985 4.771840
v 7.501303 6.483076 4.777830
v 7.527963 6.568484 4.800959
v 7.600342 6.494355 4.817309
v 7.567943 6.458416 4.835029
v 7.442744 6.505995 4.792919
v 7.400505 6.557975 4.806859
v 7.428275 6.556765 4.790779
v 7.440534 6.601154 4.809459
v 7.479294 6.456676 4.843958
v 7.609672 6.536045 4.816689
v 7.629752 6.600634 4.844358
v 7.405925 6.595364 4.816729
v 7.486484 6.668373 4.867968
v 7.533523 6.423616 4.917727
v 7.430804 6.483175 4.830669
v 7.404795 6.513135 4.838549
v 7.687411 6.531755 4.862689
v 7.379465 6.561905 4.857869
v 7.372445 6.616304 4.876328
v 7.589842 6.657333 4.876078
v 7.394015 6.650343 4.865519
v 7.416094 6.703043 4.898028
v 7.677251 6.492166 4.893308
v 7.612382 6.437006 4.945267
v 7.677161 6.573154 4.856778
v 7.557703 6.757912 4.965207
v 7.428985 6.469566 4.899408
v 7.377915 6.526385 4.984736
v 7.352915 6.599804 4.965977
v 7.697131 6.613244 4.877658
v 7.665421 6.666523 4.902408
v 7.748700 6.535585 4.927967
v 7.735780 6.581644 4.910058
v 7.718591 6.654553 4.929138
v 7.354865 6.695543 4.943577
v 7.376055 6.720022 4.934447
v 7.628491 6.730292 4.952687
v 7.455894 6.788342 4.992696
v 7.478913 6.422536 4.967947
v 7.565853 6.387667 5.048156
v 7.773430 6.628344 4.980546
v 7.623662 6.401077 5.075215
v 7.689411 6.452256 5.030716
v 7.759690 6.512705 5.005387
v 7.789199 6.571064 5.018986
v 7.336765 6.669193 4.999267
v 7.353435 6.752212 4.991086
v 7.685501 6.724062 4.974187
v 7.386105 6.769502 4.992517
v 7.522023 6.387637 5.045106
v 7.436424 6.434246 5.062985
v 7.739970 6.687743 4.992507
v 7.773070 6.692053 5.075066
v 7.340415 6.732882 5.012256
v 7.628192 6.790012 5.030546
v 7.358705 6.531495 5.117265
v 7.340265 6.610314 5.091636
v 7.803259 6.626824 5.083335
v 7.698351 6.760362 5.058066
v 7.491884 6.378767 5.133785
v 7.395825 6.477266 5.146504
v 7.810309 6.546205 5.124545
v 7.354765 6.782412 5.062335
v 7.405105 6.824862 5.073456
v 7.541073 6.830351 5.057656
v 7.474914 6.856981 5.101475
v 7.742860 6.480786 5.102255
v 7.816870 6.597254 5.133965
v 7.333176 6.721602 5.100535
v 7.538013 6.366317 5.133605
v 7.679541 6.427126 5.144485
v 7.586972 6.375837 5.176155
v 7.729391 6.766812 5.161345
v 7.620842 6.832561 5.120135
v 7.427394 6.861811 5.158144
v 7.534193 6.866341 5.128185
v 7.443944 6.417966 5.203244
v 7.738481 6.474116 5.215174
v 7.331285 6.741372 5.196034
v 7.355595 6.788572 5.166934
v 7.386055 6.821511 5.136105
v 7.493743 6.877381 5.172774
v 7.363465 6.539675 5.169284
v 7.800330 6.655704 5.175845
v 7.330896 6.680733 5.171285
v 7.652882 6.835291 5.192364
v 7.525793 6.360157 5.217554
v 7.351055 6.603794 5.208224
v 7.717690 6.779421 5.215634
v 7.571523 6.863471 5.179804
v 7.492524 6.378317 5.255003
v 7.818049 6.589944 5.212264
v 7.757480 6.720983 5.234064
v 7.400315 6.831741 5.207084
v 7.394945 6.520015 5.249873
v 7.794280 6.538985 5.243773
v 7.753430 6.496755 5.277943
v 7.351665 6.688653 5.251063
v 7.379965 6.773022 5.250164
v 7.693481 6.770682 5.260053
v 7.455314 6.858480 5.224554
v 7.517783 6.861250 5.233994
v 7.594442 6.835981 5.239553
v 7.517943 6.364927 5.282063
v 7.635062 6.405267 5.269123
v 7.368265 6.613924 5.260133
v 7.553633 6.378787 5.288403
v 7.456494 6.436756 5.298383
v 7.709131 6.465866 5.293463
v 7.795850 6.574004 5.299203
v 7.790239 6.636943 5.262753
v 7.423434 6.814152 5.266963
v 7.611782 6.760722 5.321892
v 7.472964 6.826441 5.282103
v 7.536363 6.816721 5.283583
v 7.728170 6.502076 5.321903
v 7.405605 6.599224 5.319843
v 7.394655 6.707192 5.305763
v 7.753601 6.682013 5.290033
v 7.510553 6.408716 5.327073
v 7.591052 6.397216 5.325312
v 7.433354 6.505625 5.315722
v 7.706711 6.688283 5.328812
v 7.433334 6.764452 5.312403
v 7.633142 6.440246 5.342832
v 7.757520 6.621484 5.321553
v 7.436104 6.670933 5.352742
v 7.658031 6.671323 5.371172
v 7.513573 6.764532 5.329852
v 7.564053 6.419227 5.349662
v 7.470904 6.501895 5.355162
v 7.461904 6.591234 5.373211
v 7.731690 6.555564 5.354242
v 7.669372 6.504906 5.377851
v 7.703961 6.614754 5.366532
v 7.488073 6.703203 5.368102
v 7.567873 6.689353 5.377902
v 7.527913 6.462006 5.374612
v 7.590522 6.490886 5.390892
v 7.680781 6.560854 5.389172
v 7.626642 6.605984 5.400012
v 7.492303 6.638894 5.392541
v 7.522473 6.665043 5.391972
v 7.524103 6.552255 5.392891
v 7.631322 6.542545 5.398682
v 7.551073 6.618244 5.398561
v 7.586123 6.561674 5.395711
vn -0.1710 0.0586 -0.9835
vn 0.3143 -0.0749 -0.9464
vn -0.0243 -0.6850 -0.7281
vn 0.1988 0.4733 -0.8582
vn 0.4792 -0.4919 -0.7269
vn 0.2544 -0.8546 -0.4528
vn -0.5425 -0.5011 -0.6742
vn -0.7787 -0.0767 -0.6227
vn -0.4537 0.1476 -0.8788
vn -0.1254 0.5504 -0.8254
vn -0.2732 -0.8882 -0.3694
vn 0.4352 0.1067 -0.8940
vn 0.2947 0.4230 -0.8569
vn -0.5549 0.3852 -0.7374
vn 0.0796 0.6637 -0.7437
vn 0.0087 -0.9508 -0.3096
vn -0.5727 -0.7302 -0.3725
vn -0.8159 -0.4906 -0.3060
vn 0.6266 -0.2291 -0.7449
vn -0.9417 -0.2286 -0.2469
vn -0.9036 0.1143 -0.4128
vn 0.1575 0.6286 -0.7616
vn -0.5551 0.4848 -0.6759
vn -0.1852 0.6924 -0.6973
vn 0.5480 -0.7237 -0.4195
vn 0.3744 -0.8780 -0.2981
vn 0.5327 0.1309 -0.8361
vn 0.1263 0.7447 -0.6553
vn -0.6536 -0.7404 -0.1568
vn -0.8772 -0.4692 -0.1016
vn -0.9676 -0.2060 -0.1457
vn 0.5332 0.3706 -0.7605
vn 0.3254 0.6197 -0.7142
vn 0.8020 -0.3620 -0.4752
vn 0.7794 0.1051 -0.6176
vn 0.6274 0.5039 -0.5937
vn -0.8542 0.2702 -0.4441
vn -0.5083 0.6003 -0.6175
vn 0.2291 0.7198 -0.6553
vn -0.0690 0.8002 -0.5958
vn -0.4105 -0.8846 -0.2214
vn 0.2035 -0.9513 -0.2316
vn 0.8562 0.3030 -0.4184
vn 0.4261 -0.8876 -0.1751
vn 0.5484 -0.8098 -0.2083
vn 0.7337 -0.6382 -0.2331
vn 0.9444 -0.1092 -0.3101
vn -0.9865 -0.0203 -0.1626
vn -0.7094 0.5718 -0.4121
vn 0.4655 0.7033 -0.5373
vn -0.3545 0.7860 -0.5066
vn -0.1639 -0.9569 -0.2398
vn -0.7043 -0.7032 -0.0972
vn 0.6798 0.6030 -0.4174
vn 0.8131 0.5397 -0.2183
vn -0.9507 0.2511 -0.1820
vn 0.3260 0.8078 -0.4911
vn -0.9177 -0.3970 0.0129
vn -0.9806 -0.1957 -0.0093
vn 0.9496 0.2479 -0.1919
vn 0.5857 0.7433 -0.3232
vn -0.4668 -0.8783 -0.1030
vn -0.8260 -0.5607 0.0578
vn 0.8883 -0.4541 -0.0689
vn -0.7705 0.6144 -0.1695
vn -0.4317 0.8329 -0.3463
vn 0.1493 0.8529 -0.5003
vn -0.1100 0.9169 -0.3836
vn 0.6557 -0.7504 -0.0833
vn 0.9913 0.0746 -0.1085
vn -0.9872 0.1532 -0.0448
vn 0.0020 -0.9896 -0.1437
vn 0.5549 -0.8309 -0.0406
vn 0.3431 -0.9392 -0.0124
vn 0.7263 0.6793 -0.1050
vn 0.4171 0.8619 -0.2884
vn -0.4443 0.8947 -0.0450
vn 0.1724 0.9438 -0.2819
vn -0.7610 -0.6418 0.0940
vn 0.6629 -0.7459 0.0641
vn -0.9433 0.2508 0.2174
vn -0.8335 0.5443 0.0951
vn -0.6870 0.7247 -0.0521
vn -0.0394 0.9991 0.0126
vn -0.9185 -0.3589 0.1660
vn 0.9139 0.4049 0.0292
vn -0.9901 -0.0920 0.1061
vn 0.4883 0.8630 0.1298
vn -0.0640 -0.9977 0.0220
vn -0.9453 -0.2295 0.2319
vn 0.6815 0.6935 0.2336
vn 0.2684 0.9612 0.0641
vn -0.6088 -0.7699 0.1914
vn 0.9915 0.0047 0.1303
vn 0.7983 0.5409 0.2649
vn -0.6651 0.7008 0.2577
vn -0.8639 -0.3885 0.3205
vn 0.8381 -0.5003 0.2176
vn 0.7096 -0.6415 0.2915
vn -0.8937 0.0063 0.4487
vn -0.7499 0.4376 0.4961
vn 0.5176 0.6735 0.5278
vn -0.3079 0.8783 0.3659
vn 0.0897 0.8956 0.4358
vn 0.2969 0.8175 0.4935
vn -0.2081 -0.9063 0.3679
vn 0.4959 -0.8490 0.1823
vn -0.8831 -0.2191 0.4149
vn 0.1726 -0.9202 0.3513
vn -0.7319 -0.5213 0.4388
vn 0.5811 -0.7465 0.3243
vn 0.8570 -0.1054 0.5044
vn 0.8670 0.3530 0.3517
vn -0.5256 0.6407 0.5597
vn 0.2557 0.6434 0.7215
vn -0.1464 0.7114 0.6874
vn 0.1394 0.7160 0.6841
vn 0.6525 -0.5392 0.5325
vn -0.7828 -0.1469 0.6047
vn -0.7312 0.1992 0.6525
vn 0.7000 0.4766 0.5318
vn -0.3874 -0.6577 0.6460
vn 0.2785 -0.8231 0.4950
vn -0.7800 -0.3245 0.5351
vn 0.5240 0.4910 0.6959
vn -0.4539 0.4639 0.7608
vn 0.4251 -0.6590 0.6205
vn 0.6807 0.2831 0.6756
vn -0.5892 0.1620 0.7916
vn 0.3284 0.4235 0.8442
vn -0.0226 0.5865 0.8096
vn 0.0132 -0.6699 0.7423
vn -0.5915 -0.3152 0.7421
vn -0.5548 -0.1147 0.8241
vn 0.6261 -0.1307 0.7688
vn 0.4071 -0.4143 0.8140
vn 0.5112 0.2343 0.8269
vn -0.2332 0.4390 0.8677
vn 0.0813 0.4371 0.8957
vn -0.2782 -0.4092 0.8690
vn 0.0583 -0.3388 0.9391
vn 0.3964 -0.0424 0.9171
vn 0.1467 0.1418 0.9790
vn -0.3137 0.1007 0.9442
vn -0.0486 0.3018 0.9521
vn -0.2301 -0.1379 0.9633
vn 0.1067 -0.1350 0.9851
vn -0.0109 0.0749 0.9971
vn -0.0521 -0.0643 0.9966
usemtl mtl1.029
s 1
f 9//7 10//8 11//9
f 12//10 10//8 9//7
f 11//9 13//11 14//12
f 11//9 15//13 9//7
f 10//8 13//11 11//9
f 16//14 17//15 15//13
f 9//7 15//13 17//15
f 12//10 9//7 18//16
f 18//16 9//7 17//15
f 19//17 11//9 14//12
f 11//9 19//17 15//13
f 20//18 13//11 10//8
f 12//10 20//18 10//8
f 12//10 21//19 20//18
f 16//14 22//20 17//15
f 18//16 23//21 12//10
f 22//20 18//16 17//15
f 14//12 24//22 19//17
f 15//13 25//23 26//24
f 19//17 25//23 15//13
f 15//13 26//24 16//14
f 27//25 13//11 20//18
f 16//14 26//24 28//26
f 22//20 16//14 29//27
f 23//21 30//28 12//10
f 30//28 21//19 12//10
f 22//20 29//27 31//29
f 18//16 22//20 31//29
f 32//30 18//16 31//29
f 23//21 18//16 32//30
f 14//12 13//11 33//31
f 14//12 33//31 34//32
f 27//25 20//18 35//33
f 21//19 35//33 20//18
f 29//27 16//14 28//26
f 30//28 23//21 36//34
f 14//12 34//32 24//22
f 25//23 37//35 26//24
f 13//11 27//25 33//31
f 28//26 26//24 38//36
f 28//26 39//37 29//27
f 21//19 40//38 35//33
f 30//28 41//39 21//19
f 40//38 21//19 41//39
f 25//23 19//17 37//35
f 27//25 42//40 33//31
f 37//35 38//36 26//24
f 42//40 27//25 43//41
f 27//25 35//33 43//41
f 40//38 43//41 35//33
f 40//38 44//42 43//41
f 41//39 44//42 40//38
f 31//29 29//27 45//43
f 31//29 46//44 32//30
f 41//39 30//28 47//45
f 32//30 48//46 23//21
f 23//21 48//46 36//34
f 19//17 24//22 49//47
f 24//22 34//32 50//48
f 28//26 38//36 39//37
f 43//41 44//42 51//49
f 36//34 47//45 30//28
f 46//44 31//29 45//43
f 34//32 52//50 50//48
f 19//17 49//47 37//35
f 34//32 53//51 52//50
f 33//31 53//51 34//32
f 33//31 42//40 54//52
f 43//41 55//53 42//40
f 51//49 55//53 43//41
f 29//27 56//54 45//43
f 39//37 56//54 29//27
f 57//55 46//44 45//43
f 41//39 58//56 44//42
f 41//39 47//45 58//56
f 46//44 57//55 59//57
f 46//44 59//57 32//30
f 59//57 48//46 32//30
f 24//22 60//58 49//47
f 24//22 50//48 60//58
f 61//59 37//35 49//47
f 54//52 42//40 55//53
f 51//49 44//42 62//60
f 44//42 58//56 62//60
f 37//35 61//59 38//36
f 33//31 54//52 53//51
f 62//60 63//61 51//49
f 56//54 64//62 45//43
f 57//55 45//43 64//62
f 47//45 36//34 65//63
f 38//36 66//64 67//65
f 38//36 67//65 39//37
f 67//65 56//54 39//37
f 63//61 68//66 51//49
f 62//60 69//67 63//61
f 62//60 58//56 69//67
f 47//45 65//63 58//56
f 60//58 70//68 49//47
f 38//36 61//59 71//69
f 72//70 54//52 55//53
f 55//53 51//49 68//66
f 59//57 57//55 73//71
f 69//67 58//56 65//63
f 59//57 73//71 74//72
f 59//57 74//72 48//46
f 48//46 75//73 36//34
f 48//46 74//72 76//74
f 75//73 48//46 76//74
f 38//36 71//69 66//64
f 53//51 54//52 77//75
f 55//53 68//66 78//76
f 56//54 79//77 64//62
f 73//71 57//55 64//62
f 36//34 75//73 65//63
f 70//68 60//58 80//78
f 60//58 50//48 80//78
f 49//47 70//68 61//59
f 81//79 52//50 53//51
f 81//79 53//51 77//75
f 56//54 67//65 79//77
f 50//48 82//80 80//78
f 50//48 52//50 82//80
f 72//70 77//75 54//52
f 55//53 78//76 72//70
f 83//81 63//61 69//67
f 64//62 79//77 73//71
f 84//82 69//67 65//63
f 84//82 83//81 69//67
f 76//74 74//72 85//83
f 84//82 65//63 75//73
f 86//84 75//73 76//74
f 87//85 71//69 61//59
f 88//86 77//75 72//70
f 79//77 89//87 90//88
f 73//71 79//77 90//88
f 74//72 73//71 91//89
f 74//72 91//89 85//83
f 76//74 85//83 92//90
f 76//74 92//90 86//84
f 84//82 75//73 86//84
f 52//50 81//79 82//80
f 61//59 70//68 87//85
f 66//64 93//91 67//65
f 93//91 66//64 71//69
f 63//61 94//92 68//66
f 67//65 95//93 79//77
f 63//61 83//81 94//92
f 95//93 89//87 79//77
f 90//88 91//89 73//71
f 96//94 83//81 84//82
f 70//68 80//78 97//95
f 77//75 88//86 81//79
f 93//91 98//96 67//65
f 78//76 68//66 94//92
f 99//97 83//81 96//94
f 100//98 84//82 86//84
f 84//82 100//98 96//94
f 86//84 92//90 100//98
f 97//95 80//78 82//80
f 70//68 101//99 87//85
f 72//70 78//76 102//100
f 102//100 78//76 94//92
f 98//96 95//93 67//65
f 94//92 83//81 103//101
f 90//88 104//102 91//89
f 104//102 85//83 91//89
f 70//68 97//95 101//99
f 71//69 105//103 93//91
f 88//86 106//104 107//105
f 106//104 88//86 72//70
f 72//70 102//100 106//104
f 95//93 108//106 89//87
f 89//87 109//107 90//88
f 83//81 99//97 103//101
f 110//108 99//97 96//94
f 111//109 85//83 104//102
f 92//90 85//83 111//109
f 92//90 112//110 100//98
f 111//109 112//110 92//90
f 112//110 113//111 100//98
f 100//98 113//111 96//94
f 97//95 114//112 101//99
f 81//79 88//86 115//113
f 105//103 71//69 87//85
f 98//96 116//114 108//106
f 98//96 108//106 95//93
f 89//87 108//106 109//107
f 103//101 99//97 110//108
f 109//107 104//102 90//88
f 113//111 110//108 96//94
f 82//80 117//115 97//95
f 82//80 115//113 117//115
f 81//79 115//113 82//80
f 87//85 118//116 105//103
f 88//86 119//117 115//113
f 119//117 88//86 107//105
f 93//91 105//103 98//96
f 106//104 102//100 120//118
f 102//100 94//92 121//119
f 94//92 103//101 121//119
f 109//107 122//120 104//102
f 123//121 110//108 113//111
f 104//102 122//120 111//109
f 111//109 124//122 112//110
f 122//120 124//122 111//109
f 124//122 125//123 112//110
f 125//123 113//111 112//110
f 97//95 117//115 114//112
f 101//99 118//116 87//85
f 105//103 116//114 98//96
f 126//124 107//105 106//104
f 120//118 126//124 106//104
f 120//118 102//100 121//119
f 127//125 108//106 116//114
f 109//107 108//106 128//126
f 129//127 103//101 110//108
f 123//121 113//111 125//123
f 114//112 130//128 101//99
f 117//115 130//128 114//112
f 115//113 131//129 117//115
f 118//116 101//99 130//128
f 118//116 132//130 105//103
f 116//114 105//103 127//125
f 103//101 129//127 121//119
f 110//108 133//131 129//127
f 110//108 123//121 133//131
f 109//107 134//132 122//120
f 134//132 124//122 122//120
f 115//113 135//133 131//129
f 119//117 135//133 115//113
f 126//124 119//117 107//105
f 105//103 132//130 127//125
f 120//118 121//119 136//134
f 136//134 121//119 129//127
f 129//127 133//131 136//134
f 127//125 128//126 108//106
f 137//135 128//126 127//125
f 134//132 128//126 137//135
f 109//107 128//126 134//132
f 133//131 123//121 138//136
f 123//121 125//123 139//137
f 125//123 124//122 139//137
f 117//115 140//138 130//128
f 131//129 140//138 117//115
f 132//130 118//116 141//139
f 119//117 126//124 135//133
f 127//125 132//130 141//139
f 142//140 127//125 141//139
f 126//124 120//118 143//141
f 143//141 120//118 136//134
f 134//132 139//137 124//122
f 135//133 140//138 131//129
f 118//116 130//128 141//139
f 126//124 144//142 135//133
f 126//124 143//141 144//142
f 143//141 136//134 145//143
f 145//143 136//134 133//131
f 142//140 137//135 127//125
f 145//143 133//131 138//136
f 134//132 137//135 146//144
f 138//136 123//121 147//145
f 139//137 134//132 146//144
f 123//121 139//137 147//145
f 130//128 140//138 148//146
f 148//146 140//138 149//147
f 130//128 148//146 141//139
f 140//138 135//133 149//147
f 144//142 149//147 135//133
f 150//148 144//142 143//141
f 143//141 145//143 150//148
f 145//143 151//149 150//148
f 152//150 137//135 142//140
f 145//143 138//136 151//149
f 152//150 146//144 137//135
f 153//151 146//144 152//150
f 151//149 138//136 147//145
f 147//145 146//144 153//151
f 147//145 139//137 146//144
f 154//152 141//139 148//146
f 149//147 154//152 148//146
f 144//142 155//153 149//147
f 144//142 150//148 155//153
f 141//139 154//152 142//140
f 154//152 152//150 142//140
f 150//148 151//149 155//153
f 154//152 156//154 152//150
f 156//154 153//151 152//150
f 156//154 151//149 147//145
f 147//145 153//151 156//154
f 154//152 149//147 157//155
f 149//147 155//153 157//155
f 157//155 156//154 154//152
f 155//153 151//149 157//155
f 151//149 156//154 157//155
