# Blender v2.92.0 OBJ File: 'convert_to_one_sided.blend'
# www.blender.org
mtllib 1039L.mtl
o Cube
v 0.001000 0.001000 -0.001000
v 0.001000 -0.001000 -0.001000
v 0.001000 0.001000 0.001000
v 0.001000 -0.001000 0.001000
v -0.001000 0.001000 -0.001000
v -0.001000 -0.001000 -0.001000
v -0.001000 0.001000 0.001000
v -0.001000 -0.001000 0.001000
vt 0.625000 0.500000
vt 0.875000 0.500000
vt 0.875000 0.750000
vt 0.625000 0.750000
vt 0.375000 0.750000
vt 0.625000 1.000000
vt 0.375000 1.000000
vt 0.375000 0.000000
vt 0.625000 0.000000
vt 0.625000 0.250000
vt 0.375000 0.250000
vt 0.125000 0.500000
vt 0.375000 0.500000
vt 0.125000 0.750000
vn 0.0000 1.0000 0.0000
vn 0.0000 0.0000 1.0000
vn -1.0000 0.0000 0.0000
vn 0.0000 -1.0000 0.0000
vn 1.0000 0.0000 0.0000
vn 0.0000 0.0000 -1.0000
usemtl Material
s off
f 1/1/1 5/2/1 7/3/1 3/4/1
f 4/5/2 3/4/2 7/6/2 8/7/2
f 8/8/3 7/9/3 5/10/3 6/11/3
f 6/12/4 2/13/4 4/5/4 8/14/4
f 2/13/5 1/1/5 3/4/5 4/5/5
f 6/11/6 5/10/6 1/1/6 2/13/6
o 1039
v 12.789835 4.957485 5.139504
v 12.738536 4.943316 5.143225
v 12.786236 5.006334 5.160285
v 12.749636 4.932476 5.156995
v 12.835035 4.956255 5.164265
v 12.722636 4.958985 5.168584
v 12.875134 4.983805 5.154504
v 12.861535 5.003745 5.154994
v 12.707737 4.993355 5.207494
v 12.741136 5.013454 5.192834
v 12.960333 5.030115 5.169415
v 12.738036 4.937636 5.197714
v 12.933333 4.995835 5.173604
v 13.007432 5.032094 5.183484
v 12.797735 5.070253 5.202664
v 13.054832 5.071434 5.189724
v 12.954633 5.089993 5.186484
v 12.885134 5.128433 5.227474
v 13.054732 5.106853 5.198894
v 12.854634 4.954705 5.234864
v 12.724236 4.972825 5.226034
v 12.973433 5.006725 5.216174
v 13.070131 5.069374 5.221114
v 13.097732 5.113363 5.221213
v 12.830435 5.123033 5.240893
v 13.004832 5.184883 5.251993
v 13.050232 5.164793 5.231584
v 12.764135 4.970305 5.274453
v 12.746936 5.020054 5.275383
v 12.791535 5.088984 5.259063
v 13.119431 5.108743 5.267233
v 13.106131 5.184682 5.261833
v 13.130231 5.157263 5.282973
v 12.809236 4.966535 5.285573
v 12.990832 5.007514 5.301043
v 12.771036 5.060274 5.285543
v 12.859634 5.168892 5.293272
v 12.896634 5.189992 5.293483
v 13.083032 5.083164 5.341862
v 13.137331 5.230622 5.328403
v 13.065732 5.249281 5.312243
v 12.952133 4.998555 5.345232
v 12.870934 5.189882 5.356302
v 13.135131 5.157583 5.375332
v 13.147231 5.238302 5.405681
v 12.986233 5.250882 5.336382
v 12.890035 4.991885 5.350272
v 12.782636 5.021504 5.318962
v 12.824835 5.118203 5.354402
v 12.912133 5.218172 5.343462
v 12.843534 5.018994 5.364732
v 13.041332 5.059824 5.413181
v 12.793435 5.061524 5.331132
v 13.146531 5.323651 5.449821
v 13.083832 5.341920 5.420211
v 13.115431 5.286421 5.377552
v 12.976033 5.039894 5.427641
v 13.031932 5.334120 5.434581
v 12.922734 5.048264 5.435771
v 13.150631 5.253282 5.509810
v 12.900234 5.204472 5.443371
v 12.962733 5.270331 5.414061
v 13.124131 5.355550 5.469430
v 13.040032 5.095284 5.500550
v 12.849834 5.095074 5.399911
v 13.095931 5.109833 5.453511
v 13.123032 5.204802 5.549320
v 13.149831 5.314101 5.522880
v 13.036733 5.352650 5.484940
v 13.073031 5.372170 5.489950
v 12.918933 5.109773 5.484591
v 13.076732 5.135173 5.520320
v 12.915334 5.177803 5.491980
v 12.993432 5.306201 5.501620
v 13.133532 5.366710 5.560219
v 13.105931 5.376370 5.518740
v 12.964633 5.260011 5.518580
v 13.007932 5.128153 5.534349
v 12.980833 5.198462 5.569329
v 13.081131 5.368430 5.562709
v 13.058032 5.142403 5.547160
v 13.003233 5.263431 5.577179
v 13.036932 5.318221 5.579529
v 12.990633 5.165613 5.558420
v 13.115931 5.372290 5.577719
v 13.078532 5.190062 5.601159
v 13.055733 5.313621 5.658338
v 13.046632 5.206842 5.628199
v 13.036332 5.254012 5.643198
v 13.143331 5.318321 5.657458
v 13.088832 5.355520 5.654908
v 13.117131 5.361760 5.641169
v 13.119431 5.219852 5.677878
v 13.048046 5.239245 5.699999
v 13.026610 5.261473 5.699999
v 13.140214 5.266276 5.699999
v 13.138151 5.346925 5.699999
v 13.145467 5.302188 5.699999
v 13.144060 5.319198 5.699999
v 13.134862 5.219664 5.699999
v 13.076283 5.349874 5.699999
v 13.097922 5.367338 5.699999
v 13.126955 5.368535 5.699999
v 13.112664 5.372007 5.699999
v 13.126448 5.221120 5.699999
v 13.096593 5.204937 5.699999
v 13.116770 5.210209 5.699999
v 13.087799 5.198969 5.699999
v 13.039104 5.294207 5.699999
v 13.060742 5.329823 5.699999
v 13.084422 5.200376 5.699999
v 13.048471 5.237620 5.699999
v 13.059366 5.209022 5.699999
vn 0.0930 -0.1702 -0.9810
vn -0.2961 -0.3772 -0.8775
vn -0.2705 0.4612 -0.8450
vn -0.2175 -0.9457 -0.2414
vn 0.3042 -0.8328 -0.4625
vn -0.8934 -0.1726 -0.4148
vn 0.2799 -0.3496 -0.8941
vn 0.0560 0.2203 -0.9738
vn -0.9454 0.3257 0.0124
vn -0.5986 0.5695 -0.5634
vn 0.2203 -0.0519 -0.9741
vn -0.4387 -0.8658 0.2408
vn 0.3994 -0.6859 -0.6083
vn 0.4957 -0.6523 -0.5733
vn -0.4614 0.6592 -0.5937
vn 0.5293 -0.2318 -0.8162
vn -0.0344 0.4619 -0.8863
vn -0.1980 0.6675 -0.7178
vn 0.2474 0.3349 -0.9092
vn 0.2095 -0.9730 0.0973
vn -0.8327 -0.3768 0.4057
vn 0.4856 -0.8646 -0.1287
vn 0.6802 -0.6881 -0.2527
vn 0.7550 -0.0376 -0.6547
vn -0.4867 0.7314 -0.4777
vn -0.1254 0.6842 -0.7185
vn 0.0773 0.5935 -0.8011
vn -0.4983 -0.6253 0.6005
vn -0.8537 0.0933 0.5123
vn -0.7388 0.6621 -0.1255
vn 0.8744 -0.4582 -0.1597
vn 0.4792 0.5075 -0.7161
vn 0.9469 0.0196 -0.3209
vn -0.1213 -0.8818 0.4558
vn 0.4919 -0.8697 0.0415
vn -0.8371 0.4757 0.2700
vn -0.5962 0.7627 -0.2507
vn -0.3589 0.7978 -0.4845
vn 0.7193 -0.6923 0.0578
vn 0.8127 0.3740 -0.4468
vn 0.0777 0.7278 -0.6813
vn 0.2731 -0.9230 0.2710
vn -0.7285 0.6851 0.0042
vn 0.9314 -0.3572 0.0701
vn 0.9966 -0.0089 -0.0825
vn -0.3053 0.7943 -0.5253
vn -0.0413 -0.8821 0.4693
vn -0.7104 -0.2092 0.6720
vn -0.8491 0.4165 0.3248
vn -0.4970 0.8265 -0.2646
vn -0.4477 -0.5693 0.6896
vn 0.4899 -0.8288 0.2706
vn -0.8228 0.1920 0.5350
vn 0.8562 0.4430 -0.2659
vn 0.0548 0.8494 -0.5250
vn 0.4305 0.6801 -0.5934
vn 0.1159 -0.8542 0.5068
vn -0.4342 0.8210 -0.3707
vn -0.2113 -0.7198 0.6613
vn 0.9812 -0.1756 0.0798
vn -0.8275 0.4838 0.2848
vn -0.6364 0.7578 -0.1437
vn 0.4923 0.7878 -0.3701
vn 0.2866 -0.7938 0.5364
vn -0.7892 0.0014 0.6141
vn 0.7246 -0.6463 0.2392
vn 0.7947 -0.5791 0.1820
vn 0.9892 0.1467 -0.0041
vn -0.5978 0.8007 -0.0393
vn -0.2414 0.9523 -0.1868
vn -0.5569 -0.3957 0.7303
vn 0.5488 -0.7092 0.4425
vn -0.8164 0.1447 0.5590
vn -0.7290 0.6620 0.1740
vn 0.7196 0.6943 0.0131
vn 0.1506 0.9808 -0.1237
vn -0.7909 0.4591 0.4046
vn -0.1169 -0.7092 0.6952
vn -0.7050 -0.1441 0.6944
vn -0.4057 0.8998 0.1604
vn 0.2479 -0.7476 0.6162
vn -0.8261 0.3088 0.4714
vn -0.7514 0.5976 0.2798
vn -0.4435 -0.5094 0.7375
vn 0.1247 0.9866 0.1056
vn 0.2797 -0.8761 0.3927
vn -0.8771 0.4739 0.0785
vn -0.5723 -0.6734 0.4680
vn -0.9516 -0.0978 0.2914
vn 0.9916 0.1289 0.0074
vn -0.5670 0.8235 0.0186
vn 0.2908 0.9565 0.0216
vn 0.4455 -0.8925 -0.0710
vn 0.4561 -0.5692 0.6841
vn 0.3878 -0.4208 0.8201
vn 0.6848 -0.0617 0.7261
vn 0.1583 -0.7398 0.6539
vn -0.2811 -0.5896 0.7572
vn -0.5029 -0.1847 0.8444
vn -0.8185 -0.2088 0.5351
vn -0.7539 0.3150 0.5765
vn -0.6204 0.3917 0.6795
vn -0.5301 -0.5254 0.6655
vn -0.5608 0.5603 0.6096
vn -0.3429 0.6803 0.6477
vn -0.1248 0.8075 0.5764
vn 0.4660 0.6253 0.6260
vn 0.7267 -0.0364 0.6859
vn 0.6886 0.1142 0.7161
vn 0.2216 -0.3867 0.8952
vn 0.4363 -0.8480 0.3007
vn -0.6801 -0.1903 0.7080
vn 0.7090 0.2635 0.6541
usemtl mtl1.058
s 1
f 9//7 10//8 11//9
f 12//10 10//8 13//11
f 12//10 14//12 10//8
f 13//11 10//8 9//7
f 15//13 13//11 9//7
f 10//8 14//12 11//9
f 16//14 15//13 9//7
f 14//12 17//15 18//16
f 14//12 18//16 11//9
f 11//9 16//14 9//7
f 19//17 15//13 16//14
f 14//12 12//10 20//18
f 21//19 13//11 15//13
f 19//17 21//19 15//13
f 22//20 21//19 19//17
f 18//16 23//21 11//9
f 24//22 22//20 19//17
f 11//9 25//23 16//14
f 26//24 25//23 11//9
f 16//14 25//23 19//17
f 11//9 23//21 26//24
f 27//25 19//17 25//23
f 24//22 19//17 27//25
f 12//10 28//26 20//18
f 13//11 28//26 12//10
f 29//27 14//12 20//18
f 13//11 21//19 30//28
f 14//12 29//27 17//15
f 22//20 24//22 31//29
f 24//22 32//30 31//29
f 32//30 24//22 27//25
f 26//24 23//21 33//31
f 34//32 25//23 26//24
f 25//23 35//33 27//25
f 34//32 35//33 25//23
f 20//18 36//34 29//27
f 30//28 28//26 13//11
f 29//27 37//35 17//15
f 21//19 22//20 30//28
f 30//28 22//20 31//29
f 18//16 17//15 38//36
f 23//21 18//16 38//36
f 39//37 31//29 32//30
f 23//21 38//36 33//31
f 32//30 27//25 40//38
f 40//38 41//39 32//30
f 35//33 40//38 27//25
f 42//40 36//34 20//18
f 20//18 28//26 42//40
f 43//41 28//26 30//28
f 37//35 44//42 17//15
f 33//31 38//36 45//43
f 39//37 32//30 41//39
f 26//24 33//31 46//44
f 47//45 30//28 31//29
f 17//15 44//42 38//36
f 31//29 39//37 47//45
f 46//44 33//31 45//43
f 41//39 40//38 48//46
f 35//33 34//32 49//47
f 49//47 40//38 35//33
f 43//41 50//48 28//26
f 30//28 47//45 43//41
f 51//49 45//43 38//36
f 39//37 41//39 52//50
f 41//39 48//46 53//51
f 46//44 54//52 26//24
f 26//24 54//52 34//32
f 49//47 34//32 54//52
f 50//48 55//53 28//26
f 28//26 55//53 42//40
f 56//54 29//27 36//34
f 37//35 29//27 56//54
f 44//42 57//55 38//36
f 57//55 51//49 38//36
f 41//39 53//51 52//50
f 46//44 45//43 58//56
f 54//52 46//44 58//56
f 36//34 42//40 59//57
f 43//41 47//45 60//58
f 61//59 37//35 56//54
f 37//35 61//59 44//42
f 39//37 52//50 47//45
f 44//42 61//59 57//55
f 53//51 48//46 62//60
f 54//52 63//61 49//47
f 49//47 64//62 40//38
f 48//46 40//38 64//62
f 48//46 64//62 62//60
f 42//40 55//53 59//57
f 36//34 59//57 56//54
f 50//48 43//41 60//58
f 45//43 51//49 58//56
f 49//47 63//61 64//62
f 50//48 60//58 65//63
f 63//61 54//52 66//64
f 67//65 59//57 55//53
f 50//48 65//63 55//53
f 55//53 65//63 67//65
f 52//50 53//51 68//66
f 69//67 51//49 57//55
f 54//52 58//56 70//68
f 54//52 70//68 66//64
f 71//69 64//62 63//61
f 60//58 72//70 65//63
f 73//71 56//54 59//57
f 47//45 74//72 60//58
f 56//54 73//71 61//59
f 47//45 75//73 74//72
f 52//50 75//73 47//45
f 61//59 73//71 57//55
f 73//71 69//67 57//55
f 53//51 62//60 76//74
f 58//56 51//49 70//68
f 66//64 70//68 77//75
f 62//60 64//62 71//69
f 78//76 63//61 66//64
f 59//57 79//77 73//71
f 51//49 69//67 70//68
f 66//64 77//75 78//76
f 67//65 79//77 59//57
f 80//78 60//58 74//72
f 73//71 81//79 69//67
f 52//50 68//66 75//73
f 82//80 70//68 69//67
f 77//75 70//68 82//80
f 76//74 62//60 83//81
f 63//61 78//76 84//82
f 71//69 63//61 84//82
f 60//58 80//78 72//70
f 79//77 81//79 73//71
f 81//79 85//83 69//67
f 53//51 76//74 68//66
f 69//67 85//83 82//80
f 83//81 62//60 71//69
f 86//84 79//77 67//65
f 65//63 86//84 67//65
f 72//70 86//84 65//63
f 81//79 79//77 87//85
f 75//73 80//78 74//72
f 88//86 78//76 77//75
f 71//69 84//82 83//81
f 72//70 89//87 86//84
f 80//78 89//87 72//70
f 85//83 90//88 91//89
f 82//80 85//83 91//89
f 82//80 88//86 77//75
f 84//82 78//76 88//86
f 79//77 86//84 92//90
f 79//77 92//90 87//85
f 90//88 85//83 81//79
f 82//80 91//89 88//86
f 84//82 88//86 93//91
f 93//91 83//81 84//82
f 80//78 94//92 89//87
f 81//79 87//85 90//88
f 90//88 95//93 91//89
f 94//92 86//84 89//87
f 80//78 75//73 94//92
f 96//94 87//85 92//90
f 96//94 97//95 87//85
f 87//85 97//95 90//88
f 90//88 97//95 95//93
f 68//66 76//74 98//96
f 91//89 95//93 99//97
f 76//74 83//81 98//96
f 93//91 100//98 83//81
f 92//90 86//84 96//94
f 96//94 86//84 94//92
f 94//92 75//73 101//99
f 101//99 108//100 113//101
f 108//100 98//96 104//102
f 98//96 75//73 68//66
f 100//98 98//96 83//81
f 88//86 91//89 99//97
f 99//97 100//98 88//86
f 88//86 100//98 93//91
f 96//94 116//103 119//104
f 102//105 103//106 97//95
f 117//107 118//108 95//93
f 119//104 121//109 96//94
f 109//110 110//111 99//97
f 112//112 111//113 100//98
f 104//102 98//96 106//114
f 106//114 98//96 107//115
f 114//116 101//99 115//117
f 96//94 121//109 120//118
f 101//99 116//103 94//92
f 101//99 113//101 115//117
f 102//105 114//116 113//101
f 99//97 112//112 100//98
f 95//93 109//110 99//97
f 100//98 105//119 98//96
f 98//96 105//119 107//115
f 97//95 117//107 95//93
f 97//95 120//118 102//105
f 101//99 75//73 108//100
f 108//100 75//73 98//96
f 96//94 94//92 116//103
f 101//99 114//116 116//103
f 102//105 120//118 114//116
f 120//118 121//109 114//116
f 119//104 116//103 114//116
f 121//109 119//104 114//116
f 117//107 103//106 102//105
f 109//110 118//108 107//115
f 118//108 117//107 104//102
f 112//112 110//111 105//119
f 110//111 109//110 105//119
f 105//119 111//113 112//112
f 106//114 107//115 118//108
f 107//115 105//119 109//110
f 113//101 108//100 104//102
f 104//102 106//114 118//108
f 117//107 102//105 104//102
f 114//116 115//117 113//101
f 113//101 104//102 102//105
f 99//97 110//111 112//112
f 95//93 118//108 109//110
f 100//98 111//113 105//119
f 97//95 103//106 117//107
f 97//95 96//94 120//118
