# Blender v2.92.0 OBJ File: 'convert_to_one_sided.blend'
# www.blender.org
mtllib 1044L.mtl
o Cube
v 0.001000 0.001000 -0.001000
v 0.001000 -0.001000 -0.001000
v 0.001000 0.001000 0.001000
v 0.001000 -0.001000 0.001000
v -0.001000 0.001000 -0.001000
v -0.001000 -0.001000 -0.001000
v -0.001000 0.001000 0.001000
v -0.001000 -0.001000 0.001000
vt 0.625000 0.500000
vt 0.875000 0.500000
vt 0.875000 0.750000
vt 0.625000 0.750000
vt 0.375000 0.750000
vt 0.625000 1.000000
vt 0.375000 1.000000
vt 0.375000 0.000000
vt 0.625000 0.000000
vt 0.625000 0.250000
vt 0.375000 0.250000
vt 0.125000 0.500000
vt 0.375000 0.500000
vt 0.125000 0.750000
vn 0.0000 1.0000 0.0000
vn 0.0000 0.0000 1.0000
vn -1.0000 0.0000 0.0000
vn 0.0000 -1.0000 0.0000
vn 1.0000 0.0000 0.0000
vn 0.0000 0.0000 -1.0000
usemtl Material
s off
f 1/1/1 5/2/1 7/3/1 3/4/1
f 4/5/2 3/4/2 7/6/2 8/7/2
f 8/8/3 7/9/3 5/10/3 6/11/3
f 6/12/4 2/13/4 4/5/4 8/14/4
f 2/13/5 1/1/5 3/4/5 4/5/5
f 6/11/6 5/10/6 1/1/6 2/13/6
o 1044
v 8.375942 4.206255 3.180650
v 8.338253 4.194036 3.187330
v 8.321183 4.223925 3.190430
v 8.390652 4.194136 3.198349
v 8.375452 4.275304 3.200140
v 8.436352 4.263175 3.205499
v 8.298862 4.215205 3.211789
v 8.489631 4.226125 3.230039
v 8.292303 4.277484 3.249459
v 8.336883 4.297844 3.232889
v 8.446561 4.321444 3.232839
v 8.356873 4.208945 3.233789
v 8.464321 4.207736 3.238659
v 8.539210 4.218606 3.258239
v 8.279563 4.276885 3.281598
v 8.535050 4.301444 3.262399
v 8.611689 4.266405 3.294848
v 8.398142 4.356803 3.268358
v 8.290633 4.274545 3.302518
v 8.577359 4.233935 3.281888
v 8.618099 4.304364 3.304288
v 8.423111 4.259505 3.338868
v 8.525961 4.231185 3.293018
v 8.286843 4.360543 3.355887
v 8.334932 4.355793 3.300938
v 8.500410 4.379093 3.318338
v 8.578879 4.236825 3.301608
v 8.279674 4.329044 3.356597
v 8.607439 4.340194 3.333238
v 8.371682 4.412523 3.345738
v 8.421252 4.421722 3.362818
v 8.324992 4.282254 3.344528
v 8.635679 4.261435 3.337608
v 8.686408 4.287045 3.362257
v 8.661459 4.310914 3.351318
v 8.548720 4.271494 3.377567
v 8.332713 4.416573 3.386677
v 8.700197 4.282404 3.401217
v 8.288683 4.344523 3.408547
v 8.714328 4.317154 3.411287
v 8.658198 4.348573 3.387327
v 8.570920 4.400713 3.407577
v 8.451811 4.450442 3.433567
v 8.654619 4.284084 3.459046
v 8.334723 4.355733 3.477316
v 8.717008 4.297094 3.419397
v 8.287573 4.400473 3.456236
v 8.369183 4.455442 3.442206
v 8.447581 4.338044 3.502605
v 8.315413 4.434893 3.458246
v 8.713717 4.295604 3.470556
v 8.723508 4.314984 3.466456
v 8.636429 4.382303 3.476786
v 8.570040 4.309474 3.521585
v 8.495730 4.457292 3.513276
v 8.690588 4.298004 3.531915
v 8.703098 4.336464 3.518826
v 8.309413 4.458092 3.555995
v 8.340053 4.473052 3.525306
v 8.701218 4.315954 3.528315
v 8.563590 4.435503 3.560005
v 8.393652 4.477632 3.543325
v 8.642899 4.306614 3.552405
v 8.519570 4.344714 3.582185
v 8.303543 4.411423 3.523715
v 8.639790 4.379443 3.568775
v 8.368342 4.395113 3.584615
v 8.323953 4.415103 3.571685
v 8.573840 4.348434 3.614234
v 8.675648 4.340844 3.568545
v 8.463302 4.395643 3.632854
v 8.556750 4.426842 3.623414
v 8.341202 4.474722 3.586425
v 8.471311 4.460442 3.595954
v 8.650079 4.335244 3.581575
v 8.613979 4.376793 3.613394
v 8.318223 4.443032 3.589935
v 8.347862 4.460732 3.623804
v 8.401821 4.467372 3.618564
v 8.365742 4.430482 3.612444
v 8.555460 4.410653 3.654994
v 8.578790 4.377873 3.640484
v 8.539890 4.383863 3.646874
v 8.485091 4.440392 3.649594
v 8.407123 4.443672 3.644974
v 8.419262 4.449172 3.642904
v 8.517240 4.409742 3.650114
v 8.457831 4.430233 3.641794
vn 0.1382 -0.1919 -0.9716
vn -0.2979 -0.8198 -0.4891
vn -0.4786 0.1660 -0.8622
vn 0.1940 -0.9325 -0.3048
vn -0.0750 0.4685 -0.8803
vn 0.3136 0.2129 -0.9254
vn -0.8479 -0.5084 -0.1503
vn 0.4584 -0.3699 -0.8081
vn -0.7386 0.4127 -0.5330
vn -0.3884 0.6123 -0.6886
vn 0.1960 0.5838 -0.7879
vn -0.1971 -0.9040 0.3795
vn 0.1202 -0.9897 0.0772
vn 0.3060 -0.9345 -0.1822
vn -0.9953 -0.0784 -0.0576
vn 0.4085 0.3829 -0.8286
vn 0.6316 -0.1588 -0.7589
vn -0.0981 0.7492 -0.6550
vn -0.6481 -0.6606 0.3788
vn 0.5737 -0.6890 -0.4429
vn 0.5378 0.3819 -0.7516
vn -0.1083 -0.8823 0.4581
vn 0.0166 -0.9263 0.3764
vn -0.8052 0.5036 -0.3130
vn -0.4565 0.6895 -0.5623
vn 0.2576 0.7831 -0.5660
vn 0.2174 -0.9454 0.2427
vn -0.9808 -0.1482 0.1271
vn 0.4140 0.6913 -0.5922
vn -0.2284 0.8250 -0.5170
vn 0.0676 0.8732 -0.4826
vn -0.3377 -0.8101 0.4792
vn 0.4093 -0.9095 -0.0735
vn 0.7810 -0.2836 -0.5565
vn 0.6377 0.4099 -0.6521
vn -0.0400 -0.9331 0.3575
vn -0.4786 0.7726 -0.4171
vn 0.5263 -0.8466 -0.0794
vn -0.7523 -0.5360 0.3831
vn 0.8011 0.4636 -0.3786
vn 0.5140 0.7520 -0.4127
vn 0.3731 0.8635 -0.3394
vn 0.1692 0.9322 -0.3201
vn 0.0512 -0.9808 0.1880
vn -0.4192 -0.7938 0.4406
vn 0.9202 -0.3397 -0.1943
vn -0.9843 0.1700 0.0469
vn -0.1721 0.9282 -0.3300
vn -0.2346 -0.8895 0.3921
vn -0.6226 0.7364 -0.2647
vn 0.6894 -0.7027 0.1759
vn 0.9777 0.1981 0.0698
vn 0.5451 0.8308 -0.1123
vn -0.1826 -0.9320 0.3129
vn 0.3039 0.9449 -0.1214
vn 0.3978 -0.7893 0.4676
vn 0.8157 0.5300 0.2317
vn -0.8439 0.5169 0.1435
vn -0.3435 0.9256 -0.1591
vn 0.8338 -0.2354 0.4994
vn 0.4456 0.8943 0.0411
vn 0.0629 0.9968 -0.0486
vn -0.0023 -0.8887 0.4585
vn -0.2690 -0.8672 0.4190
vn -0.8748 -0.3496 0.3355
vn 0.6445 0.7228 0.2493
vn -0.3541 -0.7615 0.5428
vn -0.6043 -0.6037 0.5200
vn -0.0584 -0.7928 0.6067
vn 0.7566 0.1681 0.6319
vn -0.2654 -0.6246 0.7344
vn 0.4721 0.8041 0.3614
vn -0.2883 0.9367 0.1988
vn 0.2333 0.9560 0.1778
vn 0.4303 -0.4683 0.7718
vn 0.6651 0.2927 0.6870
vn -0.7986 -0.2079 0.5649
vn -0.4991 0.3931 0.7723
vn 0.0299 0.9132 0.4065
vn -0.4457 -0.5051 0.7391
vn 0.3530 0.2815 0.8923
vn 0.2824 -0.3135 0.9066
vn -0.0701 -0.4756 0.8769
vn 0.0869 0.5675 0.8188
vn -0.2146 -0.1720 0.9614
vn -0.0564 0.4141 0.9085
vn -0.0935 -0.1622 0.9823
vn -0.0811 -0.1149 0.9901
usemtl mtl1.062
s 1
f 9//7 10//8 11//9
f 10//8 9//7 12//10
f 9//7 11//9 13//11
f 14//12 9//7 13//11
f 10//8 15//13 11//9
f 9//7 16//14 12//10
f 11//9 15//13 17//15
f 9//7 14//12 16//14
f 17//15 18//16 11//9
f 13//11 11//9 18//16
f 14//12 13//11 19//17
f 10//8 20//18 15//13
f 12//10 20//18 10//8
f 16//14 21//19 12//10
f 21//19 16//14 22//20
f 15//13 23//21 17//15
f 24//22 25//23 16//14
f 14//12 24//22 16//14
f 13//11 26//24 19//17
f 18//16 26//24 13//11
f 14//12 19//17 24//22
f 12//10 21//19 20//18
f 27//25 15//13 20//18
f 27//25 23//21 15//13
f 22//20 16//14 28//26
f 28//26 16//14 25//23
f 29//27 25//23 24//22
f 21//19 30//28 20//18
f 21//19 31//29 30//28
f 21//19 22//20 31//29
f 32//30 17//15 23//21
f 17//15 32//30 33//31
f 17//15 33//31 18//16
f 33//31 26//24 18//16
f 19//17 34//32 24//22
f 19//17 26//24 34//32
f 22//20 35//33 31//29
f 28//26 35//33 22//20
f 36//34 32//30 23//21
f 24//22 34//32 37//35
f 37//35 29//27 24//22
f 26//24 33//31 38//36
f 39//37 26//24 38//36
f 34//32 26//24 39//37
f 40//38 20//18 30//28
f 35//33 28//26 41//39
f 42//40 41//39 25//23
f 41//39 28//26 25//23
f 25//23 29//27 43//41
f 37//35 43//41 29//27
f 31//29 44//42 30//28
f 20//18 40//38 27//25
f 27//25 36//34 23//21
f 42//40 25//23 43//41
f 38//36 33//31 45//43
f 35//33 44//42 31//29
f 35//33 41//39 44//42
f 42//40 46//44 41//39
f 27//25 47//45 36//34
f 48//46 42//40 43//41
f 43//41 37//35 49//47
f 48//46 43//41 49//47
f 33//31 32//30 45//43
f 50//48 37//35 34//32
f 34//32 39//37 51//49
f 52//50 44//42 41//39
f 41//39 46//44 52//50
f 30//28 53//51 40//38
f 46//44 42//40 54//52
f 48//46 54//52 42//40
f 36//34 55//53 32//30
f 49//47 37//35 50//48
f 38//36 45//43 56//54
f 50//48 34//32 51//49
f 39//37 38//36 56//54
f 44//42 57//55 30//28
f 40//38 47//45 27//25
f 45//43 32//30 58//56
f 46//44 59//57 52//50
f 53//51 30//28 57//55
f 59//57 46//44 54//52
f 40//38 53//51 47//45
f 54//52 48//46 60//58
f 55//53 58//56 32//30
f 61//59 49//47 50//48
f 51//49 39//37 56//54
f 44//42 52//50 62//60
f 48//46 49//47 61//59
f 61//59 60//58 48//46
f 61//59 50//48 63//61
f 63//61 50//48 51//49
f 45//43 58//56 56//54
f 59//57 64//62 52//50
f 60//58 59//57 54//52
f 44//42 62//60 57//55
f 60//58 61//59 65//63
f 36//34 47//45 55//53
f 66//64 58//56 55//53
f 56//54 58//56 67//65
f 68//66 59//57 60//58
f 63//61 69//67 61//59
f 67//65 70//68 56//54
f 56//54 70//68 51//49
f 63//61 51//49 70//68
f 52//50 71//69 62//60
f 52//50 64//62 71//69
f 59//57 68//66 64//62
f 62//60 72//70 57//55
f 60//58 65//63 68//66
f 47//45 53//51 73//71
f 47//45 73//71 55//53
f 65//63 61//59 74//72
f 61//59 69//67 74//72
f 75//73 53//51 57//55
f 73//71 53//51 76//74
f 55//53 73//71 66//64
f 58//56 66//64 67//65
f 62//60 77//75 72//70
f 62//60 71//69 77//75
f 65//63 78//76 68//66
f 57//55 79//77 75//73
f 72//70 79//77 57//55
f 65//63 74//72 78//76
f 80//78 74//72 69//67
f 70//68 67//65 81//79
f 63//61 70//68 82//80
f 82//80 69//67 63//61
f 68//66 78//76 83//81
f 68//66 83//81 64//62
f 78//76 74//72 84//82
f 75//73 76//74 53//51
f 85//83 73//71 76//74
f 73//71 85//83 66//64
f 67//65 66//64 81//79
f 83//81 77//75 71//69
f 64//62 83//81 71//69
f 74//72 80//78 84//82
f 66//64 86//84 81//79
f 81//79 87//85 70//68
f 77//75 79//77 72//70
f 83//81 78//76 84//82
f 88//86 76//74 75//73
f 84//82 80//78 89//87
f 85//83 86//84 66//64
f 69//67 82//80 80//78
f 81//79 86//84 87//85
f 70//68 87//85 82//80
f 77//75 83//81 90//88
f 77//75 91//89 79//77
f 84//82 90//88 83//81
f 84//82 89//87 90//88
f 88//86 75//73 79//77
f 76//74 88//86 85//83
f 85//83 88//86 86//84
f 82//80 92//90 80//78
f 87//85 92//90 82//80
f 77//75 90//88 91//89
f 88//86 79//77 93//91
f 93//91 86//84 88//86
f 92//90 89//87 80//78
f 94//92 86//84 93//91
f 94//92 87//85 86//84
f 94//92 92//90 87//85
f 91//89 90//88 95//93
f 90//88 89//87 95//93
f 79//77 91//89 95//93
f 79//77 95//93 96//94
f 93//91 79//77 96//94
f 95//93 92//90 96//94
f 96//94 94//92 93//91
f 89//87 92//90 95//93
f 92//90 94//92 96//94
