# Blender v2.92.0 OBJ File: 'convert_to_one_sided.blend'
# www.blender.org
mtllib 1044L.mtl
o 1044
v 8.375942 4.206255 3.180650
v 8.338253 4.194036 3.187330
v 8.321183 4.223925 3.190430
v 8.390652 4.194136 3.198349
v 8.375452 4.275304 3.200140
v 8.436352 4.263175 3.205499
v 8.298862 4.215205 3.211789
v 8.489631 4.226125 3.230039
v 8.292303 4.277484 3.249459
v 8.336883 4.297844 3.232889
v 8.446561 4.321444 3.232839
v 8.356873 4.208945 3.233789
v 8.464321 4.207736 3.238659
v 8.539210 4.218606 3.258239
v 8.279563 4.276885 3.281598
v 8.535050 4.301444 3.262399
v 8.611689 4.266405 3.294848
v 8.398142 4.356803 3.268358
v 8.290633 4.274545 3.302518
v 8.577359 4.233935 3.281888
v 8.618099 4.304364 3.304288
v 8.423111 4.259505 3.338868
v 8.525961 4.231185 3.293018
v 8.286843 4.360543 3.355887
v 8.334932 4.355793 3.300938
v 8.500410 4.379093 3.318338
v 8.578879 4.236825 3.301608
v 8.279674 4.329044 3.356597
v 8.607439 4.340194 3.333238
v 8.371682 4.412523 3.345738
v 8.421252 4.421722 3.362818
v 8.324992 4.282254 3.344528
v 8.635679 4.261435 3.337608
v 8.686408 4.287045 3.362257
v 8.661459 4.310914 3.351318
v 8.548720 4.271494 3.377567
v 8.332713 4.416573 3.386677
v 8.700197 4.282404 3.401217
v 8.288683 4.344523 3.408547
v 8.714328 4.317154 3.411287
v 8.658198 4.348573 3.387327
v 8.570920 4.400713 3.407577
v 8.451811 4.450442 3.433567
v 8.654619 4.284084 3.459046
v 8.334723 4.355733 3.477316
v 8.717008 4.297094 3.419397
v 8.287573 4.400473 3.456236
v 8.369183 4.455442 3.442206
v 8.447581 4.338044 3.502605
v 8.315413 4.434893 3.458246
v 8.713717 4.295604 3.470556
v 8.723508 4.314984 3.466456
v 8.636429 4.382303 3.476786
v 8.570040 4.309474 3.521585
v 8.495730 4.457292 3.513276
v 8.690588 4.298004 3.531915
v 8.703098 4.336464 3.518826
v 8.309413 4.458092 3.555995
v 8.340053 4.473052 3.525306
v 8.701218 4.315954 3.528315
v 8.563590 4.435503 3.560005
v 8.393652 4.477632 3.543325
v 8.642899 4.306614 3.552405
v 8.519570 4.344714 3.582185
v 8.303543 4.411423 3.523715
v 8.639790 4.379443 3.568775
v 8.368342 4.395113 3.584615
v 8.323953 4.415103 3.571685
v 8.573840 4.348434 3.614234
v 8.675648 4.340844 3.568545
v 8.463302 4.395643 3.632854
v 8.556750 4.426842 3.623414
v 8.341202 4.474722 3.586425
v 8.471311 4.460442 3.595954
v 8.650079 4.335244 3.581575
v 8.613979 4.376793 3.613394
v 8.318223 4.443032 3.589935
v 8.347862 4.460732 3.623804
v 8.401821 4.467372 3.618564
v 8.365742 4.430482 3.612444
v 8.555460 4.410653 3.654994
v 8.578790 4.377873 3.640484
v 8.539890 4.383863 3.646874
v 8.485091 4.440392 3.649594
v 8.407123 4.443672 3.644974
v 8.419262 4.449172 3.642904
v 8.517240 4.409742 3.650114
v 8.457831 4.430233 3.641794
vn 0.1382 -0.1919 -0.9716
vn -0.2979 -0.8198 -0.4891
vn -0.4786 0.1660 -0.8622
vn 0.1940 -0.9325 -0.3048
vn -0.0750 0.4685 -0.8803
vn 0.3136 0.2129 -0.9254
vn -0.8479 -0.5084 -0.1503
vn 0.4584 -0.3699 -0.8081
vn -0.7386 0.4127 -0.5330
vn -0.3884 0.6123 -0.6886
vn 0.1960 0.5838 -0.7879
vn -0.1971 -0.9040 0.3795
vn 0.1202 -0.9897 0.0772
vn 0.3060 -0.9345 -0.1822
vn -0.9953 -0.0784 -0.0576
vn 0.4085 0.3829 -0.8286
vn 0.6316 -0.1588 -0.7589
vn -0.0981 0.7492 -0.6550
vn -0.6481 -0.6606 0.3788
vn 0.5737 -0.6890 -0.4429
vn 0.5378 0.3819 -0.7516
vn -0.1083 -0.8823 0.4581
vn 0.0166 -0.9263 0.3764
vn -0.8052 0.5036 -0.3130
vn -0.4565 0.6895 -0.5623
vn 0.2576 0.7831 -0.5660
vn 0.2174 -0.9454 0.2427
vn -0.9808 -0.1482 0.1271
vn 0.4140 0.6913 -0.5922
vn -0.2284 0.8250 -0.5170
vn 0.0676 0.8732 -0.4826
vn -0.3377 -0.8101 0.4792
vn 0.4093 -0.9095 -0.0735
vn 0.7810 -0.2836 -0.5565
vn 0.6377 0.4099 -0.6521
vn -0.0400 -0.9331 0.3575
vn -0.4786 0.7726 -0.4171
vn 0.5263 -0.8466 -0.0794
vn -0.7523 -0.5360 0.3831
vn 0.8011 0.4636 -0.3786
vn 0.5140 0.7520 -0.4127
vn 0.3731 0.8635 -0.3394
vn 0.1692 0.9322 -0.3201
vn 0.0512 -0.9808 0.1880
vn -0.4192 -0.7938 0.4406
vn 0.9202 -0.3397 -0.1943
vn -0.9843 0.1700 0.0469
vn -0.1721 0.9282 -0.3300
vn -0.2346 -0.8895 0.3921
vn -0.6226 0.7364 -0.2647
vn 0.6894 -0.7027 0.1759
vn 0.9777 0.1981 0.0698
vn 0.5451 0.8308 -0.1123
vn -0.1826 -0.9320 0.3129
vn 0.3039 0.9449 -0.1214
vn 0.3978 -0.7893 0.4676
vn 0.8157 0.5300 0.2317
vn -0.8439 0.5169 0.1435
vn -0.3435 0.9256 -0.1591
vn 0.8338 -0.2354 0.4994
vn 0.4456 0.8943 0.0411
vn 0.0629 0.9968 -0.0486
vn -0.0023 -0.8887 0.4585
vn -0.2690 -0.8672 0.4190
vn -0.8748 -0.3496 0.3355
vn 0.6445 0.7228 0.2493
vn -0.3541 -0.7615 0.5428
vn -0.6043 -0.6037 0.5200
vn -0.0584 -0.7928 0.6067
vn 0.7566 0.1681 0.6319
vn -0.2654 -0.6246 0.7344
vn 0.4721 0.8041 0.3614
vn -0.2883 0.9367 0.1988
vn 0.2333 0.9560 0.1778
vn 0.4303 -0.4683 0.7718
vn 0.6651 0.2927 0.6870
vn -0.7986 -0.2079 0.5649
vn -0.4991 0.3931 0.7723
vn 0.0299 0.9132 0.4065
vn -0.4457 -0.5051 0.7391
vn 0.3530 0.2815 0.8923
vn 0.2824 -0.3135 0.9066
vn -0.0701 -0.4756 0.8769
vn 0.0869 0.5675 0.8188
vn -0.2146 -0.1720 0.9614
vn -0.0564 0.4141 0.9085
vn -0.0935 -0.1622 0.9823
vn -0.0811 -0.1149 0.9901
usemtl mtl1.913
s 1
f 1//1 2//2 3//3
f 2//2 1//1 4//4
f 1//1 3//3 5//5
f 6//6 1//1 5//5
f 2//2 7//7 3//3
f 1//1 8//8 4//4
f 3//3 7//7 9//9
f 1//1 6//6 8//8
f 9//9 10//10 3//3
f 5//5 3//3 10//10
f 6//6 5//5 11//11
f 2//2 12//12 7//7
f 4//4 12//12 2//2
f 8//8 13//13 4//4
f 13//13 8//8 14//14
f 7//7 15//15 9//9
f 16//16 17//17 8//8
f 6//6 16//16 8//8
f 5//5 18//18 11//11
f 10//10 18//18 5//5
f 6//6 11//11 16//16
f 4//4 13//13 12//12
f 19//19 7//7 12//12
f 19//19 15//15 7//7
f 14//14 8//8 20//20
f 20//20 8//8 17//17
f 21//21 17//17 16//16
f 13//13 22//22 12//12
f 13//13 23//23 22//22
f 13//13 14//14 23//23
f 24//24 9//9 15//15
f 9//9 24//24 25//25
f 9//9 25//25 10//10
f 25//25 18//18 10//10
f 11//11 26//26 16//16
f 11//11 18//18 26//26
f 14//14 27//27 23//23
f 20//20 27//27 14//14
f 28//28 24//24 15//15
f 16//16 26//26 29//29
f 29//29 21//21 16//16
f 18//18 25//25 30//30
f 31//31 18//18 30//30
f 26//26 18//18 31//31
f 32//32 12//12 22//22
f 27//27 20//20 33//33
f 34//34 33//33 17//17
f 33//33 20//20 17//17
f 17//17 21//21 35//35
f 29//29 35//35 21//21
f 23//23 36//36 22//22
f 12//12 32//32 19//19
f 19//19 28//28 15//15
f 34//34 17//17 35//35
f 30//30 25//25 37//37
f 27//27 36//36 23//23
f 27//27 33//33 36//36
f 34//34 38//38 33//33
f 19//19 39//39 28//28
f 40//40 34//34 35//35
f 35//35 29//29 41//41
f 40//40 35//35 41//41
f 25//25 24//24 37//37
f 42//42 29//29 26//26
f 26//26 31//31 43//43
f 44//44 36//36 33//33
f 33//33 38//38 44//44
f 22//22 45//45 32//32
f 38//38 34//34 46//46
f 40//40 46//46 34//34
f 28//28 47//47 24//24
f 41//41 29//29 42//42
f 30//30 37//37 48//48
f 42//42 26//26 43//43
f 31//31 30//30 48//48
f 36//36 49//49 22//22
f 32//32 39//39 19//19
f 37//37 24//24 50//50
f 38//38 51//51 44//44
f 45//45 22//22 49//49
f 51//51 38//38 46//46
f 32//32 45//45 39//39
f 46//46 40//40 52//52
f 47//47 50//50 24//24
f 53//53 41//41 42//42
f 43//43 31//31 48//48
f 36//36 44//44 54//54
f 40//40 41//41 53//53
f 53//53 52//52 40//40
f 53//53 42//42 55//55
f 55//55 42//42 43//43
f 37//37 50//50 48//48
f 51//51 56//56 44//44
f 52//52 51//51 46//46
f 36//36 54//54 49//49
f 52//52 53//53 57//57
f 28//28 39//39 47//47
f 58//58 50//50 47//47
f 48//48 50//50 59//59
f 60//60 51//51 52//52
f 55//55 61//61 53//53
f 59//59 62//62 48//48
f 48//48 62//62 43//43
f 55//55 43//43 62//62
f 44//44 63//63 54//54
f 44//44 56//56 63//63
f 51//51 60//60 56//56
f 54//54 64//64 49//49
f 52//52 57//57 60//60
f 39//39 45//45 65//65
f 39//39 65//65 47//47
f 57//57 53//53 66//66
f 53//53 61//61 66//66
f 67//67 45//45 49//49
f 65//65 45//45 68//68
f 47//47 65//65 58//58
f 50//50 58//58 59//59
f 54//54 69//69 64//64
f 54//54 63//63 69//69
f 57//57 70//70 60//60
f 49//49 71//71 67//67
f 64//64 71//71 49//49
f 57//57 66//66 70//70
f 72//72 66//66 61//61
f 62//62 59//59 73//73
f 55//55 62//62 74//74
f 74//74 61//61 55//55
f 60//60 70//70 75//75
f 60//60 75//75 56//56
f 70//70 66//66 76//76
f 67//67 68//68 45//45
f 77//77 65//65 68//68
f 65//65 77//77 58//58
f 59//59 58//58 73//73
f 75//75 69//69 63//63
f 56//56 75//75 63//63
f 66//66 72//72 76//76
f 58//58 78//78 73//73
f 73//73 79//79 62//62
f 69//69 71//71 64//64
f 75//75 70//70 76//76
f 80//80 68//68 67//67
f 76//76 72//72 81//81
f 77//77 78//78 58//58
f 61//61 74//74 72//72
f 73//73 78//78 79//79
f 62//62 79//79 74//74
f 69//69 75//75 82//82
f 69//69 83//83 71//71
f 76//76 82//82 75//75
f 76//76 81//81 82//82
f 80//80 67//67 71//71
f 68//68 80//80 77//77
f 77//77 80//80 78//78
f 74//74 84//84 72//72
f 79//79 84//84 74//74
f 69//69 82//82 83//83
f 80//80 71//71 85//85
f 85//85 78//78 80//80
f 84//84 81//81 72//72
f 86//86 78//78 85//85
f 86//86 79//79 78//78
f 86//86 84//84 79//79
f 83//83 82//82 87//87
f 82//82 81//81 87//87
f 71//71 83//83 87//87
f 71//71 87//87 88//88
f 85//85 71//71 88//88
f 87//87 84//84 88//88
f 88//88 86//86 85//85
f 81//81 84//84 87//87
f 84//84 86//86 88//88
