# Blender v2.92.0 OBJ File: 'convert_to_one_sided.blend'
# www.blender.org
mtllib 1051L.mtl
o Cube
v 0.001000 0.001000 -0.001000
v 0.001000 -0.001000 -0.001000
v 0.001000 0.001000 0.001000
v 0.001000 -0.001000 0.001000
v -0.001000 0.001000 -0.001000
v -0.001000 -0.001000 -0.001000
v -0.001000 0.001000 0.001000
v -0.001000 -0.001000 0.001000
vt 0.625000 0.500000
vt 0.875000 0.500000
vt 0.875000 0.750000
vt 0.625000 0.750000
vt 0.375000 0.750000
vt 0.625000 1.000000
vt 0.375000 1.000000
vt 0.375000 0.000000
vt 0.625000 0.000000
vt 0.625000 0.250000
vt 0.375000 0.250000
vt 0.125000 0.500000
vt 0.375000 0.500000
vt 0.125000 0.750000
vn 0.0000 1.0000 0.0000
vn 0.0000 0.0000 1.0000
vn -1.0000 0.0000 0.0000
vn 0.0000 -1.0000 0.0000
vn 1.0000 0.0000 0.0000
vn 0.0000 0.0000 -1.0000
usemtl Material
s off
f 1/1/1 5/2/1 7/3/1 3/4/1
f 4/5/2 3/4/2 7/6/2 8/7/2
f 8/8/3 7/9/3 5/10/3 6/11/3
f 6/12/4 2/13/4 4/5/4 8/14/4
f 2/13/5 1/1/5 3/4/5 4/5/5
f 6/11/6 5/10/6 1/1/6 2/13/6
o 1051
v 9.215212 3.784791 4.890158
v 9.239931 3.735491 4.897408
v 9.174472 3.739561 4.908057
v 9.129413 3.776541 4.919337
v 9.270850 3.769891 4.905498
v 9.273770 3.735171 4.913667
v 9.169322 3.822210 4.911357
v 9.252231 3.828160 4.916987
v 9.210332 3.825160 4.908007
v 9.174282 3.864680 4.948817
v 9.188512 3.702212 4.929947
v 9.259541 3.707272 4.949067
v 9.088472 3.724421 4.948207
v 9.289850 3.746391 4.954317
v 9.069683 3.819910 4.953557
v 9.294111 3.796781 4.979756
v 9.275010 3.851170 4.999726
v 9.235731 3.868040 4.971327
v 9.203952 3.680032 4.970336
v 9.111193 3.685542 4.978236
v 9.045763 3.766631 4.954257
v 8.981594 3.736861 4.974137
v 8.987434 3.781531 4.970927
v 9.302590 3.759811 5.033926
v 9.053924 3.890629 5.007216
v 9.235291 3.890519 5.023166
v 9.193412 3.900049 5.008576
v 9.135612 3.931679 5.040895
v 8.750998 3.684752 4.996826
v 8.668598 3.607693 5.023916
v 8.618949 3.654242 5.010906
v 9.226071 3.681082 5.023526
v 9.269100 3.718851 5.024616
v 8.655369 3.729601 5.005756
v 9.009853 3.701492 4.986456
v 8.888546 3.753191 4.986916
v 8.904956 3.703322 4.997896
v 8.767567 3.762981 4.997596
v 8.688338 3.780011 5.009846
v 8.919866 3.821070 4.996486
v 8.603199 3.596743 5.030726
v 8.567510 3.653792 5.046455
v 8.759757 3.651312 5.026426
v 8.983594 3.676382 5.013456
v 9.118083 3.673812 5.025396
v 8.586349 3.743651 5.043315
v 8.846186 3.675272 5.016726
v 8.647129 3.804700 5.035585
v 8.764847 3.824270 5.023296
v 9.303460 3.794830 5.052745
v 8.888065 3.940259 5.089015
v 8.575430 3.575943 5.070745
v 8.617169 3.569693 5.058605
v 8.663758 3.578153 5.075665
v 8.758998 3.629853 5.079025
v 8.548090 3.650682 5.087265
v 8.966354 3.663732 5.069705
v 8.859256 3.658552 5.049225
v 8.681039 3.910829 5.098595
v 9.289580 3.827060 5.060705
v 9.242281 3.881809 5.077725
v 9.049633 3.980158 5.101925
v 9.178872 3.937329 5.090125
v 9.081503 3.680452 5.099045
v 8.550320 3.767711 5.106105
v 9.275210 3.740731 5.084025
v 8.590849 3.861619 5.105365
v 8.603580 3.562533 5.105805
v 8.552279 3.605283 5.107835
v 8.701509 3.594353 5.102115
v 8.863346 3.653712 5.084145
v 9.209101 3.711941 5.091115
v 8.612779 3.946218 5.143494
v 9.119602 4.003178 5.133055
v 8.568550 3.582743 5.115875
v 8.666888 3.592333 5.125175
v 8.542251 3.720851 5.138754
v 9.281581 3.789921 5.097395
v 8.773208 4.022377 5.174934
v 8.890746 4.050017 5.197144
v 8.983665 4.062917 5.202374
v 8.737447 3.621852 5.124185
v 8.847747 3.659892 5.134534
v 8.553710 3.930738 5.187164
v 8.541800 3.865429 5.199934
v 9.245582 3.850709 5.130475
v 8.587219 3.962308 5.173394
v 9.192332 3.915169 5.161914
v 9.165932 3.965338 5.152954
v 8.641249 4.036227 5.208704
v 8.827077 4.113886 5.258703
v 9.143843 4.014367 5.181293
v 9.055864 4.079237 5.219583
v 8.579149 3.596143 5.151905
v 8.555360 3.683652 5.162024
v 9.000745 3.758741 5.229273
v 9.145652 3.746821 5.172734
v 9.233961 3.764350 5.134464
v 8.544780 3.801920 5.203583
v 9.103562 4.081236 5.240373
v 8.632679 3.608103 5.157674
v 8.710578 3.627982 5.148994
v 9.235591 3.812070 5.154404
v 8.609260 3.651492 5.191744
v 8.578309 3.713351 5.207864
v 8.714558 3.684142 5.199174
v 8.844167 3.758341 5.250213
v 8.559529 3.810540 5.241843
v 9.180962 3.807630 5.198983
v 9.196961 3.855570 5.192394
v 9.157132 3.990868 5.239343
v 8.577359 4.038147 5.249663
v 8.729777 4.146106 5.298692
v 8.648299 3.744861 5.246593
v 9.151082 3.857479 5.254763
v 9.164641 3.917029 5.240863
v 8.550120 4.019577 5.292492
v 8.653539 4.140336 5.301802
v 8.881275 4.144576 5.292613
v 9.046943 4.151135 5.322692
v 8.610759 3.830310 5.291183
v 9.112103 3.818790 5.251233
v 8.551041 3.929388 5.285732
v 9.149503 3.983968 5.315762
v 9.131803 4.071007 5.287252
v 8.607449 4.128836 5.313832
v 8.945665 4.169415 5.328012
v 8.803857 4.165436 5.314602
v 8.784657 3.857049 5.355422
v 8.689068 3.857369 5.340312
v 8.932025 3.853050 5.338172
v 9.140292 4.043837 5.343422
v 9.092413 4.126006 5.333342
v 9.118953 3.877839 5.303022
v 9.138593 3.927388 5.313562
v 8.570899 4.109216 5.328632
v 9.044374 3.885089 5.344282
v 9.099833 3.953168 5.383371
v 8.585109 3.977658 5.375951
v 8.558599 4.066227 5.378881
v 9.121463 4.091217 5.358831
v 8.801566 4.203675 5.362221
v 8.653119 3.960098 5.411961
v 8.566880 4.136035 5.383991
v 8.603539 4.185725 5.390991
v 9.032914 4.177626 5.385061
v 8.678759 4.195425 5.369971
v 8.716847 3.955008 5.432171
v 9.126892 4.001568 5.376191
v 9.067843 4.139616 5.412251
v 8.971654 4.200785 5.386101
v 9.047324 3.981178 5.441680
v 9.106143 4.066807 5.416661
v 8.864406 4.231504 5.412451
v 8.946245 3.958558 5.437671
v 9.082374 4.016397 5.436110
v 8.582979 4.103436 5.451800
v 8.634068 4.078846 5.486690
v 8.949735 4.209635 5.441440
v 8.580299 4.156146 5.446590
v 8.604409 4.206555 5.444760
v 8.650898 4.237295 5.445641
v 8.753878 4.245655 5.439291
v 8.813517 4.013147 5.487630
v 9.039994 4.131446 5.467720
v 8.994965 4.176315 5.458010
v 8.844476 4.244965 5.459710
v 8.612139 4.212185 5.484750
v 8.640439 4.237694 5.481310
v 8.715308 4.250064 5.486500
v 8.801686 4.248574 5.483890
v 9.030794 4.014728 5.468300
v 8.703308 4.024877 5.476620
v 9.042114 4.069507 5.474750
v 8.620849 4.160106 5.492410
v 8.934805 4.193285 5.498700
v 8.869796 4.229095 5.482330
v 8.967205 4.131966 5.514249
v 8.680179 4.208615 5.512829
v 8.949644 4.057637 5.500050
v 8.666709 4.152825 5.523779
v 8.870716 4.172445 5.539670
v 8.796026 4.214885 5.508120
v 8.852596 4.089166 5.536139
v 8.745147 4.099836 5.520849
v 8.897445 4.117926 5.532169
v 8.767668 4.164265 5.528860
v 8.827856 4.128496 5.531179
vn -0.0139 0.1328 -0.9910
vn 0.1609 -0.4745 -0.8654
vn -0.2611 -0.3322 -0.9064
vn -0.3642 -0.0058 -0.9313
vn 0.6936 0.0875 -0.7150
vn 0.6892 -0.4569 -0.5623
vn -0.2572 0.4176 -0.8715
vn 0.4761 0.5917 -0.6505
vn 0.0173 0.5672 -0.8234
vn -0.0333 0.7503 -0.6603
vn -0.0652 -0.7485 -0.6599
vn 0.5033 -0.8129 -0.2929
vn -0.2867 -0.4328 -0.8547
vn 0.9276 -0.3213 -0.1905
vn -0.3093 0.3473 -0.8853
vn 0.9437 0.2397 -0.2278
vn 0.7577 0.6267 -0.1822
vn 0.3677 0.8178 -0.4427
vn 0.1029 -0.9529 -0.2854
vn -0.1323 -0.8338 -0.5359
vn -0.3083 -0.0232 -0.9510
vn -0.2068 -0.2327 -0.9503
vn -0.2354 0.0815 -0.9685
vn 0.9457 -0.3024 0.1192
vn -0.1762 0.6516 -0.7379
vn 0.5352 0.8198 -0.2039
vn 0.2530 0.8669 -0.4295
vn 0.1226 0.8154 -0.5657
vn 0.0269 -0.3145 -0.9489
vn 0.2198 -0.6760 -0.7033
vn -0.3052 -0.0979 -0.9473
vn 0.3535 -0.9220 0.1580
vn 0.6809 -0.7167 0.1505
vn -0.2589 0.1562 -0.9532
vn -0.1576 -0.5851 -0.7955
vn -0.1141 -0.0179 -0.9933
vn -0.0466 -0.4753 -0.8786
vn -0.0958 0.1907 -0.9770
vn -0.1833 0.3570 -0.9159
vn -0.1886 0.3846 -0.9036
vn -0.3443 -0.4798 -0.8070
vn -0.7678 -0.0577 -0.6381
vn 0.2318 -0.7903 -0.5671
vn -0.0274 -0.8564 -0.5157
vn 0.0287 -0.9966 -0.0770
vn -0.6041 0.2450 -0.7583
vn 0.0677 -0.7323 -0.6776
vn -0.3389 0.4516 -0.8253
vn -0.1358 0.5061 -0.8517
vn 0.9780 0.1251 0.1668
vn -0.1170 0.6531 -0.7481
vn -0.6880 -0.6351 -0.3511
vn 0.0006 -0.9016 -0.4325
vn 0.3479 -0.9316 -0.1054
vn 0.3624 -0.9209 -0.1436
vn -0.9540 -0.0940 -0.2848
vn 0.0839 -0.9963 -0.0208
vn 0.1202 -0.9424 -0.3122
vn -0.2041 0.5764 -0.7913
vn 0.8830 0.4305 0.1872
vn 0.7362 0.6638 0.1318
vn -0.0470 0.7501 -0.6596
vn 0.6282 0.7509 -0.2038
vn 0.1586 -0.9139 0.3737
vn -0.9039 0.1648 -0.3948
vn 0.6701 -0.5807 0.4623
vn -0.5652 0.4271 -0.7058
vn -0.0458 -0.9666 0.2523
vn -0.9461 -0.3110 0.0898
vn 0.4153 -0.8930 0.1732
vn 0.1589 -0.9872 0.0109
vn 0.3813 -0.7795 0.4970
vn -0.3647 0.5430 -0.7564
vn 0.3118 0.7807 -0.5416
vn -0.7102 -0.6402 0.2929
vn 0.2863 -0.8461 0.4497
vn -0.9969 -0.0603 0.0498
vn 0.8412 -0.0553 0.5379
vn -0.0814 0.6711 -0.7369
vn -0.0266 0.7011 -0.7125
vn -0.0370 0.7397 -0.6720
vn 0.3768 -0.8678 0.3241
vn 0.1930 -0.8908 0.4114
vn -0.8372 0.3242 -0.4404
vn -0.9984 0.0435 -0.0352
vn 0.8119 0.3455 0.4705
vn -0.5439 0.5218 -0.6572
vn 0.8754 0.4284 0.2240
vn 0.8957 0.4433 -0.0356
vn -0.2643 0.6435 -0.7183
vn -0.0174 0.7108 -0.7032
vn 0.7839 0.5797 -0.2226
vn 0.0947 0.7929 -0.6020
vn -0.4186 -0.6012 0.6806
vn -0.8569 -0.2685 0.4401
vn 0.1618 -0.7377 0.6554
vn 0.3187 -0.6900 0.6499
vn 0.5451 -0.4827 0.6854
vn -0.9559 -0.1392 0.2585
vn 0.4935 0.7683 -0.4076
vn 0.1523 -0.6999 0.6978
vn 0.2659 -0.7398 0.6181
vn 0.7227 -0.0830 0.6862
vn -0.0860 -0.5144 0.8532
vn -0.5074 -0.3989 0.7638
vn 0.1347 -0.6507 0.7473
vn 0.1071 -0.7274 0.6778
vn -0.7622 -0.3199 0.5627
vn 0.5771 -0.3828 0.7214
vn 0.8038 0.0705 0.5908
vn 0.9615 0.2689 0.0559
vn -0.6474 0.5234 -0.5539
vn -0.0787 0.7343 -0.6743
vn -0.1557 -0.5499 0.8206
vn 0.7286 -0.3255 0.6027
vn 0.9368 0.0106 0.3498
vn -0.9723 0.1928 -0.1319
vn -0.2121 0.7346 -0.6444
vn 0.0182 0.7493 -0.6619
vn 0.3130 0.8520 -0.4198
vn -0.4005 -0.5115 0.7602
vn 0.3780 -0.6182 0.6892
vn -0.9501 -0.1312 0.2829
vn 0.9624 -0.0398 0.2686
vn 0.8537 0.5096 -0.1074
vn -0.4180 0.6858 -0.5957
vn 0.0744 0.8134 -0.5769
vn -0.0178 0.7558 -0.6545
vn -0.0126 -0.6658 0.7460
vn -0.2191 -0.6100 0.7615
vn 0.1081 -0.7015 0.7044
vn 0.9605 0.1764 0.2153
vn 0.6671 0.7364 -0.1132
vn 0.5302 -0.5497 0.6455
vn 0.8309 -0.2831 0.4790
vn -0.7498 0.5134 -0.4175
vn 0.2462 -0.6805 0.6901
vn 0.5914 -0.4834 0.6454
vn -0.6952 -0.3922 0.6024
vn -0.9634 -0.0593 0.2613
vn 0.8573 0.4852 0.1722
vn -0.0161 0.8170 -0.5764
vn -0.3613 -0.5584 0.7468
vn -0.9230 0.3745 -0.0886
vn -0.5404 0.7263 -0.4247
vn 0.5074 0.8614 -0.0220
vn -0.1768 0.8125 -0.5555
vn -0.1789 -0.6073 0.7741
vn 0.8511 -0.1619 0.4994
vn 0.6856 0.6654 0.2953
vn 0.2479 0.9264 -0.2834
vn 0.3401 -0.5697 0.7482
vn 0.8188 0.1673 0.5491
vn 0.1389 0.9316 -0.3357
vn 0.0904 -0.6286 0.7724
vn 0.6362 -0.2538 0.7286
vn -0.7897 -0.1693 0.5897
vn -0.4481 -0.3732 0.8124
vn 0.4071 0.8982 0.1660
vn -0.9196 0.1711 0.3538
vn -0.7494 0.6591 -0.0628
vn -0.2933 0.9134 -0.2821
vn -0.0271 0.9568 -0.2894
vn -0.0387 -0.5545 0.8313
vn 0.6302 0.4254 0.6495
vn 0.5423 0.7499 0.3789
vn 0.2061 0.9782 0.0267
vn -0.6984 0.3984 0.5945
vn -0.4293 0.8383 0.3361
vn -0.0704 0.9097 0.4093
vn 0.1136 0.9113 0.3957
vn 0.3008 -0.3879 0.8713
vn -0.2162 -0.5030 0.8368
vn 0.5094 -0.0703 0.8577
vn -0.6119 0.0154 0.7908
vn 0.3822 0.6736 0.6326
vn 0.2765 0.8104 0.5164
vn 0.3919 0.0869 0.9159
vn -0.2144 0.3940 0.8938
vn 0.2009 -0.3705 0.9068
vn -0.2974 -0.0286 0.9543
vn 0.0987 0.2451 0.9645
vn 0.0590 0.5695 0.8198
vn 0.0144 -0.2465 0.9690
vn -0.1442 -0.2700 0.9520
vn 0.1577 -0.1095 0.9814
vn -0.0713 0.1247 0.9896
vn -0.0703 -0.0344 0.9969
usemtl mtl1.069
s 1
f 9//7 10//8 11//9
f 11//9 12//10 9//7
f 9//7 13//11 10//8
f 13//11 14//12 10//8
f 12//10 15//13 9//7
f 13//11 9//7 16//14
f 9//7 15//13 17//15
f 17//15 16//14 9//7
f 16//14 17//15 18//16
f 19//17 10//8 20//18
f 14//12 20//18 10//8
f 19//17 21//19 11//9
f 10//8 19//17 11//9
f 12//10 11//9 21//19
f 14//12 13//11 22//20
f 15//13 12//10 23//21
f 16//14 24//22 13//11
f 24//22 16//14 25//23
f 16//14 18//16 26//24
f 20//18 27//25 19//17
f 28//26 21//19 19//17
f 20//18 14//12 22//20
f 29//27 12//10 21//19
f 22//20 13//11 24//22
f 29//27 23//21 12//10
f 15//13 23//21 18//16
f 15//13 18//16 17//15
f 16//14 26//24 25//23
f 19//17 27//25 28//26
f 29//27 30//28 31//29
f 21//19 30//28 29//27
f 22//20 24//22 32//30
f 29//27 31//29 23//21
f 18//16 23//21 33//31
f 34//32 25//23 26//24
f 35//33 18//16 36//34
f 26//24 18//16 35//33
f 37//35 38//36 39//37
f 20//18 40//38 27//25
f 41//39 40//38 20//18
f 37//35 39//37 42//40
f 28//26 43//41 21//19
f 41//39 20//18 22//20
f 37//35 44//42 45//43
f 45//43 44//42 30//28
f 21//19 43//41 30//28
f 41//39 22//20 32//30
f 46//44 42//40 47//45
f 37//35 42//40 46//44
f 44//42 37//35 46//44
f 30//28 44//42 31//29
f 48//46 44//42 46//44
f 31//29 44//42 48//46
f 31//29 48//46 23//21
f 23//21 48//46 33//31
f 26//24 35//33 34//32
f 49//47 50//48 39//37
f 38//36 49//47 39//37
f 51//49 38//36 37//35
f 52//50 28//26 53//51
f 28//26 27//25 53//51
f 27//25 40//38 53//51
f 39//37 50//48 54//52
f 55//53 51//49 37//35
f 45//43 43//41 52//50
f 52//50 43//41 28//26
f 39//37 54//52 42//40
f 37//35 45//43 55//53
f 43//41 45//43 30//28
f 56//54 42//40 54//52
f 47//45 42//40 56//54
f 57//55 46//44 47//45
f 32//30 24//22 58//56
f 57//55 47//45 56//54
f 48//46 46//44 57//55
f 48//46 59//57 33//31
f 33//31 36//34 18//16
f 60//58 49//47 61//59
f 38//36 61//59 49//47
f 62//60 38//36 63//61
f 50//48 49//47 60//58
f 64//62 50//48 60//58
f 38//36 51//49 63//61
f 52//50 53//51 65//63
f 51//49 55//53 66//64
f 45//43 52//50 55//53
f 56//54 67//65 57//55
f 24//22 25//23 68//66
f 24//22 68//66 58//56
f 57//55 59//57 48//46
f 25//23 34//32 69//67
f 70//68 36//34 33//31
f 71//69 35//33 36//34
f 71//69 34//32 35//33
f 38//36 62//60 61//59
f 63//61 51//49 66//64
f 66//64 52//50 65//63
f 53//51 40//38 72//70
f 52//50 66//64 55//53
f 73//71 50//48 64//62
f 32//30 74//72 41//39
f 54//52 50//48 73//71
f 56//54 54//52 75//73
f 67//65 56//54 75//73
f 68//66 25//23 69//67
f 61//59 76//74 60//58
f 61//59 62//60 76//74
f 64//62 60//58 77//75
f 63//61 78//76 62//60
f 66//64 79//77 63//61
f 65//63 79//77 66//64
f 53//51 72//70 65//63
f 40//38 80//78 72//70
f 80//78 40//38 41//39
f 81//79 67//65 75//73
f 67//65 59//57 57//55
f 70//68 33//31 59//57
f 36//34 70//68 82//80
f 71//69 36//34 82//80
f 60//58 76//74 83//81
f 84//82 76//74 62//60
f 60//58 83//81 77//75
f 84//82 62//60 78//76
f 77//75 85//83 64//62
f 41//39 74//72 80//78
f 64//62 85//83 73//71
f 86//84 74//72 32//30
f 86//84 32//30 58//56
f 86//84 58//56 68//66
f 54//52 73//71 75//73
f 34//32 71//69 69//67
f 87//85 88//86 59//57
f 70//68 59//57 89//87
f 90//88 84//82 78//76
f 63//61 90//88 78//76
f 79//77 91//89 63//61
f 63//61 91//89 90//88
f 65//63 91//89 79//77
f 65//63 72//70 91//89
f 92//90 73//71 93//91
f 73//71 92//90 75//73
f 68//66 69//67 94//92
f 81//79 75//73 95//93
f 95//93 75//73 92//90
f 71//69 96//94 69//67
f 71//69 97//95 96//94
f 67//65 81//79 98//96
f 67//65 87//85 59//57
f 87//85 99//97 88//86
f 59//57 88//86 89//87
f 71//69 100//98 97//95
f 100//98 71//69 82//80
f 82//80 70//68 101//99
f 83//81 76//74 102//100
f 77//75 83//81 103//101
f 83//81 102//100 103//101
f 77//75 103//101 85//83
f 72//70 104//102 91//89
f 72//70 80//78 105//103
f 74//72 106//104 80//78
f 107//105 93//91 85//83
f 106//104 74//72 86//84
f 85//83 93//91 73//71
f 86//84 68//66 94//92
f 94//92 69//67 96//94
f 95//93 98//96 81//79
f 67//65 98//96 87//85
f 82//80 101//99 108//106
f 102//100 76//74 109//107
f 109//107 76//74 84//82
f 110//108 109//107 84//82
f 90//88 110//108 84//82
f 90//88 91//89 110//108
f 103//101 107//105 85//83
f 104//102 72//70 105//103
f 105//103 80//78 106//104
f 106//104 86//84 111//109
f 86//84 94//92 111//109
f 100//98 82//80 108//106
f 109//107 112//110 102//100
f 102//100 113//111 103//101
f 113//111 102//100 112//110
f 91//89 114//112 110//108
f 115//113 114//112 91//89
f 91//89 104//102 115//113
f 103//101 116//114 107//105
f 116//114 103//101 113//111
f 117//115 105//103 106//104
f 106//104 111//109 117//115
f 118//116 111//109 94//92
f 94//92 96//94 118//116
f 96//94 97//95 119//117
f 95//93 92//90 120//118
f 95//93 120//118 98//96
f 97//95 100//98 119//117
f 98//96 121//119 87//85
f 121//119 99//97 87//85
f 70//68 89//87 101//99
f 109//107 114//112 112//110
f 109//107 110//108 114//112
f 122//120 113//111 112//110
f 117//115 118//116 123//121
f 117//115 111//109 118//116
f 96//94 124//122 118//116
f 96//94 119//117 124//122
f 120//118 92//90 125//123
f 125//123 92//90 93//91
f 121//119 98//96 126//124
f 89//87 88//86 127//125
f 101//99 128//126 108//106
f 112//110 114//112 122//120
f 122//120 129//127 113//111
f 113//111 129//127 116//114
f 105//103 117//115 130//128
f 116//114 131//129 107//105
f 118//116 124//122 123//121
f 107//105 131//129 93//91
f 124//122 119//117 132//130
f 119//117 100//98 133//131
f 98//96 120//118 134//132
f 108//106 133//131 100//98
f 98//96 134//132 126//124
f 89//87 135//133 101//99
f 135//133 128//126 101//99
f 136//134 99//97 121//119
f 135//133 89//87 127//125
f 122//120 114//112 137//135
f 114//112 115//113 137//135
f 137//135 138//136 122//120
f 139//137 137//135 115//113
f 104//102 105//103 130//128
f 130//128 117//115 123//121
f 119//117 133//131 140//138
f 141//139 108//106 128//126
f 115//113 104//102 139//137
f 130//128 123//121 142//140
f 142//140 123//121 143//141
f 143//141 123//121 124//122
f 124//122 132//130 143//141
f 93//91 131//129 125//123
f 132//130 119//117 140//138
f 144//142 120//118 125//123
f 134//132 120//118 144//142
f 127//125 88//86 99//97
f 141//139 133//131 108//106
f 129//127 122//120 138//136
f 142//140 145//143 130//128
f 142//140 143//141 146//144
f 147//145 116//114 129//127
f 131//129 116//114 147//145
f 148//146 131//129 147//145
f 131//129 148//146 125//123
f 133//131 141//139 149//147
f 133//131 149//147 140//138
f 99//97 136//134 127//125
f 136//134 121//119 150//148
f 104//102 145//143 139//137
f 130//128 145//143 104//102
f 138//136 151//149 129//127
f 146//144 145//143 142//140
f 147//145 129//127 151//149
f 144//142 152//150 153//151
f 134//132 144//142 153//151
f 128//126 154//152 141//139
f 134//132 153//151 155//153
f 126//124 134//132 155//153
f 121//119 126//124 155//153
f 155//153 150//148 121//119
f 137//135 156//154 138//136
f 157//155 146//144 143//141
f 157//155 143//141 132//130
f 144//142 125//123 152//150
f 158//156 149//147 141//139
f 136//134 150//148 127//125
f 150//148 135//133 127//125
f 159//157 128//126 135//133
f 128//126 159//157 154//152
f 156//154 151//149 138//136
f 146//144 160//158 145//143
f 132//130 140//138 157//155
f 125//123 148//146 152//150
f 161//159 140//138 149//147
f 158//156 141//139 154//152
f 162//160 159//157 135//133
f 135//133 150//148 162//160
f 139//137 163//161 137//135
f 164//162 146//144 157//155
f 165//163 147//145 166//164
f 147//145 165//163 148//146
f 149//147 158//156 161//159
f 167//165 158//156 154//152
f 152//150 168//166 169//167
f 153//151 152//150 169//167
f 159//157 167//165 154//152
f 155//153 153//151 170//168
f 150//148 155//153 171//169
f 162//160 150//148 171//169
f 139//137 145//143 163//161
f 137//135 172//170 156//154
f 163//161 172//170 137//135
f 145//143 160//158 163//161
f 146//144 164//162 160//158
f 147//145 151//149 166//164
f 157//155 140//138 161//159
f 158//156 173//171 161//159
f 158//156 174//172 173//171
f 148//146 168//166 152//150
f 167//165 174//172 158//156
f 153//151 169//167 170//168
f 159//157 162//160 167//165
f 171//169 155//153 170//168
f 162//160 171//169 175//173
f 164//162 157//155 161//159
f 148//146 165//163 168//166
f 176//174 169//167 168//166
f 177//175 170//168 169//167
f 175//173 167//165 162//160
f 170//168 178//176 171//169
f 175//173 171//169 179//177
f 160//158 180//178 163//161
f 151//149 181//179 166//164
f 156//154 181//179 151//149
f 160//158 164//162 180//178
f 164//162 161//159 182//180
f 161//159 173//171 182//180
f 168//166 165//163 183//181
f 174//172 184//182 173//171
f 168//166 183//181 176//174
f 174//172 167//165 184//182
f 176//174 177//175 169//167
f 184//182 167//165 185//183
f 170//168 177//175 178//176
f 175//173 179//177 185//183
f 185//183 167//165 175//173
f 171//169 178//176 179//177
f 156//154 172//170 181//179
f 180//178 164//162 182//180
f 173//171 186//184 182//180
f 166//164 183//181 165//163
f 186//184 173//171 184//182
f 176//174 187//185 177//175
f 177//175 187//185 178//176
f 172//170 163//161 188//186
f 188//186 163//161 180//178
f 180//178 182//180 188//186
f 188//186 182//180 186//184
f 189//187 183//181 166//164
f 186//184 184//182 190//188
f 176//174 183//181 187//185
f 190//188 184//182 191//189
f 187//185 191//189 178//176
f 184//182 185//183 191//189
f 179//177 178//176 191//189
f 185//183 179//177 191//189
f 172//170 188//186 192//190
f 181//179 172//170 193//191
f 166//164 181//179 193//191
f 192//190 193//191 172//170
f 192//190 188//186 194//192
f 188//186 186//184 194//192
f 166//164 193//191 189//187
f 194//192 186//184 190//188
f 189//187 187//185 183//181
f 195//193 187//185 189//187
f 191//189 187//185 195//193
f 190//188 191//189 195//193
f 193//191 192//190 196//194
f 194//192 196//194 192//190
f 193//191 195//193 189//187
f 196//194 195//193 193//191
f 194//192 190//188 196//194
f 196//194 190//188 195//193
