# Blender v2.92.0 OBJ File: 'convert_to_one_sided.blend'
# www.blender.org
mtllib 1054L.mtl
o Cube
v 0.001000 0.001000 -0.001000
v 0.001000 -0.001000 -0.001000
v 0.001000 0.001000 0.001000
v 0.001000 -0.001000 0.001000
v -0.001000 0.001000 -0.001000
v -0.001000 -0.001000 -0.001000
v -0.001000 0.001000 0.001000
v -0.001000 -0.001000 0.001000
vt 0.625000 0.500000
vt 0.875000 0.500000
vt 0.875000 0.750000
vt 0.625000 0.750000
vt 0.375000 0.750000
vt 0.625000 1.000000
vt 0.375000 1.000000
vt 0.375000 0.000000
vt 0.625000 0.000000
vt 0.625000 0.250000
vt 0.375000 0.250000
vt 0.125000 0.500000
vt 0.375000 0.500000
vt 0.125000 0.750000
vn 0.0000 1.0000 0.0000
vn 0.0000 0.0000 1.0000
vn -1.0000 0.0000 0.0000
vn 0.0000 -1.0000 0.0000
vn 1.0000 0.0000 0.0000
vn 0.0000 0.0000 -1.0000
usemtl Material
s off
f 1/1/1 5/2/1 7/3/1 3/4/1
f 4/5/2 3/4/2 7/6/2 8/7/2
f 8/8/3 7/9/3 5/10/3 6/11/3
f 6/12/4 2/13/4 4/5/4 8/14/4
f 2/13/5 1/1/5 3/4/5 4/5/5
f 6/11/6 5/10/6 1/1/6 2/13/6
o 1054
v 3.528625 3.351206 4.808878
v 3.487285 3.363496 4.793579
v 3.571024 3.397645 4.813649
v 3.486245 3.394845 4.784859
v 3.524585 3.437975 4.794989
v 3.587124 3.472995 4.819388
v 3.489655 3.423195 4.794979
v 3.474595 3.336026 4.825728
v 3.461675 3.373266 4.807528
v 3.615773 3.378316 4.864108
v 3.712962 3.479724 4.894608
v 3.557654 3.549844 4.825188
v 3.511805 3.480624 4.810459
v 3.434246 3.336526 4.842838
v 3.501575 3.333036 4.877798
v 3.579824 3.356536 4.899197
v 3.425356 3.452885 4.877947
v 3.513915 3.544664 4.841068
v 3.633233 3.578623 4.864788
v 3.548024 3.620133 4.850228
v 3.421996 3.319787 4.878417
v 3.401456 3.356496 4.872038
v 3.676233 3.413055 4.882567
v 3.493535 3.647662 4.900107
v 3.579774 3.641752 4.858408
v 3.373007 3.324147 4.902187
v 3.628933 3.678952 4.884527
v 3.572754 3.734821 4.886978
v 3.416296 3.308077 4.947537
v 3.333167 3.347656 4.941677
v 3.714012 3.395885 4.923187
v 3.813361 3.420295 4.968277
v 3.388186 3.583963 4.978657
v 3.703912 3.645942 4.912517
v 3.553894 3.855010 4.912967
v 3.659553 3.821950 4.914757
v 3.599174 3.848150 4.904808
v 3.612953 3.961868 4.918047
v 3.353837 3.303227 4.947207
v 3.689573 3.375376 4.952307
v 3.465035 3.754071 4.965196
v 3.692693 3.918039 4.939277
v 3.656493 3.961088 4.927267
v 3.564344 4.033637 4.942137
v 3.671313 3.999538 4.945187
v 3.620774 4.070997 4.951827
v 3.589504 4.054327 4.942547
v 3.318187 3.310967 4.967546
v 3.341547 3.291867 4.978117
v 3.559554 3.340696 4.983376
v 3.801161 3.392345 4.990446
v 3.319797 3.434955 4.994076
v 3.853220 3.470775 4.981086
v 3.820281 3.578543 4.972937
v 3.763381 3.727041 4.963996
v 3.726642 3.833280 4.957537
v 3.486085 3.918629 4.987566
v 3.724682 3.899579 4.976516
v 3.693622 3.971998 4.970657
v 3.510275 4.113426 5.000846
v 3.574374 4.106586 4.964006
v 3.584004 4.152956 4.977546
v 3.837821 3.653682 5.004566
v 3.757162 3.826640 4.998816
v 3.653553 4.059397 4.987347
v 3.601413 4.140116 4.989196
v 3.552404 4.171455 4.991766
v 3.306917 3.299387 4.997236
v 3.383386 3.307707 5.006146
v 3.289888 3.337346 5.012556
v 3.912920 3.498224 5.028166
v 3.888020 3.584003 5.034326
v 3.394226 3.773721 5.055806
v 3.806391 3.730241 5.013346
v 3.449246 3.980298 5.045346
v 3.518445 4.231704 5.029976
v 3.553624 4.206785 5.019465
v 3.781941 3.374246 5.042926
v 3.902200 3.443155 5.023926
v 3.886670 3.403865 5.052495
v 3.708622 3.963618 5.055775
v 3.444885 4.084706 5.076985
v 3.597254 4.161635 5.057445
v 3.459635 4.202085 5.090855
v 3.513605 4.269234 5.057505
v 3.296758 3.315797 5.040886
v 3.460335 3.326686 5.040005
v 3.278278 3.429295 5.062975
v 3.331867 3.575743 5.056225
v 3.936369 3.466195 5.072405
v 3.929849 3.528124 5.072265
v 3.850120 3.675952 5.051625
v 3.792301 3.787951 5.064465
v 3.530745 4.255924 5.073885
v 3.484555 4.280824 5.095025
v 3.371116 3.319346 5.049955
v 3.276408 3.357336 5.060125
v 3.598674 3.357596 5.054435
v 3.297278 3.527604 5.093995
v 3.891990 3.607423 5.078235
v 3.760672 3.381086 5.090345
v 3.884040 3.394316 5.091055
v 3.853020 3.392156 5.065325
v 3.269708 3.381436 5.073755
v 3.280108 3.436735 5.084335
v 3.945879 3.500874 5.094155
v 3.401476 3.942499 5.106565
v 3.769322 3.848459 5.137044
v 3.626893 4.120096 5.148124
v 3.530124 4.259964 5.134015
v 3.491885 4.288723 5.106615
v 3.288877 3.347646 5.072285
v 3.342227 3.332156 5.066705
v 3.445826 3.343716 5.066985
v 3.560064 3.379716 5.091135
v 3.926569 3.432775 5.092145
v 3.941689 3.477545 5.104015
v 3.912620 3.557163 5.108045
v 3.338027 3.650972 5.110165
v 3.844630 3.691322 5.128714
v 3.368797 3.806780 5.126925
v 3.707562 3.966808 5.151865
v 3.466135 4.314023 5.136055
v 3.372527 3.362816 5.083825
v 3.298328 3.414135 5.088985
v 3.758152 3.404556 5.114675
v 3.862700 3.407135 5.119035
v 3.294058 3.488974 5.098985
v 3.310287 3.556363 5.109995
v 3.381696 3.918939 5.153744
v 3.416376 4.087886 5.135504
v 3.429116 4.203115 5.148904
v 3.457766 4.280544 5.144364
v 3.479325 4.305374 5.144584
v 3.465215 3.497604 5.117385
v 3.910230 3.439405 5.114675
v 3.630803 3.454255 5.114535
v 3.748582 3.523884 5.148214
v 3.339737 3.535724 5.117545
v 3.616943 3.587663 5.142834
v 3.883350 3.603633 5.146234
v 3.851660 3.660392 5.164474
v 3.830171 3.702161 5.173984
v 3.359327 3.724901 5.143394
v 3.369707 3.814800 5.149194
v 3.468895 4.305024 5.160354
v 3.835201 3.452415 5.140564
v 3.884080 3.461565 5.138704
v 3.897100 3.520114 5.135464
v 3.341967 3.618182 5.123714
v 3.409946 3.642592 5.138584
v 3.670853 3.708761 5.177434
v 3.524615 3.688612 5.161134
v 3.792771 3.765521 5.181674
v 3.385046 3.838510 5.165164
v 3.735652 3.888129 5.185214
v 3.403946 4.032447 5.173354
v 3.419986 4.141576 5.170034
v 3.437586 4.222375 5.173494
v 3.564774 4.209085 5.181654
v 3.459205 4.272274 5.175104
v 3.509885 4.262774 5.172234
v 3.841430 3.526724 5.154324
v 3.779681 3.659172 5.184054
v 3.849420 3.610832 5.161884
v 3.446956 3.797670 5.171324
v 3.710532 3.776031 5.200943
v 3.401846 3.944218 5.179084
v 3.427756 4.124796 5.187933
v 3.613833 4.127336 5.194784
v 3.815621 3.687881 5.181884
v 3.784981 3.701391 5.196814
v 3.758862 3.751721 5.204164
v 3.443966 3.939258 5.191034
v 3.586314 3.870709 5.198453
v 3.422516 4.025797 5.186534
v 3.668743 4.021697 5.186584
v 3.554614 4.199655 5.197164
v 3.457615 4.201425 5.194044
v 3.493345 4.241075 5.184504
v 3.779581 3.741491 5.196104
v 3.702532 3.845570 5.209534
v 3.745732 3.820840 5.197994
v 3.694823 3.932998 5.203244
v 3.645823 3.963698 5.211953
v 3.493425 4.061707 5.201123
v 3.576904 4.036867 5.212304
v 3.612263 4.069017 5.202534
v 3.532075 4.136526 5.197783
vn 0.3360 -0.7911 -0.5111
vn -0.0562 -0.4131 -0.9089
vn 0.4551 -0.2458 -0.8559
vn -0.2920 0.0431 -0.9555
vn 0.1175 0.1219 -0.9856
vn 0.4063 0.0997 -0.9083
vn -0.4937 0.3249 -0.8066
vn -0.0354 -0.8812 -0.4715
vn -0.6714 -0.0207 -0.7408
vn 0.4589 -0.7371 -0.4960
vn 0.5208 -0.0110 -0.8536
vn 0.0286 0.2913 -0.9562
vn -0.3899 0.3679 -0.8442
vn -0.4892 -0.5248 -0.6966
vn 0.2288 -0.9634 -0.1395
vn 0.3119 -0.9345 -0.1712
vn -0.6911 0.2877 -0.6630
vn -0.4932 0.3363 -0.8023
vn 0.4119 0.1848 -0.8923
vn -0.2786 0.3339 -0.9005
vn -0.1046 -0.9275 -0.3588
vn -0.7155 0.0028 -0.6986
vn 0.5219 -0.4065 -0.7499
vn -0.5776 0.2853 -0.7649
vn 0.1974 0.2784 -0.9400
vn -0.5844 -0.4784 -0.6554
vn 0.3078 0.1997 -0.9303
vn -0.0554 0.2386 -0.9695
vn 0.1601 -0.9836 -0.0834
vn -0.7809 0.0506 -0.6227
vn 0.4144 -0.7244 -0.5509
vn 0.5183 -0.4634 -0.7187
vn -0.7350 0.2787 -0.6182
vn 0.4750 0.1401 -0.8688
vn -0.4176 0.1814 -0.8903
vn 0.3550 0.1097 -0.9284
vn 0.0200 0.1314 -0.9911
vn 0.0278 0.1843 -0.9825
vn -0.2618 -0.8710 -0.4158
vn 0.2659 -0.9251 -0.2711
vn -0.6952 0.2279 -0.6817
vn 0.6727 0.1847 -0.7165
vn 0.3499 0.1991 -0.9154
vn -0.4025 0.2211 -0.8883
vn 0.6821 0.3719 -0.6296
vn 0.3755 0.4107 -0.8308
vn -0.0470 0.3076 -0.9504
vn -0.7217 -0.4403 -0.5342
vn -0.0151 -0.9996 -0.0246
vn 0.2113 -0.9774 0.0023
vn 0.3555 -0.8370 -0.4161
vn -0.8059 0.2387 -0.5417
vn 0.5715 -0.0627 -0.8182
vn 0.5841 0.1536 -0.7970
vn 0.6375 0.2167 -0.7394
vn 0.7056 0.1602 -0.6903
vn -0.6988 0.1602 -0.6971
vn 0.8691 0.2939 -0.3978
vn 0.8724 0.3675 -0.3222
vn -0.6452 0.2034 -0.7364
vn -0.2042 0.3247 -0.9235
vn 0.2521 0.5324 -0.8081
vn 0.7382 0.3069 -0.6006
vn 0.8568 0.3241 -0.4012
vn 0.8209 0.4989 -0.2777
vn 0.7254 0.5698 -0.3861
vn -0.1946 0.4362 -0.8785
vn -0.5189 -0.8512 -0.0784
vn 0.1026 -0.9647 0.2427
vn -0.9326 -0.1624 -0.3224
vn 0.7635 0.0885 -0.6397
vn 0.7964 0.3284 -0.5078
vn -0.8318 0.2174 -0.5107
vn 0.8065 0.3862 -0.4478
vn -0.7876 0.1572 -0.5958
vn -0.3933 0.4576 -0.7975
vn 0.4798 0.6803 -0.5541
vn 0.2067 -0.9763 -0.0640
vn 0.7056 -0.3349 -0.6245
vn 0.5421 -0.7719 -0.3321
vn 0.8952 0.4375 -0.0853
vn -0.8322 0.1608 -0.5306
vn 0.8220 0.5614 -0.0956
vn -0.8213 0.2310 -0.5217
vn 0.1568 0.8185 -0.5527
vn -0.4515 -0.8198 0.3521
vn 0.1569 -0.9269 0.3410
vn -0.9614 0.1553 -0.2273
vn -0.8589 0.2961 -0.4179
vn 0.9228 -0.2269 -0.3115
vn 0.9103 0.3113 -0.2729
vn 0.8592 0.4457 -0.2513
vn 0.8857 0.4369 -0.1569
vn 0.6916 0.7033 -0.1646
vn -0.5627 0.5755 -0.5935
vn 0.0508 -0.8752 0.4811
vn -0.9403 -0.3320 0.0746
vn 0.1126 -0.9180 0.3803
vn -0.9635 0.2289 0.1389
vn 0.8900 0.4466 -0.0922
vn 0.0520 -0.8742 0.4827
vn 0.3896 -0.8977 0.2057
vn 0.2923 -0.9367 -0.1927
vn -0.8549 -0.1392 0.4998
vn -0.8454 0.0448 0.5323
vn 0.9847 0.1682 0.0461
vn -0.8977 0.1683 -0.4071
vn 0.8949 0.4280 0.1261
vn 0.8573 0.5050 0.0997
vn 0.7279 0.6822 0.0686
vn 0.3620 0.8886 -0.2816
vn -0.4087 -0.4827 0.7746
vn -0.0289 -0.6702 0.7417
vn 0.0915 -0.7226 0.6852
vn 0.0001 -0.5519 0.8339
vn 0.8102 -0.5703 0.1357
vn 0.8594 -0.1154 0.4980
vn 0.8764 0.3398 0.3411
vn -0.9625 0.2389 0.1288
vn 0.8876 0.4394 0.1383
vn -0.9829 0.1498 -0.1074
vn 0.8768 0.4496 0.1704
vn -0.3022 0.9288 -0.2145
vn -0.0285 -0.3874 0.9215
vn -0.2833 -0.1737 0.9432
vn -0.0630 -0.4595 0.8859
vn 0.1809 -0.6110 0.7707
vn -0.6169 -0.0162 0.7869
vn -0.6825 0.1075 0.7229
vn -0.9704 0.1268 0.2054
vn -0.9565 0.1588 -0.2448
vn -0.9616 0.2348 -0.1423
vn -0.9116 0.4037 -0.0779
vn 0.4953 0.8518 0.1708
vn -0.0556 -0.2107 0.9760
vn 0.5640 -0.4140 0.7146
vn -0.0869 -0.2439 0.9659
vn -0.1149 -0.2335 0.9655
vn -0.2220 -0.1105 0.9688
vn -0.0881 -0.2199 0.9715
vn 0.7675 0.1796 0.6154
vn 0.7018 0.1774 0.6900
vn 0.7423 0.3022 0.5981
vn -0.6935 -0.0198 0.7202
vn -0.9290 0.0763 0.3621
vn -0.1935 0.7297 0.6558
vn -0.0042 -0.2987 0.9543
vn 0.3112 -0.2373 0.9203
vn 0.5573 -0.0200 0.8301
vn -0.5073 0.0103 0.8617
vn -0.1529 -0.1431 0.9778
vn -0.1353 -0.2177 0.9666
vn -0.0901 -0.1929 0.9771
vn 0.7206 0.3134 0.6185
vn -0.5485 -0.0314 0.8356
vn 0.7643 0.3528 0.5399
vn -0.8723 0.1124 0.4759
vn -0.9610 0.1556 0.2285
vn -0.8478 0.2718 0.4553
vn 0.6933 0.5941 0.4079
vn -0.5543 0.4134 0.7224
vn 0.4435 0.6316 0.6359
vn 0.1425 -0.1439 0.9793
vn 0.0097 -0.2236 0.9746
vn 0.3583 -0.0778 0.9304
vn -0.1678 -0.1539 0.9737
vn -0.1481 -0.1893 0.9707
vn -0.5956 0.0182 0.8031
vn -0.5883 0.0902 0.8036
vn 0.6538 0.3787 0.6550
vn 0.4309 -0.0054 0.9024
vn 0.2529 -0.1155 0.9606
vn 0.1098 -0.0455 0.9929
vn -0.2061 -0.0707 0.9760
vn -0.1149 -0.1246 0.9855
vn -0.3983 0.0198 0.9170
vn 0.7326 0.3708 0.5708
vn 0.2332 0.3183 0.9188
vn -0.2566 0.1555 0.9539
vn 0.0241 0.3100 0.9504
vn 0.4634 0.1286 0.8768
vn 0.0891 0.0000 0.9960
vn 0.4586 0.1803 0.8702
vn 0.4361 0.2079 0.8756
vn 0.0947 0.0484 0.9943
vn -0.1447 0.0026 0.9895
vn -0.0199 0.0490 0.9986
vn 0.2479 0.1665 0.9544
vn -0.0151 0.1028 0.9946
usemtl mtl1.071
s 1
f 9//7 10//8 11//9
f 10//8 12//10 13//11
f 11//9 10//8 13//11
f 11//9 13//11 14//12
f 12//10 15//13 13//11
f 9//7 16//14 10//8
f 17//15 12//10 10//8
f 9//7 11//9 18//16
f 15//13 12//10 17//15
f 14//12 19//17 11//9
f 13//11 20//18 14//12
f 13//11 15//13 21//19
f 20//18 13//11 21//19
f 16//14 22//20 10//8
f 16//14 9//7 23//21
f 22//20 17//15 10//8
f 9//7 18//16 24//22
f 17//15 25//23 15//13
f 21//19 25//23 26//24
f 21//19 15//13 25//23
f 27//25 14//12 20//18
f 20//18 21//19 26//24
f 28//26 20//18 26//24
f 22//20 16//14 29//27
f 29//27 16//14 23//21
f 9//7 24//22 23//21
f 22//20 30//28 17//15
f 18//16 11//9 31//29
f 17//15 30//28 25//23
f 19//17 31//29 11//9
f 26//24 25//23 32//30
f 20//18 28//26 33//31
f 20//18 33//31 27//25
f 22//20 34//32 30//28
f 34//32 22//20 29//27
f 14//12 27//25 19//17
f 27//25 33//31 35//33
f 26//24 32//30 28//26
f 28//26 32//30 36//34
f 33//31 28//26 36//34
f 36//34 35//33 33//31
f 29//27 23//21 37//35
f 38//36 30//28 34//32
f 25//23 30//28 38//36
f 31//29 39//37 18//16
f 39//37 31//29 40//38
f 40//38 31//29 19//17
f 32//30 25//23 41//39
f 42//40 19//17 27//25
f 35//33 42//40 27//25
f 36//34 32//30 43//41
f 35//33 36//34 44//42
f 36//34 43//41 45//43
f 44//42 36//34 45//43
f 44//42 45//43 46//44
f 34//32 29//27 47//45
f 47//45 29//27 37//35
f 18//16 48//46 24//22
f 18//16 39//37 48//46
f 32//30 49//47 43//41
f 35//33 44//42 42//40
f 45//43 43//41 46//44
f 50//48 44//42 51//49
f 43//41 52//50 46//44
f 44//42 46//44 51//49
f 51//49 53//51 50//48
f 51//49 46//44 54//52
f 53//51 51//49 54//52
f 55//53 54//52 46//44
f 52//50 55//53 46//44
f 34//32 47//45 56//54
f 47//45 37//35 57//55
f 56//54 38//36 34//32
f 24//22 58//56 23//21
f 39//37 40//38 59//57
f 25//23 60//58 41//39
f 61//59 19//17 62//60
f 40//38 19//17 61//59
f 19//17 42//40 62//60
f 32//30 41//39 49//47
f 63//61 42//40 44//42
f 63//61 44//42 64//62
f 43//41 49//47 65//63
f 44//42 50//48 64//62
f 50//48 66//64 64//62
f 43//41 65//63 52//50
f 53//51 67//65 50//48
f 65//63 68//66 52//50
f 69//67 52//50 68//66
f 55//53 52//50 69//67
f 70//68 54//52 69//67
f 69//67 54//52 55//53
f 38//36 60//58 25//23
f 42//40 63//61 62//60
f 71//69 62//60 63//61
f 72//70 63//61 64//62
f 50//48 67//65 66//64
f 53//51 73//71 67//65
f 53//51 54//52 73//71
f 54//52 74//72 73//71
f 54//52 70//68 74//72
f 75//73 69//67 68//66
f 75//73 70//68 69//67
f 56//54 47//45 76//74
f 47//45 57//55 76//74
f 23//21 58//56 37//35
f 37//35 58//56 77//75
f 38//36 56//54 78//76
f 60//58 38//36 78//76
f 24//22 48//46 58//56
f 59//57 48//46 39//37
f 79//77 61//59 62//60
f 71//69 80//78 62//60
f 49//47 41//39 81//79
f 82//80 71//69 63//61
f 72//70 82//80 63//61
f 72//70 64//62 66//64
f 65//63 83//81 68//66
f 75//73 68//66 84//82
f 70//68 75//73 85//83
f 74//72 70//68 85//83
f 85//83 75//73 84//82
f 37//35 77//75 57//55
f 56//54 76//74 78//76
f 59//57 86//84 48//46
f 40//38 87//85 88//86
f 61//59 87//85 40//38
f 62//60 80//78 79//77
f 49//47 81//79 65//63
f 72//70 66//64 89//87
f 67//65 73//71 89//87
f 83//81 90//88 68//66
f 91//89 73//71 74//72
f 68//66 90//88 92//90
f 84//82 93//91 85//83
f 57//55 77//75 76//74
f 78//76 76//74 94//92
f 58//56 95//93 77//75
f 48//46 86//84 58//56
f 96//94 60//58 78//76
f 59//57 40//38 88//86
f 97//95 60//58 96//94
f 97//95 41//39 60//58
f 61//59 79//77 87//85
f 79//77 98//96 87//85
f 80//78 99//97 79//77
f 80//78 71//69 100//98
f 71//69 82//80 100//98
f 82//80 72//70 101//99
f 65//63 81//79 83//81
f 101//99 72//70 89//87
f 66//64 67//65 89//87
f 85//83 102//100 91//89
f 91//89 74//72 85//83
f 84//82 68//66 92//90
f 84//82 92//90 103//101
f 103//101 93//91 84//82
f 102//100 85//83 93//91
f 77//75 94//92 76//74
f 77//75 104//102 94//92
f 77//75 95//93 104//102
f 105//103 96//94 78//76
f 58//56 106//104 95//93
f 86//84 106//104 58//56
f 59//57 88//86 86//84
f 88//86 87//85 98//96
f 107//105 97//95 96//94
f 79//77 99//97 98//96
f 80//78 100//98 108//106
f 82//80 101//99 100//98
f 73//71 91//89 89//87
f 94//92 105//103 78//76
f 86//84 109//107 106//104
f 86//84 110//108 109//107
f 111//109 110//108 86//84
f 105//103 112//110 96//94
f 88//86 111//109 86//84
f 113//111 96//94 112//110
f 113//111 107//105 96//94
f 98//96 99//97 114//112
f 108//106 99//97 80//78
f 81//79 41//39 97//95
f 115//113 83//81 81//79
f 116//114 101//99 89//87
f 117//115 89//87 91//89
f 118//116 91//89 102//100
f 93//91 103//101 119//117
f 102//100 93//91 119//117
f 94//92 120//118 105//103
f 94//92 121//119 120//118
f 104//102 121//119 94//92
f 122//120 121//119 104//102
f 104//102 95//93 122//120
f 106//104 122//120 95//93
f 109//107 123//121 106//104
f 111//109 88//86 110//108
f 88//86 98//96 124//122
f 124//122 98//96 125//123
f 98//96 114//112 125//123
f 99//97 108//106 126//124
f 126//124 114//112 99//97
f 107//105 127//125 97//95
f 100//98 128//126 108//106
f 97//95 127//125 81//79
f 128//126 100//98 101//99
f 81//79 129//127 115//113
f 116//114 128//126 101//99
f 116//114 89//87 130//128
f 83//81 115//113 90//88
f 119//117 103//101 131//129
f 132//130 120//118 121//119
f 122//120 132//130 121//119
f 105//103 120//118 112//110
f 133//131 112//110 120//118
f 133//131 120//118 132//130
f 122//120 123//121 132//130
f 122//120 106//104 123//121
f 123//121 109//107 134//132
f 110//108 135//133 109//107
f 110//108 88//86 124//122
f 113//111 133//131 136//134
f 112//110 133//131 113//111
f 113//111 136//134 107//105
f 136//134 137//135 107//105
f 114//112 126//124 125//123
f 128//126 126//124 108//106
f 81//79 127//125 129//127
f 138//136 115//113 129//127
f 89//87 117//115 130//128
f 115//113 139//137 90//88
f 90//88 139//137 92//90
f 139//137 140//138 92//90
f 92//90 140//138 141//139
f 92//90 141//139 103//101
f 141//139 131//129 103//101
f 118//116 102//100 119//117
f 119//117 131//129 142//140
f 143//141 133//131 132//130
f 109//107 135//133 134//132
f 110//108 144//142 135//133
f 124//122 144//142 110//108
f 123//121 143//141 132//130
f 123//121 145//143 143//141
f 123//121 134//132 145//143
f 146//144 145//143 134//132
f 124//122 125//123 144//142
f 133//131 147//145 136//134
f 147//145 133//131 143//141
f 145//143 148//146 143//141
f 148//146 145//143 146//144
f 136//134 147//145 137//135
f 107//105 137//135 127//125
f 126//124 128//126 149//147
f 149//147 128//126 150//148
f 128//126 151//149 150//148
f 152//150 129//127 127//125
f 153//151 138//136 129//127
f 138//136 139//137 115//113
f 117//115 91//89 118//116
f 141//139 154//152 131//129
f 131//129 154//152 142//140
f 118//116 119//117 142//140
f 155//153 135//133 156//154
f 156//154 135//133 144//142
f 134//132 135//133 155//153
f 155//153 146//144 134//132
f 156//154 144//142 157//155
f 144//142 125//123 157//155
f 147//145 158//156 137//135
f 143//141 159//157 147//145
f 159//157 158//156 147//145
f 146//144 160//158 148//146
f 125//123 126//124 157//155
f 161//159 159//157 143//141
f 148//146 161//159 143//141
f 126//124 149//147 157//155
f 160//158 161//159 148//146
f 137//135 158//156 127//125
f 127//125 158//156 152//150
f 152//150 153//151 129//127
f 128//126 162//160 151//149
f 163//161 153//151 152//150
f 116//114 162//160 128//126
f 153//151 163//161 138//136
f 164//162 116//114 130//128
f 138//136 165//163 139//137
f 166//164 139//137 165//163
f 139//137 166//164 140//138
f 166//164 167//165 140//138
f 117//115 118//116 168//166
f 141//139 140//138 167//165
f 141//139 169//167 154//152
f 142//140 170//168 118//116
f 156//154 171//169 155//153
f 156//154 157//155 171//169
f 146//144 155//153 171//169
f 171//169 172//170 146//144
f 146//144 172//170 160//158
f 173//171 171//169 157//155
f 149//147 173//171 157//155
f 149//147 150//148 173//171
f 159//157 152//150 158//156
f 161//159 174//172 159//157
f 175//173 160//158 172//170
f 159//157 174//172 152//150
f 174//172 163//161 152//150
f 116//114 164//162 162//160
f 138//136 163//161 176//174
f 138//136 176//174 165//163
f 177//175 166//164 165//163
f 177//175 167//165 166//164
f 168//166 178//176 117//115
f 167//165 169//167 141//139
f 168//166 118//116 170//168
f 154//152 170//168 142//140
f 172//170 171//169 173//171
f 173//171 179//177 172//170
f 180//178 172//170 179//177
f 173//171 150//148 179//177
f 175//173 172//170 181//179
f 150//148 151//149 179//177
f 179//177 151//149 162//160
f 174//172 182//180 163//161
f 161//159 160//158 183//181
f 163//161 182//180 176//174
f 161//159 183//181 174//172
f 184//182 176//174 182//180
f 130//128 185//183 164//162
f 165//163 176//174 184//182
f 117//115 178//176 185//183
f 130//128 117//115 185//183
f 177//175 165//163 184//182
f 178//176 168//166 186//184
f 168//166 170//168 186//184
f 169//167 167//165 187//185
f 188//186 169//167 187//185
f 169//167 188//186 154//152
f 170//168 154//152 188//186
f 181//179 172//170 180//178
f 180//178 189//187 181//179
f 179//177 189//187 180//178
f 179//177 162//160 189//187
f 181//179 190//188 175//173
f 189//187 191//189 181//179
f 191//189 190//188 181//179
f 162//160 191//189 189//187
f 162//160 164//162 191//189
f 183//181 160//158 175//173
f 183//181 182//180 174//172
f 190//188 183//181 175//173
f 192//190 193//191 190//188
f 191//189 192//190 190//188
f 191//189 164//162 192//190
f 190//188 193//191 183//181
f 164//162 185//183 192//190
f 182//180 194//192 184//182
f 183//181 194//192 182//180
f 195//193 183//181 193//191
f 185//183 196//194 192//190
f 194//192 183//181 195//193
f 185//183 178//176 196//194
f 194//192 177//175 184//182
f 194//192 187//185 177//175
f 197//195 187//185 194//192
f 178//176 186//184 196//194
f 177//175 187//185 167//165
f 186//184 188//186 197//195
f 197//195 188//186 187//185
f 186//184 170//168 188//186
f 192//190 196//194 193//191
f 193//191 196//194 195//193
f 194//192 195//193 197//195
f 195//193 196//194 197//195
f 196//194 186//184 197//195
