# Blender v2.92.0 OBJ File: 'convert_to_one_sided.blend'
# www.blender.org
mtllib 1054L.mtl
o 1054
v 3.528625 3.351206 4.808878
v 3.487285 3.363496 4.793579
v 3.571024 3.397645 4.813649
v 3.486245 3.394845 4.784859
v 3.524585 3.437975 4.794989
v 3.587124 3.472995 4.819388
v 3.489655 3.423195 4.794979
v 3.474595 3.336026 4.825728
v 3.461675 3.373266 4.807528
v 3.615773 3.378316 4.864108
v 3.712962 3.479724 4.894608
v 3.557654 3.549844 4.825188
v 3.511805 3.480624 4.810459
v 3.434246 3.336526 4.842838
v 3.501575 3.333036 4.877798
v 3.579824 3.356536 4.899197
v 3.425356 3.452885 4.877947
v 3.513915 3.544664 4.841068
v 3.633233 3.578623 4.864788
v 3.548024 3.620133 4.850228
v 3.421996 3.319787 4.878417
v 3.401456 3.356496 4.872038
v 3.676233 3.413055 4.882567
v 3.493535 3.647662 4.900107
v 3.579774 3.641752 4.858408
v 3.373007 3.324147 4.902187
v 3.628933 3.678952 4.884527
v 3.572754 3.734821 4.886978
v 3.416296 3.308077 4.947537
v 3.333167 3.347656 4.941677
v 3.714012 3.395885 4.923187
v 3.813361 3.420295 4.968277
v 3.388186 3.583963 4.978657
v 3.703912 3.645942 4.912517
v 3.553894 3.855010 4.912967
v 3.659553 3.821950 4.914757
v 3.599174 3.848150 4.904808
v 3.612953 3.961868 4.918047
v 3.353837 3.303227 4.947207
v 3.689573 3.375376 4.952307
v 3.465035 3.754071 4.965196
v 3.692693 3.918039 4.939277
v 3.656493 3.961088 4.927267
v 3.564344 4.033637 4.942137
v 3.671313 3.999538 4.945187
v 3.620774 4.070997 4.951827
v 3.589504 4.054327 4.942547
v 3.318187 3.310967 4.967546
v 3.341547 3.291867 4.978117
v 3.559554 3.340696 4.983376
v 3.801161 3.392345 4.990446
v 3.319797 3.434955 4.994076
v 3.853220 3.470775 4.981086
v 3.820281 3.578543 4.972937
v 3.763381 3.727041 4.963996
v 3.726642 3.833280 4.957537
v 3.486085 3.918629 4.987566
v 3.724682 3.899579 4.976516
v 3.693622 3.971998 4.970657
v 3.510275 4.113426 5.000846
v 3.574374 4.106586 4.964006
v 3.584004 4.152956 4.977546
v 3.837821 3.653682 5.004566
v 3.757162 3.826640 4.998816
v 3.653553 4.059397 4.987347
v 3.601413 4.140116 4.989196
v 3.552404 4.171455 4.991766
v 3.306917 3.299387 4.997236
v 3.383386 3.307707 5.006146
v 3.289888 3.337346 5.012556
v 3.912920 3.498224 5.028166
v 3.888020 3.584003 5.034326
v 3.394226 3.773721 5.055806
v 3.806391 3.730241 5.013346
v 3.449246 3.980298 5.045346
v 3.518445 4.231704 5.029976
v 3.553624 4.206785 5.019465
v 3.781941 3.374246 5.042926
v 3.902200 3.443155 5.023926
v 3.886670 3.403865 5.052495
v 3.708622 3.963618 5.055775
v 3.444885 4.084706 5.076985
v 3.597254 4.161635 5.057445
v 3.459635 4.202085 5.090855
v 3.513605 4.269234 5.057505
v 3.296758 3.315797 5.040886
v 3.460335 3.326686 5.040005
v 3.278278 3.429295 5.062975
v 3.331867 3.575743 5.056225
v 3.936369 3.466195 5.072405
v 3.929849 3.528124 5.072265
v 3.850120 3.675952 5.051625
v 3.792301 3.787951 5.064465
v 3.530745 4.255924 5.073885
v 3.484555 4.280824 5.095025
v 3.371116 3.319346 5.049955
v 3.276408 3.357336 5.060125
v 3.598674 3.357596 5.054435
v 3.297278 3.527604 5.093995
v 3.891990 3.607423 5.078235
v 3.760672 3.381086 5.090345
v 3.884040 3.394316 5.091055
v 3.853020 3.392156 5.065325
v 3.269708 3.381436 5.073755
v 3.280108 3.436735 5.084335
v 3.945879 3.500874 5.094155
v 3.401476 3.942499 5.106565
v 3.769322 3.848459 5.137044
v 3.626893 4.120096 5.148124
v 3.530124 4.259964 5.134015
v 3.491885 4.288723 5.106615
v 3.288877 3.347646 5.072285
v 3.342227 3.332156 5.066705
v 3.445826 3.343716 5.066985
v 3.560064 3.379716 5.091135
v 3.926569 3.432775 5.092145
v 3.941689 3.477545 5.104015
v 3.912620 3.557163 5.108045
v 3.338027 3.650972 5.110165
v 3.844630 3.691322 5.128714
v 3.368797 3.806780 5.126925
v 3.707562 3.966808 5.151865
v 3.466135 4.314023 5.136055
v 3.372527 3.362816 5.083825
v 3.298328 3.414135 5.088985
v 3.758152 3.404556 5.114675
v 3.862700 3.407135 5.119035
v 3.294058 3.488974 5.098985
v 3.310287 3.556363 5.109995
v 3.381696 3.918939 5.153744
v 3.416376 4.087886 5.135504
v 3.429116 4.203115 5.148904
v 3.457766 4.280544 5.144364
v 3.479325 4.305374 5.144584
v 3.465215 3.497604 5.117385
v 3.910230 3.439405 5.114675
v 3.630803 3.454255 5.114535
v 3.748582 3.523884 5.148214
v 3.339737 3.535724 5.117545
v 3.616943 3.587663 5.142834
v 3.883350 3.603633 5.146234
v 3.851660 3.660392 5.164474
v 3.830171 3.702161 5.173984
v 3.359327 3.724901 5.143394
v 3.369707 3.814800 5.149194
v 3.468895 4.305024 5.160354
v 3.835201 3.452415 5.140564
v 3.884080 3.461565 5.138704
v 3.897100 3.520114 5.135464
v 3.341967 3.618182 5.123714
v 3.409946 3.642592 5.138584
v 3.670853 3.708761 5.177434
v 3.524615 3.688612 5.161134
v 3.792771 3.765521 5.181674
v 3.385046 3.838510 5.165164
v 3.735652 3.888129 5.185214
v 3.403946 4.032447 5.173354
v 3.419986 4.141576 5.170034
v 3.437586 4.222375 5.173494
v 3.564774 4.209085 5.181654
v 3.459205 4.272274 5.175104
v 3.509885 4.262774 5.172234
v 3.841430 3.526724 5.154324
v 3.779681 3.659172 5.184054
v 3.849420 3.610832 5.161884
v 3.446956 3.797670 5.171324
v 3.710532 3.776031 5.200943
v 3.401846 3.944218 5.179084
v 3.427756 4.124796 5.187933
v 3.613833 4.127336 5.194784
v 3.815621 3.687881 5.181884
v 3.784981 3.701391 5.196814
v 3.758862 3.751721 5.204164
v 3.443966 3.939258 5.191034
v 3.586314 3.870709 5.198453
v 3.422516 4.025797 5.186534
v 3.668743 4.021697 5.186584
v 3.554614 4.199655 5.197164
v 3.457615 4.201425 5.194044
v 3.493345 4.241075 5.184504
v 3.779581 3.741491 5.196104
v 3.702532 3.845570 5.209534
v 3.745732 3.820840 5.197994
v 3.694823 3.932998 5.203244
v 3.645823 3.963698 5.211953
v 3.493425 4.061707 5.201123
v 3.576904 4.036867 5.212304
v 3.612263 4.069017 5.202534
v 3.532075 4.136526 5.197783
vn 0.3360 -0.7911 -0.5111
vn -0.0562 -0.4131 -0.9089
vn 0.4551 -0.2458 -0.8559
vn -0.2920 0.0431 -0.9555
vn 0.1175 0.1219 -0.9856
vn 0.4063 0.0997 -0.9083
vn -0.4937 0.3249 -0.8066
vn -0.0354 -0.8812 -0.4715
vn -0.6714 -0.0207 -0.7408
vn 0.4589 -0.7371 -0.4960
vn 0.5208 -0.0110 -0.8536
vn 0.0286 0.2913 -0.9562
vn -0.3899 0.3679 -0.8442
vn -0.4892 -0.5248 -0.6966
vn 0.2288 -0.9634 -0.1395
vn 0.3119 -0.9345 -0.1712
vn -0.6911 0.2877 -0.6630
vn -0.4932 0.3363 -0.8023
vn 0.4119 0.1848 -0.8923
vn -0.2786 0.3339 -0.9005
vn -0.1046 -0.9275 -0.3588
vn -0.7155 0.0028 -0.6986
vn 0.5219 -0.4065 -0.7499
vn -0.5776 0.2853 -0.7649
vn 0.1974 0.2784 -0.9400
vn -0.5844 -0.4784 -0.6554
vn 0.3078 0.1997 -0.9303
vn -0.0554 0.2386 -0.9695
vn 0.1601 -0.9836 -0.0834
vn -0.7809 0.0506 -0.6227
vn 0.4144 -0.7244 -0.5509
vn 0.5183 -0.4634 -0.7187
vn -0.7350 0.2787 -0.6182
vn 0.4750 0.1401 -0.8688
vn -0.4176 0.1814 -0.8903
vn 0.3550 0.1097 -0.9284
vn 0.0200 0.1314 -0.9911
vn 0.0278 0.1843 -0.9825
vn -0.2618 -0.8710 -0.4158
vn 0.2659 -0.9251 -0.2711
vn -0.6952 0.2279 -0.6817
vn 0.6727 0.1847 -0.7165
vn 0.3499 0.1991 -0.9154
vn -0.4025 0.2211 -0.8883
vn 0.6821 0.3719 -0.6296
vn 0.3755 0.4107 -0.8308
vn -0.0470 0.3076 -0.9504
vn -0.7217 -0.4403 -0.5342
vn -0.0151 -0.9996 -0.0246
vn 0.2113 -0.9774 0.0023
vn 0.3555 -0.8370 -0.4161
vn -0.8059 0.2387 -0.5417
vn 0.5715 -0.0627 -0.8182
vn 0.5841 0.1536 -0.7970
vn 0.6375 0.2167 -0.7394
vn 0.7056 0.1602 -0.6903
vn -0.6988 0.1602 -0.6971
vn 0.8691 0.2939 -0.3978
vn 0.8724 0.3675 -0.3222
vn -0.6452 0.2034 -0.7364
vn -0.2042 0.3247 -0.9235
vn 0.2521 0.5324 -0.8081
vn 0.7382 0.3069 -0.6006
vn 0.8568 0.3241 -0.4012
vn 0.8209 0.4989 -0.2777
vn 0.7254 0.5698 -0.3861
vn -0.1946 0.4362 -0.8785
vn -0.5189 -0.8512 -0.0784
vn 0.1026 -0.9647 0.2427
vn -0.9326 -0.1624 -0.3224
vn 0.7635 0.0885 -0.6397
vn 0.7964 0.3284 -0.5078
vn -0.8318 0.2174 -0.5107
vn 0.8065 0.3862 -0.4478
vn -0.7876 0.1572 -0.5958
vn -0.3933 0.4576 -0.7975
vn 0.4798 0.6803 -0.5541
vn 0.2067 -0.9763 -0.0640
vn 0.7056 -0.3349 -0.6245
vn 0.5421 -0.7719 -0.3321
vn 0.8952 0.4375 -0.0853
vn -0.8322 0.1608 -0.5306
vn 0.8220 0.5614 -0.0956
vn -0.8213 0.2310 -0.5217
vn 0.1568 0.8185 -0.5527
vn -0.4515 -0.8198 0.3521
vn 0.1569 -0.9269 0.3410
vn -0.9614 0.1553 -0.2273
vn -0.8589 0.2961 -0.4179
vn 0.9228 -0.2269 -0.3115
vn 0.9103 0.3113 -0.2729
vn 0.8592 0.4457 -0.2513
vn 0.8857 0.4369 -0.1569
vn 0.6916 0.7033 -0.1646
vn -0.5627 0.5755 -0.5935
vn 0.0508 -0.8752 0.4811
vn -0.9403 -0.3320 0.0746
vn 0.1126 -0.9180 0.3803
vn -0.9635 0.2289 0.1389
vn 0.8900 0.4466 -0.0922
vn 0.0520 -0.8742 0.4827
vn 0.3896 -0.8977 0.2057
vn 0.2923 -0.9367 -0.1927
vn -0.8549 -0.1392 0.4998
vn -0.8454 0.0448 0.5323
vn 0.9847 0.1682 0.0461
vn -0.8977 0.1683 -0.4071
vn 0.8949 0.4280 0.1261
vn 0.8573 0.5050 0.0997
vn 0.7279 0.6822 0.0686
vn 0.3620 0.8886 -0.2816
vn -0.4087 -0.4827 0.7746
vn -0.0289 -0.6702 0.7417
vn 0.0915 -0.7226 0.6852
vn 0.0001 -0.5519 0.8339
vn 0.8102 -0.5703 0.1357
vn 0.8594 -0.1154 0.4980
vn 0.8764 0.3398 0.3411
vn -0.9625 0.2389 0.1288
vn 0.8876 0.4394 0.1383
vn -0.9829 0.1498 -0.1074
vn 0.8768 0.4496 0.1704
vn -0.3022 0.9288 -0.2145
vn -0.0285 -0.3874 0.9215
vn -0.2833 -0.1737 0.9432
vn -0.0630 -0.4595 0.8859
vn 0.1809 -0.6110 0.7707
vn -0.6169 -0.0162 0.7869
vn -0.6825 0.1075 0.7229
vn -0.9704 0.1268 0.2054
vn -0.9565 0.1588 -0.2448
vn -0.9616 0.2348 -0.1423
vn -0.9116 0.4037 -0.0779
vn 0.4953 0.8518 0.1708
vn -0.0556 -0.2107 0.9760
vn 0.5640 -0.4140 0.7146
vn -0.0869 -0.2439 0.9659
vn -0.1149 -0.2335 0.9655
vn -0.2220 -0.1105 0.9688
vn -0.0881 -0.2199 0.9715
vn 0.7675 0.1796 0.6154
vn 0.7018 0.1774 0.6900
vn 0.7423 0.3022 0.5981
vn -0.6935 -0.0198 0.7202
vn -0.9290 0.0763 0.3621
vn -0.1935 0.7297 0.6558
vn -0.0042 -0.2987 0.9543
vn 0.3112 -0.2373 0.9203
vn 0.5573 -0.0200 0.8301
vn -0.5073 0.0103 0.8617
vn -0.1529 -0.1431 0.9778
vn -0.1353 -0.2177 0.9666
vn -0.0901 -0.1929 0.9771
vn 0.7206 0.3134 0.6185
vn -0.5485 -0.0314 0.8356
vn 0.7643 0.3528 0.5399
vn -0.8723 0.1124 0.4759
vn -0.9610 0.1556 0.2285
vn -0.8478 0.2718 0.4553
vn 0.6933 0.5941 0.4079
vn -0.5543 0.4134 0.7224
vn 0.4435 0.6316 0.6359
vn 0.1425 -0.1439 0.9793
vn 0.0097 -0.2236 0.9746
vn 0.3583 -0.0778 0.9304
vn -0.1678 -0.1539 0.9737
vn -0.1481 -0.1893 0.9707
vn -0.5956 0.0182 0.8031
vn -0.5883 0.0902 0.8036
vn 0.6538 0.3787 0.6550
vn 0.4309 -0.0054 0.9024
vn 0.2529 -0.1155 0.9606
vn 0.1098 -0.0455 0.9929
vn -0.2061 -0.0707 0.9760
vn -0.1149 -0.1246 0.9855
vn -0.3983 0.0198 0.9170
vn 0.7326 0.3708 0.5708
vn 0.2332 0.3183 0.9188
vn -0.2566 0.1555 0.9539
vn 0.0241 0.3100 0.9504
vn 0.4634 0.1286 0.8768
vn 0.0891 0.0000 0.9960
vn 0.4586 0.1803 0.8702
vn 0.4361 0.2079 0.8756
vn 0.0947 0.0484 0.9943
vn -0.1447 0.0026 0.9895
vn -0.0199 0.0490 0.9986
vn 0.2479 0.1665 0.9544
vn -0.0151 0.1028 0.9946
usemtl mtl1.922
s 1
f 1//1 2//2 3//3
f 2//2 4//4 5//5
f 3//3 2//2 5//5
f 3//3 5//5 6//6
f 4//4 7//7 5//5
f 1//1 8//8 2//2
f 9//9 4//4 2//2
f 1//1 3//3 10//10
f 7//7 4//4 9//9
f 6//6 11//11 3//3
f 5//5 12//12 6//6
f 5//5 7//7 13//13
f 12//12 5//5 13//13
f 8//8 14//14 2//2
f 8//8 1//1 15//15
f 14//14 9//9 2//2
f 1//1 10//10 16//16
f 9//9 17//17 7//7
f 13//13 17//17 18//18
f 13//13 7//7 17//17
f 19//19 6//6 12//12
f 12//12 13//13 18//18
f 20//20 12//12 18//18
f 14//14 8//8 21//21
f 21//21 8//8 15//15
f 1//1 16//16 15//15
f 14//14 22//22 9//9
f 10//10 3//3 23//23
f 9//9 22//22 17//17
f 11//11 23//23 3//3
f 18//18 17//17 24//24
f 12//12 20//20 25//25
f 12//12 25//25 19//19
f 14//14 26//26 22//22
f 26//26 14//14 21//21
f 6//6 19//19 11//11
f 19//19 25//25 27//27
f 18//18 24//24 20//20
f 20//20 24//24 28//28
f 25//25 20//20 28//28
f 28//28 27//27 25//25
f 21//21 15//15 29//29
f 30//30 22//22 26//26
f 17//17 22//22 30//30
f 23//23 31//31 10//10
f 31//31 23//23 32//32
f 32//32 23//23 11//11
f 24//24 17//17 33//33
f 34//34 11//11 19//19
f 27//27 34//34 19//19
f 28//28 24//24 35//35
f 27//27 28//28 36//36
f 28//28 35//35 37//37
f 36//36 28//28 37//37
f 36//36 37//37 38//38
f 26//26 21//21 39//39
f 39//39 21//21 29//29
f 10//10 40//40 16//16
f 10//10 31//31 40//40
f 24//24 41//41 35//35
f 27//27 36//36 34//34
f 37//37 35//35 38//38
f 42//42 36//36 43//43
f 35//35 44//44 38//38
f 36//36 38//38 43//43
f 43//43 45//45 42//42
f 43//43 38//38 46//46
f 45//45 43//43 46//46
f 47//47 46//46 38//38
f 44//44 47//47 38//38
f 26//26 39//39 48//48
f 39//39 29//29 49//49
f 48//48 30//30 26//26
f 16//16 50//50 15//15
f 31//31 32//32 51//51
f 17//17 52//52 33//33
f 53//53 11//11 54//54
f 32//32 11//11 53//53
f 11//11 34//34 54//54
f 24//24 33//33 41//41
f 55//55 34//34 36//36
f 55//55 36//36 56//56
f 35//35 41//41 57//57
f 36//36 42//42 56//56
f 42//42 58//58 56//56
f 35//35 57//57 44//44
f 45//45 59//59 42//42
f 57//57 60//60 44//44
f 61//61 44//44 60//60
f 47//47 44//44 61//61
f 62//62 46//46 61//61
f 61//61 46//46 47//47
f 30//30 52//52 17//17
f 34//34 55//55 54//54
f 63//63 54//54 55//55
f 64//64 55//55 56//56
f 42//42 59//59 58//58
f 45//45 65//65 59//59
f 45//45 46//46 65//65
f 46//46 66//66 65//65
f 46//46 62//62 66//66
f 67//67 61//61 60//60
f 67//67 62//62 61//61
f 48//48 39//39 68//68
f 39//39 49//49 68//68
f 15//15 50//50 29//29
f 29//29 50//50 69//69
f 30//30 48//48 70//70
f 52//52 30//30 70//70
f 16//16 40//40 50//50
f 51//51 40//40 31//31
f 71//71 53//53 54//54
f 63//63 72//72 54//54
f 41//41 33//33 73//73
f 74//74 63//63 55//55
f 64//64 74//74 55//55
f 64//64 56//56 58//58
f 57//57 75//75 60//60
f 67//67 60//60 76//76
f 62//62 67//67 77//77
f 66//66 62//62 77//77
f 77//77 67//67 76//76
f 29//29 69//69 49//49
f 48//48 68//68 70//70
f 51//51 78//78 40//40
f 32//32 79//79 80//80
f 53//53 79//79 32//32
f 54//54 72//72 71//71
f 41//41 73//73 57//57
f 64//64 58//58 81//81
f 59//59 65//65 81//81
f 75//75 82//82 60//60
f 83//83 65//65 66//66
f 60//60 82//82 84//84
f 76//76 85//85 77//77
f 49//49 69//69 68//68
f 70//70 68//68 86//86
f 50//50 87//87 69//69
f 40//40 78//78 50//50
f 88//88 52//52 70//70
f 51//51 32//32 80//80
f 89//89 52//52 88//88
f 89//89 33//33 52//52
f 53//53 71//71 79//79
f 71//71 90//90 79//79
f 72//72 91//91 71//71
f 72//72 63//63 92//92
f 63//63 74//74 92//92
f 74//74 64//64 93//93
f 57//57 73//73 75//75
f 93//93 64//64 81//81
f 58//58 59//59 81//81
f 77//77 94//94 83//83
f 83//83 66//66 77//77
f 76//76 60//60 84//84
f 76//76 84//84 95//95
f 95//95 85//85 76//76
f 94//94 77//77 85//85
f 69//69 86//86 68//68
f 69//69 96//96 86//86
f 69//69 87//87 96//96
f 97//97 88//88 70//70
f 50//50 98//98 87//87
f 78//78 98//98 50//50
f 51//51 80//80 78//78
f 80//80 79//79 90//90
f 99//99 89//89 88//88
f 71//71 91//91 90//90
f 72//72 92//92 100//100
f 74//74 93//93 92//92
f 65//65 83//83 81//81
f 86//86 97//97 70//70
f 78//78 101//101 98//98
f 78//78 102//102 101//101
f 103//103 102//102 78//78
f 97//97 104//104 88//88
f 80//80 103//103 78//78
f 105//105 88//88 104//104
f 105//105 99//99 88//88
f 90//90 91//91 106//106
f 100//100 91//91 72//72
f 73//73 33//33 89//89
f 107//107 75//75 73//73
f 108//108 93//93 81//81
f 109//109 81//81 83//83
f 110//110 83//83 94//94
f 85//85 95//95 111//111
f 94//94 85//85 111//111
f 86//86 112//112 97//97
f 86//86 113//113 112//112
f 96//96 113//113 86//86
f 114//114 113//113 96//96
f 96//96 87//87 114//114
f 98//98 114//114 87//87
f 101//101 115//115 98//98
f 103//103 80//80 102//102
f 80//80 90//90 116//116
f 116//116 90//90 117//117
f 90//90 106//106 117//117
f 91//91 100//100 118//118
f 118//118 106//106 91//91
f 99//99 119//119 89//89
f 92//92 120//120 100//100
f 89//89 119//119 73//73
f 120//120 92//92 93//93
f 73//73 121//121 107//107
f 108//108 120//120 93//93
f 108//108 81//81 122//122
f 75//75 107//107 82//82
f 111//111 95//95 123//123
f 124//124 112//112 113//113
f 114//114 124//124 113//113
f 97//97 112//112 104//104
f 125//125 104//104 112//112
f 125//125 112//112 124//124
f 114//114 115//115 124//124
f 114//114 98//98 115//115
f 115//115 101//101 126//126
f 102//102 127//127 101//101
f 102//102 80//80 116//116
f 105//105 125//125 128//128
f 104//104 125//125 105//105
f 105//105 128//128 99//99
f 128//128 129//129 99//99
f 106//106 118//118 117//117
f 120//120 118//118 100//100
f 73//73 119//119 121//121
f 130//130 107//107 121//121
f 81//81 109//109 122//122
f 107//107 131//131 82//82
f 82//82 131//131 84//84
f 131//131 132//132 84//84
f 84//84 132//132 133//133
f 84//84 133//133 95//95
f 133//133 123//123 95//95
f 110//110 94//94 111//111
f 111//111 123//123 134//134
f 135//135 125//125 124//124
f 101//101 127//127 126//126
f 102//102 136//136 127//127
f 116//116 136//136 102//102
f 115//115 135//135 124//124
f 115//115 137//137 135//135
f 115//115 126//126 137//137
f 138//138 137//137 126//126
f 116//116 117//117 136//136
f 125//125 139//139 128//128
f 139//139 125//125 135//135
f 137//137 140//140 135//135
f 140//140 137//137 138//138
f 128//128 139//139 129//129
f 99//99 129//129 119//119
f 118//118 120//120 141//141
f 141//141 120//120 142//142
f 120//120 143//143 142//142
f 144//144 121//121 119//119
f 145//145 130//130 121//121
f 130//130 131//131 107//107
f 109//109 83//83 110//110
f 133//133 146//146 123//123
f 123//123 146//146 134//134
f 110//110 111//111 134//134
f 147//147 127//127 148//148
f 148//148 127//127 136//136
f 126//126 127//127 147//147
f 147//147 138//138 126//126
f 148//148 136//136 149//149
f 136//136 117//117 149//149
f 139//139 150//150 129//129
f 135//135 151//151 139//139
f 151//151 150//150 139//139
f 138//138 152//152 140//140
f 117//117 118//118 149//149
f 153//153 151//151 135//135
f 140//140 153//153 135//135
f 118//118 141//141 149//149
f 152//152 153//153 140//140
f 129//129 150//150 119//119
f 119//119 150//150 144//144
f 144//144 145//145 121//121
f 120//120 154//154 143//143
f 155//155 145//145 144//144
f 108//108 154//154 120//120
f 145//145 155//155 130//130
f 156//156 108//108 122//122
f 130//130 157//157 131//131
f 158//158 131//131 157//157
f 131//131 158//158 132//132
f 158//158 159//159 132//132
f 109//109 110//110 160//160
f 133//133 132//132 159//159
f 133//133 161//161 146//146
f 134//134 162//162 110//110
f 148//148 163//163 147//147
f 148//148 149//149 163//163
f 138//138 147//147 163//163
f 163//163 164//164 138//138
f 138//138 164//164 152//152
f 165//165 163//163 149//149
f 141//141 165//165 149//149
f 141//141 142//142 165//165
f 151//151 144//144 150//150
f 153//153 166//166 151//151
f 167//167 152//152 164//164
f 151//151 166//166 144//144
f 166//166 155//155 144//144
f 108//108 156//156 154//154
f 130//130 155//155 168//168
f 130//130 168//168 157//157
f 169//169 158//158 157//157
f 169//169 159//159 158//158
f 160//160 170//170 109//109
f 159//159 161//161 133//133
f 160//160 110//110 162//162
f 146//146 162//162 134//134
f 164//164 163//163 165//165
f 165//165 171//171 164//164
f 172//172 164//164 171//171
f 165//165 142//142 171//171
f 167//167 164//164 173//173
f 142//142 143//143 171//171
f 171//171 143//143 154//154
f 166//166 174//174 155//155
f 153//153 152//152 175//175
f 155//155 174//174 168//168
f 153//153 175//175 166//166
f 176//176 168//168 174//174
f 122//122 177//177 156//156
f 157//157 168//168 176//176
f 109//109 170//170 177//177
f 122//122 109//109 177//177
f 169//169 157//157 176//176
f 170//170 160//160 178//178
f 160//160 162//162 178//178
f 161//161 159//159 179//179
f 180//180 161//161 179//179
f 161//161 180//180 146//146
f 162//162 146//146 180//180
f 173//173 164//164 172//172
f 172//172 181//181 173//173
f 171//171 181//181 172//172
f 171//171 154//154 181//181
f 173//173 182//182 167//167
f 181//181 183//183 173//173
f 183//183 182//182 173//173
f 154//154 183//183 181//181
f 154//154 156//156 183//183
f 175//175 152//152 167//167
f 175//175 174//174 166//166
f 182//182 175//175 167//167
f 184//184 185//185 182//182
f 183//183 184//184 182//182
f 183//183 156//156 184//184
f 182//182 185//185 175//175
f 156//156 177//177 184//184
f 174//174 186//186 176//176
f 175//175 186//186 174//174
f 187//187 175//175 185//185
f 177//177 188//188 184//184
f 186//186 175//175 187//187
f 177//177 170//170 188//188
f 186//186 169//169 176//176
f 186//186 179//179 169//169
f 189//189 179//179 186//186
f 170//170 178//178 188//188
f 169//169 179//179 159//159
f 178//178 180//180 189//189
f 189//189 180//180 179//179
f 178//178 162//162 180//180
f 184//184 188//188 185//185
f 185//185 188//188 187//187
f 186//186 187//187 189//189
f 187//187 188//188 189//189
f 188//188 178//178 189//189
