# Blender v2.92.0 OBJ File: 'convert_to_one_sided.blend'
# www.blender.org
mtllib 1061L.mtl
o Cube
v 0.001000 0.001000 -0.001000
v 0.001000 -0.001000 -0.001000
v 0.001000 0.001000 0.001000
v 0.001000 -0.001000 0.001000
v -0.001000 0.001000 -0.001000
v -0.001000 -0.001000 -0.001000
v -0.001000 0.001000 0.001000
v -0.001000 -0.001000 0.001000
vt 0.625000 0.500000
vt 0.875000 0.500000
vt 0.875000 0.750000
vt 0.625000 0.750000
vt 0.375000 0.750000
vt 0.625000 1.000000
vt 0.375000 1.000000
vt 0.375000 0.000000
vt 0.625000 0.000000
vt 0.625000 0.250000
vt 0.375000 0.250000
vt 0.125000 0.500000
vt 0.375000 0.500000
vt 0.125000 0.750000
vn 0.0000 1.0000 0.0000
vn 0.0000 0.0000 1.0000
vn -1.0000 0.0000 0.0000
vn 0.0000 -1.0000 0.0000
vn 1.0000 0.0000 0.0000
vn 0.0000 0.0000 -1.0000
usemtl Material
s off
f 1/1/1 5/2/1 7/3/1 3/4/1
f 4/5/2 3/4/2 7/6/2 8/7/2
f 8/8/3 7/9/3 5/10/3 6/11/3
f 6/12/4 2/13/4 4/5/4 8/14/4
f 2/13/5 1/1/5 3/4/5 4/5/5
f 6/11/6 5/10/6 1/1/6 2/13/6
o 1061
v 8.330523 2.837483 4.092448
v 8.337652 2.814463 4.084648
v 8.321504 2.806393 4.096288
v 8.354162 2.813223 4.095977
v 8.342593 2.830313 4.097888
v 8.328143 2.765784 4.113328
v 8.344522 2.777423 4.116247
v 8.335874 2.709664 4.175067
v 8.302334 2.805803 4.131107
v 8.351313 2.823683 4.133937
v 8.299294 2.713754 4.172397
v 8.296193 2.761484 4.148207
v 8.348843 2.745124 4.187797
v 8.315593 2.831833 4.158907
v 8.334322 2.832033 4.145367
v 8.260493 2.702265 4.225826
v 8.265703 2.752464 4.208556
v 8.281214 2.794413 4.216966
v 8.314982 2.649335 4.240656
v 8.343263 2.753784 4.253216
v 8.328233 2.786043 4.256876
v 8.332652 2.643415 4.249696
v 8.282634 2.634025 4.277565
v 8.337612 2.628216 4.286745
v 8.311203 2.806143 4.250876
v 8.232823 2.740384 4.325565
v 8.258574 2.782423 4.311745
v 8.284452 2.796543 4.275526
v 8.324293 2.600186 4.302875
v 8.235014 2.627895 4.336635
v 8.341093 2.626645 4.367134
v 8.221714 2.678765 4.328215
v 8.306933 2.572276 4.338804
v 8.302973 2.762834 4.352284
v 8.263614 2.556186 4.389894
v 8.262134 2.779984 4.351214
v 8.236033 2.757724 4.414894
v 8.323553 2.543856 4.382064
v 8.313453 2.693775 4.415383
v 8.279703 2.773784 4.354574
v 8.334753 2.546787 4.404194
v 8.194795 2.607716 4.414993
v 8.180685 2.654575 4.488983
v 8.294064 2.486777 4.457273
v 8.202694 2.733034 4.503952
v 8.247674 2.753184 4.456633
v 8.221435 2.562526 4.428343
v 8.334272 2.483327 4.533392
v 8.319053 2.476717 4.488973
v 8.242703 2.512247 4.466313
v 8.210005 2.493517 4.556102
v 8.304032 2.551286 4.644621
v 8.265453 2.719304 4.512022
v 8.196634 2.748024 4.583062
v 8.210764 2.736754 4.609361
v 8.264724 2.431188 4.555832
v 8.300374 2.410728 4.569872
v 8.170005 2.713524 4.569701
v 8.153785 2.742754 4.635751
v 8.319023 2.405058 4.602221
v 8.152465 2.563096 4.644791
v 8.143625 2.643285 4.630141
v 8.147346 2.689475 4.607541
v 8.251393 2.390249 4.630001
v 8.306843 2.443308 4.771759
v 8.257743 2.621336 4.734980
v 8.319942 2.400799 4.688630
v 8.123365 2.722954 4.666040
v 8.182425 2.707964 4.781409
v 8.283713 2.357149 4.653391
v 8.303973 2.360759 4.650131
v 8.236944 2.370979 4.706600
v 8.270124 2.546947 4.821028
v 8.099866 2.682905 4.719670
v 8.162995 2.452738 4.739900
v 8.293913 2.321059 4.751349
v 8.304723 2.353309 4.738289
v 8.118135 2.523357 4.779669
v 8.095276 2.603026 4.785639
v 8.070226 2.759984 4.761159
v 8.067406 2.727464 4.749809
v 8.153485 2.752124 4.722070
v 8.117875 2.763444 4.734279
v 8.270864 2.323119 4.766989
v 8.195694 2.362449 4.832558
v 8.295593 2.368969 4.861278
v 8.158225 2.390469 4.875338
v 8.275094 2.473308 4.936377
v 8.041697 2.676565 4.825948
v 8.038497 2.714714 4.786439
v 8.002867 2.749474 4.809988
v 7.993618 2.778934 4.823048
v 7.994587 2.799173 4.844828
v 8.049116 2.787223 4.821649
v 8.244554 2.306740 4.868258
v 8.275784 2.306410 4.837648
v 8.280394 2.314960 4.877068
v 8.067916 2.531087 4.897347
v 7.941958 2.779644 4.859608
v 8.112326 2.432558 4.932417
v 7.982098 2.717464 4.852858
v 7.946148 2.797583 4.869197
v 8.048656 2.583106 4.921337
v 8.037807 2.637905 4.891098
v 7.967078 2.684835 4.940727
v 7.932198 2.719574 4.901297
v 7.928118 2.750164 4.885148
v 8.080676 2.772883 4.855718
v 7.985757 2.813433 4.901577
v 8.258724 2.288190 4.942256
v 8.191375 2.317770 4.978966
v 8.247734 2.525217 4.984426
v 8.141766 2.677765 4.972376
v 7.912048 2.786973 4.904098
v 7.931038 2.811483 4.918167
v 8.238784 2.291180 4.956137
v 8.054236 2.483417 4.983106
v 7.912208 2.722124 4.969067
v 7.890688 2.761704 4.979617
v 7.926348 2.826733 4.969597
v 8.284184 2.398479 4.952407
v 8.000587 2.606006 4.998986
v 7.889889 2.799773 4.993326
v 8.258594 2.276350 5.039616
v 8.273684 2.331969 5.008576
v 8.023706 2.532497 5.016316
v 8.209824 2.589886 4.977927
v 8.083166 2.700785 5.055205
v 7.903039 2.818953 4.997406
v 7.981937 2.792463 5.005566
v 7.884329 2.748494 5.090575
v 8.233984 2.263950 5.057565
v 7.926848 2.696035 5.026326
v 7.912918 2.700235 5.076055
v 7.886569 2.803123 5.055105
v 7.916258 2.800573 5.048555
v 8.124425 2.348229 5.097485
v 8.057366 2.451258 5.057345
v 8.037546 2.705914 5.121944
v 8.255434 2.448988 5.094785
v 7.952958 2.645175 5.060705
v 7.889278 2.769044 5.091515
v 8.198994 2.258250 5.123374
v 8.224264 2.240880 5.138134
v 8.230743 2.244530 5.135464
v 8.018327 2.504807 5.101955
v 7.986887 2.570056 5.102875
v 8.165745 2.589996 5.104905
v 8.249004 2.301090 5.138824
v 8.264564 2.388679 5.057675
v 8.076306 2.408858 5.112104
v 8.220734 2.489057 5.119595
v 8.101675 2.630955 5.148224
v 7.965767 2.743954 5.122745
v 8.064806 2.450758 5.140964
v 7.942048 2.634245 5.140494
v 7.918478 2.686244 5.156744
v 7.913538 2.753254 5.123925
v 8.216885 2.240800 5.168524
v 8.163395 2.304839 5.161074
v 8.110246 2.384968 5.144624
v 8.013457 2.530977 5.158064
v 7.914468 2.726934 5.147834
v 8.029237 2.652805 5.189164
v 8.189935 2.286070 5.173704
v 8.137385 2.354539 5.151274
v 7.971257 2.590906 5.173154
v 7.951417 2.708764 5.173584
v 8.243054 2.385148 5.143254
v 8.138435 2.381168 5.183254
v 8.053816 2.510477 5.197154
v 7.990997 2.581606 5.206513
v 8.226974 2.263050 5.173744
v 8.229394 2.317979 5.182084
v 7.956017 2.634055 5.190753
v 7.931598 2.718184 5.168174
v 8.199675 2.339489 5.193083
v 8.154904 2.420058 5.209683
v 8.209574 2.413648 5.183824
v 8.100056 2.488597 5.215513
v 8.138745 2.543956 5.174514
v 8.026406 2.568596 5.221823
v 7.957138 2.673665 5.185724
v 8.141685 2.461187 5.203463
v 8.069786 2.556106 5.208083
v 7.984138 2.614455 5.207123
v 8.010017 2.610245 5.202313
vn -0.3219 0.7909 -0.5204
vn 0.2157 -0.0611 -0.9745
vn -0.6718 -0.0862 -0.7357
vn 0.9062 0.0254 -0.4221
vn 0.5845 0.7170 -0.3798
vn -0.1396 -0.5788 -0.8034
vn 0.6737 -0.4880 -0.5550
vn 0.5202 -0.6356 -0.5705
vn -0.8912 0.3115 -0.3298
vn 0.8849 0.4514 0.1148
vn -0.3929 -0.6303 -0.6696
vn -0.7853 -0.2302 -0.5747
vn 0.9841 -0.1556 -0.0858
vn -0.4207 0.9052 0.0605
vn 0.3810 0.9099 0.1638
vn -0.7905 -0.3439 -0.5067
vn -0.9354 0.1283 -0.3295
vn -0.7975 0.5937 -0.1072
vn -0.0562 -0.7611 -0.6462
vn 0.9560 0.2142 0.2003
vn 0.7608 0.5641 0.3208
vn 0.4933 -0.6869 -0.5337
vn -0.4723 -0.6715 -0.5709
vn 0.8719 -0.4050 -0.2754
vn 0.2923 0.9003 0.3226
vn -0.9054 0.3922 -0.1624
vn -0.6341 0.7733 -0.0003
vn -0.2630 0.9511 0.1618
vn 0.3625 -0.7547 -0.5468
vn -0.7030 -0.5008 -0.5050
vn 0.9964 0.0391 0.0747
vn -0.9403 -0.0433 -0.3377
vn -0.1352 -0.7893 -0.5990
vn 0.6599 0.6640 0.3517
vn -0.4918 -0.6796 -0.5443
vn -0.1509 0.9690 0.1956
vn -0.5526 0.8332 0.0191
vn 0.4880 -0.7279 -0.4816
vn 0.8900 0.3665 0.2713
vn 0.2976 0.9021 0.3126
vn 0.9049 -0.3706 -0.2095
vn -0.8841 -0.3172 -0.3431
vn -0.9658 0.0471 -0.2548
vn -0.1047 -0.8136 -0.5719
vn -0.8023 0.5536 -0.2233
vn 0.2407 0.9456 0.2188
vn -0.6666 -0.5879 -0.4583
vn 0.9927 -0.1193 -0.0191
vn 0.6504 -0.6472 -0.3976
vn -0.5746 -0.6645 -0.4779
vn -0.8099 -0.4863 -0.3279
vn 0.9491 0.2592 0.1792
vn 0.6800 0.6758 0.2843
vn -0.0931 0.9945 -0.0487
vn 0.5309 0.8260 0.1894
vn -0.4522 -0.7344 -0.5061
vn 0.2129 -0.8152 -0.5387
vn -0.8661 0.3228 -0.3815
vn -0.6197 0.6862 -0.3809
vn 0.8481 -0.4802 -0.2239
vn -0.9117 -0.2639 -0.3149
vn -0.9371 -0.1419 -0.3189
vn -0.9278 0.0596 -0.3682
vn -0.6226 -0.6784 -0.3900
vn 0.9848 0.1032 0.1399
vn 0.8592 0.4587 0.2266
vn 0.9882 -0.1406 0.0607
vn -0.8479 0.1918 -0.4943
vn 0.7033 0.6682 0.2426
vn -0.2372 -0.8749 -0.4223
vn 0.5903 -0.7385 -0.3259
vn -0.6689 -0.6829 -0.2936
vn 0.9194 0.3505 0.1785
vn -0.8561 -0.2203 -0.4674
vn -0.8237 -0.4820 -0.2985
vn 0.4623 -0.8704 -0.1690
vn 0.9358 -0.3524 0.0115
vn -0.8814 -0.3470 -0.3204
vn -0.8935 -0.2754 -0.3547
vn -0.4971 0.6144 -0.6126
vn -0.7612 -0.0026 -0.6485
vn 0.4606 0.8791 0.1222
vn -0.0158 0.9836 -0.1798
vn -0.3157 -0.9111 -0.2650
vn -0.7103 -0.6537 -0.2610
vn 0.9854 -0.1256 0.1146
vn -0.7721 -0.5889 -0.2388
vn 0.9587 0.2300 0.1674
vn -0.7326 -0.5331 -0.4232
vn -0.7252 -0.3685 -0.5817
vn -0.6716 -0.0843 -0.7361
vn -0.4840 0.4625 -0.7428
vn -0.1593 0.8836 -0.4404
vn 0.1170 0.9639 -0.2391
vn -0.4340 -0.8722 -0.2258
vn 0.2033 -0.9705 -0.1295
vn 0.8598 -0.5095 0.0325
vn -0.8792 -0.3209 -0.3521
vn -0.6979 0.1712 -0.6954
vn -0.7934 -0.5444 -0.2725
vn -0.6314 -0.5586 -0.5379
vn -0.5071 0.6644 -0.5490
vn -0.8799 -0.2972 -0.3707
vn -0.7886 -0.4839 -0.3793
vn -0.6604 -0.6825 -0.3132
vn -0.6844 -0.6212 -0.3817
vn -0.8128 -0.2953 -0.5021
vn 0.5069 0.8479 0.1555
vn 0.1938 0.9784 -0.0721
vn 0.2015 -0.9669 -0.1566
vn -0.6512 -0.7225 -0.2323
vn 0.8765 0.4258 0.2245
vn 0.6993 0.6631 0.2670
vn -0.8590 0.2900 -0.4220
vn -0.4449 0.8405 -0.3092
vn -0.3905 -0.8950 -0.2155
vn -0.8326 -0.4767 -0.2819
vn -0.7927 -0.5776 -0.1947
vn -0.9510 -0.2400 -0.1948
vn 0.0270 0.9976 0.0644
vn 0.9856 0.0533 0.1605
vn -0.8187 -0.4626 -0.3401
vn -0.9275 0.3538 -0.1207
vn 0.7752 -0.6317 -0.0066
vn 0.9823 -0.1323 0.1328
vn -0.8908 -0.3674 -0.2673
vn 0.7960 0.5462 0.2609
vn 0.6259 0.7125 0.3173
vn -0.4406 0.8977 0.0023
vn 0.4428 0.8455 0.2983
vn -0.9826 -0.0947 0.1600
vn -0.0778 -0.9651 -0.2500
vn -0.7355 -0.6473 -0.2001
vn -0.8541 -0.5115 -0.0941
vn -0.5337 0.7679 0.3542
vn 0.1483 0.9024 0.4046
vn -0.7904 -0.6125 -0.0095
vn -0.8406 -0.5276 -0.1222
vn 0.5056 0.7284 0.4624
vn 0.9224 0.2502 0.2942
vn -0.8108 -0.5375 -0.2318
vn -0.8361 0.3627 0.4116
vn -0.6328 -0.7731 -0.0427
vn -0.0368 -0.9940 -0.1031
vn 0.6650 -0.7401 0.1001
vn -0.8608 -0.5089 -0.0025
vn -0.8668 -0.4855 -0.1134
vn 0.7261 0.5604 0.3984
vn 0.9524 -0.1375 0.2721
vn 0.9785 0.0475 0.2006
vn -0.8356 -0.5265 0.1565
vn 0.7826 0.4272 0.4528
vn 0.6140 0.5851 0.5298
vn 0.3094 0.7888 0.5311
vn -0.7986 -0.5173 0.3076
vn -0.8760 -0.4814 0.0300
vn -0.8770 -0.2102 0.4321
vn -0.1708 0.7493 0.6398
vn -0.0939 -0.8032 0.5883
vn -0.7783 -0.5296 0.3372
vn -0.7379 -0.5571 0.3811
vn -0.7875 -0.5669 0.2419
vn -0.7195 0.2207 0.6585
vn 0.3271 0.4880 0.8092
vn -0.5704 -0.5003 0.6514
vn -0.8036 -0.4886 0.3400
vn -0.8318 -0.5214 0.1905
vn 0.1138 0.6116 0.7829
vn 0.8899 0.1422 0.4335
vn -0.5966 -0.4309 0.6771
vn -0.5924 -0.5220 0.6137
vn -0.6488 -0.4258 0.6307
vn 0.6436 -0.3442 0.6836
vn 0.7063 -0.0032 0.7079
vn -0.7599 -0.2190 0.6120
vn -0.3489 0.4427 0.8260
vn 0.1129 -0.1397 0.9837
vn 0.0799 -0.0983 0.9919
vn 0.6100 0.2272 0.7592
vn -0.0551 -0.1160 0.9917
vn 0.5751 0.3989 0.7143
vn -0.1128 -0.0063 0.9936
vn -0.3050 0.2040 0.9302
vn 0.4366 0.2240 0.8713
vn 0.3389 0.2970 0.8927
vn -0.2648 0.1373 0.9545
vn 0.1548 0.3613 0.9195
usemtl mtl1.077
s 1
f 9//7 10//8 11//9
f 12//10 10//8 13//11
f 9//7 13//11 10//8
f 14//12 15//13 16//14
f 15//13 14//12 10//8
f 10//8 14//12 11//9
f 12//10 15//13 10//8
f 11//9 17//15 9//7
f 12//10 13//11 18//16
f 19//17 14//12 16//14
f 19//17 20//18 14//12
f 11//9 14//12 20//18
f 17//15 11//9 20//18
f 15//13 12//10 21//19
f 21//19 12//10 18//16
f 17//15 22//20 9//7
f 23//21 13//11 9//7
f 23//21 18//16 13//11
f 20//18 19//17 24//22
f 20//18 25//23 17//15
f 26//24 22//20 17//15
f 9//7 22//20 23//21
f 19//17 16//14 27//25
f 16//14 15//13 21//19
f 24//22 25//23 20//18
f 26//24 17//15 25//23
f 21//19 18//16 28//26
f 29//27 18//16 23//21
f 27//25 16//14 30//28
f 19//17 31//29 24//22
f 16//14 21//19 32//30
f 29//27 28//26 18//16
f 23//21 22//20 33//31
f 31//29 19//17 27//25
f 32//30 30//28 16//14
f 25//23 34//32 26//24
f 26//24 35//33 36//34
f 22//20 26//24 36//34
f 22//20 36//34 33//31
f 33//31 29//27 23//21
f 30//28 37//35 27//25
f 34//32 35//33 26//24
f 24//22 31//29 38//36
f 32//30 21//19 39//37
f 24//22 40//38 25//23
f 39//37 21//19 28//26
f 31//29 27//25 41//39
f 41//39 27//25 37//35
f 24//22 38//36 40//38
f 34//32 25//23 40//38
f 33//31 42//40 29//27
f 41//39 43//41 31//29
f 37//35 30//28 32//30
f 44//42 35//33 45//43
f 35//33 44//42 36//34
f 31//29 43//41 38//36
f 37//35 46//44 41//39
f 37//35 32//30 46//44
f 39//37 28//26 47//45
f 47//45 28//26 29//27
f 35//33 34//32 45//43
f 48//46 42//40 33//31
f 48//46 33//31 36//34
f 49//47 32//30 39//37
f 40//38 38//36 50//48
f 50//48 51//49 40//38
f 36//34 44//42 48//46
f 52//50 41//39 46//44
f 49//47 46//44 32//30
f 40//38 51//49 34//32
f 29//27 42//40 47//45
f 53//51 45//43 34//32
f 44//42 54//52 48//46
f 43//41 55//53 38//36
f 49//47 39//37 56//54
f 38//36 55//53 50//48
f 52//50 46//44 57//55
f 43//41 58//56 55//53
f 58//56 43//41 52//50
f 52//50 43//41 41//39
f 57//55 46//44 49//47
f 55//53 59//57 50//48
f 60//58 39//37 47//45
f 61//59 47//45 42//40
f 44//42 45//43 54//52
f 54//52 61//59 48//46
f 61//59 42//40 48//46
f 56//54 39//37 60//58
f 53//51 34//32 51//49
f 59//57 51//49 50//48
f 62//60 45//43 53//51
f 61//59 54//52 63//61
f 52//50 64//62 58//56
f 64//62 52//50 65//63
f 52//50 57//55 65//63
f 56//54 57//55 49//47
f 66//64 53//51 51//49
f 67//65 62//60 53//51
f 62//60 54//52 45//43
f 57//55 56//54 68//66
f 64//62 59//57 58//56
f 58//56 59//57 55//53
f 51//49 59//57 69//67
f 51//49 69//67 70//68
f 70//68 71//69 51//49
f 51//49 71//69 66//64
f 62//60 63//61 54//52
f 65//63 57//55 68//66
f 64//62 72//70 59//57
f 56//54 60//58 73//71
f 60//58 47//45 74//72
f 47//45 61//59 74//72
f 68//66 56//54 75//73
f 75//73 56//54 73//71
f 71//69 76//74 66//64
f 61//59 63//61 77//75
f 53//51 66//64 67//65
f 78//76 72//70 64//62
f 65//63 78//76 64//62
f 79//77 78//76 65//63
f 65//63 68//66 79//77
f 72//70 80//78 59//57
f 60//58 74//72 81//79
f 77//75 74//72 61//59
f 71//69 82//80 76//74
f 66//64 76//74 67//65
f 83//81 69//67 59//57
f 72//70 78//76 80//78
f 79//77 84//82 78//76
f 84//82 79//77 85//83
f 85//83 79//77 68//66
f 85//83 68//66 75//73
f 80//78 83//81 59//57
f 69//67 83//81 86//84
f 69//67 87//85 70//68
f 70//68 82//80 71//69
f 76//74 88//86 67//65
f 69//67 86//84 87//85
f 76//74 82//80 89//87
f 62//60 90//88 63//61
f 67//65 88//86 91//89
f 67//65 91//89 62//60
f 84//82 92//90 78//76
f 80//78 93//91 83//81
f 87//85 82//80 70//68
f 88//86 76//74 89//87
f 77//75 63//61 90//88
f 62//60 91//89 90//88
f 78//76 92//90 80//78
f 94//92 85//83 75//73
f 94//92 75//73 73//71
f 93//91 95//93 83//81
f 73//71 60//58 96//94
f 82//80 87//85 97//95
f 82//80 98//96 89//87
f 88//86 89//87 99//97
f 88//86 100//98 101//99
f 88//86 99//97 100//98
f 88//86 102//100 91//89
f 102//100 88//86 101//99
f 80//78 92//90 103//101
f 104//102 92//90 84//82
f 105//103 104//102 84//82
f 80//78 103//101 93//91
f 84//82 85//83 105//103
f 60//58 81//79 96//94
f 86//84 106//104 87//85
f 98//96 82//80 97//95
f 98//96 99//97 89//87
f 99//97 107//105 100//98
f 92//90 104//102 103//101
f 83//81 95//93 108//106
f 86//84 108//106 106//104
f 86//84 83//81 108//106
f 97//95 109//107 98//96
f 98//96 109//107 99//97
f 100//98 107//105 110//108
f 101//99 100//98 110//108
f 106//104 111//109 87//85
f 87//85 112//110 97//95
f 113//111 109//107 97//95
f 109//107 114//112 115//113
f 115//113 99//97 109//107
f 99//97 115//113 107//105
f 90//88 116//114 77//75
f 91//89 116//114 90//88
f 116//114 91//89 102//100
f 102//100 101//99 117//115
f 118//116 103//101 104//102
f 118//116 104//102 105//103
f 85//83 94//92 105//103
f 93//91 119//117 95//93
f 111//109 112//110 87//85
f 74//72 120//118 81//79
f 109//107 113//111 114//112
f 77//75 116//114 121//119
f 107//105 122//120 110//108
f 107//105 115//113 122//120
f 123//121 101//99 110//108
f 102//100 117//115 116//114
f 117//115 101//99 123//121
f 103//101 118//116 124//122
f 106//104 108//106 125//123
f 112//110 113//111 97//95
f 115//113 126//124 127//125
f 114//112 126//124 115//113
f 115//113 127//125 122//120
f 110//108 122//120 123//121
f 117//115 123//121 128//126
f 94//92 73//71 129//127
f 73//71 96//94 129//127
f 130//128 113//111 112//110
f 114//112 113//111 126//124
f 122//120 127//125 131//129
f 119//117 93//91 103//101
f 132//130 118//116 105//103
f 105//103 94//92 133//131
f 125//123 134//132 106//104
f 96//94 81//79 120//118
f 134//132 111//109 106//104
f 112//110 111//109 130//128
f 77//75 135//133 74//72
f 121//119 135//133 77//75
f 116//114 136//134 121//119
f 123//121 131//129 137//135
f 122//120 131//129 123//121
f 117//115 138//136 116//114
f 116//114 138//136 136//134
f 123//121 137//135 128//126
f 117//115 128//126 138//136
f 127//125 139//137 131//129
f 119//117 103//101 124//122
f 118//116 140//138 124//122
f 140//138 118//116 132//130
f 119//117 108//106 95//93
f 133//131 94//92 129//127
f 120//118 74//72 135//133
f 141//139 126//124 113//111
f 126//124 142//140 127//125
f 143//141 137//135 131//129
f 137//135 143//141 144//142
f 144//142 128//126 137//135
f 133//131 132//130 105//103
f 108//106 119//117 145//143
f 108//106 146//144 125//123
f 126//124 141//139 142//140
f 127//125 142//140 139//137
f 147//145 136//134 138//136
f 128//126 144//142 138//136
f 140//138 119//117 124//122
f 145//143 146//144 108//106
f 134//132 125//123 146//144
f 96//94 120//118 148//146
f 134//132 130//128 111//109
f 113//111 149//147 141//139
f 149//147 113//111 130//128
f 139//137 150//148 131//129
f 131//129 150//148 143//141
f 119//117 140//138 151//149
f 151//149 140//138 152//150
f 153//151 140//138 132//130
f 146//144 154//152 134//132
f 155//153 134//132 154//152
f 130//128 134//132 155//153
f 130//128 155//153 149//147
f 135//133 121//119 156//154
f 121//119 136//134 156//154
f 157//155 153//151 132//130
f 119//117 151//149 145//143
f 132//130 133//131 157//155
f 133//131 129//127 158//156
f 146//144 145//143 159//157
f 129//127 96//94 158//156
f 96//94 148//146 158//156
f 135//133 160//158 120//118
f 161//159 156//154 136//134
f 161//159 136//134 147//145
f 144//142 162//160 138//136
f 162//160 147//145 138//136
f 152//150 140//138 153//151
f 157//155 133//131 158//156
f 146//144 159//157 163//161
f 146//144 163//161 154//152
f 120//118 160//158 148//146
f 156//154 160//158 135//133
f 155//153 164//162 149//147
f 141//139 149//147 142//140
f 139//137 142//140 165//163
f 150//148 166//164 143//141
f 166//164 144//142 143//141
f 152//150 167//165 151//149
f 151//149 168//166 145//143
f 169//167 159//157 145//143
f 169//167 163//161 159//157
f 163//161 170//168 154//152
f 154//152 170//168 155//153
f 164//162 142//140 149//147
f 165//163 171//169 139//137
f 171//169 150//148 139//137
f 171//169 166//164 150//148
f 162//160 172//170 147//145
f 166//164 162//160 144//142
f 151//149 173//171 168//166
f 173//171 151//149 167//165
f 174//172 145//143 168//166
f 174//172 169//167 145//143
f 155//153 170//168 175//173
f 164//162 155//153 175//173
f 165//163 142//140 164//162
f 162//160 166//164 176//174
f 152//150 153//151 167//165
f 157//155 158//156 177//175
f 174//172 178//176 169//167
f 158//156 148//146 177//175
f 169//167 178//176 163//161
f 163//161 178//176 179//177
f 163//161 179//177 170//168
f 170//168 180//178 175//173
f 172//170 161//159 147//145
f 181//179 167//165 153//151
f 181//179 153//151 157//155
f 182//180 181//179 157//155
f 168//166 178//176 174//172
f 178//176 168//166 173//171
f 157//155 177//175 182//180
f 148//146 160//158 177//175
f 170//168 179//177 180//178
f 164//162 175//173 183//181
f 183//181 175//173 180//178
f 164//162 183//181 165//163
f 184//182 166//164 171//169
f 172//170 162//160 176//174
f 176//174 166//164 184//182
f 167//165 185//183 173//171
f 185//183 167//165 181//179
f 173//171 185//183 178//176
f 182//180 185//183 181//179
f 186//184 178//176 185//183
f 187//185 185//183 182//180
f 177//175 187//185 182//180
f 188//186 178//176 186//184
f 189//187 187//185 160//158
f 187//185 177//175 160//158
f 179//177 178//176 188//186
f 160//158 156//154 189//187
f 179//177 190//188 180//178
f 190//188 179//177 188//186
f 189//187 156//154 161//159
f 189//187 161//159 172//170
f 183//181 191//189 165//163
f 191//189 184//182 171//169
f 165//163 191//189 171//169
f 191//189 176//174 184//182
f 172//170 176//174 191//189
f 185//183 192//190 186//184
f 185//183 187//185 192//190
f 187//185 189//187 192//190
f 186//184 192//190 188//186
f 192//190 193//191 188//186
f 189//187 193//191 192//190
f 188//186 193//191 190//188
f 180//178 194//192 183//181
f 194//192 180//178 190//188
f 195//193 194//192 190//188
f 193//191 195//193 190//188
f 172//170 195//193 193//191
f 189//187 172//170 193//191
f 194//192 191//189 183//181
f 195//193 191//189 194//192
f 172//170 191//189 195//193
