# Blender v2.92.0 OBJ File: 'convert_to_one_sided.blend'
# www.blender.org
mtllib 1066L.mtl
o 1066
v 7.736500 0.632724 3.409856
v 7.739960 0.655388 3.396096
v 7.756050 0.629215 3.441336
v 7.739660 0.686417 3.408726
v 7.745980 0.678347 3.413306
v 7.740320 0.606394 3.443816
v 7.693341 0.640800 3.470415
v 7.782270 0.673017 3.492515
v 7.745250 0.722274 3.440786
v 7.736970 0.726425 3.430036
v 7.726780 0.588060 3.471445
v 7.705481 0.600399 3.475345
v 7.792970 0.610253 3.534854
v 7.708791 0.711823 3.474785
v 7.733790 0.741344 3.470186
v 7.778960 0.722482 3.522315
v 7.675081 0.565588 3.538364
v 7.752680 0.575184 3.515965
v 7.629022 0.657787 3.580184
v 7.654312 0.711949 3.567664
v 7.695031 0.739526 3.545355
v 7.766570 0.736060 3.534675
v 7.713961 0.528037 3.618113
v 7.668411 0.592237 3.521975
v 7.739160 0.744326 3.564924
v 7.625832 0.594014 3.579304
v 7.829959 0.588793 3.636683
v 7.636802 0.566061 3.576904
v 7.799570 0.563426 3.598644
v 7.837919 0.633907 3.656403
v 7.822899 0.679803 3.633963
v 7.699171 0.747159 3.593374
v 7.614542 0.529170 3.658003
v 7.777580 0.530969 3.627303
v 7.585083 0.687887 3.678373
v 7.805749 0.707590 3.621703
v 7.666841 0.738273 3.612384
v 7.793080 0.715150 3.674113
v 7.716861 0.731970 3.671373
v 7.792420 0.494159 3.721192
v 7.557143 0.586737 3.680973
v 7.628542 0.721533 3.651553
v 7.579432 0.553292 3.665613
v 7.600692 0.492681 3.751452
v 7.822289 0.511530 3.714272
v 7.527613 0.633700 3.740682
v 7.882218 0.610269 3.778201
v 7.657611 0.732134 3.657513
v 7.684301 0.484489 3.768891
v 7.535973 0.503311 3.762532
v 7.542503 0.524404 3.729132
v 7.518064 0.541508 3.745582
v 7.865718 0.511209 3.777461
v 7.847039 0.671814 3.745462
v 7.607212 0.720661 3.721602
v 7.886698 0.549055 3.790261
v 7.847179 0.675676 3.821811
v 7.651102 0.717498 3.757072
v 7.733320 0.686960 3.840141
v 7.511273 0.670461 3.793151
v 7.550003 0.697045 3.776772
v 7.847259 0.471830 3.825451
v 7.875539 0.657226 3.835281
v 7.574282 0.704837 3.808991
v 7.489484 0.514708 3.800551
v 7.478114 0.490343 3.851531
v 7.460484 0.565348 3.832870
v 7.742001 0.465156 3.833441
v 7.453234 0.631985 3.868820
v 7.585862 0.681176 3.911770
v 7.549463 0.453086 3.935919
v 7.435034 0.513959 3.881000
v 7.905908 0.615323 3.875900
v 7.456264 0.663755 3.905530
v 7.893738 0.639615 3.906310
v 7.905258 0.448316 3.939029
v 7.937598 0.474144 3.945909
v 7.498114 0.677077 3.912750
v 7.766850 0.444204 3.934469
v 7.390195 0.488299 3.950519
v 7.939778 0.540177 3.925429
v 7.433944 0.472836 3.943489
v 7.370275 0.527182 3.963249
v 7.361896 0.579297 3.981729
v 7.942907 0.600337 3.983559
v 7.969657 0.558181 4.008049
v 7.367955 0.623824 4.001739
v 7.832069 0.642356 3.958689
v 7.692021 0.646033 4.010058
v 7.683361 0.424952 4.026228
v 7.982717 0.473292 4.026698
v 8.016947 0.490760 4.094327
v 7.922988 0.609040 4.026008
v 7.356425 0.641679 4.046048
v 7.412164 0.656211 3.999178
v 7.377075 0.464962 4.014458
v 7.318456 0.492560 4.041968
v 7.991227 0.562343 4.075538
v 7.838409 0.420328 4.039908
v 7.960788 0.420452 4.083097
v 7.355505 0.438890 4.097167
v 7.850909 0.598412 4.114337
v 7.509943 0.423921 4.102307
v 7.994307 0.441291 4.075938
v 7.266766 0.524151 4.108327
v 7.258866 0.579519 4.145687
v 7.296236 0.614578 4.114967
v 7.473314 0.645303 4.066748
v 7.694511 0.408092 4.129797
v 7.292746 0.462609 4.105497
v 7.246246 0.477349 4.146567
v 8.023877 0.443994 4.121637
v 8.015817 0.532295 4.111957
v 7.985387 0.570371 4.100457
v 7.963987 0.570713 4.142406
v 7.361265 0.640291 4.087167
v 7.236847 0.455680 4.174067
v 8.024257 0.535476 4.150177
v 7.278886 0.619337 4.168366
v 7.325635 0.627630 4.174246
v 7.861939 0.399618 4.153516
v 7.522683 0.409476 4.200966
v 8.026627 0.420771 4.161407
v 7.235307 0.596402 4.205776
v 7.617612 0.603357 4.181616
v 7.736021 0.399439 4.204226
v 7.336276 0.424240 4.210475
v 7.259487 0.446277 4.183386
v 8.046886 0.449211 4.185396
v 7.207037 0.460646 4.219285
v 7.984317 0.402920 4.197266
v 7.203177 0.485129 4.212076
v 8.042606 0.494220 4.188216
v 7.398745 0.608652 4.231705
v 7.882829 0.395334 4.211136
v 7.188968 0.520132 4.248135
v 8.015757 0.530176 4.190246
v 7.944098 0.554030 4.196786
v 7.642861 0.576482 4.253225
v 7.764870 0.558971 4.235225
v 7.283546 0.610344 4.239366
v 7.932568 0.398209 4.229506
v 8.039516 0.433542 4.221636
v 7.197517 0.567810 4.265725
v 7.570323 0.411357 4.249055
v 7.799890 0.405652 4.245275
v 7.215547 0.446933 4.254995
v 7.398635 0.419941 4.251795
v 8.050676 0.460436 4.224186
v 7.187528 0.476723 4.265885
v 8.036487 0.483359 4.236065
v 7.226557 0.591268 4.269685
v 7.945878 0.422477 4.247645
v 7.283317 0.436509 4.277365
v 7.917968 0.513086 4.245935
v 7.585052 0.570324 4.274195
v 7.537873 0.585795 4.252165
v 7.655741 0.427521 4.278005
v 7.815350 0.422900 4.262605
v 7.432634 0.432745 4.280955
v 7.847839 0.444669 4.278065
v 8.018657 0.452975 4.245636
v 7.169707 0.501666 4.302255
v 7.587712 0.543681 4.293105
v 7.674961 0.462686 4.293165
v 7.202337 0.470952 4.297925
v 7.309796 0.453425 4.301785
v 7.959018 0.445639 4.262895
v 7.810790 0.484411 4.283895
v 7.933898 0.466425 4.257035
v 7.734941 0.519458 4.273075
v 7.177648 0.530530 4.300035
v 7.441794 0.574476 4.293685
v 7.192477 0.557537 4.311395
v 7.287877 0.588615 4.293575
v 7.224847 0.576961 4.305315
v 7.457244 0.473890 4.307734
v 7.625202 0.498721 4.294205
v 7.488584 0.523589 4.311335
v 7.429304 0.547945 4.316774
v 7.273627 0.493156 4.323905
v 7.198088 0.514696 4.308605
v 7.356986 0.524346 4.326444
v 7.318806 0.558688 4.320944
v 7.241757 0.565853 4.313924
v 7.262186 0.538310 4.315324
vn -0.2665 -0.5204 -0.8113
vn 0.4175 -0.0916 -0.9041
vn 0.7726 -0.3939 -0.4979
vn -0.2923 0.3327 -0.8966
vn 0.7543 0.2293 -0.6152
vn 0.4008 -0.7268 -0.5579
vn -0.8075 -0.0511 -0.5877
vn 0.9282 0.0911 -0.3608
vn 0.6379 0.5976 -0.4857
vn -0.1871 0.7442 -0.6413
vn -0.1104 -0.8494 -0.5161
vn -0.6126 -0.5103 -0.6035
vn 0.8816 -0.2643 -0.3909
vn -0.7654 0.4486 -0.4614
vn -0.0565 0.9638 -0.2607
vn 0.8252 0.5112 -0.2401
vn -0.4247 -0.7419 -0.5189
vn 0.4119 -0.8092 -0.4190
vn -0.8403 0.1943 -0.5061
vn -0.7446 0.5439 -0.3870
vn -0.4401 0.8667 -0.2349
vn 0.5121 0.8533 -0.0984
vn -0.0209 -0.9327 -0.3600
vn -0.7055 -0.3768 -0.6002
vn 0.1353 0.9907 0.0160
vn -0.8126 -0.1618 -0.5600
vn 0.8994 -0.2162 -0.3798
vn -0.6638 -0.5112 -0.5460
vn 0.6897 -0.5860 -0.4253
vn 0.9446 0.0590 -0.3228
vn 0.9160 0.3322 -0.2251
vn -0.0987 0.9948 0.0234
vn -0.3911 -0.7908 -0.4708
vn 0.3385 -0.8470 -0.4099
vn -0.7632 0.5166 -0.3882
vn 0.7373 0.6718 -0.0715
vn -0.3676 0.9288 -0.0466
vn 0.4017 0.9103 0.1002
vn 0.1009 0.9771 0.1872
vn 0.1452 -0.9335 -0.3278
vn -0.8282 -0.0441 -0.5586
vn -0.5433 0.8203 -0.1785
vn -0.7039 -0.4195 -0.5732
vn -0.1515 -0.9400 -0.3057
vn 0.4911 -0.7723 -0.4030
vn -0.8374 0.2370 -0.4924
vn 0.9368 0.2106 -0.2795
vn -0.1804 0.9797 0.0871
vn -0.0427 -0.9651 -0.2583
vn -0.4221 -0.7897 -0.4452
vn -0.6018 -0.5634 -0.5661
vn -0.7746 -0.2665 -0.5736
vn 0.7025 -0.5734 -0.4216
vn 0.7822 0.6121 -0.1160
vn -0.2589 0.9656 0.0228
vn 0.9132 -0.1440 -0.3812
vn 0.3965 0.9106 0.1169
vn 0.0048 0.9810 0.1940
vn 0.1278 0.9615 0.2435
vn -0.7527 0.5388 -0.3783
vn -0.5018 0.8544 -0.1350
vn 0.2749 -0.9071 -0.3187
vn 0.7186 0.6928 -0.0601
vn -0.1651 0.9775 0.1315
vn -0.7121 -0.4661 -0.5251
vn -0.4220 -0.8158 -0.3953
vn -0.8367 0.0029 -0.5476
vn -0.0052 -0.9737 -0.2277
vn -0.8070 0.3596 -0.4684
vn 0.0217 0.9709 0.2385
vn -0.1156 -0.9636 -0.2409
vn -0.7492 -0.3456 -0.5650
vn 0.8792 0.4244 -0.2164
vn -0.5667 0.7891 -0.2370
vn 0.5568 0.8285 0.0598
vn 0.3334 -0.8830 -0.3302
vn 0.7541 -0.4913 -0.4359
vn -0.1892 0.9776 0.0927
vn 0.0089 -0.9748 -0.2227
vn -0.6164 -0.5992 -0.5109
vn 0.9234 0.0247 -0.3830
vn -0.2888 -0.9018 -0.3214
vn -0.8029 -0.1134 -0.5852
vn -0.8173 0.2080 -0.5373
vn 0.7316 0.6723 -0.1131
vn 0.8996 0.2941 -0.3228
vn -0.7501 0.4896 -0.4445
vn 0.1770 0.9545 0.2400
vn 0.0933 0.9597 0.2651
vn -0.0412 -0.9805 -0.1919
vn 0.8511 -0.2548 -0.4589
vn 0.9355 0.0449 -0.3504
vn 0.3369 0.9274 0.1626
vn -0.4912 0.8512 -0.1849
vn -0.1930 0.9802 0.0444
vn -0.3855 -0.8376 -0.3871
vn -0.7148 -0.4252 -0.5553
vn 0.8197 0.5400 -0.1914
vn 0.0263 -0.9788 -0.2029
vn 0.2964 -0.9126 -0.2815
vn -0.2315 -0.9368 -0.2623
vn 0.1357 0.9413 0.3092
vn -0.0789 -0.9842 -0.1584
vn 0.6445 -0.6330 -0.4288
vn -0.8396 0.0369 -0.5420
vn -0.8267 0.3341 -0.4527
vn -0.7004 0.6196 -0.3543
vn 0.0176 0.9765 0.2150
vn -0.0414 -0.9902 -0.1337
vn -0.4948 -0.7385 -0.4580
vn -0.7679 -0.3365 -0.5451
vn 0.8552 -0.3424 -0.3891
vn 0.9210 0.2867 -0.2639
vn 0.5562 0.8269 0.0830
vn 0.2990 0.9125 0.2791
vn -0.1432 0.9861 0.0841
vn -0.5669 -0.7140 -0.4109
vn 0.8065 0.5912 -0.0022
vn -0.3788 0.9253 -0.0206
vn -0.0645 0.9831 0.1715
vn 0.0258 -0.9912 -0.1302
vn -0.0614 -0.9978 -0.0229
vn 0.6345 -0.7450 -0.2056
vn -0.7025 0.6746 -0.2268
vn 0.1081 0.9446 0.3101
vn -0.0352 -0.9983 0.0466
vn -0.1452 -0.9879 -0.0547
vn -0.3305 -0.9164 -0.2259
vn 0.9630 -0.2212 -0.1540
vn -0.7250 -0.6156 -0.3088
vn 0.2569 -0.9600 0.1118
vn -0.8950 -0.1412 -0.4231
vn 0.9453 0.3262 0.0072
vn 0.0677 0.9375 0.3414
vn 0.0133 -0.9973 0.0729
vn -0.9369 0.1207 -0.3280
vn 0.5174 0.7562 0.4006
vn 0.2129 0.8345 0.5082
vn 0.1366 0.8795 0.4558
vn 0.1715 0.7717 0.6124
vn -0.1027 0.9592 0.2633
vn 0.1524 -0.8917 0.4263
vn 0.6354 -0.6669 0.3893
vn -0.8424 0.5257 -0.1183
vn -0.0297 -0.9466 0.3211
vn 0.0115 -0.8758 0.4825
vn -0.4480 -0.8930 0.0430
vn -0.0660 -0.9732 0.2204
vn 0.9117 -0.0551 0.4072
vn -0.8798 -0.4680 -0.0826
vn 0.5423 0.4116 0.7324
vn -0.4081 0.8897 0.2047
vn 0.2104 -0.6687 0.7132
vn -0.1392 -0.9131 0.3833
vn 0.2050 0.5663 0.7983
vn 0.1407 0.7401 0.6576
vn 0.0853 0.9055 0.4157
vn 0.0218 -0.6484 0.7610
vn 0.0671 -0.6788 0.7312
vn -0.0127 -0.7819 0.6233
vn 0.1108 -0.2868 0.9515
vn 0.4118 -0.1702 0.8952
vn -0.8930 -0.2081 0.3990
vn 0.1668 0.4237 0.8903
vn 0.0583 -0.1641 0.9847
vn -0.3953 -0.6533 0.6458
vn -0.0496 -0.6364 0.7698
vn 0.2116 -0.1177 0.9702
vn 0.1427 0.2230 0.9643
vn 0.1954 0.2567 0.9465
vn 0.1471 0.4824 0.8635
vn -0.9058 0.2525 0.3401
vn 0.0966 0.7533 0.6505
vn -0.5085 0.4462 0.7364
vn -0.0061 0.8295 0.5585
vn -0.1918 0.7648 0.6151
vn 0.0579 -0.3147 0.9474
vn 0.1056 0.1241 0.9866
vn 0.1277 0.0300 0.9914
vn 0.1123 0.3488 0.9304
vn -0.0992 -0.2243 0.9694
vn -0.3397 -0.0616 0.9385
vn 0.0248 0.0268 0.9993
vn 0.0025 0.4069 0.9135
vn -0.0741 0.3991 0.9139
vn -0.1144 0.0727 0.9908
usemtl mtl1.932
s 1
f 1//1 2//2 3//3
f 4//4 5//5 2//2
f 1//1 3//3 6//6
f 2//2 1//1 4//4
f 3//3 2//2 5//5
f 4//4 1//1 7//7
f 8//8 3//3 5//5
f 4//4 9//9 5//5
f 10//10 9//9 4//4
f 1//1 11//11 12//12
f 11//11 1//1 6//6
f 1//1 12//12 7//7
f 3//3 8//8 13//13
f 4//4 7//7 14//14
f 4//4 14//14 10//10
f 5//5 9//9 8//8
f 15//15 9//9 10//10
f 8//8 9//9 16//16
f 10//10 14//14 15//15
f 11//11 17//17 12//12
f 11//11 6//6 18//18
f 3//3 18//18 6//6
f 7//7 19//19 14//14
f 20//20 21//21 14//14
f 14//14 21//21 15//15
f 9//9 15//15 22//22
f 22//22 16//16 9//9
f 11//11 23//23 17//17
f 11//11 18//18 23//23
f 17//17 24//24 12//12
f 12//12 24//24 7//7
f 20//20 14//14 19//19
f 22//22 15//15 25//25
f 24//24 26//26 7//7
f 26//26 19//19 7//7
f 8//8 27//27 13//13
f 15//15 21//21 25//25
f 17//17 28//28 24//24
f 29//29 3//3 13//13
f 27//27 8//8 30//30
f 8//8 16//16 31//31
f 21//21 32//32 25//25
f 28//28 17//17 33//33
f 18//18 34//34 23//23
f 18//18 3//3 29//29
f 24//24 28//28 26//26
f 29//29 13//13 27//27
f 19//19 35//35 20//20
f 30//30 8//8 31//31
f 31//31 16//16 36//36
f 21//21 37//37 32//32
f 22//22 25//25 38//38
f 36//36 16//16 22//22
f 38//38 36//36 22//22
f 25//25 32//32 39//39
f 23//23 34//34 40//40
f 23//23 33//33 17//17
f 34//34 18//18 29//29
f 26//26 41//41 19//19
f 35//35 42//42 20//20
f 21//21 20//20 42//42
f 42//42 37//37 21//21
f 28//28 33//33 43//43
f 28//28 43//43 26//26
f 43//43 41//41 26//26
f 25//25 39//39 38//38
f 23//23 44//44 33//33
f 34//34 45//45 40//40
f 41//41 46//46 19//19
f 30//30 31//31 47//47
f 48//48 37//37 42//42
f 37//37 48//48 32//32
f 23//23 40//40 49//49
f 33//33 44//44 50//50
f 33//33 51//51 43//43
f 34//34 29//29 45//45
f 41//41 43//43 52//52
f 46//46 35//35 19//19
f 23//23 49//49 44//44
f 43//43 51//51 52//52
f 45//45 29//29 53//53
f 53//53 29//29 27//27
f 54//54 31//31 36//36
f 38//38 54//54 36//36
f 42//42 55//55 48//48
f 39//39 32//32 48//48
f 51//51 33//33 50//50
f 27//27 30//30 56//56
f 30//30 47//47 56//56
f 31//31 54//54 47//47
f 57//57 54//54 38//38
f 48//48 58//58 39//39
f 39//39 59//59 38//38
f 53//53 27//27 56//56
f 46//46 60//60 35//35
f 42//42 61//61 55//55
f 42//42 35//35 61//61
f 48//48 55//55 58//58
f 39//39 58//58 59//59
f 40//40 45//45 62//62
f 45//45 53//53 62//62
f 60//60 61//61 35//35
f 54//54 57//57 63//63
f 64//64 55//55 61//61
f 55//55 64//64 58//58
f 51//51 50//50 65//65
f 50//50 44//44 66//66
f 51//51 65//65 52//52
f 52//52 65//65 67//67
f 41//41 52//52 67//67
f 41//41 67//67 46//46
f 38//38 59//59 57//57
f 40//40 68//68 49//49
f 65//65 50//50 66//66
f 60//60 46//46 69//69
f 64//64 70//70 58//58
f 70//70 59//59 58//58
f 44//44 71//71 66//66
f 49//49 71//71 44//44
f 49//49 68//68 71//71
f 40//40 62//62 68//68
f 72//72 67//67 65//65
f 67//67 69//69 46//46
f 47//47 54//54 73//73
f 60//60 74//74 61//61
f 75//75 63//63 57//57
f 66//66 72//72 65//65
f 62//62 53//53 76//76
f 53//53 56//56 77//77
f 54//54 63//63 73//73
f 60//60 69//69 74//74
f 61//61 78//78 64//64
f 68//68 62//62 79//79
f 79//79 62//62 76//76
f 66//66 80//80 72//72
f 76//76 53//53 77//77
f 56//56 81//81 77//77
f 56//56 47//47 81//81
f 61//61 74//74 78//78
f 66//66 82//82 80//80
f 67//67 72//72 83//83
f 84//84 69//69 67//67
f 47//47 73//73 81//81
f 85//85 86//86 73//73
f 73//73 63//63 75//75
f 73//73 75//75 85//85
f 74//74 69//69 87//87
f 64//64 78//78 70//70
f 68//68 79//79 71//71
f 80//80 83//83 72//72
f 81//81 73//73 86//86
f 87//87 69//69 84//84
f 59//59 88//88 57//57
f 57//57 88//88 75//75
f 59//59 70//70 89//89
f 79//79 90//90 71//71
f 66//66 71//71 82//82
f 91//91 81//81 92//92
f 83//83 84//84 67//67
f 92//92 81//81 86//86
f 85//85 75//75 93//93
f 94//94 74//74 87//87
f 95//95 74//74 94//94
f 74//74 95//95 78//78
f 82//82 71//71 96//96
f 80//80 82//82 96//96
f 83//83 80//80 97//97
f 86//86 85//85 98//98
f 88//88 93//93 75//75
f 59//59 89//89 88//88
f 76//76 99//99 79//79
f 76//76 100//100 99//99
f 96//96 71//71 101//101
f 77//77 100//100 76//76
f 80//80 96//96 97//97
f 77//77 81//81 91//91
f 88//88 102//102 93//93
f 103//103 71//71 90//90
f 79//79 99//99 90//90
f 71//71 103//103 101//101
f 100//100 77//77 104//104
f 77//77 91//91 104//104
f 105//105 83//83 97//97
f 83//83 105//105 84//84
f 84//84 106//106 87//87
f 87//87 107//107 94//94
f 95//95 108//108 78//78
f 78//78 108//108 70//70
f 90//90 99//99 109//109
f 97//97 96//96 110//110
f 111//111 97//97 110//110
f 112//112 91//91 92//92
f 97//97 111//111 105//105
f 113//113 86//86 98//98
f 105//105 106//106 84//84
f 98//98 85//85 114//114
f 107//107 87//87 106//106
f 102//102 115//115 93//93
f 93//93 115//115 114//114
f 114//114 85//85 93//93
f 94//94 116//116 95//95
f 92//92 86//86 113//113
f 95//95 116//116 108//108
f 89//89 70//70 108//108
f 90//90 109//109 103//103
f 96//96 101//101 110//110
f 104//104 91//91 112//112
f 111//111 110//110 117//117
f 113//113 98//98 118//118
f 118//118 98//98 114//114
f 89//89 102//102 88//88
f 94//94 107//107 119//119
f 116//116 119//119 120//120
f 116//116 94//94 119//119
f 99//99 121//121 109//109
f 99//99 100//100 121//121
f 103//103 109//109 122//122
f 104//104 112//112 123//123
f 107//107 106//106 124//124
f 89//89 125//125 102//102
f 116//116 120//120 108//108
f 109//109 121//121 126//126
f 103//103 127//127 101//101
f 103//103 122//122 127//127
f 100//100 104//104 123//123
f 117//117 110//110 128//128
f 128//128 110//110 101//101
f 92//92 129//129 112//112
f 111//111 117//117 130//130
f 89//89 108//108 125//125
f 109//109 126//126 122//122
f 100//100 131//131 121//121
f 100//100 123//123 131//131
f 128//128 101//101 127//127
f 112//112 129//129 123//123
f 111//111 130//130 132//132
f 111//111 132//132 105//105
f 92//92 113//113 133//133
f 108//108 120//120 134//134
f 135//135 121//121 131//131
f 121//121 135//135 126//126
f 117//117 128//128 130//130
f 129//129 92//92 133//133
f 136//136 105//105 132//132
f 136//136 106//106 105//105
f 113//113 118//118 133//133
f 114//114 115//115 137//137
f 115//115 138//138 137//137
f 137//137 118//118 114//114
f 125//125 139//139 140//140
f 138//138 115//115 102//102
f 107//107 124//124 119//119
f 119//119 141//141 120//120
f 125//125 108//108 134//134
f 131//131 142//142 135//135
f 143//143 131//131 123//123
f 129//129 143//143 123//123
f 133//133 118//118 137//137
f 144//144 124//124 106//106
f 140//140 138//138 102//102
f 140//140 102//102 125//125
f 126//126 145//145 122//122
f 126//126 146//146 145//145
f 135//135 146//146 126//126
f 128//128 127//127 147//147
f 122//122 148//148 127//127
f 147//147 130//130 128//128
f 143//143 129//129 149//149
f 130//130 150//150 132//132
f 129//129 133//133 149//149
f 149//149 133//133 151//151
f 133//133 137//137 151//151
f 106//106 136//136 144//144
f 119//119 124//124 152//152
f 119//119 152//152 141//141
f 120//120 141//141 134//134
f 135//135 142//142 146//146
f 131//131 153//153 142//142
f 131//131 143//143 153//153
f 127//127 154//154 147//147
f 127//127 148//148 154//154
f 122//122 145//145 148//148
f 130//130 147//147 150//150
f 150//150 136//136 132//132
f 140//140 155//155 138//138
f 138//138 155//155 137//137
f 139//139 156//156 140//140
f 144//144 152//152 124//124
f 125//125 157//157 139//139
f 157//157 125//125 134//134
f 145//145 146//146 158//158
f 158//158 146//146 159//159
f 146//146 142//142 153//153
f 159//159 146//146 153//153
f 148//148 160//160 154//154
f 148//148 145//145 160//160
f 153//153 161//161 159//159
f 153//153 143//143 162//162
f 143//143 149//149 162//162
f 151//151 162//162 149//149
f 150//150 163//163 136//136
f 151//151 137//137 155//155
f 164//164 140//140 156//156
f 139//139 157//157 156//156
f 160//160 145//145 158//158
f 165//165 158//158 161//161
f 158//158 159//159 161//161
f 150//150 147//147 166//166
f 154//154 166//166 147//147
f 160//160 167//167 154//154
f 153//153 168//168 161//161
f 153//153 162//162 168//168
f 166//166 163//163 150//150
f 161//161 169//169 165//165
f 162//162 170//170 168//168
f 168//168 170//170 161//161
f 170//170 169//169 161//161
f 162//162 151//151 170//170
f 155//155 171//171 169//169
f 170//170 155//155 169//169
f 151//151 155//155 170//170
f 163//163 172//172 136//136
f 155//155 140//140 171//171
f 136//136 172//172 144//144
f 156//156 173//173 164//164
f 140//140 164//164 171//171
f 156//156 157//157 173//173
f 144//144 174//174 152//152
f 141//141 152//152 175//175
f 152//152 176//176 175//175
f 134//134 141//141 175//175
f 134//134 175//175 173//173
f 157//157 134//134 173//173
f 154//154 167//167 166//166
f 167//167 160//160 177//177
f 160//160 158//158 177//177
f 177//177 158//158 165//165
f 178//178 179//179 177//177
f 165//165 178//178 177//177
f 169//169 178//178 165//165
f 169//169 171//171 178//178
f 164//164 180//180 179//179
f 178//178 164//164 179//179
f 171//171 164//164 178//178
f 164//164 173//173 180//180
f 172//172 174//174 144//144
f 152//152 174//174 176//176
f 166//166 167//167 181//181
f 167//167 177//177 181//181
f 166//166 182//182 163//163
f 182//182 166//166 181//181
f 177//177 183//183 181//181
f 179//179 183//183 177//177
f 163//163 182//182 172//172
f 172//172 182//182 174//174
f 179//179 180//180 183//183
f 180//180 184//184 183//183
f 185//185 184//184 175//175
f 180//180 173//173 184//184
f 185//185 176//176 174//174
f 175//175 176//176 185//185
f 173//173 175//175 184//184
f 181//181 186//186 182//182
f 181//181 183//183 186//186
f 186//186 174//174 182//182
f 185//185 174//174 186//186
f 183//183 184//184 186//186
f 184//184 185//185 186//186
