# Blender v2.92.0 OBJ File: 'convert_to_one_sided.blend'
# www.blender.org
mtllib 1066L.mtl
o Cube
v 0.001000 0.001000 -0.001000
v 0.001000 -0.001000 -0.001000
v 0.001000 0.001000 0.001000
v 0.001000 -0.001000 0.001000
v -0.001000 0.001000 -0.001000
v -0.001000 -0.001000 -0.001000
v -0.001000 0.001000 0.001000
v -0.001000 -0.001000 0.001000
vt 0.625000 0.500000
vt 0.875000 0.500000
vt 0.875000 0.750000
vt 0.625000 0.750000
vt 0.375000 0.750000
vt 0.625000 1.000000
vt 0.375000 1.000000
vt 0.375000 0.000000
vt 0.625000 0.000000
vt 0.625000 0.250000
vt 0.375000 0.250000
vt 0.125000 0.500000
vt 0.375000 0.500000
vt 0.125000 0.750000
vn 0.0000 1.0000 0.0000
vn 0.0000 0.0000 1.0000
vn -1.0000 0.0000 0.0000
vn 0.0000 -1.0000 0.0000
vn 1.0000 0.0000 0.0000
vn 0.0000 0.0000 -1.0000
usemtl Material
s off
f 1/1/1 5/2/1 7/3/1 3/4/1
f 4/5/2 3/4/2 7/6/2 8/7/2
f 8/8/3 7/9/3 5/10/3 6/11/3
f 6/12/4 2/13/4 4/5/4 8/14/4
f 2/13/5 1/1/5 3/4/5 4/5/5
f 6/11/6 5/10/6 1/1/6 2/13/6
o 1066
v 7.736500 0.632724 3.409856
v 7.739960 0.655388 3.396096
v 7.756050 0.629215 3.441336
v 7.739660 0.686417 3.408726
v 7.745980 0.678347 3.413306
v 7.740320 0.606394 3.443816
v 7.693341 0.640800 3.470415
v 7.782270 0.673017 3.492515
v 7.745250 0.722274 3.440786
v 7.736970 0.726425 3.430036
v 7.726780 0.588060 3.471445
v 7.705481 0.600399 3.475345
v 7.792970 0.610253 3.534854
v 7.708791 0.711823 3.474785
v 7.733790 0.741344 3.470186
v 7.778960 0.722482 3.522315
v 7.675081 0.565588 3.538364
v 7.752680 0.575184 3.515965
v 7.629022 0.657787 3.580184
v 7.654312 0.711949 3.567664
v 7.695031 0.739526 3.545355
v 7.766570 0.736060 3.534675
v 7.713961 0.528037 3.618113
v 7.668411 0.592237 3.521975
v 7.739160 0.744326 3.564924
v 7.625832 0.594014 3.579304
v 7.829959 0.588793 3.636683
v 7.636802 0.566061 3.576904
v 7.799570 0.563426 3.598644
v 7.837919 0.633907 3.656403
v 7.822899 0.679803 3.633963
v 7.699171 0.747159 3.593374
v 7.614542 0.529170 3.658003
v 7.777580 0.530969 3.627303
v 7.585083 0.687887 3.678373
v 7.805749 0.707590 3.621703
v 7.666841 0.738273 3.612384
v 7.793080 0.715150 3.674113
v 7.716861 0.731970 3.671373
v 7.792420 0.494159 3.721192
v 7.557143 0.586737 3.680973
v 7.628542 0.721533 3.651553
v 7.579432 0.553292 3.665613
v 7.600692 0.492681 3.751452
v 7.822289 0.511530 3.714272
v 7.527613 0.633700 3.740682
v 7.882218 0.610269 3.778201
v 7.657611 0.732134 3.657513
v 7.684301 0.484489 3.768891
v 7.535973 0.503311 3.762532
v 7.542503 0.524404 3.729132
v 7.518064 0.541508 3.745582
v 7.865718 0.511209 3.777461
v 7.847039 0.671814 3.745462
v 7.607212 0.720661 3.721602
v 7.886698 0.549055 3.790261
v 7.847179 0.675676 3.821811
v 7.651102 0.717498 3.757072
v 7.733320 0.686960 3.840141
v 7.511273 0.670461 3.793151
v 7.550003 0.697045 3.776772
v 7.847259 0.471830 3.825451
v 7.875539 0.657226 3.835281
v 7.574282 0.704837 3.808991
v 7.489484 0.514708 3.800551
v 7.478114 0.490343 3.851531
v 7.460484 0.565348 3.832870
v 7.742001 0.465156 3.833441
v 7.453234 0.631985 3.868820
v 7.585862 0.681176 3.911770
v 7.549463 0.453086 3.935919
v 7.435034 0.513959 3.881000
v 7.905908 0.615323 3.875900
v 7.456264 0.663755 3.905530
v 7.893738 0.639615 3.906310
v 7.905258 0.448316 3.939029
v 7.937598 0.474144 3.945909
v 7.498114 0.677077 3.912750
v 7.766850 0.444204 3.934469
v 7.390195 0.488299 3.950519
v 7.939778 0.540177 3.925429
v 7.433944 0.472836 3.943489
v 7.370275 0.527182 3.963249
v 7.361896 0.579297 3.981729
v 7.942907 0.600337 3.983559
v 7.969657 0.558181 4.008049
v 7.367955 0.623824 4.001739
v 7.832069 0.642356 3.958689
v 7.692021 0.646033 4.010058
v 7.683361 0.424952 4.026228
v 7.982717 0.473292 4.026698
v 8.016947 0.490760 4.094327
v 7.922988 0.609040 4.026008
v 7.356425 0.641679 4.046048
v 7.412164 0.656211 3.999178
v 7.377075 0.464962 4.014458
v 7.318456 0.492560 4.041968
v 7.991227 0.562343 4.075538
v 7.838409 0.420328 4.039908
v 7.960788 0.420452 4.083097
v 7.355505 0.438890 4.097167
v 7.850909 0.598412 4.114337
v 7.509943 0.423921 4.102307
v 7.994307 0.441291 4.075938
v 7.266766 0.524151 4.108327
v 7.258866 0.579519 4.145687
v 7.296236 0.614578 4.114967
v 7.473314 0.645303 4.066748
v 7.694511 0.408092 4.129797
v 7.292746 0.462609 4.105497
v 7.246246 0.477349 4.146567
v 8.023877 0.443994 4.121637
v 8.015817 0.532295 4.111957
v 7.985387 0.570371 4.100457
v 7.963987 0.570713 4.142406
v 7.361265 0.640291 4.087167
v 7.236847 0.455680 4.174067
v 8.024257 0.535476 4.150177
v 7.278886 0.619337 4.168366
v 7.325635 0.627630 4.174246
v 7.861939 0.399618 4.153516
v 7.522683 0.409476 4.200966
v 8.026627 0.420771 4.161407
v 7.235307 0.596402 4.205776
v 7.617612 0.603357 4.181616
v 7.736021 0.399439 4.204226
v 7.336276 0.424240 4.210475
v 7.259487 0.446277 4.183386
v 8.046886 0.449211 4.185396
v 7.207037 0.460646 4.219285
v 7.984317 0.402920 4.197266
v 7.203177 0.485129 4.212076
v 8.042606 0.494220 4.188216
v 7.398745 0.608652 4.231705
v 7.882829 0.395334 4.211136
v 7.188968 0.520132 4.248135
v 8.015757 0.530176 4.190246
v 7.944098 0.554030 4.196786
v 7.642861 0.576482 4.253225
v 7.764870 0.558971 4.235225
v 7.283546 0.610344 4.239366
v 7.932568 0.398209 4.229506
v 8.039516 0.433542 4.221636
v 7.197517 0.567810 4.265725
v 7.570323 0.411357 4.249055
v 7.799890 0.405652 4.245275
v 7.215547 0.446933 4.254995
v 7.398635 0.419941 4.251795
v 8.050676 0.460436 4.224186
v 7.187528 0.476723 4.265885
v 8.036487 0.483359 4.236065
v 7.226557 0.591268 4.269685
v 7.945878 0.422477 4.247645
v 7.283317 0.436509 4.277365
v 7.917968 0.513086 4.245935
v 7.585052 0.570324 4.274195
v 7.537873 0.585795 4.252165
v 7.655741 0.427521 4.278005
v 7.815350 0.422900 4.262605
v 7.432634 0.432745 4.280955
v 7.847839 0.444669 4.278065
v 8.018657 0.452975 4.245636
v 7.169707 0.501666 4.302255
v 7.587712 0.543681 4.293105
v 7.674961 0.462686 4.293165
v 7.202337 0.470952 4.297925
v 7.309796 0.453425 4.301785
v 7.959018 0.445639 4.262895
v 7.810790 0.484411 4.283895
v 7.933898 0.466425 4.257035
v 7.734941 0.519458 4.273075
v 7.177648 0.530530 4.300035
v 7.441794 0.574476 4.293685
v 7.192477 0.557537 4.311395
v 7.287877 0.588615 4.293575
v 7.224847 0.576961 4.305315
v 7.457244 0.473890 4.307734
v 7.625202 0.498721 4.294205
v 7.488584 0.523589 4.311335
v 7.429304 0.547945 4.316774
v 7.273627 0.493156 4.323905
v 7.198088 0.514696 4.308605
v 7.356986 0.524346 4.326444
v 7.318806 0.558688 4.320944
v 7.241757 0.565853 4.313924
v 7.262186 0.538310 4.315324
vn -0.2665 -0.5204 -0.8113
vn 0.4175 -0.0916 -0.9041
vn 0.7726 -0.3939 -0.4979
vn -0.2923 0.3327 -0.8966
vn 0.7543 0.2293 -0.6152
vn 0.4008 -0.7268 -0.5579
vn -0.8075 -0.0511 -0.5877
vn 0.9282 0.0911 -0.3608
vn 0.6379 0.5976 -0.4857
vn -0.1871 0.7442 -0.6413
vn -0.1104 -0.8494 -0.5161
vn -0.6126 -0.5103 -0.6035
vn 0.8816 -0.2643 -0.3909
vn -0.7654 0.4486 -0.4614
vn -0.0565 0.9638 -0.2607
vn 0.8252 0.5112 -0.2401
vn -0.4247 -0.7419 -0.5189
vn 0.4119 -0.8092 -0.4190
vn -0.8403 0.1943 -0.5061
vn -0.7446 0.5439 -0.3870
vn -0.4401 0.8667 -0.2349
vn 0.5121 0.8533 -0.0984
vn -0.0209 -0.9327 -0.3600
vn -0.7055 -0.3768 -0.6002
vn 0.1353 0.9907 0.0160
vn -0.8126 -0.1618 -0.5600
vn 0.8994 -0.2162 -0.3798
vn -0.6638 -0.5112 -0.5460
vn 0.6897 -0.5860 -0.4253
vn 0.9446 0.0590 -0.3228
vn 0.9160 0.3322 -0.2251
vn -0.0987 0.9948 0.0234
vn -0.3911 -0.7908 -0.4708
vn 0.3385 -0.8470 -0.4099
vn -0.7632 0.5166 -0.3882
vn 0.7373 0.6718 -0.0715
vn -0.3676 0.9288 -0.0466
vn 0.4017 0.9103 0.1002
vn 0.1009 0.9771 0.1872
vn 0.1452 -0.9335 -0.3278
vn -0.8282 -0.0441 -0.5586
vn -0.5433 0.8203 -0.1785
vn -0.7039 -0.4195 -0.5732
vn -0.1515 -0.9400 -0.3057
vn 0.4911 -0.7723 -0.4030
vn -0.8374 0.2370 -0.4924
vn 0.9368 0.2106 -0.2795
vn -0.1804 0.9797 0.0871
vn -0.0427 -0.9651 -0.2583
vn -0.4221 -0.7897 -0.4452
vn -0.6018 -0.5634 -0.5661
vn -0.7746 -0.2665 -0.5736
vn 0.7025 -0.5734 -0.4216
vn 0.7822 0.6121 -0.1160
vn -0.2589 0.9656 0.0228
vn 0.9132 -0.1440 -0.3812
vn 0.3965 0.9106 0.1169
vn 0.0048 0.9810 0.1940
vn 0.1278 0.9615 0.2435
vn -0.7527 0.5388 -0.3783
vn -0.5018 0.8544 -0.1350
vn 0.2749 -0.9071 -0.3187
vn 0.7186 0.6928 -0.0601
vn -0.1651 0.9775 0.1315
vn -0.7121 -0.4661 -0.5251
vn -0.4220 -0.8158 -0.3953
vn -0.8367 0.0029 -0.5476
vn -0.0052 -0.9737 -0.2277
vn -0.8070 0.3596 -0.4684
vn 0.0217 0.9709 0.2385
vn -0.1156 -0.9636 -0.2409
vn -0.7492 -0.3456 -0.5650
vn 0.8792 0.4244 -0.2164
vn -0.5667 0.7891 -0.2370
vn 0.5568 0.8285 0.0598
vn 0.3334 -0.8830 -0.3302
vn 0.7541 -0.4913 -0.4359
vn -0.1892 0.9776 0.0927
vn 0.0089 -0.9748 -0.2227
vn -0.6164 -0.5992 -0.5109
vn 0.9234 0.0247 -0.3830
vn -0.2888 -0.9018 -0.3214
vn -0.8029 -0.1134 -0.5852
vn -0.8173 0.2080 -0.5373
vn 0.7316 0.6723 -0.1131
vn 0.8996 0.2941 -0.3228
vn -0.7501 0.4896 -0.4445
vn 0.1770 0.9545 0.2400
vn 0.0933 0.9597 0.2651
vn -0.0412 -0.9805 -0.1919
vn 0.8511 -0.2548 -0.4589
vn 0.9355 0.0449 -0.3504
vn 0.3369 0.9274 0.1626
vn -0.4912 0.8512 -0.1849
vn -0.1930 0.9802 0.0444
vn -0.3855 -0.8376 -0.3871
vn -0.7148 -0.4252 -0.5553
vn 0.8197 0.5400 -0.1914
vn 0.0263 -0.9788 -0.2029
vn 0.2964 -0.9126 -0.2815
vn -0.2315 -0.9368 -0.2623
vn 0.1357 0.9413 0.3092
vn -0.0789 -0.9842 -0.1584
vn 0.6445 -0.6330 -0.4288
vn -0.8396 0.0369 -0.5420
vn -0.8267 0.3341 -0.4527
vn -0.7004 0.6196 -0.3543
vn 0.0176 0.9765 0.2150
vn -0.0414 -0.9902 -0.1337
vn -0.4948 -0.7385 -0.4580
vn -0.7679 -0.3365 -0.5451
vn 0.8552 -0.3424 -0.3891
vn 0.9210 0.2867 -0.2639
vn 0.5562 0.8269 0.0830
vn 0.2990 0.9125 0.2791
vn -0.1432 0.9861 0.0841
vn -0.5669 -0.7140 -0.4109
vn 0.8065 0.5912 -0.0022
vn -0.3788 0.9253 -0.0206
vn -0.0645 0.9831 0.1715
vn 0.0258 -0.9912 -0.1302
vn -0.0614 -0.9978 -0.0229
vn 0.6345 -0.7450 -0.2056
vn -0.7025 0.6746 -0.2268
vn 0.1081 0.9446 0.3101
vn -0.0352 -0.9983 0.0466
vn -0.1452 -0.9879 -0.0547
vn -0.3305 -0.9164 -0.2259
vn 0.9630 -0.2212 -0.1540
vn -0.7250 -0.6156 -0.3088
vn 0.2569 -0.9600 0.1118
vn -0.8950 -0.1412 -0.4231
vn 0.9453 0.3262 0.0072
vn 0.0677 0.9375 0.3414
vn 0.0133 -0.9973 0.0729
vn -0.9369 0.1207 -0.3280
vn 0.5174 0.7562 0.4006
vn 0.2129 0.8345 0.5082
vn 0.1366 0.8795 0.4558
vn 0.1715 0.7717 0.6124
vn -0.1027 0.9592 0.2633
vn 0.1524 -0.8917 0.4263
vn 0.6354 -0.6669 0.3893
vn -0.8424 0.5257 -0.1183
vn -0.0297 -0.9466 0.3211
vn 0.0115 -0.8758 0.4825
vn -0.4480 -0.8930 0.0430
vn -0.0660 -0.9732 0.2204
vn 0.9117 -0.0551 0.4072
vn -0.8798 -0.4680 -0.0826
vn 0.5423 0.4116 0.7324
vn -0.4081 0.8897 0.2047
vn 0.2104 -0.6687 0.7132
vn -0.1392 -0.9131 0.3833
vn 0.2050 0.5663 0.7983
vn 0.1407 0.7401 0.6576
vn 0.0853 0.9055 0.4157
vn 0.0218 -0.6484 0.7610
vn 0.0671 -0.6788 0.7312
vn -0.0127 -0.7819 0.6233
vn 0.1108 -0.2868 0.9515
vn 0.4118 -0.1702 0.8952
vn -0.8930 -0.2081 0.3990
vn 0.1668 0.4237 0.8903
vn 0.0583 -0.1641 0.9847
vn -0.3953 -0.6533 0.6458
vn -0.0496 -0.6364 0.7698
vn 0.2116 -0.1177 0.9702
vn 0.1427 0.2230 0.9643
vn 0.1954 0.2567 0.9465
vn 0.1471 0.4824 0.8635
vn -0.9058 0.2525 0.3401
vn 0.0966 0.7533 0.6505
vn -0.5085 0.4462 0.7364
vn -0.0061 0.8295 0.5585
vn -0.1918 0.7648 0.6151
vn 0.0579 -0.3147 0.9474
vn 0.1056 0.1241 0.9866
vn 0.1277 0.0300 0.9914
vn 0.1123 0.3488 0.9304
vn -0.0992 -0.2243 0.9694
vn -0.3397 -0.0616 0.9385
vn 0.0248 0.0268 0.9993
vn 0.0025 0.4069 0.9135
vn -0.0741 0.3991 0.9139
vn -0.1144 0.0727 0.9908
usemtl mtl1.081
s 1
f 9//7 10//8 11//9
f 12//10 13//11 10//8
f 9//7 11//9 14//12
f 10//8 9//7 12//10
f 11//9 10//8 13//11
f 12//10 9//7 15//13
f 16//14 11//9 13//11
f 12//10 17//15 13//11
f 18//16 17//15 12//10
f 9//7 19//17 20//18
f 19//17 9//7 14//12
f 9//7 20//18 15//13
f 11//9 16//14 21//19
f 12//10 15//13 22//20
f 12//10 22//20 18//16
f 13//11 17//15 16//14
f 23//21 17//15 18//16
f 16//14 17//15 24//22
f 18//16 22//20 23//21
f 19//17 25//23 20//18
f 19//17 14//12 26//24
f 11//9 26//24 14//12
f 15//13 27//25 22//20
f 28//26 29//27 22//20
f 22//20 29//27 23//21
f 17//15 23//21 30//28
f 30//28 24//22 17//15
f 19//17 31//29 25//23
f 19//17 26//24 31//29
f 25//23 32//30 20//18
f 20//18 32//30 15//13
f 28//26 22//20 27//25
f 30//28 23//21 33//31
f 32//30 34//32 15//13
f 34//32 27//25 15//13
f 16//14 35//33 21//19
f 23//21 29//27 33//31
f 25//23 36//34 32//30
f 37//35 11//9 21//19
f 35//33 16//14 38//36
f 16//14 24//22 39//37
f 29//27 40//38 33//31
f 36//34 25//23 41//39
f 26//24 42//40 31//29
f 26//24 11//9 37//35
f 32//30 36//34 34//32
f 37//35 21//19 35//33
f 27//25 43//41 28//26
f 38//36 16//14 39//37
f 39//37 24//22 44//42
f 29//27 45//43 40//38
f 30//28 33//31 46//44
f 44//42 24//22 30//28
f 46//44 44//42 30//28
f 33//31 40//38 47//45
f 31//29 42//40 48//46
f 31//29 41//39 25//23
f 42//40 26//24 37//35
f 34//32 49//47 27//25
f 43//41 50//48 28//26
f 29//27 28//26 50//48
f 50//48 45//43 29//27
f 36//34 41//39 51//49
f 36//34 51//49 34//32
f 51//49 49//47 34//32
f 33//31 47//45 46//44
f 31//29 52//50 41//39
f 42//40 53//51 48//46
f 49//47 54//52 27//25
f 38//36 39//37 55//53
f 56//54 45//43 50//48
f 45//43 56//54 40//38
f 31//29 48//46 57//55
f 41//39 52//50 58//56
f 41//39 59//57 51//49
f 42//40 37//35 53//51
f 49//47 51//49 60//58
f 54//52 43//41 27//25
f 31//29 57//55 52//50
f 51//49 59//57 60//58
f 53//51 37//35 61//59
f 61//59 37//35 35//33
f 62//60 39//37 44//42
f 46//44 62//60 44//42
f 50//48 63//61 56//54
f 47//45 40//38 56//54
f 59//57 41//39 58//56
f 35//33 38//36 64//62
f 38//36 55//53 64//62
f 39//37 62//60 55//53
f 65//63 62//60 46//44
f 56//54 66//64 47//45
f 47//45 67//65 46//44
f 61//59 35//33 64//62
f 54//52 68//66 43//41
f 50//48 69//67 63//61
f 50//48 43//41 69//67
f 56//54 63//61 66//64
f 47//45 66//64 67//65
f 48//46 53//51 70//68
f 53//51 61//59 70//68
f 68//66 69//67 43//41
f 62//60 65//63 71//69
f 72//70 63//61 69//67
f 63//61 72//70 66//64
f 59//57 58//56 73//71
f 58//56 52//50 74//72
f 59//57 73//71 60//58
f 60//58 73//71 75//73
f 49//47 60//58 75//73
f 49//47 75//73 54//52
f 46//44 67//65 65//63
f 48//46 76//74 57//55
f 73//71 58//56 74//72
f 68//66 54//52 77//75
f 72//70 78//76 66//64
f 78//76 67//65 66//64
f 52//50 79//77 74//72
f 57//55 79//77 52//50
f 57//55 76//74 79//77
f 48//46 70//68 76//74
f 80//78 75//73 73//71
f 75//73 77//75 54//52
f 55//53 62//60 81//79
f 68//66 82//80 69//67
f 83//81 71//69 65//63
f 74//72 80//78 73//71
f 70//68 61//59 84//82
f 61//59 64//62 85//83
f 62//60 71//69 81//79
f 68//66 77//75 82//80
f 69//67 86//84 72//70
f 76//74 70//68 87//85
f 87//85 70//68 84//82
f 74//72 88//86 80//78
f 84//82 61//59 85//83
f 64//62 89//87 85//83
f 64//62 55//53 89//87
f 69//67 82//80 86//84
f 74//72 90//88 88//86
f 75//73 80//78 91//89
f 92//90 77//75 75//73
f 55//53 81//79 89//87
f 93//91 94//92 81//79
f 81//79 71//69 83//81
f 81//79 83//81 93//91
f 82//80 77//75 95//93
f 72//70 86//84 78//76
f 76//74 87//85 79//77
f 88//86 91//89 80//78
f 89//87 81//79 94//92
f 95//93 77//75 92//90
f 67//65 96//94 65//63
f 65//63 96//94 83//81
f 67//65 78//76 97//95
f 87//85 98//96 79//77
f 74//72 79//77 90//88
f 99//97 89//87 100//98
f 91//89 92//90 75//73
f 100//98 89//87 94//92
f 93//91 83//81 101//99
f 102//100 82//80 95//93
f 103//101 82//80 102//100
f 82//80 103//101 86//84
f 90//88 79//77 104//102
f 88//86 90//88 104//102
f 91//89 88//86 105//103
f 94//92 93//91 106//104
f 96//94 101//99 83//81
f 67//65 97//95 96//94
f 84//82 107//105 87//85
f 84//82 108//106 107//105
f 104//102 79//77 109//107
f 85//83 108//106 84//82
f 88//86 104//102 105//103
f 85//83 89//87 99//97
f 96//94 110//108 101//99
f 111//109 79//77 98//96
f 87//85 107//105 98//96
f 79//77 111//109 109//107
f 108//106 85//83 112//110
f 85//83 99//97 112//110
f 113//111 91//89 105//103
f 91//89 113//111 92//90
f 92//90 114//112 95//93
f 95//93 115//113 102//100
f 103//101 116//114 86//84
f 86//84 116//114 78//76
f 98//96 107//105 117//115
f 105//103 104//102 118//116
f 119//117 105//103 118//116
f 120//118 99//97 100//98
f 105//103 119//117 113//111
f 121//119 94//92 106//104
f 113//111 114//112 92//90
f 106//104 93//91 122//120
f 115//113 95//93 114//112
f 110//108 123//121 101//99
f 101//99 123//121 122//120
f 122//120 93//91 101//99
f 102//100 124//122 103//101
f 100//98 94//92 121//119
f 103//101 124//122 116//114
f 97//95 78//76 116//114
f 98//96 117//115 111//109
f 104//102 109//107 118//116
f 112//110 99//97 120//118
f 119//117 118//116 125//123
f 121//119 106//104 126//124
f 126//124 106//104 122//120
f 97//95 110//108 96//94
f 102//100 115//113 127//125
f 124//122 127//125 128//126
f 124//122 102//100 127//125
f 107//105 129//127 117//115
f 107//105 108//106 129//127
f 111//109 117//115 130//128
f 112//110 120//118 131//129
f 115//113 114//112 132//130
f 97//95 133//131 110//108
f 124//122 128//126 116//114
f 117//115 129//127 134//132
f 111//109 135//133 109//107
f 111//109 130//128 135//133
f 108//106 112//110 131//129
f 125//123 118//116 136//134
f 136//134 118//116 109//107
f 100//98 137//135 120//118
f 119//117 125//123 138//136
f 97//95 116//114 133//131
f 117//115 134//132 130//128
f 108//106 139//137 129//127
f 108//106 131//129 139//137
f 136//134 109//107 135//133
f 120//118 137//135 131//129
f 119//117 138//136 140//138
f 119//117 140//138 113//111
f 100//98 121//119 141//139
f 116//114 128//126 142//140
f 143//141 129//127 139//137
f 129//127 143//141 134//132
f 125//123 136//134 138//136
f 137//135 100//98 141//139
f 144//142 113//111 140//138
f 144//142 114//112 113//111
f 121//119 126//124 141//139
f 122//120 123//121 145//143
f 123//121 146//144 145//143
f 145//143 126//124 122//120
f 133//131 147//145 148//146
f 146//144 123//121 110//108
f 115//113 132//130 127//125
f 127//125 149//147 128//126
f 133//131 116//114 142//140
f 139//137 150//148 143//141
f 151//149 139//137 131//129
f 137//135 151//149 131//129
f 141//139 126//124 145//143
f 152//150 132//130 114//112
f 148//146 146//144 110//108
f 148//146 110//108 133//131
f 134//132 153//151 130//128
f 134//132 154//152 153//151
f 143//141 154//152 134//132
f 136//134 135//133 155//153
f 130//128 156//154 135//133
f 155//153 138//136 136//134
f 151//149 137//135 157//155
f 138//136 158//156 140//138
f 137//135 141//139 157//155
f 157//155 141//139 159//157
f 141//139 145//143 159//157
f 114//112 144//142 152//150
f 127//125 132//130 160//158
f 127//125 160//158 149//147
f 128//126 149//147 142//140
f 143//141 150//148 154//152
f 139//137 161//159 150//148
f 139//137 151//149 161//159
f 135//133 162//160 155//153
f 135//133 156//154 162//160
f 130//128 153//151 156//154
f 138//136 155//153 158//156
f 158//156 144//142 140//138
f 148//146 163//161 146//144
f 146//144 163//161 145//143
f 147//145 164//162 148//146
f 152//150 160//158 132//130
f 133//131 165//163 147//145
f 165//163 133//131 142//140
f 153//151 154//152 166//164
f 166//164 154//152 167//165
f 154//152 150//148 161//159
f 167//165 154//152 161//159
f 156//154 168//166 162//160
f 156//154 153//151 168//166
f 161//159 169//167 167//165
f 161//159 151//149 170//168
f 151//149 157//155 170//168
f 159//157 170//168 157//155
f 158//156 171//169 144//142
f 159//157 145//143 163//161
f 172//170 148//146 164//162
f 147//145 165//163 164//162
f 168//166 153//151 166//164
f 173//171 166//164 169//167
f 166//164 167//165 169//167
f 158//156 155//153 174//172
f 162//160 174//172 155//153
f 168//166 175//173 162//160
f 161//159 176//174 169//167
f 161//159 170//168 176//174
f 174//172 171//169 158//156
f 169//167 177//175 173//171
f 170//168 178//176 176//174
f 176//174 178//176 169//167
f 178//176 177//175 169//167
f 170//168 159//157 178//176
f 163//161 179//177 177//175
f 178//176 163//161 177//175
f 159//157 163//161 178//176
f 171//169 180//178 144//142
f 163//161 148//146 179//177
f 144//142 180//178 152//150
f 164//162 181//179 172//170
f 148//146 172//170 179//177
f 164//162 165//163 181//179
f 152//150 182//180 160//158
f 149//147 160//158 183//181
f 160//158 184//182 183//181
f 142//140 149//147 183//181
f 142//140 183//181 181//179
f 165//163 142//140 181//179
f 162//160 175//173 174//172
f 175//173 168//166 185//183
f 168//166 166//164 185//183
f 185//183 166//164 173//171
f 186//184 187//185 185//183
f 173//171 186//184 185//183
f 177//175 186//184 173//171
f 177//175 179//177 186//184
f 172//170 188//186 187//185
f 186//184 172//170 187//185
f 179//177 172//170 186//184
f 172//170 181//179 188//186
f 180//178 182//180 152//150
f 160//158 182//180 184//182
f 174//172 175//173 189//187
f 175//173 185//183 189//187
f 174//172 190//188 171//169
f 190//188 174//172 189//187
f 185//183 191//189 189//187
f 187//185 191//189 185//183
f 171//169 190//188 180//178
f 180//178 190//188 182//180
f 187//185 188//186 191//189
f 188//186 192//190 191//189
f 193//191 192//190 183//181
f 188//186 181//179 192//190
f 193//191 184//182 182//180
f 183//181 184//182 193//191
f 181//179 183//181 192//190
f 189//187 194//192 190//188
f 189//187 191//189 194//192
f 194//192 182//180 190//188
f 193//191 182//180 194//192
f 191//189 192//190 194//192
f 192//190 193//191 194//192
