# Blender v2.92.0 OBJ File: 'convert_to_one_sided.blend'
# www.blender.org
mtllib 1069L.mtl
o 1069
v 11.102757 7.142337 4.783639
v 10.889860 7.116747 4.790750
v 11.021258 7.168737 4.788809
v 11.156756 7.192016 4.803279
v 10.777761 7.036268 4.808729
v 10.707862 7.050028 4.808719
v 10.977559 7.074418 4.808099
v 10.783261 7.115597 4.806949
v 11.166057 7.099597 4.827089
v 11.217655 7.148167 4.831909
v 10.892459 7.158186 4.806099
v 11.240955 7.195746 4.844799
v 11.028358 7.195696 4.810619
v 11.199955 7.214366 4.821809
v 11.140456 7.219086 4.828919
v 10.622563 6.970610 4.825889
v 10.585163 7.003629 4.830469
v 10.831861 7.008719 4.833709
v 10.687662 6.950880 4.845039
v 10.974559 7.009139 4.872698
v 11.119657 7.053928 4.861788
v 10.673263 7.073178 4.826319
v 10.579764 7.032688 4.847239
v 10.771861 7.133787 4.836329
v 10.914760 7.181087 4.831988
v 11.210855 7.221546 4.855108
v 10.567265 6.888111 4.865659
v 10.529464 6.921920 4.859639
v 10.506365 6.956120 4.862398
v 10.770862 6.942260 4.876228
v 10.527365 6.988879 4.859149
v 11.220256 7.062058 4.890128
v 11.259255 7.098917 4.901638
v 10.632263 7.070498 4.863159
v 11.269055 7.149197 4.892518
v 11.012058 7.208897 4.849218
v 10.501864 6.837431 4.929547
v 10.541964 6.825151 4.924168
v 10.644363 6.875111 4.914587
v 10.477765 6.894111 4.912728
v 10.480865 6.945070 4.909648
v 11.169557 7.033509 4.926357
v 10.545164 7.011009 4.884508
v 10.706263 7.110638 4.893088
v 10.863959 7.168457 4.870588
v 11.256655 7.204476 4.896478
v 11.115956 7.219446 4.896318
v 10.771961 6.917400 4.920098
v 10.899859 6.959789 4.911967
v 10.580164 7.034498 4.920098
v 11.273255 7.171797 4.914158
v 10.969059 7.195026 4.897038
v 11.216656 7.208886 4.923467
v 10.511865 6.792491 4.982007
v 10.448565 6.875500 4.975966
v 11.020457 6.988629 4.939447
v 10.851360 7.143847 4.939867
v 10.559963 6.806821 4.977247
v 10.462066 6.832601 5.001876
v 10.725362 6.888890 4.952367
v 10.853061 6.936110 4.955857
v 10.465365 6.910170 4.995617
v 10.514565 6.973539 4.940477
v 11.245055 7.062348 4.936317
v 10.646763 7.044549 4.967327
v 11.278755 7.131527 4.960297
v 11.252155 7.173727 4.966417
v 11.027759 7.186157 4.952377
v 10.620863 6.836581 4.992957
v 10.445965 6.860531 5.023776
v 10.538264 6.975029 4.976287
v 11.266255 7.086668 4.963657
v 11.148156 7.183027 4.980847
v 10.487865 6.798061 5.023046
v 10.547463 6.791992 5.030086
v 10.451865 6.842051 5.037106
v 10.738262 6.899900 4.991787
v 10.965658 6.970019 4.978877
v 10.844061 6.936680 4.982167
v 11.116857 7.019709 4.982157
v 11.218856 7.063778 4.980837
v 10.758862 7.061118 5.011776
v 10.519865 6.793002 5.019996
v 10.981858 7.141237 4.997597
v 11.262755 7.141227 5.011196
v 10.610264 6.854911 5.045406
v 10.555164 6.807012 5.050646
v 10.848861 6.950369 5.002936
v 10.991359 7.007539 5.015086
v 10.568463 6.957739 5.025557
v 11.243955 7.113457 5.011287
v 11.216756 7.152467 5.022956
v 10.472566 6.817731 5.056026
v 10.735362 6.935979 5.027176
v 10.869061 6.996669 5.027307
v 10.992259 7.055188 5.042336
v 10.676863 6.977149 5.053076
v 11.128557 7.071288 5.023726
v 10.961959 7.081358 5.043206
v 11.101157 7.137677 5.022736
v 10.514765 6.803711 5.053996
v 10.483365 6.866460 5.047366
v 10.658063 6.930890 5.056596
v 10.788261 6.994169 5.042166
v 10.664763 6.939850 5.063116
v 11.230855 7.137417 5.026927
v 10.544464 6.824601 5.071656
v 10.592463 6.888870 5.071105
v 10.562963 6.900361 5.063176
v 11.067858 7.083158 5.044986
v 11.137456 7.111077 5.025666
v 10.529464 6.846171 5.058006
vn 0.1679 -0.1585 -0.9730
vn -0.0701 0.0243 -0.9972
vn -0.0648 0.4096 -0.9100
vn 0.1952 0.3592 -0.9126
vn 0.0542 -0.3637 -0.9300
vn -0.1629 0.0674 -0.9843
vn 0.1224 -0.5563 -0.8219
vn -0.2623 0.4767 -0.8390
vn 0.3543 -0.5484 -0.7574
vn 0.5642 -0.2094 -0.7986
vn -0.2156 0.6435 -0.7345
vn 0.7339 0.3202 -0.5990
vn -0.1210 0.7840 -0.6089
vn 0.3017 0.6952 -0.6524
vn -0.0386 0.9206 -0.3886
vn -0.0712 -0.2866 -0.9554
vn -0.3591 0.1636 -0.9189
vn 0.1683 -0.6146 -0.7707
vn 0.1664 -0.6030 -0.7802
vn 0.2297 -0.7859 -0.5742
vn 0.2027 -0.7822 -0.5891
vn -0.3821 0.5793 -0.7200
vn -0.5444 0.6716 -0.5026
vn -0.3681 0.8591 -0.3555
vn -0.2594 0.9088 -0.3269
vn 0.2649 0.9569 -0.1195
vn -0.0195 -0.5953 -0.8033
vn -0.3799 -0.3229 -0.8668
vn -0.6849 0.0714 -0.7251
vn 0.2330 -0.7594 -0.6075
vn -0.6880 0.5299 -0.4959
vn 0.4407 -0.7487 -0.4951
vn 0.7951 -0.4249 -0.4328
vn -0.5020 0.8470 -0.1748
vn 0.9089 -0.0982 -0.4053
vn -0.1849 0.9759 -0.1157
vn -0.5157 -0.6145 -0.5971
vn 0.0598 -0.8047 -0.5906
vn 0.3146 -0.8190 -0.4798
vn -0.7783 -0.2739 -0.5651
vn -0.8736 0.4545 -0.1740
vn 0.3055 -0.9384 -0.1617
vn -0.6556 0.7543 -0.0343
vn -0.3981 0.8999 0.1780
vn -0.3022 0.9510 0.0650
vn 0.6367 0.7699 0.0430
vn -0.0649 0.9783 0.1965
vn 0.3005 -0.8843 -0.3573
vn 0.2801 -0.8819 -0.3792
vn -0.5351 0.8085 0.2449
vn 0.9434 0.3294 -0.0393
vn -0.2247 0.9459 0.2340
vn 0.1727 0.9254 0.3373
vn -0.1587 -0.9396 -0.3033
vn -0.9854 -0.0218 -0.1686
vn 0.2930 -0.9393 -0.1784
vn -0.2841 0.8531 0.4377
vn 0.3114 -0.9159 -0.2534
vn -0.7988 -0.5597 -0.2205
vn 0.3634 -0.9201 -0.1459
vn 0.3113 -0.9492 -0.0454
vn -0.6998 0.6153 0.3629
vn -0.6534 0.7268 0.2115
vn 0.5893 -0.8065 -0.0483
vn -0.3837 0.7801 0.4942
vn 0.9883 -0.0358 0.1483
vn 0.5426 0.7314 0.4132
vn -0.1672 0.8685 0.4666
vn 0.5084 -0.8587 0.0644
vn -0.8625 0.2877 0.4164
vn -0.5054 0.7381 0.4469
vn 0.8118 -0.5346 0.2351
vn -0.0150 0.8340 0.5515
vn -0.5062 -0.8623 0.0151
vn 0.2450 -0.9541 0.1725
vn -0.9144 -0.1859 0.3595
vn 0.3900 -0.8394 0.3785
vn 0.2808 -0.9071 0.3137
vn 0.2980 -0.9026 0.3108
vn 0.3163 -0.8627 0.3946
vn 0.4129 -0.7830 0.4652
vn -0.2599 0.6906 0.6749
vn -0.0289 -0.9970 0.0712
vn -0.1736 0.7235 0.6681
vn 0.6962 0.2453 0.6746
vn 0.4821 -0.5422 0.6882
vn 0.4073 -0.7268 0.5530
vn 0.2443 -0.7076 0.6631
vn 0.2017 -0.6232 0.7556
vn -0.3863 0.6378 0.6663
vn 0.5041 -0.4138 0.7580
vn 0.1271 0.5732 0.8095
vn -0.5665 -0.4202 0.7089
vn 0.3100 -0.5224 0.7943
vn 0.1699 -0.5004 0.8489
vn 0.1064 -0.3586 0.9274
vn -0.1031 0.3340 0.9369
vn 0.2466 -0.4596 0.8532
vn -0.0469 0.3056 0.9510
vn -0.0635 0.5098 0.8579
vn -0.1520 -0.7302 0.6661
vn -0.4371 0.3397 0.8328
vn 0.3864 -0.4833 0.7856
vn 0.1867 -0.3060 0.9336
vn 0.2522 -0.2137 0.9438
vn 0.2459 -0.0160 0.9692
vn 0.0496 -0.3163 0.9474
vn 0.1096 -0.0888 0.9900
vn -0.2493 0.2993 0.9210
vn 0.1276 -0.0344 0.9912
vn 0.0875 0.0615 0.9943
vn -0.2557 0.0433 0.9658
usemtl mtl1.934
s 1
f 1//1 2//2 3//3
f 4//4 1//1 3//3
f 2//2 5//5 6//6
f 7//7 5//5 2//2
f 1//1 7//7 2//2
f 2//2 6//6 8//8
f 1//1 9//9 7//7
f 1//1 10//10 9//9
f 8//8 11//11 2//2
f 11//11 3//3 2//2
f 10//10 1//1 4//4
f 4//4 12//12 10//10
f 13//13 3//3 11//11
f 3//3 13//13 4//4
f 12//12 4//4 14//14
f 15//15 4//4 13//13
f 14//14 4//4 15//15
f 5//5 16//16 6//6
f 6//6 16//16 17//17
f 18//18 19//19 5//5
f 20//20 7//7 21//21
f 22//22 17//17 23//23
f 6//6 17//17 22//22
f 7//7 18//18 5//5
f 9//9 21//21 7//7
f 6//6 22//22 8//8
f 8//8 22//22 24//24
f 8//8 24//24 11//11
f 11//11 24//24 25//25
f 11//11 25//25 13//13
f 12//12 14//14 26//26
f 26//26 14//14 15//15
f 27//27 28//28 16//16
f 17//17 28//28 29//29
f 16//16 28//28 17//17
f 19//19 27//27 16//16
f 5//5 19//19 16//16
f 19//19 18//18 30//30
f 17//17 29//29 31//31
f 17//17 31//31 23//23
f 20//20 18//18 7//7
f 21//21 9//9 32//32
f 32//32 9//9 33//33
f 22//22 23//23 34//34
f 9//9 10//10 33//33
f 22//22 34//34 24//24
f 12//12 35//35 10//10
f 15//15 13//13 36//36
f 37//37 27//27 38//38
f 27//27 37//37 28//28
f 19//19 39//39 27//27
f 40//40 29//29 28//28
f 30//30 39//39 19//19
f 41//41 29//29 40//40
f 29//29 41//41 31//31
f 20//20 30//30 18//18
f 20//20 21//21 42//42
f 23//23 31//31 43//43
f 23//23 43//43 34//34
f 10//10 35//35 33//33
f 44//44 24//24 34//34
f 24//24 44//44 45//45
f 24//24 45//45 25//25
f 25//25 45//45 36//36
f 13//13 25//25 36//36
f 12//12 26//26 46//46
f 47//47 15//15 36//36
f 15//15 47//47 26//26
f 39//39 38//38 27//27
f 37//37 40//40 28//28
f 39//39 30//30 48//48
f 49//49 30//30 20//20
f 31//31 41//41 43//43
f 42//42 21//21 32//32
f 50//50 34//34 43//43
f 35//35 12//12 51//51
f 51//51 12//12 46//46
f 36//36 45//45 52//52
f 36//36 52//52 47//47
f 47//47 53//53 26//26
f 46//46 26//26 53//53
f 37//37 38//38 54//54
f 49//49 48//48 30//30
f 41//41 40//40 55//55
f 49//49 20//20 56//56
f 34//34 50//50 44//44
f 44//44 57//57 45//45
f 58//58 54//54 38//38
f 58//58 38//38 39//39
f 37//37 59//59 40//40
f 60//60 39//39 48//48
f 60//60 48//48 61//61
f 61//61 48//48 49//49
f 55//55 62//62 41//41
f 61//61 49//49 56//56
f 63//63 41//41 62//62
f 41//41 63//63 43//43
f 42//42 56//56 20//20
f 32//32 64//64 42//42
f 50//50 43//43 63//63
f 32//32 33//33 64//64
f 65//65 44//44 50//50
f 33//33 35//35 66//66
f 35//35 51//51 66//66
f 52//52 45//45 57//57
f 53//53 67//67 46//46
f 67//67 51//51 46//46
f 47//47 52//52 68//68
f 39//39 69//69 58//58
f 39//39 60//60 69//69
f 59//59 55//55 40//40
f 55//55 70//70 62//62
f 63//63 71//71 50//50
f 72//72 64//64 33//33
f 33//33 66//66 72//72
f 44//44 65//65 57//57
f 52//52 57//57 68//68
f 47//47 68//68 73//73
f 47//47 73//73 53//53
f 59//59 37//37 74//74
f 74//74 37//37 54//54
f 58//58 69//69 75//75
f 55//55 59//59 76//76
f 61//61 77//77 60//60
f 61//61 78//78 79//79
f 56//56 78//78 61//61
f 42//42 80//80 56//56
f 42//42 81//81 80//80
f 64//64 81//81 42//42
f 50//50 71//71 65//65
f 72//72 81//81 64//64
f 57//57 65//65 82//82
f 66//66 51//51 67//67
f 73//73 67//67 53//53
f 74//74 54//54 83//83
f 58//58 83//83 54//54
f 58//58 75//75 83//83
f 60//60 77//77 69//69
f 76//76 70//70 55//55
f 77//77 61//61 79//79
f 62//62 71//71 63//63
f 56//56 80//80 78//78
f 82//82 84//84 57//57
f 67//67 85//85 66//66
f 68//68 57//57 84//84
f 69//69 86//86 87//87
f 69//69 77//77 86//86
f 77//77 79//79 88//88
f 78//78 88//88 79//79
f 80//80 89//89 78//78
f 71//71 90//90 65//65
f 72//72 91//91 81//81
f 72//72 66//66 91//91
f 68//68 84//84 73//73
f 73//73 92//92 67//67
f 85//85 67//67 92//92
f 93//93 59//59 74//74
f 69//69 87//87 75//75
f 59//59 93//93 76//76
f 77//77 94//94 86//86
f 88//88 94//94 77//77
f 94//94 88//88 95//95
f 95//95 88//88 89//89
f 88//88 78//78 89//89
f 95//95 89//89 96//96
f 90//90 97//97 82//82
f 80//80 81//81 98//98
f 82//82 65//65 90//90
f 80//80 98//98 89//89
f 81//81 91//91 98//98
f 82//82 97//97 99//99
f 91//91 66//66 85//85
f 84//84 82//82 99//99
f 84//84 100//100 73//73
f 75//75 101//101 83//83
f 75//75 87//87 101//101
f 76//76 102//102 70//70
f 86//86 94//94 103//103
f 102//102 62//62 70//70
f 62//62 102//102 90//90
f 90//90 71//71 62//62
f 94//94 104//104 103//103
f 104//104 105//105 103//103
f 95//95 104//104 94//94
f 96//96 104//104 95//95
f 104//104 97//97 105//105
f 98//98 96//96 89//89
f 97//97 104//104 99//99
f 96//96 99//99 104//104
f 91//91 85//85 106//106
f 84//84 99//99 100//100
f 85//85 92//92 106//106
f 92//92 73//73 100//100
f 101//101 74//74 83//83
f 101//101 93//93 74//74
f 87//87 107//107 101//101
f 87//87 86//86 107//107
f 103//103 105//105 108//108
f 97//97 90//90 109//109
f 108//108 97//97 109//109
f 105//105 97//97 108//108
f 96//96 98//98 110//110
f 110//110 99//99 96//96
f 111//111 110//110 98//98
f 98//98 91//91 111//111
f 111//111 99//99 110//110
f 106//106 111//111 91//91
f 100//100 99//99 111//111
f 106//106 92//92 111//111
f 92//92 100//100 111//111
f 93//93 102//102 76//76
f 86//86 108//108 107//107
f 86//86 103//103 108//108
f 90//90 102//102 109//109
f 101//101 112//112 93//93
f 112//112 101//101 107//107
f 107//107 108//108 112//112
f 112//112 102//102 93//93
f 109//109 102//102 112//112
f 108//108 109//109 112//112
