# Blender v2.92.0 OBJ File: 'convert_to_one_sided.blend'
# www.blender.org
mtllib 106L.mtl
o Cube
v 0.001000 0.001000 -0.001000
v 0.001000 -0.001000 -0.001000
v 0.001000 0.001000 0.001000
v 0.001000 -0.001000 0.001000
v -0.001000 0.001000 -0.001000
v -0.001000 -0.001000 -0.001000
v -0.001000 0.001000 0.001000
v -0.001000 -0.001000 0.001000
vt 0.625000 0.500000
vt 0.875000 0.500000
vt 0.875000 0.750000
vt 0.625000 0.750000
vt 0.375000 0.750000
vt 0.625000 1.000000
vt 0.375000 1.000000
vt 0.375000 0.000000
vt 0.625000 0.000000
vt 0.625000 0.250000
vt 0.375000 0.250000
vt 0.125000 0.500000
vt 0.375000 0.500000
vt 0.125000 0.750000
vn 0.0000 1.0000 0.0000
vn 0.0000 0.0000 1.0000
vn -1.0000 0.0000 0.0000
vn 0.0000 -1.0000 0.0000
vn 1.0000 0.0000 0.0000
vn 0.0000 0.0000 -1.0000
usemtl Material
s off
f 1/1/1 5/2/1 7/3/1 3/4/1
f 4/5/2 3/4/2 7/6/2 8/7/2
f 8/8/3 7/9/3 5/10/3 6/11/3
f 6/12/4 2/13/4 4/5/4 8/14/4
f 2/13/5 1/1/5 3/4/5 4/5/5
f 6/11/6 5/10/6 1/1/6 2/13/6
o 106
v 11.185056 5.504708 4.213407
v 11.216756 5.493599 4.213367
v 11.213556 5.485029 4.241976
v 11.222556 5.515059 4.221306
v 11.258056 5.497519 4.240396
v 11.193356 5.520699 4.225616
v 11.191356 5.515708 4.236716
v 11.260756 5.507009 4.252346
v 11.225455 5.509758 4.252346
v 11.248856 5.488219 4.253096
v 11.208156 5.496018 4.253006
v 11.256355 5.494589 4.271636
v 11.231155 5.495529 4.267786
v 11.241655 5.500699 4.272966
v 11.228556 5.498299 4.264406
v 11.242155 5.499639 4.267156
vn -0.8666 -0.1398 -0.4790
vn 0.1719 -0.6027 -0.7792
vn -0.3401 -0.9328 0.1195
vn 0.2841 0.6942 -0.6613
vn 0.8813 -0.2220 -0.4171
vn -0.3230 0.9365 -0.1363
vn -0.6927 0.4578 0.5574
vn 0.6397 0.7348 0.2254
vn -0.0665 0.8968 0.4374
vn 0.3000 -0.9519 0.0631
vn -0.7099 -0.3527 0.6096
vn 0.4927 -0.3753 0.7851
vn -0.2349 -0.5185 0.8222
vn -0.0718 0.3149 0.9464
vn -0.4258 0.1698 0.8888
vn -0.1904 -0.2146 0.9580
usemtl mtl1.075
s 1
f 9//7 10//8 11//9
f 12//10 10//8 9//7
f 12//10 13//11 10//8
f 9//7 14//12 12//10
f 14//12 9//7 15//13
f 13//11 12//10 16//14
f 14//12 17//15 12//10
f 16//14 12//10 17//15
f 10//8 18//16 11//9
f 19//17 9//7 11//9
f 13//11 20//18 18//16
f 10//8 13//11 18//16
f 20//18 13//11 16//14
f 17//15 14//12 15//13
f 11//9 21//19 19//17
f 9//7 19//17 15//13
f 21//19 11//9 18//16
f 20//18 16//14 22//20
f 15//13 19//17 23//21
f 15//13 23//21 17//15
f 18//16 20//18 21//19
f 16//14 17//15 22//20
f 21//19 23//21 19//17
f 22//20 17//15 23//21
f 21//19 24//22 23//21
f 21//19 20//18 24//22
f 24//22 20//18 22//20
f 24//22 22//20 23//21
