# Blender v2.92.0 OBJ File: 'convert_to_one_sided.blend'
# www.blender.org
mtllib 1079L.mtl
o Cube
v 0.001000 0.001000 -0.001000
v 0.001000 -0.001000 -0.001000
v 0.001000 0.001000 0.001000
v 0.001000 -0.001000 0.001000
v -0.001000 0.001000 -0.001000
v -0.001000 -0.001000 -0.001000
v -0.001000 0.001000 0.001000
v -0.001000 -0.001000 0.001000
vt 0.625000 0.500000
vt 0.875000 0.500000
vt 0.875000 0.750000
vt 0.625000 0.750000
vt 0.375000 0.750000
vt 0.625000 1.000000
vt 0.375000 1.000000
vt 0.375000 0.000000
vt 0.625000 0.000000
vt 0.625000 0.250000
vt 0.375000 0.250000
vt 0.125000 0.500000
vt 0.375000 0.500000
vt 0.125000 0.750000
vn 0.0000 1.0000 0.0000
vn 0.0000 0.0000 1.0000
vn -1.0000 0.0000 0.0000
vn 0.0000 -1.0000 0.0000
vn 1.0000 0.0000 0.0000
vn 0.0000 0.0000 -1.0000
usemtl Material
s off
f 1/1/1 5/2/1 7/3/1 3/4/1
f 4/5/2 3/4/2 7/6/2 8/7/2
f 8/8/3 7/9/3 5/10/3 6/11/3
f 6/12/4 2/13/4 4/5/4 8/14/4
f 2/13/5 1/1/5 3/4/5 4/5/5
f 6/11/6 5/10/6 1/1/6 2/13/6
o 1079
v 8.505780 3.835540 3.108251
v 8.647879 3.857080 3.109161
v 8.626199 3.802211 3.114021
v 8.767977 3.794531 3.117351
v 8.452461 3.883719 3.116590
v 8.541409 3.924749 3.120260
v 8.736597 3.766971 3.121931
v 8.577659 3.763971 3.138710
v 8.855216 3.759251 3.134170
v 8.458141 3.798431 3.135650
v 8.842986 3.848340 3.134800
v 8.927245 3.778101 3.146050
v 8.384512 3.840440 3.134420
v 8.354153 3.894949 3.136070
v 8.678248 3.930839 3.133020
v 8.422812 3.943899 3.133070
v 8.564219 3.979428 3.145530
v 8.734088 3.699462 3.183460
v 8.725767 3.736701 3.152020
v 8.859526 3.717162 3.166450
v 8.924915 3.744071 3.160990
v 8.568630 3.727101 3.179660
v 8.973915 3.765971 3.174400
v 8.389003 3.749751 3.185950
v 8.323362 3.800291 3.166740
v 8.284723 3.870250 3.166010
v 8.948785 3.821100 3.164000
v 8.916076 3.906289 3.178380
v 8.331053 3.950239 3.158470
v 8.798038 3.951979 3.165030
v 8.688598 3.990648 3.165970
v 8.440821 4.011208 3.171250
v 8.844926 3.695572 3.196399
v 8.936115 3.724102 3.201010
v 8.223504 3.807110 3.205189
v 8.984015 3.804541 3.184490
v 8.970755 3.854850 3.200619
v 8.243344 3.944169 3.195169
v 8.851935 3.974898 3.193730
v 8.312733 4.008398 3.192710
v 8.380423 4.053517 3.206659
v 8.762507 4.010598 3.198970
v 8.604420 4.022638 3.186150
v 8.983094 3.749111 3.214169
v 8.241034 3.760951 3.220219
v 8.984295 3.795191 3.213689
v 8.185095 3.863350 3.226349
v 8.939395 3.919549 3.208780
v 8.897065 3.954909 3.207030
v 8.141485 3.927849 3.263089
v 8.218175 4.003158 3.241009
v 8.850726 3.986198 3.212209
v 8.493530 4.060567 3.215389
v 8.687378 3.685602 3.239249
v 8.569560 3.699362 3.225199
v 8.401122 3.703012 3.240869
v 8.277094 3.725262 3.236389
v 8.140116 3.775471 3.269889
v 8.186854 3.726062 3.269909
v 8.293183 4.056837 3.238969
v 8.647829 4.054897 3.241629
v 8.377322 4.082007 3.247729
v 8.475891 4.083957 3.261319
v 8.832566 3.697122 3.237239
v 8.966345 3.732121 3.239169
v 8.907186 3.715982 3.248099
v 8.978874 3.760831 3.237619
v 8.975755 3.852580 3.232029
v 8.081836 3.837010 3.303938
v 8.952495 3.898839 3.226589
v 8.897165 3.954989 3.236129
v 8.207194 4.057737 3.291988
v 8.796267 4.008728 3.236869
v 8.283513 4.086947 3.286519
v 8.564699 3.675322 3.296618
v 8.460771 3.680492 3.279029
v 8.690208 3.689262 3.287418
v 8.230904 3.690032 3.296268
v 8.324512 3.680512 3.287448
v 8.966755 3.810600 3.256839
v 8.934746 3.891490 3.257709
v 8.130275 3.996578 3.311368
v 8.735578 4.037447 3.269398
v 8.807257 3.715522 3.293468
v 8.917206 3.728851 3.267309
v 8.039227 3.895179 3.355867
v 8.881975 3.953259 3.272619
v 8.806877 3.997358 3.270869
v 8.647199 4.062757 3.285628
v 8.526970 4.084717 3.295418
v 8.370482 4.099226 3.312958
v 8.259394 3.661352 3.345698
v 8.542180 3.680062 3.335338
v 8.105486 3.712582 3.330028
v 8.583850 3.699562 3.363277
v 8.042716 3.757391 3.346948
v 8.951045 3.758061 3.262669
v 8.145685 4.053068 3.348658
v 8.716168 4.029968 3.300158
v 8.227044 4.091177 3.353518
v 8.581309 4.066057 3.330538
v 8.067327 3.666412 3.407717
v 8.398962 3.666152 3.355887
v 8.894965 3.745041 3.285249
v 8.829846 3.752341 3.312308
v 8.901275 3.782061 3.290638
v 8.011467 3.800141 3.367207
v 8.879975 3.859750 3.295178
v 8.840356 3.942299 3.295738
v 8.057276 3.988088 3.402407
v 8.800537 3.984658 3.290538
v 8.427591 4.095837 3.373727
v 8.225163 3.645283 3.411077
v 8.025187 3.708342 3.387467
v 8.689208 3.740321 3.356997
v 7.976857 3.737411 3.411837
v 8.786497 3.809941 3.331088
v 8.726817 3.901749 3.354208
v 8.723508 3.984248 3.328698
v 8.610779 4.033508 3.360277
v 8.282373 4.108967 3.401757
v 8.423622 3.677542 3.410977
v 8.670398 3.782111 3.379317
v 7.954177 3.801420 3.437526
v 7.971017 3.888909 3.448086
v 8.671198 3.824830 3.383237
v 8.609369 3.985388 3.390517
v 8.505361 4.067787 3.385007
v 8.127255 4.060467 3.415057
v 8.413432 4.087147 3.425237
v 8.119205 3.644243 3.432586
v 7.982377 3.693892 3.437616
v 8.226295 3.651172 3.465586
v 8.418411 3.691602 3.450456
v 8.494141 3.717602 3.437096
v 7.970957 3.930389 3.488716
v 8.191175 4.095357 3.422137
v 7.937628 3.715872 3.475996
v 8.555370 3.759921 3.430197
v 8.595909 3.801811 3.420117
v 8.562189 3.862440 3.443956
v 7.915118 3.811491 3.497676
v 8.554689 3.943819 3.439327
v 8.500921 3.992888 3.455776
v 8.463861 4.045877 3.438216
v 8.036457 3.999918 3.480966
v 8.326043 4.097537 3.452606
v 7.953768 3.665462 3.517415
v 8.034986 3.645853 3.479646
v 8.100646 3.640253 3.480586
v 7.912208 3.756141 3.506956
v 8.112966 4.063517 3.484416
v 8.219634 4.093447 3.475176
v 8.383963 4.076217 3.455676
v 8.246564 3.677372 3.522105
v 8.417071 3.747061 3.498276
v 7.922038 3.860290 3.530555
v 8.471681 3.971858 3.481026
v 8.024736 3.999798 3.545595
v 8.088406 3.642793 3.530675
v 8.124306 3.658283 3.550355
v 7.909668 3.712232 3.544525
v 8.318624 3.716562 3.528575
v 8.487511 3.801440 3.476886
v 8.392262 3.932499 3.525885
v 8.324533 4.072397 3.495446
v 8.089136 4.047847 3.537875
v 8.151265 4.071297 3.521735
v 8.270413 4.088537 3.491396
v 8.015387 3.648553 3.534905
v 8.383422 3.828810 3.533365
v 7.961187 3.926299 3.558635
v 8.382632 4.010048 3.504226
v 8.216314 4.071467 3.527215
v 7.954868 3.666092 3.588745
v 7.921308 3.690682 3.582745
v 7.900428 3.788471 3.562585
v 8.359322 3.769701 3.536525
v 8.043237 4.007428 3.573835
v 8.108786 4.030278 3.569235
v 8.084076 3.686282 3.610014
v 8.329682 3.746881 3.543325
v 7.888838 3.786561 3.611144
v 7.915278 3.836840 3.594944
v 7.990897 3.955088 3.598044
v 8.280884 3.989428 3.564955
v 8.260254 4.032928 3.547265
v 8.037196 3.663122 3.576555
v 7.904508 3.746431 3.600994
v 8.193604 3.711412 3.583894
v 8.258904 3.766581 3.579245
v 8.254153 3.857080 3.593795
v 8.228965 3.932379 3.599314
v 8.167825 4.021938 3.578555
v 7.946948 3.878119 3.629914
v 8.035137 3.979508 3.603184
v 8.187215 3.983968 3.595894
v 7.978957 3.702192 3.636944
v 7.931648 3.725362 3.631694
v 7.918238 3.794061 3.629394
v 8.152715 3.881949 3.635534
v 8.000117 3.935299 3.626194
v 8.075676 3.958108 3.620664
v 8.134425 3.734442 3.620694
v 8.120286 3.806010 3.639994
v 8.137675 3.926249 3.625804
v 7.942598 3.737131 3.657764
v 8.042497 3.746121 3.648264
v 7.936948 3.766741 3.658113
v 8.058746 3.868290 3.654854
v 7.945558 3.815330 3.660984
v 7.996917 3.880000 3.645984
v 7.968187 3.768651 3.662294
v 8.031107 3.802300 3.659703
v 7.998827 3.826290 3.656004
vn -0.1067 -0.1872 -0.9765
vn 0.0498 0.1027 -0.9935
vn -0.0403 -0.3039 -0.9519
vn 0.0925 -0.0863 -0.9920
vn -0.1174 0.0891 -0.9891
vn 0.0057 0.2957 -0.9553
vn -0.0039 -0.4740 -0.8805
vn -0.0997 -0.6119 -0.7847
vn 0.1369 -0.3765 -0.9163
vn -0.1624 -0.4779 -0.8633
vn 0.2159 0.2033 -0.9550
vn 0.3549 -0.1047 -0.9290
vn -0.2576 -0.2146 -0.9421
vn -0.2843 0.0815 -0.9553
vn 0.1208 0.3679 -0.9220
vn -0.1274 0.3607 -0.9239
vn 0.0293 0.5235 -0.8515
vn -0.0462 -0.8448 -0.5331
vn -0.0329 -0.6745 -0.7375
vn 0.1357 -0.7424 -0.6561
vn 0.3423 -0.5992 -0.7237
vn -0.1003 -0.7689 -0.6315
vn 0.7279 -0.3190 -0.6070
vn -0.1658 -0.6583 -0.7343
vn -0.2885 -0.3969 -0.8713
vn -0.4227 -0.0351 -0.9056
vn 0.5186 0.2299 -0.8235
vn 0.4647 0.4470 -0.7643
vn -0.3054 0.3295 -0.8934
vn 0.2096 0.4715 -0.8566
vn 0.1287 0.5823 -0.8027
vn -0.0717 0.5727 -0.8166
vn 0.1446 -0.9603 -0.2385
vn 0.3958 -0.8832 -0.2517
vn -0.4609 -0.2397 -0.8545
vn 0.8771 0.1268 -0.4633
vn 0.8588 0.3750 -0.3491
vn -0.4802 0.2431 -0.8428
vn 0.3506 0.6660 -0.6585
vn -0.2997 0.4937 -0.8164
vn -0.1179 0.6918 -0.7124
vn 0.2188 0.8026 -0.5549
vn 0.0769 0.7281 -0.6812
vn 0.8793 -0.4690 -0.0829
vn -0.3332 -0.5106 -0.7926
vn 0.9980 0.0284 0.0560
vn -0.5637 -0.0105 -0.8259
vn 0.7379 0.6207 -0.2649
vn 0.5606 0.7403 -0.3711
vn -0.6243 0.2275 -0.7473
vn -0.4987 0.4696 -0.7285
vn 0.4314 0.8778 -0.2083
vn 0.0526 0.8027 -0.5941
vn 0.0189 -0.9891 -0.1460
vn -0.0762 -0.8950 -0.4395
vn -0.0933 -0.8272 -0.5541
vn -0.1992 -0.7098 -0.6756
vn -0.5288 -0.3029 -0.7929
vn -0.3547 -0.6133 -0.7057
vn -0.3009 0.6965 -0.6514
vn 0.1869 0.9274 -0.3242
vn -0.0646 0.8899 -0.4515
vn 0.0756 0.9510 -0.2999
vn 0.1799 -0.9703 0.1614
vn 0.5955 -0.7094 0.3770
vn 0.2610 -0.9268 0.2702
vn 0.8676 -0.1741 0.4658
vn 0.9126 0.2891 0.2890
vn -0.6397 -0.0080 -0.7685
vn 0.8198 0.5363 0.2008
vn 0.6125 0.7651 0.1987
vn -0.4526 0.7055 -0.5454
vn 0.3861 0.9214 -0.0436
vn -0.2126 0.8985 -0.3840
vn 0.0669 -0.9977 0.0082
vn -0.0204 -0.9486 -0.3159
vn 0.1466 -0.9582 0.2456
vn -0.2003 -0.8107 -0.5501
vn -0.0801 -0.8816 -0.4651
vn 0.7012 0.0710 0.7095
vn 0.6403 0.3654 0.6756
vn -0.6454 0.4607 -0.6092
vn 0.3684 0.9225 0.1155
vn 0.2390 -0.7542 0.6116
vn 0.3547 -0.6397 0.6819
vn -0.7373 0.2568 -0.6249
vn 0.5294 0.5839 0.6155
vn 0.4616 0.8081 0.3658
vn 0.2590 0.9552 0.1432
vn 0.1518 0.9880 -0.0286
vn -0.0021 0.9877 -0.1560
vn -0.0615 -0.9435 -0.3257
vn 0.1518 -0.9583 0.2419
vn -0.4222 -0.5987 -0.6806
vn 0.2602 -0.8303 0.4928
vn -0.5926 -0.2757 -0.7568
vn 0.5380 -0.2630 0.8009
vn -0.5639 0.7246 -0.3962
vn 0.3840 0.7410 0.5509
vn -0.2871 0.9248 -0.2495
vn 0.2896 0.8869 0.3600
vn -0.3127 -0.8175 -0.4837
vn 0.0913 -0.9958 0.0002
vn 0.3452 -0.3858 0.8556
vn 0.3149 -0.3099 0.8971
vn 0.3950 -0.0717 0.9159
vn -0.7157 -0.0033 -0.6984
vn 0.4207 0.1176 0.8996
vn 0.4118 0.3073 0.8579
vn -0.7209 0.5553 -0.4146
vn 0.3979 0.5792 0.7115
vn 0.1863 0.9703 0.1545
vn 0.0498 -0.9961 -0.0733
vn -0.5143 -0.5409 -0.6655
vn 0.3608 -0.4394 0.8226
vn -0.7117 -0.2617 -0.6519
vn 0.3681 -0.0668 0.9274
vn 0.4307 0.1515 0.8897
vn 0.4086 0.4370 0.8013
vn 0.4024 0.6405 0.6541
vn -0.0362 0.9993 0.0080
vn 0.1991 -0.9387 0.2814
vn 0.4316 -0.1882 0.8822
vn -0.8142 0.0477 -0.5786
vn -0.8080 0.3442 -0.4781
vn 0.4451 -0.0497 0.8941
vn 0.4660 0.4010 0.7887
vn 0.3498 0.8155 0.4611
vn -0.5496 0.8050 -0.2235
vn 0.3186 0.8314 0.4552
vn -0.1047 -0.9615 -0.2542
vn -0.5791 -0.6070 -0.5442
vn 0.1673 -0.9642 0.2059
vn 0.3009 -0.7912 0.5324
vn 0.3770 -0.6006 0.7051
vn -0.7966 0.5463 -0.2588
vn -0.2981 0.9527 -0.0594
vn -0.8047 -0.3463 -0.4822
vn 0.4305 -0.3125 0.8468
vn 0.4535 -0.1417 0.8799
vn 0.4627 -0.0093 0.8865
vn -0.9126 0.1640 -0.3746
vn 0.4838 0.1935 0.8535
vn 0.4552 0.4152 0.7876
vn 0.4101 0.6048 0.6826
vn -0.6914 0.7016 -0.1724
vn 0.1581 0.9251 0.3453
vn -0.5460 -0.8066 -0.2265
vn -0.2143 -0.9590 -0.1853
vn -0.0106 -0.9999 0.0043
vn -0.9213 -0.0979 -0.3763
vn -0.4570 0.8895 -0.0005
vn -0.0995 0.9673 0.2333
vn 0.3296 0.7491 0.5746
vn 0.2717 -0.8133 0.5145
vn 0.4296 -0.3930 0.8130
vn -0.9098 0.3865 -0.1515
vn 0.4344 0.2704 0.8591
vn -0.6608 0.7489 0.0498
vn 0.0563 -0.9633 0.2623
vn 0.1775 -0.8794 0.4418
vn -0.9252 -0.3471 -0.1535
vn 0.3506 -0.5757 0.7387
vn 0.4551 -0.1750 0.8731
vn 0.4291 0.1334 0.8933
vn 0.2970 0.6841 0.6662
vn -0.3942 0.8691 0.2986
vn -0.1756 0.9150 0.3632
vn 0.0955 0.8867 0.4524
vn -0.1334 -0.9840 0.1179
vn 0.4282 -0.0673 0.9012
vn -0.8093 0.5854 0.0481
vn 0.3918 0.4282 0.8144
vn 0.0630 0.7853 0.6159
vn -0.3222 -0.8640 0.3869
vn -0.7732 -0.5978 0.2117
vn -0.9908 0.0615 -0.1205
vn 0.4250 -0.2161 0.8790
vn -0.4369 0.7811 0.4460
vn -0.1181 0.7328 0.6701
vn 0.1988 -0.6743 0.7112
vn 0.3749 -0.3967 0.8379
vn -0.9336 0.0789 0.3496
vn -0.8791 0.4258 0.2139
vn -0.6246 0.6686 0.4036
vn 0.3554 0.3465 0.8681
vn 0.2692 0.5336 0.8017
vn 0.0310 -0.8836 0.4672
vn -0.9018 -0.2925 0.3182
vn 0.3450 -0.5386 0.7687
vn 0.3702 -0.2620 0.8913
vn 0.3932 -0.0302 0.9190
vn 0.3343 0.1941 0.9223
vn 0.0905 0.5849 0.8060
vn -0.6823 0.4502 0.5760
vn -0.2600 0.6609 0.7040
vn 0.2049 0.3948 0.8956
vn -0.0582 -0.6337 0.7714
vn -0.6928 -0.4418 0.5700
vn -0.7762 0.0787 0.6256
vn 0.2766 0.0980 0.9560
vn -0.3116 0.5080 0.8030
vn -0.0008 0.4551 0.8904
vn 0.3031 -0.3447 0.8884
vn 0.2820 -0.1145 0.9525
vn 0.1754 0.3044 0.9363
vn -0.3518 -0.3829 0.8542
vn 0.1725 -0.3001 0.9382
vn -0.6090 -0.0770 0.7894
vn 0.0690 0.1721 0.9827
vn -0.3604 0.1926 0.9127
vn -0.1472 0.3174 0.9368
vn -0.0059 -0.1120 0.9937
vn 0.1027 -0.0285 0.9943
vn -0.0229 0.1307 0.9912
usemtl mtl1.091
s 1
f 9//7 10//8 11//9
f 12//10 11//9 10//8
f 10//8 9//7 13//11
f 10//8 13//11 14//12
f 15//13 16//14 11//9
f 17//15 15//13 12//10
f 11//9 18//16 9//7
f 16//14 18//16 11//9
f 12//10 15//13 11//9
f 17//15 12//10 19//17
f 20//18 17//15 19//17
f 18//16 21//19 9//7
f 19//17 12//10 10//8
f 13//11 21//19 22//20
f 9//7 21//19 13//11
f 19//17 10//8 23//21
f 14//12 23//21 10//8
f 13//11 22//20 24//22
f 14//12 13//11 24//22
f 14//12 24//22 25//23
f 23//21 14//12 25//23
f 26//24 27//25 28//26
f 27//25 17//15 28//26
f 17//15 29//27 28//26
f 30//28 16//14 27//25
f 27//25 16//14 15//13
f 17//15 27//25 15//13
f 17//15 20//18 29//27
f 31//29 29//27 20//18
f 32//30 33//31 18//16
f 16//14 32//30 18//16
f 34//32 21//19 33//31
f 18//16 33//31 21//19
f 19//17 35//33 20//18
f 21//19 34//32 22//20
f 36//34 35//33 19//17
f 22//20 34//32 37//35
f 38//36 19//17 23//21
f 19//17 38//36 36//34
f 24//22 22//20 37//35
f 38//36 23//21 39//37
f 40//38 25//23 24//22
f 25//23 39//37 23//21
f 24//22 37//35 40//38
f 26//24 28//26 41//39
f 30//28 27//25 26//24
f 28//26 29//27 42//40
f 29//27 31//29 42//40
f 30//28 32//30 16//14
f 33//31 43//41 34//32
f 31//29 35//33 44//42
f 20//18 35//33 31//29
f 35//33 45//43 44//42
f 36//34 45//43 35//33
f 34//32 46//44 37//35
f 36//34 38//36 47//45
f 46//44 48//46 37//35
f 37//35 48//46 40//38
f 48//46 49//47 40//38
f 50//48 38//36 39//37
f 40//38 51//49 25//23
f 51//49 39//37 25//23
f 28//26 42//40 41//39
f 52//50 42//40 31//29
f 32//30 53//51 33//31
f 33//31 53//51 43//41
f 31//29 44//42 54//52
f 44//42 45//43 54//52
f 55//53 34//32 43//41
f 55//53 46//44 34//32
f 45//43 36//34 56//54
f 36//34 47//45 57//55
f 56//54 36//34 57//55
f 58//56 59//57 46//44
f 59//57 48//46 46//44
f 50//48 47//45 38//36
f 39//37 51//49 50//48
f 47//45 50//48 60//58
f 40//38 61//59 51//49
f 61//59 40//38 49//47
f 41//39 62//60 26//24
f 26//24 63//61 30//28
f 64//62 65//63 32//30
f 30//28 64//62 32//30
f 32//30 65//63 53//51
f 66//64 53//51 67//65
f 52//50 31//29 54//52
f 43//41 66//64 55//53
f 66//64 43//41 53//51
f 46//44 55//53 58//56
f 60//58 57//55 47//45
f 68//66 48//46 59//57
f 48//46 68//66 49//47
f 61//59 69//67 51//49
f 50//48 51//49 69//67
f 49//47 68//66 70//68
f 61//59 49//47 70//68
f 71//69 61//59 70//68
f 69//67 61//59 71//69
f 41//39 72//70 62//60
f 26//24 62//60 63//61
f 41//39 42//40 72//70
f 53//51 65//63 67//65
f 63//61 64//62 30//28
f 42//40 73//71 74//72
f 52//50 73//71 42//40
f 73//71 52//50 75//73
f 52//50 54//52 75//73
f 45//43 76//74 54//52
f 55//53 77//75 58//56
f 45//43 78//76 76//74
f 56//54 78//76 45//43
f 56//54 79//77 78//76
f 57//55 79//77 56//54
f 79//77 57//55 60//58
f 59//57 80//78 68//66
f 60//58 50//48 81//79
f 81//79 50//48 69//67
f 68//66 82//80 70//68
f 83//81 84//82 62//60
f 62//60 72//70 85//83
f 65//63 64//62 86//84
f 64//62 84//82 87//85
f 63//61 84//82 64//62
f 63//61 62//60 84//82
f 42//40 74//72 72//70
f 65//63 86//84 67//65
f 54//52 88//86 75//73
f 66//64 77//75 55//53
f 54//52 76//74 88//86
f 78//76 79//77 89//87
f 59//57 90//88 80//78
f 59//57 58//56 90//88
f 60//58 81//79 79//77
f 81//79 69//67 91//89
f 68//66 80//78 82//80
f 62//60 85//83 83//81
f 64//62 87//85 86//84
f 72//70 92//90 85//83
f 72//70 74//72 92//90
f 73//71 93//91 74//72
f 76//74 89//87 88//86
f 78//76 89//87 76//74
f 77//75 94//92 58//56
f 79//77 95//93 89//87
f 58//56 94//92 90//88
f 79//77 96//94 95//93
f 96//94 79//77 81//79
f 81//79 91//89 96//94
f 97//95 91//89 69//67
f 69//67 71//69 98//96
f 69//67 98//96 97//95
f 70//68 82//80 99//97
f 71//69 70//68 99//97
f 87//85 100//98 86//84
f 84//82 100//98 87//85
f 83//81 85//83 101//99
f 67//65 86//84 102//100
f 85//83 92//90 103//101
f 92//90 74//72 93//91
f 102//100 104//102 66//64
f 102//100 66//64 67//65
f 73//71 105//103 93//91
f 73//71 75//73 105//103
f 88//86 105//103 75//73
f 77//75 66//64 104//102
f 90//88 106//104 80//78
f 91//89 107//105 96//94
f 91//89 97//95 107//105
f 82//80 80//78 108//106
f 97//95 98//96 109//107
f 82//80 108//106 99//97
f 71//69 99//97 98//96
f 102//100 86//84 110//108
f 110//108 86//84 100//98
f 84//82 111//109 100//98
f 83//81 111//109 84//82
f 83//81 101//99 111//109
f 103//101 101//99 85//83
f 92//90 93//91 112//110
f 112//110 113//111 92//90
f 93//91 105//103 112//110
f 112//110 105//103 114//112
f 88//86 114//112 105//103
f 77//75 104//102 115//113
f 88//86 116//114 114//112
f 115//113 94//92 77//75
f 116//114 88//86 89//87
f 89//87 117//115 116//114
f 89//87 95//93 117//115
f 90//88 94//92 118//116
f 117//115 95//93 119//117
f 95//93 96//94 119//117
f 90//88 118//116 106//104
f 96//94 107//105 119//117
f 109//107 107//105 97//95
f 80//78 106//104 108//106
f 120//118 109//107 98//96
f 100//98 111//109 121//119
f 102//100 110//108 122//120
f 102//100 122//120 104//102
f 123//121 103//101 92//90
f 92//90 113//111 123//121
f 124//122 115//113 104//102
f 112//110 114//112 113//111
f 116//114 125//123 114//112
f 126//124 125//123 116//114
f 116//114 117//115 126//124
f 126//124 117//115 127//125
f 119//117 127//125 117//115
f 107//105 128//126 127//125
f 119//117 107//105 127//125
f 98//96 99//97 120//118
f 99//97 108//106 129//127
f 99//97 129//127 120//118
f 111//109 101//99 130//128
f 103//101 130//128 101//99
f 122//120 124//122 104//102
f 113//111 125//123 123//121
f 125//123 131//129 123//121
f 113//111 114//112 125//123
f 115//113 132//130 94//92
f 132//130 133//131 94//92
f 125//123 126//124 134//132
f 118//116 94//92 133//131
f 127//125 135//133 126//124
f 127//125 128//126 135//133
f 128//126 109//107 136//134
f 107//105 109//107 128//126
f 108//106 106//104 137//135
f 138//136 136//134 120//118
f 136//134 109//107 120//118
f 100//98 139//137 110//108
f 100//98 121//119 139//137
f 140//138 122//120 110//108
f 111//109 130//128 141//139
f 130//128 103//101 142//140
f 123//121 143//141 103//101
f 132//130 115//113 124//122
f 125//123 134//132 131//129
f 118//116 133//131 144//142
f 118//116 137//135 106//104
f 108//106 137//135 145//143
f 108//106 145//143 129//127
f 111//109 141//139 121//119
f 142//140 103//101 143//141
f 124//122 122//120 140//138
f 146//144 124//122 140//138
f 124//122 146//144 132//130
f 123//121 147//145 143//141
f 123//121 131//129 147//145
f 148//146 147//145 131//129
f 134//132 148//146 131//129
f 149//147 148//146 134//132
f 133//131 132//130 150//148
f 126//124 151//149 149//147
f 149//147 134//132 126//124
f 152//150 135//133 153//151
f 135//133 128//126 153//151
f 137//135 118//116 154//152
f 153//151 128//126 136//134
f 155//153 120//118 129//127
f 156//154 110//108 157//155
f 157//155 110//108 139//137
f 121//119 158//156 139//137
f 121//119 141//139 158//156
f 110//108 156//154 140//138
f 132//130 146//144 159//157
f 151//149 126//124 135//133
f 154//152 118//116 144//142
f 160//158 137//135 154//152
f 138//136 153//151 136//134
f 145//143 137//135 160//158
f 161//159 145//143 160//158
f 155//153 138//136 120//118
f 155//153 162//160 138//136
f 139//137 158//156 157//155
f 130//128 142//140 163//161
f 147//145 164//162 143//141
f 132//130 159//157 150//148
f 165//163 133//131 150//148
f 152//150 166//164 151//149
f 135//133 152//150 151//149
f 154//152 167//165 160//158
f 138//136 162//160 153//151
f 129//127 145//143 161//159
f 129//127 161//159 155//153
f 158//156 141//139 168//166
f 141//139 163//161 169//167
f 130//128 163//161 141//139
f 156//154 170//168 146//144
f 156//154 146//144 140//138
f 143//141 171//169 142//140
f 147//145 148//146 172//170
f 164//162 147//145 172//170
f 149//147 172//170 148//146
f 149//147 151//149 173//171
f 144//142 133//131 165//163
f 166//164 173//171 151//149
f 153//151 162//160 174//172
f 160//158 175//173 176//174
f 160//158 176//174 161//159
f 155//153 161//159 177//175
f 158//156 178//176 157//155
f 158//156 168//166 178//176
f 168//166 141//139 169//167
f 142//140 171//169 163//161
f 171//169 143//141 164//162
f 179//177 172//170 149//147
f 173//171 179//177 149//147
f 165//163 180//178 144//142
f 144//142 180//178 154//152
f 152//150 181//179 166//164
f 152//150 153//151 181//179
f 181//179 153//151 174//172
f 160//158 167//165 175//173
f 161//159 176//174 182//180
f 161//159 182//180 177//175
f 174//172 155//153 177//175
f 162//160 155//153 174//172
f 156//154 183//181 184//182
f 157//155 178//176 156//154
f 156//154 178//176 183//181
f 170//168 156//154 184//182
f 159//157 170//168 185//183
f 146//144 170//168 159//157
f 164//162 172//170 186//184
f 185//183 150//148 159//157
f 150//148 185//183 165//163
f 172//170 179//177 186//184
f 181//179 173//171 166//164
f 167//165 187//185 175//173
f 177//175 182//180 174//172
f 176//174 175//173 188//186
f 169//167 163//161 189//187
f 164//162 190//188 171//169
f 190//188 164//162 186//184
f 185//183 191//189 192//190
f 192//190 165//163 185//183
f 192//190 180//178 165//163
f 180//178 193//191 167//165
f 154//152 180//178 167//165
f 173//171 181//179 194//192
f 194//192 181//179 195//193
f 195//193 181//179 174//172
f 174//172 182//180 195//193
f 176//174 188//186 182//180
f 168//166 196//194 178//176
f 168//166 169//167 196//194
f 170//168 184//182 197//195
f 198//196 189//187 163//161
f 198//196 163//161 171//169
f 170//168 197//195 185//183
f 190//188 186//184 199//197
f 197//195 191//189 185//183
f 199//197 179//177 200//198
f 199//197 186//184 179//177
f 179//177 173//171 200//198
f 173//171 194//192 201//199
f 167//165 193//191 187//185
f 175//173 187//185 188//186
f 195//193 182//180 202//200
f 202//200 182//180 188//186
f 178//176 196//194 183//181
f 169//167 189//187 196//194
f 171//169 199//197 198//196
f 199//197 171//169 190//188
f 192//190 203//201 180//178
f 200//198 173//171 201//199
f 203//201 193//191 180//178
f 193//191 204//202 187//185
f 205//203 195//193 202//200
f 194//192 195//193 205//203
f 188//186 187//185 204//202
f 183//181 196//194 206//204
f 207//205 184//182 183//181
f 196//194 189//187 206//204
f 184//182 207//205 197//195
f 191//189 197//195 208//206
f 201//199 209//207 200//198
f 203//201 210//208 193//191
f 193//191 210//208 204//202
f 194//192 205//203 201//199
f 188//186 204//202 211//209
f 205//203 202//200 211//209
f 202//200 188//186 211//209
f 207//205 183//181 206//204
f 198//196 212//210 189//187
f 198//196 199//197 212//210
f 197//195 207//205 208//206
f 212//210 199//197 213//211
f 199//197 200//198 213//211
f 200//198 209//207 213//211
f 208//206 192//190 191//189
f 208//206 203//201 192//190
f 214//212 209//207 201//199
f 201//199 205//203 214//212
f 205//203 211//209 214//212
f 207//205 206//204 215//213
f 216//214 206//204 189//187
f 189//187 212//210 216//214
f 207//205 215//213 217//215
f 207//205 217//215 208//206
f 216//214 212//210 213//211
f 218//216 213//211 209//207
f 203//201 208//206 219//217
f 220//218 203//201 219//217
f 210//208 203//201 220//218
f 209//207 214//212 218//216
f 218//216 211//209 220//218
f 211//209 210//208 220//218
f 214//212 211//209 218//216
f 211//209 204//202 210//208
f 215//213 206//204 221//219
f 206//204 216//214 221//219
f 217//215 215//213 221//219
f 221//219 216//214 222//220
f 213//211 222//220 216//214
f 221//219 219//217 217//215
f 217//215 219//217 208//206
f 223//221 219//217 221//219
f 222//220 218//216 223//221
f 213//211 218//216 222//220
f 220//218 219//217 223//221
f 218//216 220//218 223//221
f 222//220 223//221 221//219
