# Blender v2.92.0 OBJ File: 'convert_to_one_sided.blend'
# www.blender.org
mtllib 1079L.mtl
o 1079
v 8.505780 3.835540 3.108251
v 8.647879 3.857080 3.109161
v 8.626199 3.802211 3.114021
v 8.767977 3.794531 3.117351
v 8.452461 3.883719 3.116590
v 8.541409 3.924749 3.120260
v 8.736597 3.766971 3.121931
v 8.577659 3.763971 3.138710
v 8.855216 3.759251 3.134170
v 8.458141 3.798431 3.135650
v 8.842986 3.848340 3.134800
v 8.927245 3.778101 3.146050
v 8.384512 3.840440 3.134420
v 8.354153 3.894949 3.136070
v 8.678248 3.930839 3.133020
v 8.422812 3.943899 3.133070
v 8.564219 3.979428 3.145530
v 8.734088 3.699462 3.183460
v 8.725767 3.736701 3.152020
v 8.859526 3.717162 3.166450
v 8.924915 3.744071 3.160990
v 8.568630 3.727101 3.179660
v 8.973915 3.765971 3.174400
v 8.389003 3.749751 3.185950
v 8.323362 3.800291 3.166740
v 8.284723 3.870250 3.166010
v 8.948785 3.821100 3.164000
v 8.916076 3.906289 3.178380
v 8.331053 3.950239 3.158470
v 8.798038 3.951979 3.165030
v 8.688598 3.990648 3.165970
v 8.440821 4.011208 3.171250
v 8.844926 3.695572 3.196399
v 8.936115 3.724102 3.201010
v 8.223504 3.807110 3.205189
v 8.984015 3.804541 3.184490
v 8.970755 3.854850 3.200619
v 8.243344 3.944169 3.195169
v 8.851935 3.974898 3.193730
v 8.312733 4.008398 3.192710
v 8.380423 4.053517 3.206659
v 8.762507 4.010598 3.198970
v 8.604420 4.022638 3.186150
v 8.983094 3.749111 3.214169
v 8.241034 3.760951 3.220219
v 8.984295 3.795191 3.213689
v 8.185095 3.863350 3.226349
v 8.939395 3.919549 3.208780
v 8.897065 3.954909 3.207030
v 8.141485 3.927849 3.263089
v 8.218175 4.003158 3.241009
v 8.850726 3.986198 3.212209
v 8.493530 4.060567 3.215389
v 8.687378 3.685602 3.239249
v 8.569560 3.699362 3.225199
v 8.401122 3.703012 3.240869
v 8.277094 3.725262 3.236389
v 8.140116 3.775471 3.269889
v 8.186854 3.726062 3.269909
v 8.293183 4.056837 3.238969
v 8.647829 4.054897 3.241629
v 8.377322 4.082007 3.247729
v 8.475891 4.083957 3.261319
v 8.832566 3.697122 3.237239
v 8.966345 3.732121 3.239169
v 8.907186 3.715982 3.248099
v 8.978874 3.760831 3.237619
v 8.975755 3.852580 3.232029
v 8.081836 3.837010 3.303938
v 8.952495 3.898839 3.226589
v 8.897165 3.954989 3.236129
v 8.207194 4.057737 3.291988
v 8.796267 4.008728 3.236869
v 8.283513 4.086947 3.286519
v 8.564699 3.675322 3.296618
v 8.460771 3.680492 3.279029
v 8.690208 3.689262 3.287418
v 8.230904 3.690032 3.296268
v 8.324512 3.680512 3.287448
v 8.966755 3.810600 3.256839
v 8.934746 3.891490 3.257709
v 8.130275 3.996578 3.311368
v 8.735578 4.037447 3.269398
v 8.807257 3.715522 3.293468
v 8.917206 3.728851 3.267309
v 8.039227 3.895179 3.355867
v 8.881975 3.953259 3.272619
v 8.806877 3.997358 3.270869
v 8.647199 4.062757 3.285628
v 8.526970 4.084717 3.295418
v 8.370482 4.099226 3.312958
v 8.259394 3.661352 3.345698
v 8.542180 3.680062 3.335338
v 8.105486 3.712582 3.330028
v 8.583850 3.699562 3.363277
v 8.042716 3.757391 3.346948
v 8.951045 3.758061 3.262669
v 8.145685 4.053068 3.348658
v 8.716168 4.029968 3.300158
v 8.227044 4.091177 3.353518
v 8.581309 4.066057 3.330538
v 8.067327 3.666412 3.407717
v 8.398962 3.666152 3.355887
v 8.894965 3.745041 3.285249
v 8.829846 3.752341 3.312308
v 8.901275 3.782061 3.290638
v 8.011467 3.800141 3.367207
v 8.879975 3.859750 3.295178
v 8.840356 3.942299 3.295738
v 8.057276 3.988088 3.402407
v 8.800537 3.984658 3.290538
v 8.427591 4.095837 3.373727
v 8.225163 3.645283 3.411077
v 8.025187 3.708342 3.387467
v 8.689208 3.740321 3.356997
v 7.976857 3.737411 3.411837
v 8.786497 3.809941 3.331088
v 8.726817 3.901749 3.354208
v 8.723508 3.984248 3.328698
v 8.610779 4.033508 3.360277
v 8.282373 4.108967 3.401757
v 8.423622 3.677542 3.410977
v 8.670398 3.782111 3.379317
v 7.954177 3.801420 3.437526
v 7.971017 3.888909 3.448086
v 8.671198 3.824830 3.383237
v 8.609369 3.985388 3.390517
v 8.505361 4.067787 3.385007
v 8.127255 4.060467 3.415057
v 8.413432 4.087147 3.425237
v 8.119205 3.644243 3.432586
v 7.982377 3.693892 3.437616
v 8.226295 3.651172 3.465586
v 8.418411 3.691602 3.450456
v 8.494141 3.717602 3.437096
v 7.970957 3.930389 3.488716
v 8.191175 4.095357 3.422137
v 7.937628 3.715872 3.475996
v 8.555370 3.759921 3.430197
v 8.595909 3.801811 3.420117
v 8.562189 3.862440 3.443956
v 7.915118 3.811491 3.497676
v 8.554689 3.943819 3.439327
v 8.500921 3.992888 3.455776
v 8.463861 4.045877 3.438216
v 8.036457 3.999918 3.480966
v 8.326043 4.097537 3.452606
v 7.953768 3.665462 3.517415
v 8.034986 3.645853 3.479646
v 8.100646 3.640253 3.480586
v 7.912208 3.756141 3.506956
v 8.112966 4.063517 3.484416
v 8.219634 4.093447 3.475176
v 8.383963 4.076217 3.455676
v 8.246564 3.677372 3.522105
v 8.417071 3.747061 3.498276
v 7.922038 3.860290 3.530555
v 8.471681 3.971858 3.481026
v 8.024736 3.999798 3.545595
v 8.088406 3.642793 3.530675
v 8.124306 3.658283 3.550355
v 7.909668 3.712232 3.544525
v 8.318624 3.716562 3.528575
v 8.487511 3.801440 3.476886
v 8.392262 3.932499 3.525885
v 8.324533 4.072397 3.495446
v 8.089136 4.047847 3.537875
v 8.151265 4.071297 3.521735
v 8.270413 4.088537 3.491396
v 8.015387 3.648553 3.534905
v 8.383422 3.828810 3.533365
v 7.961187 3.926299 3.558635
v 8.382632 4.010048 3.504226
v 8.216314 4.071467 3.527215
v 7.954868 3.666092 3.588745
v 7.921308 3.690682 3.582745
v 7.900428 3.788471 3.562585
v 8.359322 3.769701 3.536525
v 8.043237 4.007428 3.573835
v 8.108786 4.030278 3.569235
v 8.084076 3.686282 3.610014
v 8.329682 3.746881 3.543325
v 7.888838 3.786561 3.611144
v 7.915278 3.836840 3.594944
v 7.990897 3.955088 3.598044
v 8.280884 3.989428 3.564955
v 8.260254 4.032928 3.547265
v 8.037196 3.663122 3.576555
v 7.904508 3.746431 3.600994
v 8.193604 3.711412 3.583894
v 8.258904 3.766581 3.579245
v 8.254153 3.857080 3.593795
v 8.228965 3.932379 3.599314
v 8.167825 4.021938 3.578555
v 7.946948 3.878119 3.629914
v 8.035137 3.979508 3.603184
v 8.187215 3.983968 3.595894
v 7.978957 3.702192 3.636944
v 7.931648 3.725362 3.631694
v 7.918238 3.794061 3.629394
v 8.152715 3.881949 3.635534
v 8.000117 3.935299 3.626194
v 8.075676 3.958108 3.620664
v 8.134425 3.734442 3.620694
v 8.120286 3.806010 3.639994
v 8.137675 3.926249 3.625804
v 7.942598 3.737131 3.657764
v 8.042497 3.746121 3.648264
v 7.936948 3.766741 3.658113
v 8.058746 3.868290 3.654854
v 7.945558 3.815330 3.660984
v 7.996917 3.880000 3.645984
v 7.968187 3.768651 3.662294
v 8.031107 3.802300 3.659703
v 7.998827 3.826290 3.656004
vn -0.1067 -0.1872 -0.9765
vn 0.0498 0.1027 -0.9935
vn -0.0403 -0.3039 -0.9519
vn 0.0925 -0.0863 -0.9920
vn -0.1174 0.0891 -0.9891
vn 0.0057 0.2957 -0.9553
vn -0.0039 -0.4740 -0.8805
vn -0.0997 -0.6119 -0.7847
vn 0.1369 -0.3765 -0.9163
vn -0.1624 -0.4779 -0.8633
vn 0.2159 0.2033 -0.9550
vn 0.3549 -0.1047 -0.9290
vn -0.2576 -0.2146 -0.9421
vn -0.2843 0.0815 -0.9553
vn 0.1208 0.3679 -0.9220
vn -0.1274 0.3607 -0.9239
vn 0.0293 0.5235 -0.8515
vn -0.0462 -0.8448 -0.5331
vn -0.0329 -0.6745 -0.7375
vn 0.1357 -0.7424 -0.6561
vn 0.3423 -0.5992 -0.7237
vn -0.1003 -0.7689 -0.6315
vn 0.7279 -0.3190 -0.6070
vn -0.1658 -0.6583 -0.7343
vn -0.2885 -0.3969 -0.8713
vn -0.4227 -0.0351 -0.9056
vn 0.5186 0.2299 -0.8235
vn 0.4647 0.4470 -0.7643
vn -0.3054 0.3295 -0.8934
vn 0.2096 0.4715 -0.8566
vn 0.1287 0.5823 -0.8027
vn -0.0717 0.5727 -0.8166
vn 0.1446 -0.9603 -0.2385
vn 0.3958 -0.8832 -0.2517
vn -0.4609 -0.2397 -0.8545
vn 0.8771 0.1268 -0.4633
vn 0.8588 0.3750 -0.3491
vn -0.4802 0.2431 -0.8428
vn 0.3506 0.6660 -0.6585
vn -0.2997 0.4937 -0.8164
vn -0.1179 0.6918 -0.7124
vn 0.2188 0.8026 -0.5549
vn 0.0769 0.7281 -0.6812
vn 0.8793 -0.4690 -0.0829
vn -0.3332 -0.5106 -0.7926
vn 0.9980 0.0284 0.0560
vn -0.5637 -0.0105 -0.8259
vn 0.7379 0.6207 -0.2649
vn 0.5606 0.7403 -0.3711
vn -0.6243 0.2275 -0.7473
vn -0.4987 0.4696 -0.7285
vn 0.4314 0.8778 -0.2083
vn 0.0526 0.8027 -0.5941
vn 0.0189 -0.9891 -0.1460
vn -0.0762 -0.8950 -0.4395
vn -0.0933 -0.8272 -0.5541
vn -0.1992 -0.7098 -0.6756
vn -0.5288 -0.3029 -0.7929
vn -0.3547 -0.6133 -0.7057
vn -0.3009 0.6965 -0.6514
vn 0.1869 0.9274 -0.3242
vn -0.0646 0.8899 -0.4515
vn 0.0756 0.9510 -0.2999
vn 0.1799 -0.9703 0.1614
vn 0.5955 -0.7094 0.3770
vn 0.2610 -0.9268 0.2702
vn 0.8676 -0.1741 0.4658
vn 0.9126 0.2891 0.2890
vn -0.6397 -0.0080 -0.7685
vn 0.8198 0.5363 0.2008
vn 0.6125 0.7651 0.1987
vn -0.4526 0.7055 -0.5454
vn 0.3861 0.9214 -0.0436
vn -0.2126 0.8985 -0.3840
vn 0.0669 -0.9977 0.0082
vn -0.0204 -0.9486 -0.3159
vn 0.1466 -0.9582 0.2456
vn -0.2003 -0.8107 -0.5501
vn -0.0801 -0.8816 -0.4651
vn 0.7012 0.0710 0.7095
vn 0.6403 0.3654 0.6756
vn -0.6454 0.4607 -0.6092
vn 0.3684 0.9225 0.1155
vn 0.2390 -0.7542 0.6116
vn 0.3547 -0.6397 0.6819
vn -0.7373 0.2568 -0.6249
vn 0.5294 0.5839 0.6155
vn 0.4616 0.8081 0.3658
vn 0.2590 0.9552 0.1432
vn 0.1518 0.9880 -0.0286
vn -0.0021 0.9877 -0.1560
vn -0.0615 -0.9435 -0.3257
vn 0.1518 -0.9583 0.2419
vn -0.4222 -0.5987 -0.6806
vn 0.2602 -0.8303 0.4928
vn -0.5926 -0.2757 -0.7568
vn 0.5380 -0.2630 0.8009
vn -0.5639 0.7246 -0.3962
vn 0.3840 0.7410 0.5509
vn -0.2871 0.9248 -0.2495
vn 0.2896 0.8869 0.3600
vn -0.3127 -0.8175 -0.4837
vn 0.0913 -0.9958 0.0002
vn 0.3452 -0.3858 0.8556
vn 0.3149 -0.3099 0.8971
vn 0.3950 -0.0717 0.9159
vn -0.7157 -0.0033 -0.6984
vn 0.4207 0.1176 0.8996
vn 0.4118 0.3073 0.8579
vn -0.7209 0.5553 -0.4146
vn 0.3979 0.5792 0.7115
vn 0.1863 0.9703 0.1545
vn 0.0498 -0.9961 -0.0733
vn -0.5143 -0.5409 -0.6655
vn 0.3608 -0.4394 0.8226
vn -0.7117 -0.2617 -0.6519
vn 0.3681 -0.0668 0.9274
vn 0.4307 0.1515 0.8897
vn 0.4086 0.4370 0.8013
vn 0.4024 0.6405 0.6541
vn -0.0362 0.9993 0.0080
vn 0.1991 -0.9387 0.2814
vn 0.4316 -0.1882 0.8822
vn -0.8142 0.0477 -0.5786
vn -0.8080 0.3442 -0.4781
vn 0.4451 -0.0497 0.8941
vn 0.4660 0.4010 0.7887
vn 0.3498 0.8155 0.4611
vn -0.5496 0.8050 -0.2235
vn 0.3186 0.8314 0.4552
vn -0.1047 -0.9615 -0.2542
vn -0.5791 -0.6070 -0.5442
vn 0.1673 -0.9642 0.2059
vn 0.3009 -0.7912 0.5324
vn 0.3770 -0.6006 0.7051
vn -0.7966 0.5463 -0.2588
vn -0.2981 0.9527 -0.0594
vn -0.8047 -0.3463 -0.4822
vn 0.4305 -0.3125 0.8468
vn 0.4535 -0.1417 0.8799
vn 0.4627 -0.0093 0.8865
vn -0.9126 0.1640 -0.3746
vn 0.4838 0.1935 0.8535
vn 0.4552 0.4152 0.7876
vn 0.4101 0.6048 0.6826
vn -0.6914 0.7016 -0.1724
vn 0.1581 0.9251 0.3453
vn -0.5460 -0.8066 -0.2265
vn -0.2143 -0.9590 -0.1853
vn -0.0106 -0.9999 0.0043
vn -0.9213 -0.0979 -0.3763
vn -0.4570 0.8895 -0.0005
vn -0.0995 0.9673 0.2333
vn 0.3296 0.7491 0.5746
vn 0.2717 -0.8133 0.5145
vn 0.4296 -0.3930 0.8130
vn -0.9098 0.3865 -0.1515
vn 0.4344 0.2704 0.8591
vn -0.6608 0.7489 0.0498
vn 0.0563 -0.9633 0.2623
vn 0.1775 -0.8794 0.4418
vn -0.9252 -0.3471 -0.1535
vn 0.3506 -0.5757 0.7387
vn 0.4551 -0.1750 0.8731
vn 0.4291 0.1334 0.8933
vn 0.2970 0.6841 0.6662
vn -0.3942 0.8691 0.2986
vn -0.1756 0.9150 0.3632
vn 0.0955 0.8867 0.4524
vn -0.1334 -0.9840 0.1179
vn 0.4282 -0.0673 0.9012
vn -0.8093 0.5854 0.0481
vn 0.3918 0.4282 0.8144
vn 0.0630 0.7853 0.6159
vn -0.3222 -0.8640 0.3869
vn -0.7732 -0.5978 0.2117
vn -0.9908 0.0615 -0.1205
vn 0.4250 -0.2161 0.8790
vn -0.4369 0.7811 0.4460
vn -0.1181 0.7328 0.6701
vn 0.1988 -0.6743 0.7112
vn 0.3749 -0.3967 0.8379
vn -0.9336 0.0789 0.3496
vn -0.8791 0.4258 0.2139
vn -0.6246 0.6686 0.4036
vn 0.3554 0.3465 0.8681
vn 0.2692 0.5336 0.8017
vn 0.0310 -0.8836 0.4672
vn -0.9018 -0.2925 0.3182
vn 0.3450 -0.5386 0.7687
vn 0.3702 -0.2620 0.8913
vn 0.3932 -0.0302 0.9190
vn 0.3343 0.1941 0.9223
vn 0.0905 0.5849 0.8060
vn -0.6823 0.4502 0.5760
vn -0.2600 0.6609 0.7040
vn 0.2049 0.3948 0.8956
vn -0.0582 -0.6337 0.7714
vn -0.6928 -0.4418 0.5700
vn -0.7762 0.0787 0.6256
vn 0.2766 0.0980 0.9560
vn -0.3116 0.5080 0.8030
vn -0.0008 0.4551 0.8904
vn 0.3031 -0.3447 0.8884
vn 0.2820 -0.1145 0.9525
vn 0.1754 0.3044 0.9363
vn -0.3518 -0.3829 0.8542
vn 0.1725 -0.3001 0.9382
vn -0.6090 -0.0770 0.7894
vn 0.0690 0.1721 0.9827
vn -0.3604 0.1926 0.9127
vn -0.1472 0.3174 0.9368
vn -0.0059 -0.1120 0.9937
vn 0.1027 -0.0285 0.9943
vn -0.0229 0.1307 0.9912
usemtl mtl1.942
s 1
f 1//1 2//2 3//3
f 4//4 3//3 2//2
f 2//2 1//1 5//5
f 2//2 5//5 6//6
f 7//7 8//8 3//3
f 9//9 7//7 4//4
f 3//3 10//10 1//1
f 8//8 10//10 3//3
f 4//4 7//7 3//3
f 9//9 4//4 11//11
f 12//12 9//9 11//11
f 10//10 13//13 1//1
f 11//11 4//4 2//2
f 5//5 13//13 14//14
f 1//1 13//13 5//5
f 11//11 2//2 15//15
f 6//6 15//15 2//2
f 5//5 14//14 16//16
f 6//6 5//5 16//16
f 6//6 16//16 17//17
f 15//15 6//6 17//17
f 18//18 19//19 20//20
f 19//19 9//9 20//20
f 9//9 21//21 20//20
f 22//22 8//8 19//19
f 19//19 8//8 7//7
f 9//9 19//19 7//7
f 9//9 12//12 21//21
f 23//23 21//21 12//12
f 24//24 25//25 10//10
f 8//8 24//24 10//10
f 26//26 13//13 25//25
f 10//10 25//25 13//13
f 11//11 27//27 12//12
f 13//13 26//26 14//14
f 28//28 27//27 11//11
f 14//14 26//26 29//29
f 30//30 11//11 15//15
f 11//11 30//30 28//28
f 16//16 14//14 29//29
f 30//30 15//15 31//31
f 32//32 17//17 16//16
f 17//17 31//31 15//15
f 16//16 29//29 32//32
f 18//18 20//20 33//33
f 22//22 19//19 18//18
f 20//20 21//21 34//34
f 21//21 23//23 34//34
f 22//22 24//24 8//8
f 25//25 35//35 26//26
f 23//23 27//27 36//36
f 12//12 27//27 23//23
f 27//27 37//37 36//36
f 28//28 37//37 27//27
f 26//26 38//38 29//29
f 28//28 30//30 39//39
f 38//38 40//40 29//29
f 29//29 40//40 32//32
f 40//40 41//41 32//32
f 42//42 30//30 31//31
f 32//32 43//43 17//17
f 43//43 31//31 17//17
f 20//20 34//34 33//33
f 44//44 34//34 23//23
f 24//24 45//45 25//25
f 25//25 45//45 35//35
f 23//23 36//36 46//46
f 36//36 37//37 46//46
f 47//47 26//26 35//35
f 47//47 38//38 26//26
f 37//37 28//28 48//48
f 28//28 39//39 49//49
f 48//48 28//28 49//49
f 50//50 51//51 38//38
f 51//51 40//40 38//38
f 42//42 39//39 30//30
f 31//31 43//43 42//42
f 39//39 42//42 52//52
f 32//32 53//53 43//43
f 53//53 32//32 41//41
f 33//33 54//54 18//18
f 18//18 55//55 22//22
f 56//56 57//57 24//24
f 22//22 56//56 24//24
f 24//24 57//57 45//45
f 58//58 45//45 59//59
f 44//44 23//23 46//46
f 35//35 58//58 47//47
f 58//58 35//35 45//45
f 38//38 47//47 50//50
f 52//52 49//49 39//39
f 60//60 40//40 51//51
f 40//40 60//60 41//41
f 53//53 61//61 43//43
f 42//42 43//43 61//61
f 41//41 60//60 62//62
f 53//53 41//41 62//62
f 63//63 53//53 62//62
f 61//61 53//53 63//63
f 33//33 64//64 54//54
f 18//18 54//54 55//55
f 33//33 34//34 64//64
f 45//45 57//57 59//59
f 55//55 56//56 22//22
f 34//34 65//65 66//66
f 44//44 65//65 34//34
f 65//65 44//44 67//67
f 44//44 46//46 67//67
f 37//37 68//68 46//46
f 47//47 69//69 50//50
f 37//37 70//70 68//68
f 48//48 70//70 37//37
f 48//48 71//71 70//70
f 49//49 71//71 48//48
f 71//71 49//49 52//52
f 51//51 72//72 60//60
f 52//52 42//42 73//73
f 73//73 42//42 61//61
f 60//60 74//74 62//62
f 75//75 76//76 54//54
f 54//54 64//64 77//77
f 57//57 56//56 78//78
f 56//56 76//76 79//79
f 55//55 76//76 56//56
f 55//55 54//54 76//76
f 34//34 66//66 64//64
f 57//57 78//78 59//59
f 46//46 80//80 67//67
f 58//58 69//69 47//47
f 46//46 68//68 80//80
f 70//70 71//71 81//81
f 51//51 82//82 72//72
f 51//51 50//50 82//82
f 52//52 73//73 71//71
f 73//73 61//61 83//83
f 60//60 72//72 74//74
f 54//54 77//77 75//75
f 56//56 79//79 78//78
f 64//64 84//84 77//77
f 64//64 66//66 84//84
f 65//65 85//85 66//66
f 68//68 81//81 80//80
f 70//70 81//81 68//68
f 69//69 86//86 50//50
f 71//71 87//87 81//81
f 50//50 86//86 82//82
f 71//71 88//88 87//87
f 88//88 71//71 73//73
f 73//73 83//83 88//88
f 89//89 83//83 61//61
f 61//61 63//63 90//90
f 61//61 90//90 89//89
f 62//62 74//74 91//91
f 63//63 62//62 91//91
f 79//79 92//92 78//78
f 76//76 92//92 79//79
f 75//75 77//77 93//93
f 59//59 78//78 94//94
f 77//77 84//84 95//95
f 84//84 66//66 85//85
f 94//94 96//96 58//58
f 94//94 58//58 59//59
f 65//65 97//97 85//85
f 65//65 67//67 97//97
f 80//80 97//97 67//67
f 69//69 58//58 96//96
f 82//82 98//98 72//72
f 83//83 99//99 88//88
f 83//83 89//89 99//99
f 74//74 72//72 100//100
f 89//89 90//90 101//101
f 74//74 100//100 91//91
f 63//63 91//91 90//90
f 94//94 78//78 102//102
f 102//102 78//78 92//92
f 76//76 103//103 92//92
f 75//75 103//103 76//76
f 75//75 93//93 103//103
f 95//95 93//93 77//77
f 84//84 85//85 104//104
f 104//104 105//105 84//84
f 85//85 97//97 104//104
f 104//104 97//97 106//106
f 80//80 106//106 97//97
f 69//69 96//96 107//107
f 80//80 108//108 106//106
f 107//107 86//86 69//69
f 108//108 80//80 81//81
f 81//81 109//109 108//108
f 81//81 87//87 109//109
f 82//82 86//86 110//110
f 109//109 87//87 111//111
f 87//87 88//88 111//111
f 82//82 110//110 98//98
f 88//88 99//99 111//111
f 101//101 99//99 89//89
f 72//72 98//98 100//100
f 112//112 101//101 90//90
f 92//92 103//103 113//113
f 94//94 102//102 114//114
f 94//94 114//114 96//96
f 115//115 95//95 84//84
f 84//84 105//105 115//115
f 116//116 107//107 96//96
f 104//104 106//106 105//105
f 108//108 117//117 106//106
f 118//118 117//117 108//108
f 108//108 109//109 118//118
f 118//118 109//109 119//119
f 111//111 119//119 109//109
f 99//99 120//120 119//119
f 111//111 99//99 119//119
f 90//90 91//91 112//112
f 91//91 100//100 121//121
f 91//91 121//121 112//112
f 103//103 93//93 122//122
f 95//95 122//122 93//93
f 114//114 116//116 96//96
f 105//105 117//117 115//115
f 117//117 123//123 115//115
f 105//105 106//106 117//117
f 107//107 124//124 86//86
f 124//124 125//125 86//86
f 117//117 118//118 126//126
f 110//110 86//86 125//125
f 119//119 127//127 118//118
f 119//119 120//120 127//127
f 120//120 101//101 128//128
f 99//99 101//101 120//120
f 100//100 98//98 129//129
f 130//130 128//128 112//112
f 128//128 101//101 112//112
f 92//92 131//131 102//102
f 92//92 113//113 131//131
f 132//132 114//114 102//102
f 103//103 122//122 133//133
f 122//122 95//95 134//134
f 115//115 135//135 95//95
f 124//124 107//107 116//116
f 117//117 126//126 123//123
f 110//110 125//125 136//136
f 110//110 129//129 98//98
f 100//100 129//129 137//137
f 100//100 137//137 121//121
f 103//103 133//133 113//113
f 134//134 95//95 135//135
f 116//116 114//114 132//132
f 138//138 116//116 132//132
f 116//116 138//138 124//124
f 115//115 139//139 135//135
f 115//115 123//123 139//139
f 140//140 139//139 123//123
f 126//126 140//140 123//123
f 141//141 140//140 126//126
f 125//125 124//124 142//142
f 118//118 143//143 141//141
f 141//141 126//126 118//118
f 144//144 127//127 145//145
f 127//127 120//120 145//145
f 129//129 110//110 146//146
f 145//145 120//120 128//128
f 147//147 112//112 121//121
f 148//148 102//102 149//149
f 149//149 102//102 131//131
f 113//113 150//150 131//131
f 113//113 133//133 150//150
f 102//102 148//148 132//132
f 124//124 138//138 151//151
f 143//143 118//118 127//127
f 146//146 110//110 136//136
f 152//152 129//129 146//146
f 130//130 145//145 128//128
f 137//137 129//129 152//152
f 153//153 137//137 152//152
f 147//147 130//130 112//112
f 147//147 154//154 130//130
f 131//131 150//150 149//149
f 122//122 134//134 155//155
f 139//139 156//156 135//135
f 124//124 151//151 142//142
f 157//157 125//125 142//142
f 144//144 158//158 143//143
f 127//127 144//144 143//143
f 146//146 159//159 152//152
f 130//130 154//154 145//145
f 121//121 137//137 153//153
f 121//121 153//153 147//147
f 150//150 133//133 160//160
f 133//133 155//155 161//161
f 122//122 155//155 133//133
f 148//148 162//162 138//138
f 148//148 138//138 132//132
f 135//135 163//163 134//134
f 139//139 140//140 164//164
f 156//156 139//139 164//164
f 141//141 164//164 140//140
f 141//141 143//143 165//165
f 136//136 125//125 157//157
f 158//158 165//165 143//143
f 145//145 154//154 166//166
f 152//152 167//167 168//168
f 152//152 168//168 153//153
f 147//147 153//153 169//169
f 150//150 170//170 149//149
f 150//150 160//160 170//170
f 160//160 133//133 161//161
f 134//134 163//163 155//155
f 163//163 135//135 156//156
f 171//171 164//164 141//141
f 165//165 171//171 141//141
f 157//157 172//172 136//136
f 136//136 172//172 146//146
f 144//144 173//173 158//158
f 144//144 145//145 173//173
f 173//173 145//145 166//166
f 152//152 159//159 167//167
f 153//153 168//168 174//174
f 153//153 174//174 169//169
f 166//166 147//147 169//169
f 154//154 147//147 166//166
f 148//148 175//175 176//176
f 149//149 170//170 148//148
f 148//148 170//170 175//175
f 162//162 148//148 176//176
f 151//151 162//162 177//177
f 138//138 162//162 151//151
f 156//156 164//164 178//178
f 177//177 142//142 151//151
f 142//142 177//177 157//157
f 164//164 171//171 178//178
f 173//173 165//165 158//158
f 159//159 179//179 167//167
f 169//169 174//174 166//166
f 168//168 167//167 180//180
f 161//161 155//155 181//181
f 156//156 182//182 163//163
f 182//182 156//156 178//178
f 177//177 183//183 184//184
f 184//184 157//157 177//177
f 184//184 172//172 157//157
f 172//172 185//185 159//159
f 146//146 172//172 159//159
f 165//165 173//173 186//186
f 186//186 173//173 187//187
f 187//187 173//173 166//166
f 166//166 174//174 187//187
f 168//168 180//180 174//174
f 160//160 188//188 170//170
f 160//160 161//161 188//188
f 162//162 176//176 189//189
f 190//190 181//181 155//155
f 190//190 155//155 163//163
f 162//162 189//189 177//177
f 182//182 178//178 191//191
f 189//189 183//183 177//177
f 191//191 171//171 192//192
f 191//191 178//178 171//171
f 171//171 165//165 192//192
f 165//165 186//186 193//193
f 159//159 185//185 179//179
f 167//167 179//179 180//180
f 187//187 174//174 194//194
f 194//194 174//174 180//180
f 170//170 188//188 175//175
f 161//161 181//181 188//188
f 163//163 191//191 190//190
f 191//191 163//163 182//182
f 184//184 195//195 172//172
f 192//192 165//165 193//193
f 195//195 185//185 172//172
f 185//185 196//196 179//179
f 197//197 187//187 194//194
f 186//186 187//187 197//197
f 180//180 179//179 196//196
f 175//175 188//188 198//198
f 199//199 176//176 175//175
f 188//188 181//181 198//198
f 176//176 199//199 189//189
f 183//183 189//189 200//200
f 193//193 201//201 192//192
f 195//195 202//202 185//185
f 185//185 202//202 196//196
f 186//186 197//197 193//193
f 180//180 196//196 203//203
f 197//197 194//194 203//203
f 194//194 180//180 203//203
f 199//199 175//175 198//198
f 190//190 204//204 181//181
f 190//190 191//191 204//204
f 189//189 199//199 200//200
f 204//204 191//191 205//205
f 191//191 192//192 205//205
f 192//192 201//201 205//205
f 200//200 184//184 183//183
f 200//200 195//195 184//184
f 206//206 201//201 193//193
f 193//193 197//197 206//206
f 197//197 203//203 206//206
f 199//199 198//198 207//207
f 208//208 198//198 181//181
f 181//181 204//204 208//208
f 199//199 207//207 209//209
f 199//199 209//209 200//200
f 208//208 204//204 205//205
f 210//210 205//205 201//201
f 195//195 200//200 211//211
f 212//212 195//195 211//211
f 202//202 195//195 212//212
f 201//201 206//206 210//210
f 210//210 203//203 212//212
f 203//203 202//202 212//212
f 206//206 203//203 210//210
f 203//203 196//196 202//202
f 207//207 198//198 213//213
f 198//198 208//208 213//213
f 209//209 207//207 213//213
f 213//213 208//208 214//214
f 205//205 214//214 208//208
f 213//213 211//211 209//209
f 209//209 211//211 200//200
f 215//215 211//211 213//213
f 214//214 210//210 215//215
f 205//205 210//210 214//214
f 212//212 211//211 215//215
f 210//210 212//212 215//215
f 214//214 215//215 213//213
