# Blender v2.92.0 OBJ File: 'convert_to_one_sided.blend'
# www.blender.org
mtllib 1086L.mtl
o Cube
v 0.001000 0.001000 -0.001000
v 0.001000 -0.001000 -0.001000
v 0.001000 0.001000 0.001000
v 0.001000 -0.001000 0.001000
v -0.001000 0.001000 -0.001000
v -0.001000 -0.001000 -0.001000
v -0.001000 0.001000 0.001000
v -0.001000 -0.001000 0.001000
vt 0.625000 0.500000
vt 0.875000 0.500000
vt 0.875000 0.750000
vt 0.625000 0.750000
vt 0.375000 0.750000
vt 0.625000 1.000000
vt 0.375000 1.000000
vt 0.375000 0.000000
vt 0.625000 0.000000
vt 0.625000 0.250000
vt 0.375000 0.250000
vt 0.125000 0.500000
vt 0.375000 0.500000
vt 0.125000 0.750000
vn 0.0000 1.0000 0.0000
vn 0.0000 0.0000 1.0000
vn -1.0000 0.0000 0.0000
vn 0.0000 -1.0000 0.0000
vn 1.0000 0.0000 0.0000
vn 0.0000 0.0000 -1.0000
usemtl Material
s off
f 1/1/1 5/2/1 7/3/1 3/4/1
f 4/5/2 3/4/2 7/6/2 8/7/2
f 8/8/3 7/9/3 5/10/3 6/11/3
f 6/12/4 2/13/4 4/5/4 8/14/4
f 2/13/5 1/1/5 3/4/5 4/5/5
f 6/11/6 5/10/6 1/1/6 2/13/6
o 1086
v 6.919361 1.112425 3.119270
v 6.969170 1.108315 3.124460
v 6.928941 1.093715 3.133410
v 6.990890 1.082336 3.136510
v 6.957901 1.046866 3.197079
v 7.016059 1.062396 3.170009
v 7.016749 1.100235 3.150090
v 6.868462 1.117915 3.141990
v 6.986370 1.130835 3.138800
v 6.906491 1.140605 3.141140
v 6.829332 1.142185 3.153530
v 6.855412 1.064916 3.219389
v 6.803802 1.118725 3.186139
v 6.790143 1.144465 3.177339
v 7.016019 1.134225 3.158890
v 6.830202 1.160585 3.165910
v 6.888631 1.173754 3.161750
v 6.957261 1.153625 3.157570
v 7.000460 1.031036 3.225799
v 7.031529 1.066286 3.206019
v 7.014600 1.039486 3.234199
v 7.030340 1.108135 3.197219
v 6.750563 1.119575 3.233699
v 6.760613 1.152865 3.237859
v 7.022860 1.136545 3.179489
v 6.991540 1.150745 3.186629
v 6.897661 1.178284 3.183109
v 6.829562 1.176814 3.197379
v 6.833202 0.991897 3.392497
v 6.962990 0.995728 3.333197
v 6.751963 1.069166 3.295878
v 7.026710 1.058926 3.271798
v 6.708034 1.107995 3.310158
v 7.020579 1.123205 3.213579
v 6.783843 1.179634 3.244458
v 6.902821 1.139975 3.305488
v 6.835702 1.176244 3.244948
v 7.000380 1.014786 3.300428
v 7.013110 1.029336 3.296978
v 7.016500 1.077116 3.291838
v 6.986530 1.111025 3.275798
v 6.736523 1.155174 3.313228
v 6.781463 1.034356 3.335737
v 6.689254 1.116695 3.373407
v 6.812902 1.157135 3.330947
v 6.711423 1.087345 3.316548
v 6.773513 1.158074 3.327407
v 7.002060 1.018316 3.379517
v 6.769153 1.117615 3.451726
v 6.691744 1.057076 3.373317
v 6.996140 1.029916 3.409156
v 6.671684 1.076376 3.398596
v 6.689744 1.132215 3.409356
v 6.722114 1.138255 3.395696
v 6.911891 0.949995 3.463956
v 6.980610 0.986657 3.392577
v 6.685024 1.014166 3.461926
v 6.970940 1.063056 3.389347
v 6.950151 0.966365 3.421836
v 6.650535 1.035286 3.465605
v 6.688014 1.128375 3.441686
v 6.623674 1.070726 3.516675
v 6.791403 0.926841 3.597384
v 6.629565 1.009246 3.525485
v 6.616605 1.033306 3.527495
v 6.974680 1.011916 3.487675
v 6.872181 1.055516 3.513575
v 6.936741 0.939819 3.512515
v 6.960821 0.968271 3.560534
v 6.947161 1.029206 3.490185
v 6.648424 1.100675 3.494205
v 6.672134 1.111995 3.495935
v 6.703214 1.117605 3.472915
v 6.958220 0.957013 3.518525
v 6.611095 1.008586 3.554354
v 6.927621 0.989036 3.602754
v 6.868961 0.902672 3.629814
v 6.636734 0.937345 3.701353
v 6.608075 0.989903 3.599944
v 6.947821 0.975825 3.589174
v 6.667824 1.092485 3.566124
v 6.911941 0.904899 3.620124
v 6.929770 0.918570 3.601044
v 6.581495 1.004986 3.619234
v 6.586605 1.030556 3.603354
v 6.577045 1.043066 3.670103
v 6.615955 1.072866 3.586234
v 6.641674 1.088045 3.562904
v 6.930251 0.918559 3.651623
v 6.884861 0.879591 3.702733
v 6.830002 0.996453 3.693143
v 6.906541 0.892694 3.692353
v 6.925981 0.942225 3.682413
v 6.876711 0.945959 3.756622
v 6.545576 0.998950 3.721272
v 6.709634 1.040866 3.682173
v 6.618395 1.058556 3.654313
v 6.750293 0.882979 3.769382
v 6.923131 0.920312 3.702913
v 6.572215 1.040366 3.738682
v 6.844352 0.854630 3.808821
v 6.562146 0.972759 3.715772
v 6.529086 1.009716 3.788821
v 6.903441 0.889783 3.755162
v 6.547716 1.025496 3.782512
v 6.502186 0.955874 3.835751
v 6.505196 0.983767 3.830841
v 6.576575 1.023616 3.801821
v 6.880402 0.868245 3.784192
v 6.530576 0.938673 3.822231
v 6.863061 0.845332 3.884660
v 6.890421 0.903796 3.799911
v 6.779663 0.965873 3.816651
v 6.487856 0.985504 3.899400
v 6.873572 0.868754 3.860701
v 6.633305 0.872862 3.891430
v 6.730073 0.829851 3.955309
v 6.502866 0.902498 3.940160
v 6.495226 0.931256 3.890710
v 6.844322 0.906340 3.888430
v 6.473937 0.959954 3.924050
v 6.676794 0.980773 3.862090
v 6.520516 0.999268 3.872880
v 6.851402 0.859829 3.961209
v 6.823412 0.824915 3.961989
v 6.468216 0.933459 3.947689
v 6.454877 0.961664 3.993819
v 6.844481 0.836482 3.978769
v 6.423868 0.934661 4.049268
v 6.482167 0.975700 3.968109
v 6.564936 0.968339 3.961669
v 6.708794 0.926068 3.976269
v 6.780323 0.790429 4.081558
v 6.801743 0.871590 4.019008
v 6.678644 0.806441 4.070837
v 6.817452 0.803420 4.054148
v 6.423897 0.909092 4.056438
v 6.831052 0.826516 4.064448
v 6.577305 0.841770 4.048328
v 6.818422 0.810023 4.101107
v 6.449797 0.875172 4.090737
v 6.415547 0.942336 4.086827
v 6.460667 0.953847 4.053018
v 6.803903 0.791329 4.096367
v 6.807053 0.832358 4.102437
v 6.374428 0.909892 4.152757
v 6.625455 0.787444 4.246126
v 6.786903 0.787799 4.162607
v 6.376028 0.922175 4.164576
v 6.537166 0.911701 4.151846
v 6.795972 0.801323 4.163416
v 6.437167 0.840309 4.241076
v 6.385608 0.889129 4.171966
v 6.724324 0.861010 4.127587
v 6.416217 0.928311 4.156726
v 6.788103 0.793789 4.177706
v 6.738913 0.781881 4.193926
v 6.333059 0.893465 4.242735
v 6.322968 0.897637 4.271325
v 6.369518 0.920629 4.212026
v 6.757733 0.805165 4.207616
v 6.343909 0.869380 4.282035
v 6.626535 0.828324 4.282445
v 6.338968 0.907540 4.264605
v 6.754333 0.784067 4.238086
v 6.716884 0.777444 4.269105
v 6.298189 0.892158 4.332694
v 6.381158 0.911709 4.246396
v 6.312409 0.846085 4.402653
v 6.301519 0.879697 4.341484
v 6.308849 0.892281 4.347914
v 6.650135 0.768462 4.348664
v 6.436587 0.806302 4.411283
v 6.575145 0.778493 4.391044
v 6.700253 0.772522 4.313324
v 6.276519 0.881403 4.386784
v 6.433797 0.859347 4.356314
v 6.688044 0.773343 4.330554
v 6.626655 0.775788 4.380613
v 6.547036 0.815205 4.368664
v 6.652944 0.765140 4.368033
v 6.487287 0.806472 4.430143
v 6.262849 0.873774 4.416363
v 6.635994 0.773531 4.382504
v 6.248650 0.868909 4.458703
v 6.318229 0.836624 4.477612
v 6.235770 0.855767 4.464942
v 6.305209 0.865127 4.419393
v 6.521066 0.788147 4.439373
v 6.577415 0.778067 4.418473
v 6.622485 0.769094 4.388184
v 6.567515 0.775618 4.413963
v 6.312709 0.829814 4.478222
v 6.259359 0.851292 4.495072
v 6.493906 0.787686 4.448773
v 6.256410 0.853264 4.459612
v 6.442827 0.801693 4.469353
v 6.493556 0.791940 4.448663
v 6.366538 0.818314 4.486112
v 6.231890 0.856154 4.497552
v 6.232650 0.847041 4.488503
v 6.413677 0.803309 4.471303
v 6.395257 0.806069 4.484663
v 6.426167 0.796098 4.468952
v 6.288739 0.832904 4.501002
v 6.239020 0.834997 4.490962
v 6.348488 0.811300 4.484302
v 6.248990 0.839438 4.493382
v 6.283969 0.822727 4.488092
vn -0.1724 -0.0378 -0.9843
vn 0.2090 0.0257 -0.9776
vn -0.1790 -0.6512 -0.7375
vn 0.2225 -0.5654 -0.7942
vn -0.0973 -0.8814 -0.4622
vn 0.5233 -0.6991 -0.4873
vn 0.7529 -0.0381 -0.6570
vn -0.4071 -0.3411 -0.8473
vn 0.3128 0.4941 -0.8112
vn -0.0699 0.4799 -0.8745
vn -0.3967 0.0656 -0.9156
vn -0.3361 -0.7976 -0.5008
vn -0.5137 -0.5466 -0.6613
vn -0.6822 0.1451 -0.7166
vn 0.6586 0.5922 -0.4643
vn -0.3551 0.6596 -0.6624
vn -0.0178 0.8244 -0.5658
vn 0.2373 0.8293 -0.5059
vn 0.2915 -0.9026 -0.3168
vn 0.9273 -0.3351 -0.1670
vn 0.6837 -0.7081 -0.1766
vn 0.9806 0.1935 -0.0320
vn -0.7780 -0.2526 -0.5753
vn -0.7140 0.5756 -0.3987
vn 0.7721 0.6354 -0.0034
vn 0.3991 0.9128 0.0873
vn 0.1615 0.9859 -0.0441
vn -0.2281 0.9306 -0.2864
vn -0.2332 -0.9006 -0.3668
vn 0.1097 -0.9491 -0.2953
vn -0.4758 -0.7236 -0.5000
vn 0.9885 -0.0594 0.1394
vn -0.9005 0.0841 -0.4267
vn 0.6971 0.6379 0.3271
vn -0.2897 0.9546 -0.0697
vn 0.3261 0.8793 0.3470
vn 0.0899 0.9830 0.1600
vn 0.5356 -0.8306 -0.1526
vn 0.8404 -0.5419 -0.0093
vn 0.8439 0.4291 0.3219
vn 0.5008 0.7685 0.3983
vn -0.4851 0.8740 -0.0280
vn -0.3351 -0.8461 -0.4146
vn -0.8425 0.4702 -0.2629
vn 0.1354 0.9442 0.3002
vn -0.7560 -0.4178 -0.5039
vn -0.0537 0.9696 0.2388
vn 0.9598 -0.2424 0.1415
vn 0.1575 0.9276 0.3389
vn -0.6635 -0.5796 -0.4730
vn 0.8858 0.3512 0.3032
vn -0.9021 -0.1074 -0.4180
vn -0.4862 0.8737 0.0128
vn -0.0560 0.9773 0.2045
vn -0.0276 -0.9515 -0.3065
vn 0.6109 -0.7844 -0.1077
vn -0.3941 -0.8279 -0.3990
vn 0.5422 0.7505 0.3777
vn 0.2554 -0.9328 -0.2545
vn -0.7185 -0.5103 -0.4726
vn -0.1378 0.9708 0.1965
vn -0.8901 0.3813 -0.2496
vn -0.2153 -0.9249 -0.3132
vn -0.5299 -0.7355 -0.4223
vn -0.8983 -0.1426 -0.4156
vn 0.7349 0.5718 0.3646
vn 0.3643 0.8515 0.3771
vn 0.3541 -0.9121 -0.2065
vn 0.9709 -0.0116 0.2391
vn 0.4777 0.7953 0.3732
vn -0.6442 0.7646 -0.0211
vn -0.2603 0.9446 0.1999
vn 0.0510 0.9587 0.2798
vn 0.7999 -0.6000 -0.0074
vn -0.7391 -0.5296 -0.4162
vn 0.5488 0.7420 0.3849
vn -0.0618 -0.9567 -0.2844
vn -0.3500 -0.8742 -0.3365
vn -0.5188 -0.7836 -0.3418
vn 0.8127 0.4549 0.3640
vn -0.0146 0.9527 0.3034
vn 0.3060 -0.9296 -0.2057
vn 0.6378 -0.7649 -0.0900
vn -0.8530 -0.3721 -0.3659
vn -0.9410 0.1581 -0.2993
vn -0.6996 0.7098 -0.0819
vn -0.5599 0.8262 0.0627
vn -0.3309 0.9248 0.1876
vn 0.8624 -0.5021 0.0639
vn 0.2431 -0.9532 -0.1797
vn 0.3642 0.8575 0.3635
vn 0.6187 -0.7841 -0.0487
vn 0.8231 0.4305 0.3703
vn 0.5581 0.7355 0.3841
vn -0.9418 0.0524 -0.3320
vn 0.2105 0.9142 0.3462
vn -0.1636 0.9612 0.2220
vn -0.2047 -0.9345 -0.2911
vn 0.9628 -0.0780 0.2586
vn -0.2551 0.9590 0.1236
vn 0.0635 -0.9760 -0.2081
vn -0.6742 -0.6321 -0.3820
vn -0.7556 0.6431 -0.1247
vn 0.8890 -0.4322 0.1514
vn -0.4233 0.8998 0.1058
vn -0.8582 -0.3375 -0.3867
vn -0.9268 0.2522 -0.2781
vn 0.0295 0.9582 0.2847
vn 0.5987 -0.8003 -0.0343
vn -0.5502 -0.7397 -0.3874
vn 0.6178 -0.7860 -0.0229
vn 0.8999 0.2727 0.3404
vn 0.3406 0.8696 0.3574
vn -0.7010 0.7085 -0.0807
vn 0.9415 -0.2937 0.1655
vn -0.2703 -0.9163 -0.2956
vn -0.1478 -0.9518 -0.2687
vn -0.4915 -0.8044 -0.3337
vn -0.6699 -0.6561 -0.3475
vn 0.5472 0.7526 0.3663
vn -0.9410 0.1797 -0.2868
vn 0.2343 0.9076 0.3483
vn -0.2590 0.9506 0.1712
vn 0.8829 0.3557 0.3066
vn 0.2774 -0.9477 -0.1577
vn -0.8512 -0.3764 -0.3658
vn -0.6478 0.7592 -0.0627
vn 0.8747 -0.4773 0.0835
vn -0.9077 0.2464 -0.3397
vn -0.2109 0.9626 0.1698
vn 0.1350 0.9411 0.3101
vn 0.3035 0.8867 0.3489
vn 0.0425 -0.9863 -0.1593
vn 0.4792 0.8028 0.3547
vn -0.1996 -0.9544 -0.2218
vn 0.5909 -0.8049 -0.0542
vn -0.7594 -0.5136 -0.3994
vn 0.9533 0.1054 0.2829
vn -0.2875 -0.9237 -0.2531
vn 0.8813 -0.4326 0.1901
vn -0.4632 -0.8381 -0.2883
vn -0.4733 0.8809 -0.0080
vn -0.0689 0.9744 0.2142
vn 0.3863 -0.9213 -0.0440
vn 0.6269 0.6741 0.3906
vn -0.9022 -0.0886 -0.4221
vn -0.1748 -0.9737 -0.1458
vn 0.4970 -0.8600 0.1156
vn -0.6122 0.7777 -0.1429
vn 0.2134 0.9228 0.3209
vn 0.8738 0.1834 0.4504
vn -0.3481 -0.9075 -0.2350
vn -0.5854 -0.7345 -0.3431
vn 0.3600 0.8530 0.3779
vn -0.0419 0.9842 0.1722
vn 0.8427 -0.4330 0.3200
vn 0.0333 -0.9980 -0.0534
vn -0.8003 -0.4572 -0.3880
vn -0.8880 0.3301 -0.3201
vn -0.1479 0.9842 0.0969
vn 0.5863 0.6381 0.4990
vn -0.5297 -0.7896 -0.3100
vn 0.3594 0.8328 0.4210
vn -0.3547 0.9348 0.0208
vn 0.8054 -0.3493 0.4789
vn 0.2078 -0.9771 0.0449
vn -0.5583 0.8254 -0.0843
vn 0.0877 0.9638 0.2520
vn -0.4582 -0.8530 -0.2500
vn -0.8014 -0.4766 -0.3615
vn -0.0042 0.9727 0.2320
vn 0.0523 -0.9970 0.0569
vn -0.2245 -0.9716 -0.0751
vn -0.0894 -0.9913 0.0966
vn 0.7211 0.3294 0.6095
vn -0.9059 0.3008 -0.2982
vn 0.2507 0.8903 0.3800
vn 0.5429 -0.7476 0.3825
vn 0.4806 0.6169 0.6233
vn 0.3227 0.8418 0.4328
vn 0.6535 -0.1898 0.7328
vn 0.3361 0.7470 0.5736
vn -0.2648 0.9467 0.1834
vn 0.2749 -0.8284 0.4881
vn -0.8467 -0.4161 -0.3317
vn 0.1975 0.7235 0.6615
vn -0.6154 0.7759 0.1390
vn 0.1568 0.9095 0.3850
vn -0.0097 -0.9392 0.3433
vn 0.3325 -0.4768 0.8137
vn 0.5227 0.0208 0.8522
vn 0.4315 0.4575 0.7774
vn -0.2912 -0.9566 0.0118
vn -0.4737 -0.8790 0.0549
vn 0.3713 0.2675 0.8891
vn 0.0314 0.8906 0.4536
vn 0.0357 -0.8464 0.5313
vn 0.2203 -0.4805 0.8489
vn -0.1444 -0.8907 0.4311
vn -0.8115 -0.2525 0.5269
vn -0.8286 0.5210 0.2047
vn 0.2845 0.4600 0.8411
vn 0.0806 -0.4406 0.8941
vn 0.2884 -0.0341 0.9569
vn -0.1259 -0.5465 0.8280
vn -0.0197 0.7076 0.7063
vn 0.1469 0.1519 0.9774
vn -0.1656 -0.0647 0.9841
vn 0.1567 0.4587 0.8747
usemtl mtl1.098
s 1
f 9//7 10//8 11//9
f 11//9 12//10 13//11
f 14//12 12//10 15//13
f 11//9 16//14 9//7
f 12//10 11//9 10//8
f 15//13 12//10 10//8
f 15//13 10//8 17//15
f 9//7 16//14 18//16
f 18//16 16//14 19//17
f 9//7 18//16 10//8
f 18//16 17//15 10//8
f 11//9 13//11 20//18
f 14//12 13//11 12//10
f 16//14 20//18 21//19
f 11//9 20//18 16//14
f 19//17 21//19 22//20
f 16//14 21//19 19//17
f 17//15 23//21 15//13
f 19//17 22//20 24//22
f 18//16 19//17 24//22
f 24//22 25//23 18//16
f 18//16 26//24 17//15
f 25//23 26//24 18//16
f 23//21 17//15 26//24
f 14//12 27//25 13//11
f 14//12 28//26 29//27
f 14//12 15//13 28//26
f 28//26 15//13 30//28
f 15//13 23//21 30//28
f 22//20 21//19 31//29
f 32//30 22//20 31//29
f 30//28 23//21 33//31
f 22//20 32//30 24//22
f 34//32 23//21 26//24
f 23//21 34//32 33//31
f 26//24 25//23 35//33
f 34//32 26//24 35//33
f 25//23 24//22 36//34
f 20//18 13//11 37//35
f 27//25 14//12 29//27
f 24//22 32//30 36//34
f 25//23 36//34 35//33
f 27//25 38//36 13//11
f 39//37 21//19 20//18
f 39//37 31//29 21//19
f 28//26 30//28 40//38
f 31//29 41//39 32//30
f 30//28 33//31 42//40
f 42//40 33//31 34//32
f 32//30 43//41 36//34
f 34//32 35//33 44//42
f 35//33 36//34 45//43
f 35//33 45//43 44//42
f 13//11 38//36 37//35
f 29//27 46//44 27//25
f 47//45 29//27 28//26
f 40//38 47//45 28//26
f 42//40 48//46 30//28
f 44//42 49//47 34//32
f 49//47 42//40 34//32
f 32//30 50//48 43//41
f 36//34 43//41 45//43
f 38//36 27//25 46//44
f 47//45 46//44 29//27
f 37//35 51//49 20//18
f 40//38 30//28 48//46
f 42//40 49//47 48//46
f 52//50 32//30 41//39
f 50//48 32//30 52//50
f 53//51 44//42 45//43
f 31//29 39//37 54//52
f 41//39 31//29 54//52
f 55//53 43//41 50//48
f 45//43 43//41 55//53
f 45//43 55//53 53//51
f 51//49 39//37 20//18
f 56//54 47//45 40//38
f 56//54 40//38 48//46
f 57//55 44//42 53//51
f 58//56 54//52 39//37
f 56//54 48//46 59//57
f 54//52 60//58 41//39
f 61//59 50//48 52//50
f 55//53 50//48 62//60
f 38//36 63//61 37//35
f 38//36 46//44 64//62
f 64//62 46//44 47//45
f 65//63 39//37 51//49
f 65//63 58//56 39//37
f 54//52 58//56 60//58
f 52//50 41//39 60//58
f 44//42 66//64 49//47
f 62//60 50//48 61//59
f 57//55 53//51 55//53
f 38//36 67//65 63//61
f 67//65 38//36 64//62
f 65//63 51//49 37//35
f 58//56 68//66 60//58
f 61//59 69//67 62//60
f 48//46 66//64 59//57
f 60//58 70//68 52//50
f 48//46 49//47 66//64
f 62//60 57//55 55//53
f 37//35 63//61 71//69
f 64//62 47//45 56//54
f 68//66 65//63 72//70
f 65//63 68//66 58//56
f 60//58 68//66 73//71
f 73//71 70//68 60//58
f 66//64 74//72 59//57
f 44//42 75//73 66//64
f 63//61 67//65 76//74
f 56//54 59//57 77//75
f 77//75 59//57 74//72
f 66//64 78//76 74//72
f 70//68 79//77 52//50
f 79//77 61//59 52//50
f 80//78 61//59 79//77
f 69//67 61//59 80//78
f 81//79 62//60 69//67
f 57//55 62//60 81//79
f 64//62 76//74 67//65
f 82//80 64//62 56//54
f 77//75 82//80 56//54
f 68//66 72//70 83//81
f 68//66 83//81 73//71
f 75//73 78//76 66//64
f 75//73 44//42 57//55
f 69//67 80//78 81//79
f 82//80 76//74 64//62
f 74//72 78//76 84//82
f 63//61 85//83 71//69
f 63//61 76//74 85//83
f 37//35 71//69 86//84
f 72//70 65//63 87//85
f 77//75 74//72 88//86
f 57//55 81//79 89//87
f 76//74 90//88 85//83
f 76//74 91//89 90//88
f 37//35 86//84 65//63
f 83//81 92//90 73//71
f 92//90 93//91 73//71
f 84//82 88//86 74//72
f 73//71 93//91 70//68
f 93//91 94//92 70//68
f 79//77 70//68 95//93
f 96//94 79//77 95//93
f 80//78 79//77 96//94
f 81//79 80//78 89//87
f 91//89 76//74 82//80
f 82//80 77//75 97//95
f 87//85 83//81 72//70
f 75//73 84//82 78//76
f 95//93 70//68 94//92
f 80//78 96//94 89//87
f 90//88 98//96 85//83
f 97//95 91//89 82//80
f 86//84 87//85 65//63
f 92//90 83//81 87//85
f 99//97 84//82 75//73
f 100//98 90//88 91//89
f 84//82 101//99 88//86
f 84//82 99//97 102//100
f 93//91 103//101 94//92
f 104//102 75//73 57//55
f 95//93 105//103 96//94
f 90//88 100//98 98//96
f 97//95 100//98 91//89
f 77//75 88//86 101//99
f 103//101 93//91 92//90
f 104//102 99//97 75//73
f 94//92 105//103 95//93
f 57//55 89//87 104//102
f 89//87 96//94 105//103
f 71//69 85//83 106//104
f 107//105 97//95 77//75
f 77//75 101//99 107//105
f 101//99 84//82 102//100
f 108//106 105//103 94//92
f 89//87 105//103 104//102
f 106//104 85//83 109//107
f 85//83 98//96 109//107
f 86//84 71//69 106//104
f 110//108 87//85 86//84
f 110//108 92//90 87//85
f 110//108 103//101 92//90
f 103//101 111//109 94//92
f 97//95 112//110 100//98
f 94//92 113//111 108//106
f 107//105 112//110 97//95
f 110//108 114//112 103//101
f 114//112 115//113 103//101
f 115//113 111//109 103//101
f 94//92 111//109 113//111
f 105//103 108//106 116//114
f 116//114 104//102 105//103
f 109//107 98//96 117//115
f 100//98 117//115 98//96
f 117//115 100//98 112//110
f 110//108 118//116 114//112
f 118//116 110//108 86//84
f 108//106 113//111 116//114
f 117//115 119//117 109//107
f 120//118 107//105 101//99
f 101//99 102//100 120//118
f 121//119 102//100 99//97
f 122//120 111//109 115//113
f 121//119 99//97 104//102
f 123//121 119//117 117//115
f 123//121 117//115 112//110
f 106//104 124//122 86//84
f 112//110 107//105 120//118
f 109//107 125//123 106//104
f 86//84 126//124 118//116
f 112//110 120//118 123//121
f 118//116 127//125 114//112
f 120//118 102//100 128//126
f 114//112 129//127 115//113
f 130//128 121//119 104//102
f 111//109 131//129 113//111
f 130//128 104//102 116//114
f 126//124 86//84 124//122
f 118//116 126//124 127//125
f 120//118 128//126 132//130
f 102//100 121//119 128//126
f 122//120 115//113 129//127
f 111//109 122//120 131//129
f 113//111 131//129 116//114
f 119//117 133//131 109//107
f 114//112 127//125 134//132
f 134//132 129//127 114//112
f 129//127 135//133 122//120
f 109//107 133//131 125//123
f 106//104 125//123 124//122
f 119//117 123//121 136//134
f 137//135 129//127 134//132
f 122//120 138//136 131//129
f 116//114 139//137 130//128
f 133//131 119//117 136//134
f 123//121 120//118 132//130
f 126//124 134//132 127//125
f 122//120 135//133 138//136
f 121//119 130//128 140//138
f 116//114 131//129 139//137
f 133//131 141//139 125//123
f 136//134 123//121 132//130
f 142//140 132//130 128//126
f 140//138 128//126 121//119
f 129//127 137//135 135//133
f 140//138 130//128 139//137
f 131//129 138//136 139//137
f 143//141 125//123 141//139
f 144//142 133//131 136//134
f 134//132 126//124 145//143
f 132//130 146//144 136//134
f 128//126 140//138 142//140
f 133//131 144//142 141//139
f 125//123 147//145 124//122
f 148//146 144//142 136//134
f 149//147 126//124 147//145
f 147//145 126//124 124//122
f 145//143 126//124 149//147
f 134//132 145//143 137//135
f 137//135 150//148 135//133
f 138//136 135//133 151//149
f 152//150 141//139 144//142
f 125//123 143//141 147//145
f 153//151 146//144 132//130
f 132//130 142//140 153//151
f 145//143 154//152 137//135
f 138//136 151//149 139//137
f 148//146 136//134 146//144
f 135//133 150//148 151//149
f 143//141 155//153 147//145
f 144//142 156//154 152//150
f 156//154 144//142 148//146
f 157//155 137//135 154//152
f 137//135 157//155 150//148
f 139//137 158//156 140//138
f 151//149 158//156 139//137
f 152//150 156//154 141//139
f 148//146 146//144 159//157
f 160//158 149//147 147//145
f 146//144 153//151 159//157
f 145//143 161//159 154//152
f 162//160 142//140 140//138
f 163//161 150//148 157//155
f 162//160 140//138 158//156
f 151//149 150//148 163//161
f 143//141 141//139 155//153
f 164//162 156//154 148//146
f 164//162 148//146 159//157
f 161//159 145//143 149//147
f 142//140 162//160 153//151
f 141//139 165//163 155//153
f 141//139 156//154 165//163
f 160//158 161//159 149//147
f 154//152 161//159 166//164
f 154//152 166//164 167//165
f 157//155 168//166 163//161
f 151//149 163//161 158//156
f 160//158 147//145 155//153
f 153//151 169//167 159//157
f 161//159 170//168 166//164
f 169//167 153//151 162//160
f 158//156 171//169 162//160
f 167//165 157//155 154//152
f 172//170 157//155 167//165
f 157//155 172//170 168//166
f 156//154 164//162 173//171
f 160//158 170//168 161//159
f 171//169 169//167 162//160
f 155//153 165//163 174//172
f 156//154 174//172 165//163
f 174//172 156//154 173//171
f 167//165 175//173 172//170
f 163//161 168//166 176//174
f 158//156 163//161 176//174
f 164//162 159//157 173//171
f 173//171 159//157 169//167
f 177//175 170//168 160//158
f 166//164 170//168 178//176
f 167//165 166//164 178//176
f 168//166 172//170 176//174
f 172//170 179//177 176//174
f 155//153 174//172 180//178
f 181//179 155//153 182//180
f 160//158 181//179 177//175
f 155//153 181//179 160//158
f 183//181 173//171 169//167
f 178//176 184//182 167//165
f 175//173 167//165 184//182
f 185//183 171//169 158//156
f 179//177 172//170 175//173
f 158//156 176//174 185//183
f 174//172 173//171 186//184
f 183//181 169//167 171//169
f 179//177 185//183 176//174
f 174//172 186//184 180//178
f 155//153 180//178 182//180
f 171//169 187//185 183//181
f 185//183 188//186 171//169
f 183//181 186//184 173//171
f 188//186 187//185 171//169
f 177//175 178//176 170//168
f 183//181 189//187 186//184
f 183//181 187//185 189//187
f 185//183 190//188 188//186
f 191//189 175//173 184//182
f 179//177 175//173 191//189
f 180//178 186//184 192//190
f 192//190 182//180 180//178
f 178//176 177//175 193//191
f 178//176 193//191 184//182
f 194//192 190//188 185//183
f 184//182 195//193 191//189
f 191//189 196//194 179//177
f 196//194 185//183 179//177
f 192//190 186//184 189//187
f 182//180 197//195 181//179
f 192//190 198//196 182//180
f 198//196 197//195 182//180
f 199//197 198//196 192//190
f 192//190 189//187 199//197
f 189//187 187//185 199//197
f 187//185 200//198 199//197
f 177//175 181//179 201//199
f 193//191 177//175 202//200
f 202//200 177//175 201//199
f 188//186 190//188 187//185
f 200//198 187//185 190//188
f 193//191 195//193 184//182
f 200//198 203//201 198//196
f 199//197 200//198 198//196
f 200//198 190//188 203//201
f 191//189 195//193 204//202
f 191//189 204//202 196//194
f 205//203 197//195 206//204
f 197//195 198//196 206//204
f 181//179 205//203 207//205
f 197//195 205//203 181//179
f 206//204 198//196 203//201
f 207//205 201//199 181//179
f 193//191 208//206 209//207
f 202//200 208//206 193//191
f 190//188 210//208 203//201
f 193//191 209//207 195//193
f 185//183 196//194 194//192
f 205//203 211//209 207//205
f 212//210 211//209 205//203
f 205//203 206//204 212//210
f 201//199 207//205 213//211
f 206//204 203//201 212//210
f 212//210 203//201 210//208
f 190//188 194//192 210//208
f 195//193 209//207 214//212
f 195//193 214//212 204//202
f 196//194 204//202 194//192
f 207//205 211//209 215//213
f 215//213 211//209 212//210
f 202//200 216//214 208//206
f 213//211 202//200 201//199
f 216//214 202//200 213//211
f 212//210 210//208 215//213
f 215//213 210//208 194//192
f 208//206 214//212 209//207
f 213//211 207//205 215//213
f 215//213 217//215 213//211
f 208//206 216//214 214//212
f 217//215 214//212 216//214
f 217//215 194//192 214//212
f 215//213 194//192 217//215
f 194//192 204//202 214//212
f 213//211 217//215 216//214
