# Blender v2.92.0 OBJ File: 'convert_to_one_sided.blend'
# www.blender.org
mtllib 1086L.mtl
o 1086
v 6.919361 1.112425 3.119270
v 6.969170 1.108315 3.124460
v 6.928941 1.093715 3.133410
v 6.990890 1.082336 3.136510
v 6.957901 1.046866 3.197079
v 7.016059 1.062396 3.170009
v 7.016749 1.100235 3.150090
v 6.868462 1.117915 3.141990
v 6.986370 1.130835 3.138800
v 6.906491 1.140605 3.141140
v 6.829332 1.142185 3.153530
v 6.855412 1.064916 3.219389
v 6.803802 1.118725 3.186139
v 6.790143 1.144465 3.177339
v 7.016019 1.134225 3.158890
v 6.830202 1.160585 3.165910
v 6.888631 1.173754 3.161750
v 6.957261 1.153625 3.157570
v 7.000460 1.031036 3.225799
v 7.031529 1.066286 3.206019
v 7.014600 1.039486 3.234199
v 7.030340 1.108135 3.197219
v 6.750563 1.119575 3.233699
v 6.760613 1.152865 3.237859
v 7.022860 1.136545 3.179489
v 6.991540 1.150745 3.186629
v 6.897661 1.178284 3.183109
v 6.829562 1.176814 3.197379
v 6.833202 0.991897 3.392497
v 6.962990 0.995728 3.333197
v 6.751963 1.069166 3.295878
v 7.026710 1.058926 3.271798
v 6.708034 1.107995 3.310158
v 7.020579 1.123205 3.213579
v 6.783843 1.179634 3.244458
v 6.902821 1.139975 3.305488
v 6.835702 1.176244 3.244948
v 7.000380 1.014786 3.300428
v 7.013110 1.029336 3.296978
v 7.016500 1.077116 3.291838
v 6.986530 1.111025 3.275798
v 6.736523 1.155174 3.313228
v 6.781463 1.034356 3.335737
v 6.689254 1.116695 3.373407
v 6.812902 1.157135 3.330947
v 6.711423 1.087345 3.316548
v 6.773513 1.158074 3.327407
v 7.002060 1.018316 3.379517
v 6.769153 1.117615 3.451726
v 6.691744 1.057076 3.373317
v 6.996140 1.029916 3.409156
v 6.671684 1.076376 3.398596
v 6.689744 1.132215 3.409356
v 6.722114 1.138255 3.395696
v 6.911891 0.949995 3.463956
v 6.980610 0.986657 3.392577
v 6.685024 1.014166 3.461926
v 6.970940 1.063056 3.389347
v 6.950151 0.966365 3.421836
v 6.650535 1.035286 3.465605
v 6.688014 1.128375 3.441686
v 6.623674 1.070726 3.516675
v 6.791403 0.926841 3.597384
v 6.629565 1.009246 3.525485
v 6.616605 1.033306 3.527495
v 6.974680 1.011916 3.487675
v 6.872181 1.055516 3.513575
v 6.936741 0.939819 3.512515
v 6.960821 0.968271 3.560534
v 6.947161 1.029206 3.490185
v 6.648424 1.100675 3.494205
v 6.672134 1.111995 3.495935
v 6.703214 1.117605 3.472915
v 6.958220 0.957013 3.518525
v 6.611095 1.008586 3.554354
v 6.927621 0.989036 3.602754
v 6.868961 0.902672 3.629814
v 6.636734 0.937345 3.701353
v 6.608075 0.989903 3.599944
v 6.947821 0.975825 3.589174
v 6.667824 1.092485 3.566124
v 6.911941 0.904899 3.620124
v 6.929770 0.918570 3.601044
v 6.581495 1.004986 3.619234
v 6.586605 1.030556 3.603354
v 6.577045 1.043066 3.670103
v 6.615955 1.072866 3.586234
v 6.641674 1.088045 3.562904
v 6.930251 0.918559 3.651623
v 6.884861 0.879591 3.702733
v 6.830002 0.996453 3.693143
v 6.906541 0.892694 3.692353
v 6.925981 0.942225 3.682413
v 6.876711 0.945959 3.756622
v 6.545576 0.998950 3.721272
v 6.709634 1.040866 3.682173
v 6.618395 1.058556 3.654313
v 6.750293 0.882979 3.769382
v 6.923131 0.920312 3.702913
v 6.572215 1.040366 3.738682
v 6.844352 0.854630 3.808821
v 6.562146 0.972759 3.715772
v 6.529086 1.009716 3.788821
v 6.903441 0.889783 3.755162
v 6.547716 1.025496 3.782512
v 6.502186 0.955874 3.835751
v 6.505196 0.983767 3.830841
v 6.576575 1.023616 3.801821
v 6.880402 0.868245 3.784192
v 6.530576 0.938673 3.822231
v 6.863061 0.845332 3.884660
v 6.890421 0.903796 3.799911
v 6.779663 0.965873 3.816651
v 6.487856 0.985504 3.899400
v 6.873572 0.868754 3.860701
v 6.633305 0.872862 3.891430
v 6.730073 0.829851 3.955309
v 6.502866 0.902498 3.940160
v 6.495226 0.931256 3.890710
v 6.844322 0.906340 3.888430
v 6.473937 0.959954 3.924050
v 6.676794 0.980773 3.862090
v 6.520516 0.999268 3.872880
v 6.851402 0.859829 3.961209
v 6.823412 0.824915 3.961989
v 6.468216 0.933459 3.947689
v 6.454877 0.961664 3.993819
v 6.844481 0.836482 3.978769
v 6.423868 0.934661 4.049268
v 6.482167 0.975700 3.968109
v 6.564936 0.968339 3.961669
v 6.708794 0.926068 3.976269
v 6.780323 0.790429 4.081558
v 6.801743 0.871590 4.019008
v 6.678644 0.806441 4.070837
v 6.817452 0.803420 4.054148
v 6.423897 0.909092 4.056438
v 6.831052 0.826516 4.064448
v 6.577305 0.841770 4.048328
v 6.818422 0.810023 4.101107
v 6.449797 0.875172 4.090737
v 6.415547 0.942336 4.086827
v 6.460667 0.953847 4.053018
v 6.803903 0.791329 4.096367
v 6.807053 0.832358 4.102437
v 6.374428 0.909892 4.152757
v 6.625455 0.787444 4.246126
v 6.786903 0.787799 4.162607
v 6.376028 0.922175 4.164576
v 6.537166 0.911701 4.151846
v 6.795972 0.801323 4.163416
v 6.437167 0.840309 4.241076
v 6.385608 0.889129 4.171966
v 6.724324 0.861010 4.127587
v 6.416217 0.928311 4.156726
v 6.788103 0.793789 4.177706
v 6.738913 0.781881 4.193926
v 6.333059 0.893465 4.242735
v 6.322968 0.897637 4.271325
v 6.369518 0.920629 4.212026
v 6.757733 0.805165 4.207616
v 6.343909 0.869380 4.282035
v 6.626535 0.828324 4.282445
v 6.338968 0.907540 4.264605
v 6.754333 0.784067 4.238086
v 6.716884 0.777444 4.269105
v 6.298189 0.892158 4.332694
v 6.381158 0.911709 4.246396
v 6.312409 0.846085 4.402653
v 6.301519 0.879697 4.341484
v 6.308849 0.892281 4.347914
v 6.650135 0.768462 4.348664
v 6.436587 0.806302 4.411283
v 6.575145 0.778493 4.391044
v 6.700253 0.772522 4.313324
v 6.276519 0.881403 4.386784
v 6.433797 0.859347 4.356314
v 6.688044 0.773343 4.330554
v 6.626655 0.775788 4.380613
v 6.547036 0.815205 4.368664
v 6.652944 0.765140 4.368033
v 6.487287 0.806472 4.430143
v 6.262849 0.873774 4.416363
v 6.635994 0.773531 4.382504
v 6.248650 0.868909 4.458703
v 6.318229 0.836624 4.477612
v 6.235770 0.855767 4.464942
v 6.305209 0.865127 4.419393
v 6.521066 0.788147 4.439373
v 6.577415 0.778067 4.418473
v 6.622485 0.769094 4.388184
v 6.567515 0.775618 4.413963
v 6.312709 0.829814 4.478222
v 6.259359 0.851292 4.495072
v 6.493906 0.787686 4.448773
v 6.256410 0.853264 4.459612
v 6.442827 0.801693 4.469353
v 6.493556 0.791940 4.448663
v 6.366538 0.818314 4.486112
v 6.231890 0.856154 4.497552
v 6.232650 0.847041 4.488503
v 6.413677 0.803309 4.471303
v 6.395257 0.806069 4.484663
v 6.426167 0.796098 4.468952
v 6.288739 0.832904 4.501002
v 6.239020 0.834997 4.490962
v 6.348488 0.811300 4.484302
v 6.248990 0.839438 4.493382
v 6.283969 0.822727 4.488092
vn -0.1724 -0.0378 -0.9843
vn 0.2090 0.0257 -0.9776
vn -0.1790 -0.6512 -0.7375
vn 0.2225 -0.5654 -0.7942
vn -0.0973 -0.8814 -0.4622
vn 0.5233 -0.6991 -0.4873
vn 0.7529 -0.0381 -0.6570
vn -0.4071 -0.3411 -0.8473
vn 0.3128 0.4941 -0.8112
vn -0.0699 0.4799 -0.8745
vn -0.3967 0.0656 -0.9156
vn -0.3361 -0.7976 -0.5008
vn -0.5137 -0.5466 -0.6613
vn -0.6822 0.1451 -0.7166
vn 0.6586 0.5922 -0.4643
vn -0.3551 0.6596 -0.6624
vn -0.0178 0.8244 -0.5658
vn 0.2373 0.8293 -0.5059
vn 0.2915 -0.9026 -0.3168
vn 0.9273 -0.3351 -0.1670
vn 0.6837 -0.7081 -0.1766
vn 0.9806 0.1935 -0.0320
vn -0.7780 -0.2526 -0.5753
vn -0.7140 0.5756 -0.3987
vn 0.7721 0.6354 -0.0034
vn 0.3991 0.9128 0.0873
vn 0.1615 0.9859 -0.0441
vn -0.2281 0.9306 -0.2864
vn -0.2332 -0.9006 -0.3668
vn 0.1097 -0.9491 -0.2953
vn -0.4758 -0.7236 -0.5000
vn 0.9885 -0.0594 0.1394
vn -0.9005 0.0841 -0.4267
vn 0.6971 0.6379 0.3271
vn -0.2897 0.9546 -0.0697
vn 0.3261 0.8793 0.3470
vn 0.0899 0.9830 0.1600
vn 0.5356 -0.8306 -0.1526
vn 0.8404 -0.5419 -0.0093
vn 0.8439 0.4291 0.3219
vn 0.5008 0.7685 0.3983
vn -0.4851 0.8740 -0.0280
vn -0.3351 -0.8461 -0.4146
vn -0.8425 0.4702 -0.2629
vn 0.1354 0.9442 0.3002
vn -0.7560 -0.4178 -0.5039
vn -0.0537 0.9696 0.2388
vn 0.9598 -0.2424 0.1415
vn 0.1575 0.9276 0.3389
vn -0.6635 -0.5796 -0.4730
vn 0.8858 0.3512 0.3032
vn -0.9021 -0.1074 -0.4180
vn -0.4862 0.8737 0.0128
vn -0.0560 0.9773 0.2045
vn -0.0276 -0.9515 -0.3065
vn 0.6109 -0.7844 -0.1077
vn -0.3941 -0.8279 -0.3990
vn 0.5422 0.7505 0.3777
vn 0.2554 -0.9328 -0.2545
vn -0.7185 -0.5103 -0.4726
vn -0.1378 0.9708 0.1965
vn -0.8901 0.3813 -0.2496
vn -0.2153 -0.9249 -0.3132
vn -0.5299 -0.7355 -0.4223
vn -0.8983 -0.1426 -0.4156
vn 0.7349 0.5718 0.3646
vn 0.3643 0.8515 0.3771
vn 0.3541 -0.9121 -0.2065
vn 0.9709 -0.0116 0.2391
vn 0.4777 0.7953 0.3732
vn -0.6442 0.7646 -0.0211
vn -0.2603 0.9446 0.1999
vn 0.0510 0.9587 0.2798
vn 0.7999 -0.6000 -0.0074
vn -0.7391 -0.5296 -0.4162
vn 0.5488 0.7420 0.3849
vn -0.0618 -0.9567 -0.2844
vn -0.3500 -0.8742 -0.3365
vn -0.5188 -0.7836 -0.3418
vn 0.8127 0.4549 0.3640
vn -0.0146 0.9527 0.3034
vn 0.3060 -0.9296 -0.2057
vn 0.6378 -0.7649 -0.0900
vn -0.8530 -0.3721 -0.3659
vn -0.9410 0.1581 -0.2993
vn -0.6996 0.7098 -0.0819
vn -0.5599 0.8262 0.0627
vn -0.3309 0.9248 0.1876
vn 0.8624 -0.5021 0.0639
vn 0.2431 -0.9532 -0.1797
vn 0.3642 0.8575 0.3635
vn 0.6187 -0.7841 -0.0487
vn 0.8231 0.4305 0.3703
vn 0.5581 0.7355 0.3841
vn -0.9418 0.0524 -0.3320
vn 0.2105 0.9142 0.3462
vn -0.1636 0.9612 0.2220
vn -0.2047 -0.9345 -0.2911
vn 0.9628 -0.0780 0.2586
vn -0.2551 0.9590 0.1236
vn 0.0635 -0.9760 -0.2081
vn -0.6742 -0.6321 -0.3820
vn -0.7556 0.6431 -0.1247
vn 0.8890 -0.4322 0.1514
vn -0.4233 0.8998 0.1058
vn -0.8582 -0.3375 -0.3867
vn -0.9268 0.2522 -0.2781
vn 0.0295 0.9582 0.2847
vn 0.5987 -0.8003 -0.0343
vn -0.5502 -0.7397 -0.3874
vn 0.6178 -0.7860 -0.0229
vn 0.8999 0.2727 0.3404
vn 0.3406 0.8696 0.3574
vn -0.7010 0.7085 -0.0807
vn 0.9415 -0.2937 0.1655
vn -0.2703 -0.9163 -0.2956
vn -0.1478 -0.9518 -0.2687
vn -0.4915 -0.8044 -0.3337
vn -0.6699 -0.6561 -0.3475
vn 0.5472 0.7526 0.3663
vn -0.9410 0.1797 -0.2868
vn 0.2343 0.9076 0.3483
vn -0.2590 0.9506 0.1712
vn 0.8829 0.3557 0.3066
vn 0.2774 -0.9477 -0.1577
vn -0.8512 -0.3764 -0.3658
vn -0.6478 0.7592 -0.0627
vn 0.8747 -0.4773 0.0835
vn -0.9077 0.2464 -0.3397
vn -0.2109 0.9626 0.1698
vn 0.1350 0.9411 0.3101
vn 0.3035 0.8867 0.3489
vn 0.0425 -0.9863 -0.1593
vn 0.4792 0.8028 0.3547
vn -0.1996 -0.9544 -0.2218
vn 0.5909 -0.8049 -0.0542
vn -0.7594 -0.5136 -0.3994
vn 0.9533 0.1054 0.2829
vn -0.2875 -0.9237 -0.2531
vn 0.8813 -0.4326 0.1901
vn -0.4632 -0.8381 -0.2883
vn -0.4733 0.8809 -0.0080
vn -0.0689 0.9744 0.2142
vn 0.3863 -0.9213 -0.0440
vn 0.6269 0.6741 0.3906
vn -0.9022 -0.0886 -0.4221
vn -0.1748 -0.9737 -0.1458
vn 0.4970 -0.8600 0.1156
vn -0.6122 0.7777 -0.1429
vn 0.2134 0.9228 0.3209
vn 0.8738 0.1834 0.4504
vn -0.3481 -0.9075 -0.2350
vn -0.5854 -0.7345 -0.3431
vn 0.3600 0.8530 0.3779
vn -0.0419 0.9842 0.1722
vn 0.8427 -0.4330 0.3200
vn 0.0333 -0.9980 -0.0534
vn -0.8003 -0.4572 -0.3880
vn -0.8880 0.3301 -0.3201
vn -0.1479 0.9842 0.0969
vn 0.5863 0.6381 0.4990
vn -0.5297 -0.7896 -0.3100
vn 0.3594 0.8328 0.4210
vn -0.3547 0.9348 0.0208
vn 0.8054 -0.3493 0.4789
vn 0.2078 -0.9771 0.0449
vn -0.5583 0.8254 -0.0843
vn 0.0877 0.9638 0.2520
vn -0.4582 -0.8530 -0.2500
vn -0.8014 -0.4766 -0.3615
vn -0.0042 0.9727 0.2320
vn 0.0523 -0.9970 0.0569
vn -0.2245 -0.9716 -0.0751
vn -0.0894 -0.9913 0.0966
vn 0.7211 0.3294 0.6095
vn -0.9059 0.3008 -0.2982
vn 0.2507 0.8903 0.3800
vn 0.5429 -0.7476 0.3825
vn 0.4806 0.6169 0.6233
vn 0.3227 0.8418 0.4328
vn 0.6535 -0.1898 0.7328
vn 0.3361 0.7470 0.5736
vn -0.2648 0.9467 0.1834
vn 0.2749 -0.8284 0.4881
vn -0.8467 -0.4161 -0.3317
vn 0.1975 0.7235 0.6615
vn -0.6154 0.7759 0.1390
vn 0.1568 0.9095 0.3850
vn -0.0097 -0.9392 0.3433
vn 0.3325 -0.4768 0.8137
vn 0.5227 0.0208 0.8522
vn 0.4315 0.4575 0.7774
vn -0.2912 -0.9566 0.0118
vn -0.4737 -0.8790 0.0549
vn 0.3713 0.2675 0.8891
vn 0.0314 0.8906 0.4536
vn 0.0357 -0.8464 0.5313
vn 0.2203 -0.4805 0.8489
vn -0.1444 -0.8907 0.4311
vn -0.8115 -0.2525 0.5269
vn -0.8286 0.5210 0.2047
vn 0.2845 0.4600 0.8411
vn 0.0806 -0.4406 0.8941
vn 0.2884 -0.0341 0.9569
vn -0.1259 -0.5465 0.8280
vn -0.0197 0.7076 0.7063
vn 0.1469 0.1519 0.9774
vn -0.1656 -0.0647 0.9841
vn 0.1567 0.4587 0.8747
usemtl mtl1.949
s 1
f 1//1 2//2 3//3
f 3//3 4//4 5//5
f 6//6 4//4 7//7
f 3//3 8//8 1//1
f 4//4 3//3 2//2
f 7//7 4//4 2//2
f 7//7 2//2 9//9
f 1//1 8//8 10//10
f 10//10 8//8 11//11
f 1//1 10//10 2//2
f 10//10 9//9 2//2
f 3//3 5//5 12//12
f 6//6 5//5 4//4
f 8//8 12//12 13//13
f 3//3 12//12 8//8
f 11//11 13//13 14//14
f 8//8 13//13 11//11
f 9//9 15//15 7//7
f 11//11 14//14 16//16
f 10//10 11//11 16//16
f 16//16 17//17 10//10
f 10//10 18//18 9//9
f 17//17 18//18 10//10
f 15//15 9//9 18//18
f 6//6 19//19 5//5
f 6//6 20//20 21//21
f 6//6 7//7 20//20
f 20//20 7//7 22//22
f 7//7 15//15 22//22
f 14//14 13//13 23//23
f 24//24 14//14 23//23
f 22//22 15//15 25//25
f 14//14 24//24 16//16
f 26//26 15//15 18//18
f 15//15 26//26 25//25
f 18//18 17//17 27//27
f 26//26 18//18 27//27
f 17//17 16//16 28//28
f 12//12 5//5 29//29
f 19//19 6//6 21//21
f 16//16 24//24 28//28
f 17//17 28//28 27//27
f 19//19 30//30 5//5
f 31//31 13//13 12//12
f 31//31 23//23 13//13
f 20//20 22//22 32//32
f 23//23 33//33 24//24
f 22//22 25//25 34//34
f 34//34 25//25 26//26
f 24//24 35//35 28//28
f 26//26 27//27 36//36
f 27//27 28//28 37//37
f 27//27 37//37 36//36
f 5//5 30//30 29//29
f 21//21 38//38 19//19
f 39//39 21//21 20//20
f 32//32 39//39 20//20
f 34//34 40//40 22//22
f 36//36 41//41 26//26
f 41//41 34//34 26//26
f 24//24 42//42 35//35
f 28//28 35//35 37//37
f 30//30 19//19 38//38
f 39//39 38//38 21//21
f 29//29 43//43 12//12
f 32//32 22//22 40//40
f 34//34 41//41 40//40
f 44//44 24//24 33//33
f 42//42 24//24 44//44
f 45//45 36//36 37//37
f 23//23 31//31 46//46
f 33//33 23//23 46//46
f 47//47 35//35 42//42
f 37//37 35//35 47//47
f 37//37 47//47 45//45
f 43//43 31//31 12//12
f 48//48 39//39 32//32
f 48//48 32//32 40//40
f 49//49 36//36 45//45
f 50//50 46//46 31//31
f 48//48 40//40 51//51
f 46//46 52//52 33//33
f 53//53 42//42 44//44
f 47//47 42//42 54//54
f 30//30 55//55 29//29
f 30//30 38//38 56//56
f 56//56 38//38 39//39
f 57//57 31//31 43//43
f 57//57 50//50 31//31
f 46//46 50//50 52//52
f 44//44 33//33 52//52
f 36//36 58//58 41//41
f 54//54 42//42 53//53
f 49//49 45//45 47//47
f 30//30 59//59 55//55
f 59//59 30//30 56//56
f 57//57 43//43 29//29
f 50//50 60//60 52//52
f 53//53 61//61 54//54
f 40//40 58//58 51//51
f 52//52 62//62 44//44
f 40//40 41//41 58//58
f 54//54 49//49 47//47
f 29//29 55//55 63//63
f 56//56 39//39 48//48
f 60//60 57//57 64//64
f 57//57 60//60 50//50
f 52//52 60//60 65//65
f 65//65 62//62 52//52
f 58//58 66//66 51//51
f 36//36 67//67 58//58
f 55//55 59//59 68//68
f 48//48 51//51 69//69
f 69//69 51//51 66//66
f 58//58 70//70 66//66
f 62//62 71//71 44//44
f 71//71 53//53 44//44
f 72//72 53//53 71//71
f 61//61 53//53 72//72
f 73//73 54//54 61//61
f 49//49 54//54 73//73
f 56//56 68//68 59//59
f 74//74 56//56 48//48
f 69//69 74//74 48//48
f 60//60 64//64 75//75
f 60//60 75//75 65//65
f 67//67 70//70 58//58
f 67//67 36//36 49//49
f 61//61 72//72 73//73
f 74//74 68//68 56//56
f 66//66 70//70 76//76
f 55//55 77//77 63//63
f 55//55 68//68 77//77
f 29//29 63//63 78//78
f 64//64 57//57 79//79
f 69//69 66//66 80//80
f 49//49 73//73 81//81
f 68//68 82//82 77//77
f 68//68 83//83 82//82
f 29//29 78//78 57//57
f 75//75 84//84 65//65
f 84//84 85//85 65//65
f 76//76 80//80 66//66
f 65//65 85//85 62//62
f 85//85 86//86 62//62
f 71//71 62//62 87//87
f 88//88 71//71 87//87
f 72//72 71//71 88//88
f 73//73 72//72 81//81
f 83//83 68//68 74//74
f 74//74 69//69 89//89
f 79//79 75//75 64//64
f 67//67 76//76 70//70
f 87//87 62//62 86//86
f 72//72 88//88 81//81
f 82//82 90//90 77//77
f 89//89 83//83 74//74
f 78//78 79//79 57//57
f 84//84 75//75 79//79
f 91//91 76//76 67//67
f 92//92 82//82 83//83
f 76//76 93//93 80//80
f 76//76 91//91 94//94
f 85//85 95//95 86//86
f 96//96 67//67 49//49
f 87//87 97//97 88//88
f 82//82 92//92 90//90
f 89//89 92//92 83//83
f 69//69 80//80 93//93
f 95//95 85//85 84//84
f 96//96 91//91 67//67
f 86//86 97//97 87//87
f 49//49 81//81 96//96
f 81//81 88//88 97//97
f 63//63 77//77 98//98
f 99//99 89//89 69//69
f 69//69 93//93 99//99
f 93//93 76//76 94//94
f 100//100 97//97 86//86
f 81//81 97//97 96//96
f 98//98 77//77 101//101
f 77//77 90//90 101//101
f 78//78 63//63 98//98
f 102//102 79//79 78//78
f 102//102 84//84 79//79
f 102//102 95//95 84//84
f 95//95 103//103 86//86
f 89//89 104//104 92//92
f 86//86 105//105 100//100
f 99//99 104//104 89//89
f 102//102 106//106 95//95
f 106//106 107//107 95//95
f 107//107 103//103 95//95
f 86//86 103//103 105//105
f 97//97 100//100 108//108
f 108//108 96//96 97//97
f 101//101 90//90 109//109
f 92//92 109//109 90//90
f 109//109 92//92 104//104
f 102//102 110//110 106//106
f 110//110 102//102 78//78
f 100//100 105//105 108//108
f 109//109 111//111 101//101
f 112//112 99//99 93//93
f 93//93 94//94 112//112
f 113//113 94//94 91//91
f 114//114 103//103 107//107
f 113//113 91//91 96//96
f 115//115 111//111 109//109
f 115//115 109//109 104//104
f 98//98 116//116 78//78
f 104//104 99//99 112//112
f 101//101 117//117 98//98
f 78//78 118//118 110//110
f 104//104 112//112 115//115
f 110//110 119//119 106//106
f 112//112 94//94 120//120
f 106//106 121//121 107//107
f 122//122 113//113 96//96
f 103//103 123//123 105//105
f 122//122 96//96 108//108
f 118//118 78//78 116//116
f 110//110 118//118 119//119
f 112//112 120//120 124//124
f 94//94 113//113 120//120
f 114//114 107//107 121//121
f 103//103 114//114 123//123
f 105//105 123//123 108//108
f 111//111 125//125 101//101
f 106//106 119//119 126//126
f 126//126 121//121 106//106
f 121//121 127//127 114//114
f 101//101 125//125 117//117
f 98//98 117//117 116//116
f 111//111 115//115 128//128
f 129//129 121//121 126//126
f 114//114 130//130 123//123
f 108//108 131//131 122//122
f 125//125 111//111 128//128
f 115//115 112//112 124//124
f 118//118 126//126 119//119
f 114//114 127//127 130//130
f 113//113 122//122 132//132
f 108//108 123//123 131//131
f 125//125 133//133 117//117
f 128//128 115//115 124//124
f 134//134 124//124 120//120
f 132//132 120//120 113//113
f 121//121 129//129 127//127
f 132//132 122//122 131//131
f 123//123 130//130 131//131
f 135//135 117//117 133//133
f 136//136 125//125 128//128
f 126//126 118//118 137//137
f 124//124 138//138 128//128
f 120//120 132//132 134//134
f 125//125 136//136 133//133
f 117//117 139//139 116//116
f 140//140 136//136 128//128
f 141//141 118//118 139//139
f 139//139 118//118 116//116
f 137//137 118//118 141//141
f 126//126 137//137 129//129
f 129//129 142//142 127//127
f 130//130 127//127 143//143
f 144//144 133//133 136//136
f 117//117 135//135 139//139
f 145//145 138//138 124//124
f 124//124 134//134 145//145
f 137//137 146//146 129//129
f 130//130 143//143 131//131
f 140//140 128//128 138//138
f 127//127 142//142 143//143
f 135//135 147//147 139//139
f 136//136 148//148 144//144
f 148//148 136//136 140//140
f 149//149 129//129 146//146
f 129//129 149//149 142//142
f 131//131 150//150 132//132
f 143//143 150//150 131//131
f 144//144 148//148 133//133
f 140//140 138//138 151//151
f 152//152 141//141 139//139
f 138//138 145//145 151//151
f 137//137 153//153 146//146
f 154//154 134//134 132//132
f 155//155 142//142 149//149
f 154//154 132//132 150//150
f 143//143 142//142 155//155
f 135//135 133//133 147//147
f 156//156 148//148 140//140
f 156//156 140//140 151//151
f 153//153 137//137 141//141
f 134//134 154//154 145//145
f 133//133 157//157 147//147
f 133//133 148//148 157//157
f 152//152 153//153 141//141
f 146//146 153//153 158//158
f 146//146 158//158 159//159
f 149//149 160//160 155//155
f 143//143 155//155 150//150
f 152//152 139//139 147//147
f 145//145 161//161 151//151
f 153//153 162//162 158//158
f 161//161 145//145 154//154
f 150//150 163//163 154//154
f 159//159 149//149 146//146
f 164//164 149//149 159//159
f 149//149 164//164 160//160
f 148//148 156//156 165//165
f 152//152 162//162 153//153
f 163//163 161//161 154//154
f 147//147 157//157 166//166
f 148//148 166//166 157//157
f 166//166 148//148 165//165
f 159//159 167//167 164//164
f 155//155 160//160 168//168
f 150//150 155//155 168//168
f 156//156 151//151 165//165
f 165//165 151//151 161//161
f 169//169 162//162 152//152
f 158//158 162//162 170//170
f 159//159 158//158 170//170
f 160//160 164//164 168//168
f 164//164 171//171 168//168
f 147//147 166//166 172//172
f 173//173 147//147 174//174
f 152//152 173//173 169//169
f 147//147 173//173 152//152
f 175//175 165//165 161//161
f 170//170 176//176 159//159
f 167//167 159//159 176//176
f 177//177 163//163 150//150
f 171//171 164//164 167//167
f 150//150 168//168 177//177
f 166//166 165//165 178//178
f 175//175 161//161 163//163
f 171//171 177//177 168//168
f 166//166 178//178 172//172
f 147//147 172//172 174//174
f 163//163 179//179 175//175
f 177//177 180//180 163//163
f 175//175 178//178 165//165
f 180//180 179//179 163//163
f 169//169 170//170 162//162
f 175//175 181//181 178//178
f 175//175 179//179 181//181
f 177//177 182//182 180//180
f 183//183 167//167 176//176
f 171//171 167//167 183//183
f 172//172 178//178 184//184
f 184//184 174//174 172//172
f 170//170 169//169 185//185
f 170//170 185//185 176//176
f 186//186 182//182 177//177
f 176//176 187//187 183//183
f 183//183 188//188 171//171
f 188//188 177//177 171//171
f 184//184 178//178 181//181
f 174//174 189//189 173//173
f 184//184 190//190 174//174
f 190//190 189//189 174//174
f 191//191 190//190 184//184
f 184//184 181//181 191//191
f 181//181 179//179 191//191
f 179//179 192//192 191//191
f 169//169 173//173 193//193
f 185//185 169//169 194//194
f 194//194 169//169 193//193
f 180//180 182//182 179//179
f 192//192 179//179 182//182
f 185//185 187//187 176//176
f 192//192 195//195 190//190
f 191//191 192//192 190//190
f 192//192 182//182 195//195
f 183//183 187//187 196//196
f 183//183 196//196 188//188
f 197//197 189//189 198//198
f 189//189 190//190 198//198
f 173//173 197//197 199//199
f 189//189 197//197 173//173
f 198//198 190//190 195//195
f 199//199 193//193 173//173
f 185//185 200//200 201//201
f 194//194 200//200 185//185
f 182//182 202//202 195//195
f 185//185 201//201 187//187
f 177//177 188//188 186//186
f 197//197 203//203 199//199
f 204//204 203//203 197//197
f 197//197 198//198 204//204
f 193//193 199//199 205//205
f 198//198 195//195 204//204
f 204//204 195//195 202//202
f 182//182 186//186 202//202
f 187//187 201//201 206//206
f 187//187 206//206 196//196
f 188//188 196//196 186//186
f 199//199 203//203 207//207
f 207//207 203//203 204//204
f 194//194 208//208 200//200
f 205//205 194//194 193//193
f 208//208 194//194 205//205
f 204//204 202//202 207//207
f 207//207 202//202 186//186
f 200//200 206//206 201//201
f 205//205 199//199 207//207
f 207//207 209//209 205//205
f 200//200 208//208 206//206
f 209//209 206//206 208//208
f 209//209 186//186 206//206
f 207//207 186//186 209//209
f 186//186 196//196 206//206
f 205//205 209//209 208//208
