# Blender v2.92.0 OBJ File: 'convert_to_one_sided.blend'
# www.blender.org
mtllib 1096L.mtl
o 1096
v 6.191320 4.105996 4.811919
v 6.193070 4.138306 4.776119
v 6.229750 4.116256 4.799048
v 6.127571 4.175095 4.765749
v 6.056462 4.190675 4.779249
v 6.090921 4.201195 4.767319
v 6.212000 4.189545 4.776739
v 6.129851 4.205155 4.768619
v 6.147291 4.271404 4.799459
v 6.102561 4.140046 4.810889
v 6.255310 4.144196 4.805939
v 6.281600 4.204205 4.812189
v 6.265160 4.267114 4.824528
v 6.057022 4.248974 4.796169
v 6.244400 4.105627 4.833848
v 6.001283 4.181285 4.821968
v 6.301589 4.182695 4.834348
v 5.966893 4.244295 4.819879
v 5.966403 4.322053 4.835178
v 6.015923 4.419962 4.869128
v 6.203440 4.329504 4.841648
v 6.286199 4.136686 4.863028
v 5.910474 4.198575 4.894928
v 5.915934 4.241024 4.851818
v 5.873594 4.286874 4.857038
v 6.324968 4.249134 4.866058
v 5.886794 4.348023 4.858808
v 6.271049 4.375793 4.907928
v 6.131651 4.376973 4.860507
v 6.107332 4.087476 4.898817
v 6.199660 4.087956 4.871668
v 6.000463 4.137765 4.903788
v 6.323428 4.195935 4.881717
v 6.325349 4.348583 4.930307
v 5.908554 4.470891 4.893538
v 6.186831 4.442322 4.925297
v 5.855925 4.472651 4.898928
v 6.230810 4.094516 4.896027
v 5.840285 4.291104 4.894067
v 5.839255 4.343583 4.879648
v 5.830245 4.424602 4.895918
v 6.082201 4.493241 4.923308
v 6.285219 4.141476 4.920787
v 6.324999 4.195765 4.927087
v 5.919714 4.152006 4.980816
v 6.348918 4.233574 4.928707
v 6.356828 4.268454 4.933047
v 6.363928 4.339374 4.974296
v 5.805645 4.393572 4.915158
v 5.809205 4.482231 4.925217
v 5.830005 4.513821 4.924297
v 6.163590 4.078637 4.912377
v 6.100491 4.076257 4.954427
v 5.843335 4.237134 4.959617
v 5.806505 4.326124 4.941847
v 6.251029 4.500821 5.008307
v 6.125161 4.536681 4.967397
v 5.849434 4.567300 4.940638
v 5.917054 4.618469 4.965327
v 6.002093 4.573670 4.949237
v 6.004843 4.108986 4.964597
v 6.270609 4.177835 4.993566
v 6.378718 4.330353 5.005666
v 5.783646 4.406492 4.963247
v 6.366278 4.437852 5.054746
v 6.309429 4.482542 5.040666
v 5.792455 4.499211 4.962687
v 5.813885 4.569960 4.964937
v 6.061332 4.610460 4.991107
v 6.160611 4.105926 4.971597
v 6.048732 4.090016 4.976397
v 6.361958 4.288174 5.007406
v 5.799106 4.318124 4.988866
v 5.843395 4.651019 5.000827
v 5.808836 4.633299 5.012187
v 5.990673 4.668059 5.005716
v 6.320139 4.221425 4.984166
v 5.830325 4.239335 5.012466
v 6.389738 4.404672 5.077516
v 5.781506 4.512771 5.013436
v 6.145561 4.605770 5.031226
v 5.798336 4.572210 4.998367
v 6.064422 4.098116 5.004406
v 6.202330 4.193865 5.057325
v 5.869974 4.192475 5.020736
v 6.386868 4.369883 5.076965
v 5.785336 4.412522 5.012577
v 5.825745 4.672069 5.039666
v 5.893654 4.711099 5.030787
v 5.963243 4.734228 5.061036
v 6.052492 4.691689 5.056666
v 5.982063 4.121486 5.016266
v 6.114501 4.147886 5.043945
v 5.816725 4.279234 5.032256
v 5.807235 4.366103 5.048436
v 6.245190 4.597790 5.095455
v 5.804855 4.615379 5.044536
v 6.171260 4.682809 5.128015
v 5.869384 4.713338 5.060646
v 5.927534 4.752758 5.088995
v 5.917774 4.154845 5.032936
v 5.847325 4.230324 5.041205
v 6.334619 4.298573 5.084295
v 5.800075 4.509661 5.068666
v 5.797145 4.568750 5.055945
v 5.943433 4.149106 5.057025
v 6.039542 4.185275 5.083355
v 6.147251 4.220554 5.099335
v 5.892854 4.198605 5.061175
v 6.272309 4.261045 5.090305
v 5.878395 4.351433 5.117905
v 6.375098 4.389202 5.160664
v 6.398978 4.437452 5.161964
v 6.387938 4.498821 5.151365
v 5.816075 4.613989 5.088605
v 5.853315 4.686959 5.091565
v 5.980253 4.773548 5.126475
v 6.341999 4.550391 5.147665
v 5.915344 4.746298 5.121085
v 5.958044 4.767678 5.140085
v 6.074192 4.741018 5.147005
v 5.953504 4.206025 5.092575
v 5.941683 4.300134 5.138925
v 6.221650 4.280244 5.137595
v 5.850635 4.475001 5.122325
v 6.399878 4.481971 5.193154
v 5.867934 4.584770 5.155194
v 5.891834 4.673399 5.164444
v 6.027632 4.286964 5.155074
v 6.298369 4.334243 5.164764
v 6.381498 4.535010 5.207664
v 5.920703 4.723708 5.164474
v 6.211820 4.712128 5.220503
v 5.970793 4.754738 5.187144
v 6.134941 4.296854 5.169264
v 5.962873 4.390943 5.196654
v 6.338388 4.361013 5.169574
v 5.931304 4.538721 5.219364
v 5.989202 4.475232 5.250154
v 6.401777 4.461642 5.200344
v 6.275429 4.640049 5.184994
v 6.037382 4.762928 5.190234
v 6.015663 4.359603 5.200674
v 6.239710 4.361263 5.221373
v 5.926534 4.614580 5.225163
v 5.932493 4.650789 5.224594
v 5.989243 4.705898 5.249154
v 6.128921 4.744548 5.224604
v 6.118341 4.748548 5.259264
v 6.094931 4.378833 5.237243
v 6.392888 4.469332 5.227414
v 6.336488 4.605830 5.240314
v 6.275109 4.666359 5.233693
v 6.184740 4.400833 5.267633
v 6.324769 4.406562 5.237833
v 6.368268 4.451102 5.253284
v 6.277009 4.665329 5.285113
v 6.061502 4.737878 5.256713
v 6.059912 4.452082 5.279263
v 6.373798 4.534291 5.261613
v 6.189550 4.715708 5.276813
v 6.038713 4.570570 5.320763
v 6.324198 4.605180 5.295383
v 5.995023 4.632759 5.281463
v 6.088852 4.710478 5.314962
v 6.153881 4.708198 5.314232
v 6.268350 4.451692 5.307183
v 6.336928 4.472451 5.301653
v 6.052062 4.508801 5.305852
v 6.361358 4.500241 5.288793
v 6.286739 4.636819 5.327792
v 6.168200 4.471881 5.319633
v 6.102521 4.531781 5.337212
v 6.319079 4.573660 5.322103
v 6.081982 4.667479 5.339752
v 6.229600 4.675619 5.315073
v 6.304039 4.502071 5.338732
v 6.323588 4.517521 5.323542
v 6.058302 4.621180 5.335612
v 6.249939 4.509831 5.345782
v 6.270000 4.552450 5.349762
v 6.221230 4.633589 5.347562
v 6.141311 4.675079 5.341652
v 6.181820 4.573950 5.361522
v 6.112801 4.606370 5.355552
v 6.148861 4.628779 5.357192
v 6.147311 4.602520 5.357752
vn -0.0584 -0.8733 -0.4836
vn 0.0840 -0.4677 -0.8799
vn 0.3467 -0.6703 -0.6561
vn -0.0882 -0.2608 -0.9613
vn -0.3796 -0.2529 -0.8899
vn -0.1784 0.1438 -0.9734
vn 0.2824 0.1075 -0.9533
vn 0.0368 0.2854 -0.9577
vn 0.1001 0.4386 -0.8931
vn -0.3186 -0.7350 -0.5986
vn 0.6057 -0.3533 -0.7129
vn 0.5944 0.0561 -0.8022
vn 0.4265 0.4188 -0.8017
vn -0.1805 0.3304 -0.9264
vn 0.4596 -0.8336 -0.3065
vn -0.4907 -0.5873 -0.6437
vn 0.8084 -0.2652 -0.5256
vn -0.3894 -0.0459 -0.9199
vn -0.1650 0.2756 -0.9470
vn 0.0399 0.4396 -0.8973
vn 0.2403 0.5437 -0.8042
vn 0.7625 -0.6248 -0.1679
vn -0.6126 -0.6469 -0.4541
vn -0.5777 -0.4409 -0.6870
vn -0.5524 -0.1776 -0.8144
vn 0.8057 0.1479 -0.5735
vn -0.2907 0.1839 -0.9390
vn 0.4394 0.5737 -0.6912
vn 0.1690 0.5380 -0.8259
vn -0.2474 -0.9208 -0.3016
vn 0.1088 -0.9747 -0.1951
vn -0.4409 -0.8032 -0.4005
vn 0.9068 -0.3361 -0.2545
vn 0.6281 0.4734 -0.6176
vn -0.0709 0.3680 -0.9271
vn 0.3147 0.5781 -0.7529
vn -0.2417 0.3118 -0.9189
vn 0.4356 -0.8804 0.1876
vn -0.7720 -0.3651 -0.5203
vn -0.6330 -0.0101 -0.7741
vn -0.5088 0.1795 -0.8419
vn 0.2383 0.5173 -0.8220
vn 0.6698 -0.6888 0.2772
vn 0.8168 -0.5605 0.1364
vn -0.5663 -0.8090 -0.1577
vn 0.9260 -0.3752 -0.0428
vn 0.9582 -0.1090 -0.2645
vn 0.8534 0.2602 -0.4517
vn -0.8373 -0.0232 -0.5462
vn -0.7125 0.2240 -0.6649
vn -0.4548 0.3408 -0.8228
vn 0.1398 -0.9877 0.0705
vn 0.0064 -0.9825 0.1860
vn -0.7959 -0.5515 -0.2497
vn -0.9072 -0.2834 -0.3109
vn 0.4554 0.5946 -0.6626
vn 0.3322 0.5478 -0.7678
vn -0.2545 0.4591 -0.8511
vn -0.0020 0.5341 -0.8454
vn 0.1787 0.5001 -0.8473
vn -0.4210 -0.8916 -0.1666
vn 0.4847 -0.7112 0.5092
vn 0.9841 -0.1018 -0.1452
vn -0.9789 -0.0695 -0.1922
vn 0.7296 0.4635 -0.5028
vn 0.5621 0.5781 -0.5914
vn -0.9077 0.1697 -0.3838
vn -0.6804 0.3776 -0.6281
vn 0.3187 0.5586 -0.7658
vn 0.3073 -0.8030 0.5106
vn -0.2763 -0.9579 0.0777
vn 0.8660 -0.4626 0.1899
vn -0.9598 -0.2799 0.0188
vn -0.4206 0.6101 -0.6715
vn -0.8314 0.4217 -0.3617
vn 0.2024 0.6029 -0.7717
vn 0.7071 -0.6049 0.3662
vn -0.8581 -0.5073 0.0794
vn 0.9642 0.1269 -0.2329
vn -0.9948 0.0968 0.0316
vn 0.4113 0.6015 -0.6849
vn -0.9368 0.2391 -0.2555
vn 0.0208 -0.8261 0.5632
vn 0.3053 -0.7021 0.6433
vn -0.7075 -0.6902 0.1520
vn 0.9557 -0.2840 0.0767
vn -0.9688 -0.1107 0.2216
vn -0.7775 0.6165 -0.1242
vn -0.2092 0.7399 -0.6394
vn 0.1578 0.7581 -0.6328
vn 0.3596 0.6907 -0.6273
vn -0.2870 -0.9037 0.3177
vn 0.1890 -0.6934 0.6953
vn -0.8520 -0.2996 0.4294
vn -0.8482 -0.1692 0.5019
vn 0.5292 0.6239 -0.5751
vn -0.9479 0.2968 0.1155
vn 0.4595 0.7142 -0.5280
vn -0.5888 0.7837 -0.1976
vn -0.2930 0.9138 -0.2815
vn -0.5476 -0.7940 0.2641
vn -0.7137 -0.4744 0.5154
vn 0.5923 -0.6648 0.4552
vn -0.8728 -0.0367 0.4867
vn -0.9513 0.1202 0.2839
vn -0.2702 -0.7104 0.6499
vn 0.0131 -0.6473 0.7621
vn 0.1554 -0.6599 0.7351
vn -0.5407 -0.5162 0.6642
vn 0.3970 -0.7004 0.5931
vn -0.6279 -0.2707 0.7297
vn 0.7462 -0.5519 0.3722
vn 0.9578 -0.2675 0.1054
vn 0.8539 0.4158 -0.3130
vn -0.8634 0.2113 0.4582
vn -0.7919 0.5196 0.3208
vn 0.0818 0.9680 -0.2371
vn 0.6609 0.6090 -0.4385
vn -0.6092 0.7642 0.2117
vn -0.2994 0.9425 0.1487
vn 0.3489 0.8573 -0.3785
vn -0.2166 -0.5017 0.8375
vn -0.3780 -0.4373 0.8160
vn 0.2306 -0.7036 0.6721
vn -0.7338 -0.1303 0.6668
vn 0.9851 0.1701 0.0257
vn -0.7707 0.0267 0.6366
vn -0.7484 0.3234 0.5791
vn -0.1439 -0.5620 0.8145
vn 0.3639 -0.7267 0.5827
vn 0.8668 0.4887 -0.0990
vn -0.6776 0.5347 0.5049
vn 0.4910 0.8486 -0.1969
vn -0.4056 0.7873 0.4644
vn 0.0373 -0.6666 0.7445
vn -0.4528 -0.4010 0.7963
vn 0.5196 -0.6803 0.5169
vn -0.6800 -0.1317 0.7213
vn -0.5497 -0.3118 0.7750
vn 0.9663 -0.1575 0.2037
vn 0.6076 0.6751 -0.4185
vn 0.0438 0.9902 0.1327
vn -0.2799 -0.5214 0.8061
vn 0.1818 -0.7176 0.6723
vn -0.7062 0.0160 0.7078
vn -0.7079 0.2245 0.6696
vn -0.5589 0.4918 0.6676
vn 0.3147 0.9462 -0.0755
vn 0.1201 0.9402 0.3189
vn -0.1532 -0.5990 0.7860
vn 0.8941 -0.2249 0.3874
vn 0.7781 0.6237 -0.0740
vn 0.6526 0.7351 -0.1836
vn -0.0101 -0.6564 0.7543
vn 0.4084 -0.6898 0.5978
vn 0.6749 -0.5019 0.5410
vn 0.6082 0.7662 0.2072
vn -0.2002 0.8353 0.5121
vn -0.3238 -0.4814 0.8145
vn 0.8979 0.2852 0.3352
vn 0.3916 0.8796 0.2702
vn -0.5261 -0.1620 0.8349
vn 0.7958 0.4906 0.3549
vn -0.6342 0.1218 0.7636
vn -0.1973 0.6884 0.6980
vn 0.1484 0.7525 0.6416
vn 0.1323 -0.6342 0.7617
vn 0.5193 -0.4658 0.7165
vn -0.4327 -0.3676 0.8232
vn 0.7705 -0.0933 0.6306
vn 0.5404 0.5292 0.6542
vn -0.1124 -0.5058 0.8553
vn -0.2638 -0.3318 0.9057
vn 0.6264 0.1995 0.7536
vn -0.3502 0.3134 0.8827
vn 0.3452 0.7256 0.5953
vn 0.3362 -0.2956 0.8942
vn 0.5928 -0.0299 0.8048
vn -0.4962 0.0595 0.8662
vn 0.0290 -0.3519 0.9356
vn 0.2951 0.0463 0.9544
vn 0.2305 0.3430 0.9106
vn 0.0361 0.4777 0.8778
vn -0.0193 -0.0930 0.9955
vn -0.2220 -0.0250 0.9747
vn -0.0262 0.1734 0.9845
vn -0.0706 0.0367 0.9968
usemtl mtl1.957
s 1
f 1//1 2//2 3//3
f 4//4 5//5 6//6
f 2//2 4//4 7//7
f 8//8 4//4 6//6
f 7//7 4//4 8//8
f 9//9 7//7 8//8
f 10//10 2//2 1//1
f 10//10 5//5 4//4
f 2//2 10//10 4//4
f 2//2 11//11 3//3
f 11//11 2//2 7//7
f 7//7 12//12 11//11
f 13//13 12//12 7//7
f 5//5 14//14 6//6
f 9//9 13//13 7//7
f 8//8 6//6 14//14
f 8//8 14//14 9//9
f 3//3 15//15 1//1
f 3//3 11//11 15//15
f 10//10 16//16 5//5
f 12//12 17//17 11//11
f 5//5 16//16 18//18
f 5//5 18//18 14//14
f 14//14 18//18 19//19
f 20//20 14//14 19//19
f 14//14 20//20 9//9
f 13//13 9//9 21//21
f 11//11 17//17 22//22
f 16//16 23//23 24//24
f 24//24 18//18 16//16
f 25//25 18//18 24//24
f 13//13 26//26 12//12
f 18//18 25//25 27//27
f 19//19 18//18 27//27
f 21//21 28//28 13//13
f 20//20 29//29 9//9
f 29//29 21//21 9//9
f 10//10 1//1 30//30
f 31//31 1//1 15//15
f 11//11 22//22 15//15
f 23//23 16//16 32//32
f 10//10 32//32 16//16
f 22//22 17//17 33//33
f 17//17 12//12 26//26
f 28//28 34//34 13//13
f 19//19 27//27 35//35
f 21//21 36//36 28//28
f 29//29 36//36 21//21
f 35//35 27//27 37//37
f 20//20 19//19 35//35
f 30//30 1//1 31//31
f 31//31 15//15 38//38
f 25//25 24//24 39//39
f 17//17 26//26 33//33
f 25//25 40//40 27//27
f 39//39 40//40 25//25
f 26//26 13//13 34//34
f 41//41 27//27 40//40
f 27//27 41//41 37//37
f 42//42 29//29 20//20
f 32//32 10//10 30//30
f 38//38 15//15 22//22
f 43//43 38//38 22//22
f 22//22 33//33 44//44
f 45//45 23//23 32//32
f 33//33 46//46 44//44
f 24//24 23//23 39//39
f 33//33 26//26 47//47
f 26//26 34//34 48//48
f 26//26 48//48 47//47
f 49//49 40//40 39//39
f 40//40 49//49 41//41
f 50//50 41//41 49//49
f 36//36 29//29 42//42
f 41//41 50//50 51//51
f 41//41 51//51 37//37
f 31//31 52//52 30//30
f 30//30 52//52 53//53
f 31//31 38//38 52//52
f 44//44 43//43 22//22
f 23//23 54//54 39//39
f 49//49 39//39 55//55
f 28//28 36//36 56//56
f 36//36 42//42 57//57
f 37//37 51//51 58//58
f 35//35 37//37 58//58
f 20//20 35//35 59//59
f 42//42 20//20 60//60
f 59//59 35//35 58//58
f 32//32 30//30 61//61
f 43//43 62//62 38//38
f 32//32 61//61 45//45
f 33//33 47//47 46//46
f 39//39 54//54 55//55
f 47//47 48//48 63//63
f 55//55 64//64 49//49
f 48//48 34//34 65//65
f 28//28 66//66 34//34
f 66//66 28//28 56//56
f 67//67 49//49 64//64
f 49//49 67//67 50//50
f 68//68 50//50 67//67
f 50//50 68//68 51//51
f 42//42 60//60 69//69
f 69//69 57//57 42//42
f 20//20 59//59 60//60
f 58//58 51//51 68//68
f 52//52 70//70 53//53
f 71//71 30//30 53//53
f 38//38 70//70 52//52
f 71//71 61//61 30//30
f 23//23 45//45 54//54
f 47//47 72//72 46//46
f 47//47 63//63 72//72
f 55//55 54//54 73//73
f 73//73 64//64 55//55
f 34//34 66//66 65//65
f 74//74 68//68 75//75
f 68//68 74//74 58//58
f 76//76 60//60 59//59
f 76//76 69//69 60//60
f 62//62 70//70 38//38
f 43//43 44//44 77//77
f 72//72 44//44 46//46
f 72//72 77//77 44//44
f 54//54 78//78 73//73
f 63//63 48//48 79//79
f 64//64 80//80 67//67
f 81//81 56//56 36//36
f 81//81 36//36 57//57
f 67//67 82//82 68//68
f 75//75 68//68 82//82
f 74//74 59//59 58//58
f 53//53 83//83 71//71
f 53//53 70//70 83//83
f 62//62 84//84 70//70
f 43//43 77//77 62//62
f 45//45 85//85 54//54
f 85//85 78//78 54//54
f 63//63 86//86 72//72
f 73//73 87//87 64//64
f 64//64 87//87 80//80
f 82//82 67//67 80//80
f 69//69 81//81 57//57
f 74//74 75//75 88//88
f 59//59 74//74 89//89
f 59//59 90//90 76//76
f 90//90 91//91 76//76
f 90//90 59//59 89//89
f 61//61 92//92 45//45
f 61//61 71//71 92//92
f 70//70 93//93 83//83
f 93//93 70//70 84//84
f 78//78 94//94 73//73
f 73//73 94//94 95//95
f 73//73 95//95 87//87
f 48//48 65//65 79//79
f 56//56 81//81 96//96
f 80//80 97//97 82//82
f 69//69 91//91 81//81
f 82//82 97//97 75//75
f 98//98 81//81 91//91
f 97//97 88//88 75//75
f 76//76 91//91 69//69
f 74//74 88//88 99//99
f 89//89 74//74 99//99
f 90//90 89//89 100//100
f 83//83 92//92 71//71
f 85//85 45//45 101//101
f 101//101 45//45 92//92
f 78//78 85//85 102//102
f 78//78 102//102 94//94
f 77//77 103//103 62//62
f 72//72 103//103 77//77
f 63//63 79//79 86//86
f 95//95 104//104 87//87
f 87//87 104//104 80//80
f 104//104 105//105 80//80
f 80//80 105//105 97//97
f 89//89 99//99 100//100
f 92//92 106//106 101//101
f 83//83 107//107 92//92
f 93//93 107//107 83//83
f 93//93 84//84 108//108
f 101//101 109//109 85//85
f 106//106 109//109 101//101
f 85//85 109//109 102//102
f 110//110 84//84 62//62
f 103//103 110//110 62//62
f 111//111 95//95 94//94
f 72//72 86//86 112//112
f 86//86 79//79 113//113
f 65//65 114//114 79//79
f 56//56 96//96 66//66
f 105//105 115//115 97//97
f 98//98 96//96 81//81
f 116//116 88//88 97//97
f 116//116 99//99 88//88
f 90//90 100//100 117//117
f 106//106 92//92 107//107
f 108//108 107//107 93//93
f 102//102 109//109 111//111
f 102//102 111//111 94//94
f 65//65 66//66 118//118
f 115//115 116//116 97//97
f 119//119 99//99 116//116
f 119//119 100//100 99//99
f 117//117 100//100 120//120
f 117//117 121//121 90//90
f 121//121 91//91 90//90
f 106//106 122//122 109//109
f 107//107 122//122 106//106
f 109//109 123//123 111//111
f 123//123 109//109 122//122
f 84//84 124//124 108//108
f 110//110 124//124 84//84
f 103//103 72//72 112//112
f 111//111 125//125 95//95
f 113//113 112//112 86//86
f 104//104 95//95 125//125
f 79//79 114//114 126//126
f 65//65 118//118 114//114
f 104//104 115//115 105//105
f 115//115 104//104 127//127
f 66//66 96//96 118//118
f 128//128 115//115 127//127
f 128//128 116//116 115//115
f 98//98 91//91 121//121
f 100//100 119//119 120//120
f 107//107 129//129 122//122
f 103//103 130//130 110//110
f 79//79 126//126 113//113
f 125//125 127//127 104//104
f 114//114 118//118 131//131
f 116//116 132//132 119//119
f 133//133 98//98 121//121
f 119//119 134//134 120//120
f 107//107 135//135 129//129
f 107//107 108//108 135//135
f 129//129 123//123 122//122
f 124//124 135//135 108//108
f 136//136 111//111 123//123
f 103//103 137//137 130//130
f 103//103 112//112 137//137
f 125//125 111//111 138//138
f 138//138 111//111 139//139
f 113//113 126//126 140//140
f 138//138 127//127 125//125
f 131//131 126//126 114//114
f 118//118 96//96 141//141
f 128//128 132//132 116//116
f 96//96 98//98 141//141
f 133//133 141//141 98//98
f 132//132 134//134 119//119
f 117//117 120//120 142//142
f 121//121 117//117 142//142
f 129//129 143//143 123//123
f 136//136 123//123 143//143
f 130//130 144//144 124//124
f 110//110 130//130 124//124
f 136//136 139//139 111//111
f 127//127 145//145 146//146
f 128//128 127//127 146//146
f 128//128 147//147 132//132
f 120//120 134//134 142//142
f 148//148 142//142 149//149
f 121//121 142//142 148//148
f 129//129 135//135 150//150
f 144//144 135//135 124//124
f 151//151 112//112 113//113
f 113//113 140//140 151//151
f 138//138 145//145 127//127
f 131//131 118//118 152//152
f 118//118 141//141 152//152
f 141//141 133//133 153//153
f 133//133 121//121 148//148
f 150//150 135//135 154//154
f 143//143 129//129 150//150
f 144//144 154//154 135//135
f 137//137 155//155 130//130
f 112//112 155//155 137//137
f 112//112 156//156 155//155
f 112//112 151//151 156//156
f 140//140 126//126 151//151
f 141//141 153//153 152//152
f 146//146 147//147 128//128
f 153//153 133//133 157//157
f 134//134 132//132 147//147
f 158//158 142//142 134//134
f 130//130 155//155 144//144
f 143//143 159//159 136//136
f 136//136 159//159 139//139
f 151//151 126//126 160//160
f 126//126 131//131 160//160
f 131//131 152//152 160//160
f 157//157 152//152 153//153
f 133//133 148//148 161//161
f 133//133 161//161 157//157
f 147//147 158//158 134//134
f 142//142 158//158 149//149
f 143//143 150//150 159//159
f 162//162 138//138 139//139
f 152//152 163//163 160//160
f 146//146 145//145 164//164
f 152//152 157//157 163//163
f 146//146 164//164 147//147
f 147//147 165//165 158//158
f 149//149 158//158 166//166
f 161//161 148//148 149//149
f 144//144 167//167 154//154
f 155//155 167//167 144//144
f 156//156 168//168 155//155
f 139//139 159//159 169//169
f 156//156 151//151 170//170
f 151//151 160//160 170//170
f 138//138 164//164 145//145
f 157//157 171//171 163//163
f 165//165 166//166 158//158
f 149//149 166//166 161//161
f 150//150 154//154 172//172
f 159//159 150//150 172//172
f 167//167 155//155 168//168
f 167//167 172//172 154//154
f 173//173 169//169 159//159
f 172//172 173//173 159//159
f 156//156 170//170 168//168
f 139//139 169//169 162//162
f 170//170 160//160 174//174
f 163//163 174//174 160//160
f 162//162 164//164 138//138
f 147//147 164//164 175//175
f 171//171 157//157 176//176
f 165//165 147//147 175//175
f 166//166 176//176 161//161
f 176//176 157//157 161//161
f 167//167 168//168 177//177
f 177//177 168//168 178//178
f 168//168 170//170 178//178
f 170//170 174//174 178//178
f 163//163 171//171 174//174
f 162//162 179//179 164//164
f 175//175 164//164 179//179
f 172//172 167//167 180//180
f 180//180 167//167 177//177
f 180//180 177//177 181//181
f 178//178 181//181 177//177
f 162//162 169//169 173//173
f 178//178 174//174 181//181
f 174//174 182//182 181//181
f 174//174 171//171 182//182
f 175//175 183//183 165//165
f 171//171 176//176 182//182
f 166//166 165//165 183//183
f 182//182 166//166 183//183
f 176//176 166//166 182//182
f 180//180 184//184 172//172
f 172//172 184//184 173//173
f 184//184 185//185 173//173
f 181//181 184//184 180//180
f 162//162 173//173 185//185
f 182//182 186//186 184//184
f 184//184 181//181 182//182
f 162//162 185//185 179//179
f 185//185 175//175 179//179
f 186//186 175//175 185//185
f 186//186 183//183 175//175
f 182//182 183//183 186//186
f 184//184 187//187 185//185
f 184//184 186//186 187//187
f 186//186 185//185 187//187
