# Blender v2.92.0 OBJ File: 'convert_to_one_sided.blend'
# www.blender.org
mtllib 1104L.mtl
o Cube
v 0.001000 0.001000 -0.001000
v 0.001000 -0.001000 -0.001000
v 0.001000 0.001000 0.001000
v 0.001000 -0.001000 0.001000
v -0.001000 0.001000 -0.001000
v -0.001000 -0.001000 -0.001000
v -0.001000 0.001000 0.001000
v -0.001000 -0.001000 0.001000
vt 0.625000 0.500000
vt 0.875000 0.500000
vt 0.875000 0.750000
vt 0.625000 0.750000
vt 0.375000 0.750000
vt 0.625000 1.000000
vt 0.375000 1.000000
vt 0.375000 0.000000
vt 0.625000 0.000000
vt 0.625000 0.250000
vt 0.375000 0.250000
vt 0.125000 0.500000
vt 0.375000 0.500000
vt 0.125000 0.750000
vn 0.0000 1.0000 0.0000
vn 0.0000 0.0000 1.0000
vn -1.0000 0.0000 0.0000
vn 0.0000 -1.0000 0.0000
vn 1.0000 0.0000 0.0000
vn 0.0000 0.0000 -1.0000
usemtl Material
s off
f 1/1/1 5/2/1 7/3/1 3/4/1
f 4/5/2 3/4/2 7/6/2 8/7/2
f 8/8/3 7/9/3 5/10/3 6/11/3
f 6/12/4 2/13/4 4/5/4 8/14/4
f 2/13/5 1/1/5 3/4/5 4/5/5
f 6/11/6 5/10/6 1/1/6 2/13/6
o 1104
v 6.012503 4.402402 4.633441
v 5.966563 4.418562 4.632631
v 5.983883 4.461782 4.631031
v 5.931754 4.486951 4.642221
v 6.058292 4.470281 4.658131
v 5.976263 4.553370 4.662331
v 6.076412 4.271244 4.687250
v 5.998503 4.352893 4.656110
v 6.071672 4.347843 4.673161
v 5.906694 4.422002 4.659951
v 5.869945 4.509021 4.677240
v 5.841475 4.432242 4.689170
v 6.065622 4.609240 4.693661
v 5.918674 4.541131 4.669041
v 6.017003 4.287054 4.685540
v 5.941483 4.335623 4.682840
v 5.872284 4.377013 4.694920
v 6.145261 4.427742 4.706650
v 6.130601 4.566771 4.711880
v 5.908784 4.614270 4.713680
v 6.012672 4.667649 4.719250
v 6.046402 4.252114 4.711650
v 5.957664 4.284384 4.723650
v 6.144361 4.321343 4.723400
v 5.884004 4.336223 4.717510
v 5.825475 4.383012 4.736939
v 5.816425 4.472661 4.720120
v 6.221660 4.538510 4.773270
v 5.835565 4.553530 4.728140
v 6.117381 4.644979 4.726140
v 6.101281 4.274324 4.724160
v 6.243340 4.419342 4.792480
v 5.983313 4.718778 4.758620
v 6.098812 4.714628 4.758520
v 5.989613 4.256124 4.737979
v 6.026093 4.261874 4.743890
v 5.937144 4.275354 4.757060
v 5.881875 4.317883 4.763219
v 6.170930 4.316524 4.758749
v 6.198141 4.351813 4.770839
v 5.789325 4.435322 4.761300
v 5.796695 4.517220 4.765779
v 5.835715 4.623340 4.787330
v 6.177860 4.669999 4.786139
v 6.044972 4.754948 4.778199
v 5.958323 4.270294 4.760409
v 5.791505 4.389523 4.794639
v 6.301469 4.537611 4.845358
v 5.918064 4.712678 4.800749
v 6.156731 4.772038 4.827448
v 6.006253 4.808737 4.847369
v 6.093462 4.297763 4.768599
v 5.913804 4.293364 4.776299
v 5.826225 4.361003 4.789539
v 6.231500 4.368753 4.806778
v 5.782576 4.479381 4.815879
v 5.862165 4.713619 4.869508
v 6.094752 4.810427 4.841029
v 5.957533 4.321774 4.800039
v 5.862985 4.342283 4.800079
v 6.173720 4.343823 4.802248
v 6.237150 4.382883 4.848778
v 6.302209 4.413063 4.859408
v 5.795715 4.586230 4.836379
v 6.274379 4.645259 4.858058
v 6.086502 4.364173 4.827818
v 5.799465 4.407012 4.823359
v 5.787126 4.434082 4.820479
v 6.330639 4.484241 4.880518
v 5.820475 4.653299 4.863478
v 6.234830 4.738038 4.873978
v 5.934433 4.787957 4.891578
v 6.180140 4.808497 4.888598
v 6.063632 4.863006 4.894168
v 5.961293 4.433942 4.867249
v 6.168651 4.402092 4.863758
v 6.299569 4.408982 4.877888
v 5.785195 4.488771 4.845249
v 6.347258 4.445862 4.918608
v 5.788725 4.560220 4.863909
v 5.808005 4.631399 4.882808
v 6.348728 4.589480 4.921418
v 5.981983 4.847217 4.923208
v 6.023623 4.865517 4.922897
v 5.846865 4.412812 4.841989
v 5.895984 4.420292 4.852238
v 6.059322 4.459882 4.886368
v 6.278039 4.450782 4.946817
v 6.119031 4.860387 4.918007
v 5.871494 4.499051 4.886668
v 5.811305 4.515271 4.869088
v 6.379438 4.521001 4.972667
v 5.845135 4.697508 4.908458
v 6.308289 4.681989 4.918697
v 5.913094 4.783437 4.952737
v 6.274849 4.754328 4.954647
v 6.190340 4.834077 4.958897
v 6.064332 4.882166 4.964907
v 6.339488 4.445752 4.945977
v 6.132951 4.509361 4.939137
v 6.384588 4.589830 4.986017
v 5.835745 4.649289 4.916337
v 5.962153 4.837007 4.958367
v 6.210730 4.562360 5.019066
v 6.372068 4.480981 4.993716
v 5.963903 4.563220 4.931848
v 5.862444 4.578610 4.909738
v 6.360008 4.651549 5.005136
v 6.268620 4.778957 5.026196
v 6.006923 4.865756 4.972337
v 6.125691 4.870117 4.977387
v 5.903234 4.654519 4.950078
v 5.888404 4.739118 4.956477
v 6.179440 4.838197 5.028906
v 6.356349 4.481761 5.006667
v 6.398178 4.536780 5.052636
v 6.070532 4.639100 5.007496
v 6.389898 4.594030 5.039046
v 5.966233 4.679539 4.988097
v 5.918764 4.722418 4.979797
v 6.340688 4.699459 5.069466
v 5.953533 4.789467 5.011666
v 5.993863 4.841047 5.013617
v 6.041852 4.872636 5.010147
v 6.098152 4.865517 5.026186
v 6.388237 4.531940 5.067776
v 6.306749 4.569340 5.068736
v 6.381648 4.635799 5.074826
v 6.025913 4.739038 5.042166
v 6.241670 4.791107 5.060046
v 6.196650 4.811197 5.078856
v 6.163291 4.681738 5.077536
v 6.284889 4.737858 5.084715
v 6.035922 4.813307 5.063256
v 6.068782 4.848637 5.052456
v 6.140131 4.834427 5.069486
v 6.397408 4.573330 5.102245
v 6.391717 4.593060 5.086706
v 6.228480 4.776298 5.089436
v 6.373858 4.594280 5.115985
v 6.269589 4.650620 5.112935
v 6.093781 4.770257 5.086195
v 6.263739 4.725059 5.117495
v 6.328139 4.686509 5.124105
v 6.185010 4.786587 5.101815
v 6.367028 4.628089 5.104156
v 6.222160 4.708718 5.114125
v 6.164941 4.755238 5.102786
v 6.209310 4.745948 5.107745
v 6.311759 4.685459 5.134755
v 6.114751 4.801157 5.077536
v 6.321749 4.627429 5.120125
v 6.296199 4.675259 5.128055
v 6.330798 4.651399 5.118705
vn 0.1927 -0.1677 -0.9668
vn -0.2198 -0.1881 -0.9572
vn 0.0748 0.1556 -0.9850
vn -0.2937 0.1658 -0.9414
vn 0.3866 0.1261 -0.9136
vn -0.0193 0.3917 -0.9199
vn 0.2988 -0.5674 -0.7673
vn -0.1066 -0.3996 -0.9105
vn 0.4117 -0.1786 -0.8937
vn -0.4106 -0.2364 -0.8807
vn -0.5275 0.2240 -0.8195
vn -0.6336 -0.1641 -0.7560
vn 0.2332 0.3473 -0.9083
vn -0.2970 0.4146 -0.8602
vn -0.2391 -0.6151 -0.7514
vn -0.3677 -0.5093 -0.7781
vn -0.5091 -0.4374 -0.7413
vn 0.5709 -0.0264 -0.8206
vn 0.5202 0.1911 -0.8324
vn -0.3991 0.5203 -0.7550
vn -0.0419 0.5122 -0.8579
vn -0.0101 -0.9563 -0.2921
vn -0.4264 -0.7394 -0.5210
vn 0.6563 -0.3722 -0.6563
vn -0.5402 -0.6476 -0.5375
vn -0.7349 -0.4886 -0.4703
vn -0.7887 0.0533 -0.6125
vn 0.6341 0.1484 -0.7589
vn -0.6855 0.3728 -0.6253
vn 0.4511 0.3584 -0.8173
vn 0.4649 -0.8853 0.0012
vn 0.7191 -0.1793 -0.6714
vn -0.2873 0.6316 -0.7201
vn 0.2776 0.5307 -0.8008
vn -0.2092 -0.9779 -0.0015
vn 0.1348 -0.8510 0.5076
vn -0.4665 -0.8839 -0.0345
vn -0.6176 -0.7787 -0.1106
vn 0.5915 -0.8062 -0.0125
vn 0.7540 -0.4298 -0.4967
vn -0.9211 -0.1002 -0.3763
vn -0.8935 0.2316 -0.3848
vn -0.7176 0.5096 -0.4747
vn 0.5807 0.3556 -0.7324
vn -0.0106 0.6610 -0.7504
vn -0.1188 -0.8331 0.5402
vn -0.9001 -0.4345 0.0318
vn 0.7299 0.1071 -0.6752
vn -0.5224 0.6525 -0.5489
vn 0.4603 0.5685 -0.6818
vn -0.3114 0.7451 -0.5898
vn 0.1866 -0.7723 0.6073
vn -0.3844 -0.7824 0.4899
vn -0.6232 -0.7672 0.1515
vn 0.6274 -0.7700 -0.1158
vn -0.9998 0.0087 -0.0156
vn -0.7136 0.6439 -0.2760
vn 0.1858 0.7266 -0.6615
vn -0.0377 -0.5842 0.8107
vn -0.3881 -0.6942 0.6062
vn 0.1976 -0.8102 0.5519
vn 0.1377 -0.8743 0.4655
vn 0.7572 -0.4970 -0.4239
vn -0.9417 0.2917 -0.1678
vn 0.6762 0.3124 -0.6671
vn 0.0025 -0.6112 0.7914
vn -0.5776 -0.4812 0.6594
vn -0.9253 -0.2240 0.3061
vn 0.8298 -0.0682 -0.5538
vn -0.8516 0.4928 -0.1787
vn 0.6444 0.4918 -0.5856
vn -0.6269 0.7010 -0.3400
vn 0.5182 0.7030 -0.4872
vn -0.0146 0.8721 -0.4891
vn -0.0721 -0.4779 0.8754
vn -0.1090 -0.6796 0.7255
vn 0.3938 -0.8963 0.2040
vn -0.8307 -0.1769 0.5279
vn 0.8215 -0.5467 -0.1623
vn -0.9082 0.0231 0.4180
vn -0.9261 0.3014 0.2269
vn 0.8273 0.2185 -0.5175
vn -0.5161 0.8056 -0.2910
vn -0.2996 0.9019 -0.3113
vn -0.2219 -0.4599 0.8598
vn -0.1086 -0.4709 0.8755
vn -0.1124 -0.5354 0.8371
vn -0.1514 -0.7607 0.6312
vn 0.3269 0.8707 -0.3676
vn -0.2188 -0.3765 0.9002
vn -0.4619 -0.2625 0.8472
vn 0.9513 -0.0987 -0.2921
vn -0.8588 0.4611 0.2232
vn 0.7652 0.4321 -0.4773
vn -0.7713 0.6088 0.1854
vn 0.7273 0.6198 -0.2948
vn 0.5561 0.8134 -0.1706
vn -0.0139 0.9988 -0.0474
vn 0.3089 -0.8847 0.3492
vn -0.2545 -0.5867 0.7688
vn 0.9298 0.2137 -0.2996
vn -0.6499 -0.0381 0.7591
vn -0.6697 0.7417 0.0363
vn -0.3386 -0.5801 0.7409
vn 0.7207 -0.6676 0.1869
vn -0.2221 -0.4305 0.8748
vn -0.3398 -0.2799 0.8978
vn 0.8528 0.4584 -0.2501
vn 0.6532 0.7524 0.0851
vn -0.4355 0.8979 0.0645
vn 0.3269 0.9449 0.0158
vn -0.3773 -0.3083 0.8733
vn -0.7595 0.2414 0.6041
vn 0.4250 0.8763 0.2268
vn 0.0449 -0.8088 0.5864
vn 0.9749 -0.2149 0.0584
vn -0.3287 -0.4869 0.8092
vn 0.9750 0.1888 -0.1169
vn -0.3700 -0.3704 0.8520
vn -0.5102 -0.1716 0.8428
vn 0.7719 0.6171 0.1528
vn -0.6479 0.1933 0.7368
vn -0.5707 0.6478 0.5046
vn -0.2407 0.8971 0.3704
vn 0.1266 0.9226 0.3644
vn 0.3132 -0.7040 0.6374
vn -0.2990 -0.6053 0.7377
vn 0.9036 0.4110 0.1209
vn -0.4314 -0.2880 0.8550
vn 0.5543 0.7416 0.3780
vn 0.3609 0.7328 0.5769
vn -0.3702 -0.4151 0.8310
vn 0.5432 0.6993 0.4647
vn -0.3938 0.2456 0.8858
vn -0.1882 0.6490 0.7372
vn 0.0710 0.7186 0.6918
vn 0.8181 -0.0784 0.5696
vn 0.9563 0.2400 0.1669
vn 0.4297 0.6189 0.6576
vn 0.1713 -0.2408 0.9553
vn -0.3362 -0.4009 0.8522
vn -0.2999 -0.0415 0.9531
vn 0.1062 0.4024 0.9093
vn 0.5635 0.4514 0.6918
vn 0.0191 0.4043 0.9144
vn 0.7098 0.3304 0.6221
vn -0.2384 -0.0792 0.9679
vn -0.2219 0.0366 0.9744
vn -0.0959 0.1177 0.9884
vn 0.1536 0.0574 0.9865
vn -0.1687 0.3446 0.9235
vn -0.1281 -0.3216 0.9382
vn -0.1362 -0.1436 0.9802
vn 0.3052 -0.0453 0.9512
usemtl mtl1.113
s 1
f 9//7 10//8 11//9
f 11//9 10//8 12//10
f 9//7 11//9 13//11
f 14//12 11//9 12//10
f 14//12 13//11 11//9
f 15//13 16//14 17//15
f 17//15 16//14 9//7
f 9//7 16//14 10//8
f 16//14 18//16 10//8
f 17//15 9//7 13//11
f 10//8 18//16 12//10
f 19//17 18//16 20//18
f 12//10 18//16 19//17
f 13//11 14//12 21//19
f 12//10 19//17 22//20
f 12//10 22//20 14//12
f 15//13 23//21 16//14
f 23//21 24//22 16//14
f 24//22 25//23 18//16
f 16//14 24//22 18//16
f 18//16 25//23 20//18
f 17//15 13//11 26//24
f 26//24 13//11 27//25
f 27//25 13//11 21//19
f 19//17 28//26 22//20
f 22//20 28//26 14//12
f 29//27 14//12 28//26
f 21//19 14//12 29//27
f 23//21 15//13 30//28
f 31//29 23//21 30//28
f 23//21 31//29 24//22
f 32//30 17//15 26//24
f 15//13 17//15 32//30
f 24//22 33//31 25//23
f 20//18 25//23 34//32
f 20//18 35//33 19//17
f 26//24 27//25 36//34
f 35//33 37//35 19//17
f 19//17 37//35 28//26
f 38//36 27//25 21//19
f 39//37 30//28 15//13
f 15//13 32//30 39//37
f 31//29 33//31 24//22
f 26//24 40//38 32//30
f 33//31 34//32 25//23
f 35//33 20//18 34//32
f 41//39 29//27 28//26
f 38//36 21//19 42//40
f 29//27 42//40 21//19
f 43//41 30//28 44//42
f 30//28 39//37 44//42
f 45//43 31//29 43//41
f 30//28 43//41 31//29
f 31//29 45//43 46//44
f 32//30 47//45 39//37
f 31//29 46//44 33//31
f 47//45 32//30 48//46
f 34//32 33//31 46//44
f 48//46 32//30 40//38
f 34//32 49//47 35//33
f 36//34 40//38 26//24
f 50//48 35//33 49//47
f 50//48 37//35 35//33
f 37//35 51//49 28//26
f 27//25 38//36 52//50
f 42//40 52//50 38//36
f 41//39 53//51 29//27
f 29//27 53//51 42//40
f 45//43 43//41 54//52
f 34//32 55//53 49//47
f 36//34 56//54 40//38
f 37//35 50//48 51//49
f 36//34 27//25 52//50
f 28//26 51//49 57//55
f 41//39 28//26 57//55
f 58//56 52//50 42//40
f 41//39 59//57 53//51
f 44//42 54//52 43//41
f 60//58 44//42 39//37
f 45//43 54//52 61//59
f 39//37 47//45 60//58
f 34//32 62//60 55//53
f 34//32 46//44 62//60
f 63//61 47//45 48//46
f 63//61 48//46 40//38
f 55//53 64//62 49//47
f 49//47 64//62 50//48
f 65//63 57//55 51//49
f 66//64 58//56 42//40
f 66//64 42//40 53//51
f 66//64 53//51 59//57
f 44//42 67//65 54//52
f 60//58 67//65 44//42
f 61//59 46//44 45//43
f 46//44 68//66 62//60
f 61//59 68//66 46//44
f 47//45 69//67 60//58
f 47//45 63//61 69//67
f 63//61 70//68 69//67
f 63//61 40//38 71//69
f 50//48 64//62 72//70
f 72//70 51//49 50//48
f 36//34 52//50 73//71
f 57//55 59//57 41//39
f 61//59 54//52 67//65
f 60//58 74//72 67//65
f 74//72 60//58 69//67
f 55//53 75//73 76//74
f 55//53 62//60 75//73
f 55//53 76//74 64//62
f 71//69 40//38 77//75
f 77//75 40//38 56//54
f 56//54 36//34 73//71
f 78//76 51//49 72//70
f 65//63 51//49 78//76
f 52//50 79//77 73//71
f 57//55 65//63 80//78
f 58//56 79//77 52//50
f 57//55 80//78 59//57
f 58//56 66//64 81//79
f 79//77 58//56 81//79
f 66//64 59//57 82//80
f 68//66 61//59 67//65
f 68//66 75//73 62//60
f 74//72 83//81 67//65
f 69//67 84//82 74//72
f 70//68 84//82 69//67
f 63//61 85//83 70//68
f 71//69 85//83 63//61
f 64//62 76//74 86//84
f 77//75 87//85 71//69
f 86//84 88//86 64//62
f 64//62 88//86 72//70
f 88//86 89//87 72//70
f 56//54 73//71 90//88
f 72//70 89//87 78//76
f 91//89 59//57 80//78
f 59//57 91//89 92//90
f 59//57 92//90 82//80
f 68//66 67//65 93//91
f 94//92 67//65 83//81
f 75//73 68//66 93//91
f 93//91 67//65 94//92
f 95//93 74//72 84//82
f 85//83 96//94 70//68
f 71//69 87//85 85//83
f 86//84 76//74 75//73
f 97//95 81//79 66//64
f 66//64 82//80 97//95
f 83//81 74//72 95//93
f 84//82 70//68 96//94
f 83//81 98//96 94//92
f 99//97 86//84 75//73
f 86//84 99//97 88//86
f 77//75 56//54 90//88
f 90//88 100//98 77//75
f 78//76 89//87 101//99
f 73//71 102//100 90//88
f 73//71 79//77 102//100
f 65//63 78//76 101//99
f 80//78 65//63 103//101
f 79//77 81//79 104//102
f 81//79 97//95 105//103
f 97//95 82//80 106//104
f 87//85 107//105 85//83
f 94//92 98//96 93//91
f 108//106 95//93 84//82
f 93//91 99//97 75//73
f 93//91 98//96 99//97
f 87//85 77//75 100//98
f 100//98 90//88 109//107
f 110//108 88//86 99//97
f 88//86 110//108 89//87
f 101//99 103//101 65//63
f 102//100 79//77 104//102
f 80//78 103//101 111//109
f 81//79 105//103 104//102
f 91//89 80//78 111//109
f 82//80 92//90 106//104
f 85//83 107//105 96//94
f 84//82 96//94 108//106
f 96//94 112//110 108//106
f 87//85 113//111 107//105
f 113//111 87//85 100//98
f 108//106 114//112 95//93
f 99//97 98//96 115//113
f 95//93 114//112 83//81
f 83//81 114//112 98//96
f 110//108 99//97 115//113
f 110//108 101//99 89//87
f 116//114 90//88 102//100
f 104//102 105//103 117//115
f 118//116 91//89 111//109
f 92//90 91//89 118//116
f 97//95 119//117 105//103
f 119//117 97//95 106//104
f 115//113 98//96 114//112
f 120//118 110//108 115//113
f 109//107 90//88 116//114
f 110//108 121//119 101//99
f 101//99 121//119 103//101
f 105//103 122//120 117//115
f 92//90 118//116 106//104
f 107//105 123//121 96//94
f 113//111 100//98 124//122
f 125//123 108//106 112//110
f 100//98 109//107 126//124
f 114//112 108//106 125//123
f 115//113 114//112 120//118
f 127//125 120//118 114//112
f 109//107 116//114 126//124
f 120//118 128//126 110//108
f 110//108 128//126 121//119
f 116//114 102//100 104//102
f 129//127 116//114 104//102
f 104//102 117//115 129//127
f 121//119 130//128 103//101
f 131//129 111//109 103//101
f 105//103 119//117 122//120
f 106//104 118//116 132//130
f 133//131 119//117 106//104
f 113//111 123//121 107//105
f 134//132 113//111 124//122
f 125//123 127//125 114//112
f 128//126 120//118 127//125
f 128//126 130//128 121//119
f 130//128 131//129 103//101
f 131//129 118//116 111//109
f 106//104 132//130 133//131
f 123//121 135//133 96//94
f 113//111 134//132 123//121
f 100//98 126//124 124//122
f 126//124 116//114 136//134
f 137//135 127//125 125//123
f 136//134 116//114 129//127
f 138//136 122//120 139//137
f 117//115 122//120 138//136
f 118//116 131//129 132//130
f 133//131 122//120 119//117
f 96//94 135//133 112//110
f 112//110 140//138 125//123
f 140//138 137//135 125//123
f 117//115 141//139 129//127
f 127//125 137//135 128//126
f 138//136 141//139 117//115
f 128//126 137//135 130//128
f 130//128 142//140 131//129
f 132//130 131//129 143//141
f 132//130 143//141 133//131
f 143//141 144//142 133//131
f 122//120 133//131 144//142
f 134//132 135//133 123//121
f 145//143 134//132 124//122
f 140//138 112//110 135//133
f 126//124 136//134 146//144
f 141//139 138//136 147//145
f 137//135 142//140 130//128
f 139//137 147//145 138//136
f 144//142 139//137 122//120
f 134//132 148//146 135//133
f 145//143 148//146 134//132
f 145//143 124//122 146//144
f 146//144 124//122 126//124
f 135//133 149//147 140//138
f 137//135 140//138 150//148
f 147//145 151//149 141//139
f 129//127 141//139 152//150
f 150//148 142//140 137//135
f 147//145 153//151 151//149
f 147//145 139//137 153//151
f 153//151 139//137 144//142
f 143//141 131//129 142//140
f 136//134 154//152 146//144
f 140//138 149//147 155//153
f 155//153 156//154 140//138
f 157//155 156//154 155//153
f 151//149 158//156 152//150
f 150//148 140//138 156//154
f 151//149 157//155 155//153
f 152//150 141//139 151//149
f 153//151 157//155 151//149
f 159//157 142//140 150//148
f 153//151 144//142 159//157
f 159//157 143//141 142//140
f 144//142 143//141 159//157
f 135//133 148//146 160//158
f 149//147 135//133 160//158
f 148//146 145//143 154//152
f 154//152 145//143 146//144
f 160//158 161//159 149//147
f 155//153 149//147 161//159
f 162//160 161//159 160//158
f 158//156 161//159 162//160
f 152//150 154//152 129//127
f 129//127 154//152 136//134
f 151//149 155//153 161//159
f 158//156 151//149 161//159
f 156//154 157//155 153//151
f 156//154 159//157 150//148
f 153//151 159//157 156//154
f 148//146 162//160 160//158
f 148//146 154//152 162//160
f 152//150 158//156 162//160
f 154//152 152//150 162//160
