# Blender v2.92.0 OBJ File: 'convert_to_one_sided.blend'
# www.blender.org
mtllib 1104L.mtl
o 1104
v 6.012503 4.402402 4.633441
v 5.966563 4.418562 4.632631
v 5.983883 4.461782 4.631031
v 5.931754 4.486951 4.642221
v 6.058292 4.470281 4.658131
v 5.976263 4.553370 4.662331
v 6.076412 4.271244 4.687250
v 5.998503 4.352893 4.656110
v 6.071672 4.347843 4.673161
v 5.906694 4.422002 4.659951
v 5.869945 4.509021 4.677240
v 5.841475 4.432242 4.689170
v 6.065622 4.609240 4.693661
v 5.918674 4.541131 4.669041
v 6.017003 4.287054 4.685540
v 5.941483 4.335623 4.682840
v 5.872284 4.377013 4.694920
v 6.145261 4.427742 4.706650
v 6.130601 4.566771 4.711880
v 5.908784 4.614270 4.713680
v 6.012672 4.667649 4.719250
v 6.046402 4.252114 4.711650
v 5.957664 4.284384 4.723650
v 6.144361 4.321343 4.723400
v 5.884004 4.336223 4.717510
v 5.825475 4.383012 4.736939
v 5.816425 4.472661 4.720120
v 6.221660 4.538510 4.773270
v 5.835565 4.553530 4.728140
v 6.117381 4.644979 4.726140
v 6.101281 4.274324 4.724160
v 6.243340 4.419342 4.792480
v 5.983313 4.718778 4.758620
v 6.098812 4.714628 4.758520
v 5.989613 4.256124 4.737979
v 6.026093 4.261874 4.743890
v 5.937144 4.275354 4.757060
v 5.881875 4.317883 4.763219
v 6.170930 4.316524 4.758749
v 6.198141 4.351813 4.770839
v 5.789325 4.435322 4.761300
v 5.796695 4.517220 4.765779
v 5.835715 4.623340 4.787330
v 6.177860 4.669999 4.786139
v 6.044972 4.754948 4.778199
v 5.958323 4.270294 4.760409
v 5.791505 4.389523 4.794639
v 6.301469 4.537611 4.845358
v 5.918064 4.712678 4.800749
v 6.156731 4.772038 4.827448
v 6.006253 4.808737 4.847369
v 6.093462 4.297763 4.768599
v 5.913804 4.293364 4.776299
v 5.826225 4.361003 4.789539
v 6.231500 4.368753 4.806778
v 5.782576 4.479381 4.815879
v 5.862165 4.713619 4.869508
v 6.094752 4.810427 4.841029
v 5.957533 4.321774 4.800039
v 5.862985 4.342283 4.800079
v 6.173720 4.343823 4.802248
v 6.237150 4.382883 4.848778
v 6.302209 4.413063 4.859408
v 5.795715 4.586230 4.836379
v 6.274379 4.645259 4.858058
v 6.086502 4.364173 4.827818
v 5.799465 4.407012 4.823359
v 5.787126 4.434082 4.820479
v 6.330639 4.484241 4.880518
v 5.820475 4.653299 4.863478
v 6.234830 4.738038 4.873978
v 5.934433 4.787957 4.891578
v 6.180140 4.808497 4.888598
v 6.063632 4.863006 4.894168
v 5.961293 4.433942 4.867249
v 6.168651 4.402092 4.863758
v 6.299569 4.408982 4.877888
v 5.785195 4.488771 4.845249
v 6.347258 4.445862 4.918608
v 5.788725 4.560220 4.863909
v 5.808005 4.631399 4.882808
v 6.348728 4.589480 4.921418
v 5.981983 4.847217 4.923208
v 6.023623 4.865517 4.922897
v 5.846865 4.412812 4.841989
v 5.895984 4.420292 4.852238
v 6.059322 4.459882 4.886368
v 6.278039 4.450782 4.946817
v 6.119031 4.860387 4.918007
v 5.871494 4.499051 4.886668
v 5.811305 4.515271 4.869088
v 6.379438 4.521001 4.972667
v 5.845135 4.697508 4.908458
v 6.308289 4.681989 4.918697
v 5.913094 4.783437 4.952737
v 6.274849 4.754328 4.954647
v 6.190340 4.834077 4.958897
v 6.064332 4.882166 4.964907
v 6.339488 4.445752 4.945977
v 6.132951 4.509361 4.939137
v 6.384588 4.589830 4.986017
v 5.835745 4.649289 4.916337
v 5.962153 4.837007 4.958367
v 6.210730 4.562360 5.019066
v 6.372068 4.480981 4.993716
v 5.963903 4.563220 4.931848
v 5.862444 4.578610 4.909738
v 6.360008 4.651549 5.005136
v 6.268620 4.778957 5.026196
v 6.006923 4.865756 4.972337
v 6.125691 4.870117 4.977387
v 5.903234 4.654519 4.950078
v 5.888404 4.739118 4.956477
v 6.179440 4.838197 5.028906
v 6.356349 4.481761 5.006667
v 6.398178 4.536780 5.052636
v 6.070532 4.639100 5.007496
v 6.389898 4.594030 5.039046
v 5.966233 4.679539 4.988097
v 5.918764 4.722418 4.979797
v 6.340688 4.699459 5.069466
v 5.953533 4.789467 5.011666
v 5.993863 4.841047 5.013617
v 6.041852 4.872636 5.010147
v 6.098152 4.865517 5.026186
v 6.388237 4.531940 5.067776
v 6.306749 4.569340 5.068736
v 6.381648 4.635799 5.074826
v 6.025913 4.739038 5.042166
v 6.241670 4.791107 5.060046
v 6.196650 4.811197 5.078856
v 6.163291 4.681738 5.077536
v 6.284889 4.737858 5.084715
v 6.035922 4.813307 5.063256
v 6.068782 4.848637 5.052456
v 6.140131 4.834427 5.069486
v 6.397408 4.573330 5.102245
v 6.391717 4.593060 5.086706
v 6.228480 4.776298 5.089436
v 6.373858 4.594280 5.115985
v 6.269589 4.650620 5.112935
v 6.093781 4.770257 5.086195
v 6.263739 4.725059 5.117495
v 6.328139 4.686509 5.124105
v 6.185010 4.786587 5.101815
v 6.367028 4.628089 5.104156
v 6.222160 4.708718 5.114125
v 6.164941 4.755238 5.102786
v 6.209310 4.745948 5.107745
v 6.311759 4.685459 5.134755
v 6.114751 4.801157 5.077536
v 6.321749 4.627429 5.120125
v 6.296199 4.675259 5.128055
v 6.330798 4.651399 5.118705
vn 0.1927 -0.1677 -0.9668
vn -0.2198 -0.1881 -0.9572
vn 0.0748 0.1556 -0.9850
vn -0.2937 0.1658 -0.9414
vn 0.3866 0.1261 -0.9136
vn -0.0193 0.3917 -0.9199
vn 0.2988 -0.5674 -0.7673
vn -0.1066 -0.3996 -0.9105
vn 0.4117 -0.1786 -0.8937
vn -0.4106 -0.2364 -0.8807
vn -0.5275 0.2240 -0.8195
vn -0.6336 -0.1641 -0.7560
vn 0.2332 0.3473 -0.9083
vn -0.2970 0.4146 -0.8602
vn -0.2391 -0.6151 -0.7514
vn -0.3677 -0.5093 -0.7781
vn -0.5091 -0.4374 -0.7413
vn 0.5709 -0.0264 -0.8206
vn 0.5202 0.1911 -0.8324
vn -0.3991 0.5203 -0.7550
vn -0.0419 0.5122 -0.8579
vn -0.0101 -0.9563 -0.2921
vn -0.4264 -0.7394 -0.5210
vn 0.6563 -0.3722 -0.6563
vn -0.5402 -0.6476 -0.5375
vn -0.7349 -0.4886 -0.4703
vn -0.7887 0.0533 -0.6125
vn 0.6341 0.1484 -0.7589
vn -0.6855 0.3728 -0.6253
vn 0.4511 0.3584 -0.8173
vn 0.4649 -0.8853 0.0012
vn 0.7191 -0.1793 -0.6714
vn -0.2873 0.6316 -0.7201
vn 0.2776 0.5307 -0.8008
vn -0.2092 -0.9779 -0.0015
vn 0.1348 -0.8510 0.5076
vn -0.4665 -0.8839 -0.0345
vn -0.6176 -0.7787 -0.1106
vn 0.5915 -0.8062 -0.0125
vn 0.7540 -0.4298 -0.4967
vn -0.9211 -0.1002 -0.3763
vn -0.8935 0.2316 -0.3848
vn -0.7176 0.5096 -0.4747
vn 0.5807 0.3556 -0.7324
vn -0.0106 0.6610 -0.7504
vn -0.1188 -0.8331 0.5402
vn -0.9001 -0.4345 0.0318
vn 0.7299 0.1071 -0.6752
vn -0.5224 0.6525 -0.5489
vn 0.4603 0.5685 -0.6818
vn -0.3114 0.7451 -0.5898
vn 0.1866 -0.7723 0.6073
vn -0.3844 -0.7824 0.4899
vn -0.6232 -0.7672 0.1515
vn 0.6274 -0.7700 -0.1158
vn -0.9998 0.0087 -0.0156
vn -0.7136 0.6439 -0.2760
vn 0.1858 0.7266 -0.6615
vn -0.0377 -0.5842 0.8107
vn -0.3881 -0.6942 0.6062
vn 0.1976 -0.8102 0.5519
vn 0.1377 -0.8743 0.4655
vn 0.7572 -0.4970 -0.4239
vn -0.9417 0.2917 -0.1678
vn 0.6762 0.3124 -0.6671
vn 0.0025 -0.6112 0.7914
vn -0.5776 -0.4812 0.6594
vn -0.9253 -0.2240 0.3061
vn 0.8298 -0.0682 -0.5538
vn -0.8516 0.4928 -0.1787
vn 0.6444 0.4918 -0.5856
vn -0.6269 0.7010 -0.3400
vn 0.5182 0.7030 -0.4872
vn -0.0146 0.8721 -0.4891
vn -0.0721 -0.4779 0.8754
vn -0.1090 -0.6796 0.7255
vn 0.3938 -0.8963 0.2040
vn -0.8307 -0.1769 0.5279
vn 0.8215 -0.5467 -0.1623
vn -0.9082 0.0231 0.4180
vn -0.9261 0.3014 0.2269
vn 0.8273 0.2185 -0.5175
vn -0.5161 0.8056 -0.2910
vn -0.2996 0.9019 -0.3113
vn -0.2219 -0.4599 0.8598
vn -0.1086 -0.4709 0.8755
vn -0.1124 -0.5354 0.8371
vn -0.1514 -0.7607 0.6312
vn 0.3269 0.8707 -0.3676
vn -0.2188 -0.3765 0.9002
vn -0.4619 -0.2625 0.8472
vn 0.9513 -0.0987 -0.2921
vn -0.8588 0.4611 0.2232
vn 0.7652 0.4321 -0.4773
vn -0.7713 0.6088 0.1854
vn 0.7273 0.6198 -0.2948
vn 0.5561 0.8134 -0.1706
vn -0.0139 0.9988 -0.0474
vn 0.3089 -0.8847 0.3492
vn -0.2545 -0.5867 0.7688
vn 0.9298 0.2137 -0.2996
vn -0.6499 -0.0381 0.7591
vn -0.6697 0.7417 0.0363
vn -0.3386 -0.5801 0.7409
vn 0.7207 -0.6676 0.1869
vn -0.2221 -0.4305 0.8748
vn -0.3398 -0.2799 0.8978
vn 0.8528 0.4584 -0.2501
vn 0.6532 0.7524 0.0851
vn -0.4355 0.8979 0.0645
vn 0.3269 0.9449 0.0158
vn -0.3773 -0.3083 0.8733
vn -0.7595 0.2414 0.6041
vn 0.4250 0.8763 0.2268
vn 0.0449 -0.8088 0.5864
vn 0.9749 -0.2149 0.0584
vn -0.3287 -0.4869 0.8092
vn 0.9750 0.1888 -0.1169
vn -0.3700 -0.3704 0.8520
vn -0.5102 -0.1716 0.8428
vn 0.7719 0.6171 0.1528
vn -0.6479 0.1933 0.7368
vn -0.5707 0.6478 0.5046
vn -0.2407 0.8971 0.3704
vn 0.1266 0.9226 0.3644
vn 0.3132 -0.7040 0.6374
vn -0.2990 -0.6053 0.7377
vn 0.9036 0.4110 0.1209
vn -0.4314 -0.2880 0.8550
vn 0.5543 0.7416 0.3780
vn 0.3609 0.7328 0.5769
vn -0.3702 -0.4151 0.8310
vn 0.5432 0.6993 0.4647
vn -0.3938 0.2456 0.8858
vn -0.1882 0.6490 0.7372
vn 0.0710 0.7186 0.6918
vn 0.8181 -0.0784 0.5696
vn 0.9563 0.2400 0.1669
vn 0.4297 0.6189 0.6576
vn 0.1713 -0.2408 0.9553
vn -0.3362 -0.4009 0.8522
vn -0.2999 -0.0415 0.9531
vn 0.1062 0.4024 0.9093
vn 0.5635 0.4514 0.6918
vn 0.0191 0.4043 0.9144
vn 0.7098 0.3304 0.6221
vn -0.2384 -0.0792 0.9679
vn -0.2219 0.0366 0.9744
vn -0.0959 0.1177 0.9884
vn 0.1536 0.0574 0.9865
vn -0.1687 0.3446 0.9235
vn -0.1281 -0.3216 0.9382
vn -0.1362 -0.1436 0.9802
vn 0.3052 -0.0453 0.9512
usemtl mtl1.964
s 1
f 1//1 2//2 3//3
f 3//3 2//2 4//4
f 1//1 3//3 5//5
f 6//6 3//3 4//4
f 6//6 5//5 3//3
f 7//7 8//8 9//9
f 9//9 8//8 1//1
f 1//1 8//8 2//2
f 8//8 10//10 2//2
f 9//9 1//1 5//5
f 2//2 10//10 4//4
f 11//11 10//10 12//12
f 4//4 10//10 11//11
f 5//5 6//6 13//13
f 4//4 11//11 14//14
f 4//4 14//14 6//6
f 7//7 15//15 8//8
f 15//15 16//16 8//8
f 16//16 17//17 10//10
f 8//8 16//16 10//10
f 10//10 17//17 12//12
f 9//9 5//5 18//18
f 18//18 5//5 19//19
f 19//19 5//5 13//13
f 11//11 20//20 14//14
f 14//14 20//20 6//6
f 21//21 6//6 20//20
f 13//13 6//6 21//21
f 15//15 7//7 22//22
f 23//23 15//15 22//22
f 15//15 23//23 16//16
f 24//24 9//9 18//18
f 7//7 9//9 24//24
f 16//16 25//25 17//17
f 12//12 17//17 26//26
f 12//12 27//27 11//11
f 18//18 19//19 28//28
f 27//27 29//29 11//11
f 11//11 29//29 20//20
f 30//30 19//19 13//13
f 31//31 22//22 7//7
f 7//7 24//24 31//31
f 23//23 25//25 16//16
f 18//18 32//32 24//24
f 25//25 26//26 17//17
f 27//27 12//12 26//26
f 33//33 21//21 20//20
f 30//30 13//13 34//34
f 21//21 34//34 13//13
f 35//35 22//22 36//36
f 22//22 31//31 36//36
f 37//37 23//23 35//35
f 22//22 35//35 23//23
f 23//23 37//37 38//38
f 24//24 39//39 31//31
f 23//23 38//38 25//25
f 39//39 24//24 40//40
f 26//26 25//25 38//38
f 40//40 24//24 32//32
f 26//26 41//41 27//27
f 28//28 32//32 18//18
f 42//42 27//27 41//41
f 42//42 29//29 27//27
f 29//29 43//43 20//20
f 19//19 30//30 44//44
f 34//34 44//44 30//30
f 33//33 45//45 21//21
f 21//21 45//45 34//34
f 37//37 35//35 46//46
f 26//26 47//47 41//41
f 28//28 48//48 32//32
f 29//29 42//42 43//43
f 28//28 19//19 44//44
f 20//20 43//43 49//49
f 33//33 20//20 49//49
f 50//50 44//44 34//34
f 33//33 51//51 45//45
f 36//36 46//46 35//35
f 52//52 36//36 31//31
f 37//37 46//46 53//53
f 31//31 39//39 52//52
f 26//26 54//54 47//47
f 26//26 38//38 54//54
f 55//55 39//39 40//40
f 55//55 40//40 32//32
f 47//47 56//56 41//41
f 41//41 56//56 42//42
f 57//57 49//49 43//43
f 58//58 50//50 34//34
f 58//58 34//34 45//45
f 58//58 45//45 51//51
f 36//36 59//59 46//46
f 52//52 59//59 36//36
f 53//53 38//38 37//37
f 38//38 60//60 54//54
f 53//53 60//60 38//38
f 39//39 61//61 52//52
f 39//39 55//55 61//61
f 55//55 62//62 61//61
f 55//55 32//32 63//63
f 42//42 56//56 64//64
f 64//64 43//43 42//42
f 28//28 44//44 65//65
f 49//49 51//51 33//33
f 53//53 46//46 59//59
f 52//52 66//66 59//59
f 66//66 52//52 61//61
f 47//47 67//67 68//68
f 47//47 54//54 67//67
f 47//47 68//68 56//56
f 63//63 32//32 69//69
f 69//69 32//32 48//48
f 48//48 28//28 65//65
f 70//70 43//43 64//64
f 57//57 43//43 70//70
f 44//44 71//71 65//65
f 49//49 57//57 72//72
f 50//50 71//71 44//44
f 49//49 72//72 51//51
f 50//50 58//58 73//73
f 71//71 50//50 73//73
f 58//58 51//51 74//74
f 60//60 53//53 59//59
f 60//60 67//67 54//54
f 66//66 75//75 59//59
f 61//61 76//76 66//66
f 62//62 76//76 61//61
f 55//55 77//77 62//62
f 63//63 77//77 55//55
f 56//56 68//68 78//78
f 69//69 79//79 63//63
f 78//78 80//80 56//56
f 56//56 80//80 64//64
f 80//80 81//81 64//64
f 48//48 65//65 82//82
f 64//64 81//81 70//70
f 83//83 51//51 72//72
f 51//51 83//83 84//84
f 51//51 84//84 74//74
f 60//60 59//59 85//85
f 86//86 59//59 75//75
f 67//67 60//60 85//85
f 85//85 59//59 86//86
f 87//87 66//66 76//76
f 77//77 88//88 62//62
f 63//63 79//79 77//77
f 78//78 68//68 67//67
f 89//89 73//73 58//58
f 58//58 74//74 89//89
f 75//75 66//66 87//87
f 76//76 62//62 88//88
f 75//75 90//90 86//86
f 91//91 78//78 67//67
f 78//78 91//91 80//80
f 69//69 48//48 82//82
f 82//82 92//92 69//69
f 70//70 81//81 93//93
f 65//65 94//94 82//82
f 65//65 71//71 94//94
f 57//57 70//70 93//93
f 72//72 57//57 95//95
f 71//71 73//73 96//96
f 73//73 89//89 97//97
f 89//89 74//74 98//98
f 79//79 99//99 77//77
f 86//86 90//90 85//85
f 100//100 87//87 76//76
f 85//85 91//91 67//67
f 85//85 90//90 91//91
f 79//79 69//69 92//92
f 92//92 82//82 101//101
f 102//102 80//80 91//91
f 80//80 102//102 81//81
f 93//93 95//95 57//57
f 94//94 71//71 96//96
f 72//72 95//95 103//103
f 73//73 97//97 96//96
f 83//83 72//72 103//103
f 74//74 84//84 98//98
f 77//77 99//99 88//88
f 76//76 88//88 100//100
f 88//88 104//104 100//100
f 79//79 105//105 99//99
f 105//105 79//79 92//92
f 100//100 106//106 87//87
f 91//91 90//90 107//107
f 87//87 106//106 75//75
f 75//75 106//106 90//90
f 102//102 91//91 107//107
f 102//102 93//93 81//81
f 108//108 82//82 94//94
f 96//96 97//97 109//109
f 110//110 83//83 103//103
f 84//84 83//83 110//110
f 89//89 111//111 97//97
f 111//111 89//89 98//98
f 107//107 90//90 106//106
f 112//112 102//102 107//107
f 101//101 82//82 108//108
f 102//102 113//113 93//93
f 93//93 113//113 95//95
f 97//97 114//114 109//109
f 84//84 110//110 98//98
f 99//99 115//115 88//88
f 105//105 92//92 116//116
f 117//117 100//100 104//104
f 92//92 101//101 118//118
f 106//106 100//100 117//117
f 107//107 106//106 112//112
f 119//119 112//112 106//106
f 101//101 108//108 118//118
f 112//112 120//120 102//102
f 102//102 120//120 113//113
f 108//108 94//94 96//96
f 121//121 108//108 96//96
f 96//96 109//109 121//121
f 113//113 122//122 95//95
f 123//123 103//103 95//95
f 97//97 111//111 114//114
f 98//98 110//110 124//124
f 125//125 111//111 98//98
f 105//105 115//115 99//99
f 126//126 105//105 116//116
f 117//117 119//119 106//106
f 120//120 112//112 119//119
f 120//120 122//122 113//113
f 122//122 123//123 95//95
f 123//123 110//110 103//103
f 98//98 124//124 125//125
f 115//115 127//127 88//88
f 105//105 126//126 115//115
f 92//92 118//118 116//116
f 118//118 108//108 128//128
f 129//129 119//119 117//117
f 128//128 108//108 121//121
f 130//130 114//114 131//131
f 109//109 114//114 130//130
f 110//110 123//123 124//124
f 125//125 114//114 111//111
f 88//88 127//127 104//104
f 104//104 132//132 117//117
f 132//132 129//129 117//117
f 109//109 133//133 121//121
f 119//119 129//129 120//120
f 130//130 133//133 109//109
f 120//120 129//129 122//122
f 122//122 134//134 123//123
f 124//124 123//123 135//135
f 124//124 135//135 125//125
f 135//135 136//136 125//125
f 114//114 125//125 136//136
f 126//126 127//127 115//115
f 137//137 126//126 116//116
f 132//132 104//104 127//127
f 118//118 128//128 138//138
f 133//133 130//130 139//139
f 129//129 134//134 122//122
f 131//131 139//139 130//130
f 136//136 131//131 114//114
f 126//126 140//140 127//127
f 137//137 140//140 126//126
f 137//137 116//116 138//138
f 138//138 116//116 118//118
f 127//127 141//141 132//132
f 129//129 132//132 142//142
f 139//139 143//143 133//133
f 121//121 133//133 144//144
f 142//142 134//134 129//129
f 139//139 145//145 143//143
f 139//139 131//131 145//145
f 145//145 131//131 136//136
f 135//135 123//123 134//134
f 128//128 146//146 138//138
f 132//132 141//141 147//147
f 147//147 148//148 132//132
f 149//149 148//148 147//147
f 143//143 150//150 144//144
f 142//142 132//132 148//148
f 143//143 149//149 147//147
f 144//144 133//133 143//143
f 145//145 149//149 143//143
f 151//151 134//134 142//142
f 145//145 136//136 151//151
f 151//151 135//135 134//134
f 136//136 135//135 151//151
f 127//127 140//140 152//152
f 141//141 127//127 152//152
f 140//140 137//137 146//146
f 146//146 137//137 138//138
f 152//152 153//153 141//141
f 147//147 141//141 153//153
f 154//154 153//153 152//152
f 150//150 153//153 154//154
f 144//144 146//146 121//121
f 121//121 146//146 128//128
f 143//143 147//147 153//153
f 150//150 143//143 153//153
f 148//148 149//149 145//145
f 148//148 151//151 142//142
f 145//145 151//151 148//148
f 140//140 154//154 152//152
f 140//140 146//146 154//154
f 144//144 150//150 154//154
f 146//146 144//144 154//154
