# Blender v2.92.0 OBJ File: 'convert_to_one_sided.blend'
# www.blender.org
mtllib 1105L.mtl
o 1105
v 6.003463 5.933643 2.565388
v 6.014932 5.934253 2.557158
v 6.019972 5.946763 2.561508
v 5.992183 5.947373 2.569888
v 5.941703 5.927874 2.583628
v 5.942323 5.936523 2.582068
v 5.993223 5.965033 2.592518
v 5.903424 5.946953 2.595658
v 5.855025 5.930833 2.608027
v 6.004673 5.962893 2.590478
v 5.894714 5.959813 2.616027
v 6.537226 6.365088 2.605838
v 6.493086 6.388647 2.602357
v 6.569005 6.416367 2.597528
v 6.589915 6.407417 2.618847
v 5.872895 5.927963 2.604907
v 5.998693 5.956803 2.589078
v 6.404288 6.310238 2.637067
v 6.353088 6.346538 2.657957
v 6.417147 6.418537 2.652227
v 6.507836 6.426917 2.622497
v 6.539756 6.435277 2.645387
v 5.804485 5.922223 2.630267
v 5.842995 5.925773 2.629977
v 5.757216 5.917083 2.652787
v 5.920814 5.935653 2.613697
v 5.799685 5.933903 2.637477
v 5.954874 5.955933 2.616347
v 5.907594 5.971793 2.636347
v 5.970503 5.969882 2.613907
v 6.434967 6.256279 2.679176
v 6.524056 6.294278 2.678087
v 6.576035 6.352038 2.661747
v 6.586005 6.417577 2.658467
v 6.588735 6.388027 2.667126
v 5.717317 5.920453 2.665337
v 5.974973 5.969363 2.609247
v 5.788916 5.953003 2.664717
v 6.285959 6.276249 2.685076
v 6.334558 6.446687 2.714016
v 6.432827 6.448506 2.683306
v 5.658557 5.921453 2.690586
v 5.613468 5.919683 2.709176
v 5.667527 5.935963 2.694806
v 5.855895 5.950913 2.652207
v 5.918814 5.968153 2.630267
v 6.305389 6.232140 2.706816
v 6.495546 6.222459 2.736906
v 6.587155 6.348398 2.721506
v 6.460377 6.468576 2.728406
v 5.586118 5.924513 2.717226
v 5.723836 5.931813 2.685886
v 5.687167 5.951353 2.703496
v 5.589388 5.939293 2.734996
v 5.830175 5.956703 2.660577
v 6.364118 6.196120 2.736845
v 6.227760 6.244439 2.727656
v 6.421397 6.185630 2.761685
v 6.567735 6.261639 2.771715
v 6.237530 6.322168 2.729266
v 6.580925 6.394687 2.705006
v 6.313619 6.395397 2.702736
v 6.546416 6.425647 2.721246
v 5.556859 5.929803 2.738096
v 5.583008 5.924123 2.732186
v 5.721866 5.949633 2.697466
v 6.488787 6.467617 2.793335
v 5.589188 5.938853 2.729776
v 5.740636 5.946323 2.691836
v 5.629588 5.946773 2.726926
v 6.332659 6.181180 2.780905
v 6.233150 6.214750 2.766735
v 6.508786 6.187610 2.808385
v 6.186330 6.269029 2.786615
v 6.182150 6.343488 2.788865
v 6.249080 6.418877 2.773525
v 6.360168 6.471586 2.772695
v 5.560699 5.934863 2.744776
v 5.672987 5.943273 2.711956
v 5.629528 5.949683 2.724106
v 5.566838 5.936833 2.743426
v 6.605745 6.303099 2.805605
v 6.596685 6.353178 2.804505
v 6.436757 6.485636 2.836874
v 5.563929 5.944593 2.742946
v 6.264199 6.193000 2.812025
v 6.209550 6.230489 2.815845
v 6.597555 6.202560 2.902184
v 6.181780 6.385607 2.822355
v 6.572695 6.409977 2.872854
v 6.296279 6.475657 2.832614
v 7.342736 5.678147 2.819265
v 7.292966 5.690636 2.828974
v 7.296566 5.710436 2.820555
v 7.374295 5.710006 2.834495
v 7.379365 5.695026 2.839634
v 7.403065 5.737195 2.862444
v 7.170278 5.754885 2.830445
v 7.195548 5.786635 2.821715
v 7.289196 5.778975 2.833874
v 7.078809 5.836284 2.823585
v 7.026120 5.840065 2.835414
v 7.141248 5.851524 2.832594
v 7.000550 5.897593 2.837404
v 5.582618 5.945223 2.733846
v 6.463317 6.172270 2.855904
v 6.633455 6.271799 2.899364
v 6.167941 6.329058 2.838074
v 6.234550 6.440046 2.846784
v 6.515636 6.454416 2.930773
v 7.341695 5.684317 2.838194
v 7.218207 5.717766 2.844114
v 7.156468 5.747126 2.845744
v 7.385475 5.772356 2.867254
v 7.069999 5.799555 2.852704
v 7.270566 5.855794 2.869734
v 6.973860 5.865864 2.851424
v 6.943521 5.909503 2.852894
v 6.919141 5.922483 2.871564
v 7.076719 5.938823 2.868104
v 6.947821 5.948393 2.861844
v 6.905121 5.976333 2.887364
v 6.951271 5.987153 2.880404
v 6.400928 6.195410 2.916764
v 6.186840 6.273459 2.850284
v 6.621525 6.354678 2.888314
v 7.255237 5.719446 2.867444
v 7.350875 5.713676 2.873994
v 7.135988 5.769775 2.869174
v 7.405445 5.778265 2.896704
v 6.975730 5.870564 2.878184
v 7.245497 5.921883 2.905954
v 6.562815 6.187260 2.919733
v 6.272549 6.235769 2.885544
v 6.645314 6.321619 2.917533
v 6.190270 6.387658 2.865824
v 6.315869 6.476336 2.908494
v 6.373738 6.482276 2.881004
v 7.389945 5.748806 2.886204
v 7.046139 5.831254 2.894014
v 7.369295 5.822364 2.902234
v 7.319436 5.884434 2.926423
v 6.943311 5.948383 2.946303
v 6.914701 5.974322 2.916253
v 7.151238 5.992672 2.936373
v 7.024920 6.016482 2.925983
v 6.954230 6.021512 2.937973
v 6.198040 6.333228 2.891734
v 6.644145 6.349858 2.980473
v 6.258939 6.428187 2.918953
v 6.911911 5.994702 2.923213
v 6.936781 6.007402 2.965253
v 6.617825 6.199190 2.985622
v 6.448337 6.250039 3.055582
v 6.640934 6.226649 2.985763
v 6.250620 6.292839 2.917453
v 6.669694 6.297968 3.025602
v 6.243880 6.383397 2.928473
v 6.450287 6.472666 2.939273
v 7.242317 5.808355 2.955733
v 7.345915 5.789035 2.935413
v 7.100769 5.864044 2.966903
v 7.382545 5.800835 2.923973
v 7.011530 5.897124 2.944953
v 7.360075 5.839125 2.932443
v 7.251956 5.945653 2.947043
v 7.090549 6.058881 3.010522
v 6.555226 6.199250 2.985682
v 6.365858 6.295698 3.025152
v 7.297466 5.907094 2.967503
v 6.933381 5.991552 2.957903
v 7.212177 5.986842 2.991023
v 7.149138 6.028072 2.998502
v 7.013020 6.063011 3.022592
v 6.604615 6.394307 3.031342
v 6.310569 6.401947 2.988533
v 6.445967 6.449256 3.024702
v 7.003900 5.972972 3.031002
v 6.982090 6.052971 3.051322
v 6.553686 6.231499 3.077322
v 6.314759 6.349108 2.994692
v 6.371018 6.424817 3.012792
v 7.190807 5.918403 3.043892
v 7.280026 5.858224 2.992412
v 7.330016 5.844574 2.956953
v 7.135648 5.924463 3.047222
v 6.964410 6.006912 3.010722
v 7.245246 5.949353 3.013962
v 7.147278 6.049162 3.058082
v 7.045579 6.089441 3.083491
v 6.660954 6.257139 3.032882
v 6.547416 6.423337 3.055472
v 7.262456 5.908644 3.003092
v 7.014100 6.079211 3.089811
v 7.234557 5.914223 3.023022
v 7.062369 6.003062 3.091091
v 7.193528 5.985962 3.060431
v 7.189948 6.004822 3.043922
v 7.153058 6.043142 3.087651
v 7.082699 6.080221 3.091361
v 6.568575 6.279109 3.166120
v 6.628075 6.235949 3.057421
v 6.489037 6.310378 3.140280
v 6.434347 6.349878 3.104091
v 6.481707 6.390637 3.129691
v 6.659194 6.330708 3.118611
v 6.383348 6.383627 3.045232
v 7.128588 5.971743 3.081051
v 7.002050 6.028372 3.065151
v 7.099779 6.073991 3.110811
v 6.656714 6.281738 3.108181
v 7.128198 6.007882 3.095231
v 7.023590 6.065071 3.098851
v 7.127298 6.043912 3.101751
v 6.618735 6.375007 3.130361
v 6.564715 6.384687 3.149170
v 7.053799 6.078481 3.101721
v 6.620944 6.273839 3.145811
v 7.083769 6.049372 3.097571
v 6.643435 6.307588 3.178120
v 6.623065 6.345568 3.164260
v 6.512966 6.358208 3.169690
v 6.550715 6.360368 3.190220
v 6.608765 6.306568 3.196580
v 6.560826 6.327328 3.184570
v 6.590635 6.334598 3.175840
vn 0.4970 -0.8006 0.3346
vn 0.1578 -0.4482 -0.8799
vn 0.9572 0.2198 -0.1885
vn -0.0931 0.5732 -0.8141
vn -0.0282 -0.9559 -0.2924
vn -0.2697 -0.1770 -0.9465
vn 0.1931 0.9566 -0.2181
vn -0.3070 0.4603 -0.8330
vn -0.3535 -0.0758 -0.9324
vn 0.7457 0.3576 0.5622
vn -0.2244 0.8341 -0.5039
vn 0.3082 -0.4908 -0.8149
vn -0.2474 0.1641 -0.9549
vn 0.2374 0.4844 -0.8420
vn 0.8968 0.1585 -0.4130
vn -0.1749 -0.7530 -0.6343
vn 0.6495 -0.3716 0.6633
vn -0.1811 -0.3518 -0.9184
vn -0.4605 0.1900 -0.8671
vn -0.3678 0.5298 -0.7642
vn -0.1597 0.7636 -0.6256
vn 0.2704 0.9389 -0.2131
vn -0.2596 -0.6208 -0.7397
vn 0.1209 -0.9696 0.2127
vn -0.0292 -0.9933 -0.1118
vn 0.2460 -0.8094 0.5333
vn -0.3816 0.4468 -0.8092
vn 0.3993 -0.4142 0.8179
vn 0.0561 0.9363 0.3466
vn 0.3991 0.6133 0.6816
vn 0.1224 -0.6936 -0.7099
vn 0.4647 -0.6692 -0.5799
vn 0.7965 -0.4748 -0.3744
vn 0.7843 0.6138 0.0898
vn 0.9999 -0.0148 0.0082
vn -0.3580 -0.3678 -0.8582
vn 0.4827 -0.0559 0.8740
vn -0.1512 0.9722 -0.1790
vn -0.4362 -0.1593 -0.8856
vn -0.3965 0.7215 -0.5676
vn -0.1274 0.8842 -0.4494
vn -0.0421 -0.9990 0.0171
vn -0.4400 -0.3315 -0.8346
vn -0.3454 0.5502 -0.7603
vn 0.3106 -0.3918 0.8660
vn 0.3133 0.1551 0.9369
vn -0.2055 -0.6941 -0.6899
vn 0.3855 -0.7390 -0.5526
vn 0.9828 -0.1028 -0.1535
vn 0.1666 0.9676 -0.1899
vn -0.1491 -0.9873 0.0545
vn 0.2174 -0.7396 0.6369
vn -0.1072 0.9839 -0.1432
vn -0.3555 0.8774 -0.3221
vn 0.2125 0.5281 0.8222
vn -0.0517 -0.8268 -0.5602
vn -0.6253 -0.3706 -0.6868
vn 0.1190 -0.9036 -0.4116
vn 0.7294 -0.5444 -0.4144
vn -0.6523 0.1989 -0.7314
vn 0.9171 0.3642 0.1623
vn -0.5440 0.3708 -0.7527
vn 0.6121 0.7884 0.0610
vn -0.7334 -0.6225 -0.2730
vn -0.5115 0.4253 -0.7467
vn 0.1831 0.7517 0.6335
vn 0.4439 0.8939 -0.0620
vn 0.1083 -0.6700 0.7344
vn 0.3095 -0.0758 0.9479
vn 0.0371 0.8787 0.4758
vn -0.1580 -0.9663 -0.2030
vn -0.5146 -0.7957 -0.3195
vn 0.3647 -0.8768 -0.3135
vn -0.9038 -0.3018 -0.3033
vn -0.8330 0.2024 -0.5149
vn -0.5791 0.6349 -0.5114
vn -0.1818 0.9518 -0.2471
vn -0.8990 0.3038 0.3153
vn 0.2469 -0.4134 0.8764
vn 0.2523 0.0516 0.9663
vn -0.0364 0.5793 0.8143
vn 0.9442 -0.1325 -0.3016
vn 0.9266 0.3336 -0.1736
vn 0.1295 0.9914 -0.0197
vn 0.0116 -0.2516 0.9678
vn -0.3803 -0.9064 0.1839
vn -0.6828 -0.7091 0.1759
vn 0.6380 -0.7170 -0.2809
vn -0.8476 0.4990 -0.1803
vn 0.7018 0.7058 -0.0969
vn -0.3215 0.9342 -0.1548
vn 0.1811 -0.7356 -0.6527
vn -0.3105 -0.9045 -0.2924
vn -0.0334 -0.1175 -0.9925
vn 0.4928 0.0550 -0.8684
vn 0.6567 -0.7493 0.0857
vn 0.9586 -0.1402 -0.2480
vn -0.3090 -0.5371 -0.7849
vn 0.0208 0.0597 -0.9980
vn 0.2262 0.3289 -0.9169
vn -0.0902 -0.0241 -0.9956
vn -0.3796 -0.4064 -0.8311
vn 0.1403 0.3651 -0.9204
vn -0.0897 0.2163 -0.9722
vn 0.3103 -0.2028 0.9288
vn 0.0229 -0.9994 0.0266
vn 0.9211 -0.2394 -0.3070
vn -0.9934 0.0043 0.1142
vn -0.6262 0.7786 0.0411
vn 0.4328 0.9002 0.0488
vn 0.0159 -0.9376 0.3473
vn -0.3880 -0.9213 0.0246
vn -0.4739 -0.8670 -0.1541
vn 0.5537 0.4565 -0.6964
vn -0.5351 -0.8392 -0.0970
vn 0.3421 0.5402 -0.7688
vn -0.6447 -0.6718 -0.3648
vn -0.5078 -0.0866 -0.8571
vn -0.8830 -0.4666 -0.0511
vn 0.1655 0.5510 -0.8179
vn -0.1652 0.3756 -0.9120
vn -0.7519 0.4557 -0.4764
vn -0.0818 0.6821 -0.7267
vn -0.2125 -0.9193 0.3312
vn -0.7776 -0.4615 0.4269
vn 0.8255 0.5213 -0.2165
vn -0.2182 -0.8051 0.5516
vn 0.1465 -0.7102 0.6885
vn -0.3945 -0.8042 0.4447
vn 0.9675 0.2292 0.1064
vn -0.5889 -0.7348 0.3366
vn 0.3803 0.6522 -0.6557
vn 0.2027 -0.9791 -0.0139
vn -0.4851 -0.6830 0.5461
vn 0.9435 0.2063 -0.2592
vn -0.8197 0.4022 0.4078
vn -0.3432 0.8844 0.3162
vn -0.0509 0.9958 0.0767
vn 0.5833 -0.5212 0.6231
vn -0.4531 -0.7552 0.4736
vn 0.6540 0.6347 -0.4116
vn 0.6320 0.6948 -0.3433
vn -0.6929 -0.5069 0.5129
vn -0.9172 -0.2515 0.3090
vn 0.3285 0.7687 -0.5488
vn 0.0801 0.8165 -0.5717
vn -0.3919 0.8773 -0.2771
vn -0.7584 -0.0819 0.6467
vn 0.8393 0.5348 -0.0976
vn -0.6096 0.5928 0.5262
vn -0.9393 0.2201 0.2631
vn -0.8323 0.5027 0.2334
vn 0.4097 -0.9048 0.1158
vn -0.4065 -0.7236 0.5577
vn 0.8086 -0.5856 -0.0571
vn -0.6032 -0.4062 0.6864
vn 0.9979 0.0178 -0.0631
vn -0.6996 0.2131 0.6820
vn 0.1378 0.9737 0.1816
vn -0.0543 -0.6603 0.7490
vn 0.3035 -0.4623 0.8332
vn -0.3221 -0.7069 0.6297
vn 0.6493 -0.1013 0.7538
vn -0.4649 -0.6835 0.5628
vn 0.8068 0.5055 0.3058
vn 0.5519 0.7765 -0.3042
vn 0.2180 0.9042 -0.3673
vn 0.0060 -0.9575 0.2883
vn -0.6117 -0.3982 0.6835
vn 0.7669 0.5558 0.3209
vn -0.8489 -0.1350 0.5111
vn 0.6275 0.7687 -0.1240
vn 0.4307 0.8269 -0.3616
vn -0.2604 0.9232 -0.2827
vn 0.6341 0.7729 0.0235
vn -0.6043 0.3180 0.7306
vn -0.0792 0.9122 0.4020
vn -0.5229 -0.5664 0.6370
vn -0.8461 0.3890 0.3644
vn -0.0369 -0.9086 0.4160
vn -0.6587 -0.0503 0.7507
vn -0.4592 0.6239 0.6324
vn 0.2186 -0.4124 0.8844
vn 0.3913 -0.2704 0.8796
vn 0.6092 0.0706 0.7898
vn -0.1481 -0.6458 0.7490
vn -0.7932 -0.2155 0.5696
vn 0.7723 0.4621 0.4358
vn 0.5417 0.8390 -0.0507
vn -0.0405 0.9974 0.0591
vn 0.8885 -0.4577 0.0321
vn 0.3068 0.9251 0.2239
vn 0.6599 0.0900 0.7459
vn -0.5206 0.7499 0.4081
vn 0.4904 -0.1208 0.8631
vn -0.2569 -0.4499 0.8553
vn 0.6209 0.0466 0.7825
vn 0.7741 0.5923 0.2235
vn 0.7065 0.4879 0.5127
vn 0.2516 0.9596 0.1261
vn -0.2175 -0.6865 0.6939
vn 0.4468 -0.8303 0.3332
vn -0.5302 -0.3756 0.7602
vn -0.6597 0.0378 0.7505
vn -0.4261 0.5922 0.6839
vn 0.8955 0.4026 0.1898
vn -0.6029 0.2874 0.7442
vn 0.0066 -0.4810 0.8767
vn -0.6525 -0.3138 0.6898
vn 0.2822 0.5687 0.7726
vn 0.8553 -0.4363 0.2794
vn 0.1485 -0.2417 0.9589
vn -0.4379 -0.0251 0.8987
vn 0.2772 -0.0471 0.9597
vn 0.5412 0.7843 0.3032
vn 0.1900 0.8060 0.5606
vn -0.1011 0.5622 0.8208
vn 0.3378 -0.7989 0.4975
vn -0.0750 -0.1278 0.9890
vn 0.6968 0.0001 0.7173
vn 0.4685 0.5792 0.6672
vn -0.5320 0.0373 0.8459
vn -0.0217 0.4097 0.9120
vn 0.1366 -0.2126 0.9675
vn -0.2354 -0.1421 0.9615
vn 0.2671 0.4346 0.8601
usemtl mtl1.965
s 1
f 1//1 2//2 3//3
f 3//3 2//2 4//4
f 2//2 1//1 5//5
f 2//2 6//6 4//4
f 3//3 4//4 7//7
f 6//6 2//2 5//5
f 8//8 6//6 9//9
f 6//6 8//8 4//4
f 3//3 7//7 10//10
f 4//4 8//8 11//11
f 12//12 13//13 14//14
f 15//15 12//12 14//14
f 16//16 6//6 5//5
f 6//6 16//16 9//9
f 17//17 1//1 3//3
f 3//3 10//10 17//17
f 7//7 4//4 11//11
f 13//13 18//18 19//19
f 12//12 18//18 13//13
f 13//13 19//19 20//20
f 21//21 13//13 20//20
f 13//13 21//21 14//14
f 14//14 22//22 15//15
f 22//22 14//14 21//21
f 23//23 16//16 24//24
f 25//25 23//23 24//24
f 5//5 24//24 16//16
f 5//5 26//26 24//24
f 5//5 1//1 26//26
f 23//23 27//27 9//9
f 16//16 23//23 9//9
f 1//1 17//17 28//28
f 1//1 28//28 26//26
f 9//9 27//27 8//8
f 11//11 8//8 27//27
f 7//7 11//11 29//29
f 7//7 29//29 30//30
f 30//30 10//10 7//7
f 12//12 31//31 18//18
f 32//32 31//31 12//12
f 12//12 15//15 33//33
f 15//15 34//34 35//35
f 34//34 15//15 22//22
f 36//36 23//23 25//25
f 23//23 36//36 27//27
f 17//17 10//10 37//37
f 10//10 30//30 37//37
f 11//11 38//38 29//29
f 18//18 39//39 19//19
f 12//12 33//33 32//32
f 33//33 15//15 35//35
f 20//20 40//40 41//41
f 20//20 41//41 21//21
f 21//21 41//41 22//22
f 42//42 36//36 25//25
f 36//36 42//42 43//43
f 44//44 36//36 43//43
f 28//28 45//45 26//26
f 27//27 36//36 44//44
f 28//28 17//17 37//37
f 44//44 38//38 27//27
f 11//11 27//27 38//38
f 29//29 46//46 30//30
f 18//18 47//47 39//39
f 31//31 47//47 18//18
f 31//31 32//32 48//48
f 33//33 35//35 49//49
f 22//22 41//41 50//50
f 51//51 43//43 42//42
f 25//25 52//52 42//42
f 25//25 24//24 52//52
f 53//53 44//44 54//54
f 44//44 53//53 38//38
f 37//37 46//46 28//28
f 37//37 30//30 46//46
f 29//29 38//38 55//55
f 29//29 55//55 46//46
f 31//31 56//56 47//47
f 47//47 57//57 39//39
f 58//58 31//31 48//48
f 32//32 59//59 48//48
f 59//59 32//32 33//33
f 57//57 60//60 39//39
f 19//19 39//39 60//60
f 61//61 49//49 35//35
f 20//20 19//19 62//62
f 20//20 62//62 40//40
f 34//34 61//61 35//35
f 22//22 50//50 63//63
f 63//63 34//34 22//22
f 64//64 43//43 51//51
f 52//52 24//24 45//45
f 24//24 26//26 45//45
f 43//43 64//64 65//65
f 44//44 43//43 65//65
f 45//45 28//28 46//46
f 46//46 55//55 45//45
f 38//38 53//53 66//66
f 38//38 66//66 55//55
f 56//56 31//31 58//58
f 60//60 62//62 19//19
f 34//34 63//63 61//61
f 50//50 67//67 63//63
f 42//42 68//68 51//51
f 42//42 52//52 68//68
f 69//69 52//52 45//45
f 44//44 65//65 54//54
f 45//45 55//55 69//69
f 55//55 66//66 69//69
f 53//53 54//54 70//70
f 66//66 53//53 70//70
f 71//71 47//47 56//56
f 47//47 72//72 57//57
f 58//58 48//48 73//73
f 74//74 57//57 72//72
f 60//60 57//57 74//74
f 59//59 33//33 49//49
f 75//75 76//76 60//60
f 60//60 76//76 62//62
f 40//40 62//62 76//76
f 77//77 41//41 40//40
f 50//50 41//41 77//77
f 64//64 68//68 78//78
f 51//51 68//68 64//64
f 68//68 52//52 79//79
f 65//65 64//64 78//78
f 79//79 52//52 69//69
f 79//79 69//69 80//80
f 54//54 78//78 81//81
f 54//54 65//65 78//78
f 70//70 54//54 81//81
f 66//66 70//70 80//80
f 69//69 66//66 80//80
f 56//56 58//58 71//71
f 47//47 71//71 72//72
f 48//48 59//59 73//73
f 75//75 60//60 74//74
f 59//59 49//49 82//82
f 82//82 49//49 83//83
f 49//49 61//61 83//83
f 83//83 61//61 63//63
f 40//40 76//76 77//77
f 50//50 84//84 67//67
f 50//50 77//77 84//84
f 78//78 68//68 85//85
f 68//68 79//79 80//80
f 78//78 85//85 81//81
f 80//80 70//70 81//81
f 86//86 72//72 71//71
f 72//72 86//86 87//87
f 74//74 72//72 87//87
f 73//73 59//59 88//88
f 75//75 89//89 76//76
f 63//63 90//90 83//83
f 63//63 67//67 90//90
f 91//91 77//77 76//76
f 92//92 93//93 94//94
f 95//95 92//92 94//94
f 96//96 92//92 95//95
f 96//96 95//95 97//97
f 93//93 98//98 94//94
f 94//94 98//98 99//99
f 100//100 95//95 94//94
f 101//101 98//98 102//102
f 99//99 98//98 101//101
f 100//100 99//99 103//103
f 100//100 94//94 99//99
f 99//99 101//101 103//103
f 101//101 102//102 104//104
f 105//105 68//68 80//80
f 103//103 101//101 104//104
f 85//85 105//105 81//81
f 80//80 81//81 105//105
f 58//58 106//106 71//71
f 106//106 58//58 73//73
f 107//107 59//59 82//82
f 74//74 108//108 75//75
f 76//76 89//89 109//109
f 76//76 109//109 91//91
f 110//110 67//67 84//84
f 111//111 93//93 92//92
f 92//92 96//96 111//111
f 93//93 112//112 98//98
f 113//113 98//98 112//112
f 97//97 95//95 114//114
f 113//113 115//115 98//98
f 100//100 114//114 95//95
f 100//100 116//116 114//114
f 115//115 117//117 102//102
f 98//98 115//115 102//102
f 117//117 118//118 102//102
f 118//118 117//117 119//119
f 103//103 116//116 100//100
f 102//102 118//118 104//104
f 85//85 68//68 105//105
f 116//116 103//103 120//120
f 104//104 118//118 121//121
f 104//104 121//121 120//120
f 120//120 103//103 104//104
f 122//122 121//121 118//118
f 120//120 121//121 123//123
f 71//71 124//124 86//86
f 59//59 107//107 88//88
f 125//125 74//74 87//87
f 107//107 82//82 83//83
f 108//108 89//89 75//75
f 90//90 126//126 83//83
f 90//90 67//67 110//110
f 93//93 111//111 127//127
f 111//111 96//96 128//128
f 113//113 112//112 129//129
f 115//115 113//113 129//129
f 130//130 97//97 114//114
f 117//117 115//115 131//131
f 120//120 132//132 116//116
f 118//118 119//119 122//122
f 122//122 123//123 121//121
f 106//106 124//124 71//71
f 133//133 106//106 73//73
f 73//73 88//88 133//133
f 87//87 86//86 134//134
f 125//125 87//87 134//134
f 74//74 125//125 108//108
f 107//107 83//83 135//135
f 108//108 136//136 89//89
f 135//135 83//83 126//126
f 89//89 136//136 109//109
f 91//91 137//137 138//138
f 77//77 91//91 138//138
f 84//84 77//77 138//138
f 111//111 128//128 127//127
f 127//127 112//112 93//93
f 96//96 139//139 128//128
f 112//112 127//127 129//129
f 97//97 139//139 96//96
f 139//139 97//97 130//130
f 129//129 140//140 115//115
f 131//131 115//115 140//140
f 114//114 116//116 141//141
f 130//130 114//114 141//141
f 131//131 119//119 117//117
f 141//141 116//116 142//142
f 119//119 143//143 144//144
f 122//122 119//119 144//144
f 145//145 132//132 120//120
f 146//146 145//145 120//120
f 123//123 146//146 120//120
f 147//147 146//146 123//123
f 124//124 134//134 86//86
f 125//125 148//148 108//108
f 148//148 136//136 108//108
f 135//135 126//126 149//149
f 150//150 109//109 136//136
f 91//91 109//109 137//137
f 143//143 119//119 131//131
f 116//116 132//132 142//142
f 144//144 151//151 122//122
f 122//122 147//147 123//123
f 152//152 147//147 122//122
f 88//88 153//153 133//133
f 154//154 134//134 124//124
f 107//107 155//155 88//88
f 134//134 156//156 125//125
f 135//135 157//157 107//107
f 158//158 150//150 136//136
f 109//109 150//150 137//137
f 84//84 138//138 159//159
f 159//159 110//110 84//84
f 160//160 127//127 128//128
f 161//161 160//160 128//128
f 139//139 161//161 128//128
f 162//162 129//129 127//127
f 162//162 140//140 129//129
f 163//163 139//139 130//130
f 140//140 164//164 131//131
f 141//141 165//165 130//130
f 165//165 141//141 142//142
f 131//131 164//164 143//143
f 132//132 166//166 142//142
f 132//132 145//145 166//166
f 151//151 152//152 122//122
f 145//145 146//146 167//167
f 124//124 106//106 168//168
f 134//134 169//169 156//156
f 134//134 154//154 169//169
f 125//125 156//156 148//148
f 148//148 158//158 136//136
f 149//149 126//126 90//90
f 139//139 163//163 161//161
f 162//162 127//127 160//160
f 140//140 162//162 164//164
f 142//142 166//166 170//170
f 143//143 171//171 144//144
f 171//171 151//151 144//144
f 172//172 166//166 145//145
f 172//172 145//145 173//173
f 173//173 145//145 167//167
f 146//146 147//147 174//174
f 167//167 146//146 174//174
f 133//133 168//168 106//106
f 88//88 155//155 153//153
f 135//135 149//149 157//157
f 149//149 90//90 175//175
f 150//150 158//158 176//176
f 175//175 90//90 110//110
f 177//177 138//138 137//137
f 130//130 165//165 163//163
f 142//142 170//170 165//165
f 164//164 178//178 143//143
f 166//166 172//172 170//170
f 152//152 179//179 147//147
f 147//147 179//179 174//174
f 168//168 180//180 124//124
f 181//181 148//148 156//156
f 150//150 176//176 182//182
f 150//150 182//182 137//137
f 177//177 137//137 182//182
f 177//177 159//159 138//138
f 183//183 160//160 184//184
f 160//160 161//161 184//184
f 185//185 184//184 161//161
f 161//161 163//163 185//185
f 186//186 162//162 160//160
f 185//185 163//163 165//165
f 164//164 162//162 178//178
f 165//165 170//170 185//185
f 143//143 187//187 171//171
f 143//143 178//178 187//187
f 172//172 188//188 170//170
f 171//171 152//152 151//151
f 171//171 187//187 152//152
f 152//152 187//187 179//179
f 173//173 167//167 189//189
f 167//167 174//174 190//190
f 168//168 133//133 153//153
f 180//180 154//154 124//124
f 191//191 155//155 107//107
f 191//191 107//107 157//157
f 169//169 181//181 156//156
f 148//148 181//181 158//158
f 176//176 158//158 181//181
f 159//159 192//192 110//110
f 110//110 192//192 175//175
f 186//186 160//160 183//183
f 185//185 193//193 184//184
f 185//185 170//170 193//193
f 193//193 170//170 188//188
f 173//173 189//189 172//172
f 174//174 179//179 194//194
f 177//177 192//192 159//159
f 195//195 183//183 184//184
f 193//193 195//195 184//184
f 196//196 162//162 186//186
f 193//193 197//197 195//195
f 193//193 188//188 197//197
f 198//198 197//197 188//188
f 188//188 172//172 198//198
f 199//199 198//198 189//189
f 198//198 172//172 189//189
f 174//174 194//194 190//190
f 167//167 190//190 200//200
f 189//189 167//167 200//200
f 201//201 154//154 180//180
f 202//202 153//153 155//155
f 155//155 191//191 202//202
f 169//169 154//154 203//203
f 204//204 181//181 169//169
f 182//182 205//205 177//177
f 162//162 196//196 178//178
f 149//149 206//206 157//157
f 204//204 207//207 181//181
f 181//181 207//207 176//176
f 186//186 208//208 196//196
f 186//186 183//183 208//208
f 183//183 195//195 197//197
f 187//187 178//178 209//209
f 197//197 198//198 199//199
f 187//187 209//209 179//179
f 210//210 189//189 200//200
f 210//210 199//199 189//189
f 153//153 202//202 168//168
f 211//211 202//202 191//191
f 211//211 191//191 157//157
f 169//169 203//203 204//204
f 149//149 175//175 206//206
f 176//176 207//207 182//182
f 208//208 183//183 212//212
f 183//183 197//197 212//212
f 209//209 213//213 179//179
f 199//199 210//210 214//214
f 179//179 213//213 194//194
f 168//168 202//202 180//180
f 157//157 206//206 211//211
f 175//175 215//215 206//206
f 207//207 205//205 182//182
f 192//192 177//177 216//216
f 178//178 196//196 209//209
f 197//197 199//199 214//214
f 212//212 197//197 214//214
f 190//190 194//194 217//217
f 200//200 190//190 217//217
f 202//202 218//218 180//180
f 211//211 218//218 202//202
f 154//154 201//201 203//203
f 177//177 205//205 216//216
f 175//175 192//192 215//215
f 192//192 216//216 215//215
f 208//208 212//212 196//196
f 213//213 209//209 196//196
f 194//194 213//213 217//217
f 210//210 200//200 217//217
f 205//205 207//207 204//204
f 196//196 212//212 219//219
f 213//213 196//196 219//219
f 212//212 214//214 219//219
f 219//219 217//217 213//213
f 214//214 210//210 219//219
f 210//210 217//217 219//219
f 206//206 220//220 211//211
f 206//206 221//221 220//220
f 222//222 204//204 203//203
f 206//206 215//215 221//221
f 204//204 222//222 205//205
f 205//205 223//223 216//216
f 218//218 201//201 180//180
f 211//211 220//220 218//218
f 222//222 223//223 205//205
f 218//218 224//224 201//201
f 218//218 220//220 224//224
f 222//222 203//203 225//225
f 221//221 215//215 216//216
f 201//201 225//225 203//203
f 224//224 225//225 201//201
f 226//226 225//225 224//224
f 220//220 226//226 224//224
f 220//220 221//221 226//226
f 225//225 223//223 222//222
f 225//225 226//226 223//223
f 226//226 221//221 216//216
f 226//226 216//216 223//223
