# Blender v2.92.0 OBJ File: 'convert_to_one_sided.blend'
# www.blender.org
mtllib 1105L.mtl
o Cube
v 0.001000 0.001000 -0.001000
v 0.001000 -0.001000 -0.001000
v 0.001000 0.001000 0.001000
v 0.001000 -0.001000 0.001000
v -0.001000 0.001000 -0.001000
v -0.001000 -0.001000 -0.001000
v -0.001000 0.001000 0.001000
v -0.001000 -0.001000 0.001000
vt 0.625000 0.500000
vt 0.875000 0.500000
vt 0.875000 0.750000
vt 0.625000 0.750000
vt 0.375000 0.750000
vt 0.625000 1.000000
vt 0.375000 1.000000
vt 0.375000 0.000000
vt 0.625000 0.000000
vt 0.625000 0.250000
vt 0.375000 0.250000
vt 0.125000 0.500000
vt 0.375000 0.500000
vt 0.125000 0.750000
vn 0.0000 1.0000 0.0000
vn 0.0000 0.0000 1.0000
vn -1.0000 0.0000 0.0000
vn 0.0000 -1.0000 0.0000
vn 1.0000 0.0000 0.0000
vn 0.0000 0.0000 -1.0000
usemtl Material
s off
f 1/1/1 5/2/1 7/3/1 3/4/1
f 4/5/2 3/4/2 7/6/2 8/7/2
f 8/8/3 7/9/3 5/10/3 6/11/3
f 6/12/4 2/13/4 4/5/4 8/14/4
f 2/13/5 1/1/5 3/4/5 4/5/5
f 6/11/6 5/10/6 1/1/6 2/13/6
o 1105
v 6.003463 5.933643 2.565388
v 6.014932 5.934253 2.557158
v 6.019972 5.946763 2.561508
v 5.992183 5.947373 2.569888
v 5.941703 5.927874 2.583628
v 5.942323 5.936523 2.582068
v 5.993223 5.965033 2.592518
v 5.903424 5.946953 2.595658
v 5.855025 5.930833 2.608027
v 6.004673 5.962893 2.590478
v 5.894714 5.959813 2.616027
v 6.537226 6.365088 2.605838
v 6.493086 6.388647 2.602357
v 6.569005 6.416367 2.597528
v 6.589915 6.407417 2.618847
v 5.872895 5.927963 2.604907
v 5.998693 5.956803 2.589078
v 6.404288 6.310238 2.637067
v 6.353088 6.346538 2.657957
v 6.417147 6.418537 2.652227
v 6.507836 6.426917 2.622497
v 6.539756 6.435277 2.645387
v 5.804485 5.922223 2.630267
v 5.842995 5.925773 2.629977
v 5.757216 5.917083 2.652787
v 5.920814 5.935653 2.613697
v 5.799685 5.933903 2.637477
v 5.954874 5.955933 2.616347
v 5.907594 5.971793 2.636347
v 5.970503 5.969882 2.613907
v 6.434967 6.256279 2.679176
v 6.524056 6.294278 2.678087
v 6.576035 6.352038 2.661747
v 6.586005 6.417577 2.658467
v 6.588735 6.388027 2.667126
v 5.717317 5.920453 2.665337
v 5.974973 5.969363 2.609247
v 5.788916 5.953003 2.664717
v 6.285959 6.276249 2.685076
v 6.334558 6.446687 2.714016
v 6.432827 6.448506 2.683306
v 5.658557 5.921453 2.690586
v 5.613468 5.919683 2.709176
v 5.667527 5.935963 2.694806
v 5.855895 5.950913 2.652207
v 5.918814 5.968153 2.630267
v 6.305389 6.232140 2.706816
v 6.495546 6.222459 2.736906
v 6.587155 6.348398 2.721506
v 6.460377 6.468576 2.728406
v 5.586118 5.924513 2.717226
v 5.723836 5.931813 2.685886
v 5.687167 5.951353 2.703496
v 5.589388 5.939293 2.734996
v 5.830175 5.956703 2.660577
v 6.364118 6.196120 2.736845
v 6.227760 6.244439 2.727656
v 6.421397 6.185630 2.761685
v 6.567735 6.261639 2.771715
v 6.237530 6.322168 2.729266
v 6.580925 6.394687 2.705006
v 6.313619 6.395397 2.702736
v 6.546416 6.425647 2.721246
v 5.556859 5.929803 2.738096
v 5.583008 5.924123 2.732186
v 5.721866 5.949633 2.697466
v 6.488787 6.467617 2.793335
v 5.589188 5.938853 2.729776
v 5.740636 5.946323 2.691836
v 5.629588 5.946773 2.726926
v 6.332659 6.181180 2.780905
v 6.233150 6.214750 2.766735
v 6.508786 6.187610 2.808385
v 6.186330 6.269029 2.786615
v 6.182150 6.343488 2.788865
v 6.249080 6.418877 2.773525
v 6.360168 6.471586 2.772695
v 5.560699 5.934863 2.744776
v 5.672987 5.943273 2.711956
v 5.629528 5.949683 2.724106
v 5.566838 5.936833 2.743426
v 6.605745 6.303099 2.805605
v 6.596685 6.353178 2.804505
v 6.436757 6.485636 2.836874
v 5.563929 5.944593 2.742946
v 6.264199 6.193000 2.812025
v 6.209550 6.230489 2.815845
v 6.597555 6.202560 2.902184
v 6.181780 6.385607 2.822355
v 6.572695 6.409977 2.872854
v 6.296279 6.475657 2.832614
v 7.342736 5.678147 2.819265
v 7.292966 5.690636 2.828974
v 7.296566 5.710436 2.820555
v 7.374295 5.710006 2.834495
v 7.379365 5.695026 2.839634
v 7.403065 5.737195 2.862444
v 7.170278 5.754885 2.830445
v 7.195548 5.786635 2.821715
v 7.289196 5.778975 2.833874
v 7.078809 5.836284 2.823585
v 7.026120 5.840065 2.835414
v 7.141248 5.851524 2.832594
v 7.000550 5.897593 2.837404
v 5.582618 5.945223 2.733846
v 6.463317 6.172270 2.855904
v 6.633455 6.271799 2.899364
v 6.167941 6.329058 2.838074
v 6.234550 6.440046 2.846784
v 6.515636 6.454416 2.930773
v 7.341695 5.684317 2.838194
v 7.218207 5.717766 2.844114
v 7.156468 5.747126 2.845744
v 7.385475 5.772356 2.867254
v 7.069999 5.799555 2.852704
v 7.270566 5.855794 2.869734
v 6.973860 5.865864 2.851424
v 6.943521 5.909503 2.852894
v 6.919141 5.922483 2.871564
v 7.076719 5.938823 2.868104
v 6.947821 5.948393 2.861844
v 6.905121 5.976333 2.887364
v 6.951271 5.987153 2.880404
v 6.400928 6.195410 2.916764
v 6.186840 6.273459 2.850284
v 6.621525 6.354678 2.888314
v 7.255237 5.719446 2.867444
v 7.350875 5.713676 2.873994
v 7.135988 5.769775 2.869174
v 7.405445 5.778265 2.896704
v 6.975730 5.870564 2.878184
v 7.245497 5.921883 2.905954
v 6.562815 6.187260 2.919733
v 6.272549 6.235769 2.885544
v 6.645314 6.321619 2.917533
v 6.190270 6.387658 2.865824
v 6.315869 6.476336 2.908494
v 6.373738 6.482276 2.881004
v 7.389945 5.748806 2.886204
v 7.046139 5.831254 2.894014
v 7.369295 5.822364 2.902234
v 7.319436 5.884434 2.926423
v 6.943311 5.948383 2.946303
v 6.914701 5.974322 2.916253
v 7.151238 5.992672 2.936373
v 7.024920 6.016482 2.925983
v 6.954230 6.021512 2.937973
v 6.198040 6.333228 2.891734
v 6.644145 6.349858 2.980473
v 6.258939 6.428187 2.918953
v 6.911911 5.994702 2.923213
v 6.936781 6.007402 2.965253
v 6.617825 6.199190 2.985622
v 6.448337 6.250039 3.055582
v 6.640934 6.226649 2.985763
v 6.250620 6.292839 2.917453
v 6.669694 6.297968 3.025602
v 6.243880 6.383397 2.928473
v 6.450287 6.472666 2.939273
v 7.242317 5.808355 2.955733
v 7.345915 5.789035 2.935413
v 7.100769 5.864044 2.966903
v 7.382545 5.800835 2.923973
v 7.011530 5.897124 2.944953
v 7.360075 5.839125 2.932443
v 7.251956 5.945653 2.947043
v 7.090549 6.058881 3.010522
v 6.555226 6.199250 2.985682
v 6.365858 6.295698 3.025152
v 7.297466 5.907094 2.967503
v 6.933381 5.991552 2.957903
v 7.212177 5.986842 2.991023
v 7.149138 6.028072 2.998502
v 7.013020 6.063011 3.022592
v 6.604615 6.394307 3.031342
v 6.310569 6.401947 2.988533
v 6.445967 6.449256 3.024702
v 7.003900 5.972972 3.031002
v 6.982090 6.052971 3.051322
v 6.553686 6.231499 3.077322
v 6.314759 6.349108 2.994692
v 6.371018 6.424817 3.012792
v 7.190807 5.918403 3.043892
v 7.280026 5.858224 2.992412
v 7.330016 5.844574 2.956953
v 7.135648 5.924463 3.047222
v 6.964410 6.006912 3.010722
v 7.245246 5.949353 3.013962
v 7.147278 6.049162 3.058082
v 7.045579 6.089441 3.083491
v 6.660954 6.257139 3.032882
v 6.547416 6.423337 3.055472
v 7.262456 5.908644 3.003092
v 7.014100 6.079211 3.089811
v 7.234557 5.914223 3.023022
v 7.062369 6.003062 3.091091
v 7.193528 5.985962 3.060431
v 7.189948 6.004822 3.043922
v 7.153058 6.043142 3.087651
v 7.082699 6.080221 3.091361
v 6.568575 6.279109 3.166120
v 6.628075 6.235949 3.057421
v 6.489037 6.310378 3.140280
v 6.434347 6.349878 3.104091
v 6.481707 6.390637 3.129691
v 6.659194 6.330708 3.118611
v 6.383348 6.383627 3.045232
v 7.128588 5.971743 3.081051
v 7.002050 6.028372 3.065151
v 7.099779 6.073991 3.110811
v 6.656714 6.281738 3.108181
v 7.128198 6.007882 3.095231
v 7.023590 6.065071 3.098851
v 7.127298 6.043912 3.101751
v 6.618735 6.375007 3.130361
v 6.564715 6.384687 3.149170
v 7.053799 6.078481 3.101721
v 6.620944 6.273839 3.145811
v 7.083769 6.049372 3.097571
v 6.643435 6.307588 3.178120
v 6.623065 6.345568 3.164260
v 6.512966 6.358208 3.169690
v 6.550715 6.360368 3.190220
v 6.608765 6.306568 3.196580
v 6.560826 6.327328 3.184570
v 6.590635 6.334598 3.175840
vn 0.4970 -0.8006 0.3346
vn 0.1578 -0.4482 -0.8799
vn 0.9572 0.2198 -0.1885
vn -0.0931 0.5732 -0.8141
vn -0.0282 -0.9559 -0.2924
vn -0.2697 -0.1770 -0.9465
vn 0.1931 0.9566 -0.2181
vn -0.3070 0.4603 -0.8330
vn -0.3535 -0.0758 -0.9324
vn 0.7457 0.3576 0.5622
vn -0.2244 0.8341 -0.5039
vn 0.3082 -0.4908 -0.8149
vn -0.2474 0.1641 -0.9549
vn 0.2374 0.4844 -0.8420
vn 0.8968 0.1585 -0.4130
vn -0.1749 -0.7530 -0.6343
vn 0.6495 -0.3716 0.6633
vn -0.1811 -0.3518 -0.9184
vn -0.4605 0.1900 -0.8671
vn -0.3678 0.5298 -0.7642
vn -0.1597 0.7636 -0.6256
vn 0.2704 0.9389 -0.2131
vn -0.2596 -0.6208 -0.7397
vn 0.1209 -0.9696 0.2127
vn -0.0292 -0.9933 -0.1118
vn 0.2460 -0.8094 0.5333
vn -0.3816 0.4468 -0.8092
vn 0.3993 -0.4142 0.8179
vn 0.0561 0.9363 0.3466
vn 0.3991 0.6133 0.6816
vn 0.1224 -0.6936 -0.7099
vn 0.4647 -0.6692 -0.5799
vn 0.7965 -0.4748 -0.3744
vn 0.7843 0.6138 0.0898
vn 0.9999 -0.0148 0.0082
vn -0.3580 -0.3678 -0.8582
vn 0.4827 -0.0559 0.8740
vn -0.1512 0.9722 -0.1790
vn -0.4362 -0.1593 -0.8856
vn -0.3965 0.7215 -0.5676
vn -0.1274 0.8842 -0.4494
vn -0.0421 -0.9990 0.0171
vn -0.4400 -0.3315 -0.8346
vn -0.3454 0.5502 -0.7603
vn 0.3106 -0.3918 0.8660
vn 0.3133 0.1551 0.9369
vn -0.2055 -0.6941 -0.6899
vn 0.3855 -0.7390 -0.5526
vn 0.9828 -0.1028 -0.1535
vn 0.1666 0.9676 -0.1899
vn -0.1491 -0.9873 0.0545
vn 0.2174 -0.7396 0.6369
vn -0.1072 0.9839 -0.1432
vn -0.3555 0.8774 -0.3221
vn 0.2125 0.5281 0.8222
vn -0.0517 -0.8268 -0.5602
vn -0.6253 -0.3706 -0.6868
vn 0.1190 -0.9036 -0.4116
vn 0.7294 -0.5444 -0.4144
vn -0.6523 0.1989 -0.7314
vn 0.9171 0.3642 0.1623
vn -0.5440 0.3708 -0.7527
vn 0.6121 0.7884 0.0610
vn -0.7334 -0.6225 -0.2730
vn -0.5115 0.4253 -0.7467
vn 0.1831 0.7517 0.6335
vn 0.4439 0.8939 -0.0620
vn 0.1083 -0.6700 0.7344
vn 0.3095 -0.0758 0.9479
vn 0.0371 0.8787 0.4758
vn -0.1580 -0.9663 -0.2030
vn -0.5146 -0.7957 -0.3195
vn 0.3647 -0.8768 -0.3135
vn -0.9038 -0.3018 -0.3033
vn -0.8330 0.2024 -0.5149
vn -0.5791 0.6349 -0.5114
vn -0.1818 0.9518 -0.2471
vn -0.8990 0.3038 0.3153
vn 0.2469 -0.4134 0.8764
vn 0.2523 0.0516 0.9663
vn -0.0364 0.5793 0.8143
vn 0.9442 -0.1325 -0.3016
vn 0.9266 0.3336 -0.1736
vn 0.1295 0.9914 -0.0197
vn 0.0116 -0.2516 0.9678
vn -0.3803 -0.9064 0.1839
vn -0.6828 -0.7091 0.1759
vn 0.6380 -0.7170 -0.2809
vn -0.8476 0.4990 -0.1803
vn 0.7018 0.7058 -0.0969
vn -0.3215 0.9342 -0.1548
vn 0.1811 -0.7356 -0.6527
vn -0.3105 -0.9045 -0.2924
vn -0.0334 -0.1175 -0.9925
vn 0.4928 0.0550 -0.8684
vn 0.6567 -0.7493 0.0857
vn 0.9586 -0.1402 -0.2480
vn -0.3090 -0.5371 -0.7849
vn 0.0208 0.0597 -0.9980
vn 0.2262 0.3289 -0.9169
vn -0.0902 -0.0241 -0.9956
vn -0.3796 -0.4064 -0.8311
vn 0.1403 0.3651 -0.9204
vn -0.0897 0.2163 -0.9722
vn 0.3103 -0.2028 0.9288
vn 0.0229 -0.9994 0.0266
vn 0.9211 -0.2394 -0.3070
vn -0.9934 0.0043 0.1142
vn -0.6262 0.7786 0.0411
vn 0.4328 0.9002 0.0488
vn 0.0159 -0.9376 0.3473
vn -0.3880 -0.9213 0.0246
vn -0.4739 -0.8670 -0.1541
vn 0.5537 0.4565 -0.6964
vn -0.5351 -0.8392 -0.0970
vn 0.3421 0.5402 -0.7688
vn -0.6447 -0.6718 -0.3648
vn -0.5078 -0.0866 -0.8571
vn -0.8830 -0.4666 -0.0511
vn 0.1655 0.5510 -0.8179
vn -0.1652 0.3756 -0.9120
vn -0.7519 0.4557 -0.4764
vn -0.0818 0.6821 -0.7267
vn -0.2125 -0.9193 0.3312
vn -0.7776 -0.4615 0.4269
vn 0.8255 0.5213 -0.2165
vn -0.2182 -0.8051 0.5516
vn 0.1465 -0.7102 0.6885
vn -0.3945 -0.8042 0.4447
vn 0.9675 0.2292 0.1064
vn -0.5889 -0.7348 0.3366
vn 0.3803 0.6522 -0.6557
vn 0.2027 -0.9791 -0.0139
vn -0.4851 -0.6830 0.5461
vn 0.9435 0.2063 -0.2592
vn -0.8197 0.4022 0.4078
vn -0.3432 0.8844 0.3162
vn -0.0509 0.9958 0.0767
vn 0.5833 -0.5212 0.6231
vn -0.4531 -0.7552 0.4736
vn 0.6540 0.6347 -0.4116
vn 0.6320 0.6948 -0.3433
vn -0.6929 -0.5069 0.5129
vn -0.9172 -0.2515 0.3090
vn 0.3285 0.7687 -0.5488
vn 0.0801 0.8165 -0.5717
vn -0.3919 0.8773 -0.2771
vn -0.7584 -0.0819 0.6467
vn 0.8393 0.5348 -0.0976
vn -0.6096 0.5928 0.5262
vn -0.9393 0.2201 0.2631
vn -0.8323 0.5027 0.2334
vn 0.4097 -0.9048 0.1158
vn -0.4065 -0.7236 0.5577
vn 0.8086 -0.5856 -0.0571
vn -0.6032 -0.4062 0.6864
vn 0.9979 0.0178 -0.0631
vn -0.6996 0.2131 0.6820
vn 0.1378 0.9737 0.1816
vn -0.0543 -0.6603 0.7490
vn 0.3035 -0.4623 0.8332
vn -0.3221 -0.7069 0.6297
vn 0.6493 -0.1013 0.7538
vn -0.4649 -0.6835 0.5628
vn 0.8068 0.5055 0.3058
vn 0.5519 0.7765 -0.3042
vn 0.2180 0.9042 -0.3673
vn 0.0060 -0.9575 0.2883
vn -0.6117 -0.3982 0.6835
vn 0.7669 0.5558 0.3209
vn -0.8489 -0.1350 0.5111
vn 0.6275 0.7687 -0.1240
vn 0.4307 0.8269 -0.3616
vn -0.2604 0.9232 -0.2827
vn 0.6341 0.7729 0.0235
vn -0.6043 0.3180 0.7306
vn -0.0792 0.9122 0.4020
vn -0.5229 -0.5664 0.6370
vn -0.8461 0.3890 0.3644
vn -0.0369 -0.9086 0.4160
vn -0.6587 -0.0503 0.7507
vn -0.4592 0.6239 0.6324
vn 0.2186 -0.4124 0.8844
vn 0.3913 -0.2704 0.8796
vn 0.6092 0.0706 0.7898
vn -0.1481 -0.6458 0.7490
vn -0.7932 -0.2155 0.5696
vn 0.7723 0.4621 0.4358
vn 0.5417 0.8390 -0.0507
vn -0.0405 0.9974 0.0591
vn 0.8885 -0.4577 0.0321
vn 0.3068 0.9251 0.2239
vn 0.6599 0.0900 0.7459
vn -0.5206 0.7499 0.4081
vn 0.4904 -0.1208 0.8631
vn -0.2569 -0.4499 0.8553
vn 0.6209 0.0466 0.7825
vn 0.7741 0.5923 0.2235
vn 0.7065 0.4879 0.5127
vn 0.2516 0.9596 0.1261
vn -0.2175 -0.6865 0.6939
vn 0.4468 -0.8303 0.3332
vn -0.5302 -0.3756 0.7602
vn -0.6597 0.0378 0.7505
vn -0.4261 0.5922 0.6839
vn 0.8955 0.4026 0.1898
vn -0.6029 0.2874 0.7442
vn 0.0066 -0.4810 0.8767
vn -0.6525 -0.3138 0.6898
vn 0.2822 0.5687 0.7726
vn 0.8553 -0.4363 0.2794
vn 0.1485 -0.2417 0.9589
vn -0.4379 -0.0251 0.8987
vn 0.2772 -0.0471 0.9597
vn 0.5412 0.7843 0.3032
vn 0.1900 0.8060 0.5606
vn -0.1011 0.5622 0.8208
vn 0.3378 -0.7989 0.4975
vn -0.0750 -0.1278 0.9890
vn 0.6968 0.0001 0.7173
vn 0.4685 0.5792 0.6672
vn -0.5320 0.0373 0.8459
vn -0.0217 0.4097 0.9120
vn 0.1366 -0.2126 0.9675
vn -0.2354 -0.1421 0.9615
vn 0.2671 0.4346 0.8601
usemtl mtl1.114
s 1
f 9//7 10//8 11//9
f 11//9 10//8 12//10
f 10//8 9//7 13//11
f 10//8 14//12 12//10
f 11//9 12//10 15//13
f 14//12 10//8 13//11
f 16//14 14//12 17//15
f 14//12 16//14 12//10
f 11//9 15//13 18//16
f 12//10 16//14 19//17
f 20//18 21//19 22//20
f 23//21 20//18 22//20
f 24//22 14//12 13//11
f 14//12 24//22 17//15
f 25//23 9//7 11//9
f 11//9 18//16 25//23
f 15//13 12//10 19//17
f 21//19 26//24 27//25
f 20//18 26//24 21//19
f 21//19 27//25 28//26
f 29//27 21//19 28//26
f 21//19 29//27 22//20
f 22//20 30//28 23//21
f 30//28 22//20 29//27
f 31//29 24//22 32//30
f 33//31 31//29 32//30
f 13//11 32//30 24//22
f 13//11 34//32 32//30
f 13//11 9//7 34//32
f 31//29 35//33 17//15
f 24//22 31//29 17//15
f 9//7 25//23 36//34
f 9//7 36//34 34//32
f 17//15 35//33 16//14
f 19//17 16//14 35//33
f 15//13 19//17 37//35
f 15//13 37//35 38//36
f 38//36 18//16 15//13
f 20//18 39//37 26//24
f 40//38 39//37 20//18
f 20//18 23//21 41//39
f 23//21 42//40 43//41
f 42//40 23//21 30//28
f 44//42 31//29 33//31
f 31//29 44//42 35//33
f 25//23 18//16 45//43
f 18//16 38//36 45//43
f 19//17 46//44 37//35
f 26//24 47//45 27//25
f 20//18 41//39 40//38
f 41//39 23//21 43//41
f 28//26 48//46 49//47
f 28//26 49//47 29//27
f 29//27 49//47 30//28
f 50//48 44//42 33//31
f 44//42 50//48 51//49
f 52//50 44//42 51//49
f 36//34 53//51 34//32
f 35//33 44//42 52//50
f 36//34 25//23 45//43
f 52//50 46//44 35//33
f 19//17 35//33 46//44
f 37//35 54//52 38//36
f 26//24 55//53 47//45
f 39//37 55//53 26//24
f 39//37 40//38 56//54
f 41//39 43//41 57//55
f 30//28 49//47 58//56
f 59//57 51//49 50//48
f 33//31 60//58 50//48
f 33//31 32//30 60//58
f 61//59 52//50 62//60
f 52//50 61//59 46//44
f 45//43 54//52 36//34
f 45//43 38//36 54//52
f 37//35 46//44 63//61
f 37//35 63//61 54//52
f 39//37 64//62 55//53
f 55//53 65//63 47//45
f 66//64 39//37 56//54
f 40//38 67//65 56//54
f 67//65 40//38 41//39
f 65//63 68//66 47//45
f 27//25 47//45 68//66
f 69//67 57//55 43//41
f 28//26 27//25 70//68
f 28//26 70//68 48//46
f 42//40 69//67 43//41
f 30//28 58//56 71//69
f 71//69 42//40 30//28
f 72//70 51//49 59//57
f 60//58 32//30 53//51
f 32//30 34//32 53//51
f 51//49 72//70 73//71
f 52//50 51//49 73//71
f 53//51 36//34 54//52
f 54//52 63//61 53//51
f 46//44 61//59 74//72
f 46//44 74//72 63//61
f 64//62 39//37 66//64
f 68//66 70//68 27//25
f 42//40 71//69 69//67
f 58//56 75//73 71//69
f 50//48 76//74 59//57
f 50//48 60//58 76//74
f 77//75 60//58 53//51
f 52//50 73//71 62//60
f 53//51 63//61 77//75
f 63//61 74//72 77//75
f 61//59 62//60 78//76
f 74//72 61//59 78//76
f 79//77 55//53 64//62
f 55//53 80//78 65//63
f 66//64 56//54 81//79
f 82//80 65//63 80//78
f 68//66 65//63 82//80
f 67//65 41//39 57//55
f 83//81 84//82 68//66
f 68//66 84//82 70//68
f 48//46 70//68 84//82
f 85//83 49//47 48//46
f 58//56 49//47 85//83
f 72//70 76//74 86//84
f 59//57 76//74 72//70
f 76//74 60//58 87//85
f 73//71 72//70 86//84
f 87//85 60//58 77//75
f 87//85 77//75 88//86
f 62//60 86//84 89//87
f 62//60 73//71 86//84
f 78//76 62//60 89//87
f 74//72 78//76 88//86
f 77//75 74//72 88//86
f 64//62 66//64 79//77
f 55//53 79//77 80//78
f 56//54 67//65 81//79
f 83//81 68//66 82//80
f 67//65 57//55 90//88
f 90//88 57//55 91//89
f 57//55 69//67 91//89
f 91//89 69//67 71//69
f 48//46 84//82 85//83
f 58//56 92//90 75//73
f 58//56 85//83 92//90
f 86//84 76//74 93//91
f 76//74 87//85 88//86
f 86//84 93//91 89//87
f 88//86 78//76 89//87
f 94//92 80//78 79//77
f 80//78 94//92 95//93
f 82//80 80//78 95//93
f 81//79 67//65 96//94
f 83//81 97//95 84//82
f 71//69 98//96 91//89
f 71//69 75//73 98//96
f 99//97 85//83 84//82
f 100//98 101//99 102//100
f 103//101 100//98 102//100
f 104//102 100//98 103//101
f 104//102 103//101 105//103
f 101//99 106//104 102//100
f 102//100 106//104 107//105
f 108//106 103//101 102//100
f 109//107 106//104 110//108
f 107//105 106//104 109//107
f 108//106 107//105 111//109
f 108//106 102//100 107//105
f 107//105 109//107 111//109
f 109//107 110//108 112//110
f 113//111 76//74 88//86
f 111//109 109//107 112//110
f 93//91 113//111 89//87
f 88//86 89//87 113//111
f 66//64 114//112 79//77
f 114//112 66//64 81//79
f 115//113 67//65 90//88
f 82//80 116//114 83//81
f 84//82 97//95 117//115
f 84//82 117//115 99//97
f 118//116 75//73 92//90
f 119//117 101//99 100//98
f 100//98 104//102 119//117
f 101//99 120//118 106//104
f 121//119 106//104 120//118
f 105//103 103//101 122//120
f 121//119 123//121 106//104
f 108//106 122//120 103//101
f 108//106 124//122 122//120
f 123//121 125//123 110//108
f 106//104 123//121 110//108
f 125//123 126//124 110//108
f 126//124 125//123 127//125
f 111//109 124//122 108//106
f 110//108 126//124 112//110
f 93//91 76//74 113//111
f 124//122 111//109 128//126
f 112//110 126//124 129//127
f 112//110 129//127 128//126
f 128//126 111//109 112//110
f 130//128 129//127 126//124
f 128//126 129//127 131//129
f 79//77 132//130 94//92
f 67//65 115//113 96//94
f 133//131 82//80 95//93
f 115//113 90//88 91//89
f 116//114 97//95 83//81
f 98//96 134//132 91//89
f 98//96 75//73 118//116
f 101//99 119//117 135//133
f 119//117 104//102 136//134
f 121//119 120//118 137//135
f 123//121 121//119 137//135
f 138//136 105//103 122//120
f 125//123 123//121 139//137
f 128//126 140//138 124//122
f 126//124 127//125 130//128
f 130//128 131//129 129//127
f 114//112 132//130 79//77
f 141//139 114//112 81//79
f 81//79 96//94 141//139
f 95//93 94//92 142//140
f 133//131 95//93 142//140
f 82//80 133//131 116//114
f 115//113 91//89 143//141
f 116//114 144//142 97//95
f 143//141 91//89 134//132
f 97//95 144//142 117//115
f 99//97 145//143 146//144
f 85//83 99//97 146//144
f 92//90 85//83 146//144
f 119//117 136//134 135//133
f 135//133 120//118 101//99
f 104//102 147//145 136//134
f 120//118 135//133 137//135
f 105//103 147//145 104//102
f 147//145 105//103 138//136
f 137//135 148//146 123//121
f 139//137 123//121 148//146
f 122//120 124//122 149//147
f 138//136 122//120 149//147
f 139//137 127//125 125//123
f 149//147 124//122 150//148
f 127//125 151//149 152//150
f 130//128 127//125 152//150
f 153//151 140//138 128//126
f 154//152 153//151 128//126
f 131//129 154//152 128//126
f 155//153 154//152 131//129
f 132//130 142//140 94//92
f 133//131 156//154 116//114
f 156//154 144//142 116//114
f 143//141 134//132 157//155
f 158//156 117//115 144//142
f 99//97 117//115 145//143
f 151//149 127//125 139//137
f 124//122 140//138 150//148
f 152//150 159//157 130//128
f 130//128 155//153 131//129
f 160//158 155//153 130//128
f 96//94 161//159 141//139
f 162//160 142//140 132//130
f 115//113 163//161 96//94
f 142//140 164//162 133//131
f 143//141 165//163 115//113
f 166//164 158//156 144//142
f 117//115 158//156 145//143
f 92//90 146//144 167//165
f 167//165 118//116 92//90
f 168//166 135//133 136//134
f 169//167 168//166 136//134
f 147//145 169//167 136//134
f 170//168 137//135 135//133
f 170//168 148//146 137//135
f 171//169 147//145 138//136
f 148//146 172//170 139//137
f 149//147 173//171 138//136
f 173//171 149//147 150//148
f 139//137 172//170 151//149
f 140//138 174//172 150//148
f 140//138 153//151 174//172
f 159//157 160//158 130//128
f 153//151 154//152 175//173
f 132//130 114//112 176//174
f 142//140 177//175 164//162
f 142//140 162//160 177//175
f 133//131 164//162 156//154
f 156//154 166//164 144//142
f 157//155 134//132 98//96
f 147//145 171//169 169//167
f 170//168 135//133 168//166
f 148//146 170//168 172//170
f 150//148 174//172 178//176
f 151//149 179//177 152//150
f 179//177 159//157 152//150
f 180//178 174//172 153//151
f 180//178 153//151 181//179
f 181//179 153//151 175//173
f 154//152 155//153 182//180
f 175//173 154//152 182//180
f 141//139 176//174 114//112
f 96//94 163//161 161//159
f 143//141 157//155 165//163
f 157//155 98//96 183//181
f 158//156 166//164 184//182
f 183//181 98//96 118//116
f 185//183 146//144 145//143
f 138//136 173//171 171//169
f 150//148 178//176 173//171
f 172//170 186//184 151//149
f 174//172 180//178 178//176
f 160//158 187//185 155//153
f 155//153 187//185 182//180
f 176//174 188//186 132//130
f 189//187 156//154 164//162
f 158//156 184//182 190//188
f 158//156 190//188 145//143
f 185//183 145//143 190//188
f 185//183 167//165 146//144
f 191//189 168//166 192//190
f 168//166 169//167 192//190
f 193//191 192//190 169//167
f 169//167 171//169 193//191
f 194//192 170//168 168//166
f 193//191 171//169 173//171
f 172//170 170//168 186//184
f 173//171 178//176 193//191
f 151//149 195//193 179//177
f 151//149 186//184 195//193
f 180//178 196//194 178//176
f 179//177 160//158 159//157
f 179//177 195//193 160//158
f 160//158 195//193 187//185
f 181//179 175//173 197//195
f 175//173 182//180 198//196
f 176//174 141//139 161//159
f 188//186 162//160 132//130
f 199//197 163//161 115//113
f 199//197 115//113 165//163
f 177//175 189//187 164//162
f 156//154 189//187 166//164
f 184//182 166//164 189//187
f 167//165 200//198 118//116
f 118//116 200//198 183//181
f 194//192 168//166 191//189
f 193//191 201//199 192//190
f 193//191 178//176 201//199
f 201//199 178//176 196//194
f 181//179 197//195 180//178
f 182//180 187//185 202//200
f 185//183 200//198 167//165
f 203//201 191//189 192//190
f 201//199 203//201 192//190
f 204//202 170//168 194//192
f 201//199 205//203 203//201
f 201//199 196//194 205//203
f 206//204 205//203 196//194
f 196//194 180//178 206//204
f 207//205 206//204 197//195
f 206//204 180//178 197//195
f 182//180 202//200 198//196
f 175//173 198//196 208//206
f 197//195 175//173 208//206
f 209//207 162//160 188//186
f 210//208 161//159 163//161
f 163//161 199//197 210//208
f 177//175 162//160 211//209
f 212//210 189//187 177//175
f 190//188 213//211 185//183
f 170//168 204//202 186//184
f 157//155 214//212 165//163
f 212//210 215//213 189//187
f 189//187 215//213 184//182
f 194//192 216//214 204//202
f 194//192 191//189 216//214
f 191//189 203//201 205//203
f 195//193 186//184 217//215
f 205//203 206//204 207//205
f 195//193 217//215 187//185
f 218//216 197//195 208//206
f 218//216 207//205 197//195
f 161//159 210//208 176//174
f 219//217 210//208 199//197
f 219//217 199//197 165//163
f 177//175 211//209 212//210
f 157//155 183//181 214//212
f 184//182 215//213 190//188
f 216//214 191//189 220//218
f 191//189 205//203 220//218
f 217//215 221//219 187//185
f 207//205 218//216 222//220
f 187//185 221//219 202//200
f 176//174 210//208 188//186
f 165//163 214//212 219//217
f 183//181 223//221 214//212
f 215//213 213//211 190//188
f 200//198 185//183 224//222
f 186//184 204//202 217//215
f 205//203 207//205 222//220
f 220//218 205//203 222//220
f 198//196 202//200 225//223
f 208//206 198//196 225//223
f 210//208 226//224 188//186
f 219//217 226//224 210//208
f 162//160 209//207 211//209
f 185//183 213//211 224//222
f 183//181 200//198 223//221
f 200//198 224//222 223//221
f 216//214 220//218 204//202
f 221//219 217//215 204//202
f 202//200 221//219 225//223
f 218//216 208//206 225//223
f 213//211 215//213 212//210
f 204//202 220//218 227//225
f 221//219 204//202 227//225
f 220//218 222//220 227//225
f 227//225 225//223 221//219
f 222//220 218//216 227//225
f 218//216 225//223 227//225
f 214//212 228//226 219//217
f 214//212 229//227 228//226
f 230//228 212//210 211//209
f 214//212 223//221 229//227
f 212//210 230//228 213//211
f 213//211 231//229 224//222
f 226//224 209//207 188//186
f 219//217 228//226 226//224
f 230//228 231//229 213//211
f 226//224 232//230 209//207
f 226//224 228//226 232//230
f 230//228 211//209 233//231
f 229//227 223//221 224//222
f 209//207 233//231 211//209
f 232//230 233//231 209//207
f 234//232 233//231 232//230
f 228//226 234//232 232//230
f 228//226 229//227 234//232
f 233//231 231//229 230//228
f 233//231 234//232 231//229
f 234//232 229//227 224//222
f 234//232 224//222 231//229
