# Blender v2.92.0 OBJ File: 'convert_to_one_sided.blend'
# www.blender.org
mtllib 1109L.mtl
o 1109
v 5.120884 5.913363 4.815229
v 5.066295 5.863144 4.814149
v 5.037625 5.892743 4.819059
v 5.127414 5.854464 4.825409
v 5.062015 5.799254 4.868409
v 4.990695 5.849924 4.844869
v 5.001125 5.916492 4.839209
v 5.199503 5.872963 4.846758
v 5.182364 5.940523 4.854629
v 5.038495 5.946802 4.845919
v 5.103614 5.968442 4.868778
v 5.168324 5.799054 4.899178
v 4.944166 5.898243 4.880318
v 4.925657 5.816514 4.898808
v 5.236562 5.906693 4.880448
v 4.980286 5.947672 4.883878
v 4.974056 5.789694 4.897248
v 5.231472 5.815524 4.914708
v 5.254222 5.859074 4.911777
v 4.888487 5.825614 4.946007
v 5.219303 5.952463 4.916388
v 5.156864 5.976702 4.903518
v 5.018846 5.976652 4.905378
v 5.009715 5.744055 4.935817
v 5.083194 5.700376 4.989917
v 4.898397 5.896573 4.949087
v 5.260002 5.888053 4.967597
v 5.087685 5.988682 4.927318
v 5.208363 5.755305 4.983267
v 4.927986 5.734615 4.959567
v 4.900197 5.771665 4.954267
v 4.870107 5.841654 4.999197
v 4.940427 5.941762 4.960477
v 5.254272 5.806544 4.963497
v 5.273872 5.805704 5.022956
v 5.033525 5.983542 4.973087
v 5.140864 5.978932 4.981317
v 4.975296 5.665726 5.006986
v 4.868297 5.709856 5.021956
v 5.225533 5.931503 5.008097
v 4.989676 5.618397 5.045706
v 4.858138 5.774915 5.025146
v 4.886497 5.877793 5.005367
v 5.263422 5.857584 5.072406
v 4.900477 5.654896 5.029686
v 5.250432 5.733135 5.075176
v 4.969776 5.954302 5.034096
v 4.922546 5.599107 5.071806
v 4.872547 5.622406 5.073236
v 4.841268 5.714056 5.072656
v 5.274952 5.815604 5.075456
v 4.902216 5.872404 5.054886
v 5.184103 5.941402 5.068666
v 5.057115 5.977012 5.023556
v 5.107194 5.964333 5.052566
v 5.038485 5.605237 5.093165
v 5.162963 5.675916 5.076826
v 4.861717 5.788915 5.057735
v 5.270362 5.758105 5.116645
v 5.236232 5.862763 5.115675
v 4.877067 5.580487 5.109325
v 4.856967 5.637796 5.099275
v 4.944306 5.882243 5.103485
v 5.044915 5.928563 5.090715
v 4.946677 5.568807 5.130025
v 5.035555 5.578037 5.146834
v 5.134564 5.626487 5.153694
v 4.849808 5.702955 5.103615
v 5.214113 5.682556 5.133765
v 5.246062 5.710546 5.145504
v 5.142273 5.906213 5.125705
v 4.887507 5.762515 5.118355
v 5.260993 5.796625 5.129595
v 5.014076 5.873313 5.139605
v 4.892267 5.585317 5.137805
v 4.997335 5.566957 5.156205
v 4.876328 5.649547 5.136655
v 5.197663 5.872484 5.140515
v 5.178493 5.844034 5.177024
v 4.985715 5.576627 5.163915
v 5.064915 5.595547 5.170334
v 4.969416 5.787215 5.164214
v 5.078425 5.847114 5.160794
v 4.965456 5.626727 5.180704
v 4.925807 5.699856 5.161314
v 5.203183 5.671716 5.175684
v 5.139304 5.635487 5.186004
v 5.236453 5.731626 5.173325
v 5.213873 5.804764 5.169925
v 5.080464 5.626687 5.191724
v 5.019765 5.716146 5.196064
v 5.069675 5.772685 5.197344
v 5.098714 5.685806 5.211064
v 5.163443 5.678996 5.192944
v 5.114924 5.738575 5.213574
v 5.166453 5.737815 5.197274
v 5.137464 5.790744 5.185204
vn 0.1368 0.2878 -0.9479
vn -0.0848 -0.3168 -0.9447
vn -0.2580 0.1651 -0.9519
vn 0.2264 -0.4727 -0.8516
vn -0.0186 -0.6970 -0.7169
vn -0.4208 -0.2924 -0.8587
vn -0.4850 0.3344 -0.8080
vn 0.5309 -0.2191 -0.8186
vn 0.4226 0.6067 -0.6733
vn -0.2047 0.6686 -0.7149
vn 0.0412 0.8487 -0.5272
vn 0.2935 -0.7118 -0.6381
vn -0.7260 0.2863 -0.6253
vn -0.6004 -0.3289 -0.7289
vn 0.8105 0.2953 -0.5058
vn -0.5406 0.6873 -0.4851
vn -0.2361 -0.6257 -0.7435
vn 0.5656 -0.5950 -0.5711
vn 0.8869 -0.1742 -0.4280
vn -0.8636 -0.0363 -0.5029
vn 0.6313 0.7634 -0.1367
vn 0.2524 0.9357 -0.2463
vn -0.2725 0.9205 -0.2802
vn -0.0646 -0.7047 -0.7065
vn 0.2150 -0.7504 -0.6250
vn -0.8546 0.4384 -0.2782
vn 0.9435 0.3277 -0.0489
vn 0.0107 0.9928 -0.1191
vn 0.4489 -0.7520 -0.4828
vn -0.3541 -0.5746 -0.7379
vn -0.6663 -0.3833 -0.6396
vn -0.9642 0.2414 -0.1098
vn -0.6289 0.7752 -0.0592
vn 0.7583 -0.5278 -0.3827
vn 0.9691 -0.1843 -0.1637
vn -0.1938 0.9784 0.0724
vn 0.2300 0.9616 0.1497
vn -0.0597 -0.6464 -0.7607
vn -0.7706 -0.3130 -0.5551
vn 0.6656 0.7163 0.2096
vn 0.1093 -0.7630 -0.6371
vn -0.9686 0.0529 -0.2430
vn -0.8313 0.5337 0.1553
vn 0.8587 0.4369 0.2679
vn -0.3618 -0.5673 -0.7398
vn 0.7244 -0.6302 -0.2793
vn -0.4241 0.8287 0.3651
vn -0.1086 -0.7828 -0.6127
vn -0.6411 -0.5090 -0.5743
vn -0.9976 -0.0003 -0.0692
vn 0.9812 0.1459 0.1264
vn -0.7385 0.5545 0.3836
vn 0.3867 0.8073 0.4458
vn -0.0743 0.9329 0.3523
vn 0.0562 0.8779 0.4756
vn 0.2810 -0.8460 -0.4532
vn 0.4354 -0.7941 -0.4240
vn -0.9056 0.3323 0.2637
vn 0.9670 -0.1854 0.1746
vn 0.6585 0.5418 0.5223
vn -0.5929 -0.7852 -0.1785
vn -0.9585 -0.2732 0.0815
vn -0.4790 0.5662 0.6708
vn -0.1367 0.7373 0.6616
vn -0.0673 -0.9959 -0.0604
vn 0.3130 -0.9401 -0.1347
vn 0.4835 -0.8724 -0.0712
vn -0.8716 0.1210 0.4750
vn 0.5981 -0.7831 -0.1705
vn 0.8276 -0.5383 0.1593
vn 0.0593 0.7127 0.6989
vn -0.6631 0.3110 0.6809
vn 0.8259 0.2403 0.5100
vn -0.1979 0.5520 0.8100
vn -0.5564 -0.5455 0.6268
vn 0.0742 -0.9373 0.3406
vn -0.6662 -0.0227 0.7454
vn 0.4427 0.6028 0.6638
vn 0.1686 0.4310 0.8864
vn -0.1241 -0.6607 0.7403
vn 0.2768 -0.8109 0.5156
vn -0.3573 0.3196 0.8776
vn -0.1022 0.4881 0.8668
vn -0.2839 -0.1756 0.9426
vn -0.4608 0.1246 0.8787
vn 0.6127 -0.6371 0.4676
vn 0.3606 -0.6602 0.6589
vn 0.6488 -0.0833 0.7564
vn 0.4678 0.2845 0.8368
vn 0.0785 -0.4325 0.8982
vn -0.2655 0.0940 0.9595
vn -0.1280 0.3537 0.9265
vn 0.0481 -0.1509 0.9874
vn 0.2974 -0.2420 0.9236
vn 0.0443 0.1832 0.9821
vn 0.2812 0.0835 0.9560
vn 0.0983 0.3080 0.9463
usemtl mtl1.969
s 1
f 1//1 2//2 3//3
f 4//4 2//2 1//1
f 2//2 4//4 5//5
f 5//5 6//6 2//2
f 2//2 6//6 3//3
f 3//3 6//6 7//7
f 8//8 4//4 1//1
f 9//9 8//8 1//1
f 3//3 10//10 1//1
f 7//7 10//10 3//3
f 11//11 1//1 10//10
f 11//11 9//9 1//1
f 4//4 12//12 5//5
f 13//13 6//6 14//14
f 8//8 12//12 4//4
f 7//7 6//6 13//13
f 8//8 9//9 15//15
f 7//7 13//13 16//16
f 7//7 16//16 10//10
f 6//6 5//5 17//17
f 6//6 17//17 14//14
f 12//12 8//8 18//18
f 18//18 8//8 19//19
f 20//20 13//13 14//14
f 15//15 19//19 8//8
f 15//15 9//9 21//21
f 9//9 11//11 22//22
f 21//21 9//9 22//22
f 10//10 16//16 23//23
f 10//10 23//23 11//11
f 24//24 5//5 25//25
f 25//25 5//5 12//12
f 26//26 13//13 20//20
f 27//27 19//19 15//15
f 28//28 11//11 23//23
f 22//22 11//11 28//28
f 29//29 25//25 12//12
f 30//30 31//31 14//14
f 17//17 30//30 14//14
f 14//14 31//31 20//20
f 32//32 26//26 20//20
f 13//13 26//26 33//33
f 15//15 21//21 27//27
f 13//13 33//33 16//16
f 24//24 17//17 5//5
f 29//29 12//12 18//18
f 18//18 19//19 34//34
f 34//34 19//19 35//35
f 19//19 27//27 35//35
f 16//16 33//33 23//23
f 23//23 36//36 28//28
f 22//22 28//28 37//37
f 38//38 30//30 24//24
f 24//24 25//25 38//38
f 24//24 30//30 17//17
f 30//30 39//39 31//31
f 18//18 34//34 29//29
f 20//20 31//31 39//39
f 21//21 40//40 27//27
f 22//22 37//37 21//21
f 38//38 25//25 41//41
f 39//39 42//42 20//20
f 20//20 42//42 32//32
f 32//32 43//43 26//26
f 33//33 26//26 43//43
f 44//44 27//27 40//40
f 36//36 23//23 33//33
f 21//21 37//37 40//40
f 28//28 36//36 37//37
f 45//45 39//39 30//30
f 38//38 45//45 30//30
f 29//29 34//34 46//46
f 46//46 34//34 35//35
f 33//33 47//47 36//36
f 48//48 45//45 38//38
f 41//41 48//48 38//38
f 45//45 49//49 39//39
f 42//42 39//39 50//50
f 35//35 27//27 51//51
f 33//33 43//43 52//52
f 52//52 47//47 33//33
f 53//53 40//40 37//37
f 37//37 36//36 54//54
f 37//37 54//54 55//55
f 41//41 25//25 56//56
f 25//25 29//29 57//57
f 50//50 58//58 42//42
f 46//46 35//35 59//59
f 59//59 35//35 51//51
f 42//42 58//58 32//32
f 58//58 43//43 32//32
f 27//27 44//44 51//51
f 60//60 44//44 40//40
f 60//60 40//40 53//53
f 47//47 54//54 36//36
f 55//55 53//53 37//37
f 61//61 49//49 48//48
f 45//45 48//48 49//49
f 56//56 48//48 41//41
f 25//25 57//57 56//56
f 39//39 49//49 62//62
f 62//62 50//50 39//39
f 29//29 46//46 57//57
f 58//58 52//52 43//43
f 63//63 47//47 52//52
f 47//47 64//64 54//54
f 48//48 56//56 65//65
f 65//65 56//56 66//66
f 61//61 62//62 49//49
f 56//56 57//57 67//67
f 62//62 68//68 50//50
f 46//46 69//69 57//57
f 70//70 69//69 46//46
f 46//46 59//59 70//70
f 64//64 47//47 63//63
f 64//64 71//71 55//55
f 55//55 54//54 64//64
f 53//53 55//55 71//71
f 65//65 61//61 48//48
f 56//56 67//67 66//66
f 68//68 58//58 50//50
f 68//68 72//72 58//58
f 72//72 52//52 58//58
f 44//44 60//60 73//73
f 44//44 73//73 51//51
f 72//72 63//63 52//52
f 74//74 64//64 63//63
f 75//75 61//61 65//65
f 66//66 76//76 65//65
f 61//61 75//75 62//62
f 68//68 62//62 77//77
f 57//57 69//69 67//67
f 78//78 60//60 53//53
f 78//78 71//71 79//79
f 53//53 71//71 78//78
f 65//65 80//80 75//75
f 65//65 76//76 80//80
f 66//66 81//81 76//76
f 75//75 77//77 62//62
f 72//72 68//68 77//77
f 59//59 51//51 73//73
f 74//74 63//63 82//82
f 83//83 64//64 74//74
f 71//71 64//64 83//83
f 79//79 71//71 83//83
f 84//84 75//75 80//80
f 81//81 80//80 76//76
f 77//77 75//75 84//84
f 67//67 81//81 66//66
f 84//84 85//85 77//77
f 69//69 86//86 67//67
f 67//67 86//86 87//87
f 86//86 69//69 70//70
f 88//88 86//86 70//70
f 77//77 85//85 72//72
f 88//88 70//70 59//59
f 85//85 82//82 72//72
f 88//88 59//59 73//73
f 82//82 63//63 72//72
f 89//89 60//60 78//78
f 73//73 60//60 89//89
f 74//74 82//82 83//83
f 80//80 81//81 90//90
f 84//84 80//80 90//90
f 87//87 90//90 81//81
f 81//81 67//67 87//87
f 91//91 85//85 84//84
f 82//82 85//85 91//91
f 92//92 82//82 91//91
f 88//88 73//73 89//89
f 92//92 83//83 82//82
f 89//89 78//78 79//79
f 93//93 84//84 90//90
f 93//93 91//91 84//84
f 90//90 87//87 94//94
f 87//87 86//86 94//94
f 93//93 95//95 91//91
f 86//86 88//88 94//94
f 96//96 94//94 88//88
f 88//88 89//89 96//96
f 95//95 92//92 91//91
f 97//97 92//92 95//95
f 96//96 89//89 97//97
f 97//97 83//83 92//92
f 79//79 83//83 97//97
f 89//89 79//79 97//97
f 93//93 90//90 94//94
f 94//94 96//96 93//93
f 96//96 95//95 93//93
f 96//96 97//97 95//95
