# Blender v2.92.0 OBJ File: 'convert_to_one_sided.blend'
# www.blender.org
mtllib 1113L.mtl
o Cube
v 0.001000 0.001000 -0.001000
v 0.001000 -0.001000 -0.001000
v 0.001000 0.001000 0.001000
v 0.001000 -0.001000 0.001000
v -0.001000 0.001000 -0.001000
v -0.001000 -0.001000 -0.001000
v -0.001000 0.001000 0.001000
v -0.001000 -0.001000 0.001000
vt 0.625000 0.500000
vt 0.875000 0.500000
vt 0.875000 0.750000
vt 0.625000 0.750000
vt 0.375000 0.750000
vt 0.625000 1.000000
vt 0.375000 1.000000
vt 0.375000 0.000000
vt 0.625000 0.000000
vt 0.625000 0.250000
vt 0.375000 0.250000
vt 0.125000 0.500000
vt 0.375000 0.500000
vt 0.125000 0.750000
vn 0.0000 1.0000 0.0000
vn 0.0000 0.0000 1.0000
vn -1.0000 0.0000 0.0000
vn 0.0000 -1.0000 0.0000
vn 1.0000 0.0000 0.0000
vn 0.0000 0.0000 -1.0000
usemtl Material
s off
f 1/1/1 5/2/1 7/3/1 3/4/1
f 4/5/2 3/4/2 7/6/2 8/7/2
f 8/8/3 7/9/3 5/10/3 6/11/3
f 6/12/4 2/13/4 4/5/4 8/14/4
f 2/13/5 1/1/5 3/4/5 4/5/5
f 6/11/6 5/10/6 1/1/6 2/13/6
o 1113
v 6.314829 3.930659 4.883858
v 6.316129 3.958519 4.877987
v 6.337368 4.015877 4.880988
v 6.278859 3.968538 4.900167
v 6.342518 3.983768 4.900697
v 6.317089 4.080807 4.916357
v 6.363208 4.082326 4.914667
v 6.290299 3.875449 4.901058
v 6.283579 3.883989 4.900567
v 6.377248 4.072096 4.925627
v 6.372288 4.156775 4.942677
v 6.254519 3.775191 4.921607
v 6.246390 3.777281 4.931987
v 6.264830 3.828430 4.923657
v 6.292199 3.866359 4.918197
v 6.223340 3.890869 4.936947
v 6.194590 3.983778 4.945307
v 6.343718 3.980238 4.950707
v 6.379518 4.107126 4.996916
v 6.230890 4.027257 4.940037
v 6.239260 4.113836 4.981446
v 6.324479 4.152166 4.960997
v 6.245170 3.781061 4.923417
v 6.261719 3.815540 4.930867
v 6.305969 3.933439 4.974267
v 6.123061 3.983248 4.990346
v 6.176751 4.037417 4.976536
v 6.383258 4.154615 4.976736
v 6.357818 4.203175 4.994236
v 6.375628 4.195685 4.986586
v 6.220360 3.827160 4.953037
v 6.147701 3.901419 4.995906
v 6.302198 4.191195 5.016836
v 6.232420 3.824210 4.955287
v 6.201890 3.851910 4.985046
v 6.164041 3.880549 5.005576
v 6.265309 3.881769 4.973057
v 6.073092 3.968538 5.029726
v 6.148561 4.113926 5.043366
v 6.377038 4.244754 5.049165
v 6.226650 3.898479 5.005116
v 6.126061 3.904589 5.023206
v 6.069902 3.946528 5.049665
v 6.276169 3.994068 5.050126
v 6.049532 4.041497 5.047926
v 6.341898 4.069117 5.054245
v 6.272269 4.214045 5.061565
v 6.395708 4.222375 5.104015
v 6.387248 4.238255 5.073335
v 6.148490 3.914589 5.040436
v 6.002273 4.017087 5.069775
v 6.340389 4.228395 5.041596
v 6.329519 4.295134 5.134754
v 6.110501 3.918359 5.035796
v 5.966233 4.093906 5.080925
v 6.057352 4.170235 5.104035
v 6.373378 4.191925 5.155444
v 6.378898 4.309993 5.167904
v 5.987033 4.009247 5.093315
v 6.070261 3.955029 5.070165
v 6.192101 3.965388 5.070495
v 5.934854 4.085416 5.099335
v 5.883224 4.148225 5.117645
v 5.903984 4.177666 5.112504
v 5.969913 4.161575 5.104665
v 6.039342 4.014827 5.129364
v 6.217310 4.042647 5.127084
v 5.921574 4.089696 5.121845
v 6.291449 4.082946 5.125285
v 5.857835 4.231815 5.125144
v 5.986683 4.248454 5.143894
v 5.883464 4.310234 5.136324
v 6.194661 4.265994 5.145674
v 5.856665 4.285654 5.126785
v 6.083252 4.283844 5.171224
v 6.390927 4.297064 5.184304
v 5.835815 4.332173 5.135684
v 5.841724 4.371563 5.142294
v 6.132401 3.997288 5.106995
v 5.962773 4.057417 5.136095
v 5.885104 4.162615 5.138414
v 5.943944 4.412852 5.199794
v 6.037452 4.357493 5.209833
v 5.847535 4.291304 5.147934
v 5.828745 4.385403 5.149524
v 6.337708 4.372253 5.244883
v 5.857335 4.433782 5.163034
v 5.833945 4.436382 5.161745
v 5.923804 4.101996 5.140744
v 6.328729 4.162486 5.194563
v 5.835415 4.463982 5.163875
v 5.847994 4.501021 5.178434
v 5.893194 4.496361 5.204534
v 5.854535 4.513771 5.181144
v 6.157260 4.098156 5.205943
v 6.036822 4.081926 5.178813
v 5.974053 4.143576 5.189713
v 5.912214 4.247804 5.195244
v 6.371308 4.357143 5.259473
v 5.844085 4.406612 5.170905
v 5.875885 4.508921 5.202034
v 5.883854 4.544490 5.218244
v 5.898204 4.550260 5.218274
v 6.265160 4.140276 5.218803
v 5.888374 4.351303 5.203554
v 6.374918 4.308454 5.256313
v 6.151241 4.382722 5.247163
v 6.254600 4.349733 5.217134
v 5.956683 4.524051 5.260493
v 5.934203 4.555161 5.264213
v 6.082801 4.171415 5.256573
v 6.354428 4.246984 5.259143
v 6.056232 4.448922 5.274613
v 5.909634 4.454011 5.239413
v 6.012893 4.181845 5.233323
v 6.019873 4.236545 5.264073
v 5.980113 4.373823 5.294142
v 6.000833 4.559811 5.326552
v 6.252540 4.190355 5.293462
v 6.190331 4.198145 5.302272
v 6.175961 4.450422 5.325852
v 6.261509 4.406012 5.287183
v 5.937573 4.538151 5.267973
v 5.986403 4.561840 5.317472
v 6.309719 4.222175 5.282203
v 6.332409 4.299724 5.323852
v 6.332469 4.398552 5.318142
v 5.975113 4.489522 5.319002
v 6.083412 4.506961 5.342682
v 6.141611 4.270694 5.344222
v 6.072332 4.322423 5.345822
v 6.357318 4.366913 5.299972
v 6.265790 4.427692 5.340222
v 6.026532 4.571970 5.370512
v 6.012543 4.551540 5.354112
v 6.055322 4.550420 5.376342
v 6.253370 4.261814 5.334752
v 6.115531 4.346983 5.388681
v 6.078012 4.410352 5.391602
v 6.335438 4.367992 5.335952
v 6.272999 4.419552 5.365322
v 6.030272 4.483111 5.370372
v 6.183680 4.460492 5.370172
v 6.104311 4.519521 5.390061
v 6.047742 4.568520 5.389112
v 6.056712 4.552351 5.391342
v 6.224300 4.332763 5.388921
v 6.286239 4.345473 5.366591
v 6.267250 4.399032 5.379642
v 6.184061 4.457712 5.394711
v 6.154981 4.367243 5.395451
v 6.207760 4.393452 5.393032
v 6.068511 4.480971 5.405632
v 6.061362 4.519461 5.394831
v 6.093991 4.515501 5.394882
v 6.119031 4.450272 5.394042
vn 0.4248 -0.2976 -0.8550
vn -0.1630 -0.0486 -0.9854
vn 0.2161 0.1265 -0.9681
vn -0.4535 0.1272 -0.8821
vn 0.8856 -0.2903 -0.3625
vn -0.2834 0.4091 -0.8674
vn 0.5871 0.2032 -0.7836
vn 0.5277 -0.5119 -0.6779
vn -0.2605 -0.2254 -0.9388
vn 0.9385 -0.0599 -0.3400
vn 0.2708 0.5355 -0.8000
vn 0.4957 -0.8214 -0.2822
vn -0.6259 -0.5785 -0.5230
vn -0.0066 -0.3357 -0.9420
vn 0.8611 -0.4921 -0.1277
vn -0.5787 -0.1540 -0.8009
vn -0.4959 0.1417 -0.8567
vn 0.8959 -0.3986 0.1959
vn 0.9531 -0.2795 0.1160
vn -0.4493 0.3326 -0.8292
vn -0.4530 0.5384 -0.7106
vn -0.3592 0.6047 -0.7108
vn -0.0663 -0.7865 0.6140
vn 0.6403 -0.4878 0.5933
vn 0.7175 -0.4822 0.5027
vn -0.5619 0.0807 -0.8232
vn -0.5139 0.3762 -0.7709
vn 0.9422 0.1512 -0.2988
vn -0.1548 0.7579 -0.6338
vn 0.6308 0.5754 -0.5205
vn -0.6883 -0.7169 0.1103
vn -0.6662 -0.4959 -0.5570
vn -0.3955 0.6902 -0.6060
vn 0.1645 -0.6288 0.7600
vn -0.0919 -0.7507 0.6543
vn -0.4726 -0.8429 0.2573
vn 0.4893 -0.5015 0.7135
vn -0.6197 -0.2332 -0.7494
vn -0.3982 0.5036 -0.7667
vn 0.2662 0.7993 -0.5387
vn 0.3121 -0.5474 0.7765
vn -0.5793 -0.8115 -0.0762
vn -0.6634 -0.7208 -0.2007
vn 0.4730 -0.5676 0.6739
vn -0.3915 0.2034 -0.8974
vn 0.7250 -0.5196 0.4521
vn -0.3552 0.6877 -0.6332
vn 0.9961 -0.0716 0.0511
vn 0.8902 0.3693 -0.2666
vn -0.0095 -0.6895 0.7242
vn -0.6022 -0.2845 -0.7459
vn -0.2806 0.7750 -0.5662
vn -0.0964 0.7996 -0.5927
vn -0.3827 -0.8294 0.4070
vn -0.2759 0.1444 -0.9503
vn -0.1063 0.4523 -0.8855
vn 0.8585 -0.3997 0.3213
vn 0.5836 0.7124 -0.3897
vn -0.6634 -0.7447 0.0728
vn -0.2700 -0.7842 0.5587
vn 0.2523 -0.6069 0.7536
vn -0.6606 -0.3131 -0.6823
vn -0.8303 -0.3407 -0.4410
vn -0.1948 0.1229 -0.9731
vn -0.0391 0.3702 -0.9281
vn -0.1749 -0.6931 0.6993
vn 0.2884 -0.6771 0.6770
vn -0.7965 -0.5894 0.1353
vn 0.4777 -0.6668 0.5720
vn -0.8480 -0.1858 -0.4964
vn 0.1226 0.4015 -0.9076
vn 0.2307 0.2457 -0.9415
vn -0.1668 0.6418 -0.7485
vn -0.1888 0.0862 -0.9782
vn 0.0200 0.5413 -0.8406
vn 0.9687 0.2442 -0.0448
vn -0.7555 0.0078 -0.6551
vn -0.0818 0.2237 -0.9712
vn 0.0903 -0.6648 0.7416
vn -0.4587 -0.6084 0.6477
vn -0.7996 -0.3682 0.4745
vn 0.3998 0.3704 -0.8384
vn 0.2135 0.4927 -0.8436
vn -0.8852 -0.2207 0.4096
vn -0.9990 -0.0080 -0.0437
vn 0.2574 0.8530 -0.4540
vn 0.2586 0.2825 -0.9237
vn -0.4886 0.2774 -0.8272
vn -0.6154 -0.4770 0.6275
vn 0.5914 -0.6283 0.5054
vn -0.9715 0.2115 0.1066
vn 0.0904 0.4189 -0.9035
vn 0.4816 0.3414 -0.8071
vn -0.6977 0.6324 -0.3365
vn 0.0473 -0.6972 0.7153
vn -0.2274 -0.5601 0.7966
vn -0.4460 -0.4212 0.7898
vn -0.6074 -0.2865 0.7409
vn 0.8520 0.5226 -0.0309
vn -0.7719 -0.0636 0.6325
vn -0.7819 0.1659 0.6009
vn 0.1989 0.7366 -0.6465
vn -0.6243 0.7358 0.2624
vn 0.3752 -0.7217 0.5817
vn -0.6840 -0.1628 0.7110
vn 0.9281 -0.1194 0.3526
vn 0.0942 0.6631 -0.7426
vn -0.0338 0.7570 -0.6525
vn 0.4916 0.5189 -0.6993
vn -0.0751 0.9916 -0.1055
vn -0.2666 -0.5492 0.7920
vn 0.7495 -0.4460 0.4892
vn 0.3408 0.5646 -0.7517
vn -0.7248 -0.0499 0.6872
vn -0.3945 -0.4501 0.8011
vn -0.4674 -0.4027 0.7870
vn -0.6422 -0.2368 0.7291
vn 0.3464 0.8347 -0.4282
vn 0.2496 -0.6478 0.7198
vn -0.0429 -0.5920 0.8048
vn 0.2876 0.8160 -0.5014
vn 0.1707 0.8492 -0.4997
vn -0.7384 0.2946 0.6066
vn -0.4917 0.8183 0.2976
vn 0.4932 -0.5815 0.6470
vn 0.6200 -0.3484 0.7030
vn 0.6045 0.7928 0.0784
vn -0.7316 -0.0399 0.6806
vn 0.4933 0.7089 -0.5041
vn -0.1692 -0.5256 0.8337
vn -0.5014 -0.4238 0.7543
vn 0.8938 0.2572 0.3673
vn 0.3572 0.9243 -0.1346
vn 0.0245 0.9939 0.1073
vn -0.6928 0.2366 0.6813
vn 0.5502 0.7859 -0.2822
vn 0.2351 -0.5008 0.8330
vn -0.2550 -0.3979 0.8813
vn -0.3816 -0.2200 0.8978
vn 0.7345 0.1308 0.6659
vn 0.5371 0.6974 0.4744
vn -0.6536 -0.0803 0.7525
vn 0.4676 0.8833 -0.0340
vn 0.5831 0.7978 0.1533
vn -0.0709 0.5824 0.8098
vn 0.5412 0.7983 0.2642
vn 0.1395 -0.3260 0.9350
vn 0.4140 -0.2034 0.8873
vn 0.4346 0.1563 0.8869
vn 0.3590 0.4634 0.8102
vn -0.0267 -0.1879 0.9818
vn 0.1571 -0.0051 0.9876
vn -0.2486 -0.0051 0.9686
vn -0.2729 0.1170 0.9549
vn 0.2627 0.3558 0.8969
vn 0.0684 0.0319 0.9971
usemtl mtl1.121
s 1
f 9//7 10//8 11//9
f 11//9 10//8 12//10
f 11//9 13//11 9//7
f 11//9 12//10 14//12
f 15//13 11//9 14//12
f 16//14 17//15 9//7
f 16//14 9//7 13//11
f 10//8 17//15 12//10
f 9//7 17//15 10//8
f 13//11 11//9 15//13
f 15//13 18//16 13//11
f 15//13 14//12 19//17
f 20//18 21//19 22//20
f 23//21 20//18 22//20
f 24//22 22//20 21//19
f 17//15 22//20 24//22
f 16//14 22//20 17//15
f 23//21 22//20 16//14
f 17//15 24//22 12//10
f 16//14 13//11 23//21
f 12//10 24//22 25//23
f 26//24 13//11 27//25
f 25//23 28//26 12//10
f 27//25 13//11 18//16
f 12//10 28//26 14//12
f 28//26 29//27 14//12
f 14//12 29//27 30//28
f 30//28 19//17 14//12
f 20//18 31//29 21//19
f 31//29 20//18 32//30
f 32//30 20//18 23//21
f 32//30 23//21 33//31
f 13//11 26//24 23//21
f 24//22 34//32 25//23
f 35//33 25//23 34//32
f 35//33 28//26 25//23
f 18//16 15//13 36//34
f 15//13 19//17 36//34
f 30//28 37//35 19//17
f 38//36 19//17 37//35
f 21//19 31//29 39//37
f 24//22 21//19 39//37
f 40//38 24//22 39//37
f 33//31 23//21 26//24
f 40//38 34//32 24//22
f 18//16 36//34 27//25
f 30//28 29//27 41//39
f 36//34 19//17 38//36
f 31//29 42//40 39//37
f 31//29 32//30 42//40
f 39//37 42//40 43//41
f 43//41 44//42 39//37
f 39//37 44//42 40//38
f 33//31 45//43 32//30
f 45//43 42//40 32//30
f 40//38 46//44 34//32
f 47//45 35//33 34//32
f 47//45 29//27 35//33
f 35//33 29//27 28//26
f 37//35 30//28 41//39
f 48//46 38//36 37//35
f 42//40 49//47 43//41
f 45//43 49//47 42//40
f 50//48 40//38 44//42
f 51//49 40//38 50//48
f 33//31 52//50 45//43
f 46//44 53//51 34//32
f 34//32 53//51 47//45
f 26//24 27//25 54//52
f 41//39 29//27 55//53
f 27//25 36//34 56//54
f 36//34 38//36 57//55
f 57//55 38//36 48//46
f 43//41 58//56 44//42
f 49//47 58//56 43//41
f 45//43 52//50 49//47
f 51//49 46//44 40//38
f 59//57 53//51 46//44
f 29//27 47//45 55//53
f 36//34 57//55 56//54
f 37//35 41//39 60//58
f 48//46 37//35 60//58
f 61//59 48//46 60//58
f 50//48 62//60 51//49
f 44//42 62//60 50//48
f 58//56 62//60 44//42
f 59//57 46//44 51//49
f 59//57 63//61 53//51
f 52//50 33//31 54//52
f 54//52 33//31 26//24
f 64//62 53//51 63//61
f 47//45 53//51 64//62
f 27//25 56//54 65//63
f 48//46 66//64 57//55
f 66//64 48//46 61//59
f 67//65 51//49 68//66
f 68//66 51//49 62//60
f 58//56 49//47 69//67
f 49//47 52//50 69//67
f 67//65 59//57 51//49
f 59//57 70//68 63//61
f 71//69 72//70 70//68
f 63//61 70//68 72//70
f 73//71 63//61 72//70
f 63//61 73//71 64//62
f 54//52 27//25 65//63
f 41//39 55//53 60//58
f 58//56 68//66 62//60
f 74//72 67//65 68//66
f 67//65 70//68 59//57
f 52//50 75//73 69//67
f 76//74 70//68 67//65
f 52//50 77//75 75//73
f 52//50 54//52 77//75
f 70//68 76//74 71//69
f 71//69 78//76 72//70
f 72//70 79//77 73//71
f 80//78 79//77 72//70
f 64//62 73//71 79//77
f 64//62 81//79 47//45
f 82//80 72//70 78//76
f 81//79 64//62 83//81
f 47//45 81//79 55//53
f 80//78 72//70 82//80
f 56//54 57//55 84//82
f 78//76 85//83 82//80
f 80//78 82//80 86//84
f 84//82 57//55 66//64
f 60//58 55//53 61//59
f 86//84 82//80 85//83
f 68//66 58//56 87//85
f 74//72 68//66 87//85
f 87//85 58//56 69//67
f 67//65 88//86 76//74
f 74//72 88//86 67//65
f 89//87 71//69 76//74
f 71//69 89//87 78//76
f 79//77 83//81 64//62
f 79//77 80//78 90//88
f 83//81 79//77 91//89
f 85//83 92//90 93//91
f 78//76 92//90 85//83
f 61//59 55//53 81//79
f 94//92 66//64 61//59
f 86//84 95//93 80//78
f 96//94 85//83 93//91
f 85//83 96//94 86//84
f 86//84 96//94 95//93
f 90//88 80//78 95//93
f 87//85 69//67 75//73
f 97//95 76//74 88//86
f 97//95 89//87 76//74
f 54//52 98//96 77//75
f 54//52 65//63 98//96
f 89//87 92//90 78//76
f 91//89 79//77 90//88
f 93//91 99//97 96//94
f 95//93 96//94 100//98
f 100//98 101//99 95//93
f 100//98 96//94 102//100
f 102//100 96//94 99//97
f 74//72 87//85 103//101
f 104//102 74//72 103//101
f 88//86 74//72 104//102
f 75//73 103//101 87//85
f 105//103 106//104 89//87
f 89//87 106//104 92//90
f 107//105 84//82 66//64
f 92//90 108//106 93//91
f 99//97 93//91 108//106
f 99//97 109//107 102//100
f 100//98 110//108 101//99
f 102//100 110//108 100//98
f 110//108 102//100 111//109
f 104//102 105//103 88//86
f 97//95 88//86 105//103
f 112//110 103//101 75//73
f 77//75 112//110 75//73
f 97//95 105//103 89//87
f 98//96 112//110 77//75
f 106//104 113//111 92//90
f 114//112 65//63 56//54
f 56//54 84//82 114//112
f 113//111 108//106 92//90
f 83//81 91//89 115//113
f 81//79 83//81 115//113
f 61//59 81//79 116//114
f 108//106 109//107 99//97
f 95//93 101//99 90//88
f 117//115 90//88 101//99
f 102//100 109//107 111//109
f 111//109 118//116 110//108
f 105//103 104//102 119//117
f 98//96 65//63 120//118
f 115//113 116//114 81//79
f 116//114 94//92 61//59
f 121//119 91//89 90//88
f 109//107 108//106 122//120
f 90//88 117//115 121//119
f 101//99 110//108 117//115
f 117//115 110//108 118//116
f 104//102 103//101 119//117
f 105//103 119//117 123//121
f 123//121 124//122 105//103
f 106//104 105//103 124//122
f 124//122 125//123 106//104
f 125//123 113//111 106//104
f 113//111 125//123 122//120
f 113//111 122//120 108//106
f 107//105 66//64 94//92
f 118//116 126//124 117//115
f 127//125 128//126 103//101
f 112//110 127//125 103//101
f 120//118 65//63 114//112
f 129//127 130//128 115//113
f 115//113 130//128 116//114
f 91//89 121//119 115//113
f 116//114 130//128 94//92
f 109//107 131//129 111//109
f 111//109 131//129 118//116
f 131//129 132//130 118//116
f 118//116 132//130 126//124
f 133//131 112//110 98//96
f 120//118 133//131 98//96
f 134//132 120//118 114//112
f 84//82 107//105 114//112
f 135//133 107//105 94//92
f 121//119 129//127 115//113
f 94//92 130//128 135//133
f 131//129 122//120 136//134
f 137//135 121//119 117//115
f 122//120 131//129 109//107
f 137//135 117//115 126//124
f 119//117 103//101 128//126
f 112//110 133//131 127//125
f 138//136 124//122 119//117
f 124//122 123//121 119//117
f 124//122 139//137 125//123
f 107//105 140//138 114//112
f 136//134 122//120 125//123
f 140//138 107//105 135//133
f 135//133 130//128 141//139
f 141//139 130//128 129//127
f 121//119 137//135 129//127
f 126//124 132//130 142//140
f 124//122 138//136 139//137
f 120//118 134//132 133//131
f 136//134 143//141 131//129
f 137//135 126//124 144//142
f 132//130 131//129 143//141
f 144//142 126//124 142//140
f 119//117 128//126 138//136
f 145//143 128//126 127//125
f 145//143 127//125 133//131
f 139//137 138//136 146//144
f 139//137 147//145 125//123
f 148//146 134//132 114//112
f 140//138 148//146 114//112
f 148//146 135//133 149//147
f 148//146 140//138 135//133
f 149//147 135//133 141//139
f 150//148 136//134 125//123
f 151//149 141//139 129//127
f 151//149 129//127 137//135
f 143//141 142//140 132//130
f 145//143 138//136 128//126
f 133//131 134//132 145//143
f 141//139 151//149 149//147
f 150//148 143//141 136//134
f 144//142 152//150 137//135
f 152//150 151//149 137//135
f 142//140 143//141 153//151
f 144//142 142//140 154//152
f 154//152 142//140 153//151
f 138//136 145//143 155//153
f 145//143 134//132 156//154
f 145//143 156//154 155//153
f 139//137 146//144 147//145
f 134//132 148//146 156//154
f 156//154 148//146 157//155
f 125//123 147//145 150//148
f 157//155 148//146 149//147
f 158//156 157//155 149//147
f 149//147 151//149 158//156
f 151//149 152//150 158//156
f 144//142 154//152 152//150
f 138//136 159//157 146//144
f 155//153 159//157 138//136
f 160//158 159//157 155//153
f 155//153 156//154 160//158
f 147//145 146//144 159//157
f 157//155 160//158 156//154
f 147//145 161//159 150//148
f 157//155 158//156 160//158
f 161//159 162//160 150//148
f 152//150 163//161 158//156
f 150//148 162//160 143//141
f 152//150 154//152 163//161
f 153//151 162//160 163//161
f 143//141 162//160 153//151
f 154//152 153//151 163//161
f 159//157 164//162 147//145
f 160//158 164//162 159//157
f 164//162 161//159 147//145
f 160//158 158//156 164//162
f 164//162 162//160 161//159
f 163//161 162//160 164//162
f 158//156 163//161 164//162
