# Blender v2.92.0 OBJ File: 'convert_to_one_sided.blend'
# www.blender.org
mtllib 1114L.mtl
o Cube
v 0.001000 0.001000 -0.001000
v 0.001000 -0.001000 -0.001000
v 0.001000 0.001000 0.001000
v 0.001000 -0.001000 0.001000
v -0.001000 0.001000 -0.001000
v -0.001000 -0.001000 -0.001000
v -0.001000 0.001000 0.001000
v -0.001000 -0.001000 0.001000
vt 0.625000 0.500000
vt 0.875000 0.500000
vt 0.875000 0.750000
vt 0.625000 0.750000
vt 0.375000 0.750000
vt 0.625000 1.000000
vt 0.375000 1.000000
vt 0.375000 0.000000
vt 0.625000 0.000000
vt 0.625000 0.250000
vt 0.375000 0.250000
vt 0.125000 0.500000
vt 0.375000 0.500000
vt 0.125000 0.750000
vn 0.0000 1.0000 0.0000
vn 0.0000 0.0000 1.0000
vn -1.0000 0.0000 0.0000
vn 0.0000 -1.0000 0.0000
vn 1.0000 0.0000 0.0000
vn 0.0000 0.0000 -1.0000
usemtl Material
s off
f 1/1/1 5/2/1 7/3/1 3/4/1
f 4/5/2 3/4/2 7/6/2 8/7/2
f 8/8/3 7/9/3 5/10/3 6/11/3
f 6/12/4 2/13/4 4/5/4 8/14/4
f 2/13/5 1/1/5 3/4/5 4/5/5
f 6/11/6 5/10/6 1/1/6 2/13/6
o 1114
v 8.477351 1.907225 1.700099
v 8.373662 1.889516 1.699499
v 8.432601 1.913115 1.701198
v 8.394152 1.864756 1.711838
v 8.489161 1.852656 1.743258
v 8.421502 1.772197 1.789307
v 8.265974 1.852926 1.718028
v 8.262163 1.868316 1.718508
v 8.331313 1.891755 1.715188
v 8.513371 1.864516 1.763898
v 8.407661 1.914045 1.706178
v 8.483221 1.910155 1.716808
v 8.256244 1.786077 1.762727
v 8.191125 1.823576 1.740638
v 8.163005 1.834256 1.747378
v 8.494551 1.778967 1.802457
v 8.197515 1.856906 1.755418
v 8.441792 1.916815 1.710138
v 8.455191 1.893615 1.756418
v 8.104956 1.794057 1.774597
v 8.474231 1.712668 1.858126
v 8.085566 1.812136 1.776637
v 8.288103 1.883555 1.741738
v 8.379342 1.897605 1.727058
v 8.501680 1.874276 1.767528
v 8.129685 1.732697 1.810677
v 8.226964 1.715478 1.823767
v 8.293363 1.687148 1.857406
v 8.024527 1.788097 1.803137
v 8.072216 1.814946 1.793947
v 8.509950 1.767797 1.832437
v 8.250434 1.868956 1.762848
v 8.018137 1.745257 1.823057
v 8.493761 1.733847 1.847586
v 8.084126 1.826926 1.806957
v 8.330673 1.861696 1.785757
v 8.517220 1.819016 1.829627
v 8.494571 1.837866 1.821857
v 7.953648 1.757787 1.848476
v 7.984757 1.783887 1.834617
v 8.006097 1.799846 1.838887
v 8.514091 1.757047 1.874366
v 8.180024 1.826266 1.817797
v 8.426561 1.819896 1.846097
v 8.037927 1.684458 1.861906
v 7.946618 1.690668 1.891126
v 8.151525 1.651298 1.886316
v 8.406522 1.621299 1.946085
v 8.060396 1.811456 1.839687
v 8.484660 1.688828 1.899936
v 7.907148 1.718427 1.918576
v 7.954988 1.766347 1.874446
v 8.064176 1.782797 1.888336
v 8.509340 1.730777 1.921496
v 8.314633 1.800876 1.861676
v 8.251564 1.596739 1.948655
v 8.019217 1.610709 1.937275
v 7.933748 1.617619 1.957475
v 7.905188 1.644688 1.963585
v 7.973647 1.768677 1.902776
v 8.485110 1.775637 1.888706
v 8.148545 1.571299 1.971385
v 8.502010 1.672888 1.941385
v 7.922338 1.737407 1.926545
v 8.201425 1.736957 1.944995
v 8.460092 1.550400 2.047314
v 8.472191 1.619929 1.983265
v 7.890908 1.659598 1.979435
v 8.041066 1.708728 1.983825
v 8.380602 1.726877 1.954485
v 8.482711 1.563230 2.067264
v 8.499001 1.658088 1.987845
v 7.900608 1.686858 1.979845
v 7.936608 1.701148 1.982875
v 8.270424 1.511380 2.052444
v 7.976197 1.556060 2.014374
v 7.919298 1.599599 1.995635
v 8.119195 1.522290 2.038994
v 8.414351 1.474341 2.126813
v 7.901098 1.620629 2.003204
v 8.496161 1.646998 2.023264
v 8.468821 1.691878 1.983165
v 7.920558 1.643188 2.042904
v 8.151725 1.661958 2.033444
v 8.251264 1.602109 2.112213
v 8.417192 1.598639 2.120923
v 8.080006 1.487590 2.090093
v 7.916328 1.618799 2.029644
v 8.468201 1.631759 2.058654
v 8.058816 1.484101 2.107383
v 7.997217 1.526610 2.074564
v 8.457141 1.486361 2.138493
v 7.941498 1.582729 2.030414
v 7.979587 1.649748 2.044854
v 7.977897 1.556970 2.080353
v 8.077617 1.620119 2.083054
v 8.203354 1.453211 2.129683
v 8.134485 1.452771 2.149343
v 8.029377 1.511350 2.104173
v 8.479650 1.541510 2.143223
v 7.981087 1.581889 2.092483
v 8.464681 1.588709 2.109383
v 8.089986 1.479391 2.146413
v 8.325603 1.416191 2.190752
v 8.446332 1.429871 2.208582
v 8.046586 1.520460 2.128823
v 7.992447 1.613169 2.076694
v 8.138335 1.558720 2.150573
v 8.445191 1.542680 2.191702
v 8.137395 1.452731 2.173032
v 8.462931 1.470821 2.190762
v 8.059306 1.566900 2.124253
v 8.460191 1.529060 2.192322
v 8.228284 1.416491 2.200002
v 8.185744 1.432161 2.206102
v 8.413582 1.410632 2.225522
v 8.131516 1.472861 2.183292
v 8.067367 1.527470 2.142763
v 8.134146 1.512110 2.177512
v 8.451471 1.496810 2.245691
v 8.249094 1.399372 2.246291
v 8.221564 1.423571 2.243421
v 8.461721 1.490940 2.235801
v 8.227295 1.503980 2.218502
v 8.342992 1.482781 2.263481
v 8.431781 1.498390 2.244981
v 8.310412 1.384332 2.260111
v 8.376072 1.381092 2.274461
v 8.210924 1.459461 2.235381
v 8.457051 1.457841 2.256011
v 8.427021 1.409861 2.273021
v 8.275584 1.451611 2.273321
v 8.353383 1.371502 2.303991
v 8.298174 1.392752 2.283181
v 8.298513 1.412861 2.298471
v 8.448771 1.458181 2.275061
v 8.385882 1.378882 2.308131
v 8.432601 1.418861 2.304920
v 8.361873 1.385562 2.318650
v 8.398401 1.396832 2.309880
v 8.333503 1.419561 2.314910
v 8.414811 1.447761 2.290711
v 8.343952 1.402132 2.323940
v 8.374312 1.416151 2.302161
vn 0.4549 0.0658 -0.8881
vn -0.1171 0.1774 -0.9771
vn -0.0094 0.7700 -0.6379
vn 0.0894 -0.4942 -0.8647
vn 0.5057 -0.4822 -0.7154
vn 0.1356 -0.6595 -0.7394
vn -0.1436 -0.2269 -0.9633
vn -0.3264 0.5242 -0.7865
vn -0.2758 0.8872 -0.3700
vn 0.9721 0.1236 -0.1993
vn -0.1921 0.9781 -0.0797
vn 0.4983 0.8648 -0.0618
vn -0.0042 -0.6071 -0.7946
vn -0.1939 -0.3418 -0.9195
vn -0.3903 0.3098 -0.8670
vn 0.4510 -0.5911 -0.6687
vn -0.3315 0.9339 -0.1341
vn 0.0117 0.9934 0.1144
vn 0.0566 0.8565 0.5131
vn -0.2451 -0.3462 -0.9056
vn 0.3087 -0.7138 -0.6286
vn -0.4412 0.2803 -0.8525
vn -0.1673 0.9625 0.2136
vn -0.1522 0.9280 0.3401
vn 0.5389 0.7399 0.4027
vn -0.0827 -0.6112 -0.7872
vn 0.0227 -0.6827 -0.7303
vn 0.0752 -0.7074 -0.7028
vn -0.5039 0.1559 -0.8496
vn -0.4497 0.7484 -0.4875
vn 0.8089 -0.4233 -0.4082
vn -0.1788 0.9034 0.3897
vn -0.3099 -0.4499 -0.8376
vn 0.5870 -0.6227 -0.5175
vn -0.2378 0.9674 0.0872
vn -0.0690 0.8374 0.5422
vn 0.7440 0.5055 0.4370
vn 0.2400 0.7441 0.6234
vn -0.7287 0.0992 -0.6776
vn -0.6117 0.6536 -0.4457
vn -0.4155 0.9096 -0.0012
vn 0.9983 -0.0546 0.0177
vn -0.0696 0.8700 0.4881
vn 0.0052 0.7629 0.6465
vn -0.1664 -0.6424 -0.7481
vn -0.4903 -0.4913 -0.7199
vn -0.0082 -0.7110 -0.7031
vn 0.2001 -0.7440 -0.6375
vn -0.1168 0.9113 0.3949
vn 0.5363 -0.6867 -0.4907
vn -0.9343 0.2006 -0.2948
vn -0.6640 0.7444 -0.0701
vn -0.0125 0.8276 0.5613
vn 0.7622 0.4362 0.4783
vn -0.0334 0.7882 0.6145
vn 0.0665 -0.7413 -0.6679
vn -0.1442 -0.7250 -0.6735
vn -0.4368 -0.6524 -0.6194
vn -0.7758 -0.4116 -0.4782
vn -0.2276 0.8688 0.4397
vn 0.2430 0.6995 0.6721
vn -0.0103 -0.7660 -0.6427
vn 0.8362 -0.4622 -0.2954
vn -0.5857 0.7592 0.2839
vn 0.0036 0.7894 0.6139
vn 0.4824 -0.6850 -0.5460
vn 0.5159 -0.6689 -0.5352
vn -0.9976 -0.0207 0.0667
vn -0.0218 0.7658 0.6427
vn 0.0365 0.7731 0.6332
vn 0.8634 -0.4398 -0.2471
vn 0.9942 -0.0424 0.0989
vn -0.7801 0.4685 0.4146
vn -0.2288 0.7540 0.6157
vn 0.0598 -0.7894 -0.6110
vn -0.3686 -0.8304 -0.4179
vn -0.6667 -0.6956 -0.2678
vn -0.0546 -0.8009 -0.5964
vn 0.2342 -0.7893 -0.5676
vn -0.8876 -0.4572 0.0559
vn 0.6788 0.5235 0.5149
vn 0.2707 0.7352 0.6215
vn -0.4680 0.4685 0.7493
vn -0.0044 0.7647 0.6444
vn -0.0382 0.7630 0.6453
vn 0.1206 0.7824 0.6110
vn -0.2109 -0.8749 -0.4360
vn -0.8445 -0.1545 0.5128
vn 0.3461 0.7164 0.6058
vn -0.5072 -0.8603 0.0509
vn -0.6299 -0.7763 0.0227
vn 0.6492 -0.6433 -0.4058
vn -0.7367 -0.6583 0.1544
vn -0.0965 0.6932 0.7142
vn -0.7412 -0.4333 0.5127
vn -0.0710 0.7006 0.7100
vn -0.0553 -0.8621 -0.5037
vn -0.3504 -0.9315 -0.0973
vn -0.6686 -0.5784 0.4675
vn 0.9557 0.1521 0.2521
vn -0.5288 0.0993 0.8429
vn 0.5082 0.6616 0.5514
vn -0.6159 -0.6457 0.4514
vn 0.0522 -0.8720 -0.4867
vn 0.6222 -0.7270 -0.2903
vn -0.6302 -0.2823 0.7233
vn -0.1743 0.5600 0.8100
vn -0.1673 0.6252 0.7623
vn 0.3147 0.7553 0.5749
vn -0.5857 -0.7208 0.3707
vn 0.9183 -0.3916 -0.0589
vn -0.2533 0.4874 0.8356
vn 0.6780 0.5772 0.4552
vn -0.2091 -0.9393 -0.2721
vn -0.5477 -0.7926 0.2681
vn 0.3108 -0.8799 -0.3595
vn -0.6074 -0.2420 0.7566
vn -0.4532 0.1342 0.8812
vn -0.3775 0.3391 0.8617
vn 0.4636 0.6220 0.6310
vn -0.4384 -0.8782 0.1913
vn -0.6140 -0.4224 0.6667
vn 0.8349 0.3301 0.4405
vn -0.2427 0.5891 0.7708
vn -0.0427 0.6667 0.7441
vn 0.0831 0.6986 0.7106
vn -0.1593 -0.9758 -0.1497
vn 0.2394 -0.9426 -0.2330
vn -0.4966 0.2040 0.8437
vn 0.9522 -0.1622 0.2588
vn 0.7185 -0.6884 0.0992
vn -0.3482 0.4521 0.8212
vn -0.1148 -0.9546 0.2749
vn -0.4581 -0.7127 0.5313
vn -0.5083 -0.1143 0.8536
vn 0.5579 0.4064 0.7236
vn 0.4241 -0.8117 0.4015
vn 0.5687 -0.0427 0.8214
vn -0.0408 -0.4067 0.9127
vn 0.4310 -0.3033 0.8498
vn -0.1156 0.4619 0.8793
vn 0.0923 0.5068 0.8571
vn -0.0212 0.0977 0.9950
vn 0.1652 0.3461 0.9235
usemtl mtl1.122
s 1
f 9//7 10//8 11//9
f 12//10 13//11 14//12
f 12//10 15//13 10//8
f 10//8 15//13 16//14
f 13//11 12//10 9//7
f 9//7 12//10 10//8
f 16//14 17//15 10//8
f 10//8 17//15 11//9
f 9//7 18//16 13//11
f 19//17 11//9 17//15
f 11//9 20//18 9//7
f 18//16 9//7 20//18
f 21//19 22//20 15//13
f 12//10 21//19 15//13
f 15//13 22//20 23//21
f 14//12 21//19 12//10
f 13//11 24//22 14//12
f 15//13 23//21 16//14
f 25//23 16//14 23//21
f 17//15 16//14 25//23
f 11//9 19//17 26//24
f 26//24 20//18 11//9
f 27//25 20//18 26//24
f 21//19 28//26 22//20
f 14//12 24//22 29//27
f 23//21 28//26 30//28
f 22//20 28//26 23//21
f 17//15 25//23 31//29
f 17//15 31//29 32//30
f 19//17 17//15 32//30
f 26//24 19//17 32//30
f 26//24 32//30 27//25
f 27//25 33//31 20//18
f 33//31 18//16 20//18
f 34//32 21//19 35//33
f 35//33 21//19 36//34
f 21//19 34//32 28//26
f 28//26 37//35 30//28
f 23//21 30//28 38//36
f 24//22 13//11 39//37
f 39//37 13//11 18//16
f 38//36 25//23 23//21
f 25//23 40//38 31//29
f 28//26 41//39 37//35
f 34//32 41//39 28//26
f 14//12 36//34 21//19
f 29//27 24//22 42//40
f 24//22 39//37 42//40
f 38//36 30//28 37//35
f 38//36 43//41 25//23
f 31//29 40//38 44//42
f 18//16 33//31 45//43
f 32//30 31//29 44//42
f 32//30 44//42 27//25
f 27//25 46//44 33//31
f 46//44 45//43 33//31
f 37//35 41//39 47//45
f 48//46 37//35 47//45
f 38//36 48//46 49//47
f 38//36 37//35 48//46
f 39//37 18//16 50//48
f 50//48 18//16 45//43
f 38//36 49//47 43//41
f 25//23 43//41 51//49
f 40//38 25//23 51//49
f 40//38 51//49 44//42
f 52//50 46//44 27//25
f 41//39 53//51 54//52
f 35//33 55//53 34//32
f 14//12 29//27 56//54
f 41//39 54//52 47//45
f 34//32 53//51 41//39
f 43//41 49//47 57//55
f 27//25 44//42 52//50
f 53//51 34//32 55//53
f 55//53 35//33 36//34
f 36//34 14//12 56//54
f 56//54 29//27 58//56
f 29//27 42//40 58//56
f 47//45 54//52 59//57
f 47//45 59//57 60//58
f 47//45 60//58 48//46
f 48//46 60//58 49//47
f 51//49 57//55 61//59
f 45//43 62//60 50//48
f 57//55 51//49 43//41
f 51//49 63//61 44//42
f 55//53 36//34 64//62
f 65//63 66//64 54//52
f 53//51 65//63 54//52
f 54//52 66//64 67//65
f 54//52 67//65 59//57
f 58//56 42//40 39//37
f 57//55 49//47 68//66
f 52//50 44//42 63//61
f 52//50 69//67 46//44
f 69//67 45//43 46//44
f 65//63 55//53 70//68
f 55//53 65//63 53//51
f 56//54 64//62 36//34
f 71//69 58//56 39//37
f 39//37 50//48 71//69
f 49//47 60//58 68//66
f 60//58 72//70 68//66
f 73//71 63//61 51//49
f 68//66 61//59 57//55
f 45//43 69//67 62//60
f 55//53 64//62 70//68
f 74//72 56//54 75//73
f 56//54 58//56 75//73
f 76//74 59//57 67//65
f 72//70 60//58 59//57
f 77//75 73//71 61//59
f 61//59 73//71 51//49
f 78//76 52//50 63//61
f 75//73 58//56 71//69
f 75//73 71//69 79//77
f 79//77 71//69 80//78
f 71//69 50//48 80//78
f 76//74 81//79 59//57
f 62//60 80//78 50//48
f 59//57 81//79 72//70
f 72//70 82//80 68//66
f 68//66 77//75 61//59
f 82//80 77//75 68//66
f 78//76 63//61 73//71
f 69//67 52//50 78//76
f 70//68 64//62 83//81
f 66//64 65//63 84//82
f 85//83 66//64 84//82
f 70//68 86//84 65//63
f 87//85 56//54 74//72
f 66//64 85//83 67//65
f 67//65 85//83 88//86
f 67//65 88//86 76//74
f 62//60 89//87 80//78
f 72//70 81//79 82//80
f 90//88 62//60 69//67
f 69//67 78//76 90//88
f 86//84 70//68 83//81
f 86//84 84//82 65//63
f 90//88 89//87 62//60
f 81//79 91//89 82//80
f 77//75 92//90 73//71
f 73//71 92//90 93//91
f 78//76 73//71 93//91
f 78//76 94//92 90//88
f 84//82 86//84 95//93
f 83//81 64//62 56//54
f 76//74 88//86 96//94
f 96//94 81//79 76//74
f 94//92 97//95 90//88
f 98//96 99//97 95//93
f 99//97 84//82 95//93
f 87//85 83//81 56//54
f 87//85 74//72 100//98
f 101//99 85//83 84//82
f 101//99 84//82 99//97
f 85//83 101//99 88//86
f 74//72 75//73 79//77
f 88//86 101//99 96//94
f 96//94 91//89 81//79
f 89//87 90//88 97//95
f 91//89 102//100 82//80
f 82//80 102//100 77//75
f 103//101 101//99 99//97
f 100//98 74//72 79//77
f 96//94 101//99 103//101
f 92//90 77//75 104//102
f 95//93 86//84 105//103
f 105//103 86//84 83//81
f 98//96 95//93 106//104
f 98//96 107//105 99//97
f 107//105 103//101 99//97
f 79//77 80//78 108//106
f 91//89 96//94 109//107
f 110//108 108//106 89//87
f 89//87 108//106 80//78
f 104//102 93//91 92//90
f 89//87 97//95 110//108
f 94//92 78//76 93//91
f 110//108 97//95 94//92
f 104//102 77//75 102//100
f 95//93 105//103 106//104
f 98//96 106//104 111//109
f 112//110 83//81 87//85
f 107//105 98//96 111//109
f 100//98 113//111 87//85
f 109//107 103//101 114//112
f 103//101 109//107 96//94
f 115//113 91//89 109//107
f 104//102 116//114 93//91
f 115//113 102//100 91//89
f 94//92 117//115 110//108
f 104//102 102//100 115//113
f 105//103 83//81 112//110
f 111//109 106//104 118//116
f 100//98 79//77 119//117
f 119//117 79//77 108//106
f 107//105 114//112 103//101
f 115//113 109//107 120//118
f 108//106 110//108 121//119
f 104//102 115//113 120//118
f 105//103 122//120 106//104
f 106//104 122//120 123//121
f 123//121 118//116 106//104
f 87//85 124//122 112//110
f 113//111 124//122 87//85
f 107//105 111//109 114//112
f 111//109 125//123 114//112
f 109//107 114//112 126//124
f 109//107 126//124 120//118
f 120//118 116//114 104//102
f 121//119 110//108 117//115
f 105//103 112//110 122//120
f 125//123 111//109 118//116
f 126//124 114//112 125//123
f 127//125 120//118 126//124
f 127//125 116//114 120//118
f 121//119 117//115 128//126
f 129//127 123//121 122//120
f 130//128 123//121 129//127
f 123//121 125//123 118//116
f 130//128 125//123 123//121
f 113//111 100//98 119//117
f 125//123 127//125 126//124
f 108//106 121//119 131//129
f 132//130 133//131 93//91
f 93//91 116//114 132//130
f 94//92 93//91 133//131
f 94//92 133//131 134//132
f 117//115 94//92 134//132
f 112//110 135//133 122//120
f 112//110 124//122 136//134
f 135//133 129//127 122//120
f 127//125 125//123 137//135
f 119//117 108//106 138//136
f 138//136 108//106 131//129
f 132//130 116//114 127//125
f 134//132 128//126 117//115
f 136//134 135//133 112//110
f 113//111 139//137 124//122
f 139//137 113//111 119//117
f 127//125 137//135 132//130
f 137//135 140//138 132//130
f 131//129 121//119 128//126
f 136//134 141//139 135//133
f 142//140 135//133 141//139
f 124//122 139//137 136//134
f 142//140 129//127 135//133
f 138//136 139//137 119//117
f 130//128 137//135 125//123
f 140//138 137//135 143//141
f 144//142 138//136 131//129
f 140//138 133//131 132//130
f 131//129 128//126 144//142
f 136//134 145//143 141//139
f 136//134 139//137 145//143
f 129//127 142//140 130//128
f 143//141 130//128 142//140
f 139//137 138//136 146//144
f 130//128 143//141 137//135
f 138//136 144//142 146//144
f 128//126 134//132 144//142
f 141//139 147//145 142//140
f 145//143 139//137 148//146
f 147//145 143//141 142//140
f 146//144 148//146 139//137
f 140//138 143//141 149//147
f 133//131 140//138 149//147
f 144//142 134//132 150//148
f 141//139 145//143 147//145
f 148//146 147//145 145//143
f 146//144 144//142 150//148
f 150//148 134//132 133//131
f 147//145 151//149 143//141
f 152//150 151//149 147//145
f 147//145 148//146 152//150
f 148//146 146//144 152//150
f 143//141 151//149 149//147
f 152//150 149//147 151//149
f 146//144 150//148 152//150
f 133//131 149//147 152//150
f 150//148 133//131 152//150
