# Blender v2.92.0 OBJ File: 'convert_to_one_sided.blend'
# www.blender.org
mtllib 1116L.mtl
o 1116
v 10.845060 5.118813 4.980027
v 10.826361 5.074274 4.988407
v 10.776261 5.090943 4.985217
v 10.750961 5.055594 4.997396
v 10.803061 5.028074 5.031636
v 10.722462 5.091364 5.018756
v 10.910660 5.085594 5.036407
v 10.901460 5.126633 5.004957
v 10.802661 5.138753 5.007596
v 10.909860 5.177863 5.037766
v 10.721763 5.042724 5.052956
v 10.867960 5.035984 5.076086
v 10.687662 5.090104 5.069086
v 10.703062 5.129363 5.075536
v 10.756661 5.158712 5.068026
v 10.945458 5.145933 5.045856
v 10.836761 5.187192 5.063176
v 10.769261 5.013895 5.081336
v 10.818861 5.018805 5.091596
v 10.966259 5.140443 5.104065
v 10.961959 5.177022 5.086426
v 10.887360 5.215372 5.110685
v 10.699862 5.073934 5.110805
v 10.716862 5.117023 5.136205
v 10.949759 5.195492 5.131785
v 10.751461 5.046504 5.131444
v 10.915760 5.093473 5.139285
v 10.755562 5.157543 5.140085
v 10.825460 5.192582 5.123765
v 10.802061 5.031304 5.130055
v 10.851660 5.061284 5.152544
v 10.966859 5.169992 5.150024
v 10.871360 5.210512 5.161564
v 10.947760 5.149423 5.186354
v 10.908360 5.199802 5.179694
v 10.754961 5.092894 5.176514
v 10.940260 5.176532 5.191094
v 10.810061 5.079404 5.183464
v 10.785460 5.140103 5.194584
v 10.848360 5.179372 5.186784
v 10.881459 5.128283 5.208514
v 10.817861 5.122913 5.202794
v 10.852060 5.151732 5.208314
v 10.896660 5.165263 5.203424
v 10.917459 5.155502 5.195554
vn 0.0867 0.2830 -0.9552
vn 0.2325 -0.4622 -0.8557
vn -0.2802 0.1404 -0.9496
vn -0.3637 -0.5030 -0.7840
vn 0.1166 -0.8905 -0.4398
vn -0.6833 0.2546 -0.6843
vn 0.6652 -0.6182 -0.4186
vn 0.5382 -0.0427 -0.8417
vn -0.2854 0.6868 -0.6685
vn 0.2646 0.7380 -0.6207
vn -0.6510 -0.7287 -0.2126
vn 0.5061 -0.8624 0.0094
vn -0.9941 -0.0236 -0.1061
vn -0.7573 0.6417 -0.1212
vn -0.4435 0.8389 -0.3154
vn 0.8026 0.0271 -0.5959
vn -0.2397 0.8899 -0.3881
vn -0.2145 -0.9720 0.0961
vn 0.2391 -0.9597 0.1477
vn 0.9278 -0.3704 -0.0452
vn 0.8405 0.4479 -0.3047
vn 0.0153 0.9931 -0.1159
vn -0.8074 -0.4216 0.4127
vn -0.8165 0.2991 0.4938
vn 0.5319 0.8460 0.0375
vn -0.4170 -0.7519 0.5106
vn 0.6199 -0.7209 0.3100
vn -0.5336 0.7956 0.2870
vn -0.4172 0.9065 0.0646
vn 0.0117 -0.8539 0.5202
vn 0.3475 -0.7790 0.5219
vn 0.9422 0.2402 0.2338
vn -0.2399 0.9130 0.3299
vn 0.6804 -0.3106 0.6638
vn 0.1457 0.8275 0.5422
vn -0.4992 -0.2942 0.8150
vn 0.5245 0.3899 0.7569
vn -0.0585 -0.6148 0.7865
vn -0.4646 0.3580 0.8099
vn -0.2923 0.7148 0.6353
vn 0.2360 -0.3403 0.9102
vn -0.1817 -0.1827 0.9662
vn -0.1173 0.2569 0.9593
vn 0.1098 0.3157 0.9425
vn 0.3211 -0.0315 0.9465
usemtl mtl1.974
s 1
f 1//1 2//2 3//3
f 4//4 2//2 5//5
f 4//4 6//6 3//3
f 2//2 4//4 3//3
f 7//7 2//2 8//8
f 8//8 2//2 1//1
f 9//9 3//3 6//6
f 1//1 3//3 9//9
f 10//10 1//1 9//9
f 8//8 1//1 10//10
f 11//11 4//4 5//5
f 5//5 7//7 12//12
f 6//6 4//4 11//11
f 13//13 6//6 11//11
f 5//5 2//2 7//7
f 6//6 14//14 15//15
f 15//15 9//9 6//6
f 10//10 16//16 8//8
f 10//10 9//9 17//17
f 5//5 18//18 11//11
f 5//5 12//12 19//19
f 14//14 6//6 13//13
f 8//8 16//16 7//7
f 7//7 16//16 20//20
f 9//9 15//15 17//17
f 16//16 10//10 21//21
f 10//10 17//17 22//22
f 19//19 18//18 5//5
f 23//23 13//13 11//11
f 13//13 24//24 14//14
f 25//25 10//10 22//22
f 21//21 10//10 25//25
f 11//11 18//18 26//26
f 26//26 23//23 11//11
f 7//7 27//27 12//12
f 13//13 23//23 24//24
f 7//7 20//20 27//27
f 20//20 16//16 21//21
f 15//15 28//28 29//29
f 15//15 29//29 17//17
f 17//17 29//29 22//22
f 18//18 19//19 30//30
f 12//12 27//27 31//31
f 15//15 14//14 28//28
f 20//20 21//21 32//32
f 22//22 29//29 33//33
f 30//30 26//26 18//18
f 19//19 31//31 30//30
f 12//12 31//31 19//19
f 14//14 24//24 28//28
f 21//21 25//25 32//32
f 34//34 27//27 20//20
f 32//32 34//34 20//20
f 22//22 33//33 35//35
f 22//22 35//35 25//25
f 26//26 36//36 23//23
f 36//36 24//24 23//23
f 37//37 32//32 25//25
f 36//36 26//26 38//38
f 26//26 30//30 38//38
f 31//31 38//38 30//30
f 36//36 39//39 24//24
f 24//24 39//39 28//28
f 34//34 32//32 37//37
f 29//29 28//28 40//40
f 40//40 33//33 29//29
f 33//33 40//40 35//35
f 37//37 25//25 35//35
f 41//41 38//38 31//31
f 27//27 41//41 31//31
f 27//27 34//34 41//41
f 28//28 39//39 40//40
f 38//38 42//42 36//36
f 42//42 39//39 36//36
f 39//39 43//43 40//40
f 40//40 44//44 35//35
f 37//37 35//35 44//44
f 38//38 41//41 42//42
f 34//34 45//45 41//41
f 43//43 39//39 42//42
f 34//34 37//37 45//45
f 45//45 37//37 44//44
f 43//43 44//44 40//40
f 43//43 42//42 41//41
f 44//44 43//43 41//41
f 45//45 44//44 41//41
