# Blender v2.92.0 OBJ File: 'convert_to_one_sided.blend'
# www.blender.org
mtllib 1120L.mtl
o Cube
v 0.001000 0.001000 -0.001000
v 0.001000 -0.001000 -0.001000
v 0.001000 0.001000 0.001000
v 0.001000 -0.001000 0.001000
v -0.001000 0.001000 -0.001000
v -0.001000 -0.001000 -0.001000
v -0.001000 0.001000 0.001000
v -0.001000 -0.001000 0.001000
vt 0.625000 0.500000
vt 0.875000 0.500000
vt 0.875000 0.750000
vt 0.625000 0.750000
vt 0.375000 0.750000
vt 0.625000 1.000000
vt 0.375000 1.000000
vt 0.375000 0.000000
vt 0.625000 0.000000
vt 0.625000 0.250000
vt 0.375000 0.250000
vt 0.125000 0.500000
vt 0.375000 0.500000
vt 0.125000 0.750000
vn 0.0000 1.0000 0.0000
vn 0.0000 0.0000 1.0000
vn -1.0000 0.0000 0.0000
vn 0.0000 -1.0000 0.0000
vn 1.0000 0.0000 0.0000
vn 0.0000 0.0000 -1.0000
usemtl Material
s off
f 1/1/1 5/2/1 7/3/1 3/4/1
f 4/5/2 3/4/2 7/6/2 8/7/2
f 8/8/3 7/9/3 5/10/3 6/11/3
f 6/12/4 2/13/4 4/5/4 8/14/4
f 2/13/5 1/1/5 3/4/5 4/5/5
f 6/11/6 5/10/6 1/1/6 2/13/6
o 1120
v 6.335608 4.523301 5.387352
v 6.278599 4.487541 5.405501
v 6.232810 4.537381 5.410961
v 6.298679 4.587070 5.399541
v 6.400318 4.521700 5.396741
v 6.386148 4.567280 5.417361
v 6.279850 4.455692 5.434861
v 6.352028 4.494951 5.409321
v 6.406078 4.499631 5.433501
v 6.419158 4.530741 5.475370
v 6.208720 4.598130 5.423131
v 6.274719 4.626430 5.414431
v 6.340748 4.618609 5.429571
v 6.210220 4.487621 5.445241
v 6.348318 4.469372 5.443981
v 6.216420 4.637640 5.438041
v 6.395378 4.603000 5.490310
v 6.293449 4.643979 5.448641
v 6.207630 4.457002 5.475720
v 6.228570 4.445292 5.542950
v 6.314198 4.457442 5.529300
v 6.167791 4.545681 5.455051
v 6.422307 4.509201 5.539020
v 6.420857 4.568000 5.576529
v 6.151811 4.598360 5.469651
v 6.171231 4.631910 5.499910
v 6.360788 4.622399 5.508120
v 6.237070 4.640830 5.503490
v 6.149220 4.497941 5.561389
v 6.383548 4.484801 5.532360
v 6.123312 4.546200 5.612079
v 6.183580 4.463051 5.599349
v 6.116541 4.587510 5.656078
v 6.141461 4.603840 5.581979
v 6.328858 4.624180 5.567469
v 6.352298 4.469101 5.645288
v 6.123951 4.519231 5.675868
v 6.428998 4.524171 5.689378
v 6.400368 4.603670 5.691328
v 6.166981 4.618640 5.630279
v 6.207150 4.629179 5.562829
v 6.400378 4.495011 5.638618
v 6.249390 4.625520 5.611039
v 6.275429 4.451172 5.658348
v 6.133801 4.602290 5.687108
v 6.319129 4.618520 5.686388
v 6.133587 4.509157 5.699999
v 6.161056 4.478263 5.699999
v 6.120976 4.594995 5.699999
v 6.232678 4.629444 5.699999
v 6.401558 4.602208 5.699999
v 6.211673 4.449390 5.699999
v 6.429262 4.530164 5.699999
v 6.422578 4.517751 5.699999
v 6.429677 4.525282 5.699999
v 6.428021 4.523234 5.699999
v 6.239819 4.447945 5.699999
v 6.290523 4.450545 5.699999
v 6.297308 4.621491 5.699999
v 6.125220 4.517300 5.699999
v 6.126212 4.525285 5.699999
v 6.404631 4.597501 5.699999
v 6.397373 4.605814 5.699999
v 6.123096 4.560944 5.699999
v 6.399436 4.605289 5.699999
v 6.399578 4.604249 5.699999
v 6.118474 4.584485 5.699999
v 6.427666 4.562361 5.699999
v 6.219960 4.445922 5.699999
v 6.168230 4.471461 5.699999
v 6.154926 4.617352 5.699999
v 6.327532 4.619346 5.699999
v 6.339942 4.461285 5.699999
v 6.201494 4.626386 5.699999
v 6.367337 4.474073 5.699999
v 6.273669 4.447505 5.699999
v 6.316671 4.621292 5.699999
v 6.392585 4.487485 5.699999
v 6.136206 4.605088 5.699999
v 6.133152 4.603177 5.699999
vn 0.0493 -0.0733 -0.9961
vn -0.1889 -0.4969 -0.8470
vn -0.3934 -0.1117 -0.9126
vn 0.0299 0.2927 -0.9557
vn 0.6501 -0.1777 -0.7387
vn 0.6553 0.4507 -0.6062
vn -0.0381 -0.8943 -0.4459
vn 0.2129 -0.6880 -0.6938
vn 0.6720 -0.6831 -0.2861
vn 0.9839 0.0498 -0.1718
vn -0.4432 0.2136 -0.8706
vn -0.0106 0.6245 -0.7810
vn 0.4020 0.7474 -0.5290
vn -0.5898 -0.4937 -0.6390
vn 0.3301 -0.9117 -0.2444
vn -0.3238 0.8261 -0.4613
vn 0.7153 0.6751 -0.1805
vn 0.1460 0.9732 -0.1775
vn -0.5180 -0.8031 -0.2946
vn -0.0944 -0.9945 -0.0464
vn 0.2357 -0.9716 -0.0215
vn -0.7886 -0.2115 -0.5774
vn 0.8050 -0.5924 -0.0326
vn 0.9412 0.3237 -0.0963
vn -0.8439 0.3627 -0.3953
vn -0.4280 0.9026 -0.0454
vn 0.3635 0.9306 -0.0425
vn -0.0520 0.9961 0.0706
vn -0.8128 -0.5547 -0.1777
vn 0.4678 -0.8838 -0.0117
vn -0.9863 -0.1196 -0.1138
vn -0.5205 -0.8530 -0.0392
vn -0.9007 0.4303 -0.0599
vn -0.6658 0.7448 -0.0447
vn 0.1414 0.9859 0.0889
vn 0.3666 -0.9300 -0.0280
vn -0.9361 -0.3498 -0.0382
vn 0.9357 -0.3523 -0.0186
vn 0.6086 0.7931 -0.0219
vn -0.3012 0.9534 0.0155
vn -0.1055 0.9871 0.1207
vn 0.5933 -0.8050 0.0030
vn 0.0009 0.9980 0.0637
vn 0.1369 -0.9898 -0.0389
vn -0.5714 0.8184 -0.0607
vn 0.1287 0.9886 -0.0776
vn -0.4909 -0.5050 0.7099
vn -0.4210 -0.6234 0.6589
vn -0.6249 -0.0008 0.7807
vn -0.6827 -0.0458 0.7292
vn -0.5546 0.4308 0.7119
vn -0.4082 0.5824 0.7030
vn -0.4006 0.5952 0.6966
vn 0.5358 0.5232 0.6627
vn 0.1520 0.7316 0.6645
vn 0.6230 0.3751 0.6864
vn 0.5530 0.4411 0.7068
vn 0.4959 -0.4963 0.7126
vn 0.5489 -0.4770 0.6865
vn 0.5492 0.2134 0.8080
vn 0.4375 -0.5973 0.6722
vn 0.3359 -0.6496 0.6821
vn 0.2312 -0.7085 0.6668
vn 0.0853 0.7880 0.6097
vn 0.1167 0.7618 0.6372
vn -0.3003 0.6899 0.6587
vn -0.0824 0.7231 0.6859
vn 0.7225 0.2657 0.6382
vn 0.0961 0.7156 0.6919
vn 0.1300 -0.7240 0.6775
vn 0.0443 -0.7536 0.6558
vn -0.0879 -0.7354 0.6719
vn 0.0513 -0.7102 0.7021
vn 0.7694 -0.2061 0.6046
vn 0.7134 0.0479 0.6991
vn -0.2770 -0.6762 0.6827
vn -0.0104 0.7410 0.6714
vn -0.6764 0.0163 0.7364
vn -0.4808 -0.5370 0.6932
vn -0.7609 -0.2904 0.5802
usemtl mtl1.125
s 1
f 9//7 10//8 11//9
f 12//10 9//7 11//9
f 13//11 9//7 14//12
f 14//12 9//7 12//10
f 15//13 10//8 16//14
f 16//14 10//8 9//7
f 13//11 16//14 9//7
f 13//11 17//15 16//14
f 13//11 18//16 17//15
f 18//16 13//11 14//12
f 12//10 11//9 19//17
f 12//10 19//17 20//18
f 12//10 21//19 14//12
f 12//10 20//18 21//19
f 15//13 22//20 10//8
f 23//21 16//14 17//15
f 10//8 22//20 11//9
f 20//18 19//17 24//22
f 21//19 25//23 14//12
f 26//24 20//18 24//22
f 21//19 20//18 26//24
f 27//25 15//13 28//26
f 15//13 29//27 28//26
f 15//13 23//21 29//27
f 15//13 27//25 22//20
f 16//14 23//21 15//13
f 30//28 11//9 22//20
f 31//29 17//15 18//16
f 30//28 19//17 11//9
f 18//16 14//12 32//30
f 33//31 19//17 30//28
f 25//23 32//30 14//12
f 19//17 33//31 24//22
f 33//31 34//32 24//22
f 21//19 35//33 25//23
f 36//34 24//22 34//32
f 26//24 24//22 36//34
f 21//19 26//24 35//33
f 22//20 27//25 37//35
f 22//20 37//35 30//28
f 23//21 17//15 38//36
f 38//36 17//15 31//29
f 30//28 39//37 33//31
f 27//25 40//38 37//35
f 39//37 41//39 33//31
f 41//39 42//40 33//31
f 34//32 33//31 42//40
f 26//24 36//34 43//41
f 35//33 26//24 43//41
f 27//25 28//26 40//38
f 23//21 38//36 29//27
f 30//28 37//35 39//37
f 38//36 44//42 29//27
f 37//35 45//43 39//37
f 46//44 31//29 18//16
f 47//45 32//30 25//23
f 42//40 48//46 34//32
f 47//45 25//23 35//33
f 34//32 49//47 36//34
f 38//36 50//48 44//42
f 49//47 51//49 36//34
f 36//34 51//49 43//41
f 29//27 52//50 28//26
f 29//27 44//42 52//50
f 50//48 38//36 31//29
f 50//48 31//29 46//44
f 18//16 32//30 46//44
f 41//39 53//51 42//40
f 34//32 48//46 49//47
f 51//49 54//52 43//41
f 35//33 43//41 47//45
f 42//40 53//51 48//46
f 47//45 43//41 54//52
f 56//53 40//38 78//54
f 48//46 51//49 49//47
f 69//55 72//56 39//37
f 53//51 57//57 88//58
f 88//58 87//59 53//51
f 73//60 47//45 71//61
f 70//62 47//45 59//63
f 62//64 46//44 64//65
f 74//66 47//45 73//60
f 59//63 47//45 74//66
f 86//67 44//42 50//48
f 44//42 83//68 81//69
f 54//52 85//70 80//71
f 53//51 79//72 48//46
f 48//46 79//72 82//73
f 72//56 41//39 39//37
f 47//45 80//71 71//61
f 47//45 76//74 32//30
f 45//43 69//55 39//37
f 54//52 67//75 85//70
f 81//69 52//50 44//42
f 52//50 66//76 84//77
f 52//50 77//78 28//26
f 52//50 84//77 65//79
f 46//44 63//80 64//65
f 46//44 86//67 50//48
f 46//44 76//74 61//81
f 46//44 61//81 63//80
f 77//78 40//38 28//26
f 40//38 60//82 78//54
f 48//46 58//83 51//49
f 58//83 54//52 51//49
f 41//39 75//84 57//57
f 75//84 72//56 88//58
f 55//85 45//43 37//35
f 37//35 56//53 55//85
f 56//53 37//35 40//38
f 53//51 41//39 57//57
f 86//67 83//68 44//42
f 53//51 87//59 79//72
f 72//56 75//84 41//39
f 47//45 54//52 80//71
f 47//45 70//62 76//74
f 45//43 68//86 69//55
f 81//69 66//76 52//50
f 52//50 65//79 77//78
f 46//44 62//64 86//67
f 46//44 32//30 76//74
f 77//78 60//82 40//38
f 48//46 82//73 58//83
f 58//83 67//75 54//52
f 61//81 76//74 62//64
f 76//74 70//62 62//64
f 70//62 59//63 71//61
f 59//63 74//66 71//61
f 74//66 73//60 71//61
f 71//61 80//71 70//62
f 80//71 85//70 81//69
f 70//62 80//71 86//67
f 67//75 58//83 65//79
f 58//83 82//73 56//53
f 60//82 58//83 78//54
f 85//70 67//75 81//69
f 80//71 83//68 86//67
f 63//80 61//81 64//65
f 62//64 64//65 61//81
f 86//67 62//64 70//62
f 66//76 81//69 67//75
f 81//69 83//68 80//71
f 65//79 84//77 67//75
f 84//77 66//76 67//75
f 60//82 77//78 65//79
f 56//53 78//54 58//83
f 69//55 68//86 55//85
f 55//85 56//53 82//73
f 60//82 65//79 58//83
f 82//73 79//72 72//56
f 87//59 88//58 72//56
f 88//58 57//57 75//84
f 82//73 72//56 69//55
f 79//72 87//59 72//56
f 69//55 55//85 82//73
f 55//85 68//86 45//43
