# Blender v2.92.0 OBJ File: 'convert_to_one_sided.blend'
# www.blender.org
mtllib 1139L.mtl
o 1139
v 6.058802 6.593605 3.354248
v 6.027122 6.646244 3.339968
v 6.100172 6.636924 3.343148
v 6.051212 6.691273 3.343408
v 6.158731 6.678074 3.352418
v 6.148941 6.710053 3.372088
v 6.199310 6.627194 3.384128
v 6.141611 6.577465 3.386947
v 5.988023 6.619404 3.367938
v 5.950743 6.674824 3.377038
v 5.948254 6.719253 3.377438
v 6.210540 6.675124 3.393558
v 6.047382 6.714093 3.365888
v 6.084622 6.535326 3.436627
v 6.004143 6.577945 3.404227
v 5.927044 6.619074 3.429497
v 6.249249 6.652874 3.429197
v 5.971563 6.727513 3.430897
v 6.120171 6.708413 3.432107
v 6.202670 6.712963 3.429487
v 6.206070 6.569085 3.428637
v 6.243600 6.602125 3.457107
v 5.872944 6.686773 3.446177
v 5.892674 6.720503 3.425777
v 5.889444 6.738043 3.448867
v 6.171670 6.540845 3.457586
v 6.027592 6.705093 3.493596
v 6.222810 6.696393 3.482786
v 6.229770 6.684574 3.446937
v 5.981903 6.546075 3.488076
v 5.868034 6.648344 3.472846
v 5.854155 6.725043 3.485346
v 5.888644 6.738933 3.524096
v 6.071272 6.507485 3.515126
v 6.138411 6.514346 3.515716
v 5.891904 6.605515 3.523786
v 6.208550 6.552705 3.507266
v 6.266580 6.640284 3.499786
v 5.852015 6.677723 3.517556
v 6.177230 6.684193 3.510656
v 6.255009 6.599905 3.529936
v 6.105892 6.680213 3.565735
v 5.977453 6.703303 3.578195
v 5.851594 6.735933 3.557415
v 6.022123 6.510226 3.566145
v 5.951223 6.550775 3.568035
v 6.257879 6.662404 3.533976
v 6.264019 6.621134 3.577835
v 6.264309 6.642414 3.556395
v 6.089042 6.505406 3.564325
v 5.894004 6.599135 3.617205
v 6.225070 6.576825 3.593525
v 5.854364 6.659244 3.583835
v 6.208580 6.665684 3.566305
v 5.846785 6.708803 3.593245
v 5.893624 6.716033 3.628654
v 6.150481 6.532525 3.589255
v 6.239210 6.634434 3.596495
v 6.068322 6.523476 3.622154
v 5.978133 6.556855 3.638664
v 6.176740 6.567135 3.655344
v 5.871994 6.665404 3.660004
v 6.058922 6.663054 3.666494
v 5.858454 6.715853 3.634214
v 6.113131 6.547255 3.658754
v 6.213610 6.602974 3.632424
v 6.149721 6.633184 3.652614
v 5.864944 6.694163 3.665294
v 5.927754 6.607975 3.674024
v 6.047792 6.562155 3.684304
v 5.982163 6.597744 3.701294
v 6.109971 6.582535 3.701053
v 6.044382 6.640974 3.716223
v 5.882784 6.678664 3.695574
v 5.965143 6.680833 3.678554
v 6.141751 6.594295 3.687934
v 5.898084 6.680724 3.684674
v 6.034552 6.612234 3.721753
v 6.100281 6.595635 3.712734
v 5.933534 6.645344 3.694404
v 6.091772 6.611115 3.699244
v 5.977583 6.651504 3.696684
vn -0.1046 -0.6128 -0.7833
vn -0.2303 -0.1258 -0.9649
vn 0.1802 -0.2174 -0.9593
vn -0.0533 0.3705 -0.9273
vn 0.3790 0.2083 -0.9016
vn 0.3212 0.7950 -0.5147
vn 0.5766 -0.2793 -0.7678
vn 0.2537 -0.6632 -0.7041
vn -0.4874 -0.4737 -0.7335
vn -0.5558 -0.0738 -0.8280
vn -0.2760 0.6807 -0.6786
vn 0.6676 0.4037 -0.6256
vn 0.0458 0.9304 -0.3638
vn -0.0430 -0.8931 -0.4478
vn -0.3934 -0.7642 -0.5110
vn -0.6277 -0.5712 -0.5289
vn 0.8765 0.1121 -0.4681
vn 0.1286 0.9917 -0.0082
vn 0.0595 0.9886 0.1384
vn 0.3950 0.9104 -0.1233
vn 0.5620 -0.6807 -0.4698
vn 0.8291 -0.4542 -0.3261
vn -0.8192 -0.1444 -0.5550
vn -0.6897 0.3074 -0.6556
vn -0.3117 0.9090 -0.2767
vn 0.3176 -0.8800 -0.3531
vn 0.1583 0.9705 0.1819
vn 0.3033 0.9274 0.2189
vn 0.7468 0.6187 -0.2441
vn -0.4506 -0.8401 -0.3018
vn -0.8280 -0.4457 -0.3403
vn -0.9018 0.3229 -0.2874
vn 0.1083 0.9892 0.0992
vn -0.0947 -0.9737 -0.2075
vn 0.2788 -0.9551 -0.1006
vn -0.7390 -0.6577 -0.1461
vn 0.6016 -0.7975 -0.0462
vn 0.9904 0.0989 -0.0966
vn -0.9647 -0.2262 -0.1352
vn 0.0504 0.9590 0.2788
vn 0.8493 -0.5276 -0.0187
vn 0.1756 0.9491 0.2615
vn 0.2338 0.9520 0.1975
vn -0.4809 0.8724 0.0874
vn -0.2904 -0.9524 0.0930
vn -0.5529 -0.8326 0.0330
vn 0.6771 0.7064 0.2063
vn 0.9236 -0.1060 0.3685
vn 0.8673 0.4049 0.2896
vn 0.1096 -0.9832 0.1462
vn -0.6990 -0.6756 0.2343
vn 0.6900 -0.6594 0.2985
vn -0.9244 -0.3741 0.0739
vn 0.2188 0.8891 0.4021
vn -0.9855 0.1013 0.1359
vn 0.0983 0.9353 0.3400
vn 0.3747 -0.8920 0.2530
vn 0.5596 0.5767 0.5953
vn -0.0113 -0.9159 0.4013
vn -0.3806 -0.8271 0.4136
vn 0.5262 -0.5954 0.6071
vn -0.8049 -0.3770 0.4583
vn 0.2647 0.8934 0.3631
vn -0.4615 0.7652 0.4490
vn 0.1860 -0.8400 0.5096
vn 0.6857 0.0320 0.7272
vn 0.3907 0.6824 0.6179
vn -0.7544 0.3666 0.5446
vn -0.5389 -0.5662 0.6237
vn -0.0954 -0.7503 0.6542
vn -0.3307 -0.5618 0.7583
vn 0.2370 -0.5338 0.8117
vn 0.2000 0.5387 0.8184
vn -0.4450 0.1225 0.8871
vn 0.1224 0.8199 0.5593
vn 0.5293 0.1650 0.8323
vn -0.0147 0.6592 0.7518
vn -0.0218 -0.0678 0.9975
vn 0.3396 0.1531 0.9280
vn -0.2911 -0.1044 0.9510
vn 0.3840 0.4637 0.7985
vn -0.1010 0.3901 0.9152
usemtl mtl1.986
s 1
f 1//1 2//2 3//3
f 3//3 2//2 4//4
f 5//5 3//3 4//4
f 5//5 4//4 6//6
f 3//3 7//7 8//8
f 3//3 8//8 1//1
f 1//1 9//9 2//2
f 2//2 9//9 10//10
f 5//5 7//7 3//3
f 10//10 11//11 4//4
f 10//10 4//4 2//2
f 12//12 7//7 5//5
f 4//4 11//11 13//13
f 6//6 12//12 5//5
f 4//4 13//13 6//6
f 14//14 15//15 1//1
f 14//14 1//1 8//8
f 1//1 15//15 9//9
f 9//9 16//16 10//10
f 12//12 17//17 7//7
f 13//13 11//11 18//18
f 6//6 13//13 19//19
f 6//6 19//19 20//20
f 8//8 7//7 21//21
f 9//9 15//15 16//16
f 7//7 22//22 21//21
f 22//22 7//7 17//17
f 16//16 23//23 10//10
f 24//24 10//10 23//23
f 10//10 24//24 11//11
f 11//11 24//24 25//25
f 25//25 18//18 11//11
f 13//13 18//18 19//19
f 8//8 26//26 14//14
f 18//18 27//27 19//19
f 20//20 19//19 28//28
f 29//29 12//12 6//6
f 29//29 6//6 20//20
f 14//14 30//30 15//15
f 8//8 21//21 26//26
f 15//15 30//30 16//16
f 23//23 16//16 31//31
f 17//17 12//12 29//29
f 32//32 24//24 23//23
f 24//24 32//32 25//25
f 20//20 28//28 29//29
f 33//33 18//18 25//25
f 14//14 34//34 30//30
f 14//14 26//26 35//35
f 16//16 30//30 36//36
f 21//21 22//22 37//37
f 22//22 17//17 38//38
f 23//23 31//31 39//39
f 38//38 17//17 29//29
f 39//39 32//32 23//23
f 28//28 19//19 40//40
f 34//34 14//14 35//35
f 21//21 37//37 26//26
f 41//41 37//37 22//22
f 31//31 16//16 36//36
f 41//41 22//22 38//38
f 27//27 42//42 19//19
f 18//18 33//33 43//43
f 25//25 32//32 44//44
f 33//33 25//25 44//44
f 30//30 45//45 46//46
f 45//45 30//30 34//34
f 35//35 26//26 37//37
f 31//31 36//36 39//39
f 29//29 47//47 38//38
f 19//19 42//42 40//40
f 18//18 43//43 27//27
f 29//29 28//28 47//47
f 30//30 46//46 36//36
f 41//41 38//38 48//48
f 38//38 47//47 49//49
f 34//34 50//50 45//45
f 34//34 35//35 50//50
f 36//36 46//46 51//51
f 52//52 37//37 41//41
f 41//41 48//48 52//52
f 49//49 48//48 38//38
f 53//53 39//39 36//36
f 27//27 43//43 42//42
f 40//40 54//54 28//28
f 55//55 32//32 39//39
f 56//56 33//33 44//44
f 57//57 35//35 37//37
f 53//53 55//55 39//39
f 40//40 42//42 54//54
f 49//49 47//47 58//58
f 47//47 28//28 54//54
f 33//33 56//56 43//43
f 32//32 55//55 44//44
f 50//50 59//59 45//45
f 35//35 57//57 50//50
f 37//37 52//52 57//57
f 36//36 51//51 53//53
f 49//49 58//58 48//48
f 54//54 58//58 47//47
f 50//50 57//57 59//59
f 45//45 60//60 46//46
f 59//59 60//60 45//45
f 52//52 61//61 57//57
f 53//53 62//62 55//55
f 63//63 42//42 43//43
f 44//44 55//55 64//64
f 44//44 64//64 56//56
f 60//60 51//51 46//46
f 57//57 65//65 59//59
f 48//48 66//66 52//52
f 51//51 62//62 53//53
f 58//58 66//66 48//48
f 54//54 42//42 67//67
f 62//62 68//68 55//55
f 64//64 55//55 68//68
f 57//57 61//61 65//65
f 51//51 60//60 69//69
f 66//66 61//61 52//52
f 51//51 69//69 62//62
f 42//42 63//63 67//67
f 54//54 67//67 58//58
f 60//60 59//59 70//70
f 70//70 59//59 65//65
f 60//60 70//70 71//71
f 72//72 65//65 61//61
f 71//71 69//69 60//60
f 67//67 63//63 73//73
f 66//66 58//58 67//67
f 68//68 62//62 74//74
f 43//43 56//56 75//75
f 75//75 63//63 43//43
f 65//65 72//72 70//70
f 72//72 61//61 76//76
f 61//61 66//66 76//76
f 76//76 66//66 67//67
f 73//73 63//63 75//75
f 74//74 77//77 68//68
f 77//77 64//64 68//68
f 64//64 77//77 56//56
f 70//70 78//78 71//71
f 72//72 76//76 79//79
f 69//69 71//71 80//80
f 81//81 79//79 76//76
f 69//69 80//80 62//62
f 76//76 67//67 81//81
f 62//62 80//80 74//74
f 81//81 67//67 73//73
f 56//56 77//77 75//75
f 78//78 70//70 72//72
f 72//72 79//79 78//78
f 71//71 78//78 80//80
f 80//80 77//77 74//74
f 82//82 77//77 80//80
f 82//82 73//73 75//75
f 75//75 77//77 82//82
f 81//81 78//78 79//79
f 78//78 82//82 80//80
f 73//73 82//82 78//78
f 81//81 73//73 78//78
