# wavefront obj file written by the visualization toolkit


v 6058.88 6593.69 3354.29
v 6027.2 6646.33 3340.01
v 6100.25 6637.01 3343.19
v 6051.29 6691.36 3343.45
v 6158.81 6678.16 3352.46
v 6149.02 6710.14 3372.13
v 6199.39 6627.28 3384.17
v 6141.69 6577.55 3386.99
v 5988.1 6619.49 3367.98
v 5950.82 6674.91 3377.08
v 5948.33 6719.34 3377.48
v 6210.62 6675.21 3393.6
v 6047.46 6714.18 3365.93
v 6084.7 6535.41 3436.67
v 6004.22 6578.03 3404.27
v 5927.12 6619.16 3429.54
v 6249.33 6652.96 3429.24
v 5971.64 6727.6 3430.94
v 6120.25 6708.5 3432.15
v 6202.75 6713.05 3429.53
v 6206.15 6569.17 3428.68
v 6243.68 6602.21 3457.15
v 5873.02 6686.86 3446.22
v 5892.75 6720.59 3425.82
v 5889.52 6738.13 3448.91
v 6171.75 6540.93 3457.63
v 6027.67 6705.18 3493.64
v 6222.89 6696.48 3482.83
v 6229.85 6684.66 3446.98
v 5981.98 6546.16 3488.12
v 5868.11 6648.43 3472.89
v 5854.23 6725.13 3485.39
v 5888.72 6739.02 3524.14
v 6071.35 6507.57 3515.17
v 6138.49 6514.43 3515.76
v 5891.98 6605.6 3523.83
v 6208.63 6552.79 3507.31
v 6266.66 6640.37 3499.83
v 5852.09 6677.81 3517.6
v 6177.31 6684.28 3510.7
v 6255.09 6599.99 3529.98
v 6105.97 6680.3 3565.78
v 5977.53 6703.39 3578.24
v 5851.67 6736.02 3557.46
v 6022.2 6510.31 3566.19
v 5951.3 6550.86 3568.08
v 6257.96 6662.49 3534.02
v 6264.1 6621.22 3577.88
v 6264.39 6642.5 3556.44
v 6089.12 6505.49 3564.37
v 5894.08 6599.22 3617.25
v 6225.15 6576.91 3593.57
v 5854.44 6659.33 3583.88
v 6208.66 6665.77 3566.35
v 5846.86 6708.89 3593.29
v 5893.7 6716.12 3628.7
v 6150.56 6532.61 3589.3
v 6239.29 6634.52 3596.54
v 6068.4 6523.56 3622.2
v 5978.21 6556.94 3638.71
v 6176.82 6567.22 3655.39
v 5872.07 6665.49 3660.05
v 6059 6663.14 3666.54
v 5858.53 6715.94 3634.26
v 6113.21 6547.34 3658.8
v 6213.69 6603.06 3632.47
v 6149.8 6633.27 3652.66
v 5865.02 6694.25 3665.34
v 5927.83 6608.06 3674.07
v 6047.87 6562.24 3684.35
v 5982.24 6597.83 3701.34
v 6110.05 6582.62 3701.1
v 6044.46 6641.06 3716.27
v 5882.86 6678.75 3695.62
v 5965.22 6680.92 3678.6
v 6141.83 6594.38 3687.98
v 5898.16 6680.81 3684.72
v 6034.63 6612.32 3721.8
v 6100.36 6595.72 3712.78
v 5933.61 6645.43 3694.45
v 6091.85 6611.2 3699.29
v 5977.66 6651.59 3696.73
v 6045.35 6625.1 7637.55
v 5994.21 6628.87 7639.06
v 5966.09 6651.28 7648.48
v 6089.36 6624.31 7656.77
v 6083.3 6641.23 7699.26
v 6077.6 6605.37 7656.85
v 5970.04 6600.48 7676.51
v 6127.37 6613.77 7672.68
v 5931.37 6654.82 7661.34
v 5890.36 6683.24 7675.17
v 5885.91 6701.72 7717.31
v 6098.39 6548.48 7719.89
v 6012.78 6535.96 7738.98
v 6184.26 6591.59 7724.59
v 5886.66 6657.52 7694.08
v 6179.46 6620.97 7719.16
v 5972.66 6687.14 7772.41
v 5945.21 6561.87 7736.6
v 5902.98 6607.78 7722.87
v 6153.12 6644.04 7757.24
v 5852.59 6703.78 7736.54
v 6192.79 6545.49 7785.91
v 6243.15 6625.77 7772.45
v 5860.37 6649.18 7757.53
v 6210.07 6668.49 7831.86
v 5848.07 6731.95 7795.1
v 6055.54 6514.35 7774.71
v 6110.97 6518.49 7797.08
v 6089.75 6678.5 7822.92
v 5898.81 6731.34 7853.99
v 5977.83 6532.23 7785.59
v 5909.68 6582.9 7776.88
v 6245.16 6601.77 7814.47
v 6247.02 6653.44 7815.21
v 5836.68 6692.1 7830.93
v 5844.36 6731.89 7827.91
v 5878.61 6611.86 7834.79
v 6264.72 6653.41 7865.04
v 5855.03 6741.27 7869.56
v 6003.76 6709.77 7883.56
v 6053.29 6519.02 7855.58
v 6159.86 6530.15 7866.85
v 6225.51 6562.88 7869.13
v 5952.33 6556.01 7849.58
v 6250.56 6684.23 7881.94
v 6251.46 6603.27 7887.12
v 6166.96 6704.74 7909.96
v 6097.94 6720.55 7949.86
v 6209.19 6710.36 7947.94
v 5860.19 6724.95 7908.66
v 6186.63 6544.86 7931.46
v 5915.44 6594.21 7914.31
v 5866.96 6643.18 7887.05
v 5865.5 6676.97 7911.63
v 6003.05 6557.51 7937.53
v 5897.4 6641.79 7941.39
v 6107.05 6547.34 7947.95
v 6221.24 6581.27 7939.89
v 6241.63 6638.35 7944.29
v 6235.61 6679.79 7942.71
v 5987.88 6738.02 7964.81
v 5897.75 6733.76 7919.71
v 6155.11 6721.27 7964.15
v 5964.62 6615.8 7983.32
v 5917.4 6685.43 7975.32
v 6053.91 6578.9 7992.48
v 6171.84 6568.64 7973.89
v 6197.94 6615.89 7992.99
v 6210.79 6669.42 7998.12
v 6195.27 6702.31 7996.33
v 5942.41 6721.27 7975.66
v 6122.54 6718.34 7999.44
v 6127.7 6605.85 8011.97
v 6002.28 6660.5 8027.56
v 6015.29 6698.97 8030.15
v 6035.28 6718.13 8009.6
v 6048.65 6628.03 8018.67
v 6157.37 6666.23 8034.09
v 6162.14 6693.97 8019.56
v 6076.8 6663.94 8032.14
v 6095.23 6691.5 8019.02
vn -0.104561 -0.612786 -0.783301
vn -0.230302 -0.125854 -0.964947
vn 0.18022 -0.217417 -0.959297
vn -0.0533142 0.37055 -0.927281
vn 0.379025 0.208325 -0.901632
vn 0.321169 0.794979 -0.514644
vn 0.5766 -0.279304 -0.767803
vn 0.25374 -0.663196 -0.704121
vn -0.48744 -0.473695 -0.733495
vn -0.555838 -0.0737408 -0.828013
vn -0.275955 0.680664 -0.678635
vn 0.667607 0.403654 -0.625591
vn 0.0458119 0.930374 -0.363739
vn -0.0429763 -0.893106 -0.447789
vn -0.393428 -0.764221 -0.511058
vn -0.627675 -0.571208 -0.528909
vn 0.876524 0.112111 -0.46812
vn 0.128587 0.991664 -0.0082386
vn 0.0595681 0.988586 0.138385
vn 0.394968 0.91038 -0.123322
vn 0.562014 -0.680736 -0.469829
vn 0.829104 -0.454132 -0.326114
vn -0.819192 -0.144405 -0.555043
vn -0.689677 0.307411 -0.655625
vn -0.311775 0.908961 -0.276742
vn 0.317599 -0.880026 -0.353107
vn 0.158299 0.970501 0.181849
vn 0.303292 0.927418 0.218885
vn 0.746781 0.618681 -0.244032
vn -0.450627 -0.84014 -0.301828
vn -0.827989 -0.445647 -0.340343
vn -0.901757 0.322874 -0.287378
vn 0.108279 0.989156 0.0992253
vn -0.0946516 -0.973651 -0.207474
vn 0.278828 -0.95506 -0.100576
vn -0.738957 -0.657714 -0.146129
vn 0.601569 -0.797485 -0.0461789
vn 0.990389 0.098947 -0.0966348
vn -0.964652 -0.226162 -0.135269
vn 0.0504391 0.959018 0.278819
vn 0.849289 -0.527596 -0.0187008
vn 0.17557 0.949095 0.261523
vn 0.233765 0.952023 0.1975
vn -0.480919 0.872393 0.0874456
vn -0.290443 -0.952361 0.0930147
vn -0.552949 -0.832559 0.0330642
vn 0.67707 0.706409 0.206308
vn 0.923548 -0.106035 0.368531
vn 0.867272 0.404927 0.289608
vn 0.109637 -0.983165 0.146175
vn -0.699029 -0.675599 0.23436
vn 0.690004 -0.659386 0.298503
vn -0.924429 -0.374119 0.0739367
vn 0.21878 0.889094 0.402053
vn -0.985526 0.101303 0.135925
vn 0.0982856 0.935278 0.339992
vn 0.374702 -0.89195 0.253028
vn 0.559576 0.576641 0.595281
vn -0.0112403 -0.915866 0.401328
vn -0.380594 -0.827083 0.413621
vn 0.526204 -0.595395 0.607136
vn -0.804874 -0.376964 0.45834
vn 0.264688 0.893362 0.363105
vn -0.461421 0.765184 0.44898
vn 0.185995 -0.840026 0.509669
vn 0.68566 0.0320461 0.727216
vn 0.390683 0.682363 0.617858
vn -0.754339 0.366612 0.544581
vn -0.538909 -0.566196 0.623698
vn -0.0953851 -0.750283 0.654199
vn -0.330697 -0.561851 0.758263
vn 0.236979 -0.533854 0.81169
vn 0.199983 0.538749 0.818387
vn -0.445034 0.122546 0.887089
vn 0.122422 0.81985 0.559338
vn 0.529252 0.165013 0.832264
vn -0.0146811 0.659209 0.751816
vn -0.0217975 -0.0678257 0.997459
vn 0.339672 0.15314 0.927993
vn -0.291134 -0.104411 0.950968
vn 0.383973 0.463653 0.798492
vn -0.100982 0.390142 0.9152
vn 0.205385 0.101767 -0.973376
vn -0.191117 -0.299347 -0.934808
vn 0.0632704 0.688195 -0.722762
vn 0.339685 0.700943 -0.627131
vn 0.227448 0.915758 -0.331141
vn 0.162377 -0.606503 -0.778324
vn -0.317476 -0.664331 -0.676663
vn 0.516322 0.00548198 -0.856377
vn -0.436046 -0.225583 -0.871193
vn -0.482447 0.33842 -0.807909
vn 0.0332064 0.917024 -0.397448
vn 0.160119 -0.802648 -0.574559
vn -0.18579 -0.852679 -0.488283
vn 0.601875 -0.430656 -0.672519
vn -0.711627 -0.382294 -0.589439
vn 0.452699 0.656558 -0.60332
vn 0.241146 0.930956 -0.274171
vn -0.487099 -0.784009 -0.384791
vn -0.663098 -0.612865 -0.429764
vn 0.197822 0.905999 -0.374209
vn -0.866266 0.288637 -0.407764
vn 0.514755 -0.806047 -0.292089
vn 0.844622 0.0823893 -0.528986
vn -0.86805 -0.441746 -0.226606
vn 0.167843 0.9087 -0.382221
vn -0.339394 0.905417 -0.255014
vn -0.0402236 -0.974109 -0.222474
vn 0.187928 -0.972173 -0.139866
vn 0.134061 0.938909 -0.316982
vn 0.178619 0.970243 -0.163473
vn -0.397645 -0.914923 -0.0692395
vn -0.676702 -0.730454 -0.0922532
vn 0.860789 -0.450374 -0.237077
vn 0.566136 0.703876 -0.429009
vn -0.985227 -0.150671 0.0814034
vn -0.892136 0.45176 0.00230748
vn -0.773207 -0.631393 0.0591105
vn 0.991479 0.129 -0.018108
vn -0.360564 0.926266 0.109663
vn 0.182869 0.944608 -0.272535
vn -0.119267 -0.976995 0.176794
vn 0.240604 -0.966192 0.0926414
vn 0.682042 -0.730229 0.039799
vn -0.498088 -0.853231 0.154614
vn 0.63627 0.759908 -0.13304
vn 0.91353 -0.383135 0.136643
vn 0.108536 0.945938 -0.305649
vn 0.0718898 0.979658 -0.187356
vn 0.374541 0.92695 0.0219747
vn -0.770655 0.420314 0.478986
vn 0.377386 -0.867512 0.324042
vn -0.615639 -0.697291 0.367115
vn -0.844128 -0.449683 0.291947
vn -0.863792 -0.162766 0.476835
vn -0.314155 -0.851294 0.420243
vn -0.715197 -0.38786 0.581427
vn 0.00207047 -0.887367 0.461059
vn 0.720352 -0.545952 0.427819
vn 0.896144 -0.125682 0.425594
vn 0.854557 0.408887 0.320225
vn 0.0182915 0.993969 0.108123
vn -0.187037 0.945013 0.268267
vn 0.108299 0.993315 -0.0399682
vn -0.450698 -0.530409 0.718009
vn -0.631353 0.0159443 0.775331
vn -0.15114 -0.684506 0.713167
vn 0.305112 -0.687914 0.658544
vn 0.562155 -0.382624 0.733199
vn 0.711852 0.135996 0.689037
vn 0.53688 0.669898 0.512832
vn -0.354306 0.706362 0.612797
vn 0.12723 0.899029 0.418998
vn 0.0896743 -0.52015 0.849354
vn -0.300966 -0.221455 0.927565
vn -0.174542 0.385667 0.905978
vn -0.0138573 0.770235 0.637609
vn -0.131787 -0.436884 0.889812
vn 0.24307 0.0331214 0.969443
vn 0.252529 0.525117 0.8127
vn -0.00150793 -0.0501647 0.99874
vn 0.0589157 0.499132 0.864521

g grp1
usemtl mtl1
f 1//1 2//2 3//3 
f 3//3 2//2 4//4 
f 5//5 3//3 4//4 
f 5//5 4//4 6//6 
f 3//3 7//7 8//8 
f 3//3 8//8 1//1 
f 1//1 9//9 2//2 
f 2//2 9//9 10//10 
f 5//5 7//7 3//3 
f 10//10 11//11 4//4 
f 10//10 4//4 2//2 
f 12//12 7//7 5//5 
f 4//4 11//11 13//13 
f 6//6 12//12 5//5 
f 4//4 13//13 6//6 
f 14//14 15//15 1//1 
f 14//14 1//1 8//8 
f 1//1 15//15 9//9 
f 9//9 16//16 10//10 
f 12//12 17//17 7//7 
f 13//13 11//11 18//18 
f 6//6 13//13 19//19 
f 6//6 19//19 20//20 
f 8//8 7//7 21//21 
f 9//9 15//15 16//16 
f 7//7 22//22 21//21 
f 22//22 7//7 17//17 
f 16//16 23//23 10//10 
f 24//24 10//10 23//23 
f 10//10 24//24 11//11 
f 11//11 24//24 25//25 
f 25//25 18//18 11//11 
f 13//13 18//18 19//19 
f 8//8 26//26 14//14 
f 18//18 27//27 19//19 
f 20//20 19//19 28//28 
f 29//29 12//12 6//6 
f 29//29 6//6 20//20 
f 14//14 30//30 15//15 
f 8//8 21//21 26//26 
f 15//15 30//30 16//16 
f 23//23 16//16 31//31 
f 17//17 12//12 29//29 
f 32//32 24//24 23//23 
f 24//24 32//32 25//25 
f 20//20 28//28 29//29 
f 33//33 18//18 25//25 
f 14//14 34//34 30//30 
f 14//14 26//26 35//35 
f 16//16 30//30 36//36 
f 21//21 22//22 37//37 
f 22//22 17//17 38//38 
f 23//23 31//31 39//39 
f 38//38 17//17 29//29 
f 39//39 32//32 23//23 
f 28//28 19//19 40//40 
f 34//34 14//14 35//35 
f 21//21 37//37 26//26 
f 41//41 37//37 22//22 
f 31//31 16//16 36//36 
f 41//41 22//22 38//38 
f 27//27 42//42 19//19 
f 18//18 33//33 43//43 
f 25//25 32//32 44//44 
f 33//33 25//25 44//44 
f 30//30 45//45 46//46 
f 45//45 30//30 34//34 
f 35//35 26//26 37//37 
f 31//31 36//36 39//39 
f 29//29 47//47 38//38 
f 19//19 42//42 40//40 
f 18//18 43//43 27//27 
f 29//29 28//28 47//47 
f 30//30 46//46 36//36 
f 41//41 38//38 48//48 
f 38//38 47//47 49//49 
f 34//34 50//50 45//45 
f 34//34 35//35 50//50 
f 36//36 46//46 51//51 
f 52//52 37//37 41//41 
f 41//41 48//48 52//52 
f 49//49 48//48 38//38 
f 53//53 39//39 36//36 
f 27//27 43//43 42//42 
f 40//40 54//54 28//28 
f 55//55 32//32 39//39 
f 56//56 33//33 44//44 
f 57//57 35//35 37//37 
f 53//53 55//55 39//39 
f 40//40 42//42 54//54 
f 49//49 47//47 58//58 
f 47//47 28//28 54//54 
f 33//33 56//56 43//43 
f 32//32 55//55 44//44 
f 50//50 59//59 45//45 
f 35//35 57//57 50//50 
f 37//37 52//52 57//57 
f 36//36 51//51 53//53 
f 49//49 58//58 48//48 
f 54//54 58//58 47//47 
f 50//50 57//57 59//59 
f 45//45 60//60 46//46 
f 59//59 60//60 45//45 
f 52//52 61//61 57//57 
f 53//53 62//62 55//55 
f 63//63 42//42 43//43 
f 44//44 55//55 64//64 
f 44//44 64//64 56//56 
f 60//60 51//51 46//46 
f 57//57 65//65 59//59 
f 48//48 66//66 52//52 
f 51//51 62//62 53//53 
f 58//58 66//66 48//48 
f 54//54 42//42 67//67 
f 62//62 68//68 55//55 
f 64//64 55//55 68//68 
f 57//57 61//61 65//65 
f 51//51 60//60 69//69 
f 66//66 61//61 52//52 
f 51//51 69//69 62//62 
f 42//42 63//63 67//67 
f 54//54 67//67 58//58 
f 60//60 59//59 70//70 
f 70//70 59//59 65//65 
f 60//60 70//70 71//71 
f 72//72 65//65 61//61 
f 71//71 69//69 60//60 
f 67//67 63//63 73//73 
f 66//66 58//58 67//67 
f 68//68 62//62 74//74 
f 43//43 56//56 75//75 
f 75//75 63//63 43//43 
f 65//65 72//72 70//70 
f 72//72 61//61 76//76 
f 61//61 66//66 76//76 
f 76//76 66//66 67//67 
f 73//73 63//63 75//75 
f 74//74 77//77 68//68 
f 77//77 64//64 68//68 
f 64//64 77//77 56//56 
f 70//70 78//78 71//71 
f 72//72 76//76 79//79 
f 69//69 71//71 80//80 
f 81//81 79//79 76//76 
f 69//69 80//80 62//62 
f 76//76 67//67 81//81 
f 62//62 80//80 74//74 
f 81//81 67//67 73//73 
f 56//56 77//77 75//75 
f 78//78 70//70 72//72 
f 72//72 79//79 78//78 
f 71//71 78//78 80//80 
f 80//80 77//77 74//74 
f 82//82 77//77 80//80 
f 82//82 73//73 75//75 
f 75//75 77//77 82//82 
f 81//81 78//78 79//79 
f 78//78 82//82 80//80 
f 73//73 82//82 78//78 
f 81//81 73//73 78//78 
f 83//83 84//84 85//85 
f 86//86 83//83 85//85 
f 86//86 85//85 87//87 
f 88//88 89//89 84//84 
f 83//83 88//88 84//84 
f 90//90 88//88 83//83 
f 89//89 91//91 84//84 
f 90//90 83//83 86//86 
f 84//84 91//91 85//85 
f 85//85 91//91 92//92 
f 93//93 85//85 92//92 
f 94//94 95//95 89//89 
f 88//88 94//94 89//89 
f 96//96 94//94 88//88 
f 96//96 88//88 90//90 
f 91//91 89//89 97//97 
f 90//90 86//86 98//98 
f 98//98 86//86 87//87 
f 92//92 91//91 97//97 
f 85//85 99//99 87//87 
f 99//99 85//85 93//93 
f 89//89 100//100 101//101 
f 95//95 100//100 89//89 
f 101//101 97//97 89//89 
f 98//98 96//96 90//90 
f 102//102 98//98 87//87 
f 92//92 97//97 103//103 
f 92//92 103//103 93//93 
f 96//96 104//104 94//94 
f 98//98 105//105 96//96 
f 97//97 101//101 106//106 
f 97//97 106//106 103//103 
f 107//107 98//98 102//102 
f 93//93 103//103 108//108 
f 94//94 109//109 95//95 
f 94//94 104//104 110//110 
f 111//111 87//87 99//99 
f 93//93 112//112 99//99 
f 108//108 112//112 93//93 
f 95//95 113//113 100//100 
f 109//109 113//113 95//95 
f 110//110 109//109 94//94 
f 101//101 100//100 114//114 
f 115//115 104//104 96//96 
f 115//115 96//96 105//105 
f 101//101 114//114 106//106 
f 105//105 98//98 116//116 
f 87//87 111//111 102//102 
f 107//107 116//116 98//98 
f 103//103 117//117 118//118 
f 103//103 118//118 108//108 
f 114//114 100//100 113//113 
f 114//114 119//119 106//106 
f 105//105 116//116 120//120 
f 102//102 111//111 107//107 
f 106//106 117//117 103//103 
f 108//108 118//118 121//121 
f 105//105 120//120 115//115 
f 119//119 117//117 106//106 
f 99//99 122//122 111//111 
f 122//122 99//99 112//112 
f 121//121 112//112 108//108 
f 109//109 123//123 113//113 
f 110//110 123//123 109//109 
f 110//110 124//124 123//123 
f 104//104 124//124 110//110 
f 125//125 124//124 104//104 
f 126//126 114//114 113//113 
f 114//114 126//126 119//119 
f 115//115 125//125 104//104 
f 116//116 107//107 127//127 
f 116//116 127//127 120//120 
f 123//123 126//126 113//113 
f 115//115 128//128 125//125 
f 115//115 120//120 128//128 
f 107//107 111//111 129//129 
f 130//130 111//111 122//122 
f 107//107 131//131 127//127 
f 117//117 132//132 118//118 
f 118//118 132//132 121//121 
f 125//125 133//133 124//124 
f 119//119 126//126 134//134 
f 134//134 135//135 119//119 
f 117//117 119//119 135//135 
f 135//135 136//136 117//117 
f 107//107 129//129 131//131 
f 126//126 123//123 137//137 
f 134//134 126//126 137//137 
f 134//134 138//138 135//135 
f 136//136 132//132 117//117 
f 124//124 133//133 139//139 
f 140//140 133//133 125//125 
f 128//128 140//140 125//125 
f 128//128 120//120 141//141 
f 142//142 141//141 120//120 
f 111//111 130//130 129//129 
f 120//120 127//127 142//142 
f 122//122 143//143 130//130 
f 131//131 142//142 127//127 
f 112//112 143//143 122//122 
f 144//144 121//121 132//132 
f 144//144 112//112 121//121 
f 124//124 139//139 123//123 
f 141//141 140//140 128//128 
f 135//135 138//138 136//136 
f 131//131 129//129 145//145 
f 112//112 144//144 143//143 
f 123//123 139//139 137//137 
f 134//134 137//137 146//146 
f 138//138 134//134 146//146 
f 132//132 136//136 147//147 
f 139//139 148//148 137//137 
f 139//139 133//133 149//149 
f 133//133 140//140 149//149 
f 148//148 146//146 137//137 
f 140//140 150//150 149//149 
f 141//141 150//150 140//140 
f 138//138 147//147 136//136 
f 141//141 142//142 151//151 
f 142//142 152//152 151//151 
f 147//147 153//153 132//132 
f 130//130 145//145 129//129 
f 154//154 130//130 143//143 
f 145//145 130//130 154//154 
f 142//142 131//131 152//152 
f 132//132 153//153 144//144 
f 150//150 141//141 151//151 
f 138//138 146//146 147//147 
f 148//148 139//139 155//155 
f 139//139 149//149 155//155 
f 149//149 150//150 155//155 
f 146//146 156//156 147//147 
f 156//156 157//157 147//147 
f 147//147 157//157 153//153 
f 143//143 153//153 158//158 
f 143//143 158//158 154//154 
f 152//152 131//131 154//154 
f 154//154 131//131 145//145 
f 143//143 144//144 153//153 
f 148//148 155//155 159//159 
f 146//146 148//148 159//159 
f 159//159 156//156 146//146 
f 155//155 150//150 160//160 
f 150//150 151//151 160//160 
f 160//160 151//151 161//161 
f 161//161 151//151 152//152 
f 154//154 161//161 152//152 
f 157//157 158//158 153//153 
f 155//155 162//162 159//159 
f 155//155 160//160 162//162 
f 162//162 156//156 159//159 
f 162//162 157//157 156//156 
f 160//160 163//163 162//162 
f 161//161 163//163 160//160 
f 163//163 157//157 162//162 
f 161//161 154//154 163//163 
f 163//163 158//158 157//157 
f 154//154 158//158 163//163 
