# Blender v2.92.0 OBJ File: 'convert_to_one_sided.blend'
# www.blender.org
mtllib 1139L.mtl
o Cube
v 0.001000 0.001000 -0.001000
v 0.001000 -0.001000 -0.001000
v 0.001000 0.001000 0.001000
v 0.001000 -0.001000 0.001000
v -0.001000 0.001000 -0.001000
v -0.001000 -0.001000 -0.001000
v -0.001000 0.001000 0.001000
v -0.001000 -0.001000 0.001000
vt 0.625000 0.500000
vt 0.875000 0.500000
vt 0.875000 0.750000
vt 0.625000 0.750000
vt 0.375000 0.750000
vt 0.625000 1.000000
vt 0.375000 1.000000
vt 0.375000 0.000000
vt 0.625000 0.000000
vt 0.625000 0.250000
vt 0.375000 0.250000
vt 0.125000 0.500000
vt 0.375000 0.500000
vt 0.125000 0.750000
vn 0.0000 1.0000 0.0000
vn 0.0000 0.0000 1.0000
vn -1.0000 0.0000 0.0000
vn 0.0000 -1.0000 0.0000
vn 1.0000 0.0000 0.0000
vn 0.0000 0.0000 -1.0000
usemtl Material
s off
f 1/1/1 5/2/1 7/3/1 3/4/1
f 4/5/2 3/4/2 7/6/2 8/7/2
f 8/8/3 7/9/3 5/10/3 6/11/3
f 6/12/4 2/13/4 4/5/4 8/14/4
f 2/13/5 1/1/5 3/4/5 4/5/5
f 6/11/6 5/10/6 1/1/6 2/13/6
o 1139
v 6.058802 6.593605 3.354248
v 6.027122 6.646244 3.339968
v 6.100172 6.636924 3.343148
v 6.051212 6.691273 3.343408
v 6.158731 6.678074 3.352418
v 6.148941 6.710053 3.372088
v 6.199310 6.627194 3.384128
v 6.141611 6.577465 3.386947
v 5.988023 6.619404 3.367938
v 5.950743 6.674824 3.377038
v 5.948254 6.719253 3.377438
v 6.210540 6.675124 3.393558
v 6.047382 6.714093 3.365888
v 6.084622 6.535326 3.436627
v 6.004143 6.577945 3.404227
v 5.927044 6.619074 3.429497
v 6.249249 6.652874 3.429197
v 5.971563 6.727513 3.430897
v 6.120171 6.708413 3.432107
v 6.202670 6.712963 3.429487
v 6.206070 6.569085 3.428637
v 6.243600 6.602125 3.457107
v 5.872944 6.686773 3.446177
v 5.892674 6.720503 3.425777
v 5.889444 6.738043 3.448867
v 6.171670 6.540845 3.457586
v 6.027592 6.705093 3.493596
v 6.222810 6.696393 3.482786
v 6.229770 6.684574 3.446937
v 5.981903 6.546075 3.488076
v 5.868034 6.648344 3.472846
v 5.854155 6.725043 3.485346
v 5.888644 6.738933 3.524096
v 6.071272 6.507485 3.515126
v 6.138411 6.514346 3.515716
v 5.891904 6.605515 3.523786
v 6.208550 6.552705 3.507266
v 6.266580 6.640284 3.499786
v 5.852015 6.677723 3.517556
v 6.177230 6.684193 3.510656
v 6.255009 6.599905 3.529936
v 6.105892 6.680213 3.565735
v 5.977453 6.703303 3.578195
v 5.851594 6.735933 3.557415
v 6.022123 6.510226 3.566145
v 5.951223 6.550775 3.568035
v 6.257879 6.662404 3.533976
v 6.264019 6.621134 3.577835
v 6.264309 6.642414 3.556395
v 6.089042 6.505406 3.564325
v 5.894004 6.599135 3.617205
v 6.225070 6.576825 3.593525
v 5.854364 6.659244 3.583835
v 6.208580 6.665684 3.566305
v 5.846785 6.708803 3.593245
v 5.893624 6.716033 3.628654
v 6.150481 6.532525 3.589255
v 6.239210 6.634434 3.596495
v 6.068322 6.523476 3.622154
v 5.978133 6.556855 3.638664
v 6.176740 6.567135 3.655344
v 5.871994 6.665404 3.660004
v 6.058922 6.663054 3.666494
v 5.858454 6.715853 3.634214
v 6.113131 6.547255 3.658754
v 6.213610 6.602974 3.632424
v 6.149721 6.633184 3.652614
v 5.864944 6.694163 3.665294
v 5.927754 6.607975 3.674024
v 6.047792 6.562155 3.684304
v 5.982163 6.597744 3.701294
v 6.109971 6.582535 3.701053
v 6.044382 6.640974 3.716223
v 5.882784 6.678664 3.695574
v 5.965143 6.680833 3.678554
v 6.141751 6.594295 3.687934
v 5.898084 6.680724 3.684674
v 6.034552 6.612234 3.721753
v 6.100281 6.595635 3.712734
v 5.933534 6.645344 3.694404
v 6.091772 6.611115 3.699244
v 5.977583 6.651504 3.696684
vn -0.1046 -0.6128 -0.7833
vn -0.2303 -0.1258 -0.9649
vn 0.1802 -0.2174 -0.9593
vn -0.0533 0.3705 -0.9273
vn 0.3790 0.2083 -0.9016
vn 0.3212 0.7950 -0.5147
vn 0.5766 -0.2793 -0.7678
vn 0.2537 -0.6632 -0.7041
vn -0.4874 -0.4737 -0.7335
vn -0.5558 -0.0738 -0.8280
vn -0.2760 0.6807 -0.6786
vn 0.6676 0.4037 -0.6256
vn 0.0458 0.9304 -0.3638
vn -0.0430 -0.8931 -0.4478
vn -0.3934 -0.7642 -0.5110
vn -0.6277 -0.5712 -0.5289
vn 0.8765 0.1121 -0.4681
vn 0.1286 0.9917 -0.0082
vn 0.0595 0.9886 0.1384
vn 0.3950 0.9104 -0.1233
vn 0.5620 -0.6807 -0.4698
vn 0.8291 -0.4542 -0.3261
vn -0.8192 -0.1444 -0.5550
vn -0.6897 0.3074 -0.6556
vn -0.3117 0.9090 -0.2767
vn 0.3176 -0.8800 -0.3531
vn 0.1583 0.9705 0.1819
vn 0.3033 0.9274 0.2189
vn 0.7468 0.6187 -0.2441
vn -0.4506 -0.8401 -0.3018
vn -0.8280 -0.4457 -0.3403
vn -0.9018 0.3229 -0.2874
vn 0.1083 0.9892 0.0992
vn -0.0947 -0.9737 -0.2075
vn 0.2788 -0.9551 -0.1006
vn -0.7390 -0.6577 -0.1461
vn 0.6016 -0.7975 -0.0462
vn 0.9904 0.0989 -0.0966
vn -0.9647 -0.2262 -0.1352
vn 0.0504 0.9590 0.2788
vn 0.8493 -0.5276 -0.0187
vn 0.1756 0.9491 0.2615
vn 0.2338 0.9520 0.1975
vn -0.4809 0.8724 0.0874
vn -0.2904 -0.9524 0.0930
vn -0.5529 -0.8326 0.0330
vn 0.6771 0.7064 0.2063
vn 0.9236 -0.1060 0.3685
vn 0.8673 0.4049 0.2896
vn 0.1096 -0.9832 0.1462
vn -0.6990 -0.6756 0.2343
vn 0.6900 -0.6594 0.2985
vn -0.9244 -0.3741 0.0739
vn 0.2188 0.8891 0.4021
vn -0.9855 0.1013 0.1359
vn 0.0983 0.9353 0.3400
vn 0.3747 -0.8920 0.2530
vn 0.5596 0.5767 0.5953
vn -0.0113 -0.9159 0.4013
vn -0.3806 -0.8271 0.4136
vn 0.5262 -0.5954 0.6071
vn -0.8049 -0.3770 0.4583
vn 0.2647 0.8934 0.3631
vn -0.4615 0.7652 0.4490
vn 0.1860 -0.8400 0.5096
vn 0.6857 0.0320 0.7272
vn 0.3907 0.6824 0.6179
vn -0.7544 0.3666 0.5446
vn -0.5389 -0.5662 0.6237
vn -0.0954 -0.7503 0.6542
vn -0.3307 -0.5618 0.7583
vn 0.2370 -0.5338 0.8117
vn 0.2000 0.5387 0.8184
vn -0.4450 0.1225 0.8871
vn 0.1224 0.8199 0.5593
vn 0.5293 0.1650 0.8323
vn -0.0147 0.6592 0.7518
vn -0.0218 -0.0678 0.9975
vn 0.3396 0.1531 0.9280
vn -0.2911 -0.1044 0.9510
vn 0.3840 0.4637 0.7985
vn -0.1010 0.3901 0.9152
usemtl mtl1.135
s 1
f 9//7 10//8 11//9
f 11//9 10//8 12//10
f 13//11 11//9 12//10
f 13//11 12//10 14//12
f 11//9 15//13 16//14
f 11//9 16//14 9//7
f 9//7 17//15 10//8
f 10//8 17//15 18//16
f 13//11 15//13 11//9
f 18//16 19//17 12//10
f 18//16 12//10 10//8
f 20//18 15//13 13//11
f 12//10 19//17 21//19
f 14//12 20//18 13//11
f 12//10 21//19 14//12
f 22//20 23//21 9//7
f 22//20 9//7 16//14
f 9//7 23//21 17//15
f 17//15 24//22 18//16
f 20//18 25//23 15//13
f 21//19 19//17 26//24
f 14//12 21//19 27//25
f 14//12 27//25 28//26
f 16//14 15//13 29//27
f 17//15 23//21 24//22
f 15//13 30//28 29//27
f 30//28 15//13 25//23
f 24//22 31//29 18//16
f 32//30 18//16 31//29
f 18//16 32//30 19//17
f 19//17 32//30 33//31
f 33//31 26//24 19//17
f 21//19 26//24 27//25
f 16//14 34//32 22//20
f 26//24 35//33 27//25
f 28//26 27//25 36//34
f 37//35 20//18 14//12
f 37//35 14//12 28//26
f 22//20 38//36 23//21
f 16//14 29//27 34//32
f 23//21 38//36 24//22
f 31//29 24//22 39//37
f 25//23 20//18 37//35
f 40//38 32//30 31//29
f 32//30 40//38 33//31
f 28//26 36//34 37//35
f 41//39 26//24 33//31
f 22//20 42//40 38//36
f 22//20 34//32 43//41
f 24//22 38//36 44//42
f 29//27 30//28 45//43
f 30//28 25//23 46//44
f 31//29 39//37 47//45
f 46//44 25//23 37//35
f 47//45 40//38 31//29
f 36//34 27//25 48//46
f 42//40 22//20 43//41
f 29//27 45//43 34//32
f 49//47 45//43 30//28
f 39//37 24//22 44//42
f 49//47 30//28 46//44
f 35//33 50//48 27//25
f 26//24 41//39 51//49
f 33//31 40//38 52//50
f 41//39 33//31 52//50
f 38//36 53//51 54//52
f 53//51 38//36 42//40
f 43//41 34//32 45//43
f 39//37 44//42 47//45
f 37//35 55//53 46//44
f 27//25 50//48 48//46
f 26//24 51//49 35//33
f 37//35 36//34 55//53
f 38//36 54//52 44//42
f 49//47 46//44 56//54
f 46//44 55//53 57//55
f 42//40 58//56 53//51
f 42//40 43//41 58//56
f 44//42 54//52 59//57
f 60//58 45//43 49//47
f 49//47 56//54 60//58
f 57//55 56//54 46//44
f 61//59 47//45 44//42
f 35//33 51//49 50//48
f 48//46 62//60 36//34
f 63//61 40//38 47//45
f 64//62 41//39 52//50
f 65//63 43//41 45//43
f 61//59 63//61 47//45
f 48//46 50//48 62//60
f 57//55 55//53 66//64
f 55//53 36//34 62//60
f 41//39 64//62 51//49
f 40//38 63//61 52//50
f 58//56 67//65 53//51
f 43//41 65//63 58//56
f 45//43 60//58 65//63
f 44//42 59//57 61//59
f 57//55 66//64 56//54
f 62//60 66//64 55//53
f 58//56 65//63 67//65
f 53//51 68//66 54//52
f 67//65 68//66 53//51
f 60//58 69//67 65//63
f 61//59 70//68 63//61
f 71//69 50//48 51//49
f 52//50 63//61 72//70
f 52//50 72//70 64//62
f 68//66 59//57 54//52
f 65//63 73//71 67//65
f 56//54 74//72 60//58
f 59//57 70//68 61//59
f 66//64 74//72 56//54
f 62//60 50//48 75//73
f 70//68 76//74 63//61
f 72//70 63//61 76//74
f 65//63 69//67 73//71
f 59//57 68//66 77//75
f 74//72 69//67 60//58
f 59//57 77//75 70//68
f 50//48 71//69 75//73
f 62//60 75//73 66//64
f 68//66 67//65 78//76
f 78//76 67//65 73//71
f 68//66 78//76 79//77
f 80//78 73//71 69//67
f 79//77 77//75 68//66
f 75//73 71//69 81//79
f 74//72 66//64 75//73
f 76//74 70//68 82//80
f 51//49 64//62 83//81
f 83//81 71//69 51//49
f 73//71 80//78 78//76
f 80//78 69//67 84//82
f 69//67 74//72 84//82
f 84//82 74//72 75//73
f 81//79 71//69 83//81
f 82//80 85//83 76//74
f 85//83 72//70 76//74
f 72//70 85//83 64//62
f 78//76 86//84 79//77
f 80//78 84//82 87//85
f 77//75 79//77 88//86
f 89//87 87//85 84//82
f 77//75 88//86 70//68
f 84//82 75//73 89//87
f 70//68 88//86 82//80
f 89//87 75//73 81//79
f 64//62 85//83 83//81
f 86//84 78//76 80//78
f 80//78 87//85 86//84
f 79//77 86//84 88//86
f 88//86 85//83 82//80
f 90//88 85//83 88//86
f 90//88 81//79 83//81
f 83//81 85//83 90//88
f 89//87 86//84 87//85
f 86//84 90//88 88//86
f 81//79 90//88 86//84
f 89//87 81//79 86//84
