# Blender v2.92.0 OBJ File: 'convert_to_one_sided.blend'
# www.blender.org
mtllib 114L.mtl
o 114
v 9.983031 6.572645 4.028749
v 9.839024 6.533535 4.045419
v 9.933962 6.620624 4.028999
v 10.124370 6.609524 4.032659
v 10.069170 6.663754 4.027119
v 10.238568 6.693483 4.048529
v 9.977632 6.702873 4.031479
v 10.142369 6.770922 4.045659
v 10.024271 6.781112 4.044929
v 10.058071 6.506956 4.058868
v 9.871123 6.453786 4.068089
v 10.206669 6.600645 4.056519
v 9.819923 6.628144 4.051789
v 9.921523 6.757953 4.054399
v 10.281068 6.795682 4.070799
v 10.209068 6.847651 4.073039
v 10.035670 6.843322 4.074278
v 9.755844 6.365308 4.100558
v 9.908002 6.367877 4.095828
v 9.789964 6.456696 4.071609
v 9.758174 6.505366 4.071918
v 10.189968 6.504086 4.093368
v 10.059370 6.404387 4.102568
v 9.707595 6.590555 4.081228
v 10.286068 6.628405 4.077939
v 9.779334 6.708623 4.077929
v 10.330967 6.724623 4.083998
v 9.852413 6.806022 4.087168
v 10.224769 6.902181 4.114258
v 9.693576 6.477526 4.101928
v 10.131770 6.417157 4.117118
v 10.180569 6.428827 4.133198
v 10.247368 6.491306 4.127488
v 10.299067 6.566705 4.113758
v 9.655836 6.551705 4.110398
v 10.349466 6.653734 4.112318
v 9.682615 6.646514 4.107168
v 10.380567 6.729433 4.121948
v 9.735485 6.759073 4.115618
v 10.369666 6.829132 4.126307
v 9.788464 6.839622 4.125428
v 10.288668 6.856701 4.102508
v 9.893943 6.875221 4.116728
v 10.029671 6.909680 4.124478
v 9.845453 6.227969 4.125858
v 9.988511 6.262499 4.128358
v 10.102370 6.358317 4.133578
v 9.701735 6.324038 4.137248
v 9.655116 6.453736 4.138718
v 9.637496 6.584325 4.137117
v 10.351867 6.594174 4.167667
v 10.392466 6.709693 4.172647
v 9.658996 6.709273 4.155407
v 10.335267 6.892451 4.137398
v 9.882403 6.921491 4.164697
v 10.162369 6.946790 4.169417
v 10.018471 6.185860 4.146388
v 9.943812 6.140601 4.149508
v 9.825604 6.135231 4.151398
v 9.768234 6.215559 4.144057
v 10.084470 6.258249 4.154497
v 9.680346 6.319838 4.166327
v 10.227368 6.447337 4.159698
v 10.288568 6.518215 4.165677
v 9.623266 6.631994 4.169227
v 10.404666 6.806882 4.163497
v 9.725044 6.819322 4.158877
v 10.416165 6.883351 4.185117
v 9.802104 6.881021 4.164668
v 10.388966 6.899440 4.170218
v 9.989772 6.942180 4.179207
v 10.325867 6.933490 4.182168
v 9.812704 6.060852 4.193837
v 9.876513 6.073792 4.175367
v 9.905642 6.041512 4.198787
v 9.995252 6.077261 4.178827
v 9.958241 6.050002 4.195797
v 9.792914 6.125111 4.177887
v 10.059271 6.154030 4.172418
v 10.059970 6.092431 4.191937
v 10.090270 6.124041 4.193297
v 9.733105 6.218979 4.171777
v 10.113970 6.246429 4.173847
v 10.146969 6.346828 4.163298
v 9.644755 6.437887 4.177597
v 9.631566 6.533586 4.169097
v 9.634186 6.709013 4.193997
v 9.676145 6.791652 4.197206
v 10.227868 6.969430 4.238717
v 9.966341 6.041322 4.202717
v 10.005072 6.061451 4.202537
v 9.763525 6.146310 4.188187
v 10.107170 6.201819 4.190757
v 10.139669 6.301498 4.190697
v 9.716075 6.239309 4.184717
v 9.686815 6.317788 4.192667
v 9.665816 6.380477 4.188347
v 10.193069 6.400947 4.205507
v 10.271568 6.488456 4.221266
v 10.338067 6.563975 4.244516
v 9.625926 6.615734 4.197467
v 9.738434 6.867521 4.214697
v 9.809093 6.910770 4.205447
v 10.410866 6.931450 4.237776
v 9.913892 6.949790 4.238936
v 10.064871 6.958770 4.219596
v 9.946572 6.041152 4.206737
v 9.872883 6.048512 4.207087
v 9.825213 6.058892 4.202637
v 9.795664 6.100771 4.198947
v 10.063970 6.093741 4.200357
v 10.095670 6.153210 4.197917
v 10.116969 6.233929 4.208207
v 9.664196 6.453236 4.218687
v 9.637607 6.528656 4.198067
v 10.405366 6.721603 4.305896
v 10.420666 6.820182 4.223817
v 9.652836 6.768342 4.222746
v 10.430766 6.892361 4.253656
v 9.783195 6.173910 4.212417
v 9.724955 6.258559 4.201547
v 10.146169 6.326628 4.217107
v 9.643756 6.609555 4.231866
v 9.642236 6.698833 4.226636
v 9.689205 6.817302 4.231886
v 9.730835 6.861801 4.256766
v 10.359667 6.960780 4.265226
v 9.847173 6.078211 4.213897
v 9.923992 6.055812 4.223956
v 10.000272 6.066991 4.215397
v 10.061070 6.155810 4.224067
v 9.744884 6.342268 4.237536
v 10.112169 6.289769 4.235897
v 10.161969 6.388658 4.253826
v 10.233568 6.472416 4.273336
v 9.705106 6.797732 4.270886
v 9.803453 6.907640 4.255206
v 10.438166 6.927520 4.329065
v 10.123569 6.973360 4.280556
v 10.017971 6.965160 4.324455
v 10.289968 6.976240 4.310066
v 9.984022 6.093801 4.237126
v 9.900952 6.143110 4.238176
v 10.023671 6.153960 4.244496
v 9.841793 6.267468 4.249106
v 10.048771 6.227900 4.250946
v 9.820774 6.373168 4.277806
v 10.098870 6.348458 4.273566
v 9.729394 6.498566 4.278116
v 10.303067 6.539825 4.298016
v 9.713634 6.617095 4.289166
v 10.357267 6.621624 4.352325
v 9.679776 6.695853 4.264696
v 10.434766 6.860121 4.314936
v 9.882382 6.932670 4.307076
v 9.985572 6.198210 4.250916
v 9.929042 6.249919 4.257476
v 10.008171 6.303858 4.273276
v 9.908202 6.342388 4.283686
v 9.819354 6.466996 4.323336
v 10.244369 6.547175 4.376285
v 10.444266 6.898111 4.373585
v 9.797584 6.878321 4.300826
v 10.389267 6.957090 4.323646
v 9.995261 6.400017 4.330785
v 9.939932 6.425487 4.347605
v 10.081070 6.428257 4.340315
v 9.894472 6.435216 4.342685
v 10.160469 6.452666 4.321075
v 10.386267 6.690953 4.415794
v 9.774584 6.753013 4.331825
v 9.836354 6.841941 4.351435
v 10.194869 6.975070 4.342605
v 10.319467 6.599074 4.391835
v 9.797934 6.569985 4.336895
v 9.838123 6.658674 4.374094
v 10.432266 6.841011 4.392564
v 10.012371 6.949820 4.363815
v 10.059771 6.962950 4.360915
v 9.964662 6.493415 4.402915
v 10.004471 6.478506 4.394844
v 10.078470 6.498435 4.402504
v 9.910253 6.499736 4.386915
v 10.149469 6.503276 4.381744
v 9.880262 6.567965 4.388905
v 10.406366 6.766762 4.434004
v 9.956752 6.900600 4.378654
v 10.421165 6.947810 4.387585
v 10.196169 6.961020 4.396614
v 10.330267 6.961180 4.380805
v 9.926613 6.780852 4.413294
v 10.429965 6.908550 4.410604
v 10.286568 6.619354 4.450953
v 9.942952 6.849721 4.401284
v 10.125270 6.919530 4.428274
v 10.392166 6.940490 4.428254
v 10.179369 6.565225 4.431973
v 10.346666 6.653693 4.435254
v 9.985641 6.671803 4.449644
v 10.034271 6.854171 4.436414
v 10.322767 6.951890 4.420734
v 10.078071 6.553535 4.442064
v 9.985572 6.567255 4.427864
v 10.372966 6.713142 4.468483
v 10.415566 6.847821 4.454684
v 10.398966 6.904180 4.460023
v 10.284568 6.924820 4.445764
v 10.111370 6.650184 4.483354
v 10.232068 6.642483 4.481023
v 10.389666 6.789242 4.484003
v 10.124070 6.788832 4.481763
v 10.215769 6.877270 4.469563
v 10.153870 6.706723 4.499653
v 10.177269 6.689343 4.505363
v 10.318867 6.669643 4.470703
v 10.386766 6.851701 4.489453
v 10.330466 6.881881 4.477664
v 10.222168 6.696603 4.505193
v 10.321167 6.727202 4.494223
v 10.354567 6.798572 4.505233
v 10.255368 6.760042 4.501833
v 10.280368 6.825621 4.487123
vn 0.0118 -0.1870 -0.9823
vn -0.1581 -0.1348 -0.9782
vn -0.1022 0.0196 -0.9946
vn 0.1520 -0.1805 -0.9718
vn 0.0431 0.0411 -0.9982
vn 0.2454 -0.0226 -0.9692
vn -0.0890 0.1555 -0.9838
vn 0.0666 0.2257 -0.9719
vn -0.0665 0.3230 -0.9440
vn 0.1438 -0.3547 -0.9238
vn -0.0131 -0.3045 -0.9524
vn 0.2785 -0.3002 -0.9123
vn -0.2393 0.0931 -0.9665
vn -0.1939 0.2944 -0.9358
vn 0.2979 0.2397 -0.9240
vn 0.1238 0.4358 -0.8915
vn -0.0752 0.4901 -0.8684
vn -0.2207 -0.2506 -0.9426
vn 0.0481 -0.2779 -0.9594
vn -0.1646 -0.2326 -0.9585
vn -0.3051 -0.1156 -0.9453
vn 0.3295 -0.4172 -0.8470
vn 0.2109 -0.3496 -0.9128
vn -0.3936 0.0407 -0.9184
vn 0.4310 -0.2751 -0.8594
vn -0.3312 0.2455 -0.9111
vn 0.5032 -0.0249 -0.8638
vn -0.2507 0.3924 -0.8850
vn 0.1055 0.6708 -0.7341
vn -0.4738 -0.1799 -0.8621
vn 0.3131 -0.4191 -0.8523
vn 0.4546 -0.4991 -0.7378
vn 0.5744 -0.5569 -0.6000
vn 0.6086 -0.4733 -0.6369
vn -0.6553 -0.0318 -0.7547
vn 0.7275 -0.2990 -0.6176
vn -0.5810 0.2268 -0.7817
vn 0.7971 -0.0844 -0.5979
vn -0.4838 0.3569 -0.7991
vn 0.5629 0.2407 -0.7907
vn -0.3903 0.5432 -0.7434
vn 0.2984 0.4462 -0.8437
vn -0.2112 0.6099 -0.7638
vn -0.0678 0.7332 -0.6766
vn -0.0467 -0.2378 -0.9702
vn 0.1626 -0.2217 -0.9615
vn 0.3528 -0.3505 -0.8676
vn -0.6034 -0.3073 -0.7359
vn -0.8319 -0.2000 -0.5176
vn -0.8441 0.0478 -0.5341
vn 0.8530 -0.4591 -0.2483
vn 0.9412 -0.2422 -0.2354
vn -0.7251 0.3298 -0.6045
vn 0.3128 0.5603 -0.7670
vn -0.2311 0.8285 -0.5101
vn 0.0153 0.8882 -0.4591
vn 0.2382 -0.2538 -0.9375
vn 0.0895 -0.3071 -0.9475
vn -0.2182 -0.3853 -0.8966
vn -0.4121 -0.3482 -0.8420
vn 0.3946 -0.2306 -0.8895
vn -0.9214 -0.3564 -0.1548
vn 0.7089 -0.6289 -0.3194
vn 0.7474 -0.6134 -0.2551
vn -0.9575 0.0942 -0.2726
vn 0.9023 -0.0318 -0.4300
vn -0.5989 0.5563 -0.5760
vn 0.8600 0.2208 -0.4600
vn -0.4280 0.7150 -0.5527
vn 0.4874 0.5815 -0.6514
vn -0.0844 0.9158 -0.3926
vn 0.2155 0.8385 -0.5005
vn -0.5713 -0.7997 -0.1845
vn -0.1058 -0.5386 -0.8359
vn -0.0750 -0.9370 -0.3412
vn 0.2080 -0.5368 -0.8177
vn 0.1561 -0.6793 -0.7171
vn -0.5269 -0.4643 -0.7119
vn 0.4138 -0.3028 -0.8585
vn 0.5016 -0.6585 -0.5611
vn 0.8414 -0.4355 -0.3199
vn -0.7416 -0.4433 -0.5035
vn 0.7010 -0.3109 -0.6419
vn 0.6827 -0.4251 -0.5943
vn -0.9691 -0.2150 0.1212
vn -0.9873 -0.1193 -0.1045
vn -0.9580 0.2650 -0.1096
vn -0.7730 0.5362 -0.3392
vn 0.0459 0.9660 -0.2546
vn 0.2253 -0.9371 -0.2667
vn 0.4294 -0.8952 -0.1198
vn -0.8779 -0.4740 0.0682
vn 0.8996 -0.2923 -0.3245
vn 0.9217 -0.3626 -0.1378
vn -0.8482 -0.4200 0.3227
vn -0.7750 -0.2970 0.5578
vn -0.8974 -0.2711 0.3482
vn 0.8044 -0.5873 0.0900
vn 0.7288 -0.6821 0.0601
vn 0.8176 -0.5747 0.0350
vn -0.9695 -0.0167 0.2444
vn -0.6221 0.7526 -0.2159
vn -0.4217 0.8737 -0.2426
vn 0.6177 0.7149 -0.3276
vn -0.2085 0.9732 -0.0973
vn -0.0563 0.9694 -0.2389
vn 0.1289 -0.8980 0.4207
vn -0.1916 -0.8316 0.5212
vn -0.4298 -0.5733 0.6976
vn -0.6334 -0.3507 0.6898
vn 0.6448 -0.6481 0.4053
vn 0.8515 -0.3137 0.4201
vn 0.8637 -0.3101 0.3973
vn -0.7303 -0.2034 0.6521
vn -0.9239 -0.1412 0.3557
vn 0.9516 -0.3074 0.0090
vn 0.9792 -0.1235 -0.1610
vn -0.8903 0.4002 0.2171
vn 0.9731 0.1326 -0.1884
vn -0.4728 -0.2549 0.8435
vn -0.6015 -0.2928 0.7433
vn 0.8322 -0.4086 0.3748
vn -0.7812 -0.0682 0.6205
vn -0.8519 0.1084 0.5123
vn -0.7906 0.5954 0.1431
vn -0.6558 0.6697 0.3486
vn 0.2363 0.9432 -0.2335
vn -0.2671 -0.2921 0.9183
vn -0.0422 -0.5046 0.8623
vn 0.3428 -0.6327 0.6944
vn 0.5088 -0.3136 0.8017
vn -0.4499 -0.2723 0.8505
vn 0.6061 -0.3489 0.7148
vn 0.6578 -0.5377 0.5274
vn 0.6057 -0.6932 0.3905
vn -0.6734 0.2989 0.6761
vn -0.4704 0.8670 0.1644
vn 0.8955 0.4410 -0.0596
vn -0.0502 0.9957 -0.0774
vn -0.1465 0.9755 0.1641
vn 0.0863 0.9962 -0.0071
vn 0.1599 -0.3132 0.9361
vn -0.1451 -0.1758 0.9737
vn 0.2562 -0.2241 0.9403
vn -0.2216 -0.2434 0.9443
vn 0.2964 -0.2390 0.9247
vn -0.2892 -0.3972 0.8710
vn 0.3999 -0.4638 0.7906
vn -0.5433 -0.2091 0.8131
vn 0.6386 -0.7096 0.2977
vn -0.5865 -0.0849 0.8055
vn 0.7960 -0.5661 0.2141
vn -0.6547 0.0505 0.7542
vn 0.9908 -0.1139 -0.0738
vn -0.3777 0.8341 0.4020
vn 0.0070 -0.1614 0.9869
vn -0.0766 -0.2147 0.9737
vn 0.0596 -0.3681 0.9279
vn -0.1332 -0.4463 0.8849
vn -0.4458 -0.3191 0.8363
vn 0.4187 -0.7360 0.5320
vn 0.9933 0.0477 0.1048
vn -0.5108 0.5920 0.6234
vn 0.3559 0.9334 -0.0459
vn 0.0170 -0.5959 0.8029
vn -0.1166 -0.5933 0.7965
vn 0.2446 -0.6084 0.7550
vn -0.2920 -0.5034 0.8132
vn 0.4498 -0.6469 0.6158
vn 0.8575 -0.4447 0.2586
vn -0.5514 0.0915 0.8292
vn -0.4875 0.3411 0.8037
vn -0.0161 0.9891 0.1466
vn 0.5693 -0.7078 0.4182
vn -0.5282 -0.1607 0.8338
vn -0.5047 -0.0293 0.8628
vn 0.9726 -0.1590 0.1698
vn -0.2546 0.7797 0.5720
vn -0.1409 0.9227 0.3588
vn -0.1832 -0.4564 0.8707
vn 0.0016 -0.5956 0.8033
vn 0.1580 -0.6289 0.7613
vn -0.3695 -0.3234 0.8712
vn 0.3155 -0.6751 0.6668
vn -0.4502 -0.1688 0.8768
vn 0.9221 -0.2584 0.2879
vn -0.3671 0.5430 0.7552
vn 0.5415 0.8144 0.2088
vn -0.0678 0.8907 0.4496
vn 0.1040 0.9739 0.2019
vn -0.4118 0.1566 0.8977
vn 0.8684 0.3035 0.3921
vn 0.3668 -0.6599 0.6557
vn -0.3841 0.3558 0.8520
vn -0.1967 0.5972 0.7776
vn 0.3056 0.7761 0.5516
vn 0.2265 -0.6565 0.7195
vn 0.6234 -0.6082 0.4914
vn -0.3512 -0.0365 0.9356
vn -0.2934 0.3637 0.8841
vn 0.0320 0.8657 0.4995
vn -0.0049 -0.4746 0.8802
vn -0.2717 -0.2364 0.9329
vn 0.6502 -0.4147 0.6367
vn 0.8708 0.0043 0.4916
vn 0.4344 0.4936 0.7534
vn -0.0374 0.6453 0.7630
vn -0.1397 -0.2999 0.9437
vn 0.1437 -0.4682 0.8718
vn 0.6614 -0.1900 0.7256
vn -0.2107 0.2034 0.9562
vn -0.1316 0.3921 0.9105
vn -0.1764 0.0680 0.9820
vn -0.0803 -0.1501 0.9854
vn 0.3733 -0.4878 0.7891
vn 0.3521 0.2156 0.9108
vn -0.0188 0.4230 0.9059
vn 0.0551 -0.1837 0.9814
vn 0.2535 -0.2698 0.9290
vn 0.1564 0.0161 0.9876
vn -0.0397 0.0956 0.9946
vn -0.0857 0.2552 0.9631
usemtl mtl1.987
s 1
f 1//1 2//2 3//3
f 4//4 1//1 5//5
f 1//1 3//3 5//5
f 6//6 4//4 5//5
f 5//5 3//3 7//7
f 6//6 5//5 8//8
f 8//8 5//5 7//7
f 8//8 7//7 9//9
f 10//10 11//11 1//1
f 1//1 11//11 2//2
f 4//4 10//10 1//1
f 12//12 10//10 4//4
f 3//3 2//2 13//13
f 12//12 4//4 6//6
f 3//3 13//13 7//7
f 7//7 13//13 14//14
f 9//9 7//7 14//14
f 6//6 8//8 15//15
f 15//15 8//8 16//16
f 17//17 9//9 14//14
f 8//8 9//9 17//17
f 16//16 8//8 17//17
f 18//18 11//11 19//19
f 11//11 10//10 19//19
f 18//18 20//20 11//11
f 20//20 21//21 2//2
f 11//11 20//20 2//2
f 2//2 21//21 13//13
f 22//22 23//23 10//10
f 13//13 21//21 24//24
f 22//22 10//10 12//12
f 25//25 22//22 12//12
f 13//13 24//24 26//26
f 25//25 12//12 6//6
f 13//13 26//26 14//14
f 25//25 6//6 27//27
f 27//27 6//6 15//15
f 14//14 26//26 28//28
f 28//28 17//17 14//14
f 16//16 17//17 29//29
f 19//19 10//10 23//23
f 30//30 21//21 18//18
f 20//20 18//18 21//21
f 22//22 31//31 23//23
f 31//31 22//22 32//32
f 33//33 22//22 34//34
f 21//21 30//30 24//24
f 24//24 30//30 35//35
f 22//22 25//25 34//34
f 25//25 36//36 34//34
f 24//24 35//35 37//37
f 24//24 37//37 26//26
f 27//27 36//36 25//25
f 38//38 36//36 27//27
f 37//37 39//39 26//26
f 27//27 15//15 40//40
f 26//26 39//39 28//28
f 39//39 41//41 28//28
f 15//15 42//42 40//40
f 28//28 41//41 43//43
f 28//28 43//43 17//17
f 29//29 42//42 16//16
f 15//15 16//16 42//42
f 17//17 43//43 44//44
f 29//29 17//17 44//44
f 45//45 18//18 19//19
f 46//46 45//45 19//19
f 23//23 46//46 19//19
f 47//47 46//46 23//23
f 31//31 47//47 23//23
f 18//18 48//48 30//30
f 48//48 49//49 30//30
f 49//49 35//35 30//30
f 50//50 35//35 49//49
f 37//37 35//35 50//50
f 34//34 36//36 51//51
f 52//52 51//51 36//36
f 52//52 36//36 38//38
f 39//39 37//37 53//53
f 38//38 27//27 40//40
f 42//42 54//54 40//40
f 29//29 54//54 42//42
f 44//44 43//43 55//55
f 56//56 29//29 44//44
f 57//57 58//58 46//46
f 59//59 60//60 45//45
f 58//58 59//59 45//45
f 46//46 58//58 45//45
f 61//61 57//57 46//46
f 18//18 60//60 48//48
f 45//45 60//60 18//18
f 61//61 46//46 47//47
f 49//49 48//48 62//62
f 47//47 31//31 32//32
f 32//32 33//33 63//63
f 32//32 22//22 33//33
f 34//34 64//64 33//33
f 34//34 51//51 64//64
f 53//53 37//37 50//50
f 53//53 50//50 65//65
f 52//52 38//38 66//66
f 39//39 53//53 67//67
f 38//38 40//40 66//66
f 66//66 40//40 68//68
f 39//39 67//67 41//41
f 41//41 69//69 43//43
f 54//54 70//70 40//40
f 43//43 69//69 55//55
f 44//44 55//55 71//71
f 72//72 54//54 29//29
f 56//56 44//44 71//71
f 73//73 74//74 75//75
f 74//74 76//76 77//77
f 75//75 74//74 77//77
f 78//78 74//74 73//73
f 58//58 74//74 59//59
f 76//76 74//74 58//58
f 74//74 78//78 59//59
f 76//76 79//79 80//80
f 80//80 79//79 81//81
f 59//59 78//78 60//60
f 79//79 76//76 58//58
f 79//79 58//58 57//57
f 82//82 60//60 78//78
f 61//61 79//79 57//57
f 61//61 83//83 79//79
f 62//62 48//48 82//82
f 60//60 82//82 48//48
f 83//83 61//61 84//84
f 47//47 84//84 61//61
f 32//32 84//84 47//47
f 62//62 85//85 49//49
f 32//32 63//63 84//84
f 33//33 64//64 63//63
f 49//49 86//86 50//50
f 86//86 65//65 50//50
f 87//87 53//53 65//65
f 53//53 88//88 67//67
f 69//69 41//41 67//67
f 40//40 70//70 68//68
f 56//56 72//72 29//29
f 70//70 54//54 72//72
f 72//72 56//56 89//89
f 75//75 77//77 90//90
f 91//91 77//77 76//76
f 76//76 80//80 91//91
f 78//78 92//92 82//82
f 79//79 93//93 81//81
f 79//79 83//83 93//93
f 94//94 93//93 83//83
f 82//82 95//95 62//62
f 62//62 96//96 97//97
f 94//94 83//83 84//84
f 94//94 84//84 98//98
f 85//85 62//62 97//97
f 84//84 63//63 98//98
f 85//85 86//86 49//49
f 63//63 64//64 99//99
f 100//100 99//99 64//64
f 86//86 101//101 65//65
f 87//87 88//88 53//53
f 69//69 67//67 102//102
f 69//69 102//102 103//103
f 55//55 69//69 103//103
f 68//68 70//70 104//104
f 55//55 103//103 105//105
f 71//71 55//55 105//105
f 70//70 72//72 104//104
f 56//56 71//71 106//106
f 56//56 106//106 89//89
f 90//90 107//107 75//75
f 73//73 108//108 109//109
f 108//108 73//73 75//75
f 77//77 91//91 90//90
f 110//110 73//73 109//109
f 80//80 111//111 91//91
f 73//73 110//110 92//92
f 73//73 92//92 78//78
f 80//80 81//81 111//111
f 111//111 81//81 112//112
f 112//112 81//81 93//93
f 82//82 92//92 95//95
f 112//112 93//93 113//113
f 93//93 94//94 113//113
f 95//95 96//96 62//62
f 97//97 114//114 85//85
f 99//99 98//98 63//63
f 85//85 115//115 86//86
f 86//86 115//115 101//101
f 100//100 64//64 51//51
f 51//51 52//52 116//116
f 65//65 101//101 87//87
f 52//52 66//66 117//117
f 118//118 88//88 87//87
f 66//66 68//68 117//117
f 67//67 88//88 102//102
f 117//117 68//68 119//119
f 75//75 107//107 108//108
f 90//90 91//91 107//107
f 92//92 120//120 95//95
f 95//95 120//120 121//121
f 95//95 121//121 96//96
f 94//94 122//122 113//113
f 94//94 98//98 122//122
f 97//97 96//96 114//114
f 85//85 114//114 115//115
f 115//115 123//123 101//101
f 51//51 116//116 100//100
f 123//123 124//124 101//101
f 101//101 124//124 87//87
f 88//88 118//118 125//125
f 125//125 102//102 88//88
f 126//126 102//102 125//125
f 68//68 104//104 119//119
f 71//71 105//105 106//106
f 127//127 72//72 89//89
f 72//72 127//127 104//104
f 108//108 128//128 109//109
f 108//108 129//129 128//128
f 107//107 129//129 108//108
f 130//130 129//129 107//107
f 91//91 130//130 107//107
f 109//109 128//128 110//110
f 111//111 131//131 130//130
f 111//111 130//130 91//91
f 110//110 120//120 92//92
f 128//128 120//120 110//110
f 111//111 112//112 131//131
f 112//112 113//113 131//131
f 120//120 132//132 121//121
f 131//131 113//113 133//133
f 121//121 132//132 96//96
f 122//122 133//133 113//113
f 96//96 132//132 114//114
f 122//122 134//134 133//133
f 98//98 135//135 134//134
f 98//98 134//134 122//122
f 98//98 99//99 135//135
f 114//114 123//123 115//115
f 52//52 117//117 116//116
f 124//124 118//118 87//87
f 124//124 136//136 118//118
f 103//103 102//102 137//137
f 102//102 126//126 137//137
f 103//103 137//137 105//105
f 119//119 104//104 138//138
f 139//139 105//105 140//140
f 106//106 105//105 139//139
f 127//127 89//89 141//141
f 129//129 130//130 142//142
f 129//129 143//143 128//128
f 142//142 143//143 129//129
f 130//130 131//131 142//142
f 142//142 131//131 144//144
f 143//143 120//120 128//128
f 143//143 145//145 120//120
f 131//131 133//133 146//146
f 144//144 131//131 146//146
f 120//120 145//145 132//132
f 145//145 147//147 132//132
f 134//134 148//148 133//133
f 132//132 149//149 114//114
f 99//99 150//150 135//135
f 150//150 99//99 100//100
f 151//151 114//114 149//149
f 123//123 114//114 151//151
f 152//152 100//100 116//116
f 123//123 153//153 124//124
f 153//153 136//136 124//124
f 117//117 154//154 116//116
f 136//136 125//125 118//118
f 126//126 125//125 136//136
f 117//117 119//119 154//154
f 154//154 119//119 138//138
f 155//155 105//105 137//137
f 105//105 155//155 140//140
f 89//89 106//106 139//139
f 143//143 142//142 156//156
f 142//142 144//144 156//156
f 143//143 157//157 145//145
f 156//156 157//157 143//143
f 158//158 157//157 156//156
f 144//144 146//146 156//156
f 146//146 158//158 156//156
f 146//146 148//148 158//158
f 159//159 147//147 145//145
f 157//157 159//159 145//145
f 158//158 159//159 157//157
f 146//146 133//133 148//148
f 132//132 147//147 160//160
f 160//160 149//149 132//132
f 135//135 150//150 161//161
f 150//150 100//100 152//152
f 123//123 151//151 153//153
f 154//154 138//138 162//162
f 137//137 126//126 163//163
f 104//104 164//164 138//138
f 127//127 164//164 104//104
f 89//89 139//139 141//141
f 127//127 141//141 164//164
f 165//165 166//166 159//159
f 158//158 165//165 159//159
f 158//158 148//148 167//167
f 159//159 168//168 147//147
f 166//166 168//168 159//159
f 167//167 165//165 158//158
f 160//160 147//147 168//168
f 134//134 169//169 148//148
f 135//135 169//169 134//134
f 135//135 161//161 169//169
f 116//116 170//170 152//152
f 171//171 153//153 151//151
f 153//153 171//171 136//136
f 136//136 171//171 172//172
f 136//136 163//163 126//126
f 137//137 163//163 155//155
f 139//139 140//140 173//173
f 141//141 139//139 173//173
f 169//169 167//167 148//148
f 150//150 174//174 161//161
f 160//160 175//175 149//149
f 149//149 175//175 151//151
f 176//176 151//151 175//175
f 171//171 151//151 176//176
f 116//116 154//154 177//177
f 136//136 172//172 163//163
f 155//155 178//178 140//140
f 140//140 178//178 179//179
f 166//166 180//180 168//168
f 165//165 181//181 166//166
f 182//182 165//165 167//167
f 160//160 168//168 183//183
f 184//184 182//182 167//167
f 169//169 184//184 167//167
f 160//160 183//183 185//185
f 175//175 160//160 185//185
f 174//174 150//150 152//152
f 170//170 116//116 186//186
f 172//172 187//187 163//163
f 187//187 155//155 163//163
f 187//187 178//178 155//155
f 138//138 164//164 188//188
f 179//179 189//189 140//140
f 173//173 140//140 189//189
f 164//164 141//141 190//190
f 180//180 166//166 181//181
f 181//181 165//165 182//182
f 168//168 180//180 183//183
f 169//169 161//161 184//184
f 177//177 186//186 116//116
f 172//172 171//171 191//191
f 154//154 162//162 177//177
f 177//177 162//162 192//192
f 162//162 138//138 192//192
f 138//138 188//188 192//192
f 173//173 189//189 190//190
f 141//141 173//173 190//190
f 164//164 190//190 188//188
f 174//174 193//193 161//161
f 185//185 176//176 175//175
f 176//176 191//191 171//171
f 194//194 172//172 191//191
f 194//194 187//187 172//172
f 195//195 178//178 187//187
f 188//188 196//196 192//192
f 178//178 189//189 179//179
f 161//161 197//197 184//184
f 161//161 193//193 197//197
f 174//174 152//152 198//198
f 185//185 199//199 176//176
f 198//198 152//152 170//170
f 200//200 187//187 194//194
f 195//195 189//189 178//178
f 201//201 196//196 190//190
f 190//190 196//196 188//188
f 190//190 189//189 201//201
f 180//180 181//181 202//202
f 202//202 181//181 182//182
f 183//183 180//180 203//203
f 202//202 203//203 180//180
f 184//184 197//197 182//182
f 185//185 183//183 203//203
f 203//203 199//199 185//185
f 193//193 174//174 198//198
f 204//204 198//198 170//170
f 204//204 170//170 186//186
f 199//199 191//191 176//176
f 186//186 177//177 205//205
f 200//200 194//194 191//191
f 192//192 205//205 177//177
f 206//206 205//205 192//192
f 195//195 187//187 200//200
f 192//192 196//196 206//206
f 207//207 189//189 195//195
f 201//201 189//189 207//207
f 197//197 202//202 182//182
f 199//199 203//203 208//208
f 193//193 209//209 197//197
f 204//204 186//186 210//210
f 211//211 191//191 199//199
f 205//205 210//210 186//186
f 211//211 200//200 191//191
f 195//195 200//200 212//212
f 196//196 207//207 206//206
f 196//196 201//201 207//207
f 202//202 208//208 203//203
f 197//197 209//209 202//202
f 209//209 208//208 202//202
f 213//213 199//199 208//208
f 214//214 213//213 208//208
f 215//215 209//209 193//193
f 193//193 198//198 215//215
f 204//204 215//215 198//198
f 213//213 211//211 199//199
f 210//210 205//205 216//216
f 212//212 200//200 211//211
f 216//216 205//205 206//206
f 207//207 212//212 217//217
f 216//216 206//206 217//217
f 207//207 195//195 212//212
f 217//217 206//206 207//207
f 209//209 218//218 208//208
f 218//218 214//214 208//208
f 215//215 219//219 209//209
f 219//219 218//218 209//209
f 215//215 204//204 219//219
f 213//213 214//214 218//218
f 204//204 210//210 219//219
f 210//210 220//220 219//219
f 213//213 221//221 211//211
f 222//222 211//211 221//221
f 210//210 216//216 220//220
f 222//222 212//212 211//211
f 216//216 222//222 220//220
f 222//222 216//216 217//217
f 217//217 212//212 222//222
f 219//219 221//221 218//218
f 218//218 221//221 213//213
f 219//219 220//220 221//221
f 220//220 222//222 221//221
