# Blender v2.92.0 OBJ File: 'convert_to_one_sided.blend'
# www.blender.org
mtllib 123L.mtl
o Cube
v 0.001000 0.001000 -0.001000
v 0.001000 -0.001000 -0.001000
v 0.001000 0.001000 0.001000
v 0.001000 -0.001000 0.001000
v -0.001000 0.001000 -0.001000
v -0.001000 -0.001000 -0.001000
v -0.001000 0.001000 0.001000
v -0.001000 -0.001000 0.001000
vt 0.625000 0.500000
vt 0.875000 0.500000
vt 0.875000 0.750000
vt 0.625000 0.750000
vt 0.375000 0.750000
vt 0.625000 1.000000
vt 0.375000 1.000000
vt 0.375000 0.000000
vt 0.625000 0.000000
vt 0.625000 0.250000
vt 0.375000 0.250000
vt 0.125000 0.500000
vt 0.375000 0.500000
vt 0.125000 0.750000
vn 0.0000 1.0000 0.0000
vn 0.0000 0.0000 1.0000
vn -1.0000 0.0000 0.0000
vn 0.0000 -1.0000 0.0000
vn 1.0000 0.0000 0.0000
vn 0.0000 0.0000 -1.0000
usemtl Material
s off
f 1/1/1 5/2/1 7/3/1 3/4/1
f 4/5/2 3/4/2 7/6/2 8/7/2
f 8/8/3 7/9/3 5/10/3 6/11/3
f 6/12/4 2/13/4 4/5/4 8/14/4
f 2/13/5 1/1/5 3/4/5 4/5/5
f 6/11/6 5/10/6 1/1/6 2/13/6
o 123
v 10.424465 4.777328 3.463826
v 10.388766 4.726459 3.464756
v 10.275667 4.760499 3.469676
v 10.548064 4.809877 3.463276
v 10.534365 4.852437 3.464826
v 10.480965 4.718079 3.464936
v 10.579463 4.902617 3.468126
v 10.630863 4.931766 3.487486
v 10.224869 4.730238 3.477726
v 10.272167 4.651509 3.503675
v 10.438665 4.667979 3.481466
v 10.541464 4.697289 3.493686
v 10.157969 4.787108 3.482826
v 10.630263 4.792438 3.504516
v 10.257968 4.789568 3.479616
v 10.116469 4.839527 3.492216
v 10.481165 4.811598 3.476876
v 10.195668 4.819858 3.497486
v 10.534565 4.872527 3.485196
v 10.624763 4.869617 3.488636
v 10.594163 4.937916 3.494126
v 10.668462 4.887066 3.520455
v 10.401767 4.571361 3.548195
v 10.302867 4.548571 3.569415
v 10.494965 4.603470 3.540795
v 10.130969 4.736909 3.507066
v 10.600764 4.670439 3.549535
v 10.051170 4.826297 3.515516
v 10.377067 4.780068 3.535085
v 10.272768 4.793148 3.507526
v 10.089570 4.874267 3.521785
v 10.032071 4.892457 3.532275
v 10.554964 4.905706 3.583085
v 10.677362 4.953386 3.534075
v 10.652563 4.986195 3.541255
v 10.622764 5.012035 3.555105
v 10.553364 4.597980 3.574865
v 10.113770 4.671370 3.559395
v 10.049271 4.765998 3.544415
v 10.647463 4.691979 3.595114
v 9.977971 4.843377 3.568195
v 10.256968 4.800018 3.548225
v 10.162869 4.843417 3.556505
v 10.487965 4.823897 3.563235
v 9.977872 4.894307 3.568885
v 10.035272 4.909416 3.553935
v 10.603064 4.993145 3.558105
v 10.618764 5.026665 3.582634
v 10.214269 4.579650 3.577095
v 10.684563 4.812958 3.570485
v 10.696962 4.909526 3.572075
v 10.102571 4.889526 3.618954
v 10.013572 4.917946 3.607664
v 10.604663 4.997215 3.640144
v 10.498865 4.515292 3.629184
v 10.385366 4.494562 3.626144
v 10.281268 4.522761 3.608304
v 10.012671 4.770638 3.597084
v 10.315467 4.779718 3.612294
v 10.232769 4.822748 3.641404
v 9.946631 4.894677 3.602114
v 10.685762 4.975875 3.591424
v 10.629264 5.026135 3.630014
v 10.229868 4.531781 3.624934
v 10.155169 4.593210 3.625984
v 10.586064 4.593090 3.624674
v 10.068670 4.690509 3.627244
v 10.680563 4.737729 3.630684
v 10.381166 4.772028 3.622604
v 10.431266 4.789618 3.638774
v 10.698063 4.826087 3.637114
v 9.957102 4.856487 3.623044
v 10.503465 4.841887 3.678653
v 10.539064 4.883167 3.675763
v 9.961862 4.915876 3.632424
v 10.654162 5.008765 3.614514
v 9.946322 4.896106 3.636744
v 10.463766 4.472142 3.660714
v 10.317167 4.487612 3.660754
v 10.069470 4.691179 3.694713
v 10.629663 4.622720 3.683183
v 10.309268 4.791748 3.677573
v 10.696862 4.920756 3.647314
v 10.057071 4.921016 3.667534
v 10.017772 4.922476 3.669443
v 10.678762 4.982695 3.661544
v 10.233269 4.528441 3.657383
v 10.185968 4.595830 3.736372
v 9.997982 4.795008 3.667693
v 10.367867 4.788218 3.681113
v 9.956812 4.874987 3.660454
v 9.962812 4.899436 3.669633
v 10.132569 4.888377 3.707843
v 10.558164 4.913686 3.715303
v 10.620663 5.015655 3.680713
v 10.430965 4.465792 3.688103
v 10.364666 4.474802 3.717943
v 10.496765 4.480652 3.687303
v 10.550963 4.529781 3.690793
v 10.285368 4.524201 3.735413
v 10.663263 4.708669 3.707913
v 10.676163 4.836537 3.718733
v 10.201368 4.849677 3.702623
v 10.682462 4.932516 3.687813
v 10.601563 4.985395 3.693893
v 10.637663 4.992255 3.697003
v 10.300768 4.813148 3.721763
v 10.009171 4.900517 3.707873
v 10.425066 4.476542 3.748292
v 10.502464 4.494332 3.736563
v 10.619563 4.616480 3.757972
v 10.029771 4.775528 3.738853
v 10.407966 4.805628 3.730793
v 10.008772 4.846437 3.725123
v 10.108370 4.883017 3.731073
v 10.663162 4.918256 3.720733
v 10.604064 4.960236 3.725523
v 10.365767 4.506732 3.778892
v 10.573864 4.562231 3.752482
v 10.105969 4.700759 3.778492
v 10.485664 4.836117 3.752492
v 10.088771 4.833807 3.793342
v 10.460965 4.520011 3.797182
v 10.279468 4.564251 3.807692
v 10.633963 4.698079 3.779662
v 10.071370 4.775258 3.789692
v 10.334467 4.804398 3.785502
v 10.220269 4.839868 3.746342
v 10.128070 4.844977 3.781252
v 10.619963 4.940866 3.755132
v 10.637564 4.899117 3.761112
v 10.534864 4.544081 3.792302
v 10.195168 4.639600 3.823562
v 10.440366 4.804048 3.798772
v 10.076771 4.804578 3.792572
v 10.636662 4.810257 3.785722
v 10.249568 4.811108 3.799872
v 10.588863 4.893196 3.777552
v 10.402267 4.562951 3.840241
v 10.587164 4.610700 3.795952
v 10.407066 4.781538 3.829312
v 10.525165 4.847557 3.787682
v 10.203169 4.797718 3.823421
v 10.612364 4.864037 3.792112
v 10.524464 4.597170 3.831861
v 10.140369 4.711549 3.828391
v 10.593663 4.694339 3.819782
v 10.138070 4.753228 3.834701
v 10.500765 4.809937 3.824261
v 10.217968 4.750148 3.853541
v 10.565064 4.824877 3.816062
v 10.206168 4.673779 3.860491
v 10.586264 4.771078 3.827522
v 10.333568 4.748738 3.853631
v 10.280467 4.617730 3.855671
v 10.460066 4.609690 3.862861
v 10.497265 4.668839 3.857781
v 10.473266 4.753958 3.841291
v 10.371466 4.634680 3.872691
v 10.272167 4.661769 3.876851
v 10.393766 4.697389 3.865681
v 10.224069 4.701959 3.865311
v 10.300768 4.697679 3.864211
vn -0.2011 0.5625 -0.8020
vn -0.0490 -0.1462 -0.9880
vn -0.0678 0.1236 -0.9900
vn 0.1852 -0.0580 -0.9810
vn -0.4494 0.5144 -0.7304
vn 0.1431 -0.2721 -0.9516
vn -0.0843 0.3489 -0.9334
vn 0.3838 0.2767 -0.8810
vn -0.1791 -0.2525 -0.9509
vn -0.1938 -0.4922 -0.8487
vn 0.0770 -0.4737 -0.8773
vn 0.3699 -0.4367 -0.8200
vn -0.1912 -0.0008 -0.9815
vn 0.6220 -0.2780 -0.7320
vn 0.1233 0.7244 -0.6783
vn -0.0216 0.4671 -0.8840
vn -0.5641 0.7849 -0.2565
vn 0.3333 0.8825 -0.3318
vn -0.7024 0.6587 -0.2697
vn 0.5002 -0.0923 -0.8610
vn -0.4265 0.6708 -0.6068
vn 0.7592 -0.0722 -0.6469
vn 0.0646 -0.6453 -0.7612
vn -0.1477 -0.6792 -0.7189
vn 0.2592 -0.6125 -0.7468
vn -0.3860 -0.3872 -0.8373
vn 0.6168 -0.5045 -0.6041
vn -0.4731 -0.0876 -0.8767
vn -0.0979 0.9932 -0.0629
vn 0.2650 0.9421 -0.2057
vn 0.3001 0.8411 -0.4501
vn -0.2788 0.6294 -0.7254
vn -0.8175 0.5734 -0.0546
vn 0.7909 0.2990 -0.5340
vn 0.4448 0.7021 -0.5562
vn 0.0597 0.8743 -0.4817
vn 0.4824 -0.6150 -0.6238
vn -0.5742 -0.5949 -0.5624
vn -0.6167 -0.4509 -0.6453
vn 0.7958 -0.4512 -0.4039
vn -0.7763 -0.2788 -0.5654
vn 0.3220 0.9446 -0.0630
vn 0.4322 0.8882 -0.1560
vn -0.6172 0.7864 -0.0244
vn -0.5468 0.5150 -0.6601
vn 0.0753 0.9340 -0.3493
vn -0.7744 0.5674 -0.2801
vn -0.4997 0.8526 -0.1528
vn -0.4037 -0.6614 -0.6321
vn 0.8965 -0.2229 -0.3829
vn 0.9715 0.0340 -0.2345
vn 0.4194 0.8929 -0.1638
vn -0.0844 0.9681 -0.2360
vn -0.7932 0.6068 0.0525
vn 0.4070 -0.7192 -0.5630
vn -0.0241 -0.8261 -0.5630
vn -0.2418 -0.8062 -0.5399
vn -0.7937 -0.5587 -0.2407
vn 0.2341 0.9696 -0.0715
vn 0.4396 0.8823 -0.1679
vn -0.9224 0.1988 -0.3313
vn 0.8670 0.4789 -0.1377
vn 0.1059 0.9909 0.0835
vn -0.4691 -0.8215 -0.3242
vn -0.6764 -0.7249 -0.1303
vn 0.6781 -0.6308 -0.3772
vn -0.7777 -0.6183 -0.1135
vn 0.9403 -0.3229 -0.1076
vn -0.0881 0.9917 -0.0941
vn -0.3753 0.9210 -0.1043
vn 0.9928 -0.1073 0.0536
vn -0.9232 -0.3830 -0.0309
vn -0.6506 0.7558 -0.0742
vn -0.7866 0.6167 -0.0284
vn -0.5075 0.8610 0.0352
vn 0.5770 0.8162 -0.0307
vn -0.9687 0.1761 0.1749
vn 0.2108 -0.8921 -0.3997
vn -0.3060 -0.9427 -0.1327
vn -0.7570 -0.6201 0.2061
vn 0.8373 -0.5431 -0.0627
vn 0.2681 0.9276 -0.2602
vn 0.9807 0.1246 0.1505
vn 0.2232 0.9721 0.0715
vn -0.0728 0.9636 0.2572
vn 0.7995 0.5054 0.3247
vn -0.5533 -0.8223 0.1330
vn -0.6180 -0.7149 0.3272
vn -0.8643 -0.4628 0.1969
vn 0.0029 0.9565 -0.2918
vn -0.8954 -0.2050 0.3953
vn -0.7457 0.3831 0.5451
vn 0.3904 0.9139 0.1110
vn -0.7480 0.6317 0.2036
vn -0.3654 0.8351 0.4111
vn 0.0408 -0.9988 -0.0270
vn -0.2717 -0.9304 0.2459
vn 0.4819 -0.8709 -0.0961
vn 0.6939 -0.7120 -0.1073
vn -0.4689 -0.8187 0.3315
vn 0.9451 -0.2485 0.2121
vn 0.9147 -0.0033 0.4042
vn 0.4305 0.8986 -0.0845
vn 0.8808 0.1901 0.4338
vn -0.7359 0.6000 0.3137
vn 0.4476 0.6988 0.5580
vn 0.2565 0.9513 -0.1710
vn -0.3100 0.7128 0.6292
vn 0.0478 -0.9072 0.4180
vn 0.4403 -0.8464 0.2996
vn 0.8330 -0.4514 0.3201
vn -0.8167 -0.3645 0.4474
vn -0.1833 0.9799 -0.0792
vn -0.7486 0.0267 0.6625
vn 0.1452 0.8712 0.4690
vn 0.7599 0.2747 0.5891
vn -0.4136 0.6532 0.6343
vn -0.2144 -0.7887 0.5762
vn 0.7063 -0.6637 0.2461
vn -0.6916 -0.5367 0.4833
vn -0.5212 0.8415 0.1419
vn -0.2985 0.4542 0.8394
vn 0.1634 -0.7114 0.6835
vn -0.3942 -0.7176 0.5742
vn 0.8254 -0.1734 0.5372
vn -0.6862 -0.1768 0.7056
vn 0.0984 0.9667 0.2361
vn 0.3153 0.9261 0.2070
vn 0.0364 0.7612 0.6475
vn 0.1340 0.5810 0.8028
vn 0.6462 0.3254 0.6903
vn 0.4949 -0.6464 0.5807
vn -0.5494 -0.6029 0.5785
vn -0.2506 0.9041 0.3460
vn -0.5794 0.1281 0.8049
vn 0.7257 0.0785 0.6835
vn 0.1325 0.8284 0.5442
vn -0.3022 0.5924 0.7468
vn -0.0146 -0.5924 0.8055
vn 0.6566 -0.4161 0.6290
vn -0.0387 0.7323 0.6799
vn -0.3618 0.7577 0.5431
vn 0.0360 0.6472 0.7614
vn 0.3289 0.3360 0.8825
vn 0.3689 -0.4100 0.8342
vn -0.6174 -0.3513 0.7039
vn 0.5660 -0.1381 0.8128
vn -0.4196 0.0650 0.9054
vn -0.1401 0.6369 0.7581
vn -0.0800 0.3454 0.9350
vn 0.0071 0.4477 0.8941
vn -0.4095 -0.2907 0.8648
vn 0.3379 0.1443 0.9301
vn 0.0322 0.4646 0.8849
vn -0.2468 -0.5314 0.8104
vn 0.1896 -0.3192 0.9285
vn 0.2376 0.0126 0.9713
vn 0.0585 0.3102 0.9489
vn 0.0176 -0.1309 0.9912
vn -0.1033 -0.0822 0.9912
vn 0.0556 0.1878 0.9806
vn -0.1545 0.1446 0.9774
vn 0.0201 0.2134 0.9768
usemtl mtl1.145
s 1
f 9//7 10//8 11//9
f 10//8 9//7 12//10
f 12//10 9//7 13//11
f 14//12 10//8 12//10
f 13//11 15//13 12//10
f 15//13 16//14 12//10
f 17//15 10//8 18//16
f 19//17 18//16 10//8
f 14//12 19//17 10//8
f 20//18 19//17 14//12
f 11//9 17//15 21//19
f 10//8 17//15 11//9
f 12//10 20//18 14//12
f 22//20 20//18 12//10
f 11//9 21//19 23//21
f 23//21 21//19 24//22
f 9//7 11//9 23//21
f 25//23 13//11 9//7
f 23//21 24//22 26//24
f 13//11 25//23 27//25
f 22//20 12//10 28//26
f 12//10 16//14 28//26
f 13//11 27//25 29//27
f 13//11 29//27 15//13
f 16//14 30//28 28//26
f 16//14 15//13 29//27
f 18//16 31//29 32//30
f 19//17 33//31 31//29
f 19//17 31//29 18//16
f 33//31 19//17 20//18
f 17//15 18//16 34//32
f 17//15 34//32 21//19
f 20//18 22//20 35//33
f 34//32 36//34 21//19
f 23//21 37//35 9//7
f 9//7 37//35 25//23
f 38//36 23//21 26//24
f 37//35 23//21 38//36
f 21//19 36//34 24//22
f 24//22 39//37 26//24
f 24//22 36//34 40//38
f 39//37 24//22 40//38
f 30//28 22//20 28//26
f 29//27 27//25 41//39
f 42//40 30//28 16//14
f 43//41 42//40 16//14
f 16//14 29//27 43//41
f 43//41 29//27 44//42
f 33//31 20//18 45//43
f 35//33 45//43 20//18
f 18//16 46//44 34//32
f 46//44 47//45 34//32
f 22//20 48//46 35//33
f 49//47 36//34 47//45
f 34//32 47//45 36//34
f 38//36 26//24 50//48
f 39//37 51//49 26//24
f 50//48 26//24 51//49
f 27//25 25//23 52//50
f 52//50 41//39 27//25
f 40//38 36//34 53//51
f 39//37 40//38 54//52
f 41//39 55//53 29//27
f 44//42 55//53 56//54
f 29//27 55//53 44//42
f 32//30 57//55 18//16
f 57//55 46//44 18//16
f 22//20 58//56 48//46
f 37//35 38//36 50//48
f 37//35 52//50 25//23
f 22//20 30//28 58//56
f 53//51 36//34 49//47
f 58//56 30//28 59//57
f 39//37 60//58 51//49
f 39//37 54//52 60//58
f 40//38 53//51 61//59
f 54//52 40//38 61//59
f 42//40 59//57 30//28
f 41//39 62//60 55//53
f 55//53 62//60 56//54
f 31//29 33//31 63//61
f 64//62 32//30 31//29
f 32//30 65//63 57//55
f 46//44 66//64 47//45
f 49//47 47//45 66//64
f 37//35 50//48 67//65
f 68//66 50//48 51//49
f 53//51 49//47 69//67
f 42//40 43//41 70//68
f 44//42 56//54 71//69
f 57//55 65//63 72//70
f 73//71 57//55 72//70
f 45//43 63//61 33//31
f 57//55 73//71 46//44
f 45//43 35//33 74//72
f 46//44 75//73 66//64
f 76//74 48//46 58//56
f 37//35 77//75 78//76
f 76//74 58//56 79//77
f 37//35 78//76 52//50
f 79//77 58//56 59//57
f 69//67 49//47 80//78
f 52//50 81//79 41//39
f 81//79 82//80 41//39
f 51//49 60//58 68//66
f 61//59 53//51 83//81
f 59//57 42//40 70//68
f 44//42 84//82 43//41
f 84//82 70//68 43//41
f 44//42 71//69 84//82
f 64//62 65//63 32//30
f 63//61 64//62 31//29
f 46//44 73//71 75//73
f 35//33 48//46 74//72
f 50//48 68//66 67//65
f 37//35 67//65 77//75
f 66//64 80//78 49//47
f 81//79 52//50 78//76
f 80//78 85//83 69//67
f 69//67 85//83 83//81
f 53//51 69//67 83//81
f 54//52 61//59 60//58
f 56//54 62//60 71//69
f 64//62 63//61 86//84
f 87//85 72//70 65//63
f 63//61 45//43 74//72
f 75//73 73//71 88//86
f 89//87 48//46 76//74
f 67//65 68//66 90//88
f 79//77 59//57 91//89
f 61//59 92//90 60//58
f 61//59 83//81 93//91
f 59//57 70//68 91//89
f 70//68 84//82 94//92
f 87//85 65//63 64//62
f 72//70 87//85 95//93
f 95//93 73//71 72//70
f 96//94 73//71 95//93
f 74//72 48//46 89//87
f 75//73 97//95 66//64
f 77//75 67//65 98//96
f 80//78 99//97 85//83
f 99//97 100//98 85//83
f 85//83 100//98 83//81
f 101//99 60//58 92//90
f 102//100 41//39 82//80
f 92//90 61//59 93//91
f 41//39 102//100 62//60
f 91//89 70//68 94//92
f 62//60 103//101 71//69
f 64//62 104//102 87//85
f 87//85 104//102 105//103
f 64//62 86//84 104//102
f 106//104 86//84 63//61
f 107//105 106//104 63//61
f 95//93 87//85 108//106
f 74//72 107//105 63//61
f 73//71 96//94 88//86
f 75//73 88//86 97//95
f 98//96 67//65 90//88
f 77//75 98//96 78//76
f 76//74 79//77 109//107
f 97//95 80//78 66//64
f 110//108 109//107 79//77
f 97//95 99//97 80//78
f 79//77 91//89 110//108
f 68//66 60//58 111//109
f 112//110 110//108 91//89
f 94//92 112//110 91//89
f 113//111 103//101 62//60
f 84//82 114//112 94//92
f 84//82 71//69 114//112
f 106//104 104//102 86//84
f 105//103 108//106 87//85
f 74//72 89//87 107//105
f 109//107 89//87 76//74
f 98//96 90//88 115//113
f 90//88 68//66 115//113
f 115//113 68//66 111//109
f 81//79 102//100 82//80
f 111//109 60//58 101//99
f 100//98 116//114 83//81
f 83//81 116//114 93//91
f 103//101 114//112 71//69
f 104//102 117//115 105//103
f 118//116 104//102 106//104
f 106//104 107//105 118//116
f 96//94 95//93 108//106
f 89//87 109//107 119//117
f 97//95 88//86 120//118
f 121//119 98//96 115//113
f 78//76 98//96 121//119
f 122//120 99//97 97//95
f 99//97 122//120 100//98
f 100//98 122//120 116//114
f 93//91 123//121 92//90
f 101//99 92//90 123//121
f 62//60 102//100 113//111
f 112//110 94//92 124//122
f 124//122 94//92 114//112
f 113//111 125//123 103//101
f 104//102 118//116 117//115
f 105//103 126//124 108//106
f 117//115 126//124 105//103
f 107//105 127//125 118//116
f 107//105 89//87 127//125
f 127//125 89//87 119//117
f 128//126 88//86 96//94
f 88//86 128//126 120//118
f 120//118 122//120 97//95
f 78//76 121//119 81//79
f 81//79 121//119 129//127
f 129//127 102//100 81//79
f 124//122 110//108 112//110
f 116//114 122//120 130//128
f 93//91 116//114 123//121
f 114//112 103//101 125//123
f 131//129 126//124 117//115
f 118//116 131//129 117//115
f 108//106 132//130 96//94
f 109//107 133//131 119//117
f 110//108 133//131 109//107
f 134//132 122//120 120//118
f 115//113 135//133 121//119
f 115//113 111//109 136//134
f 101//99 136//134 111//109
f 101//99 123//121 136//134
f 137//135 123//121 116//114
f 102//100 125//123 113//111
f 125//123 138//136 114//112
f 138//136 139//137 114//112
f 139//137 124//122 114//112
f 108//106 126//124 132//130
f 127//125 140//138 118//116
f 128//126 96//94 141//139
f 121//119 135//133 142//140
f 142//140 129//127 121//119
f 143//141 130//128 122//120
f 115//113 136//134 135//133
f 110//108 124//122 144//142
f 137//135 145//143 123//121
f 136//134 123//121 145//143
f 144//142 124//122 139//137
f 137//135 116//114 130//128
f 146//144 125//123 102//100
f 125//123 146//144 138//136
f 131//129 147//145 126//124
f 118//116 140//138 131//129
f 127//125 148//146 140//138
f 127//125 119//117 148//146
f 141//139 96//94 132//130
f 133//131 148//146 119//117
f 133//131 110//108 144//142
f 120//118 128//126 134//132
f 134//132 143//141 122//120
f 145//143 149//147 135//133
f 142//140 135//133 149//147
f 136//134 145//143 135//133
f 129//127 142//140 150//148
f 130//128 151//149 137//135
f 150//148 102//100 129//127
f 145//143 137//135 151//149
f 150//148 146//144 102//100
f 144//142 139//137 152//150
f 152//150 139//137 138//136
f 131//129 140//138 153//151
f 153//151 147//145 131//129
f 141//139 154//152 128//126
f 155//153 133//131 144//142
f 128//126 154//152 134//132
f 143//141 134//132 156//154
f 142//140 149//147 157//155
f 157//155 150//148 142//140
f 156//154 130//128 143//141
f 130//128 158//156 151//149
f 150//148 159//157 146//144
f 138//136 146//144 152//150
f 152//150 146//144 159//157
f 147//145 132//130 126//124
f 153//151 140//138 148//146
f 148//146 155//153 153//151
f 148//146 133//131 155//153
f 141//139 160//158 154//152
f 155//153 144//142 161//159
f 151//149 162//160 145//143
f 158//156 130//128 156//154
f 149//147 145//143 162//160
f 159//157 161//159 152//150
f 144//142 152//150 161//159
f 150//148 157//155 159//157
f 132//130 147//145 163//161
f 147//145 153//151 164//162
f 132//130 163//161 141//139
f 163//161 160//158 141//139
f 164//162 153//151 165//163
f 153//151 155//153 165//163
f 155//153 161//159 165//163
f 154//152 156//154 134//132
f 154//152 160//158 156//154
f 162//160 166//164 149//147
f 166//164 165//163 161//159
f 166//164 157//155 149//147
f 162//160 151//149 158//156
f 159//157 157//155 166//164
f 161//159 159//157 166//164
f 167//165 163//161 147//145
f 167//165 147//145 164//162
f 167//165 168//166 163//161
f 160//158 163//161 168//166
f 164//162 165//163 167//165
f 165//163 169//167 167//165
f 168//166 170//168 160//158
f 171//169 169//167 162//160
f 165//163 166//164 169//167
f 170//168 156//154 160//158
f 166//164 162//160 169//167
f 158//156 156//154 170//168
f 171//169 158//156 170//168
f 162//160 158//156 171//169
f 167//165 171//169 168//166
f 167//165 169//167 171//169
f 171//169 170//168 168//166
