# Blender v2.92.0 OBJ File: 'convert_to_one_sided.blend'
# www.blender.org
mtllib 126L.mtl
o 126
v 7.591412 6.978839 5.230994
v 7.604102 6.932810 5.238803
v 7.540163 6.977489 5.241134
v 7.567853 7.016459 5.246543
v 7.482374 7.035809 5.245873
v 7.505754 7.053888 5.250853
v 7.662841 6.850031 5.268743
v 7.660272 6.900450 5.262373
v 7.611542 6.874321 5.268543
v 7.552343 6.874420 5.287413
v 7.489594 6.961610 5.275613
v 7.626352 6.963699 5.257113
v 7.460344 7.036379 5.282693
v 7.473723 7.073478 5.273643
v 7.491573 7.092588 5.286023
v 7.539963 7.064988 5.285043
v 7.704561 6.824101 5.283873
v 7.687091 6.911740 5.291243
v 7.621072 6.997919 5.303663
v 7.454674 7.089128 5.350182
v 7.742010 6.763472 5.304963
v 7.718300 6.774532 5.299743
v 7.662921 6.762792 5.319122
v 7.741021 6.805291 5.309143
v 7.484243 6.872381 5.325882
v 7.458244 6.936520 5.336232
v 7.584403 7.064828 5.409241
v 7.509113 7.105288 5.410861
v 7.788750 6.705583 5.332582
v 7.758340 6.703853 5.329482
v 7.817929 6.710263 5.360302
v 7.552513 6.789862 5.346932
v 7.733860 6.863191 5.326062
v 7.692851 6.929830 5.341882
v 7.445284 7.018249 5.464331
v 7.476054 7.095417 5.345422
v 7.763760 6.628004 5.376962
v 7.799989 6.655833 5.351092
v 7.834809 6.637804 5.368021
v 7.770490 6.806791 5.350542
v 7.490444 6.815802 5.361142
v 7.466924 6.832311 5.383471
v 7.748580 6.868980 5.399611
v 7.678221 6.967700 5.444141
v 7.830140 6.594834 5.391322
v 7.863279 6.588334 5.409101
v 7.867889 6.626234 5.419881
v 7.624312 6.702593 5.382152
v 7.824460 6.746382 5.433371
v 7.470164 7.107198 5.477421
v 7.819669 6.558765 5.429201
v 7.855679 6.676373 5.430651
v 7.517273 6.760572 5.403031
v 7.446684 6.895080 5.474751
v 7.858059 6.555225 5.455770
v 7.780050 6.554524 5.471890
v 7.690561 6.629164 5.423902
v 7.615012 6.662893 5.447131
v 7.464224 6.792481 5.473591
v 7.454364 7.082738 5.535210
v 7.490314 7.116218 5.515970
v 7.716561 6.585084 5.492250
v 7.884318 6.577885 5.483070
v 7.517303 6.719182 5.499260
v 7.632432 7.036438 5.554860
v 7.559702 7.088308 5.554719
v 7.875689 6.652473 5.512240
v 7.839729 6.528215 5.507370
v 7.879678 6.536915 5.597549
v 7.671281 6.607434 5.523150
v 7.587233 6.656693 5.549170
v 7.799230 6.808372 5.554559
v 7.436874 6.926600 5.663138
v 7.483794 7.113477 5.633728
v 7.511013 7.107977 5.561610
v 7.768560 6.538725 5.544470
v 7.815989 6.516285 5.585959
v 7.732260 6.578744 5.581919
v 7.465904 6.755492 5.559729
v 7.450394 6.823031 5.589619
v 7.719010 6.931290 5.602189
v 7.847209 6.508475 5.663538
v 7.895678 6.575994 5.597509
v 7.508214 6.711133 5.597039
v 7.662431 6.620064 5.585219
v 7.550473 6.676583 5.624438
v 7.886878 6.663824 5.657238
v 7.783570 6.544655 5.625188
v 7.621032 6.648063 5.622118
v 7.899938 6.603384 5.667338
v 7.459344 7.101187 5.671638
v 7.469644 6.761252 5.652838
v 7.444964 7.051128 5.698997
v 7.529023 7.107298 5.687128
v 7.783949 6.547985 5.697658
v 7.757150 6.577704 5.657609
v 7.681911 6.618934 5.658168
v 7.593302 6.656653 5.686518
v 7.445734 6.816421 5.697927
v 7.592282 7.070908 5.694968
v 7.809433 6.515184 5.699999
v 7.676532 6.991320 5.699999
v 7.735688 6.910214 5.699999
v 7.437465 6.918532 5.699999
v 7.444996 7.051371 5.699999
v 7.437399 6.939769 5.699999
v 7.831265 6.500519 5.699999
v 7.899422 6.585517 5.699999
v 7.900802 6.604887 5.699999
v 7.487014 7.116012 5.699999
v 7.478718 7.115285 5.699999
v 7.854560 6.512121 5.699999
v 7.845098 6.508026 5.699999
v 7.446115 6.815464 5.699999
v 7.531807 7.106009 5.699999
v 7.527500 7.107963 5.699999
v 7.521379 7.109385 5.699999
v 7.793174 6.535988 5.699999
v 7.897675 6.564159 5.699999
v 7.461183 7.104442 5.699999
v 7.593116 7.070220 5.699999
v 7.458145 7.100248 5.699999
v 7.591003 7.071773 5.699999
v 7.445648 6.817446 5.699999
v 7.511786 6.703732 5.699999
v 7.779660 6.550791 5.699999
v 7.783582 6.547786 5.699999
v 7.669466 7.000170 5.699999
v 7.826545 6.499859 5.699999
v 7.504854 6.712996 5.699999
v 7.892463 6.551432 5.699999
v 7.546168 6.683582 5.699999
v 7.874497 6.527381 5.699999
v 7.608560 6.647110 5.699999
v 7.516501 6.700013 5.699999
v 7.749567 6.574144 5.699999
v 7.444932 7.050808 5.699999
v 7.467770 6.764371 5.699999
v 7.872561 6.694270 5.699999
v 7.892438 6.644709 5.699999
v 7.726780 6.586662 5.699999
v 7.687437 6.609710 5.699999
v 7.663624 6.620744 5.699999
v 7.888237 6.660336 5.699999
v 7.837425 6.756938 5.699999
v 7.807878 6.516667 5.699999
v 7.618561 7.046770 5.699999
v 7.759196 6.874773 5.699999
v 7.591908 6.656169 5.699999
vn 0.2760 0.2054 -0.9389
vn -0.0009 -0.2600 -0.9656
vn -0.2281 -0.1536 -0.9615
vn 0.3858 0.5598 -0.7333
vn -0.5346 0.0538 -0.8434
vn 0.0587 0.5109 -0.8577
vn 0.0318 -0.3286 -0.9439
vn 0.5093 0.0871 -0.8562
vn -0.2559 -0.4580 -0.8513
vn -0.3595 -0.4695 -0.8064
vn -0.6425 -0.3350 -0.6892
vn 0.6592 0.4811 -0.5780
vn -0.9328 -0.0016 -0.3605
vn -0.5874 0.6089 -0.5331
vn -0.0082 0.9078 -0.4194
vn 0.4993 0.7789 -0.3795
vn 0.3564 -0.0942 -0.9296
vn 0.7381 0.4359 -0.5150
vn 0.6949 0.6564 -0.2937
vn -0.8403 0.5247 -0.1365
vn 0.3073 -0.1714 -0.9361
vn -0.0023 -0.3708 -0.9287
vn -0.2606 -0.5206 -0.8131
vn 0.6785 0.1856 -0.7108
vn -0.6350 -0.4122 -0.6534
vn -0.9349 -0.1680 -0.3126
vn 0.6124 0.7799 -0.1298
vn 0.2232 0.9697 -0.0996
vn 0.4377 -0.1106 -0.8923
vn -0.0398 -0.4276 -0.9031
vn 0.8207 0.2546 -0.5115
vn -0.3961 -0.5804 -0.7115
vn 0.8158 0.4306 -0.3862
vn 0.7706 0.5991 -0.2173
vn -0.9973 0.0521 -0.0511
vn -0.3372 0.9280 -0.1583
vn -0.2807 -0.6505 -0.7057
vn 0.0814 -0.4418 -0.8934
vn 0.5861 -0.1776 -0.7905
vn 0.8418 0.3904 -0.3728
vn -0.5980 -0.5647 -0.5688
vn -0.8703 -0.3791 -0.3144
vn 0.8331 0.5336 -0.1460
vn 0.7710 0.6287 -0.1016
vn 0.1534 -0.6414 -0.7517
vn 0.7118 -0.4148 -0.5668
vn 0.9297 0.1259 -0.3462
vn -0.4192 -0.6579 -0.6257
vn 0.8816 0.4403 -0.1699
vn -0.4770 0.8773 -0.0521
vn -0.0632 -0.8442 -0.5324
vn 0.9129 0.3410 -0.2242
vn -0.6104 -0.6667 -0.4276
vn -0.9910 -0.1061 -0.0822
vn 0.5046 -0.7667 -0.3970
vn -0.3615 -0.8652 -0.3475
vn -0.4408 -0.7669 -0.4664
vn -0.5309 -0.7821 -0.3265
vn -0.8916 -0.4140 -0.1834
vn -0.9331 0.3596 -0.0098
vn 0.0233 0.9992 -0.0337
vn -0.5299 -0.8292 -0.1779
vn 0.9503 -0.2383 -0.2002
vn -0.6598 -0.7198 -0.2160
vn 0.6941 0.7184 -0.0455
vn 0.4807 0.8762 -0.0354
vn 0.9556 0.2744 -0.1072
vn 0.1492 -0.9574 -0.2472
vn 0.7467 -0.6559 -0.1107
vn -0.5039 -0.8630 -0.0353
vn -0.5285 -0.8477 -0.0457
vn 0.8515 0.5213 -0.0563
vn -0.9995 -0.0242 -0.0199
vn -0.1318 0.9911 -0.0176
vn 0.3026 0.9530 -0.0127
vn -0.5400 -0.8414 -0.0189
vn -0.3234 -0.9403 -0.1058
vn -0.5641 -0.8171 0.1191
vn -0.8554 -0.5137 -0.0667
vn -0.9788 -0.2008 -0.0397
vn 0.8054 0.5911 -0.0437
vn 0.3423 -0.9365 -0.0760
vn 0.9890 -0.1222 -0.0834
vn -0.6809 -0.7306 -0.0511
vn -0.4897 -0.8645 0.1134
vn -0.4949 -0.8689 -0.0076
vn 0.9390 0.3404 -0.0489
vn -0.6835 -0.7242 0.0915
vn -0.4266 -0.9035 0.0407
vn 0.9956 0.0735 -0.0583
vn -0.7947 0.6064 -0.0257
vn -0.5219 -0.5306 0.6679
vn -0.4050 -0.6142 0.6773
vn -0.8770 -0.4805 0.0071
vn -0.9857 0.1678 -0.0126
vn 0.3361 0.9415 -0.0243
vn 0.5463 0.4915 0.6782
vn 0.4767 0.5188 0.7097
vn -0.7193 0.0325 0.6939
vn 0.6487 -0.3691 0.6655
vn 0.7410 -0.1645 0.6510
vn -0.6089 -0.7932 0.0099
vn -0.7149 -0.6923 -0.0983
vn -0.4639 -0.8853 -0.0311
vn -0.4496 -0.8913 -0.0585
vn -0.9725 -0.2326 -0.0099
vn 0.5901 0.8073 -0.0073
vn -0.5625 -0.5162 0.6458
vn -0.2365 -0.7497 0.6181
vn 0.7147 -0.0423 0.6981
vn 0.7516 0.0468 0.6580
vn 0.5956 0.3944 0.6998
vn 0.5949 0.4122 0.6900
vn 0.5744 0.4485 0.6848
vn -0.3317 -0.6920 0.6412
vn -0.3338 -0.6831 0.6495
vn 0.6263 0.3734 0.6844
vn -0.3839 -0.6652 0.6404
vn -0.3424 -0.6651 0.6636
vn 0.6975 0.1512 0.7005
vn 0.6806 0.2579 0.6857
vn -0.3669 -0.6460 0.6694
vn 0.2629 -0.6130 0.7451
vn 0.3860 -0.5901 0.7090
vn -0.6691 -0.2403 0.7033
vn -0.7079 -0.0893 0.7006
vn -0.4816 0.5706 0.6652
vn -0.6917 0.3049 0.6547
vn 0.3860 0.6094 0.6926
vn 0.4635 0.5465 0.6975
vn 0.2118 0.7044 0.6775
vn 0.1502 0.7197 0.6779
vn -0.7072 0.0582 0.7047
vn -0.7069 0.1524 0.6907
vn -0.7196 -0.0351 0.6935
vn 0.6333 0.3429 0.6938
vn -0.3414 -0.6003 0.7233
vn 0.5229 -0.5380 0.6612
vn -0.5676 -0.4345 0.6993
vn -0.6351 -0.3475 0.6898
vn -0.4148 -0.6227 0.6635
vn -0.5073 -0.5486 0.6646
vn -0.4593 -0.6010 0.6541
vn -0.5186 -0.4954 0.6968
vn -0.5641 -0.4335 0.7027
vn 0.3333 0.6499 0.6830
vn -0.1869 0.7441 0.6414
vn 0.0320 0.7340 0.6784
vn 0.1656 -0.7696 0.6166
usemtl mtl1.998
s 1
f 1//1 2//2 3//3
f 1//1 3//3 4//4
f 3//3 5//5 6//6
f 6//6 4//4 3//3
f 7//7 2//2 8//8
f 7//7 9//9 2//2
f 3//3 10//10 11//11
f 2//2 9//9 3//3
f 8//8 2//2 1//1
f 1//1 12//12 8//8
f 3//3 11//11 5//5
f 13//13 5//5 11//11
f 4//4 12//12 1//1
f 14//14 5//5 13//13
f 5//5 14//14 6//6
f 14//14 15//15 6//6
f 4//4 6//6 16//16
f 17//17 7//7 8//8
f 3//3 9//9 10//10
f 8//8 12//12 18//18
f 12//12 4//4 19//19
f 4//4 16//16 19//19
f 20//20 14//14 13//13
f 16//16 6//6 15//15
f 21//21 22//22 17//17
f 23//23 10//10 9//9
f 23//23 9//9 7//7
f 22//22 23//23 7//7
f 17//17 22//22 7//7
f 24//24 21//21 17//17
f 24//24 8//8 18//18
f 17//17 8//8 24//24
f 10//10 25//25 11//11
f 26//26 11//11 25//25
f 26//26 13//13 11//11
f 18//18 12//12 19//19
f 16//16 27//27 19//19
f 16//16 15//15 28//28
f 29//29 30//30 21//21
f 30//30 23//23 22//22
f 21//21 30//30 22//22
f 24//24 29//29 21//21
f 24//24 31//31 29//29
f 32//32 10//10 23//23
f 32//32 25//25 10//10
f 24//24 18//18 33//33
f 18//18 34//34 33//33
f 18//18 19//19 34//34
f 13//13 35//35 20//20
f 14//14 20//20 36//36
f 15//15 14//14 36//36
f 28//28 15//15 36//36
f 16//16 28//28 27//27
f 37//37 30//30 38//38
f 38//38 30//30 29//29
f 39//39 38//38 29//29
f 37//37 23//23 30//30
f 31//31 39//39 29//29
f 31//31 24//24 40//40
f 32//32 41//41 25//25
f 24//24 33//33 40//40
f 42//42 25//25 41//41
f 25//25 42//42 26//26
f 33//33 34//34 43//43
f 26//26 35//35 13//13
f 19//19 27//27 44//44
f 45//45 37//37 38//38
f 46//46 45//45 39//39
f 46//46 39//39 47//47
f 39//39 45//45 38//38
f 48//48 23//23 37//37
f 23//23 48//48 32//32
f 40//40 43//43 49//49
f 40//40 33//33 43//43
f 44//44 34//34 19//19
f 50//50 36//36 20//20
f 36//36 50//50 28//28
f 37//37 45//45 51//51
f 39//39 31//31 47//47
f 31//31 49//49 52//52
f 48//48 53//53 32//32
f 32//32 53//53 41//41
f 31//31 40//40 49//49
f 42//42 41//41 53//53
f 42//42 54//54 26//26
f 26//26 54//54 35//35
f 55//55 51//51 45//45
f 45//45 46//46 55//55
f 37//37 56//56 57//57
f 37//37 57//57 48//48
f 57//57 58//58 48//48
f 47//47 31//31 52//52
f 48//48 58//58 53//53
f 42//42 53//53 59//59
f 35//35 60//60 20//20
f 20//20 60//60 50//50
f 28//28 50//50 61//61
f 51//51 56//56 37//37
f 56//56 62//62 57//57
f 46//46 47//47 63//63
f 58//58 57//57 62//62
f 64//64 53//53 58//58
f 42//42 59//59 54//54
f 34//34 44//44 43//43
f 65//65 44//44 27//27
f 66//66 27//27 28//28
f 55//55 46//46 63//63
f 47//47 52//52 67//67
f 52//52 49//49 67//67
f 59//59 53//53 64//64
f 66//66 65//65 27//27
f 56//56 51//51 68//68
f 55//55 68//68 51//51
f 69//69 55//55 63//63
f 63//63 47//47 67//67
f 62//62 70//70 58//58
f 58//58 70//70 71//71
f 49//49 43//43 72//72
f 44//44 72//72 43//43
f 54//54 73//73 35//35
f 50//50 74//74 61//61
f 28//28 61//61 75//75
f 76//76 56//56 77//77
f 77//77 56//56 68//68
f 55//55 69//69 68//68
f 56//56 76//76 62//62
f 70//70 62//62 78//78
f 71//71 64//64 58//58
f 59//59 79//79 80//80
f 59//59 64//64 79//79
f 49//49 72//72 67//67
f 59//59 80//80 54//54
f 65//65 81//81 44//44
f 68//68 69//69 82//82
f 69//69 63//63 83//83
f 78//78 62//62 76//76
f 63//63 67//67 83//83
f 64//64 71//71 84//84
f 85//85 70//70 78//78
f 70//70 85//85 71//71
f 71//71 86//86 84//84
f 64//64 84//84 79//79
f 67//67 72//72 87//87
f 54//54 80//80 73//73
f 44//44 81//81 72//72
f 28//28 75//75 66//66
f 68//68 82//82 77//77
f 76//76 88//88 78//78
f 71//71 85//85 89//89
f 83//83 67//67 90//90
f 61//61 74//74 75//75
f 90//90 67//67 87//87
f 89//89 86//86 71//71
f 91//91 50//50 60//60
f 76//76 77//77 88//88
f 125//92 86//86 135//93
f 92//94 79//79 84//84
f 73//73 93//95 35//35
f 35//35 93//95 60//60
f 60//60 93//95 91//91
f 50//50 91//91 74//74
f 74//74 94//96 75//75
f 128//97 147//98 106//99
f 131//100 83//83 119//101
f 88//88 96//102 78//78
f 88//88 95//103 96//102
f 97//104 85//85 78//78
f 85//85 97//104 89//89
f 89//89 97//104 98//105
f 89//89 98//105 86//86
f 79//79 92//94 80//80
f 80//80 92//94 99//106
f 80//80 99//106 73//73
f 66//66 100//107 65//65
f 66//66 94//96 100//107
f 66//66 75//75 94//96
f 101//108 77//77 129//109
f 108//110 90//90 109//111
f 96//102 97//104 78//78
f 148//112 81//81 103//113
f 102//114 103//113 81//81
f 98//105 143//115 134//116
f 148//112 145//117 72//72
f 141//118 142//119 97//104
f 140//120 87//87 144//121
f 134//116 149//122 98//105
f 113//123 82//82 112//124
f 114//125 124//126 99//106
f 120//127 91//91 122//128
f 123//129 121//130 100//107
f 116//131 94//96 117//132
f 137//133 105//134 93//95
f 104//135 106//99 73//73
f 97//104 142//119 143//115
f 87//87 145//117 139//136
f 87//87 139//136 144//121
f 96//102 141//118 97//104
f 86//86 132//137 135//93
f 98//105 149//122 132//137
f 69//69 131//100 133//138
f 92//94 130//139 138//140
f 100//107 128//97 65//65
f 95//103 136//141 96//102
f 95//103 127//142 126//143
f 125//92 92//94 84//84
f 100//107 121//130 147//98
f 146//144 95//103 88//88
f 95//103 118//145 127//142
f 115//146 100//107 94//96
f 94//96 116//131 115//146
f 138//140 99//106 92//94
f 82//82 133//138 112//124
f 91//91 111//147 74//74
f 110//148 94//96 74//74
f 74//74 111//147 110//148
f 90//90 140//120 109//111
f 90//90 119//101 83//83
f 82//82 129//109 77//77
f 82//82 113//123 107//149
f 106//99 93//95 73//73
f 93//95 122//128 91//91
f 99//106 104//135 73//73
f 81//81 128//97 102//114
f 88//88 101//108 146//144
f 125//92 84//84 86//86
f 147//98 121//130 106//99
f 121//130 123//129 106//99
f 123//129 115//146 137//133
f 115//146 116//131 117//132
f 105//134 115//146 117//132
f 117//132 110//148 122//128
f 122//128 110//148 120//127
f 110//148 111//147 120//127
f 122//128 105//134 117//132
f 105//134 137//133 115//146
f 137//133 106//99 123//129
f 106//99 104//135 128//97
f 104//135 124//126 102//114
f 124//126 114//125 138//140
f 138//140 130//139 103//113
f 130//139 125//92 135//93
f 132//137 130//139 135//93
f 132//137 149//122 148//112
f 149//122 134//116 148//112
f 134//116 143//115 148//112
f 143//115 142//119 145//117
f 148//112 143//115 145//117
f 142//119 141//118 145//117
f 141//118 136//141 139//136
f 145//117 141//118 139//136
f 136//141 126//143 140//120
f 126//143 127//142 109//111
f 136//141 140//120 144//121
f 118//145 146//144 112//124
f 146//144 101//108 113//123
f 146//144 113//123 112//124
f 101//108 129//109 107//149
f 113//123 101//108 107//149
f 112//124 133//138 118//145
f 133//138 131//100 118//145
f 131//100 119//101 108//110
f 118//145 108//110 127//142
f 108//110 109//111 127//142
f 109//111 140//120 126//143
f 144//121 139//136 136//141
f 148//112 103//113 132//137
f 103//113 102//114 124//126
f 138//140 103//113 124//126
f 108//110 118//145 131//100
f 132//137 103//113 130//139
f 102//114 128//97 104//135
f 131//100 69//69 83//83
f 148//112 72//72 81//81
f 98//105 97//104 143//115
f 87//87 72//72 145//117
f 96//102 136//141 141//118
f 86//86 98//105 132//137
f 100//107 147//98 128//97
f 95//103 126//143 136//141
f 125//92 130//139 92//94
f 146//144 118//145 95//103
f 115//146 123//129 100//107
f 138//140 114//125 99//106
f 82//82 69//69 133//138
f 91//91 120//127 111//147
f 110//148 117//132 94//96
f 90//90 87//87 140//120
f 90//90 108//110 119//101
f 82//82 107//149 129//109
f 106//99 137//133 93//95
f 93//95 105//134 122//128
f 99//106 124//126 104//135
f 81//81 65//65 128//97
f 88//88 77//77 101//108
