# Blender v2.92.0 OBJ File: 'convert_to_one_sided.blend'
# www.blender.org
mtllib 12L.mtl
o 12
v 8.832397 4.907576 5.471381
v 8.667358 4.928176 5.476080
v 8.686468 4.985345 5.469501
v 8.814276 4.973635 5.468680
v 8.904145 4.956475 5.480870
v 8.933135 4.895946 5.487990
v 8.513280 4.998675 5.487560
v 8.751737 5.019114 5.480620
v 8.555260 5.045514 5.489050
v 8.662178 5.060774 5.496300
v 8.923175 4.796408 5.563939
v 8.797626 4.849767 5.507840
v 8.937495 4.857586 5.521120
v 8.693528 4.845437 5.534150
v 8.583870 4.922786 5.508940
v 8.980185 4.909576 5.516110
v 8.418941 4.986225 5.514180
v 8.956514 4.967365 5.505740
v 8.997524 4.945445 5.531990
v 8.318482 5.061314 5.525890
v 8.882185 5.008745 5.505651
v 8.406812 5.062894 5.508620
v 8.549130 5.078194 5.507730
v 8.642179 5.080114 5.521430
v 8.775197 5.047154 5.514530
v 8.810226 4.792737 5.593869
v 8.530390 4.902276 5.549860
v 8.398891 4.953745 5.549970
v 8.953495 4.983315 5.526350
v 8.275514 5.013194 5.563550
v 8.319623 5.103074 5.528920
v 8.889326 5.015564 5.560289
v 8.432841 5.092013 5.522690
v 8.517310 5.091494 5.530920
v 8.714317 4.810077 5.585999
v 9.001754 4.826357 5.613978
v 8.971615 4.800807 5.678448
v 8.615429 4.859307 5.576739
v 9.004934 4.868966 5.563619
v 9.021874 4.900556 5.612969
v 8.364802 4.930096 5.601909
v 8.250323 5.118423 5.548800
v 8.714748 5.056604 5.576059
v 8.304343 5.139023 5.553929
v 8.425101 5.113233 5.568179
v 8.766727 4.775958 5.654818
v 8.518520 4.882056 5.657138
v 8.978435 4.955125 5.593749
v 8.216364 5.082793 5.568339
v 8.566210 5.081294 5.580849
v 8.201694 5.159293 5.585589
v 8.319313 5.165802 5.594169
v 8.252523 5.191452 5.604029
v 8.701528 4.802627 5.677088
v 8.638389 4.837067 5.648648
v 9.024814 4.857357 5.659478
v 8.251063 4.970085 5.617599
v 8.199775 5.034754 5.601469
v 8.156895 5.096673 5.618538
v 8.149215 5.171343 5.625899
v 8.189435 5.206952 5.650968
v 8.357053 4.918566 5.691537
v 8.930175 4.986025 5.664028
v 8.793527 5.030734 5.632349
v 8.377942 5.141943 5.650878
v 8.486011 5.095753 5.647358
v 8.283743 5.197502 5.673648
v 8.233624 5.212022 5.662548
v 8.914545 4.790308 5.688168
v 8.270674 4.944915 5.668698
v 8.169585 5.021334 5.652628
v 8.127645 5.074364 5.677958
v 8.648379 5.062504 5.655228
v 8.126005 5.146893 5.686728
v 8.147735 5.191742 5.692988
v 8.197483 4.984022 5.699999
v 8.803945 5.032271 5.699999
v 8.583518 4.855178 5.699999
v 8.409223 5.128397 5.699999
v 8.827340 4.783512 5.699999
v 8.142045 5.046731 5.699999
v 8.128472 5.082321 5.699999
v 8.358325 5.152658 5.699999
v 8.373191 4.915998 5.699999
v 8.344666 4.923755 5.699999
v 8.452810 5.109762 5.699999
v 8.790207 5.035158 5.699999
v 8.526114 5.090916 5.699999
v 8.677769 5.064611 5.699999
v 9.019040 4.837212 5.699999
v 8.244951 5.209600 5.699999
v 8.994398 4.822482 5.699999
v 8.305935 5.183802 5.699999
v 8.280113 5.194872 5.699999
v 8.225759 5.215265 5.699999
v 8.969970 4.800698 5.699999
v 8.975941 4.805510 5.699999
v 8.180863 5.205147 5.699999
v 8.127105 5.130507 5.699999
v 8.130681 5.155989 5.699999
v 8.128830 5.146040 5.699999
v 8.718977 4.797558 5.699999
v 8.894063 4.787830 5.699999
v 8.803966 4.778480 5.699999
v 8.924517 4.792265 5.699999
v 8.683752 4.811267 5.699999
v 8.152487 5.193861 5.699999
v 8.761065 4.781371 5.699999
v 8.146910 5.189702 5.699999
v 8.913604 4.790748 5.699999
v 9.013535 4.925389 5.699999
v 9.005545 4.935987 5.699999
v 9.023419 4.893627 5.699999
v 8.201819 4.981247 5.699999
v 8.644567 4.832038 5.699999
v 8.491819 4.891469 5.699999
v 8.279515 4.945700 5.699999
v 8.535082 4.880403 5.699999
v 8.362212 4.919070 5.699999
v 8.594436 5.076705 5.699999
v 8.919183 4.998794 5.699999
v 9.026336 4.850454 5.699999
v 8.979888 4.952871 5.699999
v 8.194210 4.986549 5.699999
v 8.147024 5.039512 5.699999
v 8.944694 4.985184 5.699999
v 8.818764 5.027162 5.699999
v 9.024751 4.868748 5.699999
v 8.214722 5.214302 5.699999
vn 0.0501 -0.2824 -0.9580
vn -0.1566 -0.3798 -0.9117
vn -0.0403 0.0797 -0.9960
vn 0.0903 0.1833 -0.9789
vn 0.2840 0.2347 -0.9296
vn 0.3386 -0.2870 -0.8961
vn -0.1819 -0.1365 -0.9738
vn 0.1233 0.4928 -0.8613
vn -0.0452 0.3563 -0.9333
vn 0.0967 0.6800 -0.7268
vn 0.2232 -0.8904 -0.3966
vn -0.0711 -0.6652 -0.7432
vn 0.3589 -0.5945 -0.7195
vn -0.2413 -0.7856 -0.5697
vn -0.2485 -0.5870 -0.7705
vn 0.6810 -0.1238 -0.7218
vn -0.2909 -0.4410 -0.8491
vn 0.5113 0.4407 -0.7378
vn 0.8283 0.4489 -0.3353
vn -0.3004 -0.1075 -0.9477
vn 0.3168 0.7579 -0.5703
vn -0.1139 0.2362 -0.9650
vn 0.0229 0.7527 -0.6579
vn 0.1433 0.9678 -0.2071
vn 0.2459 0.9061 -0.3443
vn -0.0264 -0.9444 -0.3277
vn -0.3117 -0.8306 -0.4614
vn -0.3219 -0.6819 -0.6568
vn 0.5441 0.8151 -0.1990
vn -0.4251 -0.4699 -0.7737
vn -0.1173 0.3543 -0.9277
vn 0.3654 0.9307 0.0182
vn 0.0305 0.7022 -0.7114
vn 0.0915 0.9603 -0.2636
vn -0.3222 -0.9018 -0.2882
vn 0.6822 -0.6887 -0.2455
vn 0.4310 -0.9020 -0.0263
vn -0.3800 -0.8878 -0.2596
vn 0.8220 -0.3418 -0.4554
vn 0.9673 0.1995 -0.1564
vn -0.2935 -0.8995 -0.3235
vn -0.3128 0.2475 -0.9170
vn 0.2143 0.9717 0.0990
vn 0.0439 0.6983 -0.7144
vn 0.2595 0.9368 -0.2347
vn -0.1605 -0.9830 -0.0891
vn -0.3141 -0.9473 -0.0631
vn 0.6574 0.7524 0.0401
vn -0.5409 -0.1452 -0.8284
vn 0.1767 0.9824 0.0611
vn -0.4086 0.4448 -0.7970
vn 0.3455 0.8762 -0.3360
vn 0.0769 0.8714 -0.4845
vn -0.4051 -0.9137 -0.0328
vn -0.4082 -0.9069 -0.1040
vn 0.9739 -0.1902 -0.1235
vn -0.4857 -0.7406 -0.4643
vn -0.6140 -0.4417 -0.6542
vn -0.7814 -0.1307 -0.6102
vn -0.7423 0.4483 -0.4980
vn -0.2840 0.9145 -0.2882
vn -0.2598 -0.9640 0.0568
vn 0.4536 0.8876 -0.0802
vn 0.2567 0.9649 0.0554
vn 0.4391 0.8969 -0.0529
vn 0.2755 0.9608 -0.0319
vn 0.3831 0.9225 -0.0460
vn 0.1213 0.9768 -0.1763
vn 0.1262 -0.9919 -0.0158
vn -0.3841 -0.9197 -0.0815
vn -0.7388 -0.5728 -0.3551
vn -0.9443 -0.2705 -0.1875
vn 0.2001 0.9791 -0.0357
vn -0.9829 0.1735 -0.0610
vn -0.6984 0.7141 -0.0480
vn -0.4750 -0.6392 0.6048
vn -0.4151 -0.6661 0.6197
vn 0.0793 -0.7191 0.6904
vn 0.0623 -0.7429 0.6665
vn 0.4931 0.6552 0.5723
vn 0.3740 0.5736 0.7288
vn 0.4384 -0.5445 0.7150
vn 0.6053 -0.5249 0.5984
vn 0.2902 0.7619 0.5790
vn -0.6391 -0.4179 0.6457
vn -0.6807 -0.1163 0.7233
vn 0.1616 0.7138 0.6815
vn 0.2391 0.6528 0.7188
vn -0.6676 0.2291 0.7084
vn -0.5865 0.4272 0.6881
vn 0.3325 0.6085 0.7205
vn 0.3412 0.6238 0.7031
vn 0.1691 0.7522 0.6368
vn 0.1536 0.7195 0.6773
vn -0.6019 -0.4755 0.6415
vn 0.2693 0.6011 0.7525
vn -0.6337 0.0586 0.7714
vn 0.2060 0.6895 0.6944
vn 0.7452 -0.1655 0.6460
vn 0.7287 0.0665 0.6816
vn -0.7043 -0.0310 0.7093
vn 0.1071 -0.6846 0.7210
vn 0.1421 -0.6880 0.7116
vn -0.5051 -0.6043 0.6162
vn 0.2470 0.7054 0.6644
vn -0.2440 -0.5771 0.7794
vn -0.1520 -0.6673 0.7291
vn -0.2502 -0.6350 0.7309
vn 0.7145 0.1144 0.6903
vn 0.5039 0.5565 0.6606
vn 0.6779 0.4078 0.6116
vn -0.3268 0.6394 0.6959
vn -0.2944 -0.6362 0.7131
vn 0.1283 -0.7332 0.6678
vn -0.1983 -0.6964 0.6897
vn -0.2472 -0.6421 0.7257
vn -0.3130 -0.6502 0.6923
vn -0.2437 0.6720 0.6993
vn -0.0882 0.7401 0.6667
vn 0.4561 -0.5192 0.7228
vn 0.3032 -0.7055 0.6406
vn 0.0489 0.7628 0.6448
vn 0.1437 0.7087 0.6907
vn -0.1442 -0.6137 0.7762
vn -0.2166 -0.6184 0.7554
vn -0.1212 -0.6580 0.7432
vn 0.2817 0.6441 0.7112
vn -0.2607 -0.6688 0.6963
vn 0.2060 0.7037 0.6800
usemtl mtl1.992
s 1
f 1//1 2//2 3//3
f 4//4 1//1 3//3
f 5//5 1//1 4//4
f 6//6 1//1 5//5
f 7//7 3//3 2//2
f 4//4 3//3 8//8
f 5//5 4//4 8//8
f 3//3 7//7 9//9
f 8//8 3//3 9//9
f 8//8 9//9 10//10
f 11//11 12//12 13//13
f 1//1 13//13 12//12
f 1//1 12//12 2//2
f 6//6 13//13 1//1
f 14//14 15//15 12//12
f 12//12 15//15 2//2
f 6//6 16//16 13//13
f 17//17 7//7 15//15
f 15//15 7//7 2//2
f 6//6 5//5 16//16
f 5//5 18//18 16//16
f 18//18 19//19 16//16
f 20//20 7//7 17//17
f 21//21 18//18 5//5
f 8//8 21//21 5//5
f 7//7 20//20 22//22
f 7//7 22//22 9//9
f 23//23 10//10 9//9
f 24//24 10//10 23//23
f 25//25 10//10 24//24
f 8//8 10//10 25//25
f 21//21 8//8 25//25
f 14//14 12//12 26//26
f 26//26 12//12 11//11
f 14//14 27//27 15//15
f 15//15 28//28 17//17
f 18//18 21//21 29//29
f 17//17 30//30 20//20
f 20//20 31//31 22//22
f 29//29 21//21 32//32
f 33//33 22//22 31//31
f 22//22 33//33 9//9
f 33//33 23//23 9//9
f 23//23 33//33 34//34
f 24//24 23//23 34//34
f 26//26 35//35 14//14
f 11//11 36//36 37//37
f 11//11 13//13 36//36
f 35//35 38//38 14//14
f 13//13 39//39 36//36
f 27//27 14//14 38//38
f 13//13 16//16 39//39
f 40//40 39//39 16//16
f 41//41 28//28 27//27
f 15//15 27//27 28//28
f 16//16 19//19 40//40
f 19//19 18//18 29//29
f 17//17 28//28 30//30
f 31//31 20//20 42//42
f 32//32 21//21 25//25
f 32//32 25//25 43//43
f 25//25 24//24 43//43
f 33//33 44//44 45//45
f 34//34 33//33 45//45
f 33//33 31//31 44//44
f 26//26 46//46 35//35
f 27//27 47//47 41//41
f 40//40 19//19 48//48
f 29//29 48//48 19//19
f 30//30 49//49 20//20
f 20//20 49//49 42//42
f 24//24 34//34 50//50
f 24//24 50//50 43//43
f 49//49 51//51 42//42
f 44//44 52//52 45//45
f 34//34 45//45 50//50
f 31//31 42//42 44//44
f 44//44 42//42 51//51
f 52//52 44//44 53//53
f 35//35 46//46 54//54
f 55//55 38//38 35//35
f 56//56 36//36 39//39
f 56//56 39//39 40//40
f 27//27 38//38 47//47
f 57//57 28//28 41//41
f 57//57 58//58 30//30
f 28//28 57//57 30//30
f 49//49 30//30 58//58
f 48//48 29//29 32//32
f 49//49 59//59 51//51
f 59//59 60//60 51//51
f 51//51 53//53 44//44
f 61//61 51//51 60//60
f 53//53 51//51 61//61
f 55//55 47//47 38//38
f 41//41 47//47 62//62
f 32//32 63//63 48//48
f 58//58 59//59 49//49
f 64//64 32//32 43//43
f 45//45 65//65 66//66
f 50//50 45//45 66//66
f 45//45 52//52 65//65
f 53//53 67//67 52//52
f 65//65 52//52 67//67
f 67//67 53//53 68//68
f 68//68 53//53 61//61
f 37//37 69//69 11//11
f 70//70 41//41 62//62
f 70//70 57//57 41//41
f 57//57 71//71 58//58
f 58//58 71//71 59//59
f 59//59 71//71 72//72
f 63//63 32//32 64//64
f 43//43 50//50 73//73
f 43//43 73//73 64//64
f 59//59 74//74 60//60
f 74//74 75//75 60//60
f 61//61 60//60 75//75
f 11//11 69//69 26//26
f 54//54 55//55 35//35
f 76//76 70//70 114//77
f 50//50 66//66 73//73
f 72//72 74//74 59//59
f 80//78 69//69 103//79
f 126//80 123//81 63//63
f 92//82 36//36 90//83
f 126//80 63//63 121//84
f 81//85 82//86 72//72
f 88//87 66//66 86//88
f 75//75 100//89 109//90
f 83//91 67//67 93//92
f 89//93 87//94 73//73
f 82//86 125//95 94//96
f 100//89 74//74 101//97
f 94//96 67//67 91//98
f 122//99 56//56 128//100
f 99//101 101//97 74//74
f 93//92 67//67 94//96
f 103//79 69//69 110//102
f 105//103 110//102 69//69
f 71//71 124//104 125//95
f 63//63 127//105 121//84
f 47//47 118//106 116//107
f 70//70 117//108 114//77
f 56//56 113//109 128//100
f 63//63 112//110 48//48
f 112//110 40//40 48//48
f 40//40 111//111 113//109
f 75//75 109//90 107//112
f 54//54 115//113 55//55
f 46//46 104//114 108//115
f 108//115 54//54 46//46
f 54//54 102//116 106//117
f 75//75 98//118 61//61
f 61//61 98//118 129//119
f 37//37 105//103 69//69
f 37//37 97//120 96//121
f 68//68 129//119 95//122
f 92//82 37//37 36//36
f 68//68 91//98 67//67
f 56//56 90//83 36//36
f 73//73 120//123 89//93
f 66//66 120//123 73//73
f 62//62 117//108 70//70
f 62//62 119//124 85//125
f 116//107 62//62 47//47
f 62//62 84//126 119//124
f 72//72 99//101 74//74
f 125//95 72//72 71//71
f 80//78 46//46 26//26
f 65//65 86//88 66//66
f 65//65 83//91 79//127
f 55//55 78//128 47//47
f 47//47 78//128 118//106
f 64//64 127//105 63//63
f 64//64 87//94 77//129
f 76//76 71//71 57//57
f 76//76 57//57 70//70
f 80//78 26//26 69//69
f 75//75 74//74 100//89
f 83//91 65//65 67//67
f 113//109 111//111 123//81
f 111//111 112//110 123//81
f 123//81 126//80 110//102
f 126//80 121//84 103//79
f 110//102 126//80 103//79
f 90//83 122//99 128//100
f 128//100 113//109 92//82
f 113//109 123//81 92//82
f 121//84 127//105 80//78
f 127//105 77//129 87//94
f 87//94 89//93 115//113
f 89//93 120//123 78//128
f 78//128 120//123 118//106
f 120//123 88//87 118//106
f 127//105 87//94 102//116
f 121//84 80//78 103//79
f 90//83 128//100 92//82
f 96//121 97//120 105//103
f 97//120 92//82 105//103
f 115//113 89//93 78//128
f 88//87 86//88 116//107
f 118//106 88//87 116//107
f 92//82 123//81 105//103
f 110//102 105//103 123//81
f 108//115 104//114 80//78
f 106//117 102//116 87//94
f 102//116 108//115 127//105
f 115//113 106//117 87//94
f 108//115 80//78 127//105
f 86//88 79//127 119//124
f 116//107 86//88 84//126
f 83//91 93//92 114//77
f 93//92 94//96 125//95
f 114//77 124//104 76//76
f 79//127 83//91 117//108
f 86//88 119//124 84//126
f 117//108 85//125 79//127
f 85//125 119//124 79//127
f 114//77 117//108 83//91
f 125//95 124//104 93//92
f 82//86 81//85 125//95
f 101//97 99//101 98//118
f 99//101 82//86 94//96
f 109//90 100//89 107//112
f 100//89 101//97 98//118
f 98//118 107//112 100//89
f 95//122 129//119 91//98
f 129//119 98//118 91//98
f 94//96 91//98 99//101
f 124//104 114//77 93//92
f 91//98 98//118 99//101
f 56//56 40//40 113//109
f 63//63 123//81 112//110
f 112//110 111//111 40//40
f 54//54 106//117 115//113
f 108//115 102//116 54//54
f 75//75 107//112 98//118
f 37//37 96//121 105//103
f 68//68 61//61 129//119
f 92//82 97//120 37//37
f 68//68 95//122 91//98
f 56//56 122//99 90//83
f 66//66 88//87 120//123
f 62//62 85//125 117//108
f 116//107 84//126 62//62
f 72//72 82//86 99//101
f 125//95 81//85 72//72
f 80//78 104//114 46//46
f 65//65 79//127 86//88
f 55//55 115//113 78//128
f 64//64 77//129 127//105
f 64//64 73//73 87//94
f 76//76 124//104 71//71
