# Blender v2.92.0 OBJ File: 'convert_to_one_sided.blend'
# www.blender.org
mtllib 133L.mtl
o 133
v 5.350291 6.765602 5.455921
v 5.281082 6.759682 5.455901
v 5.277772 6.775552 5.459891
v 5.333191 6.797912 5.459761
v 5.418340 6.797582 5.463271
v 5.396101 6.814931 5.466970
v 5.314862 6.716883 5.479681
v 5.438420 6.696433 5.495220
v 5.258203 6.729843 5.488830
v 5.430180 6.765152 5.471171
v 5.251042 6.761822 5.501880
v 5.490999 6.767862 5.486570
v 5.289802 6.790182 5.474320
v 5.466730 6.808862 5.482640
v 5.344911 6.810781 5.475101
v 5.431240 6.819721 5.488050
v 5.265542 6.667773 5.514400
v 5.328731 6.637373 5.520670
v 5.237823 6.644974 5.541460
v 5.553948 6.693713 5.516570
v 5.548538 6.796501 5.522870
v 5.596948 6.741812 5.540570
v 5.294352 6.793161 5.508660
v 5.512489 6.811291 5.518630
v 5.390011 6.814411 5.512490
v 5.264602 6.596524 5.548130
v 5.549438 6.582554 5.546530
v 5.635908 6.646704 5.555729
v 5.233293 6.673733 5.558609
v 5.331581 6.543845 5.555619
v 5.416210 6.594334 5.536700
v 5.675407 6.547965 5.571889
v 5.233162 6.689533 5.587469
v 5.263702 6.726363 5.590139
v 5.640448 6.790992 5.581419
v 5.359701 6.804222 5.534720
v 5.589758 6.814112 5.572519
v 5.506789 6.814742 5.545619
v 5.435060 6.520735 5.558199
v 5.394560 6.364097 5.574559
v 5.278632 6.487216 5.577889
v 5.534389 6.472826 5.565309
v 5.639387 6.480586 5.572619
v 5.701676 6.465326 5.584149
v 5.244102 6.549505 5.577409
v 5.691317 6.712893 5.586589
v 5.359441 6.776922 5.570829
v 5.583658 6.812891 5.600349
v 5.442610 6.802241 5.558760
v 5.408930 5.785474 5.600829
v 5.495499 5.916563 5.589839
v 5.527469 5.763335 5.600479
v 5.677137 5.884303 5.601869
v 5.316342 5.886414 5.601579
v 5.591638 6.073501 5.585799
v 5.480259 6.164060 5.582199
v 5.263232 6.077541 5.601229
v 5.364061 6.136870 5.590709
v 5.698657 6.172040 5.591099
v 5.758556 6.023082 5.611099
v 5.756196 6.216829 5.607599
v 5.573848 6.301568 5.579309
v 5.289542 6.262528 5.596739
v 5.671457 6.359828 5.584819
v 5.731366 6.349328 5.597109
v 5.242942 6.400237 5.603429
v 5.723696 6.542505 5.594969
v 5.228843 6.537775 5.610049
v 5.223323 6.613684 5.654098
v 5.532739 6.802432 5.598719
v 5.385151 5.598807 5.626179
v 5.493959 5.648556 5.620708
v 5.454269 5.597507 5.654778
v 5.405200 5.679246 5.614189
v 5.564419 5.665966 5.623359
v 5.553968 5.646226 5.661388
v 5.330451 5.650076 5.628899
v 5.327211 5.738135 5.619719
v 5.605448 5.728135 5.621038
v 5.604158 5.692506 5.638208
v 5.645187 5.724666 5.636658
v 5.686677 5.777645 5.637308
v 5.274412 5.811484 5.625899
v 5.253492 5.933143 5.623259
v 5.749646 5.877004 5.637858
v 5.788886 6.004261 5.644028
v 5.242433 6.157410 5.626458
v 5.229123 5.942103 5.653588
v 5.782066 6.189310 5.628319
v 5.766476 6.361457 5.616719
v 5.784745 6.517675 5.641828
v 5.226623 6.321268 5.644279
v 5.751596 6.686243 5.626779
v 5.238832 6.680023 5.675448
v 5.345861 6.736322 5.633938
v 5.455600 6.761522 5.614619
v 5.714046 6.776722 5.625529
v 5.627748 6.821342 5.633458
v 5.669557 6.815831 5.638458
v 5.380781 5.587047 5.695398
v 5.329922 5.621577 5.679588
v 5.281122 5.714015 5.671138
v 5.252292 5.836424 5.652328
v 5.799066 6.162050 5.653078
v 5.788245 6.314507 5.643778
v 5.782576 6.686413 5.663118
v 5.276892 6.706772 5.663348
v 5.751766 6.761132 5.654578
v 5.536739 6.757052 5.642928
v 5.727886 6.806881 5.673548
v 5.658297 5.726595 5.668088
v 5.737846 5.805804 5.685508
v 5.776435 5.890193 5.672678
v 5.798525 6.063361 5.685948
v 5.222703 6.110780 5.673348
v 5.798725 6.315858 5.667888
v 5.797575 6.523155 5.687418
v 5.399480 6.724633 5.667718
v 5.476570 6.726153 5.667368
v 5.762366 6.774332 5.692488
v 5.593148 6.794652 5.667358
v 5.646207 6.819331 5.691348
v 5.237813 5.869783 5.691698
v 5.542099 6.748852 5.690878
v 5.691507 6.819931 5.694558
v 5.495193 5.602539 5.699999
v 5.455584 5.594431 5.699999
v 5.244427 5.834361 5.699999
v 5.716424 5.781399 5.699999
v 5.761735 5.854932 5.699999
v 5.456186 6.724308 5.699999
v 5.498799 6.728996 5.699999
v 5.238050 5.866284 5.699999
v 5.737628 5.809519 5.699999
v 5.578882 6.783848 5.699999
v 5.548425 6.755449 5.699999
v 5.771172 6.735747 5.699999
v 5.779623 5.893227 5.699999
v 5.747854 6.786818 5.699999
v 5.760236 6.773423 5.699999
v 5.260809 6.698462 5.699999
v 5.788947 5.971156 5.699999
v 5.801542 6.239481 5.699999
v 5.307478 6.720250 5.699999
v 5.504634 6.731430 5.699999
v 5.798304 6.095378 5.699999
v 5.535192 6.750250 5.699999
v 5.593570 6.799964 5.699999
v 5.782999 6.684062 5.699999
v 5.221010 6.413178 5.699999
v 5.496007 5.602956 5.699999
v 5.221095 6.394383 5.699999
v 5.376425 5.588686 5.699999
v 5.392674 5.587946 5.699999
v 5.539786 5.632723 5.699999
v 5.590280 5.668383 5.699999
v 5.382366 5.587759 5.699999
v 5.224949 6.109232 5.699999
v 5.640053 6.818272 5.699999
v 5.651879 6.818379 5.699999
v 5.220788 6.431225 5.699999
v 5.333726 5.614737 5.699999
v 5.316698 5.635298 5.699999
v 5.801871 6.277989 5.699999
v 5.701007 6.816358 5.699999
v 5.224177 6.624322 5.699999
v 5.688296 6.819183 5.699999
v 5.220880 6.342852 5.699999
v 5.258062 6.696449 5.699999
v 5.789586 6.611706 5.699999
v 5.290012 5.683543 5.699999
v 5.269717 5.731195 5.699999
v 5.801311 6.320017 5.699999
v 5.724754 6.807631 5.699999
v 5.796249 6.483675 5.699999
v 5.235349 6.669706 5.699999
v 5.243578 6.687237 5.699999
v 5.334984 6.732122 5.699999
v 5.234627 5.938033 5.699999
v 5.627836 5.697701 5.699999
v 5.680811 5.744688 5.699999
v 5.362223 6.727731 5.699999
v 5.436114 6.723916 5.699999
vn 0.0493 -0.1217 -0.9913
vn -0.3024 -0.2499 -0.9198
vn -0.5315 0.3454 -0.7734
vn -0.1443 0.5460 -0.8253
vn 0.1850 0.1557 -0.9703
vn 0.0449 0.7496 -0.6604
vn -0.1034 -0.4722 -0.8754
vn 0.1101 -0.3456 -0.9319
vn -0.7111 -0.2082 -0.6716
vn 0.2174 -0.2166 -0.9518
vn -0.8741 0.4772 -0.0905
vn 0.3563 -0.0101 -0.9343
vn -0.4752 0.8289 -0.2952
vn 0.3297 0.5994 -0.7294
vn -0.2113 0.9565 -0.2012
vn 0.0633 0.9803 -0.1869
vn -0.3075 -0.4053 -0.8609
vn -0.0698 -0.4059 -0.9112
vn -0.7398 -0.2460 -0.6262
vn 0.3142 -0.1407 -0.9389
vn 0.4595 0.4916 -0.7397
vn 0.4777 0.1280 -0.8691
vn -0.4020 0.8798 0.2536
vn 0.2458 0.9001 -0.3596
vn -0.1288 0.9731 0.1913
vn -0.3123 -0.3458 -0.8848
vn 0.1219 -0.2152 -0.9689
vn 0.3778 -0.0346 -0.9252
vn -0.9784 0.0298 -0.2046
vn -0.0915 -0.2595 -0.9614
vn 0.0057 -0.3339 -0.9426
vn 0.2749 -0.0523 -0.9601
vn -0.9315 0.3533 0.0871
vn -0.5275 0.7749 0.3483
vn 0.4909 0.5111 -0.7055
vn -0.2073 0.8833 0.4205
vn 0.1861 0.9344 -0.3037
vn -0.0380 0.9911 0.1275
vn 0.0031 -0.1883 -0.9821
vn -0.0666 -0.0881 -0.9939
vn -0.2875 -0.1839 -0.9400
vn 0.0326 -0.1203 -0.9922
vn 0.1264 -0.0944 -0.9875
vn 0.2765 -0.0406 -0.9601
vn -0.6243 -0.2323 -0.7458
vn 0.5221 0.1635 -0.8370
vn -0.2396 0.8025 0.5465
vn -0.1907 0.9651 0.1793
vn -0.1485 0.8704 0.4694
vn -0.0841 -0.0990 -0.9915
vn -0.0113 -0.0478 -0.9988
vn 0.0601 -0.1442 -0.9877
vn 0.2272 -0.1445 -0.9631
vn -0.2177 -0.0834 -0.9724
vn 0.0475 -0.0373 -0.9982
vn -0.0181 -0.0374 -0.9991
vn -0.4281 -0.0230 -0.9035
vn -0.0929 -0.0359 -0.9950
vn 0.1772 -0.0264 -0.9838
vn 0.5071 -0.0811 -0.8581
vn 0.4699 -0.0037 -0.8827
vn 0.0485 -0.0465 -0.9977
vn -0.3204 -0.0444 -0.9463
vn 0.1481 -0.0432 -0.9880
vn 0.3503 -0.0082 -0.9366
vn -0.6709 -0.0932 -0.7356
vn 0.5082 0.0323 -0.8606
vn -0.9521 -0.0711 -0.2974
vn -0.9949 0.0962 -0.0306
vn -0.2782 0.8276 0.4874
vn -0.1956 -0.6977 -0.6891
vn 0.1787 -0.4681 -0.8654
vn 0.2455 -0.9085 -0.3381
vn -0.0826 -0.1528 -0.9848
vn 0.4049 -0.6140 -0.6776
vn 0.5061 -0.8181 -0.2730
vn -0.5630 -0.3358 -0.7551
vn -0.3698 -0.1722 -0.9130
vn 0.2947 -0.2907 -0.9103
vn 0.5588 -0.6611 -0.5007
vn 0.5494 -0.5627 -0.6177
vn 0.5878 -0.4361 -0.6814
vn -0.6208 -0.2164 -0.7535
vn -0.6863 -0.1006 -0.7203
vn 0.6677 -0.3008 -0.6810
vn 0.8711 -0.1097 -0.4787
vn -0.7892 -0.0216 -0.6137
vn -0.9327 -0.0937 -0.3482
vn 0.7458 0.0001 -0.6662
vn 0.6436 0.0224 -0.7650
vn 0.8316 0.0443 -0.5537
vn -0.9465 -0.0309 -0.3212
vn 0.6721 0.1616 -0.7226
vn -0.7980 0.6008 0.0470
vn -0.1887 0.9276 0.3225
vn -0.1464 0.7920 0.5927
vn 0.5730 0.4797 -0.6645
vn -0.1526 0.9870 0.0495
vn 0.2768 0.9091 -0.3112
vn -0.1787 -0.9829 -0.0455
vn -0.6975 -0.6771 -0.2344
vn -0.8626 -0.3323 -0.3815
vn -0.8913 -0.2143 -0.3995
vn 0.9380 -0.0025 -0.3467
vn 0.8576 0.0242 -0.5137
vn 0.9282 0.1769 -0.3273
vn -0.4436 0.8897 0.1082
vn 0.7525 0.3990 -0.5240
vn -0.4098 0.7731 0.4841
vn 0.5523 0.7866 -0.2763
vn 0.6704 -0.7106 -0.2136
vn 0.8199 -0.5445 -0.1767
vn 0.9298 -0.2731 -0.2467
vn 0.9979 -0.0590 -0.0278
vn -0.9929 -0.0268 -0.1158
vn 0.9768 0.0158 -0.2138
vn 0.9983 0.0457 -0.0357
vn 0.0086 0.9670 0.2548
vn -0.1858 0.9367 0.2967
vn 0.8698 0.4932 -0.0173
vn -0.5245 0.8343 0.1700
vn -0.1221 0.9920 0.0315
vn -0.4998 -0.6014 0.6233
vn -0.3245 -0.7168 0.6172
vn 0.4420 -0.6085 0.6590
vn 0.3827 -0.6910 0.6133
vn -0.9866 -0.1509 -0.0625
vn -0.7320 0.0039 0.6813
vn -0.7579 -0.0223 0.6520
vn -0.5008 0.8638 -0.0553
vn 0.6838 0.1560 0.7128
vn 0.7162 0.0940 0.6915
vn 0.1710 0.9849 0.0274
vn 0.0962 0.6862 0.7210
vn -0.2751 0.6279 0.7280
vn -0.7148 0.0992 0.6923
vn -0.7111 -0.3491 0.6103
vn -0.6770 -0.4260 0.6001
vn 0.5237 -0.5534 0.6477
vn 0.4563 -0.5629 0.6892
vn 0.6476 -0.2977 0.7014
vn 0.7717 -0.1690 0.6132
vn 0.7710 -0.0879 0.6308
vn 0.7557 0.0066 0.6549
vn 0.7490 -0.0312 0.6618
vn -0.0667 0.7025 0.7086
vn -0.1585 0.5772 0.8011
vn 0.3525 0.6394 0.6833
vn 0.2423 0.6631 0.7083
vn -0.7137 -0.1180 0.6904
vn -0.7681 -0.1948 0.6100
vn 0.6012 -0.3416 0.7224
vn 0.5426 -0.5056 0.6708
vn 0.7118 -0.0275 0.7018
vn -0.6945 -0.0240 0.7191
vn 0.7725 -0.0041 0.6350
vn 0.6528 0.0339 0.7568
vn -0.5157 0.5161 0.6839
vn -0.4150 0.6502 0.6364
vn -0.2495 0.5775 0.7774
vn -0.4228 0.7458 0.5148
vn -0.5323 0.4856 0.6935
vn -0.4445 0.6445 0.6221
vn -0.1935 0.7270 0.6588
vn 0.0090 0.6650 0.7468
vn 0.5692 0.3087 0.7620
vn 0.4582 0.5101 0.7279
vn 0.0304 0.6866 0.7264
vn -0.6391 0.2208 0.7367
vn -0.7530 -0.2149 0.6219
vn 0.7121 0.0855 0.6968
vn 0.0495 0.6754 0.7358
vn -0.6626 -0.0532 0.7471
vn -0.7524 0.0332 0.6579
vn 0.4749 -0.5770 0.6644
vn 0.0707 -0.7484 0.6594
vn -0.0156 -0.6519 0.7582
vn -0.1062 0.7382 0.6662
vn -0.4230 0.6332 0.6481
vn -0.4242 0.5877 0.6890
vn 0.1423 -0.7010 0.6988
vn 0.3641 -0.7270 0.5822
vn -0.7491 0.0417 0.6611
usemtl mtl1.1004
s 1
f 1//1 2//2 3//3
f 4//4 1//1 3//3
f 5//5 1//1 4//4
f 5//5 4//4 6//6
f 7//7 1//1 8//8
f 2//2 7//7 9//9
f 1//1 7//7 2//2
f 8//8 1//1 10//10
f 2//2 9//9 3//3
f 10//10 1//1 5//5
f 3//3 9//9 11//11
f 12//12 10//10 5//5
f 3//3 11//11 13//13
f 3//3 13//13 4//4
f 14//14 12//12 5//5
f 4//4 13//13 15//15
f 6//6 4//4 15//15
f 6//6 14//14 5//5
f 16//16 6//6 15//15
f 14//14 6//6 16//16
f 17//17 7//7 18//18
f 7//7 8//8 18//18
f 9//9 17//17 19//19
f 7//7 17//17 9//9
f 10//10 12//12 8//8
f 12//12 20//20 8//8
f 21//21 22//22 12//12
f 12//12 14//14 21//21
f 15//15 13//13 23//23
f 14//14 24//24 21//21
f 16//16 15//15 25//25
f 24//24 14//14 16//16
f 26//26 17//17 18//18
f 27//27 8//8 20//20
f 20//20 28//28 27//27
f 9//9 19//19 29//29
f 22//22 28//28 20//20
f 11//11 9//9 29//29
f 12//12 22//22 20//20
f 13//13 11//11 23//23
f 15//15 23//23 25//25
f 26//26 18//18 30//30
f 31//31 30//30 18//18
f 27//27 31//31 8//8
f 17//17 26//26 19//19
f 8//8 31//31 18//18
f 28//28 32//32 27//27
f 29//29 33//33 11//11
f 33//33 34//34 11//11
f 22//22 21//21 35//35
f 23//23 11//11 34//34
f 25//25 23//23 36//36
f 37//37 21//21 24//24
f 16//16 25//25 38//38
f 24//24 16//16 38//38
f 39//39 40//40 30//30
f 40//40 41//41 30//30
f 30//30 41//41 26//26
f 42//42 39//39 27//27
f 43//43 42//42 27//27
f 32//32 43//43 27//27
f 44//44 43//43 32//32
f 45//45 26//26 41//41
f 39//39 30//30 31//31
f 27//27 39//39 31//31
f 26//26 45//45 19//19
f 22//22 46//46 28//28
f 22//22 35//35 46//46
f 36//36 23//23 47//47
f 23//23 34//34 47//47
f 37//37 38//38 48//48
f 24//24 38//38 37//37
f 35//35 21//21 37//37
f 49//49 25//25 36//36
f 49//49 38//38 25//25
f 50//50 51//51 52//52
f 51//51 53//53 52//52
f 50//50 54//54 51//51
f 53//53 51//51 55//55
f 55//55 51//51 56//56
f 54//54 57//57 58//58
f 51//51 54//54 58//58
f 56//56 51//51 58//58
f 53//53 55//55 59//59
f 60//60 53//53 59//59
f 59//59 61//61 60//60
f 62//62 55//55 56//56
f 55//55 62//62 59//59
f 56//56 40//40 62//62
f 63//63 58//58 57//57
f 56//56 58//58 40//40
f 40//40 58//58 63//63
f 59//59 62//62 64//64
f 59//59 64//64 65//65
f 65//65 61//61 59//59
f 62//62 40//40 42//42
f 40//40 63//63 41//41
f 62//62 42//42 43//43
f 41//41 63//63 66//66
f 42//42 40//40 39//39
f 64//64 62//62 43//43
f 65//65 64//64 44//44
f 44//44 64//64 43//43
f 45//45 41//41 66//66
f 44//44 32//32 67//67
f 67//67 32//32 28//28
f 45//45 68//68 19//19
f 19//19 68//68 29//29
f 68//68 69//69 29//29
f 46//46 67//67 28//28
f 29//29 69//69 33//33
f 36//36 47//47 49//49
f 70//70 48//48 38//38
f 70//70 38//38 49//49
f 71//71 72//72 73//73
f 72//72 71//71 74//74
f 72//72 75//75 76//76
f 74//74 71//71 77//77
f 74//74 77//77 78//78
f 79//79 75//75 72//72
f 80//80 75//75 79//79
f 80//80 79//79 81//81
f 72//72 74//74 52//52
f 79//79 72//72 52//52
f 52//52 74//74 50//50
f 74//74 78//78 50//50
f 50//50 78//78 54//54
f 53//53 79//79 52//52
f 82//82 79//79 53//53
f 78//78 83//83 54//54
f 54//54 83//83 84//84
f 53//53 85//85 82//82
f 53//53 60//60 85//85
f 86//86 85//85 60//60
f 54//54 84//84 57//57
f 87//87 84//84 88//88
f 84//84 87//87 57//57
f 89//89 86//86 60//60
f 61//61 89//89 60//60
f 90//90 89//89 61//61
f 66//66 63//63 87//87
f 87//87 63//63 57//57
f 61//61 65//65 90//90
f 90//90 65//65 67//67
f 67//67 91//91 90//90
f 66//66 92//92 68//68
f 44//44 67//67 65//65
f 45//45 66//66 68//68
f 46//46 93//93 67//67
f 33//33 94//94 34//34
f 47//47 95//95 96//96
f 35//35 97//97 46//46
f 93//93 46//46 97//97
f 47//47 96//96 49//49
f 37//37 48//48 98//98
f 99//99 35//35 37//37
f 97//97 35//35 99//99
f 71//71 73//73 100//100
f 77//77 71//71 101//101
f 73//73 72//72 76//76
f 75//75 80//80 76//76
f 77//77 102//102 78//78
f 101//101 102//102 77//77
f 102//102 83//83 78//78
f 103//103 83//83 102//102
f 82//82 81//81 79//79
f 84//84 83//83 103//103
f 88//88 84//84 103//103
f 89//89 104//104 86//86
f 87//87 92//92 66//66
f 89//89 90//90 105//105
f 105//105 90//90 91//91
f 91//91 67//67 93//93
f 93//93 106//106 91//91
f 94//94 33//33 69//69
f 107//107 34//34 94//94
f 108//108 106//106 93//93
f 47//47 34//34 95//95
f 93//93 97//97 108//108
f 96//96 109//109 70//70
f 70//70 49//49 96//96
f 99//99 37//37 98//98
f 108//108 97//97 110//110
f 71//71 100//100 101//101
f 80//80 111//111 76//76
f 80//80 81//81 111//111
f 111//111 81//81 82//82
f 82//82 112//112 111//111
f 82//82 85//85 112//112
f 86//86 113//113 85//85
f 113//113 86//86 114//114
f 88//88 115//115 87//87
f 86//86 104//104 114//114
f 87//87 115//115 92//92
f 89//89 105//105 104//104
f 116//116 104//104 105//105
f 91//91 116//116 105//105
f 116//116 91//91 117//117
f 106//106 117//117 91//91
f 107//107 95//95 34//34
f 96//96 95//95 118//118
f 109//109 96//96 119//119
f 106//106 108//108 120//120
f 109//109 121//121 70//70
f 70//70 121//121 48//48
f 48//48 121//121 98//98
f 97//97 99//99 110//110
f 98//98 122//122 99//99
f 162//123 100//100 153//124
f 155//125 151//126 76//76
f 102//102 123//127 103//103
f 113//113 112//112 85//85
f 103//103 123//127 88//88
f 123//127 115//115 88//88
f 114//114 104//104 116//116
f 161//128 68//68 150//129
f 96//96 118//118 119//119
f 109//109 119//119 124//130
f 121//121 109//109 124//130
f 106//106 137//131 149//132
f 121//121 122//122 98//98
f 110//110 120//120 108//108
f 110//110 99//99 125//133
f 182//134 144//135 166//136
f 171//137 101//101 163//138
f 181//139 180//140 111//111
f 130//141 113//113 138//142
f 113//113 142//143 138//142
f 116//116 173//144 164//145
f 131//146 132//147 119//119
f 99//99 122//122 125//133
f 174//148 125//133 165//149
f 133//150 123//127 128//151
f 134//152 129//153 112//112
f 130//141 134//152 112//112
f 146//154 142//143 114//114
f 133//150 179//155 123//127
f 146//154 114//114 143//156
f 173//144 117//117 175//157
f 161//128 166//136 69//69
f 177//158 169//159 94//94
f 145//160 147//161 124//130
f 135//162 148//163 121//121
f 122//122 148//163 159//164
f 160//165 122//122 159//164
f 140//166 120//120 139//167
f 118//118 182//134 183//168
f 95//95 182//134 118//118
f 94//94 176//169 177//158
f 102//102 171//137 172//170
f 117//117 170//171 175//157
f 166//136 94//94 69//69
f 125//133 167//172 165//149
f 101//101 162//123 163//138
f 125//133 160//165 167//172
f 179//155 115//115 123//127
f 115//115 158//173 168//174
f 111//111 156//175 76//76
f 76//76 156//175 155//125
f 100//100 154//176 157//177
f 100//100 157//177 153//124
f 168//174 92//92 115//115
f 92//92 150//129 68//68
f 106//106 170//171 117//117
f 107//107 178//178 95//95
f 116//116 143//156 114//114
f 94//94 141//179 107//107
f 107//107 141//179 144//135
f 110//110 139//167 120//120
f 120//120 140//166 137//131
f 124//130 147//161 136//180
f 124//130 135//162 121//121
f 119//119 145//160 124//130
f 119//119 183//168 131//146
f 112//112 181//139 111//111
f 102//102 128//151 123//127
f 127//181 100//100 73//73
f 151//126 73//73 76//76
f 73//73 126//182 127//181
f 162//123 101//101 100//100
f 161//128 69//69 68//68
f 106//106 120//120 137//131
f 179//155 133//150 181//139
f 133//150 128//151 180//140
f 181//139 133//150 180//140
f 128//151 172//170 156//175
f 172//170 171//137 155//125
f 156//175 172//170 155//125
f 171//137 163//138 127//181
f 163//138 162//123 154//176
f 162//123 153//124 154//176
f 153//124 157//177 154//176
f 154//176 127//181 163//138
f 127//181 126//182 151//126
f 151//126 155//125 127//181
f 156//175 180//140 128//151
f 181//139 129//153 179//155
f 129//153 134//152 179//155
f 134//152 130//141 179//155
f 130//141 138//142 142//143
f 179//155 130//141 142//143
f 142//143 146//154 158//173
f 179//155 142//143 158//173
f 146//154 143//156 158//173
f 143//156 164//145 168//174
f 158//173 143//156 168//174
f 164//145 173//144 168//174
f 173//144 175//157 150//129
f 175//157 170//171 132//147
f 170//171 149//132 136//180
f 132//147 170//171 145//160
f 149//132 137//131 135//162
f 137//131 140//166 139//167
f 137//131 165//149 167//172
f 139//167 174//148 165//149
f 137//131 139//167 165//149
f 160//165 159//164 135//162
f 159//164 148//163 135//162
f 167//172 160//165 137//131
f 173//144 150//129 152//183
f 155//125 171//137 127//181
f 152//183 168//174 173//144
f 175//157 132//147 161//128
f 170//171 136//180 145//160
f 160//165 135//162 137//131
f 166//136 161//128 183//168
f 161//128 150//129 175//157
f 131//146 161//128 132//147
f 177//158 176//169 169//159
f 176//169 166//136 141//179
f 169//159 176//169 141//179
f 144//135 141//179 166//136
f 161//128 131//146 183//168
f 135//162 136//180 149//132
f 136//180 147//161 145//160
f 182//134 178//178 144//135
f 183//168 182//134 166//136
f 171//137 102//102 101//101
f 130//141 112//112 113//113
f 113//113 114//114 142//143
f 116//116 117//117 173//144
f 174//148 110//110 125//133
f 122//122 121//121 148//163
f 95//95 178//178 182//134
f 166//136 176//169 94//94
f 125//133 122//122 160//165
f 179//155 158//173 115//115
f 111//111 180//140 156//175
f 168//174 152//183 92//92
f 92//92 152//183 150//129
f 106//106 149//132 170//171
f 107//107 144//135 178//178
f 116//116 164//145 143//156
f 94//94 169//159 141//179
f 110//110 174//148 139//167
f 124//130 136//180 135//162
f 119//119 132//147 145//160
f 119//119 118//118 183//168
f 112//112 129//153 181//139
f 102//102 172//170 128//151
f 127//181 154//176 100//100
f 151//126 126//182 73//73
