# Blender v2.92.0 OBJ File: 'convert_to_one_sided.blend'
# www.blender.org
mtllib 135L.mtl
o 135
v 11.719049 6.528866 4.241396
v 11.579651 6.521826 4.231357
v 11.662550 6.556735 4.225937
v 11.501052 6.544705 4.230136
v 11.577351 6.577135 4.224617
v 11.474253 6.570135 4.246187
v 11.613151 6.605804 4.248196
v 11.774749 6.615794 4.252206
v 11.758348 6.649014 4.270076
v 11.477452 6.515965 4.251046
v 11.587051 6.497726 4.270936
v 11.741649 6.514576 4.269666
v 11.860348 6.558435 4.274046
v 11.446452 6.540895 4.266636
v 11.843348 6.586225 4.265326
v 11.880047 6.675904 4.294736
v 11.469253 6.514986 4.284846
v 11.679550 6.496316 4.296656
v 11.447553 6.562595 4.279096
v 11.549851 6.594025 4.281656
v 12.031944 6.656724 4.304575
v 11.698649 6.644714 4.292036
v 11.776948 6.663974 4.292535
v 11.450652 6.540306 4.296865
v 11.852447 6.552355 4.294146
v 11.941546 6.588665 4.307896
v 12.020645 6.609734 4.318265
v 11.590950 6.488596 4.306116
v 11.519753 6.500236 4.305076
v 11.808848 6.556435 4.320086
v 11.503951 6.564185 4.309376
v 12.220743 6.654584 4.354195
v 12.251942 6.696353 4.346045
v 11.654650 6.612844 4.325145
v 11.854548 6.682793 4.323285
v 12.146244 6.700353 4.327605
v 12.058644 6.697483 4.321845
v 12.076144 6.715383 4.344995
v 12.202044 6.713263 4.347795
v 11.482053 6.522806 4.315075
v 11.682149 6.523485 4.324965
v 11.989645 6.603595 4.352195
v 12.087544 6.611954 4.359305
v 12.189843 6.634104 4.372585
v 12.350341 6.692073 4.381454
v 11.766448 6.653694 4.323995
v 11.577751 6.515646 4.323885
v 11.485553 6.540095 4.317255
v 12.349940 6.717713 4.386395
v 12.259142 6.729263 4.377445
v 11.583051 6.552075 4.326635
v 11.673750 6.554365 4.335905
v 11.779848 6.586865 4.345235
v 11.941247 6.622524 4.367424
v 11.737148 6.607454 4.341895
v 12.196043 6.640784 4.399304
v 12.322242 6.674173 4.399435
v 11.847548 6.663064 4.345995
v 12.398641 6.706013 4.418724
v 12.411140 6.720532 4.412024
v 12.034144 6.705343 4.371155
v 12.255842 6.728222 4.401014
v 12.348042 6.724642 4.403255
v 11.901446 6.643734 4.366865
v 12.089344 6.640984 4.396154
v 12.387041 6.692083 4.420834
v 12.006246 6.683173 4.383345
v 12.086744 6.670653 4.404574
v 12.168544 6.706613 4.410894
v 12.370541 6.721252 4.419284
v 12.226942 6.673523 4.426794
v 12.326041 6.683103 4.421744
v 12.372341 6.708582 4.421664
v 12.395841 6.697453 4.390804
v 12.296742 6.714653 4.425974
v 12.225943 6.692463 4.425814
v 12.289942 6.694573 4.422984
vn 0.1915 -0.5736 -0.7964
vn -0.0112 -0.5722 -0.8201
vn 0.0958 -0.0670 -0.9931
vn -0.2783 -0.1005 -0.9552
vn -0.0802 0.4056 -0.9105
vn -0.4587 0.6568 -0.5985
vn -0.1748 0.8215 -0.5427
vn 0.0891 0.3629 -0.9276
vn -0.1058 0.7688 -0.6307
vn -0.3667 -0.7344 -0.5711
vn -0.0281 -0.9469 -0.3202
vn 0.2561 -0.9525 -0.1649
vn 0.3715 -0.7700 -0.5187
vn -0.8907 -0.1966 -0.4098
vn 0.2632 -0.1519 -0.9527
vn -0.0051 0.7443 -0.6678
vn -0.5382 -0.8376 0.0938
vn 0.1977 -0.9523 0.2326
vn -0.7104 0.6780 0.1888
vn -0.3134 0.9395 0.1383
vn 0.1841 0.0376 -0.9822
vn -0.2899 0.9570 0.0117
vn -0.1629 0.9343 -0.3171
vn -0.7954 -0.0232 0.6056
vn 0.3073 -0.9467 0.0968
vn 0.2930 -0.9539 -0.0650
vn 0.3147 -0.7204 -0.6181
vn -0.0090 -0.8969 0.4422
vn -0.2246 -0.8994 0.3750
vn 0.1750 -0.7725 0.6104
vn -0.3301 0.6002 0.7285
vn 0.3057 -0.6324 -0.7118
vn 0.2571 0.1158 -0.9594
vn -0.2735 0.6391 0.7189
vn -0.2086 0.9675 0.1428
vn 0.1085 0.4627 -0.8798
vn 0.0365 0.6391 -0.7683
vn -0.0656 0.9637 -0.2588
vn 0.1019 0.7222 -0.6842
vn -0.3530 -0.4192 0.8364
vn 0.1037 -0.5593 0.8224
vn 0.0941 -0.8698 0.4844
vn 0.1773 -0.9836 0.0318
vn 0.2706 -0.9467 -0.1750
vn 0.4766 -0.4140 -0.7755
vn -0.2789 0.8269 0.4884
vn -0.0688 -0.4015 0.9133
vn -0.3258 0.2078 0.9223
vn 0.3550 0.5322 -0.7686
vn 0.0660 0.9439 -0.3236
vn -0.1336 0.0994 0.9860
vn -0.0482 -0.1568 0.9865
vn -0.0139 -0.3048 0.9523
vn -0.0691 -0.4549 0.8879
vn -0.1524 0.1415 0.9781
vn 0.1206 -0.8567 0.5015
vn 0.3420 -0.9368 -0.0733
vn -0.2450 0.5869 0.7717
vn 0.6076 -0.4447 -0.6580
vn 0.6757 0.7110 0.1947
vn -0.1998 0.8541 0.4803
vn -0.0667 0.9429 0.3263
vn 0.1148 0.9897 -0.0860
vn -0.1856 0.0576 0.9809
vn -0.0783 -0.5453 0.8346
vn 0.5370 -0.5946 0.5985
vn -0.2352 0.4385 0.8674
vn -0.1785 -0.0098 0.9839
vn -0.1748 0.5571 0.8118
vn 0.1049 0.7659 0.6343
vn -0.0190 -0.2905 0.9567
vn 0.1307 -0.5380 0.8327
vn 0.3058 0.0353 0.9514
vn 0.7404 -0.0368 0.6711
vn -0.0232 0.3933 0.9191
vn -0.0806 0.1270 0.9886
vn 0.0482 -0.0598 0.9970
usemtl mtl1.1005
s 1
f 1//1 2//2 3//3
f 3//3 2//2 4//4
f 5//5 4//4 6//6
f 3//3 4//4 5//5
f 5//5 6//6 7//7
f 3//3 5//5 8//8
f 8//8 5//5 7//7
f 8//8 7//7 9//9
f 10//10 2//2 11//11
f 2//2 1//1 11//11
f 2//2 10//10 4//4
f 12//12 1//1 13//13
f 4//4 14//14 6//6
f 10//10 14//14 4//4
f 1//1 15//15 13//13
f 15//15 1//1 3//3
f 15//15 3//3 8//8
f 16//16 8//8 9//9
f 17//17 10//10 11//11
f 11//11 12//12 18//18
f 10//10 17//17 14//14
f 12//12 11//11 1//1
f 6//6 14//14 19//19
f 6//6 19//19 20//20
f 7//7 6//6 20//20
f 21//21 15//15 8//8
f 22//22 7//7 20//20
f 9//9 7//7 22//22
f 21//21 8//8 16//16
f 16//16 9//9 23//23
f 14//14 17//17 24//24
f 13//13 25//25 12//12
f 13//13 26//26 25//25
f 24//24 19//19 14//14
f 26//26 13//13 27//27
f 13//13 15//15 27//27
f 15//15 21//21 27//27
f 23//23 9//9 22//22
f 11//11 28//28 29//29
f 18//18 28//28 11//11
f 29//29 17//17 11//11
f 12//12 30//30 18//18
f 12//12 25//25 30//30
f 24//24 31//31 19//19
f 19//19 31//31 20//20
f 21//21 32//32 27//27
f 33//33 32//32 21//21
f 20//20 34//34 22//22
f 23//23 22//22 35//35
f 33//33 21//21 36//36
f 35//35 16//16 23//23
f 16//16 37//37 21//21
f 36//36 21//21 37//37
f 38//38 16//16 35//35
f 37//37 16//16 38//38
f 39//39 36//36 37//37
f 29//29 40//40 17//17
f 18//18 41//41 28//28
f 18//18 30//30 41//41
f 25//25 42//42 30//30
f 26//26 42//42 25//25
f 26//26 43//43 42//42
f 27//27 43//43 26//26
f 43//43 27//27 44//44
f 31//31 34//34 20//20
f 27//27 32//32 44//44
f 32//32 33//33 45//45
f 46//46 22//22 34//34
f 35//35 22//22 46//46
f 33//33 36//36 39//39
f 39//39 37//37 38//38
f 47//47 40//40 29//29
f 28//28 47//47 29//29
f 41//41 47//47 28//28
f 17//17 40//40 24//24
f 40//40 48//48 24//24
f 48//48 31//31 24//24
f 45//45 33//33 49//49
f 49//49 33//33 39//39
f 39//39 38//38 50//50
f 49//49 39//39 50//50
f 40//40 47//47 51//51
f 51//51 48//48 40//40
f 52//52 51//51 47//47
f 41//41 52//52 47//47
f 41//41 53//53 52//52
f 31//31 48//48 51//51
f 41//41 30//30 53//53
f 53//53 30//30 54//54
f 30//30 42//42 54//54
f 51//51 55//55 34//34
f 56//56 42//42 43//43
f 43//43 44//44 56//56
f 34//34 31//31 51//51
f 32//32 57//57 44//44
f 55//55 58//58 34//34
f 45//45 57//57 32//32
f 58//58 46//46 34//34
f 45//45 59//59 57//57
f 35//35 46//46 58//58
f 59//59 45//45 49//49
f 59//59 49//49 60//60
f 35//35 58//58 61//61
f 35//35 61//61 38//38
f 38//38 61//61 62//62
f 50//50 38//38 62//62
f 63//63 49//49 50//50
f 52//52 55//55 51//51
f 52//52 53//53 55//55
f 53//53 64//64 55//55
f 65//65 54//54 42//42
f 56//56 65//65 42//42
f 64//64 58//58 55//55
f 54//54 64//64 53//53
f 59//59 66//66 57//57
f 58//58 67//67 61//61
f 49//49 63//63 60//60
f 63//63 50//50 62//62
f 44//44 57//57 56//56
f 54//54 68//68 64//64
f 67//67 64//64 68//68
f 64//64 67//67 58//58
f 69//69 61//61 67//67
f 61//61 69//69 62//62
f 70//70 60//60 63//63
f 65//65 56//56 71//71
f 68//68 54//54 65//65
f 57//57 72//72 56//56
f 57//57 66//66 72//72
f 73//73 66//66 74//74
f 69//69 67//67 68//68
f 73//73 74//74 60//60
f 70//70 73//73 60//60
f 62//62 69//69 75//75
f 62//62 75//75 70//70
f 63//63 62//62 70//70
f 71//71 68//68 65//65
f 56//56 72//72 71//71
f 76//76 69//69 68//68
f 71//71 76//76 68//68
f 72//72 66//66 73//73
f 76//76 75//75 69//69
f 75//75 73//73 70//70
f 72//72 77//77 71//71
f 72//72 73//73 77//77
f 77//77 76//76 71//71
f 77//77 73//73 75//75
f 75//75 76//76 77//77
