# Blender v2.92.0 OBJ File: 'convert_to_one_sided.blend'
# www.blender.org
mtllib 135L.mtl
o Cube
v 0.001000 0.001000 -0.001000
v 0.001000 -0.001000 -0.001000
v 0.001000 0.001000 0.001000
v 0.001000 -0.001000 0.001000
v -0.001000 0.001000 -0.001000
v -0.001000 -0.001000 -0.001000
v -0.001000 0.001000 0.001000
v -0.001000 -0.001000 0.001000
vt 0.625000 0.500000
vt 0.875000 0.500000
vt 0.875000 0.750000
vt 0.625000 0.750000
vt 0.375000 0.750000
vt 0.625000 1.000000
vt 0.375000 1.000000
vt 0.375000 0.000000
vt 0.625000 0.000000
vt 0.625000 0.250000
vt 0.375000 0.250000
vt 0.125000 0.500000
vt 0.375000 0.500000
vt 0.125000 0.750000
vn 0.0000 1.0000 0.0000
vn 0.0000 0.0000 1.0000
vn -1.0000 0.0000 0.0000
vn 0.0000 -1.0000 0.0000
vn 1.0000 0.0000 0.0000
vn 0.0000 0.0000 -1.0000
usemtl Material
s off
f 1/1/1 5/2/1 7/3/1 3/4/1
f 4/5/2 3/4/2 7/6/2 8/7/2
f 8/8/3 7/9/3 5/10/3 6/11/3
f 6/12/4 2/13/4 4/5/4 8/14/4
f 2/13/5 1/1/5 3/4/5 4/5/5
f 6/11/6 5/10/6 1/1/6 2/13/6
o 135
v 11.719049 6.528866 4.241396
v 11.579651 6.521826 4.231357
v 11.662550 6.556735 4.225937
v 11.501052 6.544705 4.230136
v 11.577351 6.577135 4.224617
v 11.474253 6.570135 4.246187
v 11.613151 6.605804 4.248196
v 11.774749 6.615794 4.252206
v 11.758348 6.649014 4.270076
v 11.477452 6.515965 4.251046
v 11.587051 6.497726 4.270936
v 11.741649 6.514576 4.269666
v 11.860348 6.558435 4.274046
v 11.446452 6.540895 4.266636
v 11.843348 6.586225 4.265326
v 11.880047 6.675904 4.294736
v 11.469253 6.514986 4.284846
v 11.679550 6.496316 4.296656
v 11.447553 6.562595 4.279096
v 11.549851 6.594025 4.281656
v 12.031944 6.656724 4.304575
v 11.698649 6.644714 4.292036
v 11.776948 6.663974 4.292535
v 11.450652 6.540306 4.296865
v 11.852447 6.552355 4.294146
v 11.941546 6.588665 4.307896
v 12.020645 6.609734 4.318265
v 11.590950 6.488596 4.306116
v 11.519753 6.500236 4.305076
v 11.808848 6.556435 4.320086
v 11.503951 6.564185 4.309376
v 12.220743 6.654584 4.354195
v 12.251942 6.696353 4.346045
v 11.654650 6.612844 4.325145
v 11.854548 6.682793 4.323285
v 12.146244 6.700353 4.327605
v 12.058644 6.697483 4.321845
v 12.076144 6.715383 4.344995
v 12.202044 6.713263 4.347795
v 11.482053 6.522806 4.315075
v 11.682149 6.523485 4.324965
v 11.989645 6.603595 4.352195
v 12.087544 6.611954 4.359305
v 12.189843 6.634104 4.372585
v 12.350341 6.692073 4.381454
v 11.766448 6.653694 4.323995
v 11.577751 6.515646 4.323885
v 11.485553 6.540095 4.317255
v 12.349940 6.717713 4.386395
v 12.259142 6.729263 4.377445
v 11.583051 6.552075 4.326635
v 11.673750 6.554365 4.335905
v 11.779848 6.586865 4.345235
v 11.941247 6.622524 4.367424
v 11.737148 6.607454 4.341895
v 12.196043 6.640784 4.399304
v 12.322242 6.674173 4.399435
v 11.847548 6.663064 4.345995
v 12.398641 6.706013 4.418724
v 12.411140 6.720532 4.412024
v 12.034144 6.705343 4.371155
v 12.255842 6.728222 4.401014
v 12.348042 6.724642 4.403255
v 11.901446 6.643734 4.366865
v 12.089344 6.640984 4.396154
v 12.387041 6.692083 4.420834
v 12.006246 6.683173 4.383345
v 12.086744 6.670653 4.404574
v 12.168544 6.706613 4.410894
v 12.370541 6.721252 4.419284
v 12.226942 6.673523 4.426794
v 12.326041 6.683103 4.421744
v 12.372341 6.708582 4.421664
v 12.395841 6.697453 4.390804
v 12.296742 6.714653 4.425974
v 12.225943 6.692463 4.425814
v 12.289942 6.694573 4.422984
vn 0.1915 -0.5736 -0.7964
vn -0.0112 -0.5722 -0.8201
vn 0.0958 -0.0670 -0.9931
vn -0.2783 -0.1005 -0.9552
vn -0.0802 0.4056 -0.9105
vn -0.4587 0.6568 -0.5985
vn -0.1748 0.8215 -0.5427
vn 0.0891 0.3629 -0.9276
vn -0.1058 0.7688 -0.6307
vn -0.3667 -0.7344 -0.5711
vn -0.0281 -0.9469 -0.3202
vn 0.2561 -0.9525 -0.1649
vn 0.3715 -0.7700 -0.5187
vn -0.8907 -0.1966 -0.4098
vn 0.2632 -0.1519 -0.9527
vn -0.0051 0.7443 -0.6678
vn -0.5382 -0.8376 0.0938
vn 0.1977 -0.9523 0.2326
vn -0.7104 0.6780 0.1888
vn -0.3134 0.9395 0.1383
vn 0.1841 0.0376 -0.9822
vn -0.2899 0.9570 0.0117
vn -0.1629 0.9343 -0.3171
vn -0.7954 -0.0232 0.6056
vn 0.3073 -0.9467 0.0968
vn 0.2930 -0.9539 -0.0650
vn 0.3147 -0.7204 -0.6181
vn -0.0090 -0.8969 0.4422
vn -0.2246 -0.8994 0.3750
vn 0.1750 -0.7725 0.6104
vn -0.3301 0.6002 0.7285
vn 0.3057 -0.6324 -0.7118
vn 0.2571 0.1158 -0.9594
vn -0.2735 0.6391 0.7189
vn -0.2086 0.9675 0.1428
vn 0.1085 0.4627 -0.8798
vn 0.0365 0.6391 -0.7683
vn -0.0656 0.9637 -0.2588
vn 0.1019 0.7222 -0.6842
vn -0.3530 -0.4192 0.8364
vn 0.1037 -0.5593 0.8224
vn 0.0941 -0.8698 0.4844
vn 0.1773 -0.9836 0.0318
vn 0.2706 -0.9467 -0.1750
vn 0.4766 -0.4140 -0.7755
vn -0.2789 0.8269 0.4884
vn -0.0688 -0.4015 0.9133
vn -0.3258 0.2078 0.9223
vn 0.3550 0.5322 -0.7686
vn 0.0660 0.9439 -0.3236
vn -0.1336 0.0994 0.9860
vn -0.0482 -0.1568 0.9865
vn -0.0139 -0.3048 0.9523
vn -0.0691 -0.4549 0.8879
vn -0.1524 0.1415 0.9781
vn 0.1206 -0.8567 0.5015
vn 0.3420 -0.9368 -0.0733
vn -0.2450 0.5869 0.7717
vn 0.6076 -0.4447 -0.6580
vn 0.6757 0.7110 0.1947
vn -0.1998 0.8541 0.4803
vn -0.0667 0.9429 0.3263
vn 0.1148 0.9897 -0.0860
vn -0.1856 0.0576 0.9809
vn -0.0783 -0.5453 0.8346
vn 0.5370 -0.5946 0.5985
vn -0.2352 0.4385 0.8674
vn -0.1785 -0.0098 0.9839
vn -0.1748 0.5571 0.8118
vn 0.1049 0.7659 0.6343
vn -0.0190 -0.2905 0.9567
vn 0.1307 -0.5380 0.8327
vn 0.3058 0.0353 0.9514
vn 0.7404 -0.0368 0.6711
vn -0.0232 0.3933 0.9191
vn -0.0806 0.1270 0.9886
vn 0.0482 -0.0598 0.9970
usemtl mtl1.154
s 1
f 9//7 10//8 11//9
f 11//9 10//8 12//10
f 13//11 12//10 14//12
f 11//9 12//10 13//11
f 13//11 14//12 15//13
f 11//9 13//11 16//14
f 16//14 13//11 15//13
f 16//14 15//13 17//15
f 18//16 10//8 19//17
f 10//8 9//7 19//17
f 10//8 18//16 12//10
f 20//18 9//7 21//19
f 12//10 22//20 14//12
f 18//16 22//20 12//10
f 9//7 23//21 21//19
f 23//21 9//7 11//9
f 23//21 11//9 16//14
f 24//22 16//14 17//15
f 25//23 18//16 19//17
f 19//17 20//18 26//24
f 18//16 25//23 22//20
f 20//18 19//17 9//7
f 14//12 22//20 27//25
f 14//12 27//25 28//26
f 15//13 14//12 28//26
f 29//27 23//21 16//14
f 30//28 15//13 28//26
f 17//15 15//13 30//28
f 29//27 16//14 24//22
f 24//22 17//15 31//29
f 22//20 25//23 32//30
f 21//19 33//31 20//18
f 21//19 34//32 33//31
f 32//30 27//25 22//20
f 34//32 21//19 35//33
f 21//19 23//21 35//33
f 23//21 29//27 35//33
f 31//29 17//15 30//28
f 19//17 36//34 37//35
f 26//24 36//34 19//17
f 37//35 25//23 19//17
f 20//18 38//36 26//24
f 20//18 33//31 38//36
f 32//30 39//37 27//25
f 27//25 39//37 28//26
f 29//27 40//38 35//33
f 41//39 40//38 29//27
f 28//26 42//40 30//28
f 31//29 30//28 43//41
f 41//39 29//27 44//42
f 43//41 24//22 31//29
f 24//22 45//43 29//27
f 44//42 29//27 45//43
f 46//44 24//22 43//41
f 45//43 24//22 46//44
f 47//45 44//42 45//43
f 37//35 48//46 25//23
f 26//24 49//47 36//34
f 26//24 38//36 49//47
f 33//31 50//48 38//36
f 34//32 50//48 33//31
f 34//32 51//49 50//48
f 35//33 51//49 34//32
f 51//49 35//33 52//50
f 39//37 42//40 28//26
f 35//33 40//38 52//50
f 40//38 41//39 53//51
f 54//52 30//28 42//40
f 43//41 30//28 54//52
f 41//39 44//42 47//45
f 47//45 45//43 46//44
f 55//53 48//46 37//35
f 36//34 55//53 37//35
f 49//47 55//53 36//34
f 25//23 48//46 32//30
f 48//46 56//54 32//30
f 56//54 39//37 32//30
f 53//51 41//39 57//55
f 57//55 41//39 47//45
f 47//45 46//44 58//56
f 57//55 47//45 58//56
f 48//46 55//53 59//57
f 59//57 56//54 48//46
f 60//58 59//57 55//53
f 49//47 60//58 55//53
f 49//47 61//59 60//58
f 39//37 56//54 59//57
f 49//47 38//36 61//59
f 61//59 38//36 62//60
f 38//36 50//48 62//60
f 59//57 63//61 42//40
f 64//62 50//48 51//49
f 51//49 52//50 64//62
f 42//40 39//37 59//57
f 40//38 65//63 52//50
f 63//61 66//64 42//40
f 53//51 65//63 40//38
f 66//64 54//52 42//40
f 53//51 67//65 65//63
f 43//41 54//52 66//64
f 67//65 53//51 57//55
f 67//65 57//55 68//66
f 43//41 66//64 69//67
f 43//41 69//67 46//44
f 46//44 69//67 70//68
f 58//56 46//44 70//68
f 71//69 57//55 58//56
f 60//58 63//61 59//57
f 60//58 61//59 63//61
f 61//59 72//70 63//61
f 73//71 62//60 50//48
f 64//62 73//71 50//48
f 72//70 66//64 63//61
f 62//60 72//70 61//59
f 67//65 74//72 65//63
f 66//64 75//73 69//67
f 57//55 71//69 68//66
f 71//69 58//56 70//68
f 52//50 65//63 64//62
f 62//60 76//74 72//70
f 75//73 72//70 76//74
f 72//70 75//73 66//64
f 77//75 69//67 75//73
f 69//67 77//75 70//68
f 78//76 68//66 71//69
f 73//71 64//62 79//77
f 76//74 62//60 73//71
f 65//63 80//78 64//62
f 65//63 74//72 80//78
f 81//79 74//72 82//80
f 77//75 75//73 76//74
f 81//79 82//80 68//66
f 78//76 81//79 68//66
f 70//68 77//75 83//81
f 70//68 83//81 78//76
f 71//69 70//68 78//76
f 79//77 76//74 73//71
f 64//62 80//78 79//77
f 84//82 77//75 76//74
f 79//77 84//82 76//74
f 80//78 74//72 81//79
f 84//82 83//81 77//75
f 83//81 81//79 78//76
f 80//78 85//83 79//77
f 80//78 81//79 85//83
f 85//83 84//82 79//77
f 85//83 81//79 83//81
f 83//81 84//82 85//83
