# Blender v2.92.0 OBJ File: 'convert_to_one_sided.blend'
# www.blender.org
mtllib 143L.mtl
o 143
v 11.841047 6.653284 4.311505
v 11.966146 6.655604 4.311235
v 11.923747 6.643514 4.324095
v 12.075145 6.639954 4.347205
v 11.868446 6.669104 4.310705
v 11.964346 6.678793 4.313155
v 12.110344 6.681394 4.326015
v 11.903547 6.684384 4.324865
v 11.822248 6.672924 4.320325
v 12.204244 6.666114 4.355465
v 11.834348 6.636484 4.326186
v 11.846148 6.658294 4.318026
v 12.260842 6.700404 4.351825
v 12.166244 6.704593 4.334655
v 12.063745 6.697063 4.331895
v 12.195244 6.713203 4.350795
v 12.068645 6.641114 4.370474
v 11.862647 6.661494 4.339945
v 11.871847 6.663644 4.331245
v 12.349041 6.696263 4.382645
v 12.103344 6.711833 4.364745
v 11.946047 6.661774 4.353275
v 12.211143 6.652424 4.385214
v 11.977945 6.682144 4.361985
v 12.349341 6.716893 4.388935
v 12.262941 6.727353 4.384375
v 12.336741 6.680703 4.396344
v 12.392840 6.709613 4.408414
v 12.408640 6.719422 4.411464
v 12.283842 6.730672 4.406744
v 12.353440 6.723602 4.407444
v 12.101045 6.669773 4.401605
v 12.196743 6.656074 4.402244
v 12.302841 6.671533 4.418224
v 11.983747 6.672074 4.368485
v 12.369241 6.693123 4.420914
v 12.173344 6.704792 4.406944
v 12.059344 6.680654 4.383584
v 12.361341 6.725842 4.419064
v 12.351141 6.689313 4.432264
v 12.373940 6.712473 4.415724
v 12.296842 6.726272 4.418674
v 12.257442 6.684803 4.423684
v 12.223543 6.694573 4.421674
v 12.292642 6.704583 4.417884
vn -0.5592 -0.2859 -0.7782
vn 0.0658 -0.4094 -0.9100
vn -0.1382 -0.9904 0.0050
vn 0.0979 -0.9329 -0.3465
vn -0.2386 0.5223 -0.8187
vn 0.0081 0.4868 -0.8735
vn 0.1218 0.0405 -0.9917
vn -0.2404 0.9661 -0.0938
vn -0.2613 -0.8613 0.4357
vn 0.2273 -0.6478 -0.7271
vn -0.7546 0.6260 0.1967
vn -0.6573 0.7469 -0.1004
vn 0.2501 0.1521 -0.9562
vn 0.0803 0.5289 -0.8449
vn -0.0278 0.7750 -0.6313
vn 0.0570 0.8328 -0.5507
vn -0.0786 -0.8927 0.4438
vn -0.4170 0.2276 0.8799
vn -0.4384 0.7820 0.4431
vn 0.4446 -0.3279 -0.8336
vn -0.1395 0.9886 0.0570
vn -0.2302 -0.6241 0.7467
vn 0.1503 -0.9881 -0.0342
vn -0.2580 0.6811 0.6853
vn 0.3365 0.5792 -0.7425
vn 0.0430 0.9504 -0.3079
vn 0.3650 -0.8924 -0.2653
vn 0.8666 -0.4504 -0.2148
vn 0.7028 0.6884 0.1796
vn -0.0567 0.9619 0.2675
vn 0.1432 0.9786 -0.1478
vn -0.2064 -0.1636 0.9647
vn -0.0213 -0.7613 0.6480
vn 0.1471 -0.8615 0.4860
vn -0.2540 0.1054 0.9614
vn 0.5705 -0.6636 0.4839
vn -0.1997 0.5603 0.8039
vn -0.2428 0.3589 0.9013
vn 0.1284 0.6436 0.7545
vn 0.1824 -0.1561 0.9708
vn 0.4324 0.0278 0.9012
vn -0.0821 0.5038 0.8599
vn -0.0605 -0.2251 0.9725
vn -0.1001 0.2588 0.9607
vn -0.0218 0.2653 0.9639
usemtl mtl1.1011
s 1
f 1//1 2//2 3//3
f 3//3 2//2 4//4
f 2//2 1//1 5//5
f 2//2 5//5 6//6
f 7//7 2//2 6//6
f 6//6 5//5 8//8
f 9//9 1//1 3//3
f 4//4 2//2 10//10
f 1//1 11//11 12//12
f 10//10 2//2 7//7
f 13//13 10//10 7//7
f 5//5 1//1 12//12
f 13//13 7//7 14//14
f 5//5 12//12 8//8
f 6//6 15//15 7//7
f 14//14 7//7 15//15
f 15//15 6//6 8//8
f 16//16 14//14 15//15
f 3//3 4//4 17//17
f 11//11 18//18 19//19
f 12//12 11//11 19//19
f 10//10 13//13 20//20
f 8//8 12//12 19//19
f 13//13 14//14 16//16
f 15//15 8//8 21//21
f 16//16 15//15 21//21
f 3//3 17//17 22//22
f 4//4 23//23 17//17
f 3//3 22//22 9//9
f 10//10 23//23 4//4
f 8//8 19//19 24//24
f 20//20 13//13 25//25
f 25//25 13//13 16//16
f 8//8 24//24 21//21
f 16//16 21//21 26//26
f 25//25 16//16 26//26
f 9//9 22//22 18//18
f 10//10 27//27 23//23
f 20//20 27//27 10//10
f 20//20 28//28 27//27
f 18//18 24//24 19//19
f 28//28 20//20 25//25
f 28//28 25//25 29//29
f 26//26 21//21 30//30
f 31//31 25//25 26//26
f 32//32 22//22 17//17
f 33//33 32//32 17//17
f 27//27 34//34 23//23
f 22//22 35//35 18//18
f 32//32 35//35 22//22
f 35//35 24//24 18//18
f 28//28 36//36 27//27
f 24//24 37//37 21//21
f 25//25 31//31 29//29
f 31//31 26//26 30//30
f 33//33 17//17 23//23
f 27//27 36//36 34//34
f 38//38 35//35 32//32
f 24//24 35//35 38//38
f 24//24 38//38 37//37
f 21//21 37//37 30//30
f 39//39 29//29 31//31
f 34//34 33//33 23//23
f 34//34 36//36 40//40
f 37//37 38//38 32//32
f 41//41 36//36 28//28
f 41//41 28//28 29//29
f 39//39 41//41 29//29
f 30//30 37//37 42//42
f 30//30 42//42 39//39
f 31//31 30//30 39//39
f 33//33 34//34 43//43
f 32//32 33//33 43//43
f 34//34 40//40 43//43
f 43//43 44//44 32//32
f 37//37 32//32 44//44
f 40//40 36//36 41//41
f 37//37 44//44 45//45
f 45//45 42//42 37//37
f 45//45 41//41 39//39
f 39//39 42//42 45//45
f 45//45 44//44 43//43
f 40//40 45//45 43//43
f 40//40 41//41 45//45
