# Blender v2.92.0 OBJ File: 'convert_to_one_sided.blend'
# www.blender.org
mtllib 147L.mtl
o 147
v 10.759662 4.297014 4.680150
v 10.682862 4.308074 4.691090
v 10.711662 4.343783 4.672560
v 10.744562 4.343013 4.677930
v 10.729462 4.217435 4.739769
v 10.773861 4.288784 4.719940
v 10.662962 4.366053 4.690250
v 10.691362 4.374113 4.688900
v 10.724562 4.361513 4.701150
v 10.760861 4.225154 4.739439
v 10.643462 4.318743 4.725900
v 10.659363 4.373903 4.706740
v 10.691563 4.378253 4.714160
v 10.671863 4.214915 4.763489
v 10.742562 4.341503 4.723520
v 10.739562 4.172595 4.771619
v 10.759861 4.316283 4.735839
v 10.652462 4.310414 4.741519
v 10.709162 4.170335 4.781569
v 10.744762 4.191245 4.770969
v 10.749362 4.274894 4.752659
v 10.655363 4.229994 4.767299
v 10.727462 4.315073 4.745500
v 10.685962 4.178485 4.784639
v 10.687162 4.272354 4.767669
v 10.711062 4.168816 4.779469
v 10.708562 4.238784 4.776109
v 10.681263 4.213325 4.794009
v 10.678062 4.221155 4.780029
v 10.696662 4.198195 4.777349
v 10.711863 4.215025 4.801219
vn 0.4137 -0.2934 -0.8618
vn -0.4193 -0.3744 -0.8270
vn -0.0553 0.1458 -0.9878
vn 0.6158 0.5339 -0.5795
vn -0.0461 -0.6180 -0.7848
vn 0.9717 0.2154 0.0968
vn -0.5943 0.2778 -0.7547
vn 0.0641 0.8673 -0.4936
vn 0.6176 0.7862 -0.0225
vn 0.8078 -0.4752 -0.3488
vn -0.9720 -0.0546 -0.2288
vn -0.6565 0.7478 0.0990
vn 0.0807 0.8074 0.5845
vn -0.6214 -0.5633 -0.5446
vn 0.6127 0.6797 0.4033
vn 0.4960 -0.8611 -0.1119
vn 0.6336 0.4140 0.6536
vn -0.5765 0.3417 0.7422
vn -0.2615 -0.9180 -0.2982
vn 0.6477 -0.1167 0.7529
vn 0.5443 0.1885 0.8174
vn -0.9198 -0.1867 0.3451
vn 0.2136 0.4339 0.8753
vn -0.5412 -0.5566 0.6303
vn -0.1798 0.3903 0.9030
vn 0.1505 -0.5850 0.7970
vn 0.2797 0.1736 0.9443
vn -0.2655 -0.1174 0.9569
vn -0.5873 -0.0283 0.8089
vn 0.1821 -0.0255 0.9829
vn -0.5405 -0.8271 -0.1541
usemtl mtl1.1014
s 1
f 1//1 2//2 3//3
f 4//4 1//1 3//3
f 5//5 2//2 1//1
f 6//6 1//1 4//4
f 2//2 7//7 3//3
f 3//3 7//7 8//8
f 3//3 8//8 4//4
f 4//4 8//8 9//9
f 10//10 1//1 6//6
f 7//7 2//2 11//11
f 4//4 9//9 6//6
f 12//12 7//7 11//11
f 12//12 8//8 7//7
f 13//13 8//8 12//12
f 5//5 1//1 10//10
f 2//2 14//14 11//11
f 9//9 15//15 6//6
f 13//13 9//9 8//8
f 15//15 9//9 13//13
f 5//5 10//10 16//16
f 5//5 14//14 2//2
f 15//15 17//17 6//6
f 11//11 18//18 12//12
f 14//14 5//5 19//19
f 16//16 19//19 5//5
f 16//16 10//10 20//20
f 21//21 6//6 17//17
f 22//22 18//18 11//11
f 17//17 15//15 23//23
f 12//12 18//18 13//13
f 15//15 13//13 23//23
f 24//24 14//14 19//19
f 22//22 14//14 24//24
f 10//10 6//6 20//20
f 20//20 6//6 21//21
f 14//14 22//22 11//11
f 23//23 13//13 25//25
f 25//25 13//13 18//18
f 24//24 19//19 26//26
f 19//19 16//16 26//26
f 20//20 26//26 16//16
f 21//21 23//23 27//27
f 21//21 17//17 23//23
f 27//27 25//25 28//28
f 22//22 29//29 18//18
f 23//23 25//25 27//27
f 28//28 25//25 29//29
f 18//18 29//29 25//25
f 24//24 29//29 22//22
f 20//20 21//21 27//27
f 24//24 26//26 30//30
f 29//29 24//24 30//30
f 26//26 20//20 30//30
f 20//20 27//27 30//30
f 27//27 28//28 30//30
f 28//28 29//29 31//31
