# Blender v2.92.0 OBJ File: 'convert_to_one_sided.blend'
# www.blender.org
mtllib 15L.mtl
o 15
v 5.811975 4.420592 5.190424
v 5.780296 4.334453 5.185654
v 5.756826 4.474132 5.181614
v 5.790576 4.576750 5.178384
v 5.693407 4.573530 5.195324
v 5.752676 4.571960 5.178124
v 5.768926 4.694389 5.178084
v 5.836075 4.697168 5.198984
v 5.717196 4.735528 5.187964
v 5.650497 4.683419 5.219404
v 5.809665 4.802427 5.195144
v 5.751646 4.815657 5.193794
v 5.919444 4.094586 5.210953
v 5.855384 4.120476 5.204264
v 5.868004 4.164966 5.198253
v 5.942013 4.143015 5.216293
v 5.798575 4.224325 5.201594
v 5.908554 4.202965 5.209793
v 5.838355 4.277664 5.199584
v 5.725116 4.382203 5.207733
v 5.898704 4.318383 5.227593
v 5.857815 4.581030 5.223324
v 5.597628 4.581390 5.257363
v 5.674337 4.784848 5.224733
v 5.859865 4.782527 5.219934
v 5.729576 4.876327 5.214974
v 5.775765 4.879086 5.212724
v 5.838465 4.846537 5.229764
v 5.877994 4.081886 5.221673
v 5.925263 4.071826 5.243583
v 5.812495 4.134056 5.228183
v 6.020983 4.122416 5.263343
v 5.982063 4.183785 5.243863
v 5.944573 4.239074 5.237073
v 5.725106 4.260954 5.236243
v 5.643097 4.424582 5.252963
v 5.905894 4.465012 5.262633
v 5.918734 4.663839 5.284133
v 5.916384 4.566121 5.282303
v 5.899454 4.783067 5.276303
v 5.680947 4.858686 5.244344
v 5.800486 4.918536 5.250813
v 5.738806 4.918556 5.250223
v 5.848054 4.074187 5.253853
v 5.758836 4.149975 5.269232
v 6.000012 4.084106 5.300472
v 6.083471 4.198635 5.312492
v 6.003263 4.276864 5.291102
v 5.597098 4.679669 5.267663
v 5.625978 4.796047 5.283442
v 5.861804 4.869096 5.283813
v 5.765296 4.963745 5.289833
v 5.924064 4.052817 5.319282
v 5.696657 4.200075 5.295962
v 5.674307 4.277584 5.276752
v 5.981093 4.405892 5.319002
v 5.671807 4.903196 5.298053
v 5.719837 4.953805 5.300703
v 5.815916 4.935835 5.301373
v 5.821615 4.066257 5.311092
v 5.753266 4.135106 5.314322
v 6.117631 4.165035 5.329482
v 5.644767 4.283534 5.303072
v 6.091712 4.288114 5.363791
v 6.053962 4.378543 5.382051
v 5.608588 4.374253 5.307662
v 6.028162 4.484581 5.395711
v 5.576848 4.497031 5.301212
v 5.560868 4.594050 5.306163
v 5.960703 4.528221 5.324832
v 5.958793 4.692628 5.348432
v 5.684617 4.954115 5.340932
v 5.898044 4.037597 5.384841
v 6.036643 4.071076 5.381111
v 6.097271 4.120326 5.364071
v 5.704047 4.195105 5.324962
v 5.661367 4.254234 5.318952
v 6.148281 4.188685 5.357652
v 6.133971 4.259685 5.392581
v 5.626328 4.318783 5.321182
v 5.548899 4.533181 5.335232
v 5.574378 4.702838 5.327492
v 5.937894 4.764248 5.361592
v 5.610938 4.833127 5.356992
v 5.877985 4.866677 5.342552
v 5.656627 4.923266 5.364772
v 5.777006 4.971875 5.341073
v 5.842005 4.046667 5.367161
v 5.799756 4.092307 5.350172
v 5.989273 4.045377 5.415611
v 6.148641 4.160705 5.385891
v 5.600778 4.381843 5.346312
v 5.571108 4.471622 5.340262
v 5.552808 4.608730 5.361132
v 5.841795 4.912166 5.371582
v 5.725916 4.968575 5.342822
v 5.905454 4.045407 5.426940
v 5.760916 4.151805 5.361191
v 5.695147 4.243935 5.358331
v 5.640587 4.311863 5.341912
v 5.556458 4.535301 5.366292
v 5.988373 4.590530 5.372501
v 5.572608 4.721048 5.391672
v 5.694277 4.954835 5.391292
v 5.744796 4.966775 5.380532
v 6.071912 4.056127 5.452530
v 5.835115 4.098706 5.398181
v 6.152631 4.115806 5.447480
v 6.160470 4.179035 5.441260
v 6.107152 4.362613 5.434520
v 5.664037 4.330194 5.381641
v 5.603608 4.450672 5.383411
v 5.997603 4.636189 5.412121
v 5.599058 4.827177 5.415281
v 5.911844 4.812827 5.415701
v 5.783666 4.948145 5.399001
v 6.102622 4.081866 5.435700
v 6.147521 4.273914 5.442300
v 5.574338 4.582910 5.405171
v 5.567118 4.643069 5.396842
v 5.971463 4.705409 5.430851
v 5.641927 4.885846 5.407032
v 5.846005 4.887326 5.421402
v 5.982263 4.045477 5.459810
v 5.762206 4.232895 5.410051
v 6.062002 4.467301 5.442941
v 6.023273 4.551321 5.422811
v 5.585958 4.702498 5.428481
v 5.594258 4.783267 5.430851
v 5.739536 4.946225 5.422251
v 6.161241 4.104276 5.506570
v 5.679357 4.389472 5.419171
v 6.159970 4.240844 5.481700
v 5.664377 4.506571 5.445301
v 5.627928 4.846416 5.443501
v 5.884744 4.832577 5.454071
v 5.820315 4.882976 5.450801
v 5.942904 4.054127 5.461560
v 5.890744 4.166255 5.468110
v 6.070192 4.048117 5.488060
v 6.117641 4.074137 5.490760
v 6.154701 4.198555 5.508380
v 6.130951 4.335184 5.481760
v 5.831645 4.367673 5.499350
v 6.020503 4.589900 5.467471
v 5.640987 4.641429 5.459560
v 5.949073 4.727548 5.464460
v 5.698337 4.884526 5.449841
v 5.779046 4.879466 5.463730
v 6.135061 4.295574 5.511290
v 6.082682 4.443432 5.481821
v 5.751606 4.555881 5.500500
v 5.637517 4.768027 5.462761
v 5.664847 4.828977 5.464040
v 5.888884 4.784398 5.486730
v 5.822665 4.844157 5.476090
v 6.001112 4.120626 5.513499
v 6.078281 4.078136 5.523170
v 6.104211 4.066576 5.512159
v 6.097951 4.391283 5.521080
v 6.052492 4.505371 5.508670
v 5.984713 4.625899 5.509430
v 5.700927 4.683679 5.490450
v 5.725667 4.765277 5.489080
v 5.825295 4.787288 5.495280
v 6.126191 4.093906 5.528709
v 6.138681 4.161995 5.534429
v 5.973373 4.242135 5.540089
v 5.876275 4.511641 5.545780
v 5.790376 4.648279 5.517600
v 5.827535 4.703729 5.520510
v 5.923684 4.691419 5.517790
v 6.055032 4.169546 5.553869
v 6.101412 4.293754 5.549109
v 6.043293 4.477801 5.535740
v 5.976263 4.581720 5.541990
v 5.871284 4.618589 5.540030
v 5.894014 4.656169 5.530100
v 6.098271 4.130976 5.550759
v 6.110581 4.173325 5.548499
v 5.960993 4.369493 5.559879
v 6.015413 4.452422 5.561319
v 5.968503 4.447672 5.565019
v 5.934423 4.544391 5.546800
v 6.077672 4.232975 5.563769
v 6.023882 4.272434 5.561359
v 6.024802 4.344803 5.559099
vn 0.3743 0.0130 -0.9272
vn -0.0953 -0.0955 -0.9909
vn -0.1388 -0.0638 -0.9883
vn 0.2618 -0.0184 -0.9649
vn -0.4056 -0.0533 -0.9125
vn -0.1301 -0.0109 -0.9914
vn 0.0113 0.0538 -0.9985
vn 0.5157 0.0129 -0.8567
vn -0.3486 0.1116 -0.9306
vn -0.5753 0.0866 -0.8133
vn 0.3143 0.2048 -0.9270
vn -0.1532 0.2139 -0.9648
vn 0.2221 -0.4089 -0.8851
vn -0.2560 -0.3406 -0.9047
vn 0.0894 -0.0344 -0.9954
vn 0.3934 0.0082 -0.9193
vn -0.3134 -0.1858 -0.9313
vn 0.3620 0.1339 -0.9225
vn 0.1988 0.0152 -0.9799
vn -0.4768 -0.1578 -0.8648
vn 0.5136 0.1701 -0.8410
vn 0.6430 -0.0044 -0.7659
vn -0.6895 -0.0534 -0.7224
vn -0.5859 0.2242 -0.7788
vn 0.6727 0.1622 -0.7220
vn -0.3554 0.4167 -0.8367
vn 0.1385 0.4787 -0.8670
vn 0.6125 0.4052 -0.6787
vn -0.2290 -0.7150 -0.6606
vn 0.2194 -0.8703 -0.4410
vn -0.5550 -0.4684 -0.6874
vn 0.5748 -0.3633 -0.7332
vn 0.5111 0.1705 -0.8424
vn 0.5139 0.2215 -0.8288
vn -0.5875 -0.2930 -0.7543
vn -0.6357 -0.1999 -0.7456
vn 0.6556 0.0941 -0.7492
vn 0.7665 0.0433 -0.6407
vn 0.7089 0.0290 -0.7047
vn 0.8342 0.2773 -0.4766
vn -0.6493 0.4290 -0.6280
vn 0.4124 0.6534 -0.6348
vn -0.2925 0.6667 -0.6855
vn -0.3530 -0.8410 -0.4101
vn -0.6554 -0.5543 -0.5131
vn 0.4454 -0.8138 -0.3733
vn 0.5829 0.2421 -0.7756
vn 0.5740 0.3000 -0.7619
vn -0.7784 0.1784 -0.6018
vn -0.8099 0.3218 -0.4904
vn 0.7859 0.4988 -0.3655
vn 0.0777 0.8910 -0.4473
vn 0.1088 -0.9642 -0.2419
vn -0.7817 -0.5627 -0.2689
vn -0.6720 -0.3209 -0.6674
vn 0.6755 0.2060 -0.7080
vn -0.7212 0.5148 -0.4635
vn -0.4150 0.7752 -0.4764
vn 0.6602 0.7143 -0.2320
vn -0.4798 -0.8565 -0.1901
vn -0.7400 -0.6718 0.0326
vn 0.6949 -0.3037 -0.6519
vn -0.8466 -0.4181 -0.3294
vn 0.6417 0.3824 -0.6648
vn 0.7016 0.3250 -0.6341
vn -0.8705 -0.2963 -0.3930
vn 0.7958 0.2218 -0.5634
vn -0.8307 -0.2084 -0.5163
vn -0.9050 0.0519 -0.4222
vn 0.7388 0.0984 -0.6667
vn 0.8797 0.2044 -0.4293
vn -0.5880 0.7837 -0.1999
vn -0.0786 -0.9968 -0.0147
vn 0.3900 -0.8526 -0.3478
vn 0.5891 -0.6778 -0.4400
vn -0.7597 -0.5768 0.3003
vn -0.8279 -0.5112 0.2310
vn 0.8644 0.0635 -0.4988
vn 0.8185 0.3307 -0.4698
vn -0.8994 -0.4287 0.0857
vn -0.9811 -0.1469 -0.1258
vn -0.9351 0.2397 -0.2612
vn 0.8912 0.4133 -0.1868
vn -0.8955 0.4055 -0.1837
vn 0.8206 0.5646 -0.0884
vn -0.8184 0.5740 -0.0291
vn 0.3448 0.9377 0.0430
vn -0.5455 -0.7921 0.2739
vn -0.7309 -0.6086 0.3090
vn 0.1615 -0.9769 -0.1396
vn 0.8486 -0.3904 -0.3571
vn -0.8641 -0.3749 0.3357
vn -0.9425 -0.3259 0.0737
vn -0.9885 0.0631 0.1371
vn 0.7010 0.6999 0.1367
vn -0.2069 0.9757 -0.0726
vn -0.4279 -0.7109 0.5582
vn -0.6855 -0.5131 0.5166
vn -0.6822 -0.4464 0.5791
vn -0.7521 -0.4475 0.4839
vn -0.8967 -0.2025 0.3936
vn 0.8467 0.1595 -0.5076
vn -0.9727 0.1768 0.1504
vn -0.4571 0.8079 0.3720
vn 0.0168 0.9535 0.3008
vn 0.3865 -0.8866 -0.2540
vn -0.6143 -0.4371 0.6569
vn 0.7858 -0.5461 -0.2904
vn 0.9931 0.0024 -0.1173
vn 0.8238 0.3990 -0.4026
vn -0.6380 -0.3726 0.6738
vn -0.6987 -0.2945 0.6520
vn 0.9248 0.2879 -0.2488
vn -0.8894 0.4071 0.2076
vn 0.8158 0.5590 0.1481
vn 0.4175 0.7999 0.4311
vn 0.5337 -0.7687 -0.3527
vn 0.9387 0.2647 -0.2208
vn -0.7452 -0.1320 0.6536
vn -0.9108 0.0229 0.4123
vn 0.8953 0.4417 0.0579
vn -0.7174 0.6087 0.3389
vn 0.6219 0.6868 0.3763
vn -0.1317 -0.8726 0.4703
vn -0.5601 -0.3571 0.7475
vn 0.8562 0.3390 -0.3899
vn 0.8950 0.2693 -0.3555
vn -0.7572 0.0107 0.6530
vn -0.7937 0.1570 0.5877
vn 0.0101 0.7257 0.6880
vn 0.8929 -0.3542 0.2781
vn -0.5390 -0.2905 0.7906
vn 0.9793 0.1673 0.1140
vn -0.5103 -0.2161 0.8324
vn -0.5688 0.4033 0.7168
vn 0.6401 0.5885 0.4940
vn 0.3536 0.6216 0.6990
vn -0.3577 -0.5402 0.7617
vn -0.5159 -0.3079 0.7994
vn 0.1706 -0.9665 0.1918
vn 0.5765 -0.8169 -0.0187
vn 0.8992 0.0769 0.4307
vn 0.9335 0.3558 0.0442
vn -0.4516 -0.2249 0.8634
vn 0.9159 0.3994 0.0391
vn -0.4928 -0.1017 0.8642
vn 0.7847 0.4807 0.3914
vn -0.2699 0.4601 0.8458
vn 0.0271 0.4529 0.8911
vn 0.8551 0.2279 0.4658
vn 0.9175 0.3961 -0.0352
vn -0.3928 -0.1167 0.9122
vn -0.4533 0.0721 0.8884
vn -0.2808 0.2497 0.9267
vn 0.4323 0.4641 0.7731
vn 0.1803 0.4366 0.8814
vn -0.3472 -0.3917 0.8521
vn -0.1296 -0.5772 0.8063
vn 0.3427 -0.8088 0.4780
vn 0.8255 0.3312 0.4570
vn 0.8362 0.4074 0.3673
vn 0.6897 0.4372 0.5773
vn -0.3403 0.0052 0.9403
vn -0.1989 0.1846 0.9625
vn 0.0078 0.3067 0.9518
vn 0.4586 -0.4763 0.7502
vn 0.6334 -0.0325 0.7732
vn -0.3910 -0.2260 0.8922
vn -0.2580 -0.0222 0.9659
vn -0.2704 0.0464 0.9616
vn -0.0998 0.2063 0.9734
vn 0.2944 0.3680 0.8820
vn -0.2341 -0.2414 0.9418
vn 0.5332 0.1338 0.8353
vn 0.6161 0.3107 0.7238
vn 0.3082 0.2838 0.9080
vn -0.0799 0.1245 0.9890
vn 0.0635 0.2357 0.9697
vn 0.1296 -0.2486 0.9599
vn 0.4286 -0.0590 0.9016
vn -0.2289 -0.0996 0.9683
vn 0.2250 0.1434 0.9638
vn -0.0424 0.0473 0.9980
vn 0.0034 0.1482 0.9890
vn 0.1392 -0.0159 0.9901
vn -0.1437 -0.0781 0.9865
vn 0.0742 0.0211 0.9970
usemtl mtl1.1017
s 1
f 1//1 2//2 3//3
f 1//1 3//3 4//4
f 5//5 6//6 3//3
f 4//4 3//3 6//6
f 6//6 5//5 7//7
f 4//4 6//6 7//7
f 8//8 4//4 7//7
f 7//7 5//5 9//9
f 10//10 9//9 5//5
f 8//8 7//7 11//11
f 7//7 9//9 12//12
f 11//11 7//7 12//12
f 13//13 14//14 15//15
f 16//16 13//13 15//15
f 14//14 17//17 15//15
f 16//16 15//15 18//18
f 15//15 17//17 19//19
f 15//15 19//19 18//18
f 17//17 20//20 2//2
f 19//19 17//17 2//2
f 18//18 19//19 21//21
f 19//19 2//2 1//1
f 21//21 19//19 1//1
f 2//2 20//20 3//3
f 3//3 20//20 5//5
f 1//1 4//4 22//22
f 4//4 8//8 22//22
f 10//10 5//5 23//23
f 10//10 24//24 9//9
f 11//11 25//25 8//8
f 9//9 24//24 12//12
f 24//24 26//26 12//12
f 11//11 12//12 27//27
f 27//27 28//28 11//11
f 27//27 12//12 26//26
f 14//14 13//13 29//29
f 29//29 13//13 30//30
f 29//29 31//31 14//14
f 30//30 13//13 32//32
f 32//32 13//13 16//16
f 32//32 16//16 33//33
f 16//16 18//18 33//33
f 34//34 33//33 18//18
f 14//14 31//31 17//17
f 31//31 35//35 17//17
f 21//21 34//34 18//18
f 17//17 35//35 20//20
f 35//35 36//36 20//20
f 37//37 21//21 1//1
f 20//20 36//36 5//5
f 1//1 22//22 37//37
f 22//22 8//8 38//38
f 38//38 39//39 22//22
f 25//25 38//38 8//8
f 11//11 28//28 25//25
f 40//40 25//25 28//28
f 24//24 41//41 26//26
f 27//27 42//42 28//28
f 43//43 26//26 41//41
f 27//27 26//26 43//43
f 42//42 27//27 43//43
f 44//44 29//29 30//30
f 31//31 44//44 45//45
f 29//29 44//44 31//31
f 32//32 46//46 30//30
f 33//33 47//47 32//32
f 35//35 31//31 45//45
f 34//34 48//48 33//33
f 5//5 36//36 23//23
f 23//23 49//49 10//10
f 24//24 49//49 50//50
f 24//24 10//10 49//49
f 40//40 38//38 25//25
f 40//40 28//28 51//51
f 24//24 50//50 41//41
f 42//42 43//43 52//52
f 44//44 30//30 53//53
f 48//48 47//47 33//33
f 45//45 54//54 55//55
f 45//45 55//55 35//35
f 34//34 21//21 48//48
f 35//35 55//55 36//36
f 48//48 21//21 56//56
f 56//56 21//21 37//37
f 22//22 39//39 37//37
f 50//50 57//57 41//41
f 28//28 42//42 51//51
f 43//43 41//41 57//57
f 43//43 57//57 58//58
f 58//58 52//52 43//43
f 42//42 52//52 59//59
f 60//60 44//44 53//53
f 45//45 44//44 60//60
f 53//53 30//30 46//46
f 60//60 61//61 45//45
f 32//32 47//47 62//62
f 45//45 61//61 54//54
f 54//54 63//63 55//55
f 47//47 48//48 64//64
f 56//56 65//65 48//48
f 55//55 63//63 66//66
f 65//65 56//56 67//67
f 55//55 66//66 36//36
f 68//68 36//36 66//66
f 23//23 36//36 68//68
f 69//69 23//23 68//68
f 23//23 69//69 49//49
f 38//38 70//70 39//39
f 38//38 40//40 71//71
f 59//59 51//51 42//42
f 58//58 57//57 72//72
f 60//60 53//53 73//73
f 46//46 74//74 53//53
f 46//46 32//32 75//75
f 62//62 75//75 32//32
f 76//76 54//54 61//61
f 54//54 76//76 77//77
f 63//63 54//54 77//77
f 78//78 62//62 47//47
f 78//78 47//47 79//79
f 63//63 77//77 80//80
f 79//79 47//47 64//64
f 63//63 80//80 66//66
f 64//64 48//48 65//65
f 70//70 56//56 37//37
f 37//37 39//39 70//70
f 68//68 81//81 69//69
f 82//82 49//49 69//69
f 49//49 82//82 50//50
f 71//71 40//40 83//83
f 51//51 83//83 40//40
f 57//57 50//50 84//84
f 85//85 51//51 59//59
f 57//57 86//86 72//72
f 87//87 59//59 52//52
f 60//60 73//73 88//88
f 89//89 60//60 88//88
f 53//53 74//74 90//90
f 89//89 61//61 60//60
f 46//46 75//75 74//74
f 78//78 91//91 62//62
f 66//66 80//80 92//92
f 66//66 92//92 93//93
f 68//68 93//93 81//81
f 68//68 66//66 93//93
f 56//56 70//70 67//67
f 69//69 81//81 94//94
f 94//94 82//82 69//69
f 50//50 82//82 84//84
f 51//51 85//85 83//83
f 85//85 59//59 95//95
f 58//58 72//72 96//96
f 58//58 96//96 52//52
f 87//87 95//95 59//59
f 52//52 96//96 87//87
f 97//97 88//88 73//73
f 53//53 90//90 73//73
f 76//76 61//61 98//98
f 61//61 89//89 98//98
f 62//62 91//91 75//75
f 76//76 99//99 77//77
f 98//98 99//99 76//76
f 77//77 100//100 80//80
f 92//92 80//80 100//100
f 93//93 101//101 81//81
f 81//81 101//101 94//94
f 38//38 102//102 70//70
f 94//94 103//103 82//82
f 71//71 102//102 38//38
f 86//86 57//57 84//84
f 72//72 104//104 96//96
f 87//87 96//96 105//105
f 90//90 74//74 106//106
f 107//107 98//98 89//89
f 91//91 108//108 75//75
f 91//91 78//78 109//109
f 77//77 99//99 100//100
f 79//79 64//64 110//110
f 100//100 111//111 92//92
f 92//92 112//112 93//93
f 111//111 112//112 92//92
f 93//93 112//112 101//101
f 102//102 67//67 70//70
f 102//102 71//71 113//113
f 113//113 71//71 83//83
f 82//82 103//103 84//84
f 114//114 84//84 103//103
f 83//83 85//85 115//115
f 85//85 95//95 115//115
f 72//72 86//86 104//104
f 105//105 116//116 87//87
f 95//95 87//87 116//116
f 88//88 97//97 107//107
f 88//88 107//107 89//89
f 106//106 74//74 117//117
f 78//78 79//79 109//109
f 99//99 111//111 100//100
f 79//79 110//110 118//118
f 64//64 65//65 110//110
f 94//94 101//101 119//119
f 120//120 94//94 119//119
f 94//94 120//120 103//103
f 113//113 83//83 121//121
f 84//84 114//114 122//122
f 122//122 86//86 84//84
f 95//95 116//116 123//123
f 86//86 122//122 104//104
f 96//96 104//104 105//105
f 73//73 124//124 97//97
f 73//73 90//90 124//124
f 75//75 117//117 74//74
f 117//117 75//75 108//108
f 108//108 91//91 109//109
f 98//98 125//125 99//99
f 99//99 125//125 111//111
f 79//79 118//118 109//109
f 65//65 126//126 110//110
f 65//65 67//67 126//126
f 67//67 127//127 126//126
f 112//112 119//119 101//101
f 67//67 102//102 127//127
f 113//113 127//127 102//102
f 120//120 128//128 103//103
f 128//128 129//129 103//103
f 121//121 83//83 115//115
f 103//103 129//129 114//114
f 95//95 123//123 115//115
f 105//105 130//130 116//116
f 125//125 98//98 107//107
f 108//108 109//109 131//131
f 125//125 132//132 111//111
f 109//109 118//118 133//133
f 132//132 134//134 112//112
f 111//111 132//132 112//112
f 134//134 119//119 112//112
f 119//119 128//128 120//120
f 129//129 135//135 114//114
f 135//135 122//122 114//114
f 136//136 115//115 123//123
f 116//116 137//137 123//123
f 137//137 116//116 130//130
f 105//105 104//104 130//130
f 97//97 124//124 138//138
f 97//97 139//139 107//107
f 139//139 97//97 138//138
f 140//140 124//124 90//90
f 106//106 140//140 90//90
f 107//107 139//139 125//125
f 117//117 108//108 141//141
f 131//131 109//109 142//142
f 109//109 133//133 142//142
f 133//133 118//118 143//143
f 110//110 143//143 118//118
f 144//144 134//134 132//132
f 127//127 145//145 126//126
f 134//134 146//146 119//119
f 127//127 113//113 145//145
f 146//146 128//128 119//119
f 121//121 145//145 113//113
f 121//121 115//115 147//147
f 136//136 147//147 115//115
f 135//135 148//148 122//122
f 136//136 123//123 137//137
f 148//148 149//149 130//130
f 148//148 104//104 122//122
f 130//130 104//104 148//148
f 137//137 130//130 149//149
f 106//106 141//141 140//140
f 106//106 117//117 141//141
f 139//139 144//144 125//125
f 132//132 125//125 144//144
f 133//133 143//143 150//150
f 143//143 110//110 151//151
f 134//134 144//144 152//152
f 110//110 126//126 151//151
f 126//126 145//145 151//151
f 152//152 146//146 134//134
f 121//121 147//147 145//145
f 128//128 153//153 129//129
f 146//146 153//153 128//128
f 129//129 153//153 135//135
f 135//135 153//153 154//154
f 155//155 137//137 156//156
f 136//136 137//137 155//155
f 148//148 135//135 154//154
f 156//156 137//137 149//149
f 138//138 124//124 157//157
f 140//140 158//158 124//124
f 140//140 159//159 158//158
f 140//140 141//141 159//159
f 139//139 138//138 157//157
f 131//131 141//141 108//108
f 133//133 150//150 142//142
f 150//150 143//143 160//160
f 143//143 151//151 160//160
f 161//161 160//160 151//151
f 151//151 145//145 161//161
f 145//145 147//147 162//162
f 146//146 152//152 163//163
f 163//163 153//153 146//146
f 147//147 155//155 162//162
f 163//163 164//164 153//153
f 155//155 147//147 136//136
f 164//164 154//154 153//153
f 164//164 165//165 148//148
f 165//165 156//156 149//149
f 148//148 154//154 164//164
f 165//165 149//149 148//148
f 157//157 124//124 158//158
f 141//141 166//166 159//159
f 166//166 141//141 131//131
f 131//131 142//142 167//167
f 144//144 139//139 168//168
f 152//152 144//144 169//169
f 161//161 145//145 162//162
f 170//170 163//163 152//152
f 170//170 164//164 163//163
f 171//171 164//164 170//170
f 172//172 162//162 155//155
f 165//165 164//164 171//171
f 172//172 155//155 165//165
f 155//155 156//156 165//165
f 166//166 158//158 159//159
f 173//173 157//157 158//158
f 167//167 166//166 131//131
f 139//139 157//157 168//168
f 174//174 167//167 142//142
f 150//150 174//174 142//142
f 160//160 174//174 150//150
f 175//175 174//174 160//160
f 160//160 161//161 175//175
f 169//169 170//170 152//152
f 175//175 162//162 176//176
f 175//175 161//161 162//162
f 169//169 177//177 170//170
f 176//176 162//162 172//172
f 177//177 171//171 170//170
f 176//176 172//172 178//178
f 178//178 171//171 177//177
f 178//178 165//165 171//171
f 172//172 165//165 178//178
f 179//179 158//158 166//166
f 173//173 158//158 179//179
f 166//166 180//180 179//179
f 166//166 167//167 180//180
f 173//173 168//168 157//157
f 174//174 180//180 167//167
f 181//181 144//144 168//168
f 174//174 175//175 182//182
f 181//181 169//169 144//144
f 183//183 184//184 169//169
f 182//182 175//175 176//176
f 182//182 176//176 184//184
f 184//184 177//177 169//169
f 184//184 178//178 177//177
f 176//176 178//178 184//184
f 173//173 179//179 185//185
f 180//180 185//185 179//179
f 168//168 173//173 186//186
f 185//185 186//186 173//173
f 180//180 174//174 185//185
f 185//185 187//187 186//186
f 174//174 187//187 185//185
f 186//186 181//181 168//168
f 174//174 182//182 187//187
f 186//186 187//187 181//181
f 187//187 183//183 181//181
f 181//181 183//183 169//169
f 187//187 182//182 183//183
f 182//182 184//184 183//183
