# Blender v2.92.0 OBJ File: 'convert_to_one_sided.blend'
# www.blender.org
mtllib 162L.mtl
o 162
v 10.373767 4.271174 4.849688
v 10.422266 4.147995 4.872047
v 10.342567 4.214725 4.865988
v 10.471266 4.188195 4.886487
v 10.330367 4.292624 4.863738
v 10.415866 4.309263 4.886717
v 10.354067 4.331374 4.886588
v 10.352767 4.074087 4.898257
v 10.293367 4.162876 4.903657
v 10.465965 4.135346 4.883458
v 10.287168 4.264584 4.900397
v 10.311967 4.332314 4.914477
v 10.411866 3.994968 4.918947
v 10.477566 4.096036 4.900647
v 10.286268 4.069297 4.929907
v 10.248068 4.187405 4.949557
v 10.487665 4.250034 4.915537
v 10.267868 4.317654 4.960637
v 10.462266 4.310763 4.931407
v 10.381466 4.362523 4.926147
v 10.305867 3.958988 4.931877
v 10.266068 3.986938 4.938987
v 10.508965 4.008847 4.937857
v 10.535265 4.092456 4.937987
v 10.243467 4.101806 4.963867
v 10.534565 4.183615 4.954856
v 10.232168 4.223695 4.991376
v 10.418066 4.350883 4.942407
v 10.344967 4.368853 4.951277
v 10.232569 3.911299 4.954867
v 10.528564 3.964368 4.963407
v 10.432666 3.909079 4.973526
v 10.555264 4.017437 4.974186
v 10.502265 4.276444 4.972247
v 10.303667 4.358593 4.984996
v 10.395666 4.372883 4.988766
v 10.271168 3.866770 4.982037
v 10.181270 3.881959 4.986806
v 10.210669 3.956809 4.973657
v 10.519265 3.933439 5.012056
v 10.241268 4.028807 4.962117
v 10.568664 4.109616 4.997866
v 10.207269 4.120576 5.015036
v 10.454065 4.334343 4.984506
v 10.263068 4.327734 5.017735
v 10.150669 3.795310 5.041066
v 10.293867 3.760941 5.062545
v 10.146870 3.935338 5.033216
v 10.113270 3.831380 5.061676
v 10.199368 4.028607 5.005596
v 10.546664 4.213135 5.037466
v 10.233368 4.261674 5.026815
v 10.344768 4.372133 5.026795
v 10.409466 3.806390 5.069875
v 10.567664 4.015547 5.032646
v 10.489265 4.302723 5.043126
v 10.113970 3.723691 5.090025
v 10.164869 3.716562 5.098335
v 10.091670 3.747581 5.103125
v 10.484065 3.852490 5.086545
v 10.083170 3.847800 5.106115
v 10.142270 4.006008 5.094005
v 10.575364 4.106076 5.077215
v 10.201269 4.168436 5.059206
v 10.438366 4.348413 5.038926
v 10.293568 4.342623 5.054355
v 10.294868 3.692492 5.135725
v 10.069870 3.772910 5.127275
v 10.421165 3.769921 5.139644
v 10.107070 3.912229 5.101695
v 10.537664 3.926039 5.083305
v 10.566963 4.003987 5.105124
v 10.239967 4.256624 5.081795
v 10.393166 4.359243 5.065906
v 10.557064 4.185865 5.111405
v 10.513664 4.254304 5.106995
v 10.341967 4.341183 5.101214
v 10.212769 3.655352 5.156784
v 10.351367 3.710171 5.157534
v 10.526065 3.922128 5.164364
v 10.176969 4.103897 5.153684
v 10.451665 4.314633 5.095115
v 10.287568 4.292974 5.122655
v 10.129270 3.628692 5.186274
v 10.100969 3.685372 5.145974
v 10.466965 3.821570 5.167814
v 10.077870 3.864799 5.155334
v 10.568664 4.077277 5.139054
v 10.560864 4.137696 5.139734
v 10.238668 4.207765 5.153084
v 10.078470 3.629502 5.222543
v 10.058071 3.701971 5.192454
v 10.062970 3.785300 5.164834
v 10.102070 3.923888 5.196663
v 10.540864 4.020867 5.178944
v 10.480266 4.255174 5.160574
v 10.326867 4.290304 5.159784
v 10.406366 4.284774 5.154854
v 10.270768 3.637612 5.208704
v 10.359467 3.694591 5.225843
v 10.469165 3.832800 5.226843
v 10.137670 3.988478 5.228424
v 10.542265 4.111556 5.180974
v 10.527064 4.187145 5.152344
v 10.171769 4.052257 5.222243
v 10.211269 4.107986 5.216703
v 10.277068 4.201615 5.193853
v 10.182669 3.599243 5.233703
v 10.054770 3.641452 5.258743
v 10.479665 3.908819 5.243453
v 10.456766 4.238914 5.191894
v 10.229868 3.592003 5.276582
v 10.048071 3.676472 5.281493
v 10.067170 3.787410 5.228223
v 10.417966 3.755921 5.240873
v 10.494365 4.040287 5.231893
v 10.476565 4.170186 5.207243
v 10.421865 4.225075 5.207043
v 10.350267 4.211365 5.208593
v 10.119070 3.593413 5.261953
v 10.166669 3.584313 5.302532
v 10.284667 3.631672 5.257533
v 10.369267 3.699181 5.282322
v 10.105670 3.872199 5.270332
v 10.077870 3.611573 5.287723
v 10.064071 3.635302 5.303502
v 10.415066 3.783460 5.284132
v 10.171169 3.979978 5.273462
v 10.424866 4.064817 5.267093
v 10.378366 4.137536 5.243863
v 10.270768 4.069217 5.266872
v 10.120270 3.599543 5.325912
v 10.292967 3.637722 5.295292
v 10.081870 3.753411 5.310492
v 10.423965 3.844710 5.299622
v 10.420066 3.919729 5.298282
v 10.333966 4.008087 5.304362
v 10.219668 3.599413 5.320702
v 10.089370 3.622542 5.330292
v 10.333966 3.690711 5.326142
v 10.089370 3.666432 5.341102
v 10.365767 3.944078 5.322092
v 10.190669 3.615412 5.357222
v 10.263668 3.641372 5.346362
v 10.131669 3.832940 5.329382
v 10.352467 3.774120 5.345862
v 10.191770 3.911469 5.326422
v 10.243269 3.905769 5.346312
v 10.300867 3.874259 5.360711
v 10.294168 3.688612 5.365801
v 10.116070 3.738671 5.356802
v 10.343467 3.855339 5.347432
v 10.136469 3.640872 5.361351
v 10.250069 3.663222 5.378041
v 10.171769 3.807810 5.362621
v 10.154770 3.719781 5.374701
v 10.278768 3.710691 5.383021
v 10.284667 3.778670 5.377941
v 10.226768 3.793520 5.373691
v 10.219568 3.700941 5.370971
vn 0.0987 0.1784 -0.9790
vn 0.0978 -0.2007 -0.9748
vn -0.3631 -0.1495 -0.9197
vn 0.5643 0.0750 -0.8222
vn -0.4557 0.2964 -0.8394
vn 0.4477 0.5246 -0.7241
vn -0.0924 0.6982 -0.7099
vn -0.2541 -0.2026 -0.9457
vn -0.5990 -0.1339 -0.7895
vn 0.4196 -0.1302 -0.8983
vn -0.7514 0.1332 -0.6463
vn -0.5622 0.6433 -0.5198
vn 0.1070 -0.3841 -0.9171
vn 0.4207 -0.2203 -0.8801
vn -0.5549 -0.0529 -0.8302
vn -0.8189 0.0150 -0.5737
vn 0.7250 0.3324 -0.6032
vn -0.8196 0.4648 -0.3351
vn 0.6736 0.6106 -0.4164
vn 0.1984 0.8653 -0.4604
vn -0.0969 -0.3058 -0.9472
vn -0.4540 -0.0047 -0.8910
vn 0.4230 -0.3056 -0.8530
vn 0.7151 -0.0397 -0.6979
vn -0.7315 -0.0113 -0.6818
vn 0.8526 0.2326 -0.4679
vn -0.9143 0.1905 -0.3574
vn 0.5059 0.7900 -0.3462
vn -0.2164 0.9333 -0.2864
vn -0.3174 -0.2262 -0.9209
vn 0.5915 -0.5200 -0.6162
vn 0.2670 -0.6148 -0.7421
vn 0.8582 -0.2412 -0.4531
vn 0.8266 0.5105 -0.2370
vn -0.5241 0.8438 -0.1157
vn 0.2822 0.9583 -0.0453
vn -0.0141 -0.5453 -0.8381
vn -0.5307 -0.1905 -0.8259
vn -0.6328 0.1240 -0.7644
vn 0.7129 -0.6033 -0.3575
vn -0.6460 0.0884 -0.7582
vn 0.9573 0.0821 -0.2772
vn -0.8742 0.1218 -0.4700
vn 0.6483 0.7520 -0.1195
vn -0.7885 0.6120 0.0612
vn -0.3601 -0.4076 -0.8392
vn 0.1544 -0.6696 -0.7265
vn -0.8007 0.2043 -0.5632
vn -0.7495 -0.0682 -0.6585
vn -0.7740 0.1702 -0.6099
vn 0.9145 0.3983 -0.0715
vn -0.9351 0.3477 -0.0688
vn -0.1753 0.9706 0.1647
vn 0.4480 -0.7041 -0.5510
vn 0.9585 -0.2475 -0.1413
vn 0.7425 0.6640 0.0887
vn -0.3762 -0.5713 -0.7295
vn -0.0490 -0.6650 -0.7453
vn -0.7349 -0.2954 -0.6105
vn 0.7030 -0.6552 -0.2766
vn -0.9155 0.1669 -0.3661
vn -0.9127 0.3115 -0.2644
vn 0.9960 0.0846 0.0296
vn -0.9465 0.2978 -0.1246
vn 0.5302 0.8322 0.1625
vn -0.5543 0.7717 0.3118
vn 0.3135 -0.7577 -0.5723
vn -0.9070 -0.0590 -0.4170
vn 0.6473 -0.7153 -0.2634
vn -0.8980 0.3099 -0.3123
vn 0.8753 -0.4784 -0.0708
vn 0.9659 -0.2110 0.1503
vn -0.8346 0.4906 0.2505
vn 0.2129 0.8917 0.3995
vn 0.8907 0.3772 0.2536
vn 0.7509 0.5853 0.3060
vn -0.1797 0.8304 0.5273
vn 0.1110 -0.7691 -0.6294
vn 0.5068 -0.7694 -0.3888
vn 0.9008 -0.3403 0.2696
vn -0.8720 0.4488 0.1956
vn 0.4869 0.7622 0.4267
vn -0.5882 0.6293 0.5080
vn -0.1901 -0.7801 -0.5961
vn -0.5164 -0.6084 -0.6026
vn 0.8084 -0.5887 -0.0052
vn -0.9560 0.2844 -0.0722
vn 0.9422 -0.0078 0.3349
vn 0.8932 0.2324 0.3850
vn -0.7051 0.5294 0.4718
vn -0.6154 -0.6703 -0.4148
vn -0.9360 -0.1959 -0.2924
vn -0.9904 0.1025 -0.0932
vn -0.9257 0.3555 0.1291
vn 0.8478 -0.1103 0.5187
vn 0.5513 0.5908 0.5892
vn -0.2196 0.6380 0.7381
vn 0.1401 0.7165 0.6834
vn 0.3988 -0.8308 -0.3882
vn 0.6553 -0.7449 -0.1252
vn 0.8588 -0.4067 0.3115
vn -0.8158 0.4212 0.3963
vn 0.7477 0.1750 0.6405
vn 0.7103 0.4062 0.5748
vn -0.7224 0.4932 0.4846
vn -0.5895 0.5134 0.6236
vn -0.4296 0.5175 0.7400
vn 0.0766 -0.9152 -0.3956
vn -0.8987 -0.4275 -0.0976
vn 0.7896 -0.1301 0.5997
vn 0.3323 0.5431 0.7711
vn 0.3700 -0.9263 -0.0712
vn -0.9701 0.0241 0.2415
vn -0.9645 0.2194 0.1468
vn 0.8068 -0.5772 0.1267
vn 0.6267 0.0947 0.7735
vn 0.4689 0.3201 0.8232
vn 0.0945 0.4683 0.8785
vn -0.1039 0.4970 0.8615
vn -0.2769 -0.9426 -0.1868
vn 0.0054 -0.9878 0.1556
vn 0.5765 -0.8068 -0.1288
vn 0.7394 -0.6315 0.2336
vn -0.8289 0.3527 0.4342
vn -0.6323 -0.7696 0.0883
vn -0.8550 -0.3511 0.3816
vn 0.7784 -0.3513 0.5202
vn -0.5738 0.4483 0.6854
vn 0.3339 0.2877 0.8976
vn 0.0652 0.3917 0.9178
vn -0.2417 0.4626 0.8530
vn -0.3032 -0.8315 0.4654
vn 0.5984 -0.7776 0.1933
vn -0.8274 0.2515 0.5022
vn 0.6940 -0.1107 0.7115
vn 0.5470 0.0854 0.8327
vn 0.0493 0.3941 0.9178
vn 0.3416 -0.8573 0.3852
vn -0.5895 -0.5034 0.6318
vn 0.6688 -0.5157 0.5356
vn -0.6658 -0.0368 0.7453
vn 0.3261 0.2368 0.9152
vn 0.0380 -0.6322 0.7739
vn 0.4822 -0.6843 0.5470
vn -0.6109 0.3648 0.7027
vn 0.5773 -0.1218 0.8074
vn -0.3869 0.4232 0.8193
vn -0.1529 0.3637 0.9189
vn 0.1247 0.2467 0.9610
vn 0.5553 -0.4107 0.7231
vn -0.5647 0.1898 0.8032
vn 0.4162 0.0989 0.9039
vn -0.2459 -0.3132 0.9173
vn 0.1737 -0.3801 0.9085
vn -0.3133 0.2803 0.9073
vn -0.2263 0.0106 0.9740
vn 0.2250 -0.0943 0.9698
vn 0.1569 0.0702 0.9851
vn -0.0740 0.1338 0.9882
vn -0.0928 -0.0662 0.9935
usemtl mtl1.1026
s 1
f 1//1 2//2 3//3
f 4//4 2//2 1//1
f 1//1 3//3 5//5
f 4//4 1//1 6//6
f 7//7 1//1 5//5
f 7//7 6//6 1//1
f 2//2 8//8 3//3
f 8//8 9//9 3//3
f 4//4 10//10 2//2
f 3//3 9//9 11//11
f 3//3 11//11 5//5
f 5//5 11//11 12//12
f 5//5 12//12 7//7
f 8//8 2//2 13//13
f 14//14 13//13 2//2
f 8//8 15//15 9//9
f 14//14 2//2 10//10
f 4//4 14//14 10//10
f 11//11 9//9 16//16
f 4//4 6//6 17//17
f 12//12 11//11 18//18
f 6//6 19//19 17//17
f 6//6 7//7 20//20
f 13//13 21//21 8//8
f 21//21 22//22 8//8
f 8//8 22//22 15//15
f 14//14 23//23 13//13
f 23//23 14//14 24//24
f 15//15 25//25 9//9
f 14//14 4//4 24//24
f 16//16 9//9 25//25
f 26//26 24//24 4//4
f 26//26 4//4 17//17
f 27//27 11//11 16//16
f 18//18 11//11 27//27
f 6//6 28//28 19//19
f 7//7 12//12 29//29
f 29//29 20//20 7//7
f 28//28 6//6 20//20
f 21//21 30//30 22//22
f 23//23 31//31 32//32
f 23//23 32//32 13//13
f 33//33 31//31 23//23
f 24//24 33//33 23//23
f 26//26 17//17 34//34
f 17//17 19//19 34//34
f 12//12 18//18 35//35
f 29//29 12//12 35//35
f 28//28 20//20 36//36
f 30//30 37//37 38//38
f 21//21 37//37 30//30
f 32//32 37//37 13//13
f 30//30 38//38 39//39
f 13//13 37//37 21//21
f 31//31 40//40 32//32
f 30//30 39//39 22//22
f 22//22 39//39 41//41
f 40//40 31//31 33//33
f 22//22 41//41 15//15
f 41//41 25//25 15//15
f 24//24 42//42 33//33
f 26//26 42//42 24//24
f 27//27 16//16 43//43
f 28//28 44//44 19//19
f 18//18 45//45 35//35
f 29//29 36//36 20//20
f 37//37 46//46 38//38
f 32//32 47//47 37//37
f 48//48 38//38 49//49
f 39//39 38//38 48//48
f 39//39 48//48 50//50
f 41//41 39//39 50//50
f 50//50 25//25 41//41
f 43//43 16//16 25//25
f 26//26 34//34 51//51
f 42//42 26//26 51//51
f 27//27 52//52 18//18
f 19//19 44//44 34//34
f 45//45 18//18 52//52
f 29//29 35//35 53//53
f 28//28 36//36 44//44
f 46//46 49//49 38//38
f 32//32 54//54 47//47
f 32//32 40//40 54//54
f 33//33 42//42 55//55
f 43//43 25//25 50//50
f 34//34 44//44 56//56
f 36//36 29//29 53//53
f 57//57 46//46 58//58
f 37//37 47//47 58//58
f 37//37 58//58 46//46
f 46//46 57//57 59//59
f 49//49 46//46 59//59
f 54//54 40//40 60//60
f 48//48 49//49 61//61
f 40//40 33//33 55//55
f 43//43 50//50 62//62
f 42//42 51//51 63//63
f 64//64 27//27 43//43
f 64//64 52//52 27//27
f 34//34 56//56 51//51
f 65//65 56//56 44//44
f 35//35 66//66 53//53
f 44//44 36//36 65//65
f 47//47 54//54 67//67
f 59//59 68//68 49//49
f 60//60 69//69 54//54
f 68//68 61//61 49//49
f 48//48 61//61 70//70
f 71//71 60//60 40//40
f 71//71 40//40 55//55
f 72//72 71//71 55//55
f 62//62 50//50 48//48
f 62//62 48//48 70//70
f 55//55 42//42 63//63
f 73//73 45//45 52//52
f 45//45 66//66 35//35
f 36//36 74//74 65//65
f 62//62 64//64 43//43
f 63//63 51//51 75//75
f 73//73 52//52 64//64
f 51//51 56//56 76//76
f 45//45 73//73 66//66
f 53//53 66//66 77//77
f 53//53 74//74 36//36
f 77//77 74//74 53//53
f 58//58 47//47 78//78
f 67//67 54//54 79//79
f 54//54 69//69 79//79
f 71//71 72//72 80//80
f 72//72 55//55 63//63
f 81//81 73//73 64//64
f 51//51 76//76 75//75
f 76//76 56//56 82//82
f 66//66 73//73 83//83
f 82//82 56//56 65//65
f 74//74 82//82 65//65
f 58//58 84//84 85//85
f 58//58 85//85 57//57
f 67//67 78//78 47//47
f 57//57 85//85 59//59
f 60//60 86//86 69//69
f 86//86 60//60 71//71
f 70//70 87//87 62//62
f 72//72 63//63 88//88
f 81//81 64//64 62//62
f 89//89 88//88 63//63
f 75//75 89//89 63//63
f 81//81 90//90 73//73
f 83//83 73//73 90//90
f 83//83 77//77 66//66
f 84//84 58//58 78//78
f 85//85 84//84 91//91
f 59//59 85//85 92//92
f 92//92 68//68 59//59
f 61//61 68//68 93//93
f 87//87 70//70 61//61
f 87//87 94//94 62//62
f 95//95 80//80 72//72
f 95//95 72//72 88//88
f 94//94 81//81 62//62
f 76//76 82//82 96//96
f 77//77 97//97 98//98
f 83//83 97//97 77//77
f 98//98 96//96 82//82
f 74//74 77//77 98//98
f 82//82 74//74 98//98
f 78//78 67//67 99//99
f 67//67 79//79 99//99
f 85//85 91//91 92//92
f 100//100 79//79 69//69
f 92//92 93//93 68//68
f 93//93 87//87 61//61
f 80//80 86//86 71//71
f 80//80 101//101 86//86
f 94//94 102//102 81//81
f 103//103 95//95 88//88
f 89//89 103//103 88//88
f 89//89 104//104 103//103
f 105//105 106//106 81//81
f 89//89 75//75 104//104
f 106//106 90//90 81//81
f 76//76 96//96 104//104
f 75//75 76//76 104//104
f 107//107 90//90 106//106
f 90//90 107//107 83//83
f 78//78 99//99 108//108
f 92//92 91//91 109//109
f 79//79 100//100 99//99
f 69//69 86//86 100//100
f 101//101 80//80 110//110
f 110//110 80//80 95//95
f 105//105 81//81 102//102
f 111//111 96//96 98//98
f 78//78 108//108 84//84
f 108//108 99//99 112//112
f 92//92 109//109 113//113
f 92//92 113//113 114//114
f 92//92 114//114 93//93
f 100//100 86//86 115//115
f 114//114 87//87 93//93
f 115//115 86//86 101//101
f 114//114 94//94 87//87
f 103//103 116//116 95//95
f 104//104 117//117 103//103
f 117//117 96//96 111//111
f 117//117 104//104 96//96
f 83//83 107//107 97//97
f 98//98 118//118 111//111
f 98//98 97//97 119//119
f 118//118 98//98 119//119
f 84//84 120//120 91//91
f 108//108 120//120 84//84
f 108//108 121//121 120//120
f 108//108 112//112 121//121
f 122//122 112//112 99//99
f 99//99 100//100 122//122
f 115//115 123//123 100//100
f 114//114 124//124 94//94
f 94//94 124//124 102//102
f 110//110 95//95 116//116
f 116//116 103//103 117//117
f 117//117 111//111 118//118
f 107//107 119//119 97//97
f 109//109 91//91 125//125
f 125//125 91//91 120//120
f 126//126 109//109 125//125
f 109//109 126//126 113//113
f 127//127 115//115 101//101
f 110//110 127//127 101//101
f 102//102 128//128 105//105
f 105//105 128//128 106//106
f 129//129 117//117 130//130
f 116//116 117//117 129//129
f 107//107 106//106 131//131
f 119//119 107//107 131//131
f 117//117 118//118 130//130
f 130//130 118//118 119//119
f 125//125 120//120 132//132
f 120//120 121//121 132//132
f 100//100 133//133 122//122
f 133//133 100//100 123//123
f 114//114 113//113 134//134
f 127//127 123//123 115//115
f 135//135 127//127 110//110
f 124//124 128//128 102//102
f 110//110 116//116 136//136
f 136//136 116//116 129//129
f 106//106 128//128 131//131
f 137//137 130//130 131//131
f 130//130 119//119 131//131
f 112//112 138//138 121//121
f 132//132 139//139 125//125
f 122//122 133//133 112//112
f 112//112 133//133 138//138
f 125//125 139//139 126//126
f 123//123 140//140 133//133
f 126//126 141//141 113//113
f 113//113 141//141 134//134
f 140//140 123//123 127//127
f 134//134 124//124 114//114
f 110//110 136//136 135//135
f 136//136 129//129 142//142
f 129//129 137//137 142//142
f 130//130 137//137 129//129
f 121//121 143//143 132//132
f 121//121 138//138 143//143
f 133//133 144//144 138//138
f 141//141 126//126 139//139
f 134//134 145//145 124//124
f 146//146 127//127 135//135
f 124//124 145//145 128//128
f 131//131 128//128 147//147
f 147//147 148//148 131//131
f 137//137 149//149 142//142
f 148//148 149//149 137//137
f 137//137 131//131 148//148
f 133//133 140//140 144//144
f 140//140 150//150 144//144
f 151//151 134//134 141//141
f 140//140 146//146 150//150
f 140//140 127//127 146//146
f 134//134 151//151 145//145
f 135//135 136//136 146//146
f 136//136 152//152 146//146
f 136//136 142//142 152//152
f 147//147 128//128 145//145
f 152//152 142//142 149//149
f 132//132 153//153 139//139
f 132//132 143//143 153//153
f 143//143 138//138 144//144
f 154//154 143//143 144//144
f 139//139 153//153 141//141
f 150//150 154//154 144//144
f 145//145 151//151 155//155
f 155//155 148//148 147//147
f 145//145 155//155 147//147
f 141//141 153//153 156//156
f 141//141 156//156 151//151
f 154//154 150//150 157//157
f 150//150 146//146 157//157
f 156//156 155//155 151//151
f 158//158 157//157 146//146
f 152//152 158//158 146//146
f 158//158 149//149 159//159
f 152//152 149//149 158//158
f 159//159 148//148 155//155
f 149//149 148//148 159//159
f 153//153 143//143 160//160
f 160//160 143//143 154//154
f 160//160 156//156 153//153
f 154//154 157//157 160//160
f 160//160 159//159 156//156
f 159//159 155//155 156//156
f 157//157 158//158 160//160
f 158//158 159//159 160//160
