# Blender v2.92.0 OBJ File: 'convert_to_one_sided.blend'
# www.blender.org
mtllib 173L.mtl
o 173
v 6.241370 6.779912 4.735470
v 6.295939 6.786652 4.733900
v 6.273069 6.756882 4.743830
v 6.285439 6.821451 4.738830
v 6.253129 6.826581 4.744320
v 6.257120 6.733072 4.766670
v 6.310089 6.777402 4.767890
v 6.184700 6.745242 4.775350
v 6.127331 6.782342 4.780930
v 6.208310 6.828221 4.761970
v 6.309039 6.844981 4.764440
v 6.337579 6.861931 4.801569
v 6.273160 6.893720 4.786239
v 6.197520 6.726372 4.794509
v 6.155351 6.829181 4.781290
v 6.337288 6.804612 4.818119
v 6.184021 6.877871 4.802489
v 6.204500 6.723312 4.827769
v 6.275569 6.742232 4.806659
v 6.097412 6.753692 4.812209
v 6.097211 6.836111 4.821019
v 6.321949 6.949790 4.840619
v 6.122321 6.737262 4.838079
v 6.311089 6.777042 4.854418
v 6.061772 6.785622 4.830559
v 6.352889 6.897540 4.878568
v 6.132461 6.904160 4.852179
v 6.200570 6.945040 4.856648
v 6.345298 6.947209 4.870079
v 6.272929 6.989419 4.873858
v 6.050422 6.761292 4.865788
v 6.340488 6.852981 4.921817
v 6.026302 6.818971 4.859349
v 6.031393 6.873250 4.899988
v 6.120081 6.735892 4.899608
v 6.237630 6.754992 4.892778
v 6.155221 6.750522 4.938507
v 6.009623 6.792652 4.884858
v 5.974483 6.832351 4.926178
v 6.356848 6.982059 4.926888
v 6.313549 7.029119 4.912918
v 6.056372 6.753382 4.930128
v 5.999853 6.776752 4.945427
v 6.363398 6.988429 5.032506
v 6.097812 6.940939 4.924478
v 6.186030 6.997919 4.931818
v 6.338849 7.019948 4.934688
v 6.266749 7.045448 4.950337
v 5.973303 6.801382 4.949187
v 6.234420 6.788762 4.982747
v 6.357128 6.942510 5.040276
v 6.317449 7.076158 5.001216
v 5.933764 6.827621 5.019207
v 5.933514 6.869670 5.014256
v 5.970213 6.870301 4.963587
v 5.992063 6.914990 5.008236
v 5.965133 6.797052 5.042626
v 6.286039 6.840191 5.017586
v 6.335709 6.905210 5.064666
v 6.167490 7.039649 5.030326
v 6.355708 7.041569 5.038186
v 6.132131 6.780712 5.060726
v 6.080272 6.971449 5.004917
v 6.341358 7.073778 5.039776
v 6.267569 7.081118 5.031516
v 6.080612 6.761762 4.999567
v 6.020153 6.777412 5.040386
v 5.908944 6.866611 5.100266
v 6.307609 6.890970 5.105335
v 6.303679 7.109378 5.083346
v 5.933814 6.820971 5.124245
v 5.916154 6.843381 5.106075
v 6.354068 7.101258 5.170684
v 6.220390 7.091648 5.131995
v 6.186851 6.834431 5.158535
v 5.942394 6.925850 5.134995
v 6.049972 6.983919 5.077765
v 6.085162 7.027089 5.144104
v 6.052932 6.786392 5.120735
v 6.272140 6.890760 5.173544
v 6.363688 7.002979 5.178124
v 6.365228 7.053768 5.180325
v 6.327669 7.102178 5.095445
v 6.313838 7.124877 5.198574
v 5.991833 6.805892 5.166844
v 5.916004 6.854071 5.170024
v 5.925564 6.900950 5.220724
v 6.320639 6.934390 5.182234
v 6.345539 6.954720 5.145495
v 6.009452 6.989589 5.184344
v 6.071832 6.825801 5.236884
v 6.231540 7.116948 5.258863
v 5.947314 6.836201 5.220963
v 6.217690 6.889710 5.272453
v 6.004013 6.992369 5.302002
v 6.132981 7.067858 5.254463
v 6.366118 7.100138 5.282353
v 6.342598 6.998939 5.304673
v 6.346688 7.130277 5.310252
v 6.158421 6.878541 5.314073
v 5.932993 6.866651 5.244813
v 6.284169 6.954319 5.345152
v 5.969273 6.947860 5.321133
v 6.306089 7.152317 5.374902
v 5.994103 6.834851 5.260773
v 5.949414 6.901620 5.298462
v 6.220700 7.131137 5.404171
v 5.966153 6.866721 5.289712
v 6.362998 7.065428 5.317673
v 6.223700 6.930910 5.384452
v 5.990043 6.945320 5.365822
v 5.996413 6.911000 5.359262
v 6.351648 7.064298 5.459831
v 6.127162 7.082248 5.428761
v 6.031202 6.880200 5.341152
v 6.322178 7.038448 5.508700
v 6.356218 7.124588 5.399001
v 6.337479 7.149447 5.435421
v 6.102122 6.884680 5.351842
v 6.032762 6.992679 5.403781
v 6.176740 6.937110 5.438161
v 6.039422 6.955639 5.415661
v 6.066242 7.033879 5.412221
v 6.049652 6.926580 5.404952
v 6.101951 6.925840 5.417761
v 6.356008 7.105187 5.464151
v 6.285709 7.164267 5.512760
v 6.320919 7.159817 5.498470
v 6.253510 6.990529 5.503670
v 6.110591 6.988119 5.499200
v 6.079312 7.008829 5.471490
v 6.341078 7.078248 5.552320
v 6.112122 7.054168 5.504190
v 6.335669 7.134777 5.558030
v 6.173891 6.983429 5.525010
v 6.209910 6.984299 5.525000
v 6.184320 7.111417 5.566369
v 6.226750 7.137267 5.534760
v 6.126801 7.039408 5.541990
v 6.342498 7.095238 5.540070
v 6.180981 7.023438 5.594539
v 6.225730 7.019598 5.598689
v 6.151990 7.065598 5.584639
v 6.167070 7.050288 5.609129
v 6.181170 7.087898 5.625258
v 6.278269 7.159177 5.605859
v 6.306269 7.153997 5.592549
v 6.224030 7.135077 5.691928
v 6.285039 7.046339 5.636618
v 6.324499 7.090328 5.601489
v 6.319529 7.153297 5.670508
v 6.208500 7.043168 5.674218
v 6.247390 7.036018 5.682378
v 6.177300 7.094408 5.699999
v 6.175376 7.070244 5.699999
v 6.290597 7.162550 5.699999
v 6.294590 7.161919 5.699999
v 6.246469 7.144239 5.699999
v 6.216217 7.129174 5.699999
v 6.226435 7.136631 5.699999
v 6.220006 7.133020 5.699999
v 6.222641 7.134638 5.699999
v 6.309626 7.068469 5.699999
v 6.283801 7.040084 5.699999
v 6.332058 7.126927 5.699999
v 6.320942 7.080461 5.699999
v 6.333074 7.131169 5.699999
v 6.302434 7.159592 5.699999
v 6.329327 7.136856 5.699999
v 6.320438 7.154649 5.699999
v 6.192278 7.052235 5.699999
v 6.201526 7.039030 5.699999
v 6.209411 7.035535 5.699999
v 6.241504 7.031600 5.699999
v 6.254642 7.035479 5.699999
v 6.171505 7.059801 5.699999
vn -0.2022 -0.0750 -0.9765
vn 0.4912 -0.1325 -0.8609
vn 0.1962 -0.6316 -0.7500
vn 0.1422 0.3501 -0.9259
vn -0.2030 0.3968 -0.8952
vn 0.2261 -0.9062 -0.3574
vn 0.7976 -0.4954 -0.3442
vn -0.2831 -0.6658 -0.6904
vn -0.4701 -0.0199 -0.8824
vn -0.3111 0.3894 -0.8669
vn 0.6168 0.3077 -0.7245
vn 0.8771 0.1148 -0.4665
vn -0.0515 0.6062 -0.7937
vn -0.1794 -0.9260 -0.3322
vn -0.3960 0.3992 -0.8269
vn 0.9379 -0.3393 -0.0724
vn -0.3266 0.5764 -0.7490
vn 0.0927 -0.9900 0.1061
vn 0.4882 -0.8674 0.0963
vn -0.4997 -0.6338 -0.5904
vn -0.4995 0.4201 -0.7576
vn 0.4647 0.5630 -0.6834
vn -0.2929 -0.9365 -0.1927
vn 0.6466 -0.7295 0.2230
vn -0.6583 -0.1760 -0.7319
vn 0.9937 -0.0611 -0.0937
vn -0.4267 0.6320 -0.6470
vn -0.3245 0.6904 -0.6466
vn 0.8527 0.3188 -0.4139
vn -0.1506 0.7272 -0.6697
vn -0.5565 -0.7667 -0.3202
vn 0.8705 -0.4542 0.1894
vn -0.6713 0.1969 -0.7146
vn -0.5524 0.5964 -0.5824
vn -0.0924 -0.9863 0.1367
vn 0.3242 -0.8944 0.3083
vn 0.1313 -0.9513 0.2789
vn -0.7590 -0.4193 -0.4981
vn -0.8336 0.1098 -0.5413
vn 0.9464 0.2377 -0.2189
vn 0.2186 0.7778 -0.5893
vn -0.2912 -0.9560 0.0361
vn -0.5405 -0.8346 -0.1064
vn 0.9995 -0.0003 -0.0324
vn -0.4693 0.7286 -0.4989
vn -0.3978 0.7692 -0.5001
vn 0.7311 0.5551 -0.3967
vn -0.2344 0.8466 -0.4778
vn -0.7845 -0.5548 -0.2769
vn 0.4269 -0.8363 0.3440
vn 0.9504 -0.2976 0.0903
vn 0.2681 0.8778 -0.3970
vn -0.8864 -0.4089 -0.2170
vn -0.8295 0.4122 -0.3768
vn -0.6343 0.5839 -0.5067
vn -0.5550 0.7380 -0.3838
vn -0.5296 -0.8481 0.0167
vn 0.6045 -0.7330 0.3118
vn 0.7844 -0.5787 0.2232
vn -0.4351 0.8366 -0.3328
vn 0.9386 0.3110 -0.1494
vn 0.2074 -0.9339 0.2912
vn -0.4973 0.7783 -0.3834
vn 0.7293 0.6312 -0.2640
vn -0.2610 0.9030 -0.3413
vn -0.0386 -0.9767 0.2110
vn -0.2516 -0.9586 0.1337
vn -0.9920 0.0912 -0.0872
vn 0.6458 -0.7127 0.2739
vn -0.0061 0.9677 -0.2522
vn -0.6455 -0.7582 0.0921
vn -0.8944 -0.4470 -0.0122
vn 0.7819 0.6060 -0.1462
vn -0.3542 0.9166 -0.1853
vn 0.4000 -0.8607 0.3150
vn -0.7143 0.6820 -0.1569
vn -0.5330 0.7940 -0.2924
vn -0.4797 0.8550 -0.1974
vn -0.0243 -0.9704 0.2405
vn 0.5513 -0.7854 0.2814
vn 0.9694 -0.2324 0.0786
vn 0.9954 0.0871 -0.0405
vn 0.4657 0.8580 -0.2165
vn 0.1277 0.9798 -0.1538
vn -0.2349 -0.9453 0.2264
vn -0.9169 -0.3610 0.1701
vn -0.9450 0.2898 0.1517
vn 0.7040 -0.6667 0.2447
vn 0.8558 -0.4883 0.1709
vn -0.5580 0.8178 -0.1408
vn 0.1056 -0.9241 0.3672
vn -0.3112 0.9396 -0.1425
vn -0.5552 -0.7669 0.3220
vn 0.4531 -0.8442 0.2865
vn -0.6908 0.7211 0.0534
vn -0.4757 0.8735 -0.1033
vn 0.9578 0.2859 -0.0293
vn 0.8359 -0.5219 0.1698
vn 0.6034 0.7908 -0.1024
vn 0.2830 -0.8918 0.3530
vn -0.8533 -0.3640 0.3732
vn 0.5802 -0.7729 0.2568
vn -0.8594 0.4191 0.2929
vn 0.0462 0.9917 -0.1201
vn -0.2014 -0.8808 0.4286
vn -0.8653 -0.1381 0.4818
vn -0.3906 0.9169 -0.0823
vn -0.5267 -0.6506 0.5471
vn 0.9928 -0.1015 0.0639
vn 0.3978 -0.8593 0.3214
vn -0.8013 0.0304 0.5975
vn -0.5639 -0.4877 0.6664
vn 0.9467 -0.2918 0.1366
vn -0.5703 0.8209 0.0301
vn -0.1664 -0.8103 0.5619
vn 0.6994 -0.6697 0.2499
vn 0.9263 0.3755 0.0317
vn 0.6185 0.7856 -0.0181
vn 0.0581 -0.8815 0.4686
vn -0.8189 0.3795 0.4306
vn 0.1574 -0.8894 0.4292
vn -0.6895 -0.2034 0.6952
vn -0.7168 0.6731 0.1820
vn -0.3628 -0.6461 0.6715
vn -0.1155 -0.8152 0.5675
vn 0.9922 0.0565 0.1115
vn -0.1093 0.9940 -0.0084
vn 0.4081 0.9122 0.0359
vn 0.3906 -0.8633 0.3195
vn -0.5501 -0.5339 0.6421
vn -0.8139 0.0183 0.5807
vn 0.9057 -0.3297 0.2666
vn -0.8071 0.4915 0.3271
vn 0.8916 0.4407 0.1040
vn -0.1123 -0.8569 0.5031
vn 0.1631 -0.8970 0.4108
vn -0.6658 0.7370 0.1161
vn -0.4517 0.8921 0.0021
vn -0.8545 -0.0105 0.5193
vn 0.9755 0.0135 0.2196
vn -0.3677 -0.7937 0.4846
vn 0.0645 -0.9404 0.3339
vn -0.8599 0.1637 0.4834
vn -0.8319 -0.3178 0.4549
vn -0.8903 0.4163 0.1846
vn -0.1758 0.9843 0.0124
vn 0.3382 0.9408 0.0215
vn -0.5505 0.8344 -0.0278
vn 0.5422 -0.8334 0.1072
vn 0.9250 -0.3289 0.1904
vn 0.6004 0.7988 -0.0391
vn -0.4358 -0.8995 0.0327
vn 0.1006 -0.9941 -0.0402
vn -0.7610 0.3812 0.5249
vn -0.5272 0.5384 0.6574
vn 0.7315 0.1831 0.6568
vn 0.5845 0.3344 0.7393
vn 0.6699 -0.3063 0.6763
vn 0.5386 -0.4831 0.6903
vn -0.6518 -0.5846 0.4830
vn -0.1846 -0.7373 0.6498
vn -0.2443 0.6318 0.7356
vn -0.3107 0.6884 0.6554
vn -0.5332 0.5755 0.6201
vn 0.5043 0.5961 0.6248
vn 0.2259 0.6763 0.7012
vn 0.1761 -0.6947 0.6974
vn 0.0046 -0.8047 0.5936
vn -0.7108 -0.3595 0.6047
vn -0.4353 -0.5370 0.7226
vn 0.6216 -0.1843 0.7613
vn 0.3641 -0.6869 0.6290
vn -0.3804 0.6248 0.6819
vn -0.6098 0.1267 0.7823
vn 0.1088 0.7128 0.6928
vn -0.0687 0.7215 0.6890
usemtl mtl1.1034
s 1
f 1//1 2//2 3//3
f 2//2 1//1 4//4
f 4//4 1//1 5//5
f 6//6 3//3 7//7
f 1//1 8//8 9//9
f 3//3 8//8 1//1
f 2//2 7//7 3//3
f 9//9 10//10 1//1
f 7//7 2//2 11//11
f 1//1 10//10 5//5
f 4//4 11//11 2//2
f 12//12 7//7 11//11
f 5//5 10//10 13//13
f 4//4 5//5 13//13
f 11//11 4//4 13//13
f 14//14 8//8 6//6
f 3//3 6//6 8//8
f 10//10 9//9 15//15
f 12//12 16//16 7//7
f 10//10 15//15 17//17
f 17//17 13//13 10//10
f 6//6 18//18 14//14
f 6//6 7//7 19//19
f 8//8 20//20 9//9
f 21//21 17//17 15//15
f 13//13 22//22 11//11
f 6//6 19//19 18//18
f 8//8 23//23 20//20
f 14//14 23//23 8//8
f 24//24 19//19 7//7
f 16//16 24//24 7//7
f 20//20 25//25 9//9
f 9//9 25//25 21//21
f 9//9 21//21 15//15
f 16//16 12//12 26//26
f 17//17 21//21 27//27
f 17//17 27//27 28//28
f 12//12 22//22 29//29
f 11//11 22//22 12//12
f 17//17 28//28 13//13
f 30//30 13//13 28//28
f 22//22 13//13 30//30
f 14//14 18//18 23//23
f 31//31 20//20 23//23
f 20//20 31//31 25//25
f 32//32 24//24 16//16
f 25//25 33//33 21//21
f 34//34 21//21 33//33
f 27//27 21//21 34//34
f 12//12 29//29 26//26
f 23//23 18//18 35//35
f 18//18 36//36 37//37
f 18//18 19//19 36//36
f 25//25 31//31 38//38
f 33//33 25//25 38//38
f 39//39 33//33 38//38
f 26//26 29//29 40//40
f 30//30 41//41 22//22
f 18//18 37//37 35//35
f 31//31 42//42 43//43
f 23//23 42//42 31//31
f 24//24 36//36 19//19
f 31//31 43//43 38//38
f 16//16 26//26 32//32
f 34//34 33//33 39//39
f 26//26 40//40 44//44
f 27//27 45//45 28//28
f 28//28 45//45 46//46
f 29//29 22//22 47//47
f 40//40 29//29 47//47
f 30//30 28//28 46//46
f 47//47 22//22 41//41
f 41//41 30//30 48//48
f 35//35 42//42 23//23
f 38//38 43//43 49//49
f 24//24 50//50 36//36
f 39//39 38//38 49//49
f 51//51 32//32 26//26
f 27//27 34//34 45//45
f 30//30 46//46 48//48
f 41//41 48//48 52//52
f 49//49 53//53 39//39
f 54//54 39//39 53//53
f 39//39 54//54 55//55
f 39//39 55//55 34//34
f 34//34 55//55 56//56
f 26//26 44//44 51//51
f 45//45 34//34 56//56
f 49//49 43//43 57//57
f 24//24 58//58 50//50
f 58//58 24//24 32//32
f 59//59 58//58 32//32
f 59//59 32//32 51//51
f 48//48 46//46 60//60
f 61//61 40//40 47//47
f 52//52 47//47 41//41
f 36//36 62//62 37//37
f 49//49 57//57 53//53
f 55//55 54//54 56//56
f 46//46 45//45 63//63
f 44//44 40//40 61//61
f 46//46 63//63 60//60
f 47//47 52//52 64//64
f 48//48 65//65 52//52
f 35//35 66//66 42//42
f 35//35 37//37 66//66
f 42//42 67//67 43//43
f 37//37 62//62 66//66
f 53//53 68//68 54//54
f 69//69 58//58 59//59
f 63//63 45//45 56//56
f 64//64 61//61 47//47
f 60//60 65//65 48//48
f 52//52 65//65 70//70
f 42//42 66//66 67//67
f 53//53 57//57 71//71
f 67//67 57//57 43//43
f 36//36 50//50 62//62
f 53//53 72//72 68//68
f 64//64 73//73 61//61
f 65//65 60//60 74//74
f 53//53 71//71 72//72
f 50//50 58//58 75//75
f 76//76 54//54 68//68
f 56//56 54//54 76//76
f 63//63 56//56 77//77
f 63//63 77//77 60//60
f 60//60 78//78 74//74
f 66//66 79//79 67//67
f 62//62 79//79 66//66
f 50//50 75//75 62//62
f 58//58 80//80 75//75
f 58//58 69//69 80//80
f 51//51 44//44 81//81
f 44//44 61//61 82//82
f 83//83 64//64 52//52
f 70//70 83//83 52//52
f 56//56 76//76 77//77
f 78//78 60//60 77//77
f 44//44 82//82 81//81
f 64//64 83//83 73//73
f 74//74 70//70 65//65
f 70//70 74//74 84//84
f 57//57 67//67 85//85
f 86//86 72//72 71//71
f 72//72 86//86 68//68
f 76//76 68//68 87//87
f 59//59 88//88 69//69
f 59//59 89//89 88//88
f 89//89 59//59 51//51
f 51//51 81//81 89//89
f 90//90 78//78 77//77
f 61//61 73//73 82//82
f 70//70 84//84 83//83
f 79//79 85//85 67//67
f 62//62 91//91 79//79
f 88//88 80//80 69//69
f 68//68 86//86 87//87
f 74//74 92//92 84//84
f 62//62 75//75 91//91
f 90//90 77//77 76//76
f 79//79 91//91 85//85
f 85//85 71//71 57//57
f 85//85 93//93 71//71
f 71//71 93//93 86//86
f 80//80 94//94 75//75
f 76//76 87//87 95//95
f 90//90 76//76 95//95
f 78//78 90//90 96//96
f 82//82 73//73 97//97
f 96//96 74//74 78//78
f 73//73 83//83 84//84
f 88//88 89//89 98//98
f 74//74 96//96 92//92
f 99//99 73//73 84//84
f 99//99 97//97 73//73
f 100//100 91//91 75//75
f 86//86 93//93 101//101
f 86//86 101//101 87//87
f 80//80 102//102 94//94
f 102//102 80//80 88//88
f 87//87 103//103 95//95
f 84//84 92//92 104//104
f 85//85 105//105 93//93
f 85//85 91//91 105//105
f 75//75 94//94 100//100
f 87//87 101//101 106//106
f 87//87 106//106 103//103
f 95//95 96//96 90//90
f 89//89 81//81 98//98
f 92//92 96//96 107//107
f 101//101 93//93 108//108
f 105//105 108//108 93//93
f 98//98 81//81 109//109
f 109//109 81//81 82//82
f 109//109 82//82 97//97
f 104//104 99//99 84//84
f 101//101 108//108 106//106
f 94//94 110//110 100//100
f 111//111 106//106 112//112
f 103//103 106//106 111//111
f 98//98 109//109 113//113
f 107//107 96//96 114//114
f 115//115 108//108 105//105
f 105//105 91//91 115//115
f 108//108 112//112 106//106
f 88//88 98//98 102//102
f 98//98 113//113 116//116
f 109//109 97//97 117//117
f 97//97 99//99 117//117
f 104//104 118//118 99//99
f 91//91 119//119 115//115
f 100//100 119//119 91//91
f 115//115 112//112 108//108
f 102//102 110//110 94//94
f 98//98 116//116 102//102
f 120//120 95//95 103//103
f 96//96 95//95 114//114
f 92//92 107//107 104//104
f 100//100 121//121 119//119
f 110//110 121//121 100//100
f 112//112 122//122 111//111
f 111//111 120//120 103//103
f 123//123 95//95 120//120
f 114//114 95//95 123//123
f 112//112 115//115 124//124
f 115//115 125//125 124//124
f 115//115 119//119 125//125
f 122//122 112//112 124//124
f 111//111 122//122 120//120
f 126//126 113//113 109//109
f 117//117 126//126 109//109
f 118//118 117//117 99//99
f 104//104 107//107 127//127
f 104//104 127//127 128//128
f 119//119 121//121 125//125
f 110//110 129//129 121//121
f 102//102 129//129 110//110
f 104//104 128//128 118//118
f 124//124 125//125 130//130
f 122//122 124//124 130//130
f 122//122 131//131 120//120
f 132//132 116//116 113//113
f 114//114 123//123 133//133
f 134//134 117//117 118//118
f 130//130 125//125 135//135
f 125//125 121//121 135//135
f 136//136 135//135 121//121
f 121//121 129//129 136//136
f 122//122 130//130 131//131
f 133//133 120//120 131//131
f 120//120 133//133 123//123
f 137//137 114//114 133//133
f 117//117 134//134 126//126
f 107//107 114//114 138//138
f 129//129 102//102 116//116
f 131//131 139//139 133//133
f 132//132 113//113 140//140
f 113//113 126//126 140//140
f 114//114 137//137 138//138
f 138//138 127//127 107//107
f 130//130 139//139 131//131
f 130//130 135//135 141//141
f 134//134 118//118 128//128
f 136//136 129//129 142//142
f 143//143 139//139 144//144
f 133//133 139//139 143//143
f 133//133 143//143 145//145
f 137//137 133//133 145//145
f 140//140 126//126 134//134
f 146//146 127//127 138//138
f 147//147 134//134 128//128
f 135//135 142//142 141//141
f 136//136 142//142 135//135
f 130//130 144//144 139//139
f 130//130 141//141 144//144
f 137//137 148//148 138//138
f 128//128 127//127 147//147
f 116//116 149//149 129//129
f 116//116 150//150 149//149
f 116//116 132//132 150//150
f 140//140 150//150 132//132
f 150//150 140//140 134//134
f 138//138 148//148 146//146
f 151//151 134//134 147//147
f 146//146 147//147 127//127
f 152//152 141//141 142//142
f 129//129 149//149 142//142
f 145//145 143//143 144//144
f 137//137 145//145 148//148
f 142//142 153//153 152//152
f 149//149 153//153 142//142
f 141//141 152//152 144//144
f 148//148 154//154 159//155
f 167//156 151//151 169//157
f 149//149 166//158 163//159
f 172//160 152//152 173//161
f 158//162 148//148 160//163
f 159//155 161//164 148//148
f 169//157 151//151 170//165
f 170//165 151//151 168//166
f 153//153 175//167 174//168
f 153//153 173//161 152//152
f 152//152 176//169 144//144
f 152//152 172//160 171//170
f 150//150 167//156 165//171
f 150//150 165//171 166//158
f 153//153 164//172 175//167
f 149//149 163//159 164//172
f 148//148 161//164 162//173
f 148//148 162//173 160//163
f 155//174 176//169 171//170
f 151//151 157//175 168//166
f 148//148 156//176 146//146
f 146//146 157//175 147//147
f 176//169 145//145 144//144
f 145//145 155//174 154//154
f 148//148 145//145 154//154
f 167//156 134//134 151//151
f 149//149 150//150 166//158
f 153//153 174//168 173//161
f 152//152 171//170 176//169
f 150//150 134//134 167//156
f 153//153 149//149 164//172
f 163//159 166//158 158//162
f 166//158 165//171 158//162
f 165//171 167//156 169//157
f 169//157 170//165 168//166
f 168//166 157//175 156//176
f 158//162 160//163 175//167
f 160//163 162//173 159//155
f 168//166 156//176 158//162
f 165//171 169//157 168//166
f 164//172 163//159 175//167
f 173//161 174//168 171//170
f 174//168 175//167 159//155
f 171//170 174//168 159//155
f 163//159 158//162 175//167
f 165//171 168//166 158//162
f 160//163 159//155 175//167
f 162//173 161//164 159//155
f 159//155 154//154 171//170
f 154//154 155//174 171//170
f 172//160 173//161 171//170
f 151//151 147//147 157//175
f 148//148 158//162 156//176
f 146//146 156//176 157//175
f 176//169 155//174 145//145
