# Blender v2.92.0 OBJ File: 'convert_to_one_sided.blend'
# www.blender.org
mtllib 182305701L.mtl
o 182305701
v 5.643198 1.814206 2.550347
v 5.673097 1.827576 2.540897
v 5.707016 1.790887 2.566817
v 5.713556 1.836546 2.544847
v 5.758966 1.807876 2.590477
v 5.743646 1.866536 2.570487
v 5.663627 1.882785 2.578257
v 5.597598 1.773967 2.649366
v 5.604228 1.847216 2.566717
v 5.570498 1.878665 2.578017
v 5.231483 2.021843 2.556087
v 5.294002 1.994354 2.568007
v 5.257762 1.956104 2.616767
v 5.193483 2.000294 2.601207
v 5.288432 2.033673 2.575197
v 5.187833 2.036283 2.589567
v 5.225723 2.054993 2.575077
v 5.208543 2.076643 2.584957
v 5.752536 1.701428 2.681136
v 5.559859 1.836416 2.588207
v 5.772216 1.740667 2.638886
v 5.498179 1.880905 2.585487
v 5.771636 1.856336 2.602467
v 5.511449 1.925115 2.591137
v 5.385341 1.943385 2.592927
v 5.743366 1.884165 2.597237
v 5.390221 1.893985 2.628747
v 5.388500 1.984684 2.592737
v 5.179423 2.055733 2.614166
v 5.278592 2.073473 2.607707
v 5.806685 1.747717 2.659966
v 5.478329 1.844466 2.638946
v 5.794075 1.813026 2.634986
v 5.160014 1.976094 2.656246
v 5.152443 2.000394 2.643776
v 5.489749 1.984354 2.621737
v 5.602348 1.939005 2.614666
v 5.688417 1.915905 2.631896
v 5.370661 2.024163 2.607927
v 5.206113 2.080653 2.639736
v 5.776936 1.849486 2.647456
v 5.137764 2.020394 2.658006
v 5.387831 2.040543 2.631006
v 5.149754 2.056953 2.679176
v 5.375451 1.846436 2.714175
v 5.570038 1.961844 2.647406
v 5.464820 2.008134 2.650276
v 5.173023 2.084113 2.698745
v 5.315641 2.079993 2.644786
v 5.212553 2.097122 2.683246
v 5.257202 2.086713 2.649586
v 5.845705 1.672648 2.729365
v 5.726236 1.651548 2.776325
v 5.179823 1.943755 2.708495
v 5.748276 1.876465 2.687556
v 5.104984 2.003664 2.699536
v 5.386021 2.048583 2.654766
v 5.851835 1.612109 2.781034
v 5.569748 1.727897 2.766175
v 5.842205 1.754947 2.711525
v 5.830025 1.802756 2.734275
v 5.594798 1.922355 2.741215
v 5.412050 2.015524 2.708285
v 5.276542 2.071523 2.692736
v 5.247222 1.898165 2.744545
v 5.756506 1.819516 2.812064
v 5.089175 2.039133 2.719735
v 5.100224 2.065113 2.734995
v 5.915524 1.585579 2.797444
v 5.948073 1.656998 2.811794
v 5.947194 1.593409 2.811304
v 5.077365 2.007214 2.745235
v 5.071895 2.029133 2.735815
v 5.147084 2.077023 2.738125
v 5.895764 1.733237 2.784624
v 5.472430 1.770757 2.786944
v 5.163134 1.947934 2.756395
v 5.067235 2.041033 2.747855
v 5.241823 2.044433 2.770114
v 5.384611 1.977804 2.797074
v 5.957383 1.524560 2.856074
v 5.412760 1.810776 2.790864
v 5.296212 1.882145 2.770725
v 5.901824 1.736187 2.832714
v 5.092944 1.994714 2.762335
v 5.073365 2.028093 2.761865
v 5.082705 2.054983 2.758455
v 5.878464 1.549910 2.860403
v 6.000163 1.527570 2.858233
v 6.034292 1.550660 2.869093
v 5.685297 1.645868 2.840974
v 5.576348 1.712898 2.825894
v 5.957044 1.686398 2.844724
v 5.497570 1.762187 2.818754
v 5.862395 1.748377 2.869643
v 5.187324 1.966584 2.788914
v 5.126494 2.060413 2.772964
v 5.803225 1.580449 2.886703
v 6.026692 1.631369 2.884053
v 5.386261 1.850856 2.818534
v 5.581638 1.873515 2.840674
v 5.498189 1.922595 2.810074
v 5.126504 2.034063 2.782454
v 5.243012 2.018104 2.808414
v 6.099112 1.465721 2.914113
v 6.085172 1.561369 2.907243
v 5.677877 1.658078 2.879683
v 5.809646 1.755897 2.897613
v 5.675797 1.806166 2.880183
v 5.312592 1.930605 2.829994
v 5.217223 2.001074 2.807994
v 5.190883 2.029523 2.787474
v 6.063192 1.460651 2.913733
v 6.014163 1.460581 2.936522
v 6.158431 1.466701 2.941182
v 5.739316 1.620969 2.887413
v 5.545839 1.753977 2.850414
v 6.015822 1.648158 2.901773
v 5.948383 1.675828 2.930182
v 5.524089 1.810286 2.873073
v 5.414940 1.893595 2.855133
v 5.461770 1.902105 2.844794
v 5.337431 1.952744 2.822074
v 6.166271 1.424631 2.947132
v 6.179780 1.399891 2.963062
v 5.922384 1.504390 2.937662
v 6.224260 1.480600 2.995452
v 6.108501 1.572029 2.948592
v 5.687847 1.690488 2.911153
v 6.136661 1.398102 2.976102
v 6.215090 1.405971 2.971572
v 5.788256 1.601709 2.923463
v 5.575888 1.838066 2.872363
v 5.523079 1.845426 2.870363
v 6.274179 1.405941 3.005572
v 5.870655 1.538490 2.941252
v 6.090422 1.586029 2.977312
v 5.725186 1.717627 2.934793
v 5.623497 1.797046 2.891293
v 5.745266 1.749137 2.919363
v 6.277439 1.363932 3.007782
v 6.274949 1.335832 3.024531
v 6.374688 1.344522 3.046471
v 6.116851 1.391642 3.010381
v 6.036802 1.435971 3.000102
v 5.938283 1.505290 2.979322
v 5.864125 1.558569 2.954982
v 6.199250 1.512240 3.016411
v 6.072372 1.565319 3.025981
v 5.853525 1.699438 2.945832
v 5.943053 1.631078 2.988602
v 5.796105 1.704958 2.947132
v 6.216150 1.342202 3.047001
v 6.377908 1.304853 3.050461
v 6.387968 1.378552 3.060301
v 5.867125 1.590209 2.973022
v 5.851165 1.659808 2.964852
v 6.409728 1.267243 3.074111
v 6.356558 1.268663 3.096620
v 6.012213 1.475570 3.024321
v 6.323499 1.432731 3.066771
v 6.168081 1.522420 3.038711
v 6.545206 1.244644 3.094610
v 6.493766 1.244493 3.090491
v 6.455727 1.289553 3.073511
v 6.505146 1.289523 3.087220
v 6.152301 1.376632 3.064351
v 6.267569 1.304673 3.099490
v 5.925933 1.601289 2.997342
v 6.002983 1.527310 3.034451
v 5.997222 1.570649 3.020201
v 6.525366 1.203794 3.129720
v 6.580295 1.214104 3.116860
v 6.360388 1.251933 3.155689
v 6.630185 1.218614 3.134170
v 6.553056 1.297753 3.121510
v 6.475276 1.353432 3.117290
v 6.114642 1.434821 3.080870
v 6.281389 1.454831 3.086431
v 6.057792 1.528140 3.050661
v 6.598155 1.294123 3.162669
v 6.111231 1.474351 3.083791
v 6.433638 1.377172 3.131980
v 6.215300 1.478781 3.089390
v 6.148651 1.488870 3.083321
v 6.630825 1.177074 3.160210
v 6.678234 1.180864 3.171369
v 6.487586 1.190024 3.192419
v 6.692284 1.200814 3.173499
v 6.270679 1.307633 3.130790
v 6.654514 1.236524 3.167289
v 6.419898 1.364782 3.176629
v 6.667984 1.157305 3.204049
v 6.446917 1.208144 3.212869
v 6.695084 1.199394 3.200039
v 6.222390 1.358262 3.128610
v 6.520626 1.333352 3.149860
v 6.201090 1.405091 3.129750
v 6.196320 1.438321 3.119620
v 6.288059 1.406461 3.153350
v 6.601975 1.163495 3.207739
v 6.679274 1.175904 3.212069
v 6.324588 1.290763 3.174899
v 6.655254 1.236154 3.220129
v 6.566145 1.299513 3.193499
v 6.289999 1.374742 3.172589
v 6.403337 1.339032 3.212049
v 6.402678 1.243204 3.206689
v 6.310079 1.332112 3.180899
v 6.350148 1.355152 3.195519
v 6.645294 1.156645 3.256958
v 6.526496 1.171404 3.261028
v 6.635584 1.250273 3.245648
v 6.575346 1.163665 3.248458
v 6.489157 1.197364 3.250958
v 6.664534 1.184804 3.257248
v 6.443917 1.246573 3.238769
v 6.586995 1.267323 3.250448
v 6.417538 1.305673 3.225399
v 6.506506 1.284433 3.247258
v 6.555016 1.162265 3.280478
v 6.641375 1.221674 3.266638
v 6.598385 1.164485 3.283508
v 6.546696 1.186584 3.278188
v 6.533786 1.235834 3.271898
v 6.643054 1.170064 3.284518
v 6.599765 1.225844 3.279148
v 6.638194 1.192534 3.280858
v 6.596575 1.193554 3.276568
vn -0.3038 -0.4970 -0.8128
vn -0.0724 0.0161 -0.9972
vn 0.1287 -0.6341 -0.7625
vn 0.3200 0.0562 -0.9458
vn 0.6623 -0.1979 -0.7226
vn 0.5229 0.4434 -0.7280
vn 0.0738 0.5938 -0.8012
vn -0.3400 -0.8000 -0.4945
vn -0.2394 0.0693 -0.9684
vn -0.0670 0.2234 -0.9724
vn -0.2397 -0.1495 -0.9593
vn 0.0824 -0.2323 -0.9692
vn -0.2923 -0.7310 -0.6166
vn -0.5407 -0.5126 -0.6670
vn 0.2575 0.4220 -0.8693
vn -0.6801 0.0779 -0.7290
vn -0.0712 0.4745 -0.8774
vn -0.3616 0.7195 -0.5930
vn -0.0475 -0.7834 -0.6197
vn -0.4130 -0.5533 -0.7234
vn 0.3828 -0.5667 -0.7296
vn -0.2636 -0.2937 -0.9188
vn 0.8397 0.3690 -0.3984
vn 0.0496 0.3170 -0.9471
vn -0.0939 -0.3138 -0.9448
vn 0.4900 0.8109 -0.3198
vn -0.3217 -0.6887 -0.6497
vn 0.2338 0.2645 -0.9356
vn -0.7245 0.5706 -0.3866
vn 0.1993 0.8267 -0.5261
vn 0.7282 -0.2133 -0.6513
vn -0.3925 -0.7198 -0.5726
vn 0.8880 0.1523 -0.4339
vn -0.5434 -0.6850 -0.4854
vn -0.7210 -0.3050 -0.6222
vn 0.3152 0.7071 -0.6330
vn 0.2585 0.7617 -0.5941
vn 0.4159 0.8984 -0.1412
vn 0.3256 0.5820 -0.7451
vn -0.3081 0.9123 -0.2699
vn 0.7727 0.6285 -0.0886
vn -0.7896 0.1865 -0.5846
vn 0.3898 0.8114 -0.4355
vn -0.5914 0.6661 -0.4545
vn -0.4280 -0.8477 -0.3135
vn 0.3811 0.9232 -0.0505
vn 0.4367 0.8950 -0.0905
vn -0.3882 0.8948 -0.2206
vn 0.2804 0.9573 -0.0706
vn -0.0363 0.9992 0.0170
vn 0.0954 0.9889 -0.1135
vn 0.4489 -0.4012 -0.7985
vn -0.3365 -0.8484 -0.4087
vn -0.5004 -0.8227 -0.2696
vn 0.5257 0.8344 0.1657
vn -0.7598 -0.3752 -0.5309
vn 0.4078 0.9056 0.1164
vn -0.1188 -0.7473 -0.6537
vn -0.4286 -0.8567 -0.2870
vn 0.8417 0.2076 -0.4985
vn 0.7262 0.6847 -0.0614
vn 0.3590 0.8572 0.3693
vn 0.3635 0.8612 0.3553
vn 0.2528 0.9011 0.3522
vn -0.4454 -0.8953 0.0032
vn 0.3922 0.8384 0.3785
vn -0.7149 0.3555 -0.6021
vn -0.5202 0.8218 -0.2326
vn 0.1606 -0.5473 -0.8214
vn 0.6896 0.1940 -0.6977
vn 0.4930 -0.1835 -0.8505
vn -0.8227 -0.5674 -0.0353
vn -0.8860 -0.0753 -0.4574
vn -0.0923 0.9517 0.2928
vn 0.7816 0.5174 -0.3485
vn -0.5125 -0.8583 -0.0269
vn -0.5107 -0.8222 0.2514
vn -0.9527 0.2975 -0.0619
vn 0.1735 0.8207 0.5443
vn 0.2628 0.7342 0.6260
vn -0.1220 -0.7570 -0.6420
vn -0.5571 -0.8088 0.1885
vn -0.4716 -0.8218 0.3198
vn 0.5953 0.8002 0.0734
vn -0.5927 -0.5974 0.5402
vn -0.6999 -0.0947 0.7080
vn -0.5212 0.6743 0.5232
vn -0.3565 -0.8491 -0.3899
vn 0.2587 -0.4442 -0.8578
vn 0.5018 -0.0671 -0.8624
vn -0.4916 -0.8697 -0.0446
vn -0.5317 -0.8284 0.1760
vn 0.7194 0.6013 -0.3477
vn -0.5286 -0.7498 0.3979
vn 0.4218 0.8404 0.3402
vn -0.3982 -0.4340 0.8081
vn -0.0864 0.6678 0.7393
vn -0.5109 -0.8595 -0.0146
vn 0.7108 0.5430 -0.4472
vn -0.4832 -0.6034 0.6343
vn 0.2540 0.7529 0.6071
vn 0.2807 0.7728 0.5692
vn -0.2754 0.1986 0.9406
vn 0.0242 0.5628 0.8263
vn 0.2678 -0.3350 -0.9034
vn 0.6599 0.3077 -0.6854
vn -0.5582 -0.7210 0.4105
vn 0.2614 0.7804 0.5680
vn 0.1782 0.6915 0.7001
vn -0.2780 -0.1037 0.9550
vn -0.1852 0.1674 0.9684
vn -0.0658 0.5498 0.8327
vn -0.0554 -0.7023 -0.7097
vn -0.3493 -0.8669 -0.3556
vn 0.5060 0.0535 -0.8609
vn -0.5217 -0.8227 0.2257
vn -0.5142 -0.5884 0.6240
vn 0.6217 0.7828 -0.0269
vn 0.3719 0.8087 0.4557
vn -0.3210 -0.1666 0.9323
vn -0.0706 0.2784 0.9579
vn 0.1308 0.5964 0.7919
vn 0.0313 0.4085 0.9122
vn 0.3268 -0.2503 -0.9113
vn 0.1112 -0.5600 -0.8210
vn -0.5077 -0.8613 -0.0224
vn 0.6279 0.5127 -0.5856
vn 0.6774 0.6848 -0.2685
vn -0.4855 -0.4037 0.7755
vn -0.2319 -0.8397 -0.4910
vn 0.4014 -0.1742 -0.8992
vn -0.5664 -0.6448 0.5132
vn 0.0979 0.5414 0.8350
vn -0.0273 0.3067 0.9514
vn 0.4835 0.1116 -0.8682
vn -0.5914 -0.7375 0.3261
vn 0.4797 0.8434 0.2418
vn -0.2078 0.1642 0.9643
vn -0.0310 0.4033 0.9146
vn 0.0530 0.5866 0.8081
vn 0.2970 -0.2682 -0.9164
vn -0.0820 -0.7225 -0.6865
vn 0.3539 0.0294 -0.9348
vn -0.4226 -0.8951 -0.1423
vn -0.5470 -0.8209 0.1642
vn -0.5829 -0.6349 0.5070
vn -0.5642 -0.4943 0.6613
vn 0.5628 0.8263 -0.0217
vn 0.1431 0.7076 0.6919
vn 0.1311 0.6195 0.7740
vn 0.0182 0.5398 0.8416
vn -0.0172 0.4328 0.9013
vn -0.3708 -0.8904 -0.2641
vn 0.1665 -0.3291 -0.9295
vn 0.5171 0.4730 -0.7133
vn -0.4655 -0.2278 0.8552
vn -0.1456 0.2651 0.9532
vn -0.0861 -0.6988 -0.7101
vn -0.3077 -0.8783 -0.3659
vn -0.5718 -0.4828 0.6632
vn 0.5436 0.8131 -0.2082
vn 0.3736 0.8535 0.3632
vn 0.2576 -0.1646 -0.9521
vn 0.0632 -0.4944 -0.8669
vn 0.2279 -0.1114 -0.9673
vn 0.4022 0.2061 -0.8920
vn -0.5812 -0.7564 0.3000
vn -0.4844 -0.8728 -0.0593
vn -0.2532 0.2168 0.9428
vn -0.3882 0.0411 0.9207
vn -0.1314 0.3859 0.9131
vn -0.1240 -0.8382 -0.5310
vn 0.1631 -0.5561 -0.8149
vn -0.5227 -0.8425 0.1302
vn 0.4922 -0.0110 -0.8704
vn 0.5489 0.5363 -0.6412
vn 0.5087 0.8061 -0.3022
vn -0.5558 -0.3063 0.7728
vn 0.4063 0.8811 0.2422
vn -0.1611 0.4219 0.8922
vn 0.5775 0.8089 -0.1102
vn -0.3243 0.2007 0.9244
vn 0.4224 0.8970 0.1299
vn 0.1931 0.7827 0.5917
vn -0.0790 0.5402 0.8378
vn 0.1227 -0.7711 -0.6248
vn 0.5944 -0.5819 -0.5550
vn -0.3064 -0.9373 -0.1663
vn 0.8894 -0.0185 -0.4567
vn -0.5961 -0.7195 0.3563
vn 0.7034 0.6021 -0.3778
vn 0.2377 0.8175 0.5246
vn 0.3579 -0.9158 -0.1822
vn -0.5408 -0.7995 0.2613
vn 0.9543 0.2612 0.1452
vn -0.6022 -0.4340 0.6700
vn 0.4433 0.8937 0.0685
vn -0.4617 -0.0315 0.8865
vn -0.2345 0.3720 0.8981
vn -0.0462 0.6048 0.7951
vn -0.1104 -0.9729 -0.2032
vn 0.8472 -0.5187 0.1144
vn -0.5841 -0.5241 0.6198
vn 0.7256 0.6469 0.2348
vn 0.4211 0.8638 0.2768
vn -0.3066 0.2370 0.9219
vn -0.0239 0.5634 0.8258
vn -0.5968 -0.5812 0.5532
vn -0.4795 -0.1446 0.8656
vn -0.1851 0.3967 0.8991
vn 0.3530 -0.8908 0.2862
vn -0.3328 -0.9255 0.1810
vn 0.5409 0.7374 0.4046
vn -0.1312 -0.9909 0.0303
vn -0.5583 -0.4894 0.6699
vn 0.8334 -0.0139 0.5525
vn -0.4645 -0.1714 0.8688
vn 0.2575 0.7261 0.6375
vn -0.2641 0.1956 0.9445
vn 0.0118 0.5462 0.8375
vn -0.3340 -0.6150 0.7143
vn 0.5660 0.4760 0.6731
vn -0.0247 -0.7043 0.7094
vn -0.2240 -0.0788 0.9714
vn -0.1632 0.1709 0.9717
vn 0.3555 -0.2784 0.8923
vn 0.0937 0.3486 0.9326
vn 0.3388 0.1820 0.9231
vn -0.0409 0.0141 0.9991
usemtl mtl1.1042
s 1
f 1//1 2//2 3//3
f 3//3 2//2 4//4
f 5//5 3//3 4//4
f 5//5 4//4 6//6
f 2//2 7//7 4//4
f 6//6 4//4 7//7
f 3//3 8//8 1//1
f 2//2 1//1 9//9
f 2//2 9//9 7//7
f 9//9 10//10 7//7
f 11//11 12//12 13//13
f 13//13 14//14 11//11
f 15//15 12//12 11//11
f 11//11 14//14 16//16
f 11//11 16//16 17//17
f 15//15 11//11 17//17
f 16//16 18//18 17//17
f 8//8 3//3 19//19
f 1//1 8//8 20//20
f 5//5 21//21 3//3
f 1//1 20//20 9//9
f 9//9 20//20 22//22
f 9//9 22//22 10//10
f 5//5 6//6 23//23
f 10//10 22//22 24//24
f 24//24 22//22 25//25
f 7//7 26//26 6//6
f 6//6 26//26 23//23
f 13//13 25//25 27//27
f 7//7 10//10 24//24
f 25//25 13//13 12//12
f 28//28 25//25 12//12
f 24//24 25//25 28//28
f 15//15 28//28 12//12
f 29//29 18//18 16//16
f 17//17 30//30 15//15
f 17//17 18//18 30//30
f 21//21 19//19 3//3
f 31//31 21//21 5//5
f 20//20 8//8 32//32
f 31//31 5//5 33//33
f 20//20 32//32 22//22
f 32//32 27//27 22//22
f 22//22 27//27 25//25
f 14//14 34//34 35//35
f 14//14 13//13 34//34
f 28//28 36//36 24//24
f 7//7 24//24 37//37
f 38//38 7//7 37//37
f 26//26 7//7 38//38
f 14//14 35//35 16//16
f 39//39 36//36 28//28
f 15//15 39//39 28//28
f 39//39 15//15 30//30
f 40//40 18//18 29//29
f 18//18 40//40 30//30
f 5//5 23//23 33//33
f 26//26 41//41 23//23
f 24//24 36//36 37//37
f 35//35 42//42 16//16
f 16//16 42//42 29//29
f 39//39 43//43 36//36
f 42//42 44//44 29//29
f 39//39 30//30 43//43
f 45//45 13//13 27//27
f 38//38 41//41 26//26
f 46//46 37//37 36//36
f 38//38 37//37 46//46
f 46//46 36//36 47//47
f 47//47 36//36 43//43
f 44//44 40//40 29//29
f 48//48 40//40 44//44
f 49//49 43//43 30//30
f 40//40 50//50 51//51
f 30//30 40//40 51//51
f 30//30 51//51 49//49
f 19//19 21//21 52//52
f 8//8 19//19 53//53
f 27//27 32//32 45//45
f 33//33 23//23 41//41
f 54//54 34//34 13//13
f 45//45 54//54 13//13
f 55//55 41//41 38//38
f 42//42 35//35 56//56
f 43//43 49//49 57//57
f 48//48 50//50 40//40
f 19//19 52//52 58//58
f 8//8 53//53 59//59
f 21//21 31//31 52//52
f 31//31 33//33 60//60
f 45//45 8//8 59//59
f 8//8 45//45 32//32
f 60//60 33//33 41//41
f 55//55 61//61 41//41
f 34//34 56//56 35//35
f 62//62 38//38 46//46
f 47//47 63//63 46//46
f 47//47 57//57 63//63
f 43//43 57//57 47//47
f 51//51 64//64 49//49
f 57//57 49//49 64//64
f 53//53 19//19 58//58
f 52//52 31//31 60//60
f 60//60 41//41 61//61
f 65//65 54//54 45//45
f 66//66 61//61 55//55
f 54//54 56//56 34//34
f 62//62 55//55 38//38
f 56//56 67//67 42//42
f 63//63 62//62 46//46
f 42//42 67//67 44//44
f 68//68 48//48 44//44
f 58//58 52//52 69//69
f 70//70 71//71 52//52
f 52//52 60//60 70//70
f 72//72 56//56 54//54
f 72//72 73//73 56//56
f 56//56 73//73 67//67
f 67//67 68//68 44//44
f 63//63 57//57 64//64
f 50//50 48//48 74//74
f 51//51 50//50 64//64
f 50//50 74//74 64//64
f 52//52 71//71 69//69
f 70//70 60//60 75//75
f 45//45 59//59 76//76
f 60//60 61//61 75//75
f 54//54 65//65 77//77
f 54//54 77//77 72//72
f 78//78 73//73 72//72
f 73//73 78//78 67//67
f 78//78 68//68 67//67
f 63//63 79//79 80//80
f 48//48 68//68 74//74
f 79//79 63//63 64//64
f 81//81 58//58 69//69
f 76//76 82//82 45//45
f 45//45 83//83 65//65
f 75//75 61//61 84//84
f 77//77 65//65 83//83
f 84//84 61//61 66//66
f 66//66 55//55 62//62
f 77//77 85//85 72//72
f 72//72 86//86 78//78
f 68//68 78//78 87//87
f 68//68 87//87 74//74
f 79//79 64//64 74//74
f 58//58 81//81 88//88
f 71//71 89//89 69//69
f 90//90 89//89 71//71
f 90//90 71//71 70//70
f 59//59 91//91 92//92
f 59//59 53//53 91//91
f 59//59 92//92 76//76
f 93//93 70//70 75//75
f 76//76 94//94 82//82
f 83//83 45//45 82//82
f 66//66 95//95 84//84
f 96//96 85//85 77//77
f 80//80 62//62 63//63
f 85//85 86//86 72//72
f 86//86 87//87 78//78
f 74//74 87//87 97//97
f 74//74 97//97 79//79
f 89//89 81//81 69//69
f 88//88 53//53 58//58
f 53//53 98//98 91//91
f 99//99 70//70 93//93
f 92//92 94//94 76//76
f 75//75 84//84 93//93
f 94//94 100//100 82//82
f 101//101 66//66 62//62
f 102//102 101//101 62//62
f 102//102 62//62 80//80
f 86//86 85//85 96//96
f 103//103 86//86 96//96
f 104//104 80//80 79//79
f 87//87 86//86 103//103
f 103//103 97//97 87//87
f 90//90 105//105 89//89
f 88//88 98//98 53//53
f 90//90 70//70 106//106
f 91//91 107//107 92//92
f 106//106 70//70 99//99
f 82//82 100//100 83//83
f 108//108 95//95 66//66
f 83//83 96//96 77//77
f 96//96 83//83 100//100
f 101//101 109//109 66//66
f 110//110 96//96 100//100
f 110//110 111//111 96//96
f 103//103 96//96 111//111
f 79//79 112//112 104//104
f 112//112 97//97 103//103
f 112//112 103//103 111//111
f 79//79 97//97 112//112
f 81//81 89//89 113//113
f 114//114 81//81 113//113
f 89//89 105//105 113//113
f 88//88 81//81 114//114
f 105//105 90//90 115//115
f 115//115 90//90 106//106
f 116//116 91//91 98//98
f 107//107 117//117 92//92
f 92//92 117//117 94//94
f 93//93 118//118 99//99
f 94//94 117//117 100//100
f 93//93 84//84 118//118
f 95//95 119//119 84//84
f 108//108 66//66 109//109
f 110//110 100//100 120//120
f 120//120 121//121 110//110
f 122//122 102//102 80//80
f 123//123 111//111 110//110
f 80//80 104//104 123//123
f 122//122 80//80 123//123
f 123//123 104//104 111//111
f 104//104 112//112 111//111
f 105//105 124//124 125//125
f 113//113 105//105 125//125
f 88//88 114//114 126//126
f 115//115 124//124 105//105
f 88//88 126//126 98//98
f 115//115 106//106 127//127
f 91//91 116//116 107//107
f 106//106 99//99 128//128
f 107//107 129//129 117//117
f 119//119 118//118 84//84
f 120//120 100//100 117//117
f 101//101 102//102 122//122
f 121//121 123//123 110//110
f 122//122 123//123 121//121
f 113//113 125//125 130//130
f 131//131 125//125 124//124
f 131//131 124//124 115//115
f 116//116 132//132 107//107
f 117//117 129//129 120//120
f 108//108 119//119 95//95
f 101//101 133//133 109//109
f 120//120 134//134 121//121
f 133//133 122//122 134//134
f 122//122 121//121 134//134
f 101//101 122//122 133//133
f 114//114 113//113 130//130
f 135//135 131//131 115//115
f 127//127 135//135 115//115
f 126//126 136//136 98//98
f 98//98 132//132 116//116
f 98//98 136//136 132//132
f 127//127 106//106 128//128
f 107//107 132//132 129//129
f 128//128 118//118 137//137
f 99//99 118//118 128//128
f 119//119 137//137 118//118
f 138//138 120//120 129//129
f 138//138 139//139 120//120
f 139//139 134//134 120//120
f 139//139 133//133 134//134
f 140//140 109//109 139//139
f 108//108 109//109 140//140
f 139//139 109//109 133//133
f 125//125 141//141 142//142
f 142//142 130//130 125//125
f 141//141 125//125 131//131
f 141//141 131//131 135//135
f 135//135 143//143 141//141
f 130//130 144//144 114//114
f 114//114 145//145 126//126
f 145//145 114//114 144//144
f 145//145 146//146 126//126
f 146//146 136//136 126//126
f 147//147 136//136 146//146
f 147//147 132//132 136//136
f 128//128 137//137 148//148
f 137//137 119//119 149//149
f 108//108 150//150 119//119
f 151//151 119//119 150//150
f 140//140 139//139 138//138
f 152//152 140//140 138//138
f 150//150 140//140 152//152
f 108//108 140//140 150//150
f 130//130 142//142 153//153
f 154//154 142//142 141//141
f 130//130 153//153 144//144
f 154//154 141//141 143//143
f 155//155 135//135 127//127
f 127//127 128//128 148//148
f 132//132 156//156 129//129
f 129//129 156//156 138//138
f 151//151 149//149 119//119
f 152//152 138//138 157//157
f 158//158 159//159 142//142
f 154//154 158//158 142//142
f 155//155 143//143 135//135
f 160//160 146//146 145//145
f 127//127 148//148 161//161
f 147//147 156//156 132//132
f 148//148 137//137 162//162
f 156//156 157//157 138//138
f 151//151 150//150 157//157
f 150//150 152//152 157//157
f 163//163 164//164 165//165
f 164//164 158//158 154//154
f 154//154 165//165 164//164
f 163//163 165//165 166//166
f 159//159 153//153 142//142
f 154//154 143//143 165//165
f 166//166 165//165 143//143
f 153//153 167//167 144//144
f 167//167 153//153 168//168
f 145//145 144//144 167//167
f 155//155 166//166 143//143
f 155//155 127//127 161//161
f 146//146 156//156 147//147
f 146//146 160//160 156//156
f 169//169 156//156 170//170
f 137//137 149//149 162//162
f 156//156 169//169 157//157
f 171//171 151//151 169//169
f 149//149 151//151 171//171
f 151//151 157//157 169//169
f 164//164 172//172 158//158
f 164//164 163//163 173//173
f 172//172 164//164 173//173
f 159//159 168//168 153//153
f 174//174 168//168 159//159
f 175//175 163//163 166//166
f 176//176 175//175 166//166
f 167//167 160//160 145//145
f 176//176 166//166 155//155
f 176//176 155//155 177//177
f 155//155 161//161 177//177
f 160//160 178//178 170//170
f 160//160 170//170 156//156
f 162//162 179//179 148//148
f 161//161 148//148 179//179
f 171//171 170//170 180//180
f 171//171 169//169 170//170
f 159//159 158//158 172//172
f 163//163 175//175 173//173
f 181//181 176//176 177//177
f 178//178 182//182 170//170
f 161//161 179//179 183//183
f 162//162 184//184 179//179
f 182//182 180//180 170//170
f 185//185 184//184 149//149
f 185//185 149//149 180//180
f 184//184 162//162 149//149
f 149//149 171//171 180//180
f 173//173 186//186 172//172
f 175//175 186//186 173//173
f 175//175 187//187 186//186
f 172//172 188//188 159//159
f 189//189 187//187 175//175
f 190//190 168//168 174//174
f 176//176 191//191 175//175
f 189//189 175//175 191//191
f 168//168 190//190 167//167
f 167//167 178//178 160//160
f 161//161 183//183 177//177
f 179//179 192//192 183//183
f 182//182 185//185 180//180
f 186//186 187//187 193//193
f 174//174 159//159 188//188
f 174//174 188//188 194//194
f 195//195 189//189 191//191
f 190//190 196//196 167//167
f 176//176 181//181 191//191
f 181//181 177//177 197//197
f 177//177 183//183 197//197
f 178//178 198//198 182//182
f 199//199 182//182 198//198
f 184//184 192//192 179//179
f 199//199 185//185 182//182
f 200//200 185//185 199//199
f 184//184 185//185 200//200
f 188//188 172//172 201//201
f 186//186 201//201 172//172
f 193//193 201//201 186//186
f 187//187 189//189 202//202
f 189//189 195//195 202//202
f 203//203 196//196 190//190
f 191//191 181//181 204//204
f 167//167 196//196 178//178
f 196//196 198//198 178//178
f 183//183 205//205 197//197
f 199//199 198//198 206//206
f 200//200 207//207 192//192
f 192//192 184//184 200//200
f 193//193 187//187 202//202
f 174//174 203//203 190//190
f 208//208 203//203 174//174
f 195//195 191//191 204//204
f 205//205 204//204 181//181
f 198//198 196//196 209//209
f 181//181 197//197 205//205
f 206//206 198//198 209//209
f 192//192 205//205 183//183
f 210//210 207//207 200//200
f 200//200 199//199 206//206
f 210//210 200//200 206//206
f 193//193 211//211 201//201
f 193//193 202//202 211//211
f 188//188 212//212 194//194
f 194//194 208//208 174//174
f 203//203 209//209 196//196
f 204//204 205//205 213//213
f 188//188 201//201 214//214
f 212//212 188//188 214//214
f 215//215 194//194 212//212
f 194//194 215//215 208//208
f 202//202 195//195 216//216
f 216//216 195//195 204//204
f 208//208 217//217 203//203
f 208//208 215//215 217//217
f 203//203 217//217 209//209
f 218//218 213//213 205//205
f 206//206 209//209 219//219
f 205//205 192//192 218//218
f 210//210 206//206 219//219
f 207//207 220//220 192//192
f 201//201 211//211 214//214
f 216//216 211//211 202//202
f 221//221 215//215 212//212
f 222//222 216//216 204//204
f 204//204 213//213 222//222
f 217//217 219//219 209//209
f 192//192 220//220 218//218
f 219//219 207//207 210//210
f 221//221 212//212 223//223
f 223//223 212//212 214//214
f 224//224 217//217 215//215
f 219//219 217//217 225//225
f 218//218 222//222 213//213
f 220//220 207//207 219//219
f 214//214 211//211 223//223
f 211//211 216//216 226//226
f 215//215 221//221 224//224
f 224//224 225//225 217//217
f 227//227 222//222 218//218
f 225//225 220//220 219//219
f 218//218 220//220 227//227
f 221//221 223//223 224//224
f 226//226 223//223 211//211
f 226//226 216//216 228//228
f 216//216 222//222 228//228
f 228//228 222//222 227//227
f 227//227 220//220 225//225
f 223//223 229//229 224//224
f 229//229 223//223 226//226
f 226//226 228//228 229//229
f 229//229 225//225 224//224
f 229//229 227//227 225//225
f 228//228 227//227 229//229
