# Blender v2.92.0 OBJ File: 'convert_to_one_sided.blend'
# www.blender.org
mtllib 189L.mtl
o Cube
v 0.001000 0.001000 -0.001000
v 0.001000 -0.001000 -0.001000
v 0.001000 0.001000 0.001000
v 0.001000 -0.001000 0.001000
v -0.001000 0.001000 -0.001000
v -0.001000 -0.001000 -0.001000
v -0.001000 0.001000 0.001000
v -0.001000 -0.001000 0.001000
vt 0.625000 0.500000
vt 0.875000 0.500000
vt 0.875000 0.750000
vt 0.625000 0.750000
vt 0.375000 0.750000
vt 0.625000 1.000000
vt 0.375000 1.000000
vt 0.375000 0.000000
vt 0.625000 0.000000
vt 0.625000 0.250000
vt 0.375000 0.250000
vt 0.125000 0.500000
vt 0.375000 0.500000
vt 0.125000 0.750000
vn 0.0000 1.0000 0.0000
vn 0.0000 0.0000 1.0000
vn -1.0000 0.0000 0.0000
vn 0.0000 -1.0000 0.0000
vn 1.0000 0.0000 0.0000
vn 0.0000 0.0000 -1.0000
usemtl Material
s off
f 1/1/1 5/2/1 7/3/1 3/4/1
f 4/5/2 3/4/2 7/6/2 8/7/2
f 8/8/3 7/9/3 5/10/3 6/11/3
f 6/12/4 2/13/4 4/5/4 8/14/4
f 2/13/5 1/1/5 3/4/5 4/5/5
f 6/11/6 5/10/6 1/1/6 2/13/6
o 189
v 6.262650 4.728898 5.405891
v 6.313249 4.735178 5.399591
v 6.318318 4.698779 5.427691
v 6.373008 4.707899 5.420551
v 6.280049 4.737838 5.399001
v 6.384768 4.749778 5.433781
v 6.269259 4.746148 5.422481
v 6.351139 4.774788 5.447781
v 6.435277 4.665039 5.446971
v 6.791823 4.668829 5.433741
v 6.721623 4.638239 5.443601
v 6.694354 4.641439 5.447141
v 6.823452 4.653829 5.441301
v 6.901491 4.681579 5.439971
v 6.968240 4.703218 5.445011
v 6.965310 4.691968 5.460841
v 6.199290 4.700429 5.462621
v 6.918181 4.703039 5.440791
v 6.425607 4.710698 5.445341
v 6.845512 4.712909 5.465611
v 6.938810 4.746568 5.480841
v 6.201670 4.718638 5.457730
v 6.190570 4.727898 5.491241
v 6.313199 4.776038 5.494390
v 6.580835 4.637969 5.460631
v 6.652884 4.621500 5.463040
v 6.771073 4.630080 5.480810
v 6.904261 4.657879 5.506290
v 6.396898 4.649279 5.477241
v 6.671214 4.653219 5.457371
v 6.274919 4.653499 5.527160
v 6.517286 4.728488 5.483181
v 7.000770 4.718709 5.477110
v 6.141391 4.686278 5.515570
v 6.443557 4.764398 5.471370
v 6.735074 4.708478 5.489850
v 6.972680 4.722158 5.465940
v 6.459347 4.810597 5.508630
v 6.403358 4.808567 5.542439
v 6.480767 4.642069 5.464520
v 6.527176 4.619600 5.519530
v 6.680604 4.607930 5.541840
v 6.631385 4.694218 5.485341
v 6.142941 4.681149 5.511520
v 6.149461 4.659799 5.553050
v 7.002220 4.760328 5.519870
v 6.238410 4.749818 5.569349
v 6.646224 4.766628 5.522300
v 6.145101 4.703818 5.578019
v 6.859032 4.766268 5.515170
v 7.030910 4.731928 5.567909
v 6.492026 4.787377 5.501920
v 6.949861 4.807737 5.557590
v 6.204690 4.631859 5.606609
v 6.403818 4.626620 5.563320
v 6.999310 4.694448 5.543210
v 6.173551 4.724848 5.671078
v 6.325358 4.786598 5.658648
v 6.564685 4.804697 5.532610
v 6.591145 4.596910 5.625309
v 6.676784 4.598120 5.685868
v 6.821632 4.622550 5.620849
v 6.120031 4.666689 5.575279
v 6.962760 4.658709 5.659368
v 7.039229 4.708889 5.651458
v 6.763653 4.788658 5.538400
v 7.035679 4.766498 5.643728
v 7.000210 4.805607 5.634139
v 6.608235 4.846557 5.569880
v 6.110611 4.651539 5.632469
v 6.325919 4.618180 5.641138
v 6.115021 4.678509 5.666978
v 6.720693 4.823287 5.560969
v 6.848492 4.822497 5.566159
v 6.966450 4.836207 5.623249
v 6.910231 4.854517 5.631349
v 6.514226 4.839467 5.577339
v 6.484006 4.606080 5.685908
v 6.728893 4.607419 5.673678
v 7.020260 4.687659 5.678898
v 6.759643 4.852706 5.601089
v 6.133901 4.638410 5.655328
v 6.107671 4.659409 5.685528
v 6.479707 4.839147 5.694407
v 6.646135 4.858716 5.634938
v 6.210640 4.623399 5.691058
v 6.776113 4.868056 5.658958
v 7.041327 4.724198 5.699999
v 6.170479 4.721782 5.699999
v 6.827310 4.864745 5.699999
v 6.192243 4.732628 5.699999
v 6.707761 4.865309 5.699999
v 7.032348 4.702319 5.699999
v 6.121189 4.647469 5.699999
v 6.300418 4.776681 5.699999
v 6.335339 4.791607 5.699999
v 6.134696 4.641506 5.699999
v 7.040291 4.735071 5.699999
v 6.108757 4.657954 5.699999
v 6.974436 4.833831 5.699999
v 7.025856 4.779340 5.699999
v 6.109919 4.661432 5.699999
v 6.228497 4.622209 5.699999
v 6.979720 4.828929 5.699999
v 7.013363 4.793231 5.699999
v 6.152272 4.707105 5.699999
v 6.965511 4.836734 5.699999
v 6.866138 4.861112 5.699999
v 6.597087 4.598819 5.699999
v 6.684753 4.599525 5.699999
v 6.473834 4.837434 5.699999
v 6.518242 4.844122 5.699999
v 6.664473 4.598537 5.699999
v 6.478973 4.838819 5.699999
v 6.485374 4.840040 5.699999
v 6.111101 4.653483 5.699999
v 6.787932 4.617086 5.699999
v 6.465465 4.607738 5.699999
v 6.664591 4.862529 5.699999
v 6.503695 4.605176 5.699999
v 6.853623 4.629117 5.699999
v 6.484164 4.606950 5.699999
v 7.040046 4.748130 5.699999
v 6.731846 4.607918 5.699999
v 6.298307 4.618355 5.699999
v 6.244298 4.753487 5.699999
v 6.354625 4.616609 5.699999
v 6.200996 4.626272 5.699999
v 6.211308 4.625040 5.699999
v 6.988245 4.667579 5.699999
v 6.125095 4.685780 5.699999
v 7.016854 4.683187 5.699999
v 6.937696 4.651189 5.699999
v 7.021793 4.690060 5.699999
v 6.966304 4.662463 5.699999
v 6.116948 4.676338 5.699999
vn -0.4443 -0.0469 -0.8946
vn 0.1057 0.2633 -0.9589
vn -0.1051 -0.6864 -0.7195
vn 0.2580 -0.1420 -0.9556
vn -0.2437 0.5849 -0.7736
vn 0.3417 0.4224 -0.8396
vn -0.3493 0.8467 -0.4014
vn -0.0588 0.8658 -0.4968
vn 0.1034 -0.3808 -0.9189
vn -0.0905 0.2049 -0.9746
vn -0.0019 -0.5538 -0.8326
vn -0.1470 0.1060 -0.9834
vn 0.1768 -0.7349 -0.6547
vn 0.2078 -0.5298 -0.8223
vn 0.4273 -0.0385 -0.9033
vn 0.4981 -0.7579 -0.4212
vn -0.4373 -0.5474 -0.7136
vn 0.0279 0.4406 -0.8973
vn 0.4014 0.1497 -0.9036
vn -0.1559 0.6798 -0.7166
vn 0.0513 0.7254 -0.6864
vn -0.7083 0.4238 -0.5646
vn -0.5446 0.8169 -0.1899
vn -0.3177 0.9386 -0.1342
vn -0.0737 -0.2340 -0.9694
vn -0.0364 -0.8904 -0.4537
vn 0.1633 -0.9483 -0.2722
vn 0.3073 -0.9240 -0.2276
vn -0.1513 -0.8862 -0.4380
vn -0.1596 0.4779 -0.8638
vn -0.1387 -0.9175 -0.3727
vn 0.2300 0.3310 -0.9152
vn 0.8330 -0.0639 -0.5496
vn -0.8504 0.2854 -0.4420
vn 0.3433 0.4240 -0.8381
vn -0.0992 0.5861 -0.8042
vn 0.3202 0.6062 -0.7280
vn 0.1006 0.7619 -0.6398
vn -0.2383 0.9584 -0.1569
vn -0.0748 -0.8316 -0.5503
vn -0.1025 -0.9592 -0.2636
vn 0.0736 -0.9897 -0.1226
vn 0.0034 0.4321 -0.9018
vn -0.6724 -0.4744 -0.5682
vn -0.3273 -0.8705 -0.3675
vn 0.6139 0.6343 -0.4698
vn -0.3744 0.9260 -0.0487
vn 0.0632 0.4852 -0.8721
vn -0.6992 0.7051 -0.1181
vn -0.0728 0.6823 -0.7274
vn 0.9749 -0.0394 -0.2190
vn 0.2623 0.4875 -0.8328
vn 0.2562 0.7984 -0.5449
vn -0.1299 -0.9683 -0.2133
vn -0.1076 -0.9746 -0.1965
vn 0.6433 -0.7411 -0.1921
vn -0.4787 0.8780 -0.0000
vn -0.3473 0.9373 -0.0283
vn 0.1631 0.5217 -0.8374
vn -0.0423 -0.9971 -0.0626
vn 0.0880 -0.9961 -0.0064
vn 0.1996 -0.9781 -0.0593
vn -0.9412 -0.1951 -0.2759
vn 0.3624 -0.9305 -0.0532
vn 0.8816 -0.4661 -0.0741
vn -0.0056 0.5729 -0.8196
vn 0.8894 0.4436 -0.1107
vn 0.6905 0.6994 -0.1842
vn 0.0361 0.8560 -0.5157
vn -0.7533 -0.6405 -0.1489
vn -0.0646 -0.9917 -0.1115
vn -0.8602 0.5089 -0.0328
vn 0.0586 0.6409 -0.7654
vn 0.0453 0.7510 -0.6588
vn 0.4966 0.8327 -0.2449
vn 0.1636 0.9545 -0.2493
vn -0.1429 0.9723 -0.1851
vn -0.0801 -0.9964 -0.0283
vn 0.1571 -0.9872 -0.0284
vn 0.6497 -0.7571 -0.0692
vn 0.0414 0.9057 -0.4219
vn -0.3460 -0.9360 -0.0651
vn -0.9986 0.0525 0.0021
vn -0.2122 0.9770 -0.0203
vn -0.0692 0.9902 -0.1213
vn -0.1359 -0.9899 0.0414
vn 0.0113 0.9942 -0.1067
vn 0.1908 0.6653 0.7218
vn 0.0832 0.7276 0.6809
vn -0.3813 -0.5165 0.7667
vn -0.3035 -0.6027 0.7380
vn 0.7167 0.1875 0.6716
vn 0.6245 0.4548 0.6350
vn -0.0544 -0.7026 0.7095
vn -0.0534 -0.7084 0.7038
vn 0.5405 0.4937 0.6813
vn 0.2880 -0.6940 0.6599
vn 0.5311 -0.4572 0.7133
vn 0.2039 -0.6276 0.7514
vn 0.1949 -0.6907 0.6964
vn -0.7033 -0.1625 0.6921
vn -0.6008 0.3466 0.7204
vn 0.4959 -0.5750 0.6508
vn -0.1465 0.6777 0.7206
vn -0.2229 0.6813 0.6972
vn -0.2151 -0.6549 0.7244
vn -0.6432 0.4230 0.6382
vn -0.5045 0.4751 0.7210
vn -0.0827 -0.6242 0.7769
vn -0.1438 -0.6706 0.7278
vn -0.0464 -0.7093 0.7033
vn 0.1552 -0.6999 0.6972
vn -0.0500 -0.7018 0.7107
vn -0.0331 -0.6808 0.7317
vn 0.1177 -0.6930 0.7113
vn 0.1219 -0.6948 0.7088
vn -0.0870 0.7187 0.6898
vn -0.0955 0.7036 0.7041
vn -0.0575 0.7378 0.6725
vn 0.0989 -0.7067 0.7005
vn 0.0070 -0.6964 0.7176
vn -0.0332 -0.6975 0.7158
vn -0.4782 0.5173 0.7097
vn 0.5231 0.5261 0.6705
vn -0.0459 -0.7077 0.7051
vn 0.3871 0.6387 0.6649
vn 0.6988 0.0646 0.7124
vn -0.2489 0.6785 0.6911
vn -0.2702 0.6644 0.6968
vn -0.2709 0.6516 0.7085
vn 0.5457 -0.3613 0.7561
vn -0.0461 0.7220 0.6904
vn 0.0548 0.7139 0.6981
vn -0.3611 0.6037 0.7108
vn -0.2690 0.6556 0.7056
vn 0.6968 -0.0683 0.7140
usemtl mtl1.199
s 1
f 9//7 10//8 11//9
f 10//8 12//10 11//9
f 10//8 9//7 13//11
f 12//10 10//8 14//12
f 9//7 15//13 13//11
f 13//11 15//13 10//8
f 14//12 10//8 16//14
f 16//14 10//8 15//13
f 11//9 12//10 17//15
f 18//16 19//17 20//18
f 21//19 19//17 18//16
f 22//20 21//19 18//16
f 22//20 23//21 24//22
f 25//23 9//7 11//9
f 26//24 22//20 18//16
f 23//21 22//20 26//24
f 27//25 12//10 14//12
f 18//16 28//26 26//24
f 29//27 26//24 28//26
f 15//13 30//28 31//29
f 15//13 9//7 30//28
f 15//13 32//30 16//14
f 33//31 19//17 34//32
f 34//32 19//17 35//33
f 19//17 33//31 20//18
f 21//19 35//33 19//17
f 35//33 21//19 36//34
f 11//9 17//15 37//35
f 33//31 38//36 20//18
f 21//19 22//20 36//34
f 25//23 11//9 39//37
f 27//25 17//15 12//10
f 40//38 17//15 27//25
f 18//16 20//18 38//36
f 24//22 23//21 41//39
f 30//28 25//23 42//40
f 9//7 25//23 30//28
f 43//41 40//38 27//25
f 18//16 44//42 28//26
f 41//39 23//21 45//43
f 27//25 14//12 43//41
f 26//24 45//43 23//21
f 26//24 29//27 45//43
f 14//12 16//14 46//44
f 47//45 16//14 32//30
f 48//46 33//31 49//47
f 49//47 33//31 34//32
f 34//32 35//33 50//48
f 37//35 17//15 48//46
f 33//31 48//46 17//15
f 11//9 37//35 39//37
f 40//38 33//31 17//15
f 51//49 33//31 40//38
f 51//49 38//36 33//31
f 22//20 24//22 36//34
f 52//50 25//23 53//51
f 25//23 39//37 53//51
f 52//50 42//40 25//23
f 38//36 51//49 44//42
f 38//36 44//42 18//16
f 45//43 54//52 41//39
f 29//27 54//52 45//43
f 15//13 31//29 55//53
f 55//53 32//30 15//13
f 14//12 46//44 43//41
f 46//44 16//14 47//45
f 49//47 34//32 50//48
f 37//35 48//46 49//47
f 40//38 56//54 51//49
f 51//49 56//54 44//42
f 42//40 57//55 30//28
f 28//26 44//42 58//56
f 41//39 54//52 59//57
f 60//58 40//38 43//41
f 29//27 28//26 58//56
f 46//44 60//58 43//41
f 54//52 29//27 61//59
f 39//37 62//60 53//51
f 63//61 39//37 37//35
f 24//22 64//62 36//34
f 24//22 41//39 64//62
f 31//29 57//55 65//63
f 31//29 30//28 57//55
f 31//29 65//63 55//53
f 29//27 58//56 61//59
f 55//53 66//64 32//30
f 67//65 60//58 46//44
f 50//48 68//66 49//47
f 50//48 69//67 68//66
f 49//47 63//61 37//35
f 35//33 70//68 50//48
f 52//50 53//51 71//69
f 36//34 64//62 72//70
f 42//40 52//50 71//69
f 64//62 41//39 59//57
f 64//62 59//57 73//71
f 56//54 74//72 44//42
f 74//72 58//56 44//42
f 40//38 60//58 67//65
f 67//65 56//54 40//38
f 59//57 54//52 75//73
f 54//52 61//59 76//74
f 67//65 46//44 77//75
f 35//33 36//34 70//68
f 53//51 78//76 71//69
f 79//77 39//37 63//61
f 71//69 80//78 42//40
f 42//40 80//78 57//55
f 66//64 47//45 32//30
f 56//54 67//65 81//79
f 74//72 56//54 81//79
f 58//56 74//72 82//80
f 58//56 82//80 61//59
f 83//81 61//59 84//82
f 83//81 76//74 61//59
f 75//73 54//52 76//74
f 85//83 46//44 47//45
f 46//44 85//83 77//75
f 61//59 82//80 84//82
f 81//79 67//65 77//75
f 49//47 86//84 63//61
f 49//47 68//66 86//84
f 50//48 87//85 69//67
f 70//68 87//85 50//48
f 72//70 70//68 36//34
f 39//37 79//77 62//60
f 88//86 72//70 64//62
f 88//86 64//62 73//71
f 81//79 82//80 74//72
f 89//87 81//79 77//75
f 82//80 81//79 89//87
f 84//82 82//80 89//87
f 90//88 53//51 62//60
f 90//88 78//76 53//51
f 71//69 78//76 91//89
f 71//69 91//89 80//78
f 47//45 66//64 92//90
f 47//45 92//90 85//83
f 77//75 85//83 93//91
f 89//87 77//75 93//91
f 90//88 62//60 94//92
f 62//60 79//77 94//92
f 93//91 85//83 92//90
f 84//82 89//87 95//93
f 79//77 63//61 86//84
f 89//87 93//91 95//93
f 115//94 84//82 116//95
f 124//96 90//88 102//97
f 131//98 75//73 109//99
f 135//100 86//84 126//101
f 75//73 113//102 109//99
f 138//103 142//104 109//99
f 143//105 141//106 72//70
f 107//107 110//108 91//89
f 140//109 88//86 142//104
f 122//110 92//90 119//111
f 105//112 102//97 90//88
f 80//78 144//113 139//114
f 88//86 138//103 72//70
f 72//70 138//103 143//105
f 94//92 137//115 136//116
f 79//77 135//100 133//117
f 72//70 129//118 70//68
f 86//84 128//119 130//120
f 86//84 130//120 126//101
f 87//85 125//121 132//122
f 70//68 129//118 125//121
f 92//90 122//110 123//123
f 93//91 120//124 127//125
f 92//90 123//123 120//124
f 87//85 118//126 69//67
f 69//67 118//126 121//127
f 69//67 117//128 68//66
f 117//128 86//84 68//66
f 80//78 114//129 57//55
f 76//74 112//130 113//102
f 133//117 94//92 79//77
f 94//92 111//131 137//115
f 91//89 144//113 80//78
f 83//81 115//94 108//132
f 108//132 76//74 83//81
f 124//96 91//89 78//76
f 75//73 106//133 59//57
f 94//92 105//112 90//88
f 92//90 104//134 119//111
f 134//135 66//64 55//53
f 66//64 103//136 104//134
f 88//86 101//137 142//104
f 93//91 100//138 95//93
f 65//63 134//135 55//53
f 95//93 116//95 84//82
f 95//93 100//138 98//139
f 65//63 114//129 97//140
f 65//63 97//140 99//141
f 73//71 106//133 96//142
f 73//71 96//142 101//137
f 124//96 78//76 90//88
f 135//100 79//77 86//84
f 75//73 76//74 113//102
f 134//135 99//141 111//131
f 99//141 97//140 136//116
f 137//115 99//141 136//116
f 114//129 139//114 105//112
f 139//114 144//113 105//112
f 99//141 137//115 111//131
f 97//140 114//129 136//116
f 119//111 104//134 126//101
f 104//134 103//136 135//100
f 103//136 134//135 133//117
f 103//136 133//117 135//100
f 144//113 110//108 102//97
f 105//112 144//113 102//97
f 110//108 107//107 124//96
f 124//96 102//97 110//108
f 105//112 136//116 114//129
f 111//131 133//117 134//135
f 135//100 126//101 104//134
f 126//101 130//120 119//111
f 123//123 122//110 119//111
f 100//138 127//125 132//122
f 127//125 120//124 117//128
f 120//124 123//123 128//119
f 123//123 119//111 130//120
f 130//120 128//119 123//123
f 128//119 117//128 120//124
f 98//139 100//138 125//121
f 127//125 117//128 121//127
f 118//126 127//125 121//127
f 115//94 116//95 141//106
f 116//95 98//139 129//118
f 141//106 116//95 129//118
f 112//130 108//132 115//94
f 109//99 113//102 138//103
f 113//102 112//130 143//105
f 106//133 131//98 109//99
f 101//137 96//142 106//133
f 138//103 140//109 142//104
f 142//104 101//137 106//133
f 106//133 109//99 142//104
f 113//102 143//105 138//103
f 112//130 115//94 143//105
f 127//125 118//126 132//122
f 132//122 125//121 100//138
f 125//121 129//118 98//139
f 115//94 141//106 143//105
f 88//86 140//109 138//103
f 72//70 141//106 129//118
f 87//85 70//68 125//121
f 93//91 92//90 120//124
f 87//85 132//122 118//126
f 69//67 121//127 117//128
f 117//128 128//119 86//84
f 80//78 139//114 114//129
f 133//117 111//131 94//92
f 91//89 110//108 144//113
f 83//81 84//82 115//94
f 108//132 112//130 76//74
f 124//96 107//107 91//89
f 75//73 131//98 106//133
f 94//92 136//116 105//112
f 92//90 66//64 104//134
f 134//135 103//136 66//64
f 88//86 73//71 101//137
f 93//91 127//125 100//138
f 65//63 99//141 134//135
f 95//93 98//139 116//95
f 65//63 57//55 114//129
f 73//71 59//57 106//133
