# Blender v2.92.0 OBJ File: 'convert_to_one_sided.blend'
# www.blender.org
mtllib 189L.mtl
o 189
v 6.262650 4.728898 5.405891
v 6.313249 4.735178 5.399591
v 6.318318 4.698779 5.427691
v 6.373008 4.707899 5.420551
v 6.280049 4.737838 5.399001
v 6.384768 4.749778 5.433781
v 6.269259 4.746148 5.422481
v 6.351139 4.774788 5.447781
v 6.435277 4.665039 5.446971
v 6.791823 4.668829 5.433741
v 6.721623 4.638239 5.443601
v 6.694354 4.641439 5.447141
v 6.823452 4.653829 5.441301
v 6.901491 4.681579 5.439971
v 6.968240 4.703218 5.445011
v 6.965310 4.691968 5.460841
v 6.199290 4.700429 5.462621
v 6.918181 4.703039 5.440791
v 6.425607 4.710698 5.445341
v 6.845512 4.712909 5.465611
v 6.938810 4.746568 5.480841
v 6.201670 4.718638 5.457730
v 6.190570 4.727898 5.491241
v 6.313199 4.776038 5.494390
v 6.580835 4.637969 5.460631
v 6.652884 4.621500 5.463040
v 6.771073 4.630080 5.480810
v 6.904261 4.657879 5.506290
v 6.396898 4.649279 5.477241
v 6.671214 4.653219 5.457371
v 6.274919 4.653499 5.527160
v 6.517286 4.728488 5.483181
v 7.000770 4.718709 5.477110
v 6.141391 4.686278 5.515570
v 6.443557 4.764398 5.471370
v 6.735074 4.708478 5.489850
v 6.972680 4.722158 5.465940
v 6.459347 4.810597 5.508630
v 6.403358 4.808567 5.542439
v 6.480767 4.642069 5.464520
v 6.527176 4.619600 5.519530
v 6.680604 4.607930 5.541840
v 6.631385 4.694218 5.485341
v 6.142941 4.681149 5.511520
v 6.149461 4.659799 5.553050
v 7.002220 4.760328 5.519870
v 6.238410 4.749818 5.569349
v 6.646224 4.766628 5.522300
v 6.145101 4.703818 5.578019
v 6.859032 4.766268 5.515170
v 7.030910 4.731928 5.567909
v 6.492026 4.787377 5.501920
v 6.949861 4.807737 5.557590
v 6.204690 4.631859 5.606609
v 6.403818 4.626620 5.563320
v 6.999310 4.694448 5.543210
v 6.173551 4.724848 5.671078
v 6.325358 4.786598 5.658648
v 6.564685 4.804697 5.532610
v 6.591145 4.596910 5.625309
v 6.676784 4.598120 5.685868
v 6.821632 4.622550 5.620849
v 6.120031 4.666689 5.575279
v 6.962760 4.658709 5.659368
v 7.039229 4.708889 5.651458
v 6.763653 4.788658 5.538400
v 7.035679 4.766498 5.643728
v 7.000210 4.805607 5.634139
v 6.608235 4.846557 5.569880
v 6.110611 4.651539 5.632469
v 6.325919 4.618180 5.641138
v 6.115021 4.678509 5.666978
v 6.720693 4.823287 5.560969
v 6.848492 4.822497 5.566159
v 6.966450 4.836207 5.623249
v 6.910231 4.854517 5.631349
v 6.514226 4.839467 5.577339
v 6.484006 4.606080 5.685908
v 6.728893 4.607419 5.673678
v 7.020260 4.687659 5.678898
v 6.759643 4.852706 5.601089
v 6.133901 4.638410 5.655328
v 6.107671 4.659409 5.685528
v 6.479707 4.839147 5.694407
v 6.646135 4.858716 5.634938
v 6.210640 4.623399 5.691058
v 6.776113 4.868056 5.658958
v 7.041327 4.724198 5.699999
v 6.170479 4.721782 5.699999
v 6.827310 4.864745 5.699999
v 6.192243 4.732628 5.699999
v 6.707761 4.865309 5.699999
v 7.032348 4.702319 5.699999
v 6.121189 4.647469 5.699999
v 6.300418 4.776681 5.699999
v 6.335339 4.791607 5.699999
v 6.134696 4.641506 5.699999
v 7.040291 4.735071 5.699999
v 6.108757 4.657954 5.699999
v 6.974436 4.833831 5.699999
v 7.025856 4.779340 5.699999
v 6.109919 4.661432 5.699999
v 6.228497 4.622209 5.699999
v 6.979720 4.828929 5.699999
v 7.013363 4.793231 5.699999
v 6.152272 4.707105 5.699999
v 6.965511 4.836734 5.699999
v 6.866138 4.861112 5.699999
v 6.597087 4.598819 5.699999
v 6.684753 4.599525 5.699999
v 6.473834 4.837434 5.699999
v 6.518242 4.844122 5.699999
v 6.664473 4.598537 5.699999
v 6.478973 4.838819 5.699999
v 6.485374 4.840040 5.699999
v 6.111101 4.653483 5.699999
v 6.787932 4.617086 5.699999
v 6.465465 4.607738 5.699999
v 6.664591 4.862529 5.699999
v 6.503695 4.605176 5.699999
v 6.853623 4.629117 5.699999
v 6.484164 4.606950 5.699999
v 7.040046 4.748130 5.699999
v 6.731846 4.607918 5.699999
v 6.298307 4.618355 5.699999
v 6.244298 4.753487 5.699999
v 6.354625 4.616609 5.699999
v 6.200996 4.626272 5.699999
v 6.211308 4.625040 5.699999
v 6.988245 4.667579 5.699999
v 6.125095 4.685780 5.699999
v 7.016854 4.683187 5.699999
v 6.937696 4.651189 5.699999
v 7.021793 4.690060 5.699999
v 6.966304 4.662463 5.699999
v 6.116948 4.676338 5.699999
vn -0.4443 -0.0469 -0.8946
vn 0.1057 0.2633 -0.9589
vn -0.1051 -0.6864 -0.7195
vn 0.2580 -0.1420 -0.9556
vn -0.2437 0.5849 -0.7736
vn 0.3417 0.4224 -0.8396
vn -0.3493 0.8467 -0.4014
vn -0.0588 0.8658 -0.4968
vn 0.1034 -0.3808 -0.9189
vn -0.0905 0.2049 -0.9746
vn -0.0019 -0.5538 -0.8326
vn -0.1470 0.1060 -0.9834
vn 0.1768 -0.7349 -0.6547
vn 0.2078 -0.5298 -0.8223
vn 0.4273 -0.0385 -0.9033
vn 0.4981 -0.7579 -0.4212
vn -0.4373 -0.5474 -0.7136
vn 0.0279 0.4406 -0.8973
vn 0.4014 0.1497 -0.9036
vn -0.1559 0.6798 -0.7166
vn 0.0513 0.7254 -0.6864
vn -0.7083 0.4238 -0.5646
vn -0.5446 0.8169 -0.1899
vn -0.3177 0.9386 -0.1342
vn -0.0737 -0.2340 -0.9694
vn -0.0364 -0.8904 -0.4537
vn 0.1633 -0.9483 -0.2722
vn 0.3073 -0.9240 -0.2276
vn -0.1513 -0.8862 -0.4380
vn -0.1596 0.4779 -0.8638
vn -0.1387 -0.9175 -0.3727
vn 0.2300 0.3310 -0.9152
vn 0.8330 -0.0639 -0.5496
vn -0.8504 0.2854 -0.4420
vn 0.3433 0.4240 -0.8381
vn -0.0992 0.5861 -0.8042
vn 0.3202 0.6062 -0.7280
vn 0.1006 0.7619 -0.6398
vn -0.2383 0.9584 -0.1569
vn -0.0748 -0.8316 -0.5503
vn -0.1025 -0.9592 -0.2636
vn 0.0736 -0.9897 -0.1226
vn 0.0034 0.4321 -0.9018
vn -0.6724 -0.4744 -0.5682
vn -0.3273 -0.8705 -0.3675
vn 0.6139 0.6343 -0.4698
vn -0.3744 0.9260 -0.0487
vn 0.0632 0.4852 -0.8721
vn -0.6992 0.7051 -0.1181
vn -0.0728 0.6823 -0.7274
vn 0.9749 -0.0394 -0.2190
vn 0.2623 0.4875 -0.8328
vn 0.2562 0.7984 -0.5449
vn -0.1299 -0.9683 -0.2133
vn -0.1076 -0.9746 -0.1965
vn 0.6433 -0.7411 -0.1921
vn -0.4787 0.8780 -0.0000
vn -0.3473 0.9373 -0.0283
vn 0.1631 0.5217 -0.8374
vn -0.0423 -0.9971 -0.0626
vn 0.0880 -0.9961 -0.0064
vn 0.1996 -0.9781 -0.0593
vn -0.9412 -0.1951 -0.2759
vn 0.3624 -0.9305 -0.0532
vn 0.8816 -0.4661 -0.0741
vn -0.0056 0.5729 -0.8196
vn 0.8894 0.4436 -0.1107
vn 0.6905 0.6994 -0.1842
vn 0.0361 0.8560 -0.5157
vn -0.7533 -0.6405 -0.1489
vn -0.0646 -0.9917 -0.1115
vn -0.8602 0.5089 -0.0328
vn 0.0586 0.6409 -0.7654
vn 0.0453 0.7510 -0.6588
vn 0.4966 0.8327 -0.2449
vn 0.1636 0.9545 -0.2493
vn -0.1429 0.9723 -0.1851
vn -0.0801 -0.9964 -0.0283
vn 0.1571 -0.9872 -0.0284
vn 0.6497 -0.7571 -0.0692
vn 0.0414 0.9057 -0.4219
vn -0.3460 -0.9360 -0.0651
vn -0.9986 0.0525 0.0021
vn -0.2122 0.9770 -0.0203
vn -0.0692 0.9902 -0.1213
vn -0.1359 -0.9899 0.0414
vn 0.0113 0.9942 -0.1067
vn 0.1908 0.6653 0.7218
vn 0.0832 0.7276 0.6809
vn -0.3813 -0.5165 0.7667
vn -0.3035 -0.6027 0.7380
vn 0.7167 0.1875 0.6716
vn 0.6245 0.4548 0.6350
vn -0.0544 -0.7026 0.7095
vn -0.0534 -0.7084 0.7038
vn 0.5405 0.4937 0.6813
vn 0.2880 -0.6940 0.6599
vn 0.5311 -0.4572 0.7133
vn 0.2039 -0.6276 0.7514
vn 0.1949 -0.6907 0.6964
vn -0.7033 -0.1625 0.6921
vn -0.6008 0.3466 0.7204
vn 0.4959 -0.5750 0.6508
vn -0.1465 0.6777 0.7206
vn -0.2229 0.6813 0.6972
vn -0.2151 -0.6549 0.7244
vn -0.6432 0.4230 0.6382
vn -0.5045 0.4751 0.7210
vn -0.0827 -0.6242 0.7769
vn -0.1438 -0.6706 0.7278
vn -0.0464 -0.7093 0.7033
vn 0.1552 -0.6999 0.6972
vn -0.0500 -0.7018 0.7107
vn -0.0331 -0.6808 0.7317
vn 0.1177 -0.6930 0.7113
vn 0.1219 -0.6948 0.7088
vn -0.0870 0.7187 0.6898
vn -0.0955 0.7036 0.7041
vn -0.0575 0.7378 0.6725
vn 0.0989 -0.7067 0.7005
vn 0.0070 -0.6964 0.7176
vn -0.0332 -0.6975 0.7158
vn -0.4782 0.5173 0.7097
vn 0.5231 0.5261 0.6705
vn -0.0459 -0.7077 0.7051
vn 0.3871 0.6387 0.6649
vn 0.6988 0.0646 0.7124
vn -0.2489 0.6785 0.6911
vn -0.2702 0.6644 0.6968
vn -0.2709 0.6516 0.7085
vn 0.5457 -0.3613 0.7561
vn -0.0461 0.7220 0.6904
vn 0.0548 0.7139 0.6981
vn -0.3611 0.6037 0.7108
vn -0.2690 0.6556 0.7056
vn 0.6968 -0.0683 0.7140
usemtl mtl1.1050
s 1
f 1//1 2//2 3//3
f 2//2 4//4 3//3
f 2//2 1//1 5//5
f 4//4 2//2 6//6
f 1//1 7//7 5//5
f 5//5 7//7 2//2
f 6//6 2//2 8//8
f 8//8 2//2 7//7
f 3//3 4//4 9//9
f 10//10 11//11 12//12
f 13//13 11//11 10//10
f 14//14 13//13 10//10
f 14//14 15//15 16//16
f 17//17 1//1 3//3
f 18//18 14//14 10//10
f 15//15 14//14 18//18
f 19//19 4//4 6//6
f 10//10 20//20 18//18
f 21//21 18//18 20//20
f 7//7 22//22 23//23
f 7//7 1//1 22//22
f 7//7 24//24 8//8
f 25//25 11//11 26//26
f 26//26 11//11 27//27
f 11//11 25//25 12//12
f 13//13 27//27 11//11
f 27//27 13//13 28//28
f 3//3 9//9 29//29
f 25//25 30//30 12//12
f 13//13 14//14 28//28
f 17//17 3//3 31//31
f 19//19 9//9 4//4
f 32//32 9//9 19//19
f 10//10 12//12 30//30
f 16//16 15//15 33//33
f 22//22 17//17 34//34
f 1//1 17//17 22//22
f 35//35 32//32 19//19
f 10//10 36//36 20//20
f 33//33 15//15 37//37
f 19//19 6//6 35//35
f 18//18 37//37 15//15
f 18//18 21//21 37//37
f 6//6 8//8 38//38
f 39//39 8//8 24//24
f 40//40 25//25 41//41
f 41//41 25//25 26//26
f 26//26 27//27 42//42
f 29//29 9//9 40//40
f 25//25 40//40 9//9
f 3//3 29//29 31//31
f 32//32 25//25 9//9
f 43//43 25//25 32//32
f 43//43 30//30 25//25
f 14//14 16//16 28//28
f 44//44 17//17 45//45
f 17//17 31//31 45//45
f 44//44 34//34 17//17
f 30//30 43//43 36//36
f 30//30 36//36 10//10
f 37//37 46//46 33//33
f 21//21 46//46 37//37
f 7//7 23//23 47//47
f 47//47 24//24 7//7
f 6//6 38//38 35//35
f 38//38 8//8 39//39
f 41//41 26//26 42//42
f 29//29 40//40 41//41
f 32//32 48//48 43//43
f 43//43 48//48 36//36
f 34//34 49//49 22//22
f 20//20 36//36 50//50
f 33//33 46//46 51//51
f 52//52 32//32 35//35
f 21//21 20//20 50//50
f 38//38 52//52 35//35
f 46//46 21//21 53//53
f 31//31 54//54 45//45
f 55//55 31//31 29//29
f 16//16 56//56 28//28
f 16//16 33//33 56//56
f 23//23 49//49 57//57
f 23//23 22//22 49//49
f 23//23 57//57 47//47
f 21//21 50//50 53//53
f 47//47 58//58 24//24
f 59//59 52//52 38//38
f 42//42 60//60 41//41
f 42//42 61//61 60//60
f 41//41 55//55 29//29
f 27//27 62//62 42//42
f 44//44 45//45 63//63
f 28//28 56//56 64//64
f 34//34 44//44 63//63
f 56//56 33//33 51//51
f 56//56 51//51 65//65
f 48//48 66//66 36//36
f 66//66 50//50 36//36
f 32//32 52//52 59//59
f 59//59 48//48 32//32
f 51//51 46//46 67//67
f 46//46 53//53 68//68
f 59//59 38//38 69//69
f 27//27 28//28 62//62
f 45//45 70//70 63//63
f 71//71 31//31 55//55
f 63//63 72//72 34//34
f 34//34 72//72 49//49
f 58//58 39//39 24//24
f 48//48 59//59 73//73
f 66//66 48//48 73//73
f 50//50 66//66 74//74
f 50//50 74//74 53//53
f 75//75 53//53 76//76
f 75//75 68//68 53//53
f 67//67 46//46 68//68
f 77//77 38//38 39//39
f 38//38 77//77 69//69
f 53//53 74//74 76//76
f 73//73 59//59 69//69
f 41//41 78//78 55//55
f 41//41 60//60 78//78
f 42//42 79//79 61//61
f 62//62 79//79 42//42
f 64//64 62//62 28//28
f 31//31 71//71 54//54
f 80//80 64//64 56//56
f 80//80 56//56 65//65
f 73//73 74//74 66//66
f 81//81 73//73 69//69
f 74//74 73//73 81//81
f 76//76 74//74 81//81
f 82//82 45//45 54//54
f 82//82 70//70 45//45
f 63//63 70//70 83//83
f 63//63 83//83 72//72
f 39//39 58//58 84//84
f 39//39 84//84 77//77
f 69//69 77//77 85//85
f 81//81 69//69 85//85
f 82//82 54//54 86//86
f 54//54 71//71 86//86
f 85//85 77//77 84//84
f 76//76 81//81 87//87
f 71//71 55//55 78//78
f 81//81 85//85 87//87
f 107//88 76//76 108//89
f 116//90 82//82 94//91
f 123//92 67//67 101//93
f 127//94 78//78 118//95
f 67//67 105//96 101//93
f 130//97 134//98 101//93
f 135//99 133//100 64//64
f 99//101 102//102 83//83
f 132//103 80//80 134//98
f 114//104 84//84 111//105
f 97//106 94//91 82//82
f 72//72 136//107 131//108
f 80//80 130//97 64//64
f 64//64 130//97 135//99
f 86//86 129//109 128//110
f 71//71 127//94 125//111
f 64//64 121//112 62//62
f 78//78 120//113 122//114
f 78//78 122//114 118//95
f 79//79 117//115 124//116
f 62//62 121//112 117//115
f 84//84 114//104 115//117
f 85//85 112//118 119//119
f 84//84 115//117 112//118
f 79//79 110//120 61//61
f 61//61 110//120 113//121
f 61//61 109//122 60//60
f 109//122 78//78 60//60
f 72//72 106//123 49//49
f 68//68 104//124 105//96
f 125//111 86//86 71//71
f 86//86 103//125 129//109
f 83//83 136//107 72//72
f 75//75 107//88 100//126
f 100//126 68//68 75//75
f 116//90 83//83 70//70
f 67//67 98//127 51//51
f 86//86 97//106 82//82
f 84//84 96//128 111//105
f 126//129 58//58 47//47
f 58//58 95//130 96//128
f 80//80 93//131 134//98
f 85//85 92//132 87//87
f 57//57 126//129 47//47
f 87//87 108//89 76//76
f 87//87 92//132 90//133
f 57//57 106//123 89//134
f 57//57 89//134 91//135
f 65//65 98//127 88//136
f 65//65 88//136 93//131
f 116//90 70//70 82//82
f 127//94 71//71 78//78
f 67//67 68//68 105//96
f 126//129 91//135 103//125
f 91//135 89//134 128//110
f 129//109 91//135 128//110
f 106//123 131//108 97//106
f 131//108 136//107 97//106
f 91//135 129//109 103//125
f 89//134 106//123 128//110
f 111//105 96//128 118//95
f 96//128 95//130 127//94
f 95//130 126//129 125//111
f 95//130 125//111 127//94
f 136//107 102//102 94//91
f 97//106 136//107 94//91
f 102//102 99//101 116//90
f 116//90 94//91 102//102
f 97//106 128//110 106//123
f 103//125 125//111 126//129
f 127//94 118//95 96//128
f 118//95 122//114 111//105
f 115//117 114//104 111//105
f 92//132 119//119 124//116
f 119//119 112//118 109//122
f 112//118 115//117 120//113
f 115//117 111//105 122//114
f 122//114 120//113 115//117
f 120//113 109//122 112//118
f 90//133 92//132 117//115
f 119//119 109//122 113//121
f 110//120 119//119 113//121
f 107//88 108//89 133//100
f 108//89 90//133 121//112
f 133//100 108//89 121//112
f 104//124 100//126 107//88
f 101//93 105//96 130//97
f 105//96 104//124 135//99
f 98//127 123//92 101//93
f 93//131 88//136 98//127
f 130//97 132//103 134//98
f 134//98 93//131 98//127
f 98//127 101//93 134//98
f 105//96 135//99 130//97
f 104//124 107//88 135//99
f 119//119 110//120 124//116
f 124//116 117//115 92//132
f 117//115 121//112 90//133
f 107//88 133//100 135//99
f 80//80 132//103 130//97
f 64//64 133//100 121//112
f 79//79 62//62 117//115
f 85//85 84//84 112//118
f 79//79 124//116 110//120
f 61//61 113//121 109//122
f 109//122 120//113 78//78
f 72//72 131//108 106//123
f 125//111 103//125 86//86
f 83//83 102//102 136//107
f 75//75 76//76 107//88
f 100//126 104//124 68//68
f 116//90 99//101 83//83
f 67//67 123//92 98//127
f 86//86 128//110 97//106
f 84//84 58//58 96//128
f 126//129 95//130 58//58
f 80//80 65//65 93//131
f 85//85 119//119 92//132
f 57//57 91//135 126//129
f 87//87 90//133 108//89
f 57//57 49//49 106//123
f 65//65 51//51 98//127
