# wavefront obj file written by the visualization toolkit


v 12845.4 7395.22 5355.24
v 12857.9 7428.93 5373.46
v 12881.8 7402.21 5361.7
v 12927.8 7436.47 5373.88
v 12897.5 7446.62 5375.61
v 12907.3 7331.24 5408.73
v 12850.3 7346.18 5412.34
v 12834.5 7360.32 5448.17
v 12956.8 7372.4 5422.84
v 12966.2 7429.4 5420.78
v 12923.3 7463.4 5403.08
v 12905 7248.31 5462.99
v 12948.5 7284.19 5465.18
v 12884.2 7463.97 5413.45
v 12864.1 7276.79 5459.38
v 12858.2 7431 5455.77
v 12951.7 7457.83 5461.47
v 12912.8 7472.02 5447.13
v 12838 7230.91 5486.73
v 12988.2 7371.29 5464.13
v 12893.5 7463.6 5465.69
v 12870 7198.68 5480.82
v 12817.5 7181.21 5560.41
v 12993.7 7286.53 5519.07
v 12839.4 7318.79 5550.79
v 12896.4 7148.77 5494.51
v 12953.5 7185.15 5512.57
v 12987.8 7379.81 5522.44
v 12930.9 7450.43 5509.25
v 12929.7 7038 5540.24
v 12864.1 7083.08 5521.82
v 12827.5 7033.53 5576.93
v 13006.6 7196.7 5554.25
v 12903.4 7404.29 5555.69
v 12969.5 7417 5542.31
v 12876.8 6932.52 5555.82
v 12845.3 6916.14 5581.68
v 13022.5 7086.72 5579.69
v 13026.5 7284.65 5616.7
v 12988.4 6810.83 5584.14
v 12936.7 6890.69 5570.36
v 13020.3 6939.78 5584.89
v 12864.6 6829.26 5588.45
v 13044.5 7173.3 5599.36
v 12875.4 7343.15 5609.12
v 13010.2 6708.96 5602.27
v 12911.6 6751.25 5596.29
v 12991.7 7371.7 5593.29
v 12959.1 7400.41 5582.23
v 12939.9 6598.04 5618.82
v 13024.3 6622.08 5629.55
v 12951.5 6535.37 5658.35
v 13100.3 6685.05 5647.53
v 13043 6594.84 5664.55
v 12884.8 6609.63 5636.66
v 13087.3 6725.41 5628.92
v 13078.8 6836.73 5620.62
v 12854.2 6749.53 5630.29
v 12830 6865.68 5635.94
v 13080.7 6966.12 5619.4
v 13097.4 7031.98 5640.6
v 12850 7279.62 5658.92
v 12904.4 7367.81 5648.43
v 12946.9 7382.98 5650.5
v 12910.7 6543.99 5654.6
v 13000.3 6557.43 5679.76
v 13119.1 6779.82 5650.51
v 12820.9 7157.18 5661.52
v 12880.8 7333.49 5657.86
v 12917.9 6514.94 5685.06
v 12886.3 6540.62 5684.08
v 12860.2 6628.12 5684.59
v 13086.9 6643.31 5686.03
v 12834.1 6764.87 5704.25
v 13117 6884.58 5653.45
v 13078.5 7129.26 5684.56
v 12993.7 7348.29 5664.01
v 12959.7 6529.55 5710.67
v 13036.1 6590.31 5700.91
v 13123 6764.33 5693.63
v 12820.6 6988.68 5667.91
v 13116.4 6946.52 5702.67
v 12865.1 7342.38 5732.99
v 12909.2 6526.16 5718.51
v 12881.3 6570.86 5719.66
v 13082.5 6659.47 5717.69
v 12824.6 7222.19 5731.38
v 12837.1 7292.88 5741.7
v 12911.7 7394.62 5748.6
v 12967.3 7390.32 5735.34
v 12861.5 6665.52 5735.28
v 13095.2 6704.84 5742.49
v 13108.5 6837.83 5742.11
v 12816.8 7107.22 5754.81
v 13075.8 7075.51 5749.17
v 13050.1 7169.36 5760.85
v 13028.6 7273.07 5727.64
v 13000.7 7373.53 5775.27
v 12926.1 7443.38 5830.86
v 12904.3 6623.35 5757.31
v 13026.8 6617.59 5743.57
v 12841.5 6761.09 5748.24
v 12832.9 6919.15 5765.64
v 13085.4 6968.53 5753.35
v 12828.8 7268.62 5815.64
v 12956.9 6577.57 5742.39
v 13011 7254.31 5828.26
v 13012.1 7342.98 5829.01
v 12963.7 7437.2 5848.82
v 12975.3 6681.04 5773.06
v 12863.4 6779.3 5772.91
v 13046.7 6758.16 5763.02
v 13050.8 6886.33 5772.18
v 13017.5 7008.74 5799.48
v 13021.6 7135.5 5802.12
v 12859.4 7399.53 5855.48
v 12897.3 7433.02 5833.93
v 12908.3 6791.47 5796.37
v 12978.3 6861.94 5796.25
v 12867.4 6939.41 5823.43
v 12838.5 7118.2 5832.91
v 12947 6988.31 5833.46
v 12994 7355.62 5904.12
v 12983.8 7409.17 5880.61
v 12916.7 6916.29 5821.34
v 12959.1 7138.53 5857.92
v 12835.6 7284.64 5922.34
v 12889 7453.54 5901.47
v 12921.3 7465.71 5922.24
v 12905.4 7045.45 5853.92
v 12856.4 7192.93 5895.87
v 12963.8 7288.6 5919.62
v 12871 7098.72 5861.25
v 12836.7 7361.65 5936.86
v 12896.5 7166.94 5888.34
v 12905.6 7258.41 5939.23
v 12867.6 7251.56 5934.53
v 12947.8 7378.03 5980.25
v 12863.1 7431.25 5961.37
v 12952.5 7449.81 5929.05
v 12839 7351.39 5982.07
v 12953.2 7420.69 5958.29
v 12888.7 7455.78 5968.03
v 12872.7 7335.52 5988.49
v 12918.2 7328.42 5973.5
v 12908.9 7419.01 6012.76
v 12884 7433.92 6007.42
v 12915.6 7439 5965.92
v 12864.3 7386.01 5986.97
v 12906.4 7374.76 6001.01
v 12889.5 7392.45 5998.27
vn -0.65464 -0.144083 -0.742082
vn -0.649402 0.575186 -0.497432
vn 0.139786 -0.153997 -0.978133
vn 0.51305 0.260358 -0.81792
vn -0.0636119 0.651225 -0.756214
vn 0.146334 -0.524016 -0.839043
vn -0.38775 -0.568197 -0.725811
vn -0.989935 0.0580144 -0.129089
vn 0.665022 -0.291554 -0.687562
vn 0.86871 0.330169 -0.369232
vn 0.322822 0.864769 -0.384655
vn 0.145075 -0.400417 -0.904776
vn 0.571488 -0.388578 -0.722779
vn -0.409767 0.894367 -0.179438
vn -0.206387 -0.447871 -0.869952
vn -0.824398 0.530528 0.197251
vn 0.634695 0.771328 0.0470679
vn 0.0377009 0.996432 0.0755074
vn -0.677031 -0.277363 -0.681688
vn 0.943548 -0.0222654 -0.330487
vn -0.445362 0.835097 0.322901
vn -0.236054 -0.291576 -0.926964
vn -0.994555 0.0015065 -0.104203
vn 0.853393 -0.125548 -0.505923
vn -0.906292 0.361854 0.218396
vn 0.138635 -0.320874 -0.936921
vn 0.538789 -0.247516 -0.805259
vn 0.948147 0.314126 -0.0483848
vn 0.0754956 0.894356 0.440941
vn 0.258188 -0.215562 -0.941739
vn -0.367767 -0.281826 -0.886184
vn -0.905748 -0.140661 -0.399793
vn 0.686977 -0.121556 -0.71644
vn -0.516855 0.747905 0.416531
vn 0.660016 0.704889 0.259829
vn -0.189958 -0.222714 -0.956198
vn -0.750723 -0.187257 -0.633521
vn 0.593192 -0.0504831 -0.803477
vn 0.949901 0.292419 -0.110358
vn 0.19383 -0.117147 -0.974016
vn 0.127413 -0.160862 -0.978718
vn 0.382937 -0.0682691 -0.921248
vn -0.52843 -0.265612 -0.806357
vn 0.858007 0.0856507 -0.506446
vn -0.801023 0.552692 0.229987
vn 0.215182 -0.160674 -0.963266
vn -0.200834 -0.217431 -0.955191
vn 0.803145 0.572064 0.166436
vn 0.301684 0.864562 0.401895
vn -0.0507163 -0.351955 -0.934642
vn 0.397485 -0.450364 -0.799486
vn 0.272915 -0.765077 -0.583245
vn 0.798955 -0.345838 -0.492003
vn 0.659 -0.670848 -0.340122
vn -0.650309 -0.290849 -0.701787
vn 0.495761 -0.140492 -0.85702
vn 0.510058 -0.0329142 -0.85951
vn -0.818846 -0.220841 -0.52983
vn -0.961838 -0.128618 -0.241504
vn 0.622497 0.00952807 -0.782564
vn 0.878133 0.130793 -0.460191
vn -0.92319 0.383778 -0.0208623
vn -0.666468 0.744628 0.0367405
vn 0.0818853 0.994569 0.064243
vn -0.354573 -0.590882 -0.724663
vn 0.555241 -0.787444 -0.267654
vn 0.832612 -0.0565792 -0.550959
vn -0.993167 0.116079 0.0120332
vn -0.845668 0.533449 -0.0166549
vn -0.1767 -0.963082 -0.203102
vn -0.815563 -0.553936 -0.167371
vn -0.967851 -0.236908 -0.0844896
vn 0.861556 -0.502163 0.0745257
vn -0.989999 -0.140224 0.0154959
vn 0.895546 0.04144 -0.443035
vn 0.968425 0.248423 0.0209708
vn 0.764711 0.644161 0.016528
vn 0.411944 -0.836764 0.360733
vn 0.678852 -0.682249 0.27147
vn 0.984507 -0.142088 0.102746
vn -0.998778 -0.0467189 -0.0161021
vn 0.975678 0.118128 0.184656
vn -0.831861 0.524137 -0.182448
vn -0.339593 -0.69327 0.635652
vn -0.81727 -0.354346 0.454432
vn 0.794141 -0.462542 0.394201
vn -0.985603 0.149367 -0.0792188
vn -0.935532 0.340531 -0.093909
vn -0.418668 0.848162 -0.324558
vn 0.387627 0.873936 -0.293225
vn -0.841385 -0.245849 0.48128
vn 0.691307 -0.248662 0.678426
vn 0.718401 -0.0120673 0.695525
vn -0.99512 -0.00713521 0.0984173
vn 0.832774 0.1258 0.539131
vn 0.910008 0.172615 0.376949
vn 0.959065 0.275011 0.0675544
vn 0.849445 0.514051 -0.119141
vn -0.0617003 0.932251 -0.356513
vn -0.341582 -0.288588 0.894449
vn 0.435213 -0.43463 0.788471
vn -0.872161 -0.169689 0.458847
vn -0.927101 -0.10344 0.360257
vn 0.693065 0.0547755 0.718791
vn -0.987997 0.153159 0.0201242
vn 0.114311 -0.424248 0.898302
vn 0.89721 -0.0594185 0.437589
vn 0.976291 0.182448 0.116485
vn 0.58276 0.796175 -0.162775
vn 0.14501 -0.211964 0.966459
vn -0.611402 -0.204616 0.764408
vn 0.331108 -0.112424 0.936872
vn 0.428017 -0.0598278 0.901788
vn 0.543983 -0.0660197 0.836495
vn 0.727863 -0.0166565 0.68552
vn -0.837891 0.496525 -0.22672
vn -0.546907 0.754589 -0.362613
vn -0.0971911 -0.209737 0.972915
vn 0.277534 -0.148665 0.949143
vn -0.462622 -0.215772 0.859897
vn -0.869537 -0.171594 0.463099
vn 0.303837 -0.193744 0.932816
vn 0.916765 0.0357407 0.397824
vn 0.898935 0.41719 0.133676
vn 0.0773348 -0.224997 0.971286
vn 0.497281 -0.235102 0.835128
vn -0.847888 -0.269937 0.456312
vn -0.529059 0.830994 -0.171889
vn 0.173465 0.981276 0.0837109
vn 0.0421339 -0.237128 0.970564
vn -0.488564 -0.397849 0.776545
vn 0.668887 -0.330718 0.665744
vn -0.395158 -0.284389 0.873483
vn -0.966477 0.237492 0.0975691
vn 6.74306e-05 -0.404619 0.914486
vn 0.22061 -0.474137 0.852364
vn -0.311741 -0.474606 0.823145
vn 0.671298 -0.154532 0.724899
vn -0.852442 0.496276 0.164477
vn 0.63221 0.714075 0.300679
vn -0.78755 -0.00911187 0.616184
vn 0.760533 0.419299 0.49576
vn -0.197524 0.931131 0.30656
vn -0.217217 -0.345015 0.913116
vn 0.371135 -0.435035 0.820368
vn 0.309274 0.253428 0.916583
vn -0.338637 0.48045 0.809007
vn 0.399812 0.760085 0.512271
vn -0.683722 0.143686 0.715457
vn 0.124363 -0.285773 0.950194
vn -0.322953 -0.136653 0.936497

g grp1
usemtl mtl1
f 1//1 2//2 3//3 
f 4//4 3//3 5//5 
f 5//5 3//3 2//2 
f 6//6 7//7 3//3 
f 3//3 7//7 1//1 
f 1//1 7//7 8//8 
f 9//9 3//3 4//4 
f 2//2 1//1 8//8 
f 10//10 9//9 4//4 
f 5//5 11//11 4//4 
f 10//10 4//4 11//11 
f 12//12 6//6 13//13 
f 13//13 6//6 9//9 
f 9//9 6//6 3//3 
f 5//5 2//2 14//14 
f 11//11 5//5 14//14 
f 6//6 15//15 7//7 
f 12//12 15//15 6//6 
f 8//8 16//16 2//2 
f 2//2 16//16 14//14 
f 10//10 11//11 17//17 
f 11//11 14//14 18//18 
f 17//17 11//11 18//18 
f 7//7 19//19 8//8 
f 9//9 10//10 20//20 
f 21//21 14//14 16//16 
f 14//14 21//21 18//18 
f 15//15 12//12 22//22 
f 7//7 15//15 19//19 
f 8//8 19//19 23//23 
f 13//13 9//9 24//24 
f 24//24 9//9 20//20 
f 8//8 25//25 16//16 
f 12//12 26//26 22//22 
f 15//15 22//22 19//19 
f 12//12 13//13 27//27 
f 8//8 23//23 25//25 
f 20//20 10//10 28//28 
f 28//28 10//10 17//17 
f 18//18 21//21 29//29 
f 29//29 17//17 18//18 
f 30//30 31//31 26//26 
f 27//27 30//30 26//26 
f 19//19 31//31 32//32 
f 22//22 31//31 19//19 
f 26//26 31//31 22//22 
f 12//12 27//27 26//26 
f 24//24 33//33 27//27 
f 27//27 13//13 24//24 
f 24//24 20//20 28//28 
f 25//25 34//34 16//16 
f 35//35 28//28 17//17 
f 21//21 16//16 34//34 
f 35//35 17//17 29//29 
f 36//36 37//37 31//31 
f 30//30 36//36 31//31 
f 32//32 31//31 37//37 
f 38//38 30//30 27//27 
f 19//19 32//32 23//23 
f 33//33 38//38 27//27 
f 24//24 28//28 39//39 
f 34//34 29//29 21//21 
f 40//40 41//41 42//42 
f 37//37 36//36 43//43 
f 30//30 41//41 36//36 
f 42//42 41//41 30//30 
f 38//38 42//42 30//30 
f 33//33 24//24 44//44 
f 25//25 45//45 34//34 
f 46//46 47//47 40//40 
f 40//40 47//47 41//41 
f 36//36 47//47 43//43 
f 41//41 47//47 36//36 
f 33//33 44//44 38//38 
f 35//35 48//48 28//28 
f 29//29 34//34 49//49 
f 35//35 29//29 49//49 
f 50//50 51//51 52//52 
f 51//51 50//50 46//46 
f 46//46 50//50 47//47 
f 53//53 54//54 51//51 
f 47//47 50//50 55//55 
f 51//51 46//46 56//56 
f 56//56 46//46 57//57 
f 56//56 53//53 51//51 
f 58//58 43//43 47//47 
f 57//57 46//46 40//40 
f 59//59 37//37 58//58 
f 37//37 43//43 58//58 
f 32//32 37//37 59//59 
f 40//40 42//42 57//57 
f 60//60 57//57 42//42 
f 38//38 60//60 42//42 
f 44//44 61//61 38//38 
f 62//62 45//45 25//25 
f 45//45 63//63 34//34 
f 49//49 34//34 64//64 
f 52//52 65//65 50//50 
f 52//52 51//51 66//66 
f 51//51 54//54 66//66 
f 50//50 65//65 55//55 
f 55//55 58//58 47//47 
f 56//56 67//67 53//53 
f 57//57 67//67 56//56 
f 60//60 38//38 61//61 
f 68//68 25//25 23//23 
f 62//62 25//25 68//68 
f 44//44 24//24 39//39 
f 62//62 69//69 45//45 
f 28//28 48//48 39//39 
f 69//69 63//63 45//45 
f 63//63 64//64 34//34 
f 48//48 35//35 49//49 
f 65//65 70//70 71//71 
f 70//70 65//65 52//52 
f 71//71 55//55 65//65 
f 72//72 55//55 71//71 
f 73//73 54//54 53//53 
f 72//72 58//58 55//55 
f 74//74 58//58 72//72 
f 59//59 58//58 74//74 
f 67//67 57//57 75//75 
f 57//57 60//60 75//75 
f 60//60 61//61 75//75 
f 61//61 44//44 76//76 
f 44//44 39//39 76//76 
f 77//77 48//48 49//49 
f 78//78 70//70 52//52 
f 52//52 66//66 78//78 
f 79//79 66//66 54//54 
f 80//80 73//73 53//53 
f 80//80 53//53 67//67 
f 80//80 67//67 75//75 
f 59//59 81//81 32//32 
f 32//32 81//81 23//23 
f 75//75 61//61 82//82 
f 81//81 68//68 23//23 
f 69//69 62//62 83//83 
f 39//39 48//48 77//77 
f 69//69 83//83 63//63 
f 77//77 49//49 64//64 
f 71//71 70//70 84//84 
f 85//85 71//71 84//84 
f 66//66 79//79 78//78 
f 85//85 72//72 71//71 
f 79//79 54//54 73//73 
f 86//86 79//79 73//73 
f 73//73 80//80 86//86 
f 74//74 81//81 59//59 
f 80//80 75//75 82//82 
f 61//61 76//76 82//82 
f 68//68 87//87 62//62 
f 87//87 88//88 62//62 
f 89//89 63//63 83//83 
f 64//64 63//63 89//89 
f 64//64 89//89 90//90 
f 90//90 77//77 64//64 
f 70//70 78//78 84//84 
f 72//72 91//91 74//74 
f 92//92 86//86 80//80 
f 80//80 82//82 93//93 
f 81//81 94//94 68//68 
f 82//82 76//76 95//95 
f 68//68 94//94 87//87 
f 76//76 96//96 95//95 
f 76//76 97//97 96//96 
f 76//76 39//39 97//97 
f 88//88 83//83 62//62 
f 39//39 77//77 97//97 
f 97//97 77//77 98//98 
f 77//77 90//90 98//98 
f 89//89 99//99 90//90 
f 85//85 84//84 100//100 
f 91//91 72//72 85//85 
f 101//101 79//79 86//86 
f 91//91 102//102 74//74 
f 86//86 92//92 101//101 
f 80//80 93//93 92//92 
f 74//74 102//102 103//103 
f 74//74 103//103 81//81 
f 103//103 94//94 81//81 
f 82//82 104//104 93//93 
f 104//104 82//82 95//95 
f 105//105 87//87 94//94 
f 84//84 106//106 100//100 
f 78//78 106//106 84//84 
f 101//101 106//106 78//78 
f 100//100 91//91 85//85 
f 78//78 79//79 101//101 
f 96//96 97//97 107//107 
f 88//88 87//87 105//105 
f 107//107 97//97 108//108 
f 88//88 105//105 83//83 
f 97//97 98//98 108//108 
f 99//99 109//109 90//90 
f 90//90 109//109 98//98 
f 110//110 100//100 106//106 
f 101//101 110//110 106//106 
f 100//100 111//111 91//91 
f 112//112 110//110 101//101 
f 101//101 92//92 112//112 
f 102//102 91//91 111//111 
f 92//92 93//93 112//112 
f 113//113 112//112 93//93 
f 102//102 111//111 103//103 
f 93//93 104//104 113//113 
f 104//104 114//114 113//113 
f 104//104 95//95 114//114 
f 115//115 114//114 95//95 
f 95//95 96//96 115//115 
f 83//83 105//105 116//116 
f 83//83 116//116 89//89 
f 116//116 117//117 89//89 
f 99//99 89//89 117//117 
f 110//110 118//118 100//100 
f 100//100 118//118 111//111 
f 110//110 119//119 118//118 
f 112//112 119//119 110//110 
f 112//112 113//113 119//119 
f 120//120 111//111 118//118 
f 111//111 120//120 103//103 
f 113//113 114//114 119//119 
f 121//121 103//103 120//120 
f 122//122 119//119 114//114 
f 103//103 121//121 94//94 
f 94//94 121//121 105//105 
f 107//107 115//115 96//96 
f 107//107 108//108 123//123 
f 98//98 109//109 124//124 
f 124//124 108//108 98//98 
f 125//125 118//118 119//119 
f 125//125 120//120 118//118 
f 125//125 119//119 122//122 
f 114//114 115//115 126//126 
f 121//121 127//127 105//105 
f 123//123 108//108 124//124 
f 117//117 128//128 99//99 
f 99//99 129//129 109//109 
f 129//129 99//99 128//128 
f 125//125 130//130 120//120 
f 125//125 122//122 130//130 
f 114//114 126//126 122//122 
f 127//127 121//121 131//131 
f 107//107 132//132 126//126 
f 107//107 126//126 115//115 
f 130//130 133//133 120//120 
f 133//133 121//121 120//120 
f 122//122 126//126 130//130 
f 131//131 121//121 133//133 
f 123//123 132//132 107//107 
f 105//105 134//134 116//116 
f 117//117 116//116 128//128 
f 130//130 135//135 133//133 
f 130//130 126//126 135//135 
f 133//133 135//135 131//131 
f 135//135 126//126 136//136 
f 126//126 132//132 136//136 
f 135//135 137//137 131//131 
f 138//138 132//132 123//123 
f 127//127 134//134 105//105 
f 134//134 139//139 116//116 
f 109//109 140//140 124//124 
f 129//129 140//140 109//109 
f 136//136 137//137 135//135 
f 131//131 137//137 127//127 
f 127//127 141//141 134//134 
f 123//123 124//124 142//142 
f 124//124 140//140 142//142 
f 128//128 116//116 139//139 
f 143//143 128//128 139//139 
f 129//129 128//128 143//143 
f 136//136 144//144 137//137 
f 132//132 145//145 136//136 
f 137//137 144//144 127//127 
f 145//145 144//144 136//136 
f 127//127 144//144 141//141 
f 145//145 132//132 138//138 
f 123//123 142//142 138//138 
f 146//146 138//138 142//142 
f 139//139 147//147 143//143 
f 129//129 143//143 148//148 
f 140//140 129//129 148//148 
f 148//148 142//142 140//140 
f 141//141 149//149 134//134 
f 134//134 149//149 139//139 
f 149//149 147//147 139//139 
f 148//148 146//146 142//142 
f 145//145 150//150 144//144 
f 144//144 149//149 141//141 
f 145//145 138//138 150//150 
f 150//150 138//138 146//146 
f 143//143 147//147 148//148 
f 150//150 151//151 144//144 
f 144//144 151//151 149//149 
f 150//150 146//146 151//151 
f 151//151 147//147 149//149 
f 146//146 147//147 151//151 
f 146//146 148//148 147//147 
