# Blender v2.92.0 OBJ File: 'convert_to_one_sided.blend'
# www.blender.org
mtllib 204L.mtl
o 204
v 2.004704 3.601353 4.212076
v 1.938095 3.520464 4.216676
v 1.978145 3.646502 4.216456
v 2.047774 3.720772 4.218926
v 2.073733 3.717831 4.225326
v 1.912565 3.439685 4.235186
v 1.887536 3.464145 4.234466
v 1.963465 3.502374 4.229406
v 1.847976 3.441665 4.252216
v 1.903095 3.533584 4.233196
v 2.014094 3.542424 4.246906
v 2.071113 3.662002 4.241366
v 1.895526 3.627503 4.267866
v 1.987044 3.741101 4.244326
v 2.133162 3.777061 4.257905
v 2.056413 3.794530 4.240886
v 2.107653 3.800120 4.248075
v 1.896176 3.380116 4.265865
v 1.869086 3.399855 4.259575
v 1.946515 3.449255 4.252216
v 1.795047 3.482054 4.309195
v 2.073863 3.626893 4.264596
v 2.126773 3.710572 4.285215
v 1.911445 3.721881 4.309855
v 2.002524 3.820070 4.298065
v 2.097193 3.887759 4.287045
v 2.125533 3.864399 4.271676
v 1.816287 3.360236 4.284416
v 1.915505 3.384196 4.280275
v 1.952515 3.427115 4.306045
v 1.806457 3.631342 4.368264
v 2.188712 3.829850 4.301995
v 2.161002 3.857949 4.284705
v 2.165972 3.922219 4.318215
v 1.777097 3.342406 4.303235
v 1.785867 3.301337 4.322445
v 1.843606 3.335736 4.296715
v 1.866876 3.321357 4.311395
v 1.781197 3.388746 4.304585
v 2.052413 3.581163 4.297065
v 1.762157 3.550434 4.374384
v 2.057853 3.906869 4.339625
v 2.120453 3.934169 4.336585
v 1.730768 3.325917 4.354465
v 1.880036 3.317207 4.342695
v 1.719908 3.397296 4.368354
v 1.713798 3.462165 4.393854
v 1.992734 3.503544 4.374684
v 2.126473 3.688152 4.324645
v 2.182512 3.781741 4.330514
v 2.234181 3.865680 4.354324
v 2.211842 3.894119 4.334845
v 1.972775 3.859490 4.385454
v 1.780507 3.245238 4.358974
v 1.735748 3.260517 4.377104
v 1.819687 3.288217 4.332614
v 1.889646 3.322136 4.384224
v 1.868386 3.749101 4.403874
v 2.262341 3.922569 4.390594
v 2.093733 3.951648 4.385054
v 2.163672 3.977078 4.408394
v 2.235011 3.952078 4.395264
v 1.749837 3.217858 4.395954
v 1.776177 3.205268 4.405724
v 1.821056 3.256457 4.372264
v 1.841796 3.253487 4.452963
v 1.928025 3.398426 4.395874
v 2.071853 3.617993 4.363764
v 1.825886 3.677952 4.384614
v 2.141602 3.721101 4.394254
v 2.227991 3.830500 4.403364
v 2.287750 3.955478 4.446414
v 2.237171 3.996568 4.466823
v 1.711748 3.211248 4.439414
v 1.674968 3.267957 4.452434
v 1.677278 3.348506 4.423843
v 2.041964 3.595723 4.436883
v 2.273181 3.896599 4.434233
v 2.010974 3.914099 4.437073
v 1.744658 3.188148 4.445193
v 1.765347 3.183148 4.446533
v 1.786367 3.201188 4.452603
v 1.888086 3.340686 4.509512
v 1.676118 3.408566 4.428733
v 1.952665 3.460985 4.468893
v 1.679228 3.480005 4.458693
v 1.758777 3.620433 4.443303
v 2.197272 3.794281 4.464153
v 2.309140 3.945179 4.502132
v 2.087393 3.966288 4.457503
v 1.717748 3.176498 4.505192
v 2.248571 3.848070 4.512463
v 1.905085 3.830150 4.470453
v 2.282951 3.983118 4.491202
v 1.685268 3.204468 4.518312
v 1.649719 3.365896 4.485253
v 2.114693 3.699002 4.489003
v 2.312040 3.971068 4.528062
v 2.128942 3.997208 4.527982
v 2.209252 4.011268 4.535322
v 2.272201 4.008897 4.572172
v 1.757317 3.179188 4.489573
v 1.793107 3.200028 4.554292
v 1.650789 3.239538 4.531732
v 1.640419 3.289017 4.523802
v 1.673978 3.535514 4.535522
v 1.724288 3.628623 4.536702
v 1.806197 3.720631 4.497192
v 2.177802 3.773021 4.530852
v 1.945075 3.886339 4.523342
v 2.303200 3.908119 4.538772
v 2.031774 3.946098 4.541862
v 1.924085 3.426175 4.564611
v 1.640549 3.430975 4.551142
v 2.013784 3.564973 4.538082
v 1.705608 3.185808 4.583732
v 1.634679 3.268437 4.573942
v 1.763967 3.693052 4.569932
v 1.850776 3.790080 4.562752
v 2.336130 3.966818 4.610841
v 1.748108 3.184188 4.570792
v 1.661949 3.236118 4.598131
v 1.842706 3.266117 4.595212
v 1.632749 3.334446 4.568031
v 2.095953 3.675442 4.557192
v 2.158162 3.726701 4.625481
v 2.273921 3.843960 4.650250
v 2.129033 3.990628 4.649951
v 2.312780 3.988168 4.604301
v 1.907595 3.397886 4.661271
v 1.957575 3.485564 4.621071
v 2.041054 3.589363 4.636240
v 1.644859 3.469695 4.613521
v 1.713188 3.602323 4.619581
v 1.939095 3.874029 4.609901
v 2.324260 3.926439 4.629231
v 2.196182 4.012807 4.618391
v 2.249261 4.016458 4.636151
v 1.779847 3.199838 4.625581
v 1.811937 3.235058 4.639101
v 1.631709 3.379956 4.609411
v 1.790437 3.716951 4.616381
v 1.851856 3.779371 4.640171
v 2.031934 3.939868 4.633261
v 1.744228 3.207888 4.645411
v 1.640479 3.313257 4.629321
v 2.343760 3.951708 4.697590
v 2.294700 4.000638 4.695800
v 1.699388 3.235288 4.658650
v 1.670048 3.282657 4.668900
v 1.647779 3.412375 4.660830
v 2.001394 3.906459 4.682010
v 2.084523 3.952458 4.700000
v 1.853926 3.322457 4.704970
v 1.984254 3.509384 4.687290
v 1.673708 3.505104 4.663200
v 1.716138 3.575393 4.689960
v 2.067034 3.604983 4.734910
v 1.796817 3.690422 4.684320
v 1.927245 3.819590 4.711230
v 2.316890 3.893229 4.745029
v 2.328800 3.972578 4.697660
v 1.748348 3.257328 4.708540
v 1.789827 3.248587 4.676160
v 1.672488 3.371326 4.705860
v 1.700058 3.497484 4.713900
v 2.200182 3.744951 4.728559
v 2.226351 4.002857 4.697430
v 1.711968 3.312717 4.721870
v 1.976645 3.501214 4.734479
v 2.266801 3.817240 4.746309
v 2.081383 3.919569 4.756629
v 2.171192 3.973778 4.739330
v 1.802547 3.314477 4.741149
v 1.924285 3.452665 4.764179
v 1.776267 3.619613 4.736149
v 1.855586 3.715791 4.744659
v 2.277021 3.827690 4.791639
v 2.025264 3.858480 4.784389
v 2.314830 3.975478 4.764039
v 1.767627 3.321116 4.751019
v 1.720108 3.398115 4.757249
v 1.720988 3.457875 4.751619
v 1.773627 3.553603 4.770469
v 1.999164 3.539604 4.772499
v 2.060204 3.610693 4.800448
v 2.136343 3.678832 4.787939
v 2.214641 3.761541 4.787929
v 1.942745 3.780111 4.780919
v 2.323360 3.945229 4.760169
v 1.816777 3.382626 4.786479
v 1.855336 3.388366 4.764929
v 1.767067 3.385246 4.773029
v 1.857686 3.673462 4.779289
v 2.281991 3.850920 4.817369
v 2.266711 3.976658 4.770629
v 1.790307 3.489394 4.790919
v 1.886016 3.642272 4.812389
v 2.103073 3.655992 4.814828
v 2.164272 3.717691 4.818599
v 2.233031 3.790271 4.812639
v 2.042744 3.842750 4.815849
v 2.303740 3.909819 4.811439
v 2.123993 3.904219 4.814898
v 2.198601 3.948938 4.795949
v 1.850446 3.483464 4.813458
v 1.900606 3.488055 4.809319
v 1.985224 3.551754 4.806099
v 1.926535 3.615503 4.831818
v 2.086113 3.650902 4.822198
v 1.979285 3.763271 4.815769
v 2.270191 3.872949 4.845428
v 2.298920 3.950809 4.797849
v 2.263671 3.951338 4.814418
v 1.946595 3.583683 4.833929
v 2.052883 3.653032 4.835878
v 2.035574 3.755331 4.842788
v 2.183912 3.769911 4.835679
v 2.105273 3.852640 4.835468
v 2.274841 3.923119 4.829958
v 2.206442 3.910519 4.833118
v 2.052084 3.708142 4.847498
v 2.149192 3.774051 4.853588
v 2.217332 3.839380 4.856068
v 2.148472 3.819330 4.848568
v 2.227271 3.870430 4.842088
vn 0.3138 -0.1712 -0.9339
vn -0.0812 -0.0944 -0.9922
vn -0.3102 0.1918 -0.9311
vn 0.0604 0.1539 -0.9862
vn 0.4352 -0.0577 -0.8985
vn 0.1337 -0.3837 -0.9137
vn -0.2919 -0.1298 -0.9476
vn 0.4273 -0.3739 -0.8232
vn -0.4828 -0.0428 -0.8747
vn -0.5018 0.1559 -0.8508
vn 0.7134 -0.4657 -0.5236
vn 0.6673 -0.3026 -0.6805
vn -0.6399 0.3116 -0.7024
vn -0.5263 0.4199 -0.7394
vn 0.6207 -0.1003 -0.7776
vn -0.2033 0.4115 -0.8885
vn 0.2878 0.2005 -0.9365
vn 0.2596 -0.5737 -0.7768
vn -0.1611 -0.3774 -0.9119
vn 0.6226 -0.5212 -0.5837
vn -0.6847 0.2072 -0.6988
vn 0.7998 -0.4443 -0.4035
vn 0.8107 -0.4053 -0.4225
vn -0.6760 0.4842 -0.5555
vn -0.5769 0.5740 -0.5811
vn -0.2444 0.6448 -0.7242
vn 0.1620 0.4212 -0.8924
vn -0.2847 -0.2995 -0.9106
vn 0.6701 -0.6104 -0.4225
vn 0.8307 -0.5442 -0.1172
vn -0.7357 0.4177 -0.5332
vn 0.7528 -0.1292 -0.6454
vn 0.4954 0.2315 -0.8373
vn 0.2444 0.6507 -0.7190
vn -0.5341 -0.2006 -0.8213
vn -0.2849 -0.4891 -0.8244
vn -0.0031 -0.5618 -0.8273
vn 0.3809 -0.7130 -0.5887
vn -0.6450 0.0477 -0.7627
vn 0.8346 -0.5430 -0.0923
vn -0.7570 0.3378 -0.5594
vn -0.5017 0.7245 -0.4726
vn -0.1913 0.8199 -0.5396
vn -0.7260 -0.1646 -0.6677
vn 0.7107 -0.6657 -0.2275
vn -0.7598 0.0899 -0.6439
vn -0.7762 0.2368 -0.5843
vn 0.8393 -0.5325 0.1094
vn 0.8401 -0.5386 -0.0639
vn 0.8457 -0.4743 -0.2445
vn 0.8533 -0.2343 -0.4658
vn 0.6230 0.2855 -0.7282
vn -0.6501 0.6520 -0.3901
vn -0.0407 -0.6612 -0.7491
vn -0.5999 -0.4079 -0.6883
vn 0.1538 -0.6634 -0.7323
vn 0.8464 -0.5326 0.0059
vn -0.7196 0.5689 -0.3982
vn 0.8177 0.1368 -0.5592
vn -0.3825 0.8598 -0.3383
vn -0.0669 0.9265 -0.3703
vn 0.4261 0.6947 -0.5794
vn -0.3604 -0.6900 -0.6277
vn 0.2233 -0.8399 -0.4946
vn 0.5132 -0.7520 -0.4138
vn 0.7648 -0.6419 -0.0555
vn 0.8746 -0.4764 0.0906
vn 0.8131 -0.5714 0.1110
vn -0.7367 0.5113 -0.4426
vn 0.8022 -0.5945 0.0549
vn 0.8177 -0.5654 -0.1085
vn 0.7568 0.4703 -0.4540
vn 0.2298 0.9130 -0.3372
vn -0.6449 -0.6151 -0.4537
vn -0.8386 -0.2929 -0.4593
vn -0.8547 -0.0492 -0.5168
vn 0.8172 -0.5665 0.1059
vn 0.8840 -0.3999 -0.2419
vn -0.5768 0.7791 -0.2455
vn -0.2320 -0.8978 -0.3743
vn 0.2661 -0.9367 -0.2275
vn 0.6268 -0.7679 -0.1318
vn 0.8842 -0.4618 0.0700
vn -0.8625 0.1273 -0.4898
vn 0.8610 -0.4994 0.0960
vn -0.8744 0.2896 -0.3893
vn -0.7933 0.4750 -0.3809
vn 0.7548 -0.6558 0.0133
vn 0.9557 -0.0992 -0.2772
vn -0.4153 0.8904 -0.1864
vn -0.3191 -0.9400 -0.1204
vn 0.7532 -0.6482 -0.1118
vn -0.7092 0.6582 -0.2528
vn 0.5284 0.7872 -0.3180
vn -0.7325 -0.6631 -0.1539
vn -0.9478 0.0313 -0.3172
vn 0.7818 -0.6225 0.0358
vn 0.8118 0.5196 -0.2665
vn -0.3084 0.9475 -0.0843
vn -0.0342 0.9910 -0.1296
vn 0.3304 0.9367 -0.1157
vn 0.2423 -0.9697 -0.0303
vn 0.6102 -0.7905 0.0532
vn -0.8565 -0.4880 -0.1678
vn -0.9572 -0.1285 -0.2593
vn -0.9011 0.4001 -0.1669
vn -0.8366 0.5220 -0.1664
vn -0.7601 0.5961 -0.2588
vn 0.7371 -0.6716 -0.0757
vn -0.6495 0.7554 -0.0869
vn 0.8554 -0.4931 -0.1586
vn -0.5225 0.8523 -0.0230
vn 0.8738 -0.4833 0.0536
vn -0.9732 0.1653 -0.1600
vn 0.8194 -0.5730 0.0154
vn -0.4236 -0.8729 0.2423
vn -0.9610 -0.2699 0.0600
vn -0.7978 0.6025 -0.0222
vn -0.7363 0.6763 -0.0216
vn 0.9523 0.2748 -0.1325
vn 0.1248 -0.9787 0.1631
vn -0.7743 -0.5767 0.2605
vn 0.8303 -0.5473 0.1051
vn -0.9980 -0.0091 -0.0627
vn 0.7719 -0.6296 -0.0880
vn 0.7236 -0.6704 -0.1645
vn 0.7838 -0.6080 -0.1265
vn -0.3678 0.9133 0.1752
vn 0.6260 0.7745 -0.0910
vn 0.8480 -0.5251 0.0721
vn 0.8250 -0.5633 -0.0463
vn 0.7746 -0.6238 -0.1045
vn -0.9498 0.2906 0.1158
vn -0.8518 0.5003 0.1551
vn -0.6495 0.7456 0.1488
vn 0.9124 -0.3915 -0.1195
vn -0.1726 0.9824 0.0707
vn 0.0564 0.9966 0.0598
vn 0.3718 -0.8549 0.3617
vn 0.6783 -0.6655 0.3116
vn -0.9936 0.0427 0.1046
vn -0.7669 0.6131 0.1895
vn -0.7091 0.6630 0.2400
vn -0.5318 0.8333 0.1510
vn -0.0239 -0.8592 0.5112
vn -0.9318 -0.1730 0.3192
vn 0.9959 0.0186 0.0890
vn 0.3358 0.9301 0.1491
vn -0.5080 -0.6446 0.5713
vn -0.7466 -0.3803 0.5458
vn -0.9112 0.1090 0.3973
vn -0.5797 0.7477 0.3237
vn -0.4553 0.8258 0.3328
vn 0.6805 -0.5972 0.4246
vn 0.7953 -0.6034 -0.0586
vn -0.8760 0.3386 0.3436
vn -0.7989 0.4466 0.4029
vn 0.7382 -0.6743 0.0195
vn -0.7341 0.5736 0.3634
vn -0.6412 0.6506 0.4069
vn 0.9124 -0.3983 0.0941
vn 0.7881 0.6053 0.1122
vn -0.0728 -0.6649 0.7434
vn 0.3910 -0.7041 0.5928
vn -0.7913 -0.0623 0.6083
vn -0.7806 0.2519 0.5721
vn 0.7292 -0.6806 -0.0705
vn -0.1104 0.9556 0.2731
vn -0.5047 -0.3734 0.7784
vn 0.7561 -0.6384 0.1442
vn 0.7795 -0.6244 -0.0507
vn -0.4694 0.7458 0.4727
vn -0.2902 0.8625 0.4147
vn 0.3415 -0.6152 0.7106
vn 0.6551 -0.6047 0.4528
vn -0.6935 0.4371 0.5727
vn -0.6593 0.5412 0.5219
vn 0.7886 -0.5910 0.1695
vn -0.5458 0.6487 0.5304
vn 0.5963 0.6910 0.4085
vn -0.1573 -0.4598 0.8740
vn -0.5458 -0.1005 0.8319
vn -0.6687 0.1351 0.7311
vn -0.6046 0.2695 0.7496
vn 0.6872 -0.6555 0.3133
vn 0.6199 -0.6931 0.3679
vn 0.6993 -0.6977 0.1556
vn 0.7220 -0.6789 0.1336
vn -0.5855 0.5202 0.6218
vn 0.9164 0.1678 0.3633
vn 0.1111 -0.4297 0.8961
vn 0.4944 -0.5514 0.6720
vn -0.3273 -0.2197 0.9190
vn -0.5768 0.4076 0.7080
vn 0.7562 -0.4300 0.4932
vn 0.0167 0.8879 0.4598
vn -0.4209 0.0545 0.9055
vn -0.4353 0.2371 0.8685
vn 0.5924 -0.6596 0.4626
vn 0.6197 -0.5982 0.5080
vn 0.6545 -0.5856 0.4783
vn -0.4555 0.4799 0.7498
vn 0.8279 0.0148 0.5606
vn -0.3571 0.6276 0.6918
vn -0.2518 0.7748 0.5799
vn -0.1473 -0.1465 0.9782
vn 0.3248 -0.4454 0.8343
vn 0.4963 -0.5844 0.6420
vn -0.2452 0.0544 0.9680
vn 0.4415 -0.5279 0.7255
vn -0.4432 0.3465 0.8267
vn 0.4293 -0.0538 0.9016
vn 0.5355 0.5339 0.6544
vn 0.0421 0.7048 0.7081
vn 0.0296 -0.1824 0.9828
vn 0.2615 -0.3587 0.8961
vn -0.2501 0.1825 0.9509
vn 0.4390 -0.4298 0.7890
vn -0.2598 0.3255 0.9092
vn 0.2655 0.3539 0.8968
vn -0.1250 0.4243 0.8969
vn -0.0465 -0.0385 0.9982
vn 0.1172 -0.1734 0.9779
vn 0.0967 0.0148 0.9952
vn -0.1191 0.1804 0.9764
vn -0.0464 0.2914 0.9555
usemtl mtl1.1062
s 1
f 1//1 2//2 3//3
f 3//3 4//4 1//1
f 4//4 5//5 1//1
f 6//6 7//7 2//2
f 8//8 6//6 2//2
f 9//9 10//10 7//7
f 2//2 7//7 10//10
f 11//11 8//8 1//1
f 8//8 2//2 1//1
f 11//11 1//1 12//12
f 10//10 3//3 2//2
f 3//3 10//10 13//13
f 13//13 14//14 3//3
f 12//12 1//1 5//5
f 15//15 12//12 5//5
f 4//4 3//3 16//16
f 16//16 3//3 14//14
f 17//17 5//5 4//4
f 17//17 4//4 16//16
f 18//18 19//19 6//6
f 19//19 9//9 7//7
f 6//6 19//19 7//7
f 6//6 20//20 18//18
f 6//6 8//8 20//20
f 8//8 11//11 20//20
f 21//21 10//10 9//9
f 10//10 21//21 13//13
f 22//22 11//11 12//12
f 12//12 23//23 22//22
f 14//14 13//13 24//24
f 15//15 23//23 12//12
f 14//14 24//24 25//25
f 5//5 17//17 15//15
f 16//16 14//14 25//25
f 16//16 25//25 26//26
f 17//17 16//16 27//27
f 27//27 16//16 26//26
f 19//19 28//28 9//9
f 29//29 18//18 20//20
f 30//30 20//20 11//11
f 13//13 31//31 24//24
f 15//15 32//32 23//23
f 15//15 17//17 33//33
f 27//27 33//33 17//17
f 27//27 26//26 34//34
f 35//35 28//28 36//36
f 37//37 36//36 28//28
f 37//37 28//28 19//19
f 18//18 37//37 19//19
f 38//38 37//37 18//18
f 18//18 29//29 38//38
f 28//28 35//35 39//39
f 28//28 39//39 9//9
f 20//20 30//30 29//29
f 21//21 9//9 39//39
f 40//40 30//30 11//11
f 40//40 11//11 22//22
f 13//13 21//21 41//41
f 31//31 13//13 41//41
f 22//22 23//23 40//40
f 15//15 33//33 32//32
f 26//26 25//25 42//42
f 26//26 42//42 43//43
f 26//26 43//43 34//34
f 27//27 34//34 33//33
f 35//35 36//36 44//44
f 35//35 44//44 39//39
f 29//29 45//45 38//38
f 44//44 46//46 39//39
f 29//29 30//30 45//45
f 39//39 46//46 21//21
f 21//21 46//46 47//47
f 40//40 48//48 30//30
f 47//47 41//41 21//21
f 23//23 49//49 40//40
f 50//50 23//23 32//32
f 51//51 50//50 32//32
f 32//32 33//33 52//52
f 52//52 51//51 32//32
f 42//42 25//25 53//53
f 33//33 34//34 52//52
f 54//54 55//55 36//36
f 56//56 54//54 36//36
f 37//37 56//56 36//36
f 37//37 38//38 56//56
f 36//36 55//55 44//44
f 57//57 45//45 30//30
f 49//49 23//23 50//50
f 25//25 24//24 58//58
f 59//59 51//51 52//52
f 43//43 42//42 60//60
f 43//43 60//60 61//61
f 34//34 43//43 61//61
f 34//34 61//61 62//62
f 52//52 34//34 62//62
f 63//63 54//54 64//64
f 54//54 56//56 65//65
f 54//54 63//63 55//55
f 38//38 65//65 56//56
f 65//65 38//38 45//45
f 66//66 65//65 45//45
f 67//67 30//30 48//48
f 68//68 48//48 40//40
f 68//68 40//40 49//49
f 31//31 69//69 24//24
f 69//69 58//58 24//24
f 50//50 70//70 49//49
f 70//70 50//50 71//71
f 51//51 71//71 50//50
f 58//58 53//53 25//25
f 52//52 62//62 59//59
f 72//72 59//59 62//62
f 62//62 61//61 73//73
f 54//54 65//65 64//64
f 63//63 74//74 55//55
f 75//75 55//55 74//74
f 44//44 55//55 75//75
f 76//76 44//44 75//75
f 45//45 57//57 66//66
f 46//46 44//44 76//76
f 57//57 30//30 67//67
f 77//77 48//48 68//68
f 68//68 49//49 70//70
f 71//71 51//51 78//78
f 78//78 51//51 59//59
f 42//42 53//53 79//79
f 63//63 80//80 74//74
f 80//80 64//64 81//81
f 81//81 64//64 82//82
f 64//64 80//80 63//63
f 64//64 65//65 82//82
f 66//66 82//82 65//65
f 67//67 83//83 57//57
f 76//76 84//84 46//46
f 46//46 84//84 47//47
f 85//85 67//67 48//48
f 77//77 85//85 48//48
f 41//41 47//47 86//86
f 87//87 31//31 41//41
f 31//31 87//87 69//69
f 58//58 69//69 87//87
f 71//71 88//88 70//70
f 78//78 59//59 89//89
f 60//60 42//42 79//79
f 59//59 72//72 89//89
f 60//60 90//90 61//61
f 80//80 91//91 74//74
f 47//47 84//84 86//86
f 41//41 86//86 87//87
f 68//68 70//70 77//77
f 71//71 92//92 88//88
f 92//92 71//71 78//78
f 93//93 53//53 58//58
f 79//79 53//53 93//93
f 60//60 79//79 90//90
f 62//62 73//73 94//94
f 62//62 94//94 72//72
f 74//74 91//91 95//95
f 75//75 74//74 95//95
f 96//96 76//76 75//75
f 84//84 76//76 96//96
f 70//70 97//97 77//77
f 70//70 88//88 97//97
f 89//89 72//72 98//98
f 61//61 90//90 99//99
f 73//73 61//61 100//100
f 73//73 100//100 101//101
f 102//102 81//81 82//82
f 103//103 82//82 66//66
f 75//75 95//95 104//104
f 105//105 96//96 75//75
f 67//67 85//85 83//83
f 106//106 87//87 86//86
f 107//107 87//87 106//106
f 58//58 87//87 108//108
f 108//108 93//93 58//58
f 88//88 92//92 109//109
f 93//93 110//110 79//79
f 78//78 111//111 92//92
f 78//78 89//89 111//111
f 90//90 79//79 112//112
f 72//72 94//94 98//98
f 61//61 99//99 100//100
f 94//94 73//73 101//101
f 102//102 91//91 80//80
f 80//80 81//81 102//102
f 103//103 102//102 82//82
f 104//104 105//105 75//75
f 83//83 66//66 57//57
f 113//113 83//83 85//85
f 84//84 96//96 86//86
f 114//114 86//86 96//96
f 85//85 115//115 113//113
f 77//77 115//115 85//85
f 87//87 107//107 108//108
f 109//109 97//97 88//88
f 79//79 110//110 112//112
f 90//90 112//112 99//99
f 91//91 116//116 95//95
f 105//105 104//104 117//117
f 86//86 114//114 106//106
f 77//77 97//97 115//115
f 108//108 107//107 118//118
f 93//93 108//108 119//119
f 119//119 110//110 93//93
f 89//89 98//98 120//120
f 91//91 121//121 116//116
f 121//121 91//91 102//102
f 102//102 103//103 121//121
f 95//95 122//122 104//104
f 122//122 95//95 116//116
f 83//83 123//123 66//66
f 105//105 124//124 96//96
f 96//96 124//124 114//114
f 97//97 125//125 115//115
f 119//119 108//108 118//118
f 125//125 97//97 109//109
f 126//126 125//125 109//109
f 109//109 92//92 126//126
f 111//111 127//127 92//92
f 112//112 128//128 99//99
f 98//98 94//94 129//129
f 104//104 122//122 117//117
f 105//105 117//117 124//124
f 130//130 83//83 113//113
f 115//115 131//131 113//113
f 115//115 132//132 131//131
f 114//114 133//133 106//106
f 106//106 134//134 107//107
f 115//115 125//125 132//132
f 107//107 134//134 118//118
f 92//92 127//127 126//126
f 135//135 110//110 119//119
f 110//110 135//135 112//112
f 111//111 89//89 136//136
f 89//89 120//120 136//136
f 120//120 98//98 129//129
f 129//129 94//94 101//101
f 99//99 128//128 137//137
f 100//100 99//99 137//137
f 100//100 137//137 138//138
f 100//100 138//138 101//101
f 103//103 139//139 121//121
f 103//103 140//140 139//139
f 103//103 123//123 140//140
f 66//66 123//123 103//103
f 130//130 123//123 83//83
f 124//124 141//141 114//114
f 141//141 133//133 114//114
f 133//133 134//134 106//106
f 134//134 142//142 118//118
f 142//142 119//119 118//118
f 143//143 119//119 142//142
f 135//135 119//119 143//143
f 144//144 112//112 135//135
f 112//112 144//144 128//128
f 121//121 145//145 116//116
f 121//121 139//139 145//145
f 122//122 146//146 117//117
f 117//117 146//146 124//124
f 146//146 141//141 124//124
f 125//125 126//126 132//132
f 136//136 120//120 147//147
f 101//101 148//148 129//129
f 138//138 148//148 101//101
f 122//122 116//116 149//149
f 145//145 149//149 116//116
f 146//146 122//122 150//150
f 150//150 122//122 149//149
f 141//141 151//151 133//133
f 111//111 136//136 127//127
f 152//152 144//144 135//135
f 144//144 153//153 128//128
f 154//154 140//140 123//123
f 146//146 151//151 141//141
f 130//130 113//113 131//131
f 130//130 131//131 155//155
f 151//151 156//156 133//133
f 131//131 132//132 155//155
f 156//156 134//134 133//133
f 156//156 157//157 134//134
f 158//158 132//132 126//126
f 134//134 159//159 142//142
f 142//142 159//159 143//143
f 160//160 135//135 143//143
f 152//152 135//135 160//160
f 161//161 136//136 147//147
f 147//147 120//120 162//162
f 129//129 162//162 120//120
f 129//129 148//148 162//162
f 145//145 163//163 149//149
f 139//139 164//164 145//145
f 140//140 164//164 139//139
f 140//140 154//154 164//164
f 154//154 123//123 130//130
f 151//151 146//146 165//165
f 151//151 166//166 156//156
f 158//158 155//155 132//132
f 159//159 134//134 157//157
f 158//158 126//126 167//167
f 126//126 127//127 167//167
f 127//127 136//136 161//161
f 152//152 153//153 144//144
f 138//138 137//137 168//168
f 138//138 168//168 148//148
f 149//149 169//169 150//150
f 150//150 165//165 146//146
f 165//165 166//166 151//151
f 130//130 155//155 170//170
f 166//166 157//157 156//156
f 143//143 159//159 160//160
f 127//127 171//171 167//167
f 161//161 171//171 127//127
f 160//160 172//172 152//152
f 152//152 172//172 153//153
f 128//128 153//153 173//173
f 137//137 128//128 168//168
f 128//128 173//173 168//168
f 145//145 164//164 163//163
f 164//164 174//174 163//163
f 149//149 163//163 169//169
f 169//169 165//165 150//150
f 175//175 154//154 130//130
f 158//158 170//170 155//155
f 166//166 176//176 157//157
f 176//176 159//159 157//157
f 176//176 177//177 159//159
f 177//177 160//160 159//159
f 171//171 161//161 178//178
f 179//179 172//172 160//160
f 180//180 162//162 148//148
f 169//169 163//163 181//181
f 174//174 181//181 163//163
f 164//164 154//154 174//174
f 182//182 165//165 169//169
f 182//182 183//183 165//165
f 175//175 130//130 170//170
f 165//165 183//183 166//166
f 166//166 183//183 184//184
f 158//158 185//185 170//170
f 166//166 184//184 176//176
f 185//185 158//158 186//186
f 158//158 167//167 187//187
f 188//188 167//167 171//171
f 177//177 189//189 160//160
f 160//160 189//189 179//179
f 147//147 162//162 190//190
f 153//153 172//172 173//173
f 180//180 190//190 162//162
f 181//181 174//174 191//191
f 174//174 154//154 192//192
f 182//182 169//169 193//193
f 193//193 169//169 181//181
f 192//192 154//154 175//175
f 175//175 170//170 185//185
f 187//187 186//186 158//158
f 176//176 184//184 194//194
f 176//176 194//194 177//177
f 171//171 178//178 188//188
f 178//178 161//161 195//195
f 190//190 161//161 147//147
f 168//168 173//173 196//196
f 148//148 168//168 196//196
f 196//196 180//180 148//148
f 191//191 193//193 181//181
f 174//174 192//192 191//191
f 193//193 197//197 182//182
f 182//182 197//197 183//183
f 197//197 184//184 183//183
f 198//198 184//184 197//197
f 184//184 198//198 194//194
f 186//186 187//187 199//199
f 187//187 200//200 199//199
f 189//189 177//177 194//194
f 187//187 167//167 188//188
f 201//201 188//188 178//178
f 189//189 202//202 179//179
f 203//203 195//195 161//161
f 202//202 204//204 179//179
f 172//172 179//179 204//204
f 190//190 203//203 161//161
f 204//204 205//205 172//172
f 173//173 172//172 205//205
f 193//193 191//191 206//206
f 207//207 206//206 191//191
f 206//206 197//197 193//193
f 191//191 192//192 207//207
f 192//192 175//175 207//207
f 208//208 207//207 175//175
f 175//175 185//185 208//208
f 209//209 198//198 197//197
f 185//185 186//186 208//208
f 186//186 210//210 208//208
f 186//186 199//199 210//210
f 199//199 200//200 210//210
f 194//194 198//198 211//211
f 187//187 188//188 200//200
f 211//211 189//189 194//194
f 188//188 201//201 200//200
f 202//202 189//189 211//211
f 201//201 178//178 195//195
f 203//203 212//212 195//195
f 213//213 203//203 190//190
f 190//190 180//180 213//213
f 173//173 205//205 196//196
f 214//214 213//213 196//196
f 180//180 196//196 213//213
f 207//207 215//215 206//206
f 206//206 209//209 197//197
f 215//215 209//209 206//206
f 216//216 215//215 207//207
f 207//207 208//208 216//216
f 216//216 208//208 210//210
f 217//217 198//198 209//209
f 217//217 211//211 198//198
f 210//210 200//200 218//218
f 200//200 201//201 218//218
f 219//219 211//211 217//217
f 195//195 212//212 218//218
f 201//201 195//195 218//218
f 202//202 211//211 219//219
f 204//204 202//202 219//219
f 220//220 212//212 203//203
f 213//213 220//220 203//203
f 221//221 220//220 214//214
f 220//220 213//213 214//214
f 204//204 221//221 205//205
f 214//214 205//205 221//221
f 214//214 196//196 205//205
f 216//216 222//222 215//215
f 223//223 222//222 216//216
f 210//210 218//218 216//216
f 222//222 209//209 215//215
f 218//218 223//223 216//216
f 222//222 217//217 209//209
f 218//218 224//224 223//223
f 223//223 225//225 222//222
f 225//225 217//217 222//222
f 218//218 212//212 224//224
f 225//225 219//219 217//217
f 212//212 226//226 224//224
f 221//221 219//219 225//225
f 212//212 220//220 226//226
f 204//204 219//219 221//221
f 226//226 221//221 225//225
f 220//220 221//221 226//226
f 224//224 225//225 223//223
f 224//224 226//226 225//225
