# Blender v2.92.0 OBJ File: 'convert_to_one_sided.blend'
# www.blender.org
mtllib 210L.mtl
o Cube
v 0.001000 0.001000 -0.001000
v 0.001000 -0.001000 -0.001000
v 0.001000 0.001000 0.001000
v 0.001000 -0.001000 0.001000
v -0.001000 0.001000 -0.001000
v -0.001000 -0.001000 -0.001000
v -0.001000 0.001000 0.001000
v -0.001000 -0.001000 0.001000
vt 0.625000 0.500000
vt 0.875000 0.500000
vt 0.875000 0.750000
vt 0.625000 0.750000
vt 0.375000 0.750000
vt 0.625000 1.000000
vt 0.375000 1.000000
vt 0.375000 0.000000
vt 0.625000 0.000000
vt 0.625000 0.250000
vt 0.375000 0.250000
vt 0.125000 0.500000
vt 0.375000 0.500000
vt 0.125000 0.750000
vn 0.0000 1.0000 0.0000
vn 0.0000 0.0000 1.0000
vn -1.0000 0.0000 0.0000
vn 0.0000 -1.0000 0.0000
vn 1.0000 0.0000 0.0000
vn 0.0000 0.0000 -1.0000
usemtl Material
s off
f 1/1/1 5/2/1 7/3/1 3/4/1
f 4/5/2 3/4/2 7/6/2 8/7/2
f 8/8/3 7/9/3 5/10/3 6/11/3
f 6/12/4 2/13/4 4/5/4 8/14/4
f 2/13/5 1/1/5 3/4/5 4/5/5
f 6/11/6 5/10/6 1/1/6 2/13/6
o 210
v 7.890218 6.192799 4.556732
v 7.885549 6.151190 4.569002
v 7.822390 6.218359 4.556202
v 7.822399 6.259378 4.550842
v 7.765020 6.247458 4.578472
v 7.773200 6.271668 4.566022
v 7.897248 6.251648 4.580642
v 7.769570 6.303478 4.566322
v 7.810219 6.312218 4.573392
v 7.929828 6.135860 4.589592
v 7.809839 6.177140 4.617881
v 7.970207 6.164620 4.620582
v 7.727651 6.308498 4.620011
v 7.893678 6.308527 4.618932
v 7.766330 6.335967 4.591622
v 7.796350 6.355288 4.611562
v 7.912758 6.103510 4.623332
v 7.968547 6.105610 4.638182
v 7.832539 6.108810 4.692541
v 8.013447 6.231309 4.691161
v 7.746260 6.351788 4.622062
v 7.735960 6.245698 4.655781
v 7.978187 6.301638 4.709200
v 7.719251 6.348447 4.655181
v 7.766880 6.376377 4.669731
v 7.876859 6.353857 4.683630
v 8.047807 6.106061 4.716810
v 8.005426 6.062151 4.727750
v 7.917648 6.059531 4.722350
v 8.068006 6.161730 4.738810
v 7.709491 6.257829 4.722641
v 7.711531 6.312398 4.711530
v 7.725730 6.347228 4.704170
v 7.870619 6.377557 4.752670
v 7.864999 6.066871 4.756750
v 7.760730 6.177949 4.723050
v 7.990537 6.321427 4.768850
v 7.756740 6.362757 4.748970
v 7.935588 6.348567 4.762930
v 8.004207 6.039392 4.793529
v 8.121205 6.121420 4.815089
v 7.805159 6.379627 4.751360
v 7.940148 6.049871 4.799389
v 7.807870 6.113141 4.773860
v 8.108126 6.186890 4.807669
v 8.076816 6.048721 4.842049
v 7.759200 6.159160 4.782100
v 8.056736 6.257128 4.786719
v 7.735141 6.326838 4.762480
v 7.806239 6.368497 4.795419
v 7.874679 6.073941 4.802719
v 8.090896 6.079661 4.817349
v 7.780170 6.335638 4.806139
v 7.782160 6.156480 4.819669
v 7.743920 6.203209 4.784049
v 7.747350 6.278248 4.784609
v 8.054186 6.285008 4.831689
v 7.978737 6.329518 4.806019
v 7.855649 6.370397 4.797080
v 7.919398 6.345957 4.825189
v 7.942878 6.074981 4.852738
v 7.852159 6.106980 4.820539
v 7.845909 6.344917 4.827639
v 8.030557 6.056191 4.851018
v 8.134255 6.103930 4.869429
v 7.777170 6.226329 4.826359
v 8.134815 6.153230 4.868578
v 8.093996 6.228309 4.847079
v 8.109165 6.082921 4.883808
v 7.875508 6.149460 4.854948
v 7.848279 6.282908 4.846119
v 8.025017 6.281058 4.857958
v 8.079046 6.065091 4.871978
v 7.992867 6.153220 4.892268
v 8.129886 6.137930 4.891568
v 7.842799 6.214289 4.846008
v 8.099826 6.204889 4.879758
v 7.929148 6.305538 4.848738
v 8.045716 6.088141 4.878318
v 7.913278 6.211979 4.867478
v 8.006027 6.223649 4.883348
v 8.068576 6.224989 4.884168
v 8.072766 6.142920 4.890018
v 8.078886 6.188769 4.883458
vn 0.3094 -0.0591 -0.9491
vn -0.1740 -0.5976 -0.7827
vn -0.3525 -0.3677 -0.8606
vn 0.0207 0.1503 -0.9884
vn -0.7211 -0.4057 -0.5617
vn -0.5452 -0.1014 -0.8321
vn 0.5312 0.3632 -0.7654
vn -0.3885 0.3018 -0.8706
vn 0.2023 0.5619 -0.8021
vn 0.3899 -0.4576 -0.7991
vn -0.6106 -0.6589 -0.4394
vn 0.7025 0.0037 -0.7116
vn -0.8771 0.0562 -0.4770
vn 0.5131 0.6303 -0.5826
vn -0.3394 0.6091 -0.7169
vn 0.1188 0.8433 -0.5241
vn -0.1228 -0.8373 -0.5328
vn 0.4855 -0.5828 -0.6516
vn -0.5628 -0.7609 -0.3230
vn 0.7322 0.3658 -0.5745
vn -0.4810 0.7077 -0.5174
vn -0.8315 -0.4659 -0.3026
vn 0.6282 0.6410 -0.4410
vn -0.8124 0.5550 -0.1788
vn -0.2111 0.9688 -0.1303
vn 0.3888 0.8609 -0.3281
vn 0.7154 -0.3851 -0.5831
vn 0.3412 -0.8356 -0.4305
vn -0.1688 -0.9475 -0.2717
vn 0.8020 0.0810 -0.5918
vn -0.9749 -0.2163 0.0535
vn -0.9727 0.1603 0.1676
vn -0.7462 0.6415 0.1780
vn 0.2441 0.9697 0.0060
vn -0.4389 -0.8981 -0.0282
vn -0.7991 -0.5683 -0.1962
vn 0.5642 0.7920 -0.2331
vn -0.5459 0.7753 0.3176
vn 0.4342 0.8892 -0.1438
vn 0.0041 -0.9999 -0.0143
vn 0.8903 -0.1602 -0.4263
vn -0.1402 0.9779 0.1551
vn -0.2207 -0.9506 0.2183
vn -0.6534 -0.7442 0.1385
vn 0.8668 0.3228 -0.3801
vn 0.3717 -0.9254 0.0745
vn -0.8284 -0.5436 0.1352
vn 0.7645 0.5445 -0.3449
vn -0.8050 0.3582 0.4730
vn -0.2859 0.8044 0.5207
vn -0.4562 -0.7951 0.3996
vn 0.6935 -0.6549 -0.3001
vn -0.5396 0.3802 0.7512
vn -0.5849 -0.3959 0.7079
vn -0.8988 -0.2215 0.3783
vn -0.7649 0.0923 0.6374
vn 0.6502 0.7518 0.1097
vn 0.4101 0.8946 0.1775
vn 0.0368 0.9130 0.4063
vn 0.1844 0.8008 0.5698
vn -0.2916 -0.6106 0.7363
vn -0.4840 -0.5999 0.6370
vn -0.1353 0.5522 0.8227
vn -0.1232 -0.8432 0.5233
vn 0.9105 -0.4042 0.0878
vn -0.5598 0.0305 0.8281
vn 0.9621 0.2590 0.0851
vn 0.8029 0.5830 0.1247
vn 0.4191 -0.5977 0.6835
vn -0.3444 -0.2187 0.9130
vn -0.3007 0.1768 0.9372
vn 0.3151 0.6480 0.6934
vn 0.0031 -0.7304 0.6830
vn -0.1592 -0.1049 0.9817
vn 0.5121 0.0473 0.8576
vn -0.3159 -0.0338 0.9482
vn 0.5511 0.4618 0.6949
vn -0.0164 0.4205 0.9072
vn -0.1070 -0.4044 0.9083
vn -0.2512 0.0535 0.9664
vn -0.0471 0.2121 0.9761
vn 0.1768 0.2952 0.9390
vn 0.0195 -0.0374 0.9991
vn 0.1008 0.1183 0.9878
usemtl mtl1.216
s 1
f 9//7 10//8 11//9
f 9//7 11//9 12//10
f 13//11 14//12 11//9
f 12//10 11//9 14//12
f 9//7 12//10 15//13
f 12//10 14//12 16//14
f 15//13 12//10 17//15
f 17//15 12//10 16//14
f 18//16 10//8 9//7
f 10//8 19//17 11//9
f 20//18 18//16 9//7
f 19//17 13//11 11//9
f 15//13 20//18 9//7
f 13//11 21//19 14//12
f 14//12 21//19 16//14
f 17//15 22//20 15//13
f 21//19 23//21 16//14
f 24//22 22//20 17//15
f 17//15 16//14 23//21
f 24//22 17//15 23//21
f 10//8 18//16 25//23
f 25//23 18//16 26//24
f 25//23 27//25 19//17
f 25//23 19//17 10//8
f 28//26 20//18 15//13
f 28//26 15//13 22//20
f 29//27 23//21 21//19
f 29//27 24//22 23//21
f 26//24 18//16 20//18
f 19//17 30//28 13//11
f 30//28 21//19 13//11
f 28//26 22//20 31//29
f 32//30 29//27 21//19
f 33//31 24//22 29//27
f 22//20 24//22 34//32
f 26//24 35//33 36//34
f 25//23 26//24 36//34
f 25//23 37//35 27//25
f 20//18 35//33 26//24
f 28//26 38//36 20//18
f 34//32 24//22 33//31
f 25//23 36//34 37//35
f 38//36 35//33 20//18
f 30//28 39//37 21//19
f 40//38 32//30 21//19
f 31//29 22//20 34//32
f 32//30 41//39 33//31
f 29//27 32//30 33//31
f 34//32 33//31 42//40
f 37//35 43//41 27//25
f 27//25 44//42 19//17
f 19//17 44//42 30//28
f 40//38 21//19 39//37
f 31//29 34//32 45//43
f 32//30 40//38 41//39
f 46//44 33//31 41//39
f 47//45 34//32 42//40
f 36//34 48//46 37//35
f 35//33 38//36 49//47
f 45//43 34//32 47//45
f 33//31 46//44 50//48
f 33//31 50//48 42//40
f 37//35 51//49 43//41
f 37//35 48//46 51//49
f 52//50 27//25 43//41
f 44//42 27//25 52//50
f 30//28 44//42 39//37
f 38//36 28//26 53//51
f 36//34 54//52 48//46
f 44//42 52//50 55//53
f 53//51 49//47 38//36
f 28//26 31//29 56//54
f 40//38 57//55 41//39
f 57//55 46//44 41//39
f 50//48 46//44 58//56
f 51//49 59//57 43//41
f 36//34 35//33 60//58
f 56//54 53//51 28//26
f 56//54 31//29 45//43
f 46//44 57//55 61//59
f 61//59 58//56 46//44
f 36//34 60//58 54//52
f 59//57 52//50 43//41
f 49//47 60//58 35//33
f 52//50 62//60 55//53
f 44//42 55//53 63//61
f 44//42 63//61 39//37
f 63//61 64//62 39//37
f 39//37 64//62 40//38
f 40//38 64//62 57//55
f 45//43 65//63 56//54
f 66//64 65//63 45//43
f 47//45 42//40 66//64
f 66//64 45//43 47//45
f 67//65 68//66 42//40
f 50//48 58//56 67//65
f 42//40 50//48 67//65
f 51//49 69//67 59//57
f 70//68 52//50 59//57
f 62//60 52//50 70//68
f 62//60 63//61 55//53
f 64//62 61//59 57//55
f 42//40 68//66 66//64
f 67//65 58//56 71//69
f 48//46 72//70 51//49
f 54//52 72//70 48//46
f 59//57 69//67 70//68
f 49//47 73//71 60//58
f 63//61 62//60 74//72
f 75//73 49//47 53//51
f 74//72 64//62 63//61
f 53//51 56//54 76//74
f 58//56 61//59 71//69
f 71//69 68//66 67//65
f 72//70 69//67 51//49
f 77//75 54//52 60//58
f 77//75 60//58 73//71
f 70//68 78//76 62//60
f 73//71 49//47 75//73
f 75//73 53//51 76//74
f 64//62 74//72 79//77
f 76//74 56//54 65//63
f 65//63 66//64 80//78
f 54//52 81//79 72//70
f 54//52 77//75 81//79
f 69//67 78//76 70//68
f 82//80 78//76 69//67
f 73//71 75//73 83//81
f 78//76 84//82 62//60
f 62//60 84//82 74//72
f 75//73 76//74 85//83
f 84//82 79//77 74//72
f 65//63 80//78 76//74
f 64//62 79//77 61//59
f 79//77 71//69 61//59
f 71//69 79//77 86//84
f 68//66 71//69 86//84
f 80//78 68//66 86//84
f 66//64 68//66 80//78
f 72//70 87//85 69//67
f 82//80 69//67 87//85
f 77//75 73//71 83//81
f 85//83 83//81 75//73
f 82//80 88//86 78//76
f 89//87 88//86 82//80
f 88//86 84//82 78//76
f 88//86 79//77 84//82
f 80//78 90//88 85//83
f 85//83 76//74 80//78
f 89//87 79//77 88//86
f 89//87 90//88 80//78
f 89//87 86//84 79//77
f 80//78 86//84 89//87
f 87//85 72//70 81//79
f 77//75 87//85 81//79
f 87//85 91//89 82//80
f 92//90 83//81 85//83
f 91//89 89//87 82//80
f 92//90 89//87 91//89
f 92//90 90//88 89//87
f 85//83 90//88 92//90
f 87//85 77//75 91//89
f 91//89 77//75 83//81
f 83//81 92//90 91//89
