# Blender v2.92.0 OBJ File: 'convert_to_one_sided.blend'
# www.blender.org
mtllib 217L.mtl
o 217
v 11.109757 4.387543 3.763792
v 11.027457 4.384103 3.763082
v 11.019058 4.427583 3.761442
v 11.093857 4.460642 3.771622
v 11.018958 4.484272 3.769582
v 11.096657 4.334544 3.789822
v 10.983059 4.374403 3.793372
v 11.187856 4.351563 3.789172
v 10.931560 4.425152 3.800272
v 11.229655 4.379243 3.792992
v 10.966159 4.473782 3.783472
v 11.196856 4.427982 3.791722
v 10.979858 4.525082 3.790032
v 11.055657 4.527451 3.789302
v 10.952359 4.344354 3.846751
v 11.103257 4.275805 3.853961
v 11.214955 4.269025 3.845091
v 11.276654 4.352963 3.806852
v 11.240155 4.317764 3.815962
v 11.191956 4.484872 3.806062
v 10.886060 4.492902 3.828202
v 10.938458 4.567021 3.826231
v 11.007658 4.568371 3.810502
v 11.133956 4.570461 3.835331
v 11.324554 4.283794 3.848991
v 10.991958 4.276235 3.936980
v 11.328054 4.334504 3.828661
v 10.871160 4.403743 3.850241
v 11.320354 4.400713 3.826221
v 10.868959 4.444992 3.838401
v 10.864660 4.549501 3.859061
v 10.999659 4.611250 3.856621
v 11.379554 4.328644 3.849841
v 11.440753 4.378803 3.870191
v 11.423253 4.435102 3.875861
v 11.301854 4.499571 3.855751
v 11.246655 4.556510 3.861321
v 10.906260 4.597670 3.878611
v 11.095657 4.624020 3.877021
v 11.215356 4.216415 3.908270
v 11.310255 4.217615 3.912771
v 11.394653 4.276574 3.882011
v 11.445253 4.329694 3.882491
v 10.868260 4.329874 3.961830
v 10.847260 4.375733 3.903330
v 10.819660 4.450502 3.877901
v 10.815861 4.508172 3.891181
v 11.315154 4.542531 3.882301
v 10.833660 4.564981 3.909760
v 11.221556 4.587340 3.884411
v 11.129057 4.201606 3.966650
v 11.465652 4.290874 3.914560
v 11.402953 4.229385 3.934160
v 11.500552 4.355844 3.924870
v 10.800561 4.413473 3.919170
v 11.487553 4.421782 3.922840
v 11.412952 4.489552 3.911561
v 11.342554 4.545981 3.912180
v 10.944359 4.635210 3.912110
v 11.034558 4.639120 3.901580
v 11.139956 4.633660 3.930330
v 11.233655 4.154306 4.013519
v 11.505152 4.292645 3.960710
v 10.807261 4.374013 3.971770
v 10.779861 4.460572 3.947280
v 10.784161 4.516801 3.971290
v 10.859060 4.602020 3.936820
v 11.311355 4.577130 3.950460
v 11.342454 4.175995 3.982589
v 11.033957 4.211795 4.022749
v 11.455753 4.243565 3.956560
v 11.534151 4.350343 3.980040
v 11.421153 4.515551 3.951860
v 10.802261 4.563691 3.985059
v 11.020658 4.645890 3.971800
v 11.413353 4.193436 3.994519
v 11.090357 4.167166 4.053588
v 10.925059 4.242015 4.088018
v 10.774661 4.389423 4.056568
v 11.531451 4.408653 3.998009
v 11.484552 4.465802 3.974950
v 11.425853 4.525801 4.007889
v 10.831261 4.596060 3.994049
v 10.907959 4.624350 3.980469
v 11.235556 4.620240 3.982649
v 11.331554 4.578570 4.008029
v 11.120956 4.137937 4.102608
v 11.369754 4.153626 4.034328
v 11.474853 4.228105 4.031619
v 11.527351 4.297784 4.043768
v 11.544251 4.367043 4.063178
v 11.151456 4.635970 4.017369
v 11.313755 4.141437 4.046649
v 11.409452 4.163406 4.090878
v 10.764262 4.449512 4.062169
v 10.772661 4.501761 4.076388
v 10.806460 4.561681 4.051169
v 11.261155 4.604060 4.057439
v 10.970658 4.635060 4.058339
v 11.075157 4.638480 4.077979
v 11.499452 4.242795 4.089668
v 11.503352 4.465112 4.037679
v 11.384754 4.548761 4.087368
v 10.869860 4.599710 4.045639
v 11.259055 4.118266 4.106557
v 11.025058 4.156046 4.161187
v 10.831361 4.307214 4.101448
v 11.543351 4.329294 4.115118
v 11.527452 4.433192 4.083869
v 11.473152 4.491072 4.085528
v 11.338954 4.134896 4.098598
v 11.462452 4.205725 4.127858
v 10.841261 4.571481 4.096838
v 10.932559 4.593960 4.131998
v 11.177356 4.616200 4.121808
v 11.040358 4.630440 4.121578
v 11.164057 4.108357 4.159247
v 11.276555 4.114527 4.164227
v 11.498152 4.259395 4.150487
v 10.877060 4.241235 4.167317
v 11.532451 4.385363 4.147697
v 10.796460 4.325824 4.198677
v 10.772362 4.392923 4.149077
v 10.770361 4.438123 4.142707
v 10.809960 4.528621 4.124318
v 11.418853 4.513821 4.154327
v 11.286255 4.574881 4.151418
v 11.340755 4.137266 4.176016
v 11.404754 4.170236 4.180996
v 10.934759 4.183115 4.231386
v 11.508052 4.319274 4.198697
v 10.791861 4.462192 4.173887
v 11.341054 4.544961 4.178817
v 10.908659 4.548501 4.187807
v 11.035858 4.610200 4.167197
v 11.106357 4.612920 4.163977
v 11.213156 4.105447 4.186917
v 11.084558 4.101277 4.252186
v 10.870561 4.231955 4.260546
v 11.445852 4.463642 4.189657
v 11.162856 4.099337 4.251535
v 11.434153 4.206186 4.219726
v 11.484352 4.373543 4.254216
v 11.484451 4.412133 4.212907
v 10.861060 4.495922 4.209846
v 11.290055 4.550301 4.229286
v 11.011559 4.562271 4.232377
v 11.209856 4.571271 4.219947
v 11.249855 4.121196 4.244126
v 11.457952 4.262665 4.253126
v 10.836361 4.270275 4.289225
v 10.824861 4.356874 4.269296
v 10.875260 4.429573 4.273076
v 11.357453 4.518841 4.210456
v 11.104857 4.567601 4.240167
v 11.334754 4.171006 4.273736
v 11.463152 4.316694 4.279845
v 11.425253 4.428563 4.273666
v 10.959458 4.463032 4.303696
v 11.009559 4.117706 4.313165
v 11.232856 4.139206 4.322195
v 11.403653 4.227985 4.290135
v 10.846261 4.278715 4.317295
v 11.325854 4.492922 4.269396
v 11.105456 4.088427 4.337245
v 11.156556 4.109547 4.354364
v 10.954959 4.150466 4.376824
v 11.423153 4.356374 4.334135
v 11.433352 4.390953 4.303236
v 11.243755 4.181056 4.379204
v 10.866860 4.234515 4.332585
v 10.899459 4.207325 4.360584
v 10.858459 4.251225 4.332505
v 10.933760 4.341033 4.389124
v 11.378153 4.417212 4.323635
v 11.086557 4.509471 4.310535
v 11.197056 4.512412 4.298376
v 11.052058 4.090397 4.377665
v 11.320755 4.238565 4.372304
v 11.400453 4.293415 4.334355
v 10.890860 4.257685 4.389644
v 10.926760 4.275814 4.421544
v 11.080957 4.095826 4.431483
v 11.180356 4.141486 4.393884
v 10.880960 4.235005 4.358924
v 11.013658 4.373433 4.413004
v 11.285555 4.443512 4.350635
v 11.179556 4.448252 4.371514
v 11.014957 4.104156 4.403034
v 11.124857 4.123706 4.441823
v 11.375154 4.338154 4.380274
v 11.343755 4.381103 4.374294
v 11.083357 4.418862 4.386155
v 11.039858 4.098746 4.446593
v 10.928459 4.202115 4.411034
v 11.234455 4.241284 4.436793
v 11.296555 4.276744 4.418823
v 11.335154 4.305324 4.396274
v 11.262555 4.383822 4.410233
v 11.007658 4.123366 4.462123
v 10.977759 4.165775 4.462003
v 11.159156 4.170575 4.460443
v 11.321754 4.345953 4.400894
v 11.019758 4.303904 4.473313
v 11.076358 4.325233 4.470963
v 11.162856 4.371153 4.431923
v 11.267555 4.313604 4.427504
v 11.001859 4.235645 4.504653
v 11.200556 4.329003 4.450673
v 11.085558 4.118116 4.494183
v 11.104757 4.139026 4.500133
v 10.957859 4.213295 4.455753
v 11.146156 4.223125 4.500082
v 11.182356 4.274814 4.471992
v 11.137056 4.303044 4.478023
v 11.057057 4.126046 4.499722
v 11.017658 4.172715 4.504762
v 11.127457 4.258864 4.504192
v 11.054358 4.259784 4.514962
v 11.098157 4.273244 4.503382
v 11.083258 4.141616 4.521583
v 11.106657 4.176405 4.517023
v 11.093258 4.221035 4.526002
v 11.063758 4.171236 4.528152
v 11.032759 4.193135 4.526682
v 11.047658 4.214015 4.518982
vn 0.1277 -0.1118 -0.9855
vn -0.2320 -0.3557 -0.9053
vn -0.1586 0.0308 -0.9869
vn 0.1652 0.2250 -0.9603
vn -0.0794 0.2502 -0.9649
vn -0.0849 -0.6243 -0.7765
vn -0.4058 -0.5782 -0.7078
vn 0.1546 -0.3511 -0.9235
vn -0.4815 -0.1640 -0.8609
vn 0.2592 0.0020 -0.9658
vn -0.3758 0.1162 -0.9194
vn 0.2696 0.1927 -0.9435
vn -0.2395 0.3618 -0.9010
vn 0.1151 0.4376 -0.8918
vn -0.4044 -0.7377 -0.5406
vn -0.2323 -0.7896 -0.5680
vn 0.0260 -0.6866 -0.7266
vn 0.2708 -0.1910 -0.9435
vn 0.1484 -0.4752 -0.8673
vn 0.2858 0.3613 -0.8876
vn -0.5348 0.1564 -0.8304
vn -0.3344 0.5506 -0.7649
vn -0.0274 0.6089 -0.7928
vn 0.2064 0.5921 -0.7789
vn 0.2280 -0.5283 -0.8179
vn -0.3938 -0.8147 -0.4256
vn 0.3088 -0.2403 -0.9203
vn -0.5782 -0.4447 -0.6840
vn 0.3482 0.1483 -0.9256
vn -0.5893 -0.1152 -0.7997
vn -0.5711 0.4496 -0.6868
vn -0.0840 0.7797 -0.6205
vn 0.3806 -0.2337 -0.8947
vn 0.5303 0.0434 -0.8467
vn 0.4667 0.3792 -0.7990
vn 0.3510 0.4073 -0.8431
vn 0.2994 0.5586 -0.7735
vn -0.4086 0.7328 -0.5441
vn 0.1482 0.8290 -0.5392
vn -0.0794 -0.8249 -0.5597
vn 0.1359 -0.7726 -0.6202
vn 0.3607 -0.5504 -0.7530
vn 0.5292 -0.2748 -0.8027
vn -0.5171 -0.7767 -0.3596
vn -0.5751 -0.6676 -0.4728
vn -0.7390 -0.0813 -0.6688
vn -0.7876 0.2367 -0.5689
vn 0.4163 0.6108 -0.6735
vn -0.7065 0.5569 -0.4367
vn 0.3154 0.8009 -0.5090
vn -0.2603 -0.8475 -0.4625
vn 0.5711 -0.4826 -0.6641
vn 0.3459 -0.7239 -0.5969
vn 0.7751 -0.0671 -0.6282
vn -0.7971 -0.4104 -0.4430
vn 0.7155 0.3696 -0.5928
vn 0.5428 0.5733 -0.6138
vn 0.4590 0.7658 -0.4505
vn -0.2412 0.9312 -0.2733
vn 0.0091 0.9532 -0.3021
vn 0.2022 0.9532 -0.2247
vn -0.0645 -0.8984 -0.4345
vn 0.7857 -0.4672 -0.4055
vn -0.7007 -0.6490 -0.2964
vn -0.9465 -0.0235 -0.3218
vn -0.9281 0.2941 -0.2285
vn -0.5230 0.8108 -0.2630
vn 0.4160 0.8663 -0.2766
vn 0.1665 -0.8468 -0.5052
vn -0.4137 -0.8148 -0.4062
vn 0.5646 -0.6845 -0.4611
vn 0.9460 -0.1154 -0.3029
vn 0.5641 0.7476 -0.3506
vn -0.8077 0.5751 -0.1295
vn -0.0369 0.9993 -0.0068
vn 0.4579 -0.7990 -0.3898
vn -0.3384 -0.8537 -0.3958
vn -0.4941 -0.8015 -0.3368
vn -0.9116 -0.3859 -0.1418
vn 0.9036 0.3294 -0.2739
vn 0.7031 0.6278 -0.3341
vn 0.5658 0.8174 -0.1087
vn -0.5383 0.8418 0.0404
vn -0.2985 0.9537 0.0377
vn 0.3145 0.9457 -0.0821
vn 0.4374 0.8982 -0.0424
vn -0.2486 -0.9021 -0.3529
vn 0.2982 -0.9057 -0.3012
vn 0.6908 -0.6947 -0.2005
vn 0.9075 -0.4098 -0.0925
vn 0.9984 0.0484 -0.0282
vn 0.1571 0.9860 0.0567
vn 0.1013 -0.9366 -0.3354
vn 0.5127 -0.8561 -0.0646
vn -0.9993 0.0181 -0.0324
vn -0.9098 0.3872 0.1493
vn -0.6810 0.7002 0.2143
vn 0.3181 0.9388 0.1321
vn -0.2204 0.9529 0.2085
vn 0.0487 0.9867 0.1553
vn 0.8110 -0.5850 0.0033
vn 0.7457 0.6597 -0.0937
vn 0.4525 0.8817 0.1336
vn -0.3908 0.8895 0.2368
vn 0.0703 -0.9746 -0.2127
vn -0.4207 -0.8533 -0.3078
vn -0.6907 -0.6912 -0.2126
vn 0.9644 -0.2146 0.1546
vn 0.8568 0.4978 0.1344
vn 0.6510 0.7418 0.1609
vn 0.2709 -0.9574 -0.0996
vn 0.6903 -0.7179 0.0898
vn -0.4758 0.7947 0.3769
vn -0.3270 0.8504 0.4123
vn 0.2027 0.9493 0.2401
vn -0.0647 0.9535 0.2943
vn -0.0835 -0.9714 -0.2223
vn 0.2259 -0.9738 0.0252
vn 0.8393 -0.4948 0.2253
vn -0.6198 -0.7515 -0.2260
vn 0.9061 0.2934 0.3046
vn -0.9209 -0.3719 0.1168
vn -0.9775 -0.1203 0.1732
vn -0.9497 0.1355 0.2822
vn -0.6413 0.6239 0.4467
vn 0.5407 0.7684 0.3424
vn 0.3107 0.9160 0.2537
vn 0.3814 -0.9107 0.1588
vn 0.5207 -0.8258 0.2167
vn -0.5526 -0.8103 -0.1950
vn 0.8904 -0.2095 0.4040
vn -0.7424 0.4250 0.5179
vn 0.4197 0.8523 0.3123
vn -0.4129 0.7143 0.5651
vn -0.1599 0.8764 0.4543
vn 0.0683 0.9203 0.3853
vn 0.1148 -0.9932 -0.0177
vn -0.2180 -0.9556 -0.1984
vn -0.7134 -0.6985 -0.0560
vn 0.6319 0.6567 0.4117
vn 0.1326 -0.9912 -0.0018
vn 0.6540 -0.6720 0.3476
vn 0.8104 0.2570 0.5266
vn 0.7139 0.5725 0.4033
vn -0.5104 0.5917 0.6240
vn 0.3297 0.8132 0.4796
vn -0.2458 0.7637 0.5970
vn 0.1643 0.8436 0.5113
vn 0.3225 -0.9238 0.2065
vn 0.7620 -0.4345 0.4803
vn -0.8864 -0.4223 0.1896
vn -0.8178 0.1885 0.5437
vn -0.5658 0.4867 0.6656
vn 0.4945 0.7144 0.4950
vn 0.0005 0.8155 0.5788
vn 0.4616 -0.7841 0.4148
vn 0.7882 -0.2018 0.5814
vn 0.5729 0.6369 0.5159
vn -0.3644 0.6276 0.6880
vn -0.4686 -0.8681 -0.1637
vn 0.4687 -0.8025 0.3693
vn 0.5956 -0.5745 0.5615
vn -0.8846 -0.0836 0.4587
vn 0.3635 0.7134 0.5992
vn 0.1118 -0.9935 0.0192
vn 0.4044 -0.8830 0.2381
vn -0.6934 -0.7109 0.1181
vn 0.6722 0.1946 0.7143
vn 0.6071 0.4932 0.6230
vn 0.5409 -0.6486 0.5354
vn -0.7929 -0.5654 0.2273
vn -0.7422 -0.6227 0.2478
vn -0.8586 -0.2705 0.4355
vn -0.5377 0.4864 0.6887
vn 0.4562 0.5990 0.6581
vn -0.1037 0.7093 0.6973
vn 0.1431 0.7600 0.6340
vn -0.2010 -0.9794 -0.0197
vn 0.5549 -0.5199 0.6494
vn 0.6580 -0.3382 0.6728
vn -0.8007 -0.0740 0.5945
vn -0.6865 0.2297 0.6899
vn 0.1688 -0.9517 0.2563
vn 0.5414 -0.7315 0.4146
vn -0.8073 -0.3367 0.4846
vn -0.2909 0.6355 0.7152
vn 0.2822 0.6794 0.6773
vn 0.0576 0.6698 0.7403
vn -0.5042 -0.8620 0.0523
vn 0.5551 -0.7488 0.3621
vn 0.5590 0.0536 0.8274
vn 0.4270 0.4872 0.7618
vn -0.1329 0.6592 0.7401
vn -0.2390 -0.9290 0.2827
vn -0.7744 -0.4342 0.4603
vn 0.5304 -0.3010 0.7925
vn 0.4935 -0.2095 0.8441
vn 0.5332 -0.1635 0.8300
vn 0.2612 0.4718 0.8421
vn -0.5933 -0.6732 0.4413
vn -0.7447 -0.4241 0.5153
vn 0.6378 -0.5033 0.5830
vn 0.3803 0.2147 0.8996
vn -0.3466 0.5459 0.7628
vn -0.0476 0.6047 0.7951
vn 0.0655 0.5755 0.8152
vn 0.3870 0.1064 0.9159
vn -0.5256 0.2040 0.8259
vn 0.2638 0.3551 0.8969
vn 0.2837 -0.8253 0.4883
vn 0.6140 -0.5446 0.5713
vn -0.7324 -0.1432 0.6657
vn 0.5428 -0.0767 0.8364
vn 0.4377 0.1650 0.8839
vn 0.2082 0.4606 0.8629
vn -0.2549 -0.7185 0.6472
vn -0.5786 -0.3485 0.7374
vn 0.3356 0.3042 0.8915
vn -0.1394 0.3828 0.9132
vn 0.1288 0.4633 0.8768
vn 0.2095 -0.5074 0.8359
vn 0.4950 -0.2141 0.8421
vn 0.1622 0.1430 0.9763
vn -0.1028 -0.1905 0.9763
vn -0.3178 -0.0135 0.9481
vn -0.1238 0.1931 0.9733
usemtl mtl1.1071
s 1
f 1//1 2//2 3//3
f 1//1 3//3 4//4
f 4//4 3//3 5//5
f 6//6 7//7 2//2
f 1//1 6//6 2//2
f 8//8 6//6 1//1
f 7//7 9//9 2//2
f 10//10 8//8 1//1
f 11//11 3//3 9//9
f 2//2 9//9 3//3
f 1//1 4//4 12//12
f 12//12 10//10 1//1
f 5//5 3//3 11//11
f 11//11 13//13 5//5
f 4//4 5//5 14//14
f 14//14 5//5 13//13
f 15//15 6//6 16//16
f 16//16 6//6 17//17
f 18//18 19//19 8//8
f 6//6 15//15 7//7
f 18//18 8//8 10//10
f 4//4 20//20 12//12
f 11//11 21//21 13//13
f 4//4 14//14 20//20
f 21//21 22//22 13//13
f 13//13 23//23 14//14
f 23//23 13//13 22//22
f 23//23 24//24 14//14
f 6//6 19//19 17//17
f 17//17 19//19 25//25
f 26//26 15//15 16//16
f 19//19 6//6 8//8
f 27//27 19//19 18//18
f 7//7 15//15 28//28
f 29//29 18//18 10//10
f 27//27 18//18 29//29
f 9//9 28//28 30//30
f 28//28 9//9 7//7
f 12//12 29//29 10//10
f 12//12 20//20 29//29
f 9//9 21//21 11//11
f 21//21 31//31 22//22
f 20//20 14//14 24//24
f 32//32 24//24 23//23
f 23//23 22//22 32//32
f 27//27 25//25 19//19
f 33//33 25//25 27//27
f 27//27 29//29 33//33
f 34//34 33//33 29//29
f 34//34 29//29 35//35
f 9//9 30//30 21//21
f 20//20 36//36 29//29
f 36//36 35//35 29//29
f 24//24 36//36 20//20
f 24//24 37//37 36//36
f 22//22 31//31 38//38
f 32//32 22//22 38//38
f 32//32 39//39 24//24
f 16//16 17//17 40//40
f 40//40 17//17 41//41
f 17//17 25//25 41//41
f 42//42 41//41 25//25
f 33//33 42//42 25//25
f 43//43 42//42 33//33
f 15//15 44//44 45//45
f 44//44 15//15 26//26
f 15//15 45//45 28//28
f 33//33 34//34 43//43
f 46//46 30//30 28//28
f 30//30 46//46 21//21
f 46//46 47//47 21//21
f 31//31 21//21 47//47
f 36//36 37//37 48//48
f 49//49 38//38 31//31
f 37//37 50//50 48//48
f 37//37 24//24 50//50
f 24//24 39//39 50//50
f 40//40 51//51 16//16
f 16//16 51//51 26//26
f 42//42 52//52 53//53
f 43//43 52//52 42//42
f 54//54 52//52 43//43
f 28//28 45//45 55//55
f 43//43 34//34 54//54
f 56//56 54//54 34//34
f 28//28 55//55 46//46
f 35//35 56//56 34//34
f 35//35 36//36 57//57
f 56//56 35//35 57//57
f 36//36 48//48 57//57
f 49//49 31//31 47//47
f 48//48 50//50 58//58
f 32//32 38//38 59//59
f 32//32 60//60 39//39
f 60//60 32//32 59//59
f 61//61 39//39 60//60
f 40//40 41//41 62//62
f 41//41 42//42 53//53
f 54//54 63//63 52//52
f 45//45 64//64 55//55
f 46//46 55//55 65//65
f 46//46 65//65 47//47
f 66//66 49//49 47//47
f 48//48 58//58 57//57
f 38//38 49//49 67//67
f 68//68 58//58 50//50
f 38//38 67//67 59//59
f 39//39 61//61 50//50
f 68//68 50//50 61//61
f 41//41 53//53 69//69
f 26//26 51//51 70//70
f 53//53 52//52 71//71
f 52//52 63//63 71//71
f 45//45 44//44 64//64
f 63//63 54//54 72//72
f 66//66 47//47 65//65
f 57//57 58//58 73//73
f 49//49 66//66 74//74
f 49//49 74//74 67//67
f 61//61 60//60 75//75
f 51//51 40//40 62//62
f 62//62 41//41 69//69
f 53//53 76//76 69//69
f 71//71 76//76 53//53
f 77//77 70//70 51//51
f 26//26 70//70 78//78
f 78//78 44//44 26//26
f 55//55 64//64 79//79
f 72//72 54//54 80//80
f 65//65 55//55 79//79
f 80//80 54//54 56//56
f 57//57 81//81 56//56
f 73//73 58//58 68//68
f 82//82 73//73 68//68
f 83//83 67//67 74//74
f 67//67 83//83 84//84
f 68//68 61//61 85//85
f 68//68 85//85 86//86
f 67//67 84//84 59//59
f 59//59 84//84 75//75
f 60//60 59//59 75//75
f 87//87 77//77 51//51
f 88//88 69//69 76//76
f 89//89 76//76 71//71
f 89//89 71//71 63//63
f 90//90 63//63 72//72
f 72//72 80//80 91//91
f 56//56 81//81 80//80
f 81//81 57//57 73//73
f 68//68 86//86 82//82
f 61//61 75//75 92//92
f 85//85 61//61 92//92
f 69//69 93//93 62//62
f 62//62 87//87 51//51
f 76//76 89//89 94//94
f 89//89 63//63 90//90
f 90//90 72//72 91//91
f 65//65 95//95 66//66
f 95//95 96//96 66//66
f 82//82 81//81 73//73
f 66//66 96//96 74//74
f 74//74 97//97 83//83
f 86//86 85//85 98//98
f 84//84 99//99 75//75
f 75//75 100//100 92//92
f 88//88 93//93 69//69
f 88//88 76//76 94//94
f 89//89 90//90 101//101
f 79//79 95//95 65//65
f 81//81 102//102 80//80
f 81//81 82//82 102//102
f 74//74 96//96 97//97
f 86//86 98//98 103//103
f 103//103 82//82 86//86
f 83//83 104//104 84//84
f 84//84 104//104 99//99
f 85//85 92//92 98//98
f 75//75 99//99 100//100
f 93//93 105//105 62//62
f 106//106 78//78 70//70
f 44//44 107//107 64//64
f 64//64 107//107 79//79
f 90//90 91//91 108//108
f 91//91 80//80 109//109
f 109//109 80//80 102//102
f 110//110 102//102 82//82
f 82//82 103//103 110//110
f 97//97 104//104 83//83
f 93//93 111//111 105//105
f 93//93 88//88 111//111
f 88//88 94//94 111//111
f 70//70 77//77 106//106
f 94//94 89//89 112//112
f 89//89 101//101 112//112
f 44//44 78//78 107//107
f 97//97 113//113 104//104
f 104//104 114//114 99//99
f 92//92 115//115 98//98
f 100//100 99//99 116//116
f 117//117 62//62 105//105
f 62//62 117//117 87//87
f 111//111 118//118 105//105
f 77//77 87//87 106//106
f 101//101 90//90 119//119
f 120//120 107//107 78//78
f 90//90 108//108 119//119
f 108//108 91//91 121//121
f 122//122 79//79 107//107
f 123//123 79//79 122//122
f 123//123 95//95 79//79
f 121//121 91//91 109//109
f 124//124 96//96 95//95
f 96//96 125//125 97//97
f 110//110 103//103 126//126
f 113//113 114//114 104//104
f 127//127 98//98 115//115
f 115//115 92//92 100//100
f 111//111 94//94 128//128
f 94//94 112//112 129//129
f 130//130 78//78 106//106
f 120//120 78//78 130//130
f 131//131 119//119 108//108
f 110//110 109//109 102//102
f 96//96 124//124 132//132
f 132//132 125//125 96//96
f 103//103 133//133 126//126
f 97//97 125//125 113//113
f 127//127 133//133 103//103
f 113//113 134//134 114//114
f 127//127 103//103 98//98
f 114//114 135//135 99//99
f 99//99 135//135 116//116
f 116//116 136//136 100//100
f 136//136 115//115 100//100
f 117//117 105//105 137//137
f 138//138 87//87 117//117
f 111//111 128//128 118//118
f 94//94 129//129 128//128
f 107//107 139//139 122//122
f 108//108 121//121 131//131
f 140//140 109//109 110//110
f 140//140 110//110 126//126
f 113//113 125//125 134//134
f 117//117 137//137 141//141
f 118//118 137//137 105//105
f 101//101 119//119 112//112
f 123//123 124//124 95//95
f 109//109 140//140 121//121
f 116//116 135//135 136//136
f 138//138 117//117 141//141
f 138//138 106//106 87//87
f 142//142 129//129 112//112
f 112//112 119//119 142//142
f 120//120 139//139 107//107
f 131//131 121//121 143//143
f 121//121 140//140 144//144
f 125//125 132//132 145//145
f 125//125 145//145 134//134
f 127//127 146//146 133//133
f 134//134 147//147 114//114
f 147//147 135//135 114//114
f 136//136 148//148 115//115
f 127//127 115//115 148//148
f 118//118 128//128 149//149
f 150//150 142//142 119//119
f 150//150 119//119 131//131
f 139//139 151//151 122//122
f 143//143 121//121 144//144
f 152//152 132//132 124//124
f 132//132 153//153 145//145
f 126//126 154//154 140//140
f 126//126 133//133 154//154
f 146//146 154//154 133//133
f 148//148 146//146 127//127
f 136//136 135//135 155//155
f 136//136 155//155 148//148
f 137//137 149//149 141//141
f 118//118 149//149 137//137
f 128//128 156//156 149//149
f 129//129 156//156 128//128
f 129//129 142//142 156//156
f 139//139 120//120 130//130
f 122//122 152//152 123//123
f 143//143 157//157 131//131
f 123//123 152//152 124//124
f 152//152 153//153 132//132
f 144//144 140//140 158//158
f 145//145 159//159 134//134
f 134//134 159//159 147//147
f 147//147 155//155 135//135
f 130//130 106//106 160//160
f 160//160 106//106 138//138
f 149//149 156//156 161//161
f 142//142 162//162 156//156
f 122//122 163//163 152//152
f 122//122 151//151 163//163
f 143//143 144//144 158//158
f 164//164 158//158 140//140
f 140//140 154//154 164//164
f 138//138 141//141 165//165
f 141//141 166//166 165//165
f 149//149 166//166 141//141
f 130//130 167//167 139//139
f 162//162 142//142 150//150
f 157//157 150//150 131//131
f 143//143 168//168 157//157
f 158//158 169//169 143//143
f 153//153 159//159 145//145
f 148//148 164//164 146//146
f 164//164 154//154 146//146
f 167//167 130//130 160//160
f 156//156 170//170 161//161
f 171//171 139//139 172//172
f 171//171 151//151 139//139
f 171//171 173//173 151//151
f 151//151 173//173 163//163
f 152//152 174//174 153//153
f 143//143 169//169 168//168
f 159//159 153//153 174//174
f 158//158 164//164 175//175
f 169//169 158//158 175//175
f 176//176 177//177 155//155
f 177//177 164//164 148//148
f 155//155 147//147 176//176
f 148//148 155//155 177//177
f 138//138 165//165 178//178
f 178//178 160//160 138//138
f 149//149 161//161 166//166
f 139//139 167//167 172//172
f 156//156 162//162 179//179
f 162//162 150//150 180//180
f 150//150 157//157 180//180
f 168//168 180//180 157//157
f 152//152 163//163 181//181
f 182//182 152//152 181//181
f 152//152 182//182 174//174
f 159//159 176//176 147//147
f 183//183 178//178 165//165
f 165//165 166//166 183//183
f 161//161 184//184 166//166
f 161//161 170//170 184//184
f 156//156 179//179 170//170
f 179//179 162//162 180//180
f 163//163 173//173 185//185
f 181//181 163//163 185//185
f 175//175 168//168 169//169
f 159//159 174//174 186//186
f 175//175 164//164 187//187
f 177//177 176//176 188//188
f 187//187 177//177 188//188
f 164//164 177//177 187//187
f 160//160 178//178 189//189
f 166//166 190//190 183//183
f 189//189 167//167 160//160
f 172//172 185//185 171//171
f 171//171 185//185 173//173
f 180//180 168//168 191//191
f 191//191 168//168 192//192
f 192//192 168//168 175//175
f 159//159 186//186 193//193
f 175//175 187//187 192//192
f 176//176 159//159 193//193
f 188//188 176//176 193//193
f 178//178 194//194 189//189
f 172//172 167//167 195//195
f 172//172 195//195 185//185
f 179//179 196//196 170//170
f 197//197 179//179 198//198
f 179//179 180//180 198//198
f 180//180 191//191 198//198
f 187//187 199//199 192//192
f 199//199 187//187 188//188
f 167//167 189//189 200//200
f 166//166 184//184 190//190
f 167//167 201//201 195//195
f 184//184 202//202 190//190
f 170//170 202//202 184//184
f 196//196 202//202 170//170
f 185//185 195//195 181//181
f 196//196 179//179 197//197
f 203//203 198//198 191//191
f 174//174 204//204 186//186
f 191//191 192//192 203//203
f 193//193 186//186 205//205
f 192//192 199//199 203//203
f 188//188 193//193 206//206
f 199//199 188//188 206//206
f 183//183 194//194 178//178
f 200//200 201//201 167//167
f 196//196 197//197 207//207
f 208//208 174//174 182//182
f 207//207 197//197 198//198
f 198//198 203//203 207//207
f 186//186 204//204 205//205
f 207//207 199//199 209//209
f 203//203 199//199 207//207
f 206//206 193//193 205//205
f 209//209 199//199 206//206
f 189//189 194//194 200//200
f 210//210 183//183 190//190
f 190//190 202//202 211//211
f 212//212 195//195 201//201
f 181//181 195//195 212//212
f 213//213 202//202 196//196
f 181//181 212//212 182//182
f 208//208 182//182 212//212
f 174//174 208//208 204//204
f 207//207 214//214 196//196
f 205//205 215//215 206//206
f 207//207 209//209 214//214
f 209//209 206//206 215//215
f 216//216 200//200 194//194
f 183//183 216//216 194//194
f 183//183 210//210 216//216
f 200//200 217//217 201//201
f 190//190 211//211 210//210
f 201//201 217//217 212//212
f 214//214 213//213 196//196
f 218//218 213//213 214//214
f 204//204 219//219 205//205
f 219//219 220//220 205//205
f 220//220 215//215 205//205
f 214//214 209//209 215//215
f 200//200 216//216 217//217
f 210//210 221//221 216//216
f 210//210 211//211 221//221
f 211//211 222//222 221//221
f 222//222 211//211 202//202
f 202//202 213//213 222//222
f 218//218 214//214 215//215
f 218//218 215//215 220//220
f 208//208 212//212 217//217
f 223//223 222//222 213//213
f 213//213 218//218 223//223
f 204//204 208//208 219//219
f 223//223 220//220 219//219
f 223//223 218//218 220//220
f 216//216 221//221 224//224
f 217//217 216//216 224//224
f 225//225 217//217 224//224
f 224//224 221//221 222//222
f 217//217 225//225 208//208
f 226//226 208//208 225//225
f 222//222 223//223 224//224
f 219//219 226//226 223//223
f 226//226 224//224 223//223
f 219//219 208//208 226//226
f 226//226 225//225 224//224
