# Blender v2.92.0 OBJ File: 'convert_to_one_sided.blend'
# www.blender.org
mtllib 222L.mtl
o Cube
v 0.001000 0.001000 -0.001000
v 0.001000 -0.001000 -0.001000
v 0.001000 0.001000 0.001000
v 0.001000 -0.001000 0.001000
v -0.001000 0.001000 -0.001000
v -0.001000 -0.001000 -0.001000
v -0.001000 0.001000 0.001000
v -0.001000 -0.001000 0.001000
vt 0.625000 0.500000
vt 0.875000 0.500000
vt 0.875000 0.750000
vt 0.625000 0.750000
vt 0.375000 0.750000
vt 0.625000 1.000000
vt 0.375000 1.000000
vt 0.375000 0.000000
vt 0.625000 0.000000
vt 0.625000 0.250000
vt 0.375000 0.250000
vt 0.125000 0.500000
vt 0.375000 0.500000
vt 0.125000 0.750000
vn 0.0000 1.0000 0.0000
vn 0.0000 0.0000 1.0000
vn -1.0000 0.0000 0.0000
vn 0.0000 -1.0000 0.0000
vn 1.0000 0.0000 0.0000
vn 0.0000 0.0000 -1.0000
usemtl Material
s off
f 1/1/1 5/2/1 7/3/1 3/4/1
f 4/5/2 3/4/2 7/6/2 8/7/2
f 8/8/3 7/9/3 5/10/3 6/11/3
f 6/12/4 2/13/4 4/5/4 8/14/4
f 2/13/5 1/1/5 3/4/5 4/5/5
f 6/11/6 5/10/6 1/1/6 2/13/6
o 222
v 11.462652 6.593204 5.650148
v 11.544651 6.657853 5.643028
v 11.637251 6.542635 5.652108
v 11.466452 6.732593 5.644588
v 11.681950 6.669353 5.648738
v 11.563851 6.742622 5.646458
v 11.675750 6.738322 5.656968
v 11.416754 6.818261 5.660958
v 11.415553 6.691442 5.663318
v 11.568252 6.808531 5.668838
v 11.486253 6.800561 5.659168
v 11.567851 6.408017 5.667538
v 11.688849 6.332138 5.676678
v 11.602551 6.320578 5.690887
v 11.873347 6.342497 5.674998
v 12.112944 6.359927 5.671448
v 11.874847 6.448806 5.662978
v 12.608738 6.415727 5.662688
v 12.511139 6.340188 5.681138
v 12.441740 6.364467 5.674308
v 12.158443 6.482186 5.661568
v 12.388841 6.418867 5.667658
v 12.665237 6.360107 5.686508
v 12.738935 6.385367 5.690048
v 12.736237 6.449116 5.677368
v 11.434053 6.427586 5.685168
v 11.453553 6.542045 5.671418
v 12.402040 6.483656 5.662068
v 12.536038 6.492605 5.661838
v 11.904946 6.579644 5.659658
v 12.351940 6.532635 5.665548
v 12.674136 6.518505 5.666608
v 12.123644 6.565214 5.664448
v 12.759135 6.536795 5.680338
v 12.776936 6.494775 5.691628
v 12.200543 6.581534 5.673558
v 12.341640 6.549055 5.674308
v 12.472340 6.551235 5.675208
v 12.575338 6.553825 5.675158
v 12.282242 6.565434 5.685728
v 12.695637 6.562924 5.680558
v 12.774635 6.553524 5.690668
v 12.736936 6.567885 5.689918
v 11.407853 6.592454 5.684088
v 12.022445 6.625604 5.673268
v 11.389153 6.732372 5.682168
v 11.830947 6.689173 5.671358
v 11.952946 6.670983 5.689018
v 11.706449 6.756082 5.672978
v 11.778849 6.734082 5.686378
v 11.398453 6.796612 5.676928
v 11.632350 6.793211 5.684818
v 11.568351 6.820181 5.688868
v 11.409153 6.859161 5.687668
v 11.464252 6.843321 5.683148
v 11.506552 6.316668 5.697738
v 11.502052 6.353187 5.694108
v 11.854648 6.313737 5.691978
v 12.161544 6.322278 5.694158
v 12.335542 6.350737 5.682718
v 12.399741 6.322777 5.695898
v 12.545539 6.329628 5.693227
v 12.648137 6.341827 5.692637
v 12.705036 6.367927 5.692218
v 11.452253 6.368287 5.694957
v 11.418452 6.497225 5.693138
v 12.758435 6.431936 5.695338
v 12.414241 6.549015 5.685578
v 12.508438 6.554905 5.686298
v 12.585638 6.569615 5.690878
v 12.188143 6.593284 5.686098
v 12.676837 6.573585 5.694227
v 12.091444 6.621514 5.690768
v 11.388054 6.708753 5.688618
v 11.848147 6.705113 5.694238
v 11.397054 6.789532 5.692758
v 11.709449 6.761992 5.691828
v 11.495652 6.847911 5.692688
v 11.442253 6.859811 5.693138
v 11.719849 6.313948 5.696368
v 11.961946 6.308478 5.698658
v 12.068444 6.315378 5.697968
v 12.476439 6.319898 5.695868
v 12.206443 6.318848 5.699408
v 12.356241 6.322338 5.695358
v 12.746236 6.402876 5.696648
v 12.774635 6.536705 5.696488
v 11.402953 6.665923 5.699338
v 12.371541 6.550635 5.694818
v 12.470140 6.543694 5.697028
v 12.177043 6.590974 5.696747
v 12.734936 6.560774 5.698088
v 11.571551 6.813691 5.700017
v 11.442053 6.855201 5.694438
v 11.853348 6.306348 5.697288
v 12.011246 6.315248 5.697767
v 12.556938 6.347727 5.699437
v 11.477152 6.343647 5.697468
v 11.737249 6.324398 5.696858
v 12.685737 6.375047 5.697477
v 11.443452 6.442726 5.699528
v 12.016642 6.649428 5.699999
v 12.106879 6.323723 5.699999
v 11.797023 6.723556 5.699999
v 12.084621 6.619738 5.699999
v 11.998275 6.329527 5.699999
v 12.722890 6.558965 5.699999
v 11.765474 6.735837 5.699999
v 11.421408 6.535490 5.699999
v 11.403833 6.666364 5.699999
v 12.539227 6.348382 5.699999
v 12.555195 6.350345 5.699999
v 12.562191 6.351782 5.699999
v 11.404327 6.671480 5.699999
v 11.405133 6.655619 5.699999
v 12.766463 6.461609 5.699999
v 12.316069 6.555440 5.699999
v 12.373231 6.542829 5.699999
v 11.528698 6.360149 5.699999
v 12.537769 6.553859 5.699999
v 11.874349 6.695674 5.699999
v 11.658692 6.778479 5.699999
v 12.440297 6.540355 5.699999
v 11.724361 6.349183 5.699999
v 11.807528 6.339750 5.699999
v 12.163007 6.590143 5.699999
v 11.468117 6.835037 5.699999
v 12.481795 6.540211 5.699999
v 12.578191 6.560714 5.699999
v 12.218316 6.577117 5.699999
v 11.410488 6.834678 5.699999
v 12.207951 6.321597 5.699999
v 11.409209 6.783666 5.699999
v 12.772255 6.481723 5.699999
v 12.766087 6.534007 5.699999
v 12.588996 6.563275 5.699999
v 12.658037 6.576837 5.699999
v 11.744432 6.744775 5.699999
v 11.661569 6.777398 5.699999
v 11.414518 6.853642 5.699999
v 12.264121 6.329421 5.699999
v 12.368205 6.337661 5.699999
v 12.686084 6.386694 5.699999
v 12.735588 6.555557 5.699999
v 11.424639 6.853327 5.699999
v 12.760235 6.445493 5.699999
v 11.441949 6.452268 5.699999
v 12.142257 6.600921 5.699999
v 11.457267 6.441031 5.699999
v 12.734612 6.412043 5.699999
v 11.446606 6.445297 5.699999
v 11.493090 6.829527 5.699999
v 12.000945 6.655058 5.699999
v 12.772430 6.502494 5.699999
v 12.273810 6.560700 5.699999
v 12.670271 6.577087 5.699999
v 11.917906 6.681211 5.699999
v 12.696113 6.570821 5.699999
vn -0.2391 -0.1295 -0.9623
vn 0.0043 -0.0204 -0.9998
vn 0.0120 -0.0707 -0.9974
vn -0.1191 0.0641 -0.9908
vn 0.0816 0.0699 -0.9942
vn 0.0581 0.1818 -0.9816
vn 0.1569 0.3095 -0.9378
vn -0.3016 0.3053 -0.9032
vn -0.5437 -0.0702 -0.8363
vn 0.2064 0.6548 -0.7271
vn 0.0500 0.3610 -0.9312
vn -0.1100 -0.1970 -0.9742
vn -0.0310 -0.4347 -0.9000
vn -0.0821 -0.6331 -0.7697
vn 0.0101 -0.3344 -0.9424
vn 0.0147 -0.2638 -0.9645
vn 0.0048 -0.0818 -0.9966
vn 0.0562 -0.1528 -0.9866
vn 0.0306 -0.5074 -0.8611
vn -0.0244 -0.2348 -0.9717
vn 0.0071 -0.0149 -0.9999
vn -0.0079 -0.1232 -0.9924
vn 0.2152 -0.6200 -0.7545
vn 0.6737 -0.6304 -0.3857
vn 0.3597 -0.1594 -0.9193
vn -0.5750 -0.2358 -0.7834
vn -0.4149 -0.1652 -0.8948
vn 0.0005 -0.0028 -1.0000
vn 0.0041 0.0714 -0.9974
vn 0.0453 0.0763 -0.9961
vn 0.0267 0.3292 -0.9439
vn 0.0747 0.1307 -0.9886
vn 0.0436 0.1950 -0.9798
vn 0.3599 0.2312 -0.9039
vn 0.9403 -0.0884 -0.3288
vn 0.1796 0.7149 -0.6757
vn 0.0963 0.8503 -0.5175
vn -0.0571 0.9073 -0.4167
vn -0.0122 0.5662 -0.8242
vn 0.2060 0.9770 0.0553
vn 0.0714 0.5584 -0.8265
vn 0.7842 0.6156 -0.0778
vn 0.2526 0.8953 -0.3670
vn -0.8979 -0.1539 -0.4124
vn 0.1513 0.4900 -0.8585
vn -0.9290 0.0122 -0.3699
vn 0.2210 0.4789 -0.8496
vn 0.2980 0.8913 -0.3417
vn 0.3156 0.7272 -0.6096
vn 0.3900 0.8772 -0.2801
vn -0.8686 0.1508 -0.4720
vn 0.3745 0.9240 -0.0766
vn 0.3637 0.9286 -0.0740
vn -0.5801 0.7990 -0.1585
vn 0.0986 0.6814 -0.7252
vn -0.3314 -0.9435 -0.0034
vn -0.2346 -0.3647 -0.9011
vn 0.0060 -0.8032 -0.5957
vn 0.0269 -0.7932 -0.6084
vn -0.0097 -0.3918 -0.9200
vn 0.0001 -0.8599 -0.5104
vn 0.1258 -0.9722 -0.1973
vn 0.2414 -0.8882 0.3910
vn 0.4362 -0.8476 0.3021
vn -0.8541 -0.5183 0.0425
vn -0.9099 -0.1753 0.3760
vn 0.9256 -0.3324 -0.1808
vn 0.0277 0.9950 0.0957
vn -0.1288 0.9449 0.3011
vn -0.1161 0.9921 -0.0483
vn 0.2807 0.9577 -0.0630
vn 0.0607 0.9588 -0.2777
vn 0.3127 0.9446 -0.0996
vn -0.9654 -0.0596 0.2538
vn 0.3445 0.9167 -0.2022
vn -0.8848 0.1326 0.4467
vn 0.3743 0.9270 0.0236
vn 0.2718 0.9474 0.1688
vn 0.0754 0.9937 -0.0830
vn -0.0383 -0.9877 0.1514
vn 0.0247 -0.9825 0.1848
vn 0.0445 -0.9986 -0.0292
vn 0.0724 -0.9362 0.3438
vn 0.0330 -0.9164 0.3989
vn 0.0144 -0.8080 0.5891
vn 0.5576 -0.4405 0.7036
vn 0.4601 0.0624 0.8857
vn 0.6380 -0.1532 0.7546
vn -0.7418 -0.0533 0.6685
vn 0.0923 0.8372 0.5390
vn -0.0416 0.7601 0.6484
vn 0.6813 0.2306 0.6947
vn 0.2495 0.7965 0.5508
vn 0.2625 0.7128 0.6504
vn 0.2810 0.7358 0.6161
vn 0.1968 0.6838 0.7027
vn 0.2640 0.5995 0.7556
vn 0.0531 0.7623 0.6450
vn -0.0212 -0.6508 0.7589
vn 0.0178 -0.5052 0.8628
vn 0.0638 -0.4153 0.9075
vn -0.2709 -0.3174 0.9088
vn -0.0254 -0.3136 0.9492
vn 0.1676 -0.3743 0.9120
vn -0.3476 -0.1337 0.9281
vn 0.0342 0.6043 0.7960
vn 0.0132 0.1987 0.9800
vn -0.3021 0.0445 0.9522
vn -0.3069 -0.0621 0.9497
vn -0.0460 0.4867 0.8724
vn -0.1005 0.5157 0.8508
vn 0.1565 0.5843 0.7963
vn 0.1047 0.5164 0.8499
vn 0.1338 0.4707 0.8721
vn 0.1800 0.4689 0.8647
vn 0.2549 0.6839 0.6835
vn 0.1955 0.6847 0.7022
vn 0.2848 0.5175 0.8069
vn 0.1859 0.5544 0.8112
vn 0.2449 0.5765 0.7795
vn -0.2426 0.3893 0.8886
vn -0.3888 0.5235 0.7581
vn -0.0111 0.2604 -0.9654
vn 0.0130 -0.0036 -0.9999
vn -0.0070 -0.2937 0.9559
vn -0.0601 -0.5066 0.8601
vn 0.3639 0.1777 0.9143
vn -0.0543 -0.2478 0.9673
vn 0.1319 0.1003 0.9862
vn -0.0523 0.4434 0.8948
vn -0.0344 -0.2135 0.9763
vn 0.0799 -0.2078 0.9749
vn 0.0132 0.0235 0.9996
vn 0.0234 -0.0735 0.9970
vn 0.0210 -0.0465 0.9987
vn -0.1983 -0.0036 0.9801
vn 0.1490 0.1287 0.9804
vn -0.0409 0.1587 0.9865
vn 0.1120 0.2803 0.9533
vn 0.0104 0.0547 0.9984
vn 0.0837 0.3411 0.9363
vn -0.2596 0.0543 0.9642
vn -0.2713 -0.0357 0.9618
vn -0.5322 0.1505 0.8331
vn 0.1054 0.2014 0.9738
vn -0.3085 0.3034 0.9015
vn 0.2686 0.8840 0.3827
vn 0.3521 -0.1487 0.9241
vn 0.0658 -0.2037 0.9768
vn -0.0388 0.8926 0.4492
vn -0.0783 0.9477 0.3095
vn 0.0448 0.2398 0.9698
vn 0.2840 0.5541 0.7825
vn -0.1687 0.1410 0.9755
vn 0.6592 -0.1773 0.7308
vn -0.4104 -0.1036 0.9060
vn 0.2063 0.5511 0.8085
vn 0.0222 -0.1661 0.9859
usemtl mtl1.223
s 1
f 9//7 10//8 11//9
f 12//10 10//8 9//7
f 10//8 13//11 11//9
f 14//12 10//8 12//10
f 13//11 10//8 14//12
f 13//11 14//12 15//13
f 16//14 12//10 17//15
f 18//16 15//13 14//12
f 14//12 12//10 19//17
f 18//16 14//12 19//17
f 19//17 12//10 16//14
f 20//18 21//19 22//20
f 23//21 21//19 20//18
f 24//22 23//21 25//23
f 26//24 27//25 28//26
f 23//21 20//18 25//23
f 24//22 25//23 29//27
f 30//28 24//22 29//27
f 31//29 27//25 26//24
f 32//30 31//29 33//31
f 33//31 31//29 26//24
f 26//24 28//26 30//28
f 20//18 34//32 35//33
f 25//23 20//18 11//9
f 36//34 30//28 29//27
f 37//35 30//28 36//34
f 26//24 30//28 37//35
f 20//18 35//33 9//7
f 11//9 20//18 9//7
f 38//36 25//23 11//9
f 36//34 29//27 39//37
f 26//24 37//35 40//38
f 33//31 26//24 40//38
f 39//37 29//27 41//39
f 37//35 36//34 39//37
f 33//31 40//38 42//40
f 42//40 43//41 33//31
f 29//27 25//23 38//36
f 39//37 41//39 44//42
f 45//43 39//37 44//42
f 45//43 46//44 39//37
f 37//35 39//37 47//45
f 38//36 11//9 13//11
f 41//39 29//27 38//36
f 48//46 45//43 44//42
f 47//45 39//37 46//44
f 40//38 37//35 47//45
f 9//7 35//33 17//15
f 40//38 47//45 49//47
f 42//40 40//38 49//47
f 50//48 42//40 51//49
f 52//50 17//15 35//33
f 44//42 41//39 53//51
f 51//49 42//40 49//47
f 52//50 54//52 17//15
f 12//10 9//7 17//15
f 41//39 38//36 53//51
f 55//53 38//36 13//11
f 53//51 38//36 55//53
f 56//54 53//51 55//53
f 15//13 55//53 13//11
f 15//13 57//55 55//53
f 57//55 58//56 55//53
f 59//57 17//15 54//52
f 17//15 59//57 16//14
f 18//16 57//55 15//13
f 57//55 18//16 60//58
f 60//58 18//16 61//59
f 62//60 16//14 59//57
f 16//14 63//61 19//17
f 19//17 63//61 18//16
f 63//61 16//14 62//60
f 64//62 65//63 22//20
f 22//20 65//63 20//18
f 66//64 22//20 21//19
f 67//65 68//66 69//67
f 68//66 27//25 69//67
f 70//68 69//67 27//25
f 27//25 31//29 70//68
f 70//68 31//29 71//69
f 20//18 65//63 34//32
f 23//21 66//64 21//19
f 67//65 66//64 23//21
f 24//22 67//65 23//21
f 24//22 68//66 67//65
f 27//25 68//66 28//26
f 71//69 31//29 72//70
f 65//63 73//71 34//32
f 30//28 68//66 24//22
f 28//26 68//66 30//28
f 31//29 32//30 72//70
f 74//72 34//32 73//71
f 32//30 33//31 75//73
f 33//31 43//41 75//73
f 52//50 34//32 74//72
f 34//32 52//50 35//33
f 43//41 42//40 50//48
f 48//46 76//74 45//43
f 46//44 45//43 76//74
f 76//74 77//75 46//44
f 78//76 46//44 77//75
f 47//45 46//44 78//76
f 48//46 44//42 79//77
f 47//45 78//76 80//78
f 47//45 80//78 49//47
f 44//42 53//51 81//79
f 44//42 81//79 79//77
f 51//49 49//47 80//78
f 53//51 56//54 81//79
f 82//80 54//52 52//50
f 83//81 55//53 58//56
f 56//54 55//53 83//81
f 84//82 54//52 82//80
f 59//57 54//52 84//82
f 60//58 85//83 57//55
f 58//56 57//55 85//83
f 59//57 84//82 62//60
f 61//59 18//16 86//84
f 86//84 18//16 63//61
f 86//84 63//61 87//85
f 87//85 63//61 62//60
f 22//20 88//86 64//62
f 66//64 88//86 22//20
f 66//64 89//87 88//86
f 66//64 90//88 89//87
f 91//89 69//67 70//68
f 65//63 64//62 73//71
f 67//65 90//88 66//64
f 90//88 67//65 92//90
f 69//67 93//91 67//65
f 67//65 93//91 92//90
f 91//89 93//91 69//67
f 94//92 72//70 32//30
f 94//92 32//30 75//73
f 43//41 162//93 142//94
f 74//72 96//95 52//50
f 76//74 97//96 98//97
f 98//97 77//75 76//74
f 43//41 50//48 95//98
f 97//96 76//74 48//46
f 48//46 79//77 99//99
f 100//100 50//48 51//49
f 79//77 81//79 99//99
f 51//49 80//78 100//100
f 96//95 82//80 52//50
f 161//101 56//54 165//102
f 60//58 61//59 101//103
f 87//85 62//60 102//104
f 88//86 89//87 103//105
f 89//87 90//88 104//106
f 103//105 89//87 104//106
f 91//89 70//68 105//107
f 73//71 64//62 106//108
f 88//86 107//109 64//62
f 103//105 107//109 88//86
f 90//88 92//90 104//106
f 105//107 93//91 91//89
f 71//69 105//107 70//68
f 108//110 105//107 71//69
f 72//70 108//110 71//69
f 73//71 109//111 74//72
f 73//71 106//108 109//111
f 94//92 108//110 72//70
f 125//112 126//113 97//96
f 118//114 96//95 123//115
f 77//75 128//116 137//117
f 50//48 100//100 95//98
f 48//46 138//118 163//119
f 156//120 81//79 113//121
f 110//122 113//121 81//79
f 112//123 129//124 83//81
f 84//82 82//80 96//95
f 147//125 146//126 85//83
f 86//84 101//103 61//59
f 102//104 86//84 87//85
f 153//127 62//60 148//128
f 64//62 107//109 106//108
f 103//105 104//106 107//109
f 149//129 93//91 150//130
f 93//91 119//131 150//130
f 111//132 114//133 104//106
f 133//134 132//135 107//109
f 144//136 137//117 151//137
f 121//138 120//139 105//107
f 157//140 159//141 109//111
f 159//141 155//142 109//111
f 162//93 95//98 143//143
f 136//144 128//116 98//97
f 138//118 99//99 134//145
f 152//146 100//100 115//147
f 134//145 99//99 156//120
f 122//148 96//95 118//114
f 141//149 139//150 84//82
f 101//103 86//84 160//151
f 153//127 135//152 102//104
f 86//84 135//152 160//151
f 80//78 166//153 100//100
f 94//92 154//154 158//155
f 158//155 108//110 94//92
f 80//78 145//156 164//157
f 78//76 144//136 145//156
f 100//100 143//143 95//98
f 149//129 92//90 93//91
f 139//150 62//60 84//82
f 78//76 137//117 144//136
f 98//97 131//158 136//144
f 60//58 147//125 85//83
f 60//58 101//103 130//159
f 83//81 165//102 56//54
f 107//109 127//160 106//108
f 106//108 157//140 109//111
f 97//96 131//158 98//97
f 48//46 125//112 97//96
f 43//41 124//161 75//73
f 75//73 154//154 94//92
f 96//95 141//149 84//82
f 108//110 121//138 105//107
f 105//107 120//139 119//131
f 155//142 74//72 109//111
f 117//162 96//95 74//72
f 58//56 146//126 116//163
f 100//100 166//153 115//147
f 104//106 133//134 107//109
f 58//56 112//123 83//81
f 92//90 111//132 104//106
f 56//54 110//122 81//79
f 43//41 95//98 162//93
f 77//75 98//97 128//116
f 48//46 99//99 138//118
f 156//120 99//99 81//79
f 153//127 102//104 62//60
f 93//91 105//107 119//131
f 116//163 146//126 132//135
f 146//126 147//125 117//162
f 130//159 101//103 123//115
f 101//103 160//151 122//148
f 146//126 117//162 157//140
f 147//125 130//159 117//162
f 101//103 122//148 123//115
f 135//152 153//127 139//150
f 153//127 148//128 139//150
f 160//151 135//152 141//149
f 122//148 160//151 141//149
f 112//123 116//163 132//135
f 117//162 130//159 123//115
f 135//152 139//150 141//149
f 129//124 112//123 132//135
f 110//122 161//101 114//133
f 161//101 165//102 133//134
f 114//133 161//101 133//134
f 113//121 110//122 114//133
f 165//102 129//124 133//134
f 146//126 157//140 132//135
f 122//148 118//114 123//115
f 134//145 156//120 111//132
f 156//120 113//121 111//132
f 117//162 155//142 157//140
f 155//142 159//141 157//140
f 157//140 127//160 132//135
f 129//124 132//135 133//134
f 163//119 138//118 140//164
f 138//118 134//145 140//164
f 114//133 111//132 113//121
f 111//132 140//164 134//145
f 140//164 149//129 163//119
f 126//113 125//112 150//130
f 125//112 163//119 149//129
f 125//112 149//129 150//130
f 126//113 150//130 131//158
f 150//130 119//131 131//158
f 119//131 120//139 128//116
f 136//144 119//131 128//116
f 137//117 128//116 121//138
f 136//144 131//158 119//131
f 120//139 121//138 128//116
f 121//138 151//137 137//117
f 151//137 158//155 166//153
f 158//155 154//154 115//147
f 151//137 166//153 145//156
f 154//154 124//161 115//147
f 124//161 142//94 115//147
f 142//94 162//93 115//147
f 162//93 143//143 152//146
f 115//147 162//93 152//146
f 115//147 166//153 158//155
f 166//153 164//157 145//156
f 145//156 144//136 151//137
f 86//84 102//104 135//152
f 80//78 164//157 166//153
f 158//155 151//137 108//110
f 80//78 78//76 145//156
f 100//100 152//146 143//143
f 149//129 140//164 92//90
f 139//150 148//128 62//60
f 78//76 77//75 137//117
f 60//58 130//159 147//125
f 83//81 129//124 165//102
f 107//109 132//135 127//160
f 106//108 127//160 157//140
f 97//96 126//113 131//158
f 48//46 163//119 125//112
f 43//41 142//94 124//161
f 75//73 124//161 154//154
f 96//95 122//148 141//149
f 108//110 151//137 121//138
f 155//142 117//162 74//72
f 117//162 123//115 96//95
f 58//56 85//83 146//126
f 104//106 114//133 133//134
f 58//56 116//163 112//123
f 92//90 140//164 111//132
f 56//54 161//101 110//122
