# Blender v2.92.0 OBJ File: 'convert_to_one_sided.blend'
# www.blender.org
mtllib 230L.mtl
o Cube
v 0.001000 0.001000 -0.001000
v 0.001000 -0.001000 -0.001000
v 0.001000 0.001000 0.001000
v 0.001000 -0.001000 0.001000
v -0.001000 0.001000 -0.001000
v -0.001000 -0.001000 -0.001000
v -0.001000 0.001000 0.001000
v -0.001000 -0.001000 0.001000
vt 0.625000 0.500000
vt 0.875000 0.500000
vt 0.875000 0.750000
vt 0.625000 0.750000
vt 0.375000 0.750000
vt 0.625000 1.000000
vt 0.375000 1.000000
vt 0.375000 0.000000
vt 0.625000 0.000000
vt 0.625000 0.250000
vt 0.375000 0.250000
vt 0.125000 0.500000
vt 0.375000 0.500000
vt 0.125000 0.750000
vn 0.0000 1.0000 0.0000
vn 0.0000 0.0000 1.0000
vn -1.0000 0.0000 0.0000
vn 0.0000 -1.0000 0.0000
vn 1.0000 0.0000 0.0000
vn 0.0000 0.0000 -1.0000
usemtl Material
s off
f 1/1/1 5/2/1 7/3/1 3/4/1
f 4/5/2 3/4/2 7/6/2 8/7/2
f 8/8/3 7/9/3 5/10/3 6/11/3
f 6/12/4 2/13/4 4/5/4 8/14/4
f 2/13/5 1/1/5 3/4/5 4/5/5
f 6/11/6 5/10/6 1/1/6 2/13/6
o 230
v 11.446553 7.050708 5.626658
v 11.361554 7.091198 5.631948
v 11.459253 7.118678 5.633469
v 11.532151 7.057678 5.635418
v 11.656050 7.093338 5.638978
v 11.203956 7.109128 5.638399
v 11.256355 7.134398 5.637188
v 12.301641 7.201226 5.619879
v 12.255642 7.116657 5.636569
v 12.082444 7.126307 5.633919
v 12.202343 7.221366 5.633799
v 11.998246 7.176167 5.639198
v 12.484839 7.172277 5.639628
v 12.429140 7.250676 5.639078
v 10.493665 6.922490 5.645188
v 10.649063 6.954599 5.645148
v 10.562864 6.911130 5.667738
v 10.526464 6.965620 5.638638
v 10.444566 6.936860 5.660818
v 10.454965 6.983819 5.654038
v 10.682563 7.004629 5.632578
v 10.855261 7.016569 5.650548
v 10.598864 7.024599 5.641238
v 10.870260 7.052488 5.638158
v 11.573252 6.997289 5.646868
v 11.413754 7.024859 5.661038
v 11.676649 7.034029 5.643058
v 11.750448 7.000299 5.654638
v 10.548564 7.049839 5.660768
v 11.860447 7.053468 5.647008
v 10.717062 7.081707 5.648978
v 10.747662 7.048058 5.637148
v 11.023759 7.065658 5.657828
v 10.888160 7.088528 5.639828
v 11.034457 7.089638 5.645108
v 11.291855 7.079348 5.658088
v 11.157956 7.086948 5.663938
v 11.844348 7.135547 5.641998
v 12.094045 7.039618 5.655308
v 10.901959 7.130957 5.653868
v 11.068058 7.121457 5.643649
v 11.639251 7.155057 5.646508
v 12.379841 7.057748 5.658248
v 12.515339 7.087858 5.649288
v 11.125257 7.161937 5.650058
v 11.395953 7.170237 5.653508
v 11.831248 7.178826 5.653578
v 12.704136 7.108747 5.662698
v 12.616637 7.090078 5.657388
v 12.649437 7.173867 5.664998
v 10.999859 7.169666 5.668328
v 12.004045 7.202026 5.649398
v 11.212955 7.189507 5.670618
v 12.080745 7.226856 5.660508
v 12.229743 7.258636 5.658168
v 12.367041 7.288885 5.659998
v 12.566638 7.253726 5.660808
v 12.488239 7.302085 5.666098
v 12.436240 7.316355 5.674908
v 10.465165 6.913660 5.672158
v 10.424767 6.928330 5.676758
v 10.420465 6.959050 5.683858
v 10.687162 6.935420 5.677218
v 10.789062 6.972749 5.673238
v 11.593751 6.964910 5.683578
v 11.750648 6.975840 5.670208
v 11.924946 6.999009 5.666628
v 12.132144 6.998939 5.677688
v 10.453165 7.013329 5.681077
v 12.542338 7.059778 5.656948
v 12.557038 7.023829 5.672588
v 12.659738 7.051228 5.672808
v 12.650637 7.020769 5.679108
v 12.688336 7.066958 5.680088
v 10.897459 7.008699 5.679408
v 10.980558 7.041418 5.677768
v 10.530364 7.060218 5.682968
v 11.327755 7.053078 5.686698
v 10.622064 7.081298 5.673687
v 10.729862 7.108347 5.676658
v 10.871861 7.144787 5.689228
v 12.698337 7.141657 5.690428
v 11.066657 7.188087 5.690248
v 11.644051 7.187686 5.668008
v 11.855647 7.200226 5.690048
v 11.430153 7.197866 5.682437
v 12.159744 7.254196 5.683248
v 12.648538 7.230416 5.688138
v 12.313941 7.286265 5.694247
v 12.572538 7.293425 5.691978
v 12.415240 7.313704 5.689358
v 10.499365 6.903790 5.696668
v 10.597963 6.914730 5.694287
v 10.754862 6.953340 5.695678
v 11.776448 6.962880 5.692888
v 11.457553 6.982619 5.693677
v 11.388153 7.023078 5.698867
v 11.938346 6.978749 5.688468
v 12.414640 7.000169 5.686358
v 12.583638 7.006559 5.686578
v 11.095357 7.070768 5.693788
v 11.227056 7.078718 5.693928
v 10.618163 7.083888 5.699888
v 10.973159 7.168757 5.690418
v 11.260555 7.199986 5.699267
v 11.587951 7.198297 5.699128
v 12.068845 7.232546 5.697668
v 12.496139 7.315965 5.698628
v 10.438965 6.928330 5.691868
v 12.196843 6.984759 5.696477
v 12.465740 6.999849 5.698658
v 12.637538 7.039739 5.693598
v 11.690193 6.958348 5.699999
v 11.584393 6.965941 5.699999
v 10.831572 7.131491 5.699999
v 10.946364 7.162889 5.699999
v 12.294908 7.280074 5.699999
v 11.465071 6.988387 5.699999
v 10.889528 7.145811 5.699999
v 12.350567 7.293428 5.699999
v 10.505350 7.043870 5.699999
v 11.255663 7.073739 5.699999
v 12.699950 7.090664 5.699999
v 12.700785 7.103781 5.699999
v 10.612487 7.081828 5.699999
v 12.699243 7.153031 5.699999
v 10.619921 7.084236 5.699999
v 12.572111 7.298594 5.699999
v 12.594788 7.279890 5.699999
v 11.393029 7.022443 5.699999
v 11.383434 7.025913 5.699999
v 10.617990 7.083763 5.699999
v 10.618553 7.083917 5.699999
v 12.684141 7.181619 5.699999
v 11.590628 7.197728 5.699999
v 10.852509 6.992544 5.699999
v 11.924207 6.972743 5.699999
v 10.968744 7.034956 5.699999
v 10.975824 7.169843 5.699999
v 11.089013 7.188149 5.699999
v 12.424399 7.312121 5.699999
v 12.085017 6.978845 5.699999
v 10.971336 7.035972 5.699999
v 11.254934 7.199492 5.699999
v 11.270821 7.200097 5.699999
v 10.494994 6.906547 5.699999
v 10.515206 6.907885 5.699999
v 11.262326 7.199823 5.699999
v 10.430338 7.000526 5.699999
v 10.643433 6.925465 5.699999
v 10.497127 7.038862 5.699999
v 11.573218 7.198565 5.699999
v 10.592252 6.917604 5.699999
v 12.199315 6.986642 5.699999
v 11.583800 7.198090 5.699999
v 11.793336 7.194988 5.699999
v 11.854692 7.196665 5.699999
v 11.909204 7.204638 5.699999
v 11.533011 6.972667 5.699999
v 10.839112 6.987215 5.699999
v 10.425897 6.992597 5.699999
v 10.702214 6.939975 5.699999
v 11.415892 7.200250 5.699999
v 12.104816 7.240277 5.699999
v 10.430118 6.964499 5.699999
v 10.752233 6.956587 5.699999
v 12.433859 6.998857 5.699999
v 11.325688 7.057334 5.699999
v 12.683243 7.078334 5.699999
v 12.067063 7.231171 5.699999
v 12.079288 7.233609 5.699999
v 12.463265 7.002029 5.699999
v 12.472048 7.004615 5.699999
v 12.321865 7.285734 5.699999
v 10.668990 6.931457 5.699999
v 11.694507 6.958405 5.699999
v 11.857617 6.966969 5.699999
v 10.983137 7.039205 5.699999
v 12.157666 7.251993 5.699999
v 12.201065 7.258455 5.699999
v 12.503494 7.315065 5.699999
v 11.081496 7.069850 5.699999
v 11.111635 7.074002 5.699999
v 12.490553 7.315423 5.699999
v 12.497809 7.315318 5.699999
v 12.627423 7.050582 5.699999
v 12.647686 7.059923 5.699999
v 11.005081 7.175895 5.699999
v 10.849759 6.991623 5.699999
v 10.771563 7.114995 5.699999
v 12.664492 7.217937 5.699999
v 12.634741 7.247849 5.699999
v 10.446043 6.927470 5.699999
v 10.439201 6.942353 5.699999
v 11.217211 7.080334 5.699999
vn -0.0702 -0.2635 -0.9621
vn -0.1302 -0.3038 -0.9438
vn 0.0175 0.1558 -0.9876
vn 0.0566 -0.0628 -0.9964
vn 0.0273 0.0166 -0.9995
vn -0.0411 -0.4048 -0.9135
vn -0.0219 0.1760 -0.9841
vn 0.0094 0.0479 -0.9988
vn 0.0335 -0.2316 -0.9722
vn -0.0276 -0.0674 -0.9973
vn -0.0941 0.4426 -0.8918
vn -0.0686 0.2396 -0.9684
vn 0.0961 -0.0397 -0.9946
vn 0.0561 0.3214 -0.9453
vn -0.1226 -0.5471 -0.8280
vn 0.1461 -0.5419 -0.8277
vn 0.0951 -0.9179 -0.3853
vn -0.1143 -0.0376 -0.9927
vn -0.4958 -0.2456 -0.8330
vn -0.4410 0.2828 -0.8518
vn 0.0282 -0.1037 -0.9942
vn 0.2176 -0.6161 -0.7570
vn -0.1147 0.2667 -0.9569
vn 0.0853 -0.2011 -0.9758
vn -0.0223 -0.4969 -0.8675
vn -0.2995 -0.7645 -0.5708
vn 0.0364 -0.1569 -0.9869
vn 0.0517 -0.3720 -0.9268
vn -0.2676 0.6201 -0.7375
vn 0.0240 -0.1807 -0.9832
vn -0.1299 0.5294 -0.8384
vn -0.0340 0.1729 -0.9844
vn 0.2031 -0.7238 -0.6594
vn -0.0136 0.1576 -0.9874
vn 0.0685 -0.3396 -0.9381
vn -0.1914 -0.8103 -0.5539
vn 0.0468 -0.8513 -0.5226
vn -0.0222 0.1000 -0.9947
vn 0.0251 -0.3352 -0.9418
vn -0.1311 0.5936 -0.7940
vn -0.0293 0.1119 -0.9933
vn 0.0008 0.3437 -0.9391
vn 0.0129 -0.3388 -0.9408
vn 0.0296 -0.1676 -0.9854
vn -0.0458 0.4782 -0.8770
vn 0.0011 0.5530 -0.8332
vn -0.0565 0.5755 -0.8158
vn 0.6183 -0.0769 -0.7821
vn 0.1127 -0.1528 -0.9818
vn 0.3608 0.2495 -0.8987
vn -0.1569 0.8437 -0.5135
vn -0.1302 0.6669 -0.7337
vn -0.0344 0.8359 -0.5478
vn -0.1824 0.8570 -0.4820
vn -0.1755 0.8408 -0.5121
vn -0.1508 0.7494 -0.6447
vn 0.2655 0.3491 -0.8987
vn 0.1404 0.6575 -0.7403
vn -0.0482 0.9130 -0.4052
vn -0.2921 -0.9073 -0.3026
vn -0.7580 -0.6126 -0.2240
vn -0.9876 0.0439 -0.1507
vn 0.2507 -0.9286 -0.2735
vn 0.3059 -0.8590 -0.4105
vn -0.0841 -0.9204 -0.3818
vn 0.0426 -0.7175 -0.6953
vn 0.0506 -0.5128 -0.8570
vn 0.0383 -0.6229 -0.7813
vn -0.6100 0.6900 -0.3896
vn 0.0572 -0.3027 -0.9514
vn 0.0640 -0.4974 -0.8651
vn 0.3048 -0.3942 -0.8670
vn 0.4601 -0.8321 -0.3097
vn 0.8640 -0.4985 -0.0709
vn 0.3319 -0.9027 -0.2739
vn 0.2997 -0.8889 -0.3464
vn -0.3722 0.9061 -0.2008
vn -0.3558 -0.9260 -0.1263
vn -0.2218 0.8731 -0.4342
vn -0.2173 0.9330 -0.2870
vn -0.2509 0.9656 -0.0689
vn 0.9252 0.2172 -0.3112
vn -0.1248 0.9885 -0.0857
vn -0.0037 0.8054 -0.5927
vn -0.0949 0.9940 -0.0546
vn 0.0036 0.9284 -0.3716
vn -0.2078 0.9762 -0.0627
vn 0.6099 0.5340 -0.5855
vn -0.2268 0.9714 0.0702
vn 0.3998 0.7513 -0.5251
vn -0.1858 0.9825 -0.0139
vn -0.1042 -0.9650 0.2405
vn 0.1599 -0.9688 0.1894
vn 0.3174 -0.9274 0.1979
vn 0.0461 -0.9439 -0.3271
vn -0.3062 -0.9423 0.1355
vn -0.4248 -0.8776 0.2224
vn 0.0595 -0.8418 -0.5365
vn 0.0346 -0.8129 -0.5814
vn 0.1508 -0.9885 -0.0066
vn 0.1852 -0.9822 -0.0327
vn -0.1032 -0.9921 -0.0716
vn -0.2524 0.9362 0.2444
vn -0.2140 0.9696 -0.1182
vn -0.0366 0.9991 0.0229
vn 0.0235 0.9938 0.1090
vn -0.2061 0.9607 0.1860
vn 0.0916 0.9946 -0.0489
vn -0.6397 -0.6490 0.4118
vn 0.0541 -0.9855 -0.1607
vn 0.0997 -0.8022 0.5887
vn 0.3154 -0.5752 0.7548
vn 0.3363 -0.2016 0.9199
vn 0.8364 -0.0134 0.5480
vn -0.3474 0.5537 0.7567
vn -0.7598 0.5250 0.3835
vn 0.8956 -0.0728 0.4389
vn 0.7668 0.3104 0.5619
vn 0.7311 0.4590 0.5047
vn 0.4510 0.6683 0.5915
vn 0.5289 0.6308 0.5678
vn -0.2864 -0.4789 0.8299
vn -0.4788 -0.2222 0.8493
vn 0.0024 -0.8296 0.5584
vn 0.1224 -0.8510 0.5107
vn 0.0065 -0.8186 0.5744
vn 0.0520 -0.5509 0.8329
vn 0.0579 -0.3981 0.9155
vn -0.1488 -0.5918 0.7922
vn -0.1725 -0.5847 0.7927
vn -0.0110 0.7484 0.6631
vn -0.0060 0.5331 0.8460
vn -0.0624 0.5365 0.8416
vn 0.0004 0.4976 0.8674
vn -0.1317 0.5806 0.8034
vn -0.1648 0.5318 0.8307
vn -0.0881 0.6866 0.7217
vn -0.1701 0.4706 0.8658
vn 0.0908 -0.1673 0.9817
vn 0.1872 -0.0862 0.9785
vn 0.1868 -0.3253 0.9270
vn -0.1258 0.6750 0.7270
vn -0.1217 0.4759 0.8710
vn 0.0334 0.4895 0.8714
vn -0.1491 0.5603 0.8148
vn 0.7669 0.4723 0.4345
vn 0.0074 0.6153 0.7883
vn 0.0185 0.5906 0.8067
vn 0.1558 -0.5085 0.8469
vn 0.1108 -0.4860 0.8669
vn 0.1715 0.8711 0.4602
vn -0.1225 0.6146 0.7793
vn -0.0930 0.6350 0.7669
vn 0.1639 -0.7203 0.6740
vn 0.0448 -0.0973 0.9942
vn -0.1703 0.5545 0.8146
vn 0.1878 -0.6881 0.7009
vn 0.1324 -0.7423 0.6568
vn 0.1246 -0.4151 0.9012
vn -0.4331 -0.1456 0.8895
vn -0.8444 0.3827 0.3749
vn 0.3018 -0.7365 0.6054
vn -0.1095 0.5478 0.8294
vn 0.1892 -0.6752 0.7130
vn 0.0861 -0.4617 0.8829
vn 0.0771 -0.4519 0.8887
vn -0.2419 -0.6136 0.7517
vn -0.0523 0.7545 0.6543
vn -0.0449 0.6039 0.7958
vn 0.0084 0.7399 0.6727
vn -0.0552 0.6690 0.7412
vn -0.0487 0.6904 0.7218
vn -0.0675 0.6387 0.7665
vn -0.1528 0.7022 0.6953
vn 0.2533 -0.6593 0.7079
vn 0.0244 -0.8599 0.5098
vn 0.2493 -0.6411 0.7258
vn 0.2050 -0.7191 0.6640
vn -0.1796 0.4743 0.8618
vn -0.2850 -0.5343 0.7958
vn -0.0914 -0.3004 0.9494
vn 0.3364 0.7805 0.5269
vn -0.1550 0.5996 0.7851
vn -0.1920 0.5106 0.8381
vn -0.0499 -0.5513 0.8328
vn -0.3415 0.6314 0.6962
vn -0.0817 -0.6765 0.7319
vn -0.1098 -0.2847 0.9523
vn -0.2016 0.6874 0.6977
vn -0.1384 0.7127 0.6877
vn -0.1856 0.5212 0.8330
vn -0.2014 0.6060 0.7695
vn 0.0314 -0.8498 0.5262
vn -0.0586 -0.6929 0.7186
vn 0.1977 -0.6814 0.7047
usemtl mtl1.229
s 1
f 9//7 10//8 11//9
f 12//10 9//7 11//9
f 13//11 12//10 11//9
f 14//12 15//13 10//8
f 11//9 10//8 15//13
f 16//14 17//15 18//16
f 19//17 18//16 20//18
f 16//14 18//16 19//17
f 21//19 17//15 16//14
f 22//20 21//19 16//14
f 22//20 16//14 19//17
f 23//21 24//22 25//23
f 26//24 23//21 27//25
f 24//22 23//21 26//24
f 26//24 27//25 28//26
f 29//27 24//22 26//24
f 30//28 24//22 29//27
f 26//24 28//26 31//29
f 32//30 30//28 29//27
f 33//31 34//32 9//7
f 12//10 33//31 9//7
f 35//33 33//31 12//10
f 36//34 33//31 35//33
f 31//29 28//26 37//35
f 26//24 31//29 29//27
f 38//36 36//34 35//33
f 39//37 31//29 37//35
f 29//27 31//29 40//38
f 32//30 29//27 40//38
f 41//39 30//28 32//30
f 9//7 34//32 10//8
f 38//36 35//33 13//11
f 40//38 31//29 39//37
f 32//30 40//38 42//40
f 41//39 32//30 43//41
f 34//32 44//42 10//8
f 35//33 12//10 13//11
f 42//40 40//38 39//37
f 43//41 32//30 42//40
f 43//41 14//12 45//43
f 45//43 14//12 44//42
f 10//8 44//42 14//12
f 18//16 38//36 46//44
f 47//45 38//36 18//16
f 17//15 47//45 18//16
f 42//40 39//37 48//46
f 49//47 42//40 48//46
f 43//41 42//40 49//47
f 14//12 43//41 49//47
f 46//44 38//36 13//11
f 14//12 49//47 15//13
f 13//11 11//9 50//48
f 46//44 13//11 50//48
f 18//16 46//44 20//18
f 21//19 51//49 17//15
f 52//50 51//49 21//19
f 53//51 49//47 48//46
f 15//13 49//47 53//51
f 15//13 54//52 11//9
f 20//18 46//44 55//53
f 56//54 57//55 58//56
f 53//51 48//46 59//57
f 54//52 15//13 53//51
f 50//48 11//9 54//52
f 46//44 50//48 55//53
f 20//18 60//58 19//17
f 57//55 52//50 21//19
f 54//52 53//51 61//59
f 20//18 55//53 60//58
f 60//58 62//60 19//17
f 58//56 57//55 21//19
f 62//60 63//61 19//17
f 63//61 64//62 19//17
f 65//63 58//56 21//19
f 19//17 64//62 22//20
f 22//20 65//63 21//19
f 66//64 22//20 64//62
f 66//64 65//63 22//20
f 66//64 64//62 67//65
f 68//66 69//67 27//25
f 68//66 27//25 23//21
f 25//23 68//66 23//21
f 27//25 69//67 70//68
f 25//23 24//22 71//69
f 72//70 71//69 24//22
f 30//28 72//70 24//22
f 27//25 70//68 28//26
f 33//31 73//71 34//32
f 74//72 73//71 33//31
f 36//34 74//72 33//31
f 75//73 74//72 36//34
f 75//73 47//45 76//74
f 76//74 47//45 51//49
f 77//75 28//26 70//68
f 38//36 75//73 36//34
f 51//49 78//76 79//77
f 79//77 80//78 81//79
f 81//79 80//78 82//80
f 83//81 72//70 30//28
f 30//28 84//82 83//81
f 47//45 75//73 38//36
f 57//55 79//77 78//76
f 28//26 77//75 37//35
f 30//28 41//39 84//82
f 51//49 47//45 17//15
f 80//78 79//77 57//55
f 37//35 77//75 85//83
f 34//32 86//84 44//42
f 78//76 51//49 52//50
f 45//43 41//39 43//41
f 57//55 78//76 52//50
f 56//54 80//78 57//55
f 56//54 82//80 80//78
f 87//85 37//35 85//83
f 39//37 37//35 87//85
f 88//86 39//37 87//85
f 88//86 48//46 39//37
f 48//46 88//86 89//87
f 89//87 59//57 48//46
f 59//57 61//59 53//51
f 58//56 90//88 56//54
f 61//59 59//57 91//89
f 54//52 92//90 50//48
f 55//53 50//48 92//90
f 93//91 55//53 92//90
f 60//58 55//53 93//91
f 94//92 54//52 61//59
f 92//90 54//52 94//92
f 62//60 60//58 93//91
f 62//60 95//93 63//61
f 58//56 65//63 96//94
f 64//62 63//61 97//95
f 96//94 65//63 98//96
f 65//63 66//64 98//96
f 64//62 99//97 67//65
f 25//23 100//98 68//66
f 25//23 101//99 100//98
f 71//69 101//99 25//23
f 72//70 102//100 71//69
f 73//71 74//72 103//101
f 34//32 104//102 105//103
f 73//71 104//102 34//32
f 74//72 106//104 103//101
f 74//72 75//73 106//104
f 76//74 106//104 75//73
f 51//49 107//105 76//74
f 79//77 107//105 51//49
f 108//106 107//105 79//77
f 34//32 105//103 86//84
f 81//79 108//106 79//77
f 41//39 109//107 84//82
f 45//43 109//107 41//39
f 45//43 110//108 109//107
f 44//42 110//108 45//43
f 110//108 44//42 86//84
f 82//80 56//54 90//88
f 88//86 87//85 111//109
f 59//57 89//87 112//110
f 59//57 112//110 91//89
f 58//56 96//94 90//88
f 61//59 91//89 113//111
f 94//92 61//59 113//111
f 114//112 92//90 94//92
f 93//91 92//90 114//112
f 62//60 93//91 115//113
f 95//93 62//60 115//113
f 63//61 95//93 97//95
f 64//62 97//95 99//97
f 67//65 99//97 116//114
f 67//65 116//114 66//64
f 66//64 116//114 98//96
f 68//66 117//115 69//67
f 68//66 100//98 117//115
f 69//67 117//115 70//68
f 76//74 118//116 106//104
f 107//105 118//116 76//74
f 108//106 119//117 107//105
f 107//105 119//117 118//116
f 108//106 81//79 120//118
f 120//118 81//79 82//80
f 177//119 82//80 131//120
f 159//121 77//75 157//122
f 87//85 85//83 111//109
f 132//123 90//88 134//124
f 134//124 90//88 142//125
f 96//94 137//126 200//127
f 201//128 202//129 117//115
f 184//130 103//101 185//131
f 150//132 118//116 162//133
f 118//116 175//134 162//133
f 108//106 120//118 119//117
f 130//135 86//84 176//136
f 160//137 163//138 114//112
f 165//139 93//91 164//140
f 128//141 182//142 175//134
f 172//143 115//113 179//144
f 175//134 119//117 180//145
f 194//146 120//118 195//147
f 177//119 195//147 120//118
f 135//148 111//109 141//149
f 143//150 114//112 163//138
f 182//142 97//95 125//151
f 96//94 200//127 199//152
f 116//114 192//153 193//154
f 110//108 191//155 109//107
f 109//107 191//155 190//156
f 116//114 193//154 189//157
f 95//93 187//158 188//159
f 109//107 190//156 186//160
f 120//118 181//161 119//117
f 119//117 181//161 180//145
f 115//113 178//162 179//144
f 202//129 70//68 117//115
f 95//93 172//143 187//158
f 71//69 170//163 183//164
f 102//100 174//165 170//163
f 70//68 173//166 169//167
f 72//70 168//168 102//100
f 102//100 168//168 174//165
f 115//113 166//169 178//162
f 93//91 165//139 166//169
f 94//92 160//137 114//112
f 71//69 158//170 101//99
f 101//99 158//170 161//171
f 169//167 77//75 70//68
f 101//99 155//172 100//98
f 100//98 201//128 117//115
f 100//98 155//172 154//173
f 113//111 171//174 94//92
f 113//111 156//175 153//176
f 113//111 152//177 156//175
f 186//160 84//82 109//107
f 149//178 116//114 99//97
f 113//111 148//179 152//177
f 91//89 196//180 148//179
f 112//110 196//180 91//89
f 84//82 146//181 83//81
f 106//104 185//131 103//101
f 106//104 150//132 145//182
f 83//81 197//183 72//70
f 83//81 146//181 144//184
f 114//112 164//140 93//91
f 96//94 142//125 90//88
f 111//109 140//185 141//149
f 86//84 139//186 176//136
f 105//103 138//187 139//186
f 98//96 136//188 137//126
f 98//96 189//157 136//188
f 88//86 135//148 198//189
f 111//109 133//190 140//185
f 132//123 82//80 90//88
f 110//108 130//135 203//191
f 85//83 159//121 129//192
f 85//83 133//190 111//109
f 99//97 128//141 149//178
f 97//95 182//142 128//141
f 104//102 138//187 105//103
f 104//102 167//193 126//194
f 97//95 188//159 125//151
f 112//110 124//195 147//196
f 89//87 127//197 124//195
f 198//189 89//87 88//86
f 89//87 123//198 127//197
f 73//71 167//193 104//102
f 103//101 121//199 73//71
f 73//71 121//199 122//200
f 177//119 120//118 82//80
f 96//94 98//96 137//126
f 118//116 119//117 175//134
f 130//135 110//108 86//84
f 143//150 163//138 122//200
f 163//138 160//137 167//193
f 160//137 171//174 126//194
f 171//174 153//176 176//136
f 130//135 152//177 203//191
f 153//176 156//175 130//135
f 156//175 152//177 130//135
f 152//177 148//179 203//191
f 148//179 196//180 190//156
f 191//155 148//179 190//156
f 196//180 147//196 186//160
f 147//196 124//195 186//160
f 186//160 124//195 151//201
f 127//197 123//198 144//184
f 123//198 198//189 197//183
f 124//195 127//197 146//181
f 148//179 191//155 203//191
f 163//138 167//193 122//200
f 164//140 143//150 184//130
f 153//176 130//135 176//136
f 190//156 196//180 186//160
f 198//189 135//148 174//165
f 135//148 141//149 140//185
f 174//165 135//148 170//163
f 123//198 197//183 144//184
f 140//185 133//190 135//148
f 133//190 129//192 161//171
f 159//121 157//122 173//166
f 157//122 169//167 173//166
f 133//190 161//171 158//170
f 129//192 159//121 155//172
f 161//171 129//192 155//172
f 170//163 135//148 183//164
f 151//201 124//195 146//181
f 165//139 164//140 185//131
f 173//166 202//129 159//121
f 202//129 201//128 154//173
f 154//173 155//172 159//121
f 154//173 159//121 202//129
f 158//170 183//164 133//190
f 133//190 183//164 135//148
f 174//165 168//168 198//189
f 168//168 197//183 198//189
f 144//184 146//181 127//197
f 171//174 176//136 139//186
f 138//187 171//174 139//186
f 171//174 138//187 126//194
f 166//169 165//139 145//182
f 160//137 126//194 167//193
f 178//162 166//169 150//132
f 185//131 164//140 184//130
f 187//158 172//143 162//133
f 172//143 179//144 150//132
f 162//133 172//143 150//132
f 179//144 178//162 150//132
f 143//150 122//200 121//199
f 121//199 184//130 143//150
f 185//131 145//182 165//139
f 145//182 150//132 166//169
f 162//133 175//134 125//151
f 175//134 180//145 181//161
f 162//133 125//151 188//159
f 181//161 194//146 137//126
f 192//153 181//161 193//154
f 194//146 195//147 142//125
f 195//147 177//119 134//124
f 142//125 195//147 134//124
f 177//119 131//120 132//123
f 132//123 134//124 177//119
f 142//125 199//152 194//146
f 199//152 200//127 194//146
f 137//126 136//188 189//157
f 200//127 137//126 194//146
f 181//161 192//153 149//178
f 188//159 187//158 162//133
f 181//161 189//157 193//154
f 137//126 189//157 181//161
f 149//178 128//141 175//134
f 182//142 125//151 175//134
f 175//134 181//161 149//178
f 110//108 203//191 191//155
f 120//118 194//146 181//161
f 202//129 173//166 70//68
f 95//93 115//113 172//143
f 71//69 102//100 170//163
f 72//70 197//183 168//168
f 115//113 93//91 166//169
f 94//92 171//174 160//137
f 71//69 183//164 158//170
f 169//167 157//122 77//75
f 101//99 161//171 155//172
f 100//98 154//173 201//128
f 113//111 153//176 171//174
f 186//160 151//201 84//82
f 149//178 192//153 116//114
f 113//111 91//89 148//179
f 112//110 147//196 196//180
f 84//82 151//201 146//181
f 106//104 145//182 185//131
f 106//104 118//116 150//132
f 83//81 144//184 197//183
f 114//112 143//150 164//140
f 96//94 199//152 142//125
f 86//84 105//103 139//186
f 98//96 116//114 189//157
f 88//86 111//109 135//148
f 132//123 131//120 82//80
f 85//83 77//75 159//121
f 85//83 129//192 133//190
f 99//97 97//95 128//141
f 104//102 126//194 138//187
f 97//95 95//93 188//159
f 112//110 89//87 124//195
f 198//189 123//198 89//87
f 73//71 122//200 167//193
f 103//101 184//130 121//199
