# Blender v2.92.0 OBJ File: 'convert_to_one_sided.blend'
# www.blender.org
mtllib 230L.mtl
o 230
v 11.446553 7.050708 5.626658
v 11.361554 7.091198 5.631948
v 11.459253 7.118678 5.633469
v 11.532151 7.057678 5.635418
v 11.656050 7.093338 5.638978
v 11.203956 7.109128 5.638399
v 11.256355 7.134398 5.637188
v 12.301641 7.201226 5.619879
v 12.255642 7.116657 5.636569
v 12.082444 7.126307 5.633919
v 12.202343 7.221366 5.633799
v 11.998246 7.176167 5.639198
v 12.484839 7.172277 5.639628
v 12.429140 7.250676 5.639078
v 10.493665 6.922490 5.645188
v 10.649063 6.954599 5.645148
v 10.562864 6.911130 5.667738
v 10.526464 6.965620 5.638638
v 10.444566 6.936860 5.660818
v 10.454965 6.983819 5.654038
v 10.682563 7.004629 5.632578
v 10.855261 7.016569 5.650548
v 10.598864 7.024599 5.641238
v 10.870260 7.052488 5.638158
v 11.573252 6.997289 5.646868
v 11.413754 7.024859 5.661038
v 11.676649 7.034029 5.643058
v 11.750448 7.000299 5.654638
v 10.548564 7.049839 5.660768
v 11.860447 7.053468 5.647008
v 10.717062 7.081707 5.648978
v 10.747662 7.048058 5.637148
v 11.023759 7.065658 5.657828
v 10.888160 7.088528 5.639828
v 11.034457 7.089638 5.645108
v 11.291855 7.079348 5.658088
v 11.157956 7.086948 5.663938
v 11.844348 7.135547 5.641998
v 12.094045 7.039618 5.655308
v 10.901959 7.130957 5.653868
v 11.068058 7.121457 5.643649
v 11.639251 7.155057 5.646508
v 12.379841 7.057748 5.658248
v 12.515339 7.087858 5.649288
v 11.125257 7.161937 5.650058
v 11.395953 7.170237 5.653508
v 11.831248 7.178826 5.653578
v 12.704136 7.108747 5.662698
v 12.616637 7.090078 5.657388
v 12.649437 7.173867 5.664998
v 10.999859 7.169666 5.668328
v 12.004045 7.202026 5.649398
v 11.212955 7.189507 5.670618
v 12.080745 7.226856 5.660508
v 12.229743 7.258636 5.658168
v 12.367041 7.288885 5.659998
v 12.566638 7.253726 5.660808
v 12.488239 7.302085 5.666098
v 12.436240 7.316355 5.674908
v 10.465165 6.913660 5.672158
v 10.424767 6.928330 5.676758
v 10.420465 6.959050 5.683858
v 10.687162 6.935420 5.677218
v 10.789062 6.972749 5.673238
v 11.593751 6.964910 5.683578
v 11.750648 6.975840 5.670208
v 11.924946 6.999009 5.666628
v 12.132144 6.998939 5.677688
v 10.453165 7.013329 5.681077
v 12.542338 7.059778 5.656948
v 12.557038 7.023829 5.672588
v 12.659738 7.051228 5.672808
v 12.650637 7.020769 5.679108
v 12.688336 7.066958 5.680088
v 10.897459 7.008699 5.679408
v 10.980558 7.041418 5.677768
v 10.530364 7.060218 5.682968
v 11.327755 7.053078 5.686698
v 10.622064 7.081298 5.673687
v 10.729862 7.108347 5.676658
v 10.871861 7.144787 5.689228
v 12.698337 7.141657 5.690428
v 11.066657 7.188087 5.690248
v 11.644051 7.187686 5.668008
v 11.855647 7.200226 5.690048
v 11.430153 7.197866 5.682437
v 12.159744 7.254196 5.683248
v 12.648538 7.230416 5.688138
v 12.313941 7.286265 5.694247
v 12.572538 7.293425 5.691978
v 12.415240 7.313704 5.689358
v 10.499365 6.903790 5.696668
v 10.597963 6.914730 5.694287
v 10.754862 6.953340 5.695678
v 11.776448 6.962880 5.692888
v 11.457553 6.982619 5.693677
v 11.388153 7.023078 5.698867
v 11.938346 6.978749 5.688468
v 12.414640 7.000169 5.686358
v 12.583638 7.006559 5.686578
v 11.095357 7.070768 5.693788
v 11.227056 7.078718 5.693928
v 10.618163 7.083888 5.699888
v 10.973159 7.168757 5.690418
v 11.260555 7.199986 5.699267
v 11.587951 7.198297 5.699128
v 12.068845 7.232546 5.697668
v 12.496139 7.315965 5.698628
v 10.438965 6.928330 5.691868
v 12.196843 6.984759 5.696477
v 12.465740 6.999849 5.698658
v 12.637538 7.039739 5.693598
v 11.690193 6.958348 5.699999
v 11.584393 6.965941 5.699999
v 10.831572 7.131491 5.699999
v 10.946364 7.162889 5.699999
v 12.294908 7.280074 5.699999
v 11.465071 6.988387 5.699999
v 10.889528 7.145811 5.699999
v 12.350567 7.293428 5.699999
v 10.505350 7.043870 5.699999
v 11.255663 7.073739 5.699999
v 12.699950 7.090664 5.699999
v 12.700785 7.103781 5.699999
v 10.612487 7.081828 5.699999
v 12.699243 7.153031 5.699999
v 10.619921 7.084236 5.699999
v 12.572111 7.298594 5.699999
v 12.594788 7.279890 5.699999
v 11.393029 7.022443 5.699999
v 11.383434 7.025913 5.699999
v 10.617990 7.083763 5.699999
v 10.618553 7.083917 5.699999
v 12.684141 7.181619 5.699999
v 11.590628 7.197728 5.699999
v 10.852509 6.992544 5.699999
v 11.924207 6.972743 5.699999
v 10.968744 7.034956 5.699999
v 10.975824 7.169843 5.699999
v 11.089013 7.188149 5.699999
v 12.424399 7.312121 5.699999
v 12.085017 6.978845 5.699999
v 10.971336 7.035972 5.699999
v 11.254934 7.199492 5.699999
v 11.270821 7.200097 5.699999
v 10.494994 6.906547 5.699999
v 10.515206 6.907885 5.699999
v 11.262326 7.199823 5.699999
v 10.430338 7.000526 5.699999
v 10.643433 6.925465 5.699999
v 10.497127 7.038862 5.699999
v 11.573218 7.198565 5.699999
v 10.592252 6.917604 5.699999
v 12.199315 6.986642 5.699999
v 11.583800 7.198090 5.699999
v 11.793336 7.194988 5.699999
v 11.854692 7.196665 5.699999
v 11.909204 7.204638 5.699999
v 11.533011 6.972667 5.699999
v 10.839112 6.987215 5.699999
v 10.425897 6.992597 5.699999
v 10.702214 6.939975 5.699999
v 11.415892 7.200250 5.699999
v 12.104816 7.240277 5.699999
v 10.430118 6.964499 5.699999
v 10.752233 6.956587 5.699999
v 12.433859 6.998857 5.699999
v 11.325688 7.057334 5.699999
v 12.683243 7.078334 5.699999
v 12.067063 7.231171 5.699999
v 12.079288 7.233609 5.699999
v 12.463265 7.002029 5.699999
v 12.472048 7.004615 5.699999
v 12.321865 7.285734 5.699999
v 10.668990 6.931457 5.699999
v 11.694507 6.958405 5.699999
v 11.857617 6.966969 5.699999
v 10.983137 7.039205 5.699999
v 12.157666 7.251993 5.699999
v 12.201065 7.258455 5.699999
v 12.503494 7.315065 5.699999
v 11.081496 7.069850 5.699999
v 11.111635 7.074002 5.699999
v 12.490553 7.315423 5.699999
v 12.497809 7.315318 5.699999
v 12.627423 7.050582 5.699999
v 12.647686 7.059923 5.699999
v 11.005081 7.175895 5.699999
v 10.849759 6.991623 5.699999
v 10.771563 7.114995 5.699999
v 12.664492 7.217937 5.699999
v 12.634741 7.247849 5.699999
v 10.446043 6.927470 5.699999
v 10.439201 6.942353 5.699999
v 11.217211 7.080334 5.699999
vn -0.0702 -0.2635 -0.9621
vn -0.1302 -0.3038 -0.9438
vn 0.0175 0.1558 -0.9876
vn 0.0566 -0.0628 -0.9964
vn 0.0273 0.0166 -0.9995
vn -0.0411 -0.4048 -0.9135
vn -0.0219 0.1760 -0.9841
vn 0.0094 0.0479 -0.9988
vn 0.0335 -0.2316 -0.9722
vn -0.0276 -0.0674 -0.9973
vn -0.0941 0.4426 -0.8918
vn -0.0686 0.2396 -0.9684
vn 0.0961 -0.0397 -0.9946
vn 0.0561 0.3214 -0.9453
vn -0.1226 -0.5471 -0.8280
vn 0.1461 -0.5419 -0.8277
vn 0.0951 -0.9179 -0.3853
vn -0.1143 -0.0376 -0.9927
vn -0.4958 -0.2456 -0.8330
vn -0.4410 0.2828 -0.8518
vn 0.0282 -0.1037 -0.9942
vn 0.2176 -0.6161 -0.7570
vn -0.1147 0.2667 -0.9569
vn 0.0853 -0.2011 -0.9758
vn -0.0223 -0.4969 -0.8675
vn -0.2995 -0.7645 -0.5708
vn 0.0364 -0.1569 -0.9869
vn 0.0517 -0.3720 -0.9268
vn -0.2676 0.6201 -0.7375
vn 0.0240 -0.1807 -0.9832
vn -0.1299 0.5294 -0.8384
vn -0.0340 0.1729 -0.9844
vn 0.2031 -0.7238 -0.6594
vn -0.0136 0.1576 -0.9874
vn 0.0685 -0.3396 -0.9381
vn -0.1914 -0.8103 -0.5539
vn 0.0468 -0.8513 -0.5226
vn -0.0222 0.1000 -0.9947
vn 0.0251 -0.3352 -0.9418
vn -0.1311 0.5936 -0.7940
vn -0.0293 0.1119 -0.9933
vn 0.0008 0.3437 -0.9391
vn 0.0129 -0.3388 -0.9408
vn 0.0296 -0.1676 -0.9854
vn -0.0458 0.4782 -0.8770
vn 0.0011 0.5530 -0.8332
vn -0.0565 0.5755 -0.8158
vn 0.6183 -0.0769 -0.7821
vn 0.1127 -0.1528 -0.9818
vn 0.3608 0.2495 -0.8987
vn -0.1569 0.8437 -0.5135
vn -0.1302 0.6669 -0.7337
vn -0.0344 0.8359 -0.5478
vn -0.1824 0.8570 -0.4820
vn -0.1755 0.8408 -0.5121
vn -0.1508 0.7494 -0.6447
vn 0.2655 0.3491 -0.8987
vn 0.1404 0.6575 -0.7403
vn -0.0482 0.9130 -0.4052
vn -0.2921 -0.9073 -0.3026
vn -0.7580 -0.6126 -0.2240
vn -0.9876 0.0439 -0.1507
vn 0.2507 -0.9286 -0.2735
vn 0.3059 -0.8590 -0.4105
vn -0.0841 -0.9204 -0.3818
vn 0.0426 -0.7175 -0.6953
vn 0.0506 -0.5128 -0.8570
vn 0.0383 -0.6229 -0.7813
vn -0.6100 0.6900 -0.3896
vn 0.0572 -0.3027 -0.9514
vn 0.0640 -0.4974 -0.8651
vn 0.3048 -0.3942 -0.8670
vn 0.4601 -0.8321 -0.3097
vn 0.8640 -0.4985 -0.0709
vn 0.3319 -0.9027 -0.2739
vn 0.2997 -0.8889 -0.3464
vn -0.3722 0.9061 -0.2008
vn -0.3558 -0.9260 -0.1263
vn -0.2218 0.8731 -0.4342
vn -0.2173 0.9330 -0.2870
vn -0.2509 0.9656 -0.0689
vn 0.9252 0.2172 -0.3112
vn -0.1248 0.9885 -0.0857
vn -0.0037 0.8054 -0.5927
vn -0.0949 0.9940 -0.0546
vn 0.0036 0.9284 -0.3716
vn -0.2078 0.9762 -0.0627
vn 0.6099 0.5340 -0.5855
vn -0.2268 0.9714 0.0702
vn 0.3998 0.7513 -0.5251
vn -0.1858 0.9825 -0.0139
vn -0.1042 -0.9650 0.2405
vn 0.1599 -0.9688 0.1894
vn 0.3174 -0.9274 0.1979
vn 0.0461 -0.9439 -0.3271
vn -0.3062 -0.9423 0.1355
vn -0.4248 -0.8776 0.2224
vn 0.0595 -0.8418 -0.5365
vn 0.0346 -0.8129 -0.5814
vn 0.1508 -0.9885 -0.0066
vn 0.1852 -0.9822 -0.0327
vn -0.1032 -0.9921 -0.0716
vn -0.2524 0.9362 0.2444
vn -0.2140 0.9696 -0.1182
vn -0.0366 0.9991 0.0229
vn 0.0235 0.9938 0.1090
vn -0.2061 0.9607 0.1860
vn 0.0916 0.9946 -0.0489
vn -0.6397 -0.6490 0.4118
vn 0.0541 -0.9855 -0.1607
vn 0.0997 -0.8022 0.5887
vn 0.3154 -0.5752 0.7548
vn 0.3363 -0.2016 0.9199
vn 0.8364 -0.0134 0.5480
vn -0.3474 0.5537 0.7567
vn -0.7598 0.5250 0.3835
vn 0.8956 -0.0728 0.4389
vn 0.7668 0.3104 0.5619
vn 0.7311 0.4590 0.5047
vn 0.4510 0.6683 0.5915
vn 0.5289 0.6308 0.5678
vn -0.2864 -0.4789 0.8299
vn -0.4788 -0.2222 0.8493
vn 0.0024 -0.8296 0.5584
vn 0.1224 -0.8510 0.5107
vn 0.0065 -0.8186 0.5744
vn 0.0520 -0.5509 0.8329
vn 0.0579 -0.3981 0.9155
vn -0.1488 -0.5918 0.7922
vn -0.1725 -0.5847 0.7927
vn -0.0110 0.7484 0.6631
vn -0.0060 0.5331 0.8460
vn -0.0624 0.5365 0.8416
vn 0.0004 0.4976 0.8674
vn -0.1317 0.5806 0.8034
vn -0.1648 0.5318 0.8307
vn -0.0881 0.6866 0.7217
vn -0.1701 0.4706 0.8658
vn 0.0908 -0.1673 0.9817
vn 0.1872 -0.0862 0.9785
vn 0.1868 -0.3253 0.9270
vn -0.1258 0.6750 0.7270
vn -0.1217 0.4759 0.8710
vn 0.0334 0.4895 0.8714
vn -0.1491 0.5603 0.8148
vn 0.7669 0.4723 0.4345
vn 0.0074 0.6153 0.7883
vn 0.0185 0.5906 0.8067
vn 0.1558 -0.5085 0.8469
vn 0.1108 -0.4860 0.8669
vn 0.1715 0.8711 0.4602
vn -0.1225 0.6146 0.7793
vn -0.0930 0.6350 0.7669
vn 0.1639 -0.7203 0.6740
vn 0.0448 -0.0973 0.9942
vn -0.1703 0.5545 0.8146
vn 0.1878 -0.6881 0.7009
vn 0.1324 -0.7423 0.6568
vn 0.1246 -0.4151 0.9012
vn -0.4331 -0.1456 0.8895
vn -0.8444 0.3827 0.3749
vn 0.3018 -0.7365 0.6054
vn -0.1095 0.5478 0.8294
vn 0.1892 -0.6752 0.7130
vn 0.0861 -0.4617 0.8829
vn 0.0771 -0.4519 0.8887
vn -0.2419 -0.6136 0.7517
vn -0.0523 0.7545 0.6543
vn -0.0449 0.6039 0.7958
vn 0.0084 0.7399 0.6727
vn -0.0552 0.6690 0.7412
vn -0.0487 0.6904 0.7218
vn -0.0675 0.6387 0.7665
vn -0.1528 0.7022 0.6953
vn 0.2533 -0.6593 0.7079
vn 0.0244 -0.8599 0.5098
vn 0.2493 -0.6411 0.7258
vn 0.2050 -0.7191 0.6640
vn -0.1796 0.4743 0.8618
vn -0.2850 -0.5343 0.7958
vn -0.0914 -0.3004 0.9494
vn 0.3364 0.7805 0.5269
vn -0.1550 0.5996 0.7851
vn -0.1920 0.5106 0.8381
vn -0.0499 -0.5513 0.8328
vn -0.3415 0.6314 0.6962
vn -0.0817 -0.6765 0.7319
vn -0.1098 -0.2847 0.9523
vn -0.2016 0.6874 0.6977
vn -0.1384 0.7127 0.6877
vn -0.1856 0.5212 0.8330
vn -0.2014 0.6060 0.7695
vn 0.0314 -0.8498 0.5262
vn -0.0586 -0.6929 0.7186
vn 0.1977 -0.6814 0.7047
usemtl mtl1.1080
s 1
f 1//1 2//2 3//3
f 4//4 1//1 3//3
f 5//5 4//4 3//3
f 6//6 7//7 2//2
f 3//3 2//2 7//7
f 8//8 9//9 10//10
f 11//11 10//10 12//12
f 8//8 10//10 11//11
f 13//13 9//9 8//8
f 14//14 13//13 8//8
f 14//14 8//8 11//11
f 15//15 16//16 17//17
f 18//18 15//15 19//19
f 16//16 15//15 18//18
f 18//18 19//19 20//20
f 21//21 16//16 18//18
f 22//22 16//16 21//21
f 18//18 20//20 23//23
f 24//24 22//22 21//21
f 25//25 26//26 1//1
f 4//4 25//25 1//1
f 27//27 25//25 4//4
f 28//28 25//25 27//27
f 23//23 20//20 29//29
f 18//18 23//23 21//21
f 30//30 28//28 27//27
f 31//31 23//23 29//29
f 21//21 23//23 32//32
f 24//24 21//21 32//32
f 33//33 22//22 24//24
f 1//1 26//26 2//2
f 30//30 27//27 5//5
f 32//32 23//23 31//31
f 24//24 32//32 34//34
f 33//33 24//24 35//35
f 26//26 36//36 2//2
f 27//27 4//4 5//5
f 34//34 32//32 31//31
f 35//35 24//24 34//34
f 35//35 6//6 37//37
f 37//37 6//6 36//36
f 2//2 36//36 6//6
f 10//10 30//30 38//38
f 39//39 30//30 10//10
f 9//9 39//39 10//10
f 34//34 31//31 40//40
f 41//41 34//34 40//40
f 35//35 34//34 41//41
f 6//6 35//35 41//41
f 38//38 30//30 5//5
f 6//6 41//41 7//7
f 5//5 3//3 42//42
f 38//38 5//5 42//42
f 10//10 38//38 12//12
f 13//13 43//43 9//9
f 44//44 43//43 13//13
f 45//45 41//41 40//40
f 7//7 41//41 45//45
f 7//7 46//46 3//3
f 12//12 38//38 47//47
f 48//48 49//49 50//50
f 45//45 40//40 51//51
f 46//46 7//7 45//45
f 42//42 3//3 46//46
f 38//38 42//42 47//47
f 12//12 52//52 11//11
f 49//49 44//44 13//13
f 46//46 45//45 53//53
f 12//12 47//47 52//52
f 52//52 54//54 11//11
f 50//50 49//49 13//13
f 54//54 55//55 11//11
f 55//55 56//56 11//11
f 57//57 50//50 13//13
f 11//11 56//56 14//14
f 14//14 57//57 13//13
f 58//58 14//14 56//56
f 58//58 57//57 14//14
f 58//58 56//56 59//59
f 60//60 61//61 19//19
f 60//60 19//19 15//15
f 17//17 60//60 15//15
f 19//19 61//61 62//62
f 17//17 16//16 63//63
f 64//64 63//63 16//16
f 22//22 64//64 16//16
f 19//19 62//62 20//20
f 25//25 65//65 26//26
f 66//66 65//65 25//25
f 28//28 66//66 25//25
f 67//67 66//66 28//28
f 67//67 39//39 68//68
f 68//68 39//39 43//43
f 69//69 20//20 62//62
f 30//30 67//67 28//28
f 43//43 70//70 71//71
f 71//71 72//72 73//73
f 73//73 72//72 74//74
f 75//75 64//64 22//22
f 22//22 76//76 75//75
f 39//39 67//67 30//30
f 49//49 71//71 70//70
f 20//20 69//69 29//29
f 22//22 33//33 76//76
f 43//43 39//39 9//9
f 72//72 71//71 49//49
f 29//29 69//69 77//77
f 26//26 78//78 36//36
f 70//70 43//43 44//44
f 37//37 33//33 35//35
f 49//49 70//70 44//44
f 48//48 72//72 49//49
f 48//48 74//74 72//72
f 79//79 29//29 77//77
f 31//31 29//29 79//79
f 80//80 31//31 79//79
f 80//80 40//40 31//31
f 40//40 80//80 81//81
f 81//81 51//51 40//40
f 51//51 53//53 45//45
f 50//50 82//82 48//48
f 53//53 51//51 83//83
f 46//46 84//84 42//42
f 47//47 42//42 84//84
f 85//85 47//47 84//84
f 52//52 47//47 85//85
f 86//86 46//46 53//53
f 84//84 46//46 86//86
f 54//54 52//52 85//85
f 54//54 87//87 55//55
f 50//50 57//57 88//88
f 56//56 55//55 89//89
f 88//88 57//57 90//90
f 57//57 58//58 90//90
f 56//56 91//91 59//59
f 17//17 92//92 60//60
f 17//17 93//93 92//92
f 63//63 93//93 17//17
f 64//64 94//94 63//63
f 65//65 66//66 95//95
f 26//26 96//96 97//97
f 65//65 96//96 26//26
f 66//66 98//98 95//95
f 66//66 67//67 98//98
f 68//68 98//98 67//67
f 43//43 99//99 68//68
f 71//71 99//99 43//43
f 100//100 99//99 71//71
f 26//26 97//97 78//78
f 73//73 100//100 71//71
f 33//33 101//101 76//76
f 37//37 101//101 33//33
f 37//37 102//102 101//101
f 36//36 102//102 37//37
f 102//102 36//36 78//78
f 74//74 48//48 82//82
f 80//80 79//79 103//103
f 51//51 81//81 104//104
f 51//51 104//104 83//83
f 50//50 88//88 82//82
f 53//53 83//83 105//105
f 86//86 53//53 105//105
f 106//106 84//84 86//86
f 85//85 84//84 106//106
f 54//54 85//85 107//107
f 87//87 54//54 107//107
f 55//55 87//87 89//89
f 56//56 89//89 91//91
f 59//59 91//91 108//108
f 59//59 108//108 58//58
f 58//58 108//108 90//90
f 60//60 109//109 61//61
f 60//60 92//92 109//109
f 61//61 109//109 62//62
f 68//68 110//110 98//98
f 99//99 110//110 68//68
f 100//100 111//111 99//99
f 99//99 111//111 110//110
f 100//100 73//73 112//112
f 112//112 73//73 74//74
f 169//113 74//74 123//114
f 151//115 69//69 149//116
f 79//79 77//77 103//103
f 124//117 82//82 126//118
f 126//118 82//82 134//119
f 88//88 129//120 192//121
f 193//122 194//123 109//109
f 176//124 95//95 177//125
f 142//126 110//110 154//127
f 110//110 167//128 154//127
f 100//100 112//112 111//111
f 122//129 78//78 168//130
f 152//131 155//132 106//106
f 157//133 85//85 156//134
f 120//135 174//136 167//128
f 164//137 107//107 171//138
f 167//128 111//111 172//139
f 186//140 112//112 187//141
f 169//113 187//141 112//112
f 127//142 103//103 133//143
f 135//144 106//106 155//132
f 174//136 89//89 117//145
f 88//88 192//121 191//146
f 108//108 184//147 185//148
f 102//102 183//149 101//101
f 101//101 183//149 182//150
f 108//108 185//148 181//151
f 87//87 179//152 180//153
f 101//101 182//150 178//154
f 112//112 173//155 111//111
f 111//111 173//155 172//139
f 107//107 170//156 171//138
f 194//123 62//62 109//109
f 87//87 164//137 179//152
f 63//63 162//157 175//158
f 94//94 166//159 162//157
f 62//62 165//160 161//161
f 64//64 160//162 94//94
f 94//94 160//162 166//159
f 107//107 158//163 170//156
f 85//85 157//133 158//163
f 86//86 152//131 106//106
f 63//63 150//164 93//93
f 93//93 150//164 153//165
f 161//161 69//69 62//62
f 93//93 147//166 92//92
f 92//92 193//122 109//109
f 92//92 147//166 146//167
f 105//105 163//168 86//86
f 105//105 148//169 145//170
f 105//105 144//171 148//169
f 178//154 76//76 101//101
f 141//172 108//108 91//91
f 105//105 140//173 144//171
f 83//83 188//174 140//173
f 104//104 188//174 83//83
f 76//76 138//175 75//75
f 98//98 177//125 95//95
f 98//98 142//126 137//176
f 75//75 189//177 64//64
f 75//75 138//175 136//178
f 106//106 156//134 85//85
f 88//88 134//119 82//82
f 103//103 132//179 133//143
f 78//78 131//180 168//130
f 97//97 130//181 131//180
f 90//90 128//182 129//120
f 90//90 181//151 128//182
f 80//80 127//142 190//183
f 103//103 125//184 132//179
f 124//117 74//74 82//82
f 102//102 122//129 195//185
f 77//77 151//115 121//186
f 77//77 125//184 103//103
f 91//91 120//135 141//172
f 89//89 174//136 120//135
f 96//96 130//181 97//97
f 96//96 159//187 118//188
f 89//89 180//153 117//145
f 104//104 116//189 139//190
f 81//81 119//191 116//189
f 190//183 81//81 80//80
f 81//81 115//192 119//191
f 65//65 159//187 96//96
f 95//95 113//193 65//65
f 65//65 113//193 114//194
f 169//113 112//112 74//74
f 88//88 90//90 129//120
f 110//110 111//111 167//128
f 122//129 102//102 78//78
f 135//144 155//132 114//194
f 155//132 152//131 159//187
f 152//131 163//168 118//188
f 163//168 145//170 168//130
f 122//129 144//171 195//185
f 145//170 148//169 122//129
f 148//169 144//171 122//129
f 144//171 140//173 195//185
f 140//173 188//174 182//150
f 183//149 140//173 182//150
f 188//174 139//190 178//154
f 139//190 116//189 178//154
f 178//154 116//189 143//195
f 119//191 115//192 136//178
f 115//192 190//183 189//177
f 116//189 119//191 138//175
f 140//173 183//149 195//185
f 155//132 159//187 114//194
f 156//134 135//144 176//124
f 145//170 122//129 168//130
f 182//150 188//174 178//154
f 190//183 127//142 166//159
f 127//142 133//143 132//179
f 166//159 127//142 162//157
f 115//192 189//177 136//178
f 132//179 125//184 127//142
f 125//184 121//186 153//165
f 151//115 149//116 165//160
f 149//116 161//161 165//160
f 125//184 153//165 150//164
f 121//186 151//115 147//166
f 153//165 121//186 147//166
f 162//157 127//142 175//158
f 143//195 116//189 138//175
f 157//133 156//134 177//125
f 165//160 194//123 151//115
f 194//123 193//122 146//167
f 146//167 147//166 151//115
f 146//167 151//115 194//123
f 150//164 175//158 125//184
f 125//184 175//158 127//142
f 166//159 160//162 190//183
f 160//162 189//177 190//183
f 136//178 138//175 119//191
f 163//168 168//130 131//180
f 130//181 163//168 131//180
f 163//168 130//181 118//188
f 158//163 157//133 137//176
f 152//131 118//188 159//187
f 170//156 158//163 142//126
f 177//125 156//134 176//124
f 179//152 164//137 154//127
f 164//137 171//138 142//126
f 154//127 164//137 142//126
f 171//138 170//156 142//126
f 135//144 114//194 113//193
f 113//193 176//124 135//144
f 177//125 137//176 157//133
f 137//176 142//126 158//163
f 154//127 167//128 117//145
f 167//128 172//139 173//155
f 154//127 117//145 180//153
f 173//155 186//140 129//120
f 184//147 173//155 185//148
f 186//140 187//141 134//119
f 187//141 169//113 126//118
f 134//119 187//141 126//118
f 169//113 123//114 124//117
f 124//117 126//118 169//113
f 134//119 191//146 186//140
f 191//146 192//121 186//140
f 129//120 128//182 181//151
f 192//121 129//120 186//140
f 173//155 184//147 141//172
f 180//153 179//152 154//127
f 173//155 181//151 185//148
f 129//120 181//151 173//155
f 141//172 120//135 167//128
f 174//136 117//145 167//128
f 167//128 173//155 141//172
f 102//102 195//185 183//149
f 112//112 186//140 173//155
f 194//123 165//160 62//62
f 87//87 107//107 164//137
f 63//63 94//94 162//157
f 64//64 189//177 160//162
f 107//107 85//85 158//163
f 86//86 163//168 152//131
f 63//63 175//158 150//164
f 161//161 149//116 69//69
f 93//93 153//165 147//166
f 92//92 146//167 193//122
f 105//105 145//170 163//168
f 178//154 143//195 76//76
f 141//172 184//147 108//108
f 105//105 83//83 140//173
f 104//104 139//190 188//174
f 76//76 143//195 138//175
f 98//98 137//176 177//125
f 98//98 110//110 142//126
f 75//75 136//178 189//177
f 106//106 135//144 156//134
f 88//88 191//146 134//119
f 78//78 97//97 131//180
f 90//90 108//108 181//151
f 80//80 103//103 127//142
f 124//117 123//114 74//74
f 77//77 69//69 151//115
f 77//77 121//186 125//184
f 91//91 89//89 120//135
f 96//96 118//188 130//181
f 89//89 87//87 180//153
f 104//104 81//81 116//189
f 190//183 115//192 81//81
f 65//65 114//194 159//187
f 95//95 176//124 113//193
