# Blender v2.92.0 OBJ File: 'convert_to_one_sided.blend'
# www.blender.org
mtllib 231L.mtl
o Cube
v 0.001000 0.001000 -0.001000
v 0.001000 -0.001000 -0.001000
v 0.001000 0.001000 0.001000
v 0.001000 -0.001000 0.001000
v -0.001000 0.001000 -0.001000
v -0.001000 -0.001000 -0.001000
v -0.001000 0.001000 0.001000
v -0.001000 -0.001000 0.001000
vt 0.625000 0.500000
vt 0.875000 0.500000
vt 0.875000 0.750000
vt 0.625000 0.750000
vt 0.375000 0.750000
vt 0.625000 1.000000
vt 0.375000 1.000000
vt 0.375000 0.000000
vt 0.625000 0.000000
vt 0.625000 0.250000
vt 0.375000 0.250000
vt 0.125000 0.500000
vt 0.375000 0.500000
vt 0.125000 0.750000
vn 0.0000 1.0000 0.0000
vn 0.0000 0.0000 1.0000
vn -1.0000 0.0000 0.0000
vn 0.0000 -1.0000 0.0000
vn 1.0000 0.0000 0.0000
vn 0.0000 0.0000 -1.0000
usemtl Material
s off
f 1/1/1 5/2/1 7/3/1 3/4/1
f 4/5/2 3/4/2 7/6/2 8/7/2
f 8/8/3 7/9/3 5/10/3 6/11/3
f 6/12/4 2/13/4 4/5/4 8/14/4
f 2/13/5 1/1/5 3/4/5 4/5/5
f 6/11/6 5/10/6 1/1/6 2/13/6
o 231
v 9.652216 4.554181 5.347592
v 9.563667 4.588670 5.328423
v 9.630646 4.629099 5.347572
v 9.458458 4.624109 5.337122
v 9.481438 4.680059 5.334692
v 9.570327 4.670139 5.342482
v 9.601827 4.508911 5.365402
v 9.511687 4.558210 5.360662
v 9.424079 4.619930 5.373852
v 9.412279 4.679339 5.361332
v 9.678875 4.617219 5.385722
v 9.620606 4.703798 5.386871
v 9.513238 4.735118 5.364952
v 9.424058 4.734338 5.371382
v 9.556917 4.501071 5.397941
v 9.662645 4.531111 5.406301
v 9.379069 4.670199 5.395872
v 9.381399 4.715338 5.393862
v 9.400820 4.765368 5.405921
v 9.462038 4.774648 5.402541
v 9.608096 4.492961 5.413021
v 9.482718 4.555040 5.409061
v 9.699535 4.595720 5.432051
v 9.548247 4.770848 5.420961
v 9.567396 4.512701 5.447881
v 9.687265 4.541461 5.454310
v 9.413529 4.626140 5.427411
v 9.380689 4.693948 5.422071
v 9.683935 4.670218 5.445561
v 9.627707 4.740538 5.464000
v 9.424539 4.781027 5.441421
v 9.494118 4.787848 5.450151
v 9.641446 4.517721 5.452831
v 9.496408 4.560560 5.454891
v 9.392259 4.737378 5.433261
v 9.561976 4.775848 5.485690
v 9.414359 4.685298 5.466910
v 9.430688 4.752118 5.474620
v 9.678885 4.551980 5.486131
v 9.692816 4.608240 5.484910
v 9.472368 4.603860 5.475620
v 9.498408 4.769207 5.494140
v 9.533037 4.576510 5.496200
v 9.671585 4.687289 5.501550
v 9.622076 4.739088 5.508270
v 9.623036 4.567290 5.502040
v 9.675316 4.595760 5.510130
v 9.486618 4.649259 5.505950
v 9.674326 4.642449 5.521090
v 9.491757 4.708889 5.509650
v 9.582577 4.750408 5.518920
v 9.566546 4.650909 5.528250
v 9.641156 4.641899 5.530370
v 9.623756 4.701068 5.527740
v 9.564847 4.712318 5.523810
v 9.599987 4.676259 5.527100
vn 0.5611 -0.2725 -0.7816
vn 0.0075 -0.1604 -0.9870
vn 0.4340 0.2619 -0.8620
vn -0.4084 -0.2808 -0.8685
vn -0.1143 0.2414 -0.9637
vn 0.2287 0.3562 -0.9060
vn 0.0882 -0.7630 -0.6403
vn -0.4241 -0.6480 -0.6327
vn -0.6966 -0.5705 -0.4351
vn -0.5904 0.0039 -0.8071
vn 0.8345 0.1429 -0.5322
vn 0.5288 0.5914 -0.6088
vn 0.1373 0.6160 -0.7757
vn -0.3160 0.4807 -0.8180
vn -0.3787 -0.9088 -0.1750
vn 0.7187 -0.6323 -0.2893
vn -0.9233 -0.2905 -0.2514
vn -0.8940 0.2434 -0.3763
vn -0.6278 0.7047 -0.3306
vn -0.0450 0.8682 -0.4942
vn 0.1836 -0.9826 0.0275
vn -0.6257 -0.7800 -0.0044
vn 0.9777 -0.0794 -0.1945
vn 0.3069 0.8701 -0.3857
vn -0.2624 -0.8244 0.5016
vn 0.8232 -0.5571 0.1101
vn -0.7652 -0.5618 0.3144
vn -0.9403 -0.0832 0.3301
vn 0.8905 0.4239 -0.1652
vn 0.6260 0.7710 -0.1169
vn -0.4372 0.8640 0.2497
vn 0.0125 0.9993 0.0345
vn 0.2832 -0.8688 0.4061
vn -0.5484 -0.6913 0.4706
vn -0.8702 0.3188 0.3756
vn 0.2555 0.9378 0.2349
vn -0.6756 -0.1309 0.7255
vn -0.5623 0.3336 0.7567
vn 0.5354 -0.5575 0.6345
vn 0.9472 -0.0246 0.3196
vn -0.5703 -0.4661 0.6764
vn -0.1984 0.6367 0.7452
vn -0.3084 -0.5066 0.8052
vn 0.8053 0.4519 0.3838
vn 0.5275 0.6946 0.4891
vn -0.0011 -0.5263 0.8503
vn 0.4744 -0.2994 0.8278
vn -0.4141 -0.2165 0.8841
vn 0.6251 0.0781 0.7766
vn -0.3325 0.1014 0.9376
vn 0.1010 0.5496 0.8293
vn -0.1360 -0.1223 0.9831
vn 0.0938 -0.1156 0.9889
vn 0.2447 0.2452 0.9381
vn -0.1176 0.1515 0.9814
vn -0.0306 0.0567 0.9979
usemtl mtl1.230
s 1
f 9//7 10//8 11//9
f 10//8 12//10 13//11
f 14//12 10//8 13//11
f 11//9 10//8 14//12
f 15//13 16//14 10//8
f 9//7 15//13 10//8
f 10//8 16//14 12//10
f 16//14 17//15 12//10
f 12//10 17//15 18//16
f 12//10 18//16 13//11
f 19//17 11//9 20//18
f 14//12 20//18 11//9
f 13//11 21//19 14//12
f 21//19 20//18 14//12
f 18//16 22//20 13//11
f 22//20 21//19 13//11
f 15//13 23//21 16//14
f 15//13 9//7 24//22
f 19//17 24//22 9//7
f 9//7 11//9 19//17
f 25//23 18//16 17//15
f 25//23 26//24 18//16
f 18//16 26//24 22//20
f 26//24 27//25 22//20
f 21//19 22//20 28//26
f 15//13 29//27 23//21
f 15//13 24//22 29//27
f 23//21 30//28 16//14
f 24//22 19//17 31//29
f 20//18 21//19 32//30
f 22//20 27//25 28//26
f 32//30 21//19 28//26
f 33//31 23//21 29//27
f 23//21 33//31 30//28
f 34//32 24//22 31//29
f 17//15 30//28 35//33
f 16//14 30//28 17//15
f 35//33 25//23 17//15
f 25//23 36//34 26//24
f 19//17 20//18 37//35
f 38//36 20//18 32//30
f 28//26 27//25 39//37
f 32//30 28//26 40//38
f 24//22 41//39 29//27
f 24//22 34//32 41//39
f 30//28 33//31 42//40
f 35//33 30//28 42//40
f 35//33 36//34 25//23
f 36//34 43//41 26//24
f 37//35 20//18 38//36
f 27//25 26//24 43//41
f 27//25 43//41 39//37
f 38//36 32//30 44//42
f 28//26 39//37 40//38
f 44//42 32//30 40//38
f 37//35 31//29 19//17
f 43//41 36//34 45//43
f 46//44 43//41 45//43
f 41//39 34//32 47//45
f 48//46 34//32 31//29
f 42//40 49//47 35//33
f 35//33 45//43 36//34
f 43//41 46//44 39//37
f 40//38 39//37 50//48
f 33//31 29//27 41//39
f 33//31 51//49 42//40
f 34//32 48//46 47//45
f 51//49 49//47 42//40
f 35//33 49//47 45//43
f 31//29 37//35 48//46
f 48//46 37//35 52//50
f 52//50 37//35 38//36
f 39//37 46//44 50//48
f 38//36 44//42 53//51
f 40//38 50//48 44//42
f 33//31 41//39 54//52
f 51//49 33//31 54//52
f 47//45 54//52 41//39
f 55//53 47//45 48//46
f 56//54 49//47 51//49
f 57//55 55//53 48//46
f 49//47 56//54 45//43
f 58//56 46//44 45//43
f 52//50 38//36 53//51
f 50//48 46//44 58//56
f 44//42 50//48 59//57
f 44//42 59//57 53//51
f 54//52 47//45 55//53
f 56//54 58//56 45//43
f 57//55 48//46 52//50
f 51//49 54//52 60//58
f 51//49 60//58 56//54
f 55//53 61//59 54//52
f 61//59 60//58 54//52
f 55//53 57//55 61//59
f 62//60 61//59 57//55
f 60//58 58//56 56//54
f 57//55 52//50 62//60
f 63//61 58//56 60//58
f 52//50 53//51 62//60
f 50//48 58//56 63//61
f 62//60 59//57 63//61
f 62//60 53//51 59//57
f 63//61 59//57 50//48
f 61//59 64//62 60//58
f 61//59 62//60 64//62
f 60//58 64//62 63//61
f 62//60 63//61 64//62
