# Blender v2.92.0 OBJ File: 'convert_to_one_sided.blend'
# www.blender.org
mtllib 231L.mtl
o 231
v 9.652216 4.554181 5.347592
v 9.563667 4.588670 5.328423
v 9.630646 4.629099 5.347572
v 9.458458 4.624109 5.337122
v 9.481438 4.680059 5.334692
v 9.570327 4.670139 5.342482
v 9.601827 4.508911 5.365402
v 9.511687 4.558210 5.360662
v 9.424079 4.619930 5.373852
v 9.412279 4.679339 5.361332
v 9.678875 4.617219 5.385722
v 9.620606 4.703798 5.386871
v 9.513238 4.735118 5.364952
v 9.424058 4.734338 5.371382
v 9.556917 4.501071 5.397941
v 9.662645 4.531111 5.406301
v 9.379069 4.670199 5.395872
v 9.381399 4.715338 5.393862
v 9.400820 4.765368 5.405921
v 9.462038 4.774648 5.402541
v 9.608096 4.492961 5.413021
v 9.482718 4.555040 5.409061
v 9.699535 4.595720 5.432051
v 9.548247 4.770848 5.420961
v 9.567396 4.512701 5.447881
v 9.687265 4.541461 5.454310
v 9.413529 4.626140 5.427411
v 9.380689 4.693948 5.422071
v 9.683935 4.670218 5.445561
v 9.627707 4.740538 5.464000
v 9.424539 4.781027 5.441421
v 9.494118 4.787848 5.450151
v 9.641446 4.517721 5.452831
v 9.496408 4.560560 5.454891
v 9.392259 4.737378 5.433261
v 9.561976 4.775848 5.485690
v 9.414359 4.685298 5.466910
v 9.430688 4.752118 5.474620
v 9.678885 4.551980 5.486131
v 9.692816 4.608240 5.484910
v 9.472368 4.603860 5.475620
v 9.498408 4.769207 5.494140
v 9.533037 4.576510 5.496200
v 9.671585 4.687289 5.501550
v 9.622076 4.739088 5.508270
v 9.623036 4.567290 5.502040
v 9.675316 4.595760 5.510130
v 9.486618 4.649259 5.505950
v 9.674326 4.642449 5.521090
v 9.491757 4.708889 5.509650
v 9.582577 4.750408 5.518920
v 9.566546 4.650909 5.528250
v 9.641156 4.641899 5.530370
v 9.623756 4.701068 5.527740
v 9.564847 4.712318 5.523810
v 9.599987 4.676259 5.527100
vn 0.5611 -0.2725 -0.7816
vn 0.0075 -0.1604 -0.9870
vn 0.4340 0.2619 -0.8620
vn -0.4084 -0.2808 -0.8685
vn -0.1143 0.2414 -0.9637
vn 0.2287 0.3562 -0.9060
vn 0.0882 -0.7630 -0.6403
vn -0.4241 -0.6480 -0.6327
vn -0.6966 -0.5705 -0.4351
vn -0.5904 0.0039 -0.8071
vn 0.8345 0.1429 -0.5322
vn 0.5288 0.5914 -0.6088
vn 0.1373 0.6160 -0.7757
vn -0.3160 0.4807 -0.8180
vn -0.3787 -0.9088 -0.1750
vn 0.7187 -0.6323 -0.2893
vn -0.9233 -0.2905 -0.2514
vn -0.8940 0.2434 -0.3763
vn -0.6278 0.7047 -0.3306
vn -0.0450 0.8682 -0.4942
vn 0.1836 -0.9826 0.0275
vn -0.6257 -0.7800 -0.0044
vn 0.9777 -0.0794 -0.1945
vn 0.3069 0.8701 -0.3857
vn -0.2624 -0.8244 0.5016
vn 0.8232 -0.5571 0.1101
vn -0.7652 -0.5618 0.3144
vn -0.9403 -0.0832 0.3301
vn 0.8905 0.4239 -0.1652
vn 0.6260 0.7710 -0.1169
vn -0.4372 0.8640 0.2497
vn 0.0125 0.9993 0.0345
vn 0.2832 -0.8688 0.4061
vn -0.5484 -0.6913 0.4706
vn -0.8702 0.3188 0.3756
vn 0.2555 0.9378 0.2349
vn -0.6756 -0.1309 0.7255
vn -0.5623 0.3336 0.7567
vn 0.5354 -0.5575 0.6345
vn 0.9472 -0.0246 0.3196
vn -0.5703 -0.4661 0.6764
vn -0.1984 0.6367 0.7452
vn -0.3084 -0.5066 0.8052
vn 0.8053 0.4519 0.3838
vn 0.5275 0.6946 0.4891
vn -0.0011 -0.5263 0.8503
vn 0.4744 -0.2994 0.8278
vn -0.4141 -0.2165 0.8841
vn 0.6251 0.0781 0.7766
vn -0.3325 0.1014 0.9376
vn 0.1010 0.5496 0.8293
vn -0.1360 -0.1223 0.9831
vn 0.0938 -0.1156 0.9889
vn 0.2447 0.2452 0.9381
vn -0.1176 0.1515 0.9814
vn -0.0306 0.0567 0.9979
usemtl mtl1.1081
s 1
f 1//1 2//2 3//3
f 2//2 4//4 5//5
f 6//6 2//2 5//5
f 3//3 2//2 6//6
f 7//7 8//8 2//2
f 1//1 7//7 2//2
f 2//2 8//8 4//4
f 8//8 9//9 4//4
f 4//4 9//9 10//10
f 4//4 10//10 5//5
f 11//11 3//3 12//12
f 6//6 12//12 3//3
f 5//5 13//13 6//6
f 13//13 12//12 6//6
f 10//10 14//14 5//5
f 14//14 13//13 5//5
f 7//7 15//15 8//8
f 7//7 1//1 16//16
f 11//11 16//16 1//1
f 1//1 3//3 11//11
f 17//17 10//10 9//9
f 17//17 18//18 10//10
f 10//10 18//18 14//14
f 18//18 19//19 14//14
f 13//13 14//14 20//20
f 7//7 21//21 15//15
f 7//7 16//16 21//21
f 15//15 22//22 8//8
f 16//16 11//11 23//23
f 12//12 13//13 24//24
f 14//14 19//19 20//20
f 24//24 13//13 20//20
f 25//25 15//15 21//21
f 15//15 25//25 22//22
f 26//26 16//16 23//23
f 9//9 22//22 27//27
f 8//8 22//22 9//9
f 27//27 17//17 9//9
f 17//17 28//28 18//18
f 11//11 12//12 29//29
f 30//30 12//12 24//24
f 20//20 19//19 31//31
f 24//24 20//20 32//32
f 16//16 33//33 21//21
f 16//16 26//26 33//33
f 22//22 25//25 34//34
f 27//27 22//22 34//34
f 27//27 28//28 17//17
f 28//28 35//35 18//18
f 29//29 12//12 30//30
f 19//19 18//18 35//35
f 19//19 35//35 31//31
f 30//30 24//24 36//36
f 20//20 31//31 32//32
f 36//36 24//24 32//32
f 29//29 23//23 11//11
f 35//35 28//28 37//37
f 38//38 35//35 37//37
f 33//33 26//26 39//39
f 40//40 26//26 23//23
f 34//34 41//41 27//27
f 27//27 37//37 28//28
f 35//35 38//38 31//31
f 32//32 31//31 42//42
f 25//25 21//21 33//33
f 25//25 43//43 34//34
f 26//26 40//40 39//39
f 43//43 41//41 34//34
f 27//27 41//41 37//37
f 23//23 29//29 40//40
f 40//40 29//29 44//44
f 44//44 29//29 30//30
f 31//31 38//38 42//42
f 30//30 36//36 45//45
f 32//32 42//42 36//36
f 25//25 33//33 46//46
f 43//43 25//25 46//46
f 39//39 46//46 33//33
f 47//47 39//39 40//40
f 48//48 41//41 43//43
f 49//49 47//47 40//40
f 41//41 48//48 37//37
f 50//50 38//38 37//37
f 44//44 30//30 45//45
f 42//42 38//38 50//50
f 36//36 42//42 51//51
f 36//36 51//51 45//45
f 46//46 39//39 47//47
f 48//48 50//50 37//37
f 49//49 40//40 44//44
f 43//43 46//46 52//52
f 43//43 52//52 48//48
f 47//47 53//53 46//46
f 53//53 52//52 46//46
f 47//47 49//49 53//53
f 54//54 53//53 49//49
f 52//52 50//50 48//48
f 49//49 44//44 54//54
f 55//55 50//50 52//52
f 44//44 45//45 54//54
f 42//42 50//50 55//55
f 54//54 51//51 55//55
f 54//54 45//45 51//51
f 55//55 51//51 42//42
f 53//53 56//56 52//52
f 53//53 54//54 56//56
f 52//52 56//56 55//55
f 54//54 55//55 56//56
