# Blender v2.92.0 OBJ File: 'convert_to_one_sided.blend'
# www.blender.org
mtllib 233L.mtl
o Cube
v 0.001000 0.001000 -0.001000
v 0.001000 -0.001000 -0.001000
v 0.001000 0.001000 0.001000
v 0.001000 -0.001000 0.001000
v -0.001000 0.001000 -0.001000
v -0.001000 -0.001000 -0.001000
v -0.001000 0.001000 0.001000
v -0.001000 -0.001000 0.001000
vt 0.625000 0.500000
vt 0.875000 0.500000
vt 0.875000 0.750000
vt 0.625000 0.750000
vt 0.375000 0.750000
vt 0.625000 1.000000
vt 0.375000 1.000000
vt 0.375000 0.000000
vt 0.625000 0.000000
vt 0.625000 0.250000
vt 0.375000 0.250000
vt 0.125000 0.500000
vt 0.375000 0.500000
vt 0.125000 0.750000
vn 0.0000 1.0000 0.0000
vn 0.0000 0.0000 1.0000
vn -1.0000 0.0000 0.0000
vn 0.0000 -1.0000 0.0000
vn 1.0000 0.0000 0.0000
vn 0.0000 0.0000 -1.0000
usemtl Material
s off
f 1/1/1 5/2/1 7/3/1 3/4/1
f 4/5/2 3/4/2 7/6/2 8/7/2
f 8/8/3 7/9/3 5/10/3 6/11/3
f 6/12/4 2/13/4 4/5/4 8/14/4
f 2/13/5 1/1/5 3/4/5 4/5/5
f 6/11/6 5/10/6 1/1/6 2/13/6
o 233
v 8.433111 1.935515 1.764908
v 8.377031 1.947775 1.759938
v 8.470331 1.983534 1.763098
v 8.490291 1.963405 1.770038
v 8.408392 1.991824 1.768798
v 8.320853 1.952535 1.768478
v 8.507811 1.995544 1.788927
v 8.478651 2.032284 1.802237
v 8.304753 1.890935 1.796317
v 8.286254 1.930645 1.776547
v 8.415911 1.866256 1.837687
v 8.479441 1.924135 1.796427
v 8.207555 1.903855 1.795757
v 8.258143 1.940315 1.783687
v 8.512820 1.951965 1.804477
v 8.311863 2.000584 1.807177
v 8.418271 2.055833 1.825677
v 8.131765 1.878626 1.816137
v 8.127915 1.893805 1.817917
v 8.180944 1.856116 1.833347
v 8.162615 1.945585 1.839047
v 8.522541 1.978934 1.868756
v 8.470511 2.086593 1.855476
v 8.067566 1.865076 1.847067
v 8.059257 1.884535 1.858736
v 8.496950 1.890215 1.855916
v 8.516740 1.907275 1.882786
v 8.216394 2.028634 1.884446
v 8.493111 2.046853 1.854486
v 8.248363 1.802776 1.890146
v 8.382412 1.782857 1.921545
v 8.091676 1.808956 1.897056
v 8.342473 2.065953 1.864466
v 8.426971 2.089763 1.866736
v 8.006987 1.824956 1.898556
v 8.013197 1.852116 1.883696
v 7.986197 1.865396 1.904166
v 8.036476 1.920905 1.905896
v 8.286823 1.707278 1.994965
v 8.465561 1.818436 1.915456
v 8.445541 1.759787 1.964455
v 8.520200 1.886195 1.940835
v 8.090176 1.983574 1.930506
v 8.254754 2.065923 1.919386
v 8.370672 2.091343 1.904086
v 8.442132 2.097493 1.890306
v 8.472721 2.082303 1.897766
v 8.140375 1.683998 2.033284
v 7.978247 1.760837 1.981795
v 8.394981 1.711058 2.004314
v 7.970207 1.828406 1.927435
v 8.502851 1.845296 1.934026
v 7.936657 1.840216 1.950195
v 7.955607 1.883145 1.959565
v 7.996087 1.935995 1.967845
v 8.162935 2.029024 1.937355
v 8.498510 2.011664 1.934205
v 8.297723 2.081673 1.927706
v 8.458441 1.697868 2.049814
v 7.922868 1.803976 1.981025
v 8.479271 1.762907 2.004874
v 8.505001 1.857136 2.031104
v 8.251184 2.065693 1.950075
v 8.332673 2.082913 1.940955
v 8.423832 2.065433 1.951505
v 7.911098 1.762107 2.021104
v 7.904368 1.832996 2.020334
v 8.188664 2.042183 1.954655
v 8.474521 2.022284 1.970565
v 8.422372 1.653378 2.084263
v 7.905388 1.784067 2.019384
v 7.935998 1.909175 2.037734
v 8.499041 1.784517 2.032564
v 8.004848 1.964614 2.011174
v 8.106915 2.005504 1.981315
v 8.288593 2.042603 1.986975
v 8.356942 2.025524 2.004424
v 7.923578 1.713258 2.072134
v 8.484321 1.924635 2.050594
v 8.041997 1.982304 2.024694
v 8.174065 1.994464 2.022324
v 8.329403 1.630949 2.099143
v 7.901148 1.773147 2.054574
v 7.902558 1.866716 2.067954
v 7.956878 1.940785 2.053414
v 7.985107 1.947185 2.063874
v 8.088616 1.988184 2.020884
v 8.461381 1.987534 2.021874
v 8.418962 1.966294 2.059674
v 8.008097 1.678568 2.072774
v 8.454131 1.634269 2.133733
v 8.470321 1.670278 2.126533
v 8.288733 1.945765 2.086673
v 8.417821 1.595979 2.169372
v 7.896308 1.815126 2.099013
v 7.910188 1.867396 2.097383
v 7.942108 1.891985 2.109463
v 8.459791 1.879496 2.125543
v 8.059727 1.949125 2.070613
v 8.078755 1.606679 2.139063
v 8.219674 1.569839 2.175502
v 7.989257 1.651308 2.125373
v 7.938438 1.698288 2.151573
v 7.909218 1.758377 2.120483
v 8.481441 1.713018 2.149472
v 8.466351 1.743907 2.221562
v 8.125356 1.903465 2.132263
v 8.346202 1.550810 2.213922
v 8.049466 1.599039 2.173252
v 7.904858 1.792457 2.152063
v 8.011937 1.889905 2.136803
v 8.440911 1.876125 2.152452
v 8.003747 1.636089 2.178852
v 7.924708 1.819266 2.156753
v 8.372763 1.866616 2.172682
v 8.128645 1.561419 2.206492
v 8.443722 1.584309 2.215472
v 7.978168 1.666998 2.190942
v 7.942498 1.755657 2.186362
v 8.240214 1.829916 2.218522
v 7.974777 1.834856 2.179452
v 8.081256 1.583319 2.219632
v 8.408852 1.543720 2.249451
v 8.035037 1.636999 2.232861
v 7.998207 1.685988 2.222932
v 8.445962 1.803456 2.218052
v 8.411991 1.812126 2.231002
v 8.361543 1.749777 2.317680
v 8.165085 1.537450 2.271641
v 8.228864 1.512190 2.279711
v 8.306823 1.512670 2.270731
v 8.379792 1.496940 2.316061
v 8.093496 1.802006 2.236062
v 8.456251 1.616039 2.259791
v 7.997607 1.780767 2.218362
v 8.437991 1.718108 2.320200
v 8.225724 1.509900 2.314580
v 8.136605 1.592469 2.306981
v 8.060686 1.658128 2.277631
v 8.038127 1.711918 2.266481
v 8.242494 1.714508 2.354700
v 8.417651 1.760037 2.285561
v 8.424792 1.536490 2.303001
v 8.441201 1.662128 2.370210
v 8.072926 1.742817 2.276121
v 8.322823 1.483680 2.335810
v 8.277534 1.492911 2.348650
v 8.224494 1.529830 2.340900
v 8.133415 1.728707 2.313120
v 8.410802 1.700348 2.366020
v 8.370702 1.473911 2.372080
v 8.401092 1.497790 2.375930
v 8.428632 1.554880 2.373830
v 8.442241 1.634389 2.341480
v 8.149875 1.645468 2.350310
v 8.111876 1.702428 2.314461
v 8.338802 1.480941 2.388250
v 8.231514 1.566239 2.386699
v 8.183154 1.680008 2.358160
v 8.421712 1.662328 2.396479
v 8.293723 1.513950 2.396729
v 8.223604 1.641618 2.403419
v 8.378013 1.496840 2.413099
v 8.401772 1.531980 2.419979
v 8.244354 1.600949 2.416259
v 8.255584 1.651428 2.415099
v 8.387423 1.651548 2.425489
v 8.345013 1.522800 2.438059
v 8.291933 1.566059 2.433689
v 8.410031 1.603029 2.411089
v 8.323584 1.634349 2.444989
v 8.330293 1.683128 2.388530
v 8.280384 1.612939 2.434189
v 8.375543 1.550490 2.443129
v 8.333643 1.578849 2.446279
v 8.363982 1.604479 2.432489
vn 0.1611 -0.4832 -0.8606
vn -0.0631 -0.1036 -0.9926
vn 0.2121 0.2241 -0.9512
vn 0.5409 -0.2508 -0.8028
vn -0.1032 0.5092 -0.8545
vn -0.2228 0.2843 -0.9325
vn 0.7900 0.3108 -0.5285
vn 0.3355 0.6551 -0.6769
vn -0.0174 -0.5980 -0.8013
vn -0.1676 -0.1763 -0.9699
vn 0.2105 -0.7338 -0.6459
vn 0.4530 -0.6434 -0.6171
vn -0.2206 -0.1228 -0.9676
vn -0.3387 0.3153 -0.8865
vn 0.8592 -0.3043 -0.4113
vn -0.2973 0.6305 -0.7170
vn -0.1154 0.7251 -0.6789
vn -0.2158 -0.4393 -0.8720
vn -0.3986 0.2327 -0.8871
vn -0.0526 -0.6693 -0.7411
vn -0.4184 0.5555 -0.7186
vn 0.9906 0.1365 -0.0010
vn 0.3860 0.8418 -0.3772
vn -0.4220 -0.2540 -0.8703
vn -0.5314 0.3551 -0.7691
vn 0.6290 -0.6166 -0.4734
vn 0.9280 -0.3044 -0.2147
vn -0.3884 0.7360 -0.5545
vn 0.8531 0.5067 -0.1244
vn 0.0022 -0.7404 -0.6722
vn 0.1514 -0.7234 -0.6736
vn -0.1350 -0.7235 -0.6770
vn -0.2617 0.8082 -0.5275
vn -0.1125 0.9004 -0.4202
vn -0.4014 -0.5394 -0.7402
vn -0.5832 -0.0977 -0.8065
vn -0.6588 0.2278 -0.7170
vn -0.5480 0.5852 -0.5978
vn 0.0281 -0.7665 -0.6416
vn 0.4806 -0.6684 -0.5677
vn 0.4071 -0.6848 -0.6044
vn 0.9862 -0.1628 -0.0295
vn -0.4877 0.7576 -0.4337
vn -0.3313 0.9104 -0.2476
vn -0.1144 0.9921 -0.0522
vn 0.1426 0.9837 0.1093
vn 0.6535 0.7047 0.2763
vn -0.0840 -0.7695 -0.6331
vn -0.3417 -0.6868 -0.6415
vn 0.1759 -0.7592 -0.6266
vn -0.6023 -0.3470 -0.7189
vn 0.8210 -0.4815 -0.3068
vn -0.7985 0.0649 -0.5985
vn -0.7366 0.4976 -0.4581
vn -0.6195 0.6604 -0.4244
vn -0.4409 0.8657 -0.2370
vn 0.8938 0.3645 0.2613
vn -0.2124 0.9765 0.0369
vn 0.5698 -0.6504 -0.5024
vn -0.7371 -0.3035 -0.6039
vn 0.7524 -0.5330 -0.3870
vn 0.9749 0.0789 0.2082
vn -0.2416 0.9069 0.3452
vn -0.0192 0.8882 0.4590
vn 0.2112 0.8036 0.5565
vn -0.7473 -0.4766 -0.4630
vn -0.9441 0.1643 -0.2859
vn -0.3425 0.9216 0.1826
vn 0.6338 0.5853 0.5057
vn 0.2599 -0.7792 -0.5704
vn -0.9316 -0.1512 -0.3306
vn -0.7780 0.6119 -0.1425
vn 0.9551 -0.2851 -0.0808
vn -0.5047 0.8520 -0.1395
vn -0.3159 0.9427 0.1071
vn -0.0653 0.7566 0.6506
vn 0.0453 0.7330 0.6787
vn -0.7062 -0.6539 -0.2715
vn 0.8199 0.3767 0.4311
vn -0.2291 0.9127 0.3382
vn -0.1190 0.8144 0.5680
vn 0.0672 -0.8038 -0.5912
vn -0.9720 -0.2190 -0.0855
vn -0.9254 0.3790 -0.0065
vn -0.6121 0.7750 0.1573
vn -0.2772 0.8409 0.4648
vn -0.0772 0.8804 0.4679
vn 0.4800 0.6297 0.6108
vn 0.2042 0.7164 0.6672
vn -0.2702 -0.7719 -0.5755
vn 0.6026 -0.6826 -0.4134
vn 0.9022 -0.3972 -0.1683
vn -0.0055 0.7376 0.6752
vn 0.2962 -0.8091 -0.5075
vn -0.9825 0.1087 0.1512
vn -0.7966 0.5061 0.3304
vn -0.5325 0.6650 0.5236
vn 0.6551 0.5274 0.5411
vn -0.0722 0.7902 0.6085
vn -0.2124 -0.8269 -0.5207
vn -0.0310 -0.8397 -0.5421
vn -0.5300 -0.8043 -0.2687
vn -0.8238 -0.4921 0.2814
vn -0.9330 -0.3034 0.1935
vn 0.9875 -0.1221 0.1001
vn 0.9379 0.1748 0.2997
vn -0.0440 0.7537 0.6557
vn 0.1299 -0.8347 -0.5352
vn -0.4714 -0.8670 -0.1614
vn -0.8854 0.0224 0.4644
vn -0.1494 0.7266 0.6707
vn 0.3770 0.6831 0.6254
vn -0.6682 -0.7234 0.1738
vn -0.6569 0.3820 0.6501
vn 0.0674 0.7541 0.6533
vn -0.2917 -0.9191 -0.2648
vn 0.7467 -0.6183 -0.2451
vn -0.7267 -0.4996 0.4715
vn -0.7286 -0.0731 0.6811
vn -0.0230 0.7542 0.6563
vn -0.3362 0.5650 0.7535
vn -0.5789 -0.7825 0.2293
vn 0.4290 -0.8053 -0.4092
vn -0.6611 -0.5481 0.5125
vn -0.7179 -0.2698 0.6418
vn 0.6249 0.5552 0.5488
vn 0.2672 0.7148 0.6463
vn 0.0833 0.7534 0.6523
vn -0.5351 -0.8237 0.1874
vn -0.2143 -0.9459 -0.2435
vn 0.0258 -0.8866 -0.4619
vn 0.3419 -0.8696 -0.3562
vn -0.1777 0.6572 0.7325
vn 0.9732 -0.2165 0.0780
vn -0.4511 0.3671 0.8135
vn 0.6793 0.5367 0.5006
vn -0.4703 -0.8599 0.1986
vn -0.6339 -0.5371 0.5565
vn -0.6641 -0.3080 0.6812
vn -0.5965 0.0820 0.7984
vn -0.1285 0.6857 0.7164
vn 0.3591 0.7105 0.6052
vn 0.7917 -0.6003 -0.1139
vn 0.9054 0.1112 0.4097
vn -0.4049 0.4397 0.8017
vn -0.0854 -0.9763 -0.1987
vn -0.3930 -0.8912 0.2264
vn -0.5852 -0.6484 0.4869
vn -0.3159 0.5105 0.7997
vn 0.3573 0.6968 0.6219
vn 0.2505 -0.9661 0.0626
vn 0.7371 -0.6628 0.1318
vn 0.9372 -0.2310 0.2612
vn 0.9630 -0.0865 0.2552
vn -0.6066 -0.0685 0.7920
vn -0.4592 0.2899 0.8397
vn -0.2092 -0.8922 0.4002
vn -0.6029 -0.4601 0.6518
vn -0.4087 0.4183 0.8111
vn 0.6456 0.3779 0.6637
vn -0.4927 -0.6338 0.5962
vn -0.4936 0.1997 0.8465
vn 0.3420 -0.6961 0.6313
vn 0.7430 -0.3131 0.5916
vn -0.5432 -0.1702 0.8222
vn -0.3317 0.4461 0.8313
vn 0.2869 0.4619 0.8392
vn -0.1562 -0.4977 0.8532
vn -0.4221 -0.3109 0.8516
vn 0.7343 0.0054 0.6788
vn -0.0161 0.3963 0.9180
vn 0.0016 0.7322 0.6811
vn -0.3465 0.0529 0.9366
vn 0.3563 -0.1098 0.9279
vn -0.0336 -0.0242 0.9991
vn 0.3392 0.1166 0.9334
usemtl mtl1.231
s 1
f 9//7 10//8 11//9
f 12//10 9//7 11//9
f 13//11 10//8 14//12
f 11//9 10//8 13//11
f 15//13 12//10 11//9
f 16//14 11//9 13//11
f 15//13 11//9 16//14
f 10//8 17//15 18//16
f 19//17 9//7 20//18
f 18//16 21//19 22//20
f 10//8 18//16 14//12
f 9//7 17//15 10//8
f 20//18 12//10 23//21
f 18//16 22//20 14//12
f 20//18 9//7 12//10
f 22//20 24//22 14//12
f 15//13 23//21 12//10
f 14//12 24//22 13//11
f 16//14 13//11 25//23
f 26//24 27//25 21//19
f 28//26 26//24 21//19
f 17//15 28//26 21//19
f 18//16 17//15 21//19
f 9//7 19//17 17//15
f 27//25 29//27 21//19
f 21//19 29//27 22//20
f 24//22 22//20 29//27
f 23//21 15//13 30//28
f 25//23 13//11 24//22
f 16//14 25//23 31//29
f 27//25 32//30 33//31
f 32//30 27//25 26//24
f 34//32 19//17 20//18
f 20//18 23//21 34//32
f 27//25 33//31 29//27
f 35//33 23//21 30//28
f 24//22 29//27 36//34
f 30//28 15//13 37//35
f 16//14 37//35 15//13
f 37//35 16//14 31//29
f 17//15 19//17 38//36
f 38//36 19//17 39//37
f 26//24 40//38 32//30
f 28//26 40//38 26//24
f 23//21 35//33 34//32
f 24//22 36//34 41//39
f 25//23 24//22 41//39
f 25//23 41//39 42//40
f 25//23 42//40 31//29
f 28//26 17//15 38//36
f 32//30 40//38 43//41
f 43//41 44//42 32//30
f 32//30 44//42 33//31
f 44//42 45//43 33//31
f 45//43 46//44 33//31
f 29//27 33//31 46//44
f 38//36 39//37 47//45
f 28//26 38//36 40//38
f 39//37 48//46 49//47
f 39//37 19//17 48//46
f 19//17 34//32 48//46
f 30//28 50//48 35//33
f 29//27 46//44 51//49
f 29//27 51//49 36//34
f 41//39 36//34 52//50
f 42//40 41//39 53//51
f 42//40 54//52 31//29
f 55//53 31//29 54//52
f 55//53 37//35 31//29
f 54//52 42//40 53//51
f 40//38 38//36 56//54
f 43//41 40//38 57//55
f 39//37 49//47 58//56
f 43//41 57//55 59//57
f 43//41 59//57 44//42
f 60//58 48//46 34//32
f 45//43 59//57 61//59
f 59//57 45//43 44//42
f 45//43 61//59 62//60
f 34//32 35//33 60//58
f 46//44 45//43 62//60
f 46//44 62//60 63//61
f 46//44 63//61 51//49
f 36//34 51//49 64//62
f 30//28 37//35 65//63
f 36//34 64//62 52//50
f 53//51 52//50 66//64
f 41//39 52//50 53//51
f 57//55 40//38 56//54
f 58//56 49//47 67//65
f 57//55 68//66 59//57
f 49//47 48//46 69//67
f 61//59 59//57 68//66
f 50//48 30//28 70//68
f 70//68 30//28 65//63
f 52//50 71//69 66//64
f 55//53 65//63 37//35
f 53//51 66//64 72//70
f 54//52 53//51 73//71
f 53//51 72//70 73//71
f 54//52 73//71 55//53
f 56//54 38//36 47//45
f 39//37 58//56 47//45
f 67//65 49//47 69//67
f 57//55 74//72 68//66
f 69//67 48//46 60//58
f 68//66 75//73 61//59
f 60//58 35//33 50//48
f 62//60 61//59 75//73
f 64//62 76//74 52//50
f 52//50 76//74 71//69
f 66//64 71//69 72//70
f 65//63 55//53 77//75
f 55//53 73//71 77//75
f 78//76 58//56 67//65
f 68//66 79//77 75//73
f 80//78 62//60 75//73
f 81//79 50//48 70//68
f 51//49 63//61 82//80
f 51//49 82//80 83//81
f 64//62 51//49 83//81
f 64//62 83//81 76//74
f 71//69 84//82 72//70
f 72//70 85//83 73//71
f 74//72 57//55 86//84
f 68//66 74//72 79//77
f 69//67 60//58 81//79
f 60//58 50//48 81//79
f 62//60 80//78 63//61
f 63//61 80//78 82//80
f 65//63 87//85 70//68
f 82//80 88//86 83//81
f 76//74 83//81 89//87
f 76//74 89//87 71//69
f 71//69 89//87 84//82
f 85//83 72//70 84//82
f 47//45 58//56 90//88
f 79//77 91//89 75//73
f 92//90 80//78 75//73
f 93//91 82//80 80//78
f 82//80 94//92 88//86
f 83//81 88//86 95//93
f 87//85 77//75 96//94
f 65//63 77//75 87//85
f 89//87 83//81 95//93
f 73//71 97//95 96//94
f 85//83 97//95 73//71
f 77//75 73//71 96//94
f 56//54 47//45 90//88
f 58//56 78//76 90//88
f 98//96 57//55 56//54
f 78//76 67//65 99//97
f 57//55 98//96 86//84
f 99//97 67//65 100//98
f 74//72 86//84 91//89
f 67//65 69//67 100//98
f 79//77 74//72 91//89
f 82//80 93//91 94//92
f 101//99 84//82 89//87
f 85//83 84//82 101//99
f 78//76 102//100 90//88
f 100//98 69//67 81//79
f 91//89 103//101 75//73
f 75//73 103//101 92//90
f 92//90 104//102 80//78
f 80//78 105//103 93//91
f 106//104 87//85 96//94
f 94//92 107//105 88//86
f 107//105 95//93 88//86
f 89//87 95//93 107//105
f 96//94 97//95 106//104
f 85//83 101//99 97//95
f 98//96 56//54 108//106
f 90//88 109//107 56//54
f 108//106 110//108 98//96
f 102//100 78//76 99//97
f 86//84 110//108 111//109
f 86//84 98//96 110//108
f 86//84 111//109 112//110
f 86//84 112//110 91//89
f 100//98 81//79 113//111
f 91//89 112//110 103//101
f 81//79 70//68 113//111
f 114//112 70//68 87//85
f 103//101 104//102 92//90
f 80//78 104//102 105//103
f 93//91 105//103 94//92
f 107//105 115//113 89//87
f 56//54 109//107 108//106
f 116//114 90//88 102//100
f 110//108 108//106 117//115
f 112//110 118//116 103//101
f 101//99 89//87 115//113
f 107//105 94//92 119//117
f 106//104 97//95 120//118
f 109//107 90//88 116//114
f 110//108 117//115 121//119
f 110//108 121//119 111//109
f 113//111 70//68 114//112
f 118//116 122//120 103//101
f 87//85 106//104 114//112
f 122//120 104//102 103//101
f 115//113 107//105 119//117
f 123//121 120//118 97//95
f 119//117 94//92 105//103
f 97//95 101//99 123//121
f 124//122 108//106 109//107
f 124//122 117//115 108//106
f 102//100 99//97 125//123
f 111//109 121//119 126//124
f 111//109 127//125 112//110
f 112//110 127//125 118//116
f 122//120 105//103 104//102
f 115//113 128//126 101//99
f 119//117 105//103 129//127
f 130//128 117//115 124//122
f 102//100 131//129 116//114
f 125//123 131//129 102//100
f 130//128 121//119 117//115
f 132//130 121//119 130//128
f 99//97 100//98 125//123
f 127//125 111//109 133//131
f 111//109 126//124 133//131
f 106//104 134//132 114//112
f 134//132 120//118 135//133
f 106//104 120//118 134//132
f 122//120 129//127 105//103
f 136//134 135//133 123//121
f 135//133 120//118 123//121
f 123//121 101//99 128//126
f 137//135 124//122 138//136
f 109//107 138//136 124//122
f 139//137 138//136 109//107
f 109//107 116//114 139//137
f 139//137 116//114 140//138
f 124//122 137//135 130//128
f 121//119 132//130 126//124
f 118//116 127//125 122//120
f 141//139 115//113 119//117
f 125//123 100//98 142//140
f 100//98 113//111 142//140
f 142//140 113//111 114//112
f 132//130 133//131 126//124
f 122//120 127//125 143//141
f 144//142 114//112 134//132
f 122//120 143//141 129//127
f 141//139 128//126 115//113
f 141//139 119//117 129//127
f 145//143 137//135 138//136
f 116//114 131//129 140//138
f 137//135 146//144 130//128
f 130//128 146//144 132//130
f 147//145 133//131 132//130
f 133//131 148//146 127//125
f 143//141 127//125 148//146
f 128//126 149//147 136//134
f 135//133 136//134 150//148
f 135//133 150//148 134//132
f 141//139 129//127 143//141
f 123//121 128//126 136//134
f 140//138 131//129 151//149
f 151//149 131//129 125//123
f 142//140 151//149 125//123
f 146//144 147//145 132//130
f 114//112 144//142 152//150
f 141//139 149//147 128//126
f 153//151 141//139 143//141
f 138//136 154//152 155//153
f 139//137 154//152 138//136
f 139//137 140//138 154//152
f 155//153 145//143 138//136
f 145//143 156//154 137//135
f 137//135 156//154 146//144
f 133//131 147//145 148//146
f 153//151 143//141 148//146
f 153//151 157//155 141//139
f 144//142 150//148 158//156
f 144//142 134//132 150//148
f 149//147 141//139 157//155
f 154//152 140//138 159//157
f 140//138 160//158 159//157
f 140//138 151//149 160//158
f 161//159 142//140 162//160
f 142//140 114//112 162//160
f 147//145 163//161 148//146
f 114//112 152//150 162//160
f 164//162 148//146 163//161
f 164//162 153//151 148//146
f 157//155 153//151 164//162
f 136//134 158//156 150//148
f 154//152 159//157 165//163
f 154//152 165//163 155//153
f 155//153 156//154 145//143
f 160//158 151//149 161//159
f 161//159 151//149 142//140
f 146//144 156//154 166//164
f 146//144 163//161 147//145
f 166//164 163//161 146//144
f 164//162 163//161 167//165
f 167//165 157//155 164//162
f 144//142 158//156 168//166
f 169//167 155//153 165//163
f 169//167 156//154 155//153
f 170//168 167//165 163//161
f 149//147 157//155 167//165
f 171//169 165//163 159//157
f 159//157 160//158 171//169
f 172//170 160//158 161//159
f 173//171 163//161 166//164
f 170//168 163//161 173//171
f 144//142 168//166 152//150
f 149//147 167//165 174//172
f 136//134 175//173 158//156
f 175//173 168//166 158//156
f 176//174 169//167 165//163
f 171//169 176//174 165//163
f 176//174 177//175 169//167
f 160//158 172//170 171//169
f 178//176 172//170 161//159
f 169//167 166//164 156//154
f 161//159 162//160 178//176
f 152//150 178//176 162//160
f 168//166 178//176 152//150
f 170//168 174//172 167//165
f 174//172 179//177 149//147
f 136//134 149//147 180//178
f 175//173 136//134 180//178
f 169//167 177//175 166//164
f 173//171 166//164 177//175
f 173//171 181//179 170//168
f 181//179 174//172 170//168
f 149//147 179//177 180//178
f 182//180 176//174 171//169
f 171//169 172//170 182//180
f 172//170 178//176 182//180
f 181//179 173//171 177//175
f 168//166 175//173 178//176
f 181//179 179//177 174//172
f 177//175 176//174 183//181
f 183//181 176//174 182//180
f 182//180 184//182 183//181
f 182//180 178//176 184//182
f 177//175 183//181 181//179
f 179//177 181//179 183//181
f 179//177 184//182 175//173
f 178//176 175//173 184//182
f 175//173 180//178 179//177
f 184//182 179//177 183//181
