# Blender v2.92.0 OBJ File: 'convert_to_one_sided.blend'
# www.blender.org
mtllib 233L.mtl
o 233
v 8.433111 1.935515 1.764908
v 8.377031 1.947775 1.759938
v 8.470331 1.983534 1.763098
v 8.490291 1.963405 1.770038
v 8.408392 1.991824 1.768798
v 8.320853 1.952535 1.768478
v 8.507811 1.995544 1.788927
v 8.478651 2.032284 1.802237
v 8.304753 1.890935 1.796317
v 8.286254 1.930645 1.776547
v 8.415911 1.866256 1.837687
v 8.479441 1.924135 1.796427
v 8.207555 1.903855 1.795757
v 8.258143 1.940315 1.783687
v 8.512820 1.951965 1.804477
v 8.311863 2.000584 1.807177
v 8.418271 2.055833 1.825677
v 8.131765 1.878626 1.816137
v 8.127915 1.893805 1.817917
v 8.180944 1.856116 1.833347
v 8.162615 1.945585 1.839047
v 8.522541 1.978934 1.868756
v 8.470511 2.086593 1.855476
v 8.067566 1.865076 1.847067
v 8.059257 1.884535 1.858736
v 8.496950 1.890215 1.855916
v 8.516740 1.907275 1.882786
v 8.216394 2.028634 1.884446
v 8.493111 2.046853 1.854486
v 8.248363 1.802776 1.890146
v 8.382412 1.782857 1.921545
v 8.091676 1.808956 1.897056
v 8.342473 2.065953 1.864466
v 8.426971 2.089763 1.866736
v 8.006987 1.824956 1.898556
v 8.013197 1.852116 1.883696
v 7.986197 1.865396 1.904166
v 8.036476 1.920905 1.905896
v 8.286823 1.707278 1.994965
v 8.465561 1.818436 1.915456
v 8.445541 1.759787 1.964455
v 8.520200 1.886195 1.940835
v 8.090176 1.983574 1.930506
v 8.254754 2.065923 1.919386
v 8.370672 2.091343 1.904086
v 8.442132 2.097493 1.890306
v 8.472721 2.082303 1.897766
v 8.140375 1.683998 2.033284
v 7.978247 1.760837 1.981795
v 8.394981 1.711058 2.004314
v 7.970207 1.828406 1.927435
v 8.502851 1.845296 1.934026
v 7.936657 1.840216 1.950195
v 7.955607 1.883145 1.959565
v 7.996087 1.935995 1.967845
v 8.162935 2.029024 1.937355
v 8.498510 2.011664 1.934205
v 8.297723 2.081673 1.927706
v 8.458441 1.697868 2.049814
v 7.922868 1.803976 1.981025
v 8.479271 1.762907 2.004874
v 8.505001 1.857136 2.031104
v 8.251184 2.065693 1.950075
v 8.332673 2.082913 1.940955
v 8.423832 2.065433 1.951505
v 7.911098 1.762107 2.021104
v 7.904368 1.832996 2.020334
v 8.188664 2.042183 1.954655
v 8.474521 2.022284 1.970565
v 8.422372 1.653378 2.084263
v 7.905388 1.784067 2.019384
v 7.935998 1.909175 2.037734
v 8.499041 1.784517 2.032564
v 8.004848 1.964614 2.011174
v 8.106915 2.005504 1.981315
v 8.288593 2.042603 1.986975
v 8.356942 2.025524 2.004424
v 7.923578 1.713258 2.072134
v 8.484321 1.924635 2.050594
v 8.041997 1.982304 2.024694
v 8.174065 1.994464 2.022324
v 8.329403 1.630949 2.099143
v 7.901148 1.773147 2.054574
v 7.902558 1.866716 2.067954
v 7.956878 1.940785 2.053414
v 7.985107 1.947185 2.063874
v 8.088616 1.988184 2.020884
v 8.461381 1.987534 2.021874
v 8.418962 1.966294 2.059674
v 8.008097 1.678568 2.072774
v 8.454131 1.634269 2.133733
v 8.470321 1.670278 2.126533
v 8.288733 1.945765 2.086673
v 8.417821 1.595979 2.169372
v 7.896308 1.815126 2.099013
v 7.910188 1.867396 2.097383
v 7.942108 1.891985 2.109463
v 8.459791 1.879496 2.125543
v 8.059727 1.949125 2.070613
v 8.078755 1.606679 2.139063
v 8.219674 1.569839 2.175502
v 7.989257 1.651308 2.125373
v 7.938438 1.698288 2.151573
v 7.909218 1.758377 2.120483
v 8.481441 1.713018 2.149472
v 8.466351 1.743907 2.221562
v 8.125356 1.903465 2.132263
v 8.346202 1.550810 2.213922
v 8.049466 1.599039 2.173252
v 7.904858 1.792457 2.152063
v 8.011937 1.889905 2.136803
v 8.440911 1.876125 2.152452
v 8.003747 1.636089 2.178852
v 7.924708 1.819266 2.156753
v 8.372763 1.866616 2.172682
v 8.128645 1.561419 2.206492
v 8.443722 1.584309 2.215472
v 7.978168 1.666998 2.190942
v 7.942498 1.755657 2.186362
v 8.240214 1.829916 2.218522
v 7.974777 1.834856 2.179452
v 8.081256 1.583319 2.219632
v 8.408852 1.543720 2.249451
v 8.035037 1.636999 2.232861
v 7.998207 1.685988 2.222932
v 8.445962 1.803456 2.218052
v 8.411991 1.812126 2.231002
v 8.361543 1.749777 2.317680
v 8.165085 1.537450 2.271641
v 8.228864 1.512190 2.279711
v 8.306823 1.512670 2.270731
v 8.379792 1.496940 2.316061
v 8.093496 1.802006 2.236062
v 8.456251 1.616039 2.259791
v 7.997607 1.780767 2.218362
v 8.437991 1.718108 2.320200
v 8.225724 1.509900 2.314580
v 8.136605 1.592469 2.306981
v 8.060686 1.658128 2.277631
v 8.038127 1.711918 2.266481
v 8.242494 1.714508 2.354700
v 8.417651 1.760037 2.285561
v 8.424792 1.536490 2.303001
v 8.441201 1.662128 2.370210
v 8.072926 1.742817 2.276121
v 8.322823 1.483680 2.335810
v 8.277534 1.492911 2.348650
v 8.224494 1.529830 2.340900
v 8.133415 1.728707 2.313120
v 8.410802 1.700348 2.366020
v 8.370702 1.473911 2.372080
v 8.401092 1.497790 2.375930
v 8.428632 1.554880 2.373830
v 8.442241 1.634389 2.341480
v 8.149875 1.645468 2.350310
v 8.111876 1.702428 2.314461
v 8.338802 1.480941 2.388250
v 8.231514 1.566239 2.386699
v 8.183154 1.680008 2.358160
v 8.421712 1.662328 2.396479
v 8.293723 1.513950 2.396729
v 8.223604 1.641618 2.403419
v 8.378013 1.496840 2.413099
v 8.401772 1.531980 2.419979
v 8.244354 1.600949 2.416259
v 8.255584 1.651428 2.415099
v 8.387423 1.651548 2.425489
v 8.345013 1.522800 2.438059
v 8.291933 1.566059 2.433689
v 8.410031 1.603029 2.411089
v 8.323584 1.634349 2.444989
v 8.330293 1.683128 2.388530
v 8.280384 1.612939 2.434189
v 8.375543 1.550490 2.443129
v 8.333643 1.578849 2.446279
v 8.363982 1.604479 2.432489
vn 0.1611 -0.4832 -0.8606
vn -0.0631 -0.1036 -0.9926
vn 0.2121 0.2241 -0.9512
vn 0.5409 -0.2508 -0.8028
vn -0.1032 0.5092 -0.8545
vn -0.2228 0.2843 -0.9325
vn 0.7900 0.3108 -0.5285
vn 0.3355 0.6551 -0.6769
vn -0.0174 -0.5980 -0.8013
vn -0.1676 -0.1763 -0.9699
vn 0.2105 -0.7338 -0.6459
vn 0.4530 -0.6434 -0.6171
vn -0.2206 -0.1228 -0.9676
vn -0.3387 0.3153 -0.8865
vn 0.8592 -0.3043 -0.4113
vn -0.2973 0.6305 -0.7170
vn -0.1154 0.7251 -0.6789
vn -0.2158 -0.4393 -0.8720
vn -0.3986 0.2327 -0.8871
vn -0.0526 -0.6693 -0.7411
vn -0.4184 0.5555 -0.7186
vn 0.9906 0.1365 -0.0010
vn 0.3860 0.8418 -0.3772
vn -0.4220 -0.2540 -0.8703
vn -0.5314 0.3551 -0.7691
vn 0.6290 -0.6166 -0.4734
vn 0.9280 -0.3044 -0.2147
vn -0.3884 0.7360 -0.5545
vn 0.8531 0.5067 -0.1244
vn 0.0022 -0.7404 -0.6722
vn 0.1514 -0.7234 -0.6736
vn -0.1350 -0.7235 -0.6770
vn -0.2617 0.8082 -0.5275
vn -0.1125 0.9004 -0.4202
vn -0.4014 -0.5394 -0.7402
vn -0.5832 -0.0977 -0.8065
vn -0.6588 0.2278 -0.7170
vn -0.5480 0.5852 -0.5978
vn 0.0281 -0.7665 -0.6416
vn 0.4806 -0.6684 -0.5677
vn 0.4071 -0.6848 -0.6044
vn 0.9862 -0.1628 -0.0295
vn -0.4877 0.7576 -0.4337
vn -0.3313 0.9104 -0.2476
vn -0.1144 0.9921 -0.0522
vn 0.1426 0.9837 0.1093
vn 0.6535 0.7047 0.2763
vn -0.0840 -0.7695 -0.6331
vn -0.3417 -0.6868 -0.6415
vn 0.1759 -0.7592 -0.6266
vn -0.6023 -0.3470 -0.7189
vn 0.8210 -0.4815 -0.3068
vn -0.7985 0.0649 -0.5985
vn -0.7366 0.4976 -0.4581
vn -0.6195 0.6604 -0.4244
vn -0.4409 0.8657 -0.2370
vn 0.8938 0.3645 0.2613
vn -0.2124 0.9765 0.0369
vn 0.5698 -0.6504 -0.5024
vn -0.7371 -0.3035 -0.6039
vn 0.7524 -0.5330 -0.3870
vn 0.9749 0.0789 0.2082
vn -0.2416 0.9069 0.3452
vn -0.0192 0.8882 0.4590
vn 0.2112 0.8036 0.5565
vn -0.7473 -0.4766 -0.4630
vn -0.9441 0.1643 -0.2859
vn -0.3425 0.9216 0.1826
vn 0.6338 0.5853 0.5057
vn 0.2599 -0.7792 -0.5704
vn -0.9316 -0.1512 -0.3306
vn -0.7780 0.6119 -0.1425
vn 0.9551 -0.2851 -0.0808
vn -0.5047 0.8520 -0.1395
vn -0.3159 0.9427 0.1071
vn -0.0653 0.7566 0.6506
vn 0.0453 0.7330 0.6787
vn -0.7062 -0.6539 -0.2715
vn 0.8199 0.3767 0.4311
vn -0.2291 0.9127 0.3382
vn -0.1190 0.8144 0.5680
vn 0.0672 -0.8038 -0.5912
vn -0.9720 -0.2190 -0.0855
vn -0.9254 0.3790 -0.0065
vn -0.6121 0.7750 0.1573
vn -0.2772 0.8409 0.4648
vn -0.0772 0.8804 0.4679
vn 0.4800 0.6297 0.6108
vn 0.2042 0.7164 0.6672
vn -0.2702 -0.7719 -0.5755
vn 0.6026 -0.6826 -0.4134
vn 0.9022 -0.3972 -0.1683
vn -0.0055 0.7376 0.6752
vn 0.2962 -0.8091 -0.5075
vn -0.9825 0.1087 0.1512
vn -0.7966 0.5061 0.3304
vn -0.5325 0.6650 0.5236
vn 0.6551 0.5274 0.5411
vn -0.0722 0.7902 0.6085
vn -0.2124 -0.8269 -0.5207
vn -0.0310 -0.8397 -0.5421
vn -0.5300 -0.8043 -0.2687
vn -0.8238 -0.4921 0.2814
vn -0.9330 -0.3034 0.1935
vn 0.9875 -0.1221 0.1001
vn 0.9379 0.1748 0.2997
vn -0.0440 0.7537 0.6557
vn 0.1299 -0.8347 -0.5352
vn -0.4714 -0.8670 -0.1614
vn -0.8854 0.0224 0.4644
vn -0.1494 0.7266 0.6707
vn 0.3770 0.6831 0.6254
vn -0.6682 -0.7234 0.1738
vn -0.6569 0.3820 0.6501
vn 0.0674 0.7541 0.6533
vn -0.2917 -0.9191 -0.2648
vn 0.7467 -0.6183 -0.2451
vn -0.7267 -0.4996 0.4715
vn -0.7286 -0.0731 0.6811
vn -0.0230 0.7542 0.6563
vn -0.3362 0.5650 0.7535
vn -0.5789 -0.7825 0.2293
vn 0.4290 -0.8053 -0.4092
vn -0.6611 -0.5481 0.5125
vn -0.7179 -0.2698 0.6418
vn 0.6249 0.5552 0.5488
vn 0.2672 0.7148 0.6463
vn 0.0833 0.7534 0.6523
vn -0.5351 -0.8237 0.1874
vn -0.2143 -0.9459 -0.2435
vn 0.0258 -0.8866 -0.4619
vn 0.3419 -0.8696 -0.3562
vn -0.1777 0.6572 0.7325
vn 0.9732 -0.2165 0.0780
vn -0.4511 0.3671 0.8135
vn 0.6793 0.5367 0.5006
vn -0.4703 -0.8599 0.1986
vn -0.6339 -0.5371 0.5565
vn -0.6641 -0.3080 0.6812
vn -0.5965 0.0820 0.7984
vn -0.1285 0.6857 0.7164
vn 0.3591 0.7105 0.6052
vn 0.7917 -0.6003 -0.1139
vn 0.9054 0.1112 0.4097
vn -0.4049 0.4397 0.8017
vn -0.0854 -0.9763 -0.1987
vn -0.3930 -0.8912 0.2264
vn -0.5852 -0.6484 0.4869
vn -0.3159 0.5105 0.7997
vn 0.3573 0.6968 0.6219
vn 0.2505 -0.9661 0.0626
vn 0.7371 -0.6628 0.1318
vn 0.9372 -0.2310 0.2612
vn 0.9630 -0.0865 0.2552
vn -0.6066 -0.0685 0.7920
vn -0.4592 0.2899 0.8397
vn -0.2092 -0.8922 0.4002
vn -0.6029 -0.4601 0.6518
vn -0.4087 0.4183 0.8111
vn 0.6456 0.3779 0.6637
vn -0.4927 -0.6338 0.5962
vn -0.4936 0.1997 0.8465
vn 0.3420 -0.6961 0.6313
vn 0.7430 -0.3131 0.5916
vn -0.5432 -0.1702 0.8222
vn -0.3317 0.4461 0.8313
vn 0.2869 0.4619 0.8392
vn -0.1562 -0.4977 0.8532
vn -0.4221 -0.3109 0.8516
vn 0.7343 0.0054 0.6788
vn -0.0161 0.3963 0.9180
vn 0.0016 0.7322 0.6811
vn -0.3465 0.0529 0.9366
vn 0.3563 -0.1098 0.9279
vn -0.0336 -0.0242 0.9991
vn 0.3392 0.1166 0.9334
usemtl mtl1.1082
s 1
f 1//1 2//2 3//3
f 4//4 1//1 3//3
f 5//5 2//2 6//6
f 3//3 2//2 5//5
f 7//7 4//4 3//3
f 8//8 3//3 5//5
f 7//7 3//3 8//8
f 2//2 9//9 10//10
f 11//11 1//1 12//12
f 10//10 13//13 14//14
f 2//2 10//10 6//6
f 1//1 9//9 2//2
f 12//12 4//4 15//15
f 10//10 14//14 6//6
f 12//12 1//1 4//4
f 14//14 16//16 6//6
f 7//7 15//15 4//4
f 6//6 16//16 5//5
f 8//8 5//5 17//17
f 18//18 19//19 13//13
f 20//20 18//18 13//13
f 9//9 20//20 13//13
f 10//10 9//9 13//13
f 1//1 11//11 9//9
f 19//19 21//21 13//13
f 13//13 21//21 14//14
f 16//16 14//14 21//21
f 15//15 7//7 22//22
f 17//17 5//5 16//16
f 8//8 17//17 23//23
f 19//19 24//24 25//25
f 24//24 19//19 18//18
f 26//26 11//11 12//12
f 12//12 15//15 26//26
f 19//19 25//25 21//21
f 27//27 15//15 22//22
f 16//16 21//21 28//28
f 22//22 7//7 29//29
f 8//8 29//29 7//7
f 29//29 8//8 23//23
f 9//9 11//11 30//30
f 30//30 11//11 31//31
f 18//18 32//32 24//24
f 20//20 32//32 18//18
f 15//15 27//27 26//26
f 16//16 28//28 33//33
f 17//17 16//16 33//33
f 17//17 33//33 34//34
f 17//17 34//34 23//23
f 20//20 9//9 30//30
f 24//24 32//32 35//35
f 35//35 36//36 24//24
f 24//24 36//36 25//25
f 36//36 37//37 25//25
f 37//37 38//38 25//25
f 21//21 25//25 38//38
f 30//30 31//31 39//39
f 20//20 30//30 32//32
f 31//31 40//40 41//41
f 31//31 11//11 40//40
f 11//11 26//26 40//40
f 22//22 42//42 27//27
f 21//21 38//38 43//43
f 21//21 43//43 28//28
f 33//33 28//28 44//44
f 34//34 33//33 45//45
f 34//34 46//46 23//23
f 47//47 23//23 46//46
f 47//47 29//29 23//23
f 46//46 34//34 45//45
f 32//32 30//30 48//48
f 35//35 32//32 49//49
f 31//31 41//41 50//50
f 35//35 49//49 51//51
f 35//35 51//51 36//36
f 52//52 40//40 26//26
f 37//37 51//51 53//53
f 51//51 37//37 36//36
f 37//37 53//53 54//54
f 26//26 27//27 52//52
f 38//38 37//37 54//54
f 38//38 54//54 55//55
f 38//38 55//55 43//43
f 28//28 43//43 56//56
f 22//22 29//29 57//57
f 28//28 56//56 44//44
f 45//45 44//44 58//58
f 33//33 44//44 45//45
f 49//49 32//32 48//48
f 50//50 41//41 59//59
f 49//49 60//60 51//51
f 41//41 40//40 61//61
f 53//53 51//51 60//60
f 42//42 22//22 62//62
f 62//62 22//22 57//57
f 44//44 63//63 58//58
f 47//47 57//57 29//29
f 45//45 58//58 64//64
f 46//46 45//45 65//65
f 45//45 64//64 65//65
f 46//46 65//65 47//47
f 48//48 30//30 39//39
f 31//31 50//50 39//39
f 59//59 41//41 61//61
f 49//49 66//66 60//60
f 61//61 40//40 52//52
f 60//60 67//67 53//53
f 52//52 27//27 42//42
f 54//54 53//53 67//67
f 56//56 68//68 44//44
f 44//44 68//68 63//63
f 58//58 63//63 64//64
f 57//57 47//47 69//69
f 47//47 65//65 69//69
f 70//70 50//50 59//59
f 60//60 71//71 67//67
f 72//72 54//54 67//67
f 73//73 42//42 62//62
f 43//43 55//55 74//74
f 43//43 74//74 75//75
f 56//56 43//43 75//75
f 56//56 75//75 68//68
f 63//63 76//76 64//64
f 64//64 77//77 65//65
f 66//66 49//49 78//78
f 60//60 66//66 71//71
f 61//61 52//52 73//73
f 52//52 42//42 73//73
f 54//54 72//72 55//55
f 55//55 72//72 74//74
f 57//57 79//79 62//62
f 74//74 80//80 75//75
f 68//68 75//75 81//81
f 68//68 81//81 63//63
f 63//63 81//81 76//76
f 77//77 64//64 76//76
f 39//39 50//50 82//82
f 71//71 83//83 67//67
f 84//84 72//72 67//67
f 85//85 74//74 72//72
f 74//74 86//86 80//80
f 75//75 80//80 87//87
f 79//79 69//69 88//88
f 57//57 69//69 79//79
f 81//81 75//75 87//87
f 65//65 89//89 88//88
f 77//77 89//89 65//65
f 69//69 65//65 88//88
f 48//48 39//39 82//82
f 50//50 70//70 82//82
f 90//90 49//49 48//48
f 70//70 59//59 91//91
f 49//49 90//90 78//78
f 91//91 59//59 92//92
f 66//66 78//78 83//83
f 59//59 61//61 92//92
f 71//71 66//66 83//83
f 74//74 85//85 86//86
f 93//93 76//76 81//81
f 77//77 76//76 93//93
f 70//70 94//94 82//82
f 92//92 61//61 73//73
f 83//83 95//95 67//67
f 67//67 95//95 84//84
f 84//84 96//96 72//72
f 72//72 97//97 85//85
f 98//98 79//79 88//88
f 86//86 99//99 80//80
f 99//99 87//87 80//80
f 81//81 87//87 99//99
f 88//88 89//89 98//98
f 77//77 93//93 89//89
f 90//90 48//48 100//100
f 82//82 101//101 48//48
f 100//100 102//102 90//90
f 94//94 70//70 91//91
f 78//78 102//102 103//103
f 78//78 90//90 102//102
f 78//78 103//103 104//104
f 78//78 104//104 83//83
f 92//92 73//73 105//105
f 83//83 104//104 95//95
f 73//73 62//62 105//105
f 106//106 62//62 79//79
f 95//95 96//96 84//84
f 72//72 96//96 97//97
f 85//85 97//97 86//86
f 99//99 107//107 81//81
f 48//48 101//101 100//100
f 108//108 82//82 94//94
f 102//102 100//100 109//109
f 104//104 110//110 95//95
f 93//93 81//81 107//107
f 99//99 86//86 111//111
f 98//98 89//89 112//112
f 101//101 82//82 108//108
f 102//102 109//109 113//113
f 102//102 113//113 103//103
f 105//105 62//62 106//106
f 110//110 114//114 95//95
f 79//79 98//98 106//106
f 114//114 96//96 95//95
f 107//107 99//99 111//111
f 115//115 112//112 89//89
f 111//111 86//86 97//97
f 89//89 93//93 115//115
f 116//116 100//100 101//101
f 116//116 109//109 100//100
f 94//94 91//91 117//117
f 103//103 113//113 118//118
f 103//103 119//119 104//104
f 104//104 119//119 110//110
f 114//114 97//97 96//96
f 107//107 120//120 93//93
f 111//111 97//97 121//121
f 122//122 109//109 116//116
f 94//94 123//123 108//108
f 117//117 123//123 94//94
f 122//122 113//113 109//109
f 124//124 113//113 122//122
f 91//91 92//92 117//117
f 119//119 103//103 125//125
f 103//103 118//118 125//125
f 98//98 126//126 106//106
f 126//126 112//112 127//127
f 98//98 112//112 126//126
f 114//114 121//121 97//97
f 128//128 127//127 115//115
f 127//127 112//112 115//115
f 115//115 93//93 120//120
f 129//129 116//116 130//130
f 101//101 130//130 116//116
f 131//131 130//130 101//101
f 101//101 108//108 131//131
f 131//131 108//108 132//132
f 116//116 129//129 122//122
f 113//113 124//124 118//118
f 110//110 119//119 114//114
f 133//133 107//107 111//111
f 117//117 92//92 134//134
f 92//92 105//105 134//134
f 134//134 105//105 106//106
f 124//124 125//125 118//118
f 114//114 119//119 135//135
f 136//136 106//106 126//126
f 114//114 135//135 121//121
f 133//133 120//120 107//107
f 133//133 111//111 121//121
f 137//137 129//129 130//130
f 108//108 123//123 132//132
f 129//129 138//138 122//122
f 122//122 138//138 124//124
f 139//139 125//125 124//124
f 125//125 140//140 119//119
f 135//135 119//119 140//140
f 120//120 141//141 128//128
f 127//127 128//128 142//142
f 127//127 142//142 126//126
f 133//133 121//121 135//135
f 115//115 120//120 128//128
f 132//132 123//123 143//143
f 143//143 123//123 117//117
f 134//134 143//143 117//117
f 138//138 139//139 124//124
f 106//106 136//136 144//144
f 133//133 141//141 120//120
f 145//145 133//133 135//135
f 130//130 146//146 147//147
f 131//131 146//146 130//130
f 131//131 132//132 146//146
f 147//147 137//137 130//130
f 137//137 148//148 129//129
f 129//129 148//148 138//138
f 125//125 139//139 140//140
f 145//145 135//135 140//140
f 145//145 149//149 133//133
f 136//136 142//142 150//150
f 136//136 126//126 142//142
f 141//141 133//133 149//149
f 146//146 132//132 151//151
f 132//132 152//152 151//151
f 132//132 143//143 152//152
f 153//153 134//134 154//154
f 134//134 106//106 154//154
f 139//139 155//155 140//140
f 106//106 144//144 154//154
f 156//156 140//140 155//155
f 156//156 145//145 140//140
f 149//149 145//145 156//156
f 128//128 150//150 142//142
f 146//146 151//151 157//157
f 146//146 157//157 147//147
f 147//147 148//148 137//137
f 152//152 143//143 153//153
f 153//153 143//143 134//134
f 138//138 148//148 158//158
f 138//138 155//155 139//139
f 158//158 155//155 138//138
f 156//156 155//155 159//159
f 159//159 149//149 156//156
f 136//136 150//150 160//160
f 161//161 147//147 157//157
f 161//161 148//148 147//147
f 162//162 159//159 155//155
f 141//141 149//149 159//159
f 163//163 157//157 151//151
f 151//151 152//152 163//163
f 164//164 152//152 153//153
f 165//165 155//155 158//158
f 162//162 155//155 165//165
f 136//136 160//160 144//144
f 141//141 159//159 166//166
f 128//128 167//167 150//150
f 167//167 160//160 150//150
f 168//168 161//161 157//157
f 163//163 168//168 157//157
f 168//168 169//169 161//161
f 152//152 164//164 163//163
f 170//170 164//164 153//153
f 161//161 158//158 148//148
f 153//153 154//154 170//170
f 144//144 170//170 154//154
f 160//160 170//170 144//144
f 162//162 166//166 159//159
f 166//166 171//171 141//141
f 128//128 141//141 172//172
f 167//167 128//128 172//172
f 161//161 169//169 158//158
f 165//165 158//158 169//169
f 165//165 173//173 162//162
f 173//173 166//166 162//162
f 141//141 171//171 172//172
f 174//174 168//168 163//163
f 163//163 164//164 174//174
f 164//164 170//170 174//174
f 173//173 165//165 169//169
f 160//160 167//167 170//170
f 173//173 171//171 166//166
f 169//169 168//168 175//175
f 175//175 168//168 174//174
f 174//174 176//176 175//175
f 174//174 170//170 176//176
f 169//169 175//175 173//173
f 171//171 173//173 175//175
f 171//171 176//176 167//167
f 170//170 167//167 176//176
f 167//167 172//172 171//171
f 176//176 171//171 175//175
