# Blender v2.92.0 OBJ File: 'convert_to_one_sided.blend'
# www.blender.org
mtllib 238L.mtl
o Cube
v 0.001000 0.001000 -0.001000
v 0.001000 -0.001000 -0.001000
v 0.001000 0.001000 0.001000
v 0.001000 -0.001000 0.001000
v -0.001000 0.001000 -0.001000
v -0.001000 -0.001000 -0.001000
v -0.001000 0.001000 0.001000
v -0.001000 -0.001000 0.001000
vt 0.625000 0.500000
vt 0.875000 0.500000
vt 0.875000 0.750000
vt 0.625000 0.750000
vt 0.375000 0.750000
vt 0.625000 1.000000
vt 0.375000 1.000000
vt 0.375000 0.000000
vt 0.625000 0.000000
vt 0.625000 0.250000
vt 0.375000 0.250000
vt 0.125000 0.500000
vt 0.375000 0.500000
vt 0.125000 0.750000
vn 0.0000 1.0000 0.0000
vn 0.0000 0.0000 1.0000
vn -1.0000 0.0000 0.0000
vn 0.0000 -1.0000 0.0000
vn 1.0000 0.0000 0.0000
vn 0.0000 0.0000 -1.0000
usemtl Material
s off
f 1/1/1 5/2/1 7/3/1 3/4/1
f 4/5/2 3/4/2 7/6/2 8/7/2
f 8/8/3 7/9/3 5/10/3 6/11/3
f 6/12/4 2/13/4 4/5/4 8/14/4
f 2/13/5 1/1/5 3/4/5 4/5/5
f 6/11/6 5/10/6 1/1/6 2/13/6
o 238
v 10.057970 4.831817 5.533289
v 10.003871 4.974675 5.534540
v 10.065870 4.928606 5.528420
v 10.153069 4.925556 5.531320
v 10.117970 5.051304 5.533390
v 10.112870 4.751458 5.567609
v 10.010671 4.785277 5.567649
v 10.178569 4.813937 5.552219
v 10.274768 4.886137 5.558159
v 10.245069 4.806907 5.582629
v 9.957662 4.874597 5.556910
v 10.248268 4.954045 5.543650
v 9.927642 4.980805 5.560619
v 10.320667 4.994625 5.553239
v 10.307867 5.070414 5.546269
v 9.985412 5.088533 5.554100
v 10.061171 5.130153 5.548320
v 10.427566 5.045594 5.563550
v 10.186668 5.149463 5.547619
v 10.509265 5.105063 5.571219
v 10.472965 5.188042 5.575739
v 10.309867 5.207062 5.563320
v 10.067571 4.732598 5.605449
v 10.181668 4.759258 5.586889
v 9.931743 4.812957 5.594429
v 9.901932 4.897426 5.594039
v 10.302867 4.879126 5.583679
v 10.365966 4.967675 5.580849
v 9.893292 5.006414 5.597159
v 9.946682 5.101783 5.581199
v 10.514065 5.070124 5.583759
v 10.472365 5.035514 5.590579
v 10.021371 5.184052 5.574709
v 10.160169 5.238422 5.574780
v 10.380767 5.270611 5.586859
v 10.276068 5.263882 5.581629
v 10.255268 5.311721 5.611478
v 10.140369 4.723138 5.647988
v 9.989801 4.765158 5.609138
v 10.290868 4.837427 5.652688
v 10.350067 4.922996 5.659088
v 10.425965 4.991845 5.657988
v 9.922452 5.115953 5.606449
v 10.544964 5.070854 5.600619
v 10.560864 5.100173 5.598649
v 10.557664 5.154413 5.598529
v 9.981611 5.209572 5.611219
v 10.548164 5.218852 5.611899
v 10.588764 5.183062 5.658448
v 10.068871 5.270782 5.605579
v 10.476565 5.258132 5.605759
v 10.143570 5.291971 5.607279
v 10.217769 4.761757 5.684618
v 9.945362 4.773108 5.667178
v 9.892002 4.837067 5.675448
v 9.875363 4.923326 5.657978
v 9.895493 5.057024 5.664438
v 10.513765 5.045764 5.676178
v 10.583464 5.126983 5.664538
v 9.941892 5.171932 5.642038
v 10.508265 5.282241 5.652538
v 10.037870 5.297271 5.653978
v 10.404965 5.303730 5.626769
v 10.131370 5.315171 5.639668
v 10.316867 5.341140 5.652778
v 10.091770 4.716418 5.665098
v 10.028771 4.735708 5.689818
v 10.559064 5.087983 5.657988
v 10.558464 5.237182 5.671408
v 9.982032 5.245751 5.671218
v 10.405766 5.328111 5.681338
v 10.210968 5.339611 5.661658
v 10.130569 5.334220 5.685418
v 9.929880 5.160830 5.699999
v 9.886001 5.008544 5.699999
v 10.369253 4.942955 5.699999
v 10.588639 5.167408 5.699999
v 10.577522 5.207675 5.699999
v 10.266646 5.342333 5.699999
v 10.334330 4.899873 5.699999
v 9.898259 5.065734 5.699999
v 10.406064 4.976379 5.699999
v 10.486044 5.028778 5.699999
v 10.535176 5.066820 5.699999
v 10.096429 4.718203 5.699999
v 10.509289 5.046024 5.699999
v 10.572655 5.109604 5.699999
v 10.586456 5.145186 5.699999
v 10.084852 5.316675 5.699999
v 10.255939 5.341785 5.699999
v 10.044660 4.732278 5.699999
v 10.015913 4.739570 5.699999
v 10.028853 4.735955 5.699999
v 10.137341 5.333134 5.699999
v 9.932822 5.168622 5.699999
v 10.561419 5.091636 5.699999
v 10.232199 4.773767 5.699999
v 10.566929 5.226039 5.699999
v 10.534512 5.266475 5.699999
v 10.489382 5.294591 5.699999
v 10.219116 4.761824 5.699999
v 10.203497 4.754496 5.699999
v 10.041822 5.299852 5.699999
v 9.936550 5.174917 5.699999
v 10.023653 5.283214 5.699999
v 10.117336 4.721324 5.699999
v 9.959159 4.762872 5.699999
v 9.937476 4.781277 5.699999
v 9.981149 5.242539 5.699999
v 10.159822 4.732573 5.699999
v 9.878313 4.858636 5.699999
v 10.460122 5.306924 5.699999
v 10.273332 5.341562 5.699999
v 9.904647 4.820835 5.699999
v 10.401895 5.324924 5.699999
v 9.891226 4.846231 5.699999
v 9.871272 4.885755 5.699999
v 10.279846 4.820282 5.699999
v 9.875456 4.939787 5.699999
v 10.263936 5.342283 5.699999
v 10.308001 4.861790 5.699999
v 10.540589 5.260547 5.699999
v 10.444368 5.003195 5.699999
vn -0.0929 -0.2191 -0.9713
vn -0.1947 0.0353 -0.9802
vn -0.0293 -0.0024 -0.9996
vn 0.0957 -0.0587 -0.9937
vn -0.0037 0.0858 -0.9963
vn 0.0516 -0.6952 -0.7169
vn -0.3324 -0.5755 -0.7472
vn 0.2258 -0.3267 -0.9178
vn 0.3936 -0.3057 -0.8670
vn 0.5826 -0.6200 -0.5256
vn -0.4345 -0.2014 -0.8779
vn 0.1732 -0.1100 -0.9787
vn -0.5361 0.0546 -0.8424
vn 0.2507 -0.1888 -0.9495
vn 0.1086 0.0253 -0.9938
vn -0.3370 0.2247 -0.9143
vn -0.1172 0.2264 -0.9670
vn 0.2701 -0.3288 -0.9050
vn 0.0067 0.1929 -0.9812
vn 0.3157 -0.0518 -0.9474
vn 0.2208 0.2395 -0.9455
vn 0.0451 0.2365 -0.9706
vn -0.2019 -0.9079 -0.3673
vn 0.4053 -0.7595 -0.5088
vn -0.6542 -0.5304 -0.5392
vn -0.8103 -0.1778 -0.5584
vn 0.7277 -0.5376 -0.4260
vn 0.5642 -0.5680 -0.5992
vn -0.8612 0.1367 -0.4896
vn -0.5556 0.3017 -0.7748
vn 0.4098 -0.4290 -0.8050
vn 0.4689 -0.7459 -0.4731
vn -0.3165 0.3850 -0.8670
vn -0.0773 0.3967 -0.9147
vn 0.1199 0.4941 -0.8611
vn -0.0091 0.4226 -0.9063
vn -0.0209 0.7017 -0.7122
vn 0.2447 -0.9553 -0.1658
vn -0.4299 -0.8295 -0.3566
vn 0.7717 -0.6251 -0.1177
vn 0.7646 -0.6340 -0.1157
vn 0.5856 -0.8037 -0.1054
vn -0.8172 0.3715 -0.4406
vn 0.6458 -0.6742 -0.3584
vn 0.7709 -0.2846 -0.5699
vn 0.6914 0.1089 -0.7143
vn -0.6138 0.5269 -0.5878
vn 0.6042 0.4761 -0.6389
vn 0.9475 0.2295 -0.2228
vn -0.2751 0.6079 -0.7449
vn 0.3033 0.5815 -0.7549
vn -0.1260 0.6460 -0.7529
vn 0.5774 -0.8101 -0.1011
vn -0.5990 -0.7892 -0.1357
vn -0.8711 -0.4771 -0.1163
vn -0.9810 -0.0308 -0.1917
vn -0.9631 0.2586 -0.0750
vn 0.5942 -0.8043 0.0012
vn 0.9539 -0.2647 -0.1416
vn -0.8618 0.4625 -0.2082
vn 0.4940 0.8082 -0.3206
vn -0.4717 0.8108 -0.3465
vn 0.2185 0.7879 -0.5757
vn -0.1809 0.8350 -0.5197
vn 0.0859 0.9408 -0.3278
vn -0.1051 -0.9917 -0.0736
vn -0.3191 -0.9459 -0.0590
vn 0.8057 -0.5913 -0.0341
vn 0.7800 0.6021 -0.1706
vn -0.7658 0.6316 -0.1210
vn 0.2528 0.9653 -0.0659
vn -0.0844 0.9475 -0.3085
vn -0.6266 0.3767 0.6823
vn -0.6874 0.3113 0.6562
vn -0.2087 0.9748 -0.0781
vn 0.6502 -0.3407 0.6790
vn 0.5389 -0.4575 0.7072
vn 0.6689 0.2876 0.6855
vn 0.6166 0.4020 0.6770
vn 0.4801 0.5941 0.6454
vn 0.5470 0.5329 0.6456
vn -0.1726 -0.6598 0.7313
vn -0.0229 -0.7408 0.6713
vn 0.4514 -0.6194 0.6423
vn 0.5187 -0.5391 0.6636
vn 0.3852 -0.5915 0.7083
vn 0.4367 -0.5224 0.7324
vn 0.7165 0.0444 0.6962
vn -0.5532 0.4367 0.7094
vn 0.1213 0.6414 0.7575
vn 0.5697 -0.4056 0.7148
vn 0.4901 -0.4856 0.7239
vn -0.6836 0.1880 0.7052
vn -0.7092 0.2654 0.6531
vn -0.5204 -0.4992 0.6928
vn -0.3625 -0.6754 0.6422
vn -0.4399 -0.3733 0.8168
vn -0.5882 -0.4379 0.6799
vn -0.0314 0.7056 0.7079
vn -0.1195 0.6688 0.7338
vn 0.5833 -0.3944 0.7101
vn 0.5609 -0.4965 0.6625
vn -0.7853 -0.1476 0.6013
vn -0.7173 0.0937 0.6904
vn 0.0617 0.6678 0.7418
vn 0.2922 0.6790 0.6734
vn -0.7562 -0.2754 0.5936
vn 0.2572 -0.6620 0.7040
vn 0.1375 -0.7047 0.6960
vn -0.4619 0.5071 0.7277
vn 0.3081 -0.6293 0.7135
vn 0.3139 0.6754 0.6673
vn -0.1742 -0.6776 0.7145
vn -0.2714 -0.7054 0.6548
vn -0.0457 0.7163 0.6963
vn -0.2714 0.6605 0.7001
vn 0.7339 -0.1442 0.6637
vn 0.4766 -0.5096 0.7163
vn 0.4075 -0.5232 0.7485
vn 0.3856 -0.5950 0.7052
vn -0.0009 0.7372 0.6757
vn -0.7056 0.1168 0.6989
vn -0.3840 0.6617 0.6439
usemtl mtl1.235
s 1
f 9//7 10//8 11//9
f 12//10 9//7 11//9
f 13//11 12//10 11//9
f 10//8 13//11 11//9
f 14//12 15//13 9//7
f 16//14 14//12 9//7
f 17//15 18//16 16//14
f 15//13 19//17 9//7
f 16//14 9//7 12//10
f 20//18 16//14 12//10
f 17//15 16//14 20//18
f 9//7 19//17 10//8
f 19//17 21//19 10//8
f 17//15 20//18 22//20
f 20//18 12//10 23//21
f 24//22 10//8 21//19
f 22//20 20//18 23//21
f 23//21 12//10 13//11
f 10//8 24//22 25//23
f 13//11 10//8 25//23
f 22//20 23//21 26//24
f 27//25 13//11 25//23
f 23//21 13//11 27//25
f 28//26 26//24 23//21
f 28//26 23//21 29//27
f 29//27 23//21 30//28
f 23//21 27//25 30//28
f 14//12 31//29 15//13
f 14//12 16//14 32//30
f 18//16 32//30 16//14
f 15//13 33//31 19//17
f 33//31 34//32 19//17
f 35//33 18//16 17//15
f 19//17 34//32 21//19
f 17//15 22//20 36//34
f 36//34 35//33 17//15
f 37//35 21//19 34//32
f 26//24 36//34 22//20
f 21//19 38//36 24//22
f 26//24 39//37 40//38
f 39//37 26//24 28//26
f 24//22 38//36 41//39
f 24//22 41//39 25//23
f 42//40 25//23 41//39
f 27//25 25//23 42//40
f 27//25 42//40 30//28
f 29//27 30//28 43//41
f 44//42 30//28 42//40
f 43//41 30//28 44//42
f 44//42 42//40 45//43
f 31//29 14//12 46//44
f 14//12 32//30 46//44
f 47//45 15//13 31//29
f 15//13 47//45 33//31
f 35//33 48//46 18//16
f 35//33 36//34 49//47
f 36//34 50//48 49//47
f 36//34 26//24 40//38
f 21//19 37//35 38//36
f 37//35 51//49 38//36
f 40//38 39//37 52//50
f 52//50 39//37 53//51
f 53//51 28//26 54//52
f 39//37 28//26 53//51
f 28//26 29//27 54//52
f 38//36 55//53 41//39
f 29//27 56//54 54//52
f 56//54 57//55 54//52
f 55//53 58//56 41//39
f 43//41 59//57 29//27
f 59//57 56//54 29//27
f 41//39 58//56 42//40
f 42//40 58//56 60//58
f 42//40 60//58 45//43
f 43//41 44//42 45//43
f 32//30 61//59 46//44
f 32//30 18//16 61//59
f 18//16 48//46 61//59
f 47//45 62//60 33//31
f 33//31 62//60 63//61
f 34//32 33//31 63//61
f 34//32 63//61 64//62
f 34//32 64//62 37//35
f 65//63 37//35 64//62
f 36//34 40//38 50//48
f 40//38 66//64 50//48
f 51//49 37//35 65//63
f 40//38 52//50 66//64
f 38//36 51//49 55//53
f 53//51 54//52 67//65
f 68//66 55//53 51//49
f 54//52 57//55 67//65
f 56//54 59//57 69//67
f 58//56 55//53 70//68
f 43//41 71//69 59//57
f 58//56 70//68 72//70
f 58//56 72//70 60//58
f 45//43 71//69 43//41
f 71//69 45//43 73//71
f 31//29 74//72 75//73
f 46//44 74//72 31//29
f 47//45 75//73 62//60
f 75//73 47//45 31//29
f 48//46 35//33 49//47
f 52//50 76//74 66//64
f 76//74 52//50 53//51
f 67//65 76//74 53//51
f 51//49 65//63 68//66
f 56//54 77//75 57//55
f 55//53 68//66 78//76
f 56//54 69//67 77//75
f 55//53 78//76 70//68
f 69//67 59//57 71//69
f 69//67 71//69 79//77
f 60//58 72//70 45//43
f 79//77 71//69 73//71
f 45//43 72//70 80//78
f 73//71 45//43 80//78
f 112//79 68//66 103//80
f 70//68 81//81 72//70
f 76//74 95//82 104//83
f 86//84 77//75 106//85
f 77//75 107//86 130//87
f 80//78 72//70 81//81
f 99//88 74//72 93//89
f 109//90 61//59 105//91
f 131//92 90//93 50//48
f 85//94 57//55 86//84
f 112//79 117//95 78//76
f 90//93 131//92 123//96
f 88//97 49//47 84//98
f 89//99 82//100 65//63
f 116//101 62//60 115//102
f 124//103 63//61 122//104
f 98//105 81//81 102//106
f 48//46 129//107 126//108
f 64//62 125//109 127//110
f 79//77 121//111 123//96
f 79//77 123//96 120//112
f 63//61 125//109 64//62
f 63//61 124//103 119//113
f 62//60 122//104 63//61
f 46//44 118//114 114//115
f 78//76 117//95 113//116
f 113//116 70//68 78//76
f 61//59 118//114 46//44
f 61//59 109//90 110//117
f 120//112 69//67 79//77
f 69//67 108//118 107//86
f 77//75 130//87 106//85
f 126//108 61//59 48//46
f 75//73 115//102 62//60
f 75//73 101//119 100//120
f 75//73 99//88 101//119
f 80//78 98//105 128//121
f 70//68 97//122 81//81
f 81//81 97//122 102//106
f 67//65 96//123 95//82
f 74//72 114//115 93//89
f 76//74 92//124 66//64
f 66//64 92//124 94//125
f 91//126 50//48 66//64
f 66//64 94//125 91//126
f 49//47 129//107 48//46
f 80//78 87//127 73//71
f 73//71 121//111 79//77
f 67//65 85//94 96//123
f 50//48 84//98 49//47
f 64//62 83//128 65//63
f 65//63 83//128 89//99
f 82//100 68//66 65//63
f 112//79 78//76 68//66
f 76//74 67//65 95//82
f 86//84 57//55 77//75
f 77//75 69//67 107//86
f 99//88 75//73 74//72
f 110//117 109//90 105//91
f 105//91 126//108 83//128
f 126//108 129//107 83//128
f 129//107 88//97 89//99
f 83//128 129//107 89//99
f 118//114 110//117 99//88
f 110//117 105//91 99//88
f 93//89 114//115 99//88
f 114//115 118//114 99//88
f 100//120 101//119 127//110
f 101//119 99//88 127//110
f 105//91 83//128 99//88
f 88//97 84//98 112//79
f 116//101 115//102 100//120
f 124//103 122//104 100//120
f 122//104 116//101 100//120
f 125//109 119//113 124//103
f 83//128 127//110 99//88
f 127//110 125//109 124//103
f 82//100 89//99 88//97
f 112//79 103//80 82//100
f 113//116 117//95 84//98
f 117//95 112//79 84//98
f 97//122 111//129 113//116
f 98//105 102//106 84//98
f 102//106 97//122 84//98
f 98//105 84//98 90//93
f 87//127 128//121 121//111
f 128//121 98//105 121//111
f 123//96 121//111 90//93
f 90//93 121//111 98//105
f 108//118 120//112 94//125
f 120//112 123//96 91//126
f 91//126 123//96 131//92
f 130//87 107//86 92//124
f 107//86 108//118 92//124
f 86//84 106//85 95//82
f 106//85 130//87 92//124
f 95//82 92//124 104//83
f 96//123 85//94 86//84
f 95//82 96//123 86//84
f 94//125 92//124 108//118
f 91//126 94//125 120//112
f 92//124 95//82 106//85
f 97//122 113//116 84//98
f 112//79 82//100 88//97
f 127//110 124//103 100//120
f 63//61 119//113 125//109
f 62//60 116//101 122//104
f 113//116 111//129 70//68
f 61//59 110//117 118//114
f 120//112 108//118 69//67
f 126//108 105//91 61//59
f 75//73 100//120 115//102
f 80//78 81//81 98//105
f 70//68 111//129 97//122
f 74//72 46//44 114//115
f 76//74 104//83 92//124
f 91//126 131//92 50//48
f 49//47 88//97 129//107
f 80//78 128//121 87//127
f 73//71 87//127 121//111
f 67//65 57//55 85//94
f 50//48 90//93 84//98
f 64//62 127//110 83//128
f 82//100 103//80 68//66
