# Blender v2.92.0 OBJ File: 'convert_to_one_sided.blend'
# www.blender.org
mtllib 246L.mtl
o 246
v 9.146533 4.331694 4.219346
v 9.119793 4.384983 4.214576
v 9.160913 4.376934 4.223076
v 9.166412 4.280125 4.285475
v 9.111073 4.317594 4.287825
v 9.188342 4.329534 4.235876
v 9.198462 4.289855 4.281075
v 9.085994 4.383123 4.247086
v 9.210561 4.359184 4.260126
v 9.086723 4.431532 4.236406
v 9.104262 4.458022 4.246027
v 9.159762 4.457623 4.272946
v 9.220501 4.307564 4.286106
v 9.036593 4.475382 4.272616
v 9.067843 4.477092 4.259046
v 9.193952 4.464602 4.335955
v 9.167322 4.490352 4.311825
v 9.251560 4.306204 4.343635
v 9.050513 4.370193 4.295275
v 9.007094 4.444802 4.304736
v 9.052263 4.526871 4.286736
v 9.098824 4.554071 4.319005
v 9.237561 4.270195 4.363534
v 8.950635 4.559961 4.348335
v 9.007794 4.563711 4.316376
v 9.151612 4.511741 4.324765
v 9.205582 4.251035 4.377814
v 9.132783 4.281924 4.377354
v 9.039865 4.360803 4.349615
v 8.996574 4.419972 4.340965
v 9.248322 4.361874 4.363794
v 8.946424 4.488772 4.377735
v 9.020854 4.633840 4.352965
v 8.966915 4.634120 4.360425
v 9.131753 4.567601 4.378454
v 9.262100 4.268164 4.428414
v 9.268881 4.302214 4.438823
v 8.961785 4.444522 4.411624
v 9.244671 4.404752 4.421474
v 8.899485 4.694549 4.406584
v 9.061903 4.646920 4.387704
v 8.952604 4.726148 4.407424
v 9.266561 4.346493 4.463363
v 9.172182 4.524661 4.465064
v 8.900246 4.561590 4.410344
v 8.868316 4.638519 4.426344
v 9.002234 4.737538 4.439314
v 9.194822 4.238914 4.454533
v 9.048264 4.355983 4.456453
v 8.878896 4.550671 4.469473
v 8.890796 4.791577 4.446594
v 9.232991 4.248524 4.464463
v 9.151482 4.272164 4.512112
v 9.247051 4.387053 4.522412
v 8.850276 4.610970 4.460824
v 8.823037 4.742078 4.470664
v 9.069014 4.667559 4.451513
v 8.849297 4.818277 4.474863
v 8.869765 4.834957 4.472283
v 8.927615 4.818707 4.470383
v 8.813637 4.678539 4.485443
v 8.864286 4.859316 4.492883
v 9.255032 4.276384 4.519302
v 8.920155 4.505731 4.584182
v 8.812707 4.637630 4.517553
v 8.775578 4.761608 4.525683
v 8.976904 4.804067 4.521893
v 8.793467 4.853877 4.538483
v 8.935076 4.843506 4.507223
v 8.832207 4.868896 4.513543
v 9.205091 4.249154 4.519762
v 9.255920 4.323174 4.538632
v 9.062754 4.375233 4.598661
v 9.058714 4.668059 4.581272
v 8.779057 4.699399 4.537552
v 8.879546 4.892156 4.530383
v 9.179421 4.482811 4.589952
v 8.811296 4.626890 4.596842
v 8.753197 4.750108 4.567072
v 8.747337 4.812327 4.587232
v 8.836136 4.897686 4.544242
v 9.222641 4.265894 4.562551
v 8.761007 4.707588 4.607772
v 8.897076 4.888696 4.574472
v 8.840246 4.924036 4.603992
v 9.189372 4.268314 4.570921
v 9.143712 4.316423 4.615571
v 8.980444 4.470521 4.652071
v 8.733217 4.780627 4.637581
v 8.755088 4.873296 4.616951
v 8.792437 4.904186 4.622011
v 9.227691 4.308513 4.608691
v 9.226782 4.376903 4.598581
v 8.904645 4.554360 4.702711
v 8.761097 4.698359 4.687961
v 8.930015 4.826137 4.636011
v 9.186762 4.306544 4.620721
v 8.807857 4.642660 4.681571
v 9.077324 4.591310 4.688811
v 8.734107 4.826997 4.661491
v 8.727198 4.791377 4.698380
v 8.849617 4.907126 4.651651
v 8.813507 4.921596 4.654681
v 9.090982 4.385242 4.666230
v 9.022134 4.463861 4.694941
v 9.166203 4.466301 4.654341
v 8.842606 4.626580 4.730020
v 8.742197 4.753418 4.696510
v 8.964035 4.739288 4.705610
v 8.756647 4.864856 4.699020
v 8.786707 4.894966 4.693291
v 8.831997 4.917756 4.636041
v 9.139163 4.372933 4.679000
v 9.187702 4.345143 4.657891
v 9.175832 4.405322 4.665601
v 9.108994 4.507901 4.709351
v 8.947524 4.541901 4.734450
v 8.867725 4.842387 4.720700
v 9.154323 4.400272 4.687361
v 9.116403 4.453162 4.711141
v 8.967625 4.691049 4.764120
v 8.745817 4.797527 4.732790
v 8.782797 4.862446 4.750940
v 8.816476 4.881956 4.707790
v 9.116722 4.425112 4.703811
v 9.079683 4.452062 4.710431
v 9.009204 4.533211 4.751480
v 8.888005 4.612509 4.772039
v 8.782127 4.715229 4.741250
v 8.771697 4.819787 4.767499
v 8.825796 4.837017 4.765830
v 9.060043 4.520111 4.737710
v 9.018193 4.596140 4.757830
v 9.015834 4.562440 4.761739
v 8.943885 4.588190 4.777349
v 8.889635 4.769857 4.770279
v 8.957885 4.615029 4.789899
v 8.912985 4.694199 4.799459
v 8.847646 4.681929 4.795979
v 8.798537 4.758498 4.785460
v 8.830747 4.782867 4.781879
v 8.911085 4.633219 4.792939
v 8.894176 4.670459 4.804430
v 8.855996 4.715528 4.792279
vn -0.1516 -0.5375 -0.8295
vn -0.2131 0.0600 -0.9752
vn 0.4110 0.2297 -0.8822
vn -0.2400 -0.8924 -0.3822
vn -0.6030 -0.7090 -0.3656
vn 0.5551 -0.2837 -0.7819
vn 0.3605 -0.7602 -0.5405
vn -0.6555 -0.3252 -0.6816
vn 0.8175 0.1954 -0.5418
vn -0.4055 0.1636 -0.8993
vn 0.1250 0.4814 -0.8675
vn 0.5707 0.5246 -0.6317
vn 0.7521 -0.3969 -0.5261
vn -0.5306 0.1302 -0.8376
vn -0.2492 0.3758 -0.8926
vn 0.8192 0.4979 -0.2844
vn 0.6808 0.5874 -0.4375
vn 0.9265 -0.1706 -0.3353
vn -0.7135 -0.5365 -0.4507
vn -0.7544 -0.2480 -0.6078
vn -0.0944 0.4823 -0.8709
vn 0.4210 0.6236 -0.6587
vn 0.5907 -0.7374 -0.3276
vn -0.6536 0.0217 -0.7566
vn -0.3201 0.3657 -0.8740
vn 0.6198 0.6505 -0.4390
vn 0.0848 -0.9671 -0.2400
vn -0.5429 -0.8350 -0.0899
vn -0.7048 -0.6957 -0.1385
vn -0.8067 -0.4878 -0.3336
vn 0.9416 0.2429 -0.2333
vn -0.8306 -0.3521 -0.4314
vn 0.1270 0.5732 -0.8095
vn -0.2752 0.3664 -0.8888
vn 0.7252 0.6165 -0.3066
vn 0.8314 -0.5464 -0.1014
vn 0.9985 -0.0493 -0.0249
vn -0.7919 -0.6027 -0.0984
vn 0.9035 0.4216 -0.0766
vn -0.4357 0.2518 -0.8641
vn 0.5700 0.6530 -0.4988
vn 0.0337 0.5219 -0.8523
vn 0.9812 0.1925 0.0159
vn 0.8363 0.5482 0.0080
vn -0.8048 -0.2863 -0.5199
vn -0.7332 -0.0835 -0.6748
vn 0.5390 0.6572 -0.5268
vn -0.1942 -0.9809 0.0062
vn -0.6839 -0.7253 0.0783
vn -0.8246 -0.5259 -0.2083
vn -0.0516 0.4945 -0.8677
vn 0.4221 -0.9061 0.0280
vn -0.5502 -0.8163 0.1761
vn 0.9145 0.3684 0.1671
vn -0.8232 -0.3264 -0.4645
vn -0.6774 0.1197 -0.7258
vn 0.7758 0.6142 -0.1446
vn -0.4801 0.3677 -0.7964
vn -0.1498 0.5420 -0.8269
vn 0.2751 0.6528 -0.7059
vn -0.8174 -0.1806 -0.5471
vn -0.0616 0.6647 -0.7446
vn 0.8524 -0.4665 0.2362
vn -0.7104 -0.6903 0.1372
vn -0.8603 -0.4359 -0.2644
vn -0.8235 0.0331 -0.5664
vn 0.7737 0.6325 -0.0370
vn -0.6829 0.4435 -0.5805
vn 0.5935 0.7253 -0.3489
vn -0.4463 0.5676 -0.6918
vn -0.0470 -0.9720 0.2301
vn 0.9673 0.0249 0.2525
vn -0.6301 -0.7209 0.2885
vn 0.8098 0.5575 0.1829
vn -0.8857 -0.2801 -0.3703
vn 0.2749 0.8450 -0.4586
vn 0.8427 0.4867 0.2304
vn -0.7981 -0.6024 -0.0085
vn -0.9352 -0.1506 -0.3206
vn -0.9150 0.1676 -0.3671
vn -0.3352 0.7958 -0.5043
vn 0.3566 -0.8283 0.4321
vn -0.9112 -0.3992 -0.1023
vn 0.6464 0.7622 0.0341
vn 0.1483 0.9871 -0.0598
vn -0.2179 -0.8758 0.4306
vn -0.4325 -0.7654 0.4766
vn -0.5932 -0.7270 0.3459
vn -0.9824 -0.1368 -0.1269
vn -0.8190 0.5344 -0.2088
vn -0.5765 0.8008 -0.1627
vn 0.7463 -0.3050 0.5916
vn 0.8863 0.2340 0.3996
vn -0.6129 -0.7097 0.3473
vn -0.8414 -0.5086 0.1825
vn 0.7438 0.5997 0.2953
vn 0.0305 -0.7399 0.6721
vn -0.7234 -0.6446 0.2474
vn 0.7734 0.4749 0.4198
vn -0.9579 0.2856 0.0290
vn -0.9808 -0.0335 0.1919
vn 0.5011 0.7921 0.3486
vn 0.0150 0.9592 0.2822
vn -0.4558 -0.6649 0.5917
vn -0.4502 -0.6760 0.5834
vn 0.8169 0.3593 0.4511
vn -0.6829 -0.6235 0.3806
vn -0.9111 -0.3446 0.2259
vn 0.7247 0.5666 0.3921
vn -0.7963 0.5470 0.2582
vn -0.3953 0.8516 0.3444
vn 0.3617 0.9029 0.2322
vn -0.1128 -0.5784 0.8079
vn 0.4234 -0.3706 0.8267
vn 0.7409 0.1163 0.6615
vn 0.6656 0.2204 0.7130
vn -0.4258 -0.6974 0.5765
vn 0.5832 0.6387 0.5019
vn 0.4062 -0.1823 0.8954
vn 0.3701 -0.0871 0.9249
vn 0.6479 0.4408 0.6212
vn -0.8703 0.0118 0.4924
vn -0.2388 0.6519 0.7197
vn 0.2538 0.7938 0.5527
vn 0.0621 -0.3342 0.9405
vn -0.1413 -0.4608 0.8762
vn -0.0615 -0.5032 0.8620
vn -0.4739 -0.6073 0.6376
vn -0.7546 -0.4293 0.4963
vn -0.5659 0.2783 0.7761
vn 0.2904 0.5803 0.7609
vn 0.3277 -0.1485 0.9330
vn 0.5746 0.1891 0.7963
vn 0.3314 -0.1562 0.9305
vn -0.2029 -0.5336 0.8210
vn 0.4979 0.4976 0.7102
vn 0.1788 -0.1860 0.9661
vn 0.2869 0.2408 0.9272
vn -0.4472 -0.3264 0.8328
vn -0.4531 -0.0562 0.8897
vn 0.0187 0.2755 0.9611
vn -0.2011 -0.4092 0.8900
vn -0.0591 -0.0704 0.9958
vn -0.0836 0.1306 0.9879
usemtl mtl1.1090
s 1
f 1//1 2//2 3//3
f 1//1 4//4 5//5
f 1//1 6//6 7//7
f 8//8 1//1 5//5
f 1//1 8//8 2//2
f 6//6 1//1 3//3
f 9//9 6//6 3//3
f 2//2 8//8 10//10
f 3//3 2//2 11//11
f 12//12 9//9 3//3
f 10//10 11//11 2//2
f 3//3 11//11 12//12
f 7//7 4//4 1//1
f 7//7 6//6 13//13
f 9//9 13//13 6//6
f 8//8 14//14 10//10
f 10//10 14//14 15//15
f 16//16 12//12 17//17
f 11//11 10//10 15//15
f 9//9 18//18 13//13
f 8//8 5//5 19//19
f 8//8 19//19 20//20
f 9//9 12//12 16//16
f 8//8 20//20 14//14
f 14//14 21//21 15//15
f 11//11 15//15 21//21
f 12//12 11//11 22//22
f 13//13 23//23 7//7
f 20//20 24//24 14//14
f 25//25 14//14 24//24
f 14//14 25//25 21//21
f 12//12 22//22 26//26
f 17//17 12//12 26//26
f 22//22 11//11 21//21
f 7//7 27//27 4//4
f 27//27 7//7 23//23
f 5//5 4//4 28//28
f 18//18 23//23 13//13
f 5//5 29//29 19//19
f 19//19 29//29 30//30
f 18//18 9//9 31//31
f 19//19 30//30 20//20
f 9//9 16//16 31//31
f 32//32 20//20 30//30
f 24//24 20//20 32//32
f 21//21 25//25 33//33
f 21//21 33//33 22//22
f 28//28 4//4 27//27
f 5//5 28//28 29//29
f 17//17 26//26 16//16
f 25//25 34//34 33//33
f 26//26 22//22 35//35
f 23//23 18//18 36//36
f 36//36 18//18 37//37
f 18//18 31//31 37//37
f 30//30 38//38 32//32
f 31//31 16//16 39//39
f 16//16 26//26 35//35
f 40//40 34//34 24//24
f 25//25 24//24 34//34
f 35//35 22//22 41//41
f 34//34 42//42 33//33
f 33//33 41//41 22//22
f 37//37 31//31 43//43
f 30//30 29//29 38//38
f 43//43 31//31 39//39
f 16//16 35//35 44//44
f 39//39 16//16 44//44
f 32//32 45//45 24//24
f 45//45 46//46 24//24
f 24//24 46//46 40//40
f 34//34 40//40 42//42
f 33//33 47//47 41//41
f 47//47 33//33 42//42
f 27//27 48//48 28//28
f 49//49 38//38 29//29
f 50//50 32//32 38//38
f 32//32 50//50 45//45
f 42//42 40//40 51//51
f 48//48 27//27 52//52
f 27//27 23//23 52//52
f 36//36 52//52 23//23
f 28//28 49//49 29//29
f 53//53 49//49 28//28
f 43//43 39//39 54//54
f 46//46 45//45 55//55
f 46//46 56//56 40//40
f 41//41 57//57 35//35
f 56//56 58//58 40//40
f 57//57 41//41 47//47
f 51//51 40//40 58//58
f 58//58 59//59 51//51
f 42//42 60//60 47//47
f 60//60 42//42 51//51
f 35//35 57//57 44//44
f 55//55 61//61 46//46
f 46//46 61//61 56//56
f 51//51 62//62 60//60
f 51//51 59//59 62//62
f 48//48 53//53 28//28
f 63//63 52//52 36//36
f 36//36 37//37 63//63
f 38//38 49//49 64//64
f 55//55 45//45 50//50
f 61//61 55//55 65//65
f 56//56 61//61 66//66
f 47//47 67//67 57//57
f 68//68 58//58 56//56
f 47//47 69//69 67//67
f 69//69 47//47 60//60
f 59//59 58//58 62//62
f 58//58 70//70 62//62
f 48//48 71//71 53//53
f 48//48 52//52 71//71
f 63//63 37//37 72//72
f 53//53 73//73 49//49
f 37//37 43//43 72//72
f 72//72 43//43 54//54
f 50//50 38//38 64//64
f 54//54 39//39 44//44
f 55//55 50//50 65//65
f 57//57 74//74 44//44
f 75//75 61//61 65//65
f 61//61 75//75 66//66
f 74//74 57//57 67//67
f 68//68 56//56 66//66
f 68//68 70//70 58//58
f 60//60 62//62 76//76
f 60//60 76//76 69//69
f 64//64 49//49 73//73
f 44//44 77//77 54//54
f 74//74 77//77 44//44
f 50//50 78//78 65//65
f 79//79 66//66 75//75
f 66//66 80//80 68//68
f 70//70 81//81 62//62
f 81//81 76//76 62//62
f 82//82 52//52 63//63
f 64//64 78//78 50//50
f 75//75 65//65 83//83
f 80//80 66//66 79//79
f 67//67 69//69 84//84
f 84//84 69//69 76//76
f 70//70 68//68 81//81
f 76//76 81//81 85//85
f 76//76 85//85 84//84
f 53//53 86//86 87//87
f 71//71 86//86 53//53
f 82//82 86//86 71//71
f 71//71 52//52 82//82
f 53//53 87//87 73//73
f 88//88 64//64 73//73
f 65//65 78//78 83//83
f 75//75 83//83 79//79
f 79//79 89//89 80//80
f 80//80 90//90 68//68
f 81//81 68//68 91//91
f 85//85 81//81 91//91
f 92//92 82//82 63//63
f 72//72 92//92 63//63
f 72//72 54//54 93//93
f 64//64 88//88 94//94
f 95//95 83//83 78//78
f 67//67 96//96 74//74
f 84//84 96//96 67//67
f 68//68 90//90 91//91
f 97//97 87//87 86//86
f 72//72 93//93 92//92
f 93//93 54//54 77//77
f 64//64 98//98 78//78
f 95//95 78//78 98//98
f 77//77 74//74 99//99
f 83//83 89//89 79//79
f 100//100 89//89 101//101
f 89//89 100//100 80//80
f 80//80 100//100 90//90
f 102//102 96//96 84//84
f 102//102 84//84 85//85
f 91//91 103//103 85//85
f 86//86 82//82 97//97
f 82//82 92//92 97//97
f 104//104 73//73 87//87
f 105//105 73//73 104//104
f 88//88 73//73 105//105
f 77//77 106//106 93//93
f 94//94 107//107 64//64
f 64//64 107//107 98//98
f 108//108 89//89 83//83
f 96//96 109//109 74//74
f 110//110 90//90 100//100
f 90//90 110//110 91//91
f 91//91 110//110 111//111
f 91//91 111//111 103//103
f 112//112 102//102 85//85
f 85//85 103//103 112//112
f 97//97 113//113 87//87
f 87//87 113//113 104//104
f 77//77 99//99 106//106
f 83//83 95//95 108//108
f 74//74 109//109 99//99
f 89//89 108//108 101//101
f 103//103 102//102 112//112
f 113//113 97//97 114//114
f 114//114 97//97 92//92
f 92//92 93//93 115//115
f 93//93 106//106 115//115
f 116//116 115//115 106//106
f 117//117 88//88 105//105
f 117//117 94//94 88//88
f 106//106 99//99 116//116
f 96//96 102//102 118//118
f 113//113 114//114 119//119
f 92//92 115//115 114//114
f 115//115 119//119 114//114
f 120//120 119//119 115//115
f 115//115 116//116 120//120
f 99//99 109//109 121//121
f 108//108 122//122 101//101
f 101//101 122//122 100//100
f 122//122 110//110 100//100
f 109//109 96//96 118//118
f 111//111 110//110 123//123
f 111//111 124//124 103//103
f 103//103 124//124 102//102
f 119//119 125//125 113//113
f 105//105 104//104 126//126
f 104//104 113//113 126//126
f 125//125 126//126 113//113
f 119//119 120//120 125//125
f 105//105 127//127 117//117
f 105//105 126//126 127//127
f 128//128 107//107 94//94
f 128//128 94//94 117//117
f 129//129 95//95 98//98
f 129//129 108//108 95//95
f 122//122 130//130 110//110
f 124//124 131//131 118//118
f 124//124 111//111 123//123
f 118//118 102//102 124//124
f 125//125 120//120 126//126
f 120//120 132//132 126//126
f 127//127 126//126 132//132
f 120//120 116//116 132//132
f 133//133 132//132 116//116
f 116//116 99//99 133//133
f 99//99 121//121 133//133
f 129//129 98//98 107//107
f 110//110 130//130 123//123
f 123//123 131//131 124//124
f 132//132 134//134 127//127
f 117//117 127//127 135//135
f 117//117 135//135 128//128
f 132//132 133//133 134//134
f 109//109 136//136 121//121
f 136//136 109//109 118//118
f 118//118 131//131 136//136
f 135//135 127//127 137//137
f 127//127 134//134 137//137
f 134//134 133//133 137//137
f 138//138 137//137 133//133
f 107//107 139//139 129//129
f 128//128 139//139 107//107
f 133//133 121//121 138//138
f 129//129 122//122 108//108
f 129//129 140//140 122//122
f 121//121 136//136 138//138
f 122//122 140//140 130//130
f 140//140 141//141 130//130
f 123//123 130//130 141//141
f 142//142 135//135 137//137
f 135//135 142//142 128//128
f 137//137 143//143 142//142
f 128//128 142//142 139//139
f 137//137 138//138 143//143
f 129//129 139//139 140//140
f 131//131 123//123 141//141
f 136//136 131//131 141//141
f 139//139 142//142 143//143
f 143//143 144//144 139//139
f 143//143 138//138 144//144
f 140//140 139//139 144//144
f 144//144 141//141 140//140
f 138//138 136//136 141//141
f 144//144 138//138 141//141
