# Blender v2.92.0 OBJ File: 'convert_to_one_sided.blend'
# www.blender.org
mtllib 249L.mtl
o 249
v 8.687078 2.863543 1.495451
v 8.662868 2.886433 1.474441
v 8.694618 2.942412 1.469462
v 8.699128 2.906562 1.488321
v 8.656089 2.923442 1.464172
v 8.681108 2.948602 1.470632
v 8.662879 2.950542 1.480351
v 8.686129 2.959812 1.484191
v 8.608419 2.850763 1.501671
v 8.601370 2.798064 1.517881
v 8.619439 2.902513 1.505371
v 8.638719 2.939022 1.513931
v 8.604710 2.741134 1.549491
v 8.688908 2.855853 1.521771
v 8.686958 2.896723 1.524331
v 8.665658 2.946312 1.513821
v 8.551130 2.718275 1.558110
v 8.543720 2.754544 1.554981
v 8.527949 2.773604 1.589420
v 8.596869 2.876842 1.551060
v 8.675148 2.924842 1.529591
v 8.642098 2.742515 1.575930
v 8.508200 2.627646 1.608770
v 8.500670 2.677635 1.593110
v 8.567180 2.620196 1.625190
v 8.470521 2.672905 1.616660
v 8.663898 2.792134 1.575410
v 8.612419 2.886652 1.558700
v 8.450301 2.613186 1.631049
v 8.622599 2.676505 1.637269
v 8.558060 2.817133 1.592310
v 8.665388 2.859193 1.576980
v 8.632169 2.857473 1.582370
v 8.587560 2.606536 1.660679
v 8.421701 2.638256 1.658839
v 8.636478 2.751124 1.625419
v 8.462240 2.491298 1.693769
v 8.380543 2.513818 1.683899
v 8.393462 2.578367 1.670069
v 8.425812 2.651086 1.682199
v 8.513181 2.752014 1.633019
v 8.564880 2.801434 1.615450
v 8.529940 2.522377 1.697649
v 8.289783 2.494878 1.717878
v 8.579710 2.582947 1.692269
v 8.628119 2.787134 1.624699
v 8.580070 2.751844 1.652099
v 8.300254 2.354409 1.778667
v 8.254464 2.440628 1.733778
v 8.316452 2.548617 1.730008
v 8.496680 2.693445 1.682319
v 8.409602 2.350990 1.786967
v 8.473571 2.417249 1.759998
v 8.183424 2.445458 1.742828
v 8.524470 2.487028 1.751238
v 8.572140 2.600666 1.711998
v 8.588620 2.696765 1.676559
v 8.169664 2.383729 1.773728
v 8.130755 2.432498 1.765078
v 8.174245 2.473498 1.764398
v 8.355343 2.571856 1.751658
v 8.284693 2.525557 1.776577
v 8.426151 2.627526 1.719188
v 8.526940 2.655986 1.713948
v 8.427431 2.306530 1.835967
v 8.101195 2.376289 1.811727
v 8.466351 2.369849 1.816767
v 8.100636 2.442678 1.802277
v 8.541450 2.615616 1.732118
v 8.431432 2.604376 1.745528
v 8.169105 2.278311 1.852736
v 8.349262 2.254601 1.864726
v 8.082235 2.418959 1.830467
v 8.504301 2.474158 1.802657
v 8.150235 2.467988 1.817987
v 8.241203 2.498038 1.782427
v 8.459011 2.545167 1.788687
v 8.261273 2.224991 1.887786
v 8.120066 2.300430 1.859406
v 8.104556 2.333100 1.862116
v 8.468882 2.379079 1.840037
v 8.512070 2.536487 1.774577
v 8.098896 2.427758 1.841127
v 8.312754 2.499068 1.811037
v 8.437401 2.308340 1.862106
v 8.447521 2.376249 1.876906
v 8.470820 2.475188 1.819467
v 8.102046 2.358889 1.870966
v 8.413642 2.430148 1.858426
v 8.302423 2.206681 1.904436
v 8.142505 2.251351 1.901206
v 8.396731 2.258391 1.892816
v 8.128575 2.280430 1.913746
v 8.201884 2.398069 1.883246
v 8.188424 2.214341 1.925396
v 8.266804 2.203801 1.932925
v 8.330803 2.221551 1.917126
v 8.415771 2.295120 1.904286
v 8.146715 2.314640 1.924146
v 8.161245 2.229341 1.944385
v 8.363193 2.241201 1.930106
v 8.406832 2.308340 1.932055
v 8.404352 2.349849 1.914056
v 8.319433 2.374059 1.906636
v 8.230614 2.308150 1.950685
v 8.215714 2.211651 1.965805
v 8.296153 2.222651 1.955705
v 8.328662 2.251061 1.958125
v 8.167765 2.251351 1.956175
v 8.317964 2.299310 1.946825
v 8.184834 2.273321 1.962805
v 8.261733 2.221131 1.972255
v 8.243004 2.255351 1.956505
vn 0.6874 -0.4315 -0.5842
vn 0.0897 -0.2822 -0.9552
vn 0.8270 0.1788 -0.5330
vn 0.9982 -0.0383 -0.0470
vn -0.4483 0.2119 -0.8684
vn 0.1132 0.4733 -0.8736
vn -0.4394 0.8330 -0.3361
vn 0.5187 0.8528 0.0605
vn -0.6110 -0.0054 -0.7916
vn -0.2250 -0.3166 -0.9215
vn -0.8188 0.4275 -0.3830
vn -0.6200 0.7692 0.1547
vn 0.2296 -0.5400 -0.8097
vn 0.9664 -0.2540 0.0403
vn 0.9059 0.1695 0.3880
vn -0.0639 0.8390 0.5404
vn -0.2349 -0.3421 -0.9098
vn -0.6128 -0.0102 -0.7902
vn -0.8433 0.4603 -0.2774
vn -0.7800 0.6127 0.1275
vn 0.4980 0.5425 0.6765
vn 0.7720 -0.5209 -0.3642
vn -0.0846 -0.4522 -0.8879
vn -0.4653 -0.1804 -0.8666
vn 0.3952 -0.6007 -0.6949
vn -0.6828 0.1253 -0.7197
vn 0.9541 -0.1878 0.2333
vn -0.3876 0.6897 0.6116
vn -0.4600 -0.1427 -0.8764
vn 0.9415 -0.2992 0.1548
vn -0.6719 0.6581 0.3398
vn 0.5849 0.3246 0.7433
vn 0.0476 0.5697 0.8205
vn 0.7553 -0.5687 -0.3257
vn -0.7733 0.4091 -0.4845
vn 0.7974 0.0474 0.6016
vn 0.1641 -0.5798 -0.7981
vn -0.2411 -0.3028 -0.9220
vn -0.6072 0.1187 -0.7857
vn -0.6320 0.7399 0.2306
vn -0.6055 0.6852 0.4048
vn -0.2902 0.6387 0.7126
vn 0.5577 -0.6371 -0.5321
vn -0.4076 0.1851 -0.8942
vn 0.9132 -0.3691 0.1728
vn 0.3665 0.3643 0.8561
vn 0.0453 0.5201 0.8529
vn -0.0306 -0.5728 -0.8191
vn -0.1623 -0.3207 -0.9332
vn -0.6433 0.7243 -0.2480
vn -0.2779 0.6610 0.6971
vn 0.2080 -0.6359 -0.7432
vn 0.5636 -0.6141 -0.5524
vn -0.3202 0.0014 -0.9474
vn 0.8881 -0.4596 0.0054
vn 0.7758 0.0101 0.6309
vn 0.4321 0.3144 0.8453
vn -0.2493 -0.4718 -0.8457
vn -0.5714 0.0387 -0.8198
vn -0.4861 0.7302 -0.4801
vn -0.3969 0.7797 0.4843
vn -0.4272 0.8070 0.4078
vn -0.3541 0.7404 0.5714
vn 0.0768 0.5271 0.8463
vn 0.5563 -0.6900 -0.4631
vn -0.7181 -0.3484 -0.6025
vn 0.8372 -0.5148 -0.1845
vn -0.7757 0.5661 -0.2790
vn 0.3968 0.3393 0.8529
vn -0.1624 0.6473 0.7447
vn -0.2834 -0.6653 -0.6907
vn 0.2389 -0.7621 -0.6017
vn -0.9908 0.1138 0.0734
vn 0.7607 0.0579 0.6466
vn -0.3178 0.8801 0.3528
vn -0.3783 0.8873 0.2637
vn 0.1345 0.4853 0.8640
vn -0.0904 -0.7851 -0.6128
vn -0.6852 -0.5691 -0.4545
vn -0.9459 -0.3243 -0.0101
vn 0.9126 -0.2661 0.3105
vn 0.4540 0.3100 0.8353
vn -0.5379 0.5801 0.6116
vn -0.1317 0.6695 0.7310
vn 0.8537 -0.5196 0.0346
vn 0.6460 0.1904 0.7392
vn 0.3596 0.3821 0.8513
vn -0.8358 0.0742 0.5441
vn 0.1725 0.5121 0.8414
vn 0.1809 -0.9249 -0.3345
vn -0.7271 -0.6549 -0.2059
vn 0.6308 -0.7741 -0.0540
vn -0.8783 -0.1749 0.4450
vn -0.1281 0.5949 0.7935
vn -0.3137 -0.9232 -0.2222
vn 0.0516 -0.9965 0.0654
vn 0.4199 -0.9063 0.0480
vn 0.7927 -0.3639 0.4891
vn -0.4779 0.3482 0.8065
vn -0.6868 -0.6192 0.3806
vn 0.5738 -0.6484 0.5003
vn 0.5108 0.0588 0.8577
vn 0.2394 0.4544 0.8580
vn 0.0351 0.5519 0.8331
vn -0.0366 0.4171 0.9081
vn -0.1800 -0.6514 0.7371
vn 0.3113 -0.7645 0.5645
vn 0.3562 -0.1659 0.9196
vn -0.4556 -0.0843 0.8862
vn 0.0905 0.3057 0.9478
vn -0.1719 0.1682 0.9706
vn 0.0837 -0.2190 0.9721
vn -0.0128 0.1128 0.9935
usemtl mtl1.1092
s 1
f 1//1 2//2 3//3
f 1//1 3//3 4//4
f 2//2 5//5 6//6
f 6//6 3//3 2//2
f 6//6 5//5 7//7
f 6//6 7//7 8//8
f 3//3 6//6 8//8
f 9//9 2//2 10//10
f 5//5 2//2 9//9
f 9//9 11//11 5//5
f 7//7 11//11 12//12
f 5//5 11//11 7//7
f 13//13 10//10 2//2
f 2//2 1//1 13//13
f 14//14 1//1 4//4
f 3//3 8//8 15//15
f 15//15 4//4 3//3
f 7//7 16//16 8//8
f 10//10 13//13 17//17
f 17//17 18//18 10//10
f 9//9 10//10 18//18
f 19//19 9//9 18//18
f 9//9 19//19 11//11
f 20//20 12//12 11//11
f 7//7 12//12 16//16
f 8//8 21//21 15//15
f 8//8 16//16 21//21
f 13//13 1//1 22//22
f 22//22 1//1 14//14
f 19//19 20//20 11//11
f 15//15 14//14 4//4
f 17//17 23//23 24//24
f 13//13 23//23 17//17
f 25//25 13//13 22//22
f 18//18 17//17 24//24
f 26//26 18//18 24//24
f 19//19 18//18 26//26
f 22//22 14//14 27//27
f 14//14 15//15 27//27
f 12//12 20//20 28//28
f 12//12 28//28 16//16
f 29//29 24//24 23//23
f 13//13 25//25 23//23
f 26//26 24//24 29//29
f 30//30 22//22 27//27
f 31//31 20//20 19//19
f 15//15 21//21 32//32
f 16//16 28//28 33//33
f 32//32 21//21 33//33
f 21//21 16//16 33//33
f 25//25 22//22 34//34
f 35//35 19//19 26//26
f 27//27 15//15 36//36
f 36//36 15//15 32//32
f 20//20 31//31 28//28
f 25//25 37//37 23//23
f 23//23 38//38 29//29
f 26//26 29//29 39//39
f 34//34 22//22 30//30
f 40//40 19//19 35//35
f 41//41 19//19 40//40
f 36//36 30//30 27//27
f 19//19 41//41 31//31
f 31//31 42//42 28//28
f 28//28 42//42 33//33
f 37//37 38//38 23//23
f 37//37 25//25 43//43
f 38//38 44//44 39//39
f 25//25 34//34 43//43
f 38//38 39//39 29//29
f 35//35 26//26 39//39
f 34//34 30//30 45//45
f 31//31 41//41 42//42
f 46//46 33//33 47//47
f 36//36 32//32 46//46
f 46//46 32//32 33//33
f 37//37 48//48 38//38
f 38//38 49//49 44//44
f 35//35 39//39 50//50
f 40//40 35//35 50//50
f 51//51 42//42 41//41
f 33//33 42//42 47//47
f 48//48 37//37 52//52
f 53//53 37//37 43//43
f 38//38 48//48 49//49
f 54//54 44//44 49//49
f 43//43 34//34 55//55
f 50//50 39//39 44//44
f 30//30 56//56 45//45
f 36//36 56//56 30//30
f 57//57 56//56 36//36
f 40//40 51//51 41//41
f 46//46 57//57 36//36
f 47//47 57//57 46//46
f 42//42 51//51 47//47
f 48//48 58//58 49//49
f 52//52 37//37 53//53
f 54//54 58//58 59//59
f 49//49 58//58 54//54
f 54//54 59//59 60//60
f 53//53 43//43 55//55
f 54//54 60//60 44//44
f 60//60 50//50 44//44
f 45//45 55//55 34//34
f 45//45 56//56 55//55
f 61//61 50//50 62//62
f 61//61 40//40 50//50
f 40//40 61//61 63//63
f 51//51 40//40 63//63
f 51//51 64//64 47//47
f 47//47 64//64 57//57
f 65//65 52//52 53//53
f 58//58 66//66 59//59
f 67//67 53//53 55//55
f 68//68 59//59 66//66
f 60//60 59//59 68//68
f 56//56 57//57 69//69
f 69//69 57//57 64//64
f 64//64 51//51 70//70
f 58//58 48//48 71//71
f 48//48 52//52 72//72
f 66//66 73//73 68//68
f 56//56 74//74 55//55
f 60//60 68//68 75//75
f 50//50 60//60 76//76
f 50//50 76//76 62//62
f 70//70 51//51 63//63
f 69//69 64//64 77//77
f 71//71 48//48 78//78
f 66//66 71//71 79//79
f 72//72 78//78 48//48
f 58//58 71//71 66//66
f 65//65 53//53 67//67
f 66//66 80//80 73//73
f 66//66 79//79 80//80
f 55//55 74//74 81//81
f 60//60 75//75 76//76
f 82//82 69//69 77//77
f 56//56 69//69 82//82
f 63//63 61//61 70//70
f 64//64 70//70 77//77
f 81//81 67//67 55//55
f 73//73 83//83 68//68
f 75//75 68//68 83//83
f 74//74 56//56 82//82
f 62//62 84//84 61//61
f 77//77 70//70 84//84
f 65//65 72//72 52//52
f 65//65 67//67 85//85
f 86//86 81//81 74//74
f 87//87 86//86 74//74
f 88//88 83//83 73//73
f 74//74 82//82 87//87
f 76//76 75//75 84//84
f 62//62 76//76 84//84
f 77//77 87//87 82//82
f 89//89 87//87 77//77
f 70//70 61//61 84//84
f 78//78 72//72 90//90
f 71//71 91//91 79//79
f 72//72 65//65 92//92
f 65//65 85//85 92//92
f 79//79 91//91 80//80
f 67//67 81//81 85//85
f 80//80 93//93 88//88
f 80//80 88//88 73//73
f 75//75 83//83 94//94
f 84//84 75//75 94//94
f 71//71 78//78 95//95
f 91//91 71//71 95//95
f 95//95 78//78 96//96
f 78//78 90//90 96//96
f 72//72 97//97 90//90
f 72//72 92//92 97//97
f 93//93 80//80 91//91
f 98//98 81//81 86//86
f 83//83 88//88 99//99
f 87//87 89//89 86//86
f 89//89 77//77 84//84
f 93//93 91//91 100//100
f 97//97 92//92 101//101
f 98//98 92//92 85//85
f 81//81 98//98 85//85
f 98//98 86//86 102//102
f 93//93 99//99 88//88
f 102//102 86//86 103//103
f 94//94 104//104 84//84
f 103//103 86//86 89//89
f 94//94 83//83 99//99
f 89//89 84//84 104//104
f 91//91 95//95 100//100
f 90//90 97//97 96//96
f 101//101 92//92 98//98
f 105//105 104//104 94//94
f 103//103 89//89 104//104
f 95//95 106//106 100//100
f 97//97 107//107 96//96
f 97//97 101//101 107//107
f 98//98 108//108 101//101
f 98//98 102//102 108//108
f 99//99 93//93 109//109
f 104//104 110//110 103//103
f 105//105 94//94 99//99
f 96//96 106//106 95//95
f 100//100 106//106 109//109
f 109//109 93//93 100//100
f 101//101 108//108 107//107
f 109//109 111//111 99//99
f 108//108 102//102 110//110
f 110//110 102//102 103//103
f 105//105 99//99 111//111
f 104//104 105//105 110//110
f 106//106 96//96 107//107
f 112//112 106//106 107//107
f 107//107 108//108 112//112
f 113//113 106//106 112//112
f 106//106 113//113 109//109
f 108//108 113//113 112//112
f 113//113 111//111 109//109
f 105//105 111//111 113//113
f 110//110 105//105 113//113
f 108//108 110//110 113//113
