# Blender v2.92.0 OBJ File: 'convert_to_one_sided.blend'
# www.blender.org
mtllib 257L.mtl
o 257
v 7.840859 1.161234 3.563194
v 7.839349 1.141855 3.578134
v 7.833589 1.161614 3.586714
v 7.859839 1.135105 3.584454
v 7.887218 1.151564 3.587254
v 7.866909 1.177634 3.579644
v 7.848449 1.183364 3.585374
v 7.927298 1.122335 3.620873
v 7.945998 1.172994 3.629824
v 7.899639 1.195884 3.616974
v 7.860099 1.203894 3.609534
v 7.865048 1.105705 3.643064
v 7.937038 1.103845 3.653843
v 7.845449 1.128015 3.646593
v 7.836989 1.151935 3.658013
v 7.987997 1.144805 3.657663
v 7.846029 1.181314 3.639034
v 7.918128 1.209394 3.655333
v 8.020607 1.116405 3.690943
v 8.020297 1.165674 3.681633
v 7.933348 1.079055 3.713032
v 7.886278 1.200604 3.689753
v 7.910488 1.068846 3.755842
v 8.064226 1.081496 3.763082
v 8.044106 1.184344 3.716512
v 7.995947 1.205044 3.782822
v 7.884338 1.084365 3.763392
v 7.856049 1.121765 3.721422
v 8.118196 1.145825 3.753372
v 7.862389 1.144865 3.748182
v 7.885418 1.178604 3.747502
v 8.085735 1.202374 3.790741
v 8.137885 1.109875 3.774962
v 8.042696 1.047166 3.846201
v 7.978077 1.184804 3.879420
v 8.292084 1.116365 3.860631
v 8.220135 1.171394 3.832961
v 8.262903 1.183884 3.885930
v 8.144885 1.201964 3.875320
v 7.879689 1.106295 3.797781
v 7.913858 1.155665 3.855840
v 8.242085 1.193984 3.909160
v 7.953728 1.049196 3.884940
v 8.250434 1.079666 3.853341
v 8.222904 1.045786 3.889740
v 8.302223 1.146535 3.874920
v 8.347632 1.089465 3.893180
v 7.909318 1.119795 3.882910
v 8.104316 1.194234 3.915950
v 7.917898 1.082245 3.874240
v 8.378543 1.069676 3.916290
v 8.395252 1.038086 3.947949
v 8.437481 1.126695 3.953169
v 7.942078 1.141935 3.952810
v 8.368572 1.157395 3.932160
v 7.966688 1.156885 3.960749
v 8.199524 1.009576 3.982269
v 7.953728 1.058216 3.961369
v 8.449901 1.079805 3.949859
v 8.052647 1.014476 3.998689
v 8.356662 1.013366 3.983839
v 8.454341 1.052666 3.958559
v 8.508251 1.050996 3.981789
v 8.199104 1.187314 3.982229
v 7.998157 1.030016 4.022118
v 8.522381 1.033666 3.998059
v 7.950458 1.083536 3.980299
v 7.960487 1.109765 4.007339
v 8.425972 1.161274 3.982169
v 8.334693 1.170804 3.997059
v 8.565800 0.987932 4.059028
v 8.590980 1.053956 4.023498
v 8.017867 1.158464 4.032688
v 8.334793 0.971289 4.092268
v 7.986907 1.048586 4.048358
v 8.646709 1.012166 4.057438
v 8.576109 1.097125 4.033208
v 8.495671 1.133045 4.006739
v 8.090695 1.171274 4.017468
v 8.150866 0.966947 4.136657
v 8.739107 1.041746 4.080768
v 8.003887 1.119545 4.079587
v 8.491621 1.142845 4.037768
v 8.801486 0.977694 4.108147
v 8.817577 1.010206 4.097047
v 8.059176 0.993151 4.123017
v 8.017127 1.052926 4.127217
v 8.679818 1.074135 4.074587
v 8.675718 1.090455 4.089167
v 8.591399 1.111885 4.070107
v 8.229924 1.155634 4.088877
v 8.032336 1.013726 4.127387
v 8.872827 1.036146 4.108757
v 8.828076 1.057716 4.103357
v 8.776177 1.073605 4.105417
v 8.576320 1.120195 4.093107
v 8.426361 1.138155 4.083178
v 8.535230 0.929081 4.185086
v 8.926234 0.998262 4.130447
v 8.932805 1.022686 4.127317
v 8.887385 1.042746 4.120607
v 8.826756 1.073595 4.131007
v 8.091656 1.121895 4.151947
v 8.354973 1.087205 4.209926
v 8.766078 0.947992 4.148956
v 8.295353 0.930541 4.214256
v 8.919595 0.963535 4.149137
v 8.982115 0.969475 4.159837
v 8.979274 0.961011 4.165946
v 8.959826 0.992723 4.150426
v 8.710048 1.090295 4.119907
v 8.573949 1.079595 4.175306
v 8.893966 0.944532 4.179966
v 8.103736 0.960840 4.234106
v 8.985965 0.969276 4.159636
v 8.068286 0.985424 4.184916
v 8.892976 1.037996 4.146377
v 8.057496 1.067935 4.211706
v 8.806057 1.069376 4.150917
v 8.061007 1.095775 4.180656
v 8.732637 0.920697 4.220575
v 8.556479 0.910059 4.238515
v 8.957335 0.954214 4.172136
v 8.988384 0.970477 4.157226
v 8.940366 0.984254 4.166047
v 8.719228 1.065346 4.178486
v 8.191774 0.937847 4.245385
v 8.072556 0.992874 4.215836
v 8.813247 1.023846 4.193826
v 8.502770 1.028856 4.267145
v 8.200125 1.098675 4.216406
v 8.467200 0.910694 4.252935
v 8.872815 0.939057 4.205826
v 8.914445 0.951326 4.191936
v 8.855596 0.968256 4.212036
v 8.672778 1.031716 4.226235
v 8.600909 0.908532 4.258055
v 8.676588 0.915639 4.265655
v 8.790097 0.928766 4.236005
v 8.850656 0.943443 4.215626
v 8.767757 0.988146 4.233745
v 8.349992 1.046446 4.281265
v 8.261494 1.056446 4.281765
v 8.088496 1.076115 4.233535
v 8.319273 0.919570 4.280295
v 8.781067 0.954628 4.241245
v 8.093396 1.010786 4.269155
v 8.148786 1.057876 4.271525
v 8.493570 0.915886 4.292085
v 8.707277 0.934978 4.267795
v 8.123836 0.970153 4.290675
v 8.199735 0.943299 4.288175
v 8.663838 0.975376 4.264295
v 8.104896 1.043746 4.264995
v 8.603840 0.927928 4.292855
v 8.613189 0.948396 4.292115
v 8.506881 0.979483 4.302675
v 8.358132 1.019756 4.304014
v 8.327733 0.928598 4.309104
v 8.374872 0.933108 4.324224
v 8.479940 0.933797 4.313244
v 8.487531 0.952501 4.313775
v 8.243974 0.954940 4.320234
v 8.352893 0.954312 4.327204
v 8.153075 0.984390 4.313775
v 8.343893 0.986171 4.325484
v 8.141795 1.015976 4.303134
v 8.238194 1.020486 4.306215
v 8.243934 0.984347 4.314314
vn -0.2618 0.0274 -0.9647
vn -0.6710 -0.5996 -0.4361
vn -0.9738 0.1205 -0.1930
vn 0.0773 -0.7051 -0.7049
vn 0.4565 -0.1167 -0.8820
vn 0.2957 0.5076 -0.8093
vn -0.4301 0.7470 -0.5070
vn 0.4191 -0.5234 -0.7419
vn 0.5386 0.3532 -0.7649
vn 0.2905 0.7683 -0.5704
vn -0.2918 0.9347 -0.2032
vn -0.3400 -0.9017 -0.2670
vn 0.1893 -0.8489 -0.4935
vn -0.8711 -0.4912 0.0024
vn -0.9886 0.0110 0.1503
vn 0.5784 -0.0965 -0.8100
vn -0.8052 0.5777 0.1336
vn 0.1147 0.9765 -0.1823
vn 0.4925 -0.5044 -0.7093
vn 0.5857 0.2911 -0.7565
vn 0.0439 -0.9449 -0.3243
vn -0.3815 0.9048 0.1890
vn -0.2539 -0.9580 -0.1330
vn 0.2575 -0.8164 -0.5169
vn 0.4564 0.6795 -0.5744
vn -0.0735 0.9928 0.0948
vn -0.7261 -0.6815 0.0913
vn -0.9374 -0.2920 0.1898
vn 0.5707 0.0987 -0.8152
vn -0.9143 0.2540 0.3156
vn -0.6524 0.6959 0.3003
vn 0.1771 0.9668 -0.1844
vn 0.4616 -0.4263 -0.7779
vn 0.0033 -0.9658 -0.2593
vn -0.3102 0.9212 0.2349
vn 0.4954 -0.0508 -0.8672
vn 0.4832 0.5635 -0.6701
vn 0.3216 0.8895 -0.3245
vn 0.0184 0.9980 0.0605
vn -0.9195 -0.2726 0.2833
vn -0.7095 0.6315 0.3126
vn 0.1644 0.9861 -0.0255
vn -0.4527 -0.8916 0.0087
vn 0.3431 -0.5499 -0.7615
vn 0.1268 -0.8792 -0.4593
vn 0.5155 0.3822 -0.7669
vn 0.4226 -0.2611 -0.8679
vn -0.9338 0.0460 0.3548
vn -0.0863 0.9807 0.1754
vn -0.8394 -0.4848 0.2456
vn 0.3817 -0.4188 -0.8240
vn 0.2214 -0.7147 -0.6635
vn 0.5120 0.4216 -0.7484
vn -0.7948 0.4702 0.3836
vn 0.4574 0.6669 -0.5882
vn -0.5339 0.7830 0.3190
vn -0.0064 -0.9519 -0.3064
vn -0.7810 -0.5944 0.1917
vn 0.4756 -0.0259 -0.8793
vn -0.1945 -0.9662 -0.1693
vn 0.0567 -0.9073 -0.4166
vn 0.3504 -0.4215 -0.8364
vn 0.4080 -0.2992 -0.8626
vn 0.0144 0.9803 0.1971
vn -0.5705 -0.8193 0.0581
vn 0.3278 -0.5147 -0.7922
vn -0.9153 -0.2264 0.3330
vn -0.8940 0.1185 0.4321
vn 0.3308 0.9140 -0.2348
vn 0.1461 0.9798 0.1364
vn 0.1035 -0.8137 -0.5721
vn 0.4307 0.0213 -0.9022
vn -0.3376 0.8729 0.3523
vn -0.0165 -0.9376 -0.3473
vn -0.8375 -0.4736 0.2725
vn 0.2606 -0.3626 -0.8948
vn 0.4609 0.5487 -0.6975
vn 0.4581 0.7629 -0.4562
vn -0.0948 0.9587 0.2682
vn -0.1526 -0.9621 -0.2262
vn 0.2577 0.2144 -0.9421
vn -0.6792 0.5630 0.4709
vn 0.2535 0.9673 0.0070
vn 0.1687 -0.6036 -0.7792
vn 0.2326 -0.1808 -0.9556
vn -0.4506 -0.8902 -0.0667
vn -0.9034 -0.1195 0.4117
vn 0.3434 0.5133 -0.7865
vn 0.2959 0.8280 -0.4763
vn 0.3431 0.8912 -0.2967
vn 0.0291 0.9383 0.3446
vn -0.7784 -0.5981 0.1906
vn 0.3112 0.2247 -0.9234
vn 0.2640 0.5883 -0.7643
vn 0.2392 0.7840 -0.5728
vn 0.1808 0.9676 0.1764
vn 0.0975 0.9373 0.3347
vn -0.0122 -0.9361 -0.3516
vn 0.3863 -0.2168 -0.8966
vn 0.5918 0.3705 -0.7159
vn 0.4497 0.8278 -0.3355
vn 0.2970 0.9548 -0.0072
vn -0.1908 0.8782 0.4386
vn 0.1027 0.8754 0.4724
vn 0.0600 -0.8941 -0.4439
vn -0.0792 -0.9690 -0.2341
vn 0.1770 -0.7330 -0.6568
vn 0.6421 -0.2274 -0.7322
vn 0.5139 -0.8443 -0.1519
vn 0.7548 0.6154 -0.2270
vn 0.1716 0.9831 0.0642
vn 0.0987 0.8693 0.4843
vn 0.1678 -0.9767 -0.1338
vn -0.4746 -0.8733 0.1100
vn 0.9642 -0.0479 0.2608
vn -0.6943 -0.7098 0.1193
vn 0.4444 0.7874 0.4273
vn -0.7318 0.3595 0.5790
vn 0.2045 0.8437 0.4964
vn -0.4672 0.7440 0.4777
vn 0.1012 -0.9918 -0.0785
vn -0.0010 -0.9766 -0.2148
vn 0.5080 -0.4881 0.7097
vn 0.7248 0.5479 0.4177
vn 0.4184 0.4339 0.7979
vn 0.1240 0.8222 0.5556
vn -0.1914 -0.9810 -0.0305
vn -0.8216 -0.4544 0.3442
vn 0.2712 0.6158 0.7397
vn 0.1583 0.7077 0.6886
vn -0.0089 0.8755 0.4831
vn -0.0435 -0.9961 -0.0772
vn 0.3250 -0.7778 0.5380
vn 0.4235 -0.0491 0.9046
vn 0.3475 0.2969 0.8894
vn 0.1618 0.6709 0.7236
vn 0.0360 -0.9961 0.0806
vn 0.1728 -0.8366 0.5198
vn 0.3159 -0.5999 0.7351
vn 0.3607 -0.1787 0.9154
vn 0.2496 0.4508 0.8570
vn 0.1184 0.7706 0.6262
vn 0.0293 0.7431 0.6685
vn -0.3747 0.6943 0.6145
vn -0.1026 -0.9870 0.1233
vn 0.3083 0.1093 0.9450
vn -0.7461 -0.0115 0.6658
vn -0.1427 0.7142 0.6852
vn 0.0263 -0.8908 0.4536
vn 0.2931 -0.1127 0.9494
vn -0.5456 -0.5875 0.5976
vn -0.2376 -0.8960 0.3752
vn 0.2265 0.4331 0.8724
vn -0.4899 0.4419 0.7515
vn 0.1733 -0.3981 0.9008
vn 0.2252 0.1802 0.9575
vn 0.1769 0.4425 0.8791
vn 0.0946 0.5830 0.8070
vn -0.1134 -0.8656 0.4878
vn -0.0115 -0.5848 0.8111
vn 0.1077 -0.3859 0.9162
vn 0.1420 0.0546 0.9884
vn -0.1613 -0.4537 0.8764
vn 0.0024 -0.0579 0.9983
vn -0.3272 -0.0545 0.9434
vn 0.0316 0.2777 0.9601
vn -0.2784 0.3598 0.8905
vn -0.0419 0.4615 0.8861
vn -0.0684 0.1495 0.9864
usemtl mtl1.1098
s 1
f 1//1 2//2 3//3
f 2//2 1//1 4//4
f 5//5 4//4 1//1
f 5//5 1//1 6//6
f 6//6 1//1 7//7
f 5//5 8//8 4//4
f 6//6 9//9 5//5
f 7//7 1//1 3//3
f 7//7 10//10 6//6
f 9//9 6//6 10//10
f 10//10 7//7 11//11
f 4//4 12//12 2//2
f 8//8 13//13 4//4
f 4//4 13//13 12//12
f 3//3 2//2 14//14
f 14//14 15//15 3//3
f 16//16 8//8 5//5
f 16//16 5//5 9//9
f 3//3 17//17 7//7
f 7//7 17//17 11//11
f 10//10 11//11 18//18
f 8//8 16//16 19//19
f 8//8 19//19 13//13
f 9//9 20//20 16//16
f 3//3 15//15 17//17
f 2//2 12//12 14//14
f 13//13 21//21 12//12
f 11//11 17//17 22//22
f 11//11 22//22 18//18
f 23//23 12//12 21//21
f 13//13 24//24 21//21
f 19//19 24//24 13//13
f 9//9 10//10 25//25
f 20//20 9//9 25//25
f 10//10 18//18 25//25
f 18//18 22//22 26//26
f 14//14 12//12 27//27
f 12//12 23//23 27//27
f 28//28 14//14 27//27
f 14//14 28//28 15//15
f 29//29 19//19 16//16
f 29//29 16//16 20//20
f 15//15 30//30 17//17
f 17//17 31//31 22//22
f 25//25 18//18 32//32
f 18//18 26//26 32//32
f 29//29 33//33 19//19
f 30//30 31//31 17//17
f 21//21 34//34 23//23
f 28//28 30//30 15//15
f 20//20 25//25 29//29
f 26//26 22//22 35//35
f 22//22 31//31 35//35
f 24//24 34//34 21//21
f 19//19 33//33 24//24
f 29//29 36//36 33//33
f 25//25 37//37 29//29
f 37//37 25//25 38//38
f 32//32 26//26 39//39
f 27//27 40//40 28//28
f 30//30 41//41 31//31
f 25//25 32//32 38//38
f 38//38 32//32 42//42
f 23//23 43//43 27//27
f 23//23 34//34 43//43
f 24//24 44//44 45//45
f 24//24 33//33 44//44
f 44//44 33//33 36//36
f 36//36 29//29 46//46
f 29//29 37//37 46//46
f 31//31 41//41 35//35
f 24//24 45//45 34//34
f 36//36 47//47 44//44
f 28//28 40//40 30//30
f 40//40 48//48 30//30
f 26//26 35//35 49//49
f 39//39 26//26 49//49
f 32//32 39//39 42//42
f 27//27 50//50 40//40
f 50//50 27//27 43//43
f 47//47 51//51 44//44
f 48//48 41//41 30//30
f 52//52 45//45 44//44
f 51//51 52//52 44//44
f 46//46 53//53 36//36
f 48//48 54//54 41//41
f 46//46 37//37 55//55
f 35//35 41//41 56//56
f 34//34 45//45 57//57
f 50//50 43//43 58//58
f 51//51 47//47 59//59
f 59//59 36//36 53//53
f 47//47 36//36 59//59
f 46//46 55//55 53//53
f 55//55 37//37 38//38
f 34//34 60//60 43//43
f 34//34 57//57 60//60
f 61//61 45//45 52//52
f 52//52 51//51 62//62
f 50//50 48//48 40//40
f 62//62 51//51 59//59
f 63//63 62//62 59//59
f 54//54 56//56 41//41
f 42//42 39//39 64//64
f 43//43 65//65 58//58
f 43//43 60//60 65//65
f 45//45 61//61 57//57
f 62//62 63//63 66//66
f 50//50 67//67 48//48
f 67//67 68//68 48//48
f 48//48 68//68 54//54
f 69//69 55//55 38//38
f 38//38 42//42 70//70
f 42//42 64//64 70//70
f 52//52 66//66 71//71
f 52//52 71//71 61//61
f 52//52 62//62 66//66
f 72//72 66//66 63//63
f 58//58 67//67 50//50
f 72//72 63//63 59//59
f 35//35 56//56 73//73
f 38//38 70//70 69//69
f 39//39 49//49 64//64
f 57//57 61//61 74//74
f 58//58 65//65 75//75
f 76//76 66//66 72//72
f 75//75 67//67 58//58
f 59//59 77//77 72//72
f 53//53 77//77 59//59
f 53//53 55//55 78//78
f 55//55 69//69 78//78
f 49//49 35//35 79//79
f 35//35 73//73 79//79
f 57//57 80//80 60//60
f 61//61 71//71 74//74
f 76//76 71//71 66//66
f 72//72 81//81 76//76
f 77//77 53//53 78//78
f 56//56 54//54 82//82
f 83//83 78//78 69//69
f 49//49 79//79 64//64
f 57//57 74//74 80//80
f 76//76 84//84 71//71
f 84//84 76//76 85//85
f 60//60 86//86 65//65
f 85//85 76//76 81//81
f 67//67 75//75 87//87
f 77//77 88//88 72//72
f 88//88 81//81 72//72
f 68//68 67//67 87//87
f 89//89 88//88 77//77
f 77//77 78//78 90//90
f 89//89 77//77 90//90
f 82//82 54//54 68//68
f 90//90 78//78 83//83
f 70//70 83//83 69//69
f 70//70 64//64 91//91
f 65//65 86//86 92//92
f 93//93 85//85 81//81
f 93//93 81//81 94//94
f 88//88 95//95 81//81
f 94//94 81//81 95//95
f 90//90 83//83 96//96
f 82//82 73//73 56//56
f 83//83 70//70 97//97
f 64//64 79//79 91//91
f 70//70 91//91 97//97
f 71//71 98//98 74//74
f 80//80 86//86 60//60
f 99//99 84//84 85//85
f 93//93 99//99 85//85
f 65//65 92//92 75//75
f 100//100 99//99 93//93
f 94//94 101//101 93//93
f 100//100 93//93 101//101
f 101//101 94//94 95//95
f 82//82 68//68 87//87
f 95//95 88//88 89//89
f 101//101 95//95 102//102
f 97//97 96//96 83//83
f 73//73 103//103 79//79
f 91//91 104//104 97//97
f 71//71 84//84 105//105
f 74//74 106//106 80//80
f 107//107 108//108 109//109
f 99//99 107//107 84//84
f 99//99 108//108 107//107
f 108//108 99//99 110//110
f 99//99 100//100 110//110
f 100//100 101//101 110//110
f 90//90 96//96 111//111
f 89//89 90//90 111//111
f 104//104 112//112 97//97
f 82//82 103//103 73//73
f 71//71 105//105 98//98
f 107//107 105//105 84//84
f 107//107 113//113 105//105
f 113//113 107//107 109//109
f 86//86 80//80 114//114
f 109//109 108//108 115//115
f 86//86 116//116 92//92
f 108//108 110//110 115//115
f 101//101 117//117 110//110
f 82//82 87//87 118//118
f 95//95 89//89 111//111
f 95//95 111//111 102//102
f 119//119 117//117 102//102
f 101//101 102//102 117//117
f 96//96 97//97 112//112
f 111//111 96//96 112//112
f 102//102 111//111 119//119
f 82//82 120//120 103//103
f 79//79 103//103 91//91
f 98//98 105//105 121//121
f 122//122 98//98 121//121
f 74//74 98//98 106//106
f 109//109 123//123 113//113
f 86//86 114//114 116//116
f 123//123 109//109 115//115
f 110//110 124//124 115//115
f 92//92 87//87 75//75
f 117//117 125//125 110//110
f 124//124 110//110 125//125
f 118//118 120//120 82//82
f 111//111 112//112 126//126
f 111//111 126//126 119//119
f 105//105 113//113 121//121
f 80//80 106//106 127//127
f 125//125 123//123 115//115
f 124//124 125//125 115//115
f 116//116 128//128 92//92
f 92//92 128//128 87//87
f 125//125 117//117 129//129
f 104//104 130//130 112//112
f 129//129 117//117 119//119
f 103//103 131//131 91//91
f 104//104 91//91 131//131
f 98//98 132//132 106//106
f 122//122 132//132 98//98
f 113//113 133//133 121//121
f 80//80 127//127 114//114
f 123//123 134//134 133//133
f 123//123 133//133 113//113
f 125//125 134//134 123//123
f 125//125 135//135 134//134
f 125//125 129//129 135//135
f 136//136 126//126 112//112
f 119//119 126//126 129//129
f 121//121 137//137 122//122
f 121//121 138//138 137//137
f 121//121 139//139 138//138
f 121//121 133//133 139//139
f 140//140 133//133 134//134
f 116//116 114//114 128//128
f 134//134 135//135 140//140
f 135//135 129//129 141//141
f 136//136 129//129 126//126
f 104//104 142//142 130//130
f 104//104 143//143 142//142
f 120//120 144//144 103//103
f 122//122 137//137 132//132
f 106//106 145//145 127//127
f 132//132 145//145 106//106
f 139//139 133//133 140//140
f 139//139 140//140 146//146
f 135//135 141//141 146//146
f 140//140 135//135 146//146
f 128//128 147//147 87//87
f 87//87 147//147 118//118
f 112//112 130//130 136//136
f 141//141 129//129 136//136
f 120//120 118//118 144//144
f 131//131 143//143 104//104
f 131//131 103//103 148//148
f 103//103 144//144 148//148
f 137//137 149//149 132//132
f 132//132 149//149 145//145
f 137//137 138//138 149//149
f 138//138 139//139 150//150
f 114//114 151//151 128//128
f 151//151 114//114 152//152
f 152//152 114//114 127//127
f 139//139 146//146 150//150
f 128//128 151//151 147//147
f 153//153 150//150 146//146
f 146//146 141//141 153//153
f 118//118 147//147 154//154
f 118//118 154//154 144//144
f 148//148 143//143 131//131
f 149//149 138//138 155//155
f 127//127 145//145 152//152
f 138//138 150//150 155//155
f 150//150 156//156 155//155
f 150//150 153//153 156//156
f 157//157 153//153 130//130
f 141//141 136//136 153//153
f 158//158 130//130 142//142
f 153//153 136//136 130//130
f 143//143 158//158 142//142
f 145//145 149//149 159//159
f 159//159 149//149 160//160
f 145//145 159//159 152//152
f 161//161 160//160 149//149
f 149//149 155//155 161//161
f 161//161 155//155 162//162
f 156//156 162//162 155//155
f 156//156 157//157 162//162
f 156//156 153//153 157//157
f 158//158 157//157 130//130
f 148//148 144//144 154//154
f 152//152 159//159 163//163
f 163//163 159//159 160//160
f 151//151 152//152 163//163
f 161//161 164//164 160//160
f 165//165 151//151 163//163
f 164//164 163//163 160//160
f 162//162 164//164 161//161
f 151//151 165//165 147//147
f 162//162 166//166 164//164
f 165//165 167//167 147//147
f 162//162 157//157 166//166
f 147//147 167//167 154//154
f 168//168 166//166 158//158
f 157//157 158//158 166//166
f 168//168 158//158 143//143
f 154//154 167//167 148//148
f 148//148 167//167 168//168
f 143//143 148//148 168//168
f 163//163 169//169 165//165
f 164//164 169//169 163//163
f 169//169 167//167 165//165
f 164//164 166//166 169//169
f 168//168 167//167 169//169
f 166//166 168//168 169//169
