# Blender v2.92.0 OBJ File: 'convert_to_one_sided.blend'
# www.blender.org
mtllib 257L.mtl
o Cube
v 0.001000 0.001000 -0.001000
v 0.001000 -0.001000 -0.001000
v 0.001000 0.001000 0.001000
v 0.001000 -0.001000 0.001000
v -0.001000 0.001000 -0.001000
v -0.001000 -0.001000 -0.001000
v -0.001000 0.001000 0.001000
v -0.001000 -0.001000 0.001000
vt 0.625000 0.500000
vt 0.875000 0.500000
vt 0.875000 0.750000
vt 0.625000 0.750000
vt 0.375000 0.750000
vt 0.625000 1.000000
vt 0.375000 1.000000
vt 0.375000 0.000000
vt 0.625000 0.000000
vt 0.625000 0.250000
vt 0.375000 0.250000
vt 0.125000 0.500000
vt 0.375000 0.500000
vt 0.125000 0.750000
vn 0.0000 1.0000 0.0000
vn 0.0000 0.0000 1.0000
vn -1.0000 0.0000 0.0000
vn 0.0000 -1.0000 0.0000
vn 1.0000 0.0000 0.0000
vn 0.0000 0.0000 -1.0000
usemtl Material
s off
f 1/1/1 5/2/1 7/3/1 3/4/1
f 4/5/2 3/4/2 7/6/2 8/7/2
f 8/8/3 7/9/3 5/10/3 6/11/3
f 6/12/4 2/13/4 4/5/4 8/14/4
f 2/13/5 1/1/5 3/4/5 4/5/5
f 6/11/6 5/10/6 1/1/6 2/13/6
o 257
v 7.840859 1.161234 3.563194
v 7.839349 1.141855 3.578134
v 7.833589 1.161614 3.586714
v 7.859839 1.135105 3.584454
v 7.887218 1.151564 3.587254
v 7.866909 1.177634 3.579644
v 7.848449 1.183364 3.585374
v 7.927298 1.122335 3.620873
v 7.945998 1.172994 3.629824
v 7.899639 1.195884 3.616974
v 7.860099 1.203894 3.609534
v 7.865048 1.105705 3.643064
v 7.937038 1.103845 3.653843
v 7.845449 1.128015 3.646593
v 7.836989 1.151935 3.658013
v 7.987997 1.144805 3.657663
v 7.846029 1.181314 3.639034
v 7.918128 1.209394 3.655333
v 8.020607 1.116405 3.690943
v 8.020297 1.165674 3.681633
v 7.933348 1.079055 3.713032
v 7.886278 1.200604 3.689753
v 7.910488 1.068846 3.755842
v 8.064226 1.081496 3.763082
v 8.044106 1.184344 3.716512
v 7.995947 1.205044 3.782822
v 7.884338 1.084365 3.763392
v 7.856049 1.121765 3.721422
v 8.118196 1.145825 3.753372
v 7.862389 1.144865 3.748182
v 7.885418 1.178604 3.747502
v 8.085735 1.202374 3.790741
v 8.137885 1.109875 3.774962
v 8.042696 1.047166 3.846201
v 7.978077 1.184804 3.879420
v 8.292084 1.116365 3.860631
v 8.220135 1.171394 3.832961
v 8.262903 1.183884 3.885930
v 8.144885 1.201964 3.875320
v 7.879689 1.106295 3.797781
v 7.913858 1.155665 3.855840
v 8.242085 1.193984 3.909160
v 7.953728 1.049196 3.884940
v 8.250434 1.079666 3.853341
v 8.222904 1.045786 3.889740
v 8.302223 1.146535 3.874920
v 8.347632 1.089465 3.893180
v 7.909318 1.119795 3.882910
v 8.104316 1.194234 3.915950
v 7.917898 1.082245 3.874240
v 8.378543 1.069676 3.916290
v 8.395252 1.038086 3.947949
v 8.437481 1.126695 3.953169
v 7.942078 1.141935 3.952810
v 8.368572 1.157395 3.932160
v 7.966688 1.156885 3.960749
v 8.199524 1.009576 3.982269
v 7.953728 1.058216 3.961369
v 8.449901 1.079805 3.949859
v 8.052647 1.014476 3.998689
v 8.356662 1.013366 3.983839
v 8.454341 1.052666 3.958559
v 8.508251 1.050996 3.981789
v 8.199104 1.187314 3.982229
v 7.998157 1.030016 4.022118
v 8.522381 1.033666 3.998059
v 7.950458 1.083536 3.980299
v 7.960487 1.109765 4.007339
v 8.425972 1.161274 3.982169
v 8.334693 1.170804 3.997059
v 8.565800 0.987932 4.059028
v 8.590980 1.053956 4.023498
v 8.017867 1.158464 4.032688
v 8.334793 0.971289 4.092268
v 7.986907 1.048586 4.048358
v 8.646709 1.012166 4.057438
v 8.576109 1.097125 4.033208
v 8.495671 1.133045 4.006739
v 8.090695 1.171274 4.017468
v 8.150866 0.966947 4.136657
v 8.739107 1.041746 4.080768
v 8.003887 1.119545 4.079587
v 8.491621 1.142845 4.037768
v 8.801486 0.977694 4.108147
v 8.817577 1.010206 4.097047
v 8.059176 0.993151 4.123017
v 8.017127 1.052926 4.127217
v 8.679818 1.074135 4.074587
v 8.675718 1.090455 4.089167
v 8.591399 1.111885 4.070107
v 8.229924 1.155634 4.088877
v 8.032336 1.013726 4.127387
v 8.872827 1.036146 4.108757
v 8.828076 1.057716 4.103357
v 8.776177 1.073605 4.105417
v 8.576320 1.120195 4.093107
v 8.426361 1.138155 4.083178
v 8.535230 0.929081 4.185086
v 8.926234 0.998262 4.130447
v 8.932805 1.022686 4.127317
v 8.887385 1.042746 4.120607
v 8.826756 1.073595 4.131007
v 8.091656 1.121895 4.151947
v 8.354973 1.087205 4.209926
v 8.766078 0.947992 4.148956
v 8.295353 0.930541 4.214256
v 8.919595 0.963535 4.149137
v 8.982115 0.969475 4.159837
v 8.979274 0.961011 4.165946
v 8.959826 0.992723 4.150426
v 8.710048 1.090295 4.119907
v 8.573949 1.079595 4.175306
v 8.893966 0.944532 4.179966
v 8.103736 0.960840 4.234106
v 8.985965 0.969276 4.159636
v 8.068286 0.985424 4.184916
v 8.892976 1.037996 4.146377
v 8.057496 1.067935 4.211706
v 8.806057 1.069376 4.150917
v 8.061007 1.095775 4.180656
v 8.732637 0.920697 4.220575
v 8.556479 0.910059 4.238515
v 8.957335 0.954214 4.172136
v 8.988384 0.970477 4.157226
v 8.940366 0.984254 4.166047
v 8.719228 1.065346 4.178486
v 8.191774 0.937847 4.245385
v 8.072556 0.992874 4.215836
v 8.813247 1.023846 4.193826
v 8.502770 1.028856 4.267145
v 8.200125 1.098675 4.216406
v 8.467200 0.910694 4.252935
v 8.872815 0.939057 4.205826
v 8.914445 0.951326 4.191936
v 8.855596 0.968256 4.212036
v 8.672778 1.031716 4.226235
v 8.600909 0.908532 4.258055
v 8.676588 0.915639 4.265655
v 8.790097 0.928766 4.236005
v 8.850656 0.943443 4.215626
v 8.767757 0.988146 4.233745
v 8.349992 1.046446 4.281265
v 8.261494 1.056446 4.281765
v 8.088496 1.076115 4.233535
v 8.319273 0.919570 4.280295
v 8.781067 0.954628 4.241245
v 8.093396 1.010786 4.269155
v 8.148786 1.057876 4.271525
v 8.493570 0.915886 4.292085
v 8.707277 0.934978 4.267795
v 8.123836 0.970153 4.290675
v 8.199735 0.943299 4.288175
v 8.663838 0.975376 4.264295
v 8.104896 1.043746 4.264995
v 8.603840 0.927928 4.292855
v 8.613189 0.948396 4.292115
v 8.506881 0.979483 4.302675
v 8.358132 1.019756 4.304014
v 8.327733 0.928598 4.309104
v 8.374872 0.933108 4.324224
v 8.479940 0.933797 4.313244
v 8.487531 0.952501 4.313775
v 8.243974 0.954940 4.320234
v 8.352893 0.954312 4.327204
v 8.153075 0.984390 4.313775
v 8.343893 0.986171 4.325484
v 8.141795 1.015976 4.303134
v 8.238194 1.020486 4.306215
v 8.243934 0.984347 4.314314
vn -0.2618 0.0274 -0.9647
vn -0.6710 -0.5996 -0.4361
vn -0.9738 0.1205 -0.1930
vn 0.0773 -0.7051 -0.7049
vn 0.4565 -0.1167 -0.8820
vn 0.2957 0.5076 -0.8093
vn -0.4301 0.7470 -0.5070
vn 0.4191 -0.5234 -0.7419
vn 0.5386 0.3532 -0.7649
vn 0.2905 0.7683 -0.5704
vn -0.2918 0.9347 -0.2032
vn -0.3400 -0.9017 -0.2670
vn 0.1893 -0.8489 -0.4935
vn -0.8711 -0.4912 0.0024
vn -0.9886 0.0110 0.1503
vn 0.5784 -0.0965 -0.8100
vn -0.8052 0.5777 0.1336
vn 0.1147 0.9765 -0.1823
vn 0.4925 -0.5044 -0.7093
vn 0.5857 0.2911 -0.7565
vn 0.0439 -0.9449 -0.3243
vn -0.3815 0.9048 0.1890
vn -0.2539 -0.9580 -0.1330
vn 0.2575 -0.8164 -0.5169
vn 0.4564 0.6795 -0.5744
vn -0.0735 0.9928 0.0948
vn -0.7261 -0.6815 0.0913
vn -0.9374 -0.2920 0.1898
vn 0.5707 0.0987 -0.8152
vn -0.9143 0.2540 0.3156
vn -0.6524 0.6959 0.3003
vn 0.1771 0.9668 -0.1844
vn 0.4616 -0.4263 -0.7779
vn 0.0033 -0.9658 -0.2593
vn -0.3102 0.9212 0.2349
vn 0.4954 -0.0508 -0.8672
vn 0.4832 0.5635 -0.6701
vn 0.3216 0.8895 -0.3245
vn 0.0184 0.9980 0.0605
vn -0.9195 -0.2726 0.2833
vn -0.7095 0.6315 0.3126
vn 0.1644 0.9861 -0.0255
vn -0.4527 -0.8916 0.0087
vn 0.3431 -0.5499 -0.7615
vn 0.1268 -0.8792 -0.4593
vn 0.5155 0.3822 -0.7669
vn 0.4226 -0.2611 -0.8679
vn -0.9338 0.0460 0.3548
vn -0.0863 0.9807 0.1754
vn -0.8394 -0.4848 0.2456
vn 0.3817 -0.4188 -0.8240
vn 0.2214 -0.7147 -0.6635
vn 0.5120 0.4216 -0.7484
vn -0.7948 0.4702 0.3836
vn 0.4574 0.6669 -0.5882
vn -0.5339 0.7830 0.3190
vn -0.0064 -0.9519 -0.3064
vn -0.7810 -0.5944 0.1917
vn 0.4756 -0.0259 -0.8793
vn -0.1945 -0.9662 -0.1693
vn 0.0567 -0.9073 -0.4166
vn 0.3504 -0.4215 -0.8364
vn 0.4080 -0.2992 -0.8626
vn 0.0144 0.9803 0.1971
vn -0.5705 -0.8193 0.0581
vn 0.3278 -0.5147 -0.7922
vn -0.9153 -0.2264 0.3330
vn -0.8940 0.1185 0.4321
vn 0.3308 0.9140 -0.2348
vn 0.1461 0.9798 0.1364
vn 0.1035 -0.8137 -0.5721
vn 0.4307 0.0213 -0.9022
vn -0.3376 0.8729 0.3523
vn -0.0165 -0.9376 -0.3473
vn -0.8375 -0.4736 0.2725
vn 0.2606 -0.3626 -0.8948
vn 0.4609 0.5487 -0.6975
vn 0.4581 0.7629 -0.4562
vn -0.0948 0.9587 0.2682
vn -0.1526 -0.9621 -0.2262
vn 0.2577 0.2144 -0.9421
vn -0.6792 0.5630 0.4709
vn 0.2535 0.9673 0.0070
vn 0.1687 -0.6036 -0.7792
vn 0.2326 -0.1808 -0.9556
vn -0.4506 -0.8902 -0.0667
vn -0.9034 -0.1195 0.4117
vn 0.3434 0.5133 -0.7865
vn 0.2959 0.8280 -0.4763
vn 0.3431 0.8912 -0.2967
vn 0.0291 0.9383 0.3446
vn -0.7784 -0.5981 0.1906
vn 0.3112 0.2247 -0.9234
vn 0.2640 0.5883 -0.7643
vn 0.2392 0.7840 -0.5728
vn 0.1808 0.9676 0.1764
vn 0.0975 0.9373 0.3347
vn -0.0122 -0.9361 -0.3516
vn 0.3863 -0.2168 -0.8966
vn 0.5918 0.3705 -0.7159
vn 0.4497 0.8278 -0.3355
vn 0.2970 0.9548 -0.0072
vn -0.1908 0.8782 0.4386
vn 0.1027 0.8754 0.4724
vn 0.0600 -0.8941 -0.4439
vn -0.0792 -0.9690 -0.2341
vn 0.1770 -0.7330 -0.6568
vn 0.6421 -0.2274 -0.7322
vn 0.5139 -0.8443 -0.1519
vn 0.7548 0.6154 -0.2270
vn 0.1716 0.9831 0.0642
vn 0.0987 0.8693 0.4843
vn 0.1678 -0.9767 -0.1338
vn -0.4746 -0.8733 0.1100
vn 0.9642 -0.0479 0.2608
vn -0.6943 -0.7098 0.1193
vn 0.4444 0.7874 0.4273
vn -0.7318 0.3595 0.5790
vn 0.2045 0.8437 0.4964
vn -0.4672 0.7440 0.4777
vn 0.1012 -0.9918 -0.0785
vn -0.0010 -0.9766 -0.2148
vn 0.5080 -0.4881 0.7097
vn 0.7248 0.5479 0.4177
vn 0.4184 0.4339 0.7979
vn 0.1240 0.8222 0.5556
vn -0.1914 -0.9810 -0.0305
vn -0.8216 -0.4544 0.3442
vn 0.2712 0.6158 0.7397
vn 0.1583 0.7077 0.6886
vn -0.0089 0.8755 0.4831
vn -0.0435 -0.9961 -0.0772
vn 0.3250 -0.7778 0.5380
vn 0.4235 -0.0491 0.9046
vn 0.3475 0.2969 0.8894
vn 0.1618 0.6709 0.7236
vn 0.0360 -0.9961 0.0806
vn 0.1728 -0.8366 0.5198
vn 0.3159 -0.5999 0.7351
vn 0.3607 -0.1787 0.9154
vn 0.2496 0.4508 0.8570
vn 0.1184 0.7706 0.6262
vn 0.0293 0.7431 0.6685
vn -0.3747 0.6943 0.6145
vn -0.1026 -0.9870 0.1233
vn 0.3083 0.1093 0.9450
vn -0.7461 -0.0115 0.6658
vn -0.1427 0.7142 0.6852
vn 0.0263 -0.8908 0.4536
vn 0.2931 -0.1127 0.9494
vn -0.5456 -0.5875 0.5976
vn -0.2376 -0.8960 0.3752
vn 0.2265 0.4331 0.8724
vn -0.4899 0.4419 0.7515
vn 0.1733 -0.3981 0.9008
vn 0.2252 0.1802 0.9575
vn 0.1769 0.4425 0.8791
vn 0.0946 0.5830 0.8070
vn -0.1134 -0.8656 0.4878
vn -0.0115 -0.5848 0.8111
vn 0.1077 -0.3859 0.9162
vn 0.1420 0.0546 0.9884
vn -0.1613 -0.4537 0.8764
vn 0.0024 -0.0579 0.9983
vn -0.3272 -0.0545 0.9434
vn 0.0316 0.2777 0.9601
vn -0.2784 0.3598 0.8905
vn -0.0419 0.4615 0.8861
vn -0.0684 0.1495 0.9864
usemtl mtl1.247
s 1
f 9//7 10//8 11//9
f 10//8 9//7 12//10
f 13//11 12//10 9//7
f 13//11 9//7 14//12
f 14//12 9//7 15//13
f 13//11 16//14 12//10
f 14//12 17//15 13//11
f 15//13 9//7 11//9
f 15//13 18//16 14//12
f 17//15 14//12 18//16
f 18//16 15//13 19//17
f 12//10 20//18 10//8
f 16//14 21//19 12//10
f 12//10 21//19 20//18
f 11//9 10//8 22//20
f 22//20 23//21 11//9
f 24//22 16//14 13//11
f 24//22 13//11 17//15
f 11//9 25//23 15//13
f 15//13 25//23 19//17
f 18//16 19//17 26//24
f 16//14 24//22 27//25
f 16//14 27//25 21//19
f 17//15 28//26 24//22
f 11//9 23//21 25//23
f 10//8 20//18 22//20
f 21//19 29//27 20//18
f 19//17 25//23 30//28
f 19//17 30//28 26//24
f 31//29 20//18 29//27
f 21//19 32//30 29//27
f 27//25 32//30 21//19
f 17//15 18//16 33//31
f 28//26 17//15 33//31
f 18//16 26//24 33//31
f 26//24 30//28 34//32
f 22//20 20//18 35//33
f 20//18 31//29 35//33
f 36//34 22//20 35//33
f 22//20 36//34 23//21
f 37//35 27//25 24//22
f 37//35 24//22 28//26
f 23//21 38//36 25//23
f 25//23 39//37 30//28
f 33//31 26//24 40//38
f 26//24 34//32 40//38
f 37//35 41//39 27//25
f 38//36 39//37 25//23
f 29//27 42//40 31//29
f 36//34 38//36 23//21
f 28//26 33//31 37//35
f 34//32 30//28 43//41
f 30//28 39//37 43//41
f 32//30 42//40 29//27
f 27//25 41//39 32//30
f 37//35 44//42 41//39
f 33//31 45//43 37//35
f 45//43 33//31 46//44
f 40//38 34//32 47//45
f 35//33 48//46 36//34
f 38//36 49//47 39//37
f 33//31 40//38 46//44
f 46//44 40//38 50//48
f 31//29 51//49 35//33
f 31//29 42//40 51//49
f 32//30 52//50 53//51
f 32//30 41//39 52//50
f 52//50 41//39 44//42
f 44//42 37//35 54//52
f 37//35 45//43 54//52
f 39//37 49//47 43//41
f 32//30 53//51 42//40
f 44//42 55//53 52//50
f 36//34 48//46 38//36
f 48//46 56//54 38//36
f 34//32 43//41 57//55
f 47//45 34//32 57//55
f 40//38 47//45 50//48
f 35//33 58//56 48//46
f 58//56 35//33 51//49
f 55//53 59//57 52//50
f 56//54 49//47 38//36
f 60//58 53//51 52//50
f 59//57 60//58 52//50
f 54//52 61//59 44//42
f 56//54 62//60 49//47
f 54//52 45//43 63//61
f 43//41 49//47 64//62
f 42//40 53//51 65//63
f 58//56 51//49 66//64
f 59//57 55//53 67//65
f 67//65 44//42 61//59
f 55//53 44//42 67//65
f 54//52 63//61 61//59
f 63//61 45//43 46//44
f 42//40 68//66 51//49
f 42//40 65//63 68//66
f 69//67 53//51 60//58
f 60//58 59//57 70//68
f 58//56 56//54 48//46
f 70//68 59//57 67//65
f 71//69 70//68 67//65
f 62//60 64//62 49//47
f 50//48 47//45 72//70
f 51//49 73//71 66//64
f 51//49 68//66 73//71
f 53//51 69//67 65//63
f 70//68 71//69 74//72
f 58//56 75//73 56//54
f 75//73 76//74 56//54
f 56//54 76//74 62//60
f 77//75 63//61 46//44
f 46//44 50//48 78//76
f 50//48 72//70 78//76
f 60//58 74//72 79//77
f 60//58 79//77 69//67
f 60//58 70//68 74//72
f 80//78 74//72 71//69
f 66//64 75//73 58//56
f 80//78 71//69 67//65
f 43//41 64//62 81//79
f 46//44 78//76 77//75
f 47//45 57//55 72//70
f 65//63 69//67 82//80
f 66//64 73//71 83//81
f 84//82 74//72 80//78
f 83//81 75//73 66//64
f 67//65 85//83 80//78
f 61//59 85//83 67//65
f 61//59 63//61 86//84
f 63//61 77//75 86//84
f 57//55 43//41 87//85
f 43//41 81//79 87//85
f 65//63 88//86 68//66
f 69//67 79//77 82//80
f 84//82 79//77 74//72
f 80//78 89//87 84//82
f 85//83 61//59 86//84
f 64//62 62//60 90//88
f 91//89 86//84 77//75
f 57//55 87//85 72//70
f 65//63 82//80 88//86
f 84//82 92//90 79//77
f 92//90 84//82 93//91
f 68//66 94//92 73//71
f 93//91 84//82 89//87
f 75//73 83//81 95//93
f 85//83 96//94 80//78
f 96//94 89//87 80//78
f 76//74 75//73 95//93
f 97//95 96//94 85//83
f 85//83 86//84 98//96
f 97//95 85//83 98//96
f 90//88 62//60 76//74
f 98//96 86//84 91//89
f 78//76 91//89 77//75
f 78//76 72//70 99//97
f 73//71 94//92 100//98
f 101//99 93//91 89//87
f 101//99 89//87 102//100
f 96//94 103//101 89//87
f 102//100 89//87 103//101
f 98//96 91//89 104//102
f 90//88 81//79 64//62
f 91//89 78//76 105//103
f 72//70 87//85 99//97
f 78//76 99//97 105//103
f 79//77 106//104 82//80
f 88//86 94//92 68//66
f 107//105 92//90 93//91
f 101//99 107//105 93//91
f 73//71 100//98 83//81
f 108//106 107//105 101//99
f 102//100 109//107 101//99
f 108//106 101//99 109//107
f 109//107 102//100 103//101
f 90//88 76//74 95//93
f 103//101 96//94 97//95
f 109//107 103//101 110//108
f 105//103 104//102 91//89
f 81//79 111//109 87//85
f 99//97 112//110 105//103
f 79//77 92//90 113//111
f 82//80 114//112 88//86
f 115//113 116//114 117//115
f 107//105 115//113 92//90
f 107//105 116//114 115//113
f 116//114 107//105 118//116
f 107//105 108//106 118//116
f 108//106 109//107 118//116
f 98//96 104//102 119//117
f 97//95 98//96 119//117
f 112//110 120//118 105//103
f 90//88 111//109 81//79
f 79//77 113//111 106//104
f 115//113 113//111 92//90
f 115//113 121//119 113//111
f 121//119 115//113 117//115
f 94//92 88//86 122//120
f 117//115 116//114 123//121
f 94//92 124//122 100//98
f 116//114 118//116 123//121
f 109//107 125//123 118//116
f 90//88 95//93 126//124
f 103//101 97//95 119//117
f 103//101 119//117 110//108
f 127//125 125//123 110//108
f 109//107 110//108 125//123
f 104//102 105//103 120//118
f 119//117 104//102 120//118
f 110//108 119//117 127//125
f 90//88 128//126 111//109
f 87//85 111//109 99//97
f 106//104 113//111 129//127
f 130//128 106//104 129//127
f 82//80 106//104 114//112
f 117//115 131//129 121//119
f 94//92 122//120 124//122
f 131//129 117//115 123//121
f 118//116 132//130 123//121
f 100//98 95//93 83//81
f 125//123 133//131 118//116
f 132//130 118//116 133//131
f 126//124 128//126 90//88
f 119//117 120//118 134//132
f 119//117 134//132 127//125
f 113//111 121//119 129//127
f 88//86 114//112 135//133
f 133//131 131//129 123//121
f 132//130 133//131 123//121
f 124//122 136//134 100//98
f 100//98 136//134 95//93
f 133//131 125//123 137//135
f 112//110 138//136 120//118
f 137//135 125//123 127//125
f 111//109 139//137 99//97
f 112//110 99//97 139//137
f 106//104 140//138 114//112
f 130//128 140//138 106//104
f 121//119 141//139 129//127
f 88//86 135//133 122//120
f 131//129 142//140 141//139
f 131//129 141//139 121//119
f 133//131 142//140 131//129
f 133//131 143//141 142//140
f 133//131 137//135 143//141
f 144//142 134//132 120//118
f 127//125 134//132 137//135
f 129//127 145//143 130//128
f 129//127 146//144 145//143
f 129//127 147//145 146//144
f 129//127 141//139 147//145
f 148//146 141//139 142//140
f 124//122 122//120 136//134
f 142//140 143//141 148//146
f 143//141 137//135 149//147
f 144//142 137//135 134//132
f 112//110 150//148 138//136
f 112//110 151//149 150//148
f 128//126 152//150 111//109
f 130//128 145//143 140//138
f 114//112 153//151 135//133
f 140//138 153//151 114//112
f 147//145 141//139 148//146
f 147//145 148//146 154//152
f 143//141 149//147 154//152
f 148//146 143//141 154//152
f 136//134 155//153 95//93
f 95//93 155//153 126//124
f 120//118 138//136 144//142
f 149//147 137//135 144//142
f 128//126 126//124 152//150
f 139//137 151//149 112//110
f 139//137 111//109 156//154
f 111//109 152//150 156//154
f 145//143 157//155 140//138
f 140//138 157//155 153//151
f 145//143 146//144 157//155
f 146//144 147//145 158//156
f 122//120 159//157 136//134
f 159//157 122//120 160//158
f 160//158 122//120 135//133
f 147//145 154//152 158//156
f 136//134 159//157 155//153
f 161//159 158//156 154//152
f 154//152 149//147 161//159
f 126//124 155//153 162//160
f 126//124 162//160 152//150
f 156//154 151//149 139//137
f 157//155 146//144 163//161
f 135//133 153//151 160//158
f 146//144 158//156 163//161
f 158//156 164//162 163//161
f 158//156 161//159 164//162
f 165//163 161//159 138//136
f 149//147 144//142 161//159
f 166//164 138//136 150//148
f 161//159 144//142 138//136
f 151//149 166//164 150//148
f 153//151 157//155 167//165
f 167//165 157//155 168//166
f 153//151 167//165 160//158
f 169//167 168//166 157//155
f 157//155 163//161 169//167
f 169//167 163//161 170//168
f 164//162 170//168 163//161
f 164//162 165//163 170//168
f 164//162 161//159 165//163
f 166//164 165//163 138//136
f 156//154 152//150 162//160
f 160//158 167//165 171//169
f 171//169 167//165 168//166
f 159//157 160//158 171//169
f 169//167 172//170 168//166
f 173//171 159//157 171//169
f 172//170 171//169 168//166
f 170//168 172//170 169//167
f 159//157 173//171 155//153
f 170//168 174//172 172//170
f 173//171 175//173 155//153
f 170//168 165//163 174//172
f 155//153 175//173 162//160
f 176//174 174//172 166//164
f 165//163 166//164 174//172
f 176//174 166//164 151//149
f 162//160 175//173 156//154
f 156//154 175//173 176//174
f 151//149 156//154 176//174
f 171//169 177//175 173//171
f 172//170 177//175 171//169
f 177//175 175//173 173//171
f 172//170 174//172 177//175
f 176//174 175//173 177//175
f 174//172 176//174 177//175
