# Blender v2.92.0 OBJ File: 'convert_to_one_sided.blend'
# www.blender.org
mtllib 260L.mtl
o 260
v 5.968383 7.154947 3.435237
v 6.045142 7.170127 3.430087
v 6.016762 7.108598 3.452287
v 6.096601 7.113428 3.451187
v 5.929703 7.219317 3.437477
v 5.992253 7.229206 3.430357
v 6.129331 7.164378 3.455247
v 6.068332 7.248016 3.448717
v 5.955584 7.271856 3.447137
v 5.929664 7.095278 3.480446
v 5.896744 7.153287 3.468906
v 5.884754 7.219037 3.471017
v 6.157381 7.201457 3.480227
v 5.890954 7.283535 3.476146
v 5.951854 7.324396 3.485116
v 6.051822 7.308705 3.485906
v 6.093832 7.085698 3.478876
v 6.028772 7.070219 3.531606
v 6.164280 7.098068 3.491216
v 6.203940 7.122858 3.514876
v 5.839725 7.141438 3.530246
v 6.132971 7.249556 3.492816
v 5.883044 7.303935 3.508716
v 6.013682 7.337525 3.507326
v 5.911634 7.056219 3.562935
v 5.875625 7.088068 3.531226
v 6.152101 7.065569 3.538686
v 6.208270 7.176417 3.537576
v 5.858135 7.242076 3.516046
v 6.153720 7.266096 3.556066
v 5.917254 7.327755 3.550545
v 6.066812 7.323495 3.550925
v 5.997323 7.333735 3.550835
v 5.855744 7.037979 3.602385
v 6.228880 7.050389 3.566985
v 5.860145 7.270636 3.574205
v 6.248630 7.073808 3.582595
v 5.827725 7.165167 3.581345
v 6.103191 7.044889 3.600045
v 6.179260 7.035189 3.604295
v 5.842485 7.065309 3.586945
v 5.829105 7.084918 3.601335
v 6.250779 7.135727 3.598985
v 6.218480 7.200607 3.600555
v 6.216940 6.997610 3.662964
v 5.993493 7.022199 3.654324
v 5.899664 7.304716 3.610245
v 6.046622 7.322626 3.617765
v 6.126001 7.287725 3.629494
v 5.961373 7.313785 3.619745
v 6.259279 7.008299 3.646764
v 5.824005 7.090158 3.655524
v 5.832585 7.182817 3.640184
v 6.200660 7.203147 3.688934
v 5.868145 7.242376 3.657834
v 5.853755 7.032259 3.667394
v 5.900254 7.027069 3.648364
v 6.120361 6.998769 3.691234
v 6.264639 7.055479 3.656704
v 6.245640 7.112528 3.681664
v 6.249489 6.949130 3.722523
v 5.828325 7.114658 3.685474
v 5.922024 7.270886 3.679784
v 6.090812 7.283146 3.687484
v 6.015802 7.265466 3.711703
v 6.265839 6.962450 3.724813
v 5.857315 7.021709 3.722113
v 6.194430 6.949990 3.732303
v 5.862615 7.135618 3.729263
v 6.141371 7.240486 3.714233
v 5.939314 6.984990 3.738153
v 5.862065 7.059188 3.736253
v 6.260319 7.007900 3.755083
v 6.236210 7.096368 3.754163
v 5.890504 7.208027 3.719903
v 6.219220 6.891571 3.778883
v 6.032463 6.968310 3.745963
v 6.253880 6.911980 3.762723
v 6.252450 6.907911 3.777133
v 5.894125 6.995070 3.751443
v 6.113832 6.907560 3.784813
v 5.906794 7.159858 3.776793
v 6.209950 7.116858 3.797242
v 5.961183 7.200977 3.770153
v 6.101381 7.225136 3.760673
v 6.222470 6.860371 3.805512
v 5.902954 6.995289 3.780272
v 6.160030 7.181007 3.773823
v 6.156431 6.852992 3.825252
v 6.223920 6.865781 3.821242
v 6.011093 6.924951 3.802422
v 5.951414 6.956160 3.796972
v 5.931214 7.016449 3.813422
v 6.048392 7.203997 3.788002
v 6.170381 6.845881 3.841902
v 6.086542 6.869741 3.834752
v 6.232200 6.934640 3.822152
v 6.224140 7.031089 3.812282
v 5.937984 7.100738 3.816072
v 5.963473 7.144698 3.816852
v 6.111651 7.167997 3.815942
v 6.128881 6.852701 3.844212
v 6.021032 6.905850 3.837852
v 5.964334 6.956490 3.818712
v 6.166010 7.126718 3.824752
v 6.039853 7.141128 3.833052
v 6.095562 6.871571 3.855252
v 6.188371 6.884191 3.854072
v 6.017992 6.940750 3.851131
v 6.184570 7.060799 3.847472
v 6.005202 7.090638 3.852331
v 6.138411 6.875471 3.868052
v 6.190030 6.967510 3.855381
v 6.008702 7.015029 3.856081
v 6.126191 7.093068 3.853012
v 6.087732 6.939440 3.876801
v 6.148141 6.936890 3.876521
v 6.142351 7.010119 3.873981
v 6.075272 7.034319 3.864671
v 6.115191 6.979450 3.872651
vn -0.1984 -0.2667 -0.9431
vn 0.1220 -0.0962 -0.9879
vn -0.0493 -0.6478 -0.7602
vn 0.2143 -0.4386 -0.8728
vn -0.3814 0.0680 -0.9219
vn -0.0081 0.1574 -0.9875
vn 0.4541 -0.0173 -0.8908
vn 0.3097 0.3736 -0.8744
vn -0.1554 0.4395 -0.8847
vn -0.2627 -0.7060 -0.6577
vn -0.5601 -0.2895 -0.7762
vn -0.6737 0.0944 -0.7330
vn 0.6385 0.2911 -0.7124
vn -0.5947 0.4068 -0.6934
vn -0.1769 0.8527 -0.4915
vn 0.3511 0.7203 -0.5982
vn 0.0805 -0.8317 -0.5494
vn -0.0224 -0.9217 -0.3873
vn 0.3902 -0.5441 -0.7428
vn 0.7153 -0.0709 -0.6952
vn -0.8469 -0.1760 -0.5017
vn 0.6176 0.5646 -0.5476
vn -0.7005 0.6625 -0.2654
vn 0.1399 0.9598 -0.2434
vn -0.0830 -0.9008 -0.4263
vn -0.5052 -0.6107 -0.6098
vn 0.0337 -0.9016 -0.4312
vn 0.8210 0.3550 -0.4471
vn -0.9092 0.2246 -0.3506
vn 0.6728 0.7165 -0.1844
vn -0.3692 0.9268 0.0691
vn 0.3835 0.9217 -0.0582
vn -0.0283 0.9959 0.0857
vn -0.3703 -0.8529 -0.3680
vn 0.3550 -0.7034 -0.6158
vn -0.8564 0.5122 0.0656
vn 0.8874 -0.0885 -0.4524
vn -0.9869 0.1164 -0.1120
vn -0.0442 -0.9187 -0.3924
vn -0.0782 -0.8926 -0.4441
vn -0.7795 -0.5123 -0.3605
vn -0.9421 -0.2923 -0.1642
vn 0.9525 0.2633 -0.1529
vn 0.8453 0.5328 -0.0395
vn -0.0488 -0.8333 -0.5507
vn -0.0271 -0.9110 -0.4114
vn -0.5061 0.7923 0.3409
vn 0.1181 0.9482 0.2950
vn 0.5229 0.8308 0.1905
vn -0.1350 0.9147 0.3810
vn 0.6730 -0.5636 -0.4790
vn -0.9809 -0.1643 0.1038
vn -0.9341 0.2824 0.2183
vn 0.7447 0.6119 0.2663
vn -0.7382 0.5225 0.4268
vn -0.6422 -0.7548 -0.1336
vn -0.0940 -0.9518 -0.2921
vn -0.1070 -0.8256 -0.5540
vn 0.9973 0.0482 -0.0555
vn 0.9252 0.3411 0.1662
vn 0.2222 -0.7327 -0.6432
vn -0.9216 0.0719 0.3814
vn -0.3503 0.7427 0.5707
vn 0.2401 0.8454 0.4771
vn -0.0773 0.8071 0.5854
vn 0.9248 -0.3175 -0.2094
vn -0.8467 -0.4809 0.2277
vn -0.1243 -0.7238 -0.6787
vn -0.7872 0.2137 0.5785
vn 0.4920 0.7413 0.4564
vn -0.2289 -0.8899 -0.3946
vn -0.8373 -0.0741 0.5416
vn 0.9530 0.1232 0.2768
vn 0.8893 0.3267 0.3202
vn -0.5992 0.5387 0.5922
vn -0.0201 -0.6982 -0.7156
vn -0.1328 -0.7965 -0.5899
vn 0.5797 -0.6494 -0.4921
vn 0.9420 -0.3070 0.1357
vn -0.5406 -0.8401 -0.0450
vn -0.1883 -0.7026 -0.6862
vn -0.5776 0.4038 0.7095
vn 0.7093 0.4461 0.5458
vn -0.2668 0.6528 0.7090
vn 0.2093 0.7478 0.6301
vn 0.4322 -0.8587 -0.2753
vn -0.7453 -0.4629 0.4797
vn 0.4859 0.6626 0.5699
vn -0.1315 -0.8731 -0.4695
vn 0.7245 -0.4835 0.4913
vn -0.3371 -0.8212 -0.4605
vn -0.5709 -0.8209 0.0120
vn -0.6411 -0.0903 0.7622
vn -0.0527 0.6851 0.7266
vn 0.1544 -0.8752 0.4584
vn -0.3938 -0.8889 -0.2339
vn 0.7903 -0.0054 0.6127
vn 0.7930 0.1787 0.5824
vn -0.5703 0.1156 0.8132
vn -0.3290 0.4442 0.8333
vn 0.1842 0.6024 0.7766
vn -0.2522 -0.9604 0.1185
vn -0.5739 -0.7574 0.3113
vn -0.6403 -0.4649 0.6114
vn 0.4028 0.5138 0.7575
vn -0.0681 0.4732 0.8783
vn -0.3281 -0.6612 0.6746
vn 0.4769 -0.2327 0.8476
vn -0.4570 -0.2824 0.8434
vn 0.5085 0.2608 0.8206
vn -0.2357 0.2196 0.9467
vn 0.0494 -0.3920 0.9186
vn 0.5519 0.0583 0.8319
vn -0.3523 -0.0075 0.9358
vn 0.1193 0.3533 0.9279
vn -0.1652 -0.0911 0.9820
vn 0.1867 -0.0306 0.9820
vn 0.1520 0.1354 0.9791
vn -0.0720 0.1632 0.9840
vn -0.0487 0.0746 0.9960
usemtl mtl1.1101
s 1
f 1//1 2//2 3//3
f 3//3 2//2 4//4
f 1//1 5//5 6//6
f 2//2 1//1 6//6
f 7//7 2//2 8//8
f 2//2 6//6 8//8
f 5//5 9//9 6//6
f 8//8 6//6 9//9
f 7//7 4//4 2//2
f 10//10 11//11 1//1
f 3//3 10//10 1//1
f 1//1 11//11 5//5
f 5//5 11//11 12//12
f 7//7 8//8 13//13
f 5//5 12//12 9//9
f 12//12 14//14 9//9
f 14//14 15//15 9//9
f 9//9 16//16 8//8
f 16//16 9//9 15//15
f 3//3 17//17 18//18
f 4//4 17//17 3//3
f 7//7 19//19 4//4
f 20//20 19//19 7//7
f 11//11 21//21 12//12
f 7//7 13//13 20//20
f 22//22 13//13 8//8
f 8//8 16//16 22//22
f 14//14 23//23 15//15
f 15//15 24//24 16//16
f 10//10 25//25 26//26
f 25//25 10//10 18//18
f 17//17 27//27 18//18
f 17//17 19//19 27//27
f 10//10 26//26 11//11
f 3//3 18//18 10//10
f 19//19 17//17 4//4
f 21//21 11//11 26//26
f 13//13 28//28 20//20
f 14//14 12//12 29//29
f 23//23 14//14 29//29
f 30//30 22//22 16//16
f 31//31 15//15 23//23
f 32//32 16//16 24//24
f 30//30 16//16 32//32
f 15//15 33//33 24//24
f 26//26 25//25 34//34
f 27//27 19//19 35//35
f 20//20 35//35 19//19
f 29//29 12//12 21//21
f 13//13 22//22 28//28
f 36//36 23//23 29//29
f 15//15 31//31 33//33
f 24//24 33//33 32//32
f 35//35 20//20 37//37
f 37//37 20//20 28//28
f 21//21 38//38 29//29
f 28//28 22//22 30//30
f 23//23 36//36 31//31
f 39//39 27//27 40//40
f 27//27 35//35 40//40
f 34//34 41//41 26//26
f 27//27 39//39 18//18
f 26//26 41//41 21//21
f 42//42 38//38 21//21
f 43//43 28//28 44//44
f 40//40 35//35 45//45
f 18//18 46//46 25//25
f 18//18 39//39 46//46
f 41//41 42//42 21//21
f 37//37 28//28 43//43
f 29//29 38//38 36//36
f 28//28 30//30 44//44
f 36//36 47//47 31//31
f 32//32 48//48 49//49
f 49//49 30//30 32//32
f 31//31 50//50 33//33
f 35//35 37//37 51//51
f 45//45 35//35 51//51
f 38//38 42//42 52//52
f 38//38 53//53 36//36
f 54//54 44//44 30//30
f 30//30 49//49 54//54
f 36//36 55//55 47//47
f 31//31 47//47 50//50
f 32//32 33//33 48//48
f 41//41 34//34 56//56
f 56//56 34//34 57//57
f 25//25 57//57 34//34
f 58//58 40//40 45//45
f 25//25 46//46 57//57
f 58//58 39//39 40//40
f 59//59 37//37 43//43
f 43//43 60//60 59//59
f 52//52 53//53 38//38
f 43//43 44//44 60//60
f 53//53 55//55 36//36
f 33//33 50//50 48//48
f 61//61 45//45 51//51
f 51//51 37//37 59//59
f 41//41 56//56 42//42
f 56//56 52//52 42//42
f 52//52 62//62 53//53
f 44//44 54//54 60//60
f 55//55 63//63 47//47
f 48//48 64//64 49//49
f 65//65 48//48 50//50
f 59//59 66//66 51//51
f 56//56 67//67 52//52
f 68//68 58//58 45//45
f 39//39 58//58 46//46
f 62//62 69//69 53//53
f 64//64 70//70 49//49
f 70//70 54//54 49//49
f 66//66 61//61 51//51
f 61//61 68//68 45//45
f 57//57 71//71 56//56
f 57//57 46//46 71//71
f 67//67 72//72 52//52
f 59//59 73//73 66//66
f 59//59 60//60 73//73
f 52//52 72//72 62//62
f 60//60 54//54 74//74
f 53//53 69//69 55//55
f 69//69 75//75 55//55
f 55//55 75//75 63//63
f 47//47 63//63 50//50
f 50//50 63//63 65//65
f 64//64 48//48 65//65
f 76//76 68//68 61//61
f 58//58 77//77 46//46
f 73//73 60//60 74//74
f 78//78 76//76 61//61
f 78//78 61//61 66//66
f 78//78 66//66 79//79
f 67//67 56//56 80//80
f 56//56 71//71 80//80
f 77//77 58//58 81//81
f 81//81 58//58 68//68
f 66//66 73//73 79//79
f 77//77 71//71 46//46
f 72//72 69//69 62//62
f 82//82 75//75 69//69
f 74//74 54//54 83//83
f 75//75 84//84 63//63
f 64//64 85//85 70//70
f 86//86 76//76 78//78
f 76//76 81//81 68//68
f 67//67 87//87 72//72
f 82//82 84//84 75//75
f 83//83 54//54 88//88
f 85//85 88//88 70//70
f 54//54 70//70 88//88
f 63//63 84//84 65//65
f 64//64 65//65 85//85
f 76//76 89//89 81//81
f 86//86 89//89 76//76
f 90//90 86//86 79//79
f 78//78 79//79 86//86
f 71//71 91//91 92//92
f 71//71 92//92 80//80
f 80//80 92//92 87//87
f 77//77 91//91 71//71
f 81//81 91//91 77//77
f 80//80 87//87 67//67
f 87//87 93//93 72//72
f 72//72 93//93 69//69
f 84//84 94//94 65//65
f 85//85 65//65 94//94
f 89//89 86//86 95//95
f 86//86 90//90 95//95
f 89//89 96//96 81//81
f 97//97 90//90 79//79
f 91//91 81//81 96//96
f 79//79 73//73 97//97
f 73//73 98//98 97//97
f 98//98 73//73 74//74
f 99//99 69//69 93//93
f 69//69 99//99 82//82
f 99//99 100//100 82//82
f 82//82 100//100 84//84
f 101//101 88//88 85//85
f 101//101 85//85 94//94
f 102//102 89//89 95//95
f 89//89 102//102 96//96
f 96//96 103//103 91//91
f 92//92 103//103 104//104
f 103//103 92//92 91//91
f 92//92 104//104 87//87
f 74//74 83//83 98//98
f 83//83 88//88 105//105
f 100//100 106//106 84//84
f 105//105 88//88 101//101
f 106//106 94//94 84//84
f 102//102 95//95 107//107
f 107//107 96//96 102//102
f 90//90 108//108 95//95
f 96//96 107//107 103//103
f 90//90 97//97 108//108
f 103//103 109//109 104//104
f 87//87 104//104 93//93
f 98//98 83//83 110//110
f 110//110 83//83 105//105
f 99//99 111//111 100//100
f 106//106 100//100 111//111
f 107//107 95//95 112//112
f 112//112 95//95 108//108
f 103//103 107//107 109//109
f 108//108 97//97 113//113
f 104//104 109//109 93//93
f 97//97 98//98 113//113
f 93//93 109//109 114//114
f 93//93 114//114 99//99
f 113//113 98//98 110//110
f 111//111 99//99 114//114
f 110//110 105//105 115//115
f 115//115 101//101 106//106
f 101//101 94//94 106//106
f 105//105 101//101 115//115
f 112//112 116//116 107//107
f 117//117 116//116 112//112
f 112//112 108//108 117//117
f 109//109 107//107 116//116
f 108//108 113//113 117//117
f 118//118 117//117 113//113
f 116//116 114//114 109//109
f 118//118 113//113 110//110
f 119//119 111//111 114//114
f 118//118 115//115 119//119
f 110//110 115//115 118//118
f 106//106 111//111 119//119
f 115//115 106//106 119//119
f 116//116 117//117 120//120
f 117//117 118//118 120//120
f 116//116 119//119 114//114
f 120//120 119//119 116//116
f 118//118 119//119 120//120
