# Blender v2.92.0 OBJ File: 'convert_to_one_sided.blend'
# www.blender.org
mtllib 263L.mtl
o Cube
v 0.001000 0.001000 -0.001000
v 0.001000 -0.001000 -0.001000
v 0.001000 0.001000 0.001000
v 0.001000 -0.001000 0.001000
v -0.001000 0.001000 -0.001000
v -0.001000 -0.001000 -0.001000
v -0.001000 0.001000 0.001000
v -0.001000 -0.001000 0.001000
vt 0.625000 0.500000
vt 0.875000 0.500000
vt 0.875000 0.750000
vt 0.625000 0.750000
vt 0.375000 0.750000
vt 0.625000 1.000000
vt 0.375000 1.000000
vt 0.375000 0.000000
vt 0.625000 0.000000
vt 0.625000 0.250000
vt 0.375000 0.250000
vt 0.125000 0.500000
vt 0.375000 0.500000
vt 0.125000 0.750000
vn 0.0000 1.0000 0.0000
vn 0.0000 0.0000 1.0000
vn -1.0000 0.0000 0.0000
vn 0.0000 -1.0000 0.0000
vn 1.0000 0.0000 0.0000
vn 0.0000 0.0000 -1.0000
usemtl Material
s off
f 1/1/1 5/2/1 7/3/1 3/4/1
f 4/5/2 3/4/2 7/6/2 8/7/2
f 8/8/3 7/9/3 5/10/3 6/11/3
f 6/12/4 2/13/4 4/5/4 8/14/4
f 2/13/5 1/1/5 3/4/5 4/5/5
f 6/11/6 5/10/6 1/1/6 2/13/6
o 263
v 5.230123 6.447506 4.915698
v 5.179403 6.460986 4.909208
v 5.203793 6.496465 4.904238
v 5.240333 6.511295 4.914748
v 5.132544 6.506375 4.927078
v 5.188783 6.542065 4.919147
v 5.225812 6.558964 4.932388
v 5.151103 6.408647 4.947797
v 5.192793 6.377957 4.971597
v 5.104885 6.450366 4.952487
v 5.260262 6.471226 4.936667
v 5.253462 6.523775 4.950147
v 5.113794 6.558895 4.950327
v 5.228613 6.569324 4.956037
v 5.161334 6.583494 4.958837
v 5.239942 6.410336 4.968837
v 5.071135 6.528175 4.964657
v 5.031245 6.478065 4.997637
v 5.198603 6.583224 4.969487
v 5.087295 6.337757 5.033216
v 5.043755 6.406207 5.014206
v 5.204953 6.362217 4.994417
v 5.261122 6.467456 4.977467
v 4.999945 6.534655 5.042736
v 5.077805 6.584494 5.023656
v 5.162543 6.327208 5.042866
v 5.220803 6.388367 5.052586
v 5.251522 6.514225 5.002497
v 5.202363 6.563375 5.013327
v 5.144394 6.588325 5.016616
v 5.092615 6.281958 5.099235
v 5.201303 6.360227 5.025736
v 4.970456 6.329978 5.112175
v 4.943787 6.402627 5.097225
v 5.231772 6.453276 5.049456
v 4.943516 6.468066 5.084516
v 5.188323 6.468716 5.114085
v 5.175043 6.324607 5.100415
v 5.170543 6.334608 5.163095
v 5.189083 6.392046 5.130475
v 4.912357 6.489376 5.123315
v 4.924047 6.526175 5.140275
v 5.132184 6.532445 5.144785
v 4.995226 6.567084 5.118845
v 5.074484 6.588984 5.074676
v 5.102004 6.576055 5.093735
v 5.020175 6.267468 5.140075
v 5.115814 6.260859 5.161685
v 4.876537 6.415327 5.179874
v 5.034995 6.573444 5.143585
v 5.047645 6.223689 5.191304
v 4.897077 6.329288 5.199784
v 5.117944 6.434597 5.237884
v 4.991676 6.201789 5.242003
v 4.947436 6.254999 5.221924
v 5.050355 6.542425 5.196844
v 5.130914 6.277988 5.223494
v 4.876917 6.475445 5.206294
v 4.925457 6.528095 5.191824
v 5.023985 6.179389 5.276293
v 5.066035 6.201269 5.268123
v 5.129344 6.344067 5.251244
v 4.840568 6.400106 5.257973
v 4.965546 6.528305 5.235284
v 4.945537 6.199959 5.306013
v 5.094064 6.226219 5.276113
v 4.851697 6.336487 5.279613
v 4.890347 6.487616 5.261513
v 5.068045 6.468516 5.269983
v 4.847788 6.426916 5.285493
v 4.898157 6.257668 5.312522
v 4.839648 6.361497 5.324662
v 5.053385 6.378097 5.346432
v 5.006835 6.477386 5.304353
v 4.991636 6.176939 5.341412
v 5.056795 6.190839 5.349722
v 5.034025 6.183890 5.328482
v 4.845548 6.392577 5.348932
v 4.871727 6.443406 5.329803
v 4.908427 6.475706 5.315153
v 5.080914 6.251729 5.334602
v 4.862317 6.302248 5.348762
v 5.074055 6.310338 5.344002
v 5.027875 6.439036 5.328272
v 4.939946 6.445466 5.354812
v 4.940486 6.206249 5.372242
v 4.887627 6.427236 5.362672
v 5.020055 6.183919 5.372272
v 4.865307 6.392727 5.374662
v 4.998295 6.422576 5.353862
v 4.987326 6.196939 5.397781
v 5.026206 6.215409 5.389452
v 4.899797 6.261648 5.390141
v 4.871808 6.342288 5.379272
v 4.945847 6.234069 5.412831
v 4.907466 6.370527 5.402071
v 5.017285 6.293688 5.395132
v 4.974576 6.372497 5.384382
v 4.967696 6.255478 5.416831
v 4.921216 6.296048 5.407641
v 4.956416 6.316398 5.400531
vn 0.3354 -0.4285 -0.8390
vn -0.2407 -0.2604 -0.9350
vn -0.0035 0.0757 -0.9971
vn 0.5382 0.2201 -0.8136
vn -0.4208 0.0687 -0.9046
vn -0.0760 0.4474 -0.8911
vn 0.4099 0.6939 -0.5920
vn -0.2571 -0.5492 -0.7951
vn 0.1458 -0.7412 -0.6553
vn -0.5015 -0.2717 -0.8213
vn 0.9080 -0.1334 -0.3971
vn 0.9178 0.3838 -0.1015
vn -0.4232 0.5570 -0.7146
vn 0.6821 0.7312 -0.0007
vn -0.0767 0.8851 -0.4591
vn 0.7808 -0.5701 -0.2555
vn -0.6031 0.2104 -0.7694
vn -0.6410 -0.0836 -0.7630
vn 0.2950 0.9539 -0.0546
vn -0.2436 -0.6857 -0.6859
vn -0.5271 -0.3947 -0.7526
vn 0.5318 -0.7807 -0.3282
vn 0.9859 -0.0993 0.1344
vn -0.6675 0.4813 -0.5681
vn -0.3311 0.9007 -0.2814
vn 0.3305 -0.8622 -0.3840
vn 0.9126 -0.3543 0.2041
vn 0.8776 0.3167 0.3599
vn 0.6048 0.6946 0.3896
vn 0.1506 0.9825 0.1095
vn 0.0404 -0.8385 -0.5434
vn 0.7366 -0.6758 -0.0265
vn -0.5571 -0.5258 -0.6428
vn -0.6956 -0.2693 -0.6660
vn 0.9003 -0.0058 0.4352
vn -0.7463 0.0094 -0.6655
vn 0.8012 0.2755 0.5312
vn 0.7680 -0.6404 -0.0058
vn 0.9130 -0.2638 0.3110
vn 0.8985 -0.0128 0.4388
vn -0.8288 0.2468 -0.5022
vn -0.7026 0.6653 -0.2524
vn 0.5932 0.6093 0.5262
vn -0.4013 0.9151 -0.0382
vn -0.0343 0.9941 0.1029
vn 0.3197 0.8715 0.3719
vn -0.3355 -0.7256 -0.6008
vn 0.5577 -0.8028 -0.2111
vn -0.8605 -0.1056 -0.4983
vn 0.0065 0.9466 0.3222
vn 0.0969 -0.8784 -0.4680
vn -0.7408 -0.4648 -0.4850
vn 0.7515 0.3308 0.5708
vn -0.3483 -0.8333 -0.4294
vn -0.6192 -0.6243 -0.4763
vn 0.2916 0.8022 0.5210
vn 0.8860 -0.4093 0.2177
vn -0.8755 0.4558 -0.1606
vn -0.5440 0.8314 0.1130
vn 0.1110 -0.9695 -0.2186
vn 0.4954 -0.8565 -0.1450
vn 0.8692 0.0451 0.4923
vn -0.9770 0.0450 -0.2086
vn -0.1324 0.8956 0.4246
vn -0.5984 -0.7732 -0.2099
vn 0.8227 -0.5581 0.1083
vn -0.8832 -0.3885 -0.2627
vn -0.6135 0.7587 0.2191
vn 0.5541 0.5614 0.6147
vn -0.9071 0.4108 0.0915
vn -0.7783 -0.6078 -0.1577
vn -0.9830 -0.1001 0.1538
vn 0.6079 0.3240 0.7249
vn 0.2669 0.7149 0.6462
vn -0.1852 -0.9809 0.0600
vn 0.6620 -0.6777 0.3200
vn 0.2938 -0.9552 0.0360
vn -0.8885 0.2149 0.4054
vn -0.6511 0.6341 0.4171
vn -0.2946 0.8081 0.5102
vn 0.8337 -0.1406 0.5341
vn -0.8934 -0.4088 0.1862
vn 0.7506 0.0928 0.6542
vn 0.4547 0.5384 0.7095
vn 0.0732 0.6515 0.7551
vn -0.5931 -0.7586 0.2697
vn -0.3156 0.6248 0.7142
vn 0.2690 -0.8588 0.4359
vn -0.6105 0.3317 0.7192
vn 0.3191 0.4952 0.8080
vn -0.0273 -0.6833 0.7297
vn 0.5254 -0.2633 0.8091
vn -0.7420 -0.4239 0.5194
vn -0.7312 -0.0963 0.6753
vn -0.3664 -0.3914 0.8441
vn -0.1354 0.2715 0.9529
vn 0.4718 0.1387 0.8708
vn 0.2658 0.3351 0.9039
vn 0.1324 -0.0152 0.9911
vn -0.2924 0.0103 0.9562
vn 0.1471 0.2075 0.9671
usemtl mtl1.252
s 1
f 9//7 10//8 11//9
f 12//10 9//7 11//9
f 10//8 13//11 11//9
f 13//11 14//12 11//9
f 15//13 12//10 14//12
f 14//12 12//10 11//9
f 16//14 9//7 17//15
f 16//14 18//16 10//8
f 9//7 16//14 10//8
f 10//8 18//16 13//11
f 9//7 12//10 19//17
f 20//18 19//17 12//10
f 12//10 15//13 20//18
f 13//11 21//19 14//12
f 20//18 15//13 22//20
f 21//19 23//21 14//12
f 15//13 14//12 23//21
f 17//15 9//7 24//22
f 24//22 9//7 19//17
f 25//23 13//11 26//24
f 18//16 26//24 13//11
f 13//11 25//23 21//19
f 27//25 15//13 23//21
f 22//20 15//13 27//25
f 28//26 16//14 17//15
f 28//26 29//27 16//14
f 17//15 24//22 30//28
f 16//14 29//27 18//16
f 18//16 29//27 26//24
f 24//22 19//17 31//29
f 31//29 19//17 20//18
f 25//23 32//30 21//19
f 21//19 32//30 33//31
f 21//19 33//31 23//21
f 28//26 17//15 34//32
f 34//32 17//15 30//28
f 31//29 35//33 24//22
f 31//29 20//18 36//34
f 25//23 26//24 32//30
f 20//18 37//35 36//34
f 37//35 20//18 22//20
f 22//20 27//25 37//35
f 23//21 33//31 38//36
f 23//21 38//36 27//25
f 39//37 28//26 34//32
f 40//38 30//28 24//22
f 35//33 40//38 24//22
f 27//25 38//36 37//35
f 34//32 30//28 40//38
f 41//39 29//27 28//26
f 29//27 42//40 26//24
f 43//41 35//33 31//29
f 31//29 36//34 43//41
f 42//40 44//42 26//24
f 44//42 32//30 26//24
f 45//43 43//41 36//34
f 36//34 37//35 45//43
f 46//44 34//32 40//38
f 46//44 40//38 35//33
f 47//45 46//44 35//33
f 41//39 42//40 29//27
f 35//33 43//41 48//46
f 32//30 44//42 49//47
f 32//30 49//47 50//48
f 37//35 51//49 45//43
f 32//30 52//50 33//31
f 38//36 33//31 53//51
f 54//52 37//35 38//36
f 28//26 39//37 55//53
f 34//32 56//54 39//37
f 28//26 55//53 41//39
f 48//46 47//45 35//33
f 32//30 50//48 52//50
f 51//49 37//35 54//52
f 33//31 52//50 53//51
f 38//36 53//51 54//52
f 56//54 34//32 46//44
f 44//42 42//40 57//55
f 49//47 44//42 57//55
f 52//50 58//56 53//51
f 55//53 39//37 59//57
f 59//57 39//37 56//54
f 57//55 42//40 60//58
f 60//58 42//40 41//39
f 43//41 45//43 48//46
f 45//43 51//49 61//59
f 53//51 58//56 54//52
f 62//60 63//61 55//53
f 55//53 63//61 41//39
f 63//61 60//58 41//39
f 54//52 58//56 64//62
f 62//60 55//53 59//57
f 65//63 56//54 46//44
f 46//44 47//45 65//63
f 66//64 49//47 57//55
f 66//64 50//48 49//47
f 67//65 50//48 66//64
f 50//48 67//65 52//50
f 51//49 54//52 64//62
f 62//60 59//57 68//66
f 68//66 59//57 69//67
f 69//67 59//57 56//54
f 48//46 70//68 47//45
f 45//43 70//68 48//46
f 45//43 61//59 70//68
f 66//64 57//55 71//69
f 52//50 67//65 72//70
f 52//50 72//70 58//56
f 58//56 72//70 64//62
f 62//60 73//71 63//61
f 74//72 69//67 56//54
f 56//54 65//63 74//72
f 70//68 65//63 47//45
f 60//58 75//73 57//55
f 75//73 71//69 57//55
f 66//64 76//74 67//65
f 51//49 77//75 61//59
f 66//64 78//76 76//74
f 77//75 51//49 64//62
f 67//65 76//74 72//70
f 60//58 63//61 79//77
f 79//77 63//61 73//71
f 75//73 80//78 71//69
f 80//78 78//76 71//69
f 78//76 66//64 71//69
f 61//59 81//79 70//68
f 61//59 77//75 81//79
f 77//75 64//62 82//80
f 82//80 64//62 72//70
f 62//60 83//81 73//71
f 83//81 62//60 68//66
f 84//82 85//83 69//67
f 69//67 74//72 84//82
f 60//58 79//77 75//73
f 86//84 87//85 78//76
f 78//76 87//85 76//74
f 88//86 76//74 87//85
f 76//74 88//86 72//70
f 83//81 68//66 85//83
f 68//66 69//67 85//83
f 74//72 89//87 84//82
f 74//72 65//63 89//87
f 75//73 79//77 90//88
f 75//73 90//88 80//78
f 81//79 91//89 70//68
f 81//79 77//75 92//90
f 77//75 82//80 92//90
f 88//86 93//91 72//70
f 72//70 93//91 82//80
f 73//71 83//81 94//92
f 79//77 73//71 94//92
f 89//87 65//63 70//68
f 80//78 86//84 78//76
f 88//86 87//85 95//93
f 84//82 96//94 85//83
f 89//87 70//68 91//89
f 97//95 87//85 86//84
f 87//85 97//95 95//93
f 88//86 95//93 93//91
f 93//91 98//96 82//80
f 92//90 82//80 98//96
f 83//81 99//97 94//92
f 96//94 99//97 83//81
f 85//83 96//94 83//81
f 100//98 96//94 84//82
f 79//77 94//92 101//99
f 89//87 100//98 84//82
f 79//77 101//99 90//88
f 90//88 102//100 80//78
f 80//78 102//100 86//84
f 102//100 97//95 86//84
f 103//101 94//92 99//97
f 94//92 103//101 101//99
f 90//88 101//99 102//100
f 81//79 92//90 98//96
f 97//95 104//102 95//93
f 104//102 93//91 95//93
f 96//94 100//98 99//97
f 105//103 100//98 89//87
f 89//87 91//89 105//103
f 91//89 81//79 105//103
f 102//100 104//102 97//95
f 105//103 81//79 106//104
f 81//79 98//96 106//104
f 106//104 93//91 104//102
f 98//96 93//91 106//104
f 103//101 99//97 107//105
f 107//105 99//97 100//98
f 103//101 108//106 101//99
f 100//98 105//103 107//105
f 101//99 108//106 102//100
f 104//102 102//100 108//106
f 109//107 104//102 108//106
f 109//107 106//104 104//102
f 107//105 108//106 103//101
f 107//105 109//107 108//106
f 105//103 106//104 109//107
f 107//105 105//103 109//107
