# Blender v2.92.0 OBJ File: 'convert_to_one_sided.blend'
# www.blender.org
mtllib 263L.mtl
o 263
v 5.230123 6.447506 4.915698
v 5.179403 6.460986 4.909208
v 5.203793 6.496465 4.904238
v 5.240333 6.511295 4.914748
v 5.132544 6.506375 4.927078
v 5.188783 6.542065 4.919147
v 5.225812 6.558964 4.932388
v 5.151103 6.408647 4.947797
v 5.192793 6.377957 4.971597
v 5.104885 6.450366 4.952487
v 5.260262 6.471226 4.936667
v 5.253462 6.523775 4.950147
v 5.113794 6.558895 4.950327
v 5.228613 6.569324 4.956037
v 5.161334 6.583494 4.958837
v 5.239942 6.410336 4.968837
v 5.071135 6.528175 4.964657
v 5.031245 6.478065 4.997637
v 5.198603 6.583224 4.969487
v 5.087295 6.337757 5.033216
v 5.043755 6.406207 5.014206
v 5.204953 6.362217 4.994417
v 5.261122 6.467456 4.977467
v 4.999945 6.534655 5.042736
v 5.077805 6.584494 5.023656
v 5.162543 6.327208 5.042866
v 5.220803 6.388367 5.052586
v 5.251522 6.514225 5.002497
v 5.202363 6.563375 5.013327
v 5.144394 6.588325 5.016616
v 5.092615 6.281958 5.099235
v 5.201303 6.360227 5.025736
v 4.970456 6.329978 5.112175
v 4.943787 6.402627 5.097225
v 5.231772 6.453276 5.049456
v 4.943516 6.468066 5.084516
v 5.188323 6.468716 5.114085
v 5.175043 6.324607 5.100415
v 5.170543 6.334608 5.163095
v 5.189083 6.392046 5.130475
v 4.912357 6.489376 5.123315
v 4.924047 6.526175 5.140275
v 5.132184 6.532445 5.144785
v 4.995226 6.567084 5.118845
v 5.074484 6.588984 5.074676
v 5.102004 6.576055 5.093735
v 5.020175 6.267468 5.140075
v 5.115814 6.260859 5.161685
v 4.876537 6.415327 5.179874
v 5.034995 6.573444 5.143585
v 5.047645 6.223689 5.191304
v 4.897077 6.329288 5.199784
v 5.117944 6.434597 5.237884
v 4.991676 6.201789 5.242003
v 4.947436 6.254999 5.221924
v 5.050355 6.542425 5.196844
v 5.130914 6.277988 5.223494
v 4.876917 6.475445 5.206294
v 4.925457 6.528095 5.191824
v 5.023985 6.179389 5.276293
v 5.066035 6.201269 5.268123
v 5.129344 6.344067 5.251244
v 4.840568 6.400106 5.257973
v 4.965546 6.528305 5.235284
v 4.945537 6.199959 5.306013
v 5.094064 6.226219 5.276113
v 4.851697 6.336487 5.279613
v 4.890347 6.487616 5.261513
v 5.068045 6.468516 5.269983
v 4.847788 6.426916 5.285493
v 4.898157 6.257668 5.312522
v 4.839648 6.361497 5.324662
v 5.053385 6.378097 5.346432
v 5.006835 6.477386 5.304353
v 4.991636 6.176939 5.341412
v 5.056795 6.190839 5.349722
v 5.034025 6.183890 5.328482
v 4.845548 6.392577 5.348932
v 4.871727 6.443406 5.329803
v 4.908427 6.475706 5.315153
v 5.080914 6.251729 5.334602
v 4.862317 6.302248 5.348762
v 5.074055 6.310338 5.344002
v 5.027875 6.439036 5.328272
v 4.939946 6.445466 5.354812
v 4.940486 6.206249 5.372242
v 4.887627 6.427236 5.362672
v 5.020055 6.183919 5.372272
v 4.865307 6.392727 5.374662
v 4.998295 6.422576 5.353862
v 4.987326 6.196939 5.397781
v 5.026206 6.215409 5.389452
v 4.899797 6.261648 5.390141
v 4.871808 6.342288 5.379272
v 4.945847 6.234069 5.412831
v 4.907466 6.370527 5.402071
v 5.017285 6.293688 5.395132
v 4.974576 6.372497 5.384382
v 4.967696 6.255478 5.416831
v 4.921216 6.296048 5.407641
v 4.956416 6.316398 5.400531
vn 0.3354 -0.4285 -0.8390
vn -0.2407 -0.2604 -0.9350
vn -0.0035 0.0757 -0.9971
vn 0.5382 0.2201 -0.8136
vn -0.4208 0.0687 -0.9046
vn -0.0760 0.4474 -0.8911
vn 0.4099 0.6939 -0.5920
vn -0.2571 -0.5492 -0.7951
vn 0.1458 -0.7412 -0.6553
vn -0.5015 -0.2717 -0.8213
vn 0.9080 -0.1334 -0.3971
vn 0.9178 0.3838 -0.1015
vn -0.4232 0.5570 -0.7146
vn 0.6821 0.7312 -0.0007
vn -0.0767 0.8851 -0.4591
vn 0.7808 -0.5701 -0.2555
vn -0.6031 0.2104 -0.7694
vn -0.6410 -0.0836 -0.7630
vn 0.2950 0.9539 -0.0546
vn -0.2436 -0.6857 -0.6859
vn -0.5271 -0.3947 -0.7526
vn 0.5318 -0.7807 -0.3282
vn 0.9859 -0.0993 0.1344
vn -0.6675 0.4813 -0.5681
vn -0.3311 0.9007 -0.2814
vn 0.3305 -0.8622 -0.3840
vn 0.9126 -0.3543 0.2041
vn 0.8776 0.3167 0.3599
vn 0.6048 0.6946 0.3896
vn 0.1506 0.9825 0.1095
vn 0.0404 -0.8385 -0.5434
vn 0.7366 -0.6758 -0.0265
vn -0.5571 -0.5258 -0.6428
vn -0.6956 -0.2693 -0.6660
vn 0.9003 -0.0058 0.4352
vn -0.7463 0.0094 -0.6655
vn 0.8012 0.2755 0.5312
vn 0.7680 -0.6404 -0.0058
vn 0.9130 -0.2638 0.3110
vn 0.8985 -0.0128 0.4388
vn -0.8288 0.2468 -0.5022
vn -0.7026 0.6653 -0.2524
vn 0.5932 0.6093 0.5262
vn -0.4013 0.9151 -0.0382
vn -0.0343 0.9941 0.1029
vn 0.3197 0.8715 0.3719
vn -0.3355 -0.7256 -0.6008
vn 0.5577 -0.8028 -0.2111
vn -0.8605 -0.1056 -0.4983
vn 0.0065 0.9466 0.3222
vn 0.0969 -0.8784 -0.4680
vn -0.7408 -0.4648 -0.4850
vn 0.7515 0.3308 0.5708
vn -0.3483 -0.8333 -0.4294
vn -0.6192 -0.6243 -0.4763
vn 0.2916 0.8022 0.5210
vn 0.8860 -0.4093 0.2177
vn -0.8755 0.4558 -0.1606
vn -0.5440 0.8314 0.1130
vn 0.1110 -0.9695 -0.2186
vn 0.4954 -0.8565 -0.1450
vn 0.8692 0.0451 0.4923
vn -0.9770 0.0450 -0.2086
vn -0.1324 0.8956 0.4246
vn -0.5984 -0.7732 -0.2099
vn 0.8227 -0.5581 0.1083
vn -0.8832 -0.3885 -0.2627
vn -0.6135 0.7587 0.2191
vn 0.5541 0.5614 0.6147
vn -0.9071 0.4108 0.0915
vn -0.7783 -0.6078 -0.1577
vn -0.9830 -0.1001 0.1538
vn 0.6079 0.3240 0.7249
vn 0.2669 0.7149 0.6462
vn -0.1852 -0.9809 0.0600
vn 0.6620 -0.6777 0.3200
vn 0.2938 -0.9552 0.0360
vn -0.8885 0.2149 0.4054
vn -0.6511 0.6341 0.4171
vn -0.2946 0.8081 0.5102
vn 0.8337 -0.1406 0.5341
vn -0.8934 -0.4088 0.1862
vn 0.7506 0.0928 0.6542
vn 0.4547 0.5384 0.7095
vn 0.0732 0.6515 0.7551
vn -0.5931 -0.7586 0.2697
vn -0.3156 0.6248 0.7142
vn 0.2690 -0.8588 0.4359
vn -0.6105 0.3317 0.7192
vn 0.3191 0.4952 0.8080
vn -0.0273 -0.6833 0.7297
vn 0.5254 -0.2633 0.8091
vn -0.7420 -0.4239 0.5194
vn -0.7312 -0.0963 0.6753
vn -0.3664 -0.3914 0.8441
vn -0.1354 0.2715 0.9529
vn 0.4718 0.1387 0.8708
vn 0.2658 0.3351 0.9039
vn 0.1324 -0.0152 0.9911
vn -0.2924 0.0103 0.9562
vn 0.1471 0.2075 0.9671
usemtl mtl1.1103
s 1
f 1//1 2//2 3//3
f 4//4 1//1 3//3
f 2//2 5//5 3//3
f 5//5 6//6 3//3
f 7//7 4//4 6//6
f 6//6 4//4 3//3
f 8//8 1//1 9//9
f 8//8 10//10 2//2
f 1//1 8//8 2//2
f 2//2 10//10 5//5
f 1//1 4//4 11//11
f 12//12 11//11 4//4
f 4//4 7//7 12//12
f 5//5 13//13 6//6
f 12//12 7//7 14//14
f 13//13 15//15 6//6
f 7//7 6//6 15//15
f 9//9 1//1 16//16
f 16//16 1//1 11//11
f 17//17 5//5 18//18
f 10//10 18//18 5//5
f 5//5 17//17 13//13
f 19//19 7//7 15//15
f 14//14 7//7 19//19
f 20//20 8//8 9//9
f 20//20 21//21 8//8
f 9//9 16//16 22//22
f 8//8 21//21 10//10
f 10//10 21//21 18//18
f 16//16 11//11 23//23
f 23//23 11//11 12//12
f 17//17 24//24 13//13
f 13//13 24//24 25//25
f 13//13 25//25 15//15
f 20//20 9//9 26//26
f 26//26 9//9 22//22
f 23//23 27//27 16//16
f 23//23 12//12 28//28
f 17//17 18//18 24//24
f 12//12 29//29 28//28
f 29//29 12//12 14//14
f 14//14 19//19 29//29
f 15//15 25//25 30//30
f 15//15 30//30 19//19
f 31//31 20//20 26//26
f 32//32 22//22 16//16
f 27//27 32//32 16//16
f 19//19 30//30 29//29
f 26//26 22//22 32//32
f 33//33 21//21 20//20
f 21//21 34//34 18//18
f 35//35 27//27 23//23
f 23//23 28//28 35//35
f 34//34 36//36 18//18
f 36//36 24//24 18//18
f 37//37 35//35 28//28
f 28//28 29//29 37//37
f 38//38 26//26 32//32
f 38//38 32//32 27//27
f 39//39 38//38 27//27
f 33//33 34//34 21//21
f 27//27 35//35 40//40
f 24//24 36//36 41//41
f 24//24 41//41 42//42
f 29//29 43//43 37//37
f 24//24 44//44 25//25
f 30//30 25//25 45//45
f 46//46 29//29 30//30
f 20//20 31//31 47//47
f 26//26 48//48 31//31
f 20//20 47//47 33//33
f 40//40 39//39 27//27
f 24//24 42//42 44//44
f 43//43 29//29 46//46
f 25//25 44//44 45//45
f 30//30 45//45 46//46
f 48//48 26//26 38//38
f 36//36 34//34 49//49
f 41//41 36//36 49//49
f 44//44 50//50 45//45
f 47//47 31//31 51//51
f 51//51 31//31 48//48
f 49//49 34//34 52//52
f 52//52 34//34 33//33
f 35//35 37//37 40//40
f 37//37 43//43 53//53
f 45//45 50//50 46//46
f 54//54 55//55 47//47
f 47//47 55//55 33//33
f 55//55 52//52 33//33
f 46//46 50//50 56//56
f 54//54 47//47 51//51
f 57//57 48//48 38//38
f 38//38 39//39 57//57
f 58//58 41//41 49//49
f 58//58 42//42 41//41
f 59//59 42//42 58//58
f 42//42 59//59 44//44
f 43//43 46//46 56//56
f 54//54 51//51 60//60
f 60//60 51//51 61//61
f 61//61 51//51 48//48
f 40//40 62//62 39//39
f 37//37 62//62 40//40
f 37//37 53//53 62//62
f 58//58 49//49 63//63
f 44//44 59//59 64//64
f 44//44 64//64 50//50
f 50//50 64//64 56//56
f 54//54 65//65 55//55
f 66//66 61//61 48//48
f 48//48 57//57 66//66
f 62//62 57//57 39//39
f 52//52 67//67 49//49
f 67//67 63//63 49//49
f 58//58 68//68 59//59
f 43//43 69//69 53//53
f 58//58 70//70 68//68
f 69//69 43//43 56//56
f 59//59 68//68 64//64
f 52//52 55//55 71//71
f 71//71 55//55 65//65
f 67//67 72//72 63//63
f 72//72 70//70 63//63
f 70//70 58//58 63//63
f 53//53 73//73 62//62
f 53//53 69//69 73//73
f 69//69 56//56 74//74
f 74//74 56//56 64//64
f 54//54 75//75 65//65
f 75//75 54//54 60//60
f 76//76 77//77 61//61
f 61//61 66//66 76//76
f 52//52 71//71 67//67
f 78//78 79//79 70//70
f 70//70 79//79 68//68
f 80//80 68//68 79//79
f 68//68 80//80 64//64
f 75//75 60//60 77//77
f 60//60 61//61 77//77
f 66//66 81//81 76//76
f 66//66 57//57 81//81
f 67//67 71//71 82//82
f 67//67 82//82 72//72
f 73//73 83//83 62//62
f 73//73 69//69 84//84
f 69//69 74//74 84//84
f 80//80 85//85 64//64
f 64//64 85//85 74//74
f 65//65 75//75 86//86
f 71//71 65//65 86//86
f 81//81 57//57 62//62
f 72//72 78//78 70//70
f 80//80 79//79 87//87
f 76//76 88//88 77//77
f 81//81 62//62 83//83
f 89//89 79//79 78//78
f 79//79 89//89 87//87
f 80//80 87//87 85//85
f 85//85 90//90 74//74
f 84//84 74//74 90//90
f 75//75 91//91 86//86
f 88//88 91//91 75//75
f 77//77 88//88 75//75
f 92//92 88//88 76//76
f 71//71 86//86 93//93
f 81//81 92//92 76//76
f 71//71 93//93 82//82
f 82//82 94//94 72//72
f 72//72 94//94 78//78
f 94//94 89//89 78//78
f 95//95 86//86 91//91
f 86//86 95//95 93//93
f 82//82 93//93 94//94
f 73//73 84//84 90//90
f 89//89 96//96 87//87
f 96//96 85//85 87//87
f 88//88 92//92 91//91
f 97//97 92//92 81//81
f 81//81 83//83 97//97
f 83//83 73//73 97//97
f 94//94 96//96 89//89
f 97//97 73//73 98//98
f 73//73 90//90 98//98
f 98//98 85//85 96//96
f 90//90 85//85 98//98
f 95//95 91//91 99//99
f 99//99 91//91 92//92
f 95//95 100//100 93//93
f 92//92 97//97 99//99
f 93//93 100//100 94//94
f 96//96 94//94 100//100
f 101//101 96//96 100//100
f 101//101 98//98 96//96
f 99//99 100//100 95//95
f 99//99 101//101 100//100
f 97//97 98//98 101//101
f 99//99 97//97 101//101
