# Blender v2.92.0 OBJ File: 'convert_to_one_sided.blend'
# www.blender.org
mtllib 268L.mtl
o Cube
v 0.001000 0.001000 -0.001000
v 0.001000 -0.001000 -0.001000
v 0.001000 0.001000 0.001000
v 0.001000 -0.001000 0.001000
v -0.001000 0.001000 -0.001000
v -0.001000 -0.001000 -0.001000
v -0.001000 0.001000 0.001000
v -0.001000 -0.001000 0.001000
vt 0.625000 0.500000
vt 0.875000 0.500000
vt 0.875000 0.750000
vt 0.625000 0.750000
vt 0.375000 0.750000
vt 0.625000 1.000000
vt 0.375000 1.000000
vt 0.375000 0.000000
vt 0.625000 0.000000
vt 0.625000 0.250000
vt 0.375000 0.250000
vt 0.125000 0.500000
vt 0.375000 0.500000
vt 0.125000 0.750000
vn 0.0000 1.0000 0.0000
vn 0.0000 0.0000 1.0000
vn -1.0000 0.0000 0.0000
vn 0.0000 -1.0000 0.0000
vn 1.0000 0.0000 0.0000
vn 0.0000 0.0000 -1.0000
usemtl Material
s off
f 1/1/1 5/2/1 7/3/1 3/4/1
f 4/5/2 3/4/2 7/6/2 8/7/2
f 8/8/3 7/9/3 5/10/3 6/11/3
f 6/12/4 2/13/4 4/5/4 8/14/4
f 2/13/5 1/1/5 3/4/5 4/5/5
f 6/11/6 5/10/6 1/1/6 2/13/6
o 268
v 6.129261 6.818992 3.338998
v 6.037582 6.812252 3.335218
v 6.069201 6.872181 3.329238
v 6.001472 6.847231 3.337278
v 6.151151 6.906071 3.353468
v 6.014633 6.914940 3.343498
v 6.084281 6.920000 3.344058
v 6.049922 6.764903 3.371948
v 5.968253 6.810912 3.368618
v 6.148961 6.781762 3.362628
v 6.180930 6.800292 3.362138
v 5.935234 6.864001 3.376378
v 6.210730 6.838932 3.386818
v 5.926764 6.940890 3.399078
v 6.021122 6.978960 3.373768
v 6.100321 6.967280 3.375358
v 6.070572 6.702963 3.477287
v 6.144371 6.733863 3.422127
v 5.897564 6.822522 3.421087
v 6.206220 6.767683 3.420237
v 6.222260 6.910621 3.400897
v 6.191610 6.972410 3.426907
v 5.969423 7.003619 3.417477
v 6.052392 7.008659 3.404907
v 5.984303 6.731293 3.463146
v 6.204130 6.711823 3.481817
v 5.936644 6.779622 3.437517
v 5.868885 6.871631 3.454357
v 6.260210 6.878361 3.438747
v 5.903474 6.976019 3.438417
v 6.112361 7.017519 3.433767
v 6.163861 6.675394 3.564195
v 6.268059 6.805192 3.481776
v 5.858875 6.940680 3.490486
v 6.248049 6.929881 3.453467
v 5.893864 6.994410 3.493066
v 6.032432 7.034439 3.453777
v 6.250679 6.730033 3.523936
v 5.947963 7.027799 3.502656
v 6.007023 6.693974 3.553826
v 5.939274 6.730163 3.550125
v 5.870194 6.798682 3.540855
v 6.238989 6.973240 3.500846
v 6.163980 7.021389 3.496756
v 6.026472 7.050889 3.531236
v 6.091971 7.036989 3.495976
v 6.279109 6.887411 3.522056
v 5.831455 6.877391 3.553306
v 6.289899 6.757312 3.575725
v 6.077612 6.666084 3.618594
v 6.225190 6.690743 3.570105
v 5.822695 6.922690 3.582675
v 6.266259 6.941290 3.591155
v 5.847954 6.965760 3.571035
v 5.893954 7.006779 3.580845
v 6.092142 7.044409 3.557405
v 5.920104 6.725183 3.659804
v 6.295239 6.811682 3.574775
v 5.954093 7.032969 3.593855
v 6.178601 7.002949 3.590975
v 6.017383 7.042949 3.601965
v 6.209760 6.667874 3.635994
v 6.256259 6.709423 3.626674
v 5.830135 6.829041 3.623615
v 6.292449 6.855241 3.620515
v 6.149321 6.661544 3.677154
v 6.280519 6.764553 3.649974
v 5.864804 6.783122 3.670314
v 5.821865 6.885381 3.633134
v 6.277809 6.895020 3.662314
v 6.233140 6.948670 3.662074
v 5.860734 6.968120 3.656814
v 5.998063 6.688323 3.645684
v 5.836915 6.933580 3.629964
v 6.061612 7.021499 3.655564
v 6.253139 6.710373 3.687894
v 5.848804 6.840911 3.706093
v 5.915884 7.000319 3.665384
v 6.151680 6.980900 3.695554
v 5.980973 7.019919 3.650464
v 5.979793 6.696904 3.731883
v 5.854784 6.909350 3.692184
v 6.063052 6.676094 3.708263
v 6.211690 6.688463 3.691644
v 6.271850 6.822442 3.698214
v 6.246540 6.884141 3.718623
v 6.191330 6.926661 3.741563
v 5.917314 6.740363 3.721843
v 6.227820 6.737263 3.724833
v 5.891064 6.780572 3.735183
v 5.897694 6.948520 3.719653
v 5.976233 6.988709 3.704883
v 6.044932 6.969900 3.741663
v 6.135531 6.695384 3.746423
v 5.907584 6.791362 3.769983
v 5.908974 6.864151 3.761473
v 6.116141 6.936270 3.770602
v 5.967343 6.737903 3.772413
v 6.213250 6.796142 3.768842
v 6.186990 6.872891 3.778903
v 5.965703 6.926370 3.762393
v 6.042852 6.704913 3.757413
v 6.162611 6.739153 3.780143
v 6.154820 6.909270 3.778453
v 6.047702 6.898531 3.804422
v 6.070931 6.744812 3.801652
v 5.970413 6.796682 3.796312
v 6.146051 6.775522 3.804312
v 6.143471 6.829952 3.812452
v 5.991493 6.849831 3.804692
v 6.124181 6.883241 3.798252
v 6.034153 6.802262 3.821252
v 6.087562 6.807822 3.822962
v 6.088282 6.851151 3.818132
v 6.050542 6.841201 3.813772
vn 0.2417 -0.2139 -0.9465
vn -0.1445 -0.3701 -0.9177
vn 0.0333 0.0942 -0.9950
vn -0.3453 -0.0710 -0.9358
vn 0.3766 0.2959 -0.8778
vn -0.2199 0.3253 -0.9197
vn 0.0891 0.4012 -0.9117
vn -0.1550 -0.7369 -0.6580
vn -0.4785 -0.4929 -0.7267
vn 0.2351 -0.6486 -0.7239
vn 0.5274 -0.3406 -0.7783
vn -0.6173 -0.0080 -0.7867
vn 0.6783 -0.0831 -0.7300
vn -0.5994 0.3137 -0.7364
vn -0.1592 0.5813 -0.7980
vn 0.1869 0.5966 -0.7805
vn -0.1004 -0.9250 -0.3665
vn 0.1643 -0.8340 -0.5267
vn -0.7325 -0.4219 -0.5343
vn 0.6106 -0.5529 -0.5670
vn 0.6597 0.3116 -0.6839
vn 0.5032 0.6619 -0.5556
vn -0.3411 0.7692 -0.5403
vn 0.0247 0.7966 -0.6040
vn -0.3874 -0.8358 -0.3891
vn 0.4008 -0.8048 -0.4378
vn -0.5463 -0.7181 -0.4311
vn -0.8688 -0.0690 -0.4904
vn 0.8793 0.0795 -0.4695
vn -0.6596 0.5330 -0.5298
vn 0.2401 0.8585 -0.4530
vn 0.1036 -0.9605 -0.2582
vn 0.8837 -0.2250 -0.4104
vn -0.8691 0.2893 -0.4012
vn 0.8093 0.4414 -0.3876
vn -0.6266 0.7336 -0.2631
vn -0.0474 0.9421 -0.3319
vn 0.7208 -0.6006 -0.3460
vn -0.3513 0.9183 -0.1823
vn -0.3259 -0.9240 -0.2002
vn -0.5526 -0.8077 -0.2056
vn -0.7826 -0.5774 -0.2328
vn 0.7232 0.6727 -0.1563
vn 0.3979 0.9043 -0.1547
vn -0.0588 0.9964 -0.0612
vn 0.1614 0.9695 -0.1847
vn 0.9610 0.2171 -0.1715
vn -0.9556 -0.1489 -0.2542
vn 0.9210 -0.3709 -0.1194
vn -0.1426 -0.9857 -0.0892
vn 0.5071 -0.8296 -0.2337
vn -0.9642 0.2525 -0.0807
vn 0.8236 0.5618 0.0781
vn -0.8028 0.5938 -0.0537
vn -0.5383 0.8419 0.0369
vn 0.2125 0.9723 0.0976
vn -0.6074 -0.7944 -0.0085
vn 0.9965 -0.0304 -0.0776
vn -0.2792 0.9501 0.1389
vn 0.4548 0.8692 0.1939
vn -0.0411 0.9706 0.2371
vn 0.4082 -0.9128 0.0147
vn 0.7398 -0.6727 0.0096
vn -0.9310 -0.3649 0.0046
vn 0.9879 0.1170 0.1018
vn 0.0905 -0.9783 0.1864
vn 0.9412 -0.2151 0.2606
vn -0.7980 -0.5871 0.1361
vn -0.9821 0.0562 0.1800
vn 0.8713 0.3602 0.3333
vn 0.6101 0.6992 0.3729
vn -0.7207 0.6145 0.3210
vn -0.3544 -0.9347 -0.0273
vn -0.8894 0.3904 0.2379
vn 0.1107 0.9084 0.4031
vn 0.7410 -0.5470 0.3896
vn -0.8712 -0.1367 0.4714
vn -0.3576 0.8468 0.3937
vn 0.3150 0.8294 0.4613
vn -0.1293 0.9074 0.4000
vn -0.3636 -0.8714 0.3294
vn -0.8051 0.2769 0.5246
vn -0.1223 -0.9530 0.2773
vn 0.4456 -0.7901 0.4209
vn 0.8821 -0.0371 0.4696
vn 0.7231 0.3359 0.6036
vn 0.4956 0.6129 0.6154
vn -0.6474 -0.6823 0.3396
vn 0.6454 -0.4258 0.6342
vn -0.7321 -0.5141 0.4469
vn -0.4860 0.5510 0.6784
vn -0.1560 0.7909 0.5917
vn -0.0131 0.7623 0.6471
vn 0.1859 -0.7832 0.5933
vn -0.6122 -0.2367 0.7545
vn -0.5477 0.1993 0.8126
vn 0.1950 0.6533 0.7316
vn -0.3952 -0.5919 0.7024
vn 0.6438 -0.1028 0.7583
vn 0.5150 0.2996 0.8031
vn -0.2869 0.5245 0.8016
vn -0.0945 -0.7874 0.6091
vn 0.3868 -0.5218 0.7604
vn 0.3423 0.4893 0.8021
vn -0.0650 0.4263 0.9022
vn -0.0324 -0.5181 0.8547
vn -0.3578 -0.1768 0.9169
vn 0.3111 -0.2790 0.9085
vn 0.3389 0.1050 0.9350
vn -0.3024 0.1931 0.9334
vn 0.2253 0.3876 0.8939
vn -0.1719 -0.0770 0.9821
vn 0.0518 -0.0663 0.9965
vn 0.0480 0.2202 0.9743
vn -0.1166 0.1686 0.9788
usemtl mtl1.254
s 1
f 9//7 10//8 11//9
f 11//9 10//8 12//10
f 9//7 11//9 13//11
f 11//9 12//10 14//12
f 13//11 11//9 15//13
f 15//13 11//9 14//12
f 16//14 17//15 10//8
f 9//7 16//14 10//8
f 18//16 16//14 9//7
f 10//8 17//15 12//10
f 9//7 19//17 18//16
f 17//15 20//18 12//10
f 19//17 9//7 21//19
f 13//11 21//19 9//7
f 12//10 20//18 14//12
f 14//12 20//18 22//20
f 22//20 23//21 14//12
f 14//12 24//22 15//13
f 24//22 13//11 15//13
f 24//22 14//12 23//21
f 25//23 16//14 26//24
f 26//24 16//14 18//16
f 17//15 27//25 20//18
f 18//16 19//17 28//26
f 21//19 13//11 29//27
f 13//11 24//22 30//28
f 22//20 31//29 23//21
f 32//30 24//22 23//21
f 16//14 25//23 33//31
f 26//24 28//26 34//32
f 26//24 18//16 28//26
f 17//15 35//33 27//25
f 28//26 19//17 21//19
f 36//34 20//18 27//25
f 22//20 20//18 36//34
f 21//19 29//27 37//35
f 29//27 13//11 30//28
f 22//20 38//36 31//29
f 31//29 32//30 23//21
f 30//28 24//22 39//37
f 26//24 40//38 25//23
f 35//33 16//14 33//31
f 16//14 35//33 17//15
f 21//19 41//39 28//26
f 41//39 21//19 37//35
f 42//40 22//20 36//34
f 37//35 29//27 43//41
f 38//36 22//20 42//40
f 29//27 30//28 43//41
f 31//29 38//36 44//42
f 24//22 32//30 39//37
f 32//30 31//29 45//43
f 32//30 45//43 39//37
f 26//24 34//32 40//38
f 28//26 46//44 34//32
f 46//44 28//26 41//39
f 31//29 44//42 47//45
f 31//29 47//45 45//43
f 33//31 25//23 48//46
f 49//47 35//33 33//31
f 27//25 35//33 50//48
f 38//36 42//40 44//42
f 43//41 30//28 51//49
f 52//50 30//28 39//37
f 52//50 51//49 30//28
f 45//43 47//45 53//51
f 45//43 53//51 54//52
f 39//37 45//43 54//52
f 35//33 49//47 50//48
f 27//25 50//48 36//34
f 41//39 37//35 55//53
f 36//34 50//48 56//54
f 37//35 43//41 55//53
f 43//41 51//49 55//53
f 52//50 39//37 54//52
f 49//47 33//31 48//46
f 46//44 41//39 57//55
f 56//54 42//40 36//34
f 58//56 25//23 40//38
f 58//56 48//46 25//23
f 40//38 34//32 59//57
f 34//32 46//44 59//57
f 60//58 42//40 56//54
f 61//59 55//53 51//49
f 62//60 44//42 42//40
f 44//42 62//60 63//61
f 44//42 63//61 47//45
f 52//50 54//52 64//62
f 50//48 49//47 65//63
f 57//55 41//39 66//64
f 66//64 41//39 55//53
f 62//60 42//40 60//58
f 47//45 63//61 67//65
f 68//66 51//49 52//50
f 47//45 67//65 53//51
f 53//51 69//67 64//62
f 54//52 53//51 64//62
f 68//66 52//50 64//62
f 59//57 70//68 40//38
f 71//69 46//44 57//55
f 72//70 56//54 50//48
f 66//64 55//53 73//71
f 51//49 68//66 61//59
f 58//56 40//38 74//72
f 46//44 71//69 59//57
f 75//73 71//69 57//55
f 76//74 50//48 65//63
f 57//55 66//64 75//73
f 50//48 76//74 72//70
f 72//70 77//75 56//54
f 56//54 77//75 60//58
f 55//53 61//59 73//71
f 73//71 61//59 78//76
f 61//59 68//66 79//77
f 62//60 80//78 63//61
f 53//51 67//65 69//67
f 40//38 70//68 74//72
f 48//46 58//56 81//79
f 81//79 65//63 49//47
f 48//46 81//79 49//47
f 75//73 66//64 73//71
f 77//75 82//80 60//58
f 60//58 82//80 62//60
f 80//78 62//60 82//80
f 69//67 83//81 64//62
f 64//62 83//81 68//66
f 70//68 59//57 71//69
f 71//69 75//73 84//82
f 76//74 85//83 72//70
f 85//83 77//75 72//70
f 78//76 61//59 79//77
f 63//61 80//78 86//84
f 87//85 79//77 68//66
f 63//61 86//84 67//65
f 67//65 86//84 88//86
f 83//81 87//85 68//66
f 67//65 88//86 69//67
f 81//79 89//87 65//63
f 80//78 82//80 90//88
f 83//81 69//67 88//86
f 58//56 91//89 81//79
f 74//72 91//89 58//56
f 92//90 74//72 70//68
f 71//69 92//90 70//68
f 71//69 84//82 92//90
f 75//73 73//71 93//91
f 82//80 77//75 90//88
f 79//77 94//92 78//76
f 79//77 87//85 95//93
f 96//94 65//63 89//87
f 65//63 96//94 76//74
f 84//82 75//73 97//95
f 76//74 98//96 85//83
f 73//71 78//76 93//91
f 78//76 94//92 93//91
f 79//77 95//93 94//92
f 80//78 90//88 99//97
f 80//78 99//97 86//84
f 88//86 100//98 83//81
f 100//98 101//99 83//81
f 87//85 83//81 101//99
f 74//72 102//100 91//89
f 74//72 92//90 102//100
f 91//89 89//87 81//79
f 92//90 84//82 97//95
f 98//96 76//74 96//94
f 75//73 93//91 97//95
f 85//83 98//96 103//101
f 85//83 90//88 77//75
f 104//102 85//83 103//101
f 90//88 85//83 104//102
f 99//97 100//98 86//84
f 101//99 105//103 87//85
f 95//93 87//85 105//103
f 100//98 88//86 86//84
f 89//87 106//104 96//94
f 97//95 93//91 107//105
f 93//91 94//92 107//105
f 108//106 94//92 95//93
f 99//97 109//107 100//98
f 91//89 110//108 89//87
f 102//100 110//108 91//89
f 89//87 110//108 106//104
f 97//95 111//109 102//100
f 97//95 102//100 92//90
f 107//105 94//92 108//106
f 95//93 112//110 108//106
f 90//88 104//102 99//97
f 112//110 95//93 105//103
f 109//107 101//99 100//98
f 96//94 106//104 98//96
f 111//109 97//95 107//105
f 98//96 106//104 103//101
f 109//107 99//97 104//102
f 113//111 105//103 101//99
f 101//99 109//107 113//111
f 110//108 114//112 106//104
f 110//108 102//100 114//112
f 114//112 102//100 111//109
f 106//104 114//112 115//113
f 111//109 116//114 114//112
f 111//109 107//105 116//114
f 103//101 106//104 115//113
f 116//114 107//105 117//115
f 103//101 115//113 104//102
f 118//116 104//102 115//113
f 107//105 108//106 117//115
f 117//115 108//106 119//117
f 118//116 109//107 104//102
f 108//106 112//110 119//117
f 113//111 109//107 118//116
f 112//110 105//103 119//117
f 119//117 105//103 113//111
f 114//112 120//118 115//113
f 121//119 120//118 114//112
f 116//114 121//119 114//112
f 116//114 117//115 121//119
f 118//116 115//113 120//118
f 117//115 122//120 121//119
f 123//121 118//116 120//118
f 117//115 119//117 122//120
f 122//120 113//111 123//121
f 123//121 113//111 118//116
f 119//117 113//111 122//120
f 121//119 123//121 120//118
f 121//119 122//120 123//121
