# Blender v2.92.0 OBJ File: 'convert_to_one_sided.blend'
# www.blender.org
mtllib 271L.mtl
o 271
v 9.726485 3.532624 3.605924
v 9.695715 3.519944 3.613104
v 9.654526 3.593133 3.593264
v 9.614766 3.566574 3.609564
v 9.694135 3.602043 3.601664
v 9.730675 3.570044 3.625024
v 9.567407 3.627753 3.604304
v 9.590587 3.660793 3.598084
v 9.585067 3.705972 3.616094
v 9.695095 3.635853 3.635304
v 9.525198 3.689532 3.612714
v 9.606127 3.529894 3.653913
v 9.720135 3.510424 3.635334
v 9.504618 3.612893 3.646044
v 9.445998 3.691632 3.637454
v 9.425669 3.772271 3.639414
v 9.640116 3.715642 3.653224
v 9.690986 3.504484 3.669203
v 9.725015 3.535744 3.663843
v 9.722754 3.594953 3.684963
v 9.363919 3.697812 3.680973
v 9.683385 3.676492 3.697443
v 9.360509 3.760611 3.657144
v 9.327649 3.827010 3.664093
v 9.419699 3.849680 3.667464
v 9.534118 3.814090 3.683273
v 9.368580 3.839250 3.662633
v 9.587836 3.794410 3.732533
v 9.285060 3.808460 3.694373
v 9.319790 3.882099 3.686973
v 9.591646 3.516864 3.713493
v 9.702265 3.512004 3.714183
v 9.469658 3.593973 3.708413
v 9.529318 3.849600 3.734273
v 9.264291 3.883299 3.709913
v 9.393599 3.916739 3.729443
v 9.328720 3.919789 3.716203
v 9.656925 3.504994 3.726082
v 9.351530 3.668912 3.745592
v 9.264470 3.785851 3.749652
v 9.231172 3.877949 3.746773
v 9.452058 3.908289 3.777432
v 9.264621 3.938059 3.740592
v 9.485278 3.566093 3.784882
v 9.421938 3.609783 3.764532
v 9.699705 3.560903 3.750202
v 9.682885 3.647272 3.763662
v 9.619885 3.749781 3.788442
v 9.229382 3.928119 3.759392
v 9.586146 3.528424 3.778672
v 9.648836 3.533414 3.778452
v 9.294571 3.726681 3.794932
v 9.529267 3.857190 3.843221
v 9.500528 3.877599 3.798502
v 9.208332 3.932759 3.789752
v 9.294770 3.964718 3.775432
v 9.372999 3.655132 3.813282
v 9.246521 3.803170 3.824101
v 9.222582 3.883269 3.804472
v 9.231631 3.958708 3.804752
v 9.354259 3.965898 3.822361
v 9.569937 3.575693 3.858371
v 9.515687 3.581873 3.847791
v 9.648556 3.580863 3.823731
v 9.622386 3.715401 3.838931
v 9.308880 3.723901 3.840221
v 9.216392 3.940689 3.843411
v 9.278541 3.976598 3.862961
v 9.610256 3.588793 3.852381
v 9.443688 3.637512 3.876651
v 9.623656 3.657782 3.851271
v 9.555537 3.806540 3.886391
v 9.256452 3.881669 3.894871
v 9.364180 3.710752 3.897430
v 9.435919 3.928919 3.870581
v 9.237811 3.959758 3.856131
v 9.353610 3.968318 3.897571
v 9.591146 3.626013 3.882421
v 9.303510 3.790840 3.900671
v 9.576766 3.603013 3.878481
v 9.550097 3.764401 3.925620
v 9.279900 3.950678 3.914610
v 9.326710 3.964258 3.931110
v 9.505298 3.650942 3.917380
v 9.560027 3.633223 3.896260
v 9.543397 3.684632 3.921530
v 9.483047 3.881299 3.936510
v 9.347179 3.790771 3.960100
v 9.520308 3.823370 3.937460
v 9.320550 3.847440 3.962740
v 9.393950 3.935118 3.955310
v 9.430529 3.750151 3.970740
v 9.484338 3.833380 3.983060
v 9.346649 3.939358 3.970050
v 9.490668 3.711552 3.953170
v 9.492618 3.759231 3.962690
v 9.443779 3.886559 3.990029
v 9.340530 3.898359 3.978960
v 9.376699 3.832620 3.993529
v 9.426719 3.829120 4.014729
v 9.455968 3.810610 3.993389
v 9.436769 3.861260 4.009679
v 9.395450 3.900449 3.990319
v 9.397499 3.863240 3.996919
vn 0.6668 -0.2677 -0.6955
vn -0.0964 -0.7329 -0.6734
vn 0.0265 -0.0454 -0.9986
vn -0.3342 -0.4774 -0.8126
vn 0.4909 0.3475 -0.7989
vn 0.9387 0.2234 -0.2624
vn -0.2985 -0.2086 -0.9313
vn -0.0255 0.1675 -0.9856
vn 0.2319 0.4518 -0.8614
vn 0.7368 0.5354 -0.4129
vn -0.1816 0.1058 -0.9777
vn -0.3933 -0.8042 -0.4456
vn 0.5474 -0.8260 -0.1346
vn -0.4827 -0.5472 -0.6838
vn -0.3747 -0.2264 -0.8991
vn -0.1334 0.1591 -0.9782
vn 0.6120 0.6409 -0.4634
vn 0.1354 -0.9889 -0.0607
vn 0.9276 -0.3361 0.1630
vn 0.9619 0.2388 0.1329
vn -0.6029 -0.5107 -0.6130
vn 0.8408 0.5411 -0.0154
vn -0.4226 -0.1811 -0.8880
vn -0.3425 0.1256 -0.9311
vn 0.1215 0.5539 -0.8237
vn 0.4305 0.7172 -0.5481
vn -0.0645 0.3557 -0.9324
vn 0.7054 0.6961 -0.1336
vn -0.6863 -0.2249 -0.6916
vn -0.1606 0.4822 -0.8612
vn -0.3312 -0.9392 -0.0901
vn 0.5947 -0.7264 0.3445
vn -0.5392 -0.7692 -0.3431
vn 0.5657 0.7788 -0.2710
vn -0.5658 0.2236 -0.7937
vn 0.2907 0.8158 -0.5000
vn 0.0470 0.7223 -0.6900
vn 0.0426 -0.9675 0.2493
vn -0.6873 -0.6972 -0.2037
vn -0.8517 -0.4463 -0.2744
vn -0.8810 -0.1264 -0.4558
vn 0.4628 0.8474 -0.2601
vn -0.3016 0.6796 -0.6687
vn -0.4774 -0.8652 0.1535
vn -0.5913 -0.8034 -0.0697
vn 0.8487 -0.1619 0.5035
vn 0.8860 0.2837 0.3668
vn 0.8228 0.5400 0.1775
vn -0.6609 0.4426 -0.6060
vn -0.1500 -0.9176 0.3682
vn 0.3499 -0.7187 0.6009
vn -0.7755 -0.6306 0.0291
vn 0.7148 0.6944 0.0828
vn 0.6141 0.7867 -0.0636
vn -0.9479 0.2292 -0.2212
vn 0.0014 0.9239 -0.3825
vn -0.6185 -0.7504 0.2329
vn -0.8757 -0.4257 0.2278
vn -0.9595 -0.2714 0.0748
vn -0.5176 0.8298 -0.2086
vn 0.2911 0.9428 -0.1625
vn 0.0485 -0.7116 0.7009
vn -0.2876 -0.7996 0.5272
vn 0.6417 -0.3229 0.6957
vn 0.8406 0.3145 0.4410
vn -0.7054 -0.6095 0.3619
vn -0.9054 0.2602 0.3356
vn -0.1713 0.9791 0.1097
vn 0.3953 -0.5477 0.7374
vn -0.4255 -0.7175 0.5515
vn 0.7620 0.0447 0.6460
vn 0.8129 0.4718 0.3414
vn -0.8160 -0.1482 0.5587
vn -0.5518 -0.6306 0.5458
vn 0.5315 0.8463 0.0366
vn -0.5867 0.7582 0.2847
vn 0.2679 0.9552 0.1258
vn 0.5043 -0.2524 0.8258
vn -0.7313 -0.4429 0.5187
vn 0.2417 -0.4996 0.8318
vn 0.7354 0.1116 0.6684
vn -0.5977 0.4899 0.6346
vn -0.0654 0.9008 0.4294
vn -0.0323 -0.5770 0.8161
vn 0.1803 -0.4335 0.8829
vn 0.4545 -0.2181 0.8637
vn 0.6875 0.6476 0.3285
vn -0.5452 -0.4639 0.6983
vn 0.7840 0.3982 0.4763
vn -0.6665 -0.2141 0.7141
vn 0.3610 0.8269 0.4312
vn -0.1449 -0.5035 0.8517
vn 0.6533 0.1802 0.7354
vn -0.1588 0.6116 0.7751
vn 0.2009 -0.3474 0.9160
vn 0.3952 -0.2057 0.8953
vn 0.4685 0.6066 0.6423
vn -0.4691 0.1225 0.8746
vn -0.4024 -0.1850 0.8966
vn -0.0407 -0.1382 0.9896
vn 0.3862 -0.2438 0.8896
vn 0.2233 0.2174 0.9502
vn -0.0046 0.4545 0.8907
vn -0.2682 0.1583 0.9503
usemtl mtl1.1108
s 1
f 1//1 2//2 3//3
f 2//2 4//4 3//3
f 5//5 1//1 3//3
f 6//6 1//1 5//5
f 4//4 7//7 3//3
f 3//3 7//7 8//8
f 3//3 8//8 9//9
f 5//5 3//3 9//9
f 9//9 10//10 5//5
f 8//8 7//7 11//11
f 9//9 8//8 11//11
f 4//4 2//2 12//12
f 2//2 1//1 13//13
f 12//12 14//14 4//4
f 4//4 14//14 7//7
f 5//5 10//10 6//6
f 7//7 14//14 15//15
f 7//7 15//15 11//11
f 11//11 15//15 16//16
f 17//17 10//10 9//9
f 9//9 11//11 16//16
f 12//12 2//2 18//18
f 2//2 13//13 18//18
f 19//19 13//13 1//1
f 1//1 6//6 19//19
f 6//6 10//10 20//20
f 14//14 21//21 15//15
f 20//20 10//10 22//22
f 10//10 17//17 22//22
f 15//15 23//23 16//16
f 16//16 23//23 24//24
f 16//16 25//25 9//9
f 25//25 26//26 9//9
f 9//9 26//26 17//17
f 27//27 16//16 24//24
f 16//16 27//27 25//25
f 19//19 6//6 20//20
f 21//21 23//23 15//15
f 17//17 28//28 22//22
f 23//23 29//29 24//24
f 28//28 17//17 26//26
f 27//27 24//24 30//30
f 30//30 25//25 27//27
f 31//31 12//12 18//18
f 18//18 13//13 19//19
f 32//32 18//18 19//19
f 33//33 12//12 31//31
f 33//33 14//14 12//12
f 14//14 33//33 21//21
f 23//23 21//21 29//29
f 26//26 34//34 28//28
f 29//29 35//35 24//24
f 24//24 35//35 30//30
f 26//26 25//25 36//36
f 25//25 30//30 37//37
f 31//31 18//18 38//38
f 33//33 39//39 21//21
f 21//21 40//40 29//29
f 29//29 40//40 41//41
f 35//35 29//29 41//41
f 34//34 26//26 42//42
f 42//42 26//26 36//36
f 35//35 43//43 30//30
f 36//36 25//25 37//37
f 37//37 30//30 43//43
f 18//18 32//32 38//38
f 33//33 31//31 44//44
f 44//44 45//45 33//33
f 19//19 20//20 46//46
f 39//39 33//33 45//45
f 22//22 47//47 20//20
f 28//28 48//48 22//22
f 21//21 39//39 40//40
f 41//41 49//49 35//35
f 35//35 49//49 43//43
f 31//31 38//38 50//50
f 32//32 51//51 38//38
f 31//31 50//50 44//44
f 32//32 46//46 51//51
f 46//46 32//32 19//19
f 46//46 20//20 47//47
f 39//39 52//52 40//40
f 48//48 28//28 53//53
f 54//54 28//28 34//34
f 34//34 42//42 54//54
f 55//55 49//49 41//41
f 43//43 56//56 37//37
f 36//36 37//37 56//56
f 38//38 51//51 50//50
f 45//45 44//44 57//57
f 39//39 57//57 52//52
f 22//22 48//48 47//47
f 58//58 40//40 52//52
f 41//41 40//40 59//59
f 53//53 28//28 54//54
f 59//59 55//55 41//41
f 49//49 60//60 43//43
f 43//43 60//60 56//56
f 56//56 61//61 36//36
f 42//42 36//36 61//61
f 51//51 62//62 50//50
f 44//44 50//50 63//63
f 51//51 46//46 64//64
f 39//39 45//45 57//57
f 47//47 48//48 65//65
f 52//52 66//66 58//58
f 40//40 58//58 59//59
f 55//55 67//67 60//60
f 49//49 55//55 60//60
f 68//68 56//56 60//60
f 61//61 56//56 68//68
f 51//51 69//69 62//62
f 62//62 63//63 50//50
f 51//51 64//64 69//69
f 44//44 63//63 70//70
f 71//71 64//64 46//46
f 71//71 46//46 47//47
f 52//52 57//57 66//66
f 48//48 53//53 72//72
f 58//58 73//73 59//59
f 59//59 67//67 55//55
f 70//70 57//57 44//44
f 66//66 57//57 74//74
f 47//47 65//65 71//71
f 65//65 48//48 72//72
f 73//73 67//67 59//59
f 75//75 54//54 42//42
f 42//42 61//61 75//75
f 60//60 76//76 68//68
f 60//60 67//67 76//76
f 61//61 77//77 75//75
f 61//61 68//68 77//77
f 78//78 64//64 71//71
f 74//74 57//57 70//70
f 79//79 58//58 66//66
f 73//73 58//58 79//79
f 62//62 69//69 80//80
f 69//69 78//78 80//80
f 78//78 69//69 64//64
f 81//81 71//71 65//65
f 74//74 79//79 66//66
f 65//65 72//72 81//81
f 67//67 73//73 82//82
f 76//76 67//67 82//82
f 75//75 53//53 54//54
f 68//68 82//82 83//83
f 76//76 82//82 68//68
f 68//68 83//83 77//77
f 63//63 62//62 84//84
f 84//84 62//62 85//85
f 85//85 62//62 80//80
f 84//84 70//70 63//63
f 71//71 81//81 86//86
f 78//78 71//71 86//86
f 72//72 53//53 87//87
f 85//85 80//80 78//78
f 74//74 88//88 79//79
f 81//81 72//72 89//89
f 79//79 90//90 73//73
f 87//87 89//89 72//72
f 53//53 75//75 87//87
f 77//77 83//83 91//91
f 75//75 77//77 91//91
f 92//92 70//70 84//84
f 85//85 86//86 84//84
f 85//85 78//78 86//86
f 70//70 92//92 74//74
f 74//74 92//92 88//88
f 79//79 88//88 90//90
f 89//89 93//93 81//81
f 75//75 91//91 87//87
f 82//82 94//94 83//83
f 92//92 84//84 95//95
f 84//84 86//86 95//95
f 86//86 96//96 95//95
f 81//81 93//93 96//96
f 81//81 96//96 86//86
f 87//87 97//97 93//93
f 87//87 93//93 89//89
f 90//90 98//98 73//73
f 73//73 98//98 82//82
f 94//94 82//82 98//98
f 97//97 87//87 91//91
f 94//94 91//91 83//83
f 95//95 96//96 92//92
f 88//88 99//99 90//90
f 92//92 99//99 88//88
f 99//99 92//92 100//100
f 96//96 101//101 92//92
f 101//101 100//100 92//92
f 96//96 93//93 101//101
f 93//93 102//102 101//101
f 90//90 99//99 98//98
f 93//93 97//97 102//102
f 102//102 97//97 103//103
f 103//103 94//94 98//98
f 91//91 94//94 103//103
f 97//97 91//91 103//103
f 101//101 102//102 100//100
f 100//100 104//104 99//99
f 102//102 104//104 100//100
f 104//104 98//98 99//99
f 104//104 103//103 98//98
f 102//102 103//103 104//104
