# Blender v2.92.0 OBJ File: 'convert_to_one_sided.blend'
# www.blender.org
mtllib 27L.mtl
o 27
v 7.554293 3.458235 2.982742
v 7.679081 3.528944 2.983742
v 7.589373 3.464505 2.989872
v 7.520723 3.457775 2.987702
v 7.654352 3.554434 2.990622
v 7.819989 3.635203 2.998052
v 7.513643 3.425125 2.995592
v 7.484254 3.419476 3.004322
v 7.544273 3.435055 3.002412
v 7.467624 3.438615 3.014552
v 7.548813 3.547494 3.027092
v 7.684101 3.516804 2.992922
v 7.783450 3.587823 3.001302
v 7.716160 3.534054 3.012002
v 7.648541 3.705902 3.080651
v 7.901798 3.665202 3.016942
v 7.856519 3.627433 3.017362
v 7.786190 3.752531 3.073161
v 7.937697 3.718702 3.025092
v 7.898499 3.737481 3.038022
v 7.439604 3.416965 3.029822
v 7.483234 3.424995 3.019192
v 7.430214 3.469455 3.066621
v 7.620732 3.480095 3.006922
v 7.474484 3.552614 3.080561
v 7.899948 3.654513 3.034731
v 7.957907 3.699032 3.048172
v 7.990187 3.743541 3.062091
v 7.971208 3.790601 3.059961
v 7.418304 3.467445 3.079621
v 7.567083 3.458655 3.025942
v 7.660461 3.506414 3.024752
v 7.812520 3.605163 3.032192
v 7.724530 3.554764 3.040981
v 7.539673 3.672792 3.117410
v 8.010187 3.804900 3.080001
v 7.903368 3.825290 3.097821
v 7.433594 3.436905 3.055551
v 7.419964 3.470515 3.081391
v 7.418684 3.498775 3.102231
v 7.442094 3.564114 3.124650
v 7.888329 3.660692 3.067261
v 7.946018 3.693982 3.065341
v 7.988847 3.733961 3.084611
v 7.695861 3.840890 3.159380
v 8.048726 3.822160 3.110751
v 7.507214 3.481385 3.075711
v 7.626672 3.531324 3.070461
v 7.484764 3.623573 3.126120
v 7.755280 3.644663 3.121600
v 7.615662 3.783051 3.152570
v 8.025247 3.776761 3.103201
v 7.977518 3.875430 3.130321
v 8.033187 3.846110 3.116471
v 7.426565 3.534664 3.127750
v 8.021716 3.772071 3.119541
v 8.053066 3.826360 3.144070
v 7.817859 3.888180 3.174310
v 8.047936 3.875650 3.143170
v 7.450194 3.507974 3.112270
v 7.552573 3.577493 3.143520
v 7.938028 3.743991 3.136610
v 8.058367 3.866250 3.149200
v 8.006387 3.914489 3.171370
v 7.452094 3.618053 3.176540
v 7.493554 3.661842 3.158540
v 7.564322 3.771961 3.189600
v 8.044557 3.896800 3.170170
v 7.940068 3.917549 3.182960
v 7.435034 3.587213 3.168720
v 7.798769 3.770981 3.220699
v 8.014856 3.803210 3.161110
v 8.038687 3.854800 3.186640
v 8.049836 3.872370 3.167610
v 7.632162 3.846370 3.203629
v 7.987347 3.920199 3.193370
v 7.457424 3.582933 3.161210
v 7.480284 3.651543 3.197589
v 7.634442 3.668112 3.191869
v 7.510823 3.698792 3.198839
v 7.969888 3.822960 3.195729
v 7.599862 3.830190 3.220439
v 7.704091 3.888770 3.216609
v 7.565632 3.782011 3.223359
v 8.025507 3.891819 3.190860
v 7.769830 3.915949 3.221879
v 7.872838 3.919809 3.221439
v 7.542213 3.657642 3.199629
v 7.540183 3.733431 3.224649
v 8.003887 3.877530 3.206419
v 7.638312 3.851610 3.232969
v 7.965477 3.902469 3.215009
v 7.580092 3.745941 3.239979
v 7.644312 3.728401 3.226479
v 7.613722 3.813821 3.243889
v 7.912578 3.872490 3.232859
v 7.889908 3.911379 3.236879
v 7.752770 3.903689 3.234589
v 7.813659 3.908639 3.246819
v 7.711030 3.794231 3.249509
v 7.793560 3.841630 3.251819
v 7.726440 3.877379 3.249309
v 7.801909 3.881800 3.248919
v 7.704041 3.825930 3.246309
vn 0.0209 -0.2561 -0.9664
vn 0.2271 -0.2763 -0.9339
vn 0.3923 -0.7337 -0.5548
vn -0.3292 0.1671 -0.9294
vn -0.1762 0.3412 -0.9233
vn 0.0718 0.1196 -0.9902
vn 0.1705 -0.8728 -0.4574
vn -0.2570 -0.5912 -0.7645
vn 0.3929 -0.9167 0.0725
vn -0.5867 0.2189 -0.7797
vn -0.4253 0.4756 -0.7700
vn 0.4885 -0.7542 -0.4387
vn 0.5037 -0.6612 -0.5560
vn 0.5439 -0.8345 0.0879
vn -0.3217 0.5210 -0.7906
vn 0.5413 -0.4608 -0.7033
vn 0.5350 -0.8123 -0.2323
vn -0.1970 0.5417 -0.8172
vn 0.3005 0.1496 -0.9420
vn -0.1286 0.4848 -0.8651
vn -0.7290 -0.6537 -0.2032
vn 0.1462 -0.9428 0.2996
vn -0.7680 0.2873 -0.5725
vn 0.4855 -0.8719 0.0643
vn -0.5809 0.4673 -0.6665
vn 0.5686 -0.8225 0.0128
vn 0.7156 -0.6672 -0.2070
vn 0.7465 -0.2990 -0.5944
vn 0.0446 0.5235 -0.8509
vn -0.9841 -0.1726 0.0415
vn 0.3548 -0.7828 0.5113
vn 0.4323 -0.7883 0.4379
vn 0.4876 -0.8349 0.2551
vn 0.4351 -0.7302 0.5268
vn -0.5289 0.5409 -0.6540
vn 0.4069 0.3483 -0.8444
vn -0.1601 0.6131 -0.7736
vn -0.0696 -0.7812 0.6204
vn -0.5515 -0.5753 0.6040
vn -0.9557 0.2377 -0.1735
vn -0.8073 0.4486 -0.3835
vn 0.4133 -0.7829 0.4650
vn 0.5342 -0.7745 0.3389
vn 0.6851 -0.7155 0.1371
vn -0.2842 0.6584 -0.6969
vn 0.8236 0.0551 -0.5645
vn 0.2460 -0.6829 0.6878
vn 0.3297 -0.6721 0.6630
vn -0.6418 0.5291 -0.5551
vn 0.3299 -0.6842 0.6504
vn -0.4592 0.5873 -0.6665
vn 0.8478 -0.5116 -0.1398
vn 0.0255 0.6785 -0.7342
vn 0.3360 0.5263 -0.7811
vn -0.8431 -0.1919 0.5024
vn 0.6266 -0.6918 0.3588
vn 0.8917 -0.3731 0.2564
vn -0.1669 0.7629 -0.6246
vn 0.5007 0.6086 -0.6155
vn -0.0331 -0.5838 0.8112
vn 0.2061 -0.6057 0.7685
vn 0.3592 -0.7038 0.6129
vn 0.9762 0.2023 -0.0784
vn 0.2112 0.8918 -0.4002
vn -0.9030 0.4227 0.0770
vn -0.7285 0.5730 -0.3753
vn -0.7101 0.6029 -0.3636
vn 0.7382 0.6582 0.1476
vn -0.0770 0.9217 -0.3801
vn -0.6247 -0.1844 0.7587
vn 0.2387 -0.5097 0.8266
vn 0.4623 -0.6119 0.6417
vn 0.6238 -0.2399 0.7439
vn 0.8764 0.0791 0.4750
vn -0.5012 0.7708 -0.3932
vn 0.2790 0.8983 0.3393
vn -0.0362 -0.5218 0.8523
vn -0.4843 -0.0194 0.8747
vn 0.2025 -0.5773 0.7910
vn -0.8381 0.5235 0.1537
vn 0.2977 -0.4838 0.8230
vn -0.6870 0.7265 0.0154
vn -0.3855 0.8926 -0.2336
vn -0.7521 0.5286 0.3936
vn 0.5845 0.3462 0.7338
vn -0.2001 0.9734 -0.1114
vn 0.0099 0.9753 0.2207
vn 0.0553 -0.4780 0.8766
vn -0.6321 0.2740 0.7248
vn 0.3755 -0.0362 0.9261
vn -0.4874 0.7467 0.4526
vn 0.3090 0.4734 0.8249
vn -0.1225 -0.1570 0.9800
vn 0.1178 -0.4592 0.8805
vn -0.3461 0.2622 0.9008
vn 0.2375 -0.1147 0.9646
vn 0.1844 0.4488 0.8744
vn -0.2564 0.8439 0.4712
vn -0.0352 0.6076 0.7934
vn 0.0576 -0.2326 0.9709
vn 0.0934 -0.1210 0.9882
vn -0.1630 0.3430 0.9251
vn 0.0504 0.0758 0.9958
vn -0.0545 0.0233 0.9982
usemtl mtl1.1107
s 1
f 1//1 2//2 3//3
f 4//4 5//5 1//1
f 2//2 1//1 5//5
f 6//6 2//2 5//5
f 1//1 7//7 8//8
f 9//9 7//7 3//3
f 3//3 7//7 1//1
f 8//8 10//10 4//4
f 1//1 8//8 4//4
f 10//10 11//11 4//4
f 3//3 2//2 12//12
f 12//12 13//13 14//14
f 5//5 4//4 11//11
f 2//2 13//13 12//12
f 11//11 15//15 5//5
f 6//6 13//13 2//2
f 16//16 13//13 6//6
f 17//17 13//13 16//16
f 6//6 5//5 18//18
f 5//5 15//15 18//18
f 19//19 16//16 6//6
f 20//20 6//6 18//18
f 20//20 19//19 6//6
f 21//21 8//8 22//22
f 8//8 7//7 22//22
f 23//23 10//10 21//21
f 21//21 10//10 8//8
f 3//3 24//24 9//9
f 10//10 23//23 25//25
f 11//11 10//10 25//25
f 3//3 12//12 24//24
f 12//12 14//14 24//24
f 17//17 16//16 26//26
f 16//16 27//27 26//26
f 27//27 16//16 28//28
f 28//28 16//16 19//19
f 19//19 20//20 29//29
f 22//22 7//7 9//9
f 21//21 30//30 23//23
f 24//24 31//31 9//9
f 24//24 32//32 31//31
f 14//14 32//32 24//24
f 13//13 33//33 14//14
f 14//14 33//33 34//34
f 25//25 35//35 11//11
f 17//17 33//33 13//13
f 11//11 35//35 15//15
f 17//17 26//26 33//33
f 28//28 19//19 36//36
f 18//18 37//37 20//20
f 20//20 37//37 29//29
f 29//29 36//36 19//19
f 38//38 39//39 21//21
f 21//21 39//39 30//30
f 22//22 38//38 21//21
f 9//9 31//31 22//22
f 40//40 23//23 30//30
f 25//25 23//23 41//41
f 41//41 23//23 40//40
f 34//34 32//32 14//14
f 26//26 42//42 33//33
f 27//27 43//43 26//26
f 44//44 27//27 28//28
f 18//18 15//15 45//45
f 36//36 46//46 28//28
f 38//38 22//22 47//47
f 22//22 31//31 47//47
f 31//31 32//32 48//48
f 34//34 48//48 32//32
f 25//25 41//41 49//49
f 33//33 50//50 34//34
f 26//26 43//43 42//42
f 35//35 51//51 15//15
f 44//44 43//43 27//27
f 28//28 52//52 44//44
f 45//45 15//15 51//51
f 46//46 52//52 28//28
f 37//37 53//53 29//29
f 29//29 53//53 36//36
f 53//53 54//54 36//36
f 36//36 54//54 46//46
f 31//31 48//48 47//47
f 40//40 30//30 55//55
f 55//55 30//30 39//39
f 48//48 34//34 50//50
f 50//50 33//33 42//42
f 25//25 49//49 35//35
f 44//44 52//52 56//56
f 52//52 46//46 57//57
f 37//37 18//18 58//58
f 59//59 46//46 54//54
f 59//59 54//54 53//53
f 38//38 60//60 39//39
f 60//60 55//55 39//39
f 48//48 61//61 47//47
f 62//62 50//50 42//42
f 42//42 43//43 62//62
f 44//44 62//62 43//43
f 44//44 56//56 62//62
f 57//57 46//46 63//63
f 46//46 59//59 63//63
f 53//53 37//37 58//58
f 53//53 64//64 59//59
f 55//55 41//41 40//40
f 61//61 48//48 50//50
f 65//65 41//41 55//55
f 49//49 41//41 66//66
f 66//66 41//41 65//65
f 49//49 66//66 35//35
f 67//67 35//35 66//66
f 56//56 52//52 57//57
f 35//35 67//67 51//51
f 45//45 58//58 18//18
f 59//59 68//68 63//63
f 59//59 64//64 68//68
f 53//53 58//58 69//69
f 64//64 53//53 69//69
f 60//60 38//38 47//47
f 47//47 61//61 60//60
f 55//55 70//70 65//65
f 62//62 71//71 50//50
f 56//56 72//72 62//62
f 56//56 57//57 72//72
f 57//57 73//73 72//72
f 73//73 57//57 74//74
f 51//51 67//67 75//75
f 51//51 75//75 45//45
f 57//57 63//63 74//74
f 63//63 68//68 74//74
f 76//76 64//64 69//69
f 64//64 76//76 68//68
f 60//60 77//77 55//55
f 60//60 61//61 77//77
f 78//78 65//65 70//70
f 50//50 79//79 61//61
f 65//65 80//80 66//66
f 67//67 66//66 80//80
f 72//72 81//81 62//62
f 75//75 67//67 82//82
f 83//83 45//45 75//75
f 45//45 83//83 58//58
f 77//77 70//70 55//55
f 80//80 65//65 78//78
f 79//79 50//50 71//71
f 81//81 71//71 62//62
f 80//80 84//84 67//67
f 72//72 73//73 81//81
f 84//84 82//82 67//67
f 85//85 73//73 74//74
f 85//85 74//74 68//68
f 83//83 86//86 58//58
f 68//68 76//76 85//85
f 58//58 86//86 87//87
f 69//69 58//58 87//87
f 69//69 87//87 76//76
f 77//77 78//78 70//70
f 88//88 78//78 77//77
f 77//77 61//61 88//88
f 88//88 61//61 79//79
f 78//78 89//89 80//80
f 80//80 89//89 84//84
f 81//81 73//73 90//90
f 91//91 82//82 84//84
f 73//73 85//85 90//90
f 75//75 82//82 91//91
f 85//85 92//92 90//90
f 75//75 91//91 83//83
f 85//85 76//76 92//92
f 76//76 87//87 92//92
f 88//88 93//93 78//78
f 93//93 89//89 78//78
f 88//88 94//94 93//93
f 88//88 79//79 94//94
f 79//79 71//71 94//94
f 95//95 89//89 93//93
f 84//84 89//89 95//95
f 95//95 91//91 84//84
f 81//81 96//96 71//71
f 81//81 90//90 96//96
f 96//96 92//92 97//97
f 96//96 90//90 92//92
f 83//83 91//91 98//98
f 83//83 98//98 86//86
f 87//87 86//86 98//98
f 99//99 87//87 98//98
f 97//97 87//87 99//99
f 92//92 87//87 97//97
f 100//100 93//93 94//94
f 100//100 94//94 71//71
f 96//96 101//101 71//71
f 95//95 102//102 91//91
f 96//96 103//103 101//101
f 96//96 97//97 103//103
f 102//102 98//98 91//91
f 99//99 102//102 103//103
f 99//99 98//98 102//102
f 97//97 99//99 103//103
f 100//100 104//104 93//93
f 71//71 101//101 100//100
f 93//93 104//104 95//95
f 101//101 104//104 100//100
f 102//102 95//95 104//104
f 103//103 104//104 101//101
f 103//103 102//102 104//104
