# Blender v2.92.0 OBJ File: 'convert_to_one_sided.blend'
# www.blender.org
mtllib 281L.mtl
o Cube
v 0.001000 0.001000 -0.001000
v 0.001000 -0.001000 -0.001000
v 0.001000 0.001000 0.001000
v 0.001000 -0.001000 0.001000
v -0.001000 0.001000 -0.001000
v -0.001000 -0.001000 -0.001000
v -0.001000 0.001000 0.001000
v -0.001000 -0.001000 0.001000
vt 0.625000 0.500000
vt 0.875000 0.500000
vt 0.875000 0.750000
vt 0.625000 0.750000
vt 0.375000 0.750000
vt 0.625000 1.000000
vt 0.375000 1.000000
vt 0.375000 0.000000
vt 0.625000 0.000000
vt 0.625000 0.250000
vt 0.375000 0.250000
vt 0.125000 0.500000
vt 0.375000 0.500000
vt 0.125000 0.750000
vn 0.0000 1.0000 0.0000
vn 0.0000 0.0000 1.0000
vn -1.0000 0.0000 0.0000
vn 0.0000 -1.0000 0.0000
vn 1.0000 0.0000 0.0000
vn 0.0000 0.0000 -1.0000
usemtl Material
s off
f 1/1/1 5/2/1 7/3/1 3/4/1
f 4/5/2 3/4/2 7/6/2 8/7/2
f 8/8/3 7/9/3 5/10/3 6/11/3
f 6/12/4 2/13/4 4/5/4 8/14/4
f 2/13/5 1/1/5 3/4/5 4/5/5
f 6/11/6 5/10/6 1/1/6 2/13/6
o 281
v 7.741140 0.506819 3.375517
v 7.714871 0.482936 3.409606
v 7.722041 0.511267 3.394506
v 7.735360 0.519928 3.377267
v 7.755870 0.502832 3.434936
v 7.715651 0.525660 3.403706
v 7.719891 0.524613 3.449726
v 7.673161 0.480108 3.458745
v 7.720591 0.436910 3.481855
v 7.680621 0.453098 3.476545
v 7.745920 0.461622 3.455026
v 7.761630 0.471772 3.463615
v 7.671381 0.502227 3.468905
v 7.759900 0.510647 3.499305
v 7.665071 0.509764 3.500265
v 7.753370 0.513586 3.534004
v 7.668161 0.414265 3.555464
v 7.767640 0.420396 3.536015
v 7.777350 0.440340 3.520935
v 7.674301 0.517904 3.531104
v 7.637161 0.443966 3.536075
v 7.798850 0.446625 3.560714
v 7.620272 0.465780 3.545454
v 7.717051 0.513830 3.550274
v 7.598792 0.480991 3.595014
v 7.795929 0.472273 3.563324
v 7.790160 0.484869 3.600114
v 7.605932 0.414326 3.597064
v 7.743230 0.395187 3.605894
v 7.578652 0.428897 3.613804
v 7.618582 0.497112 3.610394
v 7.690041 0.498614 3.627103
v 7.632492 0.387781 3.653183
v 7.797090 0.410969 3.606074
v 7.540243 0.445154 3.673643
v 7.760330 0.490453 3.628203
v 7.566573 0.403181 3.658753
v 7.839829 0.400450 3.676523
v 7.833919 0.430881 3.655923
v 7.822089 0.454956 3.655873
v 7.521983 0.410754 3.704742
v 7.534073 0.462868 3.699232
v 7.534513 0.375180 3.751462
v 7.823619 0.367561 3.716852
v 7.880999 0.394339 3.769181
v 7.536803 0.469644 3.729162
v 7.629782 0.480259 3.709802
v 7.819079 0.459096 3.716922
v 7.722291 0.364978 3.704642
v 7.650681 0.353894 3.754312
v 7.480554 0.421944 3.762091
v 7.855968 0.431087 3.742902
v 7.475064 0.440208 3.786131
v 7.747140 0.334749 3.812621
v 7.883658 0.363598 3.799451
v 7.469934 0.393138 3.793181
v 7.711811 0.475399 3.723982
v 7.858349 0.339354 3.829981
v 7.449254 0.352708 3.866160
v 7.431025 0.406645 3.840850
v 7.867959 0.432548 3.811491
v 7.596202 0.464281 3.798591
v 7.569753 0.335198 3.868390
v 7.942808 0.355717 3.920570
v 7.900448 0.399971 3.850991
v 7.746940 0.444811 3.837771
v 7.915598 0.326573 3.909510
v 7.396015 0.369831 3.898990
v 7.467724 0.446577 3.854200
v 7.835059 0.315854 3.896300
v 7.405565 0.324802 3.989799
v 7.353305 0.382273 3.948089
v 7.383265 0.416246 3.934979
v 7.691911 0.299456 3.968589
v 7.372785 0.342611 3.962649
v 7.943697 0.382139 3.951979
v 7.888319 0.409654 3.929709
v 7.565202 0.438747 3.926810
v 7.967998 0.311975 4.005029
v 7.728540 0.421671 3.986119
v 7.880538 0.295326 4.000978
v 7.313956 0.351692 4.013338
v 7.285386 0.371527 4.037288
v 7.299076 0.392591 4.027848
v 7.992827 0.356996 4.046678
v 7.299926 0.330829 4.072968
v 7.492774 0.306383 4.023778
v 7.303946 0.408937 4.046428
v 7.436184 0.432190 3.938019
v 7.744600 0.273943 4.077737
v 7.510493 0.425529 4.042648
v 8.009467 0.320990 4.076208
v 7.970697 0.377249 4.045268
v 7.863309 0.390164 4.096817
v 7.410244 0.422918 4.002748
v 7.497943 0.286206 4.127996
v 7.992987 0.287957 4.097628
v 7.229307 0.370964 4.124787
v 7.236807 0.394374 4.149257
v 7.878939 0.261371 4.135036
v 7.351146 0.310327 4.115577
v 7.256587 0.336125 4.107727
v 7.244347 0.352075 4.115787
v 8.017227 0.354676 4.112017
v 7.591112 0.410170 4.115097
v 7.651531 0.264573 4.178276
v 8.030646 0.332810 4.139257
v 7.365675 0.410174 4.127887
v 7.191687 0.353948 4.203326
v 7.997417 0.353253 4.136267
v 7.248217 0.401430 4.207466
v 8.009187 0.262490 4.178886
v 7.884539 0.250260 4.195436
v 8.025537 0.299309 4.158667
v 7.233367 0.333583 4.179156
v 7.186677 0.363535 4.233905
v 7.716601 0.387778 4.190916
v 7.785800 0.256047 4.187726
v 7.204628 0.384550 4.247615
v 7.923978 0.347914 4.201286
v 7.459424 0.278917 4.213766
v 7.318326 0.306897 4.217566
v 7.187898 0.346069 4.242255
v 8.017696 0.311102 4.179866
v 7.764280 0.364032 4.228245
v 7.498094 0.395185 4.208506
v 7.762120 0.257760 4.216526
v 7.552052 0.275338 4.232595
v 7.920318 0.258282 4.214556
v 8.006477 0.280587 4.199156
v 7.326096 0.391692 4.239615
v 7.379355 0.300073 4.257626
v 7.651862 0.276487 4.247245
v 7.636412 0.377013 4.232055
v 7.818130 0.264917 4.235606
v 7.908369 0.286559 4.233995
v 7.492944 0.298541 4.265325
v 7.212837 0.334595 4.250265
v 7.970627 0.308244 4.210856
v 7.898849 0.316995 4.228256
v 7.825779 0.341049 4.231586
v 7.703311 0.352283 4.247245
v 7.514293 0.365309 4.258575
v 7.772610 0.284145 4.246345
v 7.625822 0.307261 4.264065
v 7.254666 0.328878 4.272205
v 7.774900 0.317598 4.244646
v 7.197427 0.355666 4.265065
v 7.629822 0.335496 4.258715
v 7.195037 0.372263 4.268645
v 7.321306 0.374629 4.285425
v 7.338305 0.327799 4.283525
v 7.450024 0.330548 4.282265
v 7.527443 0.338154 4.271425
v 7.420044 0.354148 4.280015
v 7.244147 0.374506 4.271105
v 7.260877 0.357031 4.274485
v 7.358245 0.349927 4.280035
vn 0.4242 -0.3618 -0.8301
vn -0.3150 -0.6628 -0.6793
vn -0.6607 0.0222 -0.7504
vn 0.1423 0.7504 -0.6454
vn 0.8755 0.4021 -0.2680
vn -0.5533 0.7339 -0.3940
vn 0.1290 0.9909 -0.0383
vn -0.7666 -0.2519 -0.5907
vn -0.0085 -0.8885 -0.4588
vn -0.4642 -0.7162 -0.5211
vn 0.4222 -0.7431 -0.5192
vn 0.8314 -0.3551 -0.4275
vn -0.8241 0.3390 -0.4539
vn 0.6168 0.7833 -0.0774
vn -0.5215 0.8378 -0.1617
vn 0.3037 0.9463 0.1109
vn -0.2461 -0.8783 -0.4098
vn 0.3832 -0.8335 -0.3980
vn 0.7132 -0.5539 -0.4295
vn -0.1673 0.9841 0.0596
vn -0.6178 -0.5517 -0.5603
vn 0.9018 -0.1998 -0.3832
vn -0.8453 0.0036 -0.5343
vn 0.0671 0.9829 0.1715
vn -0.7179 0.6193 -0.3180
vn 0.8814 0.4357 -0.1823
vn 0.5957 0.8025 0.0323
vn -0.4359 -0.7644 -0.4751
vn 0.0784 -0.9465 -0.3131
vn -0.7380 -0.3724 -0.5627
vn -0.3065 0.9515 0.0268
vn 0.0127 0.9785 0.2057
vn -0.1592 -0.9348 -0.3176
vn 0.5539 -0.7359 -0.3894
vn -0.8439 0.1772 -0.5064
vn 0.2034 0.9578 0.2033
vn -0.4789 -0.7622 -0.4354
vn 0.7778 -0.4533 -0.4354
vn 0.9324 0.2068 -0.2964
vn 0.7808 0.6160 -0.1042
vn -0.7293 -0.4360 -0.5273
vn -0.6987 0.6425 -0.3147
vn -0.3426 -0.8589 -0.3806
vn 0.2887 -0.8895 -0.3541
vn 0.9336 0.0809 -0.3492
vn -0.3555 0.9342 -0.0289
vn -0.0438 0.9830 0.1783
vn 0.4113 0.9069 0.0915
vn -0.0067 -0.9576 -0.2882
vn -0.1021 -0.9579 -0.2684
vn -0.8450 0.0038 -0.5348
vn 0.7933 0.5858 -0.1656
vn -0.7260 0.5997 -0.3365
vn 0.0086 -0.9662 -0.2575
vn 0.6602 -0.6271 -0.4134
vn -0.6829 -0.4863 -0.5451
vn 0.0927 0.9714 0.2187
vn 0.2336 -0.9175 -0.3220
vn -0.3670 -0.8334 -0.4132
vn -0.8365 0.0883 -0.5408
vn 0.5050 0.8626 0.0292
vn -0.0144 0.9832 0.1822
vn -0.1161 -0.9609 -0.2512
vn 0.9079 -0.0739 -0.4127
vn 0.7934 0.5857 -0.1658
vn 0.1135 0.9749 0.1916
vn 0.4284 -0.8279 -0.3620
vn -0.6761 -0.4680 -0.5691
vn -0.2594 0.9651 0.0362
vn 0.0942 -0.9628 -0.2533
vn -0.1929 -0.9497 -0.2466
vn -0.8008 0.0626 -0.5956
vn -0.5666 0.7790 -0.2687
vn -0.0449 -0.9756 -0.2148
vn -0.4252 -0.8108 -0.4023
vn 0.7155 0.6665 -0.2091
vn 0.3333 0.9404 0.0674
vn -0.0052 0.9887 0.1497
vn 0.5791 -0.7148 -0.3920
vn 0.0833 0.9846 0.1536
vn 0.1189 -0.9609 -0.2502
vn -0.6566 -0.5464 -0.5198
vn -0.8158 -0.1114 -0.5675
vn -0.7338 0.4923 -0.4682
vn 0.8605 0.4165 -0.2934
vn -0.3327 -0.9038 -0.2690
vn -0.1159 -0.9728 -0.2005
vn -0.3570 0.9235 -0.1401
vn -0.1854 0.9792 0.0818
vn -0.0348 -0.9806 -0.1931
vn 0.0003 0.9916 0.1295
vn 0.9020 -0.2574 -0.3467
vn 0.4343 0.9007 0.0025
vn 0.1507 0.9686 0.1979
vn -0.1286 0.9906 0.0470
vn -0.1212 -0.9803 -0.1556
vn 0.4983 -0.8074 -0.3159
vn -0.8760 0.1828 -0.4464
vn -0.5399 0.8221 -0.1810
vn 0.0394 -0.9774 -0.2075
vn -0.1973 -0.9689 -0.1492
vn -0.6033 -0.7163 -0.3507
vn -0.7743 -0.4541 -0.4407
vn 0.6548 0.7552 0.0292
vn 0.0487 0.9831 0.1767
vn -0.0672 -0.9961 -0.0580
vn 0.9344 0.3466 0.0819
vn -0.0490 0.9935 0.1023
vn -0.8658 -0.3815 -0.3238
vn 0.3726 0.8575 0.3547
vn -0.1382 0.9852 0.1011
vn 0.4597 -0.8847 0.0769
vn 0.0289 -0.9979 0.0578
vn 0.9513 -0.3040 0.0507
vn -0.4583 -0.8707 -0.1783
vn -0.9565 0.2916 0.0081
vn 0.1066 0.9428 0.3160
vn -0.0538 -0.9958 -0.0736
vn -0.3836 0.8894 0.2485
vn 0.2634 0.7576 0.5972
vn -0.1289 -0.9904 0.0496
vn -0.2140 -0.9765 0.0237
vn -0.8061 -0.5833 0.0997
vn 0.6876 0.4194 0.5928
vn 0.1438 0.7493 0.6465
vn 0.0381 0.9433 0.3298
vn -0.0358 -0.9638 0.2644
vn -0.0638 -0.9412 0.3318
vn 0.1636 -0.7934 0.5864
vn 0.6200 -0.2517 0.7431
vn 0.0142 0.9279 0.3725
vn -0.1198 -0.8885 0.4429
vn -0.0044 -0.6947 0.7193
vn 0.0758 0.8192 0.5684
vn 0.0565 -0.6581 0.7508
vn 0.2035 -0.1364 0.9695
vn -0.0094 -0.6324 0.7746
vn -0.3981 -0.8853 0.2404
vn 0.3761 0.3344 0.8642
vn 0.2037 0.3538 0.9129
vn 0.1714 0.4566 0.8730
vn 0.1152 0.4637 0.8785
vn 0.0982 0.6541 0.7500
vn 0.0759 -0.2509 0.9650
vn 0.0887 -0.1296 0.9876
vn -0.2405 -0.6927 0.6800
vn 0.1221 0.1567 0.9801
vn -0.6184 -0.3416 0.7077
vn 0.1107 0.2622 0.9586
vn -0.5389 0.3743 0.7547
vn -0.0109 0.4224 0.9063
vn -0.0628 -0.3327 0.9409
vn 0.0503 -0.0575 0.9971
vn 0.1244 0.2877 0.9496
vn 0.0848 0.2391 0.9673
vn -0.1134 0.6616 0.7412
vn -0.1426 -0.0201 0.9896
vn -0.0210 0.0111 0.9997
usemtl mtl1.265
s 1
f 9//7 10//8 11//9
f 9//7 11//9 12//10
f 12//10 13//11 9//7
f 12//10 11//9 14//12
f 15//13 12//10 14//12
f 10//8 16//14 11//9
f 12//10 15//13 13//11
f 10//8 17//15 18//16
f 17//15 10//8 19//17
f 10//8 18//16 16//14
f 9//7 19//17 10//8
f 9//7 13//11 20//18
f 16//14 21//19 11//9
f 11//9 21//19 14//12
f 13//11 15//13 22//20
f 14//12 21//19 23//21
f 14//12 23//21 15//13
f 20//18 19//17 9//7
f 15//13 24//22 22//20
f 18//16 17//15 25//23
f 19//17 26//24 17//15
f 26//24 19//17 27//25
f 19//17 20//18 27//25
f 23//21 28//26 15//13
f 29//27 18//16 25//23
f 29//27 16//14 18//16
f 27//25 20//18 30//28
f 21//19 16//14 31//29
f 20//18 13//11 30//28
f 15//13 28//26 32//30
f 33//31 21//19 31//29
f 30//28 13//11 34//32
f 21//19 33//31 23//21
f 34//32 13//11 22//20
f 35//33 22//20 24//22
f 15//13 32//30 24//22
f 29//27 25//23 36//34
f 17//15 37//35 25//23
f 17//15 26//24 37//35
f 16//14 29//27 31//29
f 35//33 34//32 22//20
f 31//29 29//27 38//36
f 33//31 39//37 23//21
f 23//21 39//37 28//26
f 28//26 40//38 32//30
f 37//35 41//39 25//23
f 26//24 42//40 37//35
f 26//24 27//25 42//40
f 29//27 36//34 38//36
f 42//40 27//25 30//28
f 38//36 43//41 31//29
f 43//41 33//31 31//29
f 35//33 24//22 44//42
f 36//34 25//23 41//39
f 36//34 45//43 38//36
f 42//40 30//28 46//44
f 47//45 34//32 48//46
f 30//28 34//32 47//45
f 28//26 39//37 40//38
f 32//30 44//42 24//22
f 45//43 36//34 41//39
f 38//36 45//43 49//47
f 46//44 30//28 47//45
f 50//48 33//31 43//41
f 34//32 35//33 48//46
f 51//49 45//43 41//39
f 37//35 42//40 52//50
f 46//44 52//50 42//40
f 46//44 47//45 53//51
f 49//47 43//41 38//36
f 33//31 50//48 54//52
f 39//37 33//31 54//52
f 55//53 39//37 54//52
f 35//33 44//42 56//54
f 40//38 39//37 55//53
f 32//30 40//38 44//42
f 41//39 57//55 58//56
f 37//35 57//55 41//39
f 37//35 52//50 57//55
f 45//43 51//49 49//47
f 43//41 49//47 59//57
f 47//45 48//46 60//58
f 35//33 56//54 48//46
f 51//49 41//39 58//56
f 53//51 47//45 60//58
f 61//59 43//41 59//57
f 50//48 43//41 61//59
f 48//46 56//54 60//58
f 52//50 62//60 57//55
f 52//50 46//44 63//61
f 53//51 63//61 46//44
f 49//47 64//62 59//57
f 40//38 55//53 65//63
f 44//42 40//38 65//63
f 56//54 44//42 65//63
f 57//55 62//60 58//56
f 52//50 66//64 62//60
f 51//49 67//65 64//62
f 49//47 51//49 64//62
f 59//57 64//62 68//66
f 56//54 69//67 60//58
f 54//52 50//48 61//59
f 55//53 54//52 70//68
f 65//63 55//53 70//68
f 71//69 58//56 62//60
f 66//64 52//50 63//61
f 63//61 53//51 72//70
f 53//51 60//58 73//71
f 61//59 59//57 68//66
f 56//54 65//63 74//72
f 69//67 56//54 74//72
f 67//65 51//49 71//69
f 58//56 71//69 51//49
f 66//64 63//61 75//73
f 76//74 68//66 64//62
f 72//70 53//51 73//71
f 73//71 60//58 69//67
f 61//59 77//75 54//52
f 54//52 77//75 70//68
f 65//63 70//68 74//72
f 66//64 78//76 62//60
f 67//65 71//69 79//77
f 67//65 76//74 64//62
f 68//66 76//74 80//78
f 68//66 81//79 61//59
f 62//60 82//80 71//69
f 62//60 78//76 82//80
f 67//65 83//81 76//74
f 63//61 72//70 75//73
f 72//70 73//71 84//82
f 81//79 68//66 80//78
f 73//71 69//67 85//83
f 77//75 61//59 81//79
f 77//75 86//84 70//68
f 74//72 70//68 86//84
f 66//64 75//73 78//76
f 79//77 83//81 67//65
f 87//85 75//73 72//70
f 85//83 84//82 73//71
f 86//84 88//86 74//72
f 69//67 74//72 85//83
f 89//87 78//76 75//73
f 76//74 83//81 90//88
f 80//78 90//88 91//89
f 76//74 90//88 80//78
f 92//90 80//78 91//89
f 72//70 84//82 93//91
f 74//72 88//86 85//83
f 78//76 89//87 82//80
f 83//81 79//77 94//92
f 71//69 95//93 79//77
f 71//69 82//80 95//93
f 80//78 92//90 81//79
f 96//94 81//79 92//90
f 77//75 81//79 97//95
f 77//75 97//95 86//84
f 82//80 89//87 98//96
f 75//73 87//85 89//87
f 86//84 99//97 88//86
f 100//98 87//85 72//70
f 100//98 72//70 93//91
f 84//82 85//83 101//99
f 85//83 102//100 101//99
f 81//79 96//94 103//101
f 81//79 103//101 97//95
f 104//102 82//80 98//96
f 89//87 87//85 105//103
f 90//88 83//81 94//92
f 92//90 91//89 106//104
f 107//105 92//90 106//104
f 101//99 93//91 84//82
f 92//90 107//105 96//94
f 85//83 88//86 102//100
f 97//95 103//101 86//84
f 89//87 105//103 108//106
f 82//80 104//102 95//93
f 79//77 109//107 94//92
f 95//93 109//107 79//77
f 105//103 87//85 100//98
f 90//88 110//108 111//109
f 91//89 90//88 111//109
f 112//110 93//91 101//99
f 88//86 99//97 113//111
f 88//86 113//111 102//100
f 89//87 108//106 98//96
f 90//88 94//92 110//108
f 91//89 111//109 106//104
f 86//84 103//101 99//97
f 98//96 108//106 114//112
f 100//98 93//91 115//113
f 93//91 112//110 115//113
f 103//101 96//94 116//114
f 103//101 116//114 99//97
f 98//96 114//112 104//102
f 109//107 95//93 104//102
f 111//109 117//115 106//104
f 101//99 102//100 118//116
f 96//94 107//105 116//114
f 107//105 119//117 116//114
f 108//106 120//118 121//119
f 108//106 105//103 120//118
f 105//103 100//98 122//120
f 110//108 94//92 123//121
f 123//121 111//109 110//108
f 100//98 115//113 122//120
f 124//122 106//104 117//115
f 118//116 115//113 112//110
f 106//104 124//122 107//105
f 125//123 102//100 113//111
f 118//116 112//110 101//99
f 99//97 116//114 113//111
f 108//106 126//124 114//112
f 108//106 121//119 126//124
f 122//120 120//118 105//103
f 94//92 109//107 123//121
f 127//125 107//105 124//122
f 102//100 125//123 128//126
f 118//116 102//100 128//126
f 107//105 127//125 119//117
f 104//102 114//112 129//127
f 104//102 130//128 109//107
f 130//128 123//121 109//107
f 123//121 131//129 117//115
f 123//121 117//115 111//109
f 132//130 122//120 115//113
f 128//126 125//123 133//131
f 116//114 134//132 113//111
f 125//123 113//111 134//132
f 126//124 135//133 114//112
f 114//112 135//133 136//134
f 121//119 135//133 126//124
f 121//119 137//135 135//133
f 120//118 137//135 121//119
f 138//136 137//135 120//118
f 114//112 136//134 129//127
f 122//120 138//136 120//118
f 104//102 129//127 130//128
f 132//130 115//113 118//116
f 119//117 127//125 139//137
f 116//114 119//117 139//137
f 116//114 139//137 134//132
f 129//127 136//134 140//138
f 135//133 141//139 136//134
f 138//136 122//120 132//130
f 131//129 124//122 117//115
f 128//126 132//130 118//116
f 134//132 142//140 125//123
f 125//123 142//140 133//131
f 135//133 137//135 143//141
f 143//141 137//135 144//142
f 135//133 143//141 141//139
f 137//135 138//136 144//142
f 129//127 140//138 130//128
f 141//139 145//143 136//134
f 123//121 146//144 131//129
f 123//121 130//128 146//144
f 138//136 132//130 147//145
f 148//146 147//145 128//126
f 147//145 132//130 128//126
f 149//147 133//131 150//148
f 128//126 133//131 149//147
f 148//146 128//126 149//147
f 134//132 151//149 142//140
f 150//148 133//131 142//140
f 141//139 143//141 152//150
f 143//141 144//142 152//150
f 136//134 145//143 140//138
f 145//143 141//139 153//151
f 152//150 153//151 141//139
f 144//142 138//136 147//145
f 154//152 146//144 130//128
f 152//150 155//153 153//151
f 144//142 155//153 152//150
f 148//146 155//153 144//142
f 147//145 148//146 144//142
f 156//154 131//129 146//144
f 155//153 157//155 153//151
f 155//153 150//148 157//155
f 149//147 150//148 155//153
f 148//146 149//147 155//153
f 131//129 156//154 124//122
f 150//148 151//149 157//155
f 150//148 142//140 151//149
f 124//122 158//156 127//125
f 159//157 151//149 139//137
f 151//149 134//132 139//137
f 140//138 154//152 130//128
f 154//152 140//138 160//158
f 140//138 145//143 160//158
f 145//143 161//159 160//158
f 161//159 145//143 153//151
f 146//144 154//152 156//154
f 153//151 162//160 161//159
f 162//160 163//161 161//159
f 153//151 157//155 162//160
f 156//154 158//156 124//122
f 162//160 151//149 163//161
f 157//155 151//149 162//160
f 158//156 164//162 127//125
f 163//161 151//149 159//157
f 139//137 127//125 164//162
f 159//157 139//137 164//162
f 160//158 165//163 154//152
f 156//154 165//163 158//156
f 165//163 156//154 154//152
f 166//164 165//163 160//158
f 161//159 166//164 160//158
f 163//161 166//164 161//159
f 159//157 165//163 166//164
f 163//161 159//157 166//164
f 165//163 164//162 158//156
f 159//157 164//162 165//163
