# Blender v2.92.0 OBJ File: 'convert_to_one_sided.blend'
# www.blender.org
mtllib 281L.mtl
o 281
v 7.741140 0.506819 3.375517
v 7.714871 0.482936 3.409606
v 7.722041 0.511267 3.394506
v 7.735360 0.519928 3.377267
v 7.755870 0.502832 3.434936
v 7.715651 0.525660 3.403706
v 7.719891 0.524613 3.449726
v 7.673161 0.480108 3.458745
v 7.720591 0.436910 3.481855
v 7.680621 0.453098 3.476545
v 7.745920 0.461622 3.455026
v 7.761630 0.471772 3.463615
v 7.671381 0.502227 3.468905
v 7.759900 0.510647 3.499305
v 7.665071 0.509764 3.500265
v 7.753370 0.513586 3.534004
v 7.668161 0.414265 3.555464
v 7.767640 0.420396 3.536015
v 7.777350 0.440340 3.520935
v 7.674301 0.517904 3.531104
v 7.637161 0.443966 3.536075
v 7.798850 0.446625 3.560714
v 7.620272 0.465780 3.545454
v 7.717051 0.513830 3.550274
v 7.598792 0.480991 3.595014
v 7.795929 0.472273 3.563324
v 7.790160 0.484869 3.600114
v 7.605932 0.414326 3.597064
v 7.743230 0.395187 3.605894
v 7.578652 0.428897 3.613804
v 7.618582 0.497112 3.610394
v 7.690041 0.498614 3.627103
v 7.632492 0.387781 3.653183
v 7.797090 0.410969 3.606074
v 7.540243 0.445154 3.673643
v 7.760330 0.490453 3.628203
v 7.566573 0.403181 3.658753
v 7.839829 0.400450 3.676523
v 7.833919 0.430881 3.655923
v 7.822089 0.454956 3.655873
v 7.521983 0.410754 3.704742
v 7.534073 0.462868 3.699232
v 7.534513 0.375180 3.751462
v 7.823619 0.367561 3.716852
v 7.880999 0.394339 3.769181
v 7.536803 0.469644 3.729162
v 7.629782 0.480259 3.709802
v 7.819079 0.459096 3.716922
v 7.722291 0.364978 3.704642
v 7.650681 0.353894 3.754312
v 7.480554 0.421944 3.762091
v 7.855968 0.431087 3.742902
v 7.475064 0.440208 3.786131
v 7.747140 0.334749 3.812621
v 7.883658 0.363598 3.799451
v 7.469934 0.393138 3.793181
v 7.711811 0.475399 3.723982
v 7.858349 0.339354 3.829981
v 7.449254 0.352708 3.866160
v 7.431025 0.406645 3.840850
v 7.867959 0.432548 3.811491
v 7.596202 0.464281 3.798591
v 7.569753 0.335198 3.868390
v 7.942808 0.355717 3.920570
v 7.900448 0.399971 3.850991
v 7.746940 0.444811 3.837771
v 7.915598 0.326573 3.909510
v 7.396015 0.369831 3.898990
v 7.467724 0.446577 3.854200
v 7.835059 0.315854 3.896300
v 7.405565 0.324802 3.989799
v 7.353305 0.382273 3.948089
v 7.383265 0.416246 3.934979
v 7.691911 0.299456 3.968589
v 7.372785 0.342611 3.962649
v 7.943697 0.382139 3.951979
v 7.888319 0.409654 3.929709
v 7.565202 0.438747 3.926810
v 7.967998 0.311975 4.005029
v 7.728540 0.421671 3.986119
v 7.880538 0.295326 4.000978
v 7.313956 0.351692 4.013338
v 7.285386 0.371527 4.037288
v 7.299076 0.392591 4.027848
v 7.992827 0.356996 4.046678
v 7.299926 0.330829 4.072968
v 7.492774 0.306383 4.023778
v 7.303946 0.408937 4.046428
v 7.436184 0.432190 3.938019
v 7.744600 0.273943 4.077737
v 7.510493 0.425529 4.042648
v 8.009467 0.320990 4.076208
v 7.970697 0.377249 4.045268
v 7.863309 0.390164 4.096817
v 7.410244 0.422918 4.002748
v 7.497943 0.286206 4.127996
v 7.992987 0.287957 4.097628
v 7.229307 0.370964 4.124787
v 7.236807 0.394374 4.149257
v 7.878939 0.261371 4.135036
v 7.351146 0.310327 4.115577
v 7.256587 0.336125 4.107727
v 7.244347 0.352075 4.115787
v 8.017227 0.354676 4.112017
v 7.591112 0.410170 4.115097
v 7.651531 0.264573 4.178276
v 8.030646 0.332810 4.139257
v 7.365675 0.410174 4.127887
v 7.191687 0.353948 4.203326
v 7.997417 0.353253 4.136267
v 7.248217 0.401430 4.207466
v 8.009187 0.262490 4.178886
v 7.884539 0.250260 4.195436
v 8.025537 0.299309 4.158667
v 7.233367 0.333583 4.179156
v 7.186677 0.363535 4.233905
v 7.716601 0.387778 4.190916
v 7.785800 0.256047 4.187726
v 7.204628 0.384550 4.247615
v 7.923978 0.347914 4.201286
v 7.459424 0.278917 4.213766
v 7.318326 0.306897 4.217566
v 7.187898 0.346069 4.242255
v 8.017696 0.311102 4.179866
v 7.764280 0.364032 4.228245
v 7.498094 0.395185 4.208506
v 7.762120 0.257760 4.216526
v 7.552052 0.275338 4.232595
v 7.920318 0.258282 4.214556
v 8.006477 0.280587 4.199156
v 7.326096 0.391692 4.239615
v 7.379355 0.300073 4.257626
v 7.651862 0.276487 4.247245
v 7.636412 0.377013 4.232055
v 7.818130 0.264917 4.235606
v 7.908369 0.286559 4.233995
v 7.492944 0.298541 4.265325
v 7.212837 0.334595 4.250265
v 7.970627 0.308244 4.210856
v 7.898849 0.316995 4.228256
v 7.825779 0.341049 4.231586
v 7.703311 0.352283 4.247245
v 7.514293 0.365309 4.258575
v 7.772610 0.284145 4.246345
v 7.625822 0.307261 4.264065
v 7.254666 0.328878 4.272205
v 7.774900 0.317598 4.244646
v 7.197427 0.355666 4.265065
v 7.629822 0.335496 4.258715
v 7.195037 0.372263 4.268645
v 7.321306 0.374629 4.285425
v 7.338305 0.327799 4.283525
v 7.450024 0.330548 4.282265
v 7.527443 0.338154 4.271425
v 7.420044 0.354148 4.280015
v 7.244147 0.374506 4.271105
v 7.260877 0.357031 4.274485
v 7.358245 0.349927 4.280035
vn 0.4242 -0.3618 -0.8301
vn -0.3150 -0.6628 -0.6793
vn -0.6607 0.0222 -0.7504
vn 0.1423 0.7504 -0.6454
vn 0.8755 0.4021 -0.2680
vn -0.5533 0.7339 -0.3940
vn 0.1290 0.9909 -0.0383
vn -0.7666 -0.2519 -0.5907
vn -0.0085 -0.8885 -0.4588
vn -0.4642 -0.7162 -0.5211
vn 0.4222 -0.7431 -0.5192
vn 0.8314 -0.3551 -0.4275
vn -0.8241 0.3390 -0.4539
vn 0.6168 0.7833 -0.0774
vn -0.5215 0.8378 -0.1617
vn 0.3037 0.9463 0.1109
vn -0.2461 -0.8783 -0.4098
vn 0.3832 -0.8335 -0.3980
vn 0.7132 -0.5539 -0.4295
vn -0.1673 0.9841 0.0596
vn -0.6178 -0.5517 -0.5603
vn 0.9018 -0.1998 -0.3832
vn -0.8453 0.0036 -0.5343
vn 0.0671 0.9829 0.1715
vn -0.7179 0.6193 -0.3180
vn 0.8814 0.4357 -0.1823
vn 0.5957 0.8025 0.0323
vn -0.4359 -0.7644 -0.4751
vn 0.0784 -0.9465 -0.3131
vn -0.7380 -0.3724 -0.5627
vn -0.3065 0.9515 0.0268
vn 0.0127 0.9785 0.2057
vn -0.1592 -0.9348 -0.3176
vn 0.5539 -0.7359 -0.3894
vn -0.8439 0.1772 -0.5064
vn 0.2034 0.9578 0.2033
vn -0.4789 -0.7622 -0.4354
vn 0.7778 -0.4533 -0.4354
vn 0.9324 0.2068 -0.2964
vn 0.7808 0.6160 -0.1042
vn -0.7293 -0.4360 -0.5273
vn -0.6987 0.6425 -0.3147
vn -0.3426 -0.8589 -0.3806
vn 0.2887 -0.8895 -0.3541
vn 0.9336 0.0809 -0.3492
vn -0.3555 0.9342 -0.0289
vn -0.0438 0.9830 0.1783
vn 0.4113 0.9069 0.0915
vn -0.0067 -0.9576 -0.2882
vn -0.1021 -0.9579 -0.2684
vn -0.8450 0.0038 -0.5348
vn 0.7933 0.5858 -0.1656
vn -0.7260 0.5997 -0.3365
vn 0.0086 -0.9662 -0.2575
vn 0.6602 -0.6271 -0.4134
vn -0.6829 -0.4863 -0.5451
vn 0.0927 0.9714 0.2187
vn 0.2336 -0.9175 -0.3220
vn -0.3670 -0.8334 -0.4132
vn -0.8365 0.0883 -0.5408
vn 0.5050 0.8626 0.0292
vn -0.0144 0.9832 0.1822
vn -0.1161 -0.9609 -0.2512
vn 0.9079 -0.0739 -0.4127
vn 0.7934 0.5857 -0.1658
vn 0.1135 0.9749 0.1916
vn 0.4284 -0.8279 -0.3620
vn -0.6761 -0.4680 -0.5691
vn -0.2594 0.9651 0.0362
vn 0.0942 -0.9628 -0.2533
vn -0.1929 -0.9497 -0.2466
vn -0.8008 0.0626 -0.5956
vn -0.5666 0.7790 -0.2687
vn -0.0449 -0.9756 -0.2148
vn -0.4252 -0.8108 -0.4023
vn 0.7155 0.6665 -0.2091
vn 0.3333 0.9404 0.0674
vn -0.0052 0.9887 0.1497
vn 0.5791 -0.7148 -0.3920
vn 0.0833 0.9846 0.1536
vn 0.1189 -0.9609 -0.2502
vn -0.6566 -0.5464 -0.5198
vn -0.8158 -0.1114 -0.5675
vn -0.7338 0.4923 -0.4682
vn 0.8605 0.4165 -0.2934
vn -0.3327 -0.9038 -0.2690
vn -0.1159 -0.9728 -0.2005
vn -0.3570 0.9235 -0.1401
vn -0.1854 0.9792 0.0818
vn -0.0348 -0.9806 -0.1931
vn 0.0003 0.9916 0.1295
vn 0.9020 -0.2574 -0.3467
vn 0.4343 0.9007 0.0025
vn 0.1507 0.9686 0.1979
vn -0.1286 0.9906 0.0470
vn -0.1212 -0.9803 -0.1556
vn 0.4983 -0.8074 -0.3159
vn -0.8760 0.1828 -0.4464
vn -0.5399 0.8221 -0.1810
vn 0.0394 -0.9774 -0.2075
vn -0.1973 -0.9689 -0.1492
vn -0.6033 -0.7163 -0.3507
vn -0.7743 -0.4541 -0.4407
vn 0.6548 0.7552 0.0292
vn 0.0487 0.9831 0.1767
vn -0.0672 -0.9961 -0.0580
vn 0.9344 0.3466 0.0819
vn -0.0490 0.9935 0.1023
vn -0.8658 -0.3815 -0.3238
vn 0.3726 0.8575 0.3547
vn -0.1382 0.9852 0.1011
vn 0.4597 -0.8847 0.0769
vn 0.0289 -0.9979 0.0578
vn 0.9513 -0.3040 0.0507
vn -0.4583 -0.8707 -0.1783
vn -0.9565 0.2916 0.0081
vn 0.1066 0.9428 0.3160
vn -0.0538 -0.9958 -0.0736
vn -0.3836 0.8894 0.2485
vn 0.2634 0.7576 0.5972
vn -0.1289 -0.9904 0.0496
vn -0.2140 -0.9765 0.0237
vn -0.8061 -0.5833 0.0997
vn 0.6876 0.4194 0.5928
vn 0.1438 0.7493 0.6465
vn 0.0381 0.9433 0.3298
vn -0.0358 -0.9638 0.2644
vn -0.0638 -0.9412 0.3318
vn 0.1636 -0.7934 0.5864
vn 0.6200 -0.2517 0.7431
vn 0.0142 0.9279 0.3725
vn -0.1198 -0.8885 0.4429
vn -0.0044 -0.6947 0.7193
vn 0.0758 0.8192 0.5684
vn 0.0565 -0.6581 0.7508
vn 0.2035 -0.1364 0.9695
vn -0.0094 -0.6324 0.7746
vn -0.3981 -0.8853 0.2404
vn 0.3761 0.3344 0.8642
vn 0.2037 0.3538 0.9129
vn 0.1714 0.4566 0.8730
vn 0.1152 0.4637 0.8785
vn 0.0982 0.6541 0.7500
vn 0.0759 -0.2509 0.9650
vn 0.0887 -0.1296 0.9876
vn -0.2405 -0.6927 0.6800
vn 0.1221 0.1567 0.9801
vn -0.6184 -0.3416 0.7077
vn 0.1107 0.2622 0.9586
vn -0.5389 0.3743 0.7547
vn -0.0109 0.4224 0.9063
vn -0.0628 -0.3327 0.9409
vn 0.0503 -0.0575 0.9971
vn 0.1244 0.2877 0.9496
vn 0.0848 0.2391 0.9673
vn -0.1134 0.6616 0.7412
vn -0.1426 -0.0201 0.9896
vn -0.0210 0.0111 0.9997
usemtl mtl1.1116
s 1
f 1//1 2//2 3//3
f 1//1 3//3 4//4
f 4//4 5//5 1//1
f 4//4 3//3 6//6
f 7//7 4//4 6//6
f 2//2 8//8 3//3
f 4//4 7//7 5//5
f 2//2 9//9 10//10
f 9//9 2//2 11//11
f 2//2 10//10 8//8
f 1//1 11//11 2//2
f 1//1 5//5 12//12
f 8//8 13//13 3//3
f 3//3 13//13 6//6
f 5//5 7//7 14//14
f 6//6 13//13 15//15
f 6//6 15//15 7//7
f 12//12 11//11 1//1
f 7//7 16//16 14//14
f 10//10 9//9 17//17
f 11//11 18//18 9//9
f 18//18 11//11 19//19
f 11//11 12//12 19//19
f 15//15 20//20 7//7
f 21//21 10//10 17//17
f 21//21 8//8 10//10
f 19//19 12//12 22//22
f 13//13 8//8 23//23
f 12//12 5//5 22//22
f 7//7 20//20 24//24
f 25//25 13//13 23//23
f 22//22 5//5 26//26
f 13//13 25//25 15//15
f 26//26 5//5 14//14
f 27//27 14//14 16//16
f 7//7 24//24 16//16
f 21//21 17//17 28//28
f 9//9 29//29 17//17
f 9//9 18//18 29//29
f 8//8 21//21 23//23
f 27//27 26//26 14//14
f 23//23 21//21 30//30
f 25//25 31//31 15//15
f 15//15 31//31 20//20
f 20//20 32//32 24//24
f 29//29 33//33 17//17
f 18//18 34//34 29//29
f 18//18 19//19 34//34
f 21//21 28//28 30//30
f 34//34 19//19 22//22
f 30//30 35//35 23//23
f 35//35 25//25 23//23
f 27//27 16//16 36//36
f 28//28 17//17 33//33
f 28//28 37//37 30//30
f 34//34 22//22 38//38
f 39//39 26//26 40//40
f 22//22 26//26 39//39
f 20//20 31//31 32//32
f 24//24 36//36 16//16
f 37//37 28//28 33//33
f 30//30 37//37 41//41
f 38//38 22//22 39//39
f 42//42 25//25 35//35
f 26//26 27//27 40//40
f 43//43 37//37 33//33
f 29//29 34//34 44//44
f 38//38 44//44 34//34
f 38//38 39//39 45//45
f 41//41 35//35 30//30
f 25//25 42//42 46//46
f 31//31 25//25 46//46
f 47//47 31//31 46//46
f 27//27 36//36 48//48
f 32//32 31//31 47//47
f 24//24 32//32 36//36
f 33//33 49//49 50//50
f 29//29 49//49 33//33
f 29//29 44//44 49//49
f 37//37 43//43 41//41
f 35//35 41//41 51//51
f 39//39 40//40 52//52
f 27//27 48//48 40//40
f 43//43 33//33 50//50
f 45//45 39//39 52//52
f 53//53 35//35 51//51
f 42//42 35//35 53//53
f 40//40 48//48 52//52
f 44//44 54//54 49//49
f 44//44 38//38 55//55
f 45//45 55//55 38//38
f 41//41 56//56 51//51
f 32//32 47//47 57//57
f 36//36 32//32 57//57
f 48//48 36//36 57//57
f 49//49 54//54 50//50
f 44//44 58//58 54//54
f 43//43 59//59 56//56
f 41//41 43//43 56//56
f 51//51 56//56 60//60
f 48//48 61//61 52//52
f 46//46 42//42 53//53
f 47//47 46//46 62//62
f 57//57 47//47 62//62
f 63//63 50//50 54//54
f 58//58 44//44 55//55
f 55//55 45//45 64//64
f 45//45 52//52 65//65
f 53//53 51//51 60//60
f 48//48 57//57 66//66
f 61//61 48//48 66//66
f 59//59 43//43 63//63
f 50//50 63//63 43//43
f 58//58 55//55 67//67
f 68//68 60//60 56//56
f 64//64 45//45 65//65
f 65//65 52//52 61//61
f 53//53 69//69 46//46
f 46//46 69//69 62//62
f 57//57 62//62 66//66
f 58//58 70//70 54//54
f 59//59 63//63 71//71
f 59//59 68//68 56//56
f 60//60 68//68 72//72
f 60//60 73//73 53//53
f 54//54 74//74 63//63
f 54//54 70//70 74//74
f 59//59 75//75 68//68
f 55//55 64//64 67//67
f 64//64 65//65 76//76
f 73//73 60//60 72//72
f 65//65 61//61 77//77
f 69//69 53//53 73//73
f 69//69 78//78 62//62
f 66//66 62//62 78//78
f 58//58 67//67 70//70
f 71//71 75//75 59//59
f 79//79 67//67 64//64
f 77//77 76//76 65//65
f 78//78 80//80 66//66
f 61//61 66//66 77//77
f 81//81 70//70 67//67
f 68//68 75//75 82//82
f 72//72 82//82 83//83
f 68//68 82//82 72//72
f 84//84 72//72 83//83
f 64//64 76//76 85//85
f 66//66 80//80 77//77
f 70//70 81//81 74//74
f 75//75 71//71 86//86
f 63//63 87//87 71//71
f 63//63 74//74 87//87
f 72//72 84//84 73//73
f 88//88 73//73 84//84
f 69//69 73//73 89//89
f 69//69 89//89 78//78
f 74//74 81//81 90//90
f 67//67 79//79 81//81
f 78//78 91//91 80//80
f 92//92 79//79 64//64
f 92//92 64//64 85//85
f 76//76 77//77 93//93
f 77//77 94//94 93//93
f 73//73 88//88 95//95
f 73//73 95//95 89//89
f 96//96 74//74 90//90
f 81//81 79//79 97//97
f 82//82 75//75 86//86
f 84//84 83//83 98//98
f 99//99 84//84 98//98
f 93//93 85//85 76//76
f 84//84 99//99 88//88
f 77//77 80//80 94//94
f 89//89 95//95 78//78
f 81//81 97//97 100//100
f 74//74 96//96 87//87
f 71//71 101//101 86//86
f 87//87 101//101 71//71
f 97//97 79//79 92//92
f 82//82 102//102 103//103
f 83//83 82//82 103//103
f 104//104 85//85 93//93
f 80//80 91//91 105//105
f 80//80 105//105 94//94
f 81//81 100//100 90//90
f 82//82 86//86 102//102
f 83//83 103//103 98//98
f 78//78 95//95 91//91
f 90//90 100//100 106//106
f 92//92 85//85 107//107
f 85//85 104//104 107//107
f 95//95 88//88 108//108
f 95//95 108//108 91//91
f 90//90 106//106 96//96
f 101//101 87//87 96//96
f 103//103 109//109 98//98
f 93//93 94//94 110//110
f 88//88 99//99 108//108
f 99//99 111//111 108//108
f 100//100 112//112 113//113
f 100//100 97//97 112//112
f 97//97 92//92 114//114
f 102//102 86//86 115//115
f 115//115 103//103 102//102
f 92//92 107//107 114//114
f 116//116 98//98 109//109
f 110//110 107//107 104//104
f 98//98 116//116 99//99
f 117//117 94//94 105//105
f 110//110 104//104 93//93
f 91//91 108//108 105//105
f 100//100 118//118 106//106
f 100//100 113//113 118//118
f 114//114 112//112 97//97
f 86//86 101//101 115//115
f 119//119 99//99 116//116
f 94//94 117//117 120//120
f 110//110 94//94 120//120
f 99//99 119//119 111//111
f 96//96 106//106 121//121
f 96//96 122//122 101//101
f 122//122 115//115 101//101
f 115//115 123//123 109//109
f 115//115 109//109 103//103
f 124//124 114//114 107//107
f 120//120 117//117 125//125
f 108//108 126//126 105//105
f 117//117 105//105 126//126
f 118//118 127//127 106//106
f 106//106 127//127 128//128
f 113//113 127//127 118//118
f 113//113 129//129 127//127
f 112//112 129//129 113//113
f 130//130 129//129 112//112
f 106//106 128//128 121//121
f 114//114 130//130 112//112
f 96//96 121//121 122//122
f 124//124 107//107 110//110
f 111//111 119//119 131//131
f 108//108 111//111 131//131
f 108//108 131//131 126//126
f 121//121 128//128 132//132
f 127//127 133//133 128//128
f 130//130 114//114 124//124
f 123//123 116//116 109//109
f 120//120 124//124 110//110
f 126//126 134//134 117//117
f 117//117 134//134 125//125
f 127//127 129//129 135//135
f 135//135 129//129 136//136
f 127//127 135//135 133//133
f 129//129 130//130 136//136
f 121//121 132//132 122//122
f 133//133 137//137 128//128
f 115//115 138//138 123//123
f 115//115 122//122 138//138
f 130//130 124//124 139//139
f 140//140 139//139 120//120
f 139//139 124//124 120//120
f 141//141 125//125 142//142
f 120//120 125//125 141//141
f 140//140 120//120 141//141
f 126//126 143//143 134//134
f 142//142 125//125 134//134
f 133//133 135//135 144//144
f 135//135 136//136 144//144
f 128//128 137//137 132//132
f 137//137 133//133 145//145
f 144//144 145//145 133//133
f 136//136 130//130 139//139
f 146//146 138//138 122//122
f 144//144 147//147 145//145
f 136//136 147//147 144//144
f 140//140 147//147 136//136
f 139//139 140//140 136//136
f 148//148 123//123 138//138
f 147//147 149//149 145//145
f 147//147 142//142 149//149
f 141//141 142//142 147//147
f 140//140 141//141 147//147
f 123//123 148//148 116//116
f 142//142 143//143 149//149
f 142//142 134//134 143//143
f 116//116 150//150 119//119
f 151//151 143//143 131//131
f 143//143 126//126 131//131
f 132//132 146//146 122//122
f 146//146 132//132 152//152
f 132//132 137//137 152//152
f 137//137 153//153 152//152
f 153//153 137//137 145//145
f 138//138 146//146 148//148
f 145//145 154//154 153//153
f 154//154 155//155 153//153
f 145//145 149//149 154//154
f 148//148 150//150 116//116
f 154//154 143//143 155//155
f 149//149 143//143 154//154
f 150//150 156//156 119//119
f 155//155 143//143 151//151
f 131//131 119//119 156//156
f 151//151 131//131 156//156
f 152//152 157//157 146//146
f 148//148 157//157 150//150
f 157//157 148//148 146//146
f 158//158 157//157 152//152
f 153//153 158//158 152//152
f 155//155 158//158 153//153
f 151//151 157//157 158//158
f 155//155 151//151 158//158
f 157//157 156//156 150//150
f 151//151 156//156 157//157
