# Blender v2.92.0 OBJ File: 'convert_to_one_sided.blend'
# www.blender.org
mtllib 286L.mtl
o Cube
v 0.001000 0.001000 -0.001000
v 0.001000 -0.001000 -0.001000
v 0.001000 0.001000 0.001000
v 0.001000 -0.001000 0.001000
v -0.001000 0.001000 -0.001000
v -0.001000 -0.001000 -0.001000
v -0.001000 0.001000 0.001000
v -0.001000 -0.001000 0.001000
vt 0.625000 0.500000
vt 0.875000 0.500000
vt 0.875000 0.750000
vt 0.625000 0.750000
vt 0.375000 0.750000
vt 0.625000 1.000000
vt 0.375000 1.000000
vt 0.375000 0.000000
vt 0.625000 0.000000
vt 0.625000 0.250000
vt 0.375000 0.250000
vt 0.125000 0.500000
vt 0.375000 0.500000
vt 0.125000 0.750000
vn 0.0000 1.0000 0.0000
vn 0.0000 0.0000 1.0000
vn -1.0000 0.0000 0.0000
vn 0.0000 -1.0000 0.0000
vn 1.0000 0.0000 0.0000
vn 0.0000 0.0000 -1.0000
usemtl Material
s off
f 1/1/1 5/2/1 7/3/1 3/4/1
f 4/5/2 3/4/2 7/6/2 8/7/2
f 8/8/3 7/9/3 5/10/3 6/11/3
f 6/12/4 2/13/4 4/5/4 8/14/4
f 2/13/5 1/1/5 3/4/5 4/5/5
f 6/11/6 5/10/6 1/1/6 2/13/6
o 286
v 5.836245 6.798021 5.402501
v 5.782666 6.777572 5.431341
v 5.804695 6.854851 5.397222
v 5.914474 6.813271 5.413141
v 5.703627 6.849631 5.433771
v 5.907074 6.882560 5.405511
v 6.009742 6.864701 5.432191
v 5.738826 6.895670 5.423311
v 5.977623 6.927210 5.440791
v 5.826775 6.922190 5.437261
v 5.919363 6.737262 5.463991
v 5.705116 6.790902 5.460250
v 6.001762 6.799521 5.449861
v 5.685667 6.887801 5.456741
v 5.916614 6.964079 5.471241
v 5.756506 6.741013 5.483720
v 5.670017 6.814682 5.484341
v 5.666537 6.857191 5.481560
v 6.085991 6.833931 5.481580
v 6.083172 6.910010 5.491261
v 5.726127 6.922280 5.491550
v 5.831405 6.966409 5.502490
v 6.014202 6.963999 5.497710
v 6.043622 6.765352 5.495680
v 5.936414 6.981849 5.514010
v 5.834945 6.711133 5.497740
v 5.707206 6.769422 5.497020
v 6.119151 6.813251 5.531100
v 6.129431 6.881320 5.536620
v 5.670697 6.880240 5.513290
v 5.910404 6.685453 5.521030
v 5.994063 6.717292 5.535150
v 5.773036 6.723562 5.526480
v 6.066732 6.757182 5.541709
v 5.695757 6.783992 5.528790
v 5.668837 6.836841 5.525850
v 6.001813 6.985089 5.542150
v 5.858824 6.690573 5.535959
v 5.719397 6.907930 5.582629
v 5.792066 6.950249 5.576699
v 6.087031 6.941760 5.548880
v 5.926013 6.975199 5.577149
v 5.918624 6.691663 5.556739
v 5.838155 6.725482 5.584919
v 6.064972 6.750992 5.563260
v 6.111191 6.798632 5.559259
v 6.130581 6.853431 5.573839
v 6.119872 6.908120 5.583369
v 5.701087 6.862871 5.588049
v 6.012983 6.750702 5.593709
v 5.748216 6.768672 5.573509
v 5.722656 6.817572 5.587339
v 6.087741 6.817031 5.597909
v 6.090531 6.942039 5.615018
v 6.030882 6.960340 5.606039
v 5.925014 6.738462 5.608949
v 5.784535 6.793532 5.645958
v 6.095091 6.894610 5.640598
v 5.790365 6.934640 5.641899
v 5.888915 6.962450 5.651258
v 5.979873 6.965829 5.649938
v 5.876684 6.766322 5.655108
v 5.973923 6.779952 5.664478
v 6.054332 6.829511 5.661108
v 5.740816 6.849941 5.657568
v 5.751846 6.904610 5.672258
v 6.053592 6.957819 5.695037
v 6.030032 6.807571 5.698038
v 5.806041 6.773429 5.699999
v 5.750520 6.816660 5.699999
v 5.729277 6.865726 5.699999
v 5.737721 6.893381 5.699999
v 6.106996 6.880023 5.699999
v 6.106115 6.911965 5.699999
v 5.790697 6.931702 5.699999
v 5.748775 6.909006 5.699999
v 6.059010 6.955147 5.699999
v 5.818483 6.952165 5.699999
v 6.032379 6.961644 5.699999
v 6.049158 6.959854 5.699999
v 6.053930 6.958260 5.699999
v 5.854538 6.961746 5.699999
v 5.933217 6.972461 5.699999
v 5.735723 6.837564 5.699999
v 6.028896 6.805323 5.699999
v 6.032128 6.807539 5.699999
v 5.906756 6.753478 5.699999
v 5.843525 6.763348 5.699999
v 5.943175 6.760008 5.699999
v 5.991201 6.772337 5.699999
v 6.088364 6.855082 5.699999
v 6.064656 6.818423 5.699999
v 5.958696 6.973470 5.699999
vn -0.0226 -0.4269 -0.9040
vn -0.2547 -0.5745 -0.7779
vn -0.1361 0.0600 -0.9889
vn 0.2180 -0.2610 -0.9404
vn -0.5850 -0.1133 -0.8031
vn 0.1164 0.2622 -0.9580
vn 0.4034 0.0219 -0.9148
vn -0.3362 0.5618 -0.7559
vn 0.2293 0.5637 -0.7935
vn -0.1158 0.7041 -0.7006
vn 0.1711 -0.6897 -0.7036
vn -0.5551 -0.5757 -0.6003
vn 0.3709 -0.4288 -0.8238
vn -0.7263 0.5074 -0.4637
vn -0.0001 0.8347 -0.5507
vn -0.3944 -0.8155 -0.4236
vn -0.8788 -0.4054 -0.2518
vn -0.9585 0.0658 -0.2774
vn 0.6409 -0.1849 -0.7450
vn 0.6054 0.4389 -0.6639
vn -0.4474 0.8747 -0.1864
vn -0.2244 0.9501 -0.2165
vn 0.3111 0.8214 -0.4780
vn 0.4831 -0.6465 -0.5905
vn -0.0176 0.9781 -0.2076
vn -0.1901 -0.8569 -0.4791
vn -0.6454 -0.7482 -0.1538
vn 0.8424 -0.4294 -0.3255
vn 0.9177 0.2204 -0.3306
vn -0.8731 0.4703 0.1286
vn 0.0971 -0.9510 -0.2935
vn 0.4045 -0.9058 -0.1262
vn -0.4691 -0.8753 0.1174
vn 0.6125 -0.7552 -0.2337
vn -0.7367 -0.5963 0.3188
vn -0.9356 -0.1735 0.3073
vn 0.2095 0.9776 -0.0204
vn -0.2330 -0.9672 0.1009
vn -0.6544 0.7195 0.2327
vn -0.3400 0.9335 0.1140
vn 0.6011 0.7800 -0.1743
vn -0.0662 0.9904 0.1214
vn 0.1188 -0.9032 0.4124
vn -0.2551 -0.8054 0.5350
vn 0.5441 -0.7742 0.3235
vn 0.7897 -0.5741 0.2164
vn 0.9406 -0.1741 0.2916
vn 0.9061 0.3944 0.1532
vn -0.8856 0.0541 0.4612
vn 0.3695 -0.7675 0.5239
vn -0.5544 -0.6653 0.4999
vn -0.7315 -0.4456 0.5161
vn 0.6459 -0.4839 0.5904
vn 0.6843 0.7106 0.1637
vn 0.2375 0.9686 0.0741
vn 0.0793 -0.8047 0.5883
vn -0.5884 -0.7722 0.2397
vn 0.9741 0.0400 0.2224
vn -0.4347 0.8943 0.1064
vn -0.1584 0.9874 0.0053
vn 0.0679 0.9976 -0.0117
vn -0.0922 -0.9818 0.1662
vn 0.3581 -0.9324 0.0480
vn 0.6878 -0.7242 0.0489
vn -0.9572 -0.2690 0.1064
vn -0.7976 0.6005 0.0581
vn 0.4208 0.9031 -0.0853
vn 0.0728 -0.8287 0.5549
vn 0.1546 -0.8444 0.5129
vn 0.4813 -0.7856 -0.3888
vn 0.6195 -0.4528 0.6412
vn 0.7933 -0.2374 0.5607
vn -0.1578 -0.7726 0.6149
vn 0.4316 -0.7264 0.5348
vn 0.5479 -0.6747 0.4946
vn -0.5780 -0.5316 0.6191
vn -0.7389 -0.3210 0.5925
vn 0.5597 -0.6383 0.5284
vn 0.7369 0.4208 0.5291
vn 0.3572 -0.7514 0.5548
vn 0.3012 0.6892 0.6590
vn 0.5534 0.6048 0.5727
vn 0.1066 0.8111 0.5752
vn -0.0601 0.7716 0.6332
vn -0.1721 0.7582 0.6289
vn 0.0852 0.7281 0.6801
vn -0.2922 0.7263 0.6222
vn -0.4467 0.5715 0.6884
vn -0.5709 0.6194 0.5389
vn -0.7988 0.3287 0.5038
vn -0.8368 0.1175 0.5348
vn -0.2752 -0.7370 0.6174
vn 0.0162 0.7661 0.6425
usemtl mtl1.266
s 1
f 9//7 10//8 11//9
f 12//10 9//7 11//9
f 11//9 10//8 13//11
f 14//12 12//10 11//9
f 12//10 14//12 15//13
f 13//11 16//14 11//9
f 15//13 14//12 17//15
f 11//9 16//14 18//16
f 11//9 18//16 14//12
f 18//16 17//15 14//12
f 19//17 9//7 12//10
f 20//18 13//11 10//8
f 21//19 12//10 15//13
f 13//11 22//20 16//14
f 17//15 18//16 23//21
f 10//8 9//7 19//17
f 20//18 10//8 24//22
f 21//19 19//17 12//10
f 13//11 20//18 25//23
f 26//24 13//11 25//23
f 21//19 15//13 27//25
f 13//11 26//24 22//20
f 28//26 15//13 17//15
f 16//14 22//20 29//27
f 18//16 16//14 29//27
f 30//28 18//16 29//27
f 18//16 30//28 23//21
f 31//29 17//15 23//21
f 21//19 32//30 19//17
f 21//19 27//25 32//30
f 27//25 15//13 28//26
f 31//29 28//26 17//15
f 23//21 30//28 33//31
f 31//29 23//21 33//31
f 19//17 34//32 10//8
f 10//8 34//32 24//22
f 20//18 35//33 25//23
f 35//33 20//18 24//22
f 27//25 36//34 32//30
f 28//26 37//35 27//25
f 38//36 22//20 26//24
f 22//20 38//36 29//27
f 19//17 39//37 34//32
f 19//17 40//38 39//37
f 32//30 40//38 19//17
f 41//39 24//22 34//32
f 40//38 32//30 42//40
f 41//39 35//33 24//22
f 36//34 42//40 32//30
f 35//33 43//41 25//23
f 44//42 26//24 25//23
f 36//34 27//25 37//35
f 44//42 38//36 26//24
f 31//29 33//31 45//43
f 46//44 34//32 39//37
f 46//44 41//39 34//32
f 29//27 38//36 47//45
f 48//46 29//27 47//45
f 31//29 49//47 28//26
f 49//47 37//35 28//26
f 30//28 29//27 48//46
f 33//31 30//28 50//48
f 39//37 40//38 51//49
f 52//50 41//39 46//44
f 42//40 53//51 40//38
f 54//52 53//51 42//40
f 43//41 35//33 41//39
f 25//23 43//41 44//42
f 42//40 36//34 54//52
f 36//34 37//35 55//53
f 55//53 37//35 56//54
f 44//42 57//55 38//36
f 38//36 57//55 47//45
f 30//28 48//46 50//48
f 45//43 49//47 31//29
f 45//43 33//31 50//48
f 46//44 39//37 51//49
f 51//49 52//50 46//44
f 40//38 58//56 51//49
f 40//38 53//51 58//56
f 59//57 41//39 52//50
f 41//39 59//57 43//41
f 59//57 60//58 43//41
f 43//41 60//58 44//42
f 36//34 55//53 54//52
f 54//52 55//53 61//59
f 56//54 37//35 49//47
f 62//60 56//54 49//47
f 45//43 63//61 49//47
f 45//43 50//48 63//61
f 58//56 64//62 51//49
f 54//52 61//59 53//51
f 44//42 60//58 57//55
f 63//61 62//60 49//47
f 52//50 51//49 64//62
f 59//57 52//50 65//63
f 61//59 58//56 53//51
f 59//57 65//63 60//58
f 55//53 66//64 61//59
f 62//60 66//64 56//54
f 47//45 67//65 48//46
f 48//46 67//65 68//66
f 50//48 69//67 63//61
f 52//50 64//62 70//68
f 65//63 52//50 70//68
f 71//69 70//68 64//62
f 71//69 64//62 58//56
f 72//70 71//69 58//56
f 58//56 61//59 72//70
f 65//63 73//71 60//58
f 57//55 60//58 73//71
f 61//59 66//64 72//70
f 47//45 57//55 74//72
f 67//65 47//45 74//72
f 62//60 75//73 66//64
f 62//60 63//61 75//73
f 50//48 48//46 68//66
f 68//66 69//67 50//48
f 75//73 63//61 69//67
f 95//74 71//69 97//75
f 72//70 76//76 71//69
f 57//55 73//71 74//72
f 99//77 66//64 81//78
f 55//53 56//54 66//64
f 95//74 96//79 70//68
f 98//80 76//76 93//81
f 73//71 78//82 92//83
f 100//84 72//70 99//77
f 81//78 66//64 82//85
f 94//86 93//81 76//76
f 89//87 85//88 75//73
f 89//87 75//73 88//89
f 71//69 98//80 97//75
f 76//76 100//84 94//86
f 91//90 69//67 68//66
f 68//66 90//91 91//90
f 69//67 87//92 75//73
f 75//73 87//92 88//89
f 68//66 86//93 90//91
f 67//65 83//94 86//93
f 74//72 84//95 83//94
f 75//73 82//85 66//64
f 74//72 80//96 84//95
f 73//71 92//83 79//97
f 79//97 74//72 73//71
f 94//86 99//77 87//92
f 70//68 77//98 65//63
f 65//63 77//98 78//82
f 95//74 70//68 71//69
f 99//77 72//70 66//64
f 98//80 71//69 76//76
f 73//71 65//63 78//82
f 76//76 72//70 100//84
f 91//90 101//99 69//67
f 69//67 101//99 87//92
f 68//66 67//65 86//93
f 67//65 74//72 83//94
f 75//73 85//88 82//85
f 79//97 80//96 74//72
f 90//91 86//93 83//94
f 83//94 84//95 78//82
f 84//95 80//96 78//82
f 80//96 79//97 92//83
f 92//83 78//82 80//96
f 78//82 77//98 83//94
f 77//98 96//79 83//94
f 96//79 95//74 90//91
f 83//94 96//79 90//91
f 95//74 97//75 90//91
f 97//75 98//80 91//90
f 91//90 98//80 93//81
f 91//90 90//91 97//75
f 87//92 101//99 94//86
f 101//99 91//90 93//81
f 94//86 101//99 93//81
f 89//87 88//89 85//88
f 88//89 87//92 85//88
f 82//85 85//88 99//77
f 99//77 85//88 87//92
f 99//77 81//78 82//85
f 94//86 100//84 99//77
f 70//68 96//79 77//98
