# Blender v2.92.0 OBJ File: 'convert_to_one_sided.blend'
# www.blender.org
mtllib 292L.mtl
o Cube
v 0.001000 0.001000 -0.001000
v 0.001000 -0.001000 -0.001000
v 0.001000 0.001000 0.001000
v 0.001000 -0.001000 0.001000
v -0.001000 0.001000 -0.001000
v -0.001000 -0.001000 -0.001000
v -0.001000 0.001000 0.001000
v -0.001000 -0.001000 0.001000
vt 0.625000 0.500000
vt 0.875000 0.500000
vt 0.875000 0.750000
vt 0.625000 0.750000
vt 0.375000 0.750000
vt 0.625000 1.000000
vt 0.375000 1.000000
vt 0.375000 0.000000
vt 0.625000 0.000000
vt 0.625000 0.250000
vt 0.375000 0.250000
vt 0.125000 0.500000
vt 0.375000 0.500000
vt 0.125000 0.750000
vn 0.0000 1.0000 0.0000
vn 0.0000 0.0000 1.0000
vn -1.0000 0.0000 0.0000
vn 0.0000 -1.0000 0.0000
vn 1.0000 0.0000 0.0000
vn 0.0000 0.0000 -1.0000
usemtl Material
s off
f 1/1/1 5/2/1 7/3/1 3/4/1
f 4/5/2 3/4/2 7/6/2 8/7/2
f 8/8/3 7/9/3 5/10/3 6/11/3
f 6/12/4 2/13/4 4/5/4 8/14/4
f 2/13/5 1/1/5 3/4/5 4/5/5
f 6/11/6 5/10/6 1/1/6 2/13/6
o 292
v 6.377648 7.073569 3.648554
v 6.327798 7.081848 3.664084
v 6.354368 7.142898 3.647924
v 6.423647 7.088118 3.687324
v 6.304449 7.135478 3.672494
v 6.298629 7.084239 3.688854
v 6.394857 7.140677 3.667694
v 6.384208 7.145648 3.706853
v 6.383868 7.003530 3.715044
v 6.329218 7.142658 3.699764
v 6.339028 6.996749 3.740383
v 6.422837 7.022759 3.718043
v 6.307419 7.043109 3.720193
v 6.424607 7.116608 3.713393
v 6.295899 7.069408 3.732173
v 6.305758 7.099988 3.748823
v 6.458957 7.019029 3.769763
v 6.452707 7.072478 3.763693
v 6.425357 6.974300 3.790823
v 6.426177 7.108148 3.759213
v 6.357838 7.104168 3.788713
v 6.379418 6.963520 3.801052
v 6.460727 7.016029 3.838112
v 6.304019 7.034559 3.809722
v 6.411618 7.100538 3.789432
v 6.329238 6.995359 3.808442
v 6.438287 7.055109 3.829722
v 6.329309 7.058689 3.825132
v 6.419908 6.953760 3.849172
v 6.440637 6.983079 3.831992
v 6.326358 6.992239 3.861562
v 6.403388 7.062799 3.843312
v 6.342148 6.972740 3.869262
v 6.385108 6.969950 3.866271
v 6.334709 7.016389 3.861062
v 6.445467 6.999369 3.879471
v 6.366918 7.035599 3.858171
v 6.428467 6.983250 3.863072
v 6.371078 6.992290 3.875351
v 6.410478 7.015539 3.867201
v 6.410728 6.993279 3.867371
vn 0.2397 -0.3474 -0.9066
vn -0.4666 -0.3981 -0.7898
vn 0.0183 0.6062 -0.7951
vn 0.7929 0.0418 -0.6080
vn -0.8524 0.4085 -0.3264
vn -0.8650 -0.2486 -0.4358
vn 0.6146 0.6573 -0.4361
vn 0.2309 0.9587 0.1658
vn 0.0322 -0.7941 -0.6069
vn -0.3191 0.9300 0.1825
vn -0.4783 -0.7722 -0.4182
vn 0.5815 -0.5438 -0.6051
vn -0.7853 -0.5315 -0.3174
vn 0.7920 0.6025 -0.0981
vn -0.9931 -0.1169 -0.0038
vn -0.7499 0.5516 0.3651
vn 0.8974 -0.3386 -0.2828
vn 0.9302 0.3671 0.0064
vn 0.4871 -0.8027 -0.3441
vn 0.6175 0.7383 0.2712
vn -0.1930 0.8025 0.5646
vn -0.2123 -0.9639 -0.1609
vn 0.9622 -0.1084 0.2497
vn -0.9440 0.0654 0.3234
vn 0.2749 0.8234 0.4963
vn -0.7142 -0.6976 -0.0565
vn 0.5706 0.6067 0.5535
vn -0.5165 0.5835 0.6268
vn 0.3989 -0.8910 0.2169
vn 0.8181 -0.5698 0.0778
vn -0.7735 -0.2043 0.6000
vn 0.1362 0.6582 0.7404
vn -0.4336 -0.7065 0.5593
vn -0.0635 -0.7737 0.6304
vn -0.4970 0.3408 0.7980
vn 0.3895 -0.0265 0.9206
vn -0.1511 0.5277 0.8359
vn 0.5063 -0.5774 0.6406
vn -0.0817 -0.0082 0.9966
vn 0.0840 0.3428 0.9357
vn 0.0428 -0.2659 0.9631
usemtl mtl1.271
s 1
f 9//7 10//8 11//9
f 12//10 9//7 11//9
f 13//11 10//8 14//12
f 11//9 10//8 13//11
f 12//10 11//9 15//13
f 16//14 15//13 11//9
f 9//7 17//15 10//8
f 13//11 18//16 11//9
f 18//16 16//14 11//9
f 17//15 19//17 10//8
f 20//18 17//15 9//7
f 9//7 12//10 20//18
f 19//17 21//19 10//8
f 10//8 21//19 14//12
f 15//13 22//20 12//10
f 15//13 16//14 22//20
f 14//12 23//21 13//11
f 13//11 24//22 18//16
f 20//18 12//10 25//23
f 14//12 21//19 23//21
f 26//24 25//23 12//10
f 12//10 22//20 26//24
f 23//21 24//22 13//11
f 27//25 17//15 20//18
f 27//25 20//18 25//23
f 16//14 28//26 22//20
f 18//16 24//22 29//27
f 30//28 19//17 17//15
f 31//29 25//23 26//24
f 32//30 24//22 23//21
f 28//26 26//24 22//20
f 29//27 33//31 16//14
f 33//31 28//26 16//14
f 16//14 18//16 29//27
f 19//17 30//28 34//32
f 27//25 30//28 17//15
f 19//17 34//32 21//19
f 23//21 34//32 32//30
f 23//21 21//19 34//32
f 35//33 26//24 28//26
f 29//27 24//22 36//34
f 30//28 27//25 37//35
f 27//25 25//23 38//36
f 34//32 39//37 32//30
f 25//23 31//29 38//36
f 24//22 32//30 36//34
f 26//24 35//33 31//29
f 33//31 35//33 28//26
f 29//27 40//38 33//31
f 34//32 41//39 39//37
f 30//28 42//40 34//32
f 34//32 42//40 41//39
f 37//35 27//25 38//36
f 32//30 43//41 36//34
f 35//33 44//42 31//29
f 40//38 35//33 33//31
f 30//28 37//35 42//40
f 39//37 43//41 32//30
f 36//34 45//43 29//27
f 40//38 29//27 45//43
f 37//35 46//44 42//40
f 38//36 46//44 37//35
f 31//29 46//44 38//36
f 43//41 39//37 47//45
f 44//42 46//44 31//29
f 36//34 43//41 45//43
f 48//46 44//42 35//33
f 35//33 40//38 48//46
f 41//39 47//45 39//37
f 45//43 48//46 40//38
f 41//39 42//40 47//45
f 42//40 46//44 49//47
f 49//47 47//45 42//40
f 46//44 44//42 49//47
f 44//42 48//46 49//47
f 45//43 43//41 47//45
f 48//46 45//43 47//45
f 47//45 49//47 48//46
