# Blender v2.92.0 OBJ File: 'convert_to_one_sided.blend'
# www.blender.org
mtllib 30L.mtl
o Cube
v 0.001000 0.001000 -0.001000
v 0.001000 -0.001000 -0.001000
v 0.001000 0.001000 0.001000
v 0.001000 -0.001000 0.001000
v -0.001000 0.001000 -0.001000
v -0.001000 -0.001000 -0.001000
v -0.001000 0.001000 0.001000
v -0.001000 -0.001000 0.001000
vt 0.625000 0.500000
vt 0.875000 0.500000
vt 0.875000 0.750000
vt 0.625000 0.750000
vt 0.375000 0.750000
vt 0.625000 1.000000
vt 0.375000 1.000000
vt 0.375000 0.000000
vt 0.625000 0.000000
vt 0.625000 0.250000
vt 0.375000 0.250000
vt 0.125000 0.500000
vt 0.375000 0.500000
vt 0.125000 0.750000
vn 0.0000 1.0000 0.0000
vn 0.0000 0.0000 1.0000
vn -1.0000 0.0000 0.0000
vn 0.0000 -1.0000 0.0000
vn 1.0000 0.0000 0.0000
vn 0.0000 0.0000 -1.0000
usemtl Material
s off
f 1/1/1 5/2/1 7/3/1 3/4/1
f 4/5/2 3/4/2 7/6/2 8/7/2
f 8/8/3 7/9/3 5/10/3 6/11/3
f 6/12/4 2/13/4 4/5/4 8/14/4
f 2/13/5 1/1/5 3/4/5 4/5/5
f 6/11/6 5/10/6 1/1/6 2/13/6
o 30
v 5.916784 6.086161 5.587869
v 5.928774 6.003012 5.602039
v 5.869134 6.020812 5.608009
v 6.074492 6.053801 5.600959
v 6.006273 6.018132 5.613379
v 6.037582 6.228769 5.592439
v 6.116881 6.107770 5.601309
v 5.872974 6.144370 5.600009
v 5.945394 6.258539 5.585929
v 6.129642 6.292548 5.597179
v 6.159771 6.300488 5.608799
v 5.896994 6.259539 5.591669
v 5.959553 6.409606 5.588379
v 5.860845 6.238979 5.603498
v 5.876904 6.374027 5.599339
v 6.139081 6.550375 5.600949
v 5.911774 6.487246 5.595299
v 6.048312 6.546495 5.594309
v 5.860204 6.472396 5.612498
v 5.961443 6.550955 5.597029
v 5.899534 6.603434 5.613419
v 6.015653 6.700922 5.611419
v 6.106112 6.696093 5.608529
v 5.847295 5.958023 5.645488
v 5.877234 5.963872 5.630599
v 5.919464 5.964313 5.657158
v 5.982053 5.992822 5.672148
v 6.038972 6.019112 5.651638
v 5.845304 6.122460 5.625699
v 6.070002 6.039581 5.619649
v 6.105591 6.063841 5.612489
v 6.132851 6.116420 5.615419
v 5.848684 6.330987 5.621038
v 6.176641 6.518965 5.615919
v 6.190411 6.360067 5.660608
v 5.835474 6.478076 5.637468
v 5.853755 6.593534 5.632198
v 5.863564 6.705873 5.640868
v 5.935783 6.731582 5.631299
v 6.156510 6.712512 5.621489
v 6.184090 6.682873 5.647169
v 6.106001 6.784852 5.630609
v 5.825035 6.084351 5.672208
v 5.838555 5.995552 5.678008
v 6.101131 6.053851 5.667998
v 6.155061 6.164320 5.676218
v 5.832055 6.277048 5.653578
v 6.199350 6.571744 5.674248
v 5.841545 6.645884 5.653128
v 5.900564 6.800811 5.656128
v 6.000353 6.804121 5.643558
v 6.150101 6.822132 5.669678
v 6.076262 6.842931 5.660568
v 5.868114 5.936313 5.686918
v 6.201480 6.466356 5.689097
v 5.827895 6.508865 5.680758
v 5.862925 6.774602 5.665608
v 5.879534 6.821171 5.667898
v 5.930213 6.841021 5.677178
v 6.006153 6.850511 5.673978
v 6.076092 6.874151 5.682728
v 6.098211 6.869301 5.684888
v 5.850635 5.937722 5.699388
v 5.846005 6.723442 5.683828
v 5.873614 6.806491 5.680098
v 6.016522 6.864411 5.692218
v 5.826585 6.225099 5.694937
v 5.902104 6.821231 5.697668
v 6.092671 6.859841 5.691368
v 6.115831 6.884420 5.673868
v 6.090072 6.900760 5.679948
v 6.184061 6.771048 5.699999
v 6.047957 6.024401 5.699999
v 6.126913 6.075333 5.699999
v 5.964634 6.855611 5.699999
v 6.117183 6.851465 5.699999
v 5.829484 6.142448 5.699999
v 6.089174 6.051258 5.699999
v 6.015604 6.860721 5.699999
v 5.849525 5.942312 5.699999
v 6.149931 6.126399 5.699999
v 6.164220 6.165984 5.699999
v 6.098999 6.882101 5.699999
v 5.879878 5.939621 5.699999
v 5.864895 5.935094 5.699999
v 5.826020 6.260942 5.699999
v 5.920715 6.834789 5.699999
v 5.828526 6.220846 5.699999
v 6.094415 6.852576 5.699999
v 6.064849 6.857501 5.699999
v 6.184189 6.769732 5.699999
v 5.832146 6.023662 5.699999
v 6.009937 6.005012 5.699999
v 5.956912 5.977283 5.699999
v 6.179383 6.238144 5.699999
v 6.200317 6.521746 5.699999
v 5.942968 6.850921 5.699999
v 6.103147 6.880842 5.699999
v 6.192953 6.405326 5.699999
v 5.841562 6.678447 5.699999
v 5.855264 6.749918 5.699999
v 5.895930 6.813338 5.699999
v 5.851291 5.937521 5.699999
v 6.183818 6.771775 5.699999
v 5.835472 6.002622 5.699999
v 6.027592 6.013051 5.699999
v 5.897866 5.947803 5.699999
v 6.199557 6.558765 5.699999
v 5.825889 6.445968 5.699999
v 5.831970 6.565522 5.699999
v 5.866811 6.784528 5.699999
v 6.154683 6.832953 5.699999
v 6.197859 6.444421 5.699999
v 5.850990 5.938151 5.699999
v 5.905589 6.820756 5.699999
v 5.943893 5.970977 5.699999
vn -0.1051 -0.0715 -0.9919
vn 0.1064 -0.4491 -0.8871
vn -0.4336 -0.2091 -0.8765
vn 0.2344 -0.4449 -0.8643
vn 0.2662 -0.7321 -0.6270
vn 0.0682 -0.0470 -0.9966
vn 0.4282 -0.1692 -0.8877
vn -0.4607 -0.0324 -0.8870
vn -0.0253 0.0056 -0.9997
vn 0.2360 -0.0179 -0.9716
vn 0.7184 -0.0880 -0.6900
vn -0.2225 0.0115 -0.9749
vn -0.0512 0.0301 -0.9982
vn -0.5666 0.0005 -0.8240
vn -0.3782 0.0311 -0.9252
vn 0.2403 0.0362 -0.9700
vn -0.2051 0.0772 -0.9757
vn 0.0215 0.0578 -0.9981
vn -0.5277 0.0680 -0.8467
vn -0.0772 0.1025 -0.9917
vn -0.2612 0.1433 -0.9546
vn -0.0815 0.1937 -0.9777
vn 0.0897 0.1526 -0.9842
vn -0.7098 -0.5015 -0.4946
vn -0.0386 -0.7301 -0.6823
vn 0.3597 -0.8835 -0.3001
vn 0.4168 -0.8984 -0.1383
vn 0.4132 -0.9013 -0.1296
vn -0.8316 -0.0521 -0.5529
vn 0.4333 -0.8392 -0.3287
vn 0.6550 -0.5915 -0.4703
vn 0.8833 -0.3239 -0.3388
vn -0.7648 0.0096 -0.6442
vn 0.7198 0.0252 -0.6938
vn 0.9608 -0.0861 -0.2637
vn -0.8579 0.0374 -0.5125
vn -0.6074 0.1053 -0.7874
vn -0.4847 0.1998 -0.8515
vn -0.1714 0.2333 -0.9572
vn 0.4831 0.2077 -0.8506
vn 0.8826 0.1322 -0.4512
vn 0.1321 0.3698 -0.9197
vn -0.9819 -0.0658 -0.1778
vn -0.9670 -0.1775 -0.1829
vn 0.6893 -0.7232 -0.0425
vn 0.9228 -0.2855 -0.2589
vn -0.9542 0.0005 -0.2991
vn 0.9828 0.0342 -0.1813
vn -0.8860 0.1251 -0.4466
vn -0.2494 0.3736 -0.8934
vn -0.1026 0.4322 -0.8959
vn 0.6537 0.5739 -0.4933
vn 0.0961 0.5760 -0.8117
vn -0.0093 -0.9716 -0.2363
vn 0.9990 -0.0420 0.0135
vn -0.9941 0.0400 -0.1012
vn -0.8104 0.2899 -0.5091
vn -0.6018 0.6379 -0.4806
vn -0.3181 0.8675 -0.3824
vn -0.1417 0.7195 -0.6798
vn -0.0465 0.9466 -0.3190
vn 0.6553 0.6610 -0.3657
vn -0.7844 -0.6013 0.1524
vn 0.7538 -0.3312 0.5675
vn 0.7226 -0.4619 0.5143
vn -0.9783 0.2054 -0.0276
vn 0.7117 -0.0362 0.7016
vn 0.7059 0.0780 0.7040
vn -0.7877 0.6005 0.1376
vn -0.1123 0.9920 0.0574
vn -0.1061 0.7828 0.6131
vn -0.3581 0.7402 0.5691
vn 0.3318 -0.6711 0.6630
vn 0.2582 -0.6632 0.7025
vn -0.6422 0.0138 0.7664
vn -0.7086 -0.1173 0.6959
vn 0.6968 -0.0821 0.7125
vn 0.7940 -0.1227 0.5954
vn -0.9925 0.0005 0.1219
vn -0.7241 0.0313 0.6890
vn -0.7433 0.0493 0.6672
vn 0.3313 -0.6508 0.6832
vn -0.7071 -0.0825 0.7023
vn -0.4960 0.7433 0.4488
vn 0.8531 0.2662 0.4488
vn 0.5651 0.5941 0.5724
vn 0.2917 0.7907 0.5382
vn -0.3308 0.6255 0.7066
vn 0.8961 -0.1527 0.4169
vn 0.0560 -0.7352 0.6755
vn -0.2678 -0.6297 0.7292
vn 0.3633 -0.5371 0.7613
vn -0.7367 0.0506 0.6743
vn -0.6514 0.2164 0.7272
vn -0.0521 0.5058 0.8611
vn -0.7685 -0.1973 0.6086
vn -0.3301 -0.1713 0.9283
vn -0.5563 0.0020 0.8310
vn -0.3234 0.3555 0.8769
vn -0.2515 0.2856 0.9247
vn -0.4563 0.5793 0.6754
vn 0.0373 0.1938 0.9803
vn -0.1170 0.5665 0.8157
vn 0.6908 0.0276 0.7225
vn 0.6679 -0.0947 0.7382
vn 0.3090 -0.6561 0.6885
vn 0.3389 -0.6496 0.6805
vn 0.3272 -0.6412 0.6941
vn -0.7637 -0.0024 0.6455
vn -0.0080 0.8614 -0.5079
vn 0.2053 0.6458 -0.7354
vn 0.7770 -0.2515 0.5771
vn 0.1155 0.7796 0.6156
vn 0.3625 -0.6003 0.7129
vn 0.8054 0.2783 0.5234
vn -0.6858 0.3295 0.6489
usemtl mtl1.276
s 1
f 9//7 10//8 11//9
f 12//10 13//11 14//12
f 14//12 13//11 10//8
f 14//12 10//8 9//7
f 15//13 12//10 14//12
f 16//14 9//7 11//9
f 14//12 9//7 17//15
f 15//13 14//12 18//16
f 18//16 19//17 15//13
f 17//15 9//7 20//18
f 9//7 16//14 20//18
f 17//15 20//18 21//19
f 20//18 16//14 22//20
f 14//12 17//15 21//19
f 20//18 22//20 23//21
f 20//18 23//21 21//19
f 18//16 14//12 24//22
f 24//22 19//17 18//16
f 21//19 23//21 25//23
f 14//12 21//19 26//24
f 27//25 25//23 23//21
f 24//22 14//12 26//24
f 28//26 21//19 25//23
f 26//24 21//19 28//26
f 25//23 29//27 28//26
f 28//26 29//27 30//28
f 26//24 28//26 30//28
f 31//29 26//24 30//28
f 24//22 26//24 31//29
f 32//30 11//9 33//31
f 33//31 11//9 10//8
f 10//8 34//32 33//31
f 34//32 10//8 13//11
f 13//11 35//33 34//32
f 35//33 13//11 36//34
f 37//35 11//9 32//30
f 12//10 38//36 13//11
f 12//10 39//37 38//36
f 16//14 11//9 37//35
f 39//37 12//10 15//13
f 39//37 15//13 40//38
f 15//13 19//17 40//38
f 22//20 16//14 37//35
f 41//39 22//20 37//35
f 23//21 22//20 41//39
f 42//40 43//41 19//17
f 41//39 27//25 23//21
f 44//42 27//25 41//39
f 45//43 27//25 44//42
f 19//17 24//22 42//40
f 25//23 27//25 29//27
f 45//43 29//27 27//25
f 46//44 29//27 45//43
f 47//45 29//27 46//44
f 30//28 29//27 47//45
f 42//40 24//22 48//46
f 48//46 49//47 42//40
f 31//29 48//46 24//22
f 30//28 50//48 31//29
f 48//46 31//29 50//48
f 51//49 37//35 52//50
f 52//50 37//35 32//30
f 13//11 38//36 36//34
f 38//36 39//37 53//51
f 39//37 40//38 53//51
f 40//38 54//52 53//51
f 40//38 19//17 54//52
f 54//52 19//17 43//41
f 51//49 55//53 37//35
f 37//35 55//53 41//39
f 43//41 42//40 49//47
f 49//47 56//54 43//41
f 55//53 44//42 41//39
f 57//55 46//44 45//43
f 47//45 46//44 58//56
f 59//57 47//45 58//56
f 30//28 47//45 59//57
f 30//28 59//57 50//48
f 48//46 60//58 49//47
f 48//46 50//48 60//58
f 61//59 50//48 59//57
f 60//58 50//48 61//59
f 62//60 32//30 33//31
f 33//31 34//32 62//60
f 38//36 53//51 36//34
f 43//41 56//54 63//61
f 55//53 64//62 44//42
f 57//55 44//42 64//62
f 44//42 57//55 45//43
f 65//63 46//44 57//55
f 46//44 65//63 58//56
f 65//63 66//64 58//56
f 58//56 66//64 67//65
f 58//56 67//65 59//57
f 67//65 68//66 59//57
f 61//59 68//66 69//67
f 59//57 68//66 61//59
f 61//59 70//68 60//58
f 61//59 69//67 70//68
f 32//30 71//69 52//50
f 71//69 32//30 62//60
f 53//51 89//70 82//71
f 72//72 57//55 64//62
f 57//55 72//72 65//63
f 116//73 56//54 99//74
f 73//75 65//63 72//72
f 65//63 73//75 66//64
f 67//65 66//64 73//75
f 67//65 74//76 68//66
f 83//77 67//65 105//78
f 74//76 69//67 68//66
f 62//60 115//79 92//80
f 85//81 51//49 100//82
f 107//83 103//84 43//41
f 51//49 75//85 55//53
f 55//53 75//85 64//62
f 117//86 118//87 64//62
f 115//79 124//88 113//89
f 67//65 73//75 76//90
f 112//91 60//58 120//92
f 69//67 74//76 77//93
f 69//67 77//93 78//94
f 70//68 79//95 77//93
f 60//58 70//68 77//93
f 71//69 93//96 111//97
f 115//79 34//32 124//88
f 86//98 53//51 82//71
f 108//99 109//100 72//72
f 83//77 87//101 74//76
f 88//102 71//69 122//103
f 111//97 122//103 71//69
f 85//81 96//104 75//85
f 110//105 123//106 76//90
f 123//106 95//107 76//90
f 97//108 77//93 98//109
f 73//75 110//105 76//90
f 109//100 73//75 72//72
f 118//87 72//72 64//62
f 63//61 107//83 43//41
f 56//54 104//110 63//61
f 63//61 104//110 121//111
f 35//33 124//88 34//32
f 35//33 101//112 102//113
f 114//114 35//33 36//34
f 52//50 100//82 51//49
f 67//65 95//107 105//78
f 75//85 117//86 64//62
f 75//85 96//104 94//115
f 62//60 92//80 93//96
f 70//68 91//116 106//117
f 54//52 103//84 90//118
f 54//52 90//118 89//70
f 52//50 88//102 113//89
f 74//76 98//109 77//93
f 60//58 84//119 120//92
f 77//93 97//108 84//119
f 81//120 36//34 53//51
f 53//51 86//98 81//120
f 60//58 80//121 49//47
f 49//47 99//74 56//54
f 53//51 54//52 89//70
f 83//77 74//76 67//65
f 62//60 34//32 115//79
f 85//81 75//85 51//49
f 107//83 121//111 117//86
f 121//111 104//110 117//86
f 104//110 116//73 118//87
f 116//73 99//74 108//99
f 99//74 80//121 112//91
f 112//91 120//92 97//108
f 120//92 84//119 97//108
f 97//108 98//109 99//74
f 98//109 87//101 99//74
f 97//108 99//74 112//91
f 116//73 108//99 118//87
f 108//99 99//74 87//101
f 103//84 107//83 94//115
f 89//70 90//118 96//104
f 90//118 103//84 96//104
f 86//98 82//71 89//70
f 114//114 81//120 85//81
f 81//120 86//98 85//81
f 124//88 102//113 100//82
f 102//113 101//112 85//81
f 101//112 114//114 85//81
f 86//98 89//70 96//104
f 107//83 117//86 94//115
f 117//86 104//110 118//87
f 87//101 83//77 123//106
f 83//77 105//78 95//107
f 123//106 83//77 95//107
f 123//106 110//105 109//100
f 110//105 119//122 109//100
f 109//100 108//99 87//101
f 123//106 109//100 87//101
f 94//115 96//104 103//84
f 96//104 85//81 86//98
f 85//81 100//82 102//113
f 100//82 113//89 124//88
f 113//89 88//102 92//80
f 88//102 122//103 93//96
f 122//103 111//97 93//96
f 93//96 92//80 88//102
f 92//80 115//79 113//89
f 71//69 62//60 93//96
f 73//75 119//122 110//105
f 109//100 119//122 73//75
f 118//87 108//99 72//72
f 63//61 121//111 107//83
f 56//54 116//73 104//110
f 35//33 102//113 124//88
f 114//114 101//112 35//33
f 52//50 113//89 100//82
f 67//65 76//90 95//107
f 75//85 94//115 117//86
f 70//68 69//67 91//116
f 54//52 43//41 103//84
f 52//50 71//69 88//102
f 74//76 87//101 98//109
f 60//58 77//93 84//119
f 81//120 114//114 36//34
f 60//58 112//91 80//121
f 49//47 80//121 99//74
