# Blender v2.92.0 OBJ File: 'convert_to_one_sided.blend'
# www.blender.org
mtllib 312782582L.mtl
o 312782582
v 9.054183 2.047904 1.510651
v 8.953424 1.992664 1.515401
v 8.972865 2.028254 1.518131
v 8.801227 1.887015 1.541991
v 8.738618 1.907225 1.541930
v 8.852406 1.941025 1.529561
v 8.891135 1.995904 1.532271
v 8.938524 1.956065 1.531351
v 9.057294 2.019834 1.523771
v 9.017914 1.905035 1.592560
v 8.970284 2.046514 1.528401
v 9.059153 2.084693 1.528531
v 9.145712 2.090063 1.524981
v 9.238001 2.072533 1.552070
v 9.273321 2.145632 1.533891
v 9.222771 2.162142 1.544570
v 9.371360 2.171792 1.541800
v 9.365389 2.205842 1.547170
v 8.703817 1.844436 1.560930
v 8.659028 1.848716 1.573020
v 8.771606 1.819786 1.589800
v 8.674448 1.905725 1.575150
v 8.778868 1.971124 1.562770
v 8.927916 2.053963 1.561860
v 9.083883 2.128202 1.562610
v 9.404659 2.117622 1.584030
v 9.338670 2.236221 1.573920
v 9.468918 2.209361 1.575140
v 9.428768 2.248931 1.577060
v 8.680088 1.806367 1.592130
v 8.624799 1.849936 1.612180
v 8.637789 1.901495 1.602190
v 8.687099 1.937745 1.595610
v 8.778117 1.993974 1.594240
v 8.995944 2.104573 1.586600
v 9.502518 2.143822 1.613690
v 9.550426 2.169982 1.631549
v 9.203032 2.184632 1.582300
v 9.547137 2.218891 1.625499
v 9.488188 2.264481 1.612010
v 9.422499 2.267511 1.598110
v 8.641459 1.785467 1.622009
v 9.325410 2.005504 1.639829
v 9.191172 1.914055 1.657309
v 8.852695 2.034644 1.598050
v 8.916745 2.064283 1.599560
v 9.482498 2.077393 1.654309
v 9.097182 2.147072 1.594710
v 9.306110 2.233141 1.611950
v 9.402490 2.269321 1.615080
v 9.460419 2.278100 1.626259
v 8.634789 1.735957 1.660339
v 8.700607 1.756627 1.642139
v 8.861957 1.798227 1.636939
v 8.632179 1.885895 1.630939
v 8.612840 1.812516 1.664999
v 9.084784 1.876256 1.642099
v 8.710897 1.952555 1.622910
v 8.796467 2.001224 1.619419
v 8.960654 2.085103 1.613700
v 9.033194 2.116313 1.609590
v 9.558417 2.119272 1.669549
v 9.578487 2.166992 1.664989
v 9.205372 2.185732 1.617329
v 9.546858 2.239421 1.656119
v 9.583027 2.188182 1.680729
v 8.773937 1.753507 1.659259
v 8.628149 1.770147 1.660309
v 8.997814 1.840296 1.645209
v 8.903435 1.795547 1.663809
v 9.098772 1.868636 1.670369
v 8.886935 2.043923 1.621279
v 9.113302 2.143172 1.624929
v 9.501657 2.268511 1.645579
v 8.629398 1.737577 1.680919
v 8.671648 1.737517 1.680479
v 8.734648 1.748147 1.668849
v 8.831696 1.771267 1.669919
v 9.181561 1.900555 1.676619
v 8.612309 1.829606 1.674619
v 9.307080 1.959064 1.690719
v 9.460858 2.034873 1.689789
v 8.830827 1.979004 1.669609
v 9.537557 2.077683 1.702868
v 9.026844 2.086883 1.644099
v 9.235761 2.151792 1.679669
v 9.326031 2.221991 1.650809
v 9.582817 2.192562 1.712168
v 9.399719 2.256841 1.647959
v 9.480588 2.260011 1.665639
v 8.755187 1.750947 1.679469
v 8.866096 1.784677 1.692478
v 8.990193 1.827166 1.680719
v 8.623219 1.776547 1.691338
v 9.222092 1.919395 1.688279
v 9.393518 2.004184 1.701968
v 8.669988 1.884445 1.671009
v 9.582867 2.120793 1.710728
v 9.586216 2.159042 1.706798
v 9.545077 2.224891 1.698148
v 8.974075 1.819906 1.698598
v 9.051884 1.854276 1.701409
v 9.161642 1.897495 1.695928
v 9.240881 1.933045 1.709828
v 8.711538 1.875956 1.710828
v 9.411348 2.198832 1.709438
v 8.647129 1.747777 1.696668
v 8.748088 1.768977 1.707418
v 8.968705 1.832786 1.716678
v 8.650349 1.823976 1.704858
v 9.329519 1.982714 1.733278
v 9.475227 2.049433 1.732048
v 9.065833 2.026614 1.719878
v 9.558896 2.099143 1.736718
v 9.574777 2.185632 1.742438
v 8.871806 1.811486 1.723888
v 9.136573 1.912005 1.730478
v 8.852056 1.921005 1.726108
v 9.573936 2.149912 1.737498
v 9.521117 2.200941 1.733488
v 8.689988 1.791757 1.719108
v 8.793997 1.812786 1.736538
v 8.952505 1.866796 1.741208
v 8.735437 1.842856 1.728638
v 9.000024 1.942475 1.750918
v 9.154572 2.003084 1.758728
v 9.291150 2.089603 1.748978
v 8.763007 1.824456 1.735228
v 8.865996 1.872956 1.739348
v 8.979955 1.905005 1.749368
v 9.110942 1.950225 1.754348
v 9.273850 1.994454 1.760748
v 9.411518 2.047623 1.766948
v 9.508698 2.101853 1.763578
v 9.451888 2.145012 1.764118
v 9.529517 2.154792 1.754268
v 9.241621 2.020694 1.762628
v 9.379040 2.068843 1.770788
v 9.459437 2.085203 1.775277
v 9.466718 2.107683 1.765108
vn 0.0211 0.0706 -0.9973
vn -0.0363 -0.1132 -0.9929
vn -0.2100 0.3262 -0.9217
vn 0.0807 -0.4278 -0.9002
vn -0.2618 0.0993 -0.9600
vn -0.0621 -0.1068 -0.9923
vn -0.2951 0.3793 -0.8770
vn 0.1574 -0.4484 -0.8798
vn 0.2259 -0.4051 -0.8859
vn 0.2654 -0.6069 -0.7491
vn -0.3215 0.5720 -0.7546
vn -0.1986 0.5468 -0.8134
vn 0.0912 0.0379 -0.9951
vn 0.2522 -0.4393 -0.8622
vn 0.0484 0.0422 -0.9979
vn -0.1797 0.5523 -0.8140
vn 0.2443 -0.1657 -0.9554
vn 0.0413 0.3700 -0.9281
vn -0.0968 -0.4408 -0.8923
vn -0.4990 -0.1958 -0.8442
vn 0.1457 -0.6589 -0.7380
vn -0.5588 0.3640 -0.7452
vn -0.4053 0.6107 -0.6803
vn -0.3909 0.7494 -0.5344
vn -0.3206 0.7890 -0.5242
vn 0.3512 -0.4856 -0.8005
vn -0.2328 0.8077 -0.5417
vn 0.4158 0.0420 -0.9085
vn 0.1362 0.5916 -0.7947
vn -0.1342 -0.6278 -0.7668
vn -0.8863 -0.0177 -0.4627
vn -0.7969 0.4843 -0.3610
vn -0.5764 0.7750 -0.2591
vn -0.4859 0.8476 -0.2131
vn -0.4156 0.8986 -0.1405
vn 0.4389 -0.4341 -0.7867
vn 0.6217 -0.2257 -0.7500
vn -0.3541 0.8853 -0.3015
vn 0.7313 0.2835 -0.6204
vn 0.4029 0.7298 -0.5523
vn -0.0237 0.8801 -0.4742
vn -0.5380 -0.4955 -0.6819
vn 0.3652 -0.6962 -0.6181
vn 0.3950 -0.7819 -0.4822
vn -0.4415 0.8967 -0.0325
vn -0.4521 0.8911 -0.0387
vn 0.4264 -0.6454 -0.6338
vn -0.3721 0.9281 0.0108
vn -0.3820 0.9169 0.1155
vn -0.2342 0.9709 0.0492
vn 0.0486 0.9984 -0.0277
vn -0.4420 -0.7913 -0.4225
vn 0.0506 -0.8107 -0.5833
vn 0.2442 -0.7690 -0.5908
vn -0.8217 0.5472 0.1592
vn -0.9982 -0.0420 -0.0436
vn 0.3224 -0.7533 -0.5732
vn -0.5195 0.7913 0.3226
vn -0.4430 0.8384 0.3175
vn -0.3960 0.8580 0.3271
vn -0.3669 0.8628 0.3479
vn 0.6349 -0.5236 -0.5681
vn 0.8879 -0.1318 -0.4407
vn -0.3777 0.8710 0.3140
vn 0.6946 0.7127 -0.0980
vn 0.9415 0.2617 -0.2124
vn 0.2011 -0.9363 -0.2879
vn -0.9232 -0.2948 -0.2468
vn 0.3109 -0.8208 -0.4793
vn 0.3225 -0.9214 -0.2169
vn 0.3620 -0.9201 -0.1498
vn -0.3956 0.8205 0.4126
vn -0.3499 0.8125 0.4662
vn 0.3468 0.9284 0.1335
vn -0.6696 -0.6931 0.2670
vn 0.0544 -0.9868 0.1524
vn 0.0987 -0.9767 -0.1906
vn 0.3024 -0.9460 -0.1166
vn 0.4014 -0.9119 -0.0855
vn -0.8153 0.3162 0.4851
vn 0.4572 -0.8844 -0.0934
vn 0.4443 -0.8587 -0.2554
vn -0.3426 0.6883 0.6394
vn 0.5911 -0.7882 -0.1715
vn -0.3215 0.7171 0.6184
vn -0.3131 0.6789 0.6641
vn -0.3454 0.7562 0.5558
vn 0.8746 0.4178 0.2460
vn -0.2649 0.8287 0.4930
vn -0.0388 0.8477 0.5291
vn 0.2004 -0.9564 0.2123
vn 0.2665 -0.9046 0.3328
vn 0.3549 -0.9333 -0.0541
vn -0.7885 -0.1735 0.5901
vn 0.4203 -0.9073 0.0094
vn 0.4320 -0.9004 -0.0514
vn -0.4991 0.6272 0.5979
vn 0.9124 -0.4092 -0.0113
vn 0.9968 -0.0151 0.0788
vn 0.3711 0.8128 0.4490
vn 0.3280 -0.8937 0.3062
vn 0.3606 -0.8676 0.3423
vn 0.3443 -0.8891 0.3016
vn 0.3567 -0.8619 0.3604
vn -0.3568 0.5056 0.7855
vn -0.2360 0.6474 0.7247
vn -0.2102 -0.5770 0.7892
vn 0.0932 -0.7040 0.7040
vn 0.2396 -0.6969 0.6759
vn -0.4632 0.2501 0.8502
vn 0.3404 -0.7988 0.4960
vn 0.4288 -0.8112 0.3976
vn -0.2625 0.5674 0.7805
vn 0.6311 -0.5847 0.5097
vn 0.4770 0.4462 0.7572
vn 0.1653 -0.6388 0.7514
vn 0.2353 -0.6622 0.7114
vn -0.2211 0.4210 0.8797
vn 0.7457 -0.0835 0.6610
vn 0.0049 0.6327 0.7744
vn -0.2194 -0.1927 0.9564
vn 0.0055 -0.3253 0.9456
vn 0.0952 -0.3560 0.9296
vn -0.2186 0.1858 0.9580
vn -0.1349 0.1921 0.9721
vn -0.1334 0.2337 0.9631
vn -0.2148 0.4388 0.8725
vn -0.1233 -0.0155 0.9923
vn -0.0870 0.0482 0.9950
vn -0.0293 -0.1079 0.9937
vn 0.0260 -0.1956 0.9803
vn 0.0943 -0.3768 0.9215
vn 0.2200 -0.5010 0.8370
vn 0.3380 -0.2314 0.9123
vn -0.0711 0.3497 0.9341
vn 0.1794 0.1606 0.9706
vn -0.0649 0.0605 0.9961
vn -0.0600 0.0676 0.9959
vn 0.0934 0.0006 0.9956
vn 0.0603 0.1929 0.9794
usemtl mtl1.1146
s 1
f 1//1 2//2 3//3
f 4//4 5//5 6//6
f 6//6 5//5 7//7
f 8//8 4//4 6//6
f 2//2 8//8 6//6
f 2//2 6//6 7//7
f 9//9 10//10 8//8
f 9//9 8//8 2//2
f 2//2 7//7 3//3
f 7//7 11//11 3//3
f 2//2 1//1 9//9
f 3//3 12//12 1//1
f 13//13 9//9 1//1
f 14//14 9//9 13//13
f 12//12 3//3 11//11
f 13//13 1//1 12//12
f 15//15 14//14 13//13
f 12//12 16//16 13//13
f 15//15 13//13 16//16
f 17//17 14//14 15//15
f 15//15 16//16 18//18
f 17//17 15//15 18//18
f 5//5 19//19 20//20
f 4//4 19//19 5//5
f 10//10 21//21 4//4
f 5//5 20//20 22//22
f 8//8 10//10 4//4
f 23//23 5//5 22//22
f 5//5 23//23 7//7
f 10//10 9//9 14//14
f 23//23 24//24 7//7
f 7//7 24//24 11//11
f 24//24 12//12 11//11
f 25//25 12//12 24//24
f 25//25 16//16 12//12
f 17//17 26//26 14//14
f 16//16 27//27 18//18
f 28//28 26//26 17//17
f 18//18 28//28 17//17
f 29//29 18//18 27//27
f 28//28 18//18 29//29
f 21//21 30//30 19//19
f 30//30 20//20 19//19
f 4//4 21//21 19//19
f 22//22 20//20 31//31
f 32//32 22//22 31//31
f 33//33 23//23 22//22
f 24//24 23//23 34//34
f 24//24 35//35 25//25
f 28//28 36//36 26//26
f 37//37 36//36 28//28
f 38//38 16//16 25//25
f 27//27 16//16 38//38
f 28//28 39//39 37//37
f 40//40 39//39 28//28
f 29//29 40//40 28//28
f 41//41 29//29 27//27
f 40//40 29//29 41//41
f 20//20 30//30 42//42
f 20//20 42//42 31//31
f 10//10 43//43 44//44
f 22//22 32//32 33//33
f 43//43 10//10 14//14
f 23//23 33//33 34//34
f 24//24 34//34 45//45
f 24//24 45//45 46//46
f 35//35 24//24 46//46
f 36//36 47//47 26//26
f 25//25 35//35 48//48
f 25//25 48//48 38//38
f 27//27 38//38 49//49
f 27//27 49//49 50//50
f 41//41 27//27 50//50
f 40//40 41//41 51//51
f 52//52 42//42 53//53
f 30//30 53//53 42//42
f 53//53 30//30 21//21
f 10//10 54//54 21//21
f 32//32 31//31 55//55
f 55//55 31//31 56//56
f 10//10 44//44 57//57
f 33//33 32//32 55//55
f 33//33 58//58 34//34
f 14//14 26//26 43//43
f 26//26 47//47 43//43
f 34//34 59//59 45//45
f 35//35 46//46 60//60
f 35//35 60//60 61//61
f 36//36 37//37 62//62
f 35//35 61//61 48//48
f 39//39 63//63 37//37
f 38//38 48//48 64//64
f 38//38 64//64 49//49
f 39//39 65//65 66//66
f 65//65 39//39 40//40
f 41//41 50//50 51//51
f 53//53 54//54 67//67
f 53//53 21//21 54//54
f 42//42 52//52 68//68
f 68//68 31//31 42//42
f 54//54 69//69 70//70
f 54//54 10//10 69//69
f 69//69 10//10 57//57
f 57//57 44//44 71//71
f 33//33 55//55 58//58
f 34//34 58//58 59//59
f 46//46 45//45 72//72
f 72//72 60//60 46//46
f 48//48 61//61 73//73
f 48//48 73//73 64//64
f 63//63 39//39 66//66
f 40//40 51//51 74//74
f 75//75 52//52 76//76
f 76//76 52//52 53//53
f 76//76 53//53 77//77
f 53//53 67//67 77//77
f 54//54 78//78 67//67
f 54//54 70//70 78//78
f 68//68 56//56 31//31
f 69//69 57//57 71//71
f 71//71 44//44 79//79
f 56//56 80//80 55//55
f 44//44 43//43 81//81
f 43//43 47//47 82//82
f 59//59 58//58 83//83
f 82//82 47//47 84//84
f 45//45 59//59 72//72
f 47//47 62//62 84//84
f 36//36 62//62 47//47
f 60//60 72//72 85//85
f 61//61 60//60 85//85
f 61//61 85//85 73//73
f 85//85 86//86 73//73
f 49//49 64//64 87//87
f 66//66 65//65 88//88
f 50//50 49//49 89//89
f 50//50 89//89 90//90
f 40//40 74//74 65//65
f 50//50 90//90 51//51
f 51//51 90//90 74//74
f 91//91 77//77 67//67
f 68//68 52//52 75//75
f 78//78 91//91 67//67
f 92//92 78//78 70//70
f 70//70 93//93 92//92
f 68//68 94//94 56//56
f 69//69 93//93 70//70
f 69//69 71//71 93//93
f 44//44 95//95 79//79
f 44//44 81//81 95//95
f 43//43 96//96 81//81
f 55//55 97//97 58//58
f 43//43 82//82 96//96
f 72//72 59//59 83//83
f 84//84 62//62 98//98
f 63//63 98//98 62//62
f 62//62 37//37 63//63
f 63//63 66//66 99//99
f 64//64 73//73 86//86
f 86//86 87//87 64//64
f 89//89 49//49 87//87
f 100//100 65//65 74//74
f 77//77 91//91 76//76
f 94//94 68//68 75//75
f 78//78 92//92 91//91
f 93//93 101//101 92//92
f 94//94 80//80 56//56
f 93//93 102//102 101//101
f 71//71 102//102 93//93
f 71//71 103//103 102//102
f 103//103 71//71 79//79
f 80//80 97//97 55//55
f 79//79 95//95 103//103
f 81//81 104//104 95//95
f 97//97 105//105 83//83
f 83//83 58//58 97//97
f 85//85 72//72 83//83
f 99//99 66//66 88//88
f 65//65 100//100 88//88
f 90//90 89//89 106//106
f 90//90 100//100 74//74
f 107//107 75//75 76//76
f 108//108 76//76 91//91
f 75//75 107//107 94//94
f 101//101 109//109 92//92
f 94//94 110//110 80//80
f 80//80 110//110 97//97
f 110//110 105//105 97//97
f 95//95 104//104 103//103
f 81//81 111//111 104//104
f 81//81 96//96 111//111
f 84//84 112//112 82//82
f 85//85 83//83 113//113
f 84//84 114//114 112//112
f 114//114 84//84 98//98
f 85//85 113//113 86//86
f 98//98 63//63 99//99
f 100//100 115//115 88//88
f 87//87 106//106 89//89
f 107//107 76//76 108//108
f 108//108 91//91 92//92
f 116//116 108//108 92//92
f 116//116 92//92 109//109
f 101//101 102//102 109//109
f 102//102 117//117 109//109
f 117//117 102//102 103//103
f 103//103 104//104 117//117
f 83//83 105//105 118//118
f 83//83 118//118 113//113
f 96//96 112//112 111//111
f 82//82 112//112 96//96
f 119//119 114//114 98//98
f 98//98 99//99 119//119
f 87//87 86//86 106//106
f 90//90 120//120 100//100
f 106//106 120//120 90//90
f 120//120 115//115 100//100
f 107//107 108//108 121//121
f 107//107 121//121 94//94
f 108//108 116//116 122//122
f 121//121 108//108 122//122
f 94//94 121//121 110//110
f 116//116 109//109 123//123
f 124//124 110//110 121//121
f 123//123 122//122 116//116
f 123//123 109//109 117//117
f 110//110 124//124 105//105
f 105//105 124//124 118//118
f 111//111 117//117 104//104
f 125//125 113//113 118//118
f 126//126 113//113 125//125
f 99//99 88//88 119//119
f 86//86 127//127 106//106
f 121//121 122//122 128//128
f 128//128 124//124 121//121
f 122//122 129//129 128//128
f 129//129 124//124 128//128
f 123//123 129//129 122//122
f 118//118 124//124 129//129
f 123//123 130//130 129//129
f 117//117 131//131 123//123
f 125//125 118//118 129//129
f 125//125 129//129 130//130
f 131//131 130//130 123//123
f 117//117 111//111 132//132
f 131//131 125//125 130//130
f 126//126 125//125 131//131
f 132//132 131//131 117//117
f 132//132 111//111 133//133
f 111//111 112//112 133//133
f 134//134 133//133 112//112
f 114//114 134//134 112//112
f 127//127 113//113 126//126
f 119//119 134//134 114//114
f 127//127 86//86 113//113
f 88//88 115//115 119//119
f 127//127 135//135 106//106
f 135//135 136//136 120//120
f 120//120 136//136 115//115
f 120//120 106//106 135//135
f 131//131 132//132 137//137
f 137//137 126//126 131//131
f 132//132 138//138 137//137
f 133//133 138//138 132//132
f 139//139 138//138 133//133
f 127//127 126//126 137//137
f 138//138 127//127 137//137
f 134//134 139//139 133//133
f 135//135 127//127 138//138
f 136//136 134//134 119//119
f 119//119 115//115 136//136
f 139//139 140//140 138//138
f 135//135 138//138 140//140
f 134//134 140//140 139//139
f 134//134 136//136 140//140
f 140//140 136//136 135//135
