# Blender v2.92.0 OBJ File: 'convert_to_one_sided.blend'
# www.blender.org
mtllib 312782620L.mtl
o Cube
v 0.001000 0.001000 -0.001000
v 0.001000 -0.001000 -0.001000
v 0.001000 0.001000 0.001000
v 0.001000 -0.001000 0.001000
v -0.001000 0.001000 -0.001000
v -0.001000 -0.001000 -0.001000
v -0.001000 0.001000 0.001000
v -0.001000 -0.001000 0.001000
vt 0.625000 0.500000
vt 0.875000 0.500000
vt 0.875000 0.750000
vt 0.625000 0.750000
vt 0.375000 0.750000
vt 0.625000 1.000000
vt 0.375000 1.000000
vt 0.375000 0.000000
vt 0.625000 0.000000
vt 0.625000 0.250000
vt 0.375000 0.250000
vt 0.125000 0.500000
vt 0.375000 0.500000
vt 0.125000 0.750000
vn 0.0000 1.0000 0.0000
vn 0.0000 0.0000 1.0000
vn -1.0000 0.0000 0.0000
vn 0.0000 -1.0000 0.0000
vn 1.0000 0.0000 0.0000
vn 0.0000 0.0000 -1.0000
usemtl Material
s off
f 1/1/1 5/2/1 7/3/1 3/4/1
f 4/5/2 3/4/2 7/6/2 8/7/2
f 8/8/3 7/9/3 5/10/3 6/11/3
f 6/12/4 2/13/4 4/5/4 8/14/4
f 2/13/5 1/1/5 3/4/5 4/5/5
f 6/11/6 5/10/6 1/1/6 2/13/6
o 312782620
v 7.963367 1.813786 2.366330
v 7.955338 1.784757 2.350370
v 7.920738 1.797696 2.356460
v 7.919008 1.830646 2.374410
v 7.972987 1.763147 2.357220
v 7.946268 1.762717 2.362550
v 8.019517 1.755037 2.385999
v 7.896618 1.751037 2.391169
v 7.884089 1.785067 2.406939
v 7.955008 1.839426 2.403559
v 7.925818 1.701368 2.423769
v 8.028597 1.705668 2.415489
v 8.074866 1.712958 2.419489
v 8.046287 1.775407 2.409349
v 7.879269 1.809856 2.429829
v 7.911718 1.833586 2.415639
v 8.021446 1.804296 2.417239
v 8.000267 1.629749 2.508038
v 8.111936 1.713588 2.443239
v 8.114475 1.682468 2.451519
v 7.874599 1.708178 2.437809
v 7.855749 1.724447 2.454409
v 7.828079 1.746197 2.514598
v 7.920048 1.825396 2.458239
v 7.848139 1.783387 2.499948
v 8.032166 1.807516 2.448529
v 8.124655 1.748207 2.482448
v 7.880858 1.800136 2.482858
v 8.165455 1.660428 2.486978
v 8.114816 1.636769 2.507378
v 7.868389 1.657678 2.508888
v 8.206104 1.671378 2.526078
v 7.804420 1.680848 2.550757
v 8.106715 1.770537 2.517198
v 7.996167 1.798186 2.488198
v 7.922898 1.555490 2.628146
v 8.200524 1.611289 2.572357
v 8.238684 1.639598 2.565477
v 7.777040 1.624418 2.594447
v 8.219564 1.699118 2.553838
v 8.186415 1.727207 2.552717
v 7.784260 1.580659 2.631077
v 8.243384 1.655738 2.586407
v 7.826549 1.755637 2.557487
v 7.851989 1.772237 2.540248
v 7.901138 1.762437 2.567327
v 8.046196 1.742817 2.588367
v 8.103565 1.562319 2.625496
v 8.231604 1.619089 2.604787
v 7.732171 1.628409 2.648836
v 7.760730 1.680138 2.633536
v 8.166315 1.722557 2.597577
v 7.740621 1.585039 2.645946
v 8.182275 1.578269 2.636646
v 7.725030 1.588699 2.660986
v 7.794449 1.716437 2.619327
v 7.827959 1.738367 2.599377
v 8.164565 1.585199 2.611557
v 8.217585 1.692128 2.595907
v 7.715191 1.563239 2.688256
v 7.761560 1.485730 2.774065
v 8.224113 1.626639 2.647196
v 8.162725 1.569169 2.689816
v 8.226354 1.662328 2.631716
v 7.926628 1.683688 2.706685
v 7.993887 1.489440 2.730335
v 8.076616 1.515120 2.707785
v 7.890028 1.485060 2.747445
v 7.678831 1.578259 2.730635
v 8.078576 1.679848 2.688966
v 8.175115 1.674778 2.654956
v 8.179955 1.632539 2.686666
v 7.686711 1.619639 2.751025
v 7.739110 1.668098 2.710536
v 7.800340 1.692578 2.684845
v 8.106246 1.533720 2.703336
v 8.129665 1.578869 2.742035
v 8.033087 1.486950 2.766215
v 7.674421 1.527060 2.772765
v 7.643312 1.576199 2.797484
v 7.734371 1.655278 2.756595
v 7.752900 1.595179 2.869703
v 8.110386 1.624579 2.740595
v 7.872949 1.422571 2.858173
v 7.628322 1.479090 2.849904
v 7.601432 1.525580 2.856814
v 8.133145 1.606499 2.736475
v 7.715261 1.630489 2.784004
v 7.953318 1.442951 2.823934
v 7.989957 1.466231 2.796214
v 8.057576 1.515840 2.785534
v 8.083405 1.581789 2.785354
v 7.967937 1.592099 2.829754
v 8.050946 1.590529 2.797584
v 7.728840 1.365692 2.980522
v 7.964317 1.450431 2.858543
v 7.570802 1.477870 2.894713
v 8.026776 1.538750 2.836664
v 7.603922 1.565279 2.885813
v 7.672961 1.596899 2.839034
v 7.906788 1.415771 2.895653
v 7.615802 1.412711 2.939932
v 7.961107 1.479960 2.898293
v 8.020767 1.569119 2.826394
v 7.545103 1.446851 2.939162
v 7.972348 1.543560 2.875963
v 7.630722 1.567729 2.922243
v 7.807779 1.367422 2.969642
v 7.844639 1.377372 2.967052
v 7.495774 1.466331 2.985062
v 7.887718 1.402261 2.947092
v 7.499703 1.394302 3.026091
v 7.874319 1.413971 2.999422
v 7.476804 1.426121 3.014071
v 7.522723 1.514080 2.982612
v 7.939427 1.502840 2.926353
v 7.920888 1.525500 2.925523
v 7.563443 1.541920 2.988552
v 7.533933 1.529580 2.999902
v 7.838229 1.504330 2.993402
v 7.878869 1.454881 3.005082
v 7.601552 1.515640 3.051941
v 7.552662 1.349052 3.075901
v 7.771620 1.331662 3.057061
v 7.430784 1.427481 3.056531
v 7.430684 1.469721 3.087920
v 7.881599 1.487580 2.983422
v 7.672721 1.309973 3.123590
v 7.817269 1.359842 3.048061
v 7.419405 1.399551 3.083730
v 7.424855 1.439491 3.069421
v 7.482124 1.504120 3.059721
v 7.833249 1.452951 3.051631
v 7.705341 1.480560 3.084141
v 7.507353 1.510240 3.071921
v 7.770670 1.319862 3.103550
v 7.440364 1.375612 3.096010
v 7.790120 1.355712 3.130110
v 7.803360 1.402902 3.108690
v 7.393825 1.425341 3.119260
v 7.770710 1.436961 3.113630
v 7.743791 1.311403 3.128890
v 7.761130 1.321283 3.138000
v 7.388055 1.390462 3.137140
v 7.435884 1.481950 3.137140
v 7.544433 1.318743 3.159990
v 7.455944 1.355342 3.141400
v 7.382165 1.442811 3.171419
v 7.498363 1.336062 3.197509
v 7.463124 1.345362 3.172669
v 7.411025 1.375142 3.170859
v 7.378605 1.409191 3.168909
v 7.757980 1.355632 3.183379
v 7.597632 1.444591 3.180019
v 7.700281 1.425241 3.168730
v 7.498144 1.478651 3.147970
v 7.620542 1.309313 3.183679
v 7.702921 1.311873 3.170659
v 7.734260 1.332712 3.182819
v 7.411654 1.391932 3.197549
v 7.740000 1.385392 3.177579
v 7.383675 1.425991 3.198789
v 7.417944 1.455861 3.186599
v 7.389765 1.438031 3.194769
v 7.489004 1.442391 3.197219
v 7.630762 1.334182 3.205609
v 7.523863 1.368022 3.218829
v 7.448494 1.401931 3.215669
v 7.702521 1.352612 3.205119
v 7.618382 1.364062 3.222379
v 7.533313 1.403911 3.215929
v 7.648921 1.393452 3.194469
v 7.439744 1.428101 3.198679
vn 0.3372 0.5681 -0.7507
vn 0.1345 0.0220 -0.9907
vn -0.4280 0.1005 -0.8982
vn -0.4333 0.7228 -0.5384
vn 0.1966 -0.3921 -0.8987
vn -0.2016 -0.5216 -0.8290
vn 0.4807 -0.0269 -0.8765
vn -0.5874 -0.3575 -0.7261
vn -0.8436 0.1450 -0.5170
vn 0.1920 0.9783 -0.0773
vn -0.1890 -0.7239 -0.6635
vn 0.1021 -0.6580 -0.7461
vn 0.3602 -0.3257 -0.8742
vn 0.6163 0.4280 -0.6611
vn -0.7474 0.6429 -0.1674
vn -0.3740 0.9260 0.0515
vn 0.5483 0.7428 -0.3843
vn -0.0437 -0.8150 -0.5779
vn 0.6200 0.0740 -0.7811
vn 0.3044 -0.5262 -0.7940
vn -0.5489 -0.5728 -0.6088
vn -0.8209 -0.2218 -0.5262
vn -0.8979 0.3428 -0.2763
vn -0.0891 0.9302 0.3562
vn -0.6285 0.7738 0.0788
vn 0.4201 0.9075 -0.0025
vn 0.6487 0.6365 -0.4171
vn -0.3493 0.8953 0.2765
vn 0.4758 -0.4907 -0.7300
vn 0.1118 -0.7992 -0.5905
vn -0.4182 -0.6659 -0.6178
vn 0.7506 0.0052 -0.6607
vn -0.8093 -0.0812 -0.5818
vn 0.3330 0.9249 0.1832
vn 0.1350 0.9076 0.3974
vn -0.0859 -0.8263 -0.5567
vn 0.3866 -0.7827 -0.4877
vn 0.7931 -0.4079 -0.4523
vn -0.6119 -0.3434 -0.7125
vn 0.8015 0.5382 -0.2606
vn 0.5578 0.8294 0.0289
vn -0.2768 -0.7315 -0.6231
vn 0.9883 0.1519 -0.0134
vn -0.6199 0.7683 0.1596
vn -0.2660 0.8983 0.3496
vn -0.0437 0.8837 0.4661
vn 0.0897 0.8775 0.4711
vn 0.1832 -0.8759 -0.4463
vn 0.7932 -0.6088 -0.0086
vn -0.8477 0.1409 -0.5115
vn -0.8321 0.4897 -0.2604
vn 0.3094 0.8414 0.4430
vn -0.5085 -0.5379 -0.6723
vn 0.4265 -0.8799 -0.2095
vn -0.7525 -0.2275 -0.6181
vn -0.5965 0.7920 0.1303
vn -0.2744 0.8793 0.3893
vn 0.2447 -0.8906 -0.3834
vn 0.6493 0.6956 0.3074
vn -0.5551 -0.5949 -0.5813
vn -0.2186 -0.8052 -0.5513
vn 0.8586 -0.1353 0.4945
vn 0.6932 -0.6599 0.2897
vn 0.7215 0.4520 0.5245
vn 0.0483 0.8540 0.5180
vn 0.1258 -0.9002 -0.4170
vn 0.3493 -0.8944 -0.2794
vn -0.0772 -0.8567 -0.5099
vn -0.8494 -0.0334 -0.5268
vn 0.1736 0.7960 0.5798
vn 0.3984 0.6825 0.6128
vn 0.6087 0.3332 0.7201
vn -0.7460 0.6507 -0.1416
vn -0.5606 0.8184 0.1262
vn -0.1614 0.9041 0.3956
vn 0.5145 -0.8564 -0.0435
vn 0.7241 -0.1431 0.6747
vn 0.4675 -0.8828 -0.0458
vn -0.6032 -0.5265 -0.5991
vn -0.8543 0.3553 -0.3793
vn -0.3400 0.8735 0.3484
vn -0.0123 0.8857 0.4641
vn 0.3923 0.5926 0.7035
vn 0.0443 -0.9081 -0.4164
vn -0.4900 -0.5500 -0.6763
vn -0.8140 0.0524 -0.5785
vn 0.6177 0.2649 0.7405
vn -0.4660 0.8352 0.2919
vn 0.3298 -0.9225 -0.2006
vn 0.3880 -0.9069 -0.1645
vn 0.7099 -0.5730 0.4096
vn 0.5441 0.3119 0.7789
vn 0.2518 0.7213 0.6452
vn 0.3629 0.5537 0.7494
vn -0.0988 -0.8882 -0.4488
vn 0.6348 -0.7549 0.1650
vn -0.6642 -0.2707 -0.6968
vn 0.6759 0.0598 0.7346
vn -0.6133 0.7825 -0.1076
vn -0.2993 0.9268 0.2270
vn 0.3773 -0.9158 -0.1377
vn -0.2693 -0.7871 -0.5549
vn 0.7881 -0.2527 0.5613
vn 0.4284 0.4808 0.7650
vn -0.5463 -0.5168 -0.6591
vn 0.4917 0.5089 0.7066
vn -0.1560 0.9543 0.2547
vn 0.1000 -0.9250 -0.3666
vn 0.3653 -0.9148 -0.1721
vn -0.7773 0.0968 -0.6217
vn 0.6209 -0.7762 0.1094
vn -0.3974 -0.7136 -0.5769
vn 0.8222 -0.3751 0.4281
vn -0.6195 -0.3847 -0.6843
vn -0.7278 0.5870 -0.3545
vn 0.6491 0.2822 0.7064
vn 0.4529 0.5765 0.6801
vn -0.1964 0.9587 0.2057
vn -0.4775 0.8784 -0.0193
vn 0.3150 0.7313 0.6049
vn 0.7489 0.1418 0.6473
vn 0.0586 0.9047 0.4219
vn -0.2255 -0.8840 -0.4096
vn 0.2013 -0.9461 -0.2536
vn -0.7839 -0.0872 -0.6148
vn -0.7426 0.5898 -0.3173
vn 0.5306 0.5078 0.6786
vn -0.0455 -0.9806 -0.1908
vn 0.6714 -0.7337 0.1038
vn -0.6742 -0.4634 -0.5750
vn -0.8137 0.2918 -0.5026
vn -0.5087 0.8577 -0.0745
vn 0.5589 0.5018 0.6602
vn 0.2065 0.8250 0.5260
vn -0.1644 0.9546 0.2486
vn 0.4745 -0.8801 -0.0180
vn -0.4162 -0.8090 -0.4151
vn 0.8042 -0.3986 0.4408
vn 0.7403 0.2200 0.6353
vn -0.9142 0.0927 -0.3944
vn 0.4417 0.6265 0.6422
vn 0.2012 -0.9794 0.0187
vn 0.5762 -0.7503 0.3242
vn -0.7449 -0.6161 -0.2560
vn -0.3688 0.9132 0.1736
vn -0.2324 -0.9677 -0.0974
vn -0.3933 -0.8919 -0.2231
vn -0.8114 0.5743 0.1085
vn -0.2788 -0.7877 0.5493
vn -0.4088 -0.9119 0.0359
vn -0.5852 -0.7862 0.1987
vn -0.9441 -0.2907 0.1557
vn 0.6435 -0.0491 0.7639
vn 0.1583 0.7031 0.6932
vn 0.2737 0.6269 0.7295
vn 0.0330 0.8733 0.4860
vn -0.0373 -0.9385 0.3433
vn 0.1834 -0.9002 0.3950
vn 0.4291 -0.5972 0.6776
vn -0.4872 -0.5132 0.7066
vn 0.4119 0.4452 0.7951
vn -0.6047 0.1145 0.7882
vn -0.1838 0.7614 0.6217
vn -0.3734 0.5703 0.7317
vn 0.0229 0.6045 0.7963
vn 0.0631 -0.5778 0.8137
vn -0.1145 -0.2908 0.9499
vn -0.1627 0.0643 0.9846
vn 0.2744 -0.0112 0.9615
vn 0.1094 0.0485 0.9928
vn 0.0540 0.3652 0.9294
vn 0.2052 0.4528 0.8677
vn -0.0669 0.4105 0.9094
usemtl mtl1.304
s 1
f 9//7 10//8 11//9
f 9//7 11//9 12//10
f 13//11 14//12 10//8
f 15//13 13//11 10//8
f 11//9 14//12 16//14
f 10//8 14//12 11//9
f 16//14 17//15 11//9
f 10//8 9//7 15//13
f 12//10 11//9 17//15
f 18//16 9//7 12//10
f 14//12 19//17 16//14
f 20//18 19//17 14//12
f 13//11 20//18 14//12
f 13//11 15//13 20//18
f 15//13 21//19 20//18
f 15//13 9//7 22//20
f 23//21 12//10 17//15
f 12//10 24//22 18//16
f 22//20 9//7 25//23
f 12//10 23//21 24//22
f 18//16 25//23 9//7
f 19//17 20//18 26//24
f 27//25 28//26 21//19
f 16//14 29//27 30//28
f 19//17 29//27 16//14
f 21//19 15//13 27//25
f 30//28 17//15 16//14
f 17//15 31//29 23//21
f 18//16 24//22 32//30
f 28//26 20//18 21//19
f 27//25 15//13 22//20
f 30//28 31//29 17//15
f 33//31 23//21 31//29
f 25//23 34//32 35//33
f 23//21 33//31 36//34
f 25//23 18//16 34//32
f 24//22 23//21 36//34
f 24//22 36//34 32//30
f 28//26 37//35 38//36
f 29//27 19//17 39//37
f 38//36 26//24 20//18
f 28//26 38//36 20//18
f 29//27 39//37 30//28
f 28//26 27//25 37//35
f 27//25 40//38 37//35
f 41//39 31//29 30//28
f 27//25 22//20 35//33
f 27//25 35//33 40//38
f 25//23 35//33 22//20
f 34//32 42//40 35//33
f 32//30 43//41 18//16
f 34//32 18//16 43//41
f 26//24 39//37 19//17
f 30//28 39//37 41//39
f 39//37 26//24 44//42
f 38//36 37//35 45//43
f 37//35 40//38 45//43
f 45//43 40//38 46//44
f 41//39 39//37 47//45
f 48//46 40//38 35//33
f 49//47 35//33 42//40
f 43//41 42//40 34//32
f 47//45 39//37 50//48
f 51//49 46//44 40//38
f 48//46 51//49 40//38
f 33//31 31//29 52//50
f 33//31 52//50 53//51
f 36//34 33//31 53//51
f 32//30 36//34 54//52
f 43//41 55//53 42//40
f 43//41 32//30 54//52
f 56//54 44//42 26//24
f 38//36 56//54 26//24
f 44//42 50//48 39//37
f 45//43 46//44 57//55
f 58//56 41//39 47//45
f 59//57 31//29 41//39
f 35//33 49//47 48//46
f 42//40 55//53 60//58
f 42//40 60//58 49//47
f 53//51 54//52 36//34
f 54//52 55//53 43//41
f 56//54 38//36 45//43
f 47//45 50//48 61//59
f 45//43 57//55 62//60
f 63//61 58//56 47//45
f 58//56 59//57 41//39
f 64//62 52//50 31//29
f 53//51 65//63 54//52
f 56//54 45//43 66//64
f 45//43 62//60 66//64
f 47//45 61//59 63//61
f 57//55 46//44 51//49
f 51//49 48//46 67//65
f 48//46 49//47 67//65
f 53//51 52//50 65//63
f 68//66 61//59 50//48
f 44//42 69//67 50//48
f 70//68 71//69 57//55
f 70//68 57//55 51//49
f 70//68 51//49 72//70
f 51//49 67//65 72//70
f 64//62 31//29 59//57
f 60//58 67//65 49//47
f 52//50 64//62 65//63
f 55//53 54//52 73//71
f 44//42 56//54 74//72
f 74//72 56//54 75//73
f 76//74 69//67 44//42
f 69//67 68//66 50//48
f 71//69 62//60 57//55
f 77//75 58//56 63//61
f 73//71 78//76 55//53
f 78//76 79//77 60//58
f 79//77 67//65 60//58
f 60//58 55//53 78//76
f 74//72 76//74 44//42
f 66//64 62//60 56//54
f 61//59 68//66 63//61
f 80//78 70//68 72//70
f 58//56 81//79 59//57
f 82//80 59//57 81//79
f 59//57 82//80 64//62
f 72//70 67//65 79//77
f 73//71 54//52 83//81
f 56//54 84//82 75//73
f 62//60 71//69 84//82
f 62//60 84//82 56//54
f 68//66 77//75 63//61
f 70//68 85//83 71//69
f 80//78 85//83 70//68
f 81//79 58//56 77//75
f 80//78 72//70 79//77
f 64//62 82//80 83//81
f 65//63 64//62 83//81
f 54//52 65//63 83//81
f 75//73 86//84 74//72
f 68//66 69//67 87//85
f 75//73 84//82 86//84
f 68//66 87//85 77//75
f 81//79 77//75 88//86
f 82//80 89//87 83//81
f 90//88 73//71 83//81
f 79//77 78//76 91//89
f 80//78 79//77 91//89
f 69//67 76//74 92//90
f 74//72 92//90 76//74
f 69//67 93//91 87//85
f 77//75 87//85 94//92
f 88//86 77//75 94//92
f 85//83 80//78 95//93
f 96//94 82//80 81//79
f 82//80 96//94 89//87
f 95//93 80//78 91//89
f 92//90 74//72 97//95
f 97//95 74//72 98//96
f 74//72 86//84 98//96
f 99//97 84//82 71//69
f 85//83 99//97 71//69
f 95//93 100//98 85//83
f 73//71 101//99 78//76
f 101//99 91//89 78//76
f 89//87 90//88 83//81
f 84//82 99//97 86//84
f 100//98 91//89 102//100
f 95//93 91//89 100//98
f 92//90 103//101 69//67
f 86//84 104//102 98//96
f 104//102 86//84 99//97
f 94//92 93//91 105//103
f 93//91 94//92 87//85
f 85//83 100//98 106//104
f 107//105 81//79 88//86
f 81//79 107//105 108//106
f 91//89 101//99 102//100
f 96//94 81//79 108//106
f 96//94 90//88 89//87
f 97//95 109//107 92//90
f 93//91 69//67 110//108
f 109//107 97//95 104//102
f 97//95 98//96 104//102
f 106//104 111//109 99//97
f 99//97 85//83 106//104
f 100//98 102//100 112//110
f 112//110 102//100 101//99
f 93//91 113//111 105//103
f 99//97 111//109 104//102
f 107//105 88//86 94//92
f 100//98 112//110 106//104
f 114//112 112//110 101//99
f 73//71 90//88 101//99
f 107//105 115//113 108//106
f 108//106 90//88 96//94
f 92//90 116//114 103//101
f 109//107 117//115 92//90
f 92//90 117//115 116//114
f 113//111 93//91 110//108
f 103//101 110//108 69//67
f 105//103 113//111 118//116
f 105//103 118//116 94//92
f 112//110 114//112 106//104
f 117//115 109//107 119//117
f 120//118 113//111 110//108
f 119//117 109//107 104//102
f 121//119 119//117 104//102
f 121//119 104//102 111//109
f 118//116 113//111 122//120
f 123//121 94//92 118//116
f 107//105 94//92 123//121
f 114//112 124//122 106//104
f 114//112 101//99 125//123
f 107//105 126//124 115//113
f 108//106 115//113 90//88
f 113//111 120//118 122//120
f 124//122 114//112 125//123
f 107//105 127//125 126//124
f 101//99 90//88 128//126
f 125//123 101//99 128//126
f 124//122 129//127 111//109
f 111//109 106//104 124//122
f 107//105 123//121 127//125
f 126//124 130//128 115//113
f 130//128 90//88 115//113
f 110//108 103//101 131//129
f 116//114 132//130 103//101
f 116//114 117//115 132//130
f 131//129 120//118 110//108
f 111//109 129//127 121//119
f 122//120 133//131 118//116
f 123//121 118//116 134//132
f 135//133 129//127 124//122
f 125//123 128//126 135//133
f 125//123 135//133 124//122
f 136//134 131//129 103//101
f 119//117 137//135 117//115
f 119//117 121//119 137//135
f 122//120 138//136 133//131
f 120//118 138//136 122//120
f 118//116 133//131 139//137
f 139//137 134//132 118//116
f 140//138 123//121 134//132
f 135//133 128//126 141//139
f 123//121 140//138 127//125
f 142//140 128//126 90//88
f 130//128 142//140 90//88
f 127//125 143//141 126//124
f 103//101 132//130 136//134
f 132//130 137//135 144//142
f 132//130 117//115 137//135
f 120//118 145//143 138//136
f 146//144 137//135 121//119
f 147//145 146//144 121//119
f 129//127 147//145 121//119
f 143//141 127//125 140//138
f 130//128 126//124 143//141
f 145//143 120//118 131//129
f 148//146 133//131 138//136
f 139//137 133//131 148//146
f 135//133 141//139 129//127
f 149//147 141//139 128//126
f 136//134 132//130 150//148
f 151//149 144//142 137//135
f 138//136 145//143 152//150
f 146//144 151//149 137//135
f 138//136 152//150 148//146
f 153//151 140//138 134//132
f 149//147 128//126 142//140
f 131//129 154//152 155//153
f 131//129 155//153 145//143
f 147//145 129//127 141//139
f 148//146 134//132 139//137
f 140//138 153//151 143//141
f 136//134 154//152 131//129
f 132//130 144//142 150//148
f 145//143 155//153 152//150
f 147//145 141//139 149//147
f 134//132 148//146 156//154
f 134//132 156//154 153//151
f 154//152 157//155 158//156
f 150//148 144//142 151//149
f 155//153 154//152 158//156
f 155//153 158//156 159//157
f 152//150 155//153 159//157
f 152//150 159//157 160//158
f 147//145 161//159 146//144
f 152//150 160//158 148//146
f 160//158 156//154 148//146
f 142//140 162//160 163//161
f 163//161 149//147 142//140
f 130//128 162//160 142//140
f 153//151 164//162 143//141
f 130//128 143//141 164//162
f 165//163 154//152 136//134
f 136//134 166//164 165//163
f 136//134 150//148 166//164
f 154//152 165//163 157//155
f 150//148 151//149 166//164
f 151//149 146//144 167//165
f 167//165 146//144 161//159
f 159//157 168//166 160//158
f 169//167 161//159 147//145
f 147//145 149//147 169//167
f 160//158 170//168 156//154
f 153//151 156//154 171//169
f 153//151 171//169 164//162
f 162//160 130//128 164//162
f 166//164 151//149 167//165
f 157//155 159//157 158//156
f 157//155 168//166 159//157
f 168//166 170//168 160//158
f 172//170 156//154 170//168
f 149//147 163//161 169//167
f 172//170 171//169 156//154
f 173//171 162//160 164//162
f 166//164 174//172 165//163
f 167//165 174//172 166//164
f 165//163 174//172 157//155
f 175//173 157//155 174//172
f 168//166 157//155 175//173
f 175//173 176//174 168//166
f 170//168 168//166 176//174
f 171//169 173//171 164//162
f 167//165 177//175 174//172
f 167//165 161//159 177//175
f 178//176 175//173 174//172
f 178//176 179//177 175//173
f 180//178 177//175 169//167
f 177//175 161//159 169//167
f 179//177 176//174 175//173
f 169//167 163//161 180//178
f 176//174 181//179 170//168
f 179//177 181//179 176//174
f 179//177 180//178 162//160
f 172//170 170//168 181//179
f 179//177 173//171 181//179
f 163//161 162//160 180//178
f 179//177 162//160 173//171
f 181//179 171//169 172//170
f 181//179 173//171 171//169
f 174//172 177//175 178//176
f 180//178 179//177 178//176
f 177//175 180//178 178//176
