# Blender v2.92.0 OBJ File: 'convert_to_one_sided.blend'
# www.blender.org
mtllib 312782648L.mtl
o Cube
v 0.001000 0.001000 -0.001000
v 0.001000 -0.001000 -0.001000
v 0.001000 0.001000 0.001000
v 0.001000 -0.001000 0.001000
v -0.001000 0.001000 -0.001000
v -0.001000 -0.001000 -0.001000
v -0.001000 0.001000 0.001000
v -0.001000 -0.001000 0.001000
vt 0.625000 0.500000
vt 0.875000 0.500000
vt 0.875000 0.750000
vt 0.625000 0.750000
vt 0.375000 0.750000
vt 0.625000 1.000000
vt 0.375000 1.000000
vt 0.375000 0.000000
vt 0.625000 0.000000
vt 0.625000 0.250000
vt 0.375000 0.250000
vt 0.125000 0.500000
vt 0.375000 0.500000
vt 0.125000 0.750000
vn 0.0000 1.0000 0.0000
vn 0.0000 0.0000 1.0000
vn -1.0000 0.0000 0.0000
vn 0.0000 -1.0000 0.0000
vn 1.0000 0.0000 0.0000
vn 0.0000 0.0000 -1.0000
usemtl Material
s off
f 1/1/1 5/2/1 7/3/1 3/4/1
f 4/5/2 3/4/2 7/6/2 8/7/2
f 8/8/3 7/9/3 5/10/3 6/11/3
f 6/12/4 2/13/4 4/5/4 8/14/4
f 2/13/5 1/1/5 3/4/5 4/5/5
f 6/11/6 5/10/6 1/1/6 2/13/6
o 312782648
v 9.283150 3.368536 1.460312
v 9.303361 3.395396 1.466582
v 9.274161 3.299347 1.472632
v 9.332710 3.356157 1.476272
v 9.246230 3.172109 1.497751
v 9.237452 3.224958 1.492611
v 9.252141 3.315897 1.489121
v 9.320540 3.257318 1.493531
v 9.384079 3.322757 1.497771
v 9.285770 3.390486 1.480942
v 9.387949 3.375456 1.499501
v 9.344360 3.413176 1.495861
v 9.310800 3.416996 1.490451
v 9.316580 3.103710 1.552930
v 9.229261 3.096390 1.531171
v 9.219521 3.153739 1.516471
v 9.207441 3.187579 1.527971
v 9.388148 3.248628 1.524471
v 9.256551 3.360727 1.504231
v 9.286551 3.400166 1.512011
v 9.385098 3.394966 1.508611
v 9.320020 3.421456 1.509961
v 9.210181 3.022711 1.558010
v 9.182442 3.036411 1.565580
v 9.219761 3.264518 1.533911
v 9.426498 3.301247 1.534481
v 9.424258 3.344267 1.543461
v 9.383410 3.392386 1.531271
v 9.340540 3.414836 1.526521
v 9.185493 2.993541 1.569800
v 9.210061 2.928772 1.597660
v 9.441268 3.202569 1.575840
v 9.477618 3.237448 1.597390
v 9.241371 3.317387 1.541061
v 9.316240 3.407786 1.537041
v 9.179762 2.953892 1.587720
v 9.360829 2.928122 1.665019
v 9.169582 3.088790 1.581380
v 9.188731 3.164759 1.566360
v 9.199992 3.193329 1.582480
v 9.492618 3.160589 1.623090
v 9.468199 3.277168 1.595360
v 9.282571 3.364296 1.553381
v 9.439678 3.310357 1.598960
v 9.154092 2.848813 1.630790
v 9.130562 2.875903 1.641649
v 9.141272 2.973871 1.630549
v 9.453749 3.084990 1.635119
v 9.247391 3.286627 1.575860
v 9.370379 3.373736 1.569900
v 9.118083 2.792754 1.667369
v 9.210742 2.812164 1.666689
v 9.162823 3.068180 1.613740
v 9.330020 3.370736 1.575020
v 9.314580 3.299847 1.613460
v 9.422129 3.305657 1.632330
v 9.137632 2.750294 1.686499
v 9.105192 2.784464 1.680299
v 9.168061 3.060910 1.645489
v 9.244411 3.191128 1.625770
v 9.513047 3.121700 1.660839
v 9.509048 3.176569 1.668739
v 9.379000 3.318807 1.621940
v 9.088253 2.757384 1.712978
v 9.102392 2.841013 1.698069
v 9.503548 3.009331 1.703449
v 9.474069 3.224948 1.678649
v 9.114863 2.664935 1.730198
v 9.180292 2.696345 1.729678
v 9.308550 2.756204 1.751208
v 9.099993 2.711705 1.718808
v 9.465057 2.838463 1.785347
v 9.129992 2.930782 1.684739
v 9.252261 3.096700 1.690029
v 9.552987 3.061010 1.726458
v 9.341399 3.178789 1.700029
v 9.378929 3.256438 1.668679
v 9.431388 3.241968 1.685839
v 9.084813 2.778274 1.766908
v 9.199702 2.963992 1.733138
v 9.133902 2.611786 1.774248
v 9.091454 2.613896 1.770198
v 9.070534 2.647746 1.772658
v 9.062823 2.691165 1.786878
v 9.560368 2.940572 1.786958
v 9.565846 3.056450 1.756758
v 9.536377 3.103220 1.748828
v 9.409039 3.199019 1.716828
v 9.495798 3.144959 1.749098
v 9.223842 2.633506 1.800297
v 9.138863 2.842073 1.770488
v 9.584686 2.970111 1.803547
v 9.318439 3.017191 1.785547
v 9.091333 2.561357 1.802747
v 9.061753 2.567477 1.816557
v 9.557056 2.825513 1.852927
v 9.211211 2.854293 1.825637
v 9.452068 3.165599 1.745998
v 9.071403 2.536827 1.838737
v 9.136792 2.564417 1.827647
v 9.048834 2.600806 1.821807
v 9.365719 2.648296 1.867946
v 9.052284 2.659336 1.840507
v 9.120953 2.738975 1.838917
v 9.596746 2.869823 1.862796
v 9.586886 2.961842 1.834637
v 9.540487 3.022281 1.834307
v 9.419559 3.100920 1.783238
v 9.093873 2.532027 1.854146
v 9.148432 2.549087 1.861716
v 9.046744 2.553657 1.860746
v 9.232922 2.587706 1.866716
v 9.044893 2.613486 1.851137
v 9.517068 2.712095 1.906366
v 9.605976 2.882953 1.879316
v 9.412999 2.932022 1.903476
v 9.483988 3.084630 1.802027
v 9.066323 2.534517 1.869546
v 9.042744 2.613236 1.872396
v 9.509278 3.013081 1.862746
v 9.468449 3.023361 1.849967
v 9.113462 2.539397 1.869756
v 9.178731 2.566077 1.896386
v 9.315990 2.583906 1.914916
v 9.489048 2.578897 1.988965
v 9.598806 2.752844 1.937276
v 9.298810 2.844733 1.897846
v 9.053884 2.545587 1.885416
v 9.104573 2.555057 1.892236
v 9.054414 2.581967 1.884216
v 9.266601 2.580547 1.934376
v 9.392689 2.537217 1.987565
v 9.085963 2.643896 1.880006
v 9.629336 2.773274 1.965015
v 9.617966 2.829773 1.939196
v 9.530557 2.929352 1.922396
v 9.482449 2.964282 1.896416
v 9.337770 2.552687 1.977185
v 9.576806 2.622456 2.014755
v 9.212301 2.702925 1.940356
v 9.580247 2.888443 1.922446
v 9.102413 2.579647 1.906806
v 9.366449 2.529577 1.998855
v 9.171702 2.587517 1.921566
v 9.236992 2.592306 1.953855
v 9.122963 2.624786 1.909796
v 9.620226 2.684135 2.010395
v 9.468668 2.883373 1.954995
v 9.324900 2.548347 2.044834
v 9.190222 2.634746 1.942705
v 9.220551 2.617536 1.961085
v 9.272230 2.631926 2.029744
v 9.636266 2.732535 2.023664
v 9.607706 2.792954 1.994775
v 9.568807 2.832833 1.985635
v 9.387129 2.501578 2.041824
v 9.426498 2.475028 2.059704
v 9.266311 2.606586 2.006875
v 9.473529 2.477968 2.081774
v 9.534637 2.533877 2.060924
v 9.238091 2.626606 1.986655
v 9.631026 2.667705 2.048244
v 9.338870 2.767054 1.986455
v 9.430529 2.758254 2.042974
v 9.531918 2.795524 2.024004
v 9.401489 2.466948 2.125723
v 9.608327 2.618126 2.053894
v 9.331201 2.669405 2.054184
v 9.434109 2.458588 2.102003
v 9.573796 2.551197 2.080634
v 9.308720 2.589087 2.070264
v 9.528858 2.494438 2.105163
v 9.364899 2.510967 2.139013
v 9.608466 2.594246 2.091574
v 9.600186 2.733195 2.050024
v 9.350540 2.543927 2.130513
v 9.340590 2.586807 2.112103
v 9.612777 2.605296 2.105153
v 9.582807 2.550677 2.133533
v 9.619266 2.672335 2.067594
v 9.498057 2.726675 2.078324
v 9.465618 2.659905 2.129033
v 9.528818 2.656516 2.125173
v 9.456598 2.442158 2.130083
v 9.437219 2.448338 2.132733
v 9.486478 2.461918 2.138363
v 9.544787 2.518307 2.132833
v 9.404579 2.483408 2.181303
v 9.575377 2.616016 2.126153
v 9.397120 2.621786 2.128783
v 9.445449 2.464348 2.165612
v 9.376689 2.513007 2.163033
v 9.547427 2.538477 2.156123
v 9.545207 2.593956 2.160113
v 9.497998 2.492668 2.161963
v 9.389089 2.536317 2.165753
v 9.528658 2.554707 2.180063
v 9.463768 2.580356 2.171593
v 9.518387 2.581856 2.170702
v 9.437819 2.477928 2.199322
v 9.482088 2.507638 2.186422
v 9.447719 2.512697 2.185343
v 9.491138 2.546707 2.177333
vn -0.5071 0.2196 -0.8335
vn 0.0065 0.4064 -0.9137
vn -0.0980 -0.1132 -0.9887
vn 0.3136 0.0252 -0.9492
vn -0.0587 -0.2870 -0.9561
vn -0.5687 -0.0418 -0.8215
vn -0.7869 0.1654 -0.5944
vn 0.2907 -0.2673 -0.9187
vn 0.4572 -0.1498 -0.8766
vn -0.6920 0.5687 -0.4446
vn 0.6074 0.2389 -0.7576
vn 0.3777 0.7884 -0.4856
vn -0.3034 0.8740 -0.3797
vn 0.3411 -0.3873 -0.8565
vn -0.1275 -0.3430 -0.9306
vn -0.5352 -0.1757 -0.8262
vn -0.8439 0.0749 -0.5313
vn 0.4614 -0.3044 -0.8334
vn -0.8828 0.4388 -0.1674
vn -0.6749 0.7193 0.1644
vn 0.6815 0.6704 -0.2935
vn -0.1329 0.9867 0.0939
vn -0.0574 -0.3187 -0.9461
vn -0.6499 -0.1199 -0.7505
vn -0.9480 0.2831 -0.1458
vn 0.7008 -0.0639 -0.7105
vn 0.8671 0.4346 -0.2433
vn 0.5557 0.8043 0.2106
vn 0.2425 0.9188 0.3113
vn -0.4187 -0.2281 -0.8790
vn 0.1780 -0.4289 -0.8856
vn 0.5373 -0.2802 -0.7955
vn 0.8505 0.0537 -0.5233
vn -0.8285 0.4616 0.3171
vn -0.2441 0.7843 0.5703
vn -0.3633 -0.3071 -0.8796
vn 0.4114 -0.4588 -0.7876
vn -0.9327 0.1116 -0.3429
vn -0.9623 0.2465 -0.1153
vn -0.8538 0.3812 0.3545
vn 0.6466 -0.2352 -0.7257
vn 0.8998 0.4330 -0.0530
vn -0.5659 0.5490 0.6151
vn 0.6830 0.6575 0.3181
vn -0.1649 -0.3891 -0.9063
vn -0.7551 -0.0681 -0.6521
vn -0.9534 0.1331 -0.2708
vn 0.4888 -0.3811 -0.7848
vn -0.6343 0.4281 0.6438
vn 0.2279 0.7600 0.6086
vn -0.4427 -0.3306 -0.8335
vn 0.2788 -0.5022 -0.8186
vn -0.9583 0.2758 0.0747
vn -0.2053 0.6193 0.7579
vn -0.4044 0.4843 0.7758
vn 0.3323 0.7070 0.6243
vn -0.0354 -0.4793 -0.8769
vn -0.7262 -0.1870 -0.6616
vn -0.7257 0.4131 0.5501
vn -0.5648 0.4262 0.7067
vn 0.7881 -0.1446 -0.5984
vn 0.9262 0.3737 -0.0490
vn -0.0797 0.6291 0.7732
vn -0.8793 -0.0586 -0.4727
vn -0.9670 0.1889 -0.1712
vn 0.5550 -0.3818 -0.7390
vn 0.6199 0.6285 0.4698
vn -0.0746 -0.5075 -0.8584
vn 0.2931 -0.5375 -0.7907
vn 0.4013 -0.5330 -0.7449
vn -0.5378 -0.3523 -0.7659
vn 0.4600 -0.4944 -0.7375
vn -0.8667 0.3843 0.3179
vn -0.5315 0.4483 0.7187
vn 0.8396 -0.0860 -0.5363
vn -0.4202 0.4727 0.7746
vn -0.2284 0.5601 0.7963
vn 0.1175 0.6440 0.7560
vn -0.8548 0.4153 0.3113
vn -0.5868 0.4635 0.6639
vn 0.2232 -0.6208 -0.7515
vn -0.3563 -0.4711 -0.8069
vn -0.7775 -0.2068 -0.5939
vn -0.9758 0.1192 -0.1833
vn 0.6439 -0.3530 -0.6788
vn 0.9517 0.3048 -0.0366
vn 0.7346 0.5585 0.3853
vn -0.1941 0.5580 0.8068
vn 0.3957 0.6346 0.6639
vn 0.3754 -0.6512 -0.6596
vn -0.6235 0.5017 0.5997
vn 0.9383 -0.0270 -0.3448
vn -0.4726 0.4960 0.7285
vn -0.0461 -0.6912 -0.7212
vn -0.6621 -0.4480 -0.6007
vn 0.5486 -0.4537 -0.7023
vn -0.5419 0.5089 0.6688
vn 0.0370 0.5981 0.8006
vn -0.2759 -0.8626 -0.4241
vn 0.3223 -0.7814 -0.5344
vn -0.9337 -0.1117 -0.3402
vn 0.3594 -0.6323 -0.6863
vn -0.8534 0.4016 0.3324
vn -0.5899 0.5057 0.6295
vn 0.7865 -0.2745 -0.5532
vn 0.8669 0.4182 0.2713
vn 0.5092 0.5997 0.6173
vn -0.2335 0.5484 0.8029
vn 0.1510 -0.9741 -0.1685
vn 0.3601 -0.9267 -0.1075
vn -0.9131 -0.4057 -0.0410
vn 0.3199 -0.8767 -0.3592
vn -0.9998 0.0055 0.0171
vn 0.4663 -0.5213 -0.7147
vn 0.9826 0.0938 -0.1604
vn -0.3115 0.5698 0.7604
vn 0.1049 0.6286 0.7706
vn -0.2572 -0.9359 0.2408
vn -0.8556 0.1891 0.4819
vn 0.1265 0.6342 0.7628
vn -0.1179 0.6042 0.7880
vn 0.1645 -0.9260 0.3399
vn 0.1371 -0.9219 0.3623
vn 0.0641 -0.8784 -0.4736
vn 0.3905 -0.6119 -0.6878
vn 0.6447 -0.4298 -0.6321
vn -0.4864 0.5251 0.6984
vn -0.5215 -0.5069 0.6863
vn -0.0020 -0.7049 0.7093
vn -0.7377 0.0251 0.6746
vn -0.1153 -0.9908 -0.0703
vn 0.0816 -0.7664 -0.6371
vn -0.5311 0.3928 0.7507
vn 0.9523 -0.1064 -0.2859
vn 0.8778 0.4014 0.2615
vn 0.2270 0.6087 0.7602
vn -0.0958 0.5903 0.8015
vn -0.2827 -0.8811 -0.3792
vn 0.5661 -0.5317 -0.6299
vn -0.5497 0.4058 0.7302
vn 0.5855 0.5781 0.5684
vn -0.2956 -0.1940 0.9354
vn -0.1437 -0.8198 -0.5544
vn -0.2368 -0.5308 0.8137
vn -0.4373 -0.7426 0.5073
vn -0.4676 0.1892 0.8635
vn 0.7713 -0.3989 -0.4960
vn -0.0952 0.5980 0.7958
vn -0.7117 -0.6935 0.1123
vn -0.5567 -0.1226 0.8216
vn -0.5981 -0.4233 0.6805
vn -0.7394 -0.0029 0.6732
vn 0.8629 0.3033 0.4043
vn 0.5771 0.5685 0.5864
vn 0.3746 0.6005 0.7065
vn -0.3861 -0.8495 -0.3595
vn -0.0322 -0.8577 -0.5132
vn -0.7384 -0.4272 0.5217
vn 0.3510 -0.7806 -0.5172
vn 0.4930 -0.6398 -0.5895
vn -0.6855 -0.3836 0.6188
vn 0.9835 -0.1797 -0.0187
vn -0.4568 0.5371 0.7091
vn -0.2500 0.5909 0.7670
vn 0.0858 0.6003 0.7951
vn -0.5639 -0.8219 0.0802
vn 0.7693 -0.4816 -0.4198
vn -0.5035 0.4788 0.7192
vn -0.2050 -0.9209 -0.3315
vn 0.7103 -0.6198 -0.3337
vn -0.8360 -0.2614 0.4824
vn 0.6098 -0.7541 -0.2440
vn -0.8212 -0.4738 0.3182
vn 0.8601 -0.5018 -0.0920
vn 0.4277 0.5018 0.7519
vn -0.8398 -0.1100 0.5316
vn -0.6586 0.2322 0.7158
vn 0.8346 -0.0159 0.5506
vn 0.7895 -0.4982 0.3585
vn 0.7304 0.2653 0.6295
vn -0.0063 0.6137 0.7895
vn -0.1059 0.5482 0.8296
vn 0.1816 0.5308 0.8278
vn 0.1383 -0.9899 -0.0314
vn -0.3465 -0.9289 0.1309
vn 0.5412 -0.8163 0.2019
vn 0.7062 -0.6759 0.2106
vn -0.5538 -0.3979 0.7315
vn 0.5759 0.2729 0.7706
vn -0.3812 0.4711 0.7954
vn 0.0462 -0.8321 0.5527
vn -0.7288 -0.1027 0.6770
vn 0.6282 -0.3067 0.7151
vn 0.3837 0.3864 0.8388
vn 0.5175 -0.6136 0.5964
vn -0.4494 0.2292 0.8634
vn 0.3800 0.0817 0.9214
vn -0.1000 0.3626 0.9266
vn 0.0624 0.3640 0.9293
vn -0.0225 -0.3282 0.9443
vn 0.3324 -0.2611 0.9063
vn -0.1229 0.2082 0.9703
vn 0.0027 0.1778 0.9841
usemtl mtl1.311
s 1
f 9//7 10//8 11//9
f 12//10 11//9 10//8
f 13//11 14//12 11//9
f 11//9 14//12 15//13
f 16//14 13//11 11//9
f 12//10 16//14 11//9
f 17//15 16//14 12//10
f 15//13 9//7 11//9
f 18//16 9//7 15//13
f 9//7 18//16 10//8
f 19//17 17//15 12//10
f 19//17 12//10 20//18
f 18//16 21//19 10//8
f 10//8 21//19 20//18
f 10//8 20//18 12//10
f 22//20 23//21 13//11
f 16//14 22//20 13//11
f 14//12 13//11 24//22
f 25//23 14//12 24//22
f 15//13 14//12 25//23
f 26//24 16//14 17//15
f 27//25 18//16 15//13
f 21//19 18//16 28//26
f 29//27 19//17 20//18
f 21//19 28//26 30//28
f 21//19 30//28 20//18
f 23//21 22//20 31//29
f 23//21 24//22 13//11
f 25//23 24//22 32//30
f 26//24 22//20 16//14
f 25//23 33//31 15//13
f 26//24 17//15 34//32
f 15//13 33//31 27//25
f 34//32 19//17 35//33
f 17//15 19//17 34//32
f 19//17 29//27 35//33
f 18//16 27//25 28//26
f 29//27 20//18 36//34
f 20//18 30//28 37//35
f 23//21 31//29 32//30
f 31//29 38//36 32//30
f 39//37 31//29 22//20
f 23//21 32//30 24//22
f 34//32 40//38 26//24
f 35//33 41//39 34//32
f 42//40 27//25 33//31
f 35//33 29//27 36//34
f 37//35 36//34 20//18
f 30//28 28//26 43//41
f 39//37 44//42 31//29
f 32//30 38//36 44//42
f 31//29 44//42 38//36
f 22//20 45//43 39//37
f 25//23 32//30 46//44
f 47//45 25//23 46//44
f 22//20 26//24 40//38
f 25//23 47//45 33//31
f 47//45 48//46 33//31
f 41//39 49//47 40//38
f 48//46 42//40 33//31
f 40//38 34//32 41//39
f 50//48 41//39 35//33
f 42//40 28//26 27//25
f 42//40 51//49 28//26
f 35//33 36//34 52//50
f 43//41 37//35 30//28
f 39//37 53//51 44//42
f 32//30 44//42 54//52
f 55//53 32//30 54//52
f 56//54 45//43 22//20
f 32//30 55//53 46//44
f 40//38 56//54 22//20
f 48//46 57//55 42//40
f 51//49 42//40 57//55
f 52//50 50//48 35//33
f 28//26 51//49 43//41
f 58//56 52//50 36//34
f 43//41 58//56 37//35
f 58//56 36//34 37//35
f 53//51 59//57 54//52
f 53//51 54//52 44//42
f 60//58 53//51 39//37
f 45//43 60//58 39//37
f 55//53 61//59 46//44
f 46//44 61//59 47//45
f 49//47 56//54 40//38
f 61//59 48//46 47//45
f 62//60 51//49 63//61
f 43//41 51//49 62//60
f 52//50 58//56 64//62
f 58//56 43//41 62//60
f 53//51 65//63 59//57
f 53//51 60//58 65//63
f 54//52 59//57 66//64
f 48//46 61//59 67//65
f 68//66 48//46 67//65
f 41//39 69//67 49//47
f 48//46 68//66 57//55
f 41//39 50//48 70//68
f 50//48 52//50 70//68
f 57//55 63//61 51//49
f 71//69 64//62 58//56
f 62//60 63//61 71//69
f 58//56 62//60 71//69
f 66//64 72//70 54//52
f 54//52 73//71 55//53
f 72//70 73//71 54//52
f 56//54 74//72 45//43
f 56//54 49//47 69//67
f 69//67 41//39 70//68
f 63//61 57//55 68//66
f 52//50 64//62 75//73
f 76//74 65//63 77//75
f 77//75 65//63 60//58
f 77//75 60//58 78//76
f 66//64 59//57 79//77
f 65//63 79//77 59//57
f 45//43 78//76 60//58
f 80//78 45//43 74//72
f 73//71 81//79 55//53
f 81//79 61//59 55//53
f 81//79 67//65 61//59
f 69//67 74//72 56//54
f 67//65 82//80 68//66
f 70//68 83//81 69//67
f 70//68 52//50 75//73
f 63//61 68//66 84//82
f 85//83 63//61 84//82
f 71//69 63//61 85//83
f 86//84 64//62 71//69
f 65//63 76//74 79//77
f 66//64 79//77 72//70
f 45//43 80//78 78//76
f 73//71 87//85 81//79
f 81//79 88//86 67//65
f 67//65 88//86 82//80
f 69//67 83//81 74//72
f 68//66 82//80 84//82
f 85//83 86//84 71//69
f 75//73 64//62 86//84
f 89//87 90//88 76//74
f 76//74 77//75 89//87
f 76//74 90//88 79//77
f 90//88 91//89 79//77
f 72//70 79//77 91//89
f 72//70 92//90 73//71
f 80//78 74//72 93//91
f 83//81 93//91 74//72
f 83//81 70//68 94//92
f 94//92 70//68 95//93
f 75//73 95//93 70//68
f 96//94 85//83 84//82
f 85//83 96//94 86//84
f 75//73 86//84 97//95
f 89//87 77//75 98//96
f 78//76 98//96 77//75
f 91//89 92//90 72//70
f 92//90 87//85 73//71
f 99//97 81//79 87//85
f 99//97 88//86 81//79
f 83//81 100//98 93//91
f 94//92 100//98 83//81
f 101//99 84//82 82//80
f 95//93 75//73 97//95
f 102//100 103//101 90//88
f 103//101 91//89 90//88
f 102//100 90//88 89//87
f 93//91 104//102 80//78
f 101//99 88//86 105//103
f 82//80 88//86 101//99
f 86//84 96//94 106//104
f 97//95 86//84 106//104
f 103//101 102//100 107//105
f 102//100 108//106 107//105
f 108//106 102//100 89//87
f 89//87 98//96 108//106
f 91//89 109//107 92//90
f 78//76 110//108 98//96
f 111//109 87//85 92//90
f 78//76 80//78 110//108
f 87//85 112//110 99//97
f 88//86 99//97 105//103
f 113//111 93//91 100//98
f 94//92 95//93 114//112
f 114//112 100//98 94//92
f 95//93 97//95 115//113
f 84//82 101//99 116//114
f 96//94 84//82 116//114
f 106//104 96//94 116//114
f 108//106 117//115 107//105
f 117//115 108//106 118//116
f 103//101 107//105 119//117
f 103//101 119//117 109//107
f 91//89 103//101 109//107
f 108//106 98//96 120//118
f 109//107 121//119 92//90
f 121//119 111//109 92//90
f 110//108 80//78 122//120
f 112//110 87//85 111//109
f 104//102 93//91 113//111
f 113//111 100//98 123//121
f 114//112 95//93 115//113
f 124//122 116//114 101//99
f 115//113 97//95 125//123
f 125//123 106//104 116//114
f 97//95 106//104 125//123
f 107//105 117//115 126//124
f 118//116 108//106 120//118
f 98//96 110//108 120//118
f 121//119 127//125 111//109
f 104//102 122//120 80//78
f 123//121 100//98 114//112
f 128//126 115//113 125//123
f 125//123 116//114 129//127
f 126//124 119//117 107//105
f 118//116 130//128 117//115
f 118//116 131//129 130//128
f 119//117 121//119 109//107
f 120//118 131//129 118//116
f 120//118 110//108 132//130
f 110//108 122//120 133//131
f 99//97 112//110 105//103
f 134//132 104//102 113//111
f 105//103 135//133 101//99
f 135//133 124//122 101//99
f 116//114 124//122 129//127
f 128//126 125//123 129//127
f 126//124 117//115 130//128
f 119//117 126//124 136//134
f 137//135 136//134 126//124
f 130//128 137//135 126//124
f 136//134 138//136 119//117
f 119//117 138//136 121//119
f 120//118 139//137 131//129
f 120//118 132//130 139//137
f 132//130 110//108 140//138
f 121//119 138//136 127//125
f 111//109 141//139 112//110
f 142//140 113//111 123//121
f 114//112 143//141 123//121
f 144//142 115//113 128//126
f 129//127 145//143 128//126
f 131//129 137//135 130//128
f 132//130 146//144 139//137
f 132//130 140//138 146//144
f 110//108 133//131 140//138
f 127//125 138//136 141//139
f 127//125 141//139 111//109
f 147//145 122//120 134//132
f 104//102 134//132 122//120
f 105//103 112//110 148//146
f 134//132 113//111 142//140
f 142//140 123//121 143//141
f 114//112 149//147 143//141
f 114//112 115//113 149//147
f 149//147 115//113 144//142
f 144//142 128//126 145//143
f 129//127 124//122 145//143
f 136//134 137//135 150//148
f 146//144 140//138 151//149
f 136//134 150//148 138//136
f 152//150 150//148 137//135
f 137//135 131//129 152//150
f 153//151 152//150 131//129
f 139//137 153//151 131//129
f 154//152 138//136 150//148
f 154//152 141//139 138//136
f 141//139 154//152 148//146
f 122//120 147//145 133//131
f 141//139 148//146 112//110
f 155//153 134//132 142//140
f 148//146 135//133 105//103
f 124//122 156//154 145//143
f 139//137 146//144 157//155
f 150//148 152//150 158//156
f 152//150 153//151 159//157
f 139//137 157//155 153//151
f 158//156 154//152 150//148
f 159//157 158//156 152//150
f 148//146 154//152 158//156
f 160//158 148//146 158//156
f 147//145 134//132 155//153
f 142//140 143//141 161//159
f 149//147 162//160 143//141
f 163//161 149//147 144//142
f 144//142 145//143 156//154
f 164//162 140//138 165//163
f 140//138 164//162 151//149
f 164//162 146//144 151//149
f 166//164 153//151 157//155
f 167//165 133//131 168//166
f 147//145 168//166 133//131
f 153//151 166//164 159//157
f 158//156 159//157 169//167
f 169//167 159//157 166//164
f 160//158 158//156 169//167
f 155//153 142//140 170//168
f 148//146 171//169 135//133
f 162//160 161//159 143//141
f 124//122 135//133 171//169
f 124//122 172//170 156//154
f 162//160 149//147 163//161
f 144//142 156//154 173//171
f 140//138 167//165 165//163
f 140//138 133//131 167//165
f 164//162 174//172 157//155
f 146//144 164//162 157//155
f 175//173 147//145 155//153
f 160//158 169//167 166//164
f 160//158 176//174 148//146
f 176//174 171//169 148//146
f 170//168 142//140 161//159
f 124//122 171//169 172//170
f 156//154 172//170 173//171
f 163//161 144//142 173//171
f 165//163 177//175 164//162
f 168//166 147//145 178//176
f 178//176 147//145 175//173
f 166//164 157//155 179//177
f 175//173 155//153 170//168
f 174//172 164//162 177//175
f 167//165 168//166 180//178
f 174//172 181//179 157//155
f 178//176 175//173 182//180
f 182//180 175//173 170//168
f 166//164 179//177 160//158
f 183//181 161//159 162//160
f 162//160 163//161 183//181
f 167//165 177//175 165//163
f 168//166 178//176 180//178
f 157//155 184//182 179//177
f 160//158 179//177 185//183
f 182//180 186//184 187//185
f 186//184 182//180 170//168
f 160//158 185//183 176//174
f 170//168 188//186 186//184
f 161//159 183//181 188//186
f 170//168 161//159 188//186
f 189//187 172//170 190//188
f 189//187 173//171 172//170
f 173//171 189//187 191//189
f 183//181 173//171 191//189
f 163//161 173//171 183//181
f 177//175 192//190 193//191
f 167//165 192//190 177//175
f 167//165 194//192 192//190
f 174//172 177//175 193//191
f 180//178 194//192 167//165
f 180//178 178//176 195//193
f 178//176 182//180 195//193
f 195//193 182//180 187//185
f 184//182 185//183 179//177
f 176//174 172//170 171//169
f 195//193 194//192 180//178
f 174//172 196//194 181//179
f 181//179 184//182 157//155
f 186//184 188//186 197//195
f 172//170 198//196 190//188
f 197//195 188//186 183//181
f 189//187 190//188 191//189
f 197//195 183//181 191//189
f 193//191 192//190 199//197
f 199//197 174//172 193//191
f 200//198 184//182 181//179
f 201//199 195//193 187//185
f 187//185 186//184 201//199
f 201//199 186//184 197//195
f 176//174 198//196 172//170
f 202//200 197//195 191//189
f 194//192 199//197 192//190
f 174//172 199//197 196//194
f 194//192 203//201 199//197
f 195//193 203//201 194//192
f 195//193 201//199 203//201
f 204//202 185//183 184//182
f 200//198 204//202 184//182
f 201//199 197//195 205//203
f 185//183 198//196 176//174
f 205//203 197//195 202//200
f 198//196 206//204 190//188
f 190//188 206//204 191//189
f 202//200 191//189 207//205
f 196//194 199//197 208//206
f 181//179 196//194 200//198
f 198//196 185//183 204//202
f 205//203 202//200 207//205
f 207//205 191//189 206//204
f 199//197 203//201 209//207
f 208//206 199//197 209//207
f 203//201 201//199 209//207
f 196//194 204//202 200//198
f 204//202 196//194 210//208
f 201//199 205//203 209//207
f 205//203 211//209 209//207
f 205//203 207//205 211//209
f 198//196 204//202 206//204
f 211//209 207//205 206//204
f 210//208 208//206 209//207
f 208//206 210//208 196//194
f 210//208 206//204 204//202
f 209//207 211//209 210//208
f 211//209 206//204 210//208
