# Blender v2.92.0 OBJ File: 'convert_to_one_sided.blend'
# www.blender.org
mtllib 312782566L.mtl
o 312782566
v 7.434124 1.304603 3.235959
v 7.325426 1.348162 3.240549
v 7.425864 1.338342 3.234128
v 7.550533 1.306573 3.244678
v 7.509443 1.352842 3.251138
v 7.365725 1.381962 3.246918
v 7.294196 1.374622 3.247228
v 7.467004 1.273563 3.252688
v 7.536883 1.274473 3.251288
v 7.560263 1.224264 3.319337
v 7.362525 1.301673 3.263278
v 7.615422 1.263963 3.274738
v 7.647392 1.295843 3.273898
v 7.251087 1.312783 3.320347
v 7.255577 1.363902 3.276278
v 7.608192 1.325742 3.269208
v 7.277886 1.405481 3.270668
v 7.466954 1.388052 3.266668
v 7.684551 1.248203 3.315038
v 7.654592 1.216984 3.340337
v 7.400485 1.244923 3.343027
v 7.689601 1.290973 3.304318
v 7.666451 1.316212 3.296888
v 7.577782 1.355522 3.284988
v 7.223827 1.388762 3.304178
v 7.241686 1.429821 3.311268
v 7.360565 1.421331 3.281048
v 7.287076 1.430621 3.294078
v 7.720141 1.246473 3.374037
v 7.295916 1.261083 3.378547
v 7.205117 1.337892 3.354177
v 7.184217 1.379042 3.413116
v 7.470434 1.400511 3.297148
v 7.369785 1.434831 3.311308
v 7.406545 1.423421 3.321877
v 7.289376 1.436401 3.327887
v 7.689931 1.203674 3.368617
v 7.710950 1.283053 3.369887
v 7.180667 1.345082 3.401966
v 7.659981 1.329762 3.329337
v 7.576502 1.366082 3.322078
v 7.205907 1.413371 3.404336
v 7.663171 1.176484 3.422646
v 7.706551 1.205044 3.405257
v 7.729980 1.205304 3.452856
v 7.204877 1.245923 3.482875
v 7.661982 1.321822 3.402366
v 7.422085 1.400411 3.368177
v 7.233207 1.425821 3.380027
v 7.458134 1.193484 3.420686
v 7.560023 1.168064 3.450496
v 7.317926 1.197074 3.508735
v 7.188307 1.295213 3.424106
v 7.729711 1.231053 3.442576
v 7.702141 1.290093 3.416586
v 7.530983 1.334642 3.461006
v 7.328226 1.425171 3.365967
v 7.156248 1.296733 3.476526
v 7.255637 1.421781 3.404557
v 7.150478 1.318252 3.496975
v 7.629842 1.312293 3.461416
v 7.187207 1.389941 3.470085
v 7.162598 1.256613 3.517625
v 7.721401 1.245333 3.487455
v 7.358925 1.362362 3.509275
v 7.217897 1.406921 3.446646
v 7.286746 1.393762 3.465246
v 7.606402 1.123775 3.560014
v 7.701061 1.165194 3.508705
v 7.701601 1.275043 3.476066
v 7.625402 1.279843 3.536435
v 7.162178 1.352192 3.574644
v 7.453224 1.136485 3.586274
v 7.662171 1.144815 3.523775
v 7.126668 1.306943 3.612494
v 7.364245 1.311103 3.642903
v 7.709231 1.194434 3.536325
v 7.136068 1.212944 3.631314
v 7.122708 1.312093 3.680413
v 7.501513 1.275123 3.638994
v 7.231587 1.345142 3.642083
v 7.208087 1.374082 3.532475
v 7.528093 1.084565 3.713793
v 7.651312 1.124905 3.591984
v 7.129238 1.244663 3.597394
v 7.687611 1.197804 3.612954
v 7.680831 1.239343 3.566264
v 7.630872 1.232904 3.642643
v 7.669741 1.141715 3.612554
v 7.185758 1.174804 3.677833
v 7.112449 1.256523 3.641553
v 7.191267 1.352842 3.608954
v 7.607582 1.101825 3.654323
v 7.295926 1.123295 3.729742
v 7.405974 1.085256 3.775172
v 7.669111 1.157724 3.642213
v 7.633372 1.111315 3.662153
v 7.099549 1.209484 3.715852
v 7.632902 1.196034 3.692023
v 7.543843 1.215234 3.759692
v 7.119468 1.308593 3.751482
v 7.160128 1.329292 3.693083
v 7.630502 1.119525 3.702112
v 7.108738 1.162884 3.801621
v 7.072489 1.206274 3.789952
v 7.576092 1.090505 3.745942
v 7.074519 1.235923 3.795251
v 7.092558 1.276773 3.783871
v 7.625062 1.147895 3.728592
v 7.584152 1.178344 3.786561
v 7.385375 1.250633 3.804071
v 7.131339 1.310523 3.783101
v 7.529713 1.071406 3.792881
v 7.175848 1.105745 3.898830
v 7.595333 1.163154 3.781252
v 7.148728 1.305573 3.815131
v 7.463784 1.061796 3.853691
v 7.305686 1.066676 3.914890
v 7.569333 1.103285 3.806611
v 7.224407 1.277623 3.869360
v 7.510754 1.074425 3.856421
v 7.068249 1.169534 3.857600
v 7.560472 1.155165 3.845731
v 7.080059 1.268923 3.902060
v 7.385025 1.053396 3.912540
v 7.078659 1.122785 3.961339
v 7.551413 1.128855 3.856011
v 7.404934 1.201534 3.942400
v 7.271236 1.220713 4.036298
v 7.109448 1.286193 3.880650
v 7.542063 1.168374 3.851811
v 7.400985 1.040406 3.968809
v 7.513863 1.144175 3.914680
v 7.034840 1.174924 3.962749
v 7.483664 1.086265 3.946159
v 7.042329 1.140465 3.988769
v 7.470384 1.167154 3.943520
v 7.050879 1.228884 3.958859
v 7.441364 1.056346 3.952579
v 7.079189 1.258573 4.022248
v 7.489493 1.118895 3.956219
v 7.056259 1.244793 4.039228
v 7.326385 1.035046 4.046108
v 7.127628 1.273713 3.949459
v 7.374855 1.040806 4.044068
v 7.186038 1.041276 4.125867
v 7.465074 1.131735 3.989989
v 7.376625 1.170254 4.070268
v 7.129558 1.235993 4.135987
v 7.068159 1.073445 4.132317
v 7.037809 1.110295 4.068738
v 7.419494 1.101045 4.058418
v 7.016910 1.127575 4.078137
v 6.997870 1.135405 4.117247
v 6.998590 1.173374 4.136147
v 7.332906 1.192044 4.064847
v 7.380935 1.061006 4.083168
v 7.403285 1.138125 4.067538
v 7.021150 1.217714 4.139616
v 7.306936 1.032256 4.154716
v 7.054529 1.234763 4.140917
v 7.231307 1.017446 4.210996
v 7.327975 1.076695 4.199626
v 7.004390 1.092235 4.175456
v 6.985920 1.110625 4.178636
v 7.343006 1.118215 4.177786
v 7.316866 1.148085 4.196266
v 7.304516 1.047836 4.209976
v 7.268406 1.184784 4.174306
v 7.207937 1.207734 4.174656
v 7.236277 1.014036 4.267195
v 6.968220 1.121945 4.222846
v 6.977490 1.196834 4.268385
v 7.042739 1.229043 4.253455
v 7.049939 1.038316 4.289775
v 6.964150 1.090485 4.265445
v 7.297346 1.129715 4.253795
v 7.008880 1.220734 4.259625
v 7.132878 1.019646 4.295225
v 7.246597 1.027136 4.283425
v 6.950290 1.149564 4.296225
v 7.269036 1.141605 4.288335
v 7.241547 1.161954 4.293175
v 7.194118 1.012186 4.303954
v 7.256977 1.063066 4.301974
v 6.988630 1.069776 4.272635
v 7.276967 1.115795 4.280425
v 7.163408 1.195514 4.283775
v 6.998290 1.221664 4.360384
v 7.060069 1.216064 4.319185
v 6.935451 1.105255 4.330124
v 7.236767 1.140695 4.327624
v 6.968180 1.207604 4.362464
v 7.203557 1.017696 4.325164
v 6.943690 1.082485 4.335544
v 6.923351 1.133805 4.397523
v 6.949750 1.175724 4.356434
v 7.199077 1.040596 4.350214
v 7.055609 1.029076 4.362394
v 6.973401 1.063076 4.374574
v 6.936511 1.096735 4.376814
v 7.172838 1.155974 4.367714
v 7.134978 1.029066 4.353234
v 7.206257 1.098045 4.352204
v 7.031010 1.047496 4.399293
v 6.958460 1.079385 4.432763
v 6.937871 1.103045 4.416453
v 6.941511 1.172614 4.413943
v 7.090059 1.189564 4.383644
v 7.115199 1.159854 4.414513
v 7.007610 1.200914 4.412703
v 6.970910 1.196914 4.402684
v 7.115159 1.070305 4.394564
v 7.133008 1.121605 4.402883
v 7.024700 1.078105 4.427623
v 7.054130 1.108775 4.434343
v 6.933151 1.142704 4.428213
v 7.069359 1.143844 4.432913
v 7.047509 1.166474 4.429793
v 6.955040 1.161714 4.434453
v 6.982470 1.108135 4.447722
v 6.952661 1.122725 4.436003
v 7.012820 1.140325 4.447833
v 6.978790 1.141545 4.446503
v 6.999460 1.160514 4.433623
vn -0.0808 -0.3677 -0.9264
vn -0.2795 -0.2644 -0.9230
vn 0.0360 0.1470 -0.9885
vn 0.2012 -0.0049 -0.9795
vn 0.2175 0.4918 -0.8431
vn 0.0179 0.4639 -0.8857
vn -0.3353 0.1792 -0.9249
vn -0.1450 -0.7557 -0.6386
vn 0.0796 -0.5529 -0.8295
vn -0.0365 -0.8657 -0.4993
vn -0.3060 -0.7275 -0.6141
vn 0.2253 -0.5596 -0.7975
vn 0.4612 0.0224 -0.8870
vn -0.5073 -0.6528 -0.5625
vn -0.6326 -0.1881 -0.7512
vn 0.3556 0.4881 -0.7971
vn -0.3354 0.5204 -0.7853
vn 0.2245 0.7480 -0.6246
vn 0.5831 -0.4882 -0.6494
vn 0.1386 -0.8094 -0.5706
vn -0.2414 -0.8694 -0.4311
vn 0.8140 0.1383 -0.5641
vn 0.6014 0.6222 -0.5012
vn 0.3679 0.8112 -0.4545
vn -0.8120 0.1620 -0.5607
vn -0.5164 0.7924 -0.3247
vn 0.0767 0.8430 -0.5325
vn -0.0937 0.8833 -0.4593
vn 0.9290 -0.1645 -0.3315
vn -0.3118 -0.8458 -0.4329
vn -0.7903 -0.3376 -0.5113
vn -0.8866 0.4327 -0.1635
vn 0.3206 0.9347 -0.1535
vn 0.1553 0.9854 -0.0703
vn 0.2980 0.9279 0.2240
vn -0.0255 0.9994 -0.0253
vn 0.4317 -0.7805 -0.4522
vn 0.8728 0.4776 -0.1007
vn -0.9350 0.0203 -0.3542
vn 0.5541 0.8275 -0.0909
vn 0.3307 0.9417 0.0614
vn -0.5737 0.8183 0.0354
vn 0.1972 -0.9171 -0.3464
vn 0.6651 -0.6685 -0.3327
vn 0.9202 -0.3821 -0.0844
vn -0.4244 -0.8080 -0.4086
vn 0.4053 0.8825 0.2387
vn 0.2729 0.9103 0.3111
vn -0.2095 0.9703 0.1208
vn -0.1847 -0.9078 -0.3766
vn -0.0849 -0.9286 -0.3611
vn -0.2644 -0.8962 -0.3563
vn -0.6605 -0.5945 -0.4586
vn 0.9938 0.1031 0.0404
vn 0.7060 0.6997 0.1093
vn 0.2396 0.9139 0.3276
vn 0.1513 0.9426 0.2977
vn -0.8812 -0.2855 -0.3767
vn 0.0280 0.9610 0.2750
vn -0.9639 0.1225 -0.2364
vn 0.2892 0.8914 0.3491
vn -0.5439 0.8225 0.1666
vn -0.6673 -0.6182 -0.4154
vn 0.8847 0.4011 0.2376
vn 0.2234 0.9145 0.3375
vn -0.1538 0.9435 0.2935
vn 0.1263 0.9305 0.3439
vn 0.0500 -0.9576 -0.2839
vn 0.6462 -0.7560 -0.1043
vn 0.5723 0.7556 0.3186
vn 0.3345 0.8652 0.3734
vn -0.5561 0.8258 0.0940
vn -0.1703 -0.9338 -0.3146
vn 0.2951 -0.9219 -0.2510
vn -0.9115 0.3912 -0.1267
vn 0.2463 0.9146 0.3207
vn 0.9536 -0.2055 0.2201
vn -0.5787 -0.7307 -0.3622
vn -0.7852 0.6178 -0.0422
vn 0.2612 0.9037 0.3394
vn 0.0816 0.9575 0.2766
vn -0.1328 0.9499 0.2828
vn 0.0159 -0.9794 -0.2015
vn 0.4281 -0.8960 -0.1179
vn -0.8328 -0.4270 -0.3525
vn 0.8788 0.2113 0.4277
vn 0.6005 0.6805 0.4199
vn 0.4802 0.7679 0.4239
vn 0.7989 -0.5851 0.1393
vn -0.3227 -0.8890 -0.3248
vn -0.9619 -0.0564 -0.2674
vn -0.1547 0.9624 0.2231
vn 0.2350 -0.9654 -0.1132
vn -0.2387 -0.9233 -0.3010
vn -0.1492 -0.9541 -0.2599
vn 0.9047 -0.2689 0.3305
vn 0.5615 -0.8246 0.0689
vn -0.7957 -0.5053 -0.3339
vn 0.6996 0.5281 0.4812
vn 0.4010 0.8308 0.3860
vn -0.5503 0.8322 0.0678
vn -0.1846 0.9674 0.1736
vn 0.7805 -0.5466 0.3036
vn -0.4862 -0.8163 -0.3119
vn -0.9389 -0.2034 -0.2776
vn 0.4515 -0.8872 0.0955
vn -0.9608 0.2191 -0.1699
vn -0.8496 0.5234 -0.0652
vn 0.8782 -0.0643 0.4739
vn 0.6445 0.6097 0.4614
vn 0.2816 0.9132 0.2944
vn -0.2578 0.9546 0.1494
vn 0.2599 -0.9656 -0.0058
vn -0.2971 -0.9136 -0.2775
vn 0.8537 0.1991 0.4812
vn -0.0192 0.9747 0.2228
vn 0.1026 -0.9906 -0.0908
vn -0.1997 -0.9493 -0.2429
vn 0.7502 -0.5501 0.3668
vn 0.2098 0.9428 0.2590
vn 0.4789 -0.8569 0.1908
vn -0.7450 -0.5956 -0.3003
vn 0.7876 0.3145 0.5300
vn -0.6519 0.7579 0.0251
vn -0.1077 -0.9712 -0.2126
vn -0.4883 -0.8220 -0.2929
vn 0.8553 -0.1318 0.5010
vn 0.3680 0.8791 0.3030
vn 0.2945 0.9240 0.2440
vn -0.2827 0.9464 0.1560
vn 0.5850 0.6569 0.4757
vn 0.1536 -0.9875 -0.0343
vn 0.7690 0.3213 0.5527
vn -0.9616 -0.1211 -0.2463
vn 0.7395 -0.5293 0.4158
vn -0.7414 -0.6013 -0.2979
vn 0.5881 0.6699 0.4532
vn -0.8849 0.4538 -0.1054
vn 0.4729 -0.8633 0.1765
vn -0.2530 0.9576 0.1376
vn 0.8405 -0.0679 0.5376
vn -0.6082 0.7935 0.0218
vn -0.0157 -0.9948 -0.1007
vn 0.0174 0.9779 0.2086
vn 0.3694 -0.9154 0.1597
vn -0.2096 -0.9540 -0.2146
vn 0.7699 0.2992 0.5636
vn 0.5273 0.7633 0.3734
vn 0.1344 0.9738 0.1831
vn -0.3760 -0.8881 -0.2643
vn -0.5824 -0.7557 -0.2997
vn 0.8344 -0.1088 0.5403
vn -0.7843 -0.5323 -0.3186
vn -0.9403 -0.1797 -0.2890
vn -0.9367 0.2759 -0.2154
vn 0.3578 0.8924 0.2749
vn 0.6727 -0.6461 0.3605
vn 0.7553 0.4099 0.5114
vn -0.6955 0.7134 -0.0851
vn 0.4111 -0.9001 0.1445
vn -0.2856 0.9565 0.0594
vn -0.0031 -0.9957 -0.0924
vn 0.8239 -0.2607 0.5032
vn -0.6039 -0.7371 -0.3033
vn -0.8327 -0.4538 -0.3173
vn 0.8442 0.1470 0.5155
vn 0.6789 0.6101 0.4085
vn 0.7028 -0.6019 0.3793
vn 0.3939 0.8765 0.2766
vn 0.2937 0.9295 0.2230
vn 0.2994 -0.9450 0.1317
vn -0.9514 -0.1012 -0.2910
vn -0.8037 0.5709 -0.1675
vn -0.0428 0.9968 0.0678
vn -0.3159 -0.9352 -0.1602
vn -0.7824 -0.5447 -0.3021
vn 0.8222 0.2353 0.5182
vn -0.4418 0.8951 -0.0598
vn -0.1357 -0.9902 -0.0323
vn 0.6261 -0.6646 0.4078
vn -0.9414 0.2496 -0.2267
vn 0.7308 0.4197 0.5383
vn 0.4948 0.7709 0.4011
vn -0.0060 -0.9935 0.1138
vn 0.7475 -0.2796 0.6025
vn -0.4880 -0.8454 -0.2170
vn 0.7885 -0.0160 0.6149
vn 0.3207 0.9056 0.2776
vn -0.1446 0.9730 0.1799
vn 0.2153 0.9496 0.2280
vn -0.9563 -0.2083 -0.2051
vn 0.6643 0.3070 0.6815
vn -0.6386 0.7693 0.0188
vn 0.3079 -0.8449 0.4374
vn -0.7371 -0.6643 -0.1238
vn -0.9973 0.0663 0.0327
vn -0.8780 0.4623 -0.1237
vn 0.4767 -0.4724 0.7413
vn -0.1814 -0.9725 0.1458
vn -0.5092 -0.8573 0.0763
vn -0.8568 -0.5112 0.0672
vn 0.5359 0.5415 0.6478
vn 0.0652 -0.8716 0.4858
vn 0.5992 -0.0505 0.7990
vn -0.0342 -0.8342 0.5505
vn -0.4043 -0.6169 0.6753
vn -0.8170 -0.4350 0.3786
vn -0.7623 0.5813 0.2845
vn 0.3202 0.8324 0.4522
vn 0.4240 0.4267 0.7989
vn 0.0562 0.7842 0.6179
vn -0.3765 0.8150 0.4405
vn 0.3188 -0.4586 0.8295
vn 0.4969 -0.0758 0.8645
vn 0.1370 -0.5399 0.8305
vn 0.2766 -0.2377 0.9311
vn -0.7694 0.0924 0.6320
vn 0.3105 0.1002 0.9453
vn 0.1789 0.5407 0.8220
vn -0.3197 0.4664 0.8247
vn -0.0751 -0.2062 0.9756
vn -0.4945 -0.0838 0.8651
vn 0.1057 0.2097 0.9720
vn -0.1694 0.2397 0.9559
vn 0.0021 0.5083 0.8612
usemtl mtl1.1142
s 1
f 1//1 2//2 3//3
f 4//4 1//1 3//3
f 4//4 3//3 5//5
f 6//6 2//2 7//7
f 3//3 2//2 6//6
f 5//5 3//3 6//6
f 8//8 9//9 10//10
f 11//11 1//1 8//8
f 9//9 8//8 1//1
f 4//4 9//9 1//1
f 12//12 9//9 4//4
f 13//13 12//12 4//4
f 2//2 14//14 15//15
f 11//11 14//14 2//2
f 1//1 11//11 2//2
f 5//5 16//16 4//4
f 16//16 13//13 4//4
f 2//2 15//15 7//7
f 7//7 15//15 17//17
f 17//17 6//6 7//7
f 5//5 6//6 18//18
f 12//12 19//19 20//20
f 12//12 10//10 9//9
f 21//21 11//11 8//8
f 19//19 12//12 13//13
f 13//13 22//22 19//19
f 23//23 13//13 16//16
f 22//22 13//13 23//23
f 5//5 24//24 16//16
f 15//15 25//25 17//17
f 18//18 24//24 5//5
f 26//26 17//17 25//25
f 6//6 17//17 27//27
f 6//6 27//27 18//18
f 28//28 17//17 26//26
f 17//17 28//28 27//27
f 20//20 10//10 12//12
f 29//29 19//19 22//22
f 30//30 14//14 11//11
f 21//21 30//30 11//11
f 15//15 31//31 25//25
f 14//14 31//31 15//15
f 16//16 24//24 23//23
f 32//32 26//26 25//25
f 18//18 33//33 24//24
f 27//27 33//33 18//18
f 33//33 27//27 34//34
f 35//35 33//33 34//34
f 28//28 26//26 36//36
f 27//27 28//28 36//36
f 34//34 27//27 36//36
f 20//20 19//19 37//37
f 10//10 21//21 8//8
f 29//29 22//22 38//38
f 25//25 31//31 39//39
f 23//23 38//38 22//22
f 23//23 24//24 40//40
f 38//38 23//23 40//40
f 25//25 39//39 32//32
f 24//24 33//33 41//41
f 42//42 26//26 32//32
f 20//20 43//43 10//10
f 44//44 37//37 19//19
f 19//19 29//29 44//44
f 29//29 45//45 44//44
f 30//30 46//46 14//14
f 40//40 24//24 41//41
f 40//40 41//41 47//47
f 33//33 48//48 41//41
f 33//33 35//35 48//48
f 26//26 49//49 36//36
f 50//50 10//10 51//51
f 20//20 37//37 43//43
f 10//10 50//50 21//21
f 21//21 52//52 30//30
f 14//14 46//46 53//53
f 45//45 29//29 54//54
f 53//53 31//31 14//14
f 29//29 38//38 54//54
f 47//47 55//55 40//40
f 55//55 38//38 40//40
f 56//56 47//47 41//41
f 41//41 48//48 56//56
f 42//42 49//49 26//26
f 57//57 35//35 34//34
f 34//34 36//36 57//57
f 43//43 51//51 10//10
f 52//52 21//21 50//50
f 31//31 58//58 39//39
f 48//48 35//35 57//57
f 36//36 49//49 59//59
f 31//31 53//53 58//58
f 58//58 60//60 39//39
f 60//60 32//32 39//39
f 56//56 61//61 47//47
f 32//32 62//62 42//42
f 57//57 36//36 59//59
f 37//37 44//44 43//43
f 52//52 46//46 30//30
f 58//58 53//53 63//63
f 54//54 38//38 64//64
f 64//64 38//38 55//55
f 65//65 56//56 48//48
f 49//49 42//42 66//66
f 49//49 66//66 59//59
f 48//48 57//57 67//67
f 51//51 43//43 68//68
f 43//43 44//44 69//69
f 45//45 69//69 44//44
f 46//46 63//63 53//53
f 70//70 64//64 55//55
f 47//47 61//61 71//71
f 70//70 55//55 47//47
f 71//71 70//70 47//47
f 72//72 62//62 32//32
f 66//66 42//42 62//62
f 65//65 48//48 67//67
f 59//59 66//66 67//67
f 59//59 67//67 57//57
f 51//51 73//73 50//50
f 51//51 68//68 73//73
f 43//43 74//74 68//68
f 43//43 69//69 74//74
f 60//60 75//75 32//32
f 65//65 76//76 56//56
f 52//52 50//50 73//73
f 77//77 69//69 45//45
f 32//32 75//75 72//72
f 63//63 46//46 78//78
f 45//45 54//54 77//77
f 77//77 54//54 64//64
f 72//72 75//75 79//79
f 76//76 80//80 56//56
f 81//81 76//76 65//65
f 66//66 62//62 82//82
f 81//81 65//65 67//67
f 67//67 66//66 82//82
f 68//68 83//83 73//73
f 69//69 84//84 74//74
f 63//63 78//78 85//85
f 58//58 63//63 85//85
f 64//64 86//86 77//77
f 64//64 87//87 86//86
f 70//70 87//87 64//64
f 87//87 71//71 88//88
f 87//87 70//70 71//71
f 56//56 71//71 61//61
f 72//72 82//82 62//62
f 82//82 81//81 67//67
f 74//74 84//84 68//68
f 69//69 77//77 89//89
f 46//46 52//52 90//90
f 58//58 85//85 91//91
f 58//58 91//91 60//60
f 60//60 91//91 75//75
f 56//56 80//80 71//71
f 92//92 82//82 72//72
f 83//83 68//68 93//93
f 52//52 73//73 94//94
f 69//69 89//89 84//84
f 78//78 46//46 90//90
f 73//73 83//83 95//95
f 68//68 84//84 93//93
f 52//52 94//94 90//90
f 96//96 89//89 77//77
f 82//82 92//92 81//81
f 84//84 97//97 93//93
f 89//89 97//97 84//84
f 77//77 86//86 96//96
f 85//85 98//98 91//91
f 87//87 88//88 99//99
f 86//86 87//87 99//99
f 100//100 88//88 71//71
f 71//71 80//80 100//100
f 101//101 72//72 79//79
f 92//92 72//72 102//102
f 92//92 102//102 81//81
f 96//96 103//103 89//89
f 78//78 104//104 98//98
f 104//104 78//78 90//90
f 78//78 98//98 85//85
f 91//91 98//98 105//105
f 88//88 100//100 99//99
f 102//102 72//72 101//101
f 93//93 97//97 106//106
f 94//94 73//73 95//95
f 89//89 103//103 97//97
f 105//105 107//107 91//91
f 91//91 107//107 75//75
f 107//107 108//108 75//75
f 108//108 79//79 75//75
f 101//101 79//79 108//108
f 93//93 106//106 83//83
f 106//106 97//97 103//103
f 109//109 103//103 96//96
f 96//96 86//86 109//109
f 86//86 99//99 109//109
f 110//110 99//99 100//100
f 111//111 100//100 80//80
f 80//80 76//76 111//111
f 101//101 112//112 102//102
f 83//83 106//106 113//113
f 94//94 114//114 90//90
f 99//99 115//115 109//109
f 102//102 112//112 116//116
f 102//102 116//116 81//81
f 83//83 117//117 95//95
f 83//83 113//113 117//117
f 118//118 94//94 95//95
f 119//119 106//106 103//103
f 109//109 119//119 103//103
f 99//99 110//110 115//115
f 81//81 120//120 76//76
f 106//106 119//119 121//121
f 90//90 114//114 104//104
f 122//122 98//98 104//104
f 115//115 110//110 123//123
f 108//108 124//124 101//101
f 116//116 120//120 81//81
f 95//95 125//125 118//118
f 106//106 121//121 113//113
f 114//114 94//94 118//118
f 104//104 126//126 122//122
f 109//109 127//127 119//119
f 109//109 115//115 127//127
f 127//127 115//115 123//123
f 98//98 122//122 105//105
f 111//111 128//128 100//100
f 120//120 111//111 76//76
f 120//120 129//129 111//111
f 101//101 130//130 112//112
f 117//117 125//125 95//95
f 123//123 110//110 131//131
f 131//131 110//110 100//100
f 124//124 130//130 101//101
f 112//112 130//130 116//116
f 117//117 132//132 125//125
f 113//113 121//121 117//117
f 126//126 104//104 114//114
f 123//123 133//133 127//127
f 105//105 134//134 107//107
f 135//135 121//121 119//119
f 122//122 126//126 136//136
f 122//122 134//134 105//105
f 123//123 131//131 133//133
f 100//100 128//128 137//137
f 137//137 131//131 100//100
f 111//111 129//129 128//128
f 107//107 138//138 108//108
f 117//117 139//139 132//132
f 139//139 117//117 121//121
f 127//127 135//135 119//119
f 122//122 136//136 134//134
f 131//131 137//137 133//133
f 134//134 138//138 107//107
f 138//138 124//124 108//108
f 124//124 140//140 130//130
f 121//121 135//135 139//139
f 135//135 127//127 141//141
f 141//141 127//127 133//133
f 142//142 124//124 138//138
f 142//142 140//140 124//124
f 125//125 132//132 143//143
f 116//116 130//130 144//144
f 116//116 144//144 120//120
f 125//125 143//143 118//118
f 145//145 143//143 132//132
f 145//145 132//132 139//139
f 118//118 146//146 114//114
f 137//137 147//147 133//133
f 137//137 128//128 148//148
f 120//120 149//149 129//129
f 140//140 144//144 130//130
f 114//114 150//150 126//126
f 136//136 126//126 151//151
f 141//141 152//152 135//135
f 134//134 136//136 153//153
f 134//134 153//153 154//154
f 141//141 133//133 147//147
f 154//154 155//155 134//134
f 134//134 155//155 138//138
f 156//156 128//128 129//129
f 146//146 118//118 143//143
f 135//135 152//152 157//157
f 135//135 157//157 139//139
f 126//126 150//150 151//151
f 136//136 151//151 153//153
f 152//152 141//141 147//147
f 137//137 158//158 147//147
f 158//158 137//137 148//148
f 128//128 156//156 148//148
f 142//142 138//138 159//159
f 120//120 144//144 149//149
f 150//150 114//114 146//146
f 145//145 157//157 160//160
f 145//145 139//139 157//157
f 152//152 147//147 158//158
f 161//161 142//142 159//159
f 142//142 161//161 140//140
f 144//144 140//140 149//149
f 146//146 143//143 162//162
f 145//145 160//160 143//143
f 152//152 163//163 157//157
f 164//164 153//153 151//151
f 165//165 153//153 164//164
f 166//166 152//152 158//158
f 167//167 158//158 148//148
f 140//140 161//161 149//149
f 168//168 160//160 157//157
f 163//163 168//168 157//157
f 164//164 151//151 150//150
f 166//166 163//163 152//152
f 154//154 153//153 165//165
f 156//156 169//169 148//148
f 169//169 167//167 148//148
f 138//138 155//155 159//159
f 170//170 129//129 149//149
f 143//143 160//160 162//162
f 162//162 160//160 171//171
f 154//154 172//172 155//155
f 166//166 158//158 167//167
f 129//129 170//170 169//169
f 129//129 169//169 156//156
f 154//154 165//165 172//172
f 173//173 159//159 155//155
f 149//149 161//161 174//174
f 146//146 175//175 150//150
f 165//165 164//164 176//176
f 165//165 176//176 172//172
f 167//167 177//177 166//166
f 159//159 173//173 178//178
f 159//159 178//178 161//161
f 179//179 146//146 162//162
f 180//180 160//160 168//168
f 172//172 181//181 155//155
f 182//182 177//177 167//167
f 155//155 181//181 173//173
f 182//182 167//167 183//183
f 183//183 167//167 169//169
f 179//179 162//162 184//184
f 162//162 171//171 184//184
f 160//160 180//180 171//171
f 185//185 180//180 168//168
f 176//176 164//164 186//186
f 186//186 164//164 150//150
f 163//163 185//185 168//168
f 163//163 166//166 187//187
f 166//166 177//177 187//187
f 169//169 170//170 188//188
f 161//161 178//178 174//174
f 178//178 189//189 174//174
f 149//149 174//174 190//190
f 179//179 175//175 146//146
f 175//175 186//186 150//150
f 172//172 176//176 191//191
f 191//191 181//181 172//172
f 177//177 182//182 187//187
f 182//182 183//183 192//192
f 193//193 178//178 173//173
f 190//190 188//188 149//149
f 170//170 149//149 188//188
f 178//178 193//193 189//189
f 194//194 184//184 171//171
f 171//171 180//180 194//194
f 186//186 195//195 176//176
f 176//176 195//195 191//191
f 185//185 163//163 187//187
f 196//196 181//181 191//191
f 173//173 181//181 197//197
f 183//183 169//169 188//188
f 197//197 193//193 173//173
f 198//198 194//194 180//180
f 185//185 198//198 180//180
f 175//175 199//199 200//200
f 175//175 179//179 199//199
f 195//195 186//186 200//200
f 200//200 186//186 175//175
f 191//191 195//195 201//201
f 201//201 196//196 191//191
f 196//196 197//197 181//181
f 187//187 182//182 192//192
f 192//192 183//183 202//202
f 202//202 183//183 188//188
f 174//174 189//189 190//190
f 184//184 203//203 179//179
f 203//203 184//184 194//194
f 179//179 203//203 199//199
f 198//198 203//203 194//194
f 195//195 200//200 201//201
f 204//204 198//198 185//185
f 185//185 187//187 204//204
f 199//199 203//203 205//205
f 199//199 205//205 200//200
f 200//200 205//205 206//206
f 207//207 201//201 200//200
f 192//192 202//202 204//204
f 187//187 192//192 204//204
f 196//196 208//208 197//197
f 209//209 210//210 202//202
f 197//197 208//208 193//193
f 211//211 209//209 190//190
f 188//188 190//190 209//209
f 202//202 188//188 209//209
f 189//189 193//193 212//212
f 189//189 212//212 211//211
f 211//211 190//190 189//189
f 205//205 203//203 213//213
f 213//213 203//203 198//198
f 206//206 207//207 200//200
f 213//213 204//204 214//214
f 213//213 198//198 204//204
f 201//201 207//207 196//196
f 204//204 202//202 214//214
f 202//202 210//210 214//214
f 193//193 208//208 212//212
f 206//206 205//205 215//215
f 215//215 205//205 213//213
f 216//216 215//215 213//213
f 214//214 216//216 213//213
f 217//217 196//196 207//207
f 218//218 216//216 214//214
f 217//217 208//208 196//196
f 210//210 219//219 218//218
f 214//214 210//210 218//218
f 220//220 208//208 217//217
f 219//219 210//210 209//209
f 212//212 208//208 220//220
f 209//209 211//211 219//219
f 215//215 221//221 206//206
f 206//206 222//222 207//207
f 206//206 221//221 222//222
f 216//216 221//221 215//215
f 216//216 223//223 221//221
f 207//207 222//222 217//217
f 221//221 224//224 222//222
f 216//216 218//218 223//223
f 222//222 220//220 217//217
f 220//220 222//222 224//224
f 219//219 225//225 223//223
f 218//218 219//219 223//223
f 211//211 212//212 220//220
f 225//225 211//211 220//220
f 219//219 211//211 225//225
f 221//221 223//223 224//224
f 223//223 225//225 224//224
f 225//225 220//220 224//224
