# Blender v2.92.0 OBJ File: 'convert_to_one_sided.blend'
# www.blender.org
mtllib 312782578L.mtl
o Cube
v 0.001000 0.001000 -0.001000
v 0.001000 -0.001000 -0.001000
v 0.001000 0.001000 0.001000
v 0.001000 -0.001000 0.001000
v -0.001000 0.001000 -0.001000
v -0.001000 -0.001000 -0.001000
v -0.001000 0.001000 0.001000
v -0.001000 -0.001000 0.001000
vt 0.625000 0.500000
vt 0.875000 0.500000
vt 0.875000 0.750000
vt 0.625000 0.750000
vt 0.375000 0.750000
vt 0.625000 1.000000
vt 0.375000 1.000000
vt 0.375000 0.000000
vt 0.625000 0.000000
vt 0.625000 0.250000
vt 0.375000 0.250000
vt 0.125000 0.500000
vt 0.375000 0.500000
vt 0.125000 0.750000
vn 0.0000 1.0000 0.0000
vn 0.0000 0.0000 1.0000
vn -1.0000 0.0000 0.0000
vn 0.0000 -1.0000 0.0000
vn 1.0000 0.0000 0.0000
vn 0.0000 0.0000 -1.0000
usemtl Material
s off
f 1/1/1 5/2/1 7/3/1 3/4/1
f 4/5/2 3/4/2 7/6/2 8/7/2
f 8/8/3 7/9/3 5/10/3 6/11/3
f 6/12/4 2/13/4 4/5/4 8/14/4
f 2/13/5 1/1/5 3/4/5 4/5/5
f 6/11/6 5/10/6 1/1/6 2/13/6
o 312782578
v 8.760588 1.826896 1.442132
v 8.864776 1.879016 1.434492
v 8.875306 1.872826 1.437132
v 8.973755 1.941015 1.443292
v 9.066343 1.954695 1.444022
v 9.173822 2.032274 1.448582
v 8.738068 1.774417 1.468541
v 8.690079 1.796537 1.467181
v 8.953805 1.843596 1.477201
v 8.727978 1.829796 1.456722
v 8.828596 1.878446 1.451382
v 9.230811 1.964424 1.491301
v 9.157762 1.860376 1.540961
v 8.900576 1.922465 1.461372
v 8.985634 1.965145 1.465212
v 9.092563 2.007294 1.457172
v 9.316480 2.067283 1.465451
v 9.194191 2.054293 1.458082
v 9.307540 2.097483 1.463941
v 9.432648 2.139472 1.468991
v 8.666848 1.723198 1.515091
v 8.836967 1.733217 1.524231
v 8.659009 1.754307 1.513121
v 8.691918 1.809896 1.484431
v 8.756047 1.854486 1.474621
v 8.832827 1.892345 1.473141
v 9.049853 1.995244 1.473661
v 9.436958 2.040524 1.523911
v 9.503778 2.110063 1.512461
v 9.156642 2.038254 1.476631
v 9.247091 2.079593 1.471411
v 9.350050 2.126122 1.473931
v 9.412269 2.143882 1.471401
v 9.491227 2.168262 1.494131
v 9.426868 2.157402 1.484621
v 8.709607 1.686238 1.543440
v 8.662169 1.677808 1.555610
v 8.993424 1.788817 1.533911
v 8.716237 1.834786 1.494451
v 8.793927 1.872456 1.492601
v 8.914835 1.928955 1.482461
v 9.002504 1.971314 1.477981
v 9.289790 2.097273 1.488951
v 9.572206 2.146662 1.535671
v 9.413859 2.154172 1.496321
v 9.558087 2.171662 1.524711
v 9.473687 2.175042 1.498391
v 9.524457 2.179422 1.515071
v 8.675638 1.767657 1.534550
v 9.060074 1.960335 1.520751
v 9.551827 2.036654 1.589610
v 9.592697 2.149192 1.556060
v 9.487388 2.177052 1.512291
v 8.940945 1.734617 1.567320
v 8.806867 1.689578 1.568620
v 8.654658 1.694348 1.553170
v 8.656518 1.706838 1.559550
v 9.081893 1.797137 1.571350
v 8.788897 1.825926 1.539750
v 9.259791 1.866086 1.594540
v 9.365939 1.949155 1.571790
v 9.262590 2.035834 1.542830
v 9.376360 2.099963 1.538430
v 9.585867 2.094223 1.570570
v 9.617207 2.108533 1.602930
v 9.480118 2.128592 1.562930
v 9.571117 2.164382 1.541901
v 9.555127 2.148592 1.562340
v 8.671248 1.664618 1.576110
v 8.727057 1.666438 1.583040
v 8.887445 1.706298 1.587170
v 8.917416 1.887355 1.528931
v 9.388339 1.918425 1.617839
v 8.661089 1.677438 1.579460
v 8.965005 1.735327 1.595760
v 9.027034 1.764967 1.594130
v 9.139712 1.813416 1.603870
v 9.603056 2.123702 1.590900
v 8.711778 1.658788 1.596670
v 8.807146 1.687958 1.596990
v 8.674228 1.698128 1.586410
v 8.916904 1.721808 1.602370
v 8.788717 1.766117 1.589120
v 9.257041 1.859996 1.617450
v 9.345719 1.897215 1.624779
v 8.968925 1.854986 1.580420
v 9.191162 1.938025 1.596040
v 9.618676 2.067793 1.626939
v 9.634456 2.090603 1.630509
v 8.692408 1.666508 1.591020
v 9.032174 1.771467 1.610849
v 9.309260 1.883425 1.631889
v 9.430199 1.932085 1.638009
v 9.492767 1.973864 1.629839
v 9.578306 2.023634 1.642469
v 9.386419 2.030194 1.604560
v 9.631207 2.080603 1.637959
v 9.556677 2.080403 1.620579
v 8.758167 1.676078 1.603850
v 8.906006 1.733937 1.615189
v 8.775026 1.727228 1.611179
v 8.897036 1.779287 1.610790
v 9.191221 1.841666 1.624159
v 9.390160 1.918615 1.638829
v 9.537467 1.991164 1.648349
v 9.478308 1.963054 1.644749
v 9.610867 2.049233 1.651459
v 8.775356 1.704978 1.604910
v 8.889405 1.756137 1.615199
v 9.088463 1.806007 1.623499
v 9.058653 1.828756 1.615739
v 9.194032 1.856816 1.629479
v 9.307420 1.893145 1.636169
v 9.292211 1.923225 1.630329
v 9.538257 1.999524 1.650949
v 9.619336 2.067603 1.639959
v 9.437449 1.956055 1.646999
v 9.482798 2.006744 1.645589
v 9.543337 2.008824 1.654069
v 9.567226 2.038023 1.641779
vn -0.2140 0.0725 -0.9741
vn -0.1425 0.2714 -0.9519
vn 0.1083 -0.2487 -0.9625
vn -0.2017 0.4877 -0.8494
vn 0.1481 -0.2254 -0.9629
vn -0.0934 0.3307 -0.9391
vn 0.0124 -0.5252 -0.8509
vn -0.6182 0.0342 -0.7853
vn 0.2495 -0.5482 -0.7983
vn -0.5090 0.5999 -0.6172
vn -0.3666 0.6923 -0.6216
vn 0.3048 -0.5333 -0.7891
vn 0.3367 -0.6453 -0.6857
vn -0.4072 0.8469 -0.3421
vn -0.4175 0.8855 -0.2039
vn -0.3534 0.8181 -0.4537
vn 0.2093 -0.2569 -0.9435
vn -0.3341 0.8085 -0.4844
vn -0.1481 0.4851 -0.8618
vn 0.1801 0.0630 -0.9816
vn -0.5176 -0.4559 -0.7241
vn 0.2240 -0.6843 -0.6939
vn -0.9683 0.1870 -0.1659
vn -0.7607 0.6299 -0.1564
vn -0.4891 0.8456 -0.2138
vn -0.4323 0.8905 -0.1416
vn -0.3846 0.9042 0.1858
vn 0.3492 -0.5388 -0.7666
vn 0.4103 -0.3588 -0.8384
vn -0.4042 0.8913 0.2055
vn -0.3796 0.8928 -0.2426
vn -0.3497 0.8662 -0.3569
vn -0.0948 0.6117 -0.7854
vn 0.2499 0.4603 -0.8518
vn -0.1981 0.8583 -0.4734
vn 0.0371 -0.7833 -0.6205
vn -0.4824 -0.7143 -0.5070
vn 0.3020 -0.6633 -0.6848
vn -0.5403 0.7879 0.2954
vn -0.3852 0.8463 0.3679
vn -0.3947 0.8662 0.3066
vn -0.3882 0.8470 0.3632
vn -0.4092 0.8512 0.3287
vn 0.6439 -0.0713 -0.7617
vn -0.3749 0.8940 0.2456
vn 0.5481 0.6486 -0.5282
vn -0.1284 0.9493 -0.2869
vn 0.1126 0.9925 -0.0472
vn -0.6327 0.5711 0.5229
vn -0.3148 0.7065 0.6338
vn 0.4821 -0.6380 -0.6005
vn 0.8067 0.5655 -0.1713
vn -0.2009 0.8986 0.3901
vn 0.3388 -0.8325 -0.4384
vn 0.2350 -0.9005 -0.3658
vn -0.9385 -0.3121 -0.1474
vn -0.9003 0.2286 0.3704
vn 0.3759 -0.8170 -0.4373
vn -0.3143 0.6582 0.6841
vn 0.3938 -0.8370 -0.3799
vn 0.3816 -0.6602 -0.6469
vn -0.3446 0.6771 0.6502
vn -0.3498 0.6859 0.6381
vn 0.6344 -0.3840 -0.6709
vn 0.9404 0.1557 -0.3023
vn -0.2741 0.6727 0.6873
vn 0.3235 0.9077 0.2673
vn -0.0612 0.7725 0.6321
vn -0.4400 -0.8980 0.0021
vn 0.1458 -0.9608 -0.2358
vn 0.2976 -0.9547 -0.0025
vn -0.2910 0.6955 0.6569
vn 0.4294 -0.8101 -0.3992
vn -0.8083 -0.2686 0.5239
vn 0.3822 -0.9189 0.0976
vn 0.4112 -0.9091 -0.0666
vn 0.3777 -0.9231 0.0720
vn 0.3650 0.7927 0.4882
vn -0.0144 -0.8933 0.4492
vn 0.2477 -0.9059 0.3435
vn -0.4613 0.2200 0.8596
vn 0.2551 -0.8030 0.5386
vn -0.2964 0.5559 0.7766
vn 0.3492 -0.9225 0.1643
vn 0.3832 -0.9210 0.0699
vn -0.2495 0.5828 0.7734
vn -0.2712 0.5321 0.8020
vn 0.7990 -0.5206 -0.3008
vn 0.4866 0.6283 0.6070
vn -0.3330 -0.3373 0.8805
vn 0.3105 -0.7854 0.5355
vn 0.2696 -0.7761 0.5701
vn 0.4463 -0.8866 0.1215
vn 0.4903 -0.8153 -0.3079
vn 0.6478 -0.7615 0.0190
vn -0.2808 0.5452 0.7899
vn 0.9193 -0.0116 0.3935
vn -0.1516 0.5641 0.8116
vn 0.0273 -0.4357 0.8997
vn 0.0839 -0.3604 0.9290
vn -0.1802 0.1824 0.9666
vn -0.1649 0.4033 0.9001
vn 0.2163 -0.6701 0.7101
vn 0.2499 -0.6717 0.6974
vn 0.5046 -0.8076 0.3051
vn 0.3560 -0.7370 0.5745
vn 0.4848 -0.2622 0.8344
vn -0.1113 -0.0937 0.9894
vn -0.0432 0.0237 0.9988
vn 0.0677 -0.2901 0.9546
vn -0.1327 0.2420 0.9612
vn -0.0253 -0.0838 0.9962
vn 0.0398 -0.2764 0.9602
vn -0.1719 0.2531 0.9520
vn 0.3247 -0.5080 0.7978
vn 0.0945 0.3460 0.9335
vn 0.0212 -0.1845 0.9826
vn -0.1688 0.3446 0.9234
vn -0.0059 0.0730 0.9973
vn -0.1147 0.3751 0.9198
usemtl mtl1.294
s 1
f 9//7 10//8 11//9
f 12//10 11//9 10//8
f 13//11 11//9 12//10
f 13//11 12//10 14//12
f 15//13 16//14 9//7
f 17//15 15//13 11//9
f 11//9 15//13 9//7
f 9//7 16//14 18//16
f 9//7 18//16 19//17
f 19//17 10//8 9//7
f 19//17 12//10 10//8
f 17//15 20//18 21//19
f 13//11 17//15 11//9
f 13//11 20//18 17//15
f 19//17 22//20 12//10
f 12//10 22//20 23//21
f 24//22 12//10 23//21
f 12//10 24//22 14//12
f 20//18 13//11 25//23
f 25//23 13//11 14//12
f 26//24 14//12 24//22
f 25//23 14//12 27//25
f 27//25 14//12 26//24
f 28//26 25//23 27//25
f 15//13 29//27 16//14
f 17//15 30//28 15//13
f 31//29 16//14 29//27
f 16//14 31//29 32//30
f 18//16 16//14 32//30
f 18//16 32//30 33//31
f 18//16 33//31 19//17
f 34//32 19//17 33//31
f 34//32 22//20 19//17
f 24//22 23//21 35//33
f 25//23 36//34 20//18
f 37//35 36//34 25//23
f 26//24 24//22 38//36
f 39//37 26//24 38//36
f 26//24 39//37 27//25
f 28//26 37//35 25//23
f 40//38 41//39 27//25
f 27//25 41//39 28//26
f 37//35 28//26 42//40
f 42//40 28//26 41//39
f 41//39 40//38 43//41
f 42//40 41//39 43//41
f 44//42 45//43 29//27
f 44//42 29//27 15//13
f 30//28 44//42 15//13
f 17//15 21//19 46//44
f 32//30 47//45 33//31
f 33//31 48//46 34//32
f 22//20 34//32 49//47
f 22//20 49//47 23//21
f 23//21 49//47 50//48
f 23//21 50//48 35//33
f 24//22 35//33 38//36
f 39//37 38//36 51//49
f 27//25 39//37 40//38
f 39//37 51//49 40//38
f 52//50 37//35 42//40
f 40//38 53//51 43//41
f 54//52 52//50 42//40
f 43//41 53//51 55//53
f 43//41 55//53 42//40
f 56//54 42//40 55//53
f 54//52 42//40 56//54
f 46//44 30//28 17//15
f 32//30 31//29 57//55
f 47//45 32//30 57//55
f 33//31 47//45 48//46
f 34//32 48//46 49//47
f 50//48 58//56 35//33
f 36//34 37//35 59//57
f 40//38 51//49 53//51
f 52//50 54//52 60//58
f 55//53 61//59 56//54
f 30//28 62//60 63//61
f 29//27 45//43 64//62
f 30//28 46//44 62//60
f 29//27 64//62 31//29
f 65//63 57//55 31//29
f 21//19 66//64 46//44
f 47//45 67//65 48//46
f 68//66 21//19 69//67
f 21//19 20//18 69//67
f 69//67 20//18 36//34
f 49//47 58//56 50//48
f 38//36 35//33 58//56
f 38//36 58//56 70//68
f 51//49 38//36 70//68
f 70//68 71//69 51//49
f 59//57 37//35 72//70
f 52//50 72//70 37//35
f 52//50 73//71 72//70
f 60//58 73//71 52//50
f 53//51 51//49 71//69
f 53//51 71//69 74//72
f 53//51 74//72 61//59
f 53//51 61//59 55//53
f 75//73 60//58 54//52
f 56//54 61//59 76//74
f 54//52 56//54 75//73
f 56//54 76//74 75//73
f 45//43 44//42 77//75
f 44//42 63//61 78//76
f 44//42 30//28 63//61
f 63//61 62//60 79//77
f 64//62 65//63 31//29
f 46//44 66//64 62//60
f 57//55 67//65 47//45
f 21//19 68//66 66//64
f 80//78 48//46 67//65
f 68//66 69//67 81//79
f 49//47 48//46 80//78
f 58//56 49//47 80//78
f 59//57 69//67 36//34
f 61//59 74//72 76//74
f 45//43 77//75 64//62
f 78//76 77//75 44//42
f 82//80 65//63 64//62
f 62//60 83//81 79//77
f 62//60 84//82 83//81
f 62//60 66//64 84//82
f 84//82 66//64 85//83
f 60//58 75//73 86//84
f 78//76 87//85 77//75
f 78//76 88//86 87//85
f 63//61 88//86 78//76
f 64//62 77//75 82//80
f 79//77 88//86 63//61
f 82//80 89//87 65//63
f 79//77 83//81 90//88
f 65//63 89//87 57//55
f 57//55 89//87 91//89
f 68//66 85//83 66//64
f 57//55 91//89 67//65
f 68//66 92//90 85//83
f 68//66 93//91 92//90
f 68//66 81//79 93//91
f 67//65 94//92 80//78
f 80//78 94//92 58//56
f 58//56 94//92 95//93
f 70//68 58//56 95//93
f 72//70 96//94 59//57
f 73//71 96//94 72//70
f 73//71 86//84 97//95
f 73//71 60//58 86//84
f 76//74 86//84 75//73
f 87//85 98//96 77//75
f 79//77 90//88 88//86
f 83//81 99//97 90//88
f 84//82 99//97 83//81
f 85//83 99//97 84//82
f 92//90 93//91 100//98
f 94//92 67//65 91//89
f 81//79 101//99 93//91
f 81//79 102//100 101//99
f 81//79 69//67 102//100
f 102//100 69//67 59//57
f 59//57 103//101 102//100
f 96//94 103//101 59//57
f 95//93 104//102 70//68
f 71//69 70//68 104//102
f 96//94 73//71 105//103
f 71//69 104//102 74//72
f 76//74 106//104 86//84
f 98//96 82//80 77//75
f 87//85 107//105 98//96
f 87//85 88//86 107//105
f 89//87 82//80 98//96
f 88//86 108//106 107//105
f 108//106 88//86 90//88
f 109//107 91//89 89//87
f 90//88 99//97 108//106
f 91//89 109//107 110//108
f 85//83 111//109 99//97
f 92//90 111//109 85//83
f 94//92 91//89 110//108
f 92//90 100//98 111//109
f 93//91 101//99 112//110
f 102//100 113//111 114//112
f 103//101 113//111 102//100
f 115//113 103//101 96//94
f 105//103 115//113 96//94
f 104//102 106//104 74//72
f 73//71 97//95 105//103
f 106//104 76//74 74//72
f 98//96 116//114 89//87
f 98//96 107//105 116//114
f 116//114 107//105 108//106
f 109//107 89//87 116//114
f 117//115 109//107 116//114
f 108//106 117//115 116//114
f 110//108 109//107 117//115
f 99//97 118//116 108//106
f 119//117 117//115 108//106
f 118//116 119//117 108//106
f 119//117 110//108 117//115
f 99//97 111//109 118//116
f 120//118 119//117 118//116
f 118//116 111//109 120//118
f 94//92 110//108 119//117
f 111//109 100//98 121//119
f 121//119 120//118 111//109
f 93//91 112//110 100//98
f 122//120 119//117 120//118
f 94//92 119//117 95//93
f 101//99 114//112 112//110
f 102//100 114//112 101//99
f 95//93 119//117 122//120
f 113//111 103//101 123//121
f 104//102 95//93 122//120
f 105//103 97//95 124//122
f 106//104 97//95 86//84
f 121//119 122//120 120//118
f 100//98 112//110 121//119
f 125//123 122//120 121//119
f 112//110 125//123 121//119
f 125//123 112//110 114//112
f 125//123 126//124 122//120
f 114//112 123//121 125//123
f 114//112 113//111 123//121
f 104//102 122//120 126//124
f 103//101 115//113 123//121
f 106//104 104//102 126//124
f 105//103 124//122 115//113
f 124//122 97//95 106//104
f 127//125 126//124 125//123
f 125//123 123//121 127//125
f 128//126 126//124 127//125
f 127//125 123//121 115//113
f 115//113 128//126 127//125
f 106//104 126//124 128//126
f 115//113 124//122 128//126
f 124//122 106//104 128//126
