# wavefront obj file written by the visualization toolkit


v 8819.5 2056.05 1651.29
v 8699.41 2009.06 1667.75
v 8824.08 2078.76 1658.74
v 8960.41 2070.81 1679.83
v 8924.5 2113.06 1658.58
v 8912.54 2129.18 1661.56
v 8954.29 2139.7 1658.65
v 9093.84 2186.46 1661.24
v 9167.52 2143.77 1697.37
v 9026.2 2171.6 1666.9
v 9284.28 2251.65 1671.45
v 9224.09 2252.61 1664.24
v 9122.67 2210.47 1670.19
v 9180.19 2239.58 1672.5
v 9360.28 2306.76 1681.63
v 9289.4 2284.31 1676.88
v 8766.71 1973.44 1700.21
v 8647.94 1955.77 1698.21
v 8645.42 1983.49 1686.66
v 8705.76 2022.11 1677.36
v 8809.38 2078.71 1673.63
v 9313.39 2193.19 1717.03
v 9417.22 2267.1 1724.78
v 9375.19 2319.05 1687.4
v 9341.68 2308.26 1691.47
v 9438.79 2304.74 1724.11
v 9411.81 2315.91 1712.52
v 8663.36 1894.39 1741.35
v 8623.81 1914.07 1728.74
v 8622.24 1934.14 1722.04
v 8645.72 1979.36 1698.15
v 8898.96 1961.12 1746.08
v 9066.25 2029.61 1753.75
v 8671.24 1986.4 1722.27
v 8752.07 2042.3 1694.67
v 8909.84 2125.5 1679
v 8837.64 2085.19 1693.81
v 8991.72 2157.78 1677.31
v 9090.77 2198.35 1676.8
v 9189.01 2239.51 1688.54
v 9291.12 2283.04 1696.45
v 9432.91 2309.99 1726.12
v 8778.89 1908.09 1757.05
v 8625.03 1933.31 1744.79
v 9260.38 2115.3 1760.52
v 9066.31 2170.66 1706.52
v 9411.93 2183.63 1777.54
v 9488.89 2263.36 1776.9
v 9466.19 2235.75 1774.57
v 9375.55 2269.87 1748.13
v 8620.74 1886.91 1761.97
v 8716.68 1874.32 1776.14
v 8802 2027.23 1742.16
v 8949.02 2085.68 1742.93
v 9226.87 2201.94 1749.87
v 9464.55 2281.13 1756.55
v 8666.47 1872.86 1785.5
v 8793.28 1890.94 1784.84
v 8618.76 1896.37 1768.8
v 8859.14 1920.73 1777.49
v 8957.67 1957.12 1788.96
v 8634.97 1924.39 1772.18
v 8910.48 2006.87 1803.09
v 9329.15 2113.02 1801.19
v 8752.32 1883.31 1795.51
v 8624.02 1890.39 1784.81
v 9063.4 1997.83 1803.75
v 9192.02 2059.74 1801.29
v 9404.03 2144.81 1813.35
v 9109.59 2104.4 1790.01
v 9483.09 2216.54 1802.74
v 9501.12 2245.08 1805.2
v 9457.74 2267.81 1773.21
v 8637.44 1879.31 1785.81
v 8845.46 1914.82 1795.95
v 8996.86 1969.17 1813.45
v 8727.99 1941.43 1786.57
v 9279.66 2086.52 1820.84
v 9448.17 2173.83 1826.29
v 9312.97 2169.64 1815.63
v 9486.1 2217.86 1823.15
v 8701.82 1879.66 1801.9
v 8920.89 1947.77 1811.6
v 9042.5 1988.57 1817.43
v 9099.39 2016.62 1813.84
v 8824.44 1952.6 1812.79
v 9191.97 2063.33 1821.25
v 9360.85 2127.31 1825.94
v 9449.76 2219.75 1817.56
v 8683.83 1892.89 1794.18
v 8812.6 1912.45 1807.3
v 9014.52 1980.1 1816.01
v 9300.82 2104.28 1832.23
v 8778.43 1920.81 1804.63
v 8908.26 1962.99 1811.12
v 9061.81 2027.29 1810.71
v 9224.52 2095.5 1820.04
v 9415.5 2153.53 1842.34
v 9461.43 2182.96 1834.51
v 9486.42 2221.78 1823.41
v 9340.59 2136.11 1833.76
v 9404.29 2172.43 1835.47
v 9455.34 2190.45 1825.35
v 9344.16 2127.76 9535.88
v 9430.61 2154.6 9534.28
v 9352.99 2120.39 9538.99
v 9371.63 2123.35 9542.14
v 9452.1 2169.58 9533.91
v 9488.13 2190.15 9545.15
v 9431.26 2219.71 9578.59
v 8758.43 1911.54 9558.8
v 8699.11 1879.76 9562.19
v 8658.16 1877.61 9568.9
v 8798.83 1903.8 9564.2
v 8898.41 1955.4 9562.6
v 9020.7 1993.15 9558.99
v 8934.91 1947.27 9574.87
v 8854.3 1995.27 9591.69
v 9033.33 2021.84 9563.78
v 9178.8 2059.72 9558.19
v 9091.81 2009.17 9573.4
v 9304.28 2101.74 9550.42
v 9248.45 2151.53 9590.11
v 9437.43 2148.7 9545.23
v 9474.57 2177.61 9547.43
v 9496.12 2226.81 9579.63
v 9486.68 2222.3 9576.85
v 8655.47 1862.48 9571.8
v 8650.16 1853.8 9584.9
v 8631.75 1869.29 9582.98
v 8721.15 1877.41 9575.7
v 8627.51 1897.62 9596.59
v 8816.22 1901.24 9579.59
v 8694.12 1939.93 9606.96
v 9090.11 2133.79 9626.7
v 9224.74 2064.28 9571.28
v 9320.61 2101.77 9564.78
v 9388.73 2128.75 9557.58
v 9443.96 2160.01 9563.8
v 9349.32 2262.74 9643.27
v 9474.56 2265.61 9619.51
v 8621.24 1860.47 9607.81
v 8621.1 1873.48 9601.3
v 8749.83 1879.31 9591.5
v 8615.92 1894.8 9613.52
v 8855.25 1916.47 9597.52
v 8949.43 1950.06 9598.08
v 9026.4 1980.73 9587.29
v 9088.56 2004.39 9591.41
v 9159.49 2038.06 9591.77
v 9256.09 2080.18 9586.73
v 9483.86 2212.25 9581.71
v 9238.31 2230.27 9659.02
v 9418.54 2289.87 9652.42
v 8683.88 1868.35 9607.37
v 8615.45 1909.24 9642.81
v 8740.41 2020.46 9663.68
v 9051.18 2010.62 9617.75
v 9358.21 2127.11 9580.9
v 8934.13 2110.43 9668.96
v 9482.33 2259.46 9623.94
v 9409.1 2186.99 9609.99
v 9473.87 2277.7 9632.94
v 9454.23 2295.9 9658.42
v 8781.69 1923.66 9638.89
v 8644.57 1941.4 9649.77
v 9108.1 2199.14 9687.11
v 8663.8 1891.62 9638.68
v 8630.54 1906.22 9652.54
v 8929.16 1977.52 9632.31
v 9234.13 2125.1 9641.32
v 8635.08 1963.17 9683.82
v 8669.83 1990.61 9687.58
v 8809.73 2074.81 9701.52
v 8724.98 2031.34 9700.5
v 8904.71 2119.62 9710.19
v 8995.3 2160.03 9709.9
v 9224.22 2254.71 9701.42
v 9440.46 2297.7 9670.79
v 9323.45 2279.76 9689.45
v 9400.89 2293.77 9683.19
v 8731.27 1967.59 9686.26
v 8647.61 1950.49 9673.86
v 8965.37 2046.53 9679.15
v 8740.46 2047.24 9710.78
v 9363.04 2230.69 9667.44
v 9090.04 2205.19 9716.61
v 9162.41 2231.15 9716.05
v 8689.48 2009.15 9699.69
v 9197.61 2180.79 9700.64
v 8786.07 2067.56 9714.59
v 8865.65 2100.33 9718.08
v 8947.69 2140.48 9719.07
v 9219.17 2252.77 9715.76
v 9315.28 2279.1 9704.71
v 8715.39 2008.18 9700.32
v 8859.69 2062.86 9714.99
v 8745.1 2045.33 9706.56
v 9042.36 2183.77 9723.2
v 9329.24 2257.13 9700.35
v 9129.03 2218.42 9719.09
v 9341.29 2277.68 9696.67
v 8818.01 2075.93 9713.57
v 9052.88 2152.67 9720.29
v 8958.38 2137.44 9717.55
v 9101.01 2203.73 9718.97
v 9221.89 2233.56 9705.68
vn 0.0366633 -0.18014 -0.982958
vn -0.251066 0.0445007 -0.966947
vn -0.30042 0.522905 -0.797696
vn 0.226223 -0.480672 -0.847217
vn 0.0354043 -0.0142916 -0.999271
vn -0.376724 0.869237 -0.320166
vn -0.165238 0.450657 -0.877271
vn -0.00910063 0.0923593 -0.995684
vn 0.25773 -0.52143 -0.813441
vn -0.297119 0.82212 -0.485633
vn 0.232666 -0.266492 -0.935333
vn -0.168092 0.514173 -0.841053
vn -0.328206 0.739783 -0.587369
vn -0.38524 0.887629 -0.252399
vn 0.224349 0.340264 -0.913175
vn -0.339905 0.902035 -0.266077
vn 0.143946 -0.570023 -0.808921
vn -0.263791 -0.401367 -0.877108
vn -0.7083 0.315519 -0.631473
vn -0.530094 0.823772 -0.200999
vn -0.461565 0.887063 -0.00872088
vn 0.349473 -0.538561 -0.766694
vn 0.473302 -0.346776 -0.809772
vn -0.0779638 0.993622 -0.0814714
vn -0.305451 0.898318 0.315791
vn 0.679454 0.352084 -0.643722
vn 0.471517 0.796809 -0.377847
vn -0.0144483 -0.75734 -0.652861
vn -0.501762 -0.512041 -0.697173
vn -0.94074 0.00596921 -0.339076
vn -0.749363 0.656436 0.0868769
vn 0.285215 -0.696951 -0.657961
vn 0.339519 -0.733495 -0.588823
vn -0.452073 0.751422 0.480619
vn -0.425224 0.820535 0.381978
vn -0.366616 0.858576 0.358384
vn -0.360737 0.791846 0.492796
vn -0.358224 0.921298 0.151279
vn -0.39979 0.91541 0.0468145
vn -0.383497 0.858679 0.340002
vn -0.371907 0.818809 0.437307
vn 0.133186 0.918419 0.372515
vn 0.226784 -0.730864 -0.643744
vn -0.82497 0.472602 0.309955
vn 0.338203 -0.698174 -0.631009
vn -0.328948 0.763935 0.555154
vn 0.459365 -0.620459 -0.635621
vn 0.905813 0.00154625 -0.423676
vn 0.559298 -0.439121 -0.703106
vn -0.232527 0.718521 0.655484
vn -0.648955 -0.72568 -0.228576
vn 0.132569 -0.949645 -0.283901
vn -0.307636 0.685592 0.659791
vn -0.284849 0.694496 0.660709
vn -0.31109 0.677632 0.666362
vn 0.577503 0.809353 0.106949
vn -0.107373 -0.989242 0.0993547
vn 0.308283 -0.938973 -0.152612
vn -0.964034 -0.156015 0.215167
vn 0.349999 -0.867137 -0.354363
vn 0.358134 -0.91746 -0.173227
vn -0.489143 0.574599 0.656182
vn -0.186598 0.467326 0.864169
vn 0.393423 -0.851984 -0.345458
vn 0.17887 -0.89256 0.413936
vn -0.593143 0.154399 0.790153
vn 0.426345 -0.903756 -0.038147
vn 0.376519 -0.920771 -0.102054
vn 0.501509 -0.831801 -0.237899
vn -0.245879 0.530866 0.811002
vn 0.750179 -0.535308 -0.388171
vn 0.546308 0.610098 0.573871
vn -0.00409877 0.760853 0.648911
vn -0.499589 -0.574589 0.648273
vn 0.331136 -0.894733 0.299671
vn 0.284185 -0.870032 0.402845
vn -0.25493 0.465191 0.847708
vn 0.326823 -0.896776 0.298295
vn 0.638251 -0.768123 0.0512219
vn -0.2424 0.49132 0.836569
vn 0.849792 -0.242341 0.468108
vn -0.0756607 -0.442808 0.893419
vn 0.194764 -0.69161 0.695516
vn 0.334104 -0.741605 0.581719
vn 0.311275 -0.600069 0.736903
vn -0.136895 0.167496 0.976322
vn 0.123658 -0.521099 0.844491
vn 0.410134 -0.865027 0.288997
vn -0.11598 0.541668 0.832553
vn -0.204403 0.101341 0.973627
vn 0.11207 -0.453466 0.8842
vn 0.096631 -0.293385 0.951098
vn 0.0952055 -0.415648 0.904529
vn -0.109337 0.0317614 0.993497
vn -0.011357 -0.0368414 0.999257
vn -0.0589467 0.11539 0.99157
vn -0.158487 0.169217 0.972753
vn 0.21447 -0.304388 0.92809
vn 0.478669 -0.206735 0.853309
vn 0.259178 0.190111 0.946934
vn -0.147387 0.153755 0.977055
vn -0.0635942 0.299012 0.952128
vn 0.100559 0.198578 0.974913
vn -0.113946 0.0331831 -0.992933
vn 0.335809 -0.50609 -0.794422
vn 0.101771 -0.554237 -0.826114
vn 0.30221 -0.865681 -0.39908
vn 0.0557217 0.203383 -0.977512
vn 0.517715 0.154599 -0.841469
vn -0.137705 0.64135 -0.75479
vn -0.107992 0.224257 -0.968528
vn 0.033417 -0.408879 -0.911976
vn -0.326813 0.190603 -0.925669
vn 0.196688 -0.582525 -0.788656
vn 0.0212745 -0.0587918 -0.998044
vn 0.133267 -0.390369 -0.910962
vn 0.316942 -0.84845 -0.423887
vn -0.238067 0.571445 -0.78535
vn -0.139467 0.342667 -0.929047
vn 0.0683502 -0.299927 -0.95151
vn 0.360027 -0.859361 -0.363152
vn 0.165475 -0.751809 -0.63828
vn -0.247741 0.539289 -0.804855
vn 0.496788 -0.85347 -0.157452
vn 0.784814 -0.608867 -0.115533
vn 0.965818 0.196477 -0.169095
vn 0.260531 0.667991 -0.697073
vn -0.163862 -0.586332 -0.793325
vn -0.175368 -0.951564 -0.252531
vn -0.707978 -0.224068 -0.669747
vn 0.212215 -0.859198 -0.465557
vn -0.591614 0.503969 -0.629292
vn 0.304557 -0.920705 -0.244022
vn -0.339643 0.648176 -0.68155
vn -0.263676 0.634992 -0.726127
vn 0.344201 -0.90609 -0.246021
vn 0.359972 -0.932728 0.0209645
vn 0.397949 -0.89846 0.185489
vn 0.509841 -0.7373 0.443228
vn -0.267087 0.735111 -0.623119
vn 0.277648 0.778334 -0.563124
vn -0.427943 -0.804647 0.411593
vn -0.881718 -0.419364 -0.216118
vn 0.272111 -0.9514 0.144202
vn -0.916399 0.253304 -0.309918
vn 0.322411 -0.891393 0.318544
vn 0.340317 -0.874395 0.345858
vn 0.362962 -0.923306 0.125555
vn 0.375515 -0.898481 0.22742
vn 0.394429 -0.855875 0.33452
vn 0.380412 -0.837072 0.393187
vn 0.711089 -0.522432 0.47055
vn -0.287695 0.738445 -0.609861
vn -0.121838 0.891244 -0.436853
vn 0.162808 -0.868878 0.467488
vn -0.930866 -0.087299 0.354777
vn -0.406401 0.735554 -0.542032
vn 0.310208 -0.718803 0.622168
vn 0.379317 -0.75595 0.533534
vn -0.338555 0.77161 -0.538515
vn 0.730881 -0.27644 0.624015
vn 0.40567 -0.595884 0.693076
vn 0.836045 0.535442 0.11971
vn 0.340464 0.940249 0.00401157
vn 0.240285 -0.70823 0.663832
vn -0.662804 0.649082 -0.373342
vn -0.345362 0.823264 -0.450512
vn 0.0841233 -0.691664 0.717303
vn -0.275942 -0.502149 0.819575
vn 0.267113 -0.681934 0.680894
vn 0.322808 -0.632333 0.704237
vn -0.771094 0.290156 0.566766
vn -0.630767 0.749074 -0.202538
vn -0.412666 0.903424 -0.116323
vn -0.531483 0.828032 -0.178577
vn -0.424048 0.903582 -0.0610067
vn -0.409158 0.90281 -0.132377
vn -0.313133 0.932503 -0.179962
vn 0.515134 0.173051 0.839458
vn -0.233234 0.966559 -0.106613
vn 0.0579169 0.872253 0.485613
vn 0.0776223 -0.487861 0.869464
vn -0.286161 -0.318882 0.903563
vn 0.238862 -0.568564 0.787198
vn -0.49167 0.743523 0.45325
vn 0.370662 -0.518054 0.770863
vn -0.376349 0.924104 0.0662778
vn -0.342224 0.935967 0.0827615
vn -0.567507 0.52264 0.636226
vn 0.235609 -0.432667 0.870223
vn -0.300533 0.557361 0.773969
vn -0.327669 0.666592 0.669543
vn -0.372369 0.775637 0.509636
vn -0.161643 0.701657 0.693937
vn 0.0284472 0.50042 0.865315
vn -0.130256 -0.152929 0.979615
vn 0.0536359 -0.244909 0.968061
vn -0.218598 0.110519 0.969536
vn -0.297757 0.665722 0.684219
vn 0.23301 -0.215138 0.948379
vn -0.250061 0.718865 0.648616
vn 0.174925 0.137063 0.974995
vn -0.0852785 0.0516808 0.995016
vn 0.111338 -0.207575 0.971862
vn -0.0964681 0.159295 0.982507
vn -0.0117232 0.133351 0.991
vn 0.103713 -0.0703742 0.992114

g grp1
usemtl mtl1
f 1//1 2//2 3//3 
f 4//4 1//1 5//5 
f 5//5 1//1 3//3 
f 6//6 7//7 3//3 
f 5//5 3//3 7//7 
f 8//8 5//5 7//7 
f 4//4 5//5 8//8 
f 9//9 4//4 8//8 
f 8//8 7//7 10//10 
f 9//9 8//8 11//11 
f 11//11 8//8 12//12 
f 12//12 8//8 13//13 
f 14//14 12//12 13//13 
f 15//15 11//11 12//12 
f 15//15 12//12 16//16 
f 17//17 18//18 2//2 
f 2//2 18//18 19//19 
f 1//1 17//17 2//2 
f 2//2 19//19 20//20 
f 20//20 3//3 2//2 
f 4//4 17//17 1//1 
f 3//3 20//20 21//21 
f 6//6 3//3 21//21 
f 7//7 6//6 10//10 
f 8//8 10//10 13//13 
f 11//11 22//22 9//9 
f 23//23 22//22 11//11 
f 12//12 14//14 16//16 
f 16//16 24//24 15//15 
f 23//23 11//11 15//15 
f 16//16 25//25 24//24 
f 15//15 26//26 23//23 
f 26//26 15//15 27//27 
f 28//28 29//29 18//18 
f 30//30 18//18 29//29 
f 28//28 18//18 17//17 
f 18//18 30//30 19//19 
f 30//30 31//31 19//19 
f 20//20 19//19 31//31 
f 4//4 32//32 17//17 
f 4//4 9//9 33//33 
f 20//20 34//34 35//35 
f 35//35 21//21 20//20 
f 6//6 21//21 36//36 
f 21//21 37//37 36//36 
f 6//6 36//36 38//38 
f 10//10 6//6 38//38 
f 10//10 38//38 39//39 
f 13//13 10//10 39//39 
f 13//13 39//39 14//14 
f 16//16 14//14 40//40 
f 16//16 41//41 25//25 
f 24//24 27//27 15//15 
f 27//27 24//24 42//42 
f 28//28 17//17 43//43 
f 43//43 17//17 32//32 
f 30//30 44//44 31//31 
f 32//32 4//4 33//33 
f 20//20 31//31 34//34 
f 21//21 35//35 37//37 
f 45//45 33//33 9//9 
f 9//9 22//22 45//45 
f 38//38 36//36 46//46 
f 38//38 46//46 39//39 
f 22//22 23//23 47//47 
f 14//14 39//39 40//40 
f 23//23 48//48 49//49 
f 16//16 40//40 41//41 
f 26//26 48//48 23//23 
f 50//50 25//25 41//41 
f 24//24 25//25 50//50 
f 50//50 42//42 24//24 
f 29//29 28//28 51//51 
f 52//52 28//28 43//43 
f 29//29 51//51 30//30 
f 44//44 34//34 31//31 
f 35//35 34//34 53//53 
f 37//37 53//53 54//54 
f 36//36 37//37 54//54 
f 54//54 46//46 36//36 
f 47//47 23//23 49//49 
f 55//55 41//41 40//40 
f 48//48 26//26 56//56 
f 42//42 56//56 27//27 
f 26//26 27//27 56//56 
f 51//51 28//28 57//57 
f 57//57 28//28 52//52 
f 52//52 43//43 58//58 
f 30//30 51//51 59//59 
f 43//43 32//32 60//60 
f 30//30 59//59 44//44 
f 32//32 33//33 61//61 
f 44//44 62//62 34//34 
f 37//37 35//35 53//53 
f 53//53 63//63 54//54 
f 45//45 47//47 64//64 
f 45//45 22//22 47//47 
f 46//46 40//40 39//39 
f 40//40 46//46 55//55 
f 52//52 58//58 65//65 
f 43//43 60//60 58//58 
f 60//60 32//32 61//61 
f 66//66 44//44 59//59 
f 61//61 33//33 67//67 
f 44//44 66//66 62//62 
f 45//45 68//68 33//33 
f 45//45 64//64 68//68 
f 69//69 64//64 47//47 
f 46//46 70//70 55//55 
f 47//47 49//49 71//71 
f 71//71 49//49 48//48 
f 48//48 56//56 72//72 
f 55//55 50//50 41//41 
f 42//42 73//73 56//56 
f 74//74 51//51 57//57 
f 52//52 65//65 57//57 
f 51//51 74//74 59//59 
f 60//60 75//75 58//58 
f 60//60 61//61 75//75 
f 67//67 76//76 61//61 
f 62//62 77//77 34//34 
f 34//34 77//77 53//53 
f 33//33 68//68 67//67 
f 77//77 63//63 53//53 
f 64//64 78//78 68//68 
f 70//70 54//54 63//63 
f 46//46 54//54 70//70 
f 47//47 79//79 69//69 
f 79//79 47//47 71//71 
f 80//80 55//55 70//70 
f 81//81 71//71 48//48 
f 73//73 42//42 50//50 
f 82//82 74//74 57//57 
f 57//57 65//65 82//82 
f 74//74 66//66 59//59 
f 58//58 75//75 65//65 
f 61//61 83//83 75//75 
f 61//61 76//76 83//83 
f 62//62 66//66 77//77 
f 67//67 84//84 76//76 
f 67//67 85//85 84//84 
f 67//67 68//68 85//85 
f 77//77 86//86 63//63 
f 68//68 78//78 87//87 
f 88//88 64//64 69//69 
f 69//69 79//79 88//88 
f 79//79 71//71 81//81 
f 80//80 50//50 55//55 
f 81//81 48//48 72//72 
f 50//50 89//89 73//73 
f 73//73 72//72 56//56 
f 82//82 90//90 74//74 
f 74//74 90//90 66//66 
f 65//65 91//91 82//82 
f 65//65 75//75 91//91 
f 75//75 83//83 91//91 
f 76//76 92//92 83//83 
f 84//84 92//92 76//76 
f 68//68 87//87 85//85 
f 64//64 88//88 78//78 
f 78//78 88//88 93//93 
f 89//89 50//50 80//80 
f 82//82 94//94 90//90 
f 82//82 91//91 94//94 
f 77//77 66//66 90//90 
f 94//94 77//77 90//90 
f 95//95 94//94 91//91 
f 83//83 95//95 91//91 
f 95//95 83//83 92//92 
f 94//94 86//86 77//77 
f 95//95 86//86 94//94 
f 92//92 84//84 85//85 
f 92//92 96//96 95//95 
f 95//95 63//63 86//86 
f 96//96 63//63 95//95 
f 85//85 96//96 92//92 
f 87//87 96//96 85//85 
f 87//87 78//78 93//93 
f 70//70 63//63 96//96 
f 97//97 70//70 96//96 
f 87//87 97//97 96//96 
f 97//97 87//87 93//93 
f 88//88 98//98 93//93 
f 79//79 98//98 88//88 
f 79//79 99//99 98//98 
f 80//80 70//70 97//97 
f 99//99 79//79 81//81 
f 81//81 72//72 100//100 
f 100//100 72//72 89//89 
f 72//72 73//73 89//89 
f 93//93 101//101 97//97 
f 93//93 98//98 101//101 
f 97//97 101//101 80//80 
f 102//102 80//80 101//101 
f 98//98 102//102 101//101 
f 103//103 102//102 98//98 
f 98//98 99//99 103//103 
f 99//99 81//81 103//103 
f 89//89 80//80 102//102 
f 89//89 102//102 103//103 
f 103//103 81//81 100//100 
f 100//100 89//89 103//103 
f 104//104 105//105 106//106 
f 106//106 105//105 107//107 
f 108//108 105//105 104//104 
f 109//109 105//105 108//108 
f 108//108 104//104 110//110 
f 109//109 108//108 110//110 
f 111//111 112//112 113//113 
f 114//114 112//112 111//111 
f 115//115 114//114 111//111 
f 115//115 116//116 117//117 
f 115//115 111//111 118//118 
f 119//119 115//115 118//118 
f 116//116 120//120 121//121 
f 116//116 115//115 119//119 
f 119//119 120//120 116//116 
f 104//104 122//122 120//120 
f 122//122 106//106 107//107 
f 120//120 119//119 123//123 
f 104//104 120//120 123//123 
f 106//106 122//122 104//104 
f 107//107 105//105 124//124 
f 105//105 125//125 124//124 
f 105//105 109//109 125//125 
f 125//125 109//109 126//126 
f 104//104 123//123 110//110 
f 110//110 127//127 109//109 
f 128//128 129//129 130//130 
f 129//129 128//128 131//131 
f 112//112 131//131 128//128 
f 112//112 114//114 131//131 
f 128//128 130//130 113//113 
f 113//113 130//130 132//132 
f 128//128 113//113 112//112 
f 114//114 117//117 133//133 
f 134//134 113//113 132//132 
f 113//113 134//134 111//111 
f 115//115 117//117 114//114 
f 111//111 134//134 118//118 
f 116//116 121//121 117//117 
f 119//119 118//118 135//135 
f 120//120 136//136 121//121 
f 120//120 122//122 136//136 
f 122//122 137//137 136//136 
f 135//135 123//123 119//119 
f 122//122 107//107 137//137 
f 107//107 138//138 137//137 
f 107//107 124//124 138//138 
f 124//124 139//139 138//138 
f 124//124 125//125 139//139 
f 110//110 123//123 140//140 
f 109//109 127//127 126//126 
f 110//110 141//141 127//127 
f 141//141 126//126 127//127 
f 129//129 142//142 143//143 
f 129//129 143//143 130//130 
f 131//131 133//133 144//144 
f 114//114 133//133 131//131 
f 145//145 130//130 143//143 
f 132//132 130//130 145//145 
f 133//133 117//117 146//146 
f 117//117 147//147 146//146 
f 117//117 148//148 147//147 
f 121//121 148//148 117//117 
f 149//149 148//148 121//121 
f 136//136 150//150 121//121 
f 136//136 151//151 150//150 
f 151//151 136//136 137//137 
f 125//125 152//152 139//139 
f 125//125 126//126 152//152 
f 153//153 123//123 135//135 
f 140//140 123//123 153//153 
f 110//110 140//140 154//154 
f 141//141 110//110 154//154 
f 129//129 155//155 142//142 
f 131//131 144//144 129//129 
f 129//129 144//144 155//155 
f 156//156 145//145 143//143 
f 133//133 146//146 144//144 
f 134//134 157//157 118//118 
f 149//149 150//150 158//158 
f 121//121 150//150 149//149 
f 137//137 159//159 151//151 
f 135//135 118//118 160//160 
f 138//138 159//159 137//137 
f 138//138 139//139 159//159 
f 152//152 161//161 162//162 
f 161//161 152//152 126//126 
f 163//163 126//126 141//141 
f 164//164 141//141 154//154 
f 142//142 156//156 143//143 
f 144//144 165//165 155//155 
f 144//144 146//146 165//165 
f 132//132 145//145 166//166 
f 166//166 145//145 156//156 
f 148//148 158//158 147//147 
f 149//149 158//158 148//148 
f 134//134 132//132 166//166 
f 157//157 134//134 166//166 
f 157//157 160//160 118//118 
f 162//162 159//159 139//139 
f 139//139 152//152 162//162 
f 167//167 135//135 160//160 
f 135//135 167//167 153//153 
f 126//126 163//163 161//161 
f 155//155 168//168 142//142 
f 142//142 169//169 156//156 
f 168//168 169//169 142//142 
f 155//155 165//165 168//168 
f 146//146 170//170 165//165 
f 146//146 147//147 170//170 
f 170//170 147//147 158//158 
f 171//171 158//158 150//150 
f 171//171 150//150 151//151 
f 171//171 151//151 159//159 
f 171//171 159//159 162//162 
f 141//141 164//164 163//163 
f 156//156 172//172 166//166 
f 166//166 173//173 157//157 
f 174//174 157//157 175//175 
f 160//160 157//157 174//174 
f 160//160 174//174 176//176 
f 177//177 160//160 176//176 
f 160//160 177//177 167//167 
f 153//153 167//167 178//178 
f 179//179 161//161 163//163 
f 180//180 153//153 178//178 
f 140//140 153//153 180//180 
f 163//163 164//164 179//179 
f 140//140 180//180 154//154 
f 181//181 164//164 154//154 
f 169//169 168//168 182//182 
f 182//182 168//168 165//165 
f 169//169 183//183 156//156 
f 172//172 173//173 166//166 
f 158//158 184//184 170//170 
f 157//157 173//173 175//175 
f 184//184 158//158 171//171 
f 174//174 175//175 185//185 
f 171//171 162//162 186//186 
f 167//167 177//177 187//187 
f 167//167 187//187 188//188 
f 186//186 162//162 161//161 
f 178//178 167//167 188//188 
f 154//154 180//180 181//181 
f 179//179 164//164 181//181 
f 183//183 169//169 182//182 
f 156//156 183//183 172//172 
f 173//173 172//172 189//189 
f 184//184 165//165 170//170 
f 175//175 173//173 189//189 
f 175//175 189//189 185//185 
f 171//171 190//190 184//184 
f 174//174 185//185 191//191 
f 176//176 174//174 192//192 
f 193//193 176//176 192//192 
f 176//176 193//193 177//177 
f 171//171 186//186 190//190 
f 186//186 161//161 179//179 
f 178//178 188//188 194//194 
f 194//194 180//180 178//178 
f 181//181 180//180 195//195 
f 196//196 183//183 182//182 
f 183//183 196//196 172//172 
f 197//197 196//196 182//182 
f 182//182 165//165 184//184 
f 197//197 182//182 184//184 
f 172//172 196//196 189//189 
f 185//185 189//189 198//198 
f 185//185 198//198 191//191 
f 174//174 191//191 192//192 
f 177//177 193//193 199//199 
f 200//200 190//190 186//186 
f 177//177 199//199 187//187 
f 187//187 199//199 201//201 
f 187//187 201//201 188//188 
f 188//188 201//201 194//194 
f 186//186 179//179 200//200 
f 202//202 200//200 179//179 
f 194//194 195//195 180//180 
f 181//181 195//195 202//202 
f 179//179 181//181 202//202 
f 196//196 198//198 189//189 
f 203//203 198//198 196//196 
f 197//197 203//203 196//196 
f 203//203 191//191 198//198 
f 192//192 191//191 203//203 
f 204//204 197//197 184//184 
f 197//197 205//205 203//203 
f 205//205 192//192 203//203 
f 205//205 197//197 204//204 
f 204//204 184//184 190//190 
f 205//205 193//193 192//192 
f 193//193 205//205 199//199 
f 205//205 206//206 199//199 
f 201//201 199//199 206//206 
f 190//190 200//200 207//207 
f 194//194 206//206 207//207 
f 200//200 202//202 207//207 
f 206//206 194//194 201//201 
f 195//195 194//194 207//207 
f 202//202 195//195 207//207 
f 206//206 205//205 204//204 
f 190//190 207//207 204//204 
f 207//207 206//206 204//204 
