# Blender v2.92.0 OBJ File: 'convert_to_one_sided.blend'
# www.blender.org
mtllib 312782612L.mtl
o Cube
v 0.001000 0.001000 -0.001000
v 0.001000 -0.001000 -0.001000
v 0.001000 0.001000 0.001000
v 0.001000 -0.001000 0.001000
v -0.001000 0.001000 -0.001000
v -0.001000 -0.001000 -0.001000
v -0.001000 0.001000 0.001000
v -0.001000 -0.001000 0.001000
vt 0.625000 0.500000
vt 0.875000 0.500000
vt 0.875000 0.750000
vt 0.625000 0.750000
vt 0.375000 0.750000
vt 0.625000 1.000000
vt 0.375000 1.000000
vt 0.375000 0.000000
vt 0.625000 0.000000
vt 0.625000 0.250000
vt 0.375000 0.250000
vt 0.125000 0.500000
vt 0.375000 0.500000
vt 0.125000 0.750000
vn 0.0000 1.0000 0.0000
vn 0.0000 0.0000 1.0000
vn -1.0000 0.0000 0.0000
vn 0.0000 -1.0000 0.0000
vn 1.0000 0.0000 0.0000
vn 0.0000 0.0000 -1.0000
usemtl Material
s off
f 1/1/1 5/2/1 7/3/1 3/4/1
f 4/5/2 3/4/2 7/6/2 8/7/2
f 8/8/3 7/9/3 5/10/3 6/11/3
f 6/12/4 2/13/4 4/5/4 8/14/4
f 2/13/5 1/1/5 3/4/5 4/5/5
f 6/11/6 5/10/6 1/1/6 2/13/6
o 312782612
v 7.880818 1.512340 2.107983
v 7.911558 1.530240 2.106683
v 7.926358 1.499940 2.116303
v 7.886408 1.542750 2.114953
v 7.940828 1.430701 2.172282
v 7.869318 1.473021 2.146873
v 7.969857 1.504690 2.135993
v 7.854159 1.526610 2.149122
v 7.940338 1.534290 2.128403
v 7.914368 1.542870 2.128923
v 7.997857 1.468531 2.155632
v 7.827109 1.467421 2.190962
v 8.030657 1.472541 2.170582
v 7.876619 1.543650 2.152213
v 7.844929 1.427551 2.202082
v 8.044696 1.422041 2.189932
v 8.085876 1.434781 2.207192
v 7.992917 1.507260 2.173922
v 8.068626 1.389472 2.216832
v 7.797179 1.407772 2.244311
v 8.057476 1.463951 2.198192
v 7.803580 1.479571 2.245831
v 7.838669 1.519040 2.213502
v 7.856589 1.526570 2.218532
v 7.936628 1.508030 2.212392
v 8.107366 1.404362 2.222372
v 8.187204 1.385842 2.272151
v 7.758270 1.420241 2.304380
v 8.047317 1.339652 2.284671
v 7.763960 1.397202 2.286071
v 8.107626 1.451741 2.253651
v 8.041616 1.474671 2.242491
v 7.828079 1.497720 2.269071
v 7.856569 1.363782 2.278951
v 8.153165 1.367552 2.269241
v 7.769230 1.365712 2.305620
v 8.174765 1.410882 2.281511
v 8.243104 1.345172 2.323450
v 7.999247 1.456601 2.299431
v 7.866939 1.453731 2.321190
v 8.203914 1.323523 2.330650
v 8.256603 1.324303 2.347720
v 7.705251 1.354642 2.380640
v 7.726130 1.344072 2.356690
v 8.209814 1.402852 2.329280
v 8.118046 1.428981 2.313291
v 7.794460 1.452241 2.321140
v 7.889218 1.273823 2.396939
v 8.245904 1.366402 2.334800
v 7.746440 1.413741 2.354860
v 8.106166 1.266273 2.403359
v 7.741240 1.306443 2.389380
v 8.239863 1.305063 2.379930
v 7.705301 1.375252 2.405379
v 8.232514 1.384872 2.336420
v 7.957958 1.404181 2.378510
v 7.689141 1.318383 2.413479
v 8.260584 1.331602 2.373070
v 8.084116 1.392082 2.388149
v 7.789279 1.382412 2.436539
v 8.211044 1.278353 2.412769
v 8.218823 1.282923 2.442329
v 8.252375 1.359372 2.375090
v 7.711621 1.384072 2.418009
v 7.718771 1.226134 2.500788
v 7.644201 1.301883 2.474808
v 7.997907 1.352212 2.456499
v 8.193395 1.367562 2.400299
v 7.732450 1.389372 2.417959
v 7.905018 1.206184 2.509138
v 8.152935 1.243644 2.465658
v 7.641442 1.262553 2.506058
v 7.640632 1.318443 2.503668
v 8.243073 1.324083 2.419589
v 7.888508 1.361282 2.455039
v 8.049076 1.202204 2.516488
v 8.145616 1.228074 2.506268
v 7.680001 1.351192 2.482458
v 8.099636 1.319003 2.493268
v 8.229384 1.329582 2.431699
v 8.090436 1.202264 2.532788
v 8.171064 1.286443 2.495768
v 8.176495 1.324213 2.453909
v 7.596152 1.202504 2.584497
v 7.640642 1.183104 2.590167
v 8.127215 1.231804 2.538548
v 7.581092 1.262003 2.588797
v 7.708921 1.334782 2.527788
v 7.751270 1.150785 2.630056
v 8.027376 1.169914 2.586597
v 7.955128 1.296753 2.556737
v 7.627652 1.314043 2.563217
v 7.797689 1.294063 2.592897
v 7.919828 1.148935 2.627067
v 8.053786 1.186734 2.595667
v 7.561733 1.219924 2.613636
v 8.104035 1.243514 2.573347
v 8.095156 1.259173 2.575217
v 7.584582 1.281853 2.620227
v 8.097075 1.276963 2.549037
v 7.642042 1.313113 2.577757
v 8.038727 1.263283 2.589957
v 7.572293 1.142095 2.691596
v 7.589272 1.279093 2.656096
v 7.959978 1.144165 2.662726
v 7.534113 1.182634 2.668836
v 8.049747 1.205064 2.622437
v 8.026816 1.219684 2.639686
v 7.482934 1.217294 2.732225
v 7.662421 1.277203 2.649076
v 7.900249 1.116735 2.700935
v 7.807260 1.087095 2.762015
v 7.456794 1.109865 2.781464
v 7.478874 1.150205 2.738095
v 7.956978 1.153285 2.708285
v 7.496933 1.190134 2.702175
v 7.985637 1.183824 2.688676
v 7.912528 1.221764 2.679146
v 7.513834 1.240474 2.732915
v 7.638522 1.077936 2.796324
v 7.442384 1.151705 2.764344
v 7.481884 1.074476 2.843614
v 7.889998 1.112295 2.743815
v 7.966618 1.191564 2.693316
v 7.704091 1.207334 2.776654
v 7.404095 1.139635 2.816374
v 7.929138 1.171044 2.727875
v 7.424504 1.198484 2.823714
v 7.553793 1.234844 2.760095
v 7.432804 1.126465 2.792024
v 7.876069 1.107075 2.793274
v 7.833039 1.082716 2.822544
v 7.779940 1.049926 2.869513
v 7.390095 1.094735 2.862663
v 7.868119 1.125315 2.806344
v 7.370145 1.161235 2.874273
v 7.846429 1.168784 2.773404
v 7.459734 1.210084 2.823734
v 7.693521 1.023886 2.912553
v 7.347445 1.107525 2.888023
v 7.543493 1.028346 2.924342
v 7.836370 1.093166 2.842124
v 7.761350 1.128715 2.873263
v 7.345235 1.167024 2.924503
v 7.395535 1.184534 2.888283
v 7.493773 1.174934 2.895023
v 7.390914 1.050166 2.941222
v 7.784620 1.053606 2.908593
v 7.320296 1.115365 2.923003
v 7.640652 1.137265 2.920673
v 7.740280 1.024596 2.941192
v 7.791470 1.084696 2.898673
v 7.291226 1.122125 2.980962
v 7.369575 1.165025 2.947402
v 7.324566 1.088946 2.934402
v 7.751141 1.081606 2.956702
v 7.702451 1.001137 2.987282
v 7.727520 1.016326 2.992792
v 7.741820 1.045966 2.990772
v 7.751670 1.065826 2.970152
v 7.285216 1.095085 2.978392
v 7.683901 1.088156 2.986492
v 7.609662 1.000627 2.990962
v 7.481424 1.015056 2.995262
v 7.299876 1.073786 2.988212
v 7.323535 1.146525 2.982192
v 7.378395 1.038456 3.007292
v 7.278596 1.092855 3.003841
v 7.538803 1.110885 3.006782
v 7.578962 0.995399 3.042901
v 7.482574 1.017716 3.038161
v 7.398085 1.040106 3.042301
v 7.319416 1.072416 3.025501
v 7.717351 1.057466 3.010312
v 7.399405 1.140615 2.988592
v 7.665281 1.002607 3.029341
v 7.284686 1.094835 3.022571
v 7.331185 1.119225 3.011082
v 7.411164 1.103835 3.034951
v 7.688841 1.014367 3.047571
v 7.373285 1.059436 3.049411
v 7.496084 1.035276 3.062651
v 7.698671 1.033616 3.043451
v 7.330515 1.081476 3.041491
v 7.636132 1.046776 3.049811
v 7.631282 1.002897 3.057061
v 7.570503 1.010527 3.056921
v 7.401165 1.072526 3.052921
v 7.348886 1.090006 3.032691
v 7.508633 1.064646 3.048551
v 7.612002 1.017446 3.062031
v 7.661701 1.026646 3.048091
v 7.563853 1.037246 3.055321
vn -0.4161 -0.2039 -0.8861
vn 0.2341 0.4124 -0.8804
vn 0.2282 -0.3073 -0.9238
vn -0.3199 0.7538 -0.5740
vn -0.0321 -0.6790 -0.7334
vn -0.4074 -0.5792 -0.7061
vn 0.5857 0.3197 -0.7448
vn -0.7965 0.4875 -0.3577
vn 0.5019 0.7310 -0.4623
vn 0.2197 0.9693 -0.1107
vn 0.3606 -0.2750 -0.8912
vn -0.7838 -0.1304 -0.6072
vn 0.6017 0.2173 -0.7686
vn -0.2117 0.9754 0.0620
vn -0.3548 -0.6389 -0.6826
vn 0.2793 -0.3923 -0.8764
vn 0.5771 0.1112 -0.8091
vn 0.4770 0.8761 -0.0709
vn 0.1680 -0.6601 -0.7322
vn -0.4765 -0.5550 -0.6819
vn 0.6310 0.6068 -0.4834
vn -0.8225 0.5561 -0.1191
vn -0.5868 0.8029 0.1052
vn -0.0392 0.9245 0.3793
vn 0.1932 0.9096 0.3677
vn 0.4024 -0.3545 -0.8440
vn 0.6231 0.0140 -0.7820
vn -0.8736 0.3561 -0.3318
vn 0.0157 -0.8128 -0.5824
vn -0.7664 -0.2063 -0.6084
vn 0.4558 0.8895 -0.0313
vn 0.2317 0.9214 0.3118
vn -0.2528 0.8556 0.4517
vn -0.1654 -0.7812 -0.6020
vn 0.2884 -0.6258 -0.7247
vn -0.4160 -0.6426 -0.6434
vn 0.6468 0.6092 -0.4588
vn 0.6811 -0.2798 -0.6766
vn 0.1083 0.8660 0.4882
vn 0.0703 0.8281 0.5562
vn 0.2032 -0.7766 -0.5963
vn 0.6647 -0.6028 -0.4414
vn -0.8672 0.0921 -0.4893
vn -0.6188 -0.4639 -0.6339
vn 0.4544 0.8777 0.1523
vn 0.1944 0.8954 0.4007
vn -0.3781 0.8465 0.3748
vn -0.0801 -0.8297 -0.5524
vn 0.8584 0.3580 -0.3674
vn -0.6283 0.7749 0.0688
vn 0.0888 -0.8654 -0.4932
vn -0.3193 -0.7286 -0.6059
vn 0.5096 -0.8207 -0.2585
vn -0.7845 0.6057 -0.1332
vn 0.7103 0.6880 -0.1487
vn 0.0637 0.8303 0.5536
vn -0.6511 -0.4308 -0.6249
vn 0.9886 -0.1505 -0.0086
vn 0.0923 0.8404 0.5340
vn 0.0089 0.8673 0.4977
vn 0.3919 -0.8819 -0.2622
vn 0.7772 -0.5756 0.2543
vn 0.7401 0.6021 0.2996
vn -0.5330 0.8358 0.1320
vn -0.1991 -0.7937 -0.5748
vn -0.8493 -0.0482 -0.5257
vn 0.0661 0.8450 0.5307
vn 0.2441 0.8020 0.5451
vn -0.2323 0.9027 0.3623
vn -0.0292 -0.8769 -0.4797
vn 0.3177 -0.9050 -0.2831
vn -0.6197 -0.4559 -0.6388
vn -0.7915 0.5735 -0.2111
vn 0.8337 0.0954 0.5440
vn 0.0817 0.8499 0.5206
vn 0.0897 -0.9042 -0.4176
vn 0.5806 -0.8088 0.0933
vn -0.4242 0.8854 0.1901
vn 0.1991 0.7819 0.5908
vn 0.4593 0.5995 0.6554
vn 0.3349 -0.9252 -0.1785
vn 0.5913 0.3696 0.7167
vn 0.2619 0.6896 0.6751
vn -0.4743 -0.6284 -0.6166
vn -0.1894 -0.8364 -0.5144
vn 0.7601 -0.3591 0.5416
vn -0.8550 0.1942 -0.4809
vn -0.0208 0.9037 0.4276
vn -0.0638 -0.8900 -0.4514
vn 0.2711 -0.9486 -0.1632
vn 0.1002 0.8449 0.5255
vn -0.4698 0.8770 0.1009
vn 0.0959 0.8676 0.4879
vn 0.0589 -0.9251 -0.3751
vn 0.6014 -0.7508 0.2732
vn -0.7430 -0.2318 -0.6278
vn 0.6950 0.0671 0.7159
vn 0.4197 0.5867 0.6926
vn -0.6385 0.7647 -0.0868
vn 0.2931 0.7612 0.5784
vn -0.0941 0.9329 0.3475
vn 0.1993 0.7664 0.6106
vn -0.2580 -0.8030 -0.5372
vn -0.1937 0.9389 0.2846
vn 0.4122 -0.9111 0.0041
vn -0.5889 -0.5160 -0.6220
vn 0.7325 -0.2045 0.6493
vn 0.4585 0.4755 0.7507
vn -0.7660 0.5119 -0.3888
vn 0.0664 0.8964 0.4382
vn 0.2473 -0.9496 -0.1928
vn 0.1357 -0.9458 -0.2951
vn -0.4147 -0.6855 -0.5984
vn -0.5229 -0.4899 -0.6975
vn 0.7259 -0.4268 0.5394
vn -0.7636 -0.0890 -0.6395
vn 0.5935 0.1946 0.7809
vn 0.2115 0.7671 0.6056
vn -0.3650 0.9265 0.0910
vn -0.0785 -0.8989 -0.4311
vn -0.6718 -0.3016 -0.6765
vn -0.1875 -0.8788 -0.4389
vn 0.4680 -0.8826 0.0447
vn 0.3405 0.6073 0.7178
vn 0.1673 0.8517 0.4966
vn -0.7777 -0.0698 -0.6247
vn 0.4638 0.4701 0.7509
vn -0.5117 0.8518 -0.1120
vn 0.0165 0.9210 0.3893
vn -0.6300 -0.4541 -0.6300
vn 0.7312 -0.5584 0.3919
vn 0.5498 -0.8331 0.0607
vn 0.3810 -0.9149 -0.1331
vn -0.5028 -0.6670 -0.5499
vn 0.6687 0.2724 0.6919
vn -0.7806 0.4438 -0.4401
vn 0.3224 0.7177 0.6173
vn -0.1280 0.9563 0.2630
vn 0.0604 -0.9454 -0.3204
vn -0.6879 -0.3941 -0.6095
vn -0.1140 -0.9270 -0.3573
vn 0.7986 -0.3319 0.5020
vn 0.3734 0.7534 0.5413
vn -0.5013 0.8651 -0.0143
vn -0.1420 0.9638 0.2257
vn 0.0990 0.8972 0.4303
vn -0.3031 -0.8839 -0.3562
vn 0.7779 -0.5647 0.2757
vn -0.8342 0.0231 -0.5509
vn 0.1993 0.8523 0.4836
vn 0.4293 -0.8981 -0.0958
vn 0.7777 0.2517 0.5761
vn -0.8350 0.5502 0.0019
vn -0.0471 0.9343 0.3534
vn -0.6142 -0.6040 -0.5078
vn 0.5259 0.6618 0.5343
vn 0.2411 -0.9698 -0.0377
vn 0.6156 -0.7328 0.2898
vn 0.8178 -0.0389 0.5742
vn 0.7183 0.3689 0.5899
vn -0.8802 -0.2432 -0.4076
vn 0.2551 0.7887 0.5593
vn -0.0323 -0.9852 -0.1685
vn -0.1853 -0.9745 -0.1265
vn -0.5797 -0.8014 -0.1471
vn -0.2915 0.8381 0.4610
vn -0.3314 -0.9411 0.0668
vn -0.9369 -0.3135 0.1545
vn 0.1438 0.7785 0.6110
vn -0.0791 -0.9635 0.2556
vn -0.2189 -0.8782 0.4253
vn -0.2921 -0.7791 0.5546
vn -0.5205 -0.6791 0.5176
vn 0.4813 0.5698 0.6661
vn 0.0469 0.8295 0.5565
vn 0.2201 -0.9463 0.2369
vn -0.5793 0.2883 0.7625
vn -0.2249 0.6817 0.6962
vn -0.0052 0.6304 0.7762
vn 0.4601 -0.3921 0.7966
vn -0.2809 -0.3640 0.8880
vn -0.0806 -0.1909 0.9783
vn 0.4388 0.2246 0.8701
vn -0.3120 0.0617 0.9481
vn 0.1532 0.4938 0.8560
vn 0.1025 -0.7041 0.7027
vn -0.1183 -0.6050 0.7874
vn -0.0673 0.3184 0.9455
vn -0.1356 0.5523 0.8225
vn 0.0716 0.4532 0.8885
vn 0.0954 0.0014 0.9954
vn 0.1871 0.1319 0.9734
vn 0.0369 0.3246 0.9451
usemtl mtl1.302
s 1
f 9//7 10//8 11//9
f 12//10 10//8 9//7
f 9//7 11//9 13//11
f 14//12 9//7 13//11
f 10//8 15//13 11//9
f 9//7 16//14 12//10
f 10//8 17//15 15//13
f 18//16 10//8 12//10
f 17//15 10//8 18//16
f 19//17 13//11 11//9
f 20//18 9//7 14//12
f 11//9 15//13 19//17
f 15//13 21//19 19//17
f 16//14 9//7 20//18
f 12//10 16//14 22//20
f 22//20 18//16 12//10
f 14//12 13//11 23//21
f 24//22 13//11 19//17
f 24//22 19//17 25//23
f 14//12 23//21 20//18
f 21//19 25//23 19//17
f 17//15 26//24 15//13
f 18//16 26//24 17//15
f 13//11 24//22 27//25
f 20//18 23//21 28//26
f 29//27 25//23 21//19
f 21//19 15//13 29//27
f 20//18 30//28 16//14
f 15//13 26//24 29//27
f 22//20 16//14 31//29
f 32//30 22//20 31//29
f 18//16 22//20 33//31
f 25//23 34//32 24//22
f 25//23 35//33 34//32
f 36//34 30//28 20//18
f 16//14 30//28 31//29
f 26//24 18//16 33//31
f 22//20 32//30 33//31
f 37//35 13//11 27//25
f 24//22 34//32 27//25
f 28//26 38//36 20//18
f 38//36 36//34 20//18
f 29//27 26//24 39//37
f 26//24 33//31 40//38
f 31//29 41//39 32//30
f 23//21 42//40 28//26
f 42//40 13//11 37//35
f 13//11 42//40 23//21
f 27//25 34//32 43//41
f 34//32 35//33 43//41
f 38//36 28//26 44//42
f 35//33 25//23 45//43
f 25//23 29//27 45//43
f 26//24 40//38 39//37
f 27//25 43//41 37//35
f 44//42 28//26 42//40
f 46//44 43//41 35//33
f 29//27 39//37 45//43
f 33//31 47//45 40//38
f 41//39 48//46 32//30
f 32//30 48//46 33//31
f 49//47 37//35 43//41
f 43//41 46//44 49//47
f 49//47 46//44 50//48
f 51//49 38//36 52//50
f 52//50 38//36 44//42
f 51//49 36//34 38//36
f 45//43 39//37 53//51
f 39//37 40//38 54//52
f 31//29 55//53 41//39
f 48//46 47//45 33//31
f 42//40 37//35 56//54
f 46//44 35//33 57//55
f 57//55 35//33 45//43
f 39//37 54//52 53//51
f 58//56 30//28 36//34
f 55//53 30//28 58//56
f 40//38 47//45 54//52
f 31//29 30//28 55//53
f 37//35 49//47 59//57
f 44//42 60//58 52//50
f 60//58 44//42 42//40
f 49//47 50//48 61//59
f 62//60 36//34 51//49
f 63//61 57//55 45//43
f 58//56 36//34 62//60
f 63//61 45//43 53//51
f 64//62 47//45 48//46
f 48//46 41//39 55//53
f 60//58 42//40 56//54
f 59//57 56//54 37//35
f 49//47 61//59 59//57
f 52//50 60//58 65//63
f 46//44 66//64 50//48
f 57//55 66//64 46//44
f 47//45 64//62 67//65
f 55//53 68//66 48//46
f 69//67 59//57 61//59
f 61//59 66//64 70//68
f 50//48 66//64 61//59
f 65//63 51//49 52//50
f 66//64 57//55 71//69
f 57//55 63//61 71//69
f 58//56 62//60 72//70
f 63//61 53//51 71//69
f 54//52 47//45 67//65
f 60//58 56//54 73//71
f 69//67 61//59 70//68
f 74//72 51//49 65//63
f 64//62 75//73 67//65
f 67//65 76//74 54//52
f 54//52 76//74 53//51
f 71//69 53//51 76//74
f 58//56 77//75 55//53
f 55//53 77//75 68//66
f 56//54 59//57 78//76
f 78//76 73//71 56//54
f 59//57 69//67 79//77
f 70//68 79//77 69//67
f 65//63 60//58 80//78
f 65//63 80//78 74//72
f 51//49 74//72 81//79
f 66//64 71//69 82//80
f 48//46 83//81 64//62
f 72//70 77//75 58//56
f 78//76 59//57 84//82
f 60//58 73//71 80//78
f 59//57 79//77 84//82
f 79//77 70//68 85//83
f 70//68 66//64 82//80
f 62//60 51//49 81//79
f 86//84 72//70 62//60
f 83//81 75//73 64//62
f 75//73 87//85 67//65
f 87//85 76//74 67//65
f 88//86 71//69 76//74
f 82//80 71//69 88//86
f 68//66 83//81 48//46
f 79//77 89//87 84//82
f 88//86 90//88 82//80
f 86//84 62//60 81//79
f 87//85 91//89 76//74
f 88//86 76//74 91//89
f 72//70 86//84 77//75
f 92//90 73//71 93//91
f 85//83 89//87 79//77
f 73//71 92//90 80//78
f 70//68 90//88 94//92
f 70//68 94//92 85//83
f 80//78 95//93 74//72
f 95//93 81//79 74//72
f 70//68 82//80 90//88
f 90//88 88//86 91//89
f 86//84 96//94 77//75
f 77//75 96//94 68//66
f 73//71 78//76 97//95
f 98//96 84//82 89//87
f 83//81 99//97 75//73
f 99//97 87//85 75//73
f 81//79 100//98 86//84
f 68//66 101//99 83//81
f 96//94 101//99 68//66
f 84//82 102//100 78//76
f 84//82 98//96 102//100
f 73//71 97//95 93//91
f 89//87 103//101 98//96
f 89//87 85//83 103//101
f 80//78 92//90 104//102
f 80//78 104//102 95//93
f 90//88 105//103 94//92
f 106//104 105//103 90//88
f 95//93 107//105 81//79
f 90//88 87//85 108//106
f 81//79 107//105 100//98
f 83//81 101//99 99//97
f 91//89 87//85 90//88
f 86//84 109//107 96//94
f 86//84 100//98 109//107
f 106//104 90//88 108//106
f 110//108 108//106 87//85
f 87//85 99//97 110//108
f 93//91 97//95 111//109
f 111//109 92//90 93//91
f 94//92 103//101 85//83
f 106//104 108//106 110//108
f 100//98 112//110 109//107
f 98//96 103//101 113//111
f 92//90 111//109 114//112
f 92//90 114//112 104//102
f 103//101 94//92 115//113
f 94//92 105//103 115//113
f 116//114 105//103 106//104
f 117//115 107//105 95//93
f 116//114 106//104 110//108
f 118//116 101//99 96//94
f 100//98 107//105 112//110
f 119//117 102//100 113//111
f 102//100 97//95 78//76
f 98//96 113//111 102//100
f 116//114 115//113 105//103
f 96//94 109//107 118//116
f 102//100 120//118 97//95
f 102//100 119//117 120//118
f 111//109 121//119 122//120
f 111//109 122//120 114//112
f 113//111 103//101 123//121
f 124//122 114//112 122//120
f 115//113 123//121 103//101
f 114//112 124//122 104//102
f 104//102 124//122 95//93
f 116//114 125//123 115//113
f 126//124 110//108 99//97
f 117//115 127//125 107//105
f 118//116 109//107 112//110
f 97//95 128//126 111//109
f 124//122 122//120 129//127
f 115//113 125//123 123//121
f 124//122 117//115 95//93
f 126//124 116//114 110//108
f 99//97 101//99 126//124
f 112//110 107//105 127//125
f 97//95 120//118 128//126
f 111//109 130//128 121//119
f 128//126 130//128 111//109
f 119//117 113//111 131//129
f 113//111 123//121 131//129
f 116//114 126//124 132//130
f 125//123 116//114 132//130
f 118//116 133//131 101//99
f 120//118 119//117 131//129
f 129//127 134//132 124//122
f 125//123 135//133 123//121
f 132//130 135//133 125//123
f 117//115 124//122 134//132
f 101//99 133//131 126//124
f 136//134 127//125 117//115
f 112//110 127//125 137//135
f 137//135 118//116 112//110
f 138//136 122//120 121//119
f 123//121 139//137 131//129
f 129//127 122//120 138//136
f 118//116 137//135 133//131
f 120//118 140//138 141//139
f 120//118 131//129 140//138
f 138//136 121//119 142//140
f 142//140 121//119 130//128
f 123//121 143//141 139//137
f 138//136 134//132 129//127
f 135//133 143//141 123//121
f 144//142 117//115 134//132
f 126//124 145//143 135//133
f 144//142 136//134 117//115
f 126//124 133//131 145//143
f 132//130 126//124 135//133
f 136//134 146//144 127//125
f 128//126 120//118 147//145
f 131//129 139//137 140//138
f 134//132 142//140 148//146
f 142//140 134//132 138//136
f 143//141 135//133 145//143
f 127//125 146//144 137//135
f 130//128 128//126 149//147
f 128//126 147//145 149//147
f 120//118 141//139 147//145
f 139//137 150//148 140//138
f 143//141 150//148 139//137
f 143//141 145//143 151//149
f 144//142 152//150 136//134
f 146//144 136//134 153//151
f 146//144 154//152 137//135
f 155//153 142//140 130//128
f 156//154 140//138 150//148
f 148//146 157//155 134//132
f 144//142 134//132 157//155
f 145//143 133//131 151//149
f 152//150 153//151 136//134
f 158//156 133//131 154//152
f 154//152 133//131 137//135
f 146//144 153//151 154//152
f 141//139 159//157 147//145
f 130//128 149//147 155//153
f 140//138 156//154 141//139
f 143//141 160//158 150//148
f 143//141 151//149 160//158
f 157//155 161//159 144//142
f 158//156 151//149 133//131
f 153//151 152//150 162//160
f 156//154 159//157 141//139
f 155//153 163//161 142//140
f 142//140 163//161 148//146
f 150//148 160//158 156//154
f 163//161 157//155 148//146
f 160//158 151//149 164//162
f 161//159 152//150 144//142
f 153//151 162//160 154//152
f 147//145 159//157 165//163
f 166//164 159//157 156//154
f 167//165 166//164 156//154
f 168//166 167//165 160//158
f 167//165 156//154 160//158
f 169//167 157//155 163//161
f 160//158 164//162 168//166
f 151//149 170//168 164//162
f 151//149 158//156 170//168
f 147//145 171//169 149//147
f 165//163 171//169 147//145
f 149//147 172//170 155//153
f 173//171 163//161 155//153
f 173//171 169//167 163//161
f 169//167 161//159 157//155
f 152//150 174//172 162//160
f 172//170 149//147 171//169
f 159//157 166//164 165//163
f 172//170 175//173 155//153
f 155//153 175//173 173//171
f 173//171 176//174 169//167
f 161//159 169//167 176//174
f 158//156 177//175 170//168
f 154//152 177//175 158//156
f 178//176 172//170 171//169
f 172//170 178//176 179//177
f 175//173 179//177 180//178
f 179//177 175//173 172//170
f 173//171 175//173 181//179
f 168//166 182//180 167//165
f 168//166 164//162 182//180
f 182//180 164//162 170//168
f 152//150 161//159 174//172
f 154//152 183//181 177//175
f 162//160 174//172 183//181
f 154//152 162//160 183//181
f 171//169 184//182 178//176
f 171//169 165//163 184//182
f 166//164 184//182 165//163
f 175//173 180//178 181//179
f 173//171 181//179 176//174
f 161//159 176//174 185//183
f 186//184 161//159 185//183
f 183//181 187//185 177//175
f 174//172 161//159 186//184
f 174//172 186//184 183//181
f 188//186 184//182 166//164
f 166//164 167//165 188//186
f 181//179 180//178 189//187
f 190//188 189//187 180//178
f 191//189 188//186 167//165
f 192//190 181//179 189//187
f 182//180 191//189 167//165
f 176//174 181//179 185//183
f 192//190 185//183 181//179
f 177//175 193//191 170//168
f 193//191 182//180 170//168
f 186//184 187//185 183//181
f 178//176 184//182 194//192
f 195//193 179//177 178//176
f 194//192 195//193 178//176
f 184//182 188//186 194//192
f 180//178 179//177 190//188
f 195//193 190//188 179//177
f 189//187 196//194 192//190
f 196//194 189//187 190//188
f 185//183 192//190 197//195
f 196//194 197//195 192//190
f 193//191 177//175 198//196
f 182//180 193//191 191//189
f 186//184 185//183 197//195
f 187//185 196//194 198//196
f 177//175 187//185 198//196
f 196//194 187//185 197//195
f 187//185 186//184 197//195
f 195//193 194//192 199//197
f 194//192 188//186 199//197
f 190//188 195//193 199//197
f 188//186 200//198 199//197
f 199//197 201//199 190//188
f 188//186 191//189 200//198
f 196//194 190//188 198//196
f 201//199 198//196 190//188
f 193//191 198//196 201//199
f 200//198 191//189 193//191
f 193//191 201//199 199//197
f 200//198 193//191 199//197
