# Blender v2.92.0 OBJ File: 'convert_to_one_sided.blend'
# www.blender.org
mtllib 312782558L.mtl
o 312782558
v 7.272936 1.037096 3.079211
v 7.382885 1.019866 3.086811
v 7.370875 0.997861 3.100050
v 7.206048 1.036616 3.095760
v 7.182247 1.063506 3.091680
v 7.329765 1.050976 3.084751
v 7.218857 1.080816 3.094880
v 7.302046 1.078076 3.095130
v 7.478663 0.996756 3.103360
v 7.557153 0.968233 3.124270
v 7.552273 0.986116 3.116090
v 7.224907 0.994239 3.148250
v 7.464344 1.017156 3.104570
v 7.150318 1.025886 3.138790
v 7.139248 1.062686 3.125900
v 7.386535 1.054206 3.103560
v 7.159088 1.083616 3.114990
v 7.257757 1.096575 3.112080
v 7.354365 1.070936 3.111180
v 7.175367 1.099595 3.128360
v 7.370325 0.956922 3.162390
v 7.488224 0.951740 3.144650
v 7.612532 0.974955 3.135010
v 7.578603 0.997780 3.134760
v 7.456054 1.039826 3.127280
v 7.121098 1.079806 3.166440
v 7.447344 0.926800 3.199079
v 7.648422 0.949012 3.181059
v 7.645812 0.969816 3.174989
v 7.136638 0.986100 3.214969
v 7.636502 0.986309 3.188679
v 7.116889 1.026976 3.179519
v 7.559903 1.013176 3.162410
v 7.096519 1.036676 3.208049
v 7.328166 1.081926 3.137990
v 7.211327 1.103355 3.141770
v 7.577192 0.926289 3.193519
v 7.671621 0.904896 3.263118
v 7.479174 1.030996 3.185209
v 7.143468 1.094666 3.179929
v 7.217107 1.087126 3.196009
v 7.472564 0.879805 3.322468
v 7.250717 0.933063 3.279548
v 7.669931 0.948551 3.211259
v 7.673151 0.947479 3.237689
v 7.588983 0.988871 3.237789
v 7.077239 1.039016 3.257618
v 7.337415 1.043366 3.246938
v 7.632252 0.881468 3.300768
v 7.686181 0.922931 3.275598
v 7.090059 0.992635 3.260998
v 7.089089 1.058366 3.279098
v 7.138838 1.076366 3.253998
v 7.114848 0.954869 3.313188
v 7.064589 1.000367 3.306988
v 7.662341 0.953250 3.279388
v 7.629822 0.948406 3.335187
v 7.476584 0.970661 3.354467
v 7.203777 1.052546 3.297288
v 7.278936 1.005116 3.372917
v 7.616062 0.850999 3.376187
v 7.702811 0.887289 3.348337
v 7.077019 1.047896 3.343487
v 7.110219 1.044836 3.342577
v 7.679751 0.883495 3.320548
v 7.694101 0.922475 3.317847
v 7.062019 0.960219 3.369477
v 7.070389 1.033926 3.374127
v 7.671301 0.866479 3.366407
v 7.231787 0.873665 3.447486
v 7.699751 0.906673 3.332757
v 7.038419 0.965719 3.411466
v 7.052649 1.002576 3.396037
v 7.100489 0.916692 3.431786
v 7.682251 0.916557 3.366827
v 7.554603 0.820826 3.477816
v 7.640142 0.838926 3.446506
v 7.360475 0.833676 3.505065
v 7.699041 0.892718 3.368847
v 7.610032 0.896365 3.461686
v 7.019700 0.953781 3.497545
v 7.069929 1.019036 3.420356
v 7.153798 1.003856 3.433206
v 7.676511 0.857787 3.430756
v 7.688601 0.869293 3.416406
v 7.035810 0.938936 3.470855
v 7.297506 0.944490 3.519415
v 7.058239 1.012146 3.419636
v 7.672601 0.876543 3.430286
v 7.045759 0.991703 3.476405
v 7.605682 0.812996 3.523785
v 7.635451 0.829291 3.513505
v 7.023510 0.895167 3.562874
v 7.205917 0.832704 3.584784
v 7.661401 0.855299 3.469236
v 7.642861 0.860856 3.492275
v 7.448084 0.901774 3.547025
v 7.023570 0.965566 3.533615
v 7.092889 0.866150 3.573764
v 7.502964 0.844692 3.657733
v 7.143468 0.936681 3.628204
v 7.076719 0.976337 3.535085
v 7.551583 0.789647 3.605374
v 7.334015 0.805751 3.601584
v 7.621642 0.835352 3.548295
v 7.000640 0.916230 3.591184
v 7.596702 0.853010 3.552364
v 7.423534 0.789508 3.628933
v 7.597662 0.806358 3.572234
v 6.995700 0.928265 3.622024
v 7.036189 0.962250 3.576404
v 7.597512 0.812254 3.589454
v 6.981540 0.908830 3.660603
v 7.572752 0.798871 3.625083
v 7.571213 0.832495 3.614674
v 7.007490 0.934266 3.650333
v 7.045799 0.938216 3.654533
v 7.222097 0.783244 3.738672
v 7.045179 0.826679 3.727962
v 7.033209 0.864942 3.634533
v 7.570583 0.815375 3.635893
v 6.994610 0.874613 3.678373
v 6.978060 0.898336 3.680923
v 7.465714 0.761570 3.732382
v 7.552793 0.797076 3.669553
v 7.272777 0.874815 3.728472
v 7.525543 0.782435 3.689813
v 7.532163 0.815266 3.684533
v 6.969340 0.897382 3.714242
v 6.974310 0.904200 3.734232
v 7.341325 0.745733 3.820451
v 7.497034 0.773006 3.754172
v 7.507823 0.786552 3.737962
v 6.997840 0.910959 3.750112
v 6.956361 0.864958 3.777332
v 7.076659 0.904755 3.751482
v 7.470634 0.761154 3.773472
v 7.407034 0.745131 3.843451
v 6.968120 0.838751 3.798801
v 7.477744 0.798238 3.762572
v 7.399575 0.810284 3.808781
v 7.029819 0.757826 3.947869
v 6.948871 0.871038 3.832011
v 7.432664 0.755407 3.843611
v 7.471484 0.768438 3.791811
v 6.934071 0.828784 3.876210
v 6.927401 0.834389 3.900840
v 6.965040 0.883274 3.837841
v 7.005410 0.887067 3.836571
v 7.204597 0.730591 3.943829
v 7.442874 0.772246 3.827521
v 6.953420 0.797958 3.923070
v 7.427645 0.788360 3.826151
v 6.940851 0.858293 3.917910
v 7.297776 0.724470 3.928429
v 7.339786 0.729845 3.914990
v 7.368145 0.768085 3.915440
v 7.096259 0.858759 3.878130
v 7.234147 0.804592 3.930420
v 6.981020 0.860177 3.918120
v 7.365985 0.738522 3.923440
v 7.378255 0.752768 3.913900
v 6.911991 0.808624 3.992419
v 6.920571 0.832022 3.970369
v 7.285836 0.721243 4.002109
v 7.107109 0.707940 4.089037
v 6.915371 0.822461 3.986399
v 6.925021 0.757792 4.061518
v 7.270486 0.739467 4.048048
v 7.332046 0.742402 3.980219
v 7.037109 0.804518 4.062868
v 6.955431 0.833310 3.991479
v 7.200507 0.706645 4.070117
v 6.954960 0.724364 4.176716
v 7.323096 0.733895 3.987189
v 6.897871 0.778306 4.076607
v 7.166187 0.757744 4.095697
v 6.896132 0.800935 4.080617
v 7.152948 0.689928 4.171947
v 7.293146 0.725591 4.031388
v 7.268507 0.718461 4.066218
v 6.886251 0.782697 4.106747
v 6.935361 0.808317 4.074188
v 7.059559 0.694123 4.218036
v 6.862012 0.761308 4.194376
v 7.209947 0.705896 4.132927
v 7.255416 0.718444 4.083447
v 7.226127 0.713453 4.126767
v 6.892471 0.754879 4.157217
v 7.220957 0.712733 4.133037
v 6.926230 0.788755 4.173736
v 7.181008 0.717987 4.165506
v 6.864402 0.766132 4.202206
v 6.894001 0.784486 4.160526
v 7.061219 0.734077 4.226706
v 7.100569 0.686132 4.250425
v 7.137358 0.690917 4.224976
v 7.174508 0.703629 4.184846
v 6.956611 0.768154 4.211646
v 6.865252 0.743497 4.252215
v 7.127668 0.703587 4.230095
v 6.881592 0.757852 4.250875
v 6.887731 0.724449 4.301505
v 6.851492 0.747443 4.276855
v 6.855202 0.749427 4.262785
v 7.029679 0.692320 4.287045
v 6.966530 0.708436 4.282925
v 7.053119 0.691481 4.286155
v 7.105399 0.695608 4.254416
v 6.859242 0.736708 4.307014
v 7.075379 0.702395 4.271885
v 6.852942 0.738579 4.297454
v 6.985940 0.703080 4.307704
v 6.956820 0.736911 4.275485
v 6.994760 0.709328 4.303185
v 7.038549 0.697560 4.288385
v 6.936000 0.710505 4.316974
v 6.887571 0.719478 4.319994
v 6.863771 0.729275 4.305405
v 6.910541 0.721733 4.299705
v 6.996020 0.699115 4.302575
v 6.942701 0.705497 4.305884
vn -0.0658 -0.1399 -0.9880
vn 0.1096 -0.0952 -0.9894
vn -0.0712 -0.6711 -0.7380
vn -0.3194 -0.5830 -0.7471
vn -0.3733 0.0488 -0.9264
vn 0.1322 0.3595 -0.9237
vn -0.0830 0.5657 -0.8204
vn 0.1633 0.7030 -0.6922
vn 0.1241 -0.2068 -0.9705
vn 0.1453 -0.6148 -0.7752
vn 0.2640 0.1056 -0.9587
vn -0.2190 -0.8406 -0.4955
vn 0.2669 0.4505 -0.8520
vn -0.4899 -0.6419 -0.5899
vn -0.7383 -0.1276 -0.6622
vn 0.2967 0.6904 -0.6598
vn -0.5043 0.5525 -0.6637
vn 0.1002 0.9298 -0.3542
vn 0.2816 0.8958 -0.3438
vn -0.2505 0.9021 -0.3514
vn -0.1530 -0.8692 -0.4703
vn -0.0435 -0.8386 -0.5429
vn 0.5365 0.0162 -0.8438
vn 0.4223 0.7130 -0.5597
vn 0.3213 0.8968 -0.3042
vn -0.7573 0.5745 -0.3107
vn -0.0984 -0.9140 -0.3937
vn 0.6050 -0.5150 -0.6072
vn 0.7858 0.4095 -0.4634
vn -0.4023 -0.8108 -0.4252
vn 0.5388 0.8400 -0.0641
vn -0.7093 -0.4953 -0.5016
vn 0.3094 0.9506 -0.0269
vn -0.8948 -0.1324 -0.4265
vn 0.2408 0.9664 0.0902
vn 0.0472 0.9971 0.0591
vn 0.0787 -0.8814 -0.4658
vn 0.4956 -0.7420 -0.4515
vn 0.2439 0.9487 0.2011
vn -0.2392 0.9672 0.0851
vn 0.1250 0.9489 0.2899
vn -0.0913 -0.9357 -0.3409
vn -0.2026 -0.9136 -0.3526
vn 0.9242 0.0571 -0.3776
vn 0.8444 0.5279 -0.0914
vn 0.2605 0.9323 0.2510
vn -0.9361 0.2886 -0.2010
vn 0.2055 0.9194 0.3355
vn 0.1110 -0.9213 -0.3726
vn 0.9487 -0.1015 -0.2994
vn -0.6846 -0.6029 -0.4096
vn -0.5793 0.8133 0.0547
vn -0.0521 0.9573 0.2845
vn -0.3781 -0.8584 -0.3466
vn -0.9342 -0.1841 -0.3055
vn 0.5010 0.8453 0.1857
vn 0.2700 0.9034 0.3332
vn 0.1974 0.9153 0.3511
vn 0.1470 0.9213 0.3601
vn 0.1856 0.9114 0.3672
vn 0.0916 -0.9500 -0.2984
vn 0.8673 -0.4767 -0.1432
vn -0.3242 0.9249 0.1988
vn 0.0215 0.9520 0.3052
vn 0.3857 -0.8653 -0.3203
vn 0.8498 0.5243 0.0540
vn -0.6460 -0.6818 -0.3432
vn -0.7231 0.6830 0.1030
vn 0.3601 -0.9038 -0.2312
vn -0.2014 -0.9219 -0.3310
vn 0.9874 0.1491 -0.0537
vn -0.9392 -0.2104 -0.2714
vn -0.9005 0.4303 -0.0620
vn -0.3641 -0.8658 -0.3433
vn 0.5587 0.7458 0.3628
vn 0.0019 -0.9639 -0.2661
vn 0.3213 -0.9328 -0.1633
vn -0.1240 -0.9439 -0.3062
vn 0.9078 0.3286 0.2607
vn 0.3496 0.8368 0.4214
vn -0.9780 0.0925 -0.1871
vn -0.2286 0.9218 0.3132
vn 0.1314 0.9259 0.3543
vn 0.7202 -0.6900 0.0720
vn 0.9427 -0.0405 0.3313
vn -0.7540 -0.5690 -0.3281
vn 0.1872 0.9204 0.3433
vn -0.7022 0.7001 0.1298
vn 0.6870 0.5518 0.4728
vn -0.5101 0.8394 0.1876
vn 0.3140 -0.9398 -0.1350
vn 0.7619 -0.6211 0.1837
vn -0.5755 -0.7415 -0.3450
vn -0.1947 -0.9329 -0.3029
vn 0.8922 0.0349 0.4503
vn 0.6311 0.6087 0.4808
vn 0.2134 0.9113 0.3521
vn -0.7052 0.7062 0.0639
vn -0.2869 -0.9002 -0.3275
vn 0.3475 0.8405 0.4157
vn 0.1407 0.9352 0.3251
vn -0.0137 0.9482 0.3174
vn 0.2110 -0.9730 -0.0932
vn -0.1252 -0.9503 -0.2851
vn 0.8196 0.2708 0.5049
vn -0.9234 -0.2496 -0.2915
vn 0.5061 0.7255 0.4664
vn -0.0729 -0.9634 -0.2580
vn 0.5526 -0.8284 0.0919
vn -0.8756 0.4757 -0.0838
vn -0.2465 0.9361 0.2507
vn 0.8522 -0.3627 0.3770
vn -0.9694 0.0716 -0.2349
vn 0.5962 -0.7787 0.1952
vn 0.5664 0.6723 0.4767
vn -0.4120 0.8948 0.1719
vn -0.0149 0.9566 0.2909
vn -0.1549 -0.9501 -0.2709
vn -0.3479 -0.8848 -0.3100
vn -0.4246 -0.8536 -0.3017
vn 0.8011 0.2667 0.5359
vn -0.6817 -0.6596 -0.3167
vn -0.9210 -0.2686 -0.2821
vn 0.1451 -0.9836 -0.1076
vn 0.8234 -0.3790 0.4224
vn 0.2077 0.9160 0.3434
vn 0.4904 -0.8639 0.1148
vn 0.5876 0.6222 0.5173
vn -0.9582 0.2507 -0.1376
vn -0.6240 0.7781 0.0715
vn -0.0274 -0.9783 -0.2052
vn 0.7613 -0.5209 0.3861
vn 0.7951 0.2022 0.5718
vn -0.1492 0.9614 0.2312
vn -0.9328 -0.2225 -0.2836
vn 0.1207 0.9448 0.3047
vn 0.4337 -0.8931 0.1190
vn 0.2686 -0.9627 0.0317
vn -0.5948 -0.7238 -0.3498
vn 0.5327 0.6714 0.5152
vn 0.3206 0.8513 0.4154
vn -0.2464 -0.9309 -0.2695
vn -0.8371 0.5466 -0.0229
vn 0.7207 -0.5170 0.4619
vn 0.8148 -0.0788 0.5744
vn -0.8133 -0.5009 -0.2961
vn -0.9730 0.1718 -0.1542
vn -0.3248 0.9245 0.1995
vn 0.0295 0.9543 0.2973
vn -0.0891 -0.9754 -0.2017
vn 0.7313 0.3095 0.6078
vn -0.5547 -0.7697 -0.3160
vn 0.5024 0.7051 0.5004
vn -0.3689 0.9015 0.2264
vn 0.0057 -0.9934 -0.1142
vn 0.1811 -0.9830 -0.0295
vn 0.5484 0.6427 0.5350
vn 0.1706 0.9278 0.3318
vn 0.2648 0.8872 0.3777
vn 0.0036 0.9482 0.3176
vn 0.5405 -0.7887 0.2931
vn 0.8070 -0.0772 0.5855
vn -0.9582 -0.1775 -0.2242
vn -0.6375 0.7627 0.1091
vn 0.2342 -0.9711 0.0458
vn -0.1322 -0.9722 -0.1930
vn -0.9413 0.3245 -0.0927
vn -0.4769 -0.8386 -0.2633
vn 0.5715 0.6225 0.5347
vn 0.7882 0.1320 0.6011
vn 0.1567 0.9330 0.3240
vn -0.1099 0.9421 0.3169
vn 0.0746 -0.9900 -0.1195
vn -0.2862 -0.9418 -0.1763
vn 0.7239 -0.5457 0.4221
vn -0.7776 -0.5495 -0.3058
vn 0.3014 0.8716 0.3866
vn -0.7461 0.6658 0.0054
vn 0.1183 -0.9927 -0.0238
vn 0.8106 -0.0310 0.5848
vn 0.6976 -0.5943 0.4003
vn -0.9725 0.0959 -0.2123
vn -0.1413 0.9668 0.2129
vn -0.1595 -0.9804 -0.1161
vn -0.9193 -0.3184 -0.2312
vn 0.4619 -0.8551 0.2354
vn 0.8137 0.0719 0.5768
vn 0.7562 -0.3440 0.5567
vn -0.5372 -0.8105 -0.2334
vn 0.7250 0.2938 0.6230
vn -0.0130 0.9603 0.2785
vn 0.4917 0.6806 0.5432
vn -0.7219 0.6909 0.0402
vn -0.2863 0.9392 0.1894
vn 0.2886 0.8446 0.4509
vn 0.1332 -0.9702 0.2024
vn 0.5456 -0.6753 0.4963
vn 0.7398 -0.0397 0.6716
vn 0.1705 0.9030 0.3943
vn -0.6138 -0.7721 -0.1645
vn 0.5438 0.5579 0.6269
vn -0.0779 0.9251 0.3716
vn -0.3497 -0.9317 0.0983
vn -0.9724 0.1563 0.1730
vn -0.4869 0.8486 0.2070
vn -0.0862 -0.9817 0.1698
vn -0.2229 -0.9748 -0.0050
vn 0.3137 -0.5687 0.7603
vn 0.5923 0.0161 0.8056
vn -0.7745 -0.4887 0.4016
vn 0.4311 0.5059 0.7472
vn -0.3572 0.7492 0.5578
vn -0.0320 -0.8501 0.5257
vn 0.1450 0.8360 0.5292
vn 0.2157 0.5119 0.8315
vn 0.3835 0.0790 0.9202
vn -0.0572 -0.6596 0.7494
vn -0.1755 -0.0628 0.9825
vn -0.4806 0.3872 0.7868
vn 0.1008 0.6985 0.7085
vn 0.1896 -0.1219 0.9743
vn 0.1361 0.3066 0.9420
usemtl mtl1.1140
s 1
f 1//1 2//2 3//3
f 4//4 5//5 1//1
f 2//2 1//1 6//6
f 1//1 5//5 7//7
f 6//6 1//1 7//7
f 8//8 6//6 7//7
f 3//3 9//9 10//10
f 9//9 11//11 10//10
f 12//12 4//4 3//3
f 9//9 3//3 2//2
f 3//3 4//4 1//1
f 9//9 2//2 13//13
f 13//13 11//11 9//9
f 14//14 15//15 4//4
f 6//6 13//13 2//2
f 6//6 16//16 13//13
f 4//4 15//15 5//5
f 15//15 17//17 5//5
f 5//5 17//17 7//7
f 8//8 16//16 6//6
f 7//7 18//18 8//8
f 16//16 8//8 19//19
f 7//7 17//17 20//20
f 18//18 7//7 20//20
f 21//21 3//3 22//22
f 10//10 22//22 3//3
f 11//11 23//23 10//10
f 24//24 23//23 11//11
f 14//14 4//4 12//12
f 13//13 24//24 11//11
f 13//13 16//16 25//25
f 24//24 13//13 25//25
f 17//17 15//15 26//26
f 25//25 16//16 19//19
f 20//20 17//17 26//26
f 19//19 8//8 18//18
f 21//21 22//22 27//27
f 23//23 28//28 10//10
f 12//12 3//3 21//21
f 29//29 28//28 23//23
f 14//14 12//12 30//30
f 24//24 29//29 23//23
f 31//31 29//29 24//24
f 14//14 32//32 15//15
f 33//33 24//24 25//25
f 31//31 24//24 33//33
f 15//15 32//32 34//34
f 26//26 15//15 34//34
f 19//19 35//35 25//25
f 19//19 18//18 35//35
f 18//18 36//36 35//35
f 18//18 20//20 36//36
f 27//27 22//22 37//37
f 10//10 37//37 22//22
f 28//28 37//37 10//10
f 38//38 37//37 28//28
f 39//39 33//33 25//25
f 25//25 35//35 39//39
f 40//40 20//20 26//26
f 36//36 41//41 35//35
f 20//20 40//40 36//36
f 37//37 42//42 27//27
f 21//21 27//27 43//43
f 28//28 29//29 44//44
f 30//30 32//32 14//14
f 44//44 29//29 45//45
f 45//45 29//29 31//31
f 31//31 33//33 46//46
f 33//33 39//39 46//46
f 47//47 26//26 34//34
f 48//48 39//39 35//35
f 41//41 48//48 35//35
f 36//36 40//40 41//41
f 37//37 38//38 49//49
f 38//38 28//28 50//50
f 30//30 12//12 43//43
f 21//21 43//43 12//12
f 50//50 28//28 44//44
f 32//32 51//51 34//34
f 47//47 52//52 26//26
f 26//26 52//52 40//40
f 32//32 30//30 51//51
f 52//52 53//53 40//40
f 49//49 42//42 37//37
f 51//51 30//30 54//54
f 30//30 43//43 54//54
f 50//50 44//44 45//45
f 51//51 55//55 34//34
f 55//55 47//47 34//34
f 31//31 46//46 56//56
f 46//46 57//57 56//56
f 56//56 45//45 31//31
f 39//39 58//58 46//46
f 39//39 48//48 58//58
f 48//48 59//59 60//60
f 41//41 59//59 48//48
f 40//40 53//53 41//41
f 49//49 61//61 42//42
f 43//43 27//27 42//42
f 38//38 50//50 62//62
f 58//58 57//57 46//46
f 52//52 63//63 64//64
f 53//53 52//52 64//64
f 49//49 38//38 65//65
f 65//65 38//38 62//62
f 50//50 45//45 66//66
f 55//55 51//51 67//67
f 60//60 58//58 48//48
f 52//52 68//68 63//63
f 41//41 53//53 59//59
f 53//53 64//64 59//59
f 65//65 69//69 49//49
f 49//49 69//69 61//61
f 43//43 42//42 70//70
f 62//62 50//50 71//71
f 71//71 50//50 66//66
f 54//54 67//67 51//51
f 55//55 67//67 72//72
f 45//45 56//56 66//66
f 55//55 73//73 47//47
f 47//47 73//73 52//52
f 62//62 69//69 65//65
f 43//43 74//74 54//54
f 56//56 57//57 75//75
f 72//72 73//73 55//55
f 68//68 52//52 73//73
f 61//61 76//76 42//42
f 69//69 77//77 61//61
f 42//42 78//78 70//70
f 74//74 43//43 70//70
f 62//62 71//71 79//79
f 79//79 71//71 66//66
f 58//58 80//80 57//57
f 75//75 66//66 56//56
f 72//72 81//81 73//73
f 68//68 82//82 63//63
f 60//60 59//59 83//83
f 64//64 63//63 82//82
f 84//84 77//77 69//69
f 62//62 84//84 69//69
f 85//85 84//84 62//62
f 85//85 62//62 79//79
f 74//74 67//67 54//54
f 72//72 67//67 86//86
f 79//79 66//66 75//75
f 57//57 80//80 75//75
f 87//87 58//58 60//60
f 83//83 87//87 60//60
f 68//68 88//88 82//82
f 82//82 83//83 64//64
f 83//83 59//59 64//64
f 77//77 76//76 61//61
f 85//85 79//79 89//89
f 67//67 74//74 86//86
f 73//73 90//90 88//88
f 68//68 73//73 88//88
f 77//77 91//91 76//76
f 76//76 78//78 42//42
f 77//77 84//84 92//92
f 74//74 93//93 86//86
f 72//72 86//86 81//81
f 89//89 75//75 80//80
f 79//79 75//75 89//89
f 77//77 92//92 91//91
f 94//94 70//70 78//78
f 95//95 84//84 85//85
f 89//89 95//95 85//85
f 89//89 80//80 96//96
f 58//58 87//87 97//97
f 81//81 98//98 73//73
f 73//73 98//98 90//90
f 88//88 90//90 82//82
f 92//92 84//84 95//95
f 93//93 74//74 99//99
f 70//70 99//99 74//74
f 96//96 95//95 89//89
f 80//80 97//97 100//100
f 80//80 58//58 97//97
f 83//83 101//101 87//87
f 90//90 102//102 82//82
f 103//103 76//76 91//91
f 78//78 104//104 94//94
f 96//96 105//105 95//95
f 86//86 93//93 106//106
f 81//81 86//86 106//106
f 80//80 100//100 107//107
f 96//96 80//80 107//107
f 102//102 83//83 82//82
f 78//78 76//76 108//108
f 91//91 109//109 103//103
f 109//109 91//91 92//92
f 105//105 92//92 95//95
f 99//99 70//70 94//94
f 106//106 110//110 81//81
f 110//110 98//98 81//81
f 98//98 111//111 90//90
f 83//83 102//102 101//101
f 104//104 78//78 108//108
f 76//76 103//103 108//108
f 112//112 109//109 92//92
f 105//105 112//112 92//92
f 105//105 96//96 107//107
f 106//106 113//113 110//110
f 102//102 90//90 111//111
f 114//114 109//109 112//112
f 105//105 107//107 115//115
f 116//116 98//98 110//110
f 111//111 98//98 116//116
f 111//111 117//117 102//102
f 117//117 101//101 102//102
f 118//118 104//104 108//108
f 103//103 109//109 114//114
f 99//99 119//119 120//120
f 99//99 94//94 119//119
f 105//105 121//121 112//112
f 120//120 93//93 99//99
f 105//105 115//115 121//121
f 93//93 120//120 122//122
f 122//122 106//106 93//93
f 107//107 100//100 115//115
f 106//106 123//123 113//113
f 103//103 124//124 108//108
f 125//125 114//114 112//112
f 104//104 118//118 94//94
f 125//125 112//112 121//121
f 106//106 122//122 123//123
f 87//87 126//126 97//97
f 101//101 126//126 87//87
f 111//111 116//116 117//117
f 114//114 127//127 103//103
f 115//115 128//128 121//121
f 115//115 100//100 128//128
f 126//126 100//100 97//97
f 123//123 129//129 113//113
f 129//129 110//110 113//113
f 130//130 110//110 129//129
f 110//110 130//130 116//116
f 118//118 108//108 131//131
f 103//103 127//127 124//124
f 127//127 114//114 125//125
f 132//132 127//127 125//125
f 133//133 132//132 125//125
f 122//122 120//120 119//119
f 121//121 133//133 125//125
f 116//116 130//130 134//134
f 108//108 124//124 131//131
f 119//119 94//94 118//118
f 121//121 128//128 133//133
f 123//123 122//122 135//135
f 136//136 126//126 101//101
f 137//137 138//138 124//124
f 124//124 127//127 137//137
f 135//135 122//122 139//139
f 133//133 128//128 140//140
f 141//141 100//100 126//126
f 129//129 123//123 135//135
f 117//117 136//136 101//101
f 124//124 138//138 131//131
f 127//127 132//132 137//137
f 118//118 142//142 119//119
f 119//119 139//139 122//122
f 100//100 140//140 128//128
f 135//135 143//143 129//129
f 129//129 143//143 130//130
f 134//134 136//136 117//117
f 134//134 117//117 116//116
f 137//137 132//132 144//144
f 133//133 145//145 132//132
f 139//139 146//146 135//135
f 146//146 147//147 135//135
f 141//141 140//140 100//100
f 130//130 148//148 134//134
f 134//134 149//149 136//136
f 131//131 150//150 118//118
f 137//137 144//144 138//138
f 144//144 132//132 145//145
f 133//133 151//151 145//145
f 152//152 139//139 119//119
f 140//140 153//153 151//151
f 133//133 140//140 151//151
f 140//140 141//141 153//153
f 143//143 135//135 147//147
f 130//130 143//143 148//148
f 134//134 148//148 149//149
f 150//150 142//142 118//118
f 139//139 152//152 146//146
f 148//148 143//143 154//154
f 150//150 131//131 155//155
f 155//155 131//131 156//156
f 138//138 156//156 131//131
f 119//119 142//142 152//152
f 153//153 141//141 157//157
f 158//158 126//126 136//136
f 151//151 144//144 145//145
f 151//151 153//153 157//157
f 159//159 141//141 126//126
f 158//158 159//159 126//126
f 149//149 148//148 160//160
f 136//136 149//149 158//158
f 149//149 160//160 158//158
f 138//138 161//161 156//156
f 144//144 161//161 138//138
f 144//144 151//151 162//162
f 144//144 162//162 161//161
f 146//146 152//152 163//163
f 162//162 151//151 157//157
f 146//146 163//163 147//147
f 143//143 164//164 154//154
f 148//148 154//154 160//160
f 155//155 165//165 150//150
f 142//142 150//150 166//166
f 163//163 167//167 147//147
f 159//159 157//157 141//141
f 167//167 164//164 147//147
f 164//164 143//143 147//147
f 152//152 142//142 168//168
f 157//157 159//159 169//169
f 170//170 162//162 157//157
f 158//158 171//171 159//159
f 154//154 172//172 160//160
f 158//158 160//160 171//171
f 173//173 150//150 165//165
f 156//156 165//165 155//155
f 156//156 161//161 165//165
f 142//142 174//174 168//168
f 174//174 142//142 166//166
f 175//175 161//161 162//162
f 175//175 162//162 170//170
f 176//176 163//163 152//152
f 159//159 177//177 169//169
f 170//170 157//157 169//169
f 178//178 164//164 167//167
f 172//172 154//154 164//164
f 160//160 172//172 171//171
f 161//161 175//175 165//165
f 163//163 178//178 167//167
f 171//171 177//177 159//159
f 166//166 173//173 179//179
f 173//173 166//166 150//150
f 175//175 180//180 181//181
f 175//175 181//181 165//165
f 168//168 176//176 152//152
f 169//169 180//180 170//170
f 180//180 175//175 170//170
f 176//176 182//182 163//163
f 163//163 182//182 178//178
f 172//172 164//164 183//183
f 166//166 179//179 184//184
f 182//182 176//176 185//185
f 183//183 164//164 178//178
f 171//171 172//172 183//183
f 165//165 186//186 173//173
f 186//186 165//165 181//181
f 187//187 181//181 180//180
f 180//180 169//169 187//187
f 173//173 186//186 179//179
f 181//181 188//188 186//186
f 181//181 187//187 188//188
f 176//176 189//189 185//185
f 187//187 169//169 190//190
f 171//171 183//183 191//191
f 189//189 176//176 168//168
f 189//189 168//168 174//174
f 188//188 187//187 190//190
f 190//190 169//169 192//192
f 192//192 169//169 177//177
f 182//182 193//193 178//178
f 183//183 178//178 194//194
f 193//193 182//182 185//185
f 171//171 195//195 177//177
f 178//178 193//193 194//194
f 194//194 191//191 183//183
f 179//179 196//196 184//184
f 197//197 196//196 179//179
f 174//174 166//166 184//184
f 179//179 186//186 197//197
f 198//198 186//186 188//188
f 198//198 188//188 190//190
f 195//195 192//192 177//177
f 171//171 191//191 199//199
f 195//195 171//171 199//199
f 197//197 186//186 198//198
f 190//190 192//192 198//198
f 185//185 189//189 200//200
f 192//192 195//195 201//201
f 194//194 202//202 191//191
f 202//202 199//199 191//191
f 174//174 203//203 200//200
f 189//189 174//174 200//200
f 200//200 204//204 185//185
f 185//185 204//204 193//193
f 204//204 205//205 193//193
f 202//202 193//193 205//205
f 194//194 193//193 202//202
f 184//184 196//196 206//206
f 184//184 207//207 174//174
f 192//192 201//201 198//198
f 197//197 208//208 196//196
f 206//206 207//207 184//184
f 197//197 198//198 209//209
f 200//200 203//203 210//210
f 207//207 203//203 174//174
f 209//209 198//198 201//201
f 200//200 210//210 204//204
f 211//211 201//201 195//195
f 212//212 205//205 204//204
f 206//206 196//196 208//208
f 206//206 213//213 207//207
f 197//197 209//209 208//208
f 209//209 201//201 211//211
f 195//195 214//214 215//215
f 195//195 215//215 211//211
f 214//214 195//195 199//199
f 202//202 205//205 212//212
f 199//199 202//202 214//214
f 206//206 208//208 213//213
f 216//216 208//208 209//209
f 203//203 217//217 218//218
f 207//207 217//217 203//203
f 217//217 207//207 213//213
f 209//209 211//211 216//216
f 211//211 215//215 216//216
f 212//212 204//204 219//219
f 212//212 220//220 202//202
f 214//214 202//202 220//220
f 213//213 208//208 221//221
f 221//221 208//208 216//216
f 221//221 217//217 213//213
f 215//215 222//222 221//221
f 216//216 215//215 221//221
f 204//204 210//210 219//219
f 218//218 210//210 203//203
f 220//220 215//215 214//214
f 222//222 215//215 220//220
f 212//212 219//219 220//220
f 218//218 217//217 222//222
f 217//217 221//221 222//222
f 210//210 218//218 219//219
f 220//220 219//219 218//218
f 222//222 220//220 218//218
