# Blender v2.92.0 OBJ File: 'convert_to_one_sided.blend'
# www.blender.org
mtllib 312782648L.mtl
o 312782648
v 9.283150 3.368536 1.460312
v 9.303361 3.395396 1.466582
v 9.274161 3.299347 1.472632
v 9.332710 3.356157 1.476272
v 9.246230 3.172109 1.497751
v 9.237452 3.224958 1.492611
v 9.252141 3.315897 1.489121
v 9.320540 3.257318 1.493531
v 9.384079 3.322757 1.497771
v 9.285770 3.390486 1.480942
v 9.387949 3.375456 1.499501
v 9.344360 3.413176 1.495861
v 9.310800 3.416996 1.490451
v 9.316580 3.103710 1.552930
v 9.229261 3.096390 1.531171
v 9.219521 3.153739 1.516471
v 9.207441 3.187579 1.527971
v 9.388148 3.248628 1.524471
v 9.256551 3.360727 1.504231
v 9.286551 3.400166 1.512011
v 9.385098 3.394966 1.508611
v 9.320020 3.421456 1.509961
v 9.210181 3.022711 1.558010
v 9.182442 3.036411 1.565580
v 9.219761 3.264518 1.533911
v 9.426498 3.301247 1.534481
v 9.424258 3.344267 1.543461
v 9.383410 3.392386 1.531271
v 9.340540 3.414836 1.526521
v 9.185493 2.993541 1.569800
v 9.210061 2.928772 1.597660
v 9.441268 3.202569 1.575840
v 9.477618 3.237448 1.597390
v 9.241371 3.317387 1.541061
v 9.316240 3.407786 1.537041
v 9.179762 2.953892 1.587720
v 9.360829 2.928122 1.665019
v 9.169582 3.088790 1.581380
v 9.188731 3.164759 1.566360
v 9.199992 3.193329 1.582480
v 9.492618 3.160589 1.623090
v 9.468199 3.277168 1.595360
v 9.282571 3.364296 1.553381
v 9.439678 3.310357 1.598960
v 9.154092 2.848813 1.630790
v 9.130562 2.875903 1.641649
v 9.141272 2.973871 1.630549
v 9.453749 3.084990 1.635119
v 9.247391 3.286627 1.575860
v 9.370379 3.373736 1.569900
v 9.118083 2.792754 1.667369
v 9.210742 2.812164 1.666689
v 9.162823 3.068180 1.613740
v 9.330020 3.370736 1.575020
v 9.314580 3.299847 1.613460
v 9.422129 3.305657 1.632330
v 9.137632 2.750294 1.686499
v 9.105192 2.784464 1.680299
v 9.168061 3.060910 1.645489
v 9.244411 3.191128 1.625770
v 9.513047 3.121700 1.660839
v 9.509048 3.176569 1.668739
v 9.379000 3.318807 1.621940
v 9.088253 2.757384 1.712978
v 9.102392 2.841013 1.698069
v 9.503548 3.009331 1.703449
v 9.474069 3.224948 1.678649
v 9.114863 2.664935 1.730198
v 9.180292 2.696345 1.729678
v 9.308550 2.756204 1.751208
v 9.099993 2.711705 1.718808
v 9.465057 2.838463 1.785347
v 9.129992 2.930782 1.684739
v 9.252261 3.096700 1.690029
v 9.552987 3.061010 1.726458
v 9.341399 3.178789 1.700029
v 9.378929 3.256438 1.668679
v 9.431388 3.241968 1.685839
v 9.084813 2.778274 1.766908
v 9.199702 2.963992 1.733138
v 9.133902 2.611786 1.774248
v 9.091454 2.613896 1.770198
v 9.070534 2.647746 1.772658
v 9.062823 2.691165 1.786878
v 9.560368 2.940572 1.786958
v 9.565846 3.056450 1.756758
v 9.536377 3.103220 1.748828
v 9.409039 3.199019 1.716828
v 9.495798 3.144959 1.749098
v 9.223842 2.633506 1.800297
v 9.138863 2.842073 1.770488
v 9.584686 2.970111 1.803547
v 9.318439 3.017191 1.785547
v 9.091333 2.561357 1.802747
v 9.061753 2.567477 1.816557
v 9.557056 2.825513 1.852927
v 9.211211 2.854293 1.825637
v 9.452068 3.165599 1.745998
v 9.071403 2.536827 1.838737
v 9.136792 2.564417 1.827647
v 9.048834 2.600806 1.821807
v 9.365719 2.648296 1.867946
v 9.052284 2.659336 1.840507
v 9.120953 2.738975 1.838917
v 9.596746 2.869823 1.862796
v 9.586886 2.961842 1.834637
v 9.540487 3.022281 1.834307
v 9.419559 3.100920 1.783238
v 9.093873 2.532027 1.854146
v 9.148432 2.549087 1.861716
v 9.046744 2.553657 1.860746
v 9.232922 2.587706 1.866716
v 9.044893 2.613486 1.851137
v 9.517068 2.712095 1.906366
v 9.605976 2.882953 1.879316
v 9.412999 2.932022 1.903476
v 9.483988 3.084630 1.802027
v 9.066323 2.534517 1.869546
v 9.042744 2.613236 1.872396
v 9.509278 3.013081 1.862746
v 9.468449 3.023361 1.849967
v 9.113462 2.539397 1.869756
v 9.178731 2.566077 1.896386
v 9.315990 2.583906 1.914916
v 9.489048 2.578897 1.988965
v 9.598806 2.752844 1.937276
v 9.298810 2.844733 1.897846
v 9.053884 2.545587 1.885416
v 9.104573 2.555057 1.892236
v 9.054414 2.581967 1.884216
v 9.266601 2.580547 1.934376
v 9.392689 2.537217 1.987565
v 9.085963 2.643896 1.880006
v 9.629336 2.773274 1.965015
v 9.617966 2.829773 1.939196
v 9.530557 2.929352 1.922396
v 9.482449 2.964282 1.896416
v 9.337770 2.552687 1.977185
v 9.576806 2.622456 2.014755
v 9.212301 2.702925 1.940356
v 9.580247 2.888443 1.922446
v 9.102413 2.579647 1.906806
v 9.366449 2.529577 1.998855
v 9.171702 2.587517 1.921566
v 9.236992 2.592306 1.953855
v 9.122963 2.624786 1.909796
v 9.620226 2.684135 2.010395
v 9.468668 2.883373 1.954995
v 9.324900 2.548347 2.044834
v 9.190222 2.634746 1.942705
v 9.220551 2.617536 1.961085
v 9.272230 2.631926 2.029744
v 9.636266 2.732535 2.023664
v 9.607706 2.792954 1.994775
v 9.568807 2.832833 1.985635
v 9.387129 2.501578 2.041824
v 9.426498 2.475028 2.059704
v 9.266311 2.606586 2.006875
v 9.473529 2.477968 2.081774
v 9.534637 2.533877 2.060924
v 9.238091 2.626606 1.986655
v 9.631026 2.667705 2.048244
v 9.338870 2.767054 1.986455
v 9.430529 2.758254 2.042974
v 9.531918 2.795524 2.024004
v 9.401489 2.466948 2.125723
v 9.608327 2.618126 2.053894
v 9.331201 2.669405 2.054184
v 9.434109 2.458588 2.102003
v 9.573796 2.551197 2.080634
v 9.308720 2.589087 2.070264
v 9.528858 2.494438 2.105163
v 9.364899 2.510967 2.139013
v 9.608466 2.594246 2.091574
v 9.600186 2.733195 2.050024
v 9.350540 2.543927 2.130513
v 9.340590 2.586807 2.112103
v 9.612777 2.605296 2.105153
v 9.582807 2.550677 2.133533
v 9.619266 2.672335 2.067594
v 9.498057 2.726675 2.078324
v 9.465618 2.659905 2.129033
v 9.528818 2.656516 2.125173
v 9.456598 2.442158 2.130083
v 9.437219 2.448338 2.132733
v 9.486478 2.461918 2.138363
v 9.544787 2.518307 2.132833
v 9.404579 2.483408 2.181303
v 9.575377 2.616016 2.126153
v 9.397120 2.621786 2.128783
v 9.445449 2.464348 2.165612
v 9.376689 2.513007 2.163033
v 9.547427 2.538477 2.156123
v 9.545207 2.593956 2.160113
v 9.497998 2.492668 2.161963
v 9.389089 2.536317 2.165753
v 9.528658 2.554707 2.180063
v 9.463768 2.580356 2.171593
v 9.518387 2.581856 2.170702
v 9.437819 2.477928 2.199322
v 9.482088 2.507638 2.186422
v 9.447719 2.512697 2.185343
v 9.491138 2.546707 2.177333
vn -0.5071 0.2196 -0.8335
vn 0.0065 0.4064 -0.9137
vn -0.0980 -0.1132 -0.9887
vn 0.3136 0.0252 -0.9492
vn -0.0587 -0.2870 -0.9561
vn -0.5687 -0.0418 -0.8215
vn -0.7869 0.1654 -0.5944
vn 0.2907 -0.2673 -0.9187
vn 0.4572 -0.1498 -0.8766
vn -0.6920 0.5687 -0.4446
vn 0.6074 0.2389 -0.7576
vn 0.3777 0.7884 -0.4856
vn -0.3034 0.8740 -0.3797
vn 0.3411 -0.3873 -0.8565
vn -0.1275 -0.3430 -0.9306
vn -0.5352 -0.1757 -0.8262
vn -0.8439 0.0749 -0.5313
vn 0.4614 -0.3044 -0.8334
vn -0.8828 0.4388 -0.1674
vn -0.6749 0.7193 0.1644
vn 0.6815 0.6704 -0.2935
vn -0.1329 0.9867 0.0939
vn -0.0574 -0.3187 -0.9461
vn -0.6499 -0.1199 -0.7505
vn -0.9480 0.2831 -0.1458
vn 0.7008 -0.0639 -0.7105
vn 0.8671 0.4346 -0.2433
vn 0.5557 0.8043 0.2106
vn 0.2425 0.9188 0.3113
vn -0.4187 -0.2281 -0.8790
vn 0.1780 -0.4289 -0.8856
vn 0.5373 -0.2802 -0.7955
vn 0.8505 0.0537 -0.5233
vn -0.8285 0.4616 0.3171
vn -0.2441 0.7843 0.5703
vn -0.3633 -0.3071 -0.8796
vn 0.4114 -0.4588 -0.7876
vn -0.9327 0.1116 -0.3429
vn -0.9623 0.2465 -0.1153
vn -0.8538 0.3812 0.3545
vn 0.6466 -0.2352 -0.7257
vn 0.8998 0.4330 -0.0530
vn -0.5659 0.5490 0.6151
vn 0.6830 0.6575 0.3181
vn -0.1649 -0.3891 -0.9063
vn -0.7551 -0.0681 -0.6521
vn -0.9534 0.1331 -0.2708
vn 0.4888 -0.3811 -0.7848
vn -0.6343 0.4281 0.6438
vn 0.2279 0.7600 0.6086
vn -0.4427 -0.3306 -0.8335
vn 0.2788 -0.5022 -0.8186
vn -0.9583 0.2758 0.0747
vn -0.2053 0.6193 0.7579
vn -0.4044 0.4843 0.7758
vn 0.3323 0.7070 0.6243
vn -0.0354 -0.4793 -0.8769
vn -0.7262 -0.1870 -0.6616
vn -0.7257 0.4131 0.5501
vn -0.5648 0.4262 0.7067
vn 0.7881 -0.1446 -0.5984
vn 0.9262 0.3737 -0.0490
vn -0.0797 0.6291 0.7732
vn -0.8793 -0.0586 -0.4727
vn -0.9670 0.1889 -0.1712
vn 0.5550 -0.3818 -0.7390
vn 0.6199 0.6285 0.4698
vn -0.0746 -0.5075 -0.8584
vn 0.2931 -0.5375 -0.7907
vn 0.4013 -0.5330 -0.7449
vn -0.5378 -0.3523 -0.7659
vn 0.4600 -0.4944 -0.7375
vn -0.8667 0.3843 0.3179
vn -0.5315 0.4483 0.7187
vn 0.8396 -0.0860 -0.5363
vn -0.4202 0.4727 0.7746
vn -0.2284 0.5601 0.7963
vn 0.1175 0.6440 0.7560
vn -0.8548 0.4153 0.3113
vn -0.5868 0.4635 0.6639
vn 0.2232 -0.6208 -0.7515
vn -0.3563 -0.4711 -0.8069
vn -0.7775 -0.2068 -0.5939
vn -0.9758 0.1192 -0.1833
vn 0.6439 -0.3530 -0.6788
vn 0.9517 0.3048 -0.0366
vn 0.7346 0.5585 0.3853
vn -0.1941 0.5580 0.8068
vn 0.3957 0.6346 0.6639
vn 0.3754 -0.6512 -0.6596
vn -0.6235 0.5017 0.5997
vn 0.9383 -0.0270 -0.3448
vn -0.4726 0.4960 0.7285
vn -0.0461 -0.6912 -0.7212
vn -0.6621 -0.4480 -0.6007
vn 0.5486 -0.4537 -0.7023
vn -0.5419 0.5089 0.6688
vn 0.0370 0.5981 0.8006
vn -0.2759 -0.8626 -0.4241
vn 0.3223 -0.7814 -0.5344
vn -0.9337 -0.1117 -0.3402
vn 0.3594 -0.6323 -0.6863
vn -0.8534 0.4016 0.3324
vn -0.5899 0.5057 0.6295
vn 0.7865 -0.2745 -0.5532
vn 0.8669 0.4182 0.2713
vn 0.5092 0.5997 0.6173
vn -0.2335 0.5484 0.8029
vn 0.1510 -0.9741 -0.1685
vn 0.3601 -0.9267 -0.1075
vn -0.9131 -0.4057 -0.0410
vn 0.3199 -0.8767 -0.3592
vn -0.9998 0.0055 0.0171
vn 0.4663 -0.5213 -0.7147
vn 0.9826 0.0938 -0.1604
vn -0.3115 0.5698 0.7604
vn 0.1049 0.6286 0.7706
vn -0.2572 -0.9359 0.2408
vn -0.8556 0.1891 0.4819
vn 0.1265 0.6342 0.7628
vn -0.1179 0.6042 0.7880
vn 0.1645 -0.9260 0.3399
vn 0.1371 -0.9219 0.3623
vn 0.0641 -0.8784 -0.4736
vn 0.3905 -0.6119 -0.6878
vn 0.6447 -0.4298 -0.6321
vn -0.4864 0.5251 0.6984
vn -0.5215 -0.5069 0.6863
vn -0.0020 -0.7049 0.7093
vn -0.7377 0.0251 0.6746
vn -0.1153 -0.9908 -0.0703
vn 0.0816 -0.7664 -0.6371
vn -0.5311 0.3928 0.7507
vn 0.9523 -0.1064 -0.2859
vn 0.8778 0.4014 0.2615
vn 0.2270 0.6087 0.7602
vn -0.0958 0.5903 0.8015
vn -0.2827 -0.8811 -0.3792
vn 0.5661 -0.5317 -0.6299
vn -0.5497 0.4058 0.7302
vn 0.5855 0.5781 0.5684
vn -0.2956 -0.1940 0.9354
vn -0.1437 -0.8198 -0.5544
vn -0.2368 -0.5308 0.8137
vn -0.4373 -0.7426 0.5073
vn -0.4676 0.1892 0.8635
vn 0.7713 -0.3989 -0.4960
vn -0.0952 0.5980 0.7958
vn -0.7117 -0.6935 0.1123
vn -0.5567 -0.1226 0.8216
vn -0.5981 -0.4233 0.6805
vn -0.7394 -0.0029 0.6732
vn 0.8629 0.3033 0.4043
vn 0.5771 0.5685 0.5864
vn 0.3746 0.6005 0.7065
vn -0.3861 -0.8495 -0.3595
vn -0.0322 -0.8577 -0.5132
vn -0.7384 -0.4272 0.5217
vn 0.3510 -0.7806 -0.5172
vn 0.4930 -0.6398 -0.5895
vn -0.6855 -0.3836 0.6188
vn 0.9835 -0.1797 -0.0187
vn -0.4568 0.5371 0.7091
vn -0.2500 0.5909 0.7670
vn 0.0858 0.6003 0.7951
vn -0.5639 -0.8219 0.0802
vn 0.7693 -0.4816 -0.4198
vn -0.5035 0.4788 0.7192
vn -0.2050 -0.9209 -0.3315
vn 0.7103 -0.6198 -0.3337
vn -0.8360 -0.2614 0.4824
vn 0.6098 -0.7541 -0.2440
vn -0.8212 -0.4738 0.3182
vn 0.8601 -0.5018 -0.0920
vn 0.4277 0.5018 0.7519
vn -0.8398 -0.1100 0.5316
vn -0.6586 0.2322 0.7158
vn 0.8346 -0.0159 0.5506
vn 0.7895 -0.4982 0.3585
vn 0.7304 0.2653 0.6295
vn -0.0063 0.6137 0.7895
vn -0.1059 0.5482 0.8296
vn 0.1816 0.5308 0.8278
vn 0.1383 -0.9899 -0.0314
vn -0.3465 -0.9289 0.1309
vn 0.5412 -0.8163 0.2019
vn 0.7062 -0.6759 0.2106
vn -0.5538 -0.3979 0.7315
vn 0.5759 0.2729 0.7706
vn -0.3812 0.4711 0.7954
vn 0.0462 -0.8321 0.5527
vn -0.7288 -0.1027 0.6770
vn 0.6282 -0.3067 0.7151
vn 0.3837 0.3864 0.8388
vn 0.5175 -0.6136 0.5964
vn -0.4494 0.2292 0.8634
vn 0.3800 0.0817 0.9214
vn -0.1000 0.3626 0.9266
vn 0.0624 0.3640 0.9293
vn -0.0225 -0.3282 0.9443
vn 0.3324 -0.2611 0.9063
vn -0.1229 0.2082 0.9703
vn 0.0027 0.1778 0.9841
usemtl mtl1.1162
s 1
f 1//1 2//2 3//3
f 4//4 3//3 2//2
f 5//5 6//6 3//3
f 3//3 6//6 7//7
f 8//8 5//5 3//3
f 4//4 8//8 3//3
f 9//9 8//8 4//4
f 7//7 1//1 3//3
f 10//10 1//1 7//7
f 1//1 10//10 2//2
f 11//11 9//9 4//4
f 11//11 4//4 12//12
f 10//10 13//13 2//2
f 2//2 13//13 12//12
f 2//2 12//12 4//4
f 14//14 15//15 5//5
f 8//8 14//14 5//5
f 6//6 5//5 16//16
f 17//17 6//6 16//16
f 7//7 6//6 17//17
f 18//18 8//8 9//9
f 19//19 10//10 7//7
f 13//13 10//10 20//20
f 21//21 11//11 12//12
f 13//13 20//20 22//22
f 13//13 22//22 12//12
f 15//15 14//14 23//23
f 15//15 16//16 5//5
f 17//17 16//16 24//24
f 18//18 14//14 8//8
f 17//17 25//25 7//7
f 18//18 9//9 26//26
f 7//7 25//25 19//19
f 26//26 11//11 27//27
f 9//9 11//11 26//26
f 11//11 21//21 27//27
f 10//10 19//19 20//20
f 21//21 12//12 28//28
f 12//12 22//22 29//29
f 15//15 23//23 24//24
f 23//23 30//30 24//24
f 31//31 23//23 14//14
f 15//15 24//24 16//16
f 26//26 32//32 18//18
f 27//27 33//33 26//26
f 34//34 19//19 25//25
f 27//27 21//21 28//28
f 29//29 28//28 12//12
f 22//22 20//20 35//35
f 31//31 36//36 23//23
f 24//24 30//30 36//36
f 23//23 36//36 30//30
f 14//14 37//37 31//31
f 17//17 24//24 38//38
f 39//39 17//17 38//38
f 14//14 18//18 32//32
f 17//17 39//39 25//25
f 39//39 40//40 25//25
f 33//33 41//41 32//32
f 40//40 34//34 25//25
f 32//32 26//26 33//33
f 42//42 33//33 27//27
f 34//34 20//20 19//19
f 34//34 43//43 20//20
f 27//27 28//28 44//44
f 35//35 29//29 22//22
f 31//31 45//45 36//36
f 24//24 36//36 46//46
f 47//47 24//24 46//46
f 48//48 37//37 14//14
f 24//24 47//47 38//38
f 32//32 48//48 14//14
f 40//40 49//49 34//34
f 43//43 34//34 49//49
f 44//44 42//42 27//27
f 20//20 43//43 35//35
f 50//50 44//44 28//28
f 35//35 50//50 29//29
f 50//50 28//28 29//29
f 45//45 51//51 46//46
f 45//45 46//46 36//36
f 52//52 45//45 31//31
f 37//37 52//52 31//31
f 47//47 53//53 38//38
f 38//38 53//53 39//39
f 41//41 48//48 32//32
f 53//53 40//40 39//39
f 54//54 43//43 55//55
f 35//35 43//43 54//54
f 44//44 50//50 56//56
f 50//50 35//35 54//54
f 45//45 57//57 51//51
f 45//45 52//52 57//57
f 46//46 51//51 58//58
f 40//40 53//53 59//59
f 60//60 40//40 59//59
f 33//33 61//61 41//41
f 40//40 60//60 49//49
f 33//33 42//42 62//62
f 42//42 44//44 62//62
f 49//49 55//55 43//43
f 63//63 56//56 50//50
f 54//54 55//55 63//63
f 50//50 54//54 63//63
f 58//58 64//64 46//46
f 46//46 65//65 47//47
f 64//64 65//65 46//46
f 48//48 66//66 37//37
f 48//48 41//41 61//61
f 61//61 33//33 62//62
f 55//55 49//49 60//60
f 44//44 56//56 67//67
f 68//68 57//57 69//69
f 69//69 57//57 52//52
f 69//69 52//52 70//70
f 58//58 51//51 71//71
f 57//57 71//71 51//51
f 37//37 70//70 52//52
f 72//72 37//37 66//66
f 65//65 73//73 47//47
f 73//73 53//53 47//47
f 73//73 59//59 53//53
f 61//61 66//66 48//48
f 59//59 74//74 60//60
f 62//62 75//75 61//61
f 62//62 44//44 67//67
f 55//55 60//60 76//76
f 77//77 55//55 76//76
f 63//63 55//55 77//77
f 78//78 56//56 63//63
f 57//57 68//68 71//71
f 58//58 71//71 64//64
f 37//37 72//72 70//70
f 65//65 79//79 73//73
f 73//73 80//80 59//59
f 59//59 80//80 74//74
f 61//61 75//75 66//66
f 60//60 74//74 76//76
f 77//77 78//78 63//63
f 67//67 56//56 78//78
f 81//81 82//82 68//68
f 68//68 69//69 81//81
f 68//68 82//82 71//71
f 82//82 83//83 71//71
f 64//64 71//71 83//83
f 64//64 84//84 65//65
f 72//72 66//66 85//85
f 75//75 85//85 66//66
f 75//75 62//62 86//86
f 86//86 62//62 87//87
f 67//67 87//87 62//62
f 88//88 77//77 76//76
f 77//77 88//88 78//78
f 67//67 78//78 89//89
f 81//81 69//69 90//90
f 70//70 90//90 69//69
f 83//83 84//84 64//64
f 84//84 79//79 65//65
f 91//91 73//73 79//79
f 91//91 80//80 73//73
f 75//75 92//92 85//85
f 86//86 92//92 75//75
f 93//93 76//76 74//74
f 87//87 67//67 89//89
f 94//94 95//95 82//82
f 95//95 83//83 82//82
f 94//94 82//82 81//81
f 85//85 96//96 72//72
f 93//93 80//80 97//97
f 74//74 80//80 93//93
f 78//78 88//88 98//98
f 89//89 78//78 98//98
f 95//95 94//94 99//99
f 94//94 100//100 99//99
f 100//100 94//94 81//81
f 81//81 90//90 100//100
f 83//83 101//101 84//84
f 70//70 102//102 90//90
f 103//103 79//79 84//84
f 70//70 72//72 102//102
f 79//79 104//104 91//91
f 80//80 91//91 97//97
f 105//105 85//85 92//92
f 86//86 87//87 106//106
f 106//106 92//92 86//86
f 87//87 89//89 107//107
f 76//76 93//93 108//108
f 88//88 76//76 108//108
f 98//98 88//88 108//108
f 100//100 109//109 99//99
f 109//109 100//100 110//110
f 95//95 99//99 111//111
f 95//95 111//111 101//101
f 83//83 95//95 101//101
f 100//100 90//90 112//112
f 101//101 113//113 84//84
f 113//113 103//103 84//84
f 102//102 72//72 114//114
f 104//104 79//79 103//103
f 96//96 85//85 105//105
f 105//105 92//92 115//115
f 106//106 87//87 107//107
f 116//116 108//108 93//93
f 107//107 89//89 117//117
f 117//117 98//98 108//108
f 89//89 98//98 117//117
f 99//99 109//109 118//118
f 110//110 100//100 112//112
f 90//90 102//102 112//112
f 113//113 119//119 103//103
f 96//96 114//114 72//72
f 115//115 92//92 106//106
f 120//120 107//107 117//117
f 117//117 108//108 121//121
f 118//118 111//111 99//99
f 110//110 122//122 109//109
f 110//110 123//123 122//122
f 111//111 113//113 101//101
f 112//112 123//123 110//110
f 112//112 102//102 124//124
f 102//102 114//114 125//125
f 91//91 104//104 97//97
f 126//126 96//96 105//105
f 97//97 127//127 93//93
f 127//127 116//116 93//93
f 108//108 116//116 121//121
f 120//120 117//117 121//121
f 118//118 109//109 122//122
f 111//111 118//118 128//128
f 129//129 128//128 118//118
f 122//122 129//129 118//118
f 128//128 130//130 111//111
f 111//111 130//130 113//113
f 112//112 131//131 123//123
f 112//112 124//124 131//131
f 124//124 102//102 132//132
f 113//113 130//130 119//119
f 103//103 133//133 104//104
f 134//134 105//105 115//115
f 106//106 135//135 115//115
f 136//136 107//107 120//120
f 121//121 137//137 120//120
f 123//123 129//129 122//122
f 124//124 138//138 131//131
f 124//124 132//132 138//138
f 102//102 125//125 132//132
f 119//119 130//130 133//133
f 119//119 133//133 103//103
f 139//139 114//114 126//126
f 96//96 126//126 114//114
f 97//97 104//104 140//140
f 126//126 105//105 134//134
f 134//134 115//115 135//135
f 106//106 141//141 135//135
f 106//106 107//107 141//141
f 141//141 107//107 136//136
f 136//136 120//120 137//137
f 121//121 116//116 137//137
f 128//128 129//129 142//142
f 138//138 132//132 143//143
f 128//128 142//142 130//130
f 144//144 142//142 129//129
f 129//129 123//123 144//144
f 145//145 144//144 123//123
f 131//131 145//145 123//123
f 146//146 130//130 142//142
f 146//146 133//133 130//130
f 133//133 146//146 140//140
f 114//114 139//139 125//125
f 133//133 140//140 104//104
f 147//147 126//126 134//134
f 140//140 127//127 97//97
f 116//116 148//148 137//137
f 131//131 138//138 149//149
f 142//142 144//144 150//150
f 144//144 145//145 151//151
f 131//131 149//149 145//145
f 150//150 146//146 142//142
f 151//151 150//150 144//144
f 140//140 146//146 150//150
f 152//152 140//140 150//150
f 139//139 126//126 147//147
f 134//134 135//135 153//153
f 141//141 154//154 135//135
f 155//155 141//141 136//136
f 136//136 137//137 148//148
f 156//156 132//132 157//157
f 132//132 156//156 143//143
f 156//156 138//138 143//143
f 158//158 145//145 149//149
f 159//159 125//125 160//160
f 139//139 160//160 125//125
f 145//145 158//158 151//151
f 150//150 151//151 161//161
f 161//161 151//151 158//158
f 152//152 150//150 161//161
f 147//147 134//134 162//162
f 140//140 163//163 127//127
f 154//154 153//153 135//135
f 116//116 127//127 163//163
f 116//116 164//164 148//148
f 154//154 141//141 155//155
f 136//136 148//148 165//165
f 132//132 159//159 157//157
f 132//132 125//125 159//159
f 156//156 166//166 149//149
f 138//138 156//156 149//149
f 167//167 139//139 147//147
f 152//152 161//161 158//158
f 152//152 168//168 140//140
f 168//168 163//163 140//140
f 162//162 134//134 153//153
f 116//116 163//163 164//164
f 148//148 164//164 165//165
f 155//155 136//136 165//165
f 157//157 169//169 156//156
f 160//160 139//139 170//170
f 170//170 139//139 167//167
f 158//158 149//149 171//171
f 167//167 147//147 162//162
f 166//166 156//156 169//169
f 159//159 160//160 172//172
f 166//166 173//173 149//149
f 170//170 167//167 174//174
f 174//174 167//167 162//162
f 158//158 171//171 152//152
f 175//175 153//153 154//154
f 154//154 155//155 175//175
f 159//159 169//169 157//157
f 160//160 170//170 172//172
f 149//149 176//176 171//171
f 152//152 171//171 177//177
f 174//174 178//178 179//179
f 178//178 174//174 162//162
f 152//152 177//177 168//168
f 162//162 180//180 178//178
f 153//153 175//175 180//180
f 162//162 153//153 180//180
f 181//181 164//164 182//182
f 181//181 165//165 164//164
f 165//165 181//181 183//183
f 175//175 165//165 183//183
f 155//155 165//165 175//175
f 169//169 184//184 185//185
f 159//159 184//184 169//169
f 159//159 186//186 184//184
f 166//166 169//169 185//185
f 172//172 186//186 159//159
f 172//172 170//170 187//187
f 170//170 174//174 187//187
f 187//187 174//174 179//179
f 176//176 177//177 171//171
f 168//168 164//164 163//163
f 187//187 186//186 172//172
f 166//166 188//188 173//173
f 173//173 176//176 149//149
f 178//178 180//180 189//189
f 164//164 190//190 182//182
f 189//189 180//180 175//175
f 181//181 182//182 183//183
f 189//189 175//175 183//183
f 185//185 184//184 191//191
f 191//191 166//166 185//185
f 192//192 176//176 173//173
f 193//193 187//187 179//179
f 179//179 178//178 193//193
f 193//193 178//178 189//189
f 168//168 190//190 164//164
f 194//194 189//189 183//183
f 186//186 191//191 184//184
f 166//166 191//191 188//188
f 186//186 195//195 191//191
f 187//187 195//195 186//186
f 187//187 193//193 195//195
f 196//196 177//177 176//176
f 192//192 196//196 176//176
f 193//193 189//189 197//197
f 177//177 190//190 168//168
f 197//197 189//189 194//194
f 190//190 198//198 182//182
f 182//182 198//198 183//183
f 194//194 183//183 199//199
f 188//188 191//191 200//200
f 173//173 188//188 192//192
f 190//190 177//177 196//196
f 197//197 194//194 199//199
f 199//199 183//183 198//198
f 191//191 195//195 201//201
f 200//200 191//191 201//201
f 195//195 193//193 201//201
f 188//188 196//196 192//192
f 196//196 188//188 202//202
f 193//193 197//197 201//201
f 197//197 203//203 201//201
f 197//197 199//199 203//203
f 190//190 196//196 198//198
f 203//203 199//199 198//198
f 202//202 200//200 201//201
f 200//200 202//202 188//188
f 202//202 198//198 196//196
f 201//201 203//203 202//202
f 203//203 198//198 202//202
