# Blender v2.92.0 OBJ File: 'convert_to_one_sided.blend'
# www.blender.org
mtllib 312782558L.mtl
o Cube
v 0.001000 0.001000 -0.001000
v 0.001000 -0.001000 -0.001000
v 0.001000 0.001000 0.001000
v 0.001000 -0.001000 0.001000
v -0.001000 0.001000 -0.001000
v -0.001000 -0.001000 -0.001000
v -0.001000 0.001000 0.001000
v -0.001000 -0.001000 0.001000
vt 0.625000 0.500000
vt 0.875000 0.500000
vt 0.875000 0.750000
vt 0.625000 0.750000
vt 0.375000 0.750000
vt 0.625000 1.000000
vt 0.375000 1.000000
vt 0.375000 0.000000
vt 0.625000 0.000000
vt 0.625000 0.250000
vt 0.375000 0.250000
vt 0.125000 0.500000
vt 0.375000 0.500000
vt 0.125000 0.750000
vn 0.0000 1.0000 0.0000
vn 0.0000 0.0000 1.0000
vn -1.0000 0.0000 0.0000
vn 0.0000 -1.0000 0.0000
vn 1.0000 0.0000 0.0000
vn 0.0000 0.0000 -1.0000
usemtl Material
s off
f 1/1/1 5/2/1 7/3/1 3/4/1
f 4/5/2 3/4/2 7/6/2 8/7/2
f 8/8/3 7/9/3 5/10/3 6/11/3
f 6/12/4 2/13/4 4/5/4 8/14/4
f 2/13/5 1/1/5 3/4/5 4/5/5
f 6/11/6 5/10/6 1/1/6 2/13/6
o 312782558
v 7.272936 1.037096 3.079211
v 7.382885 1.019866 3.086811
v 7.370875 0.997861 3.100050
v 7.206048 1.036616 3.095760
v 7.182247 1.063506 3.091680
v 7.329765 1.050976 3.084751
v 7.218857 1.080816 3.094880
v 7.302046 1.078076 3.095130
v 7.478663 0.996756 3.103360
v 7.557153 0.968233 3.124270
v 7.552273 0.986116 3.116090
v 7.224907 0.994239 3.148250
v 7.464344 1.017156 3.104570
v 7.150318 1.025886 3.138790
v 7.139248 1.062686 3.125900
v 7.386535 1.054206 3.103560
v 7.159088 1.083616 3.114990
v 7.257757 1.096575 3.112080
v 7.354365 1.070936 3.111180
v 7.175367 1.099595 3.128360
v 7.370325 0.956922 3.162390
v 7.488224 0.951740 3.144650
v 7.612532 0.974955 3.135010
v 7.578603 0.997780 3.134760
v 7.456054 1.039826 3.127280
v 7.121098 1.079806 3.166440
v 7.447344 0.926800 3.199079
v 7.648422 0.949012 3.181059
v 7.645812 0.969816 3.174989
v 7.136638 0.986100 3.214969
v 7.636502 0.986309 3.188679
v 7.116889 1.026976 3.179519
v 7.559903 1.013176 3.162410
v 7.096519 1.036676 3.208049
v 7.328166 1.081926 3.137990
v 7.211327 1.103355 3.141770
v 7.577192 0.926289 3.193519
v 7.671621 0.904896 3.263118
v 7.479174 1.030996 3.185209
v 7.143468 1.094666 3.179929
v 7.217107 1.087126 3.196009
v 7.472564 0.879805 3.322468
v 7.250717 0.933063 3.279548
v 7.669931 0.948551 3.211259
v 7.673151 0.947479 3.237689
v 7.588983 0.988871 3.237789
v 7.077239 1.039016 3.257618
v 7.337415 1.043366 3.246938
v 7.632252 0.881468 3.300768
v 7.686181 0.922931 3.275598
v 7.090059 0.992635 3.260998
v 7.089089 1.058366 3.279098
v 7.138838 1.076366 3.253998
v 7.114848 0.954869 3.313188
v 7.064589 1.000367 3.306988
v 7.662341 0.953250 3.279388
v 7.629822 0.948406 3.335187
v 7.476584 0.970661 3.354467
v 7.203777 1.052546 3.297288
v 7.278936 1.005116 3.372917
v 7.616062 0.850999 3.376187
v 7.702811 0.887289 3.348337
v 7.077019 1.047896 3.343487
v 7.110219 1.044836 3.342577
v 7.679751 0.883495 3.320548
v 7.694101 0.922475 3.317847
v 7.062019 0.960219 3.369477
v 7.070389 1.033926 3.374127
v 7.671301 0.866479 3.366407
v 7.231787 0.873665 3.447486
v 7.699751 0.906673 3.332757
v 7.038419 0.965719 3.411466
v 7.052649 1.002576 3.396037
v 7.100489 0.916692 3.431786
v 7.682251 0.916557 3.366827
v 7.554603 0.820826 3.477816
v 7.640142 0.838926 3.446506
v 7.360475 0.833676 3.505065
v 7.699041 0.892718 3.368847
v 7.610032 0.896365 3.461686
v 7.019700 0.953781 3.497545
v 7.069929 1.019036 3.420356
v 7.153798 1.003856 3.433206
v 7.676511 0.857787 3.430756
v 7.688601 0.869293 3.416406
v 7.035810 0.938936 3.470855
v 7.297506 0.944490 3.519415
v 7.058239 1.012146 3.419636
v 7.672601 0.876543 3.430286
v 7.045759 0.991703 3.476405
v 7.605682 0.812996 3.523785
v 7.635451 0.829291 3.513505
v 7.023510 0.895167 3.562874
v 7.205917 0.832704 3.584784
v 7.661401 0.855299 3.469236
v 7.642861 0.860856 3.492275
v 7.448084 0.901774 3.547025
v 7.023570 0.965566 3.533615
v 7.092889 0.866150 3.573764
v 7.502964 0.844692 3.657733
v 7.143468 0.936681 3.628204
v 7.076719 0.976337 3.535085
v 7.551583 0.789647 3.605374
v 7.334015 0.805751 3.601584
v 7.621642 0.835352 3.548295
v 7.000640 0.916230 3.591184
v 7.596702 0.853010 3.552364
v 7.423534 0.789508 3.628933
v 7.597662 0.806358 3.572234
v 6.995700 0.928265 3.622024
v 7.036189 0.962250 3.576404
v 7.597512 0.812254 3.589454
v 6.981540 0.908830 3.660603
v 7.572752 0.798871 3.625083
v 7.571213 0.832495 3.614674
v 7.007490 0.934266 3.650333
v 7.045799 0.938216 3.654533
v 7.222097 0.783244 3.738672
v 7.045179 0.826679 3.727962
v 7.033209 0.864942 3.634533
v 7.570583 0.815375 3.635893
v 6.994610 0.874613 3.678373
v 6.978060 0.898336 3.680923
v 7.465714 0.761570 3.732382
v 7.552793 0.797076 3.669553
v 7.272777 0.874815 3.728472
v 7.525543 0.782435 3.689813
v 7.532163 0.815266 3.684533
v 6.969340 0.897382 3.714242
v 6.974310 0.904200 3.734232
v 7.341325 0.745733 3.820451
v 7.497034 0.773006 3.754172
v 7.507823 0.786552 3.737962
v 6.997840 0.910959 3.750112
v 6.956361 0.864958 3.777332
v 7.076659 0.904755 3.751482
v 7.470634 0.761154 3.773472
v 7.407034 0.745131 3.843451
v 6.968120 0.838751 3.798801
v 7.477744 0.798238 3.762572
v 7.399575 0.810284 3.808781
v 7.029819 0.757826 3.947869
v 6.948871 0.871038 3.832011
v 7.432664 0.755407 3.843611
v 7.471484 0.768438 3.791811
v 6.934071 0.828784 3.876210
v 6.927401 0.834389 3.900840
v 6.965040 0.883274 3.837841
v 7.005410 0.887067 3.836571
v 7.204597 0.730591 3.943829
v 7.442874 0.772246 3.827521
v 6.953420 0.797958 3.923070
v 7.427645 0.788360 3.826151
v 6.940851 0.858293 3.917910
v 7.297776 0.724470 3.928429
v 7.339786 0.729845 3.914990
v 7.368145 0.768085 3.915440
v 7.096259 0.858759 3.878130
v 7.234147 0.804592 3.930420
v 6.981020 0.860177 3.918120
v 7.365985 0.738522 3.923440
v 7.378255 0.752768 3.913900
v 6.911991 0.808624 3.992419
v 6.920571 0.832022 3.970369
v 7.285836 0.721243 4.002109
v 7.107109 0.707940 4.089037
v 6.915371 0.822461 3.986399
v 6.925021 0.757792 4.061518
v 7.270486 0.739467 4.048048
v 7.332046 0.742402 3.980219
v 7.037109 0.804518 4.062868
v 6.955431 0.833310 3.991479
v 7.200507 0.706645 4.070117
v 6.954960 0.724364 4.176716
v 7.323096 0.733895 3.987189
v 6.897871 0.778306 4.076607
v 7.166187 0.757744 4.095697
v 6.896132 0.800935 4.080617
v 7.152948 0.689928 4.171947
v 7.293146 0.725591 4.031388
v 7.268507 0.718461 4.066218
v 6.886251 0.782697 4.106747
v 6.935361 0.808317 4.074188
v 7.059559 0.694123 4.218036
v 6.862012 0.761308 4.194376
v 7.209947 0.705896 4.132927
v 7.255416 0.718444 4.083447
v 7.226127 0.713453 4.126767
v 6.892471 0.754879 4.157217
v 7.220957 0.712733 4.133037
v 6.926230 0.788755 4.173736
v 7.181008 0.717987 4.165506
v 6.864402 0.766132 4.202206
v 6.894001 0.784486 4.160526
v 7.061219 0.734077 4.226706
v 7.100569 0.686132 4.250425
v 7.137358 0.690917 4.224976
v 7.174508 0.703629 4.184846
v 6.956611 0.768154 4.211646
v 6.865252 0.743497 4.252215
v 7.127668 0.703587 4.230095
v 6.881592 0.757852 4.250875
v 6.887731 0.724449 4.301505
v 6.851492 0.747443 4.276855
v 6.855202 0.749427 4.262785
v 7.029679 0.692320 4.287045
v 6.966530 0.708436 4.282925
v 7.053119 0.691481 4.286155
v 7.105399 0.695608 4.254416
v 6.859242 0.736708 4.307014
v 7.075379 0.702395 4.271885
v 6.852942 0.738579 4.297454
v 6.985940 0.703080 4.307704
v 6.956820 0.736911 4.275485
v 6.994760 0.709328 4.303185
v 7.038549 0.697560 4.288385
v 6.936000 0.710505 4.316974
v 6.887571 0.719478 4.319994
v 6.863771 0.729275 4.305405
v 6.910541 0.721733 4.299705
v 6.996020 0.699115 4.302575
v 6.942701 0.705497 4.305884
vn -0.0658 -0.1399 -0.9880
vn 0.1096 -0.0952 -0.9894
vn -0.0712 -0.6711 -0.7380
vn -0.3194 -0.5830 -0.7471
vn -0.3733 0.0488 -0.9264
vn 0.1322 0.3595 -0.9237
vn -0.0830 0.5657 -0.8204
vn 0.1633 0.7030 -0.6922
vn 0.1241 -0.2068 -0.9705
vn 0.1453 -0.6148 -0.7752
vn 0.2640 0.1056 -0.9587
vn -0.2190 -0.8406 -0.4955
vn 0.2669 0.4505 -0.8520
vn -0.4899 -0.6419 -0.5899
vn -0.7383 -0.1276 -0.6622
vn 0.2967 0.6904 -0.6598
vn -0.5043 0.5525 -0.6637
vn 0.1002 0.9298 -0.3542
vn 0.2816 0.8958 -0.3438
vn -0.2505 0.9021 -0.3514
vn -0.1530 -0.8692 -0.4703
vn -0.0435 -0.8386 -0.5429
vn 0.5365 0.0162 -0.8438
vn 0.4223 0.7130 -0.5597
vn 0.3213 0.8968 -0.3042
vn -0.7573 0.5745 -0.3107
vn -0.0984 -0.9140 -0.3937
vn 0.6050 -0.5150 -0.6072
vn 0.7858 0.4095 -0.4634
vn -0.4023 -0.8108 -0.4252
vn 0.5388 0.8400 -0.0641
vn -0.7093 -0.4953 -0.5016
vn 0.3094 0.9506 -0.0269
vn -0.8948 -0.1324 -0.4265
vn 0.2408 0.9664 0.0902
vn 0.0472 0.9971 0.0591
vn 0.0787 -0.8814 -0.4658
vn 0.4956 -0.7420 -0.4515
vn 0.2439 0.9487 0.2011
vn -0.2392 0.9672 0.0851
vn 0.1250 0.9489 0.2899
vn -0.0913 -0.9357 -0.3409
vn -0.2026 -0.9136 -0.3526
vn 0.9242 0.0571 -0.3776
vn 0.8444 0.5279 -0.0914
vn 0.2605 0.9323 0.2510
vn -0.9361 0.2886 -0.2010
vn 0.2055 0.9194 0.3355
vn 0.1110 -0.9213 -0.3726
vn 0.9487 -0.1015 -0.2994
vn -0.6846 -0.6029 -0.4096
vn -0.5793 0.8133 0.0547
vn -0.0521 0.9573 0.2845
vn -0.3781 -0.8584 -0.3466
vn -0.9342 -0.1841 -0.3055
vn 0.5010 0.8453 0.1857
vn 0.2700 0.9034 0.3332
vn 0.1974 0.9153 0.3511
vn 0.1470 0.9213 0.3601
vn 0.1856 0.9114 0.3672
vn 0.0916 -0.9500 -0.2984
vn 0.8673 -0.4767 -0.1432
vn -0.3242 0.9249 0.1988
vn 0.0215 0.9520 0.3052
vn 0.3857 -0.8653 -0.3203
vn 0.8498 0.5243 0.0540
vn -0.6460 -0.6818 -0.3432
vn -0.7231 0.6830 0.1030
vn 0.3601 -0.9038 -0.2312
vn -0.2014 -0.9219 -0.3310
vn 0.9874 0.1491 -0.0537
vn -0.9392 -0.2104 -0.2714
vn -0.9005 0.4303 -0.0620
vn -0.3641 -0.8658 -0.3433
vn 0.5587 0.7458 0.3628
vn 0.0019 -0.9639 -0.2661
vn 0.3213 -0.9328 -0.1633
vn -0.1240 -0.9439 -0.3062
vn 0.9078 0.3286 0.2607
vn 0.3496 0.8368 0.4214
vn -0.9780 0.0925 -0.1871
vn -0.2286 0.9218 0.3132
vn 0.1314 0.9259 0.3543
vn 0.7202 -0.6900 0.0720
vn 0.9427 -0.0405 0.3313
vn -0.7540 -0.5690 -0.3281
vn 0.1872 0.9204 0.3433
vn -0.7022 0.7001 0.1298
vn 0.6870 0.5518 0.4728
vn -0.5101 0.8394 0.1876
vn 0.3140 -0.9398 -0.1350
vn 0.7619 -0.6211 0.1837
vn -0.5755 -0.7415 -0.3450
vn -0.1947 -0.9329 -0.3029
vn 0.8922 0.0349 0.4503
vn 0.6311 0.6087 0.4808
vn 0.2134 0.9113 0.3521
vn -0.7052 0.7062 0.0639
vn -0.2869 -0.9002 -0.3275
vn 0.3475 0.8405 0.4157
vn 0.1407 0.9352 0.3251
vn -0.0137 0.9482 0.3174
vn 0.2110 -0.9730 -0.0932
vn -0.1252 -0.9503 -0.2851
vn 0.8196 0.2708 0.5049
vn -0.9234 -0.2496 -0.2915
vn 0.5061 0.7255 0.4664
vn -0.0729 -0.9634 -0.2580
vn 0.5526 -0.8284 0.0919
vn -0.8756 0.4757 -0.0838
vn -0.2465 0.9361 0.2507
vn 0.8522 -0.3627 0.3770
vn -0.9694 0.0716 -0.2349
vn 0.5962 -0.7787 0.1952
vn 0.5664 0.6723 0.4767
vn -0.4120 0.8948 0.1719
vn -0.0149 0.9566 0.2909
vn -0.1549 -0.9501 -0.2709
vn -0.3479 -0.8848 -0.3100
vn -0.4246 -0.8536 -0.3017
vn 0.8011 0.2667 0.5359
vn -0.6817 -0.6596 -0.3167
vn -0.9210 -0.2686 -0.2821
vn 0.1451 -0.9836 -0.1076
vn 0.8234 -0.3790 0.4224
vn 0.2077 0.9160 0.3434
vn 0.4904 -0.8639 0.1148
vn 0.5876 0.6222 0.5173
vn -0.9582 0.2507 -0.1376
vn -0.6240 0.7781 0.0715
vn -0.0274 -0.9783 -0.2052
vn 0.7613 -0.5209 0.3861
vn 0.7951 0.2022 0.5718
vn -0.1492 0.9614 0.2312
vn -0.9328 -0.2225 -0.2836
vn 0.1207 0.9448 0.3047
vn 0.4337 -0.8931 0.1190
vn 0.2686 -0.9627 0.0317
vn -0.5948 -0.7238 -0.3498
vn 0.5327 0.6714 0.5152
vn 0.3206 0.8513 0.4154
vn -0.2464 -0.9309 -0.2695
vn -0.8371 0.5466 -0.0229
vn 0.7207 -0.5170 0.4619
vn 0.8148 -0.0788 0.5744
vn -0.8133 -0.5009 -0.2961
vn -0.9730 0.1718 -0.1542
vn -0.3248 0.9245 0.1995
vn 0.0295 0.9543 0.2973
vn -0.0891 -0.9754 -0.2017
vn 0.7313 0.3095 0.6078
vn -0.5547 -0.7697 -0.3160
vn 0.5024 0.7051 0.5004
vn -0.3689 0.9015 0.2264
vn 0.0057 -0.9934 -0.1142
vn 0.1811 -0.9830 -0.0295
vn 0.5484 0.6427 0.5350
vn 0.1706 0.9278 0.3318
vn 0.2648 0.8872 0.3777
vn 0.0036 0.9482 0.3176
vn 0.5405 -0.7887 0.2931
vn 0.8070 -0.0772 0.5855
vn -0.9582 -0.1775 -0.2242
vn -0.6375 0.7627 0.1091
vn 0.2342 -0.9711 0.0458
vn -0.1322 -0.9722 -0.1930
vn -0.9413 0.3245 -0.0927
vn -0.4769 -0.8386 -0.2633
vn 0.5715 0.6225 0.5347
vn 0.7882 0.1320 0.6011
vn 0.1567 0.9330 0.3240
vn -0.1099 0.9421 0.3169
vn 0.0746 -0.9900 -0.1195
vn -0.2862 -0.9418 -0.1763
vn 0.7239 -0.5457 0.4221
vn -0.7776 -0.5495 -0.3058
vn 0.3014 0.8716 0.3866
vn -0.7461 0.6658 0.0054
vn 0.1183 -0.9927 -0.0238
vn 0.8106 -0.0310 0.5848
vn 0.6976 -0.5943 0.4003
vn -0.9725 0.0959 -0.2123
vn -0.1413 0.9668 0.2129
vn -0.1595 -0.9804 -0.1161
vn -0.9193 -0.3184 -0.2312
vn 0.4619 -0.8551 0.2354
vn 0.8137 0.0719 0.5768
vn 0.7562 -0.3440 0.5567
vn -0.5372 -0.8105 -0.2334
vn 0.7250 0.2938 0.6230
vn -0.0130 0.9603 0.2785
vn 0.4917 0.6806 0.5432
vn -0.7219 0.6909 0.0402
vn -0.2863 0.9392 0.1894
vn 0.2886 0.8446 0.4509
vn 0.1332 -0.9702 0.2024
vn 0.5456 -0.6753 0.4963
vn 0.7398 -0.0397 0.6716
vn 0.1705 0.9030 0.3943
vn -0.6138 -0.7721 -0.1645
vn 0.5438 0.5579 0.6269
vn -0.0779 0.9251 0.3716
vn -0.3497 -0.9317 0.0983
vn -0.9724 0.1563 0.1730
vn -0.4869 0.8486 0.2070
vn -0.0862 -0.9817 0.1698
vn -0.2229 -0.9748 -0.0050
vn 0.3137 -0.5687 0.7603
vn 0.5923 0.0161 0.8056
vn -0.7745 -0.4887 0.4016
vn 0.4311 0.5059 0.7472
vn -0.3572 0.7492 0.5578
vn -0.0320 -0.8501 0.5257
vn 0.1450 0.8360 0.5292
vn 0.2157 0.5119 0.8315
vn 0.3835 0.0790 0.9202
vn -0.0572 -0.6596 0.7494
vn -0.1755 -0.0628 0.9825
vn -0.4806 0.3872 0.7868
vn 0.1008 0.6985 0.7085
vn 0.1896 -0.1219 0.9743
vn 0.1361 0.3066 0.9420
usemtl mtl1.289
s 1
f 9//7 10//8 11//9
f 12//10 13//11 9//7
f 10//8 9//7 14//12
f 9//7 13//11 15//13
f 14//12 9//7 15//13
f 16//14 14//12 15//13
f 11//9 17//15 18//16
f 17//15 19//17 18//16
f 20//18 12//10 11//9
f 17//15 11//9 10//8
f 11//9 12//10 9//7
f 17//15 10//8 21//19
f 21//19 19//17 17//15
f 22//20 23//21 12//10
f 14//12 21//19 10//8
f 14//12 24//22 21//19
f 12//10 23//21 13//11
f 23//21 25//23 13//11
f 13//11 25//23 15//13
f 16//14 24//22 14//12
f 15//13 26//24 16//14
f 24//22 16//14 27//25
f 15//13 25//23 28//26
f 26//24 15//13 28//26
f 29//27 11//9 30//28
f 18//16 30//28 11//9
f 19//17 31//29 18//16
f 32//30 31//29 19//17
f 22//20 12//10 20//18
f 21//19 32//30 19//17
f 21//19 24//22 33//31
f 32//30 21//19 33//31
f 25//23 23//21 34//32
f 33//31 24//22 27//25
f 28//26 25//23 34//32
f 27//25 16//14 26//24
f 29//27 30//28 35//33
f 31//29 36//34 18//16
f 20//18 11//9 29//27
f 37//35 36//34 31//29
f 22//20 20//18 38//36
f 32//30 37//35 31//29
f 39//37 37//35 32//30
f 22//20 40//38 23//21
f 41//39 32//30 33//31
f 39//37 32//30 41//39
f 23//21 40//38 42//40
f 34//32 23//21 42//40
f 27//25 43//41 33//31
f 27//25 26//24 43//41
f 26//24 44//42 43//41
f 26//24 28//26 44//42
f 35//33 30//28 45//43
f 18//16 45//43 30//28
f 36//34 45//43 18//16
f 46//44 45//43 36//34
f 47//45 41//39 33//31
f 33//31 43//41 47//45
f 48//46 28//26 34//32
f 44//42 49//47 43//41
f 28//26 48//46 44//42
f 45//43 50//48 35//33
f 29//27 35//33 51//49
f 36//34 37//35 52//50
f 38//36 40//38 22//20
f 52//50 37//35 53//51
f 53//51 37//35 39//37
f 39//37 41//39 54//52
f 41//39 47//45 54//52
f 55//53 34//32 42//40
f 56//54 47//45 43//41
f 49//47 56//54 43//41
f 44//42 48//46 49//47
f 45//43 46//44 57//55
f 46//44 36//34 58//56
f 38//36 20//18 51//49
f 29//27 51//49 20//18
f 58//56 36//34 52//50
f 40//38 59//57 42//40
f 55//53 60//58 34//32
f 34//32 60//58 48//46
f 40//38 38//36 59//57
f 60//58 61//59 48//46
f 57//55 50//48 45//43
f 59//57 38//36 62//60
f 38//36 51//49 62//60
f 58//56 52//50 53//51
f 59//57 63//61 42//40
f 63//61 55//53 42//40
f 39//37 54//52 64//62
f 54//52 65//63 64//62
f 64//62 53//51 39//37
f 47//45 66//64 54//52
f 47//45 56//54 66//64
f 56//54 67//65 68//66
f 49//47 67//65 56//54
f 48//46 61//59 49//47
f 57//55 69//67 50//48
f 51//49 35//33 50//48
f 46//44 58//56 70//68
f 66//64 65//63 54//52
f 60//58 71//69 72//70
f 61//59 60//58 72//70
f 57//55 46//44 73//71
f 73//71 46//44 70//68
f 58//56 53//51 74//72
f 63//61 59//57 75//73
f 68//66 66//64 56//54
f 60//58 76//74 71//69
f 49//47 61//59 67//65
f 61//59 72//70 67//65
f 73//71 77//75 57//55
f 57//55 77//75 69//67
f 51//49 50//48 78//76
f 70//68 58//56 79//77
f 79//77 58//56 74//72
f 62//60 75//73 59//57
f 63//61 75//73 80//78
f 53//51 64//62 74//72
f 63//61 81//79 55//53
f 55//53 81//79 60//58
f 70//68 77//75 73//71
f 51//49 82//80 62//60
f 64//62 65//63 83//81
f 80//78 81//79 63//61
f 76//74 60//58 81//79
f 69//67 84//82 50//48
f 77//75 85//83 69//67
f 50//48 86//84 78//76
f 82//80 51//49 78//76
f 70//68 79//77 87//85
f 87//85 79//77 74//72
f 66//64 88//86 65//63
f 83//81 74//72 64//62
f 80//78 89//87 81//79
f 76//74 90//88 71//69
f 68//66 67//65 91//89
f 72//70 71//69 90//88
f 92//90 85//83 77//75
f 70//68 92//90 77//75
f 93//91 92//90 70//68
f 93//91 70//68 87//85
f 82//80 75//73 62//60
f 80//78 75//73 94//92
f 87//85 74//72 83//81
f 65//63 88//86 83//81
f 95//93 66//64 68//66
f 91//89 95//93 68//66
f 76//74 96//94 90//88
f 90//88 91//89 72//70
f 91//89 67//65 72//70
f 85//83 84//82 69//67
f 93//91 87//85 97//95
f 75//73 82//80 94//92
f 81//79 98//96 96//94
f 76//74 81//79 96//94
f 85//83 99//97 84//82
f 84//82 86//84 50//48
f 85//83 92//90 100//98
f 82//80 101//99 94//92
f 80//78 94//92 89//87
f 97//95 83//81 88//86
f 87//85 83//81 97//95
f 85//83 100//98 99//97
f 102//100 78//76 86//84
f 103//101 92//90 93//91
f 97//95 103//101 93//91
f 97//95 88//86 104//102
f 66//64 95//93 105//103
f 89//87 106//104 81//79
f 81//79 106//104 98//96
f 96//94 98//96 90//88
f 100//98 92//90 103//101
f 101//99 82//80 107//105
f 78//76 107//105 82//80
f 104//102 103//101 97//95
f 88//86 105//103 108//106
f 88//86 66//64 105//103
f 91//89 109//107 95//93
f 98//96 110//108 90//88
f 111//109 84//82 99//97
f 86//84 112//110 102//100
f 104//102 113//111 103//101
f 94//92 101//99 114//112
f 89//87 94//92 114//112
f 88//86 108//106 115//113
f 104//102 88//86 115//113
f 110//108 91//89 90//88
f 86//84 84//82 116//114
f 99//97 117//115 111//109
f 117//115 99//97 100//98
f 113//111 100//98 103//101
f 107//105 78//76 102//100
f 114//112 118//116 89//87
f 118//116 106//104 89//87
f 106//104 119//117 98//96
f 91//89 110//108 109//107
f 112//110 86//84 116//114
f 84//82 111//109 116//114
f 120//118 117//115 100//98
f 113//111 120//118 100//98
f 113//111 104//102 115//113
f 114//112 121//119 118//116
f 110//108 98//96 119//117
f 122//120 117//115 120//118
f 113//111 115//113 123//121
f 124//122 106//104 118//116
f 119//117 106//104 124//122
f 119//117 125//123 110//108
f 125//123 109//107 110//108
f 126//124 112//110 116//114
f 111//109 117//115 122//120
f 107//105 127//125 128//126
f 107//105 102//100 127//125
f 113//111 129//127 120//118
f 128//126 101//99 107//105
f 113//111 123//121 129//127
f 101//99 128//126 130//128
f 130//128 114//112 101//99
f 115//113 108//106 123//121
f 114//112 131//129 121//119
f 111//109 132//130 116//114
f 133//131 122//120 120//118
f 112//110 126//124 102//100
f 133//131 120//118 129//127
f 114//112 130//128 131//129
f 95//93 134//132 105//103
f 109//107 134//132 95//93
f 119//117 124//122 125//123
f 122//120 135//133 111//109
f 123//121 136//134 129//127
f 123//121 108//106 136//134
f 134//132 108//106 105//103
f 131//129 137//135 121//119
f 137//135 118//116 121//119
f 138//136 118//116 137//135
f 118//116 138//136 124//122
f 126//124 116//114 139//137
f 111//109 135//133 132//130
f 135//133 122//120 133//131
f 140//138 135//133 133//131
f 141//139 140//138 133//131
f 130//128 128//126 127//125
f 129//127 141//139 133//131
f 124//122 138//136 142//140
f 116//114 132//130 139//137
f 127//125 102//100 126//124
f 129//127 136//134 141//139
f 131//129 130//128 143//141
f 144//142 134//132 109//107
f 145//143 146//144 132//130
f 132//130 135//133 145//143
f 143//141 130//128 147//145
f 141//139 136//134 148//146
f 149//147 108//106 134//132
f 137//135 131//129 143//141
f 125//123 144//142 109//107
f 132//130 146//144 139//137
f 135//133 140//138 145//143
f 126//124 150//148 127//125
f 127//125 147//145 130//128
f 108//106 148//146 136//134
f 143//141 151//149 137//135
f 137//135 151//149 138//136
f 142//140 144//142 125//123
f 142//140 125//123 124//122
f 145//143 140//138 152//150
f 141//139 153//151 140//138
f 147//145 154//152 143//141
f 154//152 155//153 143//141
f 149//147 148//146 108//106
f 138//136 156//154 142//140
f 142//140 157//155 144//142
f 139//137 158//156 126//124
f 145//143 152//150 146//144
f 152//150 140//138 153//151
f 141//139 159//157 153//151
f 160//158 147//145 127//125
f 148//146 161//159 159//157
f 141//139 148//146 159//157
f 148//146 149//147 161//159
f 151//149 143//141 155//153
f 138//136 151//149 156//154
f 142//140 156//154 157//155
f 158//156 150//148 126//124
f 147//145 160//158 154//152
f 156//154 151//149 162//160
f 158//156 139//137 163//161
f 163//161 139//137 164//162
f 146//144 164//162 139//137
f 127//125 150//148 160//158
f 161//159 149//147 165//163
f 166//164 134//132 144//142
f 159//157 152//150 153//151
f 159//157 161//159 165//163
f 167//165 149//147 134//132
f 166//164 167//165 134//132
f 157//155 156//154 168//166
f 144//142 157//155 166//164
f 157//155 168//166 166//164
f 146//144 169//167 164//162
f 152//150 169//167 146//144
f 152//150 159//157 170//168
f 152//150 170//168 169//167
f 154//152 160//158 171//169
f 170//168 159//157 165//163
f 154//152 171//169 155//153
f 151//149 172//170 162//160
f 156//154 162//160 168//166
f 163//161 173//171 158//156
f 150//148 158//156 174//172
f 171//169 175//173 155//153
f 167//165 165//163 149//147
f 175//173 172//170 155//153
f 172//170 151//149 155//153
f 160//158 150//148 176//174
f 165//163 167//165 177//175
f 178//176 170//168 165//163
f 166//164 179//177 167//165
f 162//160 180//178 168//166
f 166//164 168//166 179//177
f 181//179 158//156 173//171
f 164//162 173//171 163//161
f 164//162 169//167 173//171
f 150//148 182//180 176//174
f 182//180 150//148 174//172
f 183//181 169//167 170//168
f 183//181 170//168 178//176
f 184//182 171//169 160//158
f 167//165 185//183 177//175
f 178//176 165//163 177//175
f 186//184 172//170 175//173
f 180//178 162//160 172//170
f 168//166 180//178 179//177
f 169//167 183//181 173//171
f 171//169 186//184 175//173
f 179//177 185//183 167//165
f 174//172 181//179 187//185
f 181//179 174//172 158//156
f 183//181 188//186 189//187
f 183//181 189//187 173//171
f 176//174 184//182 160//158
f 177//175 188//186 178//176
f 188//186 183//181 178//176
f 184//182 190//188 171//169
f 171//169 190//188 186//184
f 180//178 172//170 191//189
f 174//172 187//185 192//190
f 190//188 184//182 193//191
f 191//189 172//170 186//184
f 179//177 180//178 191//189
f 173//171 194//192 181//179
f 194//192 173//171 189//187
f 195//193 189//187 188//186
f 188//186 177//175 195//193
f 181//179 194//192 187//185
f 189//187 196//194 194//192
f 189//187 195//193 196//194
f 184//182 197//195 193//191
f 195//193 177//175 198//196
f 179//177 191//189 199//197
f 197//195 184//182 176//174
f 197//195 176//174 182//180
f 196//194 195//193 198//196
f 198//196 177//175 200//198
f 200//198 177//175 185//183
f 190//188 201//199 186//184
f 191//189 186//184 202//200
f 201//199 190//188 193//191
f 179//177 203//201 185//183
f 186//184 201//199 202//200
f 202//200 199//197 191//189
f 187//185 204//202 192//190
f 205//203 204//202 187//185
f 182//180 174//172 192//190
f 187//185 194//192 205//203
f 206//204 194//192 196//194
f 206//204 196//194 198//196
f 203//201 200//198 185//183
f 179//177 199//197 207//205
f 203//201 179//177 207//205
f 205//203 194//192 206//204
f 198//196 200//198 206//204
f 193//191 197//195 208//206
f 200//198 203//201 209//207
f 202//200 210//208 199//197
f 210//208 207//205 199//197
f 182//180 211//209 208//206
f 197//195 182//180 208//206
f 208//206 212//210 193//191
f 193//191 212//210 201//199
f 212//210 213//211 201//199
f 210//208 201//199 213//211
f 202//200 201//199 210//208
f 192//190 204//202 214//212
f 192//190 215//213 182//180
f 200//198 209//207 206//204
f 205//203 216//214 204//202
f 214//212 215//213 192//190
f 205//203 206//204 217//215
f 208//206 211//209 218//216
f 215//213 211//209 182//180
f 217//215 206//204 209//207
f 208//206 218//216 212//210
f 219//217 209//207 203//201
f 220//218 213//211 212//210
f 214//212 204//202 216//214
f 214//212 221//219 215//213
f 205//203 217//215 216//214
f 217//215 209//207 219//217
f 203//201 222//220 223//221
f 203//201 223//221 219//217
f 222//220 203//201 207//205
f 210//208 213//211 220//218
f 207//205 210//208 222//220
f 214//212 216//214 221//219
f 224//222 216//214 217//215
f 211//209 225//223 226//224
f 215//213 225//223 211//209
f 225//223 215//213 221//219
f 217//215 219//217 224//222
f 219//217 223//221 224//222
f 220//218 212//210 227//225
f 220//218 228//226 210//208
f 222//220 210//208 228//226
f 221//219 216//214 229//227
f 229//227 216//214 224//222
f 229//227 225//223 221//219
f 223//221 230//228 229//227
f 224//222 223//221 229//227
f 212//210 218//216 227//225
f 226//224 218//216 211//209
f 228//226 223//221 222//220
f 230//228 223//221 228//226
f 220//218 227//225 228//226
f 226//224 225//223 230//228
f 225//223 229//227 230//228
f 218//216 226//224 227//225
f 228//226 227//225 226//224
f 230//228 228//226 226//224
