# Blender v2.92.0 OBJ File: 'convert_to_one_sided.blend'
# www.blender.org
mtllib 312782604L.mtl
o 312782604
v 7.924248 1.259393 1.908816
v 7.886478 1.242914 1.910596
v 7.871698 1.264823 1.907746
v 7.897338 1.270463 1.906296
v 7.840279 1.232484 1.936625
v 7.951797 1.223964 1.933385
v 7.836199 1.246584 1.937325
v 7.855719 1.263283 1.930645
v 7.904428 1.272663 1.925295
v 7.928598 1.159425 1.995985
v 8.011447 1.181774 1.981845
v 7.851399 1.195174 1.965015
v 7.965538 1.250014 1.946355
v 8.010827 1.215954 1.969815
v 7.792020 1.197224 2.010094
v 7.809189 1.221284 2.000984
v 7.957828 1.258873 1.968035
v 7.889548 1.259353 1.971495
v 7.818120 1.158445 2.013614
v 7.814409 1.194564 1.991075
v 8.075076 1.125045 2.045354
v 8.068876 1.170875 2.012484
v 8.052906 1.216534 2.003744
v 7.837479 1.238974 1.997924
v 7.841449 1.071746 2.114293
v 7.762180 1.145785 2.065614
v 8.113636 1.175174 2.040844
v 8.031327 1.230324 2.002334
v 7.848159 1.223184 2.043044
v 7.972607 1.216384 2.049414
v 8.158995 1.133495 2.064774
v 8.030077 1.224824 2.020854
v 8.025196 1.062346 2.121203
v 7.772800 1.108295 2.088663
v 8.204444 1.128415 2.089263
v 8.194095 1.120375 2.081713
v 7.768760 1.178795 2.070663
v 8.099525 1.190174 2.060664
v 7.796830 1.195474 2.065264
v 8.217375 1.113575 2.096393
v 7.726541 1.089596 2.129753
v 7.734180 1.133345 2.124393
v 8.194104 1.147825 2.100853
v 7.740050 1.055656 2.158402
v 8.202345 1.075346 2.135053
v 8.244854 1.107275 2.125253
v 8.265203 1.111435 2.146612
v 7.919658 0.976290 2.238081
v 7.696231 1.075106 2.176272
v 8.289483 1.082246 2.168212
v 7.755680 1.154625 2.119433
v 7.688801 1.034236 2.206012
v 7.850579 1.148665 2.155083
v 8.078256 1.156295 2.144083
v 8.294133 1.059716 2.185222
v 8.308653 1.062756 2.203982
v 8.300683 1.083146 2.197482
v 8.211635 1.137315 2.140643
v 7.775360 0.961161 2.279061
v 8.111586 0.986867 2.236742
v 8.238824 1.021247 2.216562
v 7.652651 1.025556 2.239641
v 7.734520 1.115515 2.175992
v 8.279384 1.107485 2.184232
v 7.900329 0.916452 2.329010
v 8.281353 1.036806 2.230492
v 7.616902 1.018476 2.298571
v 7.679731 1.073946 2.233292
v 8.192735 1.113915 2.200822
v 7.645272 0.974185 2.294121
v 8.194284 0.977183 2.277541
v 8.245984 1.009817 2.250711
v 8.268723 1.088036 2.218702
v 8.028666 1.091246 2.254131
v 7.593692 0.979852 2.331090
v 8.225114 0.994287 2.289621
v 8.280293 1.055356 2.233842
v 7.657301 1.060246 2.290271
v 7.720010 1.082506 2.252301
v 8.000477 0.918569 2.330640
v 8.088816 0.926517 2.344290
v 7.651742 0.906738 2.376460
v 7.581762 0.945620 2.357400
v 8.248564 1.018447 2.276501
v 7.800610 1.068386 2.296231
v 8.196034 1.061056 2.271181
v 7.587662 0.922225 2.376680
v 8.130735 0.940824 2.368350
v 8.225715 1.024297 2.292651
v 7.620402 1.029256 2.328200
v 7.879458 1.022906 2.381580
v 7.535423 0.928903 2.411349
v 8.187235 0.990221 2.333670
v 7.533413 0.952531 2.419309
v 8.073426 1.021657 2.362000
v 7.710081 0.822520 2.506208
v 7.899168 0.874250 2.408039
v 7.540283 0.905927 2.420519
v 7.569713 0.990098 2.384690
v 8.168335 1.011047 2.336700
v 7.662321 1.041986 2.329540
v 8.004287 0.884878 2.402169
v 8.031776 0.882970 2.440869
v 8.145795 0.976345 2.381560
v 7.589682 1.000957 2.397149
v 7.674311 1.003347 2.413749
v 7.555803 0.860786 2.475378
v 8.105125 0.946478 2.415179
v 8.109345 0.983792 2.395809
v 7.886128 0.948401 2.510238
v 7.484613 0.876246 2.495238
v 7.487654 0.905123 2.480018
v 8.077716 0.953647 2.438489
v 8.010637 0.949650 2.475378
v 7.574943 0.976625 2.451949
v 7.553543 0.788608 2.589967
v 7.953157 0.845885 2.479098
v 8.035187 0.895883 2.471268
v 7.515563 0.946005 2.481178
v 7.858119 0.809113 2.525378
v 7.433944 0.872607 2.548337
v 7.458984 0.901832 2.525228
v 7.564893 0.928081 2.554847
v 7.745410 0.947740 2.519148
v 7.880548 0.790680 2.571167
v 7.458694 0.815578 2.578577
v 7.922278 0.822823 2.567597
v 8.032476 0.917536 2.484298
v 8.026627 0.930738 2.484518
v 7.785950 0.756515 2.624846
v 7.893939 0.889656 2.596307
v 7.480314 0.916314 2.562877
v 7.844779 0.777618 2.587927
v 7.405545 0.838449 2.595297
v 7.963697 0.872678 2.550328
v 7.976868 0.905679 2.529478
v 7.437124 0.896455 2.582097
v 7.706081 0.867744 2.675396
v 7.832469 0.765604 2.615667
v 7.417244 0.742077 2.711985
v 7.366605 0.794746 2.662586
v 7.388925 0.857997 2.617887
v 7.440364 0.893008 2.620886
v 7.336685 0.812883 2.677476
v 7.920358 0.864493 2.594257
v 7.636822 0.717018 2.723425
v 7.825439 0.760426 2.648676
v 7.886168 0.829901 2.633337
v 7.372855 0.862282 2.667226
v 7.502283 0.875479 2.672696
v 7.837639 0.778586 2.679266
v 7.303866 0.782836 2.713175
v 7.877469 0.856420 2.633566
v 7.745080 0.719132 2.726655
v 7.314236 0.825110 2.718075
v 7.398785 0.865428 2.692686
v 7.493824 0.832135 2.791554
v 7.828199 0.852638 2.663526
v 7.270597 0.737463 2.777955
v 7.318606 0.764119 2.726405
v 7.822429 0.791588 2.712826
v 7.259686 0.779966 2.765645
v 7.841989 0.828604 2.674486
v 7.699241 0.692713 2.781644
v 7.785350 0.736350 2.727845
v 7.274796 0.760264 2.758495
v 7.313346 0.833611 2.767425
v 7.397095 0.844110 2.759685
v 7.464774 0.692395 2.804644
v 7.777470 0.742454 2.768864
v 7.252097 0.802731 2.805854
v 7.776750 0.806895 2.740195
v 7.313266 0.713617 2.829734
v 7.234416 0.754673 2.799834
v 7.762550 0.760609 2.796914
v 7.733120 0.766363 2.835814
v 7.676161 0.677923 2.826603
v 7.727050 0.705750 2.804104
v 7.223407 0.747644 2.837024
v 7.218437 0.769250 2.840914
v 7.613432 0.796168 2.844373
v 7.704841 0.794698 2.805834
v 7.260427 0.811882 2.830964
v 7.337055 0.816638 2.827764
v 7.448844 0.676341 2.862763
v 7.576232 0.675744 2.854583
v 7.719331 0.717479 2.862443
v 7.461434 0.797453 2.863054
v 7.662501 0.683446 2.884553
v 7.226557 0.737670 2.861133
v 7.209387 0.760509 2.864103
v 7.716171 0.745008 2.870463
v 7.479534 0.673423 2.886483
v 7.380515 0.691881 2.873733
v 7.299926 0.716752 2.872123
v 7.202977 0.764339 2.872623
v 7.243436 0.783976 2.852613
v 7.399384 0.699476 2.901543
v 7.261497 0.743553 2.878143
v 7.678941 0.760447 2.874723
v 7.544043 0.682781 2.905523
v 7.667562 0.694454 2.919382
v 7.264806 0.760915 2.886023
v 7.374815 0.773888 2.889143
v 7.541843 0.756363 2.907633
v 7.382095 0.732278 2.912383
v 7.495574 0.697122 2.924132
v 7.662871 0.724859 2.898493
v 7.351345 0.757280 2.901943
v 7.443434 0.741667 2.917503
v 7.589242 0.695591 2.923033
v 7.507584 0.718712 2.930282
v 7.532763 0.729021 2.931052
v 7.583242 0.716144 2.916622
vn 0.3473 0.1447 -0.9265
vn -0.0960 -0.4846 -0.8695
vn -0.3976 0.2778 -0.8745
vn 0.0810 0.8429 -0.5320
vn -0.5858 -0.3415 -0.7350
vn 0.2706 -0.4692 -0.8406
vn -0.8066 0.3851 -0.4484
vn -0.4293 0.8999 -0.0766
vn 0.0949 0.9951 -0.0282
vn -0.0057 -0.7413 -0.6711
vn 0.2852 -0.5092 -0.8120
vn -0.2868 -0.6528 -0.7011
vn 0.5163 0.7446 -0.4232
vn 0.5704 0.0414 -0.8203
vn -0.8914 0.1257 -0.4354
vn -0.6832 0.7295 0.0330
vn 0.2139 0.9604 0.1787
vn -0.0846 0.9395 0.3319
vn -0.3278 -0.6560 -0.6799
vn -0.5851 -0.4532 -0.6725
vn 0.1787 -0.6700 -0.7205
vn 0.4332 -0.2700 -0.8599
vn 0.6341 0.6398 -0.4342
vn -0.3550 0.8923 0.2788
vn -0.0991 -0.7841 -0.6127
vn -0.7283 -0.2628 -0.6328
vn 0.6193 0.3910 -0.6809
vn 0.4307 0.9022 -0.0209
vn -0.1332 0.8752 0.4651
vn 0.0690 0.8740 0.4811
vn 0.3574 -0.3295 -0.8739
vn 0.2075 0.9060 0.3690
vn 0.0421 -0.7986 -0.6004
vn -0.3325 -0.6573 -0.6762
vn 0.6161 0.2425 -0.7494
vn 0.4527 -0.1215 -0.8834
vn -0.7082 0.7034 0.0611
vn 0.3895 0.9121 0.1282
vn -0.3668 0.8545 0.3678
vn 0.4696 -0.4139 -0.7799
vn -0.5524 -0.4945 -0.6711
vn -0.8426 0.5308 -0.0915
vn 0.5429 0.7907 -0.2829
vn -0.2382 -0.7407 -0.6282
vn 0.2474 -0.7093 -0.6601
vn 0.6587 -0.2017 -0.7248
vn 0.7214 0.5788 -0.3802
vn -0.0097 -0.8225 -0.5687
vn -0.8567 0.0568 -0.5127
vn 0.7697 -0.1079 -0.6292
vn -0.4519 0.8167 0.3589
vn -0.4437 -0.6061 -0.6601
vn -0.0914 0.8600 0.5020
vn 0.0843 0.8847 0.4585
vn 0.5512 -0.6648 -0.5043
vn 0.9840 -0.1716 0.0481
vn 0.8378 0.5174 0.1742
vn 0.3125 0.9313 0.1871
vn -0.1136 -0.8186 -0.5630
vn 0.1102 -0.8399 -0.5314
vn 0.3113 -0.8369 -0.4502
vn -0.7087 -0.2891 -0.6435
vn -0.3843 0.8606 0.3342
vn 0.4490 0.8573 0.2517
vn -0.0365 -0.8580 -0.5124
vn 0.7574 -0.6435 0.1107
vn -0.8392 0.4023 -0.3660
vn -0.6339 0.7734 -0.0075
vn 0.1281 0.8547 0.5031
vn -0.3673 -0.6503 -0.6650
vn 0.3574 -0.9028 -0.2393
vn 0.5097 -0.8403 -0.1848
vn 0.3780 0.6802 0.6280
vn 0.0435 0.8534 0.5195
vn -0.7518 -0.1672 -0.6378
vn 0.6790 -0.6835 0.2679
vn 0.6755 0.2761 0.6837
vn -0.3424 0.9097 0.2350
vn -0.1902 0.9193 0.3444
vn 0.0782 -0.8729 -0.4816
vn 0.2655 -0.9144 -0.3057
vn -0.1404 -0.8092 -0.5704
vn -0.5406 -0.4722 -0.6963
vn 0.7761 -0.1338 0.6162
vn -0.0422 0.8875 0.4588
vn 0.2505 0.7187 0.6486
vn -0.2930 -0.7258 -0.6224
vn 0.6304 -0.7409 0.2318
vn 0.5244 0.4173 0.7422
vn -0.5630 0.8231 0.0740
vn 0.0207 0.8710 0.4908
vn -0.7493 -0.1973 -0.6322
vn 0.7260 -0.0976 0.6807
vn -0.8455 0.3485 -0.4046
vn 0.1621 0.8031 0.5734
vn -0.0556 -0.8665 -0.4960
vn 0.0164 -0.8857 -0.4640
vn -0.4714 -0.6124 -0.6346
vn -0.6880 0.7217 -0.0763
vn 0.4288 0.5824 0.6906
vn -0.1658 0.9051 0.3914
vn 0.1815 -0.9175 -0.3538
vn 0.4677 -0.8829 -0.0416
vn 0.6119 0.2930 0.7347
vn -0.3249 0.9085 0.2630
vn -0.0583 0.8975 0.4371
vn -0.2240 -0.7998 -0.5569
vn 0.7309 -0.2242 0.6446
vn 0.3452 0.6546 0.6726
vn 0.0953 0.8429 0.5295
vn -0.5852 -0.4895 -0.6465
vn -0.8123 0.0131 -0.5831
vn 0.5280 0.3700 0.7644
vn 0.3025 0.6805 0.6674
vn -0.2013 0.9050 0.3747
vn -0.1181 -0.8617 -0.4934
vn 0.2878 -0.9170 -0.2761
vn 0.7254 -0.5017 0.4712
vn -0.4976 0.8618 0.0981
vn 0.0776 -0.8909 -0.4475
vn -0.8052 -0.0072 -0.5929
vn -0.7920 0.4966 -0.3551
vn -0.0797 0.9170 0.3908
vn 0.0063 0.8818 0.4716
vn 0.3684 -0.9086 -0.1968
vn -0.3332 -0.7364 -0.5888
vn 0.6842 -0.6838 0.2537
vn 0.6690 0.0507 0.7415
vn 0.4776 0.4388 0.7612
vn 0.0794 -0.9368 -0.3409
vn 0.3451 0.6622 0.6651
vn -0.2446 0.9451 0.2167
vn 0.1358 -0.9164 -0.3766
vn -0.6794 -0.3347 -0.6530
vn 0.7370 -0.1105 0.6668
vn 0.5393 0.3772 0.7529
vn -0.5586 0.8277 -0.0534
vn 0.1149 0.8680 0.4831
vn 0.2249 -0.9529 -0.2034
vn -0.1887 -0.8542 -0.4845
vn -0.4524 -0.6044 -0.6558
vn -0.8079 0.3878 -0.4438
vn -0.2134 0.9474 0.2387
vn -0.7492 -0.0129 -0.6622
vn 0.6225 0.2939 0.7253
vn -0.0336 -0.9226 -0.3843
vn 0.4661 -0.8847 -0.0066
vn 0.7586 -0.0344 0.6506
vn -0.5110 0.8579 -0.0533
vn -0.0106 0.9349 0.3548
vn 0.7874 -0.5056 0.3526
vn -0.5999 -0.4062 -0.6893
vn 0.5391 0.4180 0.7312
vn 0.2730 -0.9418 -0.1960
vn -0.7248 0.5893 -0.3570
vn -0.1515 0.9570 0.2472
vn 0.0316 0.9163 0.3991
vn 0.3250 0.6702 0.6673
vn -0.4305 -0.7578 -0.4903
vn -0.3601 -0.6885 -0.6296
vn 0.7682 0.1069 0.6312
vn -0.8124 0.1345 -0.5674
vn 0.5654 0.4185 0.7107
vn 0.2326 -0.9472 -0.2209
vn 0.6037 -0.7904 0.1039
vn -0.5958 -0.4504 -0.6650
vn -0.3240 0.9418 0.0891
vn -0.0506 0.9452 0.3225
vn -0.0965 -0.9355 -0.3398
vn 0.8112 -0.4284 0.3980
vn -0.7146 0.6875 -0.1295
vn 0.4717 0.6448 0.6015
vn -0.2683 -0.9449 -0.1877
vn -0.7992 -0.3051 -0.5179
vn 0.8033 0.1781 0.5683
vn 0.5267 0.6294 0.5713
vn 0.1898 -0.9779 -0.0880
vn 0.5509 -0.8262 0.1175
vn -0.7311 -0.6310 -0.2595
vn -0.9280 0.2908 -0.2330
vn 0.1336 0.8430 0.5210
vn 0.2726 0.8259 0.4935
vn -0.3984 0.8667 0.3002
vn -0.0554 0.8727 0.4851
vn -0.1322 -0.9839 -0.1204
vn 0.0133 -0.9977 -0.0663
vn 0.7572 -0.3272 0.5654
vn 0.0240 0.8297 0.5576
vn 0.2975 -0.8988 0.3220
vn -0.5100 -0.8161 0.2717
vn -0.8765 -0.4376 0.2005
vn 0.6048 0.2693 0.7494
vn -0.0899 -0.9584 0.2708
vn -0.2531 -0.9511 0.1769
vn -0.3167 -0.8668 0.3851
vn -0.7503 0.2275 0.6207
vn -0.3976 0.7898 0.4671
vn -0.2279 -0.7256 0.6493
vn -0.3526 -0.4662 0.8114
vn 0.2646 0.6798 0.6840
vn 0.0033 -0.8894 0.4572
vn 0.3878 -0.1603 0.9077
vn -0.2147 0.3596 0.9081
vn -0.0657 0.7168 0.6942
vn 0.1135 0.6307 0.7677
vn -0.2032 -0.0989 0.9741
vn -0.1066 -0.5434 0.8327
vn 0.3327 0.3535 0.8743
vn -0.1123 0.4384 0.8918
vn -0.0739 0.4245 0.9024
vn 0.0748 -0.4814 0.8733
vn -0.0055 -0.0427 0.9991
vn 0.1114 0.2964 0.9485
vn 0.1834 0.2311 0.9555
usemtl mtl1.1151
s 1
f 1//1 2//2 3//3
f 4//4 1//1 3//3
f 2//2 5//5 3//3
f 1//1 6//6 2//2
f 3//3 5//5 7//7
f 8//8 3//3 7//7
f 8//8 4//4 3//3
f 4//4 8//8 9//9
f 10//10 6//6 11//11
f 12//12 5//5 2//2
f 10//10 12//12 2//2
f 6//6 10//10 2//2
f 1//1 4//4 13//13
f 13//13 4//4 9//9
f 11//11 6//6 14//14
f 5//5 15//15 7//7
f 6//6 1//1 14//14
f 1//1 13//13 14//14
f 16//16 8//8 7//7
f 13//13 9//9 17//17
f 9//9 8//8 18//18
f 9//9 18//18 17//17
f 12//12 19//19 20//20
f 12//12 10//10 19//19
f 10//10 11//11 21//21
f 5//5 20//20 15//15
f 12//12 20//20 5//5
f 11//11 14//14 22//22
f 16//16 7//7 15//15
f 23//23 14//14 13//13
f 24//24 8//8 16//16
f 8//8 24//24 18//18
f 10//10 25//25 19//19
f 11//11 22//22 21//21
f 15//15 20//20 26//26
f 14//14 27//27 22//22
f 27//27 14//14 23//23
f 28//28 23//23 13//13
f 28//28 13//13 17//17
f 18//18 24//24 29//29
f 18//18 30//30 17//17
f 31//31 21//21 22//22
f 19//19 26//26 20//20
f 31//31 22//22 27//27
f 28//28 17//17 32//32
f 18//18 29//29 30//30
f 32//32 17//17 30//30
f 25//25 10//10 33//33
f 25//25 34//34 19//19
f 19//19 34//34 26//26
f 31//31 27//27 35//35
f 31//31 35//35 36//36
f 37//37 16//16 15//15
f 23//23 28//28 38//38
f 16//16 39//39 24//24
f 21//21 33//33 10//10
f 31//31 36//36 40//40
f 35//35 40//40 36//36
f 41//41 26//26 34//34
f 42//42 15//15 26//26
f 35//35 27//27 43//43
f 27//27 23//23 38//38
f 43//43 27//27 38//38
f 28//28 32//32 38//38
f 24//24 39//39 29//29
f 34//34 44//44 41//41
f 34//34 25//25 44//44
f 45//45 21//21 31//31
f 40//40 45//45 31//31
f 35//35 46//46 40//40
f 47//47 35//35 43//43
f 15//15 42//42 37//37
f 37//37 39//39 16//16
f 30//30 38//38 32//32
f 21//21 45//45 33//33
f 33//33 48//48 25//25
f 46//46 45//45 40//40
f 41//41 49//49 26//26
f 49//49 42//42 26//26
f 35//35 47//47 46//46
f 47//47 50//50 46//46
f 37//37 51//51 39//39
f 41//41 44//44 52//52
f 41//41 52//52 49//49
f 46//46 50//50 45//45
f 51//51 37//37 42//42
f 53//53 54//54 30//30
f 30//30 54//54 38//38
f 29//29 39//39 53//53
f 30//30 29//29 53//53
f 50//50 55//55 45//45
f 50//50 56//56 55//55
f 57//57 56//56 50//50
f 57//57 50//50 47//47
f 47//47 43//43 58//58
f 54//54 58//58 38//38
f 43//43 38//38 58//58
f 25//25 48//48 59//59
f 45//45 60//60 33//33
f 60//60 45//45 61//61
f 59//59 44//44 25//25
f 45//45 55//55 61//61
f 49//49 52//52 62//62
f 51//51 42//42 63//63
f 64//64 47//47 58//58
f 48//48 65//65 59//59
f 61//61 55//55 66//66
f 66//66 55//55 56//56
f 62//62 67//67 49//49
f 68//68 49//49 67//67
f 68//68 42//42 49//49
f 42//42 68//68 63//63
f 57//57 47//47 64//64
f 54//54 69//69 58//58
f 64//64 58//58 69//69
f 39//39 51//51 53//53
f 70//70 52//52 59//59
f 61//61 71//71 60//60
f 61//61 72//72 71//71
f 44//44 59//59 52//52
f 61//61 66//66 72//72
f 70//70 62//62 52//52
f 63//63 53//53 51//51
f 69//69 73//73 64//64
f 54//54 53//53 74//74
f 33//33 60//60 48//48
f 70//70 75//75 62//62
f 66//66 76//76 72//72
f 67//67 62//62 75//75
f 56//56 77//77 66//66
f 57//57 77//77 56//56
f 68//68 78//78 79//79
f 63//63 68//68 79//79
f 73//73 57//57 64//64
f 53//53 63//63 79//79
f 54//54 74//74 69//69
f 48//48 80//80 65//65
f 60//60 80//80 48//48
f 81//81 60//60 71//71
f 82//82 70//70 59//59
f 75//75 70//70 83//83
f 71//71 72//72 76//76
f 77//77 84//84 66//66
f 77//77 57//57 73//73
f 53//53 85//85 74//74
f 53//53 79//79 85//85
f 69//69 74//74 86//86
f 73//73 69//69 86//86
f 70//70 87//87 83//83
f 87//87 70//70 82//82
f 71//71 76//76 88//88
f 84//84 76//76 66//66
f 84//84 77//77 89//89
f 78//78 68//68 90//90
f 85//85 91//91 74//74
f 73//73 86//86 77//77
f 92//92 75//75 83//83
f 84//84 93//93 76//76
f 94//94 75//75 92//92
f 75//75 94//94 67//67
f 84//84 89//89 93//93
f 74//74 95//95 86//86
f 77//77 86//86 89//89
f 82//82 59//59 96//96
f 96//96 59//59 97//97
f 59//59 65//65 97//97
f 65//65 80//80 97//97
f 81//81 80//80 60//60
f 87//87 98//98 83//83
f 71//71 88//88 81//81
f 76//76 93//93 88//88
f 67//67 94//94 99//99
f 100//100 93//93 89//89
f 67//67 99//99 90//90
f 68//68 67//67 90//90
f 89//89 86//86 100//100
f 101//101 78//78 90//90
f 79//79 78//78 101//101
f 79//79 101//101 85//85
f 74//74 91//91 95//95
f 100//100 86//86 95//95
f 80//80 81//81 102//102
f 81//81 103//103 102//102
f 81//81 88//88 103//103
f 98//98 92//92 83//83
f 100//100 104//104 93//93
f 99//99 105//105 90//90
f 90//90 105//105 101//101
f 85//85 106//106 91//91
f 80//80 102//102 97//97
f 98//98 87//87 107//107
f 88//88 93//93 108//108
f 104//104 100//100 109//109
f 101//101 105//105 106//106
f 95//95 91//91 110//110
f 87//87 82//82 107//107
f 82//82 96//96 107//107
f 98//98 111//111 92//92
f 111//111 112//112 92//92
f 92//92 112//112 94//94
f 104//104 108//108 93//93
f 113//113 108//108 104//104
f 109//109 113//113 104//104
f 95//95 110//110 114//114
f 114//114 109//109 95//95
f 105//105 115//115 106//106
f 100//100 95//95 109//109
f 85//85 101//101 106//106
f 116//116 107//107 96//96
f 102//102 117//117 97//97
f 107//107 111//111 98//98
f 88//88 118//118 103//103
f 88//88 108//108 118//118
f 94//94 119//119 99//99
f 105//105 99//99 119//119
f 105//105 119//119 115//115
f 113//113 109//109 114//114
f 120//120 97//97 117//117
f 120//120 96//96 97//97
f 103//103 117//117 102//102
f 112//112 111//111 121//121
f 122//122 94//94 112//112
f 122//122 119//119 94//94
f 115//115 123//123 106//106
f 123//123 124//124 106//106
f 91//91 106//106 124//124
f 117//117 125//125 120//120
f 111//111 107//107 126//126
f 126//126 107//107 116//116
f 103//103 127//127 117//117
f 103//103 118//118 127//127
f 108//108 128//128 118//118
f 108//108 113//113 128//128
f 128//128 113//113 129//129
f 129//129 113//113 114//114
f 119//119 123//123 115//115
f 96//96 120//120 130//130
f 121//121 122//122 112//112
f 131//131 114//114 110//110
f 119//119 132//132 123//123
f 91//91 124//124 110//110
f 133//133 130//130 120//120
f 120//120 125//125 133//133
f 117//117 127//127 125//125
f 126//126 134//134 111//111
f 134//134 121//121 111//111
f 118//118 135//135 127//127
f 128//128 135//135 118//118
f 136//136 135//135 128//128
f 122//122 137//137 119//119
f 124//124 138//138 110//110
f 129//129 114//114 136//136
f 128//128 129//129 136//136
f 133//133 139//139 130//130
f 126//126 140//140 141//141
f 140//140 126//126 116//116
f 126//126 141//141 134//134
f 121//121 142//142 122//122
f 134//134 142//142 121//121
f 119//119 137//137 132//132
f 132//132 143//143 123//123
f 136//136 114//114 131//131
f 125//125 139//139 133//133
f 142//142 134//134 144//144
f 142//142 137//137 122//122
f 135//135 136//136 145//145
f 132//132 137//137 143//143
f 123//123 138//138 124//124
f 136//136 131//131 145//145
f 116//116 96//96 146//146
f 146//146 96//96 130//130
f 125//125 147//147 139//139
f 125//125 127//127 147//147
f 135//135 148//148 127//127
f 135//135 145//145 148//148
f 149//149 137//137 142//142
f 138//138 131//131 110//110
f 143//143 150//150 123//123
f 123//123 150//150 138//138
f 139//139 147//147 130//130
f 151//151 147//147 127//127
f 148//148 151//151 127//127
f 141//141 152//152 144//144
f 141//141 144//144 134//134
f 148//148 145//145 153//153
f 137//137 149//149 143//143
f 145//145 131//131 153//153
f 146//146 130//130 154//154
f 147//147 154//154 130//130
f 144//144 155//155 142//142
f 149//149 156//156 143//143
f 138//138 150//150 157//157
f 131//131 138//138 158//158
f 153//153 131//131 158//158
f 159//159 160//160 140//140
f 146//146 140//140 116//116
f 140//140 160//160 141//141
f 141//141 160//160 152//152
f 161//161 151//151 148//148
f 162//162 144//144 152//152
f 155//155 144//144 162//162
f 153//153 163//163 148//148
f 142//142 155//155 149//149
f 153//153 158//158 163//163
f 143//143 156//156 150//150
f 146//146 154//154 164//164
f 165//165 154//154 147//147
f 160//160 159//159 166//166
f 151//151 165//165 147//147
f 160//160 166//166 152//152
f 162//162 152//152 166//166
f 148//148 163//163 161//161
f 156//156 149//149 167//167
f 156//156 167//167 168//168
f 168//168 150//150 156//156
f 146//146 169//169 140//140
f 170//170 165//165 151//151
f 170//170 151//151 161//161
f 171//171 155//155 162//162
f 161//161 163//163 172//172
f 149//149 155//155 167//167
f 172//172 158//158 138//138
f 163//163 158//158 172//172
f 168//168 157//157 150//150
f 159//159 140//140 173//173
f 159//159 174//174 166//166
f 174//174 162//162 166//166
f 170//170 161//161 175//175
f 172//172 176//176 175//175
f 175//175 161//161 172//172
f 155//155 171//171 167//167
f 164//164 177//177 146//146
f 164//164 154//154 178//178
f 165//165 178//178 154//154
f 174//174 159//159 179//179
f 179//179 159//159 173//173
f 169//169 173//173 140//140
f 165//165 170//170 178//178
f 174//174 180//180 162//162
f 162//162 180//180 171//171
f 157//157 181//181 138//138
f 182//182 172//172 138//138
f 167//167 171//171 183//183
f 167//167 184//184 168//168
f 185//185 169//169 186//186
f 146//146 186//186 169//169
f 146//146 177//177 186//186
f 169//169 185//185 173//173
f 187//187 178//178 170//170
f 175//175 187//187 170//170
f 179//179 180//180 174//174
f 182//182 176//176 172//172
f 157//157 188//188 181//181
f 138//138 181//181 182//182
f 178//178 177//177 164//164
f 189//189 177//177 178//178
f 189//189 178//178 187//187
f 190//190 179//179 173//173
f 180//180 179//179 191//191
f 176//176 192//192 175//175
f 157//157 184//184 188//188
f 167//167 183//183 184//184
f 157//157 168//168 184//184
f 185//185 193//193 194//194
f 173//173 194//194 195//195
f 185//185 194//194 173//173
f 173//173 195//195 190//190
f 179//179 190//190 191//191
f 196//196 180//180 191//191
f 180//180 196//196 197//197
f 197//197 171//171 180//180
f 183//183 171//171 197//197
f 197//197 184//184 183//183
f 186//186 193//193 185//185
f 177//177 189//189 186//186
f 194//194 198//198 195//195
f 199//199 190//190 195//195
f 187//187 175//175 192//192
f 200//200 192//192 176//176
f 186//186 201//201 193//193
f 186//186 189//189 201//201
f 198//198 194//194 193//193
f 202//202 189//189 187//187
f 198//198 199//199 195//195
f 190//190 199//199 191//191
f 191//191 199//199 196//196
f 203//203 196//196 199//199
f 203//203 197//197 196//196
f 181//181 200//200 182//182
f 200//200 176//176 182//182
f 197//197 204//204 184//184
f 188//188 204//204 205//205
f 188//188 205//205 181//181
f 188//188 184//184 204//204
f 201//201 198//198 193//193
f 199//199 198//198 206//206
f 207//207 206//206 198//198
f 208//208 187//187 192//192
f 206//206 203//203 199//199
f 208//208 192//192 200//200
f 209//209 203//203 206//206
f 209//209 204//204 203//203
f 203//203 204//204 197//197
f 210//210 204//204 209//209
f 205//205 204//204 210//210
f 201//201 189//189 211//211
f 198//198 201//201 207//207
f 201//201 211//211 207//207
f 189//189 202//202 211//211
f 187//187 208//208 202//202
f 212//212 206//206 207//207
f 210//210 209//209 206//206
f 212//212 210//210 206//206
f 213//213 210//210 212//212
f 205//205 208//208 200//200
f 205//205 210//210 213//213
f 200//200 181//181 205//205
f 207//207 211//211 212//212
f 214//214 212//212 211//211
f 211//211 202//202 214//214
f 202//202 208//208 214//214
f 214//214 213//213 212//212
f 208//208 205//205 214//214
f 205//205 213//213 214//214
