# Blender v2.92.0 OBJ File: 'convert_to_one_sided.blend'
# www.blender.org
mtllib 312782582L.mtl
o Cube
v 0.001000 0.001000 -0.001000
v 0.001000 -0.001000 -0.001000
v 0.001000 0.001000 0.001000
v 0.001000 -0.001000 0.001000
v -0.001000 0.001000 -0.001000
v -0.001000 -0.001000 -0.001000
v -0.001000 0.001000 0.001000
v -0.001000 -0.001000 0.001000
vt 0.625000 0.500000
vt 0.875000 0.500000
vt 0.875000 0.750000
vt 0.625000 0.750000
vt 0.375000 0.750000
vt 0.625000 1.000000
vt 0.375000 1.000000
vt 0.375000 0.000000
vt 0.625000 0.000000
vt 0.625000 0.250000
vt 0.375000 0.250000
vt 0.125000 0.500000
vt 0.375000 0.500000
vt 0.125000 0.750000
vn 0.0000 1.0000 0.0000
vn 0.0000 0.0000 1.0000
vn -1.0000 0.0000 0.0000
vn 0.0000 -1.0000 0.0000
vn 1.0000 0.0000 0.0000
vn 0.0000 0.0000 -1.0000
usemtl Material
s off
f 1/1/1 5/2/1 7/3/1 3/4/1
f 4/5/2 3/4/2 7/6/2 8/7/2
f 8/8/3 7/9/3 5/10/3 6/11/3
f 6/12/4 2/13/4 4/5/4 8/14/4
f 2/13/5 1/1/5 3/4/5 4/5/5
f 6/11/6 5/10/6 1/1/6 2/13/6
o 312782582
v 9.054183 2.047904 1.510651
v 8.953424 1.992664 1.515401
v 8.972865 2.028254 1.518131
v 8.801227 1.887015 1.541991
v 8.738618 1.907225 1.541930
v 8.852406 1.941025 1.529561
v 8.891135 1.995904 1.532271
v 8.938524 1.956065 1.531351
v 9.057294 2.019834 1.523771
v 9.017914 1.905035 1.592560
v 8.970284 2.046514 1.528401
v 9.059153 2.084693 1.528531
v 9.145712 2.090063 1.524981
v 9.238001 2.072533 1.552070
v 9.273321 2.145632 1.533891
v 9.222771 2.162142 1.544570
v 9.371360 2.171792 1.541800
v 9.365389 2.205842 1.547170
v 8.703817 1.844436 1.560930
v 8.659028 1.848716 1.573020
v 8.771606 1.819786 1.589800
v 8.674448 1.905725 1.575150
v 8.778868 1.971124 1.562770
v 8.927916 2.053963 1.561860
v 9.083883 2.128202 1.562610
v 9.404659 2.117622 1.584030
v 9.338670 2.236221 1.573920
v 9.468918 2.209361 1.575140
v 9.428768 2.248931 1.577060
v 8.680088 1.806367 1.592130
v 8.624799 1.849936 1.612180
v 8.637789 1.901495 1.602190
v 8.687099 1.937745 1.595610
v 8.778117 1.993974 1.594240
v 8.995944 2.104573 1.586600
v 9.502518 2.143822 1.613690
v 9.550426 2.169982 1.631549
v 9.203032 2.184632 1.582300
v 9.547137 2.218891 1.625499
v 9.488188 2.264481 1.612010
v 9.422499 2.267511 1.598110
v 8.641459 1.785467 1.622009
v 9.325410 2.005504 1.639829
v 9.191172 1.914055 1.657309
v 8.852695 2.034644 1.598050
v 8.916745 2.064283 1.599560
v 9.482498 2.077393 1.654309
v 9.097182 2.147072 1.594710
v 9.306110 2.233141 1.611950
v 9.402490 2.269321 1.615080
v 9.460419 2.278100 1.626259
v 8.634789 1.735957 1.660339
v 8.700607 1.756627 1.642139
v 8.861957 1.798227 1.636939
v 8.632179 1.885895 1.630939
v 8.612840 1.812516 1.664999
v 9.084784 1.876256 1.642099
v 8.710897 1.952555 1.622910
v 8.796467 2.001224 1.619419
v 8.960654 2.085103 1.613700
v 9.033194 2.116313 1.609590
v 9.558417 2.119272 1.669549
v 9.578487 2.166992 1.664989
v 9.205372 2.185732 1.617329
v 9.546858 2.239421 1.656119
v 9.583027 2.188182 1.680729
v 8.773937 1.753507 1.659259
v 8.628149 1.770147 1.660309
v 8.997814 1.840296 1.645209
v 8.903435 1.795547 1.663809
v 9.098772 1.868636 1.670369
v 8.886935 2.043923 1.621279
v 9.113302 2.143172 1.624929
v 9.501657 2.268511 1.645579
v 8.629398 1.737577 1.680919
v 8.671648 1.737517 1.680479
v 8.734648 1.748147 1.668849
v 8.831696 1.771267 1.669919
v 9.181561 1.900555 1.676619
v 8.612309 1.829606 1.674619
v 9.307080 1.959064 1.690719
v 9.460858 2.034873 1.689789
v 8.830827 1.979004 1.669609
v 9.537557 2.077683 1.702868
v 9.026844 2.086883 1.644099
v 9.235761 2.151792 1.679669
v 9.326031 2.221991 1.650809
v 9.582817 2.192562 1.712168
v 9.399719 2.256841 1.647959
v 9.480588 2.260011 1.665639
v 8.755187 1.750947 1.679469
v 8.866096 1.784677 1.692478
v 8.990193 1.827166 1.680719
v 8.623219 1.776547 1.691338
v 9.222092 1.919395 1.688279
v 9.393518 2.004184 1.701968
v 8.669988 1.884445 1.671009
v 9.582867 2.120793 1.710728
v 9.586216 2.159042 1.706798
v 9.545077 2.224891 1.698148
v 8.974075 1.819906 1.698598
v 9.051884 1.854276 1.701409
v 9.161642 1.897495 1.695928
v 9.240881 1.933045 1.709828
v 8.711538 1.875956 1.710828
v 9.411348 2.198832 1.709438
v 8.647129 1.747777 1.696668
v 8.748088 1.768977 1.707418
v 8.968705 1.832786 1.716678
v 8.650349 1.823976 1.704858
v 9.329519 1.982714 1.733278
v 9.475227 2.049433 1.732048
v 9.065833 2.026614 1.719878
v 9.558896 2.099143 1.736718
v 9.574777 2.185632 1.742438
v 8.871806 1.811486 1.723888
v 9.136573 1.912005 1.730478
v 8.852056 1.921005 1.726108
v 9.573936 2.149912 1.737498
v 9.521117 2.200941 1.733488
v 8.689988 1.791757 1.719108
v 8.793997 1.812786 1.736538
v 8.952505 1.866796 1.741208
v 8.735437 1.842856 1.728638
v 9.000024 1.942475 1.750918
v 9.154572 2.003084 1.758728
v 9.291150 2.089603 1.748978
v 8.763007 1.824456 1.735228
v 8.865996 1.872956 1.739348
v 8.979955 1.905005 1.749368
v 9.110942 1.950225 1.754348
v 9.273850 1.994454 1.760748
v 9.411518 2.047623 1.766948
v 9.508698 2.101853 1.763578
v 9.451888 2.145012 1.764118
v 9.529517 2.154792 1.754268
v 9.241621 2.020694 1.762628
v 9.379040 2.068843 1.770788
v 9.459437 2.085203 1.775277
v 9.466718 2.107683 1.765108
vn 0.0211 0.0706 -0.9973
vn -0.0363 -0.1132 -0.9929
vn -0.2100 0.3262 -0.9217
vn 0.0807 -0.4278 -0.9002
vn -0.2618 0.0993 -0.9600
vn -0.0621 -0.1068 -0.9923
vn -0.2951 0.3793 -0.8770
vn 0.1574 -0.4484 -0.8798
vn 0.2259 -0.4051 -0.8859
vn 0.2654 -0.6069 -0.7491
vn -0.3215 0.5720 -0.7546
vn -0.1986 0.5468 -0.8134
vn 0.0912 0.0379 -0.9951
vn 0.2522 -0.4393 -0.8622
vn 0.0484 0.0422 -0.9979
vn -0.1797 0.5523 -0.8140
vn 0.2443 -0.1657 -0.9554
vn 0.0413 0.3700 -0.9281
vn -0.0968 -0.4408 -0.8923
vn -0.4990 -0.1958 -0.8442
vn 0.1457 -0.6589 -0.7380
vn -0.5588 0.3640 -0.7452
vn -0.4053 0.6107 -0.6803
vn -0.3909 0.7494 -0.5344
vn -0.3206 0.7890 -0.5242
vn 0.3512 -0.4856 -0.8005
vn -0.2328 0.8077 -0.5417
vn 0.4158 0.0420 -0.9085
vn 0.1362 0.5916 -0.7947
vn -0.1342 -0.6278 -0.7668
vn -0.8863 -0.0177 -0.4627
vn -0.7969 0.4843 -0.3610
vn -0.5764 0.7750 -0.2591
vn -0.4859 0.8476 -0.2131
vn -0.4156 0.8986 -0.1405
vn 0.4389 -0.4341 -0.7867
vn 0.6217 -0.2257 -0.7500
vn -0.3541 0.8853 -0.3015
vn 0.7313 0.2835 -0.6204
vn 0.4029 0.7298 -0.5523
vn -0.0237 0.8801 -0.4742
vn -0.5380 -0.4955 -0.6819
vn 0.3652 -0.6962 -0.6181
vn 0.3950 -0.7819 -0.4822
vn -0.4415 0.8967 -0.0325
vn -0.4521 0.8911 -0.0387
vn 0.4264 -0.6454 -0.6338
vn -0.3721 0.9281 0.0108
vn -0.3820 0.9169 0.1155
vn -0.2342 0.9709 0.0492
vn 0.0486 0.9984 -0.0277
vn -0.4420 -0.7913 -0.4225
vn 0.0506 -0.8107 -0.5833
vn 0.2442 -0.7690 -0.5908
vn -0.8217 0.5472 0.1592
vn -0.9982 -0.0420 -0.0436
vn 0.3224 -0.7533 -0.5732
vn -0.5195 0.7913 0.3226
vn -0.4430 0.8384 0.3175
vn -0.3960 0.8580 0.3271
vn -0.3669 0.8628 0.3479
vn 0.6349 -0.5236 -0.5681
vn 0.8879 -0.1318 -0.4407
vn -0.3777 0.8710 0.3140
vn 0.6946 0.7127 -0.0980
vn 0.9415 0.2617 -0.2124
vn 0.2011 -0.9363 -0.2879
vn -0.9232 -0.2948 -0.2468
vn 0.3109 -0.8208 -0.4793
vn 0.3225 -0.9214 -0.2169
vn 0.3620 -0.9201 -0.1498
vn -0.3956 0.8205 0.4126
vn -0.3499 0.8125 0.4662
vn 0.3468 0.9284 0.1335
vn -0.6696 -0.6931 0.2670
vn 0.0544 -0.9868 0.1524
vn 0.0987 -0.9767 -0.1906
vn 0.3024 -0.9460 -0.1166
vn 0.4014 -0.9119 -0.0855
vn -0.8153 0.3162 0.4851
vn 0.4572 -0.8844 -0.0934
vn 0.4443 -0.8587 -0.2554
vn -0.3426 0.6883 0.6394
vn 0.5911 -0.7882 -0.1715
vn -0.3215 0.7171 0.6184
vn -0.3131 0.6789 0.6641
vn -0.3454 0.7562 0.5558
vn 0.8746 0.4178 0.2460
vn -0.2649 0.8287 0.4930
vn -0.0388 0.8477 0.5291
vn 0.2004 -0.9564 0.2123
vn 0.2665 -0.9046 0.3328
vn 0.3549 -0.9333 -0.0541
vn -0.7885 -0.1735 0.5901
vn 0.4203 -0.9073 0.0094
vn 0.4320 -0.9004 -0.0514
vn -0.4991 0.6272 0.5979
vn 0.9124 -0.4092 -0.0113
vn 0.9968 -0.0151 0.0788
vn 0.3711 0.8128 0.4490
vn 0.3280 -0.8937 0.3062
vn 0.3606 -0.8676 0.3423
vn 0.3443 -0.8891 0.3016
vn 0.3567 -0.8619 0.3604
vn -0.3568 0.5056 0.7855
vn -0.2360 0.6474 0.7247
vn -0.2102 -0.5770 0.7892
vn 0.0932 -0.7040 0.7040
vn 0.2396 -0.6969 0.6759
vn -0.4632 0.2501 0.8502
vn 0.3404 -0.7988 0.4960
vn 0.4288 -0.8112 0.3976
vn -0.2625 0.5674 0.7805
vn 0.6311 -0.5847 0.5097
vn 0.4770 0.4462 0.7572
vn 0.1653 -0.6388 0.7514
vn 0.2353 -0.6622 0.7114
vn -0.2211 0.4210 0.8797
vn 0.7457 -0.0835 0.6610
vn 0.0049 0.6327 0.7744
vn -0.2194 -0.1927 0.9564
vn 0.0055 -0.3253 0.9456
vn 0.0952 -0.3560 0.9296
vn -0.2186 0.1858 0.9580
vn -0.1349 0.1921 0.9721
vn -0.1334 0.2337 0.9631
vn -0.2148 0.4388 0.8725
vn -0.1233 -0.0155 0.9923
vn -0.0870 0.0482 0.9950
vn -0.0293 -0.1079 0.9937
vn 0.0260 -0.1956 0.9803
vn 0.0943 -0.3768 0.9215
vn 0.2200 -0.5010 0.8370
vn 0.3380 -0.2314 0.9123
vn -0.0711 0.3497 0.9341
vn 0.1794 0.1606 0.9706
vn -0.0649 0.0605 0.9961
vn -0.0600 0.0676 0.9959
vn 0.0934 0.0006 0.9956
vn 0.0603 0.1929 0.9794
usemtl mtl1.295
s 1
f 9//7 10//8 11//9
f 12//10 13//11 14//12
f 14//12 13//11 15//13
f 16//14 12//10 14//12
f 10//8 16//14 14//12
f 10//8 14//12 15//13
f 17//15 18//16 16//14
f 17//15 16//14 10//8
f 10//8 15//13 11//9
f 15//13 19//17 11//9
f 10//8 9//7 17//15
f 11//9 20//18 9//7
f 21//19 17//15 9//7
f 22//20 17//15 21//19
f 20//18 11//9 19//17
f 21//19 9//7 20//18
f 23//21 22//20 21//19
f 20//18 24//22 21//19
f 23//21 21//19 24//22
f 25//23 22//20 23//21
f 23//21 24//22 26//24
f 25//23 23//21 26//24
f 13//11 27//25 28//26
f 12//10 27//25 13//11
f 18//16 29//27 12//10
f 13//11 28//26 30//28
f 16//14 18//16 12//10
f 31//29 13//11 30//28
f 13//11 31//29 15//13
f 18//16 17//15 22//20
f 31//29 32//30 15//13
f 15//13 32//30 19//17
f 32//30 20//18 19//17
f 33//31 20//18 32//30
f 33//31 24//22 20//18
f 25//23 34//32 22//20
f 24//22 35//33 26//24
f 36//34 34//32 25//23
f 26//24 36//34 25//23
f 37//35 26//24 35//33
f 36//34 26//24 37//35
f 29//27 38//36 27//25
f 38//36 28//26 27//25
f 12//10 29//27 27//25
f 30//28 28//26 39//37
f 40//38 30//28 39//37
f 41//39 31//29 30//28
f 32//30 31//29 42//40
f 32//30 43//41 33//31
f 36//34 44//42 34//32
f 45//43 44//42 36//34
f 46//44 24//22 33//31
f 35//33 24//22 46//44
f 36//34 47//45 45//43
f 48//46 47//45 36//34
f 37//35 48//46 36//34
f 49//47 37//35 35//33
f 48//46 37//35 49//47
f 28//26 38//36 50//48
f 28//26 50//48 39//37
f 18//16 51//49 52//50
f 30//28 40//38 41//39
f 51//49 18//16 22//20
f 31//29 41//39 42//40
f 32//30 42//40 53//51
f 32//30 53//51 54//52
f 43//41 32//30 54//52
f 44//42 55//53 34//32
f 33//31 43//41 56//54
f 33//31 56//54 46//44
f 35//33 46//44 57//55
f 35//33 57//55 58//56
f 49//47 35//33 58//56
f 48//46 49//47 59//57
f 60//58 50//48 61//59
f 38//36 61//59 50//48
f 61//59 38//36 29//27
f 18//16 62//60 29//27
f 40//38 39//37 63//61
f 63//61 39//37 64//62
f 18//16 52//50 65//63
f 41//39 40//38 63//61
f 41//39 66//64 42//40
f 22//20 34//32 51//49
f 34//32 55//53 51//49
f 42//40 67//65 53//51
f 43//41 54//52 68//66
f 43//41 68//66 69//67
f 44//42 45//43 70//68
f 43//41 69//67 56//54
f 47//45 71//69 45//43
f 46//44 56//54 72//70
f 46//44 72//70 57//55
f 47//45 73//71 74//72
f 73//71 47//45 48//46
f 49//47 58//56 59//57
f 61//59 62//60 75//73
f 61//59 29//27 62//60
f 50//48 60//58 76//74
f 76//74 39//37 50//48
f 62//60 77//75 78//76
f 62//60 18//16 77//75
f 77//75 18//16 65//63
f 65//63 52//50 79//77
f 41//39 63//61 66//64
f 42//40 66//64 67//65
f 54//52 53//51 80//78
f 80//78 68//66 54//52
f 56//54 69//67 81//79
f 56//54 81//79 72//70
f 71//69 47//45 74//72
f 48//46 59//57 82//80
f 83//81 60//58 84//82
f 84//82 60//58 61//59
f 84//82 61//59 85//83
f 61//59 75//73 85//83
f 62//60 86//84 75//73
f 62//60 78//76 86//84
f 76//74 64//62 39//37
f 77//75 65//63 79//77
f 79//77 52//50 87//85
f 64//62 88//86 63//61
f 52//50 51//49 89//87
f 51//49 55//53 90//88
f 67//65 66//64 91//89
f 90//88 55//53 92//90
f 53//51 67//65 80//78
f 55//53 70//68 92//90
f 44//42 70//68 55//53
f 68//66 80//78 93//91
f 69//67 68//66 93//91
f 69//67 93//91 81//79
f 93//91 94//92 81//79
f 57//55 72//70 95//93
f 74//72 73//71 96//94
f 58//56 57//55 97//95
f 58//56 97//95 98//96
f 48//46 82//80 73//71
f 58//56 98//96 59//57
f 59//57 98//96 82//80
f 99//97 85//83 75//73
f 76//74 60//58 83//81
f 86//84 99//97 75//73
f 100//98 86//84 78//76
f 78//76 101//99 100//98
f 76//74 102//100 64//62
f 77//75 101//99 78//76
f 77//75 79//77 101//99
f 52//50 103//101 87//85
f 52//50 89//87 103//101
f 51//49 104//102 89//87
f 63//61 105//103 66//64
f 51//49 90//88 104//102
f 80//78 67//65 91//89
f 92//90 70//68 106//104
f 71//69 106//104 70//68
f 70//68 45//43 71//69
f 71//69 74//72 107//105
f 72//70 81//79 94//92
f 94//92 95//93 72//70
f 97//95 57//55 95//93
f 108//106 73//71 82//80
f 85//83 99//97 84//82
f 102//100 76//74 83//81
f 86//84 100//98 99//97
f 101//99 109//107 100//98
f 102//100 88//86 64//62
f 101//99 110//108 109//107
f 79//77 110//108 101//99
f 79//77 111//109 110//108
f 111//109 79//77 87//85
f 88//86 105//103 63//61
f 87//85 103//101 111//109
f 89//87 112//110 103//101
f 105//103 113//111 91//89
f 91//89 66//64 105//103
f 93//91 80//78 91//89
f 107//105 74//72 96//94
f 73//71 108//106 96//94
f 98//96 97//95 114//112
f 98//96 108//106 82//80
f 115//113 83//81 84//82
f 116//114 84//82 99//97
f 83//81 115//113 102//100
f 109//107 117//115 100//98
f 102//100 118//116 88//86
f 88//86 118//116 105//103
f 118//116 113//111 105//103
f 103//101 112//110 111//109
f 89//87 119//117 112//110
f 89//87 104//102 119//117
f 92//90 120//118 90//88
f 93//91 91//89 121//119
f 92//90 122//120 120//118
f 122//120 92//90 106//104
f 93//91 121//119 94//92
f 106//104 71//69 107//105
f 108//106 123//121 96//94
f 95//93 114//112 97//95
f 115//113 84//82 116//114
f 116//114 99//97 100//98
f 124//122 116//114 100//98
f 124//122 100//98 117//115
f 109//107 110//108 117//115
f 110//108 125//123 117//115
f 125//123 110//108 111//109
f 111//109 112//110 125//123
f 91//89 113//111 126//124
f 91//89 126//124 121//119
f 104//102 120//118 119//117
f 90//88 120//118 104//102
f 127//125 122//120 106//104
f 106//104 107//105 127//125
f 95//93 94//92 114//112
f 98//96 128//126 108//106
f 114//112 128//126 98//96
f 128//126 123//121 108//106
f 115//113 116//114 129//127
f 115//113 129//127 102//100
f 116//114 124//122 130//128
f 129//127 116//114 130//128
f 102//100 129//127 118//116
f 124//122 117//115 131//129
f 132//130 118//116 129//127
f 131//129 130//128 124//122
f 131//129 117//115 125//123
f 118//116 132//130 113//111
f 113//111 132//130 126//124
f 119//117 125//123 112//110
f 133//131 121//119 126//124
f 134//132 121//119 133//131
f 107//105 96//94 127//125
f 94//92 135//133 114//112
f 129//127 130//128 136//134
f 136//134 132//130 129//127
f 130//128 137//135 136//134
f 137//135 132//130 136//134
f 131//129 137//135 130//128
f 126//124 132//130 137//135
f 131//129 138//136 137//135
f 125//123 139//137 131//129
f 133//131 126//124 137//135
f 133//131 137//135 138//136
f 139//137 138//136 131//129
f 125//123 119//117 140//138
f 139//137 133//131 138//136
f 134//132 133//131 139//137
f 140//138 139//137 125//123
f 140//138 119//117 141//139
f 119//117 120//118 141//139
f 142//140 141//139 120//118
f 122//120 142//140 120//118
f 135//133 121//119 134//132
f 127//125 142//140 122//120
f 135//133 94//92 121//119
f 96//94 123//121 127//125
f 135//133 143//141 114//112
f 143//141 144//142 128//126
f 128//126 144//142 123//121
f 128//126 114//112 143//141
f 139//137 140//138 145//143
f 145//143 134//132 139//137
f 140//138 146//144 145//143
f 141//139 146//144 140//138
f 147//145 146//144 141//139
f 135//133 134//132 145//143
f 146//144 135//133 145//143
f 142//140 147//145 141//139
f 143//141 135//133 146//144
f 144//142 142//140 127//125
f 127//125 123//121 144//142
f 147//145 148//146 146//144
f 143//141 146//144 148//146
f 142//140 148//146 147//145
f 142//140 144//142 148//146
f 148//146 144//142 143//141
