# Blender v2.92.0 OBJ File: 'convert_to_one_sided.blend'
# www.blender.org
mtllib 312782604L.mtl
o Cube
v 0.001000 0.001000 -0.001000
v 0.001000 -0.001000 -0.001000
v 0.001000 0.001000 0.001000
v 0.001000 -0.001000 0.001000
v -0.001000 0.001000 -0.001000
v -0.001000 -0.001000 -0.001000
v -0.001000 0.001000 0.001000
v -0.001000 -0.001000 0.001000
vt 0.625000 0.500000
vt 0.875000 0.500000
vt 0.875000 0.750000
vt 0.625000 0.750000
vt 0.375000 0.750000
vt 0.625000 1.000000
vt 0.375000 1.000000
vt 0.375000 0.000000
vt 0.625000 0.000000
vt 0.625000 0.250000
vt 0.375000 0.250000
vt 0.125000 0.500000
vt 0.375000 0.500000
vt 0.125000 0.750000
vn 0.0000 1.0000 0.0000
vn 0.0000 0.0000 1.0000
vn -1.0000 0.0000 0.0000
vn 0.0000 -1.0000 0.0000
vn 1.0000 0.0000 0.0000
vn 0.0000 0.0000 -1.0000
usemtl Material
s off
f 1/1/1 5/2/1 7/3/1 3/4/1
f 4/5/2 3/4/2 7/6/2 8/7/2
f 8/8/3 7/9/3 5/10/3 6/11/3
f 6/12/4 2/13/4 4/5/4 8/14/4
f 2/13/5 1/1/5 3/4/5 4/5/5
f 6/11/6 5/10/6 1/1/6 2/13/6
o 312782604
v 7.924248 1.259393 1.908816
v 7.886478 1.242914 1.910596
v 7.871698 1.264823 1.907746
v 7.897338 1.270463 1.906296
v 7.840279 1.232484 1.936625
v 7.951797 1.223964 1.933385
v 7.836199 1.246584 1.937325
v 7.855719 1.263283 1.930645
v 7.904428 1.272663 1.925295
v 7.928598 1.159425 1.995985
v 8.011447 1.181774 1.981845
v 7.851399 1.195174 1.965015
v 7.965538 1.250014 1.946355
v 8.010827 1.215954 1.969815
v 7.792020 1.197224 2.010094
v 7.809189 1.221284 2.000984
v 7.957828 1.258873 1.968035
v 7.889548 1.259353 1.971495
v 7.818120 1.158445 2.013614
v 7.814409 1.194564 1.991075
v 8.075076 1.125045 2.045354
v 8.068876 1.170875 2.012484
v 8.052906 1.216534 2.003744
v 7.837479 1.238974 1.997924
v 7.841449 1.071746 2.114293
v 7.762180 1.145785 2.065614
v 8.113636 1.175174 2.040844
v 8.031327 1.230324 2.002334
v 7.848159 1.223184 2.043044
v 7.972607 1.216384 2.049414
v 8.158995 1.133495 2.064774
v 8.030077 1.224824 2.020854
v 8.025196 1.062346 2.121203
v 7.772800 1.108295 2.088663
v 8.204444 1.128415 2.089263
v 8.194095 1.120375 2.081713
v 7.768760 1.178795 2.070663
v 8.099525 1.190174 2.060664
v 7.796830 1.195474 2.065264
v 8.217375 1.113575 2.096393
v 7.726541 1.089596 2.129753
v 7.734180 1.133345 2.124393
v 8.194104 1.147825 2.100853
v 7.740050 1.055656 2.158402
v 8.202345 1.075346 2.135053
v 8.244854 1.107275 2.125253
v 8.265203 1.111435 2.146612
v 7.919658 0.976290 2.238081
v 7.696231 1.075106 2.176272
v 8.289483 1.082246 2.168212
v 7.755680 1.154625 2.119433
v 7.688801 1.034236 2.206012
v 7.850579 1.148665 2.155083
v 8.078256 1.156295 2.144083
v 8.294133 1.059716 2.185222
v 8.308653 1.062756 2.203982
v 8.300683 1.083146 2.197482
v 8.211635 1.137315 2.140643
v 7.775360 0.961161 2.279061
v 8.111586 0.986867 2.236742
v 8.238824 1.021247 2.216562
v 7.652651 1.025556 2.239641
v 7.734520 1.115515 2.175992
v 8.279384 1.107485 2.184232
v 7.900329 0.916452 2.329010
v 8.281353 1.036806 2.230492
v 7.616902 1.018476 2.298571
v 7.679731 1.073946 2.233292
v 8.192735 1.113915 2.200822
v 7.645272 0.974185 2.294121
v 8.194284 0.977183 2.277541
v 8.245984 1.009817 2.250711
v 8.268723 1.088036 2.218702
v 8.028666 1.091246 2.254131
v 7.593692 0.979852 2.331090
v 8.225114 0.994287 2.289621
v 8.280293 1.055356 2.233842
v 7.657301 1.060246 2.290271
v 7.720010 1.082506 2.252301
v 8.000477 0.918569 2.330640
v 8.088816 0.926517 2.344290
v 7.651742 0.906738 2.376460
v 7.581762 0.945620 2.357400
v 8.248564 1.018447 2.276501
v 7.800610 1.068386 2.296231
v 8.196034 1.061056 2.271181
v 7.587662 0.922225 2.376680
v 8.130735 0.940824 2.368350
v 8.225715 1.024297 2.292651
v 7.620402 1.029256 2.328200
v 7.879458 1.022906 2.381580
v 7.535423 0.928903 2.411349
v 8.187235 0.990221 2.333670
v 7.533413 0.952531 2.419309
v 8.073426 1.021657 2.362000
v 7.710081 0.822520 2.506208
v 7.899168 0.874250 2.408039
v 7.540283 0.905927 2.420519
v 7.569713 0.990098 2.384690
v 8.168335 1.011047 2.336700
v 7.662321 1.041986 2.329540
v 8.004287 0.884878 2.402169
v 8.031776 0.882970 2.440869
v 8.145795 0.976345 2.381560
v 7.589682 1.000957 2.397149
v 7.674311 1.003347 2.413749
v 7.555803 0.860786 2.475378
v 8.105125 0.946478 2.415179
v 8.109345 0.983792 2.395809
v 7.886128 0.948401 2.510238
v 7.484613 0.876246 2.495238
v 7.487654 0.905123 2.480018
v 8.077716 0.953647 2.438489
v 8.010637 0.949650 2.475378
v 7.574943 0.976625 2.451949
v 7.553543 0.788608 2.589967
v 7.953157 0.845885 2.479098
v 8.035187 0.895883 2.471268
v 7.515563 0.946005 2.481178
v 7.858119 0.809113 2.525378
v 7.433944 0.872607 2.548337
v 7.458984 0.901832 2.525228
v 7.564893 0.928081 2.554847
v 7.745410 0.947740 2.519148
v 7.880548 0.790680 2.571167
v 7.458694 0.815578 2.578577
v 7.922278 0.822823 2.567597
v 8.032476 0.917536 2.484298
v 8.026627 0.930738 2.484518
v 7.785950 0.756515 2.624846
v 7.893939 0.889656 2.596307
v 7.480314 0.916314 2.562877
v 7.844779 0.777618 2.587927
v 7.405545 0.838449 2.595297
v 7.963697 0.872678 2.550328
v 7.976868 0.905679 2.529478
v 7.437124 0.896455 2.582097
v 7.706081 0.867744 2.675396
v 7.832469 0.765604 2.615667
v 7.417244 0.742077 2.711985
v 7.366605 0.794746 2.662586
v 7.388925 0.857997 2.617887
v 7.440364 0.893008 2.620886
v 7.336685 0.812883 2.677476
v 7.920358 0.864493 2.594257
v 7.636822 0.717018 2.723425
v 7.825439 0.760426 2.648676
v 7.886168 0.829901 2.633337
v 7.372855 0.862282 2.667226
v 7.502283 0.875479 2.672696
v 7.837639 0.778586 2.679266
v 7.303866 0.782836 2.713175
v 7.877469 0.856420 2.633566
v 7.745080 0.719132 2.726655
v 7.314236 0.825110 2.718075
v 7.398785 0.865428 2.692686
v 7.493824 0.832135 2.791554
v 7.828199 0.852638 2.663526
v 7.270597 0.737463 2.777955
v 7.318606 0.764119 2.726405
v 7.822429 0.791588 2.712826
v 7.259686 0.779966 2.765645
v 7.841989 0.828604 2.674486
v 7.699241 0.692713 2.781644
v 7.785350 0.736350 2.727845
v 7.274796 0.760264 2.758495
v 7.313346 0.833611 2.767425
v 7.397095 0.844110 2.759685
v 7.464774 0.692395 2.804644
v 7.777470 0.742454 2.768864
v 7.252097 0.802731 2.805854
v 7.776750 0.806895 2.740195
v 7.313266 0.713617 2.829734
v 7.234416 0.754673 2.799834
v 7.762550 0.760609 2.796914
v 7.733120 0.766363 2.835814
v 7.676161 0.677923 2.826603
v 7.727050 0.705750 2.804104
v 7.223407 0.747644 2.837024
v 7.218437 0.769250 2.840914
v 7.613432 0.796168 2.844373
v 7.704841 0.794698 2.805834
v 7.260427 0.811882 2.830964
v 7.337055 0.816638 2.827764
v 7.448844 0.676341 2.862763
v 7.576232 0.675744 2.854583
v 7.719331 0.717479 2.862443
v 7.461434 0.797453 2.863054
v 7.662501 0.683446 2.884553
v 7.226557 0.737670 2.861133
v 7.209387 0.760509 2.864103
v 7.716171 0.745008 2.870463
v 7.479534 0.673423 2.886483
v 7.380515 0.691881 2.873733
v 7.299926 0.716752 2.872123
v 7.202977 0.764339 2.872623
v 7.243436 0.783976 2.852613
v 7.399384 0.699476 2.901543
v 7.261497 0.743553 2.878143
v 7.678941 0.760447 2.874723
v 7.544043 0.682781 2.905523
v 7.667562 0.694454 2.919382
v 7.264806 0.760915 2.886023
v 7.374815 0.773888 2.889143
v 7.541843 0.756363 2.907633
v 7.382095 0.732278 2.912383
v 7.495574 0.697122 2.924132
v 7.662871 0.724859 2.898493
v 7.351345 0.757280 2.901943
v 7.443434 0.741667 2.917503
v 7.589242 0.695591 2.923033
v 7.507584 0.718712 2.930282
v 7.532763 0.729021 2.931052
v 7.583242 0.716144 2.916622
vn 0.3473 0.1447 -0.9265
vn -0.0960 -0.4846 -0.8695
vn -0.3976 0.2778 -0.8745
vn 0.0810 0.8429 -0.5320
vn -0.5858 -0.3415 -0.7350
vn 0.2706 -0.4692 -0.8406
vn -0.8066 0.3851 -0.4484
vn -0.4293 0.8999 -0.0766
vn 0.0949 0.9951 -0.0282
vn -0.0057 -0.7413 -0.6711
vn 0.2852 -0.5092 -0.8120
vn -0.2868 -0.6528 -0.7011
vn 0.5163 0.7446 -0.4232
vn 0.5704 0.0414 -0.8203
vn -0.8914 0.1257 -0.4354
vn -0.6832 0.7295 0.0330
vn 0.2139 0.9604 0.1787
vn -0.0846 0.9395 0.3319
vn -0.3278 -0.6560 -0.6799
vn -0.5851 -0.4532 -0.6725
vn 0.1787 -0.6700 -0.7205
vn 0.4332 -0.2700 -0.8599
vn 0.6341 0.6398 -0.4342
vn -0.3550 0.8923 0.2788
vn -0.0991 -0.7841 -0.6127
vn -0.7283 -0.2628 -0.6328
vn 0.6193 0.3910 -0.6809
vn 0.4307 0.9022 -0.0209
vn -0.1332 0.8752 0.4651
vn 0.0690 0.8740 0.4811
vn 0.3574 -0.3295 -0.8739
vn 0.2075 0.9060 0.3690
vn 0.0421 -0.7986 -0.6004
vn -0.3325 -0.6573 -0.6762
vn 0.6161 0.2425 -0.7494
vn 0.4527 -0.1215 -0.8834
vn -0.7082 0.7034 0.0611
vn 0.3895 0.9121 0.1282
vn -0.3668 0.8545 0.3678
vn 0.4696 -0.4139 -0.7799
vn -0.5524 -0.4945 -0.6711
vn -0.8426 0.5308 -0.0915
vn 0.5429 0.7907 -0.2829
vn -0.2382 -0.7407 -0.6282
vn 0.2474 -0.7093 -0.6601
vn 0.6587 -0.2017 -0.7248
vn 0.7214 0.5788 -0.3802
vn -0.0097 -0.8225 -0.5687
vn -0.8567 0.0568 -0.5127
vn 0.7697 -0.1079 -0.6292
vn -0.4519 0.8167 0.3589
vn -0.4437 -0.6061 -0.6601
vn -0.0914 0.8600 0.5020
vn 0.0843 0.8847 0.4585
vn 0.5512 -0.6648 -0.5043
vn 0.9840 -0.1716 0.0481
vn 0.8378 0.5174 0.1742
vn 0.3125 0.9313 0.1871
vn -0.1136 -0.8186 -0.5630
vn 0.1102 -0.8399 -0.5314
vn 0.3113 -0.8369 -0.4502
vn -0.7087 -0.2891 -0.6435
vn -0.3843 0.8606 0.3342
vn 0.4490 0.8573 0.2517
vn -0.0365 -0.8580 -0.5124
vn 0.7574 -0.6435 0.1107
vn -0.8392 0.4023 -0.3660
vn -0.6339 0.7734 -0.0075
vn 0.1281 0.8547 0.5031
vn -0.3673 -0.6503 -0.6650
vn 0.3574 -0.9028 -0.2393
vn 0.5097 -0.8403 -0.1848
vn 0.3780 0.6802 0.6280
vn 0.0435 0.8534 0.5195
vn -0.7518 -0.1672 -0.6378
vn 0.6790 -0.6835 0.2679
vn 0.6755 0.2761 0.6837
vn -0.3424 0.9097 0.2350
vn -0.1902 0.9193 0.3444
vn 0.0782 -0.8729 -0.4816
vn 0.2655 -0.9144 -0.3057
vn -0.1404 -0.8092 -0.5704
vn -0.5406 -0.4722 -0.6963
vn 0.7761 -0.1338 0.6162
vn -0.0422 0.8875 0.4588
vn 0.2505 0.7187 0.6486
vn -0.2930 -0.7258 -0.6224
vn 0.6304 -0.7409 0.2318
vn 0.5244 0.4173 0.7422
vn -0.5630 0.8231 0.0740
vn 0.0207 0.8710 0.4908
vn -0.7493 -0.1973 -0.6322
vn 0.7260 -0.0976 0.6807
vn -0.8455 0.3485 -0.4046
vn 0.1621 0.8031 0.5734
vn -0.0556 -0.8665 -0.4960
vn 0.0164 -0.8857 -0.4640
vn -0.4714 -0.6124 -0.6346
vn -0.6880 0.7217 -0.0763
vn 0.4288 0.5824 0.6906
vn -0.1658 0.9051 0.3914
vn 0.1815 -0.9175 -0.3538
vn 0.4677 -0.8829 -0.0416
vn 0.6119 0.2930 0.7347
vn -0.3249 0.9085 0.2630
vn -0.0583 0.8975 0.4371
vn -0.2240 -0.7998 -0.5569
vn 0.7309 -0.2242 0.6446
vn 0.3452 0.6546 0.6726
vn 0.0953 0.8429 0.5295
vn -0.5852 -0.4895 -0.6465
vn -0.8123 0.0131 -0.5831
vn 0.5280 0.3700 0.7644
vn 0.3025 0.6805 0.6674
vn -0.2013 0.9050 0.3747
vn -0.1181 -0.8617 -0.4934
vn 0.2878 -0.9170 -0.2761
vn 0.7254 -0.5017 0.4712
vn -0.4976 0.8618 0.0981
vn 0.0776 -0.8909 -0.4475
vn -0.8052 -0.0072 -0.5929
vn -0.7920 0.4966 -0.3551
vn -0.0797 0.9170 0.3908
vn 0.0063 0.8818 0.4716
vn 0.3684 -0.9086 -0.1968
vn -0.3332 -0.7364 -0.5888
vn 0.6842 -0.6838 0.2537
vn 0.6690 0.0507 0.7415
vn 0.4776 0.4388 0.7612
vn 0.0794 -0.9368 -0.3409
vn 0.3451 0.6622 0.6651
vn -0.2446 0.9451 0.2167
vn 0.1358 -0.9164 -0.3766
vn -0.6794 -0.3347 -0.6530
vn 0.7370 -0.1105 0.6668
vn 0.5393 0.3772 0.7529
vn -0.5586 0.8277 -0.0534
vn 0.1149 0.8680 0.4831
vn 0.2249 -0.9529 -0.2034
vn -0.1887 -0.8542 -0.4845
vn -0.4524 -0.6044 -0.6558
vn -0.8079 0.3878 -0.4438
vn -0.2134 0.9474 0.2387
vn -0.7492 -0.0129 -0.6622
vn 0.6225 0.2939 0.7253
vn -0.0336 -0.9226 -0.3843
vn 0.4661 -0.8847 -0.0066
vn 0.7586 -0.0344 0.6506
vn -0.5110 0.8579 -0.0533
vn -0.0106 0.9349 0.3548
vn 0.7874 -0.5056 0.3526
vn -0.5999 -0.4062 -0.6893
vn 0.5391 0.4180 0.7312
vn 0.2730 -0.9418 -0.1960
vn -0.7248 0.5893 -0.3570
vn -0.1515 0.9570 0.2472
vn 0.0316 0.9163 0.3991
vn 0.3250 0.6702 0.6673
vn -0.4305 -0.7578 -0.4903
vn -0.3601 -0.6885 -0.6296
vn 0.7682 0.1069 0.6312
vn -0.8124 0.1345 -0.5674
vn 0.5654 0.4185 0.7107
vn 0.2326 -0.9472 -0.2209
vn 0.6037 -0.7904 0.1039
vn -0.5958 -0.4504 -0.6650
vn -0.3240 0.9418 0.0891
vn -0.0506 0.9452 0.3225
vn -0.0965 -0.9355 -0.3398
vn 0.8112 -0.4284 0.3980
vn -0.7146 0.6875 -0.1295
vn 0.4717 0.6448 0.6015
vn -0.2683 -0.9449 -0.1877
vn -0.7992 -0.3051 -0.5179
vn 0.8033 0.1781 0.5683
vn 0.5267 0.6294 0.5713
vn 0.1898 -0.9779 -0.0880
vn 0.5509 -0.8262 0.1175
vn -0.7311 -0.6310 -0.2595
vn -0.9280 0.2908 -0.2330
vn 0.1336 0.8430 0.5210
vn 0.2726 0.8259 0.4935
vn -0.3984 0.8667 0.3002
vn -0.0554 0.8727 0.4851
vn -0.1322 -0.9839 -0.1204
vn 0.0133 -0.9977 -0.0663
vn 0.7572 -0.3272 0.5654
vn 0.0240 0.8297 0.5576
vn 0.2975 -0.8988 0.3220
vn -0.5100 -0.8161 0.2717
vn -0.8765 -0.4376 0.2005
vn 0.6048 0.2693 0.7494
vn -0.0899 -0.9584 0.2708
vn -0.2531 -0.9511 0.1769
vn -0.3167 -0.8668 0.3851
vn -0.7503 0.2275 0.6207
vn -0.3976 0.7898 0.4671
vn -0.2279 -0.7256 0.6493
vn -0.3526 -0.4662 0.8114
vn 0.2646 0.6798 0.6840
vn 0.0033 -0.8894 0.4572
vn 0.3878 -0.1603 0.9077
vn -0.2147 0.3596 0.9081
vn -0.0657 0.7168 0.6942
vn 0.1135 0.6307 0.7677
vn -0.2032 -0.0989 0.9741
vn -0.1066 -0.5434 0.8327
vn 0.3327 0.3535 0.8743
vn -0.1123 0.4384 0.8918
vn -0.0739 0.4245 0.9024
vn 0.0748 -0.4814 0.8733
vn -0.0055 -0.0427 0.9991
vn 0.1114 0.2964 0.9485
vn 0.1834 0.2311 0.9555
usemtl mtl1.300
s 1
f 9//7 10//8 11//9
f 12//10 9//7 11//9
f 10//8 13//11 11//9
f 9//7 14//12 10//8
f 11//9 13//11 15//13
f 16//14 11//9 15//13
f 16//14 12//10 11//9
f 12//10 16//14 17//15
f 18//16 14//12 19//17
f 20//18 13//11 10//8
f 18//16 20//18 10//8
f 14//12 18//16 10//8
f 9//7 12//10 21//19
f 21//19 12//10 17//15
f 19//17 14//12 22//20
f 13//11 23//21 15//13
f 14//12 9//7 22//20
f 9//7 21//19 22//20
f 24//22 16//14 15//13
f 21//19 17//15 25//23
f 17//15 16//14 26//24
f 17//15 26//24 25//23
f 20//18 27//25 28//26
f 20//18 18//16 27//25
f 18//16 19//17 29//27
f 13//11 28//26 23//21
f 20//18 28//26 13//11
f 19//17 22//20 30//28
f 24//22 15//13 23//21
f 31//29 22//20 21//19
f 32//30 16//14 24//22
f 16//14 32//30 26//24
f 18//16 33//31 27//25
f 19//17 30//28 29//27
f 23//21 28//26 34//32
f 22//20 35//33 30//28
f 35//33 22//20 31//29
f 36//34 31//29 21//19
f 36//34 21//19 25//23
f 26//24 32//30 37//35
f 26//24 38//36 25//23
f 39//37 29//27 30//28
f 27//25 34//32 28//26
f 39//37 30//28 35//33
f 36//34 25//23 40//38
f 26//24 37//35 38//36
f 40//38 25//23 38//36
f 33//31 18//16 41//39
f 33//31 42//40 27//25
f 27//25 42//40 34//32
f 39//37 35//33 43//41
f 39//37 43//41 44//42
f 45//43 24//22 23//21
f 31//29 36//34 46//44
f 24//22 47//45 32//30
f 29//27 41//39 18//16
f 39//37 44//42 48//46
f 43//41 48//46 44//42
f 49//47 34//32 42//40
f 50//48 23//21 34//32
f 43//41 35//33 51//49
f 35//33 31//29 46//44
f 51//49 35//33 46//44
f 36//34 40//38 46//44
f 32//30 47//45 37//35
f 42//40 52//50 49//47
f 42//40 33//31 52//50
f 53//51 29//27 39//37
f 48//46 53//51 39//37
f 43//41 54//52 48//46
f 55//53 43//41 51//49
f 23//21 50//48 45//43
f 45//43 47//45 24//22
f 38//36 46//44 40//38
f 29//27 53//51 41//39
f 41//39 56//54 33//31
f 54//52 53//51 48//46
f 49//47 57//55 34//32
f 57//55 50//48 34//32
f 43//41 55//53 54//52
f 55//53 58//56 54//52
f 45//43 59//57 47//45
f 49//47 52//50 60//58
f 49//47 60//58 57//55
f 54//52 58//56 53//51
f 59//57 45//43 50//48
f 61//59 62//60 38//36
f 38//36 62//60 46//44
f 37//35 47//45 61//59
f 38//36 37//35 61//59
f 58//56 63//61 53//51
f 58//56 64//62 63//61
f 65//63 64//62 58//56
f 65//63 58//56 55//53
f 55//53 51//49 66//64
f 62//60 66//64 46//44
f 51//49 46//44 66//64
f 33//31 56//54 67//65
f 53//51 68//66 41//39
f 68//66 53//51 69//67
f 67//65 52//50 33//31
f 53//51 63//61 69//67
f 57//55 60//58 70//68
f 59//57 50//48 71//69
f 72//70 55//53 66//64
f 56//54 73//71 67//65
f 69//67 63//61 74//72
f 74//72 63//61 64//62
f 70//68 75//73 57//55
f 76//74 57//55 75//73
f 76//74 50//48 57//55
f 50//48 76//74 71//69
f 65//63 55//53 72//70
f 62//60 77//75 66//64
f 72//70 66//64 77//75
f 47//45 59//57 61//59
f 78//76 60//58 67//65
f 69//67 79//77 68//66
f 69//67 80//78 79//77
f 52//50 67//65 60//58
f 69//67 74//72 80//78
f 78//76 70//68 60//58
f 71//69 61//59 59//57
f 77//75 81//79 72//70
f 62//60 61//59 82//80
f 41//39 68//66 56//54
f 78//76 83//81 70//68
f 74//72 84//82 80//78
f 75//73 70//68 83//81
f 64//62 85//83 74//72
f 65//63 85//83 64//62
f 76//74 86//84 87//85
f 71//69 76//74 87//85
f 81//79 65//63 72//70
f 61//59 71//69 87//85
f 62//60 82//80 77//75
f 56//54 88//86 73//71
f 68//66 88//86 56//54
f 89//87 68//66 79//77
f 90//88 78//76 67//65
f 83//81 78//76 91//89
f 79//77 80//78 84//82
f 85//83 92//90 74//72
f 85//83 65//63 81//79
f 61//59 93//91 82//80
f 61//59 87//85 93//91
f 77//75 82//80 94//92
f 81//79 77//75 94//92
f 78//76 95//93 91//89
f 95//93 78//76 90//88
f 79//77 84//82 96//94
f 92//90 84//82 74//72
f 92//90 85//83 97//95
f 86//84 76//74 98//96
f 93//91 99//97 82//80
f 81//79 94//92 85//83
f 100//98 83//81 91//89
f 92//90 101//99 84//82
f 102//100 83//81 100//98
f 83//81 102//100 75//73
f 92//90 97//95 101//99
f 82//80 103//101 94//92
f 85//83 94//92 97//95
f 90//88 67//65 104//102
f 104//102 67//65 105//103
f 67//65 73//71 105//103
f 73//71 88//86 105//103
f 89//87 88//86 68//66
f 95//93 106//104 91//89
f 79//77 96//94 89//87
f 84//82 101//99 96//94
f 75//73 102//100 107//105
f 108//106 101//99 97//95
f 75//73 107//105 98//96
f 76//74 75//73 98//96
f 97//95 94//92 108//106
f 109//107 86//84 98//96
f 87//85 86//84 109//107
f 87//85 109//107 93//91
f 82//80 99//97 103//101
f 108//106 94//92 103//101
f 88//86 89//87 110//108
f 89//87 111//109 110//108
f 89//87 96//94 111//109
f 106//104 100//98 91//89
f 108//106 112//110 101//99
f 107//105 113//111 98//96
f 98//96 113//111 109//107
f 93//91 114//112 99//97
f 88//86 110//108 105//103
f 106//104 95//93 115//113
f 96//94 101//99 116//114
f 112//110 108//106 117//115
f 109//107 113//111 114//112
f 103//101 99//97 118//116
f 95//93 90//88 115//113
f 90//88 104//102 115//113
f 106//104 119//117 100//98
f 119//117 120//118 100//98
f 100//98 120//118 102//100
f 112//110 116//114 101//99
f 121//119 116//114 112//110
f 117//115 121//119 112//110
f 103//101 118//116 122//120
f 122//120 117//115 103//101
f 113//111 123//121 114//112
f 108//106 103//101 117//115
f 93//91 109//107 114//112
f 124//122 115//113 104//102
f 110//108 125//123 105//103
f 115//113 119//117 106//104
f 96//94 126//124 111//109
f 96//94 116//114 126//124
f 102//100 127//125 107//105
f 113//111 107//105 127//125
f 113//111 127//125 123//121
f 121//119 117//115 122//120
f 128//126 105//103 125//123
f 128//126 104//102 105//103
f 111//109 125//123 110//108
f 120//118 119//117 129//127
f 130//128 102//100 120//118
f 130//128 127//125 102//100
f 123//121 131//129 114//112
f 131//129 132//130 114//112
f 99//97 114//112 132//130
f 125//123 133//131 128//126
f 119//117 115//113 134//132
f 134//132 115//113 124//122
f 111//109 135//133 125//123
f 111//109 126//124 135//133
f 116//114 136//134 126//124
f 116//114 121//119 136//134
f 136//134 121//119 137//135
f 137//135 121//119 122//120
f 127//125 131//129 123//121
f 104//102 128//126 138//136
f 129//127 130//128 120//118
f 139//137 122//120 118//116
f 127//125 140//138 131//129
f 99//97 132//130 118//116
f 141//139 138//136 128//126
f 128//126 133//131 141//139
f 125//123 135//133 133//131
f 134//132 142//140 119//117
f 142//140 129//127 119//117
f 126//124 143//141 135//133
f 136//134 143//141 126//124
f 144//142 143//141 136//134
f 130//128 145//143 127//125
f 132//130 146//144 118//116
f 137//135 122//120 144//142
f 136//134 137//135 144//142
f 141//139 147//145 138//136
f 134//132 148//146 149//147
f 148//146 134//132 124//122
f 134//132 149//147 142//140
f 129//127 150//148 130//128
f 142//140 150//148 129//127
f 127//125 145//143 140//138
f 140//138 151//149 131//129
f 144//142 122//120 139//137
f 133//131 147//145 141//139
f 150//148 142//140 152//150
f 150//148 145//143 130//128
f 143//141 144//142 153//151
f 140//138 145//143 151//149
f 131//129 146//144 132//130
f 144//142 139//137 153//151
f 124//122 104//102 154//152
f 154//152 104//102 138//136
f 133//131 155//153 147//145
f 133//131 135//133 155//153
f 143//141 156//154 135//133
f 143//141 153//151 156//154
f 157//155 145//143 150//148
f 146//144 139//137 118//116
f 151//149 158//156 131//129
f 131//129 158//156 146//144
f 147//145 155//153 138//136
f 159//157 155//153 135//133
f 156//154 159//157 135//133
f 149//147 160//158 152//150
f 149//147 152//150 142//140
f 156//154 153//151 161//159
f 145//143 157//155 151//149
f 153//151 139//137 161//159
f 154//152 138//136 162//160
f 155//153 162//160 138//136
f 152//150 163//161 150//148
f 157//155 164//162 151//149
f 146//144 158//156 165//163
f 139//137 146//144 166//164
f 161//159 139//137 166//164
f 167//165 168//166 148//146
f 154//152 148//146 124//122
f 148//146 168//166 149//147
f 149//147 168//166 160//158
f 169//167 159//157 156//154
f 170//168 152//150 160//158
f 163//161 152//150 170//168
f 161//159 171//169 156//154
f 150//148 163//161 157//155
f 161//159 166//164 171//169
f 151//149 164//162 158//156
f 154//152 162//160 172//170
f 173//171 162//160 155//153
f 168//166 167//165 174//172
f 159//157 173//171 155//153
f 168//166 174//172 160//158
f 170//168 160//158 174//172
f 156//154 171//169 169//167
f 164//162 157//155 175//173
f 164//162 175//173 176//174
f 176//174 158//156 164//162
f 154//152 177//175 148//146
f 178//176 173//171 159//157
f 178//176 159//157 169//167
f 179//177 163//161 170//168
f 169//167 171//169 180//178
f 157//155 163//161 175//173
f 180//178 166//164 146//144
f 171//169 166//164 180//178
f 176//174 165//163 158//156
f 167//165 148//146 181//179
f 167//165 182//180 174//172
f 182//180 170//168 174//172
f 178//176 169//167 183//181
f 180//178 184//182 183//181
f 183//181 169//167 180//178
f 163//161 179//177 175//173
f 172//170 185//183 154//152
f 172//170 162//160 186//184
f 173//171 186//184 162//160
f 182//180 167//165 187//185
f 187//185 167//165 181//179
f 177//175 181//179 148//146
f 173//171 178//176 186//184
f 182//180 188//186 170//168
f 170//168 188//186 179//177
f 165//163 189//187 146//144
f 190//188 180//178 146//144
f 175//173 179//177 191//189
f 175//173 192//190 176//174
f 193//191 177//175 194//192
f 154//152 194//192 177//175
f 154//152 185//183 194//192
f 177//175 193//191 181//179
f 195//193 186//184 178//176
f 183//181 195//193 178//176
f 187//185 188//186 182//180
f 190//188 184//182 180//178
f 165//163 196//194 189//187
f 146//144 189//187 190//188
f 186//184 185//183 172//170
f 197//195 185//183 186//184
f 197//195 186//184 195//193
f 198//196 187//185 181//179
f 188//186 187//185 199//197
f 184//182 200//198 183//181
f 165//163 192//190 196//194
f 175//173 191//189 192//190
f 165//163 176//174 192//190
f 193//191 201//199 202//200
f 181//179 202//200 203//201
f 193//191 202//200 181//179
f 181//179 203//201 198//196
f 187//185 198//196 199//197
f 204//202 188//186 199//197
f 188//186 204//202 205//203
f 205//203 179//177 188//186
f 191//189 179//177 205//203
f 205//203 192//190 191//189
f 194//192 201//199 193//191
f 185//183 197//195 194//192
f 202//200 206//204 203//201
f 207//205 198//196 203//201
f 195//193 183//181 200//198
f 208//206 200//198 184//182
f 194//192 209//207 201//199
f 194//192 197//195 209//207
f 206//204 202//200 201//199
f 210//208 197//195 195//193
f 206//204 207//205 203//201
f 198//196 207//205 199//197
f 199//197 207//205 204//202
f 211//209 204//202 207//205
f 211//209 205//203 204//202
f 189//187 208//206 190//188
f 208//206 184//182 190//188
f 205//203 212//210 192//190
f 196//194 212//210 213//211
f 196//194 213//211 189//187
f 196//194 192//190 212//210
f 209//207 206//204 201//199
f 207//205 206//204 214//212
f 215//213 214//212 206//204
f 216//214 195//193 200//198
f 214//212 211//209 207//205
f 216//214 200//198 208//206
f 217//215 211//209 214//212
f 217//215 212//210 211//209
f 211//209 212//210 205//203
f 218//216 212//210 217//215
f 213//211 212//210 218//216
f 209//207 197//195 219//217
f 206//204 209//207 215//213
f 209//207 219//217 215//213
f 197//195 210//208 219//217
f 195//193 216//214 210//208
f 220//218 214//212 215//213
f 218//216 217//215 214//212
f 220//218 218//216 214//212
f 221//219 218//216 220//218
f 213//211 216//214 208//206
f 213//211 218//216 221//219
f 208//206 189//187 213//211
f 215//213 219//217 220//218
f 222//220 220//218 219//217
f 219//217 210//208 222//220
f 210//208 216//214 222//220
f 222//220 221//219 220//218
f 216//214 213//211 222//220
f 213//211 221//219 222//220
