# Blender v2.92.0 OBJ File: 'convert_to_one_sided.blend'
# www.blender.org
mtllib 312782586L.mtl
o Cube
v 0.001000 0.001000 -0.001000
v 0.001000 -0.001000 -0.001000
v 0.001000 0.001000 0.001000
v 0.001000 -0.001000 0.001000
v -0.001000 0.001000 -0.001000
v -0.001000 -0.001000 -0.001000
v -0.001000 0.001000 0.001000
v -0.001000 -0.001000 0.001000
vt 0.625000 0.500000
vt 0.875000 0.500000
vt 0.875000 0.750000
vt 0.625000 0.750000
vt 0.375000 0.750000
vt 0.625000 1.000000
vt 0.375000 1.000000
vt 0.375000 0.000000
vt 0.625000 0.000000
vt 0.625000 0.250000
vt 0.375000 0.250000
vt 0.125000 0.500000
vt 0.375000 0.500000
vt 0.125000 0.750000
vn 0.0000 1.0000 0.0000
vn 0.0000 0.0000 1.0000
vn -1.0000 0.0000 0.0000
vn 0.0000 -1.0000 0.0000
vn 1.0000 0.0000 0.0000
vn 0.0000 0.0000 -1.0000
usemtl Material
s off
f 1/1/1 5/2/1 7/3/1 3/4/1
f 4/5/2 3/4/2 7/6/2 8/7/2
f 8/8/3 7/9/3 5/10/3 6/11/3
f 6/12/4 2/13/4 4/5/4 8/14/4
f 2/13/5 1/1/5 3/4/5 4/5/5
f 6/11/6 5/10/6 1/1/6 2/13/6
o 312782586
v 8.819386 2.056023 1.651269
v 8.699298 2.009034 1.667729
v 8.823966 2.078733 1.658719
v 8.960295 2.070783 1.679809
v 8.924385 2.113033 1.658559
v 8.912425 2.129152 1.661539
v 8.954175 2.139672 1.658629
v 9.093722 2.186432 1.661219
v 9.167401 2.143742 1.697348
v 9.026084 2.171572 1.666879
v 9.284161 2.251621 1.671429
v 9.223971 2.252581 1.664219
v 9.122553 2.210441 1.670169
v 9.180072 2.239551 1.672479
v 9.360160 2.306730 1.681609
v 9.289281 2.284280 1.676859
v 8.766597 1.973414 1.700188
v 8.647829 1.955745 1.698188
v 8.645308 1.983464 1.686639
v 8.705647 2.022084 1.677339
v 8.809266 2.078683 1.673609
v 9.313270 2.193161 1.717008
v 9.417098 2.267071 1.724758
v 9.375070 2.319020 1.687379
v 9.341559 2.308230 1.691449
v 9.438668 2.304710 1.724088
v 9.411689 2.315880 1.712498
v 8.663249 1.894365 1.741328
v 8.623698 1.914045 1.728718
v 8.622129 1.934115 1.722018
v 8.645608 1.979334 1.698128
v 8.898846 1.961094 1.746058
v 9.066133 2.029584 1.753728
v 8.671128 1.986374 1.722248
v 8.751958 2.042274 1.694649
v 8.909725 2.125472 1.678979
v 8.837526 2.085163 1.693789
v 8.991604 2.157752 1.677289
v 9.090652 2.198322 1.676779
v 9.188891 2.239481 1.688519
v 9.291000 2.283010 1.696428
v 9.432789 2.309960 1.726098
v 8.778776 1.908065 1.757028
v 8.624919 1.933285 1.744768
v 9.260261 2.115273 1.760498
v 9.066193 2.170632 1.706498
v 9.411809 2.183602 1.777518
v 9.488768 2.263331 1.776878
v 9.466068 2.235721 1.774547
v 9.375429 2.269841 1.748108
v 8.620629 1.886886 1.761948
v 8.716567 1.874296 1.776118
v 8.801887 2.027204 1.742138
v 8.948904 2.085653 1.742908
v 9.226751 2.201911 1.749848
v 9.464428 2.281100 1.756528
v 8.666358 1.872836 1.785477
v 8.793167 1.890915 1.784817
v 8.618649 1.896345 1.768778
v 8.859026 1.920705 1.777467
v 8.957555 1.957095 1.788937
v 8.634858 1.924365 1.772158
v 8.910366 2.006844 1.803067
v 9.329030 2.112993 1.801167
v 8.752208 1.883286 1.795487
v 8.623908 1.890365 1.784787
v 9.063284 1.997804 1.803727
v 9.191901 2.059713 1.801267
v 9.403909 2.144782 1.813327
v 9.109472 2.104373 1.789987
v 9.482967 2.216511 1.802717
v 9.500998 2.245051 1.805177
v 9.457619 2.267781 1.773188
v 8.637329 1.879286 1.785787
v 8.845346 1.914795 1.795927
v 8.996744 1.969144 1.813427
v 8.727878 1.941405 1.786547
v 9.279541 2.086493 1.820817
v 9.448049 2.173802 1.826267
v 9.312850 2.169612 1.815607
v 9.485977 2.217831 1.823127
v 8.701708 1.879636 1.801877
v 8.920774 1.947745 1.811577
v 9.042383 1.988544 1.817407
v 9.099273 2.016594 1.813817
v 8.824327 1.952575 1.812767
v 9.191852 2.063303 1.821227
v 9.360729 2.127282 1.825917
v 9.449638 2.219721 1.817537
v 8.683719 1.892865 1.794157
v 8.812486 1.912425 1.807277
v 9.014403 1.980074 1.815987
v 9.300700 2.104253 1.832207
v 8.778316 1.920785 1.804607
v 8.908145 1.962965 1.811097
v 9.061693 2.027264 1.810687
v 9.224401 2.095473 1.820017
v 9.415379 2.153502 1.842317
v 9.461308 2.182932 1.834487
v 9.486298 2.221751 1.823387
v 9.340469 2.136082 1.833737
v 9.404169 2.172402 1.835447
v 9.455218 2.190422 1.825327
vn 0.0367 -0.1801 -0.9830
vn -0.2511 0.0445 -0.9669
vn -0.3004 0.5229 -0.7977
vn 0.2263 -0.4807 -0.8472
vn 0.0354 -0.0143 -0.9993
vn -0.3767 0.8692 -0.3201
vn -0.1652 0.4507 -0.8773
vn -0.0091 0.0924 -0.9957
vn 0.2577 -0.5215 -0.8134
vn -0.2971 0.8221 -0.4856
vn 0.2327 -0.2665 -0.9353
vn -0.1681 0.5142 -0.8411
vn -0.3282 0.7398 -0.5874
vn -0.3852 0.8876 -0.2524
vn 0.2244 0.3403 -0.9132
vn -0.3399 0.9020 -0.2661
vn 0.1439 -0.5700 -0.8089
vn -0.2638 -0.4014 -0.8771
vn -0.7083 0.3155 -0.6315
vn -0.5301 0.8238 -0.2010
vn -0.4616 0.8871 -0.0087
vn 0.3495 -0.5385 -0.7667
vn 0.4733 -0.3468 -0.8098
vn -0.0779 0.9936 -0.0815
vn -0.3055 0.8983 0.3158
vn 0.6795 0.3521 -0.6436
vn 0.4738 0.7965 -0.3755
vn -0.0144 -0.7573 -0.6529
vn -0.5018 -0.5120 -0.6972
vn -0.9407 0.0061 -0.3391
vn -0.7494 0.6564 0.0869
vn 0.2852 -0.6969 -0.6580
vn 0.3395 -0.7335 -0.5888
vn -0.4521 0.7514 0.4806
vn -0.4252 0.8205 0.3820
vn -0.3666 0.8586 0.3584
vn -0.3607 0.7919 0.4928
vn -0.3582 0.9213 0.1512
vn -0.3998 0.9154 0.0468
vn -0.3835 0.8587 0.3400
vn -0.3719 0.8188 0.4373
vn 0.1332 0.9184 0.3725
vn 0.2268 -0.7309 -0.6437
vn -0.8250 0.4726 0.3099
vn 0.3382 -0.6982 -0.6310
vn -0.3289 0.7639 0.5552
vn 0.4594 -0.6204 -0.6356
vn 0.9057 0.0016 -0.4239
vn 0.5593 -0.4391 -0.7031
vn -0.2325 0.7185 0.6555
vn -0.6490 -0.7257 -0.2286
vn 0.1326 -0.9497 -0.2839
vn -0.3076 0.6856 0.6598
vn -0.2849 0.6945 0.6607
vn -0.3111 0.6776 0.6664
vn 0.5774 0.8094 0.1069
vn -0.1074 -0.9892 0.0994
vn 0.3083 -0.9390 -0.1526
vn -0.9640 -0.1561 0.2152
vn 0.3500 -0.8671 -0.3544
vn 0.3581 -0.9175 -0.1732
vn -0.4891 0.5746 0.6562
vn -0.1866 0.4673 0.8642
vn 0.3934 -0.8520 -0.3455
vn 0.1789 -0.8926 0.4139
vn -0.5931 0.1544 0.7902
vn 0.4263 -0.9038 -0.0381
vn 0.3765 -0.9208 -0.1020
vn 0.5015 -0.8318 -0.2379
vn -0.2459 0.5308 0.8110
vn 0.7501 -0.5354 -0.3882
vn 0.5463 0.6101 0.5738
vn -0.0041 0.7609 0.6489
vn -0.4996 -0.5746 0.6483
vn 0.3311 -0.8947 0.2997
vn 0.2842 -0.8700 0.4028
vn -0.2549 0.4652 0.8477
vn 0.3268 -0.8968 0.2983
vn 0.6383 -0.7681 0.0512
vn -0.2424 0.4913 0.8366
vn 0.8498 -0.2424 0.4681
vn -0.0757 -0.4428 0.8934
vn 0.1948 -0.6916 0.6955
vn 0.3341 -0.7416 0.5818
vn 0.3113 -0.6001 0.7369
vn -0.1369 0.1675 0.9763
vn 0.1237 -0.5211 0.8445
vn 0.4101 -0.8650 0.2890
vn -0.1160 0.5417 0.8325
vn -0.2044 0.1013 0.9736
vn 0.1121 -0.4535 0.8842
vn 0.0966 -0.2934 0.9511
vn 0.0952 -0.4156 0.9045
vn -0.1093 0.0318 0.9935
vn -0.0113 -0.0369 0.9993
vn -0.0589 0.1154 0.9916
vn -0.1585 0.1692 0.9727
vn 0.2145 -0.3044 0.9281
vn 0.4786 -0.2068 0.8533
vn 0.2591 0.1901 0.9469
vn -0.1474 0.1538 0.9771
vn -0.0636 0.2990 0.9521
vn 0.1006 0.1986 0.9749
usemtl mtl1.296
s 1
f 9//7 10//8 11//9
f 12//10 9//7 13//11
f 13//11 9//7 11//9
f 14//12 15//13 11//9
f 13//11 11//9 15//13
f 16//14 13//11 15//13
f 12//10 13//11 16//14
f 17//15 12//10 16//14
f 16//14 15//13 18//16
f 17//15 16//14 19//17
f 19//17 16//14 20//18
f 20//18 16//14 21//19
f 22//20 20//18 21//19
f 23//21 19//17 20//18
f 23//21 20//18 24//22
f 25//23 26//24 10//8
f 10//8 26//24 27//25
f 9//7 25//23 10//8
f 10//8 27//25 28//26
f 28//26 11//9 10//8
f 12//10 25//23 9//7
f 11//9 28//26 29//27
f 14//12 11//9 29//27
f 15//13 14//12 18//16
f 16//14 18//16 21//19
f 19//17 30//28 17//15
f 31//29 30//28 19//17
f 20//18 22//20 24//22
f 24//22 32//30 23//21
f 31//29 19//17 23//21
f 24//22 33//31 32//30
f 23//21 34//32 31//29
f 34//32 23//21 35//33
f 36//34 37//35 26//24
f 38//36 26//24 37//35
f 36//34 26//24 25//23
f 26//24 38//36 27//25
f 38//36 39//37 27//25
f 28//26 27//25 39//37
f 12//10 40//38 25//23
f 12//10 17//15 41//39
f 28//26 42//40 43//41
f 43//41 29//27 28//26
f 14//12 29//27 44//42
f 29//27 45//43 44//42
f 14//12 44//42 46//44
f 18//16 14//12 46//44
f 18//16 46//44 47//45
f 21//19 18//16 47//45
f 21//19 47//45 22//20
f 24//22 22//20 48//46
f 24//22 49//47 33//31
f 32//30 35//33 23//21
f 35//33 32//30 50//48
f 36//34 25//23 51//49
f 51//49 25//23 40//38
f 38//36 52//50 39//37
f 40//38 12//10 41//39
f 28//26 39//37 42//40
f 29//27 43//41 45//43
f 53//51 41//39 17//15
f 17//15 30//28 53//51
f 46//44 44//42 54//52
f 46//44 54//52 47//45
f 30//28 31//29 55//53
f 22//20 47//45 48//46
f 31//29 56//54 57//55
f 24//22 48//46 49//47
f 34//32 56//54 31//29
f 58//56 33//31 49//47
f 32//30 33//31 58//56
f 58//56 50//48 32//30
f 37//35 36//34 59//57
f 60//58 36//34 51//49
f 37//35 59//57 38//36
f 52//50 42//40 39//37
f 43//41 42//40 61//59
f 45//43 61//59 62//60
f 44//42 45//43 62//60
f 62//60 54//52 44//42
f 55//53 31//29 57//55
f 63//61 49//47 48//46
f 56//54 34//32 64//62
f 50//48 64//62 35//33
f 34//32 35//33 64//62
f 59//57 36//34 65//63
f 65//63 36//34 60//58
f 60//58 51//49 66//64
f 38//36 59//57 67//65
f 51//49 40//38 68//66
f 38//36 67//65 52//50
f 40//38 41//39 69//67
f 52//50 70//68 42//40
f 45//43 43//41 61//59
f 61//59 71//69 62//60
f 53//51 55//53 72//70
f 53//51 30//28 55//53
f 54//52 48//46 47//45
f 48//46 54//52 63//61
f 60//58 66//64 73//71
f 51//49 68//66 66//64
f 68//66 40//38 69//67
f 74//72 52//50 67//65
f 69//67 41//39 75//73
f 52//50 74//72 70//68
f 53//51 76//74 41//39
f 53//51 72//70 76//74
f 77//75 72//70 55//53
f 54//52 78//76 63//61
f 55//53 57//55 79//77
f 79//77 57//55 56//54
f 56//54 64//62 80//78
f 63//61 58//56 49//47
f 50//48 81//79 64//62
f 82//80 59//57 65//63
f 60//58 73//71 65//63
f 59//57 82//80 67//65
f 68//66 83//81 66//64
f 68//66 69//67 83//81
f 75//73 84//82 69//67
f 70//68 85//83 42//40
f 42//40 85//83 61//59
f 41//39 76//74 75//73
f 85//83 71//69 61//59
f 72//70 86//84 76//74
f 78//76 62//60 71//69
f 54//52 62//60 78//76
f 55//53 87//85 77//75
f 87//85 55//53 79//77
f 88//86 63//61 78//76
f 89//87 79//77 56//54
f 81//79 50//48 58//56
f 90//88 82//80 65//63
f 65//63 73//71 90//88
f 82//80 74//72 67//65
f 66//64 83//81 73//71
f 69//67 91//89 83//81
f 69//67 84//82 91//89
f 70//68 74//72 85//83
f 75//73 92//90 84//82
f 75//73 93//91 92//90
f 75//73 76//74 93//91
f 85//83 94//92 71//69
f 76//74 86//84 95//93
f 96//94 72//70 77//75
f 77//75 87//85 96//94
f 87//85 79//77 89//87
f 88//86 58//56 63//61
f 89//87 56//54 80//78
f 58//56 97//95 81//79
f 81//79 80//78 64//62
f 90//88 98//96 82//80
f 82//80 98//96 74//72
f 73//71 99//97 90//88
f 73//71 83//81 99//97
f 83//81 91//89 99//97
f 84//82 100//98 91//89
f 92//90 100//98 84//82
f 76//74 95//93 93//91
f 72//70 96//94 86//84
f 86//84 96//94 101//99
f 97//95 58//56 88//86
f 90//88 102//100 98//96
f 90//88 99//97 102//100
f 85//83 74//72 98//96
f 102//100 85//83 98//96
f 103//101 102//100 99//97
f 91//89 103//101 99//97
f 103//101 91//89 100//98
f 102//100 94//92 85//83
f 103//101 94//92 102//100
f 100//98 92//90 93//91
f 100//98 104//102 103//101
f 103//101 71//69 94//92
f 104//102 71//69 103//101
f 93//91 104//102 100//98
f 95//93 104//102 93//91
f 95//93 86//84 101//99
f 78//76 71//69 104//102
f 105//103 78//76 104//102
f 95//93 105//103 104//102
f 105//103 95//93 101//99
f 96//94 106//104 101//99
f 87//85 106//104 96//94
f 87//85 107//105 106//104
f 88//86 78//76 105//103
f 107//105 87//85 89//87
f 89//87 80//78 108//106
f 108//106 80//78 97//95
f 80//78 81//79 97//95
f 101//99 109//107 105//103
f 101//99 106//104 109//107
f 105//103 109//107 88//86
f 110//108 88//86 109//107
f 106//104 110//108 109//107
f 111//109 110//108 106//104
f 106//104 107//105 111//109
f 107//105 89//87 111//109
f 97//95 88//86 110//108
f 97//95 110//108 111//109
f 111//109 89//87 108//106
f 108//106 97//95 111//109
