# Blender v2.92.0 OBJ File: 'convert_to_one_sided.blend'
# www.blender.org
mtllib 318L.mtl
o 318
v 10.817261 4.878546 5.338202
v 10.893459 4.902246 5.355012
v 10.853960 4.865617 5.370022
v 10.850160 4.917106 5.340612
v 10.790960 4.917866 5.368092
v 10.845960 4.956135 5.374742
v 10.787961 4.875206 5.403691
v 10.782461 4.898496 5.385622
v 10.888360 4.949095 5.374092
v 10.903860 4.886266 5.375762
v 10.922859 4.910696 5.406362
v 10.918059 4.950485 5.410541
v 10.807461 4.962645 5.423291
v 10.874260 4.970855 5.419161
v 10.844460 4.868836 5.429031
v 10.781761 4.914516 5.426411
v 10.926959 4.945385 5.456281
v 10.803660 4.875996 5.451341
v 10.889959 4.885766 5.405961
v 10.848660 4.978325 5.464151
v 10.803861 4.912806 5.473910
v 10.892659 4.906306 5.446931
v 10.894260 4.967485 5.461901
v 10.820061 4.952906 5.469800
v 10.857060 4.909766 5.470100
v 10.896860 4.943766 5.479741
v 10.890160 4.960505 5.485011
v 10.854361 4.958385 5.487830
v 10.849360 4.941045 5.485480
v 10.832761 4.941426 5.477480
vn -0.3671 -0.4487 -0.8148
vn 0.6187 -0.1345 -0.7740
vn 0.1915 -0.9466 -0.2593
vn -0.0008 0.3876 -0.9218
vn -0.7180 0.4283 -0.5487
vn -0.1532 0.8209 -0.5501
vn -0.6829 -0.7283 0.0567
vn -0.9462 -0.1538 -0.2847
vn 0.3816 0.6735 -0.6330
vn 0.6499 -0.7204 -0.2422
vn 0.9206 -0.3895 -0.0290
vn 0.7595 0.5755 -0.3032
vn -0.5708 0.8175 -0.0773
vn 0.1489 0.9635 -0.2224
vn 0.1894 -0.9252 0.3288
vn -0.9688 0.1772 0.1731
vn 0.8910 0.0860 0.4458
vn -0.2657 -0.7595 0.5938
vn 0.5071 -0.8323 0.2239
vn -0.1713 0.9374 0.3033
vn -0.5732 -0.1422 0.8070
vn 0.5289 -0.6822 0.5049
vn 0.3863 0.8860 0.2565
vn -0.6356 0.4743 0.6091
vn 0.1666 -0.5843 0.7943
vn 0.4001 -0.3661 0.8402
vn 0.3519 0.3396 0.8723
vn -0.1868 0.4899 0.8515
vn -0.0733 -0.1318 0.9886
vn -0.4059 0.1660 0.8987
usemtl mtl1.1167
s 1
f 1//1 2//2 3//3
f 4//4 1//1 5//5
f 2//2 1//1 4//4
f 6//6 4//4 5//5
f 1//1 3//3 7//7
f 1//1 7//7 8//8
f 1//1 8//8 5//5
f 4//4 9//9 2//2
f 6//6 9//9 4//4
f 3//3 2//2 10//10
f 10//10 2//2 11//11
f 2//2 9//9 12//12
f 5//5 13//13 6//6
f 6//6 14//14 9//9
f 7//7 3//3 15//15
f 5//5 8//8 16//16
f 11//11 2//2 12//12
f 11//11 12//12 17//17
f 6//6 13//13 14//14
f 15//15 18//18 7//7
f 3//3 19//19 15//15
f 10//10 19//19 3//3
f 5//5 16//16 13//13
f 14//14 13//13 20//20
f 14//14 12//12 9//9
f 18//18 21//21 7//7
f 19//19 10//10 11//11
f 22//22 19//19 11//11
f 8//8 7//7 16//16
f 12//12 14//14 23//23
f 19//19 22//22 15//15
f 21//21 16//16 7//7
f 17//17 22//22 11//11
f 16//16 24//24 13//13
f 17//17 12//12 23//23
f 15//15 25//25 18//18
f 22//22 25//25 15//15
f 13//13 24//24 20//20
f 14//14 20//20 23//23
f 25//25 21//21 18//18
f 22//22 17//17 26//26
f 23//23 27//27 17//17
f 20//20 28//28 23//23
f 21//21 24//24 16//16
f 26//26 25//25 22//22
f 26//26 17//17 27//27
f 20//20 24//24 28//28
f 27//27 23//23 28//28
f 25//25 29//29 21//21
f 29//29 30//30 21//21
f 29//29 25//25 26//26
f 30//30 24//24 21//21
f 26//26 27//27 29//29
f 28//28 24//24 30//30
f 30//30 29//29 28//28
f 27//27 28//28 29//29
