# Blender v2.92.0 OBJ File: 'convert_to_one_sided.blend'
# www.blender.org
mtllib 318L.mtl
o Cube
v 0.001000 0.001000 -0.001000
v 0.001000 -0.001000 -0.001000
v 0.001000 0.001000 0.001000
v 0.001000 -0.001000 0.001000
v -0.001000 0.001000 -0.001000
v -0.001000 -0.001000 -0.001000
v -0.001000 0.001000 0.001000
v -0.001000 -0.001000 0.001000
vt 0.625000 0.500000
vt 0.875000 0.500000
vt 0.875000 0.750000
vt 0.625000 0.750000
vt 0.375000 0.750000
vt 0.625000 1.000000
vt 0.375000 1.000000
vt 0.375000 0.000000
vt 0.625000 0.000000
vt 0.625000 0.250000
vt 0.375000 0.250000
vt 0.125000 0.500000
vt 0.375000 0.500000
vt 0.125000 0.750000
vn 0.0000 1.0000 0.0000
vn 0.0000 0.0000 1.0000
vn -1.0000 0.0000 0.0000
vn 0.0000 -1.0000 0.0000
vn 1.0000 0.0000 0.0000
vn 0.0000 0.0000 -1.0000
usemtl Material
s off
f 1/1/1 5/2/1 7/3/1 3/4/1
f 4/5/2 3/4/2 7/6/2 8/7/2
f 8/8/3 7/9/3 5/10/3 6/11/3
f 6/12/4 2/13/4 4/5/4 8/14/4
f 2/13/5 1/1/5 3/4/5 4/5/5
f 6/11/6 5/10/6 1/1/6 2/13/6
o 318
v 10.817261 4.878546 5.338202
v 10.893459 4.902246 5.355012
v 10.853960 4.865617 5.370022
v 10.850160 4.917106 5.340612
v 10.790960 4.917866 5.368092
v 10.845960 4.956135 5.374742
v 10.787961 4.875206 5.403691
v 10.782461 4.898496 5.385622
v 10.888360 4.949095 5.374092
v 10.903860 4.886266 5.375762
v 10.922859 4.910696 5.406362
v 10.918059 4.950485 5.410541
v 10.807461 4.962645 5.423291
v 10.874260 4.970855 5.419161
v 10.844460 4.868836 5.429031
v 10.781761 4.914516 5.426411
v 10.926959 4.945385 5.456281
v 10.803660 4.875996 5.451341
v 10.889959 4.885766 5.405961
v 10.848660 4.978325 5.464151
v 10.803861 4.912806 5.473910
v 10.892659 4.906306 5.446931
v 10.894260 4.967485 5.461901
v 10.820061 4.952906 5.469800
v 10.857060 4.909766 5.470100
v 10.896860 4.943766 5.479741
v 10.890160 4.960505 5.485011
v 10.854361 4.958385 5.487830
v 10.849360 4.941045 5.485480
v 10.832761 4.941426 5.477480
vn -0.3671 -0.4487 -0.8148
vn 0.6187 -0.1345 -0.7740
vn 0.1915 -0.9466 -0.2593
vn -0.0008 0.3876 -0.9218
vn -0.7180 0.4283 -0.5487
vn -0.1532 0.8209 -0.5501
vn -0.6829 -0.7283 0.0567
vn -0.9462 -0.1538 -0.2847
vn 0.3816 0.6735 -0.6330
vn 0.6499 -0.7204 -0.2422
vn 0.9206 -0.3895 -0.0290
vn 0.7595 0.5755 -0.3032
vn -0.5708 0.8175 -0.0773
vn 0.1489 0.9635 -0.2224
vn 0.1894 -0.9252 0.3288
vn -0.9688 0.1772 0.1731
vn 0.8910 0.0860 0.4458
vn -0.2657 -0.7595 0.5938
vn 0.5071 -0.8323 0.2239
vn -0.1713 0.9374 0.3033
vn -0.5732 -0.1422 0.8070
vn 0.5289 -0.6822 0.5049
vn 0.3863 0.8860 0.2565
vn -0.6356 0.4743 0.6091
vn 0.1666 -0.5843 0.7943
vn 0.4001 -0.3661 0.8402
vn 0.3519 0.3396 0.8723
vn -0.1868 0.4899 0.8515
vn -0.0733 -0.1318 0.9886
vn -0.4059 0.1660 0.8987
usemtl mtl1.316
s 1
f 9//7 10//8 11//9
f 12//10 9//7 13//11
f 10//8 9//7 12//10
f 14//12 12//10 13//11
f 9//7 11//9 15//13
f 9//7 15//13 16//14
f 9//7 16//14 13//11
f 12//10 17//15 10//8
f 14//12 17//15 12//10
f 11//9 10//8 18//16
f 18//16 10//8 19//17
f 10//8 17//15 20//18
f 13//11 21//19 14//12
f 14//12 22//20 17//15
f 15//13 11//9 23//21
f 13//11 16//14 24//22
f 19//17 10//8 20//18
f 19//17 20//18 25//23
f 14//12 21//19 22//20
f 23//21 26//24 15//13
f 11//9 27//25 23//21
f 18//16 27//25 11//9
f 13//11 24//22 21//19
f 22//20 21//19 28//26
f 22//20 20//18 17//15
f 26//24 29//27 15//13
f 27//25 18//16 19//17
f 30//28 27//25 19//17
f 16//14 15//13 24//22
f 20//18 22//20 31//29
f 27//25 30//28 23//21
f 29//27 24//22 15//13
f 25//23 30//28 19//17
f 24//22 32//30 21//19
f 25//23 20//18 31//29
f 23//21 33//31 26//24
f 30//28 33//31 23//21
f 21//19 32//30 28//26
f 22//20 28//26 31//29
f 33//31 29//27 26//24
f 30//28 25//23 34//32
f 31//29 35//33 25//23
f 28//26 36//34 31//29
f 29//27 32//30 24//22
f 34//32 33//31 30//28
f 34//32 25//23 35//33
f 28//26 32//30 36//34
f 35//33 31//29 36//34
f 33//31 37//35 29//27
f 37//35 38//36 29//27
f 37//35 33//31 34//32
f 38//36 32//30 29//27
f 34//32 35//33 37//35
f 36//34 32//30 38//36
f 38//36 37//35 36//34
f 35//33 36//34 37//35
