# Blender v2.92.0 OBJ File: 'convert_to_one_sided.blend'
# www.blender.org
mtllib 333L.mtl
o Cube
v 0.001000 0.001000 -0.001000
v 0.001000 -0.001000 -0.001000
v 0.001000 0.001000 0.001000
v 0.001000 -0.001000 0.001000
v -0.001000 0.001000 -0.001000
v -0.001000 -0.001000 -0.001000
v -0.001000 0.001000 0.001000
v -0.001000 -0.001000 0.001000
vt 0.625000 0.500000
vt 0.875000 0.500000
vt 0.875000 0.750000
vt 0.625000 0.750000
vt 0.375000 0.750000
vt 0.625000 1.000000
vt 0.375000 1.000000
vt 0.375000 0.000000
vt 0.625000 0.000000
vt 0.625000 0.250000
vt 0.375000 0.250000
vt 0.125000 0.500000
vt 0.375000 0.500000
vt 0.125000 0.750000
vn 0.0000 1.0000 0.0000
vn 0.0000 0.0000 1.0000
vn -1.0000 0.0000 0.0000
vn 0.0000 -1.0000 0.0000
vn 1.0000 0.0000 0.0000
vn 0.0000 0.0000 -1.0000
usemtl Material
s off
f 1/1/1 5/2/1 7/3/1 3/4/1
f 4/5/2 3/4/2 7/6/2 8/7/2
f 8/8/3 7/9/3 5/10/3 6/11/3
f 6/12/4 2/13/4 4/5/4 8/14/4
f 2/13/5 1/1/5 3/4/5 4/5/5
f 6/11/6 5/10/6 1/1/6 2/13/6
o 333
v 4.161966 4.027047 5.426560
v 4.205966 4.022237 5.410201
v 4.212606 3.956798 5.450110
v 4.262855 3.977018 5.435061
v 4.303775 3.996327 5.446540
v 4.189836 4.100576 5.433250
v 4.265565 4.073946 5.450780
v 4.338014 3.942048 5.467640
v 4.163116 4.105346 5.454440
v 4.232215 4.144756 5.471350
v 4.312085 3.922209 5.479590
v 4.167176 3.989488 5.486120
v 4.375104 3.950308 5.487720
v 4.353634 4.027987 5.499459
v 4.159757 4.071396 5.476560
v 4.289615 4.115926 5.492650
v 4.191446 4.141186 5.472920
v 4.221136 3.938658 5.510789
v 4.383754 3.899809 5.509769
v 4.280405 4.156166 5.528219
v 4.227225 4.156886 5.528979
v 4.375743 3.860899 5.536929
v 4.293264 3.909589 5.522089
v 4.180146 4.118646 5.499350
v 4.430493 3.908179 5.546359
v 4.191476 4.054797 5.547029
v 4.351634 4.084247 5.546469
v 4.212986 3.961298 5.550919
v 4.205716 3.997077 5.556019
v 4.411833 3.989318 5.561609
v 4.221015 4.112106 5.566409
v 4.443103 3.798190 5.604949
v 4.439423 3.838350 5.568699
v 4.357944 3.869249 5.603958
v 4.484313 3.832490 5.650708
v 4.270035 3.936638 5.580188
v 4.342024 4.112016 5.607628
v 4.291275 4.137785 5.608088
v 4.469943 3.786220 5.661648
v 4.440113 3.952578 5.623488
v 4.386973 4.042107 5.605038
v 4.467402 3.775511 5.685207
v 4.409653 3.828830 5.658398
v 4.240816 4.004777 5.621918
v 4.261995 4.120666 5.617368
v 4.296735 3.942608 5.658998
v 4.240506 4.076287 5.626058
v 4.260815 4.100566 5.682967
v 4.387904 4.046497 5.674687
v 4.281565 4.122376 5.685237
v 4.328214 4.124307 5.699999
v 4.249152 4.079799 5.699999
v 4.256108 4.106333 5.699999
v 4.334803 3.894303 5.699999
v 4.480061 3.807187 5.699999
v 4.456256 3.786131 5.699999
v 4.325925 4.125468 5.699999
v 4.468449 3.777265 5.699999
v 4.348145 3.877885 5.699999
v 4.381615 4.054993 5.699999
v 4.231923 4.052573 5.699999
v 4.425786 3.985471 5.699999
v 4.426237 3.814079 5.699999
v 4.470017 3.782301 5.699999
v 4.361737 3.867129 5.699999
v 4.460999 3.913123 5.699999
v 4.474054 3.789000 5.699999
v 4.480302 3.848002 5.699999
v 4.288312 3.940270 5.699999
v 4.264459 3.978215 5.699999
v 4.272635 4.122601 5.699999
v 4.278678 4.127605 5.699999
v 4.336410 4.113395 5.699999
v 4.317099 4.124315 5.699999
v 4.438017 3.803409 5.699999
v 4.450188 3.944302 5.699999
v 4.259071 3.984190 5.699999
v 4.231875 4.032212 5.699999
vn -0.8001 -0.1368 -0.5841
vn 0.0355 -0.0758 -0.9965
vn -0.3706 -0.7513 -0.5461
vn 0.1345 -0.4190 -0.8980
vn 0.4592 0.0830 -0.8844
vn -0.1704 0.4706 -0.8657
vn 0.4450 0.3618 -0.8192
vn 0.3216 -0.3484 -0.8804
vn -0.8613 0.4282 -0.2736
vn 0.2010 0.7783 -0.5949
vn -0.0400 -0.7226 -0.6901
vn -0.9005 -0.4011 0.1682
vn 0.6265 0.0016 -0.7794
vn 0.6984 0.3513 -0.6235
vn -0.9794 0.0760 0.1869
vn 0.6037 0.5189 -0.6052
vn -0.4896 0.8277 -0.2741
vn -0.5529 -0.8283 0.0909
vn 0.3888 -0.4336 -0.8129
vn 0.4381 0.8779 -0.1932
vn -0.3920 0.8917 0.2262
vn -0.1970 -0.8163 -0.5430
vn -0.4224 -0.8972 -0.1286
vn -0.8310 0.4427 0.3368
vn 0.8310 0.0947 -0.5482
vn -0.8765 0.0510 0.4786
vn 0.7739 0.5454 -0.3219
vn -0.7251 -0.5289 0.4411
vn -0.8547 -0.1984 0.4798
vn 0.8595 0.4014 -0.3163
vn -0.7639 0.4182 0.4915
vn -0.2576 -0.9172 -0.3038
vn 0.5763 -0.4532 -0.6801
vn -0.6314 -0.7750 0.0282
vn 0.9793 0.0140 -0.2021
vn -0.5997 -0.7330 0.3211
vn 0.6956 0.7175 -0.0370
vn 0.0053 0.9822 0.1878
vn 0.7274 -0.6332 -0.2644
vn 0.9072 0.3951 -0.1443
vn 0.8493 0.5197 -0.0928
vn -0.0392 -0.9972 -0.0636
vn -0.6297 -0.7768 -0.0019
vn -0.8774 -0.3591 0.3183
vn -0.6594 0.6753 0.3305
vn -0.7103 -0.4818 0.5132
vn -0.3189 -0.4056 0.8566
vn -0.7630 -0.6459 0.0273
vn -0.9140 0.2927 0.2808
vn 0.2063 0.7618 0.6140
vn 0.4545 0.5832 0.6733
vn -0.8405 0.5370 -0.0724
vn 0.8307 0.5566 -0.0129
vn -0.4367 0.8926 -0.1123
vn 0.6971 -0.2700 0.6642
vn 0.5948 -0.2871 0.7508
vn 0.6949 -0.1173 0.7095
vn 0.7542 0.1559 0.6379
vn 0.7242 0.2727 0.6334
vn -0.5497 -0.4637 0.6948
vn -0.7347 -0.1284 0.6661
vn 0.5831 0.4270 0.6911
vn 0.5728 0.4235 0.7018
vn -0.2504 0.8601 0.4444
vn -0.1118 0.6052 0.7882
vn -0.6091 0.6076 0.5098
vn -0.6187 -0.4766 0.6246
vn -0.5453 -0.4697 0.6943
vn -0.4637 -0.5625 0.6845
vn -0.4223 -0.5430 0.7258
vn 0.6351 0.3748 0.6754
vn 0.6822 0.2953 0.6689
vn -0.5136 -0.5256 0.6783
vn 0.4899 -0.6131 0.6198
vn -0.5337 -0.4503 0.7158
vn -0.7450 0.1461 0.6508
vn -0.6124 0.3129 0.7260
vn -0.7306 0.4375 0.5242
usemtl mtl1.331
s 1
f 9//7 10//8 11//9
f 12//10 11//9 10//8
f 12//10 10//8 13//11
f 14//12 10//8 9//7
f 13//11 10//8 15//13
f 15//13 10//8 14//12
f 16//14 12//10 13//11
f 9//7 17//15 14//12
f 18//16 15//13 14//12
f 11//9 12//10 19//17
f 9//7 11//9 20//18
f 13//11 21//19 16//14
f 15//13 22//20 13//11
f 17//15 9//7 23//21
f 18//16 24//22 15//13
f 14//12 17//15 25//23
f 25//23 18//16 14//12
f 11//9 26//24 20//18
f 16//14 19//17 12//10
f 27//25 19//17 16//14
f 21//19 27//25 16//14
f 21//19 13//11 22//20
f 22//20 15//13 24//22
f 24//22 18//16 28//26
f 18//16 25//23 29//27
f 19//17 27//25 30//28
f 11//9 31//29 26//24
f 19//17 31//29 11//9
f 20//18 23//21 9//7
f 23//21 32//30 17//15
f 32//30 25//23 17//15
f 28//26 18//16 29//27
f 31//29 19//17 30//28
f 21//19 22//20 33//31
f 20//18 34//32 23//21
f 28//26 35//33 24//22
f 25//23 32//30 29//27
f 21//19 33//31 27//25
f 20//18 26//24 36//34
f 20//18 36//34 37//35
f 37//35 34//32 20//18
f 33//31 22//20 38//36
f 23//21 34//32 32//30
f 22//20 24//22 35//33
f 32//30 39//37 29//27
f 40//38 30//28 41//39
f 41//39 30//28 27//25
f 42//40 30//28 40//38
f 27//25 33//31 41//39
f 33//31 43//41 41//39
f 30//28 42//40 31//29
f 26//24 44//42 36//34
f 31//29 44//42 26//24
f 38//36 22//20 35//33
f 28//26 45//43 35//33
f 28//26 29//27 46//44
f 28//26 46//44 45//43
f 47//45 40//38 41//39
f 41//39 43//41 47//45
f 31//29 42//40 44//42
f 43//41 33//31 48//46
f 38//36 35//33 49//47
f 35//33 45//43 49//47
f 34//32 39//37 32//30
f 47//45 50//48 40//38
f 40//38 51//49 42//40
f 52//50 36//34 44//42
f 33//31 38//36 48//46
f 36//34 52//50 37//35
f 39//37 53//51 29//27
f 29//27 53//51 46//44
f 83//52 50//48 64//53
f 54//54 44//42 42//40
f 48//46 38//36 49//47
f 37//35 52//50 34//32
f 55//55 34//32 52//50
f 34//32 55//55 39//37
f 55//55 53//51 39//37
f 45//43 65//56 59//57
f 44//42 54//54 52//50
f 56//58 53//51 55//55
f 57//59 49//47 45//43
f 58//60 53//51 56//58
f 53//51 58//60 46//44
f 75//61 72//62 47//45
f 63//63 43//41 76//64
f 76//64 43//41 74//65
f 48//46 49//47 57//59
f 85//66 86//67 52//50
f 68//68 57//59 81//69
f 58//60 80//70 82//71
f 58//60 79//72 80//70
f 54//54 85//66 52//50
f 54//54 77//73 78//74
f 48//46 74//65 43//41
f 83//52 51//49 40//38
f 51//49 71//75 73//76
f 48//46 70//77 84//78
f 86//67 55//55 52//50
f 57//59 68//68 70//77
f 51//49 67//79 42//40
f 72//62 50//48 47//45
f 58//60 65//56 46//44
f 50//48 66//80 64//53
f 47//45 63//63 75//61
f 67//79 54//54 42//40
f 54//54 62//81 77//73
f 56//58 79//72 58//60
f 69//82 56//58 55//55
f 56//58 60//83 61//84
f 63//63 76//64 83//52
f 45//43 81//69 57//59
f 83//52 40//38 50//48
f 45//43 46//44 65//56
f 54//54 78//74 85//66
f 48//46 84//78 74//65
f 83//52 71//75 51//49
f 48//46 57//59 70//77
f 86//67 69//82 55//55
f 51//49 73//76 67//79
f 72//62 66//80 50//48
f 58//60 82//71 65//56
f 47//45 43//41 63//63
f 67//79 62//81 54//54
f 56//58 61//84 79//72
f 69//82 60//83 56//58
f 69//82 86//67 60//83
f 86//67 85//66 60//83
f 78//74 77//73 68//68
f 77//73 62//81 70//77
f 85//66 78//74 68//68
f 60//83 85//66 68//68
f 79//72 61//84 82//71
f 61//84 60//83 82//71
f 62//81 67//79 84//78
f 67//79 73//76 84//78
f 77//73 70//77 68//68
f 80//70 79//72 82//71
f 59//57 65//56 82//71
f 62//81 84//78 70//77
f 73//76 71//75 74//65
f 84//78 73//76 74//65
f 59//57 82//71 81//69
f 82//71 60//83 81//69
f 68//68 81//69 60//83
f 71//75 83//52 76//64
f 83//52 64//53 63//63
f 64//53 66//80 72//62
f 72//62 75//61 64//53
f 75//61 63//63 64//53
f 76//64 74//65 71//75
f 45//43 59//57 81//69
