# Blender v2.92.0 OBJ File: 'convert_to_one_sided.blend'
# www.blender.org
mtllib 335L.mtl
o Cube
v 0.001000 0.001000 -0.001000
v 0.001000 -0.001000 -0.001000
v 0.001000 0.001000 0.001000
v 0.001000 -0.001000 0.001000
v -0.001000 0.001000 -0.001000
v -0.001000 -0.001000 -0.001000
v -0.001000 0.001000 0.001000
v -0.001000 -0.001000 0.001000
vt 0.625000 0.500000
vt 0.875000 0.500000
vt 0.875000 0.750000
vt 0.625000 0.750000
vt 0.375000 0.750000
vt 0.625000 1.000000
vt 0.375000 1.000000
vt 0.375000 0.000000
vt 0.625000 0.000000
vt 0.625000 0.250000
vt 0.375000 0.250000
vt 0.125000 0.500000
vt 0.375000 0.500000
vt 0.125000 0.750000
vn 0.0000 1.0000 0.0000
vn 0.0000 0.0000 1.0000
vn -1.0000 0.0000 0.0000
vn 0.0000 -1.0000 0.0000
vn 1.0000 0.0000 0.0000
vn 0.0000 0.0000 -1.0000
usemtl Material
s off
f 1/1/1 5/2/1 7/3/1 3/4/1
f 4/5/2 3/4/2 7/6/2 8/7/2
f 8/8/3 7/9/3 5/10/3 6/11/3
f 6/12/4 2/13/4 4/5/4 8/14/4
f 2/13/5 1/1/5 3/4/5 4/5/5
f 6/11/6 5/10/6 1/1/6 2/13/6
o 335
v 8.852976 4.131917 1.279964
v 8.876176 4.078598 1.290654
v 8.795307 4.149457 1.284224
v 8.883546 4.189306 1.294674
v 8.975434 4.065688 1.293414
v 8.723329 4.213056 1.286444
v 8.723647 4.267095 1.286344
v 8.599890 4.317164 1.290784
v 8.585759 4.381203 1.292154
v 8.464241 4.422263 1.297154
v 8.981665 4.005708 1.303624
v 9.049953 3.993638 1.308234
v 9.087214 3.885430 1.325704
v 8.996634 4.092207 1.307154
v 9.054564 4.041228 1.327254
v 8.797276 4.135627 1.306444
v 8.659808 4.243635 1.310454
v 8.492981 4.365274 1.311074
v 8.732557 4.314024 1.306274
v 8.845476 4.257925 1.328514
v 8.362272 4.452353 1.333824
v 8.376513 4.461353 1.321204
v 8.594629 4.412043 1.315954
v 8.433151 4.487112 1.317424
v 8.337763 4.510952 1.325474
v 9.154332 3.799211 1.340553
v 9.114182 3.911609 1.335403
v 9.181691 3.793911 1.355333
v 9.031294 3.933059 1.329693
v 8.943965 4.017478 1.326874
v 8.959995 4.151217 1.331534
v 8.767027 4.165196 1.329734
v 8.563489 4.313125 1.329444
v 8.456410 4.390604 1.339333
v 8.711678 4.342794 1.325804
v 8.273874 4.536792 1.346403
v 8.264493 4.561681 1.341303
v 8.454721 4.497352 1.342823
v 8.291464 4.566891 1.346313
v 9.202332 3.739121 1.372303
v 9.213691 3.734562 1.376263
v 9.153102 3.793841 1.359253
v 9.204762 3.778941 1.373773
v 9.094683 3.858340 1.353653
v 9.152512 3.881230 1.366033
v 9.050714 3.910510 1.360863
v 9.096023 3.984978 1.356423
v 8.876275 4.080478 1.342333
v 8.920395 4.204146 1.349793
v 8.592690 4.418553 1.340374
v 8.263374 4.538352 1.378443
v 8.349973 4.549321 1.354453
v 8.220034 4.595951 1.368063
v 8.244743 4.605391 1.382193
v 9.223291 3.721362 1.382673
v 9.208921 3.745101 1.390803
v 8.987214 3.988618 1.362073
v 9.027254 4.079517 1.361663
v 8.694669 4.234916 1.339173
v 8.485211 4.393863 1.358463
v 8.758567 4.307865 1.344664
v 8.363572 4.470222 1.366163
v 8.454512 4.488442 1.366683
v 8.192965 4.610641 1.387303
v 8.193824 4.616371 1.381993
v 8.153825 4.635610 1.403093
v 9.146993 3.809421 1.387053
v 8.960485 4.032128 1.374903
v 8.849007 4.145587 1.360883
v 9.115803 3.948179 1.374553
v 8.638268 4.320654 1.353563
v 8.597839 4.398893 1.353303
v 8.341322 4.552981 1.377903
v 8.158245 4.630700 1.397453
v 9.197142 3.753561 1.382373
v 9.166932 3.839540 1.389473
v 8.896356 4.173156 1.378323
v 8.775657 4.231266 1.358313
v 8.901746 4.193146 1.364443
v 8.770226 4.261195 1.358303
v 8.660599 4.344464 1.354063
v 8.536040 4.405593 1.361553
v 8.384071 4.491052 1.381063
v 8.289723 4.534412 1.393563
v 8.334943 4.545331 1.392073
v 8.146646 4.646740 1.398403
v 8.140875 4.632900 1.399873
v 9.199262 3.764831 1.393123
v 9.059983 3.943449 1.384233
v 9.078914 3.972629 1.387973
v 8.975055 4.062508 1.379893
v 8.974535 4.095397 1.372923
v 8.212074 4.598211 1.396843
v 8.238864 4.592781 1.393083
v 9.186882 3.791051 1.396363
v 9.142093 3.852370 1.386273
v 8.290903 4.551971 1.389813
v 8.172424 4.621891 1.390463
v 7.250597 4.912266 1.581060
v 7.259897 4.931306 1.576061
v 7.262547 4.908016 1.587600
v 7.270047 4.906566 1.591650
v 7.258327 4.932756 1.583170
v 7.254056 4.921126 1.588190
v 7.258956 4.941956 1.590270
v 7.249096 4.932996 1.588580
v 7.271496 4.905166 1.590840
v 7.275006 4.905366 1.592680
v 7.278786 4.906946 1.597080
vn -0.0307 -0.0972 -0.9948
vn -0.4180 -0.6219 -0.6622
vn -0.4239 -0.5023 -0.7537
vn 0.3625 0.4035 -0.8401
vn 0.1864 0.0468 -0.9814
vn -0.3710 -0.4005 -0.8378
vn 0.0702 0.1350 -0.9884
vn -0.2542 -0.2840 -0.9245
vn 0.1373 0.3028 -0.9431
vn -0.1905 -0.0678 -0.9793
vn -0.2472 -0.4284 -0.8691
vn 0.3307 0.0482 -0.9425
vn -0.3010 -0.4492 -0.8412
vn 0.5083 0.3906 -0.7675
vn 0.7442 0.4782 -0.4663
vn -0.6274 -0.7619 -0.1609
vn -0.6053 -0.7833 -0.1419
vn -0.5313 -0.6915 -0.4895
vn 0.3713 0.5593 -0.7412
vn 0.5679 0.7654 -0.3028
vn -0.6214 -0.7696 -0.1470
vn -0.4388 -0.3761 -0.8161
vn 0.4189 0.7462 -0.5174
vn 0.1950 0.5694 -0.7986
vn -0.1887 0.0596 -0.9802
vn -0.0530 -0.3487 -0.9358
vn 0.5760 0.1890 -0.7953
vn 0.5855 0.0664 -0.8079
vn -0.6512 -0.6620 -0.3710
vn -0.6550 -0.7506 -0.0869
vn 0.6754 0.6369 -0.3718
vn -0.5584 -0.6671 0.4931
vn -0.4755 -0.7238 0.5000
vn -0.5144 -0.7821 0.3516
vn 0.5348 0.8301 -0.1581
vn -0.6131 -0.4551 -0.6457
vn -0.2923 0.1111 -0.9499
vn 0.4661 0.8799 -0.0929
vn 0.1041 0.6226 -0.7756
vn -0.2104 -0.7476 -0.6299
vn 0.8511 -0.2066 -0.4826
vn -0.7025 -0.6893 -0.1774
vn 0.9436 0.3218 -0.0779
vn -0.7245 -0.6798 -0.1134
vn 0.8795 0.4312 -0.2016
vn -0.7133 -0.6067 0.3510
vn 0.8528 0.4945 -0.1679
vn -0.5965 -0.6359 0.4898
vn 0.6264 0.7311 0.2704
vn 0.5072 0.8133 0.2851
vn -0.6081 -0.7254 0.3225
vn 0.3904 0.8633 -0.3197
vn -0.4592 0.0724 -0.8854
vn 0.3667 0.9303 0.0065
vn 0.1119 -0.8735 0.4737
vn 0.7424 0.0577 0.6675
vn -0.6038 -0.5773 0.5497
vn 0.6830 0.5797 0.4444
vn -0.4058 -0.5075 0.7601
vn -0.2180 -0.4556 0.8631
vn 0.4024 0.6355 0.6589
vn -0.3681 -0.6612 0.6538
vn 0.3832 0.4929 0.7811
vn -0.7574 -0.6295 -0.1734
vn 0.0173 0.7565 -0.6537
vn -0.6059 0.4477 -0.6576
vn -0.5937 -0.4899 0.6384
vn -0.4176 -0.3463 0.8400
vn -0.3381 -0.2942 0.8940
vn 0.7657 0.4799 0.4282
vn -0.1229 -0.2052 0.9710
vn 0.2816 0.3765 0.8826
vn 0.4465 0.7898 0.4205
vn 0.1857 0.9294 0.3191
vn -0.6415 -0.6773 0.3601
vn 0.6200 0.3488 0.7028
vn 0.0335 0.1212 0.9921
vn -0.1853 -0.1379 0.9730
vn 0.3262 0.4397 0.8368
vn 0.0578 0.2021 0.9777
vn 0.1238 0.1568 0.9798
vn 0.0848 0.0073 0.9964
vn 0.0314 -0.1681 0.9853
vn -0.1678 -0.3743 0.9120
vn 0.2105 0.2398 0.9477
vn -0.7292 -0.1003 0.6769
vn -0.2168 0.8228 0.5253
vn -0.2185 -0.3030 0.9276
vn -0.3222 -0.2443 0.9146
vn 0.2167 0.2062 0.9542
vn -0.0715 -0.0028 0.9974
vn 0.2920 0.3012 0.9077
vn -0.2101 -0.2214 0.9523
vn 0.2063 0.4143 0.8864
vn 0.1684 0.0780 0.9826
vn -0.1139 -0.0217 0.9933
vn 0.0560 -0.0062 0.9984
vn 0.1299 0.3024 0.9443
vn 0.3885 0.3664 -0.8455
vn -0.2014 -0.9767 0.0739
vn -0.6967 0.6498 0.3039
vn 0.1784 0.9748 0.1338
vn 0.7613 -0.6150 0.2055
vn 0.9839 0.1359 0.1156
vn 0.1870 -0.7717 0.6078
vn 0.7083 -0.2573 0.6574
vn -0.3676 0.8521 0.3724
vn -0.4678 0.7221 0.5097
vn -0.5037 0.8061 0.3106
usemtl mtl1.333
s 1
f 9//7 10//8 11//9
f 12//10 13//11 9//7
f 11//9 14//12 9//7
f 9//7 14//12 15//13
f 14//12 16//14 15//13
f 12//10 9//7 15//13
f 15//13 16//14 17//15
f 18//16 17//15 16//14
f 19//17 20//18 21//19
f 20//18 19//17 13//11
f 13//11 19//17 9//7
f 19//17 10//8 9//7
f 22//20 20//18 13//11
f 22//20 23//21 20//18
f 10//8 24//22 11//9
f 22//20 13//11 12//10
f 25//23 14//12 24//22
f 24//22 14//12 11//9
f 25//23 16//14 14//12
f 25//23 26//24 16//14
f 12//10 15//13 27//25
f 28//26 12//10 27//25
f 16//14 26//24 18//16
f 15//13 17//15 27//25
f 29//27 30//28 26//24
f 26//24 30//28 18//16
f 31//29 27//25 17//15
f 18//16 32//30 17//15
f 31//29 17//15 32//30
f 18//16 30//28 33//31
f 32//30 18//16 33//31
f 34//32 21//19 35//33
f 36//34 34//32 35//33
f 21//19 37//35 19//17
f 20//18 35//33 21//19
f 37//35 38//36 19//17
f 35//33 20//18 23//21
f 19//17 38//36 10//8
f 10//8 38//36 24//22
f 23//21 22//20 39//37
f 25//23 24//22 40//38
f 22//20 12//10 39//37
f 39//37 12//10 28//26
f 25//23 41//39 26//24
f 26//24 41//39 42//40
f 42//40 29//27 26//24
f 43//41 27//25 31//29
f 30//28 29//27 44//42
f 33//31 30//28 44//42
f 45//43 33//31 44//42
f 31//29 32//30 46//44
f 33//31 47//45 32//30
f 47//45 33//31 45//43
f 48//46 34//32 36//34
f 49//47 48//46 36//34
f 48//46 50//48 34//32
f 51//49 49//47 36//34
f 21//19 50//48 52//50
f 34//32 50//48 21//19
f 36//34 35//33 53//51
f 53//51 51//49 36//34
f 21//19 52//50 37//35
f 54//52 37//35 52//50
f 35//33 55//53 53//51
f 35//33 23//21 55//53
f 24//22 38//36 56//54
f 24//22 56//54 40//38
f 39//37 28//26 57//55
f 28//26 27//25 43//41
f 43//41 31//29 58//56
f 44//42 29//27 59//57
f 31//29 46//44 58//56
f 46//44 32//30 60//58
f 61//59 45//43 44//42
f 32//30 47//45 60//58
f 47//45 45//43 61//59
f 60//58 47//45 62//60
f 48//46 49//47 63//61
f 51//49 64//62 49//47
f 54//52 38//36 37//35
f 56//54 38//36 65//63
f 23//21 66//64 55//53
f 23//21 39//37 66//64
f 67//65 25//23 40//38
f 41//39 25//23 67//65
f 41//39 68//66 42//40
f 28//26 43//41 69//67
f 70//68 29//27 42//40
f 43//41 58//56 69//67
f 58//56 46//44 71//69
f 44//42 59//57 72//70
f 61//59 44//42 72//70
f 61//59 73//71 47//45
f 47//45 73//71 62//60
f 61//59 74//72 73//71
f 49//47 64//62 63//61
f 52//50 50//48 75//73
f 75//73 54//52 52//50
f 54//52 65//63 38//36
f 65//63 76//74 56//54
f 77//75 40//38 56//54
f 66//64 78//76 55//53
f 77//75 67//65 40//38
f 66//64 39//37 57//55
f 67//65 79//77 41//39
f 41//39 79//77 68//66
f 57//55 28//26 69//67
f 42//40 68//66 70//68
f 58//56 80//78 69//67
f 70//68 59//57 29//27
f 80//78 58//56 71//69
f 60//58 81//79 46//44
f 61//59 72//70 74//72
f 60//58 62//60 81//79
f 73//71 74//72 82//80
f 50//48 48//46 83//81
f 83//81 48//46 63//61
f 75//73 50//48 83//81
f 84//82 64//62 51//49
f 51//49 53//51 84//82
f 53//51 78//76 84//82
f 55//53 78//76 53//51
f 56//54 76//74 77//75
f 85//83 86//84 77//75
f 77//75 86//84 67//65
f 66//64 57//55 87//85
f 79//77 67//65 86//84
f 88//86 79//77 86//84
f 87//85 69//67 88//86
f 87//85 57//55 69//67
f 88//86 89//87 79//77
f 69//67 89//87 88//86
f 79//77 90//88 68//66
f 89//87 90//88 79//77
f 69//67 80//78 89//87
f 68//66 91//89 70//68
f 90//88 91//89 68//66
f 80//78 90//88 89//87
f 70//68 92//90 59//57
f 80//78 71//69 90//88
f 93//91 71//69 81//79
f 71//69 46//44 81//79
f 94//92 74//72 72//70
f 74//72 94//92 95//93
f 73//71 82//80 62//60
f 95//93 82//80 74//72
f 63//61 96//94 83//81
f 83//81 96//94 75//73
f 75//73 97//95 54//52
f 54//52 97//95 65//63
f 84//82 78//76 98//96
f 76//74 65//63 97//95
f 97//95 99//97 76//74
f 78//76 66//64 98//96
f 99//97 77//75 76//74
f 98//96 66//64 100//98
f 66//64 87//85 100//98
f 99//97 85//83 77//75
f 100//98 85//83 99//97
f 100//98 87//85 85//83
f 87//85 88//86 85//83
f 85//83 88//86 86//84
f 70//68 91//89 92//90
f 90//88 71//69 91//89
f 71//69 93//91 91//89
f 101//99 72//70 59//57
f 101//99 59//57 92//90
f 72//70 101//99 94//92
f 62//60 82//80 102//100
f 102//100 81//79 62//60
f 96//94 63//61 64//62
f 64//62 103//101 96//94
f 103//101 64//62 84//82
f 75//73 96//94 104//102
f 104//102 97//95 75//73
f 84//82 104//102 103//101
f 104//102 98//96 97//95
f 84//82 98//96 104//102
f 97//95 98//96 99//97
f 98//96 100//98 99//97
f 105//103 92//90 91//89
f 93//91 105//103 91//89
f 102//100 105//103 93//91
f 93//91 81//79 102//100
f 101//99 106//104 94//92
f 94//92 106//104 95//93
f 106//104 102//100 82//80
f 106//104 82//80 95//93
f 103//101 104//102 96//94
f 101//99 92//90 105//103
f 102//100 101//99 105//103
f 102//100 106//104 101//99
f 107//105 108//106 109//107
f 110//108 107//105 109//107
f 111//109 108//106 107//105
f 107//105 112//110 111//109
f 112//110 107//105 110//108
f 109//107 108//106 113//111
f 111//109 113//111 108//106
f 114//112 113//111 111//109
f 112//110 114//112 111//109
f 109//107 115//113 110//108
f 112//110 110//108 114//112
f 116//114 115//113 109//107
f 115//113 117//115 110//108
f 115//113 116//114 117//115
