# wavefront obj file written by the visualization toolkit


v 8419.72 2623.76 5422.06
v 8459.12 2632.2 5425.48
v 8457.52 2567.43 5447.84
v 8426.6 2680.13 5418.06
v 8402.48 2714.04 5427.39
v 8437.82 2718.25 5432.13
v 8482.06 2675.66 5455.18
v 8488.12 2586.75 5477.57
v 8396.18 2599.59 5452.59
v 8373.79 2691.19 5446.1
v 8373.14 2757.9 5455.5
v 8397.91 2770.81 5465.5
v 8443.52 2742.48 5463.6
v 8438.43 2543.37 5490.88
v 8477.82 2536.28 5516.22
v 8343.81 2665.82 5489.06
v 8508.9 2625.7 5636.84
v 8497.18 2689.69 5595.07
v 8345.37 2742.92 5494.52
v 8467.69 2724.92 5535.43
v 8359.83 2780.66 5560.81
v 8475.35 2515.52 5621.88
v 8381.27 2582.53 5508.51
v 8429.6 2533.07 5648.89
v 8427.97 2763.6 5576.38
v 8380.3 2791.77 5683.41
v 8329.96 2637.94 5621.37
v 8321.16 2702.98 5633.93
v 8380.48 2569.52 5702.52
v 8501.26 2552.35 5644.74
v 8334.04 2764.71 5721.95
v 8490.17 2527.64 5647.01
v 8316.89 2669.3 5697.03
v 8468.6 2728.27 5635.28
v 8452.31 2757.19 5755.72
v 8409.94 2788.36 5765.56
v 8323.78 2738.34 5822.08
v 8360.26 2790.15 5802.86
v 8490.31 2697.58 5736.31
v 8469.24 2517.11 5800.42
v 8406.42 2553.84 5845.27
v 8510.54 2570.89 5776.56
v 8490.59 2534.52 5735.17
v 8348.95 2607.45 5806.74
v 8324.43 2673.68 5771.05
v 8502.91 2638.56 5818.94
v 8396.39 2796.88 5824.05
v 8342.86 2767.47 5825.67
v 8488.24 2576.8 5859.95
v 8472.2 2720.73 5869.37
v 8427.11 2774.21 5853.29
v 8451.09 2552.08 5884.98
v 8344.1 2640.75 5888.31
v 8337.87 2700.03 5878.81
v 8368.93 2599.14 5875.02
v 8488.9 2646.74 5894.05
v 8365.32 2682.17 5940.57
v 8370.96 2749.08 5893.49
v 8399.77 2776.11 5865.31
v 8424.83 2586.49 5937.03
v 8383.73 2619.46 5911.64
v 8475.07 2618.57 5933.16
v 8458.25 2680 5938.55
v 8455.51 2591.26 5920.14
v 8422.05 2735.29 5912.52
v 8439.58 2639.3 5948.7
v 8407.73 2663.67 5950.67
v 8425.22 2690.99 5946.2
v 8397.85 2702.1 5928.17
vn -0.287337 -0.227548 -0.930408
vn 0.517669 -0.067122 -0.852944
vn 0.19563 -0.637806 -0.744937
vn 0.079739 0.107302 -0.991024
vn -0.233676 0.277811 -0.931781
vn 0.411628 0.436433 -0.800055
vn 0.892503 0.26626 -0.364066
vn 0.907453 -0.22036 -0.35773
vn -0.620006 -0.506082 -0.599561
vn -0.709427 -0.0359343 -0.703862
vn -0.567431 0.542346 -0.619582
vn 0.157968 0.882399 -0.443191
vn 0.661501 0.687823 -0.298857
vn -0.31301 -0.893989 -0.320638
vn 0.633237 -0.721534 -0.28
vn -0.914468 -0.199723 -0.351937
vn 0.996787 0.0634606 -0.048869
vn 0.910883 0.409483 -0.0511506
vn -0.907276 0.296507 -0.298219
vn 0.779919 0.620093 -0.0849132
vn -0.507528 0.851103 -0.134305
vn 0.229155 -0.97152 -0.0603035
vn -0.733182 -0.652567 -0.191311
vn -0.491039 -0.870682 -0.0281666
vn 0.564578 0.822832 -0.0648103
vn 0.0983647 0.993122 -0.0635018
vn -0.909246 -0.413055 -0.0515436
vn -0.994217 0.0876457 -0.062061
vn -0.702771 -0.711343 -0.0102311
vn 0.945989 -0.317651 -0.0648246
vn -0.855783 0.5169 -0.0212065
vn 0.784369 -0.619212 -0.0366451
vn -0.987334 -0.156754 0.0245037
vn 0.770683 0.636594 -0.0282194
vn 0.730243 0.683185 -0.00200963
vn 0.480128 0.876619 -0.0318987
vn -0.944189 0.263595 0.19755
vn -0.459893 0.869109 0.182067
vn 0.913002 0.407215 0.0245516
vn 0.223895 -0.953854 0.200083
vn -0.539608 -0.805245 0.245769
vn 0.962068 -0.253377 0.101121
vn 0.778005 -0.621237 0.0936618
vn -0.836475 -0.542412 0.07809
vn -0.979868 -0.1756 0.0949953
vn 0.984671 0.122035 0.124622
vn 0.121757 0.977534 0.172051
vn -0.741691 0.622483 0.249818
vn 0.8397 -0.430631 0.33085
vn 0.827586 0.501371 0.252447
vn 0.528021 0.803513 0.274883
vn 0.252377 -0.819506 0.514506
vn -0.868835 -0.346472 0.353671
vn -0.929852 0.116195 0.349104
vn -0.671718 -0.643203 0.36754
vn 0.947806 0.106364 0.300584
vn -0.579024 0.0974425 0.809466
vn -0.478465 0.629986 0.61171
vn -0.0516217 0.853908 0.517858
vn -0.181476 -0.586694 0.789213
vn -0.581396 -0.521581 0.624445
vn 0.691178 -0.23353 0.683913
vn 0.614781 0.338931 0.712159
vn 0.467891 -0.548344 0.693107
vn 0.209564 0.688464 0.694334
vn 0.231202 -0.133648 0.963682
vn -0.262581 -0.000798126 0.96491
vn 0.0264572 0.375381 0.926493
vn -0.188009 0.510991 0.838773

g grp1
usemtl mtl1
f 1//1 2//2 3//3 
f 2//2 1//1 4//4 
f 1//1 5//5 4//4 
f 2//2 4//4 6//6 
f 7//7 2//2 6//6 
f 4//4 5//5 6//6 
f 3//3 2//2 8//8 
f 3//3 9//9 1//1 
f 9//9 10//10 1//1 
f 7//7 8//8 2//2 
f 1//1 10//10 5//5 
f 5//5 10//10 11//11 
f 5//5 12//12 6//6 
f 5//5 11//11 12//12 
f 6//6 12//12 13//13 
f 6//6 13//13 7//7 
f 14//14 3//3 15//15 
f 15//15 3//3 8//8 
f 3//3 14//14 9//9 
f 9//9 16//16 10//10 
f 7//7 17//17 8//8 
f 18//18 17//17 7//7 
f 19//19 10//10 16//16 
f 18//18 7//7 20//20 
f 10//10 19//19 11//11 
f 13//13 20//20 7//7 
f 11//11 19//19 21//21 
f 11//11 21//21 12//12 
f 14//14 15//15 22//22 
f 9//9 14//14 23//23 
f 23//23 14//14 24//24 
f 9//9 23//23 16//16 
f 25//25 13//13 12//12 
f 21//21 26//26 12//12 
f 25//25 12//12 26//26 
f 24//24 14//14 22//22 
f 23//23 27//27 16//16 
f 28//28 16//16 27//27 
f 19//19 16//16 28//28 
f 25//25 20//20 13//13 
f 24//24 29//29 23//23 
f 8//8 17//17 30//30 
f 21//21 19//19 31//31 
f 22//22 15//15 32//32 
f 30//30 32//32 15//15 
f 15//15 8//8 30//30 
f 23//23 29//29 27//27 
f 27//27 33//33 28//28 
f 25//25 34//34 20//20 
f 19//19 28//28 31//31 
f 20//20 34//34 18//18 
f 25//25 35//35 34//34 
f 25//25 26//26 36//36 
f 28//28 37//37 31//31 
f 38//38 21//21 31//31 
f 35//35 25//25 36//36 
f 21//21 38//38 26//26 
f 34//34 39//39 18//18 
f 40//40 24//24 22//22 
f 41//41 24//24 40//40 
f 41//41 29//29 24//24 
f 30//30 17//17 42//42 
f 17//17 18//18 39//39 
f 22//22 43//43 40//40 
f 32//32 43//43 22//22 
f 41//41 44//44 29//29 
f 29//29 44//44 27//27 
f 27//27 45//45 33//33 
f 33//33 45//45 28//28 
f 45//45 37//37 28//28 
f 43//43 32//32 30//30 
f 30//30 42//42 43//43 
f 42//42 17//17 46//46 
f 27//27 44//44 45//45 
f 26//26 38//38 47//47 
f 26//26 47//47 36//36 
f 31//31 48//48 38//38 
f 17//17 39//39 46//46 
f 34//34 35//35 39//39 
f 31//31 37//37 48//48 
f 43//43 49//49 40//40 
f 50//50 46//46 39//39 
f 35//35 36//36 51//51 
f 36//36 47//47 51//51 
f 40//40 52//52 41//41 
f 43//43 42//42 49//49 
f 45//45 44//44 53//53 
f 45//45 54//54 37//37 
f 39//39 35//35 50//50 
f 51//51 50//50 35//35 
f 52//52 40//40 49//49 
f 55//55 44//44 41//41 
f 44//44 55//55 53//53 
f 53//53 54//54 45//45 
f 56//56 46//46 50//50 
f 42//42 46//46 49//49 
f 49//49 46//46 56//56 
f 57//57 54//54 53//53 
f 37//37 54//54 58//58 
f 37//37 58//58 48//48 
f 48//48 58//58 38//38 
f 51//51 47//47 59//59 
f 47//47 38//38 59//59 
f 60//60 41//41 52//52 
f 41//41 61//61 55//55 
f 60//60 61//61 41//41 
f 49//49 56//56 62//62 
f 61//61 53//53 55//55 
f 61//61 57//57 53//53 
f 56//56 63//63 62//62 
f 52//52 49//49 64//64 
f 60//60 52//52 64//64 
f 49//49 62//62 64//64 
f 57//57 58//58 54//54 
f 63//63 56//56 50//50 
f 50//50 65//65 63//63 
f 51//51 65//65 50//50 
f 38//38 58//58 59//59 
f 51//51 59//59 65//65 
f 64//64 66//66 60//60 
f 61//61 60//60 67//67 
f 67//67 60//60 66//66 
f 64//64 62//62 66//66 
f 61//61 67//67 57//57 
f 62//62 63//63 66//66 
f 66//66 63//63 68//68 
f 67//67 69//69 57//57 
f 57//57 69//69 58//58 
f 63//63 65//65 68//68 
f 69//69 68//68 65//65 
f 65//65 58//58 69//69 
f 65//65 59//59 58//58 
f 67//67 66//66 68//68 
f 67//67 68//68 69//69 
