# Blender v2.92.0 OBJ File: 'convert_to_one_sided.blend'
# www.blender.org
mtllib 338L.mtl
o Cube
v 0.001000 0.001000 -0.001000
v 0.001000 -0.001000 -0.001000
v 0.001000 0.001000 0.001000
v 0.001000 -0.001000 0.001000
v -0.001000 0.001000 -0.001000
v -0.001000 -0.001000 -0.001000
v -0.001000 0.001000 0.001000
v -0.001000 -0.001000 0.001000
vt 0.625000 0.500000
vt 0.875000 0.500000
vt 0.875000 0.750000
vt 0.625000 0.750000
vt 0.375000 0.750000
vt 0.625000 1.000000
vt 0.375000 1.000000
vt 0.375000 0.000000
vt 0.625000 0.000000
vt 0.625000 0.250000
vt 0.375000 0.250000
vt 0.125000 0.500000
vt 0.375000 0.500000
vt 0.125000 0.750000
vn 0.0000 1.0000 0.0000
vn 0.0000 0.0000 1.0000
vn -1.0000 0.0000 0.0000
vn 0.0000 -1.0000 0.0000
vn 1.0000 0.0000 0.0000
vn 0.0000 0.0000 -1.0000
usemtl Material
s off
f 1/1/1 5/2/1 7/3/1 3/4/1
f 4/5/2 3/4/2 7/6/2 8/7/2
f 8/8/3 7/9/3 5/10/3 6/11/3
f 6/12/4 2/13/4 4/5/4 8/14/4
f 2/13/5 1/1/5 3/4/5 4/5/5
f 6/11/6 5/10/6 1/1/6 2/13/6
o 338
v 5.980953 3.156878 5.581519
v 5.958653 3.221417 5.555469
v 5.979843 3.221258 5.568249
v 5.948023 3.284617 5.550979
v 5.924694 3.248557 5.580359
v 5.907724 3.318396 5.553099
v 5.905624 3.367606 5.547089
v 5.968623 3.306366 5.574119
v 5.917714 3.384796 5.567659
v 5.838815 3.416865 5.548089
v 5.840585 3.437165 5.546849
v 5.834655 3.481424 5.558739
v 5.784905 3.492984 5.547079
v 5.792475 3.470214 5.553679
v 5.751736 3.537663 5.560109
v 5.775086 3.523684 5.558279
v 5.769466 3.569363 5.580989
v 5.731786 3.579703 5.580049
v 5.844525 3.388885 5.587139
v 5.780025 3.482734 5.589368
v 5.744026 3.543113 5.609378
v 5.855675 3.493784 5.598388
v 5.718436 3.590613 5.616048
v 5.728686 3.610943 5.606658
v 5.986653 3.122349 5.676867
v 5.951503 3.191948 5.641698
v 5.992113 3.176368 5.670907
v 5.987933 3.276687 5.644178
v 5.889714 3.292107 5.677618
v 5.937953 3.382476 5.624378
v 5.716956 3.609993 5.653218
v 5.780986 3.582043 5.630598
v 5.732086 3.623172 5.699677
v 5.797325 3.447855 5.683687
v 5.873534 3.491864 5.663668
v 5.952953 3.371346 5.694837
v 5.737729 3.551913 5.699999
v 5.987819 3.124599 5.699999
v 5.734747 3.621406 5.699999
v 5.732146 3.623148 5.699999
v 5.732099 3.623124 5.699999
v 5.986202 3.124381 5.699999
v 5.969638 3.153853 5.699999
v 5.882196 3.306108 5.699999
v 5.958891 3.352992 5.699999
v 5.952567 3.369891 5.699999
v 5.758452 3.515589 5.699999
v 5.809456 3.428442 5.699999
v 5.793532 3.454287 5.699999
v 5.903874 3.268981 5.699999
v 5.732026 3.623034 5.699999
v 5.735307 3.556431 5.699999
v 5.991138 3.156064 5.699999
v 5.995198 3.175564 5.699999
v 5.719778 3.606017 5.699999
v 5.807789 3.566694 5.699999
v 5.877385 3.486636 5.699999
v 5.942065 3.206949 5.699999
v 5.989465 3.262908 5.699999
v 5.793361 3.581681 5.699999
v 5.943155 3.386374 5.699999
v 5.991131 3.217599 5.699999
v 5.733868 3.561977 5.699999
vn 0.0275 -0.7411 -0.6708
vn -0.1183 -0.2855 -0.9511
vn 0.8274 -0.0348 -0.5606
vn 0.3919 0.0974 -0.9148
vn -0.7889 -0.4875 -0.3741
vn -0.4024 -0.2750 -0.8732
vn 0.2823 0.1680 -0.9445
vn 0.8377 0.3186 -0.4436
vn 0.6954 0.4418 -0.5667
vn -0.5020 -0.4011 -0.7663
vn 0.0669 0.0834 -0.9943
vn 0.4600 0.4386 -0.7720
vn -0.2835 -0.0623 -0.9569
vn -0.7502 -0.4924 -0.4413
vn -0.7529 -0.2045 -0.6255
vn 0.0799 0.3498 -0.9334
vn 0.3925 0.6336 -0.6667
vn -0.6446 0.2834 -0.7101
vn -0.8066 -0.5359 -0.2495
vn -0.8499 -0.5165 -0.1041
vn -0.8921 -0.4351 -0.1220
vn 0.7191 0.5994 -0.3516
vn -0.9733 -0.1573 -0.1671
vn -0.0807 0.8913 -0.4461
vn -0.1008 -0.9866 -0.1283
vn -0.8293 -0.5500 -0.0989
vn 0.9785 -0.1523 -0.1393
vn 0.9706 0.2226 -0.0916
vn -0.8611 -0.5067 -0.0419
vn 0.8518 0.4912 -0.1820
vn -0.9203 0.3758 -0.1090
vn 0.6049 0.7693 -0.2057
vn -0.1350 0.9908 -0.0037
vn -0.8569 -0.5148 -0.0240
vn 0.7844 0.6121 -0.1006
vn 0.8953 0.4443 0.0320
vn 0.5916 -0.0954 0.8006
vn 0.3774 -0.5629 0.7353
vn 0.6803 -0.0366 0.7320
vn 0.6479 0.0645 0.7590
vn 0.6498 0.2175 0.7283
vn 0.7079 0.1202 0.6960
vn -0.6956 -0.1408 0.7045
vn -0.7954 0.0495 0.6040
vn -0.5927 -0.3612 0.7199
vn -0.6182 -0.3647 0.6963
vn -0.6273 -0.3556 0.6929
vn -0.5916 -0.3414 0.7304
vn 0.5989 0.2610 0.7571
vn 0.6012 0.3715 0.7075
vn 0.5431 0.5238 0.6563
vn 0.5696 0.4327 0.6988
vn -0.5326 -0.4949 0.6866
vn -0.6658 -0.3190 0.6745
vn -0.5941 -0.3598 0.7194
vn -0.4593 -0.3345 0.8229
vn -0.1033 -0.7355 0.6696
vn -0.5120 0.3948 0.7629
vn -0.4173 0.5192 0.7458
vn 0.1433 0.7896 0.5966
vn 0.4850 0.5707 0.6626
vn 0.4297 0.6263 0.6505
vn -0.5662 -0.3821 0.7303
usemtl mtl1.336
s 1
f 9//7 10//8 11//9
f 12//10 11//9 10//8
f 13//11 14//12 10//8
f 10//8 14//12 12//10
f 12//10 14//12 15//13
f 16//14 11//9 12//10
f 16//14 12//10 17//15
f 17//15 12//10 15//13
f 14//12 18//16 19//17
f 15//13 14//12 19//17
f 15//13 19//17 20//18
f 20//18 17//15 15//13
f 21//19 18//16 22//20
f 19//17 18//16 21//19
f 23//21 21//19 22//20
f 19//17 21//19 24//22
f 25//23 20//18 24//22
f 24//22 20//18 19//17
f 21//19 23//21 24//22
f 24//22 23//21 26//24
f 10//8 9//7 13//11
f 27//25 14//12 13//11
f 18//16 14//12 27//25
f 27//25 22//20 18//16
f 23//21 28//26 29//27
f 23//21 22//20 28//26
f 20//18 25//23 30//28
f 31//29 26//24 29//27
f 26//24 23//21 29//27
f 24//22 26//24 25//23
f 25//23 26//24 32//30
f 9//7 33//31 34//32
f 9//7 11//9 35//33
f 13//11 9//7 34//32
f 35//33 11//9 36//34
f 37//35 27//25 13//11
f 11//9 16//14 36//34
f 16//14 17//15 38//36
f 27//25 28//26 22//20
f 17//15 20//18 30//28
f 26//24 31//29 39//37
f 26//24 39//37 32//30
f 9//7 35//33 33//31
f 37//35 13//11 34//32
f 17//15 30//28 38//36
f 30//28 25//23 40//38
f 32//30 39//37 41//39
f 32//30 40//38 25//23
f 16//14 38//36 36//34
f 27//25 42//40 28//26
f 30//28 43//41 38//36
f 41//39 40//38 32//30
f 38//36 43//41 44//42
f 44//42 36//34 38//36
f 42//40 29//27 28//26
f 43//41 30//28 40//38
f 33//31 61//43 46//44
f 62//45 61//43 35//33
f 62//45 35//33 70//46
f 36//34 53//47 67//48
f 37//35 42//40 27//25
f 71//49 63//50 39//37
f 52//51 37//35 58//52
f 55//53 42//40 57//54
f 53//47 44//42 54//55
f 36//34 70//46 35//33
f 43//41 69//56 44//42
f 40//38 64//57 43//41
f 43//41 64//57 65//58
f 60//59 39//37 31//29
f 63//50 41//39 39//37
f 66//60 37//35 34//32
f 42//40 56//61 57//54
f 44//42 69//56 54//55
f 37//35 56//61 42//40
f 34//32 51//62 66//60
f 33//31 50//63 51//62
f 41//39 59//64 49//65
f 41//39 49//65 48//66
f 41//39 68//67 40//38
f 41//39 48//66 47//68
f 45//69 68//67 71//49
f 33//31 46//44 50//63
f 29//27 55//53 45//69
f 29//27 60//59 31//29
f 33//31 35//33 61//43
f 36//34 44//42 53//47
f 36//34 67//48 70//46
f 43//41 65//58 69//56
f 40//38 68//67 64//57
f 60//59 71//49 39//37
f 63//50 59//64 41//39
f 66//60 58//52 37//35
f 37//35 52//51 56//61
f 34//32 33//31 51//62
f 41//39 47//68 68//67
f 55//53 57//54 64//57
f 57//54 56//61 65//58
f 64//57 57//54 65//58
f 52//51 58//52 53//47
f 58//52 66//60 67//48
f 53//47 58//52 67//48
f 56//61 52//51 69//56
f 69//56 52//51 54//55
f 60//59 45//69 71//49
f 45//69 55//53 64//57
f 59//64 63//50 47//68
f 63//50 71//49 47//68
f 45//69 64//57 68//67
f 66//60 51//62 62//45
f 51//62 50//63 61//43
f 50//63 46//44 61//43
f 61//43 62//45 51//62
f 62//45 70//46 66//60
f 70//46 67//48 66//60
f 53//47 54//55 52//51
f 69//56 65//58 56//61
f 68//67 47//68 71//49
f 47//68 48//66 59//64
f 48//66 49//65 59//64
f 29//27 42//40 55//53
f 29//27 45//69 60//59
