# Blender v2.92.0 OBJ File: 'convert_to_one_sided.blend'
# www.blender.org
mtllib 338L.mtl
o 338
v 5.980953 3.156878 5.581519
v 5.958653 3.221417 5.555469
v 5.979843 3.221258 5.568249
v 5.948023 3.284617 5.550979
v 5.924694 3.248557 5.580359
v 5.907724 3.318396 5.553099
v 5.905624 3.367606 5.547089
v 5.968623 3.306366 5.574119
v 5.917714 3.384796 5.567659
v 5.838815 3.416865 5.548089
v 5.840585 3.437165 5.546849
v 5.834655 3.481424 5.558739
v 5.784905 3.492984 5.547079
v 5.792475 3.470214 5.553679
v 5.751736 3.537663 5.560109
v 5.775086 3.523684 5.558279
v 5.769466 3.569363 5.580989
v 5.731786 3.579703 5.580049
v 5.844525 3.388885 5.587139
v 5.780025 3.482734 5.589368
v 5.744026 3.543113 5.609378
v 5.855675 3.493784 5.598388
v 5.718436 3.590613 5.616048
v 5.728686 3.610943 5.606658
v 5.986653 3.122349 5.676867
v 5.951503 3.191948 5.641698
v 5.992113 3.176368 5.670907
v 5.987933 3.276687 5.644178
v 5.889714 3.292107 5.677618
v 5.937953 3.382476 5.624378
v 5.716956 3.609993 5.653218
v 5.780986 3.582043 5.630598
v 5.732086 3.623172 5.699677
v 5.797325 3.447855 5.683687
v 5.873534 3.491864 5.663668
v 5.952953 3.371346 5.694837
v 5.737729 3.551913 5.699999
v 5.987819 3.124599 5.699999
v 5.734747 3.621406 5.699999
v 5.732146 3.623148 5.699999
v 5.732099 3.623124 5.699999
v 5.986202 3.124381 5.699999
v 5.969638 3.153853 5.699999
v 5.882196 3.306108 5.699999
v 5.958891 3.352992 5.699999
v 5.952567 3.369891 5.699999
v 5.758452 3.515589 5.699999
v 5.809456 3.428442 5.699999
v 5.793532 3.454287 5.699999
v 5.903874 3.268981 5.699999
v 5.732026 3.623034 5.699999
v 5.735307 3.556431 5.699999
v 5.991138 3.156064 5.699999
v 5.995198 3.175564 5.699999
v 5.719778 3.606017 5.699999
v 5.807789 3.566694 5.699999
v 5.877385 3.486636 5.699999
v 5.942065 3.206949 5.699999
v 5.989465 3.262908 5.699999
v 5.793361 3.581681 5.699999
v 5.943155 3.386374 5.699999
v 5.991131 3.217599 5.699999
v 5.733868 3.561977 5.699999
vn 0.0275 -0.7411 -0.6708
vn -0.1183 -0.2855 -0.9511
vn 0.8274 -0.0348 -0.5606
vn 0.3919 0.0974 -0.9148
vn -0.7889 -0.4875 -0.3741
vn -0.4024 -0.2750 -0.8732
vn 0.2823 0.1680 -0.9445
vn 0.8377 0.3186 -0.4436
vn 0.6954 0.4418 -0.5667
vn -0.5020 -0.4011 -0.7663
vn 0.0669 0.0834 -0.9943
vn 0.4600 0.4386 -0.7720
vn -0.2835 -0.0623 -0.9569
vn -0.7502 -0.4924 -0.4413
vn -0.7529 -0.2045 -0.6255
vn 0.0799 0.3498 -0.9334
vn 0.3925 0.6336 -0.6667
vn -0.6446 0.2834 -0.7101
vn -0.8066 -0.5359 -0.2495
vn -0.8499 -0.5165 -0.1041
vn -0.8921 -0.4351 -0.1220
vn 0.7191 0.5994 -0.3516
vn -0.9733 -0.1573 -0.1671
vn -0.0807 0.8913 -0.4461
vn -0.1008 -0.9866 -0.1283
vn -0.8293 -0.5500 -0.0989
vn 0.9785 -0.1523 -0.1393
vn 0.9706 0.2226 -0.0916
vn -0.8611 -0.5067 -0.0419
vn 0.8518 0.4912 -0.1820
vn -0.9203 0.3758 -0.1090
vn 0.6049 0.7693 -0.2057
vn -0.1350 0.9908 -0.0037
vn -0.8569 -0.5148 -0.0240
vn 0.7844 0.6121 -0.1006
vn 0.8953 0.4443 0.0320
vn 0.5916 -0.0954 0.8006
vn 0.3774 -0.5629 0.7353
vn 0.6803 -0.0366 0.7320
vn 0.6479 0.0645 0.7590
vn 0.6498 0.2175 0.7283
vn 0.7079 0.1202 0.6960
vn -0.6956 -0.1408 0.7045
vn -0.7954 0.0495 0.6040
vn -0.5927 -0.3612 0.7199
vn -0.6182 -0.3647 0.6963
vn -0.6273 -0.3556 0.6929
vn -0.5916 -0.3414 0.7304
vn 0.5989 0.2610 0.7571
vn 0.6012 0.3715 0.7075
vn 0.5431 0.5238 0.6563
vn 0.5696 0.4327 0.6988
vn -0.5326 -0.4949 0.6866
vn -0.6658 -0.3190 0.6745
vn -0.5941 -0.3598 0.7194
vn -0.4593 -0.3345 0.8229
vn -0.1033 -0.7355 0.6696
vn -0.5120 0.3948 0.7629
vn -0.4173 0.5192 0.7458
vn 0.1433 0.7896 0.5966
vn 0.4850 0.5707 0.6626
vn 0.4297 0.6263 0.6505
vn -0.5662 -0.3821 0.7303
usemtl mtl1.1187
s 1
f 1//1 2//2 3//3
f 4//4 3//3 2//2
f 5//5 6//6 2//2
f 2//2 6//6 4//4
f 4//4 6//6 7//7
f 8//8 3//3 4//4
f 8//8 4//4 9//9
f 9//9 4//4 7//7
f 6//6 10//10 11//11
f 7//7 6//6 11//11
f 7//7 11//11 12//12
f 12//12 9//9 7//7
f 13//13 10//10 14//14
f 11//11 10//10 13//13
f 15//15 13//13 14//14
f 11//11 13//13 16//16
f 17//17 12//12 16//16
f 16//16 12//12 11//11
f 13//13 15//15 16//16
f 16//16 15//15 18//18
f 2//2 1//1 5//5
f 19//19 6//6 5//5
f 10//10 6//6 19//19
f 19//19 14//14 10//10
f 15//15 20//20 21//21
f 15//15 14//14 20//20
f 12//12 17//17 22//22
f 23//23 18//18 21//21
f 18//18 15//15 21//21
f 16//16 18//18 17//17
f 17//17 18//18 24//24
f 1//1 25//25 26//26
f 1//1 3//3 27//27
f 5//5 1//1 26//26
f 27//27 3//3 28//28
f 29//29 19//19 5//5
f 3//3 8//8 28//28
f 8//8 9//9 30//30
f 19//19 20//20 14//14
f 9//9 12//12 22//22
f 18//18 23//23 31//31
f 18//18 31//31 24//24
f 1//1 27//27 25//25
f 29//29 5//5 26//26
f 9//9 22//22 30//30
f 22//22 17//17 32//32
f 24//24 31//31 33//33
f 24//24 32//32 17//17
f 8//8 30//30 28//28
f 19//19 34//34 20//20
f 22//22 35//35 30//30
f 33//33 32//32 24//24
f 30//30 35//35 36//36
f 36//36 28//28 30//30
f 34//34 21//21 20//20
f 35//35 22//22 32//32
f 25//25 53//37 38//38
f 54//39 53//37 27//27
f 54//39 27//27 62//40
f 28//28 45//41 59//42
f 29//29 34//34 19//19
f 63//43 55//44 31//31
f 44//45 29//29 50//46
f 47//47 34//34 49//48
f 45//41 36//36 46//49
f 28//28 62//40 27//27
f 35//35 61//50 36//36
f 32//32 56//51 35//35
f 35//35 56//51 57//52
f 52//53 31//31 23//23
f 55//44 33//33 31//31
f 58//54 29//29 26//26
f 34//34 48//55 49//48
f 36//36 61//50 46//49
f 29//29 48//55 34//34
f 26//26 43//56 58//54
f 25//25 42//57 43//56
f 33//33 51//58 41//59
f 33//33 41//59 40//60
f 33//33 60//61 32//32
f 33//33 40//60 39//62
f 37//63 60//61 63//43
f 25//25 38//38 42//57
f 21//21 47//47 37//63
f 21//21 52//53 23//23
f 25//25 27//27 53//37
f 28//28 36//36 45//41
f 28//28 59//42 62//40
f 35//35 57//52 61//50
f 32//32 60//61 56//51
f 52//53 63//43 31//31
f 55//44 51//58 33//33
f 58//54 50//46 29//29
f 29//29 44//45 48//55
f 26//26 25//25 43//56
f 33//33 39//62 60//61
f 47//47 49//48 56//51
f 49//48 48//55 57//52
f 56//51 49//48 57//52
f 44//45 50//46 45//41
f 50//46 58//54 59//42
f 45//41 50//46 59//42
f 48//55 44//45 61//50
f 61//50 44//45 46//49
f 52//53 37//63 63//43
f 37//63 47//47 56//51
f 51//58 55//44 39//62
f 55//44 63//43 39//62
f 37//63 56//51 60//61
f 58//54 43//56 54//39
f 43//56 42//57 53//37
f 42//57 38//38 53//37
f 53//37 54//39 43//56
f 54//39 62//40 58//54
f 62//40 59//42 58//54
f 45//41 46//49 44//45
f 61//50 57//52 48//55
f 60//61 39//62 63//43
f 39//62 40//60 51//58
f 40//60 41//59 51//58
f 21//21 34//34 47//47
f 21//21 37//63 52//53
