# Blender v2.92.0 OBJ File: 'convert_to_one_sided.blend'
# www.blender.org
mtllib 347L.mtl
o Cube
v 0.001000 0.001000 -0.001000
v 0.001000 -0.001000 -0.001000
v 0.001000 0.001000 0.001000
v 0.001000 -0.001000 0.001000
v -0.001000 0.001000 -0.001000
v -0.001000 -0.001000 -0.001000
v -0.001000 0.001000 0.001000
v -0.001000 -0.001000 0.001000
vt 0.625000 0.500000
vt 0.875000 0.500000
vt 0.875000 0.750000
vt 0.625000 0.750000
vt 0.375000 0.750000
vt 0.625000 1.000000
vt 0.375000 1.000000
vt 0.375000 0.000000
vt 0.625000 0.000000
vt 0.625000 0.250000
vt 0.375000 0.250000
vt 0.125000 0.500000
vt 0.375000 0.500000
vt 0.125000 0.750000
vn 0.0000 1.0000 0.0000
vn 0.0000 0.0000 1.0000
vn -1.0000 0.0000 0.0000
vn 0.0000 -1.0000 0.0000
vn 1.0000 0.0000 0.0000
vn 0.0000 0.0000 -1.0000
usemtl Material
s off
f 1/1/1 5/2/1 7/3/1 3/4/1
f 4/5/2 3/4/2 7/6/2 8/7/2
f 8/8/3 7/9/3 5/10/3 6/11/3
f 6/12/4 2/13/4 4/5/4 8/14/4
f 2/13/5 1/1/5 3/4/5 4/5/5
f 6/11/6 5/10/6 1/1/6 2/13/6
o 347
v 5.837695 6.639404 5.404981
v 5.766506 6.650563 5.407511
v 5.790106 6.707313 5.422731
v 5.850445 6.542545 5.414341
v 5.820425 6.483505 5.422281
v 5.801685 6.581864 5.413961
v 5.919683 6.467286 5.432001
v 5.940864 6.613994 5.427791
v 5.775046 6.521715 5.433971
v 5.734127 6.646934 5.434741
v 5.909094 6.685593 5.429571
v 5.715766 6.701663 5.459440
v 5.872815 6.712933 5.438641
v 5.734276 6.721613 5.473381
v 5.794305 6.719852 5.452171
v 5.860085 6.326498 5.447561
v 5.939034 6.285418 5.446631
v 5.911604 6.211469 5.452241
v 5.987713 6.387197 5.445111
v 6.042112 6.318818 5.451081
v 6.027112 6.510076 5.445601
v 5.723927 6.537615 5.470531
v 5.703007 6.638063 5.473091
v 6.021242 6.661553 5.451691
v 5.978213 6.697823 5.460771
v 6.077362 6.720743 5.490890
v 5.854235 6.708443 5.471370
v 6.005513 6.056551 5.472220
v 6.145511 6.034981 5.479870
v 5.995993 6.002801 5.506580
v 6.109851 6.001822 5.503210
v 5.992423 6.175779 5.457611
v 5.895324 6.184959 5.475511
v 6.094701 6.180439 5.465210
v 6.207500 6.175100 5.479421
v 6.132411 6.376127 5.466171
v 6.240610 6.308898 5.497730
v 5.791265 6.343437 5.495520
v 6.110381 6.584064 5.467051
v 6.175811 6.498385 5.487131
v 6.108372 6.690083 5.484530
v 5.960903 6.693172 5.509070
v 5.704877 6.707853 5.508570
v 5.791836 6.703692 5.514150
v 6.007733 5.984162 5.522130
v 5.914304 6.074161 5.512030
v 6.221230 6.018892 5.504330
v 6.256890 6.061061 5.502400
v 6.274089 6.151330 5.504140
v 5.847615 6.169650 5.523479
v 6.302809 6.172259 5.526630
v 6.214450 6.507616 5.511860
v 5.699447 6.544835 5.512530
v 6.160611 6.629654 5.500020
v 5.700877 6.640094 5.509570
v 5.873994 6.683043 5.528780
v 6.054252 6.719182 5.507170
v 6.120981 6.734972 5.529860
v 6.137501 6.707733 5.517400
v 5.967003 5.985052 5.531710
v 6.083992 5.989392 5.525420
v 6.186360 6.006712 5.523410
v 6.262710 6.031921 5.526260
v 6.294389 6.091381 5.531390
v 6.273749 6.282568 5.527480
v 6.247509 6.372107 5.524050
v 5.733716 6.437226 5.517560
v 6.184570 6.637284 5.530700
v 5.727226 6.707723 5.530860
v 5.996202 5.989202 5.539289
v 5.944073 6.015461 5.533659
v 6.128031 6.010062 5.553219
v 5.884604 6.079811 5.545410
v 6.313829 6.106040 5.541209
v 6.294969 6.221389 5.543709
v 5.802375 6.245289 5.548170
v 5.760826 6.345347 5.546900
v 6.251290 6.360267 5.548420
v 6.225530 6.465296 5.536400
v 6.205350 6.569994 5.536170
v 5.724806 6.442876 5.546770
v 5.706017 6.578894 5.545700
v 6.194030 6.626354 5.544340
v 6.236840 6.025321 5.544110
v 6.288069 6.068511 5.545090
v 5.842875 6.160470 5.558289
v 6.301439 6.133500 5.546439
v 5.710607 6.670773 5.532330
v 5.927814 6.662733 5.562419
v 6.033712 6.693593 5.555939
v 5.838735 6.679883 5.556959
v 5.779876 6.683553 5.562939
v 6.068491 6.716582 5.532610
v 6.165781 6.671793 5.542019
v 5.931593 6.037991 5.559800
v 5.878574 6.100311 5.565059
v 5.804445 6.253668 5.574559
v 5.779766 6.298628 5.563529
v 5.757966 6.360227 5.566420
v 6.202960 6.559394 5.548420
v 5.743386 6.521085 5.576749
v 5.737506 6.639644 5.556269
v 6.104581 6.694013 5.556280
v 6.018652 6.021401 5.564029
v 6.134821 6.032362 5.573169
v 6.219210 6.037241 5.557260
v 5.890994 6.109720 5.577409
v 6.208740 6.089631 5.567929
v 6.247719 6.255589 5.564089
v 5.855934 6.164060 5.571509
v 6.205180 6.484536 5.568329
v 6.165700 6.619494 5.558529
v 5.861585 6.653284 5.581399
v 6.024602 6.106010 5.577309
v 5.861364 6.230399 5.586309
v 6.115131 6.271139 5.582419
v 5.965163 6.337757 5.592049
v 6.161860 6.458346 5.579789
v 5.857655 6.384147 5.597039
v 5.802185 6.376337 5.582259
v 6.023293 6.489655 5.593379
v 5.899604 6.461976 5.600229
v 5.819065 6.499035 5.595849
v 6.113832 6.564555 5.574549
v 5.799365 6.599164 5.580069
v 5.988553 6.623274 5.575259
v 5.897884 6.555115 5.587309
vn 0.0686 0.0790 -0.9945
vn -0.3268 0.0380 -0.9443
vn -0.1761 0.6087 -0.7737
vn 0.0621 -0.0993 -0.9931
vn -0.1447 -0.1651 -0.9756
vn -0.1642 -0.1347 -0.9772
vn 0.0932 -0.0892 -0.9916
vn 0.2092 0.0254 -0.9775
vn -0.4988 -0.2316 -0.8352
vn -0.6581 0.0356 -0.7521
vn 0.2086 0.4097 -0.8880
vn -0.7859 0.3891 -0.4806
vn 0.1384 0.9461 -0.2927
vn -0.2291 0.9694 -0.0880
vn 0.0426 0.9984 -0.0381
vn -0.3297 -0.2141 -0.9195
vn 0.0205 -0.0706 -0.9973
vn -0.2087 -0.2710 -0.9397
vn 0.0978 -0.0434 -0.9943
vn 0.1064 -0.0420 -0.9934
vn 0.1775 0.0007 -0.9841
vn -0.7601 -0.2406 -0.6036
vn -0.9188 -0.0135 -0.3946
vn 0.2348 0.2696 -0.9339
vn 0.0723 0.8673 -0.4925
vn 0.1707 0.7548 -0.6333
vn 0.0966 0.9611 0.2586
vn -0.1693 -0.2881 -0.9425
vn 0.1029 -0.3431 -0.9337
vn -0.2666 -0.5868 -0.7646
vn 0.0792 -0.8199 -0.5670
vn -0.0276 -0.1847 -0.9824
vn -0.4711 -0.3395 -0.8141
vn 0.1042 -0.0661 -0.9924
vn 0.2509 -0.0234 -0.9677
vn 0.2419 0.0162 -0.9702
vn 0.5782 0.1205 -0.8069
vn -0.7155 -0.3354 -0.6129
vn 0.3319 0.0979 -0.9382
vn 0.4425 0.1042 -0.8907
vn 0.4082 0.3459 -0.8448
vn -0.1049 0.9542 0.2803
vn -0.8300 0.5283 0.1787
vn 0.1133 0.9360 0.3333
vn -0.0178 -0.9640 -0.2654
vn -0.5811 -0.4565 -0.6738
vn 0.3075 -0.7286 -0.6121
vn 0.4834 -0.2576 -0.8366
vn 0.5476 -0.0256 -0.8364
vn -0.7835 -0.3992 -0.4762
vn 0.9171 0.1089 -0.3835
vn 0.8328 0.2074 -0.5132
vn -0.9820 -0.1508 -0.1140
vn 0.5919 0.2389 -0.7698
vn -0.9934 0.0846 0.0771
vn 0.1048 0.9166 0.3858
vn -0.2162 0.9763 -0.0035
vn 0.2386 0.9454 0.2221
vn 0.6764 0.5647 -0.4729
vn -0.4124 -0.9042 -0.1110
vn 0.1126 -0.9887 0.0988
vn 0.2254 -0.9739 0.0247
vn 0.6472 -0.7422 -0.1741
vn 0.7813 -0.3174 -0.5374
vn 0.9178 0.2586 -0.3014
vn 0.9357 0.2267 -0.2704
vn -0.8728 -0.3330 -0.3569
vn 0.8592 0.3899 -0.3312
vn -0.3128 0.7134 0.6271
vn -0.1390 -0.8026 0.5800
vn -0.6985 -0.7126 -0.0657
vn 0.1109 -0.7687 0.6299
vn -0.8134 -0.5804 -0.0395
vn 0.9737 -0.2066 0.0965
vn 0.9021 0.1891 0.3879
vn -0.9045 -0.4140 -0.1024
vn -0.9241 -0.3627 -0.1202
vn 0.9033 0.2293 0.3625
vn 0.9753 0.2182 0.0336
vn 0.9772 0.2115 -0.0168
vn -0.9322 -0.2359 0.2744
vn -0.8341 0.0235 0.5511
vn 0.9035 0.3347 0.2678
vn 0.3410 -0.7763 0.5302
vn 0.6360 -0.4605 0.6192
vn -0.8630 -0.4379 0.2520
vn 0.6408 0.0228 0.7673
vn -0.7593 0.2072 0.6169
vn 0.0300 0.7509 0.6597
vn -0.1255 0.6605 0.7403
vn 0.1222 0.8490 0.5142
vn -0.0987 0.5778 0.8102
vn -0.1890 0.8445 0.5010
vn 0.6899 0.4899 0.5330
vn -0.3985 -0.5529 0.7318
vn -0.6670 -0.4472 0.5960
vn -0.6486 -0.3005 0.6993
vn -0.8969 -0.3727 0.2380
vn -0.7493 -0.2292 0.6213
vn 0.7819 0.2118 0.5863
vn -0.4593 -0.0021 0.8883
vn -0.4277 0.1916 0.8834
vn 0.1247 0.4139 0.9017
vn -0.0620 -0.4423 0.8947
vn 0.0751 -0.3423 0.9366
vn 0.2408 -0.4305 0.8699
vn -0.2978 -0.2586 0.9189
vn 0.1815 -0.0760 0.9805
vn 0.3636 0.0458 0.9304
vn -0.5341 -0.2768 0.7988
vn 0.4502 0.1376 0.8822
vn 0.3859 0.2216 0.8955
vn 0.0383 0.3985 0.9164
vn -0.0058 -0.1053 0.9944
vn -0.1772 -0.1060 0.9784
vn 0.0856 -0.0292 0.9959
vn 0.0328 -0.0500 0.9982
vn 0.1598 0.0477 0.9860
vn -0.1029 -0.0559 0.9931
vn -0.2920 -0.0810 0.9530
vn 0.0657 0.0667 0.9956
vn 0.0113 0.0358 0.9993
vn -0.1330 0.0423 0.9902
vn 0.1333 0.1365 0.9816
vn -0.1644 0.1350 0.9771
vn 0.0497 0.2443 0.9684
vn 0.0108 0.1197 0.9928
usemtl mtl1.343
s 1
f 9//7 10//8 11//9
f 12//10 13//11 14//12
f 12//10 14//12 9//7
f 15//13 12//10 16//14
f 13//11 17//15 14//12
f 16//14 12//10 9//7
f 9//7 14//12 10//8
f 14//12 17//15 10//8
f 10//8 17//15 18//16
f 10//8 18//16 11//9
f 16//14 9//7 19//17
f 11//9 18//16 20//18
f 11//9 19//17 9//7
f 11//9 21//19 19//17
f 22//20 11//9 20//18
f 21//19 11//9 23//21
f 24//22 25//23 26//24
f 15//13 25//23 24//22
f 27//25 28//26 25//23
f 17//15 13//11 24//22
f 15//13 24//22 13//11
f 27//25 25//23 15//13
f 15//13 13//11 12//10
f 27//25 15//13 29//27
f 29//27 15//13 16//14
f 17//15 30//28 18//16
f 31//29 18//16 30//28
f 29//27 16//14 32//30
f 19//17 32//30 16//14
f 18//16 31//29 20//18
f 33//31 19//17 21//19
f 32//30 19//17 33//31
f 34//32 32//30 33//31
f 11//9 22//20 23//21
f 21//19 23//21 35//33
f 36//34 37//35 38//36
f 38//36 37//35 39//37
f 40//38 36//34 41//39
f 37//35 36//34 42//40
f 42//40 36//34 40//38
f 43//41 37//35 42//40
f 40//38 41//39 26//24
f 40//38 26//24 25//23
f 28//26 40//38 25//23
f 42//40 40//38 28//26
f 43//41 42//40 44//42
f 45//43 43//41 44//42
f 42//40 28//26 44//42
f 26//24 41//39 24//22
f 41//39 46//44 24//22
f 24//22 46//44 17//15
f 28//26 27//25 29//27
f 44//42 28//26 29//27
f 17//15 46//44 30//28
f 44//42 29//27 47//45
f 48//46 44//42 47//45
f 29//27 32//30 47//45
f 47//45 32//30 49//47
f 35//33 50//48 21//19
f 33//31 21//19 50//48
f 49//47 32//30 34//32
f 20//18 51//49 22//20
f 52//50 35//33 23//21
f 53//51 38//36 39//37
f 36//34 54//52 41//39
f 36//34 38//36 54//52
f 55//53 39//37 37//35
f 56//54 55//53 37//35
f 43//41 56//54 37//35
f 56//54 43//41 57//55
f 58//56 41//39 54//52
f 57//55 43//41 45//43
f 59//57 57//55 45//43
f 58//56 46//44 41//39
f 44//42 48//46 45//43
f 48//46 60//58 45//43
f 31//29 30//28 61//59
f 62//60 60//58 48//46
f 48//46 47//45 62//60
f 63//61 31//29 61//59
f 31//29 63//61 20//18
f 47//45 49//47 62//60
f 64//62 50//48 35//33
f 34//32 33//31 65//63
f 33//31 50//48 65//63
f 22//20 52//50 23//21
f 34//32 65//63 66//64
f 67//65 49//47 34//32
f 62//60 49//47 67//65
f 68//66 38//36 53//51
f 39//37 69//67 53//51
f 69//67 39//37 70//68
f 55//53 70//68 39//37
f 55//53 71//69 70//68
f 56//54 71//69 55//53
f 56//54 72//70 71//69
f 56//54 57//55 72//70
f 59//57 72//70 57//55
f 59//57 45//43 73//71
f 73//71 45//43 74//72
f 46//44 75//73 30//28
f 74//72 45//43 60//58
f 30//28 75//73 61//59
f 60//58 62//60 76//74
f 52//50 64//62 35//33
f 63//61 51//49 20//18
f 22//20 51//49 77//75
f 22//20 77//75 52//50
f 67//65 34//32 66//64
f 76//74 62//60 67//65
f 53//51 78//76 68//66
f 53//51 69//67 78//76
f 54//52 38//36 79//77
f 79//77 38//36 68//66
f 70//68 80//78 69//67
f 54//52 81//79 58//56
f 72//70 59//57 82//80
f 59//57 73//71 83//81
f 46//44 58//56 84//82
f 46//44 84//82 85//83
f 86//84 73//71 74//72
f 46//44 85//83 75//73
f 74//72 60//58 87//85
f 88//86 87//85 60//58
f 75//73 89//87 61//59
f 89//87 90//88 61//59
f 76//74 88//86 60//58
f 91//89 88//86 76//74
f 69//67 80//78 78//76
f 54//52 79//77 81//79
f 70//68 92//90 80//78
f 70//68 71//69 92//90
f 93//91 71//69 72//70
f 72//70 82//80 93//91
f 81//79 94//92 58//56
f 94//92 84//82 58//56
f 82//80 59//57 95//93
f 59//57 83//81 95//93
f 73//71 86//84 83//81
f 85//83 89//87 75//73
f 74//72 87//85 86//84
f 61//59 90//88 63//61
f 63//61 90//88 96//94
f 50//48 64//62 97//95
f 50//48 97//95 98//96
f 63//61 96//94 51//49
f 64//62 52//50 99//97
f 96//94 77//75 51//49
f 100//98 99//97 52//50
f 65//63 50//48 101//99
f 66//64 65//63 101//99
f 91//89 76//74 102//100
f 77//75 100//98 52//50
f 67//65 66//64 102//100
f 102//100 76//74 67//65
f 103//101 79//77 78//76
f 78//76 79//77 68//66
f 71//69 93//91 92//90
f 103//101 81//79 79//77
f 104//102 81//79 103//101
f 93//91 82//80 95//93
f 81//79 104//102 94//92
f 94//92 105//103 84//82
f 84//82 105//103 106//104
f 84//82 106//104 85//83
f 106//104 107//105 85//83
f 85//83 107//105 89//87
f 86//84 87//85 108//106
f 89//87 109//107 90//88
f 88//86 108//106 87//85
f 88//86 91//89 108//106
f 99//97 97//95 64//62
f 91//89 102//100 108//106
f 50//48 98//96 101//99
f 96//94 110//108 77//75
f 110//108 100//98 77//75
f 101//99 111//109 66//64
f 111//109 102//100 66//64
f 78//76 80//78 112//110
f 78//76 112//110 103//101
f 112//110 80//78 113//111
f 113//111 80//78 114//112
f 80//78 92//90 114//112
f 104//102 103//101 115//113
f 93//91 114//112 92//90
f 114//112 93//91 116//114
f 95//93 116//114 93//91
f 117//115 116//114 95//93
f 104//102 118//116 94//92
f 94//92 118//116 105//103
f 117//115 95//93 83//81
f 117//115 83//81 86//84
f 107//105 109//107 89//87
f 86//84 119//117 117//115
f 86//84 108//106 119//117
f 120//118 119//117 108//106
f 90//88 110//108 96//94
f 110//108 90//88 109//107
f 99//97 121//119 97//95
f 108//106 102//100 120//118
f 99//97 100//98 121//119
f 111//109 101//99 98//96
f 102//100 111//109 120//118
f 115//113 103//101 122//120
f 103//101 112//110 122//120
f 113//111 122//120 112//110
f 116//114 113//111 114//112
f 122//120 123//121 115//113
f 116//114 122//120 113//111
f 124//122 122//120 116//114
f 104//102 115//113 118//116
f 123//121 118//116 115//113
f 116//114 117//115 124//122
f 122//120 125//123 123//121
f 124//122 125//123 122//120
f 105//103 118//116 123//121
f 124//122 117//115 126//124
f 127//125 123//121 125//123
f 107//105 106//104 105//103
f 107//105 105//103 128//126
f 128//126 105//103 123//121
f 124//122 129//127 125//123
f 124//122 126//124 129//127
f 117//115 119//117 126//124
f 109//107 107//105 128//126
f 129//127 130//128 125//123
f 127//125 130//128 131//129
f 131//129 109//107 128//126
f 128//126 127//125 131//129
f 126//124 132//130 129//127
f 119//117 132//130 126//124
f 131//129 133//131 109//107
f 110//108 109//107 133//131
f 119//117 120//118 132//130
f 132//130 134//132 129//127
f 134//132 97//95 121//119
f 98//96 97//95 134//132
f 121//119 100//98 133//131
f 111//109 98//96 134//132
f 132//130 111//109 134//132
f 120//118 111//109 132//130
f 133//131 100//98 110//108
f 128//126 123//121 127//125
f 125//123 130//128 127//125
f 131//129 130//128 135//133
f 133//131 131//129 135//133
f 130//128 129//127 135//133
f 129//127 134//132 135//133
f 134//132 121//119 135//133
f 135//133 121//119 133//131
