# Blender v2.92.0 OBJ File: 'convert_to_one_sided.blend'
# www.blender.org
mtllib 350L.mtl
o 350
v 10.643264 4.600750 4.652291
v 10.593264 4.598350 4.648241
v 10.602564 4.658439 4.653961
v 10.615764 4.572590 4.675361
v 10.557864 4.647569 4.694981
v 10.584463 4.730708 4.679720
v 10.697263 4.614590 4.686280
v 10.659763 4.709528 4.684700
v 10.705962 4.694849 4.718800
v 10.612463 4.751348 4.681361
v 10.671563 4.574030 4.696780
v 10.573864 4.787237 4.717061
v 10.602564 4.801407 4.705470
v 10.635863 4.559010 4.729830
v 10.570463 4.588730 4.724780
v 10.537964 4.622250 4.729930
v 10.716962 4.638989 4.726960
v 10.638463 4.815787 4.724740
v 10.684362 4.594970 4.743880
v 10.533464 4.657689 4.735220
v 10.714962 4.694209 4.739440
v 10.550364 4.718858 4.752660
v 10.682563 4.756858 4.743380
v 10.617963 4.853117 4.756960
v 10.584564 4.819607 4.768069
v 10.645163 4.846236 4.769449
v 10.595764 4.591500 4.771500
v 10.641963 4.585120 4.761549
v 10.552164 4.636549 4.747250
v 10.698063 4.698349 4.754770
v 10.575864 4.792067 4.788379
v 10.615764 4.854066 4.787779
v 10.638663 4.860666 4.786180
v 10.657662 4.767978 4.786180
v 10.635063 4.662579 4.784480
v 10.575264 4.704738 4.781410
v 10.669962 4.681219 4.765359
v 10.601264 4.703959 4.789179
v 10.614763 4.768568 4.789689
v 10.632363 4.818267 4.783679
vn 0.3159 -0.2910 -0.9030
vn -0.4493 -0.3534 -0.8205
vn -0.1677 0.1866 -0.9680
vn -0.2918 -0.8510 -0.4366
vn -0.8414 -0.0823 -0.5340
vn -0.5074 0.2841 -0.8135
vn 0.8208 -0.2407 -0.5180
vn 0.5106 0.3066 -0.8033
vn 0.8288 0.2743 -0.4878
vn 0.1019 0.3716 -0.9228
vn 0.5170 -0.8025 -0.2977
vn -0.7960 0.4306 -0.4254
vn -0.2004 0.5700 -0.7969
vn 0.0523 -0.9650 0.2568
vn -0.6631 -0.7471 0.0467
vn -0.9035 -0.4243 0.0607
vn 0.9741 -0.1768 0.1408
vn 0.4689 0.5562 -0.6861
vn 0.6643 -0.4878 0.5664
vn -0.9927 0.0252 0.1182
vn 0.9535 0.2297 0.1952
vn -0.9617 0.1682 0.2163
vn 0.8941 0.4430 -0.0656
vn -0.2104 0.9096 -0.3583
vn -0.8412 0.5359 0.0716
vn 0.7851 0.6096 -0.1097
vn -0.3138 -0.4757 0.8217
vn 0.2600 -0.5485 0.7947
vn -0.7068 -0.2629 0.6567
vn 0.6899 0.0172 0.7237
vn -0.6384 0.1784 0.7487
vn -0.3335 0.5344 0.7766
vn 0.3787 0.6643 0.6445
vn 0.5582 0.0872 0.8251
vn 0.2610 -0.1491 0.9537
vn -0.5087 -0.0716 0.8580
vn 0.4881 -0.1451 0.8606
vn -0.1386 -0.0726 0.9877
vn -0.0107 0.0225 0.9997
vn 0.1145 0.0676 0.9911
usemtl mtl1.1198
s 1
f 1//1 2//2 3//3
f 2//2 1//1 4//4
f 2//2 5//5 3//3
f 6//6 3//3 5//5
f 7//7 1//1 8//8
f 8//8 9//9 7//7
f 1//1 3//3 8//8
f 8//8 3//3 10//10
f 10//10 3//3 6//6
f 4//4 5//5 2//2
f 11//11 4//4 1//1
f 1//1 7//7 11//11
f 12//12 6//6 5//5
f 10//10 6//6 13//13
f 11//11 14//14 4//4
f 5//5 15//15 16//16
f 4//4 15//15 5//5
f 17//17 7//7 9//9
f 13//13 6//6 12//12
f 13//13 18//18 10//10
f 8//8 10//10 18//18
f 19//19 14//14 11//11
f 11//11 7//7 19//19
f 16//16 20//20 5//5
f 17//17 9//9 21//21
f 22//22 5//5 20//20
f 5//5 22//22 12//12
f 23//23 21//21 9//9
f 8//8 23//23 9//9
f 13//13 12//12 24//24
f 13//13 24//24 18//18
f 8//8 18//18 23//23
f 4//4 14//14 15//15
f 7//7 17//17 19//19
f 12//12 25//25 24//24
f 18//18 26//26 23//23
f 26//26 18//18 24//24
f 14//14 27//27 15//15
f 14//14 28//28 27//27
f 16//16 15//15 29//29
f 29//29 20//20 16//16
f 19//19 17//17 30//30
f 17//17 21//21 30//30
f 12//12 22//22 25//25
f 14//14 19//19 28//28
f 15//15 27//27 29//29
f 30//30 21//21 23//23
f 22//22 31//31 25//25
f 24//24 25//25 32//32
f 24//24 32//32 33//33
f 26//26 24//24 33//33
f 29//29 22//22 20//20
f 23//23 34//34 30//30
f 25//25 31//31 32//32
f 26//26 33//33 34//34
f 34//34 23//23 26//26
f 27//27 28//28 35//35
f 19//19 35//35 28//28
f 27//27 36//36 29//29
f 19//19 30//30 37//37
f 35//35 19//19 37//37
f 29//29 36//36 22//22
f 30//30 34//34 37//37
f 22//22 36//36 31//31
f 38//38 27//27 35//35
f 36//36 27//27 38//38
f 35//35 37//37 34//34
f 38//38 39//39 36//36
f 35//35 39//39 38//38
f 35//35 34//34 39//39
f 31//31 36//36 39//39
f 34//34 40//40 39//39
f 32//32 31//31 39//39
f 40//40 33//33 32//32
f 40//40 34//34 33//33
f 40//40 32//32 39//39
