# Blender v2.92.0 OBJ File: 'convert_to_one_sided.blend'
# www.blender.org
mtllib 350L.mtl
o Cube
v 0.001000 0.001000 -0.001000
v 0.001000 -0.001000 -0.001000
v 0.001000 0.001000 0.001000
v 0.001000 -0.001000 0.001000
v -0.001000 0.001000 -0.001000
v -0.001000 -0.001000 -0.001000
v -0.001000 0.001000 0.001000
v -0.001000 -0.001000 0.001000
vt 0.625000 0.500000
vt 0.875000 0.500000
vt 0.875000 0.750000
vt 0.625000 0.750000
vt 0.375000 0.750000
vt 0.625000 1.000000
vt 0.375000 1.000000
vt 0.375000 0.000000
vt 0.625000 0.000000
vt 0.625000 0.250000
vt 0.375000 0.250000
vt 0.125000 0.500000
vt 0.375000 0.500000
vt 0.125000 0.750000
vn 0.0000 1.0000 0.0000
vn 0.0000 0.0000 1.0000
vn -1.0000 0.0000 0.0000
vn 0.0000 -1.0000 0.0000
vn 1.0000 0.0000 0.0000
vn 0.0000 0.0000 -1.0000
usemtl Material
s off
f 1/1/1 5/2/1 7/3/1 3/4/1
f 4/5/2 3/4/2 7/6/2 8/7/2
f 8/8/3 7/9/3 5/10/3 6/11/3
f 6/12/4 2/13/4 4/5/4 8/14/4
f 2/13/5 1/1/5 3/4/5 4/5/5
f 6/11/6 5/10/6 1/1/6 2/13/6
o 350
v 10.643264 4.600750 4.652291
v 10.593264 4.598350 4.648241
v 10.602564 4.658439 4.653961
v 10.615764 4.572590 4.675361
v 10.557864 4.647569 4.694981
v 10.584463 4.730708 4.679720
v 10.697263 4.614590 4.686280
v 10.659763 4.709528 4.684700
v 10.705962 4.694849 4.718800
v 10.612463 4.751348 4.681361
v 10.671563 4.574030 4.696780
v 10.573864 4.787237 4.717061
v 10.602564 4.801407 4.705470
v 10.635863 4.559010 4.729830
v 10.570463 4.588730 4.724780
v 10.537964 4.622250 4.729930
v 10.716962 4.638989 4.726960
v 10.638463 4.815787 4.724740
v 10.684362 4.594970 4.743880
v 10.533464 4.657689 4.735220
v 10.714962 4.694209 4.739440
v 10.550364 4.718858 4.752660
v 10.682563 4.756858 4.743380
v 10.617963 4.853117 4.756960
v 10.584564 4.819607 4.768069
v 10.645163 4.846236 4.769449
v 10.595764 4.591500 4.771500
v 10.641963 4.585120 4.761549
v 10.552164 4.636549 4.747250
v 10.698063 4.698349 4.754770
v 10.575864 4.792067 4.788379
v 10.615764 4.854066 4.787779
v 10.638663 4.860666 4.786180
v 10.657662 4.767978 4.786180
v 10.635063 4.662579 4.784480
v 10.575264 4.704738 4.781410
v 10.669962 4.681219 4.765359
v 10.601264 4.703959 4.789179
v 10.614763 4.768568 4.789689
v 10.632363 4.818267 4.783679
vn 0.3159 -0.2910 -0.9030
vn -0.4493 -0.3534 -0.8205
vn -0.1677 0.1866 -0.9680
vn -0.2918 -0.8510 -0.4366
vn -0.8414 -0.0823 -0.5340
vn -0.5074 0.2841 -0.8135
vn 0.8208 -0.2407 -0.5180
vn 0.5106 0.3066 -0.8033
vn 0.8288 0.2743 -0.4878
vn 0.1019 0.3716 -0.9228
vn 0.5170 -0.8025 -0.2977
vn -0.7960 0.4306 -0.4254
vn -0.2004 0.5700 -0.7969
vn 0.0523 -0.9650 0.2568
vn -0.6631 -0.7471 0.0467
vn -0.9035 -0.4243 0.0607
vn 0.9741 -0.1768 0.1408
vn 0.4689 0.5562 -0.6861
vn 0.6643 -0.4878 0.5664
vn -0.9927 0.0252 0.1182
vn 0.9535 0.2297 0.1952
vn -0.9617 0.1682 0.2163
vn 0.8941 0.4430 -0.0656
vn -0.2104 0.9096 -0.3583
vn -0.8412 0.5359 0.0716
vn 0.7851 0.6096 -0.1097
vn -0.3138 -0.4757 0.8217
vn 0.2600 -0.5485 0.7947
vn -0.7068 -0.2629 0.6567
vn 0.6899 0.0172 0.7237
vn -0.6384 0.1784 0.7487
vn -0.3335 0.5344 0.7766
vn 0.3787 0.6643 0.6445
vn 0.5582 0.0872 0.8251
vn 0.2610 -0.1491 0.9537
vn -0.5087 -0.0716 0.8580
vn 0.4881 -0.1451 0.8606
vn -0.1386 -0.0726 0.9877
vn -0.0107 0.0225 0.9997
vn 0.1145 0.0676 0.9911
usemtl mtl1.347
s 1
f 9//7 10//8 11//9
f 10//8 9//7 12//10
f 10//8 13//11 11//9
f 14//12 11//9 13//11
f 15//13 9//7 16//14
f 16//14 17//15 15//13
f 9//7 11//9 16//14
f 16//14 11//9 18//16
f 18//16 11//9 14//12
f 12//10 13//11 10//8
f 19//17 12//10 9//7
f 9//7 15//13 19//17
f 20//18 14//12 13//11
f 18//16 14//12 21//19
f 19//17 22//20 12//10
f 13//11 23//21 24//22
f 12//10 23//21 13//11
f 25//23 15//13 17//15
f 21//19 14//12 20//18
f 21//19 26//24 18//16
f 16//14 18//16 26//24
f 27//25 22//20 19//17
f 19//17 15//13 27//25
f 24//22 28//26 13//11
f 25//23 17//15 29//27
f 30//28 13//11 28//26
f 13//11 30//28 20//18
f 31//29 29//27 17//15
f 16//14 31//29 17//15
f 21//19 20//18 32//30
f 21//19 32//30 26//24
f 16//14 26//24 31//29
f 12//10 22//20 23//21
f 15//13 25//23 27//25
f 20//18 33//31 32//30
f 26//24 34//32 31//29
f 34//32 26//24 32//30
f 22//20 35//33 23//21
f 22//20 36//34 35//33
f 24//22 23//21 37//35
f 37//35 28//26 24//22
f 27//25 25//23 38//36
f 25//23 29//27 38//36
f 20//18 30//28 33//31
f 22//20 27//25 36//34
f 23//21 35//33 37//35
f 38//36 29//27 31//29
f 30//28 39//37 33//31
f 32//30 33//31 40//38
f 32//30 40//38 41//39
f 34//32 32//30 41//39
f 37//35 30//28 28//26
f 31//29 42//40 38//36
f 33//31 39//37 40//38
f 34//32 41//39 42//40
f 42//40 31//29 34//32
f 35//33 36//34 43//41
f 27//25 43//41 36//34
f 35//33 44//42 37//35
f 27//25 38//36 45//43
f 43//41 27//25 45//43
f 37//35 44//42 30//28
f 38//36 42//40 45//43
f 30//28 44//42 39//37
f 46//44 35//33 43//41
f 44//42 35//33 46//44
f 43//41 45//43 42//40
f 46//44 47//45 44//42
f 43//41 47//45 46//44
f 43//41 42//40 47//45
f 39//37 44//42 47//45
f 42//40 48//46 47//45
f 40//38 39//37 47//45
f 48//46 41//39 40//38
f 48//46 42//40 41//39
f 48//46 40//38 47//45
