# Blender v2.92.0 OBJ File: 'convert_to_one_sided.blend'
# www.blender.org
mtllib 358L.mtl
o Cube
v 0.001000 0.001000 -0.001000
v 0.001000 -0.001000 -0.001000
v 0.001000 0.001000 0.001000
v 0.001000 -0.001000 0.001000
v -0.001000 0.001000 -0.001000
v -0.001000 -0.001000 -0.001000
v -0.001000 0.001000 0.001000
v -0.001000 -0.001000 0.001000
vt 0.625000 0.500000
vt 0.875000 0.500000
vt 0.875000 0.750000
vt 0.625000 0.750000
vt 0.375000 0.750000
vt 0.625000 1.000000
vt 0.375000 1.000000
vt 0.375000 0.000000
vt 0.625000 0.000000
vt 0.625000 0.250000
vt 0.375000 0.250000
vt 0.125000 0.500000
vt 0.375000 0.500000
vt 0.125000 0.750000
vn 0.0000 1.0000 0.0000
vn 0.0000 0.0000 1.0000
vn -1.0000 0.0000 0.0000
vn 0.0000 -1.0000 0.0000
vn 1.0000 0.0000 0.0000
vn 0.0000 0.0000 -1.0000
usemtl Material
s off
f 1/1/1 5/2/1 7/3/1 3/4/1
f 4/5/2 3/4/2 7/6/2 8/7/2
f 8/8/3 7/9/3 5/10/3 6/11/3
f 6/12/4 2/13/4 4/5/4 8/14/4
f 2/13/5 1/1/5 3/4/5 4/5/5
f 6/11/6 5/10/6 1/1/6 2/13/6
o 358
v 10.684662 4.689849 4.831079
v 10.623163 4.651819 4.834439
v 10.644863 4.750828 4.835968
v 10.583764 4.724908 4.842878
v 10.616764 4.807327 4.847679
v 10.681263 4.613060 4.866328
v 10.605364 4.590720 4.879158
v 10.725862 4.701088 4.872188
v 10.558664 4.648529 4.871658
v 10.567364 4.809527 4.890608
v 10.540864 4.716928 4.885938
v 10.705563 4.784837 4.875298
v 10.633663 4.859036 4.877968
v 10.666763 4.836517 4.881978
v 10.653763 4.572930 4.913158
v 10.544164 4.599060 4.923928
v 10.735062 4.654119 4.917678
v 10.749762 4.734628 4.922467
v 10.743762 4.790728 4.939807
v 10.661363 4.884416 4.910038
v 10.603463 4.579480 4.947237
v 10.700862 4.601799 4.942917
v 10.521564 4.673479 4.923578
v 10.526065 4.747138 4.928577
v 10.622264 4.874266 4.912768
v 10.544865 4.806178 4.972207
v 10.611963 4.875376 4.956667
v 10.697362 4.863807 4.950547
v 10.651763 4.884616 4.944017
v 10.546964 4.608670 4.987707
v 10.519964 4.651350 4.967957
v 10.734861 4.671919 4.990107
v 10.523765 4.718998 4.978157
v 10.658162 4.587270 4.969487
v 10.745562 4.752348 4.986517
v 10.731961 4.824747 4.996637
v 10.685163 4.640189 5.022486
v 10.659863 4.882626 4.998137
v 10.605463 4.612609 5.008057
v 10.613264 4.850007 5.024046
v 10.563065 4.640959 5.035286
v 10.540164 4.678179 5.018036
v 10.577864 4.765188 5.039676
v 10.703262 4.856367 5.026726
v 10.711962 4.716778 5.048216
v 10.718962 4.798557 5.039866
v 10.667163 4.857927 5.044956
v 10.667362 4.671089 5.064976
v 10.619864 4.658409 5.053326
v 10.597464 4.696669 5.060496
v 10.642763 4.818607 5.060936
v 10.678163 4.814727 5.062726
v 10.657563 4.711528 5.072676
v 10.644962 4.765308 5.065085
v 10.682162 4.761598 5.056276
vn 0.4212 -0.0469 -0.9058
vn -0.1468 -0.2812 -0.9484
vn 0.1269 0.2155 -0.9682
vn -0.4886 0.0888 -0.8680
vn -0.1419 0.3901 -0.9098
vn 0.5023 -0.6017 -0.6210
vn -0.2334 -0.7840 -0.5752
vn 0.8212 -0.0339 -0.5697
vn -0.6641 -0.2755 -0.6950
vn -0.7257 0.4990 -0.4736
vn -0.8184 0.0917 -0.5673
vn 0.6248 0.3761 -0.6842
vn -0.1360 0.6749 -0.7253
vn 0.4762 0.4629 -0.7476
vn 0.2191 -0.9660 -0.1370
vn -0.7229 -0.6535 -0.2242
vn 0.9260 -0.3448 -0.1539
vn 0.9813 0.0016 -0.1925
vn 0.9094 0.3174 -0.2686
vn 0.2606 0.8711 -0.4162
vn -0.1849 -0.9687 0.1659
vn 0.6772 -0.7275 0.1107
vn -0.9585 -0.0853 -0.2719
vn -0.9519 0.2291 -0.2035
vn -0.4071 0.8671 -0.2871
vn -0.8517 0.4859 0.1965
vn -0.5216 0.8521 0.0439
vn 0.6627 0.7229 -0.1955
vn 0.0330 0.9993 -0.0170
vn -0.5918 -0.6844 0.4259
vn -0.9584 -0.2284 0.1712
vn 0.8592 -0.3781 0.3446
vn -0.9544 0.1382 0.2645
vn 0.2232 -0.8816 0.4159
vn 0.9739 -0.0061 0.2269
vn 0.9050 0.3919 0.1658
vn 0.4298 -0.6665 0.6091
vn 0.0463 0.9673 0.2496
vn -0.0280 -0.7920 0.6099
vn -0.5171 0.6505 0.5562
vn -0.4043 -0.4681 0.7857
vn -0.7901 -0.0684 0.6092
vn -0.6220 0.2282 0.7490
vn 0.5993 0.6511 0.4658
vn 0.6559 -0.1446 0.7408
vn 0.7176 0.1395 0.6823
vn 0.0032 0.6719 0.7406
vn 0.2775 -0.4287 0.8598
vn -0.0555 -0.5203 0.8522
vn -0.3614 -0.0452 0.9313
vn -0.2715 0.3051 0.9128
vn 0.2825 0.1989 0.9384
vn 0.0996 -0.0420 0.9941
vn -0.0911 0.0884 0.9919
vn 0.3439 0.0376 0.9382
usemtl mtl1.353
s 1
f 9//7 10//8 11//9
f 10//8 12//10 11//9
f 11//9 12//10 13//11
f 14//12 15//13 10//8
f 9//7 14//12 10//8
f 16//14 14//12 9//7
f 10//8 17//15 12//10
f 15//13 17//15 10//8
f 18//16 12//10 19//17
f 12//10 18//16 13//11
f 16//14 9//7 20//18
f 11//9 20//18 9//7
f 18//16 21//19 13//11
f 13//11 22//20 11//9
f 20//18 11//9 22//20
f 22//20 13//11 21//19
f 15//13 14//12 23//21
f 15//13 24//22 17//15
f 25//23 16//14 26//24
f 12//10 17//15 19//17
f 20//18 27//25 16//14
f 22//20 21//19 28//26
f 24//22 15//13 29//27
f 15//13 23//21 29//27
f 14//12 30//28 23//21
f 14//12 25//23 30//28
f 14//12 16//14 25//23
f 31//29 17//15 24//22
f 17//15 31//29 19//17
f 26//24 16//14 27//25
f 32//30 18//16 19//17
f 33//31 21//19 18//16
f 28//26 21//19 33//31
f 31//29 32//30 19//17
f 34//32 18//16 32//30
f 18//16 34//32 35//33
f 20//18 22//20 36//34
f 20//18 36//34 27//25
f 33//31 18//16 35//33
f 28//26 36//34 22//20
f 28//26 33//31 37//35
f 29//27 38//36 24//22
f 24//22 38//36 39//37
f 40//38 30//28 25//23
f 31//29 24//22 39//37
f 31//29 41//39 32//30
f 23//21 42//40 29//27
f 23//21 30//28 42//40
f 39//37 41//39 31//29
f 25//23 26//24 43//41
f 26//24 27//25 43//41
f 27//25 36//34 44//42
f 37//35 33//31 35//33
f 36//34 28//26 37//35
f 45//43 30//28 40//38
f 32//30 41//39 34//32
f 43//41 27//25 44//42
f 46//44 37//35 35//33
f 37//35 46//44 36//34
f 42//40 47//45 29//27
f 45//43 42//40 30//28
f 40//38 25//23 43//41
f 48//46 46//44 35//33
f 47//45 38//36 29//27
f 47//45 49//47 38//36
f 42//40 45//43 47//45
f 39//37 38//36 50//48
f 39//37 50//48 41//39
f 41//39 51//49 34//32
f 51//49 48//46 34//32
f 48//46 35//33 34//32
f 52//50 44//42 36//34
f 52//50 36//34 46//44
f 38//36 49//47 50//48
f 40//38 53//51 45//43
f 53//51 40//38 43//41
f 41//39 50//48 51//49
f 54//52 43//41 44//42
f 46//44 48//46 55//53
f 52//50 46//44 55//53
f 45//43 53//51 56//54
f 53//51 43//41 54//52
f 44//42 52//50 54//52
f 47//45 57//55 49//47
f 47//45 45//43 57//55
f 49//47 57//55 58//56
f 45//43 56//54 57//55
f 49//47 58//56 50//48
f 50//48 58//56 51//49
f 51//49 59//57 48//46
f 54//52 52//50 60//58
f 55//53 48//46 59//57
f 52//50 55//53 60//58
f 57//55 61//59 58//56
f 61//59 57//55 56//54
f 56//54 53//51 61//59
f 61//59 62//60 58//56
f 61//59 53//51 63//61
f 62//60 51//49 58//56
f 62//60 59//57 51//49
f 53//51 54//52 63//61
f 54//52 60//58 63//61
f 60//58 55//53 59//57
f 61//59 63//61 62//60
f 63//61 60//58 62//60
f 60//58 59//57 62//60
