# Blender v2.92.0 OBJ File: 'convert_to_one_sided.blend'
# www.blender.org
mtllib 38L.mtl
o Cube
v 0.001000 0.001000 -0.001000
v 0.001000 -0.001000 -0.001000
v 0.001000 0.001000 0.001000
v 0.001000 -0.001000 0.001000
v -0.001000 0.001000 -0.001000
v -0.001000 -0.001000 -0.001000
v -0.001000 0.001000 0.001000
v -0.001000 -0.001000 0.001000
vt 0.625000 0.500000
vt 0.875000 0.500000
vt 0.875000 0.750000
vt 0.625000 0.750000
vt 0.375000 0.750000
vt 0.625000 1.000000
vt 0.375000 1.000000
vt 0.375000 0.000000
vt 0.625000 0.000000
vt 0.625000 0.250000
vt 0.375000 0.250000
vt 0.125000 0.500000
vt 0.375000 0.500000
vt 0.125000 0.750000
vn 0.0000 1.0000 0.0000
vn 0.0000 0.0000 1.0000
vn -1.0000 0.0000 0.0000
vn 0.0000 -1.0000 0.0000
vn 1.0000 0.0000 0.0000
vn 0.0000 0.0000 -1.0000
usemtl Material
s off
f 1/1/1 5/2/1 7/3/1 3/4/1
f 4/5/2 3/4/2 7/6/2 8/7/2
f 8/8/3 7/9/3 5/10/3 6/11/3
f 6/12/4 2/13/4 4/5/4 8/14/4
f 2/13/5 1/1/5 3/4/5 4/5/5
f 6/11/6 5/10/6 1/1/6 2/13/6
o 38
v 6.219210 5.576757 5.303853
v 6.111931 5.537778 5.309503
v 6.193210 5.606297 5.308243
v 6.274839 5.643857 5.313852
v 6.301349 5.620327 5.313663
v 6.056072 5.490748 5.331432
v 6.028913 5.509678 5.325482
v 6.165081 5.531898 5.323732
v 5.966743 5.501478 5.333282
v 6.075782 5.594367 5.340762
v 6.262619 5.564347 5.328182
v 6.322369 5.605877 5.331532
v 6.321479 5.575637 5.360112
v 6.346118 5.659986 5.337152
v 6.379748 5.641976 5.361812
v 6.221940 5.699546 5.347792
v 6.306489 5.729725 5.361702
v 5.933924 5.451709 5.346082
v 5.864964 5.462839 5.355092
v 5.985233 5.449789 5.353562
v 5.921044 5.533238 5.364852
v 6.144351 5.505908 5.347752
v 6.058372 5.471519 5.368042
v 6.250999 5.542908 5.366572
v 6.394328 5.708946 5.391541
v 6.106132 5.711916 5.389441
v 6.362988 5.791695 5.417951
v 6.252429 5.815524 5.410131
v 5.801285 5.352830 5.398762
v 5.826155 5.408689 5.373502
v 5.900154 5.404539 5.384762
v 5.763886 5.440149 5.394062
v 5.753816 5.375790 5.410081
v 5.976473 5.435489 5.383451
v 5.828495 5.539018 5.410191
v 6.148361 5.499348 5.407261
v 6.376218 5.609447 5.394281
v 6.410498 5.672826 5.425531
v 5.966493 5.653346 5.410381
v 6.165461 5.807664 5.418901
v 5.846665 5.360790 5.412351
v 5.716726 5.413349 5.425221
v 5.941363 5.410650 5.407541
v 6.332048 5.572097 5.426961
v 6.416388 5.767105 5.457131
v 6.039842 5.789135 5.445161
v 6.395197 5.846694 5.488190
v 5.758486 5.335881 5.469700
v 5.728656 5.349970 5.455031
v 5.709466 5.375680 5.458580
v 5.889524 5.380760 5.457061
v 5.707456 5.462569 5.446051
v 5.996013 5.434419 5.468511
v 5.740836 5.550318 5.468700
v 6.232980 5.533288 5.459011
v 5.833475 5.649436 5.468101
v 6.365608 5.594117 5.501140
v 6.305179 5.865253 5.454980
v 5.821425 5.350630 5.496220
v 5.689766 5.437029 5.474921
v 6.398417 5.637286 5.526050
v 6.430797 5.770715 5.510280
v 5.927824 5.765015 5.478641
v 6.356178 5.868423 5.481190
v 6.206930 5.884163 5.460781
v 5.712327 5.349820 5.507510
v 5.685387 5.400539 5.518790
v 5.693797 5.531457 5.510980
v 6.130641 5.489258 5.535300
v 5.771176 5.649296 5.505750
v 6.424458 5.703705 5.566839
v 5.998253 5.852953 5.488760
v 6.086812 5.882894 5.483140
v 6.248230 5.952252 5.526340
v 6.420077 5.851804 5.537310
v 6.145221 5.954052 5.533280
v 5.749616 5.331500 5.588209
v 5.874505 5.369390 5.595759
v 5.984123 5.423509 5.606978
v 5.677677 5.481938 5.543489
v 6.279319 5.553358 5.553979
v 5.742646 5.663526 5.551070
v 5.838934 5.734455 5.515480
v 5.925243 5.845704 5.527810
v 6.005143 5.897383 5.518760
v 6.337059 5.924653 5.533329
v 6.056282 5.946043 5.548619
v 5.794765 5.342710 5.568139
v 6.362038 5.600447 5.665468
v 5.824605 5.782324 5.568709
v 6.431527 5.838814 5.579549
v 5.974613 5.921143 5.565329
v 6.398787 5.908013 5.603229
v 6.268899 5.993372 5.588039
v 6.190860 5.998842 5.586209
v 5.691837 5.368200 5.549769
v 5.683657 5.438379 5.587569
v 5.688737 5.587517 5.596629
v 6.431627 5.786715 5.604249
v 5.895764 5.869483 5.591219
v 5.948113 5.931873 5.623249
v 6.112031 5.986462 5.586759
v 5.716446 5.362240 5.621609
v 5.681367 5.526608 5.600319
v 6.182331 5.510628 5.642728
v 5.709976 5.674336 5.662628
v 5.761886 5.732316 5.631408
v 5.821005 5.809915 5.662738
v 6.421087 5.871324 5.598769
v 6.043442 5.977712 5.635108
v 6.328738 5.976562 5.656158
v 6.216160 6.024541 5.640808
v 5.782785 5.334220 5.674828
v 5.900214 5.895263 5.693858
v 5.970673 5.950532 5.694808
v 6.143991 6.006802 5.626779
v 6.266500 6.008672 5.646878
v 5.693186 5.433569 5.665308
v 5.683787 5.515688 5.656788
v 6.271269 5.549287 5.686578
v 6.429757 5.751145 5.675018
v 6.425697 5.837044 5.677048
v 6.146091 6.014882 5.694568
v 6.406046 5.652298 5.699999
v 6.370852 5.604528 5.699999
v 6.339797 5.587046 5.699999
v 6.362605 5.597586 5.699999
v 6.415918 5.860301 5.699999
v 5.746693 5.330594 5.699999
v 6.085433 5.469547 5.699999
v 5.683855 5.603280 5.699999
v 6.254959 6.011177 5.699999
v 6.429985 5.750519 5.699999
v 5.695161 5.394780 5.699999
v 5.685625 5.608858 5.699999
v 6.418066 5.681804 5.699999
v 6.356895 5.949892 5.699999
v 6.258344 6.009462 5.699999
v 5.742093 5.720746 5.699999
v 6.326940 5.976990 5.699999
v 5.707891 5.669587 5.699999
v 6.426803 5.817578 5.699999
v 6.425383 5.833596 5.699999
v 6.191656 5.514187 5.699999
v 6.252915 6.011816 5.699999
v 5.686489 5.437393 5.699999
v 5.754154 5.735567 5.699999
v 6.414211 5.661688 5.699999
v 5.740553 5.330001 5.699999
v 6.076048 5.465590 5.699999
v 6.255433 5.542204 5.699999
v 6.394707 5.913278 5.699999
v 5.769806 5.754582 5.699999
v 5.820925 5.809597 5.699999
v 5.926033 5.394078 5.699999
v 5.683721 5.598139 5.699999
v 6.220866 6.012404 5.699999
v 5.681145 5.477586 5.699999
v 5.678851 5.510585 5.699999
v 6.151721 6.014494 5.699999
v 5.779018 5.332353 5.699999
v 5.798900 5.339882 5.699999
v 6.145247 6.013819 5.699999
v 6.135311 6.011914 5.699999
v 6.415311 5.664678 5.699999
v 5.933004 5.397525 5.699999
v 6.067573 5.461762 5.699999
v 6.040947 5.982125 5.699999
v 5.890895 5.885160 5.699999
v 5.906467 5.899845 5.699999
v 6.273006 5.549859 5.699999
v 5.900133 5.894027 5.699999
v 5.738886 5.331708 5.699999
v 5.715747 5.345594 5.699999
v 5.865616 5.364705 5.699999
v 5.701623 5.364614 5.699999
v 5.977290 5.953907 5.699999
v 5.969484 5.949322 5.699999
vn 0.1649 -0.2682 -0.9491
vn -0.0703 -0.1448 -0.9870
vn -0.1499 0.2691 -0.9514
vn 0.0653 0.3023 -0.9510
vn 0.3284 -0.0710 -0.9419
vn 0.1486 -0.6392 -0.7545
vn -0.1198 -0.0718 -0.9902
vn 0.2437 -0.6920 -0.6795
vn -0.2142 0.1463 -0.9658
vn -0.2682 0.3722 -0.8885
vn 0.3548 -0.6979 -0.6222
vn 0.5273 -0.4279 -0.7341
vn 0.5180 -0.7687 -0.3751
vn 0.4496 0.2119 -0.8677
vn 0.7768 -0.1905 -0.6002
vn -0.1607 0.4575 -0.8746
vn 0.1381 0.4994 -0.8553
vn -0.0286 -0.4119 -0.9108
vn -0.3097 0.1307 -0.9418
vn 0.2441 -0.7957 -0.5544
vn -0.3358 0.4142 -0.8460
vn 0.3109 -0.8695 -0.3839
vn 0.3312 -0.9002 -0.2829
vn 0.3687 -0.8988 -0.2372
vn 0.7426 0.2597 -0.6173
vn -0.2745 0.4181 -0.8659
vn 0.4057 0.5218 -0.7504
vn -0.0108 0.5425 -0.8400
vn 0.0144 -0.8227 -0.5682
vn -0.1763 -0.3335 -0.9261
vn 0.2776 -0.7930 -0.5423
vn -0.4837 0.1489 -0.8625
vn -0.4727 -0.4695 -0.7457
vn 0.3846 -0.8850 -0.2626
vn -0.4096 0.4241 -0.8077
vn 0.3643 -0.9279 -0.0786
vn 0.7581 -0.6076 -0.2369
vn 0.9584 -0.1774 -0.2235
vn -0.3374 0.4188 -0.8430
vn -0.1962 0.4825 -0.8536
vn 0.3765 -0.9007 -0.2167
vn -0.7447 -0.1033 -0.6593
vn 0.3992 -0.8912 -0.2154
vn 0.4739 -0.8793 -0.0471
vn 0.8876 0.2271 -0.4008
vn -0.2792 0.4177 -0.8646
vn 0.6316 0.5632 -0.5328
vn -0.1005 -0.9728 -0.2088
vn -0.5266 -0.7407 -0.4173
vn -0.8284 -0.3902 -0.4019
vn 0.4287 -0.8981 -0.0986
vn -0.7470 0.2531 -0.6147
vn 0.4225 -0.9038 -0.0685
vn -0.5821 0.4251 -0.6932
vn 0.3784 -0.9256 -0.0123
vn -0.4362 0.4337 -0.7885
vn 0.6353 -0.7721 0.0164
vn 0.2023 0.6394 -0.7417
vn 0.2891 -0.9565 -0.0379
vn -0.9406 -0.0134 -0.3391
vn 0.8596 -0.5108 -0.0096
vn 0.9897 0.0358 -0.1383
vn -0.4100 0.4206 -0.8093
vn 0.3912 0.6513 -0.6502
vn -0.0524 0.6236 -0.7800
vn -0.6680 -0.7378 -0.0971
vn -0.9618 -0.2405 -0.1304
vn -0.8665 0.3042 -0.3958
vn 0.3934 -0.9193 -0.0121
vn -0.5678 0.4730 -0.6737
vn 0.9801 -0.1977 -0.0189
vn -0.3398 0.4845 -0.8061
vn -0.2000 0.5754 -0.7930
vn 0.1106 0.7474 -0.6551
vn 0.8726 0.4038 -0.2748
vn -0.1176 0.7376 -0.6649
vn -0.2101 -0.9775 -0.0189
vn 0.3948 -0.9186 -0.0175
vn 0.4250 -0.9050 -0.0176
vn -0.9953 0.0441 -0.0859
vn 0.4248 -0.9051 0.0159
vn -0.7466 0.4927 -0.4470
vn -0.5387 0.4940 -0.6825
vn -0.5193 0.5562 -0.6489
vn -0.3427 0.6315 -0.6955
vn 0.4445 0.7442 -0.4986
vn -0.2738 0.7737 -0.5713
vn 0.2488 -0.9682 -0.0257
vn 0.6183 -0.7855 -0.0262
vn -0.6808 0.5978 -0.4233
vn 0.9829 0.1784 -0.0464
vn -0.4587 0.7487 -0.4786
vn 0.7582 0.6336 -0.1540
vn 0.3035 0.8643 -0.4011
vn -0.0505 0.8691 -0.4920
vn -0.8934 -0.4452 0.0601
vn -0.9822 -0.1557 0.1054
vn -0.9628 0.2364 -0.1312
vn 0.6400 -0.3511 0.6835
vn 0.5183 -0.4511 0.7265
vn 0.9997 -0.0165 0.0179
vn -0.6624 0.6749 -0.3250
vn -0.5580 0.8050 -0.2018
vn -0.2250 0.8736 -0.4315
vn -0.7891 -0.6142 0.0045
vn -0.9981 0.0452 0.0424
vn 0.3951 -0.9186 -0.0060
vn 0.7169 -0.1744 0.6750
vn -0.8703 0.4752 -0.1292
vn -0.7669 0.6067 -0.2093
vn -0.7350 0.6680 -0.1162
vn 0.9045 0.4262 -0.0166
vn -0.3514 0.9121 -0.2110
vn -0.2746 -0.7683 0.5781
vn -0.4101 -0.5936 0.6924
vn 0.5554 0.8249 -0.1051
vn 0.0588 0.9849 -0.1626
vn 0.2205 -0.9748 -0.0329
vn 0.2743 -0.6525 0.7064
vn 0.2815 -0.6545 0.7017
vn -0.4554 0.4820 0.7486
vn -0.6824 0.7310 0.0032
vn -0.5163 0.8563 -0.0124
vn -0.2169 0.9474 -0.2354
vn 0.3851 0.9182 -0.0930
vn -0.9762 -0.2070 -0.0651
vn -0.9993 -0.0160 -0.0330
vn 0.4373 -0.8993 -0.0096
vn 0.5562 -0.5302 0.6400
vn -0.7756 0.1197 0.6197
vn -0.7055 0.2291 0.6707
vn 0.9979 -0.0640 0.0079
vn 0.9738 0.2199 0.0578
vn -0.2630 0.7082 0.6552
vn -0.3391 0.6621 0.6683
vn 0.6293 0.4201 0.6539
vn 0.4879 0.5271 0.6958
vn -0.1491 0.9879 0.0419
vn 0.3041 0.6019 0.7384
vn 0.2520 0.6707 0.6976
vn -0.7586 -0.1665 0.6299
vn -0.7572 -0.1422 0.6375
vn -0.7589 -0.0927 0.6446
vn 0.2796 -0.6494 0.7071
vn 0.3925 0.6078 0.6903
vn -0.7602 -0.0139 0.6496
vn -0.7208 0.0183 0.6929
vn -0.4400 0.5342 0.7218
vn -0.4046 0.5702 0.7150
vn 0.0741 -0.7162 0.6940
vn 0.1286 -0.7382 0.6622
vn 0.3311 -0.6420 0.6915
vn 0.4091 -0.6337 0.6565
vn -0.6559 0.3235 0.6820
vn -0.5865 0.4603 0.6664
vn 0.7142 0.0282 0.6994
vn 0.6915 0.1374 0.7092
vn -0.5136 0.4818 0.7100
vn 0.2814 -0.6621 0.6946
vn 0.3138 -0.6378 0.7034
vn 0.6953 -0.1161 0.7092
vn 0.7303 -0.0444 0.6817
vn -0.5261 -0.6496 0.5488
vn -0.6890 -0.3682 0.6243
vn 0.2935 -0.6389 0.7111
vn 0.3090 -0.6379 0.7055
vn -0.2221 0.6890 0.6899
vn -0.0872 0.6386 0.7646
vn 0.2392 -0.6708 0.7020
vn 0.0157 0.7028 0.7113
vn 0.0199 0.6467 0.7625
vn -0.5791 0.4730 0.6640
vn -0.5216 0.4739 0.7094
vn 0.3200 -0.6449 0.6941
vn 0.2838 -0.6434 0.7110
vn 0.1313 0.6855 0.7162
vn -0.5738 0.4801 0.6635
vn 0.6449 0.2504 0.7221
usemtl mtl1.369
s 1
f 9//7 10//8 11//9
f 12//10 13//11 9//7
f 12//10 9//7 11//9
f 14//12 15//13 10//8
f 16//14 14//12 10//8
f 9//7 16//14 10//8
f 17//15 18//16 15//13
f 10//8 15//13 18//16
f 10//8 18//16 11//9
f 19//17 16//14 9//7
f 20//18 19//17 9//7
f 19//17 20//18 21//19
f 13//11 20//18 9//7
f 22//20 20//18 13//11
f 20//18 22//20 23//21
f 12//10 22//20 13//11
f 24//22 11//9 18//16
f 12//10 11//9 24//22
f 25//23 12//10 24//22
f 22//20 12//10 25//23
f 17//15 26//24 27//25
f 26//24 14//12 28//26
f 27//25 29//27 17//15
f 15//13 26//24 17//15
f 14//12 26//24 15//13
f 14//12 30//28 31//29
f 16//14 30//28 14//12
f 16//14 32//30 30//28
f 16//14 19//17 32//30
f 17//15 29//27 18//16
f 19//17 21//19 32//30
f 33//31 23//21 22//20
f 18//16 34//32 24//22
f 35//33 33//31 22//20
f 22//20 25//23 35//33
f 25//23 24//22 36//34
f 37//35 38//36 39//37
f 40//38 38//36 41//39
f 39//37 38//36 26//24
f 26//24 38//36 27//25
f 38//36 40//38 27//25
f 28//26 39//37 26//24
f 42//40 39//37 28//26
f 40//38 43//41 27//25
f 27//25 43//41 29//27
f 28//26 14//12 31//29
f 32//30 44//42 30//28
f 21//19 20//18 45//43
f 20//18 23//21 45//43
f 46//44 45//43 23//21
f 47//45 18//16 29//27
f 33//31 46//44 23//21
f 18//16 47//45 34//32
f 48//46 24//22 34//32
f 36//34 24//22 48//46
f 37//35 41//39 38//36
f 39//37 49//47 37//35
f 41//39 50//48 40//38
f 39//37 42//40 51//49
f 28//26 31//29 42//40
f 30//28 44//42 31//29
f 21//19 52//50 32//30
f 43//41 47//45 29//27
f 45//43 52//50 21//19
f 33//31 53//51 46//44
f 54//52 34//32 47//45
f 35//33 55//53 33//31
f 41//39 37//35 56//54
f 57//55 41//39 56//54
f 58//56 41//39 57//55
f 41//39 58//56 50//48
f 49//47 39//37 59//57
f 51//49 59//57 39//37
f 60//58 40//38 50//48
f 42//40 31//29 61//59
f 31//29 44//42 61//59
f 60//58 62//60 40//38
f 40//38 62//60 43//41
f 32//30 63//61 44//42
f 62//60 64//62 43//41
f 32//30 52//50 63//61
f 43//41 64//62 47//45
f 65//63 52//50 45//43
f 53//51 33//31 55//53
f 54//52 48//46 34//32
f 25//23 36//34 66//64
f 25//23 66//64 35//33
f 37//35 67//65 56//54
f 37//35 49//47 67//65
f 68//66 50//48 58//56
f 51//49 61//59 59//57
f 42//40 61//59 51//49
f 60//58 50//48 68//66
f 45//43 46//44 69//67
f 46//44 53//51 70//68
f 47//45 71//69 54//52
f 55//53 35//33 72//70
f 48//46 73//71 36//34
f 73//71 66//64 36//34
f 66//64 72//70 35//33
f 57//55 74//72 58//56
f 74//72 57//55 56//54
f 49//47 59//57 67//65
f 68//66 58//56 75//73
f 68//66 76//74 60//58
f 44//42 77//75 61//59
f 44//42 63//61 77//75
f 78//76 64//62 62//60
f 69//67 65//63 45//43
f 69//67 46//44 79//77
f 46//44 70//68 79//77
f 71//69 80//78 54//52
f 54//52 80//78 81//79
f 54//52 81//79 48//46
f 73//71 82//80 66//64
f 81//79 73//71 48//46
f 58//56 74//72 75//73
f 60//58 76//74 62//60
f 64//62 71//69 47//45
f 83//81 70//68 53//51
f 53//51 55//53 83//81
f 84//82 82//80 73//71
f 84//82 73//71 81//79
f 74//72 56//54 85//83
f 86//84 67//65 59//57
f 61//59 77//75 87//85
f 68//66 88//86 76//74
f 63//61 89//87 77//75
f 63//61 52//50 89//87
f 62//60 76//74 90//88
f 78//76 62//60 90//88
f 78//76 91//89 64//62
f 64//62 91//89 71//69
f 91//89 92//90 71//69
f 71//69 92//90 80//78
f 80//78 92//90 93//91
f 80//78 93//91 81//79
f 94//92 72//70 66//64
f 81//79 93//91 95//93
f 84//82 81//79 95//93
f 56//54 96//94 85//83
f 56//54 67//65 96//94
f 59//57 61//59 86//84
f 75//73 88//86 68//66
f 52//50 65//63 89//87
f 97//95 65//63 69//67
f 78//76 90//88 91//89
f 92//90 91//89 98//96
f 70//68 83//81 99//97
f 100//98 93//91 92//90
f 93//91 100//98 95//93
f 72//70 94//92 55//53
f 82//80 94//92 66//64
f 55//53 94//92 101//99
f 94//92 82//80 102//100
f 82//80 84//82 103//101
f 102//100 82//80 103//101
f 75//73 74//72 104//102
f 67//65 86//84 96//94
f 75//73 104//102 105//103
f 61//59 87//85 86//84
f 75//73 105//103 88//86
f 106//104 76//74 88//86
f 106//104 90//88 76//74
f 97//95 156//105 132//106
f 91//89 90//88 98//96
f 79//77 70//68 107//107
f 70//68 99//97 107//107
f 92//90 98//96 108//108
f 92//90 108//108 100//98
f 100//98 108//108 109//109
f 101//99 83//81 55//53
f 84//82 95//93 110//110
f 84//82 110//110 103//101
f 74//72 85//83 111//111
f 104//102 74//72 111//111
f 105//103 112//112 88//86
f 89//87 113//113 77//75
f 112//112 106//104 88//86
f 156//105 79//77 173//114
f 114//115 90//88 106//104
f 98//96 90//88 115//116
f 108//108 98//96 116//117
f 117//118 99//97 83//81
f 83//81 101//99 117//118
f 100//98 109//109 118//119
f 95//93 100//98 118//119
f 110//110 95//93 118//119
f 111//111 157//120 181//121
f 104//102 111//111 105//103
f 89//87 65//63 97//95
f 114//115 115//116 90//88
f 98//96 115//116 116//117
f 119//122 101//99 94//92
f 119//122 94//92 102//100
f 103//101 120//123 102//100
f 96//94 121//124 85//83
f 138//125 152//126 180//127
f 116//117 122//128 108//108
f 122//128 109//109 108//108
f 109//109 123//129 118//119
f 118//119 124//130 110//110
f 110//110 124//130 103//101
f 102//100 120//123 125//131
f 102//100 125//131 119//122
f 103//101 124//130 120//123
f 96//94 86//84 121//124
f 111//111 126//132 105//103
f 138//125 113//113 152//126
f 127//133 105//103 126//132
f 112//112 105//103 127//133
f 113//113 89//87 128//134
f 112//112 127//133 106//104
f 132//106 133//135 97//95
f 114//115 139//136 143//137
f 79//77 107//107 129//138
f 129//138 107//107 130//139
f 107//107 99//97 130//139
f 117//118 130//139 99//97
f 109//109 122//128 123//129
f 89//87 97//95 128//134
f 117//118 101//99 130//139
f 176//140 123//129 185//141
f 160//142 119//122 145//143
f 124//130 118//119 131//144
f 146//145 125//131 140//146
f 120//123 124//130 131//144
f 142//147 154//148 126//132
f 166//149 126//132 154//148
f 152//126 128//134 159//150
f 148//151 119//122 146//145
f 166//149 167//152 127//133
f 167//152 164//153 127//133
f 123//129 178//154 186//155
f 137//156 121//124 169//157
f 134//158 97//95 135//159
f 135//159 97//95 133//135
f 149//160 147//161 114//115
f 150//162 130//139 151//163
f 180//127 122//128 177//164
f 186//155 185//141 123//129
f 183//165 86//84 163//166
f 144//167 129//138 141//168
f 111//111 182//169 184//170
f 111//111 181//121 182//169
f 122//128 180//127 178//154
f 87//85 175//171 174//172
f 176//140 131//144 118//119
f 131//144 172//173 171//174
f 121//124 183//165 170//175
f 121//124 170//175 169//157
f 131//144 171//174 168//176
f 131//144 168//176 165//177
f 87//85 163//166 86//84
f 116//117 177//164 122//128
f 116//117 161//178 162//179
f 128//134 179//180 159//150
f 87//85 158//181 175//171
f 115//116 161//178 116//117
f 120//123 165//177 153//182
f 115//116 147//161 155//183
f 119//122 148//151 145//143
f 129//138 173//114 79//77
f 114//115 143//137 149//160
f 184//170 126//132 111//111
f 129//138 150//162 141//168
f 125//131 153//182 140//146
f 127//133 139//136 106//104
f 113//113 158//181 77//75
f 121//124 157//120 85//83
f 130//139 160//142 136//184
f 130//139 136//184 151//163
f 134//158 128//134 97//95
f 97//95 69//67 156//105
f 156//105 69//67 79//77
f 111//111 85//83 157//120
f 176//140 185//141 152//126
f 185//141 186//155 152//126
f 186//155 178//154 152//126
f 178//154 180//127 152//126
f 180//127 177//164 138//125
f 177//164 162//179 138//125
f 162//179 161//178 175//171
f 161//178 155//183 175//171
f 162//179 158//181 138//125
f 155//183 147//161 174//172
f 147//161 149//160 174//172
f 149//160 143//137 174//172
f 143//137 139//136 164//153
f 164//153 167//152 163//166
f 167//152 166//149 183//165
f 143//137 164//153 174//172
f 158//181 162//179 175//171
f 172//173 176//140 159//150
f 159//150 176//140 152//126
f 168//176 171//174 172//173
f 140//146 153//182 146//145
f 153//182 165//177 146//145
f 165//177 168//176 172//173
f 175//171 155//183 174//172
f 166//149 154//148 183//165
f 154//148 142//147 170//175
f 142//147 184//170 137//156
f 137//156 184//170 182//169
f 182//169 181//121 137//156
f 181//121 157//120 137//156
f 137//156 169//157 142//147
f 169//157 170//175 142//147
f 170//175 183//165 154//148
f 183//165 163//166 167//152
f 163//166 174//172 164//153
f 165//177 172//173 159//150
f 145//143 148//151 165//177
f 148//151 146//145 165//177
f 136//184 160//142 145//143
f 150//162 151//163 136//184
f 144//167 141//168 134//158
f 141//168 150//162 134//158
f 156//105 173//114 132//106
f 173//114 144//167 132//106
f 135//159 133//135 134//158
f 133//135 132//106 134//158
f 150//162 136//184 145//143
f 134//158 150//162 179//180
f 165//177 159//150 179//180
f 150//162 165//177 179//180
f 150//162 145//143 165//177
f 132//106 144//167 134//158
f 114//115 106//104 139//136
f 176//140 118//119 123//129
f 160//142 101//99 119//122
f 146//145 119//122 125//131
f 166//149 127//133 126//132
f 152//126 113//113 128//134
f 123//129 122//128 178//154
f 176//140 172//173 131//144
f 121//124 86//84 183//165
f 87//85 174//172 163//166
f 116//117 162//179 177//164
f 87//85 77//75 158//181
f 115//116 155//183 161//178
f 120//123 131//144 165//177
f 115//116 114//115 147//161
f 129//138 144//167 173//114
f 184//170 142//147 126//132
f 129//138 130//139 150//162
f 125//131 120//123 153//182
f 127//133 164//153 139//136
f 113//113 138//125 158//181
f 121//124 137//156 157//120
f 130//139 101//99 160//142
f 134//158 179//180 128//134
