# Blender v2.92.0 OBJ File: 'convert_to_one_sided.blend'
# www.blender.org
mtllib 397L.mtl
o 397
v 8.564380 4.790967 5.471450
v 8.499121 4.824927 5.479861
v 8.512570 4.852626 5.484850
v 8.587580 4.815707 5.487430
v 8.630509 4.742218 5.490640
v 8.567240 4.742998 5.497750
v 8.676879 4.751138 5.514000
v 8.695508 4.686238 5.515310
v 8.468901 4.813457 5.501100
v 8.617819 4.835747 5.523170
v 8.437542 4.867076 5.516640
v 8.535520 4.872177 5.517340
v 8.470931 4.884816 5.524460
v 8.743848 4.640609 5.546050
v 8.684988 4.647019 5.525880
v 8.638209 4.628259 5.550999
v 8.503811 4.746788 5.536689
v 8.413212 4.841397 5.542910
v 8.698348 4.768418 5.552720
v 8.736857 4.547901 5.578259
v 8.742038 4.591370 5.555650
v 8.739407 4.708229 5.564579
v 8.443921 4.768848 5.654698
v 8.380442 4.881276 5.635048
v 8.423372 4.896756 5.637239
v 8.590269 4.864196 5.589009
v 8.502910 4.889826 5.637128
v 8.775857 4.579530 5.587659
v 8.740228 4.738238 5.601009
v 8.382812 4.850446 5.692388
v 8.682598 4.797927 5.635889
v 8.684289 4.549150 5.631448
v 8.756227 4.502721 5.643678
v 8.571440 4.663159 5.602689
v 8.780987 4.646549 5.641398
v 8.569989 4.643009 5.677158
v 8.786667 4.529281 5.658608
v 8.792217 4.578660 5.656588
v 8.565029 4.879596 5.697197
v 8.780817 4.646219 5.699999
v 8.733146 4.742941 5.699999
v 8.776044 4.493518 5.699999
v 8.408446 4.894910 5.699999
v 8.439365 4.900144 5.699999
v 8.747296 4.498290 5.699999
v 8.794894 4.566303 5.699999
v 8.786133 4.528615 5.699999
v 8.745062 4.499665 5.699999
v 8.626139 4.850365 5.699999
v 8.381388 4.853348 5.699999
v 8.383454 4.850000 5.699999
v 8.563432 4.880300 5.699999
v 8.796575 4.580749 5.699999
v 8.565968 4.879079 5.699999
v 8.622059 4.598567 5.699999
v 8.774295 4.491504 5.699999
v 8.636353 4.842368 5.699999
v 8.466022 4.742227 5.699999
v 8.710166 4.767129 5.699999
v 8.579344 4.872814 5.699999
v 8.478727 4.896718 5.699999
v 8.517343 4.892404 5.699999
v 8.794385 4.596227 5.699999
v 8.442472 4.774233 5.699999
v 8.672543 4.809470 5.699999
v 8.541749 4.668126 5.699999
v 8.374992 4.879076 5.699999
v 8.387586 4.887447 5.699999
v 8.681144 4.549136 5.699999
v 8.571660 4.643442 5.699999
v 8.424636 4.796319 5.699999
v 8.752298 4.701867 5.699999
vn 0.0336 -0.0384 -0.9987
vn -0.3440 -0.1007 -0.9336
vn 0.0184 0.5362 -0.8439
vn 0.3840 0.4362 -0.8138
vn 0.2087 -0.1146 -0.9712
vn -0.2895 -0.5031 -0.8143
vn 0.5950 0.2989 -0.7460
vn 0.3843 -0.0893 -0.9189
vn -0.5578 -0.3827 -0.7365
vn 0.5635 0.7110 -0.4207
vn -0.5518 0.4661 -0.6916
vn 0.2820 0.8714 -0.4015
vn -0.0563 0.9256 -0.3742
vn 0.6767 0.0115 -0.7362
vn 0.0339 -0.3962 -0.9175
vn -0.4487 -0.6680 -0.5937
vn -0.6066 -0.6615 -0.4409
vn -0.8438 -0.3484 -0.4082
vn 0.7214 0.5814 -0.3762
vn 0.1208 -0.6818 -0.7215
vn 0.3990 -0.3297 -0.8556
vn 0.8291 0.3118 -0.4641
vn -0.7525 -0.6519 -0.0930
vn -0.8440 0.4895 -0.2189
vn -0.2069 0.9691 -0.1340
vn 0.4315 0.8963 -0.1028
vn 0.1696 0.9820 -0.0833
vn 0.8368 -0.1885 -0.5140
vn 0.8309 0.5358 -0.1503
vn -0.9042 -0.4218 -0.0668
vn 0.6751 0.7345 -0.0692
vn -0.5689 -0.7840 -0.2484
vn 0.0645 -0.9158 -0.3963
vn -0.6509 -0.7153 -0.2542
vn 0.9508 0.2610 -0.1669
vn -0.6675 -0.7417 -0.0656
vn 0.8799 -0.3933 -0.2667
vn 0.9854 -0.0020 -0.1701
vn 0.4084 0.6349 0.6558
vn 0.4709 0.5832 0.6619
vn -0.5558 -0.4884 0.6727
vn -0.4938 -0.5310 0.6886
vn -0.7542 0.3464 0.5578
vn -0.6793 -0.2804 0.6782
vn 0.3585 0.9322 -0.0504
vn 0.7422 -0.1169 0.6599
vn 0.7261 0.1121 0.6784
vn -0.4544 -0.5607 0.6923
vn -0.5366 -0.4064 0.7395
vn 0.6709 -0.1930 0.7160
vn 0.6845 -0.4913 0.5386
vn 0.6947 0.2480 0.6752
vn 0.5077 0.5251 0.6831
vn -0.4293 -0.5129 0.7434
vn -0.2449 0.6875 0.6837
vn -0.5469 -0.4125 0.7285
vn 0.0721 0.7180 0.6923
vn 0.1484 0.7417 0.6541
vn 0.5035 0.4792 0.7189
vn -0.4542 -0.5434 0.7060
vn 0.2922 0.6209 0.7274
vn 0.3137 0.6552 0.6873
vn 0.7628 0.0031 0.6466
vn 0.2481 0.7084 0.6608
vn -0.5855 -0.3735 0.7195
vn -0.4124 -0.6509 0.6374
vn 0.4046 -0.7782 0.4803
vn -0.3764 -0.6850 0.6237
vn -0.2832 0.6995 0.6561
vn -0.0625 0.7262 0.6847
vn 0.5876 0.4153 0.6944
vn 0.6320 0.3097 0.7104
usemtl mtl1.1231
s 1
f 1//1 2//2 3//3
f 4//4 1//1 3//3
f 5//5 6//6 1//1
f 1//1 6//6 2//2
f 4//4 5//5 1//1
f 4//4 7//7 5//5
f 7//7 8//8 5//5
f 6//6 9//9 2//2
f 10//10 7//7 4//4
f 11//11 2//2 9//9
f 3//3 2//2 11//11
f 3//3 12//12 4//4
f 12//12 10//10 4//4
f 3//3 11//11 13//13
f 8//8 14//14 15//15
f 16//16 6//6 15//15
f 15//15 6//6 5//5
f 8//8 15//15 5//5
f 16//16 17//17 6//6
f 6//6 17//17 9//9
f 9//9 17//17 18//18
f 10//10 19//19 7//7
f 9//9 18//18 11//11
f 13//13 12//12 3//3
f 20//20 15//15 21//21
f 20//20 16//16 15//15
f 14//14 21//21 15//15
f 14//14 8//8 7//7
f 19//19 22//22 7//7
f 17//17 23//23 18//18
f 18//18 24//24 11//11
f 11//11 24//24 25//25
f 11//11 25//25 13//13
f 26//26 10//10 12//12
f 12//12 13//13 27//27
f 14//14 28//28 21//21
f 14//14 7//7 22//22
f 22//22 19//19 29//29
f 18//18 23//23 30//30
f 19//19 10//10 31//31
f 18//18 30//30 24//24
f 13//13 25//25 27//27
f 27//27 26//26 12//12
f 32//32 20//20 33//33
f 28//28 20//20 21//21
f 32//32 16//16 20//20
f 32//32 34//34 16//16
f 28//28 14//14 35//35
f 34//34 17//17 16//16
f 34//34 36//36 23//23
f 34//34 23//23 17//17
f 14//14 22//22 35//35
f 19//19 31//31 29//29
f 10//10 26//26 31//31
f 37//37 33//33 20//20
f 28//28 37//37 20//20
f 28//28 35//35 38//38
f 22//22 29//29 35//35
f 31//31 49//39 57//40
f 28//28 38//38 37//37
f 58//41 36//36 66//42
f 67//43 30//30 50//44
f 26//26 27//27 39//45
f 34//34 32//32 36//36
f 46//46 63//47 69//48
f 64//49 23//23 58//41
f 47//50 42//51 37//37
f 47//50 37//37 46//46
f 63//47 35//35 40//52
f 65//53 31//31 57//40
f 70//54 66//42 36//36
f 67//43 68//55 24//24
f 23//23 64//49 71//56
f 27//27 61//57 62//58
f 31//31 65//53 59//59
f 32//32 55//60 36//36
f 36//36 55//60 70//54
f 39//45 54//61 60//62
f 38//38 63//47 53//63
f 39//45 62//58 52//64
f 39//45 52//64 54//61
f 30//30 71//56 51//65
f 30//30 51//65 50//44
f 39//45 49//39 26//26
f 32//32 48//66 69//48
f 38//38 46//46 37//37
f 33//33 56//67 45//68
f 33//33 48//66 32//32
f 25//25 61//57 27//27
f 24//24 43//69 25//25
f 25//25 43//69 44//70
f 37//37 56//67 33//33
f 31//31 41//71 29//29
f 29//29 72//72 35//35
f 35//35 72//72 40//52
f 31//31 26//26 49//39
f 58//41 23//23 36//36
f 67//43 24//24 30//30
f 64//49 58//41 52//64
f 58//41 66//42 49//39
f 54//61 58//41 60//62
f 70//54 55//60 41//71
f 55//60 69//48 40//52
f 70//54 41//71 59//59
f 58//41 54//61 52//64
f 66//42 70//54 65//53
f 51//65 71//56 44//70
f 71//56 64//49 61//57
f 67//43 50//44 68//55
f 50//44 51//65 68//55
f 43//69 68//55 51//65
f 61//57 44//70 71//56
f 44//70 43//69 51//65
f 52//64 62//58 64//49
f 62//58 61//57 64//49
f 49//39 60//62 58//41
f 49//39 66//42 57//40
f 69//48 48//66 47//50
f 48//66 45//68 47//50
f 45//68 56//67 42//51
f 42//51 47//50 45//68
f 47//50 46//46 69//48
f 46//46 53//63 63//47
f 63//47 40//52 69//48
f 40//52 72//72 55//60
f 72//72 41//71 55//60
f 59//59 65//53 70//54
f 65//53 57//40 66//42
f 32//32 69//48 55//60
f 38//38 35//35 63//47
f 39//45 27//27 62//58
f 30//30 23//23 71//56
f 39//45 60//62 49//39
f 38//38 53//63 46//46
f 33//33 45//68 48//66
f 25//25 44//70 61//57
f 24//24 68//55 43//69
f 37//37 42//51 56//67
f 31//31 59//59 41//71
f 29//29 41//71 72//72
