# Blender v2.92.0 OBJ File: 'convert_to_one_sided.blend'
# www.blender.org
mtllib 401L.mtl
o 401
v 7.747120 0.833383 3.511985
v 7.745820 0.833577 3.534295
v 7.737670 0.833993 3.535785
v 7.735230 0.815035 3.550905
v 7.757860 0.818852 3.567654
v 7.733140 0.828385 3.539785
v 7.754770 0.801797 3.579744
v 7.704201 0.805372 3.591814
v 7.746960 0.820759 3.581234
v 7.711751 0.814383 3.613164
v 7.723021 0.776941 3.639733
v 7.779340 0.794635 3.628044
v 7.684821 0.802808 3.635873
v 7.684661 0.788150 3.636603
v 7.781500 0.797243 3.638573
v 7.690411 0.802469 3.675563
v 7.663692 0.773907 3.679043
v 7.786320 0.764116 3.689533
v 7.649792 0.782740 3.688323
v 7.785880 0.789552 3.677383
v 7.725410 0.798046 3.682813
v 7.607612 0.756737 3.758442
v 7.800799 0.775818 3.692363
v 7.767980 0.736123 3.749082
v 7.819109 0.754375 3.757192
v 7.693271 0.744914 3.746632
v 7.602332 0.770860 3.760952
v 7.659431 0.776065 3.775702
v 7.577932 0.758540 3.793171
v 7.623632 0.708653 3.876590
v 7.826749 0.731679 3.796701
v 7.813679 0.764360 3.755522
v 7.768110 0.767287 3.788251
v 7.794110 0.686904 3.909900
v 7.569702 0.736970 3.835711
v 7.869339 0.718653 3.866410
v 7.847089 0.731379 3.853680
v 7.535063 0.748742 3.857460
v 7.569143 0.758165 3.844461
v 7.525993 0.717022 3.903200
v 7.522613 0.737729 3.882350
v 7.875608 0.697196 3.914710
v 7.895498 0.704877 3.922179
v 7.528073 0.749035 3.891050
v 7.579273 0.750215 3.896330
v 7.703451 0.754208 3.865201
v 7.778020 0.739815 3.889590
v 7.909238 0.692633 3.960209
v 7.469364 0.728028 3.944909
v 7.498044 0.736470 3.924410
v 7.424034 0.704157 4.018588
v 7.903938 0.701558 3.962019
v 7.932138 0.679998 4.019238
v 7.918258 0.660073 4.022598
v 7.706491 0.640264 4.056028
v 7.879818 0.632514 4.065338
v 7.686901 0.732988 3.953789
v 7.832909 0.704835 3.998909
v 7.512433 0.679532 4.015178
v 7.441154 0.721934 3.992929
v 7.531173 0.720738 4.015168
v 7.397575 0.704840 4.050958
v 7.951318 0.660950 4.062218
v 7.947348 0.659133 4.101297
v 7.510703 0.636303 4.142226
v 7.367435 0.663590 4.145476
v 7.338016 0.687288 4.126787
v 7.676451 0.697464 4.079278
v 7.828909 0.663681 4.134147
v 7.978777 0.633989 4.112817
v 7.348485 0.683991 4.124077
v 7.988067 0.632811 4.135437
v 7.398895 0.705295 4.085877
v 7.977977 0.614635 4.140226
v 7.996927 0.621965 4.146667
v 7.327226 0.687514 4.152317
v 7.330486 0.687996 4.184456
v 7.478223 0.688107 4.146496
v 8.007887 0.613273 4.175296
v 7.890208 0.601117 4.166476
v 7.301296 0.678189 4.189536
v 7.295646 0.674789 4.200926
v 7.397565 0.631715 4.239756
v 7.655921 0.606969 4.213866
v 8.002187 0.598747 4.220806
v 7.301356 0.663430 4.229735
v 8.007347 0.602647 4.201916
v 8.002137 0.597918 4.215806
v 7.649032 0.654411 4.206496
v 7.873528 0.589940 4.240756
v 7.275766 0.665323 4.247135
v 7.859279 0.628308 4.202706
v 7.283406 0.665343 4.225575
v 7.381805 0.657077 4.247055
v 7.740820 0.595163 4.262335
v 8.003207 0.585403 4.231046
v 7.962247 0.588271 4.246485
v 7.626202 0.603809 4.266135
v 7.499553 0.617811 4.266315
v 7.289886 0.655115 4.275535
v 7.723091 0.616403 4.256085
v 7.518233 0.632576 4.269025
v 7.870849 0.584624 4.257695
v 7.732300 0.599894 4.269185
v 7.377795 0.635014 4.283955
v 7.736470 0.601065 4.273905
v 7.871988 0.594833 4.249795
v 7.285926 0.643549 4.267335
v 7.390655 0.642406 4.285244
v 7.936528 0.581124 4.240936
v 7.551983 0.615251 4.276545
v 7.828829 0.590554 4.255225
v 7.555973 0.621274 4.276665
v 7.305286 0.639585 4.283735
v 7.448154 0.636550 4.282615
v 7.336446 0.635735 4.278285
v 7.422704 0.638348 4.278045
vn 0.2705 0.7263 -0.6319
vn 0.5081 -0.4687 -0.7226
vn -0.6721 -0.0579 -0.7382
vn -0.1831 -0.7449 -0.6416
vn 0.8462 0.5056 -0.1681
vn -0.4221 0.8963 -0.1358
vn 0.3855 -0.7891 -0.4782
vn -0.6990 -0.4368 -0.5662
vn 0.2116 0.9677 0.1374
vn -0.1647 0.9774 0.1327
vn -0.1076 -0.9100 -0.4004
vn 0.9063 -0.1887 -0.3782
vn -0.7072 0.6772 -0.2032
vn -0.4718 -0.7257 -0.5007
vn 0.8522 0.5101 -0.1167
vn -0.2256 0.9631 0.1469
vn -0.4118 -0.7898 -0.4545
vn 0.4776 -0.7745 -0.4147
vn -0.8103 -0.1855 -0.5559
vn 0.4607 0.8794 0.1202
vn 0.0842 0.9682 0.2354
vn -0.4568 -0.7574 -0.4667
vn 0.8847 0.4485 -0.1271
vn 0.0815 -0.9374 -0.3385
vn 0.9476 0.0021 -0.3194
vn -0.1382 -0.9379 -0.3181
vn -0.6248 0.7335 -0.2676
vn -0.1058 0.9801 0.1680
vn -0.8043 -0.1893 -0.5632
vn -0.1491 -0.9284 -0.3405
vn 0.4785 -0.7687 -0.4243
vn 0.6660 0.7448 0.0408
vn 0.1715 0.9581 0.2295
vn 0.0596 -0.9396 -0.3371
vn -0.4509 -0.7590 -0.4697
vn 0.8828 -0.1165 -0.4551
vn 0.5354 0.8445 0.0138
vn -0.6873 0.6401 -0.3434
vn -0.2135 0.9764 0.0311
vn -0.3648 -0.8173 -0.4460
vn -0.7146 -0.3732 -0.5916
vn 0.4424 -0.7860 -0.4319
vn 0.8458 0.4625 -0.2658
vn -0.2572 0.9653 0.0453
vn -0.0346 0.9754 0.2177
vn 0.0629 0.9702 0.2342
vn 0.1629 0.9583 0.2346
vn 0.8457 -0.3034 -0.4391
vn -0.7816 0.3957 -0.4822
vn -0.3046 0.9521 0.0271
vn -0.6187 -0.5472 -0.5637
vn 0.4638 0.8839 0.0601
vn 0.8343 0.5245 -0.1701
vn 0.4442 -0.7527 -0.4860
vn -0.0727 -0.9543 -0.2899
vn 0.0772 -0.9311 -0.3564
vn 0.0654 0.9641 0.2575
vn 0.1447 0.9589 0.2439
vn -0.2018 -0.9179 -0.3416
vn -0.3625 0.9302 -0.0579
vn -0.0139 0.9752 0.2207
vn -0.7199 0.5748 -0.3891
vn 0.8887 -0.0506 -0.4557
vn 0.3068 0.9155 0.2600
vn -0.1385 -0.9551 -0.2619
vn -0.3220 -0.8810 -0.3465
vn -0.8291 -0.0010 -0.5591
vn 0.0722 0.9525 0.2957
vn 0.1170 0.9303 0.3475
vn 0.7078 -0.4592 -0.5368
vn -0.5493 -0.6785 -0.4877
vn 0.7669 0.6417 -0.0114
vn -0.1844 0.9803 0.0708
vn 0.3049 -0.8717 -0.3836
vn 0.9436 0.1223 -0.3077
vn -0.5402 0.8244 -0.1689
vn -0.1188 0.9678 0.2219
vn 0.0536 0.9544 0.2936
vn 0.8005 -0.5129 -0.3100
vn 0.0114 -0.9747 -0.2231
vn -0.7049 -0.5565 -0.4398
vn -0.8613 0.3929 -0.3221
vn -0.1967 -0.9736 -0.1155
vn -0.0843 -0.9863 -0.1415
vn 0.3930 -0.9131 -0.1090
vn -0.4468 -0.8577 -0.2544
vn 0.9910 0.1104 0.0759
vn 0.4077 0.7202 0.5613
vn 0.0909 0.9033 0.4193
vn 0.0002 -0.9998 -0.0215
vn -0.9960 -0.0881 -0.0164
vn 0.1387 0.8659 0.4806
vn -0.4374 0.8706 0.2251
vn 0.0069 0.8849 0.4658
vn -0.0497 -0.9732 0.2246
vn 0.6990 -0.1797 0.6922
vn 0.2014 -0.7797 0.5929
vn -0.0791 -0.9500 0.3022
vn -0.1091 -0.9810 0.1604
vn -0.5961 -0.7644 0.2455
vn 0.1162 0.7441 0.6579
vn 0.1065 0.7543 0.6478
vn 0.0777 -0.5556 0.8278
vn 0.0095 -0.6168 0.7871
vn -0.1330 -0.8358 0.5327
vn 0.0981 0.0283 0.9948
vn 0.1731 0.5170 0.8383
vn -0.4603 0.5840 0.6686
vn -0.0259 0.3874 0.9215
vn 0.1924 0.2307 0.9538
vn -0.0389 -0.5694 0.8211
vn 0.1386 -0.0166 0.9902
vn 0.0562 0.1977 0.9786
vn -0.2679 -0.0522 0.9620
vn 0.0526 0.0983 0.9938
vn -0.0691 0.5564 0.8280
vn -0.0235 -0.2485 0.9683
usemtl mtl1.1234
s 1
f 1//1 2//2 3//3
f 2//2 4//4 3//3
f 1//1 5//5 2//2
f 6//6 1//1 3//3
f 4//4 2//2 7//7
f 8//8 3//3 4//4
f 1//1 6//6 9//9
f 1//1 9//9 5//5
f 6//6 10//10 9//9
f 4//4 11//11 8//8
f 11//11 4//4 7//7
f 12//12 7//7 2//2
f 12//12 2//2 5//5
f 3//3 13//13 6//6
f 8//8 11//11 14//14
f 13//13 3//3 8//8
f 15//15 12//12 5//5
f 6//6 13//13 10//10
f 13//13 16//16 10//10
f 14//14 11//11 17//17
f 18//18 7//7 12//12
f 8//8 14//14 19//19
f 13//13 8//8 19//19
f 20//20 5//5 9//9
f 7//7 18//18 11//11
f 20//20 15//15 5//5
f 9//9 10//10 21//21
f 9//9 21//21 20//20
f 17//17 22//22 19//19
f 17//17 19//19 14//14
f 23//23 12//12 15//15
f 10//10 16//16 21//21
f 11//11 18//18 24//24
f 18//18 12//12 25//25
f 25//25 12//12 23//23
f 11//11 26//26 17//17
f 19//19 27//27 13//13
f 20//20 23//23 15//15
f 16//16 13//13 28//28
f 22//22 17//17 26//26
f 11//11 24//24 26//26
f 22//22 29//29 19//19
f 27//27 28//28 13//13
f 16//16 28//28 21//21
f 22//22 26//26 30//30
f 24//24 18//18 31//31
f 31//31 18//18 25//25
f 25//25 23//23 32//32
f 27//27 19//19 29//29
f 21//21 33//33 20//20
f 20//20 33//33 32//32
f 32//32 23//23 20//20
f 24//24 34//34 26//26
f 35//35 22//22 30//30
f 31//31 25//25 36//36
f 22//22 35//35 29//29
f 25//25 32//32 37//37
f 38//38 27//27 29//29
f 27//27 39//39 28//28
f 24//24 31//31 34//34
f 36//36 25//25 37//37
f 38//38 39//39 27//27
f 21//21 28//28 33//33
f 30//30 40//40 35//35
f 35//35 41//41 29//29
f 41//41 38//38 29//29
f 32//32 33//33 37//37
f 34//34 30//30 26//26
f 35//35 40//40 41//41
f 31//31 36//36 42//42
f 36//36 37//37 43//43
f 38//38 44//44 39//39
f 28//28 39//39 45//45
f 45//45 46//46 28//28
f 46//46 33//33 28//28
f 33//33 47//47 37//37
f 31//31 42//42 34//34
f 36//36 43//43 48//48
f 36//36 48//48 42//42
f 41//41 49//49 38//38
f 38//38 50//50 44//44
f 33//33 46//46 47//47
f 41//41 40//40 51//51
f 41//41 51//51 49//49
f 52//52 53//53 43//43
f 52//52 43//43 37//37
f 39//39 44//44 45//45
f 34//34 42//42 54//54
f 34//34 55//55 30//30
f 56//56 55//55 34//34
f 48//48 43//43 53//53
f 38//38 49//49 50//50
f 57//57 47//47 46//46
f 47//47 58//58 37//37
f 34//34 54//54 56//56
f 51//51 40//40 59//59
f 30//30 59//59 40//40
f 30//30 55//55 59//59
f 49//49 60//60 50//50
f 44//44 50//50 45//45
f 50//50 61//61 45//45
f 42//42 48//48 54//54
f 51//51 62//62 49//49
f 60//60 49//49 62//62
f 58//58 52//52 37//37
f 50//50 60//60 61//61
f 46//46 45//45 57//57
f 47//47 57//57 58//58
f 63//63 48//48 53//53
f 52//52 58//58 64//64
f 65//65 59//59 55//55
f 54//54 48//48 63//63
f 66//66 51//51 59//59
f 62//62 51//51 67//67
f 52//52 64//64 53//53
f 58//58 57//57 68//68
f 58//58 68//68 69//69
f 57//57 45//45 61//61
f 70//70 54//54 63//63
f 67//67 51//51 71//71
f 71//71 51//51 66//66
f 63//63 53//53 72//72
f 64//64 72//72 53//53
f 73//73 60//60 62//62
f 69//69 64//64 58//58
f 60//60 73//73 61//61
f 54//54 74//74 56//56
f 66//66 59//59 65//65
f 70//70 63//63 75//75
f 76//76 62//62 67//67
f 62//62 76//76 73//73
f 57//57 61//61 68//68
f 54//54 70//70 74//74
f 75//75 63//63 72//72
f 76//76 77//77 73//73
f 73//73 78//78 61//61
f 68//68 61//61 78//78
f 74//74 70//70 79//79
f 75//75 79//79 70//70
f 73//73 77//77 78//78
f 74//74 80//80 56//56
f 81//81 67//67 71//71
f 67//67 82//82 76//76
f 56//56 80//80 55//55
f 83//83 65//65 84//84
f 65//65 55//55 84//84
f 65//65 83//83 66//66
f 81//81 71//71 66//66
f 67//67 81//81 82//82
f 85//85 80//80 74//74
f 85//85 74//74 79//79
f 81//81 66//66 86//86
f 86//86 66//66 83//83
f 79//79 75//75 87//87
f 75//75 72//72 87//87
f 72//72 64//64 88//88
f 68//68 89//89 69//69
f 68//68 78//78 89//89
f 85//85 90//90 80//80
f 80//80 84//84 55//55
f 87//87 85//85 79//79
f 81//81 86//86 91//91
f 72//72 88//88 87//87
f 81//81 91//91 82//82
f 89//89 92//92 69//69
f 64//64 69//69 92//92
f 88//88 64//64 92//92
f 76//76 82//82 93//93
f 77//77 76//76 93//93
f 77//77 94//94 78//78
f 78//78 94//94 89//89
f 84//84 90//90 95//95
f 80//80 90//90 84//84
f 85//85 87//87 96//96
f 93//93 82//82 91//91
f 85//85 97//97 90//90
f 84//84 98//98 99//99
f 84//84 95//95 98//98
f 84//84 99//99 83//83
f 96//96 87//87 88//88
f 100//100 86//86 83//83
f 86//86 100//100 91//91
f 89//89 101//101 92//92
f 89//89 94//94 102//102
f 77//77 93//93 94//94
f 103//103 95//95 90//90
f 90//90 97//97 103//103
f 96//96 97//97 85//85
f 95//95 104//104 98//98
f 103//103 104//104 95//95
f 83//83 99//99 105//105
f 101//101 106//106 107//107
f 107//107 88//88 92//92
f 92//92 101//101 107//107
f 108//108 91//91 100//100
f 89//89 102//102 101//101
f 91//91 108//108 93//93
f 93//93 108//108 94//94
f 94//94 109//109 102//102
f 103//103 97//97 110//110
f 97//97 96//96 110//110
f 111//111 98//98 104//104
f 104//104 103//103 112//112
f 110//110 112//112 103//103
f 99//99 111//111 105//105
f 98//98 111//111 99//99
f 106//106 113//113 111//111
f 104//104 106//106 111//111
f 112//112 106//106 104//104
f 110//110 107//107 112//112
f 100//100 105//105 114//114
f 105//105 100//100 83//83
f 106//106 101//101 113//113
f 107//107 106//106 112//112
f 88//88 107//107 110//110
f 96//96 88//88 110//110
f 100//100 114//114 108//108
f 113//113 102//102 115//115
f 101//101 102//102 113//113
f 109//109 115//115 102//102
f 108//108 116//116 94//94
f 94//94 116//116 109//109
f 105//105 111//111 117//117
f 117//117 111//111 113//113
f 117//117 114//114 105//105
f 113//113 115//115 117//117
f 117//117 109//109 116//116
f 115//115 109//109 117//117
f 108//108 114//114 116//116
f 117//117 116//116 114//114
