# Blender v2.92.0 OBJ File: 'convert_to_one_sided.blend'
# www.blender.org
mtllib 406L.mtl
o 406
v 8.207725 4.333154 3.834061
v 8.162455 4.310324 3.826901
v 8.158645 4.338394 3.819812
v 8.187614 4.367943 3.827032
v 8.126145 4.371983 3.846401
v 8.217774 4.370753 3.867271
v 8.179105 4.292484 3.885171
v 8.117405 4.320694 3.841661
v 8.083386 4.349473 3.864981
v 8.155766 4.401573 3.900890
v 8.105606 4.295204 3.896711
v 8.051187 4.325824 3.901520
v 8.232624 4.359563 3.900330
v 8.000797 4.374583 3.951000
v 8.034596 4.405003 3.995459
v 8.196244 4.398433 3.928390
v 8.216875 4.306644 3.899651
v 8.228774 4.331624 3.906660
v 8.007417 4.345263 3.933470
v 8.045537 4.270114 4.012289
v 8.118265 4.266325 4.003579
v 8.005337 4.303664 3.981369
v 8.172295 4.281574 4.008409
v 8.221064 4.321754 3.957080
v 8.215085 4.381883 3.986480
v 8.168964 4.415952 3.971440
v 7.981537 4.331214 3.967340
v 8.225854 4.349584 3.966609
v 8.169855 4.408173 4.046989
v 8.137385 4.263395 4.035519
v 7.932568 4.357334 4.016539
v 8.096705 4.424633 4.079339
v 7.933288 4.326414 4.040558
v 8.192935 4.327594 4.073838
v 7.908168 4.383993 4.056568
v 7.895878 4.409833 4.106268
v 7.975868 4.430562 4.124088
v 8.025917 4.255075 4.139427
v 7.929978 4.289084 4.157137
v 7.870979 4.352763 4.099708
v 8.201234 4.360044 4.065258
v 7.849279 4.384373 4.132677
v 7.862139 4.335053 4.144567
v 8.095806 4.260385 4.128377
v 8.171494 4.356243 4.171037
v 8.163136 4.390393 4.151097
v 8.083376 4.443152 4.271886
v 8.125945 4.417572 4.168057
v 8.099976 4.292924 4.254826
v 7.814299 4.366783 4.183846
v 7.968808 4.454152 4.261586
v 7.830019 4.317724 4.271175
v 8.132285 4.343073 4.254106
v 7.796770 4.422402 4.221706
v 7.992917 4.246815 4.304155
v 8.019477 4.261335 4.334105
v 7.788080 4.397883 4.221177
v 7.856678 4.442342 4.228766
v 7.847079 4.271194 4.389164
v 7.760820 4.369713 4.345355
v 7.752690 4.421503 4.312975
v 7.930308 4.256305 4.327315
v 8.117036 4.380803 4.308025
v 8.105676 4.416973 4.288436
v 7.840599 4.476972 4.352035
v 7.777900 4.450522 4.327385
v 7.788940 4.309203 4.412984
v 7.728331 4.418003 4.387614
v 7.901418 4.486372 4.400764
v 7.726231 4.446252 4.419134
v 8.043496 4.445312 4.442344
v 7.973067 4.475571 4.430144
v 7.922408 4.246854 4.423923
v 7.921958 4.257574 4.489023
v 7.983457 4.282554 4.477803
v 8.041126 4.347733 4.466693
v 8.049006 4.396543 4.477113
v 8.065096 4.413732 4.417444
v 8.016367 4.307953 4.462913
v 7.820029 4.501641 4.463723
v 7.757740 4.483212 4.468374
v 7.868069 4.261144 4.476143
v 7.772020 4.303334 4.578491
v 7.740750 4.349673 4.499903
v 7.715821 4.403002 4.505983
v 7.704901 4.450282 4.612252
v 7.868189 4.503101 4.511053
v 8.016176 4.426912 4.535782
v 7.972627 4.470102 4.550612
v 7.910428 4.493811 4.563772
v 7.995427 4.447042 4.553382
v 7.785450 4.504641 4.575652
v 7.951947 4.318493 4.603521
v 7.734220 4.483841 4.647821
v 7.710081 4.365003 4.655291
v 7.891568 4.295784 4.640751
v 7.996017 4.397373 4.581642
v 7.827649 4.290244 4.635331
v 7.917018 4.377073 4.710239
v 7.837159 4.500421 4.646791
v 7.750190 4.322703 4.758589
v 7.693041 4.408332 4.684581
v 7.705141 4.460021 4.772629
v 7.876648 4.462781 4.720610
v 7.720510 4.345853 4.744949
v 7.953058 4.428632 4.632061
v 7.765290 4.482881 4.723840
v 7.781000 4.316953 4.771119
v 7.688081 4.426272 4.782390
v 7.810799 4.320703 4.769639
v 7.858408 4.339823 4.754600
v 7.697771 4.384183 4.775579
v 7.800469 4.467602 4.781539
v 7.714851 4.366163 4.846648
v 7.879858 4.421182 4.761540
v 7.841369 4.430692 4.817859
v 7.756900 4.343273 4.832338
v 7.799390 4.429832 4.855258
v 7.826629 4.369633 4.840768
v 7.697481 4.432222 4.857368
v 7.782179 4.363633 4.858068
v 7.838519 4.402822 4.819419
v 7.742440 4.437432 4.850619
v 7.700761 4.405522 4.855448
v 7.730461 4.374533 4.880318
v 7.789250 4.402873 4.873288
v 7.713251 4.393483 4.888578
v 7.712861 4.410052 4.876868
v 7.769840 4.418622 4.879988
v 7.746150 4.399292 4.868928
v 7.622542 4.601570 5.207524
v 7.576112 4.629489 5.201754
v 7.583853 4.675669 5.198014
v 7.622972 4.665029 5.210204
v 7.545393 4.693298 5.206154
v 7.584802 4.737318 5.213924
v 7.538183 4.754208 5.216434
v 7.641151 4.560771 5.237864
v 7.600542 4.577410 5.229674
v 7.535273 4.640910 5.248083
v 7.652341 4.619520 5.249083
v 7.499593 4.749378 5.239773
v 7.630082 4.710488 5.242853
v 7.515783 4.837437 5.255623
v 7.587592 4.790907 5.257223
v 7.478263 4.823667 5.258353
v 7.586592 4.548661 5.264323
v 7.629032 4.536371 5.271003
v 7.548553 4.567540 5.301203
v 7.438704 4.749288 5.325312
v 7.637452 4.757138 5.289383
v 7.413295 4.842807 5.316613
v 7.529453 4.880756 5.308022
v 7.440594 4.900556 5.300423
v 7.653161 4.549891 5.291133
v 7.661471 4.687679 5.311812
v 7.602762 4.812247 5.312102
v 7.405335 4.900896 5.321863
v 7.593172 4.530981 5.314373
v 7.634572 4.528571 5.317863
v 7.666811 4.609180 5.337842
v 7.422324 4.959815 5.343312
v 7.533673 4.567420 5.348722
v 7.645392 4.553920 5.363852
v 7.483183 4.644410 5.350222
v 7.636292 4.778297 5.358672
v 7.549043 4.886586 5.372142
v 7.385635 4.946745 5.345742
v 7.468974 4.957845 5.370452
v 7.554343 4.558351 5.375522
v 7.343796 4.952965 5.385181
v 7.607332 4.542931 5.356052
v 7.389055 4.764808 5.415211
v 7.362085 4.861937 5.390902
v 7.359135 4.992235 5.380311
v 7.497473 4.612700 5.382852
v 7.444544 4.677629 5.411391
v 7.658471 4.694468 5.397532
v 7.582353 4.856536 5.408391
v 7.463364 4.985135 5.415701
v 7.393825 5.030644 5.423011
v 7.359265 5.021844 5.404181
v 7.658051 4.613890 5.395902
v 7.321756 4.930536 5.425031
v 7.510084 4.933886 5.454131
v 7.325486 5.027744 5.439231
v 7.587422 4.588180 5.417091
v 7.641442 4.604800 5.416241
v 7.488404 4.644749 5.430371
v 7.403565 4.740278 5.471951
v 7.602982 4.807837 5.430151
v 7.329216 4.889826 5.449321
v 7.317986 4.964315 5.452580
v 7.430474 5.016785 5.460461
v 7.344386 5.048344 5.449461
v 7.645132 4.652479 5.437441
v 7.618152 4.741168 5.458681
v 7.326236 5.054324 5.475091
v 7.348575 5.055884 5.469310
v 7.620312 4.623209 5.443161
v 7.526023 4.652390 5.464561
v 7.578552 4.651389 5.465041
v 7.459374 4.718958 5.494360
v 7.348735 4.833647 5.487381
v 7.405725 5.024734 5.501530
v 7.319246 5.012964 5.491030
v 7.377175 5.039464 5.474520
v 7.588612 4.709649 5.479721
v 7.360106 4.814737 5.514710
v 7.545693 4.851777 5.495921
v 7.325935 4.927896 5.494880
v 7.349755 5.032554 5.497470
v 7.517513 4.716968 5.498390
v 7.393855 4.797447 5.526540
v 7.561543 4.788077 5.501900
v 7.340065 4.885276 5.522660
v 7.458934 4.932596 5.527800
v 7.450054 4.799307 5.535250
v 7.514023 4.793147 5.521870
v 7.507393 4.855946 5.525670
v 7.502683 4.879157 5.517370
v 7.347336 4.952385 5.530730
v 7.362595 4.863616 5.532480
v 7.384415 4.987185 5.524870
v 7.389445 4.881376 5.546269
v 7.446604 4.874236 5.538670
v 7.404224 4.925255 5.532579
vn 0.7253 -0.2767 -0.6303
vn -0.0027 -0.7152 -0.6989
vn -0.1683 0.0395 -0.9849
vn 0.2706 0.6758 -0.6856
vn -0.3342 0.6853 -0.6470
vn 0.7554 0.5760 -0.3123
vn 0.2566 -0.9307 -0.2607
vn -0.5001 -0.4432 -0.7440
vn -0.6037 0.0992 -0.7910
vn -0.0027 0.9571 -0.2897
vn -0.2792 -0.8802 -0.3839
vn -0.5923 -0.5175 -0.6176
vn 0.9798 0.1623 -0.1166
vn -0.5645 0.5610 -0.6055
vn -0.1990 0.9317 -0.3040
vn 0.4750 0.8692 -0.1371
vn 0.7146 -0.6884 -0.1246
vn 0.9597 -0.2716 -0.0716
vn -0.7041 -0.0612 -0.7074
vn -0.2816 -0.9274 -0.2460
vn 0.0586 -0.9865 -0.1530
vn -0.4929 -0.7751 -0.3953
vn 0.5486 -0.8326 0.0767
vn 0.8735 -0.4630 0.1502
vn 0.8245 0.5550 0.1100
vn 0.2530 0.9654 -0.0636
vn -0.6693 -0.4822 -0.5653
vn 0.9834 -0.0471 0.1754
vn 0.5021 0.8593 0.0972
vn 0.2873 -0.9571 -0.0367
vn -0.7750 -0.0380 -0.6309
vn 0.0964 0.9909 -0.0938
vn -0.6337 -0.6472 -0.4238
vn 0.8722 -0.4083 0.2694
vn -0.6701 0.4727 -0.5723
vn -0.3997 0.8110 -0.4272
vn -0.0944 0.9690 -0.2285
vn -0.1352 -0.9853 -0.1041
vn -0.4430 -0.8660 -0.2321
vn -0.7815 -0.3426 -0.5213
vn 0.9577 0.1241 0.2598
vn -0.7769 0.2387 -0.5826
vn -0.6234 -0.7138 -0.3192
vn 0.3042 -0.9481 0.0921
vn 0.9466 -0.0083 0.3222
vn 0.8034 0.5498 0.2286
vn 0.4182 0.9083 0.0142
vn 0.5329 0.8431 0.0722
vn 0.6812 -0.6760 0.2810
vn -0.8197 -0.4080 -0.4020
vn 0.0511 0.9845 -0.1678
vn -0.6367 -0.7309 -0.2457
vn 0.8612 -0.3597 0.3592
vn -0.6209 0.6438 -0.4473
vn 0.1041 -0.9939 0.0376
vn 0.4289 -0.8813 0.1982
vn -0.8958 -0.0127 -0.4444
vn -0.1881 0.9402 -0.2840
vn -0.4440 -0.8856 -0.1361
vn -0.8575 -0.4558 -0.2386
vn -0.9030 0.2423 -0.3548
vn -0.2622 -0.9575 -0.1200
vn 0.9272 0.1336 0.3499
vn 0.7861 0.5820 0.2081
vn -0.1423 0.9567 -0.2538
vn -0.4718 0.8298 -0.2980
vn -0.6958 -0.6982 -0.1686
vn -0.9672 -0.1157 -0.2260
vn 0.1021 0.9825 -0.1556
vn -0.8688 0.4484 -0.2102
vn 0.7006 0.6777 0.2233
vn 0.2772 0.9605 -0.0256
vn -0.1002 -0.9947 0.0237
vn 0.1765 -0.9621 0.2081
vn 0.5392 -0.7852 0.3046
vn 0.8423 -0.3531 0.4073
vn 0.9152 0.0530 0.3996
vn 0.8803 0.3588 0.3105
vn 0.7223 -0.5941 0.3540
vn -0.0985 0.9838 -0.1495
vn -0.4800 0.8614 -0.1660
vn -0.2524 -0.9668 0.0399
vn -0.5695 -0.8217 -0.0211
vn -0.8274 -0.5453 -0.1343
vn -0.9712 -0.1975 -0.1333
vn -0.9006 0.4262 -0.0849
vn 0.1168 0.9927 -0.0298
vn 0.8490 0.3258 0.4160
vn 0.5457 0.7940 0.2679
vn 0.3096 0.9429 0.1226
vn 0.7171 0.5676 0.4045
vn -0.1766 0.9842 0.0109
vn 0.6794 -0.5983 0.4247
vn -0.4963 0.8681 0.0064
vn -0.8707 -0.4861 -0.0750
vn 0.3494 -0.8716 0.3439
vn 0.8669 0.0155 0.4982
vn -0.0961 -0.9812 0.1677
vn 0.8306 -0.1662 0.5315
vn 0.1349 0.9756 0.1734
vn -0.4151 -0.8972 0.1506
vn -0.9890 -0.1272 -0.0753
vn -0.5586 0.8167 0.1444
vn 0.5322 0.7518 0.3894
vn -0.7468 -0.6645 0.0274
vn 0.7735 0.3915 0.4984
vn -0.1418 0.9675 0.2093
vn -0.0656 -0.9599 0.2725
vn -0.9917 0.1206 0.0450
vn 0.2403 -0.8864 0.3956
vn 0.5392 -0.6976 0.4719
vn -0.9281 -0.3697 0.0446
vn 0.1468 0.9203 0.3627
vn -0.6809 -0.6738 0.2868
vn 0.8211 0.2358 0.5198
vn 0.7163 0.3500 0.6037
vn -0.1066 -0.8957 0.4317
vn 0.4476 0.6040 0.6594
vn 0.6561 -0.3570 0.6649
vn -0.7096 0.5192 0.4764
vn 0.2782 -0.6155 0.7374
vn 0.7560 0.0624 0.6516
vn -0.0851 0.8105 0.5795
vn -0.9342 -0.1242 0.3346
vn -0.0128 -0.5607 0.8279
vn 0.4083 -0.0791 0.9094
vn -0.4404 -0.1005 0.8921
vn -0.2582 0.4375 0.8614
vn -0.0388 0.3335 0.9419
vn 0.0961 0.0705 0.9929
vn 0.3310 -0.2492 -0.9101
vn -0.3844 -0.3439 -0.8567
vn 0.0579 0.0817 -0.9950
vn 0.6233 0.1687 -0.7635
vn -0.5165 -0.0940 -0.8511
vn 0.3772 0.4032 -0.8338
vn -0.2201 0.2350 -0.9468
vn 0.5317 -0.5638 -0.6319
vn -0.2894 -0.6395 -0.7122
vn -0.7408 -0.4163 -0.5273
vn 0.9188 -0.0009 -0.3948
vn -0.6894 -0.1185 -0.7146
vn 0.7952 0.3193 -0.5155
vn 0.1143 0.5478 -0.8287
vn 0.5836 0.5703 -0.5781
vn -0.4740 0.1771 -0.8625
vn -0.4774 -0.7311 -0.4874
vn 0.1358 -0.9007 -0.4127
vn -0.7143 -0.6262 -0.3123
vn -0.8140 -0.3418 -0.4696
vn 0.8344 0.4435 -0.3272
vn -0.7598 -0.1317 -0.6367
vn 0.5117 0.7075 -0.4874
vn -0.2996 0.3967 -0.8677
vn 0.8583 -0.4967 -0.1287
vn 0.9714 0.1813 -0.1533
vn 0.7187 0.6368 -0.2793
vn -0.6192 0.1011 -0.7787
vn -0.3205 -0.9469 -0.0259
vn 0.3267 -0.9389 0.1082
vn 0.9927 -0.1174 0.0267
vn 0.0621 0.6725 -0.7375
vn -0.6941 -0.7183 -0.0476
vn 0.6419 -0.6418 0.4196
vn -0.8177 -0.5020 -0.2817
vn 0.8812 0.4727 -0.0033
vn 0.7088 0.6831 -0.1759
vn -0.4747 0.3200 -0.8199
vn 0.4950 0.7516 -0.4359
vn -0.3959 -0.8267 0.3998
vn -0.8089 0.0476 -0.5861
vn 0.0185 -0.8894 0.4568
vn -0.8693 -0.4476 -0.2098
vn -0.8516 -0.2817 -0.4421
vn -0.4968 0.4353 -0.7508
vn -0.7351 -0.6663 0.1253
vn -0.7809 -0.6233 0.0416
vn 0.9576 0.1684 0.2337
vn 0.8008 0.5922 0.0899
vn 0.6335 0.7504 -0.1885
vn 0.3285 0.8787 -0.3464
vn -0.2134 0.7299 -0.6494
vn 0.9139 -0.2211 0.3406
vn -0.9381 -0.1280 -0.3220
vn 0.7443 0.6177 0.2540
vn -0.8128 0.4030 -0.4207
vn -0.0022 -0.7206 0.6934
vn 0.5561 -0.5244 0.6448
vn -0.5045 -0.7076 0.4948
vn -0.7064 -0.6345 0.3139
vn 0.8410 0.4272 0.3320
vn -0.9560 -0.2768 -0.0970
vn -0.9945 0.0055 -0.1051
vn 0.5631 0.8251 0.0469
vn -0.2141 0.8749 -0.4344
vn 0.7459 -0.1314 0.6529
vn 0.7703 0.1805 0.6116
vn -0.5645 0.8090 0.1641
vn 0.1641 0.9767 0.1385
vn 0.3354 -0.4501 0.8276
vn -0.1791 -0.6140 0.7687
vn 0.1008 -0.4564 0.8840
vn -0.2873 -0.5838 0.7594
vn -0.9236 -0.3746 0.0818
vn 0.4031 0.7239 0.5599
vn -0.8923 0.1993 0.4051
vn 0.3448 0.9106 0.2279
vn 0.4024 -0.1741 0.8988
vn -0.7299 -0.4331 0.5288
vn 0.6945 0.3773 0.6126
vn -0.9564 -0.1141 0.2687
vn -0.1172 0.6430 0.7568
vn 0.0706 -0.3786 0.9228
vn -0.3587 -0.4364 0.8251
vn 0.5501 0.0614 0.8328
vn -0.8259 -0.1696 0.5377
vn 0.4321 0.3567 0.8283
vn 0.0215 -0.2621 0.9648
vn 0.2648 -0.1274 0.9558
vn 0.4571 0.1774 0.8715
vn 0.5910 0.3489 0.7274
vn -0.4419 0.1421 0.8858
vn -0.4695 -0.1840 0.8635
vn 0.0390 0.3355 0.9412
vn -0.0961 -0.0127 0.9953
vn 0.1706 0.0749 0.9825
vn 0.0742 0.1937 0.9782
usemtl mtl1.1237
s 1
f 1//1 2//2 3//3
f 1//1 3//3 4//4
f 4//4 3//3 5//5
f 6//6 1//1 4//4
f 2//2 1//1 7//7
f 2//2 8//8 3//3
f 8//8 9//9 3//3
f 3//3 9//9 5//5
f 4//4 5//5 10//10
f 11//11 8//8 2//2
f 2//2 7//7 11//11
f 12//12 8//8 11//11
f 9//9 8//8 12//12
f 1//1 6//6 13//13
f 14//14 5//5 9//9
f 5//5 14//14 15//15
f 5//5 15//15 10//10
f 16//16 4//4 10//10
f 6//6 4//4 16//16
f 7//7 1//1 17//17
f 18//18 1//1 13//13
f 18//18 17//17 1//1
f 12//12 19//19 9//9
f 14//14 9//9 19//19
f 20//20 11//11 21//21
f 7//7 21//21 11//11
f 22//22 11//11 20//20
f 7//7 17//17 23//23
f 11//11 22//22 12//12
f 17//17 18//18 24//24
f 6//6 25//25 13//13
f 6//6 16//16 25//25
f 16//16 10//10 26//26
f 7//7 23//23 21//21
f 17//17 24//24 23//23
f 12//12 22//22 27//27
f 27//27 19//19 12//12
f 18//18 13//13 28//28
f 13//13 25//25 28//28
f 16//16 26//26 29//29
f 21//21 23//23 30//30
f 28//28 24//24 18//18
f 19//19 27//27 31//31
f 19//19 31//31 14//14
f 10//10 15//15 32//32
f 25//25 16//16 29//29
f 33//33 27//27 22//22
f 27//27 33//33 31//31
f 28//28 34//34 24//24
f 14//14 31//31 35//35
f 10//10 32//32 26//26
f 35//35 36//36 14//14
f 15//15 14//14 36//36
f 32//32 15//15 37//37
f 20//20 21//21 38//38
f 39//39 22//22 20//20
f 40//40 31//31 33//33
f 34//34 28//28 41//41
f 42//42 31//31 40//40
f 31//31 42//42 35//35
f 41//41 28//28 25//25
f 26//26 32//32 29//29
f 20//20 38//38 39//39
f 43//43 33//33 39//39
f 39//39 33//33 22//22
f 33//33 43//43 40//40
f 15//15 36//36 37//37
f 21//21 44//44 38//38
f 21//21 30//30 44//44
f 30//30 23//23 44//44
f 24//24 34//34 23//23
f 34//34 41//41 45//45
f 25//25 29//29 46//46
f 25//25 46//46 41//41
f 32//32 47//47 48//48
f 48//48 29//29 32//32
f 45//45 41//41 46//46
f 36//36 35//35 42//42
f 23//23 49//49 44//44
f 43//43 50//50 40//40
f 40//40 50//50 42//42
f 48//48 46//46 29//29
f 32//32 37//37 51//51
f 49//49 23//23 34//34
f 43//43 39//39 52//52
f 53//53 49//49 34//34
f 43//43 52//52 50//50
f 34//34 45//45 53//53
f 36//36 42//42 54//54
f 32//32 51//51 47//47
f 44//44 55//55 38//38
f 44//44 56//56 55//55
f 44//44 49//49 56//56
f 42//42 50//50 57//57
f 36//36 58//58 37//37
f 59//59 52//52 39//39
f 57//57 54//54 42//42
f 36//36 54//54 58//58
f 37//37 58//58 51//51
f 57//57 50//50 60//60
f 54//54 57//57 61//61
f 39//39 62//62 59//59
f 62//62 39//39 38//38
f 53//53 45//45 63//63
f 45//45 46//46 63//63
f 61//61 57//57 60//60
f 64//64 46//46 48//48
f 51//51 58//58 65//65
f 38//38 55//55 62//62
f 60//60 50//50 52//52
f 46//46 64//64 63//63
f 54//54 61//61 66//66
f 54//54 66//66 58//58
f 47//47 64//64 48//48
f 58//58 66//66 65//65
f 59//59 67//67 52//52
f 60//60 68//68 61//61
f 51//51 65//65 69//69
f 52//52 67//67 60//60
f 70//70 61//61 68//68
f 61//61 70//70 66//66
f 71//71 64//64 47//47
f 51//51 69//69 72//72
f 51//51 72//72 47//47
f 55//55 73//73 62//62
f 74//74 55//55 56//56
f 49//49 75//75 56//56
f 49//49 53//53 76//76
f 53//53 63//63 76//76
f 76//76 63//63 77//77
f 63//63 64//64 78//78
f 72//72 71//71 47//47
f 55//55 74//74 73//73
f 56//56 75//75 74//74
f 49//49 79//79 75//75
f 77//77 63//63 78//78
f 78//78 64//64 71//71
f 65//65 80//80 69//69
f 76//76 79//79 49//49
f 65//65 66//66 81//81
f 80//80 65//65 81//81
f 59//59 62//62 82//82
f 62//62 73//73 82//82
f 67//67 59//59 83//83
f 60//60 67//67 84//84
f 68//68 85//85 70//70
f 86//86 70//70 85//85
f 81//81 66//66 70//70
f 69//69 80//80 87//87
f 69//69 87//87 72//72
f 59//59 82//82 83//83
f 68//68 60//60 85//85
f 78//78 88//88 77//77
f 78//78 71//71 88//88
f 86//86 81//81 70//70
f 89//89 71//71 72//72
f 87//87 90//90 72//72
f 60//60 84//84 85//85
f 71//71 89//89 91//91
f 80//80 81//81 92//92
f 80//80 92//92 87//87
f 67//67 83//83 84//84
f 79//79 93//93 75//75
f 93//93 79//79 76//76
f 88//88 71//71 91//91
f 89//89 72//72 90//90
f 81//81 94//94 92//92
f 74//74 82//82 73//73
f 84//84 95//95 85//85
f 86//86 94//94 81//81
f 74//74 75//75 96//96
f 76//76 77//77 97//97
f 77//77 88//88 97//97
f 83//83 82//82 98//98
f 93//93 96//96 75//75
f 95//95 84//84 83//83
f 76//76 99//99 93//93
f 92//92 100//100 87//87
f 87//87 100//100 90//90
f 83//83 98//98 101//101
f 82//82 74//74 98//98
f 85//85 102//102 86//86
f 103//103 94//94 86//86
f 90//90 104//104 89//89
f 90//90 100//100 104//104
f 74//74 96//96 98//98
f 105//105 95//95 83//83
f 95//95 102//102 85//85
f 91//91 106//106 88//88
f 106//106 91//91 89//89
f 101//101 105//105 83//83
f 97//97 99//99 76//76
f 88//88 106//106 97//97
f 106//106 89//89 104//104
f 100//100 92//92 107//107
f 108//108 101//101 98//98
f 102//102 109//109 86//86
f 94//94 103//103 107//107
f 92//92 94//94 107//107
f 96//96 110//110 98//98
f 93//93 111//111 96//96
f 102//102 95//95 112//112
f 106//106 99//99 97//97
f 103//103 86//86 109//109
f 113//113 104//104 100//100
f 98//98 110//110 108//108
f 114//114 105//105 101//101
f 95//95 105//105 112//112
f 106//106 115//115 99//99
f 106//106 104//104 115//115
f 100//100 107//107 113//113
f 93//93 99//99 111//111
f 102//102 112//112 109//109
f 104//104 116//116 115//115
f 101//101 117//117 114//114
f 101//101 108//108 117//117
f 104//104 113//113 118//118
f 118//118 116//116 104//104
f 96//96 111//111 110//110
f 99//99 119//119 111//111
f 120//120 103//103 109//109
f 110//110 117//117 108//108
f 110//110 111//111 121//121
f 99//99 122//122 119//119
f 99//99 115//115 122//122
f 107//107 103//103 123//123
f 123//123 113//113 107//107
f 110//110 121//121 117//117
f 112//112 105//105 114//114
f 111//111 119//119 121//121
f 112//112 124//124 109//109
f 122//122 115//115 116//116
f 109//109 124//124 120//120
f 103//103 120//120 123//123
f 114//114 124//124 112//112
f 118//118 122//122 116//116
f 123//123 118//118 113//113
f 117//117 125//125 114//114
f 121//121 125//125 117//117
f 119//119 126//126 121//121
f 124//124 114//114 127//127
f 122//122 126//126 119//119
f 120//120 124//124 128//128
f 123//123 129//129 118//118
f 114//114 125//125 127//127
f 124//124 127//127 128//128
f 118//118 126//126 122//122
f 129//129 126//126 118//118
f 120//120 128//128 123//123
f 121//121 130//130 125//125
f 121//121 126//126 130//130
f 128//128 127//127 130//130
f 130//130 127//127 125//125
f 126//126 129//129 130//130
f 123//123 128//128 130//130
f 129//129 123//123 130//130
f 131//131 132//132 133//133
f 131//131 133//133 134//134
f 132//132 135//135 133//133
f 134//134 133//133 136//136
f 133//133 135//135 137//137
f 136//136 133//133 137//137
f 138//138 139//139 131//131
f 131//131 139//139 132//132
f 139//139 140//140 132//132
f 141//141 138//138 131//131
f 134//134 141//141 131//131
f 132//132 140//140 135//135
f 142//142 135//135 140//140
f 134//134 136//136 143//143
f 135//135 142//142 137//137
f 136//136 137//137 144//144
f 136//136 145//145 143//143
f 137//137 142//142 146//146
f 137//137 146//146 144//144
f 145//145 136//136 144//144
f 147//147 139//139 148//148
f 148//148 139//139 138//138
f 139//139 147//147 140//140
f 140//140 147//147 149//149
f 134//134 143//143 141//141
f 142//142 140//140 150//150
f 143//143 145//145 151//151
f 146//146 142//142 152//152
f 145//145 144//144 153//153
f 154//154 144//144 146//146
f 155//155 138//138 141//141
f 141//141 143//143 156//156
f 143//143 151//151 156//156
f 142//142 150//150 152//152
f 145//145 157//157 151//151
f 158//158 146//146 152//152
f 145//145 153//153 157//157
f 154//154 146//146 158//158
f 147//147 159//159 149//149
f 148//148 159//159 147//147
f 148//148 155//155 160//160
f 138//138 155//155 148//148
f 155//155 141//141 161//161
f 154//154 162//162 144//144
f 144//144 162//162 153//153
f 159//159 148//148 160//160
f 159//159 163//163 149//149
f 164//164 160//160 155//155
f 161//161 164//164 155//155
f 149//149 165//165 140//140
f 161//161 141//141 156//156
f 150//150 140//140 165//165
f 151//151 157//157 166//166
f 156//156 151//151 166//166
f 157//157 153//153 167//167
f 158//158 168//168 154//154
f 153//153 162//162 169//169
f 170//170 163//163 159//159
f 149//149 163//163 165//165
f 158//158 152//152 171//171
f 168//168 158//158 171//171
f 153//153 169//169 167//167
f 168//168 162//162 154//154
f 160//160 172//172 159//159
f 150//150 165//165 173//173
f 150//150 173//173 174//174
f 152//152 150//150 174//174
f 166//166 157//157 167//167
f 171//171 152//152 174//174
f 171//171 175//175 168//168
f 168//168 175//175 162//162
f 172//172 170//170 159//159
f 160//160 164//164 172//172
f 165//165 163//163 176//176
f 176//176 163//163 170//170
f 165//165 176//176 177//177
f 161//161 156//156 178//178
f 156//156 166//166 178//178
f 179//179 166//166 167//167
f 180//180 167//167 169//169
f 162//162 181//181 169//169
f 175//175 182//182 162//162
f 182//182 181//181 162//162
f 183//183 164//164 161//161
f 183//183 161//161 178//178
f 165//165 177//177 173//173
f 171//171 174//174 184//184
f 185//185 167//167 180//180
f 186//186 175//175 171//171
f 175//175 186//186 182//182
f 180//180 169//169 181//181
f 170//170 172//172 187//187
f 172//172 164//164 187//187
f 164//164 188//188 187//187
f 176//176 170//170 189//189
f 183//183 188//188 164//164
f 177//177 176//176 189//189
f 173//173 177//177 190//190
f 166//166 191//191 178//178
f 179//179 191//191 166//166
f 174//174 173//173 192//192
f 193//193 171//171 184//184
f 171//171 193//193 186//186
f 181//181 194//194 180//180
f 195//195 182//182 186//186
f 195//195 181//181 182//182
f 187//187 189//189 170//170
f 196//196 188//188 183//183
f 183//183 178//178 196//196
f 190//190 177//177 189//189
f 197//197 196//196 178//178
f 191//191 197//197 178//178
f 184//184 174//174 192//192
f 179//179 167//167 185//185
f 185//185 180//180 194//194
f 195//195 186//186 198//198
f 181//181 195//195 199//199
f 187//187 188//188 200//200
f 189//189 187//187 201//201
f 201//201 187//187 202//202
f 200//200 202//202 187//187
f 188//188 196//196 200//200
f 189//189 203//203 190//190
f 173//173 190//190 204//204
f 192//192 173//173 204//204
f 191//191 179//179 185//185
f 192//192 193//193 184//184
f 194//194 205//205 185//185
f 193//193 206//206 186//186
f 186//186 206//206 198//198
f 207//207 194//194 181//181
f 195//195 198//198 199//199
f 181//181 199//199 207//207
f 208//208 202//202 200//200
f 203//203 189//189 201//201
f 200//200 196//196 208//208
f 208//208 196//196 197//197
f 190//190 209//209 204//204
f 197//197 191//191 210//210
f 204//204 211//211 192//192
f 191//191 185//185 210//210
f 192//192 211//211 193//193
f 205//205 194//194 207//207
f 199//199 198//198 212//212
f 201//201 202//202 213//213
f 208//208 213//213 202//202
f 190//190 203//203 214//214
f 215//215 208//208 197//197
f 190//190 214//214 209//209
f 204//204 209//209 216//216
f 215//215 197//197 210//210
f 204//204 216//216 211//211
f 217//217 210//210 185//185
f 211//211 206//206 193//193
f 217//217 185//185 205//205
f 212//212 198//198 206//206
f 203//203 201//201 213//213
f 218//218 203//203 213//213
f 203//203 218//218 214//214
f 208//208 219//219 213//213
f 208//208 215//215 219//219
f 215//215 220//220 219//219
f 221//221 220//220 210//210
f 220//220 215//215 210//210
f 210//210 217//217 221//221
f 206//206 211//211 222//222
f 212//212 206//206 222//222
f 212//212 205//205 207//207
f 207//207 199//199 212//212
f 213//213 219//219 218//218
f 209//209 223//223 216//216
f 216//216 222//222 211//211
f 222//222 216//216 223//223
f 217//217 220//220 221//221
f 217//217 205//205 224//224
f 205//205 212//212 224//224
f 214//214 218//218 225//225
f 214//214 223//223 209//209
f 214//214 225//225 223//223
f 219//219 226//226 218//218
f 226//226 225//225 218//218
f 219//219 220//220 226//226
f 222//222 223//223 225//225
f 220//220 217//217 226//226
f 227//227 222//222 225//225
f 227//227 226//226 217//217
f 217//217 224//224 227//227
f 227//227 224//224 222//222
f 222//222 224//224 212//212
f 226//226 227//227 225//225
