# Blender v2.92.0 OBJ File: 'convert_to_one_sided.blend'
# www.blender.org
mtllib 433L.mtl
o Cube
v 0.001000 0.001000 -0.001000
v 0.001000 -0.001000 -0.001000
v 0.001000 0.001000 0.001000
v 0.001000 -0.001000 0.001000
v -0.001000 0.001000 -0.001000
v -0.001000 -0.001000 -0.001000
v -0.001000 0.001000 0.001000
v -0.001000 -0.001000 0.001000
vt 0.625000 0.500000
vt 0.875000 0.500000
vt 0.875000 0.750000
vt 0.625000 0.750000
vt 0.375000 0.750000
vt 0.625000 1.000000
vt 0.375000 1.000000
vt 0.375000 0.000000
vt 0.625000 0.000000
vt 0.625000 0.250000
vt 0.375000 0.250000
vt 0.125000 0.500000
vt 0.375000 0.500000
vt 0.125000 0.750000
vn 0.0000 1.0000 0.0000
vn 0.0000 0.0000 1.0000
vn -1.0000 0.0000 0.0000
vn 0.0000 -1.0000 0.0000
vn 1.0000 0.0000 0.0000
vn 0.0000 0.0000 -1.0000
usemtl Material
s off
f 1/1/1 5/2/1 7/3/1 3/4/1
f 4/5/2 3/4/2 7/6/2 8/7/2
f 8/8/3 7/9/3 5/10/3 6/11/3
f 6/12/4 2/13/4 4/5/4 8/14/4
f 2/13/5 1/1/5 3/4/5 4/5/5
f 6/11/6 5/10/6 1/1/6 2/13/6
o 433
v 7.752820 0.923298 3.528335
v 7.751330 0.953872 3.519605
v 7.760240 0.973147 3.526485
v 7.771420 0.939410 3.546695
v 7.756210 0.988480 3.526445
v 7.740191 0.926917 3.532685
v 7.723490 0.964075 3.556654
v 7.746140 1.020986 3.559274
v 7.758460 1.014566 3.544914
v 7.752200 1.038446 3.561834
v 7.731960 0.899272 3.560785
v 7.760670 0.892638 3.584864
v 7.714071 0.918722 3.567214
v 7.795310 0.923623 3.610554
v 7.781340 0.984150 3.583574
v 7.725770 1.040006 3.623264
v 7.769670 1.031416 3.606354
v 7.701071 0.858600 3.639373
v 7.649251 0.910290 3.664133
v 7.656352 0.959234 3.666563
v 7.672421 1.002146 3.680063
v 7.744510 1.042676 3.640774
v 7.693691 0.888917 3.615294
v 7.811939 0.858955 3.691633
v 7.788219 1.028276 3.728152
v 7.652681 0.864830 3.684943
v 7.763010 0.839908 3.683863
v 7.843289 0.897960 3.737992
v 7.828979 0.957558 3.709132
v 7.808330 0.997912 3.681963
v 7.699561 0.811742 3.743492
v 7.687561 1.028656 3.696423
v 7.597912 0.849809 3.762032
v 7.813319 1.008276 3.735382
v 7.701160 1.030046 3.747322
v 7.761460 1.029876 3.739742
v 7.603782 0.816867 3.792391
v 7.824059 0.807968 3.785702
v 7.855819 0.850066 3.783681
v 7.591022 0.947229 3.778252
v 7.553983 0.872333 3.815391
v 7.596522 0.997208 3.828671
v 7.843249 0.980188 3.786252
v 7.657471 1.015006 3.756712
v 7.657442 0.784999 3.829231
v 7.886168 0.932293 3.860370
v 7.760980 0.788631 3.816331
v 7.579813 0.831279 3.795241
v 7.872838 0.808763 3.847991
v 7.904528 0.855050 3.890410
v 7.850679 0.995482 3.860281
v 7.634042 1.013186 3.822671
v 7.537203 0.822670 3.851081
v 7.783620 1.013346 3.851701
v 7.567323 0.771758 3.907410
v 7.855639 0.770911 3.889260
v 7.533153 0.965505 3.898950
v 7.888319 0.969602 3.909480
v 7.659941 0.757684 3.917190
v 7.779550 0.751892 3.920940
v 7.473683 0.830288 3.928660
v 7.472754 0.802771 3.937680
v 7.589342 1.006066 3.898370
v 7.682021 1.012596 3.879640
v 7.485013 0.783347 3.951849
v 7.945598 0.783708 3.988969
v 7.493854 0.907978 3.923520
v 7.514633 0.986960 3.985809
v 7.917838 0.967078 4.003889
v 7.735050 0.722453 4.016768
v 7.956798 0.820270 4.005158
v 7.991067 0.843997 4.090037
v 7.478444 0.956251 3.988749
v 7.633232 0.995765 4.001178
v 7.770280 0.993475 4.008338
v 7.882739 0.725653 4.015618
v 7.923448 0.755975 3.990739
v 7.563353 0.741622 4.013858
v 7.398785 0.844210 4.040748
v 7.947328 0.926964 4.035298
v 7.886099 0.972435 4.032038
v 7.431764 0.797284 4.001499
v 7.407575 0.921279 4.064137
v 7.887749 0.683353 4.118837
v 7.426284 0.759286 4.054778
v 7.992477 0.770462 4.087778
v 7.708091 0.688980 4.130947
v 7.994707 0.726774 4.111187
v 7.964578 0.708471 4.097767
v 7.428594 0.962833 4.078228
v 7.446054 0.976997 4.084918
v 7.962018 0.683300 4.138787
v 7.375205 0.781399 4.082367
v 7.336475 0.808542 4.124717
v 8.007877 0.890851 4.162396
v 7.733331 0.965294 4.153147
v 7.869029 0.958879 4.131387
v 7.494363 0.970806 4.150417
v 7.455754 0.701162 4.180576
v 7.343986 0.739651 4.162636
v 7.318606 0.864168 4.166346
v 7.335566 0.929055 4.185016
v 7.978057 0.921102 4.144766
v 7.891918 0.658029 4.204876
v 7.321136 0.768872 4.155766
v 7.280447 0.791564 4.207786
v 7.390445 0.957836 4.164636
v 7.653401 0.664217 4.231225
v 7.264407 0.744280 4.239366
v 8.029007 0.746726 4.185586
v 8.040537 0.857872 4.218216
v 7.950528 0.931895 4.173816
v 7.996147 0.684301 4.200136
v 7.936428 0.678531 4.164426
v 7.273156 0.887420 4.252985
v 7.311536 0.941355 4.257825
v 7.463274 0.674086 4.252715
v 7.289656 0.714510 4.262695
v 8.030816 0.877007 4.221086
v 7.360325 0.953557 4.245885
v 7.569343 0.948647 4.255745
v 7.907088 0.919423 4.242715
v 7.363015 0.683767 4.289125
v 7.228327 0.765084 4.284175
v 8.046227 0.797229 4.232146
v 7.244387 0.831654 4.279705
v 7.740140 0.926823 4.270205
v 7.404655 0.945748 4.290785
v 8.003437 0.887336 4.243316
v 7.512333 0.663319 4.287895
v 7.724981 0.652525 4.282615
v 7.878338 0.660575 4.262355
v 8.040337 0.726405 4.259515
v 7.231007 0.733102 4.305165
v 8.039886 0.846089 4.256425
v 7.485194 0.937048 4.304435
v 7.834739 0.660738 4.294615
v 7.653392 0.660087 4.303625
v 7.947128 0.660993 4.288445
v 7.977118 0.681817 4.264655
v 7.407855 0.673563 4.312214
v 7.219317 0.784145 4.326524
v 8.049617 0.786388 4.281185
v 7.263317 0.901409 4.304924
v 7.311116 0.929899 4.307935
v 7.583873 0.923204 4.311295
v 7.458094 0.673222 4.322014
v 7.346796 0.684294 4.325944
v 7.735260 0.667678 4.309364
v 7.971647 0.707434 4.292525
v 7.269436 0.713124 4.328004
v 8.033457 0.750219 4.284715
v 7.230957 0.845781 4.336374
v 8.033297 0.832579 4.290205
v 7.717531 0.905656 4.318005
v 7.833859 0.902445 4.298585
v 7.934118 0.874559 4.290365
v 7.612992 0.680014 4.323414
v 7.794909 0.710284 4.319105
v 7.225857 0.759117 4.337605
v 7.935208 0.764922 4.322195
v 8.010887 0.778358 4.297744
v 7.587532 0.896462 4.343074
v 7.271616 0.909605 4.348824
v 7.468534 0.918669 4.332284
v 7.352776 0.699024 4.340764
v 7.476484 0.695236 4.338184
v 7.620782 0.755249 4.344274
v 7.221317 0.810472 4.353834
v 7.832319 0.777533 4.334514
v 7.726251 0.821165 4.348104
v 7.896448 0.816343 4.317214
v 7.756460 0.870350 4.322944
v 7.244697 0.862978 4.351224
v 7.356276 0.912645 4.339404
v 7.290136 0.732497 4.357144
v 7.242456 0.775850 4.354314
v 7.410375 0.750279 4.355914
v 7.472294 0.821922 4.366924
v 7.239637 0.825416 4.366064
v 7.595952 0.858938 4.350404
v 7.457164 0.884909 4.353644
v 7.316076 0.798113 4.365374
v 7.332665 0.861406 4.352624
vn 0.2871 -0.5081 -0.8120
vn -0.2241 -0.0055 -0.9746
vn 0.6473 0.1056 -0.7549
vn 0.8463 -0.2277 -0.4816
vn -0.2040 0.4084 -0.8897
vn -0.5728 -0.2893 -0.7669
vn -0.7839 0.1994 -0.5880
vn -0.5956 0.5328 -0.6012
vn 0.4759 0.5558 -0.6816
vn 0.0044 0.9061 -0.4231
vn -0.3445 -0.7048 -0.6202
vn 0.4490 -0.7461 -0.4917
vn -0.7576 -0.2581 -0.5995
vn 0.8960 -0.1837 -0.4042
vn 0.9115 0.2207 -0.3470
vn -0.4865 0.8517 -0.1949
vn 0.6978 0.6894 -0.1942
vn -0.2681 -0.8185 -0.5081
vn -0.8288 -0.0945 -0.5515
vn -0.8307 0.2891 -0.4757
vn -0.7537 0.5486 -0.3619
vn 0.1010 0.9948 0.0120
vn -0.6756 -0.4796 -0.5600
vn 0.7063 -0.5271 -0.4726
vn 0.3704 0.9287 0.0200
vn -0.6551 -0.5048 -0.5622
vn 0.1848 -0.8830 -0.4315
vn 0.9202 -0.0717 -0.3848
vn 0.9314 0.1876 -0.3119
vn 0.8772 0.4139 -0.2435
vn -0.0868 -0.9209 -0.3801
vn -0.5433 0.8311 -0.1182
vn -0.6895 -0.4092 -0.5976
vn 0.7466 0.6494 -0.1441
vn -0.1515 0.9864 0.0631
vn 0.0759 0.9896 0.1224
vn -0.4224 -0.7594 -0.4948
vn 0.3651 -0.8267 -0.4281
vn 0.8744 -0.2410 -0.4212
vn -0.8229 0.3328 -0.4604
vn -0.8279 -0.0164 -0.5607
vn -0.5828 0.7687 -0.2637
vn 0.8518 0.4687 -0.2340
vn -0.4861 0.8634 -0.1349
vn -0.1246 -0.9300 -0.3457
vn 0.9183 0.2228 -0.3274
vn 0.0525 -0.9399 -0.3375
vn -0.5481 -0.6070 -0.5754
vn 0.7267 -0.5141 -0.4556
vn 0.9091 -0.0658 -0.4113
vn 0.5528 0.8307 -0.0665
vn -0.2765 0.9601 -0.0422
vn -0.6730 -0.4516 -0.5857
vn 0.1285 0.9842 0.1217
vn -0.2232 -0.9129 -0.3419
vn 0.3025 -0.8658 -0.3986
vn -0.7407 0.5453 -0.3924
vn 0.8229 0.5091 -0.2521
vn -0.0689 -0.9533 -0.2942
vn 0.0282 -0.9453 -0.3249
vn -0.8153 -0.0660 -0.5753
vn -0.7008 -0.4482 -0.5549
vn -0.2134 0.9770 0.0001
vn -0.0298 0.9931 0.1134
vn -0.4584 -0.7686 -0.4463
vn 0.8329 -0.2851 -0.4743
vn -0.8156 0.2767 -0.5082
vn -0.4001 0.9047 -0.1467
vn 0.6513 0.7533 -0.0910
vn -0.0414 -0.9512 -0.3057
vn 0.9100 -0.0193 -0.4143
vn 0.9248 0.1128 -0.3634
vn -0.7107 0.5620 -0.4232
vn -0.0379 0.9892 0.1419
vn 0.0705 0.9844 0.1613
vn 0.1830 -0.8986 -0.3988
vn 0.5415 -0.6933 -0.4755
vn -0.1679 -0.9378 -0.3039
vn -0.8188 0.0617 -0.5708
vn 0.8671 0.4226 -0.2639
vn 0.2691 0.9563 0.1143
vn -0.7361 -0.4072 -0.5407
vn -0.7716 0.3969 -0.4971
vn 0.0419 -0.9537 -0.2980
vn -0.4247 -0.7843 -0.4522
vn 0.9126 -0.0880 -0.3992
vn -0.0764 -0.9548 -0.2873
vn 0.7722 -0.4776 -0.4189
vn 0.5000 -0.7453 -0.4410
vn -0.6135 0.7195 -0.3254
vn -0.3097 0.9493 -0.0548
vn 0.2574 -0.9196 -0.2968
vn -0.7059 -0.3881 -0.5926
vn -0.8099 -0.0383 -0.5854
vn 0.8459 0.4698 -0.2524
vn 0.0588 0.9682 0.2430
vn 0.1450 0.9635 0.2249
vn -0.0371 0.9905 0.1327
vn -0.1882 -0.9218 -0.3388
vn -0.4736 -0.7349 -0.4855
vn -0.8213 0.2305 -0.5218
vn -0.7088 0.5972 -0.3755
vn 0.6109 0.7917 0.0053
vn 0.0919 -0.9834 -0.1562
vn -0.7358 -0.3333 -0.5895
vn -0.8315 0.0003 -0.5556
vn -0.3620 0.9271 -0.0974
vn -0.0535 -0.9778 -0.2028
vn -0.7033 -0.4763 -0.5278
vn 0.9267 -0.2358 -0.2926
vn 0.9503 0.2722 -0.1510
vn 0.3311 0.9206 0.2073
vn 0.5158 -0.8449 -0.1414
vn 0.1563 -0.9713 -0.1793
vn -0.8339 0.3869 -0.3936
vn -0.4832 0.8735 -0.0590
vn -0.1262 -0.9621 -0.2416
vn -0.3949 -0.8690 -0.2982
vn 0.7593 0.6460 0.0785
vn -0.1474 0.9818 0.1198
vn 0.0625 0.9512 0.3022
vn 0.1876 0.8913 0.4127
vn -0.2383 -0.9576 -0.1622
vn -0.9085 -0.0809 -0.4100
vn 0.9910 -0.0065 -0.1338
vn -0.8970 0.2370 -0.3731
vn 0.0982 0.9116 0.3992
vn -0.0172 0.9250 0.3796
vn 0.4601 0.7906 0.4040
vn -0.0750 -0.9969 0.0231
vn 0.0064 -0.9954 0.0960
vn 0.1152 -0.9932 -0.0165
vn 0.8290 -0.5072 0.2356
vn -0.8005 -0.5884 -0.1134
vn 0.8809 0.3993 0.2542
vn 0.0548 0.8833 0.4656
vn 0.0788 -0.7531 0.6532
vn 0.0006 -0.8617 0.5074
vn 0.3383 -0.8537 0.3959
vn 0.5094 -0.8352 0.2071
vn -0.1136 -0.9873 0.1112
vn -0.9986 -0.0099 -0.0525
vn 0.8644 -0.0195 0.5025
vn -0.7816 0.6201 -0.0685
vn -0.2473 0.9225 0.2964
vn 0.0866 0.8433 0.5304
vn -0.0266 -0.8226 0.5680
vn -0.2014 -0.9186 0.3401
vn 0.0632 -0.5651 0.8226
vn 0.3544 -0.4237 0.8336
vn -0.4290 -0.8105 0.3988
vn 0.5433 -0.3170 0.7774
vn -0.9329 0.3601 0.0091
vn 0.4908 0.3793 0.7844
vn 0.1253 0.6814 0.7211
vn 0.1716 0.6905 0.7027
vn 0.2290 0.5668 0.7914
vn 0.0450 -0.4962 0.8670
vn 0.1000 -0.3312 0.9382
vn -0.7669 -0.4167 0.4881
vn 0.1974 -0.0960 0.9756
vn 0.3468 -0.0380 0.9372
vn 0.0946 0.4964 0.8629
vn -0.3396 0.6638 0.6664
vn 0.0319 0.7279 0.6849
vn -0.0813 -0.5898 0.8035
vn 0.0307 -0.4208 0.9066
vn 0.0670 -0.2231 0.9725
vn -0.8338 0.0427 0.5504
vn 0.1100 -0.0716 0.9913
vn 0.1181 0.1255 0.9850
vn 0.1825 0.2405 0.9533
vn 0.1587 0.3428 0.9259
vn -0.6243 0.4487 0.6394
vn -0.0060 0.6459 0.7634
vn -0.1673 -0.3893 0.9058
vn -0.3770 -0.3152 0.8709
vn 0.0360 -0.2373 0.9708
vn 0.0290 0.0419 0.9987
vn -0.2645 0.1069 0.9585
vn 0.0953 0.2526 0.9629
vn 0.0109 0.3427 0.9394
vn -0.0298 -0.0425 0.9987
vn -0.0264 0.2426 0.9698
usemtl mtl1.402
s 1
f 9//7 10//8 11//9
f 11//9 12//10 9//7
f 11//9 10//8 13//11
f 10//8 9//7 14//12
f 14//12 15//13 10//8
f 10//8 15//13 13//11
f 16//14 13//11 15//13
f 13//11 17//15 11//9
f 17//15 13//11 16//14
f 17//15 16//14 18//16
f 19//17 9//7 20//18
f 19//17 21//19 14//12
f 9//7 19//17 14//12
f 9//7 12//10 20//18
f 15//13 14//12 21//19
f 22//20 12//10 23//21
f 12//10 11//9 23//21
f 23//21 11//9 17//15
f 18//16 16//14 24//22
f 17//15 18//16 25//23
f 26//24 19//17 20//18
f 20//18 12//10 22//20
f 21//19 27//25 15//13
f 27//25 28//26 15//13
f 16//14 15//13 29//27
f 29//27 15//13 28//26
f 16//14 29//27 24//22
f 17//15 25//23 23//21
f 18//16 24//22 30//28
f 18//16 30//28 25//23
f 19//17 26//24 31//29
f 21//19 31//29 27//25
f 19//17 31//29 21//19
f 32//30 20//18 22//20
f 33//31 25//23 30//28
f 31//29 26//24 34//32
f 20//18 35//33 26//24
f 36//34 22//20 37//35
f 22//20 23//21 37//35
f 23//21 25//23 38//36
f 26//24 35//33 39//37
f 35//33 20//18 32//30
f 32//30 22//20 36//34
f 37//35 23//21 38//36
f 40//38 24//22 29//27
f 27//25 34//32 41//39
f 31//29 34//32 27//25
f 25//23 42//40 38//36
f 30//28 24//22 43//41
f 24//22 40//38 43//41
f 30//28 43//41 44//42
f 30//28 44//42 33//31
f 42//40 25//23 33//31
f 34//32 26//24 45//43
f 45//43 26//24 39//37
f 35//33 32//30 46//44
f 32//30 36//34 47//45
f 27//25 48//46 28//26
f 29//27 28//26 48//46
f 34//32 45//43 41//39
f 41//39 49//47 27//25
f 48//46 27//25 49//47
f 50//48 29//27 48//46
f 38//36 42//40 51//49
f 29//27 52//50 40//38
f 45//43 39//37 53//51
f 54//52 36//34 37//35
f 37//35 38//36 51//49
f 52//50 43//41 40//38
f 35//33 46//44 55//53
f 45//43 56//54 41//39
f 32//30 47//45 57//55
f 46//44 32//30 57//55
f 47//45 36//34 58//56
f 36//34 54//52 58//56
f 29//27 50//48 52//50
f 59//57 51//49 42//40
f 52//50 60//58 43//41
f 39//37 55//53 53//51
f 35//33 55//53 39//37
f 56//54 61//59 41//39
f 61//59 49//47 41//39
f 37//35 51//49 54//52
f 33//31 44//42 62//60
f 42//40 33//31 59//57
f 33//31 62//60 59//57
f 45//43 53//51 63//61
f 46//44 64//62 55//53
f 65//63 50//48 48//46
f 51//49 59//57 66//64
f 56//54 45//43 61//59
f 46//44 57//55 64//62
f 47//45 58//56 57//55
f 52//50 50//48 60//58
f 55//53 67//65 53//51
f 55//53 68//66 67//65
f 55//53 64//62 68//66
f 69//67 61//59 70//68
f 49//47 61//59 69//67
f 50//48 71//69 60//58
f 43//41 60//58 72//70
f 44//42 43//41 62//60
f 53//51 67//65 63//61
f 61//59 73//71 70//68
f 61//59 45//43 73//71
f 73//71 45//43 63//61
f 57//55 58//56 74//72
f 49//47 75//73 48//46
f 54//52 51//49 66//64
f 50//48 65//63 76//74
f 50//48 76//74 71//69
f 62//60 43//41 72//70
f 75//73 49//47 69//67
f 48//46 75//73 65//63
f 66//64 59//57 77//75
f 60//58 71//69 72//70
f 67//65 68//66 78//76
f 79//77 74//72 58//56
f 80//78 79//77 58//56
f 58//56 54//52 80//78
f 81//79 65//63 75//73
f 65//63 81//79 76//74
f 72//70 71//69 82//80
f 62//60 72//70 83//81
f 64//62 84//82 68//66
f 64//62 85//83 84//82
f 63//61 86//84 73//71
f 64//62 57//55 85//83
f 57//55 74//72 85//83
f 75//73 69//67 87//85
f 54//52 66//64 88//86
f 88//86 66//64 77//75
f 72//70 82//80 83//81
f 62//60 83//81 89//87
f 89//87 59//57 62//60
f 67//65 86//84 63//61
f 84//82 78//76 68//66
f 69//67 90//88 87//85
f 69//67 70//68 90//88
f 91//89 75//73 87//85
f 80//78 54//52 88//86
f 81//79 75//73 91//89
f 59//57 89//87 77//75
f 71//69 76//74 82//80
f 84//82 92//90 78//76
f 78//76 86//84 67//65
f 90//88 70//68 73//71
f 90//88 73//71 93//91
f 93//91 73//71 86//84
f 74//72 79//77 94//92
f 78//76 92//90 95//93
f 96//94 97//95 85//83
f 96//94 74//72 94//92
f 96//94 85//83 74//72
f 76//74 98//96 99//97
f 76//74 81//79 98//96
f 100//98 92//90 84//82
f 85//83 97//95 84//82
f 90//88 93//91 101//99
f 90//88 101//99 87//85
f 101//99 102//100 87//85
f 103//101 80//78 88//86
f 81//79 91//89 98//96
f 104//102 105//103 83//81
f 105//103 89//87 83//81
f 83//81 82//80 104//102
f 78//76 95//93 86//84
f 100//98 84//82 97//95
f 82//80 106//104 104//102
f 76//74 99//97 106//104
f 82//80 76//74 106//104
f 93//91 107//105 108//106
f 107//105 93//91 86//84
f 93//91 108//106 101//99
f 94//92 79//77 80//78
f 102//100 109//107 87//85
f 91//89 109//107 110//108
f 111//109 103//101 88//86
f 91//89 110//108 98//96
f 89//87 111//109 77//75
f 111//109 88//86 77//75
f 95//93 92//90 112//110
f 95//93 107//105 86//84
f 108//106 113//111 101//99
f 113//111 102//100 101//99
f 109//107 102//100 114//112
f 87//85 109//107 91//89
f 98//96 110//108 115//113
f 98//96 115//113 99//97
f 95//93 112//110 116//114
f 113//111 108//106 117//115
f 94//92 118//116 96//94
f 113//111 117//115 114//112
f 113//111 114//112 102//100
f 80//78 118//116 94//92
f 119//117 80//78 103//101
f 105//103 120//118 89//87
f 89//87 120//118 111//109
f 99//97 115//113 106//104
f 100//98 121//119 122//120
f 100//98 122//120 92//90
f 116//114 107//105 95//93
f 100//98 97//95 121//119
f 97//95 96//94 121//119
f 109//107 123//121 110//108
f 110//108 124//122 115//113
f 125//123 107//105 116//114
f 122//120 112//110 92//90
f 96//94 118//116 121//119
f 126//124 108//106 107//105
f 119//117 103//101 127//125
f 115//113 124//122 128//126
f 106//104 129//127 104//102
f 105//103 104//102 130//128
f 107//105 125//123 131//129
f 117//115 108//106 126//124
f 114//112 117//115 132//130
f 118//116 80//78 133//131
f 114//112 134//132 109//107
f 80//78 119//117 133//131
f 134//132 123//121 109//107
f 130//128 104//102 135//133
f 105//103 130//128 120//118
f 136//134 129//127 106//104
f 115//113 128//126 106//104
f 122//120 121//119 112//110
f 107//105 131//129 126//124
f 120//118 137//135 111//109
f 127//125 103//101 111//109
f 129//127 135//133 104//102
f 128//126 136//134 106//104
f 138//136 116//114 139//137
f 116//114 140//138 139//137
f 112//110 140//138 116//114
f 112//110 121//119 140//138
f 131//129 125//123 138//136
f 138//136 125//123 116//114
f 121//119 118//116 141//139
f 117//115 126//124 142//140
f 117//115 142//140 132//130
f 134//132 114//112 132//130
f 133//131 119//117 143//141
f 143//141 119//117 127//125
f 130//128 137//135 120//118
f 137//135 127//125 111//109
f 129//127 136//134 144//142
f 139//137 145//143 146//144
f 140//138 145//143 139//137
f 140//138 147//145 145//143
f 121//119 148//146 140//138
f 140//138 148//146 147//145
f 138//136 149//147 131//129
f 141//139 148//146 121//119
f 132//130 142//140 150//148
f 118//116 133//131 141//139
f 141//139 133//131 151//149
f 134//132 132//130 150//148
f 133//131 143//141 151//149
f 152//150 123//121 134//132
f 152//150 110//108 123//121
f 124//122 110//108 152//150
f 153//151 124//122 152//150
f 144//142 154//152 129//127
f 124//122 153//151 128//126
f 139//137 146//144 138//136
f 138//136 146//144 155//153
f 131//129 149//147 156//154
f 138//136 155//153 149//147
f 145//143 157//155 146//144
f 148//146 158//156 147//145
f 148//146 141//139 158//156
f 126//124 159//157 142//140
f 126//124 131//129 159//157
f 141//139 160//158 158//156
f 160//158 141//139 151//149
f 161//159 134//132 150//148
f 151//149 143//141 162//160
f 143//141 137//135 162//160
f 127//125 137//135 143//141
f 152//150 134//132 161//159
f 154//152 163//161 135//133
f 130//128 135//133 164//162
f 165//163 130//128 164//162
f 137//135 130//128 165//163
f 135//133 129//127 154//152
f 128//126 153//151 136//134
f 166//164 146//144 157//155
f 149//147 155//153 156//154
f 146//144 166//164 155//153
f 145//143 147//145 158//156
f 131//129 156//154 159//157
f 157//155 167//165 166//164
f 145//143 167//165 157//155
f 158//156 167//165 145//143
f 168//166 142//140 159//157
f 158//156 169//167 167//165
f 170//168 169//167 158//156
f 158//156 160//158 170//168
f 142//140 168//166 150//148
f 151//149 170//168 160//158
f 162//160 170//168 151//149
f 137//135 165//163 162//160
f 154//152 171//169 163//161
f 164//162 135//133 163//161
f 152//150 172//170 153//151
f 173//171 144//142 136//134
f 156//154 174//172 159//157
f 155//153 174//172 156//154
f 175//173 174//172 155//153
f 166//164 175//173 155//153
f 176//174 175//173 166//164
f 176//174 166//164 167//165
f 168//166 177//175 150//148
f 167//165 178//176 176//174
f 178//176 179//177 176//174
f 169//167 178//176 167//165
f 170//168 180//178 169//167
f 180//178 178//176 169//167
f 170//168 162//160 180//178
f 150//148 177//175 161//159
f 180//178 179//177 178//176
f 180//178 181//179 179//177
f 165//163 181//179 180//178
f 182//180 152//150 161//159
f 180//178 162//160 165//163
f 181//179 163//161 171//169
f 164//162 163//161 181//179
f 165//163 164//162 181//179
f 172//170 152//150 182//180
f 173//171 171//169 154//152
f 136//134 183//181 173//171
f 154//152 144//142 173//171
f 136//134 153//151 183//181
f 184//182 159//157 174//172
f 168//166 159//157 185//183
f 185//183 159//157 184//182
f 186//184 184//182 174//172
f 175//173 186//184 174//172
f 175//173 176//174 186//184
f 168//166 185//183 177//175
f 176//174 187//185 186//184
f 179//177 187//185 176//174
f 188//186 177//175 185//183
f 179//177 189//187 187//185
f 189//187 190//188 187//185
f 179//177 181//179 189//187
f 177//175 182//180 161//159
f 189//187 171//169 190//188
f 181//179 171//169 189//187
f 190//188 171//169 173//171
f 153//151 172//170 183//181
f 184//182 191//189 185//183
f 191//189 184//182 186//184
f 191//189 188//186 185//183
f 186//184 187//185 191//189
f 187//185 192//190 191//189
f 191//189 192//190 188//186
f 187//185 190//188 192//190
f 177//175 188//186 182//180
f 192//190 182//180 188//186
f 172//170 182//180 192//190
f 190//188 183//181 192//190
f 183//181 172//170 192//190
f 190//188 173//171 183//181
