# Blender v2.92.0 OBJ File: 'convert_to_one_sided.blend'
# www.blender.org
mtllib 433L.mtl
o 433
v 7.752820 0.923298 3.528335
v 7.751330 0.953872 3.519605
v 7.760240 0.973147 3.526485
v 7.771420 0.939410 3.546695
v 7.756210 0.988480 3.526445
v 7.740191 0.926917 3.532685
v 7.723490 0.964075 3.556654
v 7.746140 1.020986 3.559274
v 7.758460 1.014566 3.544914
v 7.752200 1.038446 3.561834
v 7.731960 0.899272 3.560785
v 7.760670 0.892638 3.584864
v 7.714071 0.918722 3.567214
v 7.795310 0.923623 3.610554
v 7.781340 0.984150 3.583574
v 7.725770 1.040006 3.623264
v 7.769670 1.031416 3.606354
v 7.701071 0.858600 3.639373
v 7.649251 0.910290 3.664133
v 7.656352 0.959234 3.666563
v 7.672421 1.002146 3.680063
v 7.744510 1.042676 3.640774
v 7.693691 0.888917 3.615294
v 7.811939 0.858955 3.691633
v 7.788219 1.028276 3.728152
v 7.652681 0.864830 3.684943
v 7.763010 0.839908 3.683863
v 7.843289 0.897960 3.737992
v 7.828979 0.957558 3.709132
v 7.808330 0.997912 3.681963
v 7.699561 0.811742 3.743492
v 7.687561 1.028656 3.696423
v 7.597912 0.849809 3.762032
v 7.813319 1.008276 3.735382
v 7.701160 1.030046 3.747322
v 7.761460 1.029876 3.739742
v 7.603782 0.816867 3.792391
v 7.824059 0.807968 3.785702
v 7.855819 0.850066 3.783681
v 7.591022 0.947229 3.778252
v 7.553983 0.872333 3.815391
v 7.596522 0.997208 3.828671
v 7.843249 0.980188 3.786252
v 7.657471 1.015006 3.756712
v 7.657442 0.784999 3.829231
v 7.886168 0.932293 3.860370
v 7.760980 0.788631 3.816331
v 7.579813 0.831279 3.795241
v 7.872838 0.808763 3.847991
v 7.904528 0.855050 3.890410
v 7.850679 0.995482 3.860281
v 7.634042 1.013186 3.822671
v 7.537203 0.822670 3.851081
v 7.783620 1.013346 3.851701
v 7.567323 0.771758 3.907410
v 7.855639 0.770911 3.889260
v 7.533153 0.965505 3.898950
v 7.888319 0.969602 3.909480
v 7.659941 0.757684 3.917190
v 7.779550 0.751892 3.920940
v 7.473683 0.830288 3.928660
v 7.472754 0.802771 3.937680
v 7.589342 1.006066 3.898370
v 7.682021 1.012596 3.879640
v 7.485013 0.783347 3.951849
v 7.945598 0.783708 3.988969
v 7.493854 0.907978 3.923520
v 7.514633 0.986960 3.985809
v 7.917838 0.967078 4.003889
v 7.735050 0.722453 4.016768
v 7.956798 0.820270 4.005158
v 7.991067 0.843997 4.090037
v 7.478444 0.956251 3.988749
v 7.633232 0.995765 4.001178
v 7.770280 0.993475 4.008338
v 7.882739 0.725653 4.015618
v 7.923448 0.755975 3.990739
v 7.563353 0.741622 4.013858
v 7.398785 0.844210 4.040748
v 7.947328 0.926964 4.035298
v 7.886099 0.972435 4.032038
v 7.431764 0.797284 4.001499
v 7.407575 0.921279 4.064137
v 7.887749 0.683353 4.118837
v 7.426284 0.759286 4.054778
v 7.992477 0.770462 4.087778
v 7.708091 0.688980 4.130947
v 7.994707 0.726774 4.111187
v 7.964578 0.708471 4.097767
v 7.428594 0.962833 4.078228
v 7.446054 0.976997 4.084918
v 7.962018 0.683300 4.138787
v 7.375205 0.781399 4.082367
v 7.336475 0.808542 4.124717
v 8.007877 0.890851 4.162396
v 7.733331 0.965294 4.153147
v 7.869029 0.958879 4.131387
v 7.494363 0.970806 4.150417
v 7.455754 0.701162 4.180576
v 7.343986 0.739651 4.162636
v 7.318606 0.864168 4.166346
v 7.335566 0.929055 4.185016
v 7.978057 0.921102 4.144766
v 7.891918 0.658029 4.204876
v 7.321136 0.768872 4.155766
v 7.280447 0.791564 4.207786
v 7.390445 0.957836 4.164636
v 7.653401 0.664217 4.231225
v 7.264407 0.744280 4.239366
v 8.029007 0.746726 4.185586
v 8.040537 0.857872 4.218216
v 7.950528 0.931895 4.173816
v 7.996147 0.684301 4.200136
v 7.936428 0.678531 4.164426
v 7.273156 0.887420 4.252985
v 7.311536 0.941355 4.257825
v 7.463274 0.674086 4.252715
v 7.289656 0.714510 4.262695
v 8.030816 0.877007 4.221086
v 7.360325 0.953557 4.245885
v 7.569343 0.948647 4.255745
v 7.907088 0.919423 4.242715
v 7.363015 0.683767 4.289125
v 7.228327 0.765084 4.284175
v 8.046227 0.797229 4.232146
v 7.244387 0.831654 4.279705
v 7.740140 0.926823 4.270205
v 7.404655 0.945748 4.290785
v 8.003437 0.887336 4.243316
v 7.512333 0.663319 4.287895
v 7.724981 0.652525 4.282615
v 7.878338 0.660575 4.262355
v 8.040337 0.726405 4.259515
v 7.231007 0.733102 4.305165
v 8.039886 0.846089 4.256425
v 7.485194 0.937048 4.304435
v 7.834739 0.660738 4.294615
v 7.653392 0.660087 4.303625
v 7.947128 0.660993 4.288445
v 7.977118 0.681817 4.264655
v 7.407855 0.673563 4.312214
v 7.219317 0.784145 4.326524
v 8.049617 0.786388 4.281185
v 7.263317 0.901409 4.304924
v 7.311116 0.929899 4.307935
v 7.583873 0.923204 4.311295
v 7.458094 0.673222 4.322014
v 7.346796 0.684294 4.325944
v 7.735260 0.667678 4.309364
v 7.971647 0.707434 4.292525
v 7.269436 0.713124 4.328004
v 8.033457 0.750219 4.284715
v 7.230957 0.845781 4.336374
v 8.033297 0.832579 4.290205
v 7.717531 0.905656 4.318005
v 7.833859 0.902445 4.298585
v 7.934118 0.874559 4.290365
v 7.612992 0.680014 4.323414
v 7.794909 0.710284 4.319105
v 7.225857 0.759117 4.337605
v 7.935208 0.764922 4.322195
v 8.010887 0.778358 4.297744
v 7.587532 0.896462 4.343074
v 7.271616 0.909605 4.348824
v 7.468534 0.918669 4.332284
v 7.352776 0.699024 4.340764
v 7.476484 0.695236 4.338184
v 7.620782 0.755249 4.344274
v 7.221317 0.810472 4.353834
v 7.832319 0.777533 4.334514
v 7.726251 0.821165 4.348104
v 7.896448 0.816343 4.317214
v 7.756460 0.870350 4.322944
v 7.244697 0.862978 4.351224
v 7.356276 0.912645 4.339404
v 7.290136 0.732497 4.357144
v 7.242456 0.775850 4.354314
v 7.410375 0.750279 4.355914
v 7.472294 0.821922 4.366924
v 7.239637 0.825416 4.366064
v 7.595952 0.858938 4.350404
v 7.457164 0.884909 4.353644
v 7.316076 0.798113 4.365374
v 7.332665 0.861406 4.352624
vn 0.2871 -0.5081 -0.8120
vn -0.2241 -0.0055 -0.9746
vn 0.6473 0.1056 -0.7549
vn 0.8463 -0.2277 -0.4816
vn -0.2040 0.4084 -0.8897
vn -0.5728 -0.2893 -0.7669
vn -0.7839 0.1994 -0.5880
vn -0.5956 0.5328 -0.6012
vn 0.4759 0.5558 -0.6816
vn 0.0044 0.9061 -0.4231
vn -0.3445 -0.7048 -0.6202
vn 0.4490 -0.7461 -0.4917
vn -0.7576 -0.2581 -0.5995
vn 0.8960 -0.1837 -0.4042
vn 0.9115 0.2207 -0.3470
vn -0.4865 0.8517 -0.1949
vn 0.6978 0.6894 -0.1942
vn -0.2681 -0.8185 -0.5081
vn -0.8288 -0.0945 -0.5515
vn -0.8307 0.2891 -0.4757
vn -0.7537 0.5486 -0.3619
vn 0.1010 0.9948 0.0120
vn -0.6756 -0.4796 -0.5600
vn 0.7063 -0.5271 -0.4726
vn 0.3704 0.9287 0.0200
vn -0.6551 -0.5048 -0.5622
vn 0.1848 -0.8830 -0.4315
vn 0.9202 -0.0717 -0.3848
vn 0.9314 0.1876 -0.3119
vn 0.8772 0.4139 -0.2435
vn -0.0868 -0.9209 -0.3801
vn -0.5433 0.8311 -0.1182
vn -0.6895 -0.4092 -0.5976
vn 0.7466 0.6494 -0.1441
vn -0.1515 0.9864 0.0631
vn 0.0759 0.9896 0.1224
vn -0.4224 -0.7594 -0.4948
vn 0.3651 -0.8267 -0.4281
vn 0.8744 -0.2410 -0.4212
vn -0.8229 0.3328 -0.4604
vn -0.8279 -0.0164 -0.5607
vn -0.5828 0.7687 -0.2637
vn 0.8518 0.4687 -0.2340
vn -0.4861 0.8634 -0.1349
vn -0.1246 -0.9300 -0.3457
vn 0.9183 0.2228 -0.3274
vn 0.0525 -0.9399 -0.3375
vn -0.5481 -0.6070 -0.5754
vn 0.7267 -0.5141 -0.4556
vn 0.9091 -0.0658 -0.4113
vn 0.5528 0.8307 -0.0665
vn -0.2765 0.9601 -0.0422
vn -0.6730 -0.4516 -0.5857
vn 0.1285 0.9842 0.1217
vn -0.2232 -0.9129 -0.3419
vn 0.3025 -0.8658 -0.3986
vn -0.7407 0.5453 -0.3924
vn 0.8229 0.5091 -0.2521
vn -0.0689 -0.9533 -0.2942
vn 0.0282 -0.9453 -0.3249
vn -0.8153 -0.0660 -0.5753
vn -0.7008 -0.4482 -0.5549
vn -0.2134 0.9770 0.0001
vn -0.0298 0.9931 0.1134
vn -0.4584 -0.7686 -0.4463
vn 0.8329 -0.2851 -0.4743
vn -0.8156 0.2767 -0.5082
vn -0.4001 0.9047 -0.1467
vn 0.6513 0.7533 -0.0910
vn -0.0414 -0.9512 -0.3057
vn 0.9100 -0.0193 -0.4143
vn 0.9248 0.1128 -0.3634
vn -0.7107 0.5620 -0.4232
vn -0.0379 0.9892 0.1419
vn 0.0705 0.9844 0.1613
vn 0.1830 -0.8986 -0.3988
vn 0.5415 -0.6933 -0.4755
vn -0.1679 -0.9378 -0.3039
vn -0.8188 0.0617 -0.5708
vn 0.8671 0.4226 -0.2639
vn 0.2691 0.9563 0.1143
vn -0.7361 -0.4072 -0.5407
vn -0.7716 0.3969 -0.4971
vn 0.0419 -0.9537 -0.2980
vn -0.4247 -0.7843 -0.4522
vn 0.9126 -0.0880 -0.3992
vn -0.0764 -0.9548 -0.2873
vn 0.7722 -0.4776 -0.4189
vn 0.5000 -0.7453 -0.4410
vn -0.6135 0.7195 -0.3254
vn -0.3097 0.9493 -0.0548
vn 0.2574 -0.9196 -0.2968
vn -0.7059 -0.3881 -0.5926
vn -0.8099 -0.0383 -0.5854
vn 0.8459 0.4698 -0.2524
vn 0.0588 0.9682 0.2430
vn 0.1450 0.9635 0.2249
vn -0.0371 0.9905 0.1327
vn -0.1882 -0.9218 -0.3388
vn -0.4736 -0.7349 -0.4855
vn -0.8213 0.2305 -0.5218
vn -0.7088 0.5972 -0.3755
vn 0.6109 0.7917 0.0053
vn 0.0919 -0.9834 -0.1562
vn -0.7358 -0.3333 -0.5895
vn -0.8315 0.0003 -0.5556
vn -0.3620 0.9271 -0.0974
vn -0.0535 -0.9778 -0.2028
vn -0.7033 -0.4763 -0.5278
vn 0.9267 -0.2358 -0.2926
vn 0.9503 0.2722 -0.1510
vn 0.3311 0.9206 0.2073
vn 0.5158 -0.8449 -0.1414
vn 0.1563 -0.9713 -0.1793
vn -0.8339 0.3869 -0.3936
vn -0.4832 0.8735 -0.0590
vn -0.1262 -0.9621 -0.2416
vn -0.3949 -0.8690 -0.2982
vn 0.7593 0.6460 0.0785
vn -0.1474 0.9818 0.1198
vn 0.0625 0.9512 0.3022
vn 0.1876 0.8913 0.4127
vn -0.2383 -0.9576 -0.1622
vn -0.9085 -0.0809 -0.4100
vn 0.9910 -0.0065 -0.1338
vn -0.8970 0.2370 -0.3731
vn 0.0982 0.9116 0.3992
vn -0.0172 0.9250 0.3796
vn 0.4601 0.7906 0.4040
vn -0.0750 -0.9969 0.0231
vn 0.0064 -0.9954 0.0960
vn 0.1152 -0.9932 -0.0165
vn 0.8290 -0.5072 0.2356
vn -0.8005 -0.5884 -0.1134
vn 0.8809 0.3993 0.2542
vn 0.0548 0.8833 0.4656
vn 0.0788 -0.7531 0.6532
vn 0.0006 -0.8617 0.5074
vn 0.3383 -0.8537 0.3959
vn 0.5094 -0.8352 0.2071
vn -0.1136 -0.9873 0.1112
vn -0.9986 -0.0099 -0.0525
vn 0.8644 -0.0195 0.5025
vn -0.7816 0.6201 -0.0685
vn -0.2473 0.9225 0.2964
vn 0.0866 0.8433 0.5304
vn -0.0266 -0.8226 0.5680
vn -0.2014 -0.9186 0.3401
vn 0.0632 -0.5651 0.8226
vn 0.3544 -0.4237 0.8336
vn -0.4290 -0.8105 0.3988
vn 0.5433 -0.3170 0.7774
vn -0.9329 0.3601 0.0091
vn 0.4908 0.3793 0.7844
vn 0.1253 0.6814 0.7211
vn 0.1716 0.6905 0.7027
vn 0.2290 0.5668 0.7914
vn 0.0450 -0.4962 0.8670
vn 0.1000 -0.3312 0.9382
vn -0.7669 -0.4167 0.4881
vn 0.1974 -0.0960 0.9756
vn 0.3468 -0.0380 0.9372
vn 0.0946 0.4964 0.8629
vn -0.3396 0.6638 0.6664
vn 0.0319 0.7279 0.6849
vn -0.0813 -0.5898 0.8035
vn 0.0307 -0.4208 0.9066
vn 0.0670 -0.2231 0.9725
vn -0.8338 0.0427 0.5504
vn 0.1100 -0.0716 0.9913
vn 0.1181 0.1255 0.9850
vn 0.1825 0.2405 0.9533
vn 0.1587 0.3428 0.9259
vn -0.6243 0.4487 0.6394
vn -0.0060 0.6459 0.7634
vn -0.1673 -0.3893 0.9058
vn -0.3770 -0.3152 0.8709
vn 0.0360 -0.2373 0.9708
vn 0.0290 0.0419 0.9987
vn -0.2645 0.1069 0.9585
vn 0.0953 0.2526 0.9629
vn 0.0109 0.3427 0.9394
vn -0.0298 -0.0425 0.9987
vn -0.0264 0.2426 0.9698
usemtl mtl1.1253
s 1
f 1//1 2//2 3//3
f 3//3 4//4 1//1
f 3//3 2//2 5//5
f 2//2 1//1 6//6
f 6//6 7//7 2//2
f 2//2 7//7 5//5
f 8//8 5//5 7//7
f 5//5 9//9 3//3
f 9//9 5//5 8//8
f 9//9 8//8 10//10
f 11//11 1//1 12//12
f 11//11 13//13 6//6
f 1//1 11//11 6//6
f 1//1 4//4 12//12
f 7//7 6//6 13//13
f 14//14 4//4 15//15
f 4//4 3//3 15//15
f 15//15 3//3 9//9
f 10//10 8//8 16//16
f 9//9 10//10 17//17
f 18//18 11//11 12//12
f 12//12 4//4 14//14
f 13//13 19//19 7//7
f 19//19 20//20 7//7
f 8//8 7//7 21//21
f 21//21 7//7 20//20
f 8//8 21//21 16//16
f 9//9 17//17 15//15
f 10//10 16//16 22//22
f 10//10 22//22 17//17
f 11//11 18//18 23//23
f 13//13 23//23 19//19
f 11//11 23//23 13//13
f 24//24 12//12 14//14
f 25//25 17//17 22//22
f 23//23 18//18 26//26
f 12//12 27//27 18//18
f 28//28 14//14 29//29
f 14//14 15//15 29//29
f 15//15 17//17 30//30
f 18//18 27//27 31//31
f 27//27 12//12 24//24
f 24//24 14//14 28//28
f 29//29 15//15 30//30
f 32//32 16//16 21//21
f 19//19 26//26 33//33
f 23//23 26//26 19//19
f 17//17 34//34 30//30
f 22//22 16//16 35//35
f 16//16 32//32 35//35
f 22//22 35//35 36//36
f 22//22 36//36 25//25
f 34//34 17//17 25//25
f 26//26 18//18 37//37
f 37//37 18//18 31//31
f 27//27 24//24 38//38
f 24//24 28//28 39//39
f 19//19 40//40 20//20
f 21//21 20//20 40//40
f 26//26 37//37 33//33
f 33//33 41//41 19//19
f 40//40 19//19 41//41
f 42//42 21//21 40//40
f 30//30 34//34 43//43
f 21//21 44//44 32//32
f 37//37 31//31 45//45
f 46//46 28//28 29//29
f 29//29 30//30 43//43
f 44//44 35//35 32//32
f 27//27 38//38 47//47
f 37//37 48//48 33//33
f 24//24 39//39 49//49
f 38//38 24//24 49//49
f 39//39 28//28 50//50
f 28//28 46//46 50//50
f 21//21 42//42 44//44
f 51//51 43//43 34//34
f 44//44 52//52 35//35
f 31//31 47//47 45//45
f 27//27 47//47 31//31
f 48//48 53//53 33//33
f 53//53 41//41 33//33
f 29//29 43//43 46//46
f 25//25 36//36 54//54
f 34//34 25//25 51//51
f 25//25 54//54 51//51
f 37//37 45//45 55//55
f 38//38 56//56 47//47
f 57//57 42//42 40//40
f 43//43 51//51 58//58
f 48//48 37//37 53//53
f 38//38 49//49 56//56
f 39//39 50//50 49//49
f 44//44 42//42 52//52
f 47//47 59//59 45//45
f 47//47 60//60 59//59
f 47//47 56//56 60//60
f 61//61 53//53 62//62
f 41//41 53//53 61//61
f 42//42 63//63 52//52
f 35//35 52//52 64//64
f 36//36 35//35 54//54
f 45//45 59//59 55//55
f 53//53 65//65 62//62
f 53//53 37//37 65//65
f 65//65 37//37 55//55
f 49//49 50//50 66//66
f 41//41 67//67 40//40
f 46//46 43//43 58//58
f 42//42 57//57 68//68
f 42//42 68//68 63//63
f 54//54 35//35 64//64
f 67//67 41//41 61//61
f 40//40 67//67 57//57
f 58//58 51//51 69//69
f 52//52 63//63 64//64
f 59//59 60//60 70//70
f 71//71 66//66 50//50
f 72//72 71//71 50//50
f 50//50 46//46 72//72
f 73//73 57//57 67//67
f 57//57 73//73 68//68
f 64//64 63//63 74//74
f 54//54 64//64 75//75
f 56//56 76//76 60//60
f 56//56 77//77 76//76
f 55//55 78//78 65//65
f 56//56 49//49 77//77
f 49//49 66//66 77//77
f 67//67 61//61 79//79
f 46//46 58//58 80//80
f 80//80 58//58 69//69
f 64//64 74//74 75//75
f 54//54 75//75 81//81
f 81//81 51//51 54//54
f 59//59 78//78 55//55
f 76//76 70//70 60//60
f 61//61 82//82 79//79
f 61//61 62//62 82//82
f 83//83 67//67 79//79
f 72//72 46//46 80//80
f 73//73 67//67 83//83
f 51//51 81//81 69//69
f 63//63 68//68 74//74
f 76//76 84//84 70//70
f 70//70 78//78 59//59
f 82//82 62//62 65//65
f 82//82 65//65 85//85
f 85//85 65//65 78//78
f 66//66 71//71 86//86
f 70//70 84//84 87//87
f 88//88 89//89 77//77
f 88//88 66//66 86//86
f 88//88 77//77 66//66
f 68//68 90//90 91//91
f 68//68 73//73 90//90
f 92//92 84//84 76//76
f 77//77 89//89 76//76
f 82//82 85//85 93//93
f 82//82 93//93 79//79
f 93//93 94//94 79//79
f 95//95 72//72 80//80
f 73//73 83//83 90//90
f 96//96 97//97 75//75
f 97//97 81//81 75//75
f 75//75 74//74 96//96
f 70//70 87//87 78//78
f 92//92 76//76 89//89
f 74//74 98//98 96//96
f 68//68 91//91 98//98
f 74//74 68//68 98//98
f 85//85 99//99 100//100
f 99//99 85//85 78//78
f 85//85 100//100 93//93
f 86//86 71//71 72//72
f 94//94 101//101 79//79
f 83//83 101//101 102//102
f 103//103 95//95 80//80
f 83//83 102//102 90//90
f 81//81 103//103 69//69
f 103//103 80//80 69//69
f 87//87 84//84 104//104
f 87//87 99//99 78//78
f 100//100 105//105 93//93
f 105//105 94//94 93//93
f 101//101 94//94 106//106
f 79//79 101//101 83//83
f 90//90 102//102 107//107
f 90//90 107//107 91//91
f 87//87 104//104 108//108
f 105//105 100//100 109//109
f 86//86 110//110 88//88
f 105//105 109//109 106//106
f 105//105 106//106 94//94
f 72//72 110//110 86//86
f 111//111 72//72 95//95
f 97//97 112//112 81//81
f 81//81 112//112 103//103
f 91//91 107//107 98//98
f 92//92 113//113 114//114
f 92//92 114//114 84//84
f 108//108 99//99 87//87
f 92//92 89//89 113//113
f 89//89 88//88 113//113
f 101//101 115//115 102//102
f 102//102 116//116 107//107
f 117//117 99//99 108//108
f 114//114 104//104 84//84
f 88//88 110//110 113//113
f 118//118 100//100 99//99
f 111//111 95//95 119//119
f 107//107 116//116 120//120
f 98//98 121//121 96//96
f 97//97 96//96 122//122
f 99//99 117//117 123//123
f 109//109 100//100 118//118
f 106//106 109//109 124//124
f 110//110 72//72 125//125
f 106//106 126//126 101//101
f 72//72 111//111 125//125
f 126//126 115//115 101//101
f 122//122 96//96 127//127
f 97//97 122//122 112//112
f 128//128 121//121 98//98
f 107//107 120//120 98//98
f 114//114 113//113 104//104
f 99//99 123//123 118//118
f 112//112 129//129 103//103
f 119//119 95//95 103//103
f 121//121 127//127 96//96
f 120//120 128//128 98//98
f 130//130 108//108 131//131
f 108//108 132//132 131//131
f 104//104 132//132 108//108
f 104//104 113//113 132//132
f 123//123 117//117 130//130
f 130//130 117//117 108//108
f 113//113 110//110 133//133
f 109//109 118//118 134//134
f 109//109 134//134 124//124
f 126//126 106//106 124//124
f 125//125 111//111 135//135
f 135//135 111//111 119//119
f 122//122 129//129 112//112
f 129//129 119//119 103//103
f 121//121 128//128 136//136
f 131//131 137//137 138//138
f 132//132 137//137 131//131
f 132//132 139//139 137//137
f 113//113 140//140 132//132
f 132//132 140//140 139//139
f 130//130 141//141 123//123
f 133//133 140//140 113//113
f 124//124 134//134 142//142
f 110//110 125//125 133//133
f 133//133 125//125 143//143
f 126//126 124//124 142//142
f 125//125 135//135 143//143
f 144//144 115//115 126//126
f 144//144 102//102 115//115
f 116//116 102//102 144//144
f 145//145 116//116 144//144
f 136//136 146//146 121//121
f 116//116 145//145 120//120
f 131//131 138//138 130//130
f 130//130 138//138 147//147
f 123//123 141//141 148//148
f 130//130 147//147 141//141
f 137//137 149//149 138//138
f 140//140 150//150 139//139
f 140//140 133//133 150//150
f 118//118 151//151 134//134
f 118//118 123//123 151//151
f 133//133 152//152 150//150
f 152//152 133//133 143//143
f 153//153 126//126 142//142
f 143//143 135//135 154//154
f 135//135 129//129 154//154
f 119//119 129//129 135//135
f 144//144 126//126 153//153
f 146//146 155//155 127//127
f 122//122 127//127 156//156
f 157//157 122//122 156//156
f 129//129 122//122 157//157
f 127//127 121//121 146//146
f 120//120 145//145 128//128
f 158//158 138//138 149//149
f 141//141 147//147 148//148
f 138//138 158//158 147//147
f 137//137 139//139 150//150
f 123//123 148//148 151//151
f 149//149 159//159 158//158
f 137//137 159//159 149//149
f 150//150 159//159 137//137
f 160//160 134//134 151//151
f 150//150 161//161 159//159
f 162//162 161//161 150//150
f 150//150 152//152 162//162
f 134//134 160//160 142//142
f 143//143 162//162 152//152
f 154//154 162//162 143//143
f 129//129 157//157 154//154
f 146//146 163//163 155//155
f 156//156 127//127 155//155
f 144//144 164//164 145//145
f 165//165 136//136 128//128
f 148//148 166//166 151//151
f 147//147 166//166 148//148
f 167//167 166//166 147//147
f 158//158 167//167 147//147
f 168//168 167//167 158//158
f 168//168 158//158 159//159
f 160//160 169//169 142//142
f 159//159 170//170 168//168
f 170//170 171//171 168//168
f 161//161 170//170 159//159
f 162//162 172//172 161//161
f 172//172 170//170 161//161
f 162//162 154//154 172//172
f 142//142 169//169 153//153
f 172//172 171//171 170//170
f 172//172 173//173 171//171
f 157//157 173//173 172//172
f 174//174 144//144 153//153
f 172//172 154//154 157//157
f 173//173 155//155 163//163
f 156//156 155//155 173//173
f 157//157 156//156 173//173
f 164//164 144//144 174//174
f 165//165 163//163 146//146
f 128//128 175//175 165//165
f 146//146 136//136 165//165
f 128//128 145//145 175//175
f 176//176 151//151 166//166
f 160//160 151//151 177//177
f 177//177 151//151 176//176
f 178//178 176//176 166//166
f 167//167 178//178 166//166
f 167//167 168//168 178//178
f 160//160 177//177 169//169
f 168//168 179//179 178//178
f 171//171 179//179 168//168
f 180//180 169//169 177//177
f 171//171 181//181 179//179
f 181//181 182//182 179//179
f 171//171 173//173 181//181
f 169//169 174//174 153//153
f 181//181 163//163 182//182
f 173//173 163//163 181//181
f 182//182 163//163 165//165
f 145//145 164//164 175//175
f 176//176 183//183 177//177
f 183//183 176//176 178//178
f 183//183 180//180 177//177
f 178//178 179//179 183//183
f 179//179 184//184 183//183
f 183//183 184//184 180//180
f 179//179 182//182 184//184
f 169//169 180//180 174//174
f 184//184 174//174 180//180
f 164//164 174//174 184//184
f 182//182 175//175 184//184
f 175//175 164//164 184//184
f 182//182 165//165 175//175
