# Blender v2.92.0 OBJ File: 'convert_to_one_sided.blend'
# www.blender.org
mtllib 449L.mtl
o Cube
v 0.001000 0.001000 -0.001000
v 0.001000 -0.001000 -0.001000
v 0.001000 0.001000 0.001000
v 0.001000 -0.001000 0.001000
v -0.001000 0.001000 -0.001000
v -0.001000 -0.001000 -0.001000
v -0.001000 0.001000 0.001000
v -0.001000 -0.001000 0.001000
vt 0.625000 0.500000
vt 0.875000 0.500000
vt 0.875000 0.750000
vt 0.625000 0.750000
vt 0.375000 0.750000
vt 0.625000 1.000000
vt 0.375000 1.000000
vt 0.375000 0.000000
vt 0.625000 0.000000
vt 0.625000 0.250000
vt 0.375000 0.250000
vt 0.125000 0.500000
vt 0.375000 0.500000
vt 0.125000 0.750000
vn 0.0000 1.0000 0.0000
vn 0.0000 0.0000 1.0000
vn -1.0000 0.0000 0.0000
vn 0.0000 -1.0000 0.0000
vn 1.0000 0.0000 0.0000
vn 0.0000 0.0000 -1.0000
usemtl Material
s off
f 1/1/1 5/2/1 7/3/1 3/4/1
f 4/5/2 3/4/2 7/6/2 8/7/2
f 8/8/3 7/9/3 5/10/3 6/11/3
f 6/12/4 2/13/4 4/5/4 8/14/4
f 2/13/5 1/1/5 3/4/5 4/5/5
f 6/11/6 5/10/6 1/1/6 2/13/6
o 449
v 5.963354 2.996541 5.234783
v 5.958493 2.981390 5.234803
v 5.937284 3.039430 5.231263
v 5.925814 3.085429 5.231163
v 5.946453 3.054430 5.242073
v 5.903834 3.126969 5.227863
v 5.895474 3.087279 5.243233
v 5.890694 3.156759 5.228823
v 5.879324 3.171738 5.232883
v 5.844055 3.222478 5.236503
v 5.847724 3.232018 5.240373
v 5.803325 3.305777 5.239213
v 5.807655 3.275857 5.238363
v 5.984933 2.931541 5.252223
v 5.971673 2.949101 5.248493
v 5.990723 2.940291 5.265193
v 5.951573 2.973771 5.249543
v 5.967063 3.003200 5.292692
v 5.915064 3.112169 5.275613
v 5.875954 3.179298 5.245033
v 5.840435 3.180738 5.252353
v 5.802646 3.258427 5.249313
v 5.809375 3.301537 5.246743
v 5.773846 3.341886 5.248463
v 5.776546 3.292597 5.271213
v 5.764026 3.368266 5.252563
v 5.739046 3.386436 5.274462
v 5.782835 3.343306 5.254013
v 5.738906 3.411055 5.275573
v 5.742776 3.417475 5.293212
v 5.981413 2.895512 5.274992
v 5.999313 2.887382 5.285662
v 5.934844 2.911422 5.301312
v 5.878634 3.039670 5.296732
v 5.828095 3.264657 5.306252
v 5.757806 3.316686 5.294093
v 5.715816 3.457474 5.296272
v 5.712047 3.462654 5.304762
v 5.974733 2.821813 5.312622
v 6.003073 2.856172 5.298522
v 6.015373 2.820483 5.323742
v 6.009112 2.872712 5.307882
v 6.006603 2.889512 5.351212
v 5.826615 3.160079 5.297173
v 5.730156 3.369996 5.338292
v 5.714097 3.439095 5.309332
v 5.687757 3.512134 5.332602
v 5.994753 2.748744 5.334132
v 5.977003 2.769304 5.329582
v 5.999763 2.810643 5.319092
v 6.017632 2.733254 5.371121
v 5.960843 2.774413 5.341691
v 5.869034 3.015200 5.379041
v 5.791455 3.218928 5.377891
v 5.686177 3.468524 5.355031
v 5.682577 3.506314 5.338501
v 5.691067 3.512894 5.343912
v 6.002583 2.693884 5.364691
v 5.985453 2.722394 5.351061
v 5.937564 2.803533 5.366541
v 5.912854 2.892602 5.382061
v 5.982863 2.948531 5.431301
v 5.835505 3.111109 5.381721
v 5.908164 3.108819 5.378632
v 5.729126 3.455854 5.410501
v 5.654807 3.524784 5.369681
v 5.646567 3.570383 5.381681
v 5.667377 3.549603 5.359771
v 5.654367 3.575573 5.379001
v 5.994432 2.672354 5.387451
v 6.006753 2.660295 5.401231
v 5.969693 2.705514 5.388041
v 5.951334 2.740054 5.396801
v 6.023172 2.798573 5.458790
v 5.860795 3.195988 5.399521
v 5.806215 3.300336 5.491450
v 5.657377 3.498424 5.403541
v 5.643717 3.591643 5.392681
v 5.994393 2.650585 5.591548
v 6.012753 2.674185 5.402041
v 5.693387 3.424885 5.536829
v 5.633918 3.617352 5.414221
v 5.629968 3.622813 5.426230
v 5.972394 2.675694 5.617348
v 6.014822 2.645215 5.596919
v 6.015382 2.655235 5.466910
v 5.955573 2.708204 5.557819
v 5.936944 2.774673 5.583819
v 6.032622 2.724444 5.639708
v 6.016403 2.848952 5.611168
v 5.760836 3.273477 5.631008
v 5.638658 3.545314 5.415121
v 5.629287 3.593803 5.435960
v 5.652567 3.592793 5.435000
v 6.024793 2.679744 5.608558
v 5.898424 2.906651 5.607819
v 5.846655 3.063910 5.495460
v 5.882184 3.153128 5.606038
v 5.652537 3.496344 5.604339
v 5.629508 3.551564 5.633648
v 5.628067 3.628282 5.465050
v 6.017013 2.648075 5.665187
v 5.730647 3.455745 5.587569
v 5.680867 3.551553 5.516789
v 5.626648 3.631692 5.508709
v 5.995973 2.911062 5.650738
v 5.954144 3.007460 5.633518
v 5.817195 3.136809 5.583748
v 5.622418 3.604063 5.621828
v 5.627717 3.629032 5.555319
v 5.648327 3.602923 5.559079
v 5.788896 3.334246 5.669378
v 5.687237 3.537794 5.648338
v 5.626678 3.629042 5.578859
v 5.625787 3.623742 5.617618
v 5.625207 3.622602 5.636138
v 5.649667 3.600203 5.685557
v 5.624218 3.624142 5.630538
v 6.022265 2.811220 5.699999
v 5.859106 3.021861 5.699999
v 5.825143 3.261968 5.699999
v 6.033232 2.716170 5.699999
v 6.031298 2.740404 5.699999
v 5.719023 3.367349 5.699999
v 5.779812 3.353568 5.699999
v 5.793465 3.326128 5.699999
v 5.640479 3.608752 5.699999
v 5.653625 3.594136 5.699999
v 5.648421 3.602487 5.699999
v 5.843730 3.225447 5.699999
v 6.027289 2.776845 5.699999
v 6.015076 2.856924 5.699999
v 5.877918 3.162573 5.699999
v 5.906370 3.106469 5.699999
v 5.947710 3.022357 5.699999
v 5.910492 2.859362 5.699999
v 5.649120 3.501553 5.699999
v 6.001100 2.898177 5.699999
v 5.752402 3.292416 5.699999
v 5.666043 3.470783 5.699999
v 5.623363 3.620089 5.699999
v 5.766159 3.260518 5.699999
v 5.759236 3.276572 5.699999
v 5.991721 2.922771 5.699999
v 5.787119 3.209167 5.699999
v 5.930160 2.791244 5.699999
v 5.837220 3.237920 5.699999
v 5.635314 3.535230 5.699999
v 5.962214 2.693449 5.699999
v 5.973834 2.676340 5.699999
v 5.965305 2.984055 5.699999
v 6.016793 2.644564 5.699999
v 5.857203 3.026835 5.699999
v 5.708853 3.496160 5.699999
v 5.814396 3.142874 5.699999
v 6.015075 2.647712 5.699999
v 5.687084 3.539471 5.699999
v 5.628411 3.556645 5.699999
v 6.012612 2.648895 5.699999
v 5.688876 3.430222 5.699999
v 6.017048 2.645513 5.699999
v 5.624109 3.588187 5.699999
v 6.018065 2.653329 5.699999
v 5.622741 3.609653 5.699999
v 6.016488 2.648555 5.699999
v 5.953639 2.709533 5.699999
v 6.029386 2.691105 5.699999
v 6.024059 2.678716 5.699999
v 5.623460 3.620010 5.699999
v 5.987567 2.661104 5.699999
v 5.741126 3.434732 5.699999
v 5.629137 3.619529 5.699999
v 6.001789 2.651825 5.699999
v 5.862157 3.012748 5.699999
v 5.895559 2.911310 5.699999
v 5.946282 2.736191 5.699999
v 5.623456 3.619983 5.699999
v 5.623940 3.617338 5.699999
vn 0.6287 0.0965 -0.7717
vn -0.2023 -0.2949 -0.9339
vn -0.1621 -0.1131 -0.9803
vn 0.7187 0.3423 -0.6053
vn 0.8965 0.3891 -0.2119
vn 0.0020 0.0174 -0.9998
vn -0.5673 -0.2738 -0.7767
vn 0.5775 0.3657 -0.7299
vn -0.0480 0.0837 -0.9953
vn -0.1119 -0.0289 -0.9933
vn 0.6830 0.4354 -0.5865
vn 0.3448 0.3151 -0.8842
vn -0.3815 -0.1436 -0.9132
vn 0.4378 -0.2699 -0.8576
vn -0.1581 -0.3982 -0.9036
vn 0.9357 0.1673 -0.3106
vn -0.5832 -0.3971 -0.7086
vn 0.9259 0.3774 -0.0166
vn 0.8771 0.4799 -0.0183
vn 0.8698 0.4838 -0.0973
vn -0.6625 -0.3344 -0.6703
vn -0.7430 -0.3233 -0.5860
vn 0.8157 0.5106 -0.2721
vn -0.5143 -0.0336 -0.8569
vn -0.8535 -0.3576 -0.3791
vn 0.3303 0.5022 -0.7992
vn -0.8184 -0.1683 -0.5494
vn 0.7766 0.5507 -0.3059
vn -0.0092 0.4297 -0.9029
vn 0.7542 0.5755 -0.3162
vn -0.1039 -0.4578 -0.8830
vn 0.7163 -0.2040 -0.6673
vn -0.7265 -0.3510 -0.5908
vn -0.8415 -0.3711 -0.3927
vn 0.8752 0.4837 0.0012
vn -0.8987 -0.3767 -0.2248
vn -0.4515 0.2562 -0.8547
vn 0.4813 0.5994 -0.6396
vn -0.2897 -0.3399 -0.8947
vn 0.4734 -0.3275 -0.8177
vn 0.8540 -0.1736 -0.4905
vn 0.9751 0.0828 -0.2057
vn 0.9640 0.2658 -0.0034
vn -0.8860 -0.3790 -0.2672
vn -0.9191 -0.3661 -0.1455
vn -0.8864 -0.2183 -0.4082
vn 0.0653 0.5745 -0.8159
vn 0.2147 -0.3661 -0.9055
vn -0.4045 -0.3706 -0.8361
vn 0.3873 -0.3706 -0.8442
vn 0.9116 -0.1929 -0.3629
vn -0.7355 -0.3607 -0.5735
vn -0.9329 -0.3433 -0.1087
vn -0.9168 -0.3891 -0.0901
vn -0.8759 -0.3862 -0.2892
vn -0.7369 0.0081 -0.6759
vn 0.7452 0.5936 -0.3040
vn 0.3604 -0.5640 -0.7430
vn -0.4484 -0.5138 -0.7314
vn -0.9294 -0.2745 -0.2466
vn -0.9384 -0.3035 -0.1650
vn 0.9253 0.3785 0.0222
vn -0.9317 -0.3537 -0.0828
vn 0.8900 0.4541 0.0405
vn 0.8782 0.4767 -0.0378
vn -0.8872 -0.2272 -0.4016
vn -0.8078 0.1110 -0.5789
vn -0.3444 0.4159 -0.8417
vn 0.4186 0.7015 -0.5768
vn -0.5425 -0.7382 -0.4010
vn 0.2395 -0.9157 -0.3228
vn -0.8170 -0.5042 -0.2800
vn -0.9229 -0.3408 -0.1795
vn 0.9956 0.0875 -0.0345
vn 0.8854 0.4645 0.0167
vn 0.8929 0.4501 0.0065
vn -0.8901 -0.4380 -0.1259
vn -0.2171 0.5908 -0.7771
vn -0.4950 -0.8685 -0.0258
vn 0.8985 -0.3461 -0.2699
vn -0.8857 -0.4627 -0.0386
vn -0.7347 0.4655 -0.4935
vn 0.1281 0.9097 -0.3949
vn -0.8071 -0.5896 -0.0297
vn 0.1981 -0.9800 -0.0203
vn 0.8236 -0.5604 -0.0876
vn -0.9137 -0.4048 -0.0358
vn -0.9639 -0.2648 -0.0272
vn 0.9992 -0.0235 -0.0324
vn 0.9700 0.2429 -0.0021
vn -0.9195 -0.3929 -0.0149
vn -0.9615 -0.2301 -0.1501
vn -0.9886 -0.0221 -0.1490
vn 0.7955 0.5985 -0.0948
vn 0.9785 -0.2038 -0.0325
vn -0.9521 -0.3047 -0.0255
vn -0.9379 -0.3454 -0.0330
vn 0.8882 0.4595 0.0012
vn -0.9041 -0.4268 -0.0180
vn -0.9682 -0.2495 -0.0177
vn -0.8152 0.5687 -0.1091
vn 0.8968 -0.4424 0.0008
vn 0.8936 0.4488 -0.0007
vn 0.8667 0.4987 -0.0112
vn 0.1456 0.9890 -0.0264
vn -0.1466 -0.5975 0.7883
vn 0.6210 0.2063 0.7562
vn 0.9340 0.3573 -0.0047
vn 0.9071 0.4208 0.0003
vn -0.9323 -0.3613 -0.0158
vn -0.9980 0.0611 -0.0153
vn -0.8055 0.5925 -0.0109
vn 0.7792 0.6268 0.0029
vn 0.8978 0.4404 -0.0058
vn -0.6677 -0.2367 0.7057
vn -0.6666 -0.2507 0.7019
vn 0.6248 0.3208 0.7118
vn 0.6334 0.3164 0.7062
vn -0.6486 -0.3065 0.6967
vn -0.6754 -0.2408 0.6970
vn 0.8706 0.4920 0.0001
vn -0.4052 0.9132 0.0426
vn 0.3441 0.9374 0.0533
vn -0.8546 0.5190 0.0168
vn 0.7559 0.6546 -0.0132
vn -0.3825 0.8667 0.3201
vn -0.6882 -0.2012 0.6970
vn -0.6735 -0.2148 0.7073
vn -0.7116 -0.1471 0.6870
vn 0.6907 0.1780 0.7008
vn 0.6718 0.2481 0.6980
vn 0.6284 0.3367 0.7012
vn 0.6245 0.3319 0.7070
vn -0.6191 -0.3354 0.7101
vn -0.6407 -0.3037 0.7052
vn -0.6190 -0.3415 0.7072
vn -0.0429 0.7962 -0.6034
vn -0.2256 0.0302 0.9738
vn -0.6484 -0.2846 0.7061
vn -0.6496 -0.2802 0.7067
vn 0.0336 0.0537 0.9980
vn 0.7419 -0.0479 0.6688
vn 0.7056 0.0621 0.7059
vn 0.6908 0.1054 0.7154
vn 0.6530 0.2878 0.7006
vn 0.6433 0.3077 0.7010
vn -0.6572 -0.2558 0.7090
vn -0.6872 -0.2021 0.6978
vn -0.6730 -0.1964 0.7131
vn 0.7089 0.0797 0.7008
vn 0.6406 0.3161 0.6998
vn -0.6740 -0.0809 0.7343
vn -0.7244 0.1325 0.6765
vn -0.2876 0.5456 0.7872
vn -0.6547 -0.2680 0.7068
vn -0.6518 -0.2714 0.7081
vn 0.6329 0.3525 0.6893
vn 0.6231 0.3257 0.7111
vn -0.6571 -0.3132 0.6857
vn 0.6387 0.3069 0.7056
vn 0.0922 0.1297 0.9873
vn -0.6684 -0.2253 0.7088
vn -0.2365 -0.7287 0.6427
vn -0.4316 -0.5458 0.7183
vn 0.7113 -0.1769 0.6802
vn 0.6472 -0.2306 0.7266
vn -0.6749 -0.2596 0.6907
vn 0.5823 -0.3929 0.7117
vn 0.4884 -0.2405 0.8388
vn -0.4436 -0.7066 0.5514
vn 0.6382 0.3166 0.7017
vn -0.5482 -0.4672 0.6937
vn -0.5944 -0.3906 0.7030
vn 0.6599 0.2715 0.7006
vn 0.6406 0.3170 0.6994
vn 0.5532 0.5622 0.6148
vn 0.5814 0.3666 0.7264
vn 0.4480 0.5727 0.6865
usemtl mtl1.414
s 1
f 9//7 10//8 11//9
f 9//7 11//9 12//10
f 12//10 13//11 9//7
f 12//10 11//9 14//12
f 14//12 11//9 15//13
f 16//14 12//10 14//12
f 17//15 14//12 15//13
f 16//14 14//12 17//15
f 17//15 15//13 18//16
f 19//17 17//15 18//16
f 19//17 16//14 17//15
f 20//18 19//17 18//16
f 21//19 20//18 18//16
f 22//20 23//21 9//7
f 9//7 24//22 22//20
f 23//21 25//23 10//8
f 9//7 23//21 10//8
f 10//8 25//23 11//9
f 9//7 13//11 26//24
f 24//22 9//7 26//24
f 25//23 15//13 11//9
f 13//11 12//10 27//25
f 12//10 28//26 27//25
f 16//14 28//26 12//10
f 15//13 29//27 18//16
f 29//27 30//28 21//19
f 29//27 21//19 18//16
f 19//17 20//18 31//29
f 30//28 32//30 21//19
f 32//30 30//28 33//31
f 34//32 20//18 32//30
f 21//19 32//30 20//18
f 33//31 35//33 32//30
f 34//32 36//34 20//18
f 37//35 32//30 35//33
f 34//32 32//30 37//35
f 36//34 34//32 38//36
f 39//37 25//23 23//21
f 40//38 39//37 22//20
f 22//20 39//37 23//21
f 24//22 40//38 22//20
f 15//13 41//39 42//40
f 41//39 15//13 25//23
f 15//13 42//40 29//27
f 13//11 27//25 26//24
f 16//14 19//17 28//26
f 19//17 31//29 43//41
f 43//41 28//26 19//17
f 31//29 20//18 36//34
f 33//31 44//42 35//33
f 37//35 38//36 34//32
f 45//43 37//35 35//33
f 46//44 37//35 45//43
f 46//44 38//36 37//35
f 39//37 41//39 25//23
f 39//37 47//45 41//39
f 40//38 48//46 39//37
f 48//46 40//38 49//47
f 49//47 40//38 50//48
f 40//38 24//22 50//48
f 50//48 24//22 51//49
f 24//22 26//24 51//49
f 42//40 52//50 29//27
f 30//28 29//27 52//50
f 33//31 30//28 52//50
f 36//34 43//41 31//29
f 44//42 53//51 35//33
f 35//33 53//51 54//52
f 35//33 54//52 45//43
f 55//53 46//44 45//43
f 56//54 57//55 47//45
f 56//54 47//45 58//56
f 56//54 58//56 59//57
f 49//47 59//57 58//56
f 47//45 57//55 60//58
f 58//56 47//45 39//37
f 48//46 58//56 39//37
f 47//45 60//58 41//39
f 58//56 48//46 49//47
f 42//40 61//59 52//50
f 33//31 52//50 62//60
f 28//26 43//41 27//25
f 33//31 62//60 44//42
f 53//51 44//42 62//60
f 53//51 63//61 54//52
f 36//34 38//36 43//41
f 54//52 64//62 45//43
f 45//43 64//62 55//53
f 55//53 65//63 46//44
f 66//64 67//65 56//54
f 66//64 56//54 59//57
f 56//54 67//65 57//55
f 57//55 67//65 60//58
f 41//39 60//58 68//66
f 41//39 68//66 69//67
f 41//39 69//67 42//40
f 42//40 69//67 61//59
f 51//49 26//24 70//68
f 61//59 71//69 52//50
f 27//25 72//70 26//24
f 71//69 62//60 52//50
f 38//36 73//71 43//41
f 74//72 64//62 63//61
f 64//62 54//52 63//61
f 38//36 46//44 65//63
f 75//73 64//62 74//72
f 64//62 76//74 55//53
f 76//74 77//75 55//53
f 77//75 65//63 55//53
f 64//62 75//73 76//74
f 78//76 66//64 79//77
f 67//65 78//76 80//78
f 66//64 78//76 67//65
f 60//58 80//78 81//79
f 80//78 60//58 67//65
f 68//66 60//58 81//79
f 49//47 50//48 82//80
f 50//48 51//49 82//80
f 26//24 72//70 70//68
f 72//70 27//25 43//41
f 83//81 72//70 43//41
f 84//82 83//81 43//41
f 43//41 73//71 84//82
f 74//72 63//61 85//83
f 38//36 65//63 73//71
f 75//73 86//84 76//74
f 77//75 76//74 86//84
f 87//85 78//76 79//77
f 66//64 88//86 79//77
f 66//64 59//57 88//86
f 59//57 49//47 82//80
f 63//61 53//51 89//87
f 86//84 75//73 90//88
f 91//89 86//84 90//88
f 77//75 86//84 91//89
f 78//76 87//85 92//90
f 79//77 93//91 87//85
f 94//92 93//91 79//77
f 78//76 92//90 80//78
f 88//86 94//92 79//77
f 80//78 92//90 95//93
f 81//79 80//78 95//93
f 81//79 96//94 68//66
f 59//57 82//80 97//95
f 96//94 69//67 68//66
f 82//80 51//49 98//96
f 51//49 70//68 98//96
f 99//97 53//51 62//60
f 53//51 99//97 89//87
f 63//61 89//87 85//83
f 100//98 74//72 85//83
f 74//72 100//98 75//73
f 101//99 75//73 100//98
f 90//88 75//73 101//99
f 102//100 65//63 77//75
f 77//75 91//89 102//100
f 103//101 94//92 88//86
f 88//86 59//57 103//101
f 103//101 59//57 97//95
f 104//102 61//59 69//67
f 61//59 105//103 71//69
f 62//60 71//69 105//103
f 106//104 72//70 83//81
f 84//82 106//104 83//81
f 85//83 89//87 107//105
f 107//105 100//98 85//83
f 108//106 100//98 107//105
f 65//63 102//100 73//71
f 90//88 101//99 109//107
f 91//89 90//88 109//107
f 110//108 93//91 94//92
f 81//79 95//93 96//94
f 69//67 96//94 104//102
f 84//82 73//71 111//109
f 73//71 102//100 112//110
f 91//89 109//107 113//111
f 113//111 102//100 91//89
f 160//112 110//108 169//113
f 110//108 94//92 103//101
f 98//96 70//68 114//114
f 104//102 105//103 61//59
f 115//115 72//70 106//104
f 62//60 116//116 99//97
f 100//98 108//106 101//99
f 108//106 117//117 101//99
f 101//99 117//117 109//107
f 70//68 72//70 115//115
f 105//103 116//116 62//60
f 111//109 73//71 112//110
f 117//117 118//118 109//107
f 112//110 102//100 119//119
f 118//118 113//111 109//107
f 102//100 113//111 119//119
f 70//68 115//115 114//114
f 84//82 111//109 120//120
f 116//116 128//121 161//122
f 155//123 120//120 129//124
f 108//106 145//125 156//126
f 112//110 119//119 121//127
f 113//111 118//118 122//128
f 123//129 119//119 113//111
f 122//128 123//129 113//111
f 112//110 121//127 111//109
f 117//117 124//130 118//118
f 119//119 125//131 121//127
f 122//128 118//118 124//130
f 123//129 125//131 119//119
f 122//128 124//130 126//132
f 122//128 126//132 123//129
f 144//133 183//134 104//102
f 166//135 108//106 156//126
f 140//136 114//114 146//137
f 141//138 106//104 138//139
f 168//140 89//87 132//141
f 107//105 168//140 148//142
f 149//143 124//130 185//144
f 147//145 99//97 151//146
f 177//147 126//132 149//143
f 130//148 97//95 131//149
f 127//150 98//96 140//136
f 159//151 115//115 143//152
f 161//122 163//153 116//116
f 154//154 184//155 139//156
f 134//157 129//124 120//120
f 170//158 172//159 117//117
f 180//160 123//129 177//147
f 153//161 150//162 99//97
f 165//163 162//164 121//127
f 160//112 164//165 93//91
f 134//157 120//120 133//166
f 145//125 107//105 148//142
f 124//130 186//167 185//144
f 104//102 183//134 182//168
f 87//85 181//169 178//170
f 103//101 175//171 176//172
f 174//173 96//94 95//93
f 172//159 124//130 117//117
f 110//108 176//172 171//174
f 110//108 171//174 173//175
f 110//108 173//175 169//113
f 93//91 181//169 87//85
f 108//106 170//158 117//117
f 93//91 164//165 167//176
f 111//109 162//164 179//177
f 92//90 178//170 158//178
f 92//90 158//178 157//179
f 92//90 174//173 95//93
f 96//94 184//155 154//154
f 116//116 153//161 99//97
f 114//114 159//151 152//180
f 99//97 150//162 151//146
f 114//114 152//180 146//137
f 96//94 144//133 104//102
f 115//115 142//181 143//152
f 106//104 141//138 142//181
f 155//123 106//104 84//82
f 125//131 165//163 121//127
f 125//131 137//182 136//183
f 180//160 125//131 123//129
f 125//131 135//184 137//182
f 120//120 179//177 133//166
f 99//97 132//141 89//87
f 97//95 139//156 131//149
f 97//95 175//171 103//101
f 104//102 128//121 105//103
f 98//96 139//156 82//80
f 160//112 93//91 110//108
f 116//116 105//103 128//121
f 155//123 84//82 120//120
f 108//106 107//105 145//125
f 140//136 98//96 114//114
f 107//105 89//87 168//140
f 149//143 126//132 124//130
f 177//147 123//129 126//132
f 186//167 172//159 180//160
f 172//159 170//158 135//184
f 170//158 166//135 136//183
f 166//135 156//126 165//163
f 136//183 166//135 165//163
f 156//126 145//125 165//163
f 145//125 148//142 162//164
f 145//125 162//164 165//163
f 148//142 168//140 162//164
f 172//159 135//184 180//160
f 135//184 170//158 137//182
f 177//147 149//143 185//144
f 177//147 185//144 180//160
f 185//144 186//167 180//160
f 136//183 137//182 170//158
f 133//166 179//177 132//141
f 179//177 162//164 168//140
f 147//145 134//157 133//166
f 129//124 134//157 151//146
f 129//124 151//146 150//162
f 134//157 147//145 151//146
f 168//140 132//141 179//177
f 132//141 147//145 133//166
f 150//162 153//161 129//124
f 153//161 163//153 138//139
f 155//123 129//124 153//161
f 142//181 141//138 163//153
f 141//138 138//139 163//153
f 138//139 155//123 153//161
f 163//153 161//122 142//181
f 161//122 128//121 143//152
f 142//181 161//122 143//152
f 152//180 159//151 183//134
f 159//151 143//152 182//168
f 182//168 143//152 128//121
f 140//136 146//137 144//133
f 146//137 152//180 144//133
f 183//134 159//151 182//168
f 139//156 127//150 154//154
f 127//150 140//136 154//154
f 144//133 152//180 183//134
f 130//148 131//149 174//173
f 131//149 139//156 184//155
f 176//172 175//171 158//178
f 175//171 130//148 157//179
f 158//178 175//171 157//179
f 173//175 171//174 167//176
f 171//174 176//172 181//169
f 167//176 171//174 181//169
f 160//112 169//113 164//165
f 169//113 173//175 164//165
f 131//149 184//155 174//173
f 164//165 173//175 167//176
f 178//170 181//169 176//172
f 178//170 176//172 158//178
f 140//136 144//133 154//154
f 174//173 157//179 130//148
f 174//173 184//155 96//94
f 172//159 186//167 124//130
f 110//108 103//101 176//172
f 93//91 167//176 181//169
f 108//106 166//135 170//158
f 111//109 121//127 162//164
f 92//90 87//85 178//170
f 92//90 157//179 174//173
f 116//116 163//153 153//161
f 114//114 115//115 159//151
f 96//94 154//154 144//133
f 115//115 106//104 142//181
f 155//123 138//139 106//104
f 125//131 136//183 165//163
f 180//160 135//184 125//131
f 120//120 111//109 179//177
f 99//97 147//145 132//141
f 97//95 82//80 139//156
f 97//95 130//148 175//171
f 104//102 182//168 128//121
f 98//96 127//150 139//156
