# Blender v2.92.0 OBJ File: 'convert_to_one_sided.blend'
# www.blender.org
mtllib 452L.mtl
o 452
v 5.270092 4.866986 5.615018
v 5.297682 4.774007 5.618578
v 5.246723 4.801567 5.632138
v 5.332311 4.831997 5.633779
v 5.297852 4.885316 5.629899
v 5.278122 4.687059 5.644828
v 5.316242 4.656809 5.646038
v 5.324781 4.747458 5.637639
v 5.198813 4.899526 5.655508
v 5.313191 4.898826 5.655208
v 5.247783 4.922636 5.648448
v 5.050535 5.965852 5.629728
v 5.076575 5.852533 5.635879
v 5.006215 5.972122 5.633458
v 4.943536 6.100780 5.631498
v 4.984196 6.117391 5.636339
v 4.914357 6.244169 5.646668
v 5.302392 4.569020 5.668228
v 5.344411 4.687569 5.670958
v 5.235713 4.747038 5.667888
v 5.183893 4.983935 5.658578
v 5.207853 5.003624 5.672778
v 5.280992 4.938225 5.676638
v 5.169983 5.423519 5.653938
v 5.119384 5.270671 5.668488
v 5.146764 5.478089 5.651328
v 5.209383 5.535638 5.655348
v 5.161233 5.605307 5.647398
v 5.098414 5.617157 5.654848
v 5.191083 5.669776 5.660028
v 5.121814 5.723926 5.650638
v 5.056465 5.790565 5.651938
v 5.124894 5.851014 5.656748
v 4.986426 5.918233 5.663368
v 5.046445 6.046041 5.659808
v 5.112134 5.941313 5.679988
v 4.908477 6.133550 5.664258
v 4.996985 6.158050 5.658758
v 4.956146 6.228279 5.667288
v 4.880147 6.266829 5.664348
v 4.907837 6.313757 5.683517
v 4.885387 6.317918 5.683778
v 5.315572 4.537441 5.679818
v 5.304152 4.534581 5.677868
v 5.279892 4.607009 5.680218
v 5.352551 4.833327 5.693298
v 5.147954 5.061254 5.670388
v 5.159943 5.109503 5.673918
v 5.177663 5.082443 5.689168
v 5.109365 5.169732 5.688898
v 5.150634 5.230102 5.689948
v 5.080265 5.406019 5.686318
v 5.168664 5.374390 5.679518
v 5.099754 5.488469 5.670218
v 5.206293 5.477539 5.676138
v 5.222663 5.586517 5.682218
v 5.059025 5.655506 5.676708
v 5.185123 5.745605 5.683278
v 4.950616 5.988612 5.693218
v 4.875967 6.207579 5.687088
v 4.872007 6.284878 5.697088
v 4.886357 6.333508 5.696128
v 5.303312 4.541391 5.687048
v 5.303941 4.539530 5.697707
v 5.196623 4.844586 5.689918
v 5.154154 5.000165 5.695268
v 5.191163 5.432999 5.697968
v 5.027565 5.762755 5.699227
v 5.143284 5.858243 5.683457
v 5.146174 5.866553 5.696548
v 5.072044 6.020332 5.697428
v 5.003335 6.150700 5.687668
v 5.210001 5.013903 5.699999
v 5.023056 5.778474 5.699999
v 4.939952 6.261525 5.699999
v 5.181518 5.065095 5.699999
v 5.167934 5.131701 5.699999
v 5.064593 5.571250 5.699999
v 4.897197 6.312330 5.699999
v 5.028491 5.759949 5.699999
v 5.027488 5.763956 5.699999
v 5.220867 4.764763 5.699999
v 5.305372 4.908217 5.699999
v 4.990711 5.892776 5.699999
v 4.885084 6.327693 5.699999
v 5.110563 5.155326 5.699999
v 5.093462 5.293537 5.699999
v 5.186668 5.723771 5.699999
v 4.963353 6.221395 5.699999
v 5.327776 4.589358 5.699999
v 4.973238 5.933288 5.699999
v 4.933584 6.037225 5.699999
v 5.347371 4.721458 5.699999
v 5.153462 5.210912 5.699999
v 5.156579 5.295739 5.699999
v 5.154738 5.833669 5.699999
v 5.308256 4.553064 5.699999
v 5.196577 4.854574 5.699999
v 4.956888 5.979745 5.699999
v 5.141286 5.872772 5.699999
v 5.231175 4.734313 5.699999
v 4.897141 6.143629 5.699999
v 5.136519 5.060392 5.699999
v 5.085026 5.361722 5.699999
v 5.068246 5.529847 5.699999
v 4.878634 6.213104 5.699999
v 5.159982 4.984139 5.699999
v 5.152806 5.008990 5.699999
v 5.334547 4.623591 5.699999
v 5.034790 5.723903 5.699999
v 5.238976 4.711354 5.699999
v 4.910933 6.106736 5.699999
v 4.883716 6.323416 5.699999
v 5.277822 4.617097 5.699999
v 5.161752 5.341140 5.699999
v 4.873413 6.276376 5.699999
v 5.074904 6.011388 5.699999
v 5.064378 6.032801 5.699999
v 4.874520 6.284863 5.699999
v 5.326455 4.874544 5.699999
v 5.212474 5.008197 5.699999
v 5.235593 4.971220 5.699999
v 4.885180 6.328349 5.699999
v 5.351294 4.801538 5.699999
v 4.889687 6.324065 5.699999
v 5.351881 4.830287 5.699999
v 5.347208 4.839480 5.699999
v 5.299815 4.915033 5.699999
v 5.248367 4.959997 5.699999
v 4.949634 6.244942 5.699999
v 5.287330 4.589875 5.699999
v 5.205863 5.500982 5.699999
v 5.005129 6.140442 5.699999
v 5.213706 5.550005 5.699999
v 5.298163 4.557049 5.699999
v 5.182798 5.406025 5.699999
v 5.192773 5.442370 5.699999
v 5.202821 5.654903 5.699999
v 5.305040 4.545716 5.699999
v 5.188304 5.430416 5.699999
v 5.302335 4.546965 5.699999
vn -0.0611 0.1821 -0.9814
vn 0.0897 -0.1266 -0.9879
vn -0.5347 -0.1740 -0.8269
vn 0.6873 0.1239 -0.7157
vn 0.3857 0.4829 -0.7861
vn -0.4841 -0.2660 -0.8336
vn 0.3663 -0.2282 -0.9021
vn 0.6253 -0.1126 -0.7722
vn -0.6360 -0.0787 -0.7677
vn 0.6954 0.5965 -0.4006
vn 0.1585 0.4911 -0.8566
vn 0.3329 0.1235 -0.9348
vn 0.0637 -0.0691 -0.9956
vn -0.2348 -0.1154 -0.9652
vn -0.4080 -0.0981 -0.9077
vn 0.3274 0.2126 -0.9207
vn -0.0595 0.2629 -0.9630
vn -0.2212 -0.3294 -0.9179
vn 0.9294 -0.1294 -0.3455
vn -0.8366 -0.2816 -0.4699
vn 0.0286 0.1466 -0.9888
vn 0.6972 0.4964 -0.5172
vn 0.6399 0.7242 -0.2573
vn 0.5270 -0.2198 -0.8209
vn -0.0217 -0.0842 -0.9962
vn -0.0984 -0.0556 -0.9936
vn 0.5602 -0.0475 -0.8270
vn 0.0801 0.0194 -0.9966
vn -0.3133 -0.0732 -0.9468
vn 0.5510 0.1443 -0.8219
vn 0.0749 -0.0051 -0.9972
vn -0.3635 -0.1601 -0.9177
vn 0.5918 0.1911 -0.7831
vn -0.8104 -0.2964 -0.5054
vn 0.7675 0.3623 -0.5288
vn 0.8485 0.3737 -0.3747
vn -0.8303 -0.2349 -0.5054
vn 0.7579 0.4125 -0.5055
vn 0.7254 0.4881 -0.4854
vn -0.7726 0.0687 -0.6312
vn 0.6198 0.7073 -0.3401
vn -0.5325 0.5760 -0.6202
vn 0.6132 -0.7599 -0.2159
vn -0.5114 -0.7060 -0.4900
vn -0.8879 -0.3352 -0.3152
vn 0.9649 0.2624 -0.0087
vn -0.4965 -0.0843 -0.8639
vn 0.4944 0.1832 -0.8497
vn 0.9383 0.3140 -0.1447
vn -0.8969 -0.1623 -0.4113
vn 0.8974 0.0392 -0.4395
vn -0.8545 -0.0982 -0.5102
vn 0.8780 -0.2774 -0.3901
vn -0.4734 -0.0767 -0.8775
vn 0.9485 -0.2422 -0.2041
vn 0.9920 0.0681 -0.1066
vn -0.7722 -0.1627 -0.6142
vn 0.9145 0.2767 -0.2953
vn -0.9364 -0.3503 0.0215
vn -0.9800 -0.1811 -0.0831
vn -0.9748 0.1592 0.1564
vn 0.0741 0.9918 0.1043
vn -0.6839 -0.7195 0.1205
vn -0.3615 -0.7170 0.5960
vn -0.9633 -0.2504 -0.0968
vn -0.9595 -0.2689 -0.0839
vn 0.3406 0.3947 0.8534
vn 0.3897 0.4590 0.7984
vn 0.9173 -0.2767 0.2863
vn -0.9671 -0.2421 0.0784
vn 0.8364 0.3022 -0.4573
vn 0.9280 0.3574 0.1052
vn -0.7167 -0.2903 0.6340
vn -0.6689 -0.2201 0.7100
vn 0.8835 0.4539 0.1162
vn 0.8826 0.4699 -0.0146
vn 0.7165 -0.1294 0.6855
vn 0.7309 -0.0508 0.6806
vn 0.5388 0.4481 0.7134
vn -0.7351 -0.2140 0.6433
vn -0.7455 -0.0581 0.6639
vn 0.7225 0.0185 0.6911
vn 0.6310 0.0170 0.7756
vn 0.5948 -0.0198 0.8036
vn 0.6720 0.1103 0.7323
vn -0.6860 -0.2841 0.6698
vn -0.6570 -0.0378 0.7529
vn -0.7320 -0.2643 0.6279
vn -0.6033 -0.1502 0.7832
vn 0.7316 -0.0556 0.6795
vn 0.6561 0.1408 0.7414
vn 0.5422 0.3380 0.7693
vn 0.5719 0.3884 0.7226
vn 0.5139 0.2216 0.8287
vn 0.6658 0.1475 0.7314
vn -0.8453 -0.1509 0.5125
vn -0.5253 -0.0958 0.8455
vn -0.7355 -0.0863 0.6720
vn -0.4998 -0.1756 0.8482
vn 0.4861 0.2293 0.8433
vn 0.4864 0.2441 0.8389
vn -0.6243 -0.0595 0.7789
vn -0.4399 0.0671 0.8955
vn 0.4453 -0.3208 0.8359
vn -0.5229 -0.1467 0.8397
vn 0.6956 0.3806 0.6093
vn 0.4766 0.2525 0.8421
vn 0.6502 -0.1448 0.7458
vn 0.3044 -0.0570 0.9509
vn 0.6953 -0.2363 0.6787
vn -0.7643 -0.1689 0.6223
vn 0.6281 -0.0892 0.7730
vn -0.4920 0.2494 0.8341
vn 0.5297 0.3690 0.7638
vn 0.6010 0.4448 0.6640
vn 0.5331 0.3042 0.7895
vn 0.6186 -0.1038 0.7788
vn -0.7084 -0.2464 0.6614
vn -0.7129 0.2215 0.6654
vn -0.5858 -0.2299 0.7772
vn -0.7786 -0.2528 0.5744
vn -0.5803 -0.1757 0.7952
vn -0.6000 -0.1555 0.7847
vn -0.6901 -0.0648 0.7208
vn -0.7194 -0.0306 0.6939
vn -0.7652 -0.2089 0.6089
vn 0.3892 -0.1874 0.9019
vn 0.5543 0.1783 0.8130
vn -0.7208 -0.2320 0.6532
vn 0.6993 -0.1868 0.6900
vn 0.5549 0.2156 0.8035
vn -0.7470 0.2380 0.6207
vn 0.5707 0.4453 0.6899
vn -0.5314 -0.1889 0.8258
vn 0.3864 0.3318 0.8606
vn 0.6539 0.3605 0.6652
vn 0.6236 0.4087 0.6664
vn -0.6816 -0.1952 0.7052
vn 0.6911 0.3348 0.6405
vn -0.7360 -0.2668 0.6222
vn -0.7468 -0.2327 0.6231
usemtl mtl1.1268
s 1
f 1//1 2//2 3//3
f 4//4 2//2 1//1
f 5//5 4//4 1//1
f 6//6 2//2 7//7
f 8//8 7//7 2//2
f 2//2 6//6 3//3
f 2//2 4//4 8//8
f 1//1 3//3 9//9
f 5//5 10//10 4//4
f 9//9 11//11 1//1
f 1//1 11//11 5//5
f 12//12 13//13 14//14
f 14//14 15//15 16//16
f 16//16 12//12 14//14
f 16//16 15//15 17//17
f 7//7 18//18 6//6
f 8//8 19//19 7//7
f 20//20 3//3 6//6
f 8//8 4//4 19//19
f 3//3 20//20 9//9
f 5//5 11//11 10//10
f 11//11 9//9 21//21
f 22//22 11//11 21//21
f 23//23 11//11 22//22
f 24//24 25//25 26//26
f 27//27 24//24 26//26
f 27//27 26//26 28//28
f 28//28 26//26 29//29
f 27//27 28//28 30//30
f 28//28 29//29 31//31
f 30//30 28//28 31//31
f 32//32 31//31 29//29
f 33//33 30//30 31//31
f 31//31 32//32 13//13
f 13//13 32//32 14//14
f 33//33 31//31 13//13
f 32//32 34//34 14//14
f 33//33 13//13 12//12
f 33//33 12//12 35//35
f 35//35 36//36 33//33
f 14//14 34//34 15//15
f 15//15 34//34 37//37
f 12//12 16//16 35//35
f 16//16 38//38 35//35
f 16//16 39//39 38//38
f 15//15 37//37 17//17
f 40//40 17//17 37//37
f 39//39 17//17 41//41
f 16//16 17//17 39//39
f 42//42 41//41 17//17
f 40//40 42//42 17//17
f 43//43 44//44 18//18
f 43//43 18//18 7//7
f 18//18 44//44 45//45
f 19//19 43//43 7//7
f 45//45 6//6 18//18
f 20//20 6//6 45//45
f 46//46 19//19 4//4
f 4//4 10//10 46//46
f 9//9 47//47 21//21
f 21//21 47//47 48//48
f 48//48 22//22 21//21
f 49//49 22//22 48//48
f 25//25 47//47 50//50
f 48//48 47//47 25//25
f 51//51 49//49 48//48
f 48//48 25//25 51//51
f 25//25 50//50 52//52
f 51//51 25//25 53//53
f 54//54 25//25 52//52
f 25//25 24//24 53//53
f 25//25 54//54 26//26
f 55//55 53//53 24//24
f 27//27 55//55 24//24
f 26//26 54//54 29//29
f 27//27 56//56 55//55
f 29//29 54//54 57//57
f 30//30 56//56 27//27
f 32//32 29//29 57//57
f 58//58 30//30 33//33
f 34//34 32//32 57//57
f 37//37 34//34 59//59
f 37//37 60//60 40//40
f 40//40 61//61 42//42
f 41//41 42//42 62//62
f 63//63 43//43 64//64
f 43//43 63//63 44//44
f 44//44 63//63 45//45
f 20//20 65//65 9//9
f 9//9 65//65 66//66
f 47//47 9//9 66//66
f 10//10 11//11 23//23
f 23//23 122//67 129//68
f 47//47 66//66 50//50
f 53//53 55//55 67//69
f 54//54 52//52 57//57
f 30//30 58//58 56//56
f 34//34 57//57 68//70
f 33//33 69//71 58//58
f 33//33 36//36 69//71
f 69//71 36//36 70//72
f 91//73 34//34 84//74
f 36//36 35//35 71//75
f 35//35 72//76 71//75
f 35//35 38//38 72//76
f 38//38 39//39 72//76
f 60//60 61//61 40//40
f 109//77 19//19 93//78
f 128//79 23//23 129//68
f 86//80 87//81 50//50
f 94//82 51//51 95//83
f 134//84 56//56 138//85
f 58//58 69//71 70//72
f 71//75 70//72 36//36
f 102//86 106//87 60//60
f 82//88 98//89 65//65
f 124//90 46//46 126//91
f 127//92 82//88 124//90
f 120//93 127//92 46//46
f 76//94 49//49 77//95
f 110//96 80//97 68//70
f 110//96 57//57 78//98
f 91//73 99//99 59//59
f 70//72 117//100 100//101
f 116//102 119//103 61//61
f 139//104 141//105 64//64
f 126//91 46//46 127//92
f 89//106 133//107 72//76
f 67//69 137//108 140//109
f 67//69 140//109 136//110
f 64//64 141//105 135//111
f 55//55 137//108 67//69
f 55//55 134//84 132//112
f 135//111 63//63 64//64
f 62//62 123//113 125//114
f 22//22 121//115 122//67
f 72//76 118//116 71//75
f 71//75 118//116 117//100
f 53//53 136//110 115//117
f 131//118 45//45 63//63
f 61//61 119//103 113//119
f 45//45 114//120 111//121
f 66//66 107//122 108//123
f 60//60 116//102 61//61
f 52//52 104//124 105//125
f 66//66 108//123 103//126
f 37//37 102//86 60//60
f 111//121 20//20 45//45
f 65//65 107//122 66//66
f 64//64 97//127 139//104
f 70//72 100//101 96//128
f 53//53 95//83 51//51
f 46//46 93//78 19//19
f 92//129 37//37 59//59
f 59//59 99//99 92//129
f 43//43 109//77 90//130
f 43//43 90//130 97//127
f 39//39 89//106 72//76
f 58//58 138//85 56//56
f 58//58 96//128 88//131
f 52//52 87//81 104//124
f 103//126 50//50 66//66
f 42//42 113//119 85//132
f 62//62 85//132 123//113
f 10//10 120//93 46//46
f 23//23 83//133 10//10
f 20//20 82//88 65//65
f 68//70 80//97 81//134
f 62//62 79//135 41//41
f 105//125 57//57 52//52
f 51//51 77//95 49//49
f 39//39 75//136 130//137
f 41//41 79//135 75//136
f 68//70 84//74 34//34
f 68//70 81//134 74//138
f 22//22 73//139 121//115
f 49//49 76//94 73//139
f 23//23 22//22 122//67
f 91//73 59//59 34//34
f 78//98 105//125 134//84
f 105//125 104//124 140//109
f 140//109 104//124 136//110
f 104//124 87//81 115//117
f 87//81 86//80 94//82
f 77//95 103//126 76//94
f 86//80 103//126 77//95
f 103//126 108//123 76//94
f 108//123 107//122 73//139
f 76//94 108//123 73//139
f 80//97 110//96 88//131
f 110//96 78//98 138//85
f 84//74 74//138 100//101
f 74//138 81//134 96//128
f 84//74 117//100 91//73
f 99//99 91//73 117//100
f 118//116 92//129 99//99
f 112//140 92//129 133//107
f 133//107 102//86 112//140
f 106//87 102//86 89//106
f 106//87 89//106 130//137
f 119//103 116//102 75//136
f 116//102 106//87 75//136
f 119//103 75//136 79//135
f 85//132 113//119 125//114
f 113//119 119//103 79//135
f 125//114 123//113 85//132
f 130//137 75//136 106//87
f 79//135 125//114 113//119
f 102//86 133//107 89//106
f 92//129 118//116 133//107
f 117//100 118//116 99//99
f 117//100 84//74 100//101
f 100//101 74//138 96//128
f 96//128 81//134 80//97
f 138//85 88//131 110//96
f 88//131 96//128 80//97
f 132//112 134//84 105//125
f 134//84 138//85 78//98
f 140//109 137//108 105//125
f 137//108 132//112 105//125
f 115//117 136//110 104//124
f 86//80 77//95 94//82
f 107//122 98//89 122//67
f 95//83 115//117 87//81
f 73//139 107//122 121//115
f 98//89 82//88 120//93
f 82//88 101//141 124//90
f 101//141 111//121 93//78
f 124//90 101//141 93//78
f 111//121 114//120 93//78
f 129//68 98//89 128//79
f 94//82 95//83 87//81
f 122//67 98//89 129//68
f 131//118 135//111 90//130
f 135//111 141//105 97//127
f 121//115 107//122 122//67
f 114//120 131//118 109//77
f 135//111 97//127 90//130
f 141//105 139//104 97//127
f 90//130 109//77 131//118
f 98//89 83//133 128//79
f 83//133 98//89 120//93
f 109//77 93//78 114//120
f 124//90 126//91 127//92
f 127//92 120//93 82//88
f 110//96 68//70 57//57
f 70//72 71//75 117//100
f 55//55 132//112 137//108
f 55//55 56//56 134//84
f 135//111 131//118 63//63
f 72//76 133//107 118//116
f 53//53 67//69 136//110
f 131//118 114//120 45//45
f 60//60 106//87 116//102
f 37//37 112//140 102//86
f 111//121 101//141 20//20
f 65//65 98//89 107//122
f 64//64 43//43 97//127
f 53//53 115//117 95//83
f 46//46 124//90 93//78
f 92//129 112//140 37//37
f 43//43 19//19 109//77
f 39//39 130//137 89//106
f 58//58 88//131 138//85
f 58//58 70//72 96//128
f 52//52 50//50 87//81
f 103//126 86//80 50//50
f 42//42 61//61 113//119
f 62//62 42//42 85//132
f 10//10 83//133 120//93
f 23//23 128//79 83//133
f 20//20 101//141 82//88
f 62//62 125//114 79//135
f 105//125 78//98 57//57
f 51//51 94//82 77//95
f 39//39 41//41 75//136
f 68//70 74//138 84//74
f 22//22 49//49 73//139
