# Blender v2.92.0 OBJ File: 'convert_to_one_sided.blend'
# www.blender.org
mtllib 470L.mtl
o 470
v 7.125838 5.033655 3.670833
v 7.195657 5.029815 3.670153
v 7.142338 5.028125 3.682973
v 7.158608 5.043504 3.666173
v 7.270566 5.057065 3.674223
v 7.275556 5.034995 3.685613
v 7.361345 5.068814 3.684933
v 7.363575 5.055285 3.704133
v 7.081989 5.058495 3.681913
v 7.177008 5.099604 3.681933
v 7.378385 5.082214 3.692553
v 7.067169 5.102354 3.692363
v 7.346876 5.118324 3.701433
v 7.221287 5.027695 3.694593
v 7.079929 5.047345 3.697313
v 7.041649 5.064164 3.700933
v 7.444794 5.081214 3.721193
v 7.028890 5.084304 3.706863
v 7.009550 5.135453 3.721153
v 7.472134 5.127733 3.734843
v 7.114449 5.172283 3.719043
v 7.302136 5.206412 3.739443
v 7.154318 5.034655 3.714193
v 7.307776 5.038374 3.709043
v 7.020970 5.077314 3.728633
v 7.454784 5.070294 3.737513
v 6.993390 5.119983 3.739083
v 6.982170 5.152123 3.746003
v 7.427895 5.179183 3.744403
v 6.983720 5.190692 3.761683
v 7.026959 5.197412 3.747693
v 7.190008 5.261792 3.767182
v 7.309966 5.054325 3.763142
v 7.078719 5.068294 3.757892
v 7.405684 5.060734 3.744003
v 7.512733 5.091564 3.762382
v 7.514203 5.112724 3.760212
v 7.516443 5.205772 3.783842
v 7.086459 5.264852 3.780122
v 7.186798 5.064934 3.774942
v 7.019760 5.111404 3.800982
v 7.482794 5.078244 3.764102
v 6.985540 5.158193 3.818642
v 6.974230 5.193502 3.794582
v 7.543663 5.162593 3.792202
v 7.017820 5.254672 3.790252
v 7.307256 5.317311 3.810902
v 7.421304 5.260112 3.794382
v 7.448614 5.082084 3.798222
v 7.511383 5.099534 3.803762
v 7.547523 5.141713 3.824782
v 7.573782 5.240052 3.850061
v 6.981690 5.274561 3.833262
v 7.524963 5.321141 3.882931
v 7.032990 5.342000 3.863041
v 7.162968 5.372160 3.871101
v 7.276486 5.105114 3.853741
v 7.042339 5.151053 3.863861
v 7.577383 5.197232 3.855561
v 6.958550 5.234732 3.881341
v 7.137968 5.140493 3.866881
v 7.213477 5.151303 3.898781
v 7.406535 5.114184 3.870051
v 7.482114 5.123013 3.868221
v 7.576092 5.185102 3.882611
v 6.958730 5.264172 3.869351
v 6.957160 5.339641 3.920711
v 6.984430 5.347091 3.899551
v 7.441444 5.401820 3.919350
v 7.323936 5.460929 3.958660
v 7.299596 5.188962 3.961700
v 7.001510 5.202332 3.904161
v 7.524133 5.160133 3.906861
v 6.972440 5.234732 3.914291
v 7.596212 5.258772 3.908461
v 7.527173 5.428579 3.978050
v 7.378385 5.175653 3.959780
v 7.566202 5.208912 3.942570
v 6.950250 5.295181 3.920681
v 7.590792 5.317521 3.941510
v 7.466434 5.190103 3.970030
v 7.593762 5.250322 3.938150
v 6.981610 5.408000 3.965480
v 7.075189 5.466249 3.991650
v 7.441854 5.564978 4.073088
v 7.210017 5.518728 4.020169
v 7.071579 5.290672 4.013549
v 7.183467 5.234462 3.979460
v 6.952540 5.314701 3.967340
v 7.604252 5.304181 3.963660
v 6.947281 5.352451 3.966600
v 7.524903 5.522159 4.065269
v 7.372145 5.579928 4.074638
v 7.318876 5.606817 4.100848
v 7.367025 5.208013 3.998709
v 7.525133 5.221952 3.993119
v 6.953041 5.402230 4.004550
v 7.579412 5.450109 4.045099
v 6.983460 5.309251 3.995620
v 7.591192 5.306271 4.034519
v 7.604322 5.380000 4.022839
v 7.132438 5.586187 4.108038
v 7.606742 5.378571 4.059099
v 6.949341 5.387130 4.022519
v 7.365435 5.257162 4.041869
v 7.256156 5.279862 4.045009
v 7.554643 5.282432 4.046119
v 6.966761 5.454199 4.049409
v 7.007390 5.480919 4.046519
v 7.058650 5.518669 4.062189
v 7.195858 5.317281 4.068799
v 6.963250 5.404280 4.063408
v 6.963350 5.439740 4.064439
v 7.608002 5.457639 4.100678
v 7.605782 5.552638 4.171777
v 7.575532 5.348531 4.103618
v 7.003760 5.398920 4.090398
v 6.999950 5.502509 4.112448
v 7.054849 5.540958 4.103058
v 7.094038 5.591908 4.145947
v 7.483694 5.296221 4.080348
v 7.284586 5.334581 4.104198
v 7.592302 5.414630 4.139868
v 7.606042 5.465419 4.145818
v 7.272407 5.668357 4.170327
v 7.540583 5.340600 4.113148
v 7.556923 5.395970 4.155707
v 7.074459 5.451509 4.154938
v 6.981530 5.464479 4.109838
v 7.065149 5.569608 4.160597
v 7.573533 5.604027 4.179617
v 7.144538 5.639277 4.179647
v 7.404855 5.686936 4.190247
v 7.513303 5.422030 4.192337
v 7.199017 5.386580 4.129038
v 6.993430 5.461339 4.126898
v 7.008840 5.500349 4.143487
v 7.608382 5.537668 4.195357
v 7.201657 5.667157 4.186967
v 7.507763 5.675217 4.205737
v 7.363425 5.415700 4.174507
v 7.021050 5.456909 4.138597
v 7.050619 5.546978 4.173307
v 7.116328 5.618547 4.193797
v 7.048519 5.506109 4.168557
v 7.607592 5.607277 4.246167
v 7.105828 5.596908 4.209657
v 7.590872 5.662807 4.269556
v 7.160158 5.659307 4.221437
v 7.217077 5.696726 4.235976
v 7.265427 5.711516 4.229557
v 7.215527 5.508729 4.219636
v 7.558773 5.479349 4.223337
v 7.117268 5.534478 4.207617
v 7.591083 5.528258 4.227547
v 7.601562 5.602427 4.266766
v 7.557883 5.701886 4.268016
v 7.480124 5.520009 4.271806
v 7.528193 5.501069 4.252016
v 7.093129 5.560628 4.202747
v 7.157718 5.645787 4.236486
v 7.204947 5.684397 4.250886
v 7.293486 5.737166 4.273296
v 7.477924 5.760146 4.276646
v 7.527563 5.755345 4.303865
v 7.344106 5.740495 4.261396
v 7.356175 5.554148 4.273916
v 7.185628 5.599437 4.246306
v 7.249337 5.710086 4.267906
v 7.426864 5.768055 4.292526
v 7.546313 5.575687 4.298506
v 7.279746 5.578557 4.268216
v 7.583532 5.612917 4.298466
v 7.255386 5.681567 4.277976
v 7.314306 5.731386 4.298166
v 7.365425 5.760325 4.310086
v 7.394205 5.767935 4.306156
v 7.490704 5.780085 4.328425
v 7.343075 5.639697 4.306196
v 7.584063 5.669497 4.319106
v 7.559402 5.733146 4.328305
v 7.566293 5.644037 4.334095
v 7.387835 5.720426 4.336155
v 7.421615 5.765845 4.343635
v 7.435724 5.772195 4.327106
v 7.525943 5.771626 4.343265
v 7.463664 5.611557 4.320426
v 7.537183 5.663786 4.352875
v 7.464024 5.692116 4.350905
v 7.554553 5.737366 4.362905
v 7.505183 5.764946 4.355615
v 7.558513 5.692606 4.350815
v 7.464984 5.739816 4.354965
v 7.534373 5.750265 4.347335
v 7.517193 5.717346 4.352415
vn -0.2709 -0.6740 -0.6873
vn 0.0622 -0.7385 -0.6714
vn -0.1326 -0.9886 -0.0714
vn -0.0557 -0.0438 -0.9975
vn 0.1439 -0.1222 -0.9820
vn 0.2180 -0.8316 -0.5107
vn 0.2892 -0.3701 -0.8829
vn 0.2855 -0.8188 -0.4980
vn -0.3533 -0.1760 -0.9188
vn -0.0192 0.3285 -0.9443
vn 0.2511 0.1679 -0.9533
vn -0.2406 0.2394 -0.9406
vn 0.1306 0.3687 -0.9203
vn 0.0531 -0.9978 0.0395
vn -0.3835 -0.9193 -0.0877
vn -0.5953 -0.6096 -0.5235
vn 0.4681 -0.3499 -0.8115
vn -0.6559 -0.1697 -0.7355
vn -0.4752 0.2223 -0.8513
vn 0.4050 0.2133 -0.8891
vn -0.0919 0.4650 -0.8805
vn 0.0807 0.4867 -0.8699
vn -0.1085 -0.9336 0.3414
vn 0.1822 -0.9833 -0.0017
vn -0.6785 -0.7332 0.0445
vn 0.3549 -0.8761 -0.3264
vn -0.9037 -0.3156 -0.2893
vn -0.8711 0.0264 -0.4904
vn 0.1988 0.4507 -0.8702
vn -0.6448 0.4007 -0.6509
vn -0.2461 0.4955 -0.8330
vn -0.0282 0.5817 -0.8129
vn 0.0424 -0.9245 0.3787
vn -0.2089 -0.8630 0.4600
vn 0.1842 -0.9789 0.0883
vn 0.6754 -0.6666 -0.3154
vn 0.7347 -0.1395 -0.6639
vn 0.4222 0.4351 -0.7952
vn -0.1372 0.6071 -0.7827
vn -0.0873 -0.8495 0.5203
vn -0.4602 -0.7563 0.4650
vn 0.3068 -0.9448 0.1149
vn -0.8094 -0.5337 0.2449
vn -0.9827 -0.0292 -0.1830
vn 0.7927 0.0001 -0.6096
vn -0.3454 0.5872 -0.7321
vn 0.0785 0.6391 -0.7651
vn 0.2109 0.5759 -0.7899
vn 0.1525 -0.9195 0.3623
vn 0.4478 -0.8407 0.3045
vn 0.8215 -0.5702 0.0010
vn 0.7644 0.3041 -0.5685
vn -0.6833 0.4667 -0.5614
vn 0.4415 0.5842 -0.6810
vn -0.2935 0.6779 -0.6741
vn -0.0774 0.7063 -0.7037
vn -0.0808 -0.8186 0.5687
vn -0.1909 -0.7557 0.6265
vn 0.9504 -0.2040 -0.2348
vn -0.9568 -0.2790 0.0818
vn -0.1380 -0.7653 0.6287
vn -0.1554 -0.7489 0.6442
vn 0.0577 -0.8544 0.5163
vn 0.1952 -0.8494 0.4904
vn 0.8408 -0.5225 0.1418
vn -0.9481 0.1226 -0.2934
vn -0.8318 0.3752 -0.4091
vn -0.5217 0.5999 -0.6065
vn 0.2224 0.6561 -0.7211
vn 0.0409 0.6988 -0.7141
vn -0.1439 -0.7314 0.6666
vn -0.4330 -0.6789 0.5930
vn 0.4061 -0.7850 0.4677
vn -0.6839 -0.5626 0.4646
vn 0.9688 0.0347 -0.2455
vn 0.4270 0.6083 -0.6691
vn 0.1097 -0.7599 0.6407
vn 0.6028 -0.6752 0.4250
vn -0.9966 -0.0200 -0.0800
vn 0.7852 0.4004 -0.4723
vn 0.1106 -0.7744 0.6230
vn 0.9377 -0.3205 0.1338
vn -0.5244 0.6584 -0.5400
vn -0.2372 0.7345 -0.6358
vn 0.1841 0.6837 -0.7062
vn -0.0892 0.7202 -0.6880
vn -0.1969 -0.6792 0.7071
vn -0.1693 -0.7158 0.6774
vn -0.8810 -0.3401 0.3288
vn 0.9905 0.0386 -0.1320
vn -0.9951 0.0684 -0.0719
vn 0.3921 0.6334 -0.6671
vn 0.0739 0.7016 -0.7087
vn -0.0160 0.7193 -0.6945
vn 0.1689 -0.6895 0.7044
vn 0.2861 -0.7408 0.6077
vn -0.9106 0.3588 -0.2052
vn 0.6747 0.4923 -0.5500
vn -0.4856 -0.5972 0.6384
vn 0.7840 -0.4806 0.3928
vn 0.9272 0.2431 -0.2848
vn -0.2884 0.7625 -0.5792
vn 0.9806 -0.1537 0.1219
vn -0.9854 -0.0152 0.1698
vn 0.0395 -0.6788 0.7332
vn -0.1477 -0.7021 0.6966
vn 0.3973 -0.6885 0.6067
vn -0.7767 0.5862 -0.2307
vn -0.4677 0.7565 -0.4572
vn -0.3743 0.7543 -0.5393
vn -0.1678 -0.6796 0.7142
vn -0.7891 -0.3111 0.5297
vn -0.9586 0.2274 0.1711
vn 0.9775 0.1329 -0.1640
vn 0.8891 0.3224 -0.3249
vn 0.5288 -0.5913 0.6089
vn -0.3846 -0.5743 0.7227
vn -0.7921 0.6091 0.0401
vn -0.5295 0.7623 -0.3723
vn -0.5638 0.7684 -0.3027
vn 0.0780 -0.6959 0.7139
vn -0.1176 -0.6525 0.7486
vn 0.7657 -0.4150 0.4913
vn 0.9520 -0.1962 0.2349
vn -0.0874 0.7662 -0.6366
vn 0.2453 -0.6718 0.6990
vn 0.4025 -0.5874 0.7022
vn -0.2426 -0.5190 0.8196
vn -0.9010 0.1397 0.4107
vn -0.7264 0.6853 0.0515
vn 0.5909 0.5718 -0.5691
vn -0.4909 0.8139 -0.3107
vn 0.0521 0.7470 -0.6628
vn 0.1225 -0.6400 0.7585
vn -0.1547 -0.6119 0.7757
vn -0.6184 -0.2603 0.7415
vn -0.7666 0.1747 0.6180
vn 0.9828 -0.1124 0.1465
vn -0.2728 0.8171 -0.5078
vn 0.3397 0.6686 -0.6615
vn -0.0864 -0.6144 0.7843
vn -0.3658 -0.4298 0.8255
vn -0.7372 0.3087 0.6011
vn -0.7163 0.6865 0.1249
vn -0.4592 -0.2026 0.8649
vn 0.9915 0.1185 0.0534
vn -0.6761 0.3328 0.6574
vn 0.8597 0.4552 -0.2320
vn -0.6532 0.7398 0.1617
vn -0.4801 0.8733 -0.0824
vn -0.2155 0.8654 -0.4524
vn -0.1860 -0.4738 0.8607
vn 0.4478 -0.5458 0.7082
vn -0.3110 -0.3070 0.8994
vn 0.7501 -0.3951 0.5303
vn 0.8937 -0.2079 0.3975
vn 0.6120 0.6260 -0.4833
vn -0.0124 -0.5585 0.8294
vn 0.2020 -0.5844 0.7859
vn -0.4858 -0.0603 0.8720
vn -0.6223 0.3577 0.6963
vn -0.5825 0.5916 0.5574
vn -0.3978 0.9156 0.0578
vn 0.1770 0.8123 -0.5557
vn 0.4954 0.7612 -0.4185
vn -0.1381 0.8876 -0.4395
vn -0.1621 -0.4720 0.8666
vn -0.3490 -0.1530 0.9246
vn -0.5447 0.6153 0.5699
vn -0.0682 0.9287 -0.3644
vn 0.3022 -0.5208 0.7984
vn -0.2396 -0.3598 0.9018
vn 0.6935 -0.3717 0.6172
vn -0.4326 0.1119 0.8946
vn -0.4857 0.4718 0.7359
vn -0.3401 0.9173 0.2072
vn -0.1876 0.9737 -0.1292
vn 0.0951 0.9951 -0.0277
vn -0.2611 -0.2564 0.9306
vn 0.9085 0.0466 0.4153
vn 0.8115 0.5844 0.0045
vn 0.5534 -0.3248 0.7669
vn -0.3339 0.0093 0.9426
vn -0.2926 0.5550 0.7787
vn -0.1324 0.9676 0.2151
vn 0.5359 0.7919 0.2926
vn -0.1019 -0.4254 0.8992
vn 0.0921 -0.2787 0.9560
vn -0.1425 -0.1809 0.9731
vn 0.5689 0.3744 0.7322
vn 0.0826 0.6061 0.7911
vn 0.4123 -0.1229 0.9027
vn -0.1093 0.0409 0.9932
vn 0.5900 0.6608 0.4639
vn 0.0020 -0.0336 0.9994
usemtl mtl1.1278
s 1
f 1//1 2//2 3//3
f 2//2 1//1 4//4
f 5//5 2//2 4//4
f 6//6 2//2 5//5
f 5//5 7//7 8//8
f 6//6 5//5 8//8
f 4//4 1//1 9//9
f 4//4 9//9 10//10
f 5//5 4//4 10//10
f 11//11 7//7 5//5
f 10//10 9//9 12//12
f 5//5 10//10 13//13
f 11//11 5//5 13//13
f 2//2 14//14 3//3
f 2//2 6//6 14//14
f 9//9 15//15 16//16
f 9//9 1//1 15//15
f 15//15 1//1 3//3
f 17//17 8//8 7//7
f 9//9 16//16 18//18
f 9//9 18//18 12//12
f 17//17 7//7 11//11
f 12//12 18//18 19//19
f 17//17 11//11 20//20
f 20//20 11//11 13//13
f 19//19 21//21 12//12
f 10//10 12//12 21//21
f 22//22 10//10 21//21
f 13//13 10//10 22//22
f 3//3 14//14 23//23
f 6//6 24//24 14//14
f 8//8 24//24 6//6
f 15//15 25//25 16//16
f 8//8 17//17 26//26
f 18//18 16//16 25//25
f 19//19 18//18 27//27
f 28//28 19//19 27//27
f 13//13 29//29 20//20
f 19//19 28//28 30//30
f 30//30 31//31 19//19
f 19//19 31//31 21//21
f 29//29 13//13 22//22
f 22//22 21//21 32//32
f 14//14 33//33 23//23
f 24//24 33//33 14//14
f 15//15 23//23 34//34
f 23//23 15//15 3//3
f 8//8 26//26 35//35
f 8//8 35//35 24//24
f 18//18 25//25 27//27
f 26//26 17//17 36//36
f 36//36 17//17 37//37
f 37//37 17//17 20//20
f 29//29 38//38 20//20
f 31//31 39//39 21//21
f 33//33 40//40 23//23
f 24//24 35//35 33//33
f 34//34 25//25 15//15
f 34//34 41//41 25//25
f 26//26 42//42 35//35
f 36//36 42//42 26//26
f 25//25 41//41 43//43
f 25//25 43//43 27//27
f 27//27 44//44 28//28
f 20//20 45//45 37//37
f 20//20 38//38 45//45
f 30//30 46//46 31//31
f 31//31 46//46 39//39
f 47//47 48//48 22//22
f 22//22 48//48 29//29
f 39//39 32//32 21//21
f 32//32 47//47 22//22
f 34//34 23//23 40//40
f 35//35 49//49 33//33
f 42//42 49//49 35//35
f 36//36 50//50 42//42
f 36//36 51//51 50//50
f 37//37 51//51 36//36
f 27//27 43//43 44//44
f 51//51 37//37 45//45
f 44//44 30//30 28//28
f 52//52 45//45 38//38
f 46//46 30//30 53//53
f 29//29 48//48 38//38
f 48//48 54//54 38//38
f 46//46 55//55 39//39
f 39//39 56//56 32//32
f 47//47 32//32 56//56
f 33//33 57//57 40//40
f 34//34 58//58 41//41
f 42//42 50//50 49//49
f 51//51 45//45 59//59
f 43//43 60//60 44//44
f 45//45 52//52 59//59
f 53//53 30//30 44//44
f 54//54 52//52 38//38
f 55//55 46//46 53//53
f 56//56 39//39 55//55
f 34//34 40//40 61//61
f 61//61 40//40 57//57
f 34//34 61//61 58//58
f 57//57 62//62 61//61
f 63//63 57//57 33//33
f 49//49 63//63 33//33
f 49//49 50//50 64//64
f 51//51 59//59 65//65
f 66//66 44//44 60//60
f 44//44 66//66 53//53
f 66//66 67//67 53//53
f 55//55 53//53 68//68
f 47//47 69//69 48//48
f 54//54 48//48 69//69
f 47//47 56//56 70//70
f 69//69 47//47 70//70
f 71//71 62//62 57//57
f 41//41 72//72 43//43
f 72//72 41//41 58//58
f 73//73 64//64 50//50
f 50//50 51//51 73//73
f 43//43 74//74 60//60
f 59//59 52//52 75//75
f 76//76 54//54 69//69
f 63//63 77//77 57//57
f 64//64 63//63 49//49
f 51//51 78//78 73//73
f 51//51 65//65 78//78
f 43//43 72//72 74//74
f 67//67 66//66 79//79
f 52//52 54//54 80//80
f 52//52 80//80 75//75
f 53//53 67//67 68//68
f 73//73 81//81 64//64
f 82//82 78//78 65//65
f 59//59 82//82 65//65
f 60//60 79//79 66//66
f 55//55 68//68 83//83
f 84//84 55//55 83//83
f 55//55 84//84 56//56
f 85//85 69//69 70//70
f 86//86 56//56 84//84
f 70//70 56//56 86//86
f 77//77 71//71 57//57
f 58//58 61//61 87//87
f 61//61 62//62 88//88
f 87//87 61//61 88//88
f 87//87 72//72 58//58
f 60//60 89//89 79//79
f 74//74 89//89 60//60
f 59//59 75//75 82//82
f 82//82 75//75 90//90
f 79//79 91//91 67//67
f 75//75 80//80 90//90
f 68//68 67//67 83//83
f 76//76 69//69 92//92
f 70//70 93//93 85//85
f 94//94 70//70 86//86
f 93//93 70//70 94//94
f 63//63 64//64 81//81
f 88//88 62//62 71//71
f 77//77 95//95 71//71
f 78//78 96//96 73//73
f 97//97 67//67 91//91
f 83//83 67//67 97//97
f 54//54 76//76 98//98
f 80//80 54//54 98//98
f 73//73 96//96 81//81
f 72//72 99//99 74//74
f 82//82 100//100 78//78
f 79//79 89//89 91//91
f 90//90 80//80 101//101
f 92//92 69//69 85//85
f 86//86 84//84 102//102
f 77//77 63//63 81//81
f 72//72 87//87 99//99
f 74//74 99//99 89//89
f 100//100 82//82 103//103
f 103//103 82//82 90//90
f 89//89 104//104 91//91
f 90//90 101//101 103//103
f 91//91 104//104 97//97
f 98//98 76//76 92//92
f 105//105 95//95 77//77
f 81//81 105//105 77//77
f 88//88 71//71 106//106
f 78//78 100//100 107//107
f 80//80 98//98 101//101
f 83//83 97//97 108//108
f 83//83 109//109 84//84
f 84//84 109//109 110//110
f 84//84 110//110 102//102
f 71//71 95//95 105//105
f 107//107 96//96 78//78
f 71//71 105//105 106//106
f 87//87 88//88 111//111
f 106//106 111//111 88//88
f 89//89 99//99 112//112
f 89//89 112//112 104//104
f 104//104 113//113 97//97
f 101//101 98//98 114//114
f 97//97 113//113 108//108
f 98//98 115//115 114//114
f 108//108 109//109 83//83
f 100//100 116//116 107//107
f 99//99 117//117 112//112
f 87//87 117//117 99//99
f 101//101 114//114 103//103
f 108//108 118//118 109//109
f 110//110 109//109 119//119
f 102//102 110//110 119//119
f 102//102 119//119 120//120
f 81//81 121//121 105//105
f 121//121 81//81 96//96
f 105//105 122//122 106//106
f 107//107 121//121 96//96
f 106//106 122//122 111//111
f 116//116 100//100 123//123
f 123//123 100//100 103//103
f 124//124 123//123 103//103
f 104//104 112//112 113//113
f 124//124 103//103 114//114
f 113//113 118//118 108//108
f 109//109 118//118 119//119
f 86//86 102//102 125//125
f 94//94 86//86 125//125
f 107//107 126//126 121//121
f 107//107 116//116 126//126
f 116//116 127//127 126//126
f 87//87 128//128 117//117
f 113//113 112//112 129//129
f 113//113 129//129 118//118
f 130//130 119//119 118//118
f 115//115 98//98 131//131
f 120//120 119//119 130//130
f 102//102 120//120 132//132
f 93//93 94//94 133//133
f 126//126 134//134 121//121
f 135//135 111//111 122//122
f 117//117 136//136 112//112
f 136//136 129//129 112//112
f 137//137 118//118 129//129
f 114//114 115//115 138//138
f 98//98 92//92 131//131
f 102//102 132//132 139//139
f 92//92 85//85 140//140
f 131//131 92//92 140//140
f 139//139 125//125 102//102
f 85//85 93//93 133//133
f 105//105 121//121 141//141
f 105//105 141//141 122//122
f 87//87 111//111 135//135
f 128//128 87//87 135//135
f 116//116 123//123 127//127
f 117//117 128//128 142//142
f 136//136 117//117 142//142
f 129//129 136//136 137//137
f 138//138 124//124 114//114
f 118//118 137//137 143//143
f 130//130 118//118 143//143
f 120//120 130//130 144//144
f 132//132 120//120 144//144
f 133//133 94//94 125//125
f 141//141 121//121 134//134
f 135//135 122//122 141//141
f 136//136 145//145 137//137
f 145//145 136//136 142//142
f 138//138 115//115 146//146
f 130//130 143//143 147//147
f 144//144 130//130 147//147
f 131//131 148//148 115//115
f 115//115 148//148 146//146
f 144//144 149//149 132//132
f 139//139 132//132 150//150
f 85//85 133//133 140//140
f 151//151 139//139 150//150
f 125//125 139//139 151//151
f 134//134 126//126 127//127
f 135//135 141//141 152//152
f 127//127 123//123 153//153
f 127//127 153//153 134//134
f 128//128 145//145 142//142
f 154//154 145//145 128//128
f 123//123 124//124 155//155
f 155//155 124//124 138//138
f 155//155 138//138 156//156
f 137//137 145//145 143//143
f 138//138 146//146 156//156
f 150//150 132//132 149//149
f 131//131 140//140 157//157
f 158//158 141//141 134//134
f 153//153 159//159 134//134
f 135//135 152//152 128//128
f 152//152 154//154 128//128
f 123//123 155//155 153//153
f 154//154 160//160 145//145
f 160//160 143//143 145//145
f 143//143 160//160 147//147
f 161//161 144//144 147//147
f 149//149 144//144 161//161
f 162//162 149//149 161//161
f 162//162 150//150 149//149
f 163//163 151//151 150//150
f 140//140 164//164 165//165
f 157//157 140//140 165//165
f 125//125 151//151 166//166
f 133//133 125//125 166//166
f 140//140 133//133 164//164
f 158//158 134//134 159//159
f 141//141 167//167 152//152
f 158//158 167//167 141//141
f 152//152 168//168 154//154
f 168//168 160//160 154//154
f 168//168 147//147 160//160
f 161//161 147//147 168//168
f 131//131 157//157 148//148
f 163//163 150//150 169//169
f 150//150 162//162 169//169
f 166//166 151//151 163//163
f 133//133 166//166 170//170
f 164//164 133//133 170//170
f 153//153 155//155 171//171
f 167//167 172//172 152//152
f 153//153 171//171 159//159
f 172//172 168//168 152//152
f 173//173 155//155 156//156
f 162//162 161//161 174//174
f 174//174 161//161 168//168
f 162//162 174//174 169//169
f 175//175 163//163 169//169
f 166//166 163//163 176//176
f 166//166 176//176 177//177
f 170//170 166//166 177//177
f 164//164 170//170 178//178
f 173//173 171//171 155//155
f 179//179 168//168 172//172
f 156//156 146//146 180//180
f 174//174 168//168 179//179
f 146//146 148//148 180//180
f 148//148 181//181 180//180
f 169//169 174//174 175//175
f 148//148 157//157 181//181
f 175//175 176//176 163//163
f 165//165 164//164 178//178
f 158//158 159//159 171//171
f 172//172 167//167 179//179
f 173//173 182//182 171//171
f 156//156 180//180 173//173
f 183//183 174//174 179//179
f 183//183 175//175 174//174
f 184//184 175//175 183//183
f 184//184 176//176 175//175
f 177//177 176//176 185//185
f 181//181 157//157 165//165
f 186//186 181//181 165//165
f 177//177 185//185 170//170
f 170//170 185//185 178//178
f 186//186 165//165 178//178
f 179//179 167//167 187//187
f 158//158 187//187 167//167
f 171//171 187//187 158//158
f 171//171 188//188 187//187
f 188//188 171//171 182//182
f 173//173 180//180 182//182
f 189//189 183//183 179//179
f 180//180 181//181 190//190
f 176//176 184//184 185//185
f 178//178 185//185 191//191
f 191//191 186//186 178//178
f 179//179 187//187 189//189
f 188//188 189//189 187//187
f 192//192 188//188 182//182
f 182//182 180//180 192//192
f 189//189 193//193 183//183
f 193//193 184//184 183//183
f 190//190 192//192 180//180
f 181//181 194//194 190//190
f 185//185 184//184 191//191
f 191//191 184//184 193//193
f 181//181 186//186 194//194
f 186//186 191//191 194//194
f 195//195 189//189 188//188
f 192//192 195//195 188//188
f 195//195 193//193 189//189
f 192//192 190//190 195//195
f 195//195 191//191 193//193
f 194//194 191//191 190//190
f 190//190 191//191 195//195
