# wavefront obj file written by the visualization toolkit


v 6961.67 5193.45 2997.12
v 6971.99 5207.68 2989.97
v 6960.84 5203.68 3010.21
v 6929.48 5257.8 3038.26
v 6966.65 5253.96 3033.91
v 6927.16 5242.01 3039.75
v 6959.53 5256.25 3039.02
v 6941.68 5302.23 3055.67
v 6884.43 5320.13 3078.64
v 6867.89 5398.09 3105.36
v 6921.52 5329.3 3075.42
v 6932.55 5256.86 3052.11
v 6894.74 5321.48 3082.69
v 6921.2 5334.35 3078.79
v 6908.8 5329.09 3083.32
v 6852.43 5433.63 3122.61
v 6872.75 5407.12 3110.53
v 6821.68 5489.75 3148.16
v 6825.04 5481.91 3137.32
v 6878.68 5393.04 3107.88
v 6824.54 5518.98 3163.78
v 6834.25 5469.42 3131.63
v 6865.44 5409.04 3112.28
v 6815.35 5489.21 3136.58
v 6838.99 5468.11 3126.81
v 6583.49 6006.46 3263.06
v 6625.6 5982.82 3257.01
v 6628.9 5973.48 3273.05
v 6616.44 6009.39 3266.02
v 6574.97 6063.42 3286.52
v 6617.68 5964.38 3272.02
v 6562.36 6023.43 3290.24
v 6623.83 5945.23 3283.22
v 6602.06 6003.05 3284.11
v 6511.22 6114.06 3299.6
v 6468.21 6123.76 3322.32
v 6436.8 6195.8 3331.73
v 6471.49 6187.44 3334.03
v 6501.94 6082.1 3328.17
v 6548.21 6091.7 3315.97
v 6554.28 6050.77 3313.3
v 6554.18 6069.6 3318.16
v 6358.94 6227.85 3379.3
v 6339.09 6272.54 3370.48
v 6357.08 6290.79 3369.39
v 6360.97 6303.65 3384.13
v 6436.5 6161.66 3362.21
v 6433.46 6221.95 3371.53
v 6263.32 6366.74 3403.28
v 6464.47 6151.17 3364.86
v 6495.26 6135.71 3347.59
v 6280.87 6317.81 3409.88
v 6241.06 6377.05 3420.09
v 6186.34 6455.31 3433.75
v 6253.44 6396.73 3422.07
v 6297.37 6307.7 3419.07
v 6376.53 6238.16 3394.91
v 6389.73 6245.66 3392.45
v 6315.29 6329.99 3410.22
v 6227.83 6391.77 3440.14
v 6134.63 6486.92 3457.79
v 6150.24 6523.11 3458.69
v 6108.9 6548.83 3462.4
v 6200.73 6460.73 3469.42
v 6081.96 6566.95 3481.13
v 6100.9 6586.15 3492.04
v 6084.92 6579.13 3493.56
v 6281.55 6346.9 3424.08
v 6128.42 6493.17 3496.75
v 6090.04 6546.91 3503.55
v 6132.35 6554.53 3507.71
v 6088.03 6574.17 3516.54
v 6177.09 6468.29 3488
v 6117.93 6520.39 3526.19
v 6101.19 6550.47 3529.75
v 6125.09 6539.63 3520.05
v 6100.24 6569.97 3519.75
v 6100.76 6558.12 3519.28
v 6108.89 6571.36 7842.37
v 6099.23 6548.28 7851.24
v 6082.54 6594.27 7858.34
v 6105.13 6598.49 7870.14
v 6074.37 6568.62 7877.32
v 6070.72 6601.31 7888.41
v 6134.55 6542.38 7893.87
v 6138.61 6498.64 7896.88
v 6108.48 6521.73 7903.18
v 6086.42 6604.02 7888.51
v 6170.58 6475.21 7921.79
v 6108.52 6569.74 7906.81
v 6191.07 6423.53 7936.07
v 6213.15 6417.96 7932.66
v 6249.67 6409.13 7955.1
v 6092 6558.75 7909.03
v 6093.72 6574.85 7904.01
v 6390 6235.61 7989.77
v 6292.2 6320.55 7965.82
v 6301.88 6340.95 7967.58
v 6141.5 6492.25 7929
v 6164.34 6491.38 7930.3
v 6361.6 6302.34 7994.36
v 6287.2 6310.97 7985.84
v 6482.07 6165.28 8021.63
v 6499.95 6100.25 8046.15
v 6390.69 6207.45 8016.72
v 6446.29 6215.46 8020.36
v 6220.02 6409.31 7964.74
v 6320.51 6343.69 7994.76
v 6229.83 6420.14 7965.55
v 6149.27 6501.27 7926.04
v 6509.78 6157.94 8042.98
v 6551.59 6087.76 8062.98
v 6382.13 6208.58 8034.59
v 6430.79 6225.68 8039.07
v 6306.9 6309.3 8007.44
v 6490.98 6084.25 8071.18
v 6308.08 6330.56 7999.8
v 6586.44 6013.23 8088.93
v 6609.7 6005.52 8101.59
v 6557.41 6084.16 8084.34
v 6371.7 6252.22 8029.07
v 6572.76 6010.63 8094.79
v 6478.62 6108.94 8083.32
v 6614.31 5979.02 8116.13
v 6610.03 5983.2 8116.81
v 6574.05 6019.99 8108.81
v 6452.06 6174.31 8063.27
v 6506.1 6127.81 8086.09
v 6521.93 6093.26 8094.98
v 6609.95 5981.49 8117.7
v 6567.77 6041.1 8104.57
v 6592.1 6002.77 8110.23
v 6859.06 5409.2 8261.14
v 6842.26 5429.02 8261.26
v 6827.08 5483 8250.28
v 6835.12 5481.63 8254.55
v 6845.35 5443 8252.45
v 6925.46 5341.55 8307.56
v 6928.45 5315.23 8302.82
v 6905.28 5317.15 8304.54
v 6835.84 5440.01 8261.99
v 6848.39 5419.96 8267.63
v 6884.59 5370.7 8293.89
v 6948 5259.99 8323.27
v 6932.43 5240.71 8334.59
v 6965.76 5247.09 8342.45
v 6942.95 5227.91 8354.44
v 6898.4 5342.78 8306.81
v 6959.97 5218.46 8358.58
v 6954.61 5277.8 8347.04
v 6987.75 5196.68 8375.71
v 6983.96 5212.91 8375.53
v 6968.34 5246.68 8354.81
v 6972.2 5216.33 8372.78
v 6949.41 5244.2 8357.87
v 6966.23 5220.57 8363.69
v 6986.97 5193.24 3011.43
v 6803.5 5516.49 3140.33
v 6605.14 5960.36 3260.51
v 6634.32 5968.99 3284.15
v 6630.5 5959.32 3258.56
v 6815.28 5467.47 8237.14
vn -0.446926 -0.74978 -0.487942
vn 0.848704 -0.43027 0.307522
vn 0.255542 -0.745792 0.615218
vn -0.35704 0.244211 -0.901601
vn 0.647092 0.500656 -0.574991
vn -0.712304 -0.640593 0.286818
vn 0.794084 -0.0856282 0.601746
vn 0.840901 0.532939 -0.0941368
vn -0.934143 -0.28336 -0.21699
vn -0.221899 0.375898 -0.899701
vn 0.408584 0.622053 -0.667914
vn 0.0838343 -0.490757 0.867254
vn -0.333095 -0.474636 0.81472
vn 0.845919 0.336173 0.414016
vn 0.311265 -0.238953 0.919791
vn -0.859155 -0.378367 0.344517
vn 0.821061 0.569986 -0.0312389
vn -0.135314 0.781612 -0.608911
vn 0.700535 0.713582 -0.00716639
vn 0.524766 0.00985909 0.851189
vn -0.907226 -0.170064 -0.384732
vn 0.362119 0.0148484 0.932014
vn -0.124606 -0.337636 0.932993
vn 0.453009 0.32307 0.830908
vn -0.248625 -0.341249 0.906496
vn -0.416227 -0.267099 -0.869145
vn 0.558887 0.0524775 -0.827582
vn -0.366426 -0.722193 -0.586659
vn 0.947482 0.234086 0.217901
vn 0.49983 0.595852 -0.628594
vn -0.135186 -0.888633 0.438242
vn -0.65873 -0.752372 0.00337391
vn 0.687603 0.528299 -0.498099
vn 0.70994 -0.00447564 0.704248
vn -0.0972956 0.274832 -0.956557
vn -0.726682 -0.491197 -0.48027
vn -0.169774 0.211691 -0.962478
vn 0.562373 0.683366 -0.465562
vn -0.486329 -0.712804 0.505367
vn 0.785009 0.439986 0.436088
vn 0.0736085 -0.424176 0.902583
vn 0.526625 0.0123723 0.850008
vn -0.670249 -0.71449 0.200675
vn -0.57105 -0.210489 -0.793471
vn 0.127888 0.495789 -0.858975
vn 0.676469 0.736273 -0.0170748
vn -0.498499 -0.677983 0.540221
vn 0.696119 0.451003 0.558583
vn -0.222972 0.188405 -0.956445
vn 0.0785044 -0.324154 0.942741
vn 0.504274 0.0784417 0.859974
vn -0.788149 -0.611551 -0.0694745
vn -0.725048 -0.414792 -0.549776
vn -0.163655 0.163136 -0.972935
vn 0.556715 0.703111 -0.442384
vn -0.326912 -0.517569 0.790728
vn -0.0796439 -0.386576 0.918812
vn 0.405688 0.0939623 0.909169
vn 0.639459 0.428467 0.638364
vn -0.562588 -0.674464 0.478114
vn -0.761663 -0.48318 -0.431748
vn 0.573949 0.648616 -0.49988
vn -0.225782 0.377727 -0.897967
vn 0.773378 0.377902 0.508996
vn -0.941476 0.0301997 -0.335725
vn 0.199907 0.975389 -0.0930196
vn -0.581371 0.73691 -0.344922
vn 0.245155 -0.113022 0.962873
vn -0.618015 -0.670834 0.409925
vn -0.893084 -0.39289 0.219179
vn 0.711963 0.608204 0.350993
vn -0.60993 0.47292 0.635871
vn 0.198169 -0.371331 0.907106
vn -0.0786187 -0.398711 0.9137
vn -0.364522 -0.0357367 0.930509
vn 0.443294 0.192951 0.875363
vn 0.189595 0.527477 0.828144
vn 0.0791149 0.31457 0.945932
vn 0.477638 0.151639 -0.865371
vn -0.519435 -0.488342 -0.70122
vn -0.498368 0.567106 -0.655759
vn 0.588135 0.798249 -0.129982
vn -0.956729 -0.277376 -0.0879282
vn -0.761853 0.464233 0.45174
vn 0.904182 0.364773 -0.222252
vn 0.205019 -0.432362 -0.878083
vn -0.769919 -0.638004 0.0132673
vn 0.0389615 0.914437 0.402849
vn 0.719592 0.345373 -0.602416
vn 0.474431 0.580063 0.66215
vn -0.690335 -0.685836 -0.230362
vn 0.289137 -0.0739663 -0.954426
vn 0.702954 0.619551 -0.349303
vn -0.619174 -0.083153 0.780839
vn -0.109922 0.379968 0.918445
vn 0.205822 -0.1038 -0.973069
vn -0.249418 -0.504583 -0.826551
vn 0.436233 0.144968 -0.88808
vn -0.61714 -0.259105 0.742969
vn 0.676695 0.662231 0.321767
vn 0.714936 0.572006 -0.402088
vn -0.773333 -0.616498 0.147941
vn 0.482076 0.0974427 -0.870694
vn -0.146991 -0.517047 -0.843241
vn -0.559624 -0.685357 -0.465947
vn 0.682157 0.576269 -0.450085
vn -0.485483 -0.054691 0.872534
vn 0.508329 0.714852 0.480196
vn 0.226053 0.581089 0.781816
vn -0.0235864 0.319569 0.94727
vn 0.783193 0.57701 -0.231666
vn 0.66619 0.128272 -0.734668
vn -0.685139 -0.368978 0.628044
vn 0.432215 0.660945 0.613467
vn -0.439857 -0.0368982 0.89731
vn -0.711709 -0.702248 0.0178465
vn -0.0251928 0.348165 0.937095
vn 0.191012 -0.452933 -0.870842
vn 0.935059 0.100343 -0.339995
vn 0.703388 0.586923 0.400958
vn -0.14559 0.22751 0.962831
vn -0.518999 -0.808007 -0.278863
vn -0.509851 -0.184414 0.840264
vn 0.204504 -0.978862 0.00254175
vn 0.588794 0.175487 0.789003
vn -0.479169 -0.337155 0.810385
vn -0.19095 0.243609 0.950891
vn 0.193606 0.441755 0.875996
vn -0.144627 0.142457 0.979178
vn -0.0123238 -0.217596 0.975961
vn 0.123766 0.266036 0.955985
vn -0.038986 0.181574 0.982604
vn 0.294223 -0.085725 -0.951884
vn -0.875042 -0.384976 -0.293419
vn -0.119871 0.396957 -0.909976
vn -0.953936 -0.169993 -0.2472
vn 0.587993 0.710755 0.386124
vn 0.848026 0.529354 -0.0252251
vn 0.463891 -0.109103 -0.879148
vn -0.66688 -0.509044 -0.544193
vn -0.675949 0.127049 0.725914
vn 0.0239193 0.499362 0.866063
vn 0.0824985 0.519936 0.850212
vn 0.194121 -0.426542 -0.88339
vn -0.464746 -0.696913 -0.546189
vn 0.825803 -0.0413076 -0.562443
vn -0.793238 -0.47341 0.382959
vn -0.644844 0.0262527 0.763864
vn 0.159174 -0.774635 -0.612049
vn 0.164308 0.491218 0.855399
vn -0.219626 -0.705751 0.673557
vn 0.995788 -0.0588738 0.0702911
vn 0.810912 0.474368 0.342633
vn 0.023513 0.181069 0.983189
vn -0.477377 0.0732809 0.875638
vn -0.546954 -0.190427 0.815217
vn -0.00762999 0.394598 -0.918822
vn 0.295376 -0.0280055 0.954971
vn 0.991107 0.0272679 0.130241
vn 0.0882279 -0.829384 -0.551668
vn 0.30623 -0.276905 0.910794
vn 0.17978 0.639142 0.747781

g grp1
usemtl mtl1
f 1//1 2//2 3//3 
f 1//1 4//4 157//157 
f 5//5 157//157 4//4 
f 1//1 3//3 6//6 
f 3//3 2//2 7//7 
f 4//4 1//1 6//6 
f 2//2 5//5 7//7 
f 5//5 8//8 7//7 
f 9//9 4//4 6//6 
f 10//10 4//4 9//9 
f 4//4 10//10 11//11 
f 11//11 5//5 4//4 
f 6//6 3//3 12//12 
f 3//3 7//7 12//12 
f 11//11 8//8 5//5 
f 6//6 12//12 13//13 
f 9//9 6//6 13//13 
f 14//14 15//15 7//7 
f 8//8 14//14 7//7 
f 16//16 10//10 9//9 
f 11//11 14//14 8//8 
f 11//11 17//17 14//14 
f 17//17 11//11 10//10 
f 15//15 12//12 7//7 
f 18//18 10//10 16//16 
f 19//19 10//10 18//18 
f 19//19 17//17 10//10 
f 15//15 13//13 12//12 
f 9//9 13//13 16//16 
f 20//20 15//15 14//14 
f 14//14 17//17 20//20 
f 21//21 18//18 16//16 
f 17//17 19//19 22//22 
f 15//15 23//23 13//13 
f 13//13 23//23 16//16 
f 23//23 15//15 20//20 
f 17//17 22//22 20//20 
f 24//24 22//22 19//19 
f 24//24 19//19 18//18 
f 16//16 23//23 25//25 
f 22//22 25//25 23//23 
f 20//20 22//22 23//23 
f 16//16 25//25 158//158 
f 18//18 158//158 24//24 
f 22//22 24//24 25//25 
f 25//25 24//24 158//158 
f 26//26 27//27 28//28 
f 29//29 159//159 27//27 
f 27//27 26//26 30//30 
f 30//30 29//29 27//27 
f 28//28 31//31 32//32 
f 33//33 159//159 34//34 
f 26//26 28//28 32//32 
f 159//159 29//29 34//34 
f 30//30 26//26 35//35 
f 28//28 160//160 31//31 
f 36//36 26//26 32//32 
f 26//26 36//36 35//35 
f 35//35 36//36 37//37 
f 38//38 30//30 35//35 
f 161//161 34//34 31//31 
f 36//36 32//32 39//39 
f 40//40 29//29 30//30 
f 30//30 38//38 40//40 
f 37//37 38//38 35//35 
f 41//41 31//31 34//34 
f 32//32 31//31 41//41 
f 32//32 41//41 39//39 
f 41//41 34//34 42//42 
f 40//40 42//42 34//34 
f 29//29 40//40 34//34 
f 36//36 43//43 44//44 
f 36//36 44//44 37//37 
f 37//37 44//44 45//45 
f 46//46 38//38 45//45 
f 45//45 38//38 37//37 
f 39//39 47//47 36//36 
f 36//36 47//47 43//43 
f 38//38 46//46 48//48 
f 45//45 44//44 49//49 
f 39//39 41//41 50//50 
f 41//41 51//51 50//50 
f 42//42 51//51 41//41 
f 50//50 47//47 39//39 
f 42//42 40//40 51//51 
f 40//40 48//48 51//51 
f 40//40 38//38 48//48 
f 44//44 43//43 52//52 
f 44//44 52//52 53//53 
f 44//44 53//53 49//49 
f 49//49 53//53 54//54 
f 45//45 49//49 55//55 
f 46//46 45//45 55//55 
f 56//56 52//52 43//43 
f 54//54 55//55 49//49 
f 47//47 50//50 57//57 
f 57//57 50//50 58//58 
f 51//51 58//58 50//50 
f 43//43 47//47 57//57 
f 51//51 48//48 58//58 
f 43//43 57//57 56//56 
f 48//48 59//59 58//58 
f 48//48 46//46 59//59 
f 60//60 53//53 52//52 
f 46//46 55//55 59//59 
f 61//61 54//54 53//53 
f 62//62 55//55 54//54 
f 54//54 61//61 63//63 
f 63//63 62//62 54//54 
f 56//56 60//60 52//52 
f 53//53 60//60 61//61 
f 64//64 59//59 55//55 
f 55//55 62//62 64//64 
f 65//65 63//63 61//61 
f 62//62 63//63 66//66 
f 63//63 65//65 67//67 
f 63//63 67//67 66//66 
f 57//57 68//68 56//56 
f 57//57 58//58 68//68 
f 68//68 60//60 56//56 
f 58//58 59//59 68//68 
f 59//59 64//64 68//68 
f 61//61 60//60 69//69 
f 61//61 70//70 65//65 
f 62//62 71//71 64//64 
f 62//62 66//66 71//71 
f 67//67 65//65 72//72 
f 67//67 72//72 66//66 
f 73//73 60//60 68//68 
f 68//68 64//64 73//73 
f 69//69 60//60 73//73 
f 69//69 70//70 61//61 
f 69//69 73//73 74//74 
f 75//75 70//70 69//69 
f 76//76 73//73 64//64 
f 71//71 76//76 64//64 
f 70//70 72//72 65//65 
f 77//77 71//71 66//66 
f 74//74 75//75 69//69 
f 73//73 76//76 74//74 
f 70//70 75//75 72//72 
f 66//66 72//72 77//77 
f 77//77 76//76 71//71 
f 72//72 78//78 77//77 
f 74//74 76//76 75//75 
f 76//76 78//78 75//75 
f 75//75 78//78 72//72 
f 76//76 77//77 78//78 
f 79//79 80//80 81//81 
f 79//79 81//81 82//82 
f 80//80 83//83 81//81 
f 83//83 84//84 81//81 
f 85//85 79//79 82//82 
f 86//86 87//87 80//80 
f 79//79 86//86 80//80 
f 86//86 79//79 85//85 
f 81//81 84//84 88//88 
f 82//82 81//81 88//88 
f 80//80 87//87 83//83 
f 85//85 89//89 86//86 
f 90//90 85//85 82//82 
f 87//87 86//86 91//91 
f 92//92 91//91 86//86 
f 89//89 93//93 92//92 
f 89//89 92//92 86//86 
f 87//87 94//94 83//83 
f 83//83 94//94 84//84 
f 88//88 84//84 95//95 
f 88//88 90//90 82//82 
f 96//96 97//97 98//98 
f 97//97 92//92 98//98 
f 92//92 97//97 91//91 
f 93//93 98//98 92//92 
f 99//99 87//87 91//91 
f 99//99 94//94 87//87 
f 85//85 100//100 89//89 
f 85//85 90//90 100//100 
f 84//84 94//94 95//95 
f 88//88 95//95 90//90 
f 98//98 101//101 96//96 
f 102//102 91//91 97//97 
f 98//98 93//93 101//101 
f 89//89 100//100 93//93 
f 96//96 103//103 104//104 
f 104//104 105//105 96//96 
f 105//105 102//102 97//97 
f 105//105 97//97 96//96 
f 106//106 103//103 96//96 
f 106//106 96//96 101//101 
f 91//91 102//102 107//107 
f 101//101 93//93 108//108 
f 99//99 91//91 107//107 
f 100//100 109//109 93//93 
f 107//107 110//110 99//99 
f 109//109 100//100 110//110 
f 94//94 99//99 110//110 
f 110//110 95//95 94//94 
f 100//100 90//90 110//110 
f 90//90 95//95 110//110 
f 111//111 112//112 103//103 
f 106//106 111//111 103//103 
f 113//113 102//102 105//105 
f 106//106 101//101 114//114 
f 102//102 115//115 107//107 
f 101//101 108//108 114//114 
f 93//93 109//109 108//108 
f 109//109 110//110 107//107 
f 104//104 103//103 112//112 
f 104//104 116//116 105//105 
f 102//102 113//113 115//115 
f 115//115 117//117 107//107 
f 117//117 109//109 107//107 
f 108//108 109//109 117//117 
f 118//118 104//104 112//112 
f 119//119 118//118 112//112 
f 112//112 120//120 119//119 
f 120//120 112//112 111//111 
f 113//113 105//105 116//116 
f 106//106 114//114 111//111 
f 113//113 121//121 115//115 
f 121//121 117//117 115//115 
f 117//117 114//114 108//108 
f 104//104 122//122 116//116 
f 122//122 104//104 118//118 
f 123//123 113//113 116//116 
f 114//114 117//117 121//121 
f 124//124 122//122 118//118 
f 119//119 124//124 118//118 
f 119//119 125//125 124//124 
f 122//122 126//126 116//116 
f 120//120 125//125 119//119 
f 113//113 123//123 127//127 
f 120//120 111//111 114//114 
f 128//128 120//120 114//114 
f 113//113 127//127 121//121 
f 128//128 114//114 127//127 
f 114//114 121//121 127//127 
f 124//124 126//126 122//122 
f 116//116 126//126 123//123 
f 129//129 127//127 123//123 
f 128//128 127//127 129//129 
f 124//124 130//130 126//126 
f 130//130 124//124 125//125 
f 120//120 131//131 125//125 
f 123//123 126//126 129//129 
f 128//128 129//129 131//131 
f 120//120 128//128 131//131 
f 126//126 130//130 132//132 
f 130//130 125//125 132//132 
f 132//132 131//131 126//126 
f 125//125 131//131 132//132 
f 126//126 131//131 129//129 
f 133//133 134//134 135//135 
f 136//136 135//135 134//134 
f 133//133 135//135 137//137 
f 137//137 138//138 133//133 
f 137//137 135//135 162//162 
f 139//139 140//140 133//133 
f 133//133 140//140 134//134 
f 138//138 139//139 133//133 
f 134//134 141//141 136//136 
f 141//141 142//142 162//162 
f 138//138 137//137 143//143 
f 162//162 142//142 137//137 
f 144//144 140//140 139//139 
f 137//137 142//142 143//143 
f 144//144 145//145 140//140 
f 139//139 146//146 144//144 
f 147//147 148//148 140//140 
f 148//148 134//134 140//140 
f 148//148 142//142 141//141 
f 149//149 147//147 145//145 
f 145//145 147//147 140//140 
f 144//144 149//149 145//145 
f 146//146 149//149 144//144 
f 139//139 138//138 146//146 
f 134//134 148//148 141//141 
f 138//138 143//143 150//150 
f 143//143 142//142 148//148 
f 147//147 149//149 151//151 
f 149//149 146//146 152//152 
f 146//146 138//138 153//153 
f 143//143 148//148 150//150 
f 149//149 152//152 151//151 
f 152//152 146//146 153//153 
f 138//138 150//150 153//153 
f 154//154 152//152 153//153 
f 155//155 150//150 148//148 
f 147//147 155//155 148//148 
f 151//151 154//154 156//156 
f 151//151 152//152 154//154 
f 151//151 156//156 147//147 
f 147//147 156//156 155//155 
f 154//154 150//150 155//155 
f 154//154 153//153 150//150 
f 154//154 155//155 156//156 
