# Blender v2.92.0 OBJ File: 'convert_to_one_sided.blend'
# www.blender.org
mtllib 484682528L.mtl
o 484682528
v 6.961580 5.193383 2.997082
v 6.971900 5.207613 2.989933
v 6.960750 5.203613 3.010172
v 6.929391 5.257731 3.038222
v 6.986880 5.193173 3.011392
v 6.966560 5.253892 3.033872
v 6.927071 5.241942 3.039712
v 6.959440 5.256182 3.038982
v 6.941591 5.302161 3.055632
v 6.884342 5.320061 3.078601
v 6.867802 5.398020 3.105321
v 6.921431 5.329231 3.075381
v 6.932461 5.256792 3.052072
v 6.894651 5.321411 3.082651
v 6.921111 5.334281 3.078751
v 6.908711 5.329021 3.083281
v 6.852342 5.433559 3.122571
v 6.872662 5.407050 3.110491
v 6.821592 5.489679 3.148120
v 6.824952 5.481839 3.137281
v 6.878592 5.392970 3.107841
v 6.824452 5.518909 3.163740
v 6.834162 5.469349 3.131591
v 6.865352 5.408970 3.112241
v 6.815262 5.489139 3.136541
v 6.838902 5.468039 3.126771
v 6.803412 5.516419 3.140290
v 6.583405 6.006382 3.263019
v 6.625515 5.982742 3.256969
v 6.628815 5.973403 3.273009
v 6.616355 6.009312 3.265979
v 6.605055 5.960283 3.260469
v 6.574885 6.063342 3.286479
v 6.617595 5.964303 3.271979
v 6.562275 6.023352 3.290199
v 6.623745 5.945153 3.283179
v 6.601975 6.002972 3.284069
v 6.511137 6.113981 3.299559
v 6.634234 5.968913 3.284109
v 6.468127 6.123681 3.322278
v 6.436717 6.195720 3.331688
v 6.471407 6.187360 3.333988
v 6.630414 5.959243 3.258519
v 6.501856 6.082021 3.328128
v 6.548126 6.091621 3.315928
v 6.554195 6.050692 3.313258
v 6.554096 6.069521 3.318118
v 6.358858 6.227769 3.379257
v 6.339008 6.272459 3.370438
v 6.356998 6.290709 3.369348
v 6.360888 6.303568 3.384087
v 6.436417 6.161581 3.362168
v 6.433377 6.221869 3.371488
v 6.263239 6.366658 3.403237
v 6.464387 6.151090 3.364818
v 6.495176 6.135631 3.347548
v 6.280789 6.317728 3.409837
v 6.240980 6.376967 3.420047
v 6.186260 6.455226 3.433707
v 6.253359 6.396647 3.422027
v 6.297289 6.307619 3.419027
v 6.376448 6.238080 3.394867
v 6.389647 6.245579 3.392407
v 6.315209 6.329908 3.410177
v 6.227750 6.391687 3.440097
v 6.134551 6.486836 3.457747
v 6.150161 6.523026 3.458646
v 6.108821 6.548745 3.462356
v 6.200650 6.460646 3.469376
v 6.081882 6.566865 3.481086
v 6.100821 6.586065 3.491996
v 6.084842 6.579045 3.493516
v 6.281469 6.346817 3.424037
v 6.128341 6.493086 3.496706
v 6.089962 6.546825 3.503506
v 6.132271 6.554445 3.507666
v 6.087951 6.574085 3.516496
v 6.177011 6.468206 3.487956
v 6.117851 6.520306 3.526145
v 6.101111 6.550385 3.529706
v 6.125011 6.539545 3.520006
v 6.100162 6.569885 3.519706
v 6.100681 6.558035 3.519236
vn -0.4468 -0.7498 -0.4880
vn 0.8487 -0.4303 0.3075
vn 0.2555 -0.7458 0.6152
vn -0.3570 0.2442 -0.9016
vn -0.0076 0.3946 -0.9188
vn 0.6471 0.5008 -0.5749
vn -0.7123 -0.6406 0.2868
vn 0.7941 -0.0856 0.6018
vn 0.8412 0.5324 -0.0943
vn -0.9341 -0.2833 -0.2170
vn -0.2219 0.3759 -0.8997
vn 0.4086 0.6220 -0.6680
vn 0.0838 -0.4907 0.8673
vn -0.3331 -0.4746 0.8147
vn 0.8460 0.3361 0.4139
vn 0.3112 -0.2390 0.9198
vn -0.8591 -0.3783 0.3446
vn 0.8211 0.5699 -0.0312
vn -0.1353 0.7816 -0.6089
vn 0.7005 0.7136 -0.0071
vn 0.5248 0.0099 0.8512
vn -0.9072 -0.1701 -0.3848
vn 0.3621 0.0147 0.9320
vn -0.1245 -0.3375 0.9330
vn 0.4529 0.3231 0.8309
vn -0.2486 -0.3413 0.9065
vn 0.2954 -0.0280 0.9550
vn -0.4162 -0.2671 -0.8691
vn 0.5589 0.0525 -0.8276
vn -0.3664 -0.7222 -0.5866
vn 0.9475 0.2341 0.2179
vn 0.9911 0.0273 0.1302
vn 0.4998 0.5958 -0.6286
vn -0.1352 -0.8886 0.4383
vn -0.6587 -0.7524 0.0034
vn 0.6876 0.5283 -0.4981
vn 0.7099 -0.0044 0.7043
vn -0.0973 0.2748 -0.9566
vn 0.0882 -0.8294 -0.5516
vn -0.7267 -0.4912 -0.4803
vn -0.1698 0.2117 -0.9625
vn 0.5624 0.6834 -0.4656
vn 0.3062 -0.2769 0.9108
vn -0.4863 -0.7128 0.5054
vn 0.7850 0.4400 0.4361
vn 0.0736 -0.4242 0.9026
vn 0.5267 0.0124 0.8500
vn -0.6702 -0.7145 0.2007
vn -0.5711 -0.2105 -0.7935
vn 0.1279 0.4958 -0.8590
vn 0.6765 0.7363 -0.0171
vn -0.4985 -0.6780 0.5402
vn 0.6961 0.4510 0.5586
vn -0.2230 0.1884 -0.9565
vn 0.0785 -0.3242 0.9427
vn 0.5043 0.0784 0.8600
vn -0.7881 -0.6116 -0.0695
vn -0.7251 -0.4148 -0.5497
vn -0.1637 0.1631 -0.9729
vn 0.5567 0.7031 -0.4424
vn -0.3269 -0.5176 0.7907
vn -0.0796 -0.3866 0.9188
vn 0.4057 0.0940 0.9092
vn 0.6395 0.4285 0.6384
vn -0.5626 -0.6745 0.4781
vn -0.7617 -0.4832 -0.4317
vn 0.5739 0.6486 -0.4999
vn -0.2258 0.3777 -0.8980
vn 0.7734 0.3779 0.5090
vn -0.9415 0.0302 -0.3358
vn 0.1999 0.9754 -0.0930
vn -0.5813 0.7370 -0.3449
vn 0.2452 -0.1130 0.9629
vn -0.6180 -0.6708 0.4099
vn -0.8931 -0.3929 0.2192
vn 0.7120 0.6082 0.3510
vn -0.6099 0.4729 0.6358
vn 0.1982 -0.3713 0.9071
vn -0.0786 -0.3987 0.9137
vn -0.3645 -0.0357 0.9305
vn 0.4433 0.1929 0.8754
vn 0.1896 0.5275 0.8281
vn 0.0791 0.3146 0.9459
usemtl mtl1.1292
s 1
f 1//1 2//2 3//3
f 1//1 4//4 5//5
f 6//6 5//5 4//4
f 1//1 3//3 7//7
f 3//3 2//2 8//8
f 4//4 1//1 7//7
f 2//2 6//6 8//8
f 6//6 9//9 8//8
f 10//10 4//4 7//7
f 11//11 4//4 10//10
f 4//4 11//11 12//12
f 12//12 6//6 4//4
f 7//7 3//3 13//13
f 3//3 8//8 13//13
f 12//12 9//9 6//6
f 7//7 13//13 14//14
f 10//10 7//7 14//14
f 15//15 16//16 8//8
f 9//9 15//15 8//8
f 17//17 11//11 10//10
f 12//12 15//15 9//9
f 12//12 18//18 15//15
f 18//18 12//12 11//11
f 16//16 13//13 8//8
f 19//19 11//11 17//17
f 20//20 11//11 19//19
f 20//20 18//18 11//11
f 16//16 14//14 13//13
f 10//10 14//14 17//17
f 21//21 16//16 15//15
f 15//15 18//18 21//21
f 22//22 19//19 17//17
f 18//18 20//20 23//23
f 16//16 24//24 14//14
f 14//14 24//24 17//17
f 24//24 16//16 21//21
f 18//18 23//23 21//21
f 25//25 23//23 20//20
f 25//25 20//20 19//19
f 17//17 24//24 26//26
f 23//23 26//26 24//24
f 21//21 23//23 24//24
f 17//17 26//26 27//27
f 19//19 27//27 25//25
f 23//23 25//25 26//26
f 26//26 25//25 27//27
f 28//28 29//29 30//30
f 31//31 32//32 29//29
f 29//29 28//28 33//33
f 33//33 31//31 29//29
f 30//30 34//34 35//35
f 36//36 32//32 37//37
f 28//28 30//30 35//35
f 32//32 31//31 37//37
f 33//33 28//28 38//38
f 30//30 39//39 34//34
f 40//40 28//28 35//35
f 28//28 40//40 38//38
f 38//38 40//40 41//41
f 42//42 33//33 38//38
f 43//43 37//37 34//34
f 40//40 35//35 44//44
f 45//45 31//31 33//33
f 33//33 42//42 45//45
f 41//41 42//42 38//38
f 46//46 34//34 37//37
f 35//35 34//34 46//46
f 35//35 46//46 44//44
f 46//46 37//37 47//47
f 45//45 47//47 37//37
f 31//31 45//45 37//37
f 40//40 48//48 49//49
f 40//40 49//49 41//41
f 41//41 49//49 50//50
f 51//51 42//42 50//50
f 50//50 42//42 41//41
f 44//44 52//52 40//40
f 40//40 52//52 48//48
f 42//42 51//51 53//53
f 50//50 49//49 54//54
f 44//44 46//46 55//55
f 46//46 56//56 55//55
f 47//47 56//56 46//46
f 55//55 52//52 44//44
f 47//47 45//45 56//56
f 45//45 53//53 56//56
f 45//45 42//42 53//53
f 49//49 48//48 57//57
f 49//49 57//57 58//58
f 49//49 58//58 54//54
f 54//54 58//58 59//59
f 50//50 54//54 60//60
f 51//51 50//50 60//60
f 61//61 57//57 48//48
f 59//59 60//60 54//54
f 52//52 55//55 62//62
f 62//62 55//55 63//63
f 56//56 63//63 55//55
f 48//48 52//52 62//62
f 56//56 53//53 63//63
f 48//48 62//62 61//61
f 53//53 64//64 63//63
f 53//53 51//51 64//64
f 65//65 58//58 57//57
f 51//51 60//60 64//64
f 66//66 59//59 58//58
f 67//67 60//60 59//59
f 59//59 66//66 68//68
f 68//68 67//67 59//59
f 61//61 65//65 57//57
f 58//58 65//65 66//66
f 69//69 64//64 60//60
f 60//60 67//67 69//69
f 70//70 68//68 66//66
f 67//67 68//68 71//71
f 68//68 70//70 72//72
f 68//68 72//72 71//71
f 62//62 73//73 61//61
f 62//62 63//63 73//73
f 73//73 65//65 61//61
f 63//63 64//64 73//73
f 64//64 69//69 73//73
f 66//66 65//65 74//74
f 66//66 75//75 70//70
f 67//67 76//76 69//69
f 67//67 71//71 76//76
f 72//72 70//70 77//77
f 72//72 77//77 71//71
f 78//78 65//65 73//73
f 73//73 69//69 78//78
f 74//74 65//65 78//78
f 74//74 75//75 66//66
f 74//74 78//78 79//79
f 80//80 75//75 74//74
f 81//81 78//78 69//69
f 76//76 81//81 69//69
f 75//75 77//77 70//70
f 82//82 76//76 71//71
f 79//79 80//80 74//74
f 78//78 81//81 79//79
f 75//75 80//80 77//77
f 71//71 77//77 82//82
f 82//82 81//81 76//76
f 77//77 83//83 82//82
f 79//79 81//81 80//80
f 81//81 83//83 80//80
f 80//80 83//83 77//77
f 81//81 82//82 83//83
