# Blender v2.92.0 OBJ File: 'convert_to_one_sided.blend'
# www.blender.org
mtllib 496345672L.mtl
o Cube
v 0.001000 0.001000 -0.001000
v 0.001000 -0.001000 -0.001000
v 0.001000 0.001000 0.001000
v 0.001000 -0.001000 0.001000
v -0.001000 0.001000 -0.001000
v -0.001000 -0.001000 -0.001000
v -0.001000 0.001000 0.001000
v -0.001000 -0.001000 0.001000
vt 0.625000 0.500000
vt 0.875000 0.500000
vt 0.875000 0.750000
vt 0.625000 0.750000
vt 0.375000 0.750000
vt 0.625000 1.000000
vt 0.375000 1.000000
vt 0.375000 0.000000
vt 0.625000 0.000000
vt 0.625000 0.250000
vt 0.375000 0.250000
vt 0.125000 0.500000
vt 0.375000 0.500000
vt 0.125000 0.750000
vn 0.0000 1.0000 0.0000
vn 0.0000 0.0000 1.0000
vn -1.0000 0.0000 0.0000
vn 0.0000 -1.0000 0.0000
vn 1.0000 0.0000 0.0000
vn 0.0000 0.0000 -1.0000
usemtl Material
s off
f 1/1/1 5/2/1 7/3/1 3/4/1
f 4/5/2 3/4/2 7/6/2 8/7/2
f 8/8/3 7/9/3 5/10/3 6/11/3
f 6/12/4 2/13/4 4/5/4 8/14/4
f 2/13/5 1/1/5 3/4/5 4/5/5
f 6/11/6 5/10/6 1/1/6 2/13/6
o 496345672
v 7.611102 3.124769 3.361237
v 7.702220 3.156849 3.381207
v 7.639781 3.075990 3.410836
v 7.706011 3.209458 3.357497
v 7.577992 3.153029 3.367887
v 7.672261 3.220168 3.358167
v 7.812150 3.283547 3.387647
v 7.647642 3.235758 3.368907
v 7.736910 3.319677 3.374547
v 7.785830 3.319307 3.375687
v 7.549563 3.088120 3.394067
v 7.577192 3.195758 3.413456
v 7.803150 3.215358 3.423446
v 7.681571 3.305227 3.406387
v 7.880208 3.393466 3.402247
v 7.775000 3.397636 3.404937
v 7.843609 3.420445 3.403277
v 7.526303 3.029231 3.421696
v 7.480604 3.049750 3.425496
v 7.511663 3.103119 3.423366
v 7.883289 3.316387 3.438676
v 7.804359 3.432215 3.420286
v 7.894968 3.434325 3.413386
v 7.823679 3.445275 3.439796
v 7.891348 3.442045 3.433876
v 7.413095 2.994041 3.439086
v 7.593442 3.010221 3.463096
v 7.734621 3.112439 3.466436
v 7.401975 3.024671 3.453936
v 7.461034 3.100379 3.470466
v 7.553383 3.193799 3.463566
v 7.644022 3.294477 3.461156
v 7.903039 3.408046 3.434446
v 7.378955 2.954121 3.448286
v 7.292056 2.905152 3.474676
v 7.324906 2.953591 3.454736
v 7.446864 2.954631 3.469836
v 7.235537 2.914212 3.477726
v 7.286406 2.955731 3.472216
v 7.356005 2.980701 3.456156
v 7.838659 3.215968 3.471996
v 7.747000 3.388536 3.446566
v 7.916708 3.390136 3.478266
v 7.856219 3.446495 3.464516
v 7.208887 2.880132 3.501605
v 7.183238 2.895152 3.505735
v 7.352945 2.891292 3.512935
v 7.209137 2.916362 3.495445
v 7.499084 3.143609 3.504225
v 7.911188 3.340906 3.477136
v 7.889508 3.423845 3.474776
v 7.258177 2.877223 3.508565
v 7.174378 2.897732 3.523805
v 7.248087 2.944921 3.530335
v 7.518333 2.940692 3.526335
v 7.357525 3.011651 3.496455
v 7.642482 3.011111 3.525875
v 7.575482 3.208388 3.506145
v 7.885258 3.263818 3.497786
v 7.705050 3.357606 3.491086
v 7.905218 3.309017 3.506005
v 7.788350 3.410085 3.484865
v 7.174128 2.870443 3.537645
v 7.174037 2.871202 3.554595
v 7.732200 3.080390 3.548425
v 7.814140 3.174159 3.520045
v 7.654042 3.278817 3.519785
v 7.847979 3.409306 3.503556
v 7.252587 2.861353 3.558895
v 7.575402 2.951782 3.568394
v 7.488384 2.898202 3.597614
v 7.380995 3.038400 3.548865
v 7.864769 3.242868 3.538475
v 7.496874 3.122689 3.555295
v 7.890809 3.330606 3.524465
v 7.721001 3.335467 3.527195
v 7.882628 3.386346 3.503175
v 7.795569 3.365486 3.533715
v 7.194727 2.859873 3.579154
v 7.387125 2.878002 3.577265
v 7.197677 2.892712 3.572215
v 7.589373 3.165679 3.574064
v 7.682191 3.260768 3.555835
v 7.314146 2.851873 3.615924
v 7.631872 3.001841 3.585384
v 7.263346 2.944132 3.583204
v 7.796540 3.156379 3.556875
v 7.425764 3.044600 3.609744
v 7.498953 3.092220 3.598654
v 7.849799 3.351537 3.534755
v 7.255406 2.852813 3.619044
v 7.407914 2.871233 3.625574
v 7.471774 2.888172 3.626994
v 7.537483 2.935562 3.613784
v 7.316036 2.964782 3.620604
v 7.739590 3.122309 3.584354
v 7.819689 3.197098 3.560695
v 7.821279 3.250788 3.555995
v 7.740460 3.301497 3.554925
v 7.699161 3.230198 3.577394
v 7.775830 3.283257 3.557445
v 7.223627 2.865863 3.609544
v 7.259727 2.909982 3.623004
v 7.610732 3.108099 3.619304
v 7.716821 3.177039 3.585804
v 7.358405 2.867122 3.648024
v 7.589602 2.991871 3.625064
v 7.607692 3.048780 3.628644
v 7.316066 2.876143 3.656893
v 7.473954 2.911442 3.640804
v 7.317326 2.936362 3.656843
v 7.384085 2.986141 3.646703
v 7.481433 3.042780 3.632934
v 7.485243 2.981251 3.663793
v 7.310076 2.904962 3.655823
v 7.517153 2.967281 3.650673
v 7.416615 2.916572 3.658993
v 7.382215 2.923342 3.665363
v 7.391065 2.962451 3.652184
vn 0.0056 -0.3160 -0.9487
vn 0.4775 -0.5089 -0.7163
vn 0.3712 -0.6578 -0.6554
vn 0.2425 -0.1604 -0.9568
vn -0.5043 0.1921 -0.8419
vn -0.1095 0.1478 -0.9829
vn 0.5095 -0.2882 -0.8108
vn -0.4790 0.4687 -0.7422
vn -0.2511 0.4011 -0.8810
vn 0.1462 0.1030 -0.9839
vn -0.4174 -0.1304 -0.8993
vn -0.6882 0.5627 -0.4579
vn 0.6307 -0.5185 -0.5773
vn -0.6216 0.6207 -0.4778
vn 0.5280 -0.0359 -0.8485
vn -0.4749 0.6133 -0.6311
vn -0.0121 0.5822 -0.8129
vn 0.0121 -0.4735 -0.8807
vn -0.3456 0.0608 -0.9364
vn -0.6032 0.3206 -0.7303
vn 0.7679 -0.3557 -0.5327
vn -0.3935 0.7993 -0.4542
vn 0.5973 0.4609 -0.6563
vn -0.2529 0.9608 -0.1138
vn 0.5208 0.8479 -0.0991
vn -0.2364 0.0969 -0.9668
vn 0.3818 -0.7543 -0.5341
vn 0.6147 -0.6832 -0.3941
vn -0.4791 0.4625 -0.7460
vn -0.6808 0.6470 -0.3434
vn -0.7111 0.6965 -0.0964
vn -0.7267 0.6852 -0.0488
vn 0.9367 0.0540 -0.3458
vn 0.0119 -0.4088 -0.9126
vn 0.0280 -0.6136 -0.7891
vn -0.2491 0.0606 -0.9666
vn 0.2343 -0.7306 -0.6414
vn -0.3670 -0.0168 -0.9301
vn -0.4749 0.5966 -0.6469
vn -0.3388 0.3506 -0.8731
vn 0.7199 -0.5882 -0.3685
vn -0.6314 0.7667 -0.1157
vn 0.9004 0.2867 0.3273
vn 0.0466 0.9015 0.4302
vn -0.2086 -0.7301 -0.6507
vn -0.7803 -0.0871 -0.6193
vn 0.2099 -0.8695 -0.4470
vn -0.5961 0.6075 -0.5250
vn -0.6613 0.7456 0.0824
vn 0.9525 -0.2113 -0.2194
vn 0.4833 0.6555 0.5802
vn 0.0714 -0.8891 -0.4522
vn -0.8380 0.5443 -0.0386
vn -0.5736 0.8190 -0.0131
vn 0.3537 -0.8385 -0.4146
vn -0.5926 0.7566 -0.2762
vn 0.5746 -0.7841 -0.2346
vn -0.6350 0.7077 0.3097
vn 0.8588 -0.4972 -0.1237
vn -0.6143 0.7268 0.3073
vn 0.9333 -0.1945 0.3018
vn -0.3745 0.7949 0.4773
vn -0.5594 -0.7801 -0.2801
vn -0.9580 -0.1328 0.2543
vn 0.6971 -0.7066 0.1218
vn 0.7618 -0.6461 -0.0464
vn -0.6119 0.6077 0.5063
vn 0.1048 0.6246 0.7739
vn 0.0094 -0.9735 -0.2283
vn 0.5604 -0.8258 -0.0638
vn 0.4055 -0.9061 -0.1206
vn -0.6000 0.7880 0.1380
vn 0.7596 -0.3333 0.5585
vn -0.5142 0.7469 0.4217
vn 0.5786 0.1333 0.8047
vn -0.4061 0.5882 0.6994
vn 0.4460 0.4374 0.7809
vn -0.1016 0.5048 0.8572
vn -0.4906 -0.8315 0.2604
vn 0.2232 -0.9321 -0.2854
vn -0.7007 0.5297 0.4779
vn -0.3907 0.6038 0.6949
vn -0.3806 0.4978 0.7793
vn 0.1037 -0.9944 0.0177
vn 0.6482 -0.6979 0.3047
vn -0.5955 0.7261 0.3437
vn 0.7154 -0.5503 0.4304
vn -0.4256 0.7159 0.5535
vn -0.3612 0.6783 0.6399
vn 0.2244 0.3164 0.9217
vn -0.1949 -0.8837 0.4256
vn 0.2466 -0.9451 0.2143
vn 0.4166 -0.8059 0.4208
vn 0.5778 -0.7161 0.3916
vn -0.5218 0.6981 0.4903
vn 0.4942 -0.2942 0.8181
vn 0.5240 -0.1942 0.8293
vn 0.2921 0.0794 0.9531
vn -0.1591 0.4047 0.9005
vn -0.0985 0.3546 0.9298
vn 0.0935 0.2295 0.9688
vn -0.6076 -0.1362 0.7825
vn -0.6036 0.4209 0.6771
vn -0.0115 0.3463 0.9381
vn 0.1954 0.1411 0.9705
vn 0.1417 -0.7589 0.6356
vn 0.5117 -0.4555 0.7284
vn 0.3080 -0.0222 0.9511
vn -0.1409 -0.3633 0.9209
vn 0.3449 -0.5580 0.7548
vn -0.3455 0.3717 0.8617
vn -0.2577 0.5375 0.8029
vn -0.2010 0.5149 0.8333
vn 0.0581 0.1144 0.9917
vn -0.3141 0.0889 0.9452
vn 0.3259 -0.2801 0.9029
vn 0.1743 -0.3330 0.9267
vn -0.0606 0.0330 0.9976
vn -0.1035 0.2777 0.9551
usemtl mtl1.448
s 1
f 9//7 10//8 11//9
f 10//8 9//7 12//10
f 9//7 13//11 14//12
f 9//7 14//12 12//10
f 12//10 15//13 10//8
f 14//12 13//11 16//14
f 16//14 17//15 14//12
f 15//13 12//10 18//16
f 18//16 12//10 14//12
f 18//16 14//12 17//15
f 9//7 19//17 13//11
f 16//14 13//11 20//18
f 21//19 10//8 15//13
f 16//14 20//18 22//20
f 17//15 16//14 22//20
f 18//16 23//21 15//13
f 17//15 22//20 24//22
f 25//23 17//15 24//22
f 23//21 18//16 25//23
f 25//23 18//16 17//15
f 26//24 27//25 19//17
f 26//24 19//17 9//7
f 11//9 26//24 9//7
f 19//17 28//26 13//11
f 20//18 13//11 28//26
f 23//21 29//27 15//13
f 25//23 24//22 30//28
f 25//23 31//29 23//21
f 25//23 30//28 32//30
f 31//29 25//23 33//31
f 26//24 34//32 27//25
f 26//24 11//9 35//33
f 35//33 11//9 36//34
f 37//35 28//26 27//25
f 27//25 28//26 19//17
f 11//9 10//8 36//34
f 10//8 21//19 36//34
f 20//18 28//26 38//36
f 20//18 39//37 40//38
f 20//18 40//38 22//20
f 23//21 41//39 29//27
f 23//21 31//29 41//39
f 32//30 33//31 25//23
f 42//40 43//41 44//42
f 42//40 26//24 45//43
f 46//44 47//45 44//42
f 48//46 44//42 47//45
f 42//40 44//42 34//32
f 34//32 44//42 48//46
f 26//24 42//40 34//32
f 37//35 48//46 47//45
f 48//46 37//35 34//32
f 34//32 37//35 27//25
f 21//19 49//47 36//34
f 20//18 38//36 39//37
f 15//13 29//27 21//19
f 24//22 22//20 50//48
f 24//22 50//48 30//28
f 41//39 33//31 51//49
f 41//39 31//29 33//31
f 33//31 32//30 52//50
f 46//44 53//51 54//52
f 46//44 43//41 53//51
f 44//42 43//41 46//44
f 43//41 45//43 55//53
f 56//54 46//44 54//52
f 45//43 43//41 42//40
f 26//24 35//33 45//43
f 46//44 56//54 47//45
f 38//36 28//26 37//35
f 38//36 57//55 39//37
f 49//47 21//19 29//27
f 50//48 22//20 40//38
f 58//56 29//27 41//39
f 51//49 58//56 41//39
f 30//28 50//48 32//30
f 33//31 52//50 59//57
f 59//57 51//49 33//31
f 53//51 43//41 60//58
f 43//41 55//53 60//58
f 56//54 54//52 61//59
f 56//54 61//59 62//60
f 45//43 35//33 63//61
f 47//45 62//60 64//62
f 47//45 56//54 62//60
f 37//35 47//45 64//62
f 36//34 65//63 35//33
f 57//55 66//64 39//37
f 66//64 40//38 39//37
f 49//47 29//27 67//65
f 67//65 29//27 58//56
f 40//38 68//66 50//48
f 69//67 58//56 51//49
f 70//68 50//48 68//66
f 50//48 70//68 32//30
f 32//30 70//68 52//50
f 71//69 54//52 53//51
f 72//70 54//52 71//69
f 54//52 72//70 61//59
f 55//53 45//43 63//61
f 35//33 65//63 63//61
f 73//71 65//63 36//34
f 64//62 38//36 37//35
f 74//72 73//71 36//34
f 49//47 74//72 36//34
f 67//65 74//72 49//47
f 66//64 75//73 40//38
f 67//65 58//56 69//67
f 40//38 75//73 68//66
f 70//68 76//74 52//50
f 59//57 52//50 76//74
f 60//58 77//75 53//51
f 60//58 55//53 77//75
f 63//61 78//76 79//77
f 78//76 63//61 65//63
f 64//62 62//60 80//78
f 64//62 80//78 38//36
f 80//78 57//55 38//36
f 74//72 67//65 81//79
f 82//80 66//64 57//55
f 69//67 81//79 67//65
f 51//49 83//81 69//67
f 84//82 68//66 75//73
f 84//82 70//68 68//66
f 85//83 59//57 76//74
f 85//83 51//49 59//57
f 70//68 86//84 76//74
f 87//85 71//69 77//75
f 77//75 71//69 53//51
f 77//75 55//53 88//86
f 55//53 63//61 88//86
f 63//61 79//77 88//86
f 89//87 61//59 72//70
f 61//59 89//87 62//60
f 57//55 80//78 82//80
f 82//80 90//88 66//64
f 66//64 90//88 75//73
f 84//82 75//73 91//89
f 85//83 83//81 51//49
f 77//75 88//86 92//90
f 71//69 87//85 72//70
f 65//63 93//91 78//76
f 93//91 65//63 73//71
f 62//60 94//92 80//78
f 74//72 95//93 73//71
f 96//94 82//80 80//78
f 74//72 81//79 95//93
f 82//80 97//95 90//88
f 90//88 91//89 75//73
f 69//67 83//81 81//79
f 83//81 85//83 98//96
f 70//68 84//82 86//84
f 85//83 76//74 98//96
f 76//74 86//84 98//96
f 77//75 92//90 99//97
f 87//85 77//75 99//97
f 92//90 88//86 100//98
f 79//77 100//98 88//86
f 101//99 100//98 79//77
f 102//100 79//77 78//76
f 89//87 94//92 62//60
f 78//76 93//91 102//100
f 94//92 103//101 80//78
f 73//71 104//102 93//91
f 104//102 73//71 95//93
f 96//94 97//95 82//80
f 95//93 81//79 105//103
f 106//104 105//103 81//79
f 81//79 83//81 106//104
f 107//105 91//89 108//106
f 84//82 91//89 107//105
f 106//104 98//96 109//107
f 83//81 98//96 106//104
f 107//105 86//84 84//82
f 109//107 86//84 107//105
f 98//96 86//84 109//107
f 110//108 87//85 99//97
f 87//85 110//108 72//70
f 72//70 110//108 89//87
f 89//87 110//108 111//109
f 79//77 102//100 101//99
f 89//87 111//109 94//92
f 103//101 96//94 80//78
f 90//88 112//110 108//106
f 95//93 105//103 104//102
f 104//102 106//104 113//111
f 105//103 106//104 104//102
f 91//89 90//88 108//106
f 113//111 109//107 108//106
f 106//104 109//107 113//111
f 109//107 107//105 108//106
f 92//90 114//112 99//97
f 92//90 100//98 114//112
f 111//109 103//101 94//92
f 93//91 115//113 102//100
f 93//91 104//102 115//113
f 116//114 115//113 104//102
f 116//114 113//111 112//110
f 116//114 104//102 113//111
f 113//111 108//106 112//110
f 117//115 99//97 114//112
f 101//99 118//116 100//98
f 102//100 118//116 101//99
f 102//100 115//113 118//116
f 111//109 119//117 103//101
f 103//101 120//118 96//94
f 121//119 122//120 112//110
f 97//95 96//94 121//119
f 112//110 90//88 121//119
f 116//114 112//110 122//120
f 90//88 97//95 121//119
f 110//108 99//97 117//115
f 123//121 110//108 117//115
f 118//116 114//112 100//98
f 110//108 123//121 111//109
f 119//117 111//109 123//121
f 115//113 124//122 118//116
f 103//101 119//117 120//118
f 115//113 116//114 124//122
f 116//114 122//120 124//122
f 121//119 96//94 120//118
f 114//112 118//116 125//123
f 126//124 123//121 117//115
f 125//123 126//124 117//115
f 114//112 125//123 117//115
f 118//116 124//122 125//123
f 123//121 127//125 119//117
f 124//122 122//120 125//123
f 119//117 127//125 120//118
f 122//120 121//119 127//125
f 121//119 120//118 127//125
f 127//125 123//121 126//124
f 122//120 126//124 125//123
f 122//120 127//125 126//124
