# Blender v2.92.0 OBJ File: 'convert_to_one_sided.blend'
# www.blender.org
mtllib 501L.mtl
o 501
v 7.825909 0.847764 3.468816
v 7.841129 0.845974 3.465946
v 7.873698 0.818912 3.508305
v 7.901148 0.832452 3.502215
v 7.821270 0.851279 3.464506
v 7.826759 0.850657 3.469306
v 7.861329 0.849439 3.481665
v 7.838120 0.854223 3.473276
v 7.831059 0.836591 3.506315
v 7.938318 0.840993 3.523575
v 7.895908 0.853492 3.503875
v 7.968388 0.804046 3.553094
v 7.841769 0.845541 3.513055
v 7.976247 0.842713 3.555164
v 7.873929 0.855825 3.505095
v 7.849629 0.814326 3.537225
v 7.999777 0.815371 3.566144
v 7.940238 0.850941 3.549705
v 7.900918 0.841357 3.575704
v 7.884158 0.782362 3.595474
v 8.007017 0.762656 3.646643
v 7.848069 0.820708 3.571614
v 7.869139 0.784899 3.625834
v 7.853729 0.813289 3.578874
v 8.037666 0.798368 3.592344
v 7.888119 0.807285 3.651413
v 8.010237 0.833809 3.643273
v 8.051376 0.832833 3.620674
v 7.943668 0.742126 3.712582
v 8.074736 0.783868 3.628413
v 8.108545 0.797496 3.638073
v 8.059966 0.823335 3.612454
v 7.907318 0.754891 3.711493
v 8.147665 0.755294 3.691633
v 8.144635 0.820807 3.678803
v 8.194255 0.774494 3.695573
v 8.197905 0.791100 3.693903
v 7.876928 0.791471 3.648323
v 8.201434 0.800126 3.705013
v 8.058097 0.700891 3.819441
v 8.300584 0.770804 3.756962
v 7.974617 0.814199 3.690763
v 8.206024 0.716636 3.782801
v 7.897688 0.767223 3.707762
v 8.116466 0.822981 3.690373
v 8.244574 0.746179 3.743742
v 8.297813 0.751602 3.761332
v 7.921778 0.759334 3.762342
v 7.965297 0.715860 3.822471
v 8.112455 0.790598 3.795101
v 8.249944 0.795789 3.774202
v 8.375752 0.722309 3.826271
v 7.934148 0.743634 3.789621
v 7.976167 0.774076 3.780871
v 8.354523 0.751960 3.794151
v 8.421572 0.742602 3.835001
v 8.343573 0.772229 3.800381
v 8.036197 0.739416 3.898060
v 8.359322 0.756709 3.909870
v 8.430701 0.763224 3.868940
v 8.197385 0.678564 3.878630
v 8.400502 0.658909 3.957409
v 8.485421 0.714496 3.868030
v 8.506461 0.721536 3.871780
v 7.953368 0.729056 3.853380
v 8.516601 0.741265 3.887290
v 8.031417 0.665541 3.955279
v 7.989577 0.690089 3.915520
v 8.549350 0.719741 3.895160
v 7.970627 0.734504 3.852031
v 8.194064 0.645323 3.986379
v 8.552270 0.690621 3.924020
v 8.551010 0.712030 3.899500
v 7.975477 0.708638 3.889700
v 8.642609 0.715471 3.943739
v 8.163745 0.728663 3.962629
v 8.667948 0.697182 3.962289
v 8.636599 0.724793 3.947659
v 8.574010 0.737973 3.926170
v 8.551559 0.740256 3.937320
v 8.712078 0.669308 4.006069
v 8.006507 0.696661 3.953959
v 8.020737 0.673213 3.990229
v 8.669269 0.639651 4.060808
v 8.716428 0.701880 3.984919
v 8.724547 0.702868 3.991449
v 8.695838 0.713168 3.989299
v 8.097266 0.627289 4.061218
v 8.777607 0.691962 4.023058
v 8.589749 0.690532 4.066058
v 8.353433 0.610241 4.078087
v 8.531390 0.605518 4.113207
v 8.844195 0.653071 4.089997
v 8.810476 0.679489 4.047448
v 8.820227 0.689276 4.048838
v 8.066836 0.702759 3.994939
v 8.327143 0.693966 4.052818
v 8.063437 0.637359 4.072468
v 8.192015 0.658254 4.116227
v 8.230644 0.595616 4.125737
v 8.967045 0.674338 4.131347
v 8.031047 0.667313 4.027438
v 8.883426 0.683100 4.084787
v 8.080916 0.645774 4.089997
v 8.946255 0.678902 4.116427
v 8.851256 0.684874 4.098827
v 8.069606 0.637870 4.089727
v 8.837696 0.622381 4.159236
v 8.988535 0.677858 4.139817
v 8.840816 0.662343 4.181936
v 8.127035 0.600223 4.149357
v 8.110076 0.605361 4.170486
v 8.735987 0.595699 4.200536
v 9.002264 0.649304 4.194716
v 9.093192 0.679944 4.194216
v 9.082303 0.682062 4.186026
v 8.387512 0.636420 4.176476
v 9.010094 0.678316 4.163486
v 9.059233 0.678644 4.176926
v 8.118786 0.598038 4.183346
v 8.159815 0.604737 4.206566
v 8.679089 0.636106 4.201626
v 8.225663 0.572568 4.205436
v 8.414512 0.577813 4.192856
v 8.915826 0.620289 4.215556
v 9.165232 0.691036 4.223186
v 8.871117 0.637271 4.244385
v 9.029124 0.677204 4.204376
v 9.133223 0.685663 4.216516
v 9.178962 0.688094 4.230525
v 9.166761 0.683475 4.244045
v 8.231194 0.620962 4.193336
v 8.152045 0.582519 4.214296
v 8.616969 0.573432 4.246465
v 8.145815 0.581357 4.218096
v 9.009884 0.631529 4.248675
v 9.229832 0.709063 4.260215
v 9.034214 0.655541 4.256045
v 9.253621 0.693187 4.264865
v 9.225911 0.690287 4.250475
v 8.269613 0.571495 4.236715
v 8.418962 0.564870 4.260715
v 8.926995 0.616386 4.255025
v 9.092893 0.658115 4.260045
v 9.259351 0.712291 4.258275
v 8.337593 0.569831 4.277725
v 8.776896 0.594583 4.266105
v 8.310083 0.605132 4.224686
v 9.021144 0.637836 4.272445
v 8.489601 0.603940 4.240335
v 8.749368 0.605898 4.259665
v 9.186051 0.680288 4.269945
v 9.220101 0.706174 4.262215
v 9.173573 0.678406 4.256645
v 9.243131 0.687037 4.255765
v 8.451111 0.557536 4.266935
v 8.608219 0.575835 4.267915
v 8.728988 0.582641 4.274905
v 8.196255 0.580352 4.227365
v 8.342862 0.587532 4.241446
v 8.549470 0.581206 4.263005
v 8.943694 0.620920 4.269285
v 9.096713 0.653823 4.268705
v 8.914865 0.623373 4.265705
v 9.128013 0.660374 4.267465
v 8.394512 0.559998 4.250145
v 8.341453 0.527362 4.257505
v 8.587649 0.570314 4.263955
v 8.697289 0.583109 4.269915
v 8.801066 0.599828 4.262565
v 9.021053 0.632149 4.269895
v 9.003544 0.629987 4.265285
v 9.170992 0.667549 4.266775
v 9.211651 0.683863 4.253535
vn -0.5746 -0.5587 -0.5981
vn 0.1581 -0.2580 -0.9531
vn -0.0165 -0.8524 -0.5226
vn 0.4367 -0.2883 -0.8522
vn -0.7912 0.5084 -0.3400
vn -0.0875 0.3612 -0.9284
vn 0.3910 0.4304 -0.8136
vn -0.0316 0.9308 -0.3641
vn -0.9824 -0.1255 0.1385
vn 0.5358 0.3223 -0.7804
vn 0.3080 0.8471 -0.4330
vn 0.2949 -0.6659 -0.6853
vn -0.5324 0.7970 0.2850
vn 0.4211 0.7996 -0.4281
vn -0.0708 0.9947 0.0748
vn -0.6512 -0.7453 -0.1433
vn 0.5337 -0.0907 -0.8408
vn 0.1067 0.9942 0.0093
vn -0.1798 0.9395 0.2916
vn -0.2995 -0.9230 -0.2416
vn 0.0542 -0.9103 -0.4104
vn -0.8903 0.2815 0.3579
vn -0.8456 -0.5245 0.0992
vn -0.9399 -0.2863 0.1863
vn 0.4552 -0.4343 -0.7773
vn -0.5090 0.7455 0.4302
vn -0.0214 0.9755 0.2187
vn 0.2490 0.9564 -0.1526
vn -0.1941 -0.9550 -0.2244
vn 0.3207 -0.6793 -0.6601
vn 0.5435 -0.0251 -0.8391
vn 0.5396 0.5211 -0.6613
vn -0.6287 -0.7772 0.0273
vn 0.2169 -0.7848 -0.5805
vn 0.3377 0.9060 -0.2554
vn 0.4251 -0.4191 -0.8023
vn 0.5322 0.1966 -0.8235
vn -0.9202 0.1190 0.3728
vn 0.4944 0.6588 -0.5670
vn -0.0696 -0.9533 -0.2937
vn 0.5518 0.1353 -0.8229
vn -0.1749 0.9160 0.3610
vn 0.0960 -0.9002 -0.4247
vn -0.9241 -0.2173 0.3144
vn 0.0718 0.9868 0.1451
vn 0.2583 -0.7372 -0.6243
vn 0.4149 -0.4612 -0.7843
vn -0.7660 0.4546 0.4546
vn -0.5263 -0.8477 -0.0662
vn -0.0675 0.9405 0.3331
vn 0.1965 0.9804 0.0163
vn 0.2663 -0.7068 -0.6554
vn -0.8869 -0.3909 0.2463
vn -0.2974 0.8587 0.4173
vn 0.4668 -0.3661 -0.8050
vn 0.4617 -0.0042 -0.8870
vn 0.4361 0.7501 -0.4971
vn -0.2576 0.8755 0.4089
vn 0.0124 0.9488 0.3156
vn 0.2074 0.9749 -0.0808
vn 0.0134 -0.9433 -0.3315
vn 0.0687 -0.9184 -0.3897
vn 0.2843 -0.5602 -0.7780
vn 0.3967 -0.2730 -0.8764
vn -0.8633 0.2342 0.4471
vn 0.4110 0.6444 -0.6449
vn -0.3498 -0.9253 -0.1466
vn -0.7124 -0.6981 0.0720
vn 0.4653 0.0170 -0.8850
vn -0.4332 0.7845 0.4437
vn -0.0330 -0.9496 -0.3117
vn 0.1876 -0.8042 -0.5640
vn 0.3685 -0.5178 -0.7721
vn -0.9000 -0.3396 0.2732
vn 0.4844 0.2663 -0.8333
vn -0.0731 0.9158 0.3949
vn 0.4033 -0.4132 -0.8165
vn 0.3929 0.7918 -0.4676
vn 0.2493 0.9525 -0.1748
vn 0.0944 0.9736 0.2078
vn 0.2532 -0.7555 -0.6042
vn -0.6819 0.5381 0.4954
vn -0.8750 -0.4132 0.2522
vn 0.1095 -0.9152 -0.3879
vn 0.5122 0.0511 -0.8573
vn 0.4888 0.5849 -0.6472
vn 0.2254 0.9730 -0.0502
vn -0.1955 -0.9522 -0.2346
vn 0.5215 0.0351 -0.8525
vn -0.0078 0.9345 0.3558
vn 0.0154 -0.9456 -0.3250
vn 0.0642 -0.9438 -0.3243
vn 0.2600 -0.8145 -0.5186
vn 0.4164 -0.4575 -0.7857
vn 0.4059 0.7371 -0.5404
vn -0.2598 0.8474 0.4631
vn -0.0234 0.9090 0.4162
vn -0.6382 -0.7689 0.0388
vn -0.1116 0.8811 0.4596
vn -0.0488 -0.9561 -0.2889
vn 0.4096 -0.4816 -0.7747
vn -0.8334 0.2387 0.4984
vn 0.4861 0.1242 -0.8650
vn -0.4526 0.7030 0.5486
vn 0.2928 0.8145 -0.5009
vn 0.0582 0.9967 0.0561
vn -0.8850 -0.0654 0.4611
vn 0.1696 -0.9242 -0.3423
vn 0.4394 0.2808 -0.8533
vn -0.0917 0.9265 0.3649
vn -0.2887 -0.9432 -0.1642
vn -0.7599 -0.6070 0.2326
vn 0.1138 -0.9697 -0.2163
vn 0.2760 -0.8831 -0.3796
vn 0.3631 -0.6896 -0.6265
vn 0.4268 0.0451 -0.9032
vn -0.0323 0.8855 0.4635
vn 0.0511 0.9908 -0.1257
vn 0.2459 0.7894 -0.5625
vn -0.6738 0.2792 0.6841
vn -0.2360 0.6766 0.6975
vn -0.0745 0.8743 0.4797
vn -0.0716 -0.9911 -0.1123
vn 0.0213 -0.9767 -0.2137
vn 0.1827 -0.9556 -0.2311
vn 0.4772 -0.4126 -0.7759
vn -0.1174 0.8010 0.5870
vn -0.0892 0.9663 0.2414
vn -0.0017 0.9963 -0.0855
vn 0.3480 0.5614 -0.7508
vn 0.3756 -0.8949 -0.2410
vn -0.0682 0.8553 0.5136
vn -0.3146 -0.9444 0.0952
vn 0.0835 -0.9956 -0.0423
vn -0.5310 -0.4735 0.7027
vn 0.2486 -0.9650 -0.0834
vn 0.6070 -0.5760 -0.5476
vn -0.1201 0.6931 0.7108
vn 0.4930 0.8141 -0.3068
vn -0.0136 0.9940 0.1082
vn -0.1554 -0.8539 0.4967
vn 0.0016 -0.9993 0.0365
vn 0.1538 -0.9770 0.1474
vn 0.2999 -0.9480 0.1067
vn 0.6168 -0.2749 0.7376
vn -0.0360 -0.9931 0.1118
vn 0.1584 -0.9084 0.3870
vn -0.0621 0.7576 0.6498
vn 0.2070 -0.8269 0.5228
vn -0.0529 0.7433 0.6668
vn -0.0631 0.5902 0.8048
vn 0.3641 -0.5546 0.7482
vn 0.4738 -0.7969 0.3748
vn -0.0944 0.7852 0.6120
vn -0.0377 0.7322 0.6800
vn -0.0093 -0.4716 0.8818
vn 0.0674 -0.8952 0.4406
vn 0.0913 -0.4424 0.8922
vn -0.2373 0.0957 0.9667
vn -0.0928 0.4504 0.8880
vn -0.0688 0.3125 0.9474
vn 0.0349 -0.3510 0.9357
vn 0.0528 -0.1237 0.9909
vn -0.0637 0.3874 0.9197
vn -0.0959 0.4937 0.8643
vn -0.1240 0.2050 0.9709
vn -0.1739 0.5237 0.8340
vn -0.0357 -0.1203 0.9921
vn -0.0180 0.2268 0.9738
vn 0.0516 -0.0140 0.9986
vn 0.0231 -0.1161 0.9930
vn -0.0658 0.3541 0.9329
vn 0.0398 0.3611 0.9317
vn 0.1274 0.2121 0.9689
usemtl mtl1.1304
s 1
f 1//1 2//2 3//3
f 3//3 2//2 4//4
f 1//1 5//5 6//6
f 2//2 1//1 6//6
f 7//7 4//4 2//2
f 7//7 2//2 6//6
f 6//6 5//5 8//8
f 8//8 7//7 6//6
f 9//9 5//5 1//1
f 10//10 4//4 7//7
f 11//11 10//10 7//7
f 7//7 8//8 11//11
f 12//12 3//3 4//4
f 5//5 13//13 8//8
f 10//10 11//11 14//14
f 8//8 13//13 15//15
f 11//11 8//8 15//15
f 3//3 16//16 1//1
f 17//17 12//12 4//4
f 17//17 4//4 10//10
f 5//5 9//9 13//13
f 11//11 18//18 14//14
f 13//13 19//19 15//15
f 15//15 18//18 11//11
f 16//16 3//3 20//20
f 3//3 21//21 20//20
f 12//12 21//21 3//3
f 1//1 16//16 9//9
f 9//9 22//22 13//13
f 16//16 20//20 23//23
f 16//16 24//24 9//9
f 17//17 25//25 12//12
f 13//13 26//26 19//19
f 18//18 19//19 27//27
f 18//18 28//28 14//14
f 19//19 18//18 15//15
f 21//21 29//29 20//20
f 16//16 23//23 24//24
f 30//30 21//21 12//12
f 12//12 25//25 30//30
f 31//31 25//25 17//17
f 9//9 24//24 22//22
f 31//31 17//17 32//32
f 17//17 10//10 32//32
f 13//13 22//22 26//26
f 32//32 10//10 14//14
f 32//32 14//14 28//28
f 28//28 18//18 27//27
f 20//20 33//33 23//23
f 20//20 29//29 33//33
f 30//30 34//34 21//21
f 25//25 31//31 30//30
f 35//35 32//32 28//28
f 31//31 36//36 30//30
f 37//37 36//36 31//31
f 24//24 38//38 22//22
f 39//39 37//37 31//31
f 32//32 39//39 31//31
f 26//26 22//22 38//38
f 39//39 32//32 35//35
f 21//21 40//40 29//29
f 30//30 36//36 34//34
f 24//24 23//23 38//38
f 39//39 41//41 37//37
f 19//19 26//26 42//42
f 19//19 42//42 27//27
f 21//21 43//43 40//40
f 34//34 43//43 21//21
f 38//38 23//23 44//44
f 41//41 36//36 37//37
f 28//28 27//27 45//45
f 35//35 28//28 45//45
f 23//23 33//33 44//44
f 34//34 36//36 46//46
f 36//36 41//41 47//47
f 48//48 26//26 38//38
f 49//49 33//33 29//29
f 34//34 46//46 43//43
f 36//36 47//47 46//46
f 42//42 50//50 27//27
f 51//51 39//39 35//35
f 45//45 27//27 50//50
f 35//35 45//45 51//51
f 29//29 40//40 49//49
f 46//46 47//47 52//52
f 33//33 53//53 44//44
f 38//38 44//44 48//48
f 26//26 48//48 54//54
f 26//26 54//54 42//42
f 53//53 33//33 49//49
f 52//52 47//47 55//55
f 47//47 41//41 55//55
f 41//41 56//56 55//55
f 41//41 39//39 57//57
f 42//42 54//54 50//50
f 50//50 51//51 45//45
f 57//57 39//39 51//51
f 46//46 52//52 43//43
f 56//56 52//52 55//55
f 53//53 48//48 44//44
f 56//56 41//41 57//57
f 54//54 58//58 50//50
f 51//51 50//50 59//59
f 57//57 51//51 60//60
f 43//43 61//61 40//40
f 43//43 52//52 62//62
f 56//56 63//63 52//52
f 56//56 64//64 63//63
f 65//65 48//48 53//53
f 57//57 66//66 56//56
f 51//51 59//59 60//60
f 40//40 67//67 49//49
f 49//49 67//67 68//68
f 43//43 62//62 61//61
f 64//64 56//56 69//69
f 65//65 70//70 48//48
f 56//56 66//66 69//69
f 48//48 70//70 54//54
f 57//57 60//60 66//66
f 67//67 40//40 71//71
f 71//71 40//40 61//61
f 63//63 72//72 52//52
f 63//63 73//73 72//72
f 53//53 49//49 74//74
f 73//73 63//63 64//64
f 74//74 65//65 53//53
f 69//69 73//73 64//64
f 75//75 69//69 66//66
f 59//59 50//50 76//76
f 72//72 62//62 52//52
f 73//73 77//77 72//72
f 69//69 77//77 73//73
f 77//77 69//69 75//75
f 75//75 66//66 78//78
f 79//79 60//60 80//80
f 66//66 60//60 79//79
f 61//61 62//62 71//71
f 77//77 81//81 72//72
f 49//49 68//68 74//74
f 65//65 74//74 82//82
f 65//65 82//82 70//70
f 78//78 66//66 79//79
f 50//50 58//58 76//76
f 59//59 80//80 60//60
f 68//68 67//67 83//83
f 72//72 84//84 62//62
f 68//68 83//83 74//74
f 75//75 85//85 77//77
f 78//78 86//86 75//75
f 85//85 75//75 86//86
f 70//70 58//58 54//54
f 78//78 79//79 87//87
f 79//79 80//80 87//87
f 71//71 88//88 67//67
f 81//81 84//84 72//72
f 77//77 85//85 89//89
f 83//83 82//82 74//74
f 70//70 82//82 58//58
f 78//78 87//87 86//86
f 59//59 90//90 80//80
f 62//62 91//91 71//71
f 84//84 92//92 62//62
f 81//81 93//93 84//84
f 81//81 94//94 93//93
f 81//81 77//77 94//94
f 89//89 94//94 77//77
f 85//85 86//86 89//89
f 95//95 86//86 87//87
f 76//76 58//58 96//96
f 59//59 76//76 97//97
f 59//59 97//97 90//90
f 87//87 80//80 90//90
f 67//67 98//98 83//83
f 67//67 88//88 98//98
f 62//62 92//92 91//91
f 89//89 86//86 95//95
f 82//82 96//96 58//58
f 76//76 96//96 99//99
f 71//71 100//100 88//88
f 71//71 91//91 100//100
f 93//93 94//94 101//101
f 83//83 102//102 82//82
f 89//89 103//103 94//94
f 103//103 101//101 94//94
f 89//89 95//95 103//103
f 82//82 102//102 104//104
f 82//82 104//104 96//96
f 103//103 95//95 105//105
f 76//76 99//99 97//97
f 87//87 90//90 106//106
f 95//95 87//87 106//106
f 98//98 107//107 83//83
f 93//93 108//108 84//84
f 107//107 102//102 83//83
f 105//105 95//95 106//106
f 109//109 101//101 103//103
f 109//109 103//103 105//105
f 110//110 106//106 90//90
f 88//88 111//111 98//98
f 98//98 111//111 112//112
f 84//84 113//113 92//92
f 98//98 112//112 107//107
f 93//93 114//114 108//108
f 93//93 101//101 114//114
f 101//101 115//115 114//114
f 101//101 116//116 115//115
f 107//107 104//104 102//102
f 109//109 116//116 101//101
f 104//104 99//99 96//96
f 90//90 97//97 117//117
f 105//105 106//106 118//118
f 119//119 109//109 105//105
f 88//88 100//100 111//111
f 84//84 108//108 113//113
f 107//107 120//120 104//104
f 104//104 121//121 99//99
f 90//90 117//117 122//122
f 109//109 119//119 116//116
f 110//110 90//90 122//122
f 119//119 105//105 118//118
f 123//123 100//100 124//124
f 100//100 91//91 124//124
f 123//123 111//111 100//100
f 92//92 124//124 91//91
f 113//113 108//108 125//125
f 120//120 107//107 112//112
f 104//104 120//120 121//121
f 115//115 116//116 126//126
f 117//117 97//97 99//99
f 110//110 122//122 127//127
f 118//118 106//106 128//128
f 119//119 118//118 129//129
f 116//116 119//119 130//130
f 113//113 124//124 92//92
f 114//114 125//125 108//108
f 115//115 131//131 114//114
f 99//99 121//121 132//132
f 115//115 126//126 131//131
f 126//126 116//116 130//130
f 106//106 110//110 128//128
f 130//130 119//119 129//129
f 133//133 111//111 123//123
f 124//124 113//113 134//134
f 133//133 135//135 112//112
f 133//133 112//112 111//111
f 120//120 112//112 135//135
f 125//125 114//114 136//136
f 99//99 132//132 117//117
f 131//131 126//126 137//137
f 128//128 110//110 138//138
f 110//110 127//127 138//138
f 137//137 126//126 130//130
f 118//118 128//128 129//129
f 137//137 130//130 139//139
f 140//140 130//130 129//129
f 139//139 130//130 140//140
f 123//123 141//141 133//133
f 124//124 141//141 123//123
f 124//124 142//142 141//141
f 124//124 134//134 142//142
f 125//125 143//143 113//113
f 125//125 136//136 143//143
f 144//144 136//136 114//114
f 114//114 131//131 144//144
f 139//139 145//145 137//137
f 133//133 141//141 135//135
f 142//142 146//146 141//141
f 113//113 147//147 134//134
f 143//143 147//147 113//113
f 132//132 148//148 117//117
f 136//136 144//144 149//149
f 132//132 121//121 148//148
f 122//122 117//117 150//150
f 127//127 122//122 151//151
f 152//152 144//144 131//131
f 131//131 153//153 152//152
f 137//137 153//153 131//131
f 145//145 153//153 137//137
f 129//129 128//128 154//154
f 140//140 129//129 154//154
f 140//140 154//154 155//155
f 139//139 140//140 155//155
f 139//139 155//155 145//145
f 142//142 156//156 146//146
f 142//142 157//157 156//156
f 134//134 157//157 142//142
f 147//147 157//157 134//134
f 147//147 158//158 157//157
f 159//159 121//121 120//120
f 135//135 159//159 120//120
f 160//160 121//121 159//159
f 148//148 160//160 150//150
f 160//160 161//161 150//150
f 143//143 162//162 147//147
f 143//143 149//149 162//162
f 136//136 149//149 143//143
f 148//148 121//121 160//160
f 150//150 117//117 148//148
f 151//151 122//122 150//150
f 144//144 152//152 163//163
f 164//164 127//127 151//151
f 138//138 127//127 164//164
f 138//138 165//165 154//154
f 154//154 128//128 138//138
f 141//141 159//159 135//135
f 159//159 141//141 166//166
f 141//141 167//167 166//166
f 156//156 166//166 167//167
f 168//168 166//166 156//156
f 157//157 168//168 156//156
f 168//168 157//157 158//158
f 160//160 159//159 166//166
f 168//168 161//161 166//166
f 169//169 161//161 168//168
f 158//158 169//169 168//168
f 158//158 147//147 170//170
f 169//169 158//158 170//170
f 170//170 147//147 162//162
f 161//161 160//160 166//166
f 169//169 151//151 161//161
f 151//151 150//150 161//161
f 170//170 151//151 169//169
f 162//162 149//149 171//171
f 164//164 162//162 172//172
f 170//170 162//162 164//164
f 171//171 172//172 162//162
f 171//171 149//149 163//163
f 149//149 144//144 163//163
f 164//164 151//151 170//170
f 163//163 172//172 171//171
f 163//163 152//152 173//173
f 138//138 164//164 172//172
f 163//163 138//138 172//172
f 173//173 165//165 163//163
f 152//152 174//174 173//173
f 152//152 153//153 174//174
f 165//165 138//138 163//163
f 173//173 154//154 165//165
f 174//174 154//154 173//173
f 174//174 153//153 145//145
f 145//145 155//155 174//174
f 155//155 154//154 174//174
