# Blender v2.92.0 OBJ File: 'convert_to_one_sided.blend'
# www.blender.org
mtllib 501L.mtl
o Cube
v 0.001000 0.001000 -0.001000
v 0.001000 -0.001000 -0.001000
v 0.001000 0.001000 0.001000
v 0.001000 -0.001000 0.001000
v -0.001000 0.001000 -0.001000
v -0.001000 -0.001000 -0.001000
v -0.001000 0.001000 0.001000
v -0.001000 -0.001000 0.001000
vt 0.625000 0.500000
vt 0.875000 0.500000
vt 0.875000 0.750000
vt 0.625000 0.750000
vt 0.375000 0.750000
vt 0.625000 1.000000
vt 0.375000 1.000000
vt 0.375000 0.000000
vt 0.625000 0.000000
vt 0.625000 0.250000
vt 0.375000 0.250000
vt 0.125000 0.500000
vt 0.375000 0.500000
vt 0.125000 0.750000
vn 0.0000 1.0000 0.0000
vn 0.0000 0.0000 1.0000
vn -1.0000 0.0000 0.0000
vn 0.0000 -1.0000 0.0000
vn 1.0000 0.0000 0.0000
vn 0.0000 0.0000 -1.0000
usemtl Material
s off
f 1/1/1 5/2/1 7/3/1 3/4/1
f 4/5/2 3/4/2 7/6/2 8/7/2
f 8/8/3 7/9/3 5/10/3 6/11/3
f 6/12/4 2/13/4 4/5/4 8/14/4
f 2/13/5 1/1/5 3/4/5 4/5/5
f 6/11/6 5/10/6 1/1/6 2/13/6
o 501
v 7.825909 0.847764 3.468816
v 7.841129 0.845974 3.465946
v 7.873698 0.818912 3.508305
v 7.901148 0.832452 3.502215
v 7.821270 0.851279 3.464506
v 7.826759 0.850657 3.469306
v 7.861329 0.849439 3.481665
v 7.838120 0.854223 3.473276
v 7.831059 0.836591 3.506315
v 7.938318 0.840993 3.523575
v 7.895908 0.853492 3.503875
v 7.968388 0.804046 3.553094
v 7.841769 0.845541 3.513055
v 7.976247 0.842713 3.555164
v 7.873929 0.855825 3.505095
v 7.849629 0.814326 3.537225
v 7.999777 0.815371 3.566144
v 7.940238 0.850941 3.549705
v 7.900918 0.841357 3.575704
v 7.884158 0.782362 3.595474
v 8.007017 0.762656 3.646643
v 7.848069 0.820708 3.571614
v 7.869139 0.784899 3.625834
v 7.853729 0.813289 3.578874
v 8.037666 0.798368 3.592344
v 7.888119 0.807285 3.651413
v 8.010237 0.833809 3.643273
v 8.051376 0.832833 3.620674
v 7.943668 0.742126 3.712582
v 8.074736 0.783868 3.628413
v 8.108545 0.797496 3.638073
v 8.059966 0.823335 3.612454
v 7.907318 0.754891 3.711493
v 8.147665 0.755294 3.691633
v 8.144635 0.820807 3.678803
v 8.194255 0.774494 3.695573
v 8.197905 0.791100 3.693903
v 7.876928 0.791471 3.648323
v 8.201434 0.800126 3.705013
v 8.058097 0.700891 3.819441
v 8.300584 0.770804 3.756962
v 7.974617 0.814199 3.690763
v 8.206024 0.716636 3.782801
v 7.897688 0.767223 3.707762
v 8.116466 0.822981 3.690373
v 8.244574 0.746179 3.743742
v 8.297813 0.751602 3.761332
v 7.921778 0.759334 3.762342
v 7.965297 0.715860 3.822471
v 8.112455 0.790598 3.795101
v 8.249944 0.795789 3.774202
v 8.375752 0.722309 3.826271
v 7.934148 0.743634 3.789621
v 7.976167 0.774076 3.780871
v 8.354523 0.751960 3.794151
v 8.421572 0.742602 3.835001
v 8.343573 0.772229 3.800381
v 8.036197 0.739416 3.898060
v 8.359322 0.756709 3.909870
v 8.430701 0.763224 3.868940
v 8.197385 0.678564 3.878630
v 8.400502 0.658909 3.957409
v 8.485421 0.714496 3.868030
v 8.506461 0.721536 3.871780
v 7.953368 0.729056 3.853380
v 8.516601 0.741265 3.887290
v 8.031417 0.665541 3.955279
v 7.989577 0.690089 3.915520
v 8.549350 0.719741 3.895160
v 7.970627 0.734504 3.852031
v 8.194064 0.645323 3.986379
v 8.552270 0.690621 3.924020
v 8.551010 0.712030 3.899500
v 7.975477 0.708638 3.889700
v 8.642609 0.715471 3.943739
v 8.163745 0.728663 3.962629
v 8.667948 0.697182 3.962289
v 8.636599 0.724793 3.947659
v 8.574010 0.737973 3.926170
v 8.551559 0.740256 3.937320
v 8.712078 0.669308 4.006069
v 8.006507 0.696661 3.953959
v 8.020737 0.673213 3.990229
v 8.669269 0.639651 4.060808
v 8.716428 0.701880 3.984919
v 8.724547 0.702868 3.991449
v 8.695838 0.713168 3.989299
v 8.097266 0.627289 4.061218
v 8.777607 0.691962 4.023058
v 8.589749 0.690532 4.066058
v 8.353433 0.610241 4.078087
v 8.531390 0.605518 4.113207
v 8.844195 0.653071 4.089997
v 8.810476 0.679489 4.047448
v 8.820227 0.689276 4.048838
v 8.066836 0.702759 3.994939
v 8.327143 0.693966 4.052818
v 8.063437 0.637359 4.072468
v 8.192015 0.658254 4.116227
v 8.230644 0.595616 4.125737
v 8.967045 0.674338 4.131347
v 8.031047 0.667313 4.027438
v 8.883426 0.683100 4.084787
v 8.080916 0.645774 4.089997
v 8.946255 0.678902 4.116427
v 8.851256 0.684874 4.098827
v 8.069606 0.637870 4.089727
v 8.837696 0.622381 4.159236
v 8.988535 0.677858 4.139817
v 8.840816 0.662343 4.181936
v 8.127035 0.600223 4.149357
v 8.110076 0.605361 4.170486
v 8.735987 0.595699 4.200536
v 9.002264 0.649304 4.194716
v 9.093192 0.679944 4.194216
v 9.082303 0.682062 4.186026
v 8.387512 0.636420 4.176476
v 9.010094 0.678316 4.163486
v 9.059233 0.678644 4.176926
v 8.118786 0.598038 4.183346
v 8.159815 0.604737 4.206566
v 8.679089 0.636106 4.201626
v 8.225663 0.572568 4.205436
v 8.414512 0.577813 4.192856
v 8.915826 0.620289 4.215556
v 9.165232 0.691036 4.223186
v 8.871117 0.637271 4.244385
v 9.029124 0.677204 4.204376
v 9.133223 0.685663 4.216516
v 9.178962 0.688094 4.230525
v 9.166761 0.683475 4.244045
v 8.231194 0.620962 4.193336
v 8.152045 0.582519 4.214296
v 8.616969 0.573432 4.246465
v 8.145815 0.581357 4.218096
v 9.009884 0.631529 4.248675
v 9.229832 0.709063 4.260215
v 9.034214 0.655541 4.256045
v 9.253621 0.693187 4.264865
v 9.225911 0.690287 4.250475
v 8.269613 0.571495 4.236715
v 8.418962 0.564870 4.260715
v 8.926995 0.616386 4.255025
v 9.092893 0.658115 4.260045
v 9.259351 0.712291 4.258275
v 8.337593 0.569831 4.277725
v 8.776896 0.594583 4.266105
v 8.310083 0.605132 4.224686
v 9.021144 0.637836 4.272445
v 8.489601 0.603940 4.240335
v 8.749368 0.605898 4.259665
v 9.186051 0.680288 4.269945
v 9.220101 0.706174 4.262215
v 9.173573 0.678406 4.256645
v 9.243131 0.687037 4.255765
v 8.451111 0.557536 4.266935
v 8.608219 0.575835 4.267915
v 8.728988 0.582641 4.274905
v 8.196255 0.580352 4.227365
v 8.342862 0.587532 4.241446
v 8.549470 0.581206 4.263005
v 8.943694 0.620920 4.269285
v 9.096713 0.653823 4.268705
v 8.914865 0.623373 4.265705
v 9.128013 0.660374 4.267465
v 8.394512 0.559998 4.250145
v 8.341453 0.527362 4.257505
v 8.587649 0.570314 4.263955
v 8.697289 0.583109 4.269915
v 8.801066 0.599828 4.262565
v 9.021053 0.632149 4.269895
v 9.003544 0.629987 4.265285
v 9.170992 0.667549 4.266775
v 9.211651 0.683863 4.253535
vn -0.5746 -0.5587 -0.5981
vn 0.1581 -0.2580 -0.9531
vn -0.0165 -0.8524 -0.5226
vn 0.4367 -0.2883 -0.8522
vn -0.7912 0.5084 -0.3400
vn -0.0875 0.3612 -0.9284
vn 0.3910 0.4304 -0.8136
vn -0.0316 0.9308 -0.3641
vn -0.9824 -0.1255 0.1385
vn 0.5358 0.3223 -0.7804
vn 0.3080 0.8471 -0.4330
vn 0.2949 -0.6659 -0.6853
vn -0.5324 0.7970 0.2850
vn 0.4211 0.7996 -0.4281
vn -0.0708 0.9947 0.0748
vn -0.6512 -0.7453 -0.1433
vn 0.5337 -0.0907 -0.8408
vn 0.1067 0.9942 0.0093
vn -0.1798 0.9395 0.2916
vn -0.2995 -0.9230 -0.2416
vn 0.0542 -0.9103 -0.4104
vn -0.8903 0.2815 0.3579
vn -0.8456 -0.5245 0.0992
vn -0.9399 -0.2863 0.1863
vn 0.4552 -0.4343 -0.7773
vn -0.5090 0.7455 0.4302
vn -0.0214 0.9755 0.2187
vn 0.2490 0.9564 -0.1526
vn -0.1941 -0.9550 -0.2244
vn 0.3207 -0.6793 -0.6601
vn 0.5435 -0.0251 -0.8391
vn 0.5396 0.5211 -0.6613
vn -0.6287 -0.7772 0.0273
vn 0.2169 -0.7848 -0.5805
vn 0.3377 0.9060 -0.2554
vn 0.4251 -0.4191 -0.8023
vn 0.5322 0.1966 -0.8235
vn -0.9202 0.1190 0.3728
vn 0.4944 0.6588 -0.5670
vn -0.0696 -0.9533 -0.2937
vn 0.5518 0.1353 -0.8229
vn -0.1749 0.9160 0.3610
vn 0.0960 -0.9002 -0.4247
vn -0.9241 -0.2173 0.3144
vn 0.0718 0.9868 0.1451
vn 0.2583 -0.7372 -0.6243
vn 0.4149 -0.4612 -0.7843
vn -0.7660 0.4546 0.4546
vn -0.5263 -0.8477 -0.0662
vn -0.0675 0.9405 0.3331
vn 0.1965 0.9804 0.0163
vn 0.2663 -0.7068 -0.6554
vn -0.8869 -0.3909 0.2463
vn -0.2974 0.8587 0.4173
vn 0.4668 -0.3661 -0.8050
vn 0.4617 -0.0042 -0.8870
vn 0.4361 0.7501 -0.4971
vn -0.2576 0.8755 0.4089
vn 0.0124 0.9488 0.3156
vn 0.2074 0.9749 -0.0808
vn 0.0134 -0.9433 -0.3315
vn 0.0687 -0.9184 -0.3897
vn 0.2843 -0.5602 -0.7780
vn 0.3967 -0.2730 -0.8764
vn -0.8633 0.2342 0.4471
vn 0.4110 0.6444 -0.6449
vn -0.3498 -0.9253 -0.1466
vn -0.7124 -0.6981 0.0720
vn 0.4653 0.0170 -0.8850
vn -0.4332 0.7845 0.4437
vn -0.0330 -0.9496 -0.3117
vn 0.1876 -0.8042 -0.5640
vn 0.3685 -0.5178 -0.7721
vn -0.9000 -0.3396 0.2732
vn 0.4844 0.2663 -0.8333
vn -0.0731 0.9158 0.3949
vn 0.4033 -0.4132 -0.8165
vn 0.3929 0.7918 -0.4676
vn 0.2493 0.9525 -0.1748
vn 0.0944 0.9736 0.2078
vn 0.2532 -0.7555 -0.6042
vn -0.6819 0.5381 0.4954
vn -0.8750 -0.4132 0.2522
vn 0.1095 -0.9152 -0.3879
vn 0.5122 0.0511 -0.8573
vn 0.4888 0.5849 -0.6472
vn 0.2254 0.9730 -0.0502
vn -0.1955 -0.9522 -0.2346
vn 0.5215 0.0351 -0.8525
vn -0.0078 0.9345 0.3558
vn 0.0154 -0.9456 -0.3250
vn 0.0642 -0.9438 -0.3243
vn 0.2600 -0.8145 -0.5186
vn 0.4164 -0.4575 -0.7857
vn 0.4059 0.7371 -0.5404
vn -0.2598 0.8474 0.4631
vn -0.0234 0.9090 0.4162
vn -0.6382 -0.7689 0.0388
vn -0.1116 0.8811 0.4596
vn -0.0488 -0.9561 -0.2889
vn 0.4096 -0.4816 -0.7747
vn -0.8334 0.2387 0.4984
vn 0.4861 0.1242 -0.8650
vn -0.4526 0.7030 0.5486
vn 0.2928 0.8145 -0.5009
vn 0.0582 0.9967 0.0561
vn -0.8850 -0.0654 0.4611
vn 0.1696 -0.9242 -0.3423
vn 0.4394 0.2808 -0.8533
vn -0.0917 0.9265 0.3649
vn -0.2887 -0.9432 -0.1642
vn -0.7599 -0.6070 0.2326
vn 0.1138 -0.9697 -0.2163
vn 0.2760 -0.8831 -0.3796
vn 0.3631 -0.6896 -0.6265
vn 0.4268 0.0451 -0.9032
vn -0.0323 0.8855 0.4635
vn 0.0511 0.9908 -0.1257
vn 0.2459 0.7894 -0.5625
vn -0.6738 0.2792 0.6841
vn -0.2360 0.6766 0.6975
vn -0.0745 0.8743 0.4797
vn -0.0716 -0.9911 -0.1123
vn 0.0213 -0.9767 -0.2137
vn 0.1827 -0.9556 -0.2311
vn 0.4772 -0.4126 -0.7759
vn -0.1174 0.8010 0.5870
vn -0.0892 0.9663 0.2414
vn -0.0017 0.9963 -0.0855
vn 0.3480 0.5614 -0.7508
vn 0.3756 -0.8949 -0.2410
vn -0.0682 0.8553 0.5136
vn -0.3146 -0.9444 0.0952
vn 0.0835 -0.9956 -0.0423
vn -0.5310 -0.4735 0.7027
vn 0.2486 -0.9650 -0.0834
vn 0.6070 -0.5760 -0.5476
vn -0.1201 0.6931 0.7108
vn 0.4930 0.8141 -0.3068
vn -0.0136 0.9940 0.1082
vn -0.1554 -0.8539 0.4967
vn 0.0016 -0.9993 0.0365
vn 0.1538 -0.9770 0.1474
vn 0.2999 -0.9480 0.1067
vn 0.6168 -0.2749 0.7376
vn -0.0360 -0.9931 0.1118
vn 0.1584 -0.9084 0.3870
vn -0.0621 0.7576 0.6498
vn 0.2070 -0.8269 0.5228
vn -0.0529 0.7433 0.6668
vn -0.0631 0.5902 0.8048
vn 0.3641 -0.5546 0.7482
vn 0.4738 -0.7969 0.3748
vn -0.0944 0.7852 0.6120
vn -0.0377 0.7322 0.6800
vn -0.0093 -0.4716 0.8818
vn 0.0674 -0.8952 0.4406
vn 0.0913 -0.4424 0.8922
vn -0.2373 0.0957 0.9667
vn -0.0928 0.4504 0.8880
vn -0.0688 0.3125 0.9474
vn 0.0349 -0.3510 0.9357
vn 0.0528 -0.1237 0.9909
vn -0.0637 0.3874 0.9197
vn -0.0959 0.4937 0.8643
vn -0.1240 0.2050 0.9709
vn -0.1739 0.5237 0.8340
vn -0.0357 -0.1203 0.9921
vn -0.0180 0.2268 0.9738
vn 0.0516 -0.0140 0.9986
vn 0.0231 -0.1161 0.9930
vn -0.0658 0.3541 0.9329
vn 0.0398 0.3611 0.9317
vn 0.1274 0.2121 0.9689
usemtl mtl1.453
s 1
f 9//7 10//8 11//9
f 11//9 10//8 12//10
f 9//7 13//11 14//12
f 10//8 9//7 14//12
f 15//13 12//10 10//8
f 15//13 10//8 14//12
f 14//12 13//11 16//14
f 16//14 15//13 14//12
f 17//15 13//11 9//7
f 18//16 12//10 15//13
f 19//17 18//16 15//13
f 15//13 16//14 19//17
f 20//18 11//9 12//10
f 13//11 21//19 16//14
f 18//16 19//17 22//20
f 16//14 21//19 23//21
f 19//17 16//14 23//21
f 11//9 24//22 9//7
f 25//23 20//18 12//10
f 25//23 12//10 18//16
f 13//11 17//15 21//19
f 19//17 26//24 22//20
f 21//19 27//25 23//21
f 23//21 26//24 19//17
f 24//22 11//9 28//26
f 11//9 29//27 28//26
f 20//18 29//27 11//9
f 9//7 24//22 17//15
f 17//15 30//28 21//19
f 24//22 28//26 31//29
f 24//22 32//30 17//15
f 25//23 33//31 20//18
f 21//19 34//32 27//25
f 26//24 27//25 35//33
f 26//24 36//34 22//20
f 27//25 26//24 23//21
f 29//27 37//35 28//26
f 24//22 31//29 32//30
f 38//36 29//27 20//18
f 20//18 33//31 38//36
f 39//37 33//31 25//23
f 17//15 32//30 30//28
f 39//37 25//23 40//38
f 25//23 18//16 40//38
f 21//19 30//28 34//32
f 40//38 18//16 22//20
f 40//38 22//20 36//34
f 36//34 26//24 35//33
f 28//26 41//39 31//29
f 28//26 37//35 41//39
f 38//36 42//40 29//27
f 33//31 39//37 38//36
f 43//41 40//38 36//34
f 39//37 44//42 38//36
f 45//43 44//42 39//37
f 32//30 46//44 30//28
f 47//45 45//43 39//37
f 40//38 47//45 39//37
f 34//32 30//28 46//44
f 47//45 40//38 43//41
f 29//27 48//46 37//35
f 38//36 44//42 42//40
f 32//30 31//29 46//44
f 47//45 49//47 45//43
f 27//25 34//32 50//48
f 27//25 50//48 35//33
f 29//27 51//49 48//46
f 42//40 51//49 29//27
f 46//44 31//29 52//50
f 49//47 44//42 45//43
f 36//34 35//33 53//51
f 43//41 36//34 53//51
f 31//29 41//39 52//50
f 42//40 44//42 54//52
f 44//42 49//47 55//53
f 56//54 34//32 46//44
f 57//55 41//39 37//35
f 42//40 54//52 51//49
f 44//42 55//53 54//52
f 50//48 58//56 35//33
f 59//57 47//45 43//41
f 53//51 35//33 58//56
f 43//41 53//51 59//57
f 37//35 48//46 57//55
f 54//52 55//53 60//58
f 41//39 61//59 52//50
f 46//44 52//50 56//54
f 34//32 56//54 62//60
f 34//32 62//60 50//48
f 61//59 41//39 57//55
f 60//58 55//53 63//61
f 55//53 49//47 63//61
f 49//47 64//62 63//61
f 49//47 47//45 65//63
f 50//48 62//60 58//56
f 58//56 59//57 53//51
f 65//63 47//45 59//57
f 54//52 60//58 51//49
f 64//62 60//58 63//61
f 61//59 56//54 52//50
f 64//62 49//47 65//63
f 62//60 66//64 58//56
f 59//57 58//56 67//65
f 65//63 59//57 68//66
f 51//49 69//67 48//46
f 51//49 60//58 70//68
f 64//62 71//69 60//58
f 64//62 72//70 71//69
f 73//71 56//54 61//59
f 65//63 74//72 64//62
f 59//57 67//65 68//66
f 48//46 75//73 57//55
f 57//55 75//73 76//74
f 51//49 70//68 69//67
f 72//70 64//62 77//75
f 73//71 78//76 56//54
f 64//62 74//72 77//75
f 56//54 78//76 62//60
f 65//63 68//66 74//72
f 75//73 48//46 79//77
f 79//77 48//46 69//67
f 71//69 80//78 60//58
f 71//69 81//79 80//78
f 61//59 57//55 82//80
f 81//79 71//69 72//70
f 82//80 73//71 61//59
f 77//75 81//79 72//70
f 83//81 77//75 74//72
f 67//65 58//56 84//82
f 80//78 70//68 60//58
f 81//79 85//83 80//78
f 77//75 85//83 81//79
f 85//83 77//75 83//81
f 83//81 74//72 86//84
f 87//85 68//66 88//86
f 74//72 68//66 87//85
f 69//67 70//68 79//77
f 85//83 89//87 80//78
f 57//55 76//74 82//80
f 73//71 82//80 90//88
f 73//71 90//88 78//76
f 86//84 74//72 87//85
f 58//56 66//64 84//82
f 67//65 88//86 68//66
f 76//74 75//73 91//89
f 80//78 92//90 70//68
f 76//74 91//89 82//80
f 83//81 93//91 85//83
f 86//84 94//92 83//81
f 93//91 83//81 94//92
f 78//76 66//64 62//60
f 86//84 87//85 95//93
f 87//85 88//86 95//93
f 79//77 96//94 75//73
f 89//87 92//90 80//78
f 85//83 93//91 97//95
f 91//89 90//88 82//80
f 78//76 90//88 66//64
f 86//84 95//93 94//92
f 67//65 98//96 88//86
f 70//68 99//97 79//77
f 92//90 100//98 70//68
f 89//87 101//99 92//90
f 89//87 102//100 101//99
f 89//87 85//83 102//100
f 97//95 102//100 85//83
f 93//91 94//92 97//95
f 103//101 94//92 95//93
f 84//82 66//64 104//102
f 67//65 84//82 105//103
f 67//65 105//103 98//96
f 95//93 88//86 98//96
f 75//73 106//104 91//89
f 75//73 96//94 106//104
f 70//68 100//98 99//97
f 97//95 94//92 103//101
f 90//88 104//102 66//64
f 84//82 104//102 107//105
f 79//77 108//106 96//94
f 79//77 99//97 108//106
f 101//99 102//100 109//107
f 91//89 110//108 90//88
f 97//95 111//109 102//100
f 111//109 109//107 102//100
f 97//95 103//101 111//109
f 90//88 110//108 112//110
f 90//88 112//110 104//102
f 111//109 103//101 113//111
f 84//82 107//105 105//103
f 95//93 98//96 114//112
f 103//101 95//93 114//112
f 106//104 115//113 91//89
f 101//99 116//114 92//90
f 115//113 110//108 91//89
f 113//111 103//101 114//112
f 117//115 109//107 111//109
f 117//115 111//109 113//111
f 118//116 114//112 98//96
f 96//94 119//117 106//104
f 106//104 119//117 120//118
f 92//90 121//119 100//98
f 106//104 120//118 115//113
f 101//99 122//120 116//114
f 101//99 109//107 122//120
f 109//107 123//121 122//120
f 109//107 124//122 123//121
f 115//113 112//110 110//108
f 117//115 124//122 109//107
f 112//110 107//105 104//102
f 98//96 105//103 125//123
f 113//111 114//112 126//124
f 127//125 117//115 113//111
f 96//94 108//106 119//117
f 92//90 116//114 121//119
f 115//113 128//126 112//110
f 112//110 129//127 107//105
f 98//96 125//123 130//128
f 117//115 127//125 124//122
f 118//116 98//96 130//128
f 127//125 113//111 126//124
f 131//129 108//106 132//130
f 108//106 99//97 132//130
f 131//129 119//117 108//106
f 100//98 132//130 99//97
f 121//119 116//114 133//131
f 128//126 115//113 120//118
f 112//110 128//126 129//127
f 123//121 124//122 134//132
f 125//123 105//103 107//105
f 118//116 130//128 135//133
f 126//124 114//112 136//134
f 127//125 126//124 137//135
f 124//122 127//125 138//136
f 121//119 132//130 100//98
f 122//120 133//131 116//114
f 123//121 139//137 122//120
f 107//105 129//127 140//138
f 123//121 134//132 139//137
f 134//132 124//122 138//136
f 114//112 118//116 136//134
f 138//136 127//125 137//135
f 141//139 119//117 131//129
f 132//130 121//119 142//140
f 141//139 143//141 120//118
f 141//139 120//118 119//117
f 128//126 120//118 143//141
f 133//131 122//120 144//142
f 107//105 140//138 125//123
f 139//137 134//132 145//143
f 136//134 118//116 146//144
f 118//116 135//133 146//144
f 145//143 134//132 138//136
f 126//124 136//134 137//135
f 145//143 138//136 147//145
f 148//146 138//136 137//135
f 147//145 138//136 148//146
f 131//129 149//147 141//139
f 132//130 149//147 131//129
f 132//130 150//148 149//147
f 132//130 142//140 150//148
f 133//131 151//149 121//119
f 133//131 144//142 151//149
f 152//150 144//142 122//120
f 122//120 139//137 152//150
f 147//145 153//151 145//143
f 141//139 149//147 143//141
f 150//148 154//152 149//147
f 121//119 155//153 142//140
f 151//149 155//153 121//119
f 140//138 156//154 125//123
f 144//142 152//150 157//155
f 140//138 129//127 156//154
f 130//128 125//123 158//156
f 135//133 130//128 159//157
f 160//158 152//150 139//137
f 139//137 161//159 160//158
f 145//143 161//159 139//137
f 153//151 161//159 145//143
f 137//135 136//134 162//160
f 148//146 137//135 162//160
f 148//146 162//160 163//161
f 147//145 148//146 163//161
f 147//145 163//161 153//151
f 150//148 164//162 154//152
f 150//148 165//163 164//162
f 142//140 165//163 150//148
f 155//153 165//163 142//140
f 155//153 166//164 165//163
f 167//165 129//127 128//126
f 143//141 167//165 128//126
f 168//166 129//127 167//165
f 156//154 168//166 158//156
f 168//166 169//167 158//156
f 151//149 170//168 155//153
f 151//149 157//155 170//168
f 144//142 157//155 151//149
f 156//154 129//127 168//166
f 158//156 125//123 156//154
f 159//157 130//128 158//156
f 152//150 160//158 171//169
f 172//170 135//133 159//157
f 146//144 135//133 172//170
f 146//144 173//171 162//160
f 162//160 136//134 146//144
f 149//147 167//165 143//141
f 167//165 149//147 174//172
f 149//147 175//173 174//172
f 164//162 174//172 175//173
f 176//174 174//172 164//162
f 165//163 176//174 164//162
f 176//174 165//163 166//164
f 168//166 167//165 174//172
f 176//174 169//167 174//172
f 177//175 169//167 176//174
f 166//164 177//175 176//174
f 166//164 155//153 178//176
f 177//175 166//164 178//176
f 178//176 155//153 170//168
f 169//167 168//166 174//172
f 177//175 159//157 169//167
f 159//157 158//156 169//167
f 178//176 159//157 177//175
f 170//168 157//155 179//177
f 172//170 170//168 180//178
f 178//176 170//168 172//170
f 179//177 180//178 170//168
f 179//177 157//155 171//169
f 157//155 152//150 171//169
f 172//170 159//157 178//176
f 171//169 180//178 179//177
f 171//169 160//158 181//179
f 146//144 172//170 180//178
f 171//169 146//144 180//178
f 181//179 173//171 171//169
f 160//158 182//180 181//179
f 160//158 161//159 182//180
f 173//171 146//144 171//169
f 181//179 162//160 173//171
f 182//180 162//160 181//179
f 182//180 161//159 153//151
f 153//151 163//161 182//180
f 163//161 162//160 182//180
