# Blender v2.92.0 OBJ File: 'convert_to_one_sided.blend'
# www.blender.org
mtllib 50L.mtl
o 50
v 7.574553 3.261277 5.159634
v 7.556403 3.301727 5.163074
v 7.617332 3.324066 5.171134
v 7.554563 3.201478 5.190874
v 7.522283 3.255497 5.185114
v 7.640801 3.230798 5.196594
v 7.668041 3.291267 5.187364
v 7.529273 3.316216 5.186503
v 7.573632 3.371105 5.206183
v 7.637681 3.367566 5.196713
v 7.681651 3.348676 5.201483
v 7.630572 3.161848 5.253983
v 7.483593 3.222048 5.250143
v 7.523073 3.174528 5.240513
v 7.495104 3.308966 5.228013
v 7.742480 3.274447 5.231933
v 7.735321 3.320616 5.222353
v 7.515353 3.360636 5.230993
v 7.561983 3.149579 5.249633
v 7.733391 3.200428 5.286822
v 7.743391 3.368556 5.241443
v 7.495903 3.436805 5.322312
v 7.655551 3.425985 5.265832
v 7.536733 3.107159 5.309392
v 7.450614 3.300707 5.314822
v 7.823020 3.255947 5.332912
v 7.794819 3.327526 5.279942
v 7.468304 3.366826 5.304912
v 7.779370 3.398425 5.294982
v 7.722800 3.439115 5.305112
v 7.575083 3.459525 5.305812
v 7.624392 3.094289 5.338582
v 7.490654 3.137859 5.328082
v 7.461404 3.212608 5.329592
v 7.718151 3.123689 5.352982
v 7.802509 3.171588 5.388011
v 7.825069 3.373926 5.335122
v 7.743880 3.455655 5.336412
v 7.691361 3.490034 5.359312
v 7.541633 3.503604 5.368032
v 7.602192 3.045980 5.407731
v 7.859329 3.317176 5.378971
v 7.606512 3.503634 5.361552
v 7.533793 3.064130 5.404791
v 7.426354 3.248677 5.376461
v 7.416034 3.383076 5.396581
v 7.776860 3.439015 5.374811
v 7.699691 3.051470 5.435310
v 7.436694 3.173498 5.400441
v 7.405515 3.304646 5.401101
v 7.853069 3.371986 5.420921
v 7.439824 3.455515 5.421771
v 7.492824 3.505594 5.419091
v 7.762850 3.095549 5.429221
v 7.870519 3.232637 5.445460
v 7.374955 3.301836 5.463890
v 7.634602 3.545663 5.442171
v 7.586623 3.021530 5.464810
v 7.469704 3.103869 5.446321
v 7.405125 3.168568 5.478810
v 7.801169 3.440735 5.463830
v 7.723381 3.503234 5.476560
v 7.553233 3.535524 5.439801
v 7.824239 3.132789 5.473610
v 7.391045 3.238077 5.457320
v 7.890419 3.308496 5.471390
v 7.864698 3.365146 5.504079
v 7.451384 3.497504 5.481990
v 7.490834 3.524324 5.479190
v 7.651491 3.017880 5.481860
v 7.531443 3.044170 5.490640
v 7.370665 3.331846 5.497000
v 7.602422 3.559053 5.500249
v 7.717721 3.022130 5.505709
v 7.763570 3.065740 5.488350
v 7.472914 3.086459 5.511260
v 7.421905 3.141739 5.517030
v 7.364485 3.270477 5.521820
v 7.905468 3.302067 5.527829
v 7.412264 3.408495 5.507430
v 7.804110 3.430005 5.564659
v 7.666021 3.547373 5.540619
v 7.621422 3.019620 5.513400
v 7.384745 3.206758 5.522880
v 7.871999 3.170778 5.531349
v 7.819600 3.105869 5.537239
v 7.489034 3.515114 5.547389
v 7.568923 3.541873 5.548249
v 7.720780 3.509844 5.591359
v 7.633202 3.549493 5.590388
v 7.693431 3.020290 5.522409
v 7.579253 3.039830 5.537669
v 7.513443 3.069290 5.532169
v 7.899209 3.249037 5.539689
v 7.451954 3.459694 5.556169
v 7.682911 3.070589 5.580489
v 7.750210 3.060790 5.541949
v 7.462704 3.110999 5.541809
v 7.854309 3.141639 5.564799
v 7.420885 3.168788 5.558469
v 7.879099 3.313166 5.578749
v 7.382355 3.325236 5.562929
v 7.820779 3.127659 5.590589
v 7.389315 3.259887 5.580978
v 7.868588 3.183938 5.581589
v 7.432494 3.400715 5.612958
v 7.529313 3.117849 5.570799
v 7.760860 3.101039 5.590319
v 7.874849 3.238528 5.634918
v 7.833329 3.378165 5.656358
v 7.554033 3.523514 5.621368
v 7.626752 3.154708 5.648468
v 7.711051 3.128969 5.640168
v 7.485094 3.215688 5.625138
v 7.404025 3.325426 5.644918
v 7.498613 3.480644 5.618588
v 7.765080 3.473234 5.695767
v 7.607842 3.547243 5.681918
v 7.676851 3.537163 5.677068
v 7.768720 3.134939 5.636258
v 7.833149 3.178638 5.641968
v 7.420545 3.282727 5.644818
v 7.458084 3.264267 5.687157
v 7.872989 3.295827 5.670298
v 7.468404 3.436395 5.685358
v 7.568973 3.203698 5.676447
v 7.616402 3.177218 5.698357
v 7.516453 3.229537 5.691607
v 7.424504 3.375376 5.682327
v 7.724141 3.142919 5.686007
v 7.809691 3.155602 5.699999
v 7.853423 3.187289 5.699999
v 7.521101 3.218634 5.699999
v 7.507086 3.226480 5.699999
v 7.446559 3.262128 5.699999
v 7.411888 3.295343 5.699999
v 7.762659 3.146197 5.699999
v 7.705620 3.136590 5.699999
v 7.414624 3.293600 5.699999
v 7.729088 3.135364 5.699999
v 7.411637 3.295990 5.699999
v 7.458807 3.251717 5.699999
v 7.401405 3.343452 5.699999
v 7.459596 3.431828 5.699999
v 7.881624 3.263200 5.699999
v 7.531694 3.502617 5.699999
v 7.883073 3.288985 5.699999
v 7.872860 3.312814 5.699999
v 7.861969 3.199083 5.699999
v 7.884816 3.237930 5.699999
v 7.769825 3.468303 5.699999
v 7.523309 3.493512 5.699999
v 7.418098 3.371730 5.699999
v 7.426769 3.387339 5.699999
v 7.468889 3.443818 5.699999
v 7.762727 3.475528 5.699999
v 7.765676 3.472892 5.699999
v 7.831543 3.390907 5.699999
v 7.541863 3.508647 5.699999
v 7.559928 3.189610 5.699999
v 7.852356 3.359434 5.699999
v 7.596815 3.545842 5.699999
v 7.609018 3.547578 5.699999
v 7.533372 3.503919 5.699999
v 7.617225 3.175168 5.699999
v 7.613641 3.176746 5.699999
v 7.683412 3.535088 5.699999
v 7.666324 3.539320 5.699999
v 7.797049 3.146894 5.699999
v 7.634349 3.134076 5.699999
vn 0.0236 -0.2024 -0.9790
vn -0.2990 0.2520 -0.9204
vn 0.1387 0.2985 -0.9443
vn -0.1165 -0.6063 -0.7866
vn -0.6380 -0.1730 -0.7504
vn 0.3677 -0.4955 -0.7870
vn 0.3987 -0.0781 -0.9137
vn -0.6041 0.3415 -0.7200
vn -0.2235 0.6456 -0.7302
vn 0.1236 0.6112 -0.7818
vn 0.3650 0.3895 -0.8456
vn 0.3021 -0.6955 -0.6519
vn -0.8534 -0.2504 -0.4572
vn -0.5470 -0.5878 -0.5960
vn -0.8322 0.1539 -0.5327
vn 0.5994 -0.2922 -0.7452
vn 0.5592 0.0883 -0.8243
vn -0.6347 0.4781 -0.6071
vn -0.0486 -0.7736 -0.6318
vn 0.5331 -0.5747 -0.6210
vn 0.4761 0.4817 -0.7358
vn -0.5697 0.5960 -0.5659
vn 0.1438 0.7426 -0.6541
vn -0.2830 -0.8042 -0.5227
vn -0.8935 -0.0087 -0.4489
vn 0.7684 -0.3336 -0.5461
vn 0.7589 0.0873 -0.6453
vn -0.8092 0.3058 -0.5018
vn 0.6131 0.5687 -0.5484
vn 0.3035 0.7216 -0.6223
vn -0.1505 0.7517 -0.6421
vn 0.1874 -0.8000 -0.5700
vn -0.7359 -0.5517 -0.3925
vn -0.8801 -0.2574 -0.3990
vn 0.4507 -0.6805 -0.5777
vn 0.6722 -0.5468 -0.4992
vn 0.7996 0.4294 -0.4199
vn 0.4837 0.7718 -0.4128
vn 0.3314 0.8472 -0.4153
vn -0.2609 0.8160 -0.5157
vn 0.0028 -0.8870 -0.4618
vn 0.9100 0.0552 -0.4108
vn 0.0094 0.8504 -0.5260
vn -0.4657 -0.8234 -0.3241
vn -0.8741 -0.1962 -0.4445
vn -0.8787 0.2868 -0.3816
vn 0.6370 0.7361 -0.2289
vn 0.3446 -0.8088 -0.4765
vn -0.8366 -0.3827 -0.3919
vn -0.8953 -0.0527 -0.4424
vn 0.8360 0.5128 -0.1953
vn -0.8028 0.5085 -0.3115
vn -0.5117 0.7743 -0.3724
vn 0.5764 -0.6778 -0.4564
vn 0.8809 -0.3189 -0.3496
vn -0.9459 -0.0058 -0.3244
vn 0.1931 0.9364 -0.2931
vn -0.2069 -0.9625 -0.1752
vn -0.6984 -0.6791 -0.2261
vn -0.8575 -0.4703 -0.2084
vn 0.7033 0.7077 -0.0674
vn 0.5736 0.8106 -0.1178
vn -0.2249 0.9394 -0.2589
vn 0.7343 -0.5918 -0.3326
vn -0.9133 -0.2360 -0.3320
vn 0.9610 0.1416 -0.2374
vn 0.8256 0.5632 0.0351
vn -0.7604 0.6494 -0.0131
vn -0.4104 0.9089 -0.0736
vn 0.0778 -0.9776 -0.1954
vn -0.4703 -0.8796 0.0713
vn -0.9592 0.2786 -0.0478
vn -0.0788 0.9964 -0.0299
vn 0.4225 -0.9042 -0.0621
vn 0.6200 -0.7567 -0.2073
vn -0.6333 -0.7593 0.1494
vn -0.7764 -0.6160 0.1332
vn -0.9941 -0.1000 0.0429
vn 0.9637 0.2542 0.0820
vn -0.8960 0.4390 0.0673
vn 0.7542 0.6545 0.0528
vn 0.3642 0.9309 -0.0287
vn -0.1315 -0.9445 0.3009
vn -0.9162 -0.3844 0.1134
vn 0.8758 -0.4719 -0.1016
vn 0.6641 -0.7474 0.0188
vn -0.5667 0.7842 0.2527
vn -0.3038 0.9495 0.0791
vn 0.6176 0.7865 -0.0073
vn 0.0233 0.9971 0.0718
vn 0.1498 -0.9133 0.3787
vn -0.2632 -0.7600 0.5942
vn -0.4238 -0.7281 0.5388
vn 0.9846 -0.1667 0.0519
vn -0.7962 0.5324 0.2874
vn 0.0197 -0.7370 0.6757
vn 0.4513 -0.7989 0.3977
vn -0.5296 -0.6331 0.5646
vn 0.7670 -0.5942 0.2423
vn -0.6186 -0.5061 0.6009
vn 0.9181 0.3320 0.2165
vn -0.9377 0.2432 0.2480
vn 0.5294 -0.7032 0.4745
vn -0.8279 -0.3028 0.4722
vn 0.8419 -0.4316 0.3240
vn -0.8466 0.5023 0.1758
vn -0.3033 -0.5604 0.7707
vn 0.2885 -0.7815 0.5532
vn 0.9662 -0.2486 0.0680
vn 0.8506 0.5241 -0.0426
vn -0.5034 0.8470 0.1708
vn -0.4022 -0.8141 0.4189
vn -0.0351 -0.8433 0.5363
vn -0.4709 -0.6692 0.5748
vn -0.9916 0.0543 0.1177
vn -0.7045 0.6704 0.2330
vn 0.6998 0.7133 -0.0387
vn -0.2236 0.9747 -0.0049
vn 0.3513 0.9362 0.0122
vn 0.2784 -0.8695 0.4080
vn 0.6892 -0.7022 0.1786
vn -0.7432 -0.6017 0.2927
vn -0.5954 -0.7808 -0.1893
vn 0.9679 0.2180 -0.1252
vn -0.7637 0.6377 -0.1009
vn -0.4555 -0.8902 0.0114
vn -0.5523 -0.7784 -0.2985
vn -0.4704 -0.8411 -0.2671
vn -0.8619 0.4936 -0.1162
vn 0.0196 -0.9936 -0.1109
vn -0.4322 -0.7709 0.4678
vn -0.3807 -0.8216 0.4242
vn -0.3567 -0.8061 0.4722
vn -0.5020 -0.7443 0.4405
vn 0.7402 0.1036 0.6643
vn 0.8510 0.1038 0.5148
vn 0.7404 0.3172 0.5926
vn -0.6546 -0.2516 0.7129
vn 0.0439 -0.6419 0.7655
vn 0.7089 0.3411 0.6174
vn -0.6763 0.4531 0.5808
vn -0.6487 0.4776 0.5926
vn 0.1353 -0.8752 0.4644
vn 0.0072 -0.8348 0.5505
vn -0.5813 -0.6920 0.4280
vn -0.6004 0.5645 0.5665
vn 0.3291 0.6895 0.6452
vn 0.4792 0.5699 0.6675
vn -0.3749 0.6003 0.7065
vn -0.3859 0.7472 0.5411
vn 0.1083 0.7093 0.6966
vn 0.5158 0.5216 0.6796
vn 0.5916 0.4793 0.6483
vn -0.3645 -0.7747 0.5167
vn -0.2310 -0.7778 0.5845
vn -0.0300 0.7102 0.7034
vn 0.6176 0.4638 0.6352
vn -0.6779 0.3935 0.6210
vn -0.4838 0.4472 0.7523
vn 0.7829 -0.1426 0.6056
vn 0.6448 -0.4546 0.6145
vn -0.4756 0.5250 0.7058
vn -0.8011 0.1740 0.5727
vn -0.6877 -0.2518 0.6809
vn -0.3299 -0.5825 0.7429
vn 0.2591 -0.7189 0.6451
vn 0.5852 -0.5176 0.6242
vn 0.4334 -0.6244 0.6498
vn -0.3938 0.5975 0.6985
vn -0.6259 -0.4204 0.6569
usemtl mtl1.1301
s 1
f 1//1 2//2 3//3
f 1//1 4//4 5//5
f 1//1 6//6 4//4
f 7//7 6//6 1//1
f 1//1 5//5 2//2
f 5//5 8//8 2//2
f 7//7 1//1 3//3
f 3//3 2//2 9//9
f 9//9 2//2 8//8
f 10//10 3//3 9//9
f 11//11 3//3 10//10
f 11//11 7//7 3//3
f 4//4 6//6 12//12
f 13//13 5//5 14//14
f 14//14 5//5 4//4
f 5//5 13//13 15//15
f 7//7 16//16 6//6
f 5//5 15//15 8//8
f 16//16 7//7 17//17
f 17//17 7//7 11//11
f 8//8 15//15 18//18
f 9//9 8//8 18//18
f 4//4 12//12 19//19
f 4//4 19//19 14//14
f 6//6 20//20 12//12
f 16//16 20//20 6//6
f 11//11 21//21 17//17
f 22//22 9//9 18//18
f 10//10 23//23 11//11
f 21//21 11//11 23//23
f 23//23 10//10 9//9
f 14//14 19//19 24//24
f 13//13 25//25 15//15
f 20//20 16//16 26//26
f 26//26 16//16 27//27
f 17//17 27//27 16//16
f 21//21 27//27 17//17
f 18//18 15//15 28//28
f 29//29 27//27 21//21
f 21//21 23//23 30//30
f 29//29 21//21 30//30
f 31//31 9//9 22//22
f 23//23 9//9 31//31
f 24//24 19//19 32//32
f 32//32 19//19 12//12
f 14//14 33//33 13//13
f 34//34 13//13 33//33
f 15//15 25//25 28//28
f 18//18 28//28 22//22
f 14//14 24//24 33//33
f 35//35 32//32 12//12
f 34//34 25//25 13//13
f 20//20 26//26 36//36
f 27//27 29//29 37//37
f 29//29 30//30 38//38
f 39//39 30//30 23//23
f 31//31 22//22 40//40
f 24//24 32//32 41//41
f 27//27 42//42 26//26
f 31//31 43//43 23//23
f 30//30 39//39 38//38
f 24//24 44//44 33//33
f 20//20 35//35 12//12
f 34//34 45//45 25//25
f 25//25 46//46 28//28
f 37//37 29//29 47//47
f 28//28 46//46 22//22
f 29//29 38//38 47//47
f 39//39 23//23 43//43
f 41//41 44//44 24//24
f 32//32 35//35 48//48
f 34//34 33//33 49//49
f 20//20 36//36 35//35
f 34//34 49//49 45//45
f 45//45 50//50 25//25
f 27//27 37//37 42//42
f 42//42 37//37 51//51
f 50//50 46//46 25//25
f 37//37 47//47 51//51
f 22//22 46//46 52//52
f 22//22 52//52 53//53
f 40//40 22//22 53//53
f 43//43 31//31 40//40
f 35//35 36//36 54//54
f 42//42 55//55 26//26
f 50//50 56//56 46//46
f 39//39 43//43 57//57
f 44//44 41//41 58//58
f 49//49 59//59 60//60
f 49//49 33//33 59//59
f 36//36 26//26 55//55
f 47//47 61//61 51//51
f 47//47 39//39 62//62
f 38//38 39//39 47//47
f 63//63 40//40 53//53
f 63//63 43//43 40//40
f 57//57 43//43 63//63
f 41//41 32//32 48//48
f 35//35 54//54 48//48
f 33//33 44//44 59//59
f 64//64 54//54 36//36
f 36//36 55//55 64//64
f 65//65 45//45 49//49
f 45//45 65//65 50//50
f 55//55 42//42 66//66
f 50//50 65//65 56//56
f 42//42 51//51 66//66
f 51//51 61//61 67//67
f 53//53 52//52 68//68
f 63//63 53//53 69//69
f 48//48 70//70 41//41
f 44//44 71//71 59//59
f 71//71 44//44 58//58
f 49//49 60//60 65//65
f 66//66 51//51 67//67
f 46//46 56//56 72//72
f 61//61 47//47 62//62
f 53//53 68//68 69//69
f 39//39 57//57 62//62
f 57//57 63//63 73//73
f 70//70 58//58 41//41
f 48//48 74//74 70//70
f 48//48 54//54 75//75
f 64//64 75//75 54//54
f 59//59 76//76 77//77
f 60//60 59//59 77//77
f 65//65 78//78 56//56
f 78//78 72//72 56//56
f 66//66 67//67 79//79
f 72//72 80//80 46//46
f 46//46 80//80 52//52
f 68//68 52//52 80//80
f 61//61 62//62 81//81
f 82//82 62//62 57//57
f 82//82 57//57 73//73
f 58//58 70//70 83//83
f 75//75 74//74 48//48
f 59//59 71//71 76//76
f 84//84 65//65 60//60
f 85//85 86//86 64//64
f 55//55 85//85 64//64
f 68//68 87//87 69//69
f 63//63 69//69 88//88
f 63//63 88//88 73//73
f 82//82 89//89 62//62
f 82//82 73//73 90//90
f 70//70 91//91 83//83
f 74//74 91//91 70//70
f 83//83 71//71 58//58
f 92//92 71//71 83//83
f 93//93 76//76 71//71
f 75//75 64//64 86//86
f 60//60 77//77 84//84
f 84//84 78//78 65//65
f 55//55 66//66 94//94
f 94//94 66//66 79//79
f 80//80 95//95 68//68
f 68//68 95//95 87//87
f 62//62 89//89 81//81
f 69//69 87//87 88//88
f 96//96 83//83 91//91
f 75//75 97//97 74//74
f 74//74 97//97 91//91
f 92//92 93//93 71//71
f 97//97 75//75 86//86
f 98//98 76//76 93//93
f 98//98 77//77 76//76
f 99//99 86//86 85//85
f 100//100 84//84 77//77
f 94//94 85//85 55//55
f 79//79 67//67 101//101
f 72//72 102//102 80//80
f 73//73 88//88 90//90
f 92//92 83//83 96//96
f 91//91 97//97 96//96
f 86//86 103//103 97//97
f 99//99 103//103 86//86
f 77//77 98//98 100//100
f 84//84 100//100 104//104
f 99//99 85//85 105//105
f 78//78 84//84 104//104
f 85//85 94//94 105//105
f 78//78 102//102 72//72
f 94//94 79//79 101//101
f 67//67 81//81 101//101
f 106//106 80//80 102//102
f 61//61 81//81 67//67
f 106//106 95//95 80//80
f 107//107 92//92 96//96
f 108//108 96//96 97//97
f 93//93 92//92 107//107
f 103//103 108//108 97//97
f 93//93 107//107 98//98
f 98//98 107//107 100//100
f 94//94 109//109 105//105
f 104//104 102//102 78//78
f 109//109 94//94 101//101
f 101//101 81//81 110//110
f 87//87 111//111 88//88
f 107//107 96//96 112//112
f 112//112 96//96 113//113
f 100//100 107//107 114//114
f 99//99 105//105 103//103
f 100//100 114//114 104//104
f 106//106 102//102 115//115
f 116//116 95//95 106//106
f 117//117 81//81 89//89
f 95//95 116//116 87//87
f 111//111 87//87 116//116
f 111//111 118//118 88//88
f 89//89 82//82 119//119
f 90//90 88//88 118//118
f 82//82 90//90 119//119
f 90//90 118//118 119//119
f 113//113 96//96 120//120
f 96//96 108//108 120//120
f 120//120 108//108 103//103
f 112//112 114//114 107//107
f 121//121 120//120 103//103
f 105//105 121//121 103//103
f 105//105 109//109 121//121
f 114//114 122//122 104//104
f 123//123 122//122 114//114
f 122//122 115//115 104//104
f 109//109 101//101 124//124
f 104//104 115//115 102//102
f 101//101 110//110 124//124
f 125//125 116//116 106//106
f 117//117 89//89 119//119
f 114//114 112//112 126//126
f 112//112 127//127 126//126
f 128//128 114//114 126//126
f 123//123 114//114 128//128
f 115//115 129//129 106//106
f 129//129 125//125 106//106
f 81//81 117//117 110//110
f 113//113 120//120 130//130
f 130//130 112//112 113//113
f 133//131 126//126 160//132
f 133//131 134//133 128//128
f 142//134 128//128 134//133
f 145//135 124//124 147//136
f 148//137 147//136 124//124
f 165//138 137//139 161//140
f 125//125 154//141 144//142
f 140//143 138//144 130//130
f 137//139 140//143 130//130
f 142//134 135//145 123//123
f 144//142 155//146 125//125
f 117//117 167//147 156//148
f 159//149 162//150 118//118
f 167//147 119//119 168//151
f 157//152 151//153 117//117
f 156//148 157//152 117//117
f 127//127 170//154 165//138
f 127//127 165//138 166//155
f 118//118 168//151 119//119
f 118//118 162//150 163//156
f 166//155 126//126 127//127
f 111//111 159//149 118//118
f 110//110 158//157 161//140
f 129//129 153//158 154//141
f 125//125 155//146 152//159
f 117//117 158//157 110//110
f 109//109 150//160 149//161
f 161//140 124//124 110//110
f 152//159 116//116 125//125
f 146//162 111//111 116//116
f 124//124 150//160 109//109
f 143//163 129//129 115//115
f 115//115 141//164 143//163
f 130//130 170//154 112//112
f 120//120 137//139 130//130
f 122//122 141//164 115//115
f 139//165 122//122 123//123
f 123//123 135//145 139//165
f 149//161 121//121 109//109
f 121//121 169//166 120//120
f 121//121 132//167 131//168
f 133//131 128//128 126//126
f 142//134 123//123 128//128
f 157//152 156//148 151//153
f 156//148 167//147 168//151
f 152//159 156//148 159//149
f 168//151 163//156 159//149
f 163//156 162//150 159//149
f 159//149 164//169 146//162
f 152//159 155//146 133//131
f 155//146 144//142 134//133
f 159//149 146//162 152//159
f 168//151 159//149 156//148
f 156//148 152//159 133//131
f 151//153 156//148 133//131
f 161//140 158//157 165//138
f 158//157 151//153 166//155
f 147//136 148//137 145//135
f 148//137 161//140 137//139
f 145//135 148//137 137//139
f 149//161 150//160 145//135
f 145//135 131//168 149//161
f 158//157 166//155 165//138
f 155//146 134//133 133//131
f 144//142 154//141 142//134
f 134//133 144//142 142//134
f 153//158 143//163 139//165
f 143//163 141//164 139//165
f 154//141 153//158 135//145
f 131//168 145//135 137//139
f 131//168 132//167 149//161
f 137//139 169//166 131//168
f 138//144 140//143 137//139
f 165//138 170//154 138//144
f 133//131 160//132 166//155
f 165//138 138//144 137//139
f 141//164 136//170 139//165
f 139//165 135//145 153//158
f 135//145 142//134 154//141
f 166//155 151//153 133//131
f 125//125 129//129 154//141
f 117//117 119//119 167//147
f 127//127 112//112 170//154
f 118//118 163//156 168//151
f 166//155 160//132 126//126
f 111//111 164//169 159//149
f 117//117 151//153 158//157
f 161//140 148//137 124//124
f 152//159 146//162 116//116
f 146//162 164//169 111//111
f 124//124 145//135 150//160
f 143//163 153//158 129//129
f 130//130 138//144 170//154
f 120//120 169//166 137//139
f 122//122 136//170 141//164
f 139//165 136//170 122//122
f 149//161 132//167 121//121
f 121//121 131//168 169//166
