# wavefront obj file written by the visualization toolkit


v 13056.7 5061.66 4654.63
v 12996.6 5064.72 4647.32
v 13018.6 5091.49 4644.85
v 12984.3 5095.09 4647.2
v 13093.2 5137.12 4712.48
v 13016.2 5128.7 4673.98
v 12985.4 5092.54 4685.72
v 12996.7 5126.72 4696.33
v 13060.8 5183.39 4738.38
v 13048.8 5053.08 4709.56
v 13100 5069.2 4724.26
v 13021.4 5072.29 4743.63
v 13100.3 5087.88 4717.68
v 13007.1 5146.22 4770.08
v 13033.2 5178.29 4762.38
v 13098.4 5218.46 4796.18
v 13022.6 5129.85 4812.98
v 13125.6 5121.77 4798.82
v 13135.9 5175.17 4798.39
v 13075.6 5089.06 4829.93
v 13075 5223.45 4818.08
v 13095.8 5088.13 4789.47
v 13055.7 5127.26 4859.72
v 13130.1 5210.73 4836.44
v 13141.2 5190.94 4873.69
v 13033.6 5181.86 4858.54
v 13074.6 5227.02 4888.36
v 13109.1 5241.14 4892.93
v 13110.8 5140.31 4890.35
v 13088.3 5169.18 4921.18
v 13132 5226.12 4928.12
v 13062.3 5181.12 4889.16
v 13106.1 5255.82 4944.78
v 13128.7 5187.77 4916.8
v 13103.9 5218.22 4948.18
v 13127.2 5248.25 4958.44
v 13113.1 5243.33 4946.01
v 13111.9 5191.93 4936.23
v 13114 5222.42 4935.66
v 13113.4 5189.91 6425.56
v 13085.8 5168.13 6443.79
v 13085.3 5212.04 6435.45
v 13112.9 5236.6 6421.28
v 13136.9 5200.12 6493.83
v 13091.9 5248.01 6453.92
v 13112.9 5245.34 6482.25
v 13081 5114.6 6517.64
v 13064.6 5159.02 6482.11
v 13119 5133.48 6517.69
v 13042.3 5173.94 6512.08
v 13052.9 5209.89 6526.61
v 13131.9 5235.29 6523.16
v 13082 5234.49 6525.44
v 13133.9 5121.83 6588.62
v 13005.6 5147.41 6615.78
v 13134.8 5187.18 6597.6
v 13089 5200.08 6606.75
v 13086.6 5077.96 6632.68
v 13021.9 5108.68 6600.51
v 13136 5139.43 6618.17
v 13026.8 5070.96 6655.12
v 13036.7 5182.94 6615.51
v 12987 5076.09 6689.96
v 13096 5094.5 6687.7
v 12989.9 5093.79 6696.05
v 13103.1 5151.89 6677.87
v 13028.5 5153.05 6694.01
v 13024.3 5054.17 6715.61
v 13111 5136.78 6666.08
v 13062.5 5140.51 6702.02
v 13013 5133.77 6681.65
v 13041.5 5064.6 6716.28
v 13007.1 5070.07 6715.62
v 13022.6 5066.35 6737.29
v 13067.8 5112.15 6714.28
v 13042.9 5083.33 6725.85
v 13031 5103.12 6705.85
v 13101.5 5251.6 4954.07
vn 0.553724 -0.456601 -0.696352
vn -0.502696 -0.738587 -0.449207
vn 0.137201 0.246662 -0.95934
vn -0.715522 0.328349 -0.616616
vn 0.656858 0.397408 -0.640784
vn -0.17268 0.765409 -0.619944
vn -0.977897 -0.155498 0.139778
vn -0.791346 0.589945 -0.160425
vn -0.0783813 0.828883 -0.553904
vn 0.0555297 -0.993926 0.095016
vn 0.715104 -0.694362 -0.0805422
vn -0.603472 -0.718525 0.345751
vn 0.907172 -0.0807066 -0.412948
vn -0.924995 0.36378 0.109768
vn -0.621121 0.757209 -0.202097
vn 0.318648 0.833997 -0.450458
vn -0.85058 -0.282463 0.44354
vn 0.93451 -0.355881 -0.00635442
vn 0.941512 0.149698 -0.301903
vn -0.0557919 -0.870837 0.488396
vn -0.33688 0.914395 -0.224485
vn 0.516014 -0.815458 0.262217
vn -0.653575 -0.495051 0.572506
vn 0.771003 0.573813 -0.276211
vn 0.998692 -0.0123507 0.0496085
vn -0.885657 0.129746 0.445845
vn -0.762737 0.602881 0.234025
vn 0.317543 0.934526 -0.160709
vn 0.498102 -0.700463 0.511122
vn -0.333337 -0.538908 0.773605
vn 0.906403 0.267341 0.32705
vn -0.783365 -0.0777914 0.616675
vn 0.0678585 0.959905 0.271989
vn 0.806781 -0.3278 0.49158
vn -0.326832 -0.0791068 0.941766
vn -0.818851 0.264669 0.509346
vn 0.787463 0.410818 0.459489
vn 0.40567 -0.390295 0.8265
vn 0.604472 -0.155431 0.781317
vn 0.367811 -0.463285 -0.806277
vn -0.467054 -0.496091 -0.731953
vn -0.726462 0.115085 -0.677502
vn 0.364677 0.58664 -0.723094
vn 0.983056 0.0519349 -0.175792
vn -0.465531 0.854083 -0.231996
vn 0.378054 0.924941 0.0394907
vn -0.134877 -0.855716 -0.499559
vn -0.761648 -0.392446 -0.515634
vn 0.661531 -0.666942 -0.342879
vn -0.917905 0.0133934 -0.396575
vn -0.814866 0.568795 -0.111648
vn 0.665551 0.72655 0.170781
vn -0.308582 0.923478 0.227961
vn 0.862594 -0.503881 -0.0451138
vn -0.942866 0.323499 -0.0796969
vn 0.829361 0.419474 0.369055
vn 0.0806184 0.888261 0.45221
vn 0.412004 -0.904942 -0.106456
vn -0.813761 -0.399448 -0.422177
vn 0.968994 -0.0735749 0.235876
vn -0.343848 -0.894643 -0.285275
vn -0.592216 0.774474 0.222419
vn -0.829301 -0.55401 -0.0730192
vn 0.774008 -0.395198 0.494701
vn -0.901538 0.230622 0.366118
vn 0.547232 0.504358 0.667952
vn -0.410019 0.649185 0.640658
vn -0.109193 -0.9787 0.17385
vn 0.826851 0.0759482 0.557269
vn 0.0509112 0.566925 0.822195
vn -0.734779 0.51206 0.444853
vn 0.531692 -0.685317 0.497638
vn -0.756373 -0.400294 0.517364
vn -0.125715 -0.239083 0.962827
vn 0.374262 0.210251 0.903173
vn 0.346196 0.0382898 0.937381
vn -0.366214 0.3963 0.841923
vn 0.646562 0.0732357 0.759338

g grp1
usemtl mtl1
f 1//1 2//2 3//3 
f 3//3 2//2 4//4 
f 5//5 1//1 3//3 
f 4//4 6//6 3//3 
f 5//5 3//3 6//6 
f 4//4 2//2 7//7 
f 4//4 8//8 6//6 
f 6//6 9//9 5//5 
f 2//2 1//1 10//10 
f 1//1 11//11 10//10 
f 2//2 12//12 7//7 
f 1//1 13//13 11//11 
f 5//5 13//13 1//1 
f 4//4 7//7 8//8 
f 2//2 10//10 12//12 
f 14//14 8//8 7//7 
f 8//8 15//15 6//6 
f 5//5 9//9 16//16 
f 7//7 12//12 17//17 
f 13//13 5//5 18//18 
f 18//18 5//5 19//19 
f 8//8 14//14 15//15 
f 9//9 6//6 15//15 
f 10//10 20//20 12//12 
f 9//9 15//15 21//21 
f 11//11 22//22 10//10 
f 12//12 23//23 17//17 
f 12//12 20//20 23//23 
f 18//18 11//11 13//13 
f 14//14 7//7 17//17 
f 19//19 5//5 24//24 
f 24//24 5//5 16//16 
f 9//9 21//21 16//16 
f 10//10 22//22 20//20 
f 24//24 25//25 19//19 
f 11//11 18//18 22//22 
f 17//17 26//26 14//14 
f 19//19 25//25 18//18 
f 15//15 14//14 27//27 
f 15//15 27//27 21//21 
f 28//28 16//16 21//21 
f 29//29 22//22 18//18 
f 20//20 30//30 23//23 
f 21//21 27//27 28//28 
f 22//22 29//29 20//20 
f 26//26 27//27 14//14 
f 31//31 25//25 24//24 
f 28//28 24//24 16//16 
f 29//29 30//30 20//20 
f 17//17 32//32 26//26 
f 28//28 27//27 33//33 
f 17//17 23//23 32//32 
f 34//34 29//29 18//18 
f 18//18 25//25 34//34 
f 26//26 32//32 27//27 
f 24//24 28//28 31//31 
f 25//25 31//31 34//34 
f 32//32 35//35 27//27 
f 27//27 36//36 33//33 
f 28//28 33//33 37//37 
f 29//29 38//38 30//30 
f 38//38 29//29 34//34 
f 32//32 23//23 30//30 
f 35//35 36//36 27//27 
f 28//28 37//37 31//31 
f 33//33 78//78 37//37 
f 35//35 30//30 38//38 
f 35//35 32//32 30//30 
f 34//34 39//39 38//38 
f 34//34 31//31 39//39 
f 31//31 37//37 39//39 
f 35//35 38//38 39//39 
f 39//39 78//78 35//35 
f 39//39 37//37 78//78 
f 40//40 41//41 42//42 
f 40//40 42//42 43//43 
f 43//43 44//44 40//40 
f 42//42 45//45 43//43 
f 43//43 46//46 44//44 
f 43//43 45//45 46//46 
f 41//41 47//47 48//48 
f 41//41 40//40 47//47 
f 40//40 44//44 49//49 
f 42//42 41//41 48//48 
f 50//50 42//42 48//48 
f 51//51 42//42 50//50 
f 51//51 45//45 42//42 
f 44//44 46//46 52//52 
f 47//47 40//40 49//49 
f 53//53 45//45 51//51 
f 45//45 53//53 46//46 
f 49//49 44//44 54//54 
f 55//55 51//51 50//50 
f 52//52 56//56 44//44 
f 53//53 57//57 46//46 
f 57//57 52//52 46//46 
f 49//49 58//58 47//47 
f 47//47 59//59 48//48 
f 50//50 59//59 55//55 
f 50//50 48//48 59//59 
f 60//60 44//44 56//56 
f 61//61 47//47 58//58 
f 54//54 58//58 49//49 
f 54//54 44//44 60//60 
f 55//55 62//62 51//51 
f 51//51 62//62 53//53 
f 56//56 52//52 57//57 
f 59//59 47//47 61//61 
f 63//63 59//59 61//61 
f 53//53 62//62 57//57 
f 58//58 54//54 64//64 
f 59//59 65//65 55//55 
f 57//57 66//66 56//56 
f 67//67 57//57 62//62 
f 61//61 58//58 68//68 
f 59//59 63//63 65//65 
f 60//60 64//64 54//54 
f 56//56 69//69 60//60 
f 67//67 70//70 57//57 
f 60//60 69//69 64//64 
f 65//65 71//71 55//55 
f 55//55 71//71 62//62 
f 66//66 69//69 56//56 
f 66//66 57//57 70//70 
f 72//72 68//68 58//58 
f 58//58 64//64 72//72 
f 62//62 71//71 67//67 
f 63//63 61//61 73//73 
f 61//61 68//68 73//73 
f 68//68 74//74 73//73 
f 63//63 73//73 65//65 
f 64//64 69//69 75//75 
f 70//70 75//75 66//66 
f 75//75 69//69 66//66 
f 68//68 72//72 74//74 
f 72//72 64//64 76//76 
f 75//75 76//76 64//64 
f 77//77 67//67 71//71 
f 70//70 67//67 77//77 
f 72//72 76//76 74//74 
f 77//77 65//65 73//73 
f 75//75 77//77 76//76 
f 65//65 77//77 71//71 
f 75//75 70//70 77//77 
f 74//74 77//77 73//73 
f 74//74 76//76 77//77 
