# Blender v2.92.0 OBJ File: 'convert_to_one_sided.blend'
# www.blender.org
mtllib 514L.mtl
o 514
v 13.056532 5.061594 4.654571
v 12.996432 5.064654 4.647261
v 13.018432 5.091424 4.644791
v 12.984133 5.095023 4.647141
v 13.093032 5.137053 4.712420
v 13.016032 5.128633 4.673921
v 12.985233 5.092474 4.685661
v 12.996532 5.126653 4.696270
v 13.060632 5.183322 4.738320
v 13.048632 5.053014 4.709500
v 13.099832 5.069134 4.724200
v 13.021233 5.072224 4.743570
v 13.100131 5.087813 4.717620
v 13.006932 5.146153 4.770020
v 13.033032 5.178222 4.762320
v 13.098231 5.218392 4.796119
v 13.022432 5.129783 4.812919
v 13.125431 5.121703 4.798759
v 13.135732 5.175102 4.798329
v 13.075431 5.088994 4.829869
v 13.074832 5.223382 4.818019
v 13.095632 5.088063 4.789410
v 13.055532 5.127193 4.859659
v 13.129930 5.210662 4.836379
v 13.141031 5.190872 4.873628
v 13.033432 5.181792 4.858479
v 13.074431 5.226952 4.888298
v 13.108931 5.241072 4.892868
v 13.110631 5.140243 4.890288
v 13.088131 5.169113 4.921118
v 13.131831 5.226052 4.928058
v 13.062132 5.181053 4.889098
v 13.105931 5.255751 4.944717
v 13.128531 5.187702 4.916738
v 13.103732 5.218152 4.948117
v 13.127031 5.248181 4.958377
v 13.112931 5.243262 4.945947
v 13.111732 5.191863 4.936167
v 13.101332 5.251532 4.954007
v 13.113832 5.222352 4.935597
vn 0.5537 -0.4566 -0.6963
vn -0.5027 -0.7386 -0.4492
vn 0.1372 0.2467 -0.9593
vn -0.7155 0.3283 -0.6166
vn 0.6569 0.3974 -0.6408
vn -0.1727 0.7654 -0.6199
vn -0.9779 -0.1555 0.1398
vn -0.7914 0.5899 -0.1604
vn -0.0784 0.8289 -0.5539
vn 0.0555 -0.9939 0.0950
vn 0.7151 -0.6943 -0.0806
vn -0.6035 -0.7185 0.3458
vn 0.9072 -0.0807 -0.4130
vn -0.9250 0.3638 0.1098
vn -0.6212 0.7572 -0.2021
vn 0.3186 0.8340 -0.4505
vn -0.8506 -0.2825 0.4435
vn 0.9345 -0.3559 -0.0063
vn 0.9415 0.1497 -0.3019
vn -0.0558 -0.8708 0.4884
vn -0.3369 0.9144 -0.2245
vn 0.5160 -0.8155 0.2622
vn -0.6536 -0.4951 0.5725
vn 0.7710 0.5738 -0.2762
vn 0.9987 -0.0123 0.0496
vn -0.8857 0.1297 0.4459
vn -0.7627 0.6029 0.2340
vn 0.3176 0.9345 -0.1607
vn 0.4981 -0.7005 0.5111
vn -0.3333 -0.5389 0.7736
vn 0.9064 0.2673 0.3270
vn -0.7834 -0.0778 0.6167
vn 0.0677 0.9599 0.2719
vn 0.8068 -0.3278 0.4916
vn -0.3268 -0.0791 0.9418
vn -0.8189 0.2647 0.5093
vn 0.7875 0.4109 0.4594
vn 0.4056 -0.3903 0.8265
vn 0.6466 0.0733 0.7593
vn 0.6045 -0.1555 0.7813
usemtl mtl1.1316
s 1
f 1//1 2//2 3//3
f 3//3 2//2 4//4
f 5//5 1//1 3//3
f 4//4 6//6 3//3
f 5//5 3//3 6//6
f 4//4 2//2 7//7
f 4//4 8//8 6//6
f 6//6 9//9 5//5
f 2//2 1//1 10//10
f 1//1 11//11 10//10
f 2//2 12//12 7//7
f 1//1 13//13 11//11
f 5//5 13//13 1//1
f 4//4 7//7 8//8
f 2//2 10//10 12//12
f 14//14 8//8 7//7
f 8//8 15//15 6//6
f 5//5 9//9 16//16
f 7//7 12//12 17//17
f 13//13 5//5 18//18
f 18//18 5//5 19//19
f 8//8 14//14 15//15
f 9//9 6//6 15//15
f 10//10 20//20 12//12
f 9//9 15//15 21//21
f 11//11 22//22 10//10
f 12//12 23//23 17//17
f 12//12 20//20 23//23
f 18//18 11//11 13//13
f 14//14 7//7 17//17
f 19//19 5//5 24//24
f 24//24 5//5 16//16
f 9//9 21//21 16//16
f 10//10 22//22 20//20
f 24//24 25//25 19//19
f 11//11 18//18 22//22
f 17//17 26//26 14//14
f 19//19 25//25 18//18
f 15//15 14//14 27//27
f 15//15 27//27 21//21
f 28//28 16//16 21//21
f 29//29 22//22 18//18
f 20//20 30//30 23//23
f 21//21 27//27 28//28
f 22//22 29//29 20//20
f 26//26 27//27 14//14
f 31//31 25//25 24//24
f 28//28 24//24 16//16
f 29//29 30//30 20//20
f 17//17 32//32 26//26
f 28//28 27//27 33//33
f 17//17 23//23 32//32
f 34//34 29//29 18//18
f 18//18 25//25 34//34
f 26//26 32//32 27//27
f 24//24 28//28 31//31
f 25//25 31//31 34//34
f 32//32 35//35 27//27
f 27//27 36//36 33//33
f 28//28 33//33 37//37
f 29//29 38//38 30//30
f 38//38 29//29 34//34
f 32//32 23//23 30//30
f 35//35 36//36 27//27
f 28//28 37//37 31//31
f 33//33 39//39 37//37
f 35//35 30//30 38//38
f 35//35 32//32 30//30
f 34//34 40//40 38//38
f 34//34 31//31 40//40
f 31//31 37//37 40//40
f 35//35 38//38 40//40
f 40//40 39//39 35//35
f 40//40 37//37 39//39
