# Blender v2.92.0 OBJ File: 'convert_to_one_sided.blend'
# www.blender.org
mtllib 526157196L.mtl
o Cube
v 0.001000 0.001000 -0.001000
v 0.001000 -0.001000 -0.001000
v 0.001000 0.001000 0.001000
v 0.001000 -0.001000 0.001000
v -0.001000 0.001000 -0.001000
v -0.001000 -0.001000 -0.001000
v -0.001000 0.001000 0.001000
v -0.001000 -0.001000 0.001000
vt 0.625000 0.500000
vt 0.875000 0.500000
vt 0.875000 0.750000
vt 0.625000 0.750000
vt 0.375000 0.750000
vt 0.625000 1.000000
vt 0.375000 1.000000
vt 0.375000 0.000000
vt 0.625000 0.000000
vt 0.625000 0.250000
vt 0.375000 0.250000
vt 0.125000 0.500000
vt 0.375000 0.500000
vt 0.125000 0.750000
vn 0.0000 1.0000 0.0000
vn 0.0000 0.0000 1.0000
vn -1.0000 0.0000 0.0000
vn 0.0000 -1.0000 0.0000
vn 1.0000 0.0000 0.0000
vn 0.0000 0.0000 -1.0000
usemtl Material
s off
f 1/1/1 5/2/1 7/3/1 3/4/1
f 4/5/2 3/4/2 7/6/2 8/7/2
f 8/8/3 7/9/3 5/10/3 6/11/3
f 6/12/4 2/13/4 4/5/4 8/14/4
f 2/13/5 1/1/5 3/4/5 4/5/5
f 6/11/6 5/10/6 1/1/6 2/13/6
o 526157196
v 2.847213 2.993461 4.111467
v 2.808084 3.008991 4.113657
v 2.868373 3.026400 4.111258
v 2.973322 3.030060 4.138227
v 2.923342 3.051240 4.119467
v 2.788894 3.002991 4.141047
v 2.847723 3.034590 4.120207
v 2.814774 2.942671 4.158717
v 2.792474 2.947911 4.177107
v 2.901553 2.951561 4.170167
v 3.008691 3.069030 4.141287
v 2.791124 3.006231 4.193897
v 2.871863 3.061030 4.158957
v 2.970132 3.073370 4.145457
v 2.799554 2.907342 4.196417
v 3.039021 2.982731 4.207736
v 3.113760 3.087129 4.175257
v 2.973652 3.085500 4.163177
v 3.080740 3.093179 4.166987
v 2.936172 2.900672 4.242326
v 3.150490 3.060290 4.211146
v 2.815924 3.035150 4.206566
v 2.888703 3.059260 4.207696
v 3.011261 3.089790 4.200566
v 3.073781 3.102679 4.183197
v 2.803374 2.875412 4.229696
v 2.846013 2.874262 4.246166
v 2.787134 2.871172 4.259706
v 3.229098 3.116169 4.226696
v 3.164359 3.113599 4.202866
v 3.112000 3.114349 4.211366
v 3.199879 3.132119 4.236006
v 3.051721 2.921942 4.296896
v 2.856743 3.029220 4.255106
v 3.261018 3.135589 4.250176
v 2.766374 2.905802 4.285745
v 3.208259 3.021600 4.300955
v 2.762254 2.935992 4.321615
v 3.271228 3.096889 4.277305
v 3.176309 3.101149 4.314155
v 2.798464 2.814753 4.332325
v 2.907882 2.840453 4.335525
v 2.802194 2.990891 4.278205
v 2.961982 3.036790 4.299325
v 3.290498 3.135179 4.273155
v 3.254468 3.138989 4.291035
v 3.311578 3.143979 4.288625
v 3.289568 3.140019 4.288465
v 3.164839 2.950241 4.364174
v 3.337597 3.117949 4.342125
v 2.765224 2.824333 4.361855
v 3.041331 2.877122 4.379194
v 2.875763 2.989221 4.344975
v 3.312247 3.074220 4.351724
v 2.958872 2.990451 4.390294
v 3.336237 3.131589 4.338264
v 2.807804 2.944341 4.378324
v 3.347327 3.078520 4.394254
v 3.073570 3.017430 4.416274
v 3.298068 3.127469 4.341685
v 2.725235 2.800723 4.489512
v 2.738605 2.877342 4.400254
v 2.741785 2.889642 4.445363
v 3.231788 3.065680 4.451933
v 3.358397 3.114999 4.400944
v 3.354237 3.109529 4.412364
v 2.819514 2.766184 4.434144
v 3.115280 2.886662 4.451953
v 3.273458 3.010650 4.423073
v 3.345587 3.082730 4.434564
v 2.767504 2.774643 4.452493
v 2.929382 2.794373 4.477153
v 2.799464 2.906372 4.481903
v 3.297627 3.096179 4.423923
v 2.775674 2.737574 4.509653
v 2.815294 2.740384 4.522222
v 3.213509 2.939431 4.484563
v 2.709525 2.837923 4.571332
v 2.759264 2.879842 4.546332
v 2.919382 2.953161 4.461873
v 3.178219 3.025920 4.500863
v 3.357387 3.095409 4.445583
v 3.027251 2.826263 4.512572
v 3.110320 2.870232 4.520752
v 2.732425 2.864043 4.590701
v 3.267628 2.984241 4.504043
v 3.175339 2.912932 4.529722
v 3.315677 3.041600 4.482033
v 3.254168 3.046680 4.519992
v 3.308238 3.063570 4.495742
v 3.341507 3.084280 4.454853
v 2.740415 2.744964 4.557772
v 3.080870 2.986591 4.522462
v 3.329847 3.070960 4.470743
v 3.097130 2.863342 4.567882
v 2.841903 2.906942 4.545712
v 2.765924 2.723574 4.593901
v 2.826394 2.736714 4.596251
v 2.963442 2.800203 4.586662
v 3.174669 2.929722 4.569692
v 2.958232 2.938581 4.574401
v 3.266678 3.014860 4.528742
v 3.192079 3.002610 4.562582
v 2.712575 2.761254 4.601182
v 2.701265 2.782353 4.653981
v 2.695405 2.818423 4.710410
v 2.839534 2.898352 4.644401
v 3.076620 2.965761 4.588892
v 3.254268 3.027520 4.533522
v 2.762024 2.724264 4.682661
v 3.038601 2.848143 4.612631
v 3.221869 2.999001 4.563082
v 3.180119 2.966471 4.587811
v 2.995181 2.934711 4.638041
v 2.730935 2.745844 4.660360
v 3.169559 2.977421 4.591691
v 3.098260 2.952221 4.621371
v 2.836164 2.748784 4.664001
v 3.054331 2.887702 4.642200
v 3.114410 2.940601 4.619351
v 2.930282 2.807843 4.666320
v 2.738435 2.856203 4.728199
v 2.911293 2.907802 4.720850
v 3.013831 2.901382 4.680380
v 2.990101 2.913762 4.685340
v 2.909982 2.836323 4.722310
v 2.818064 2.885822 4.748899
v 2.736205 2.763154 4.760459
v 2.711945 2.777374 4.736380
v 2.820853 2.780034 4.719399
v 2.880153 2.869282 4.765789
v 2.948672 2.900262 4.720960
v 2.939362 2.905322 4.721380
v 2.703015 2.801683 4.746359
v 2.893333 2.890572 4.751529
v 2.714535 2.822863 4.769179
v 2.836593 2.881392 4.785758
v 2.793094 2.819443 4.784629
v 2.727985 2.835963 4.798669
v 2.723725 2.804963 4.780999
v 2.777434 2.858063 4.791609
v 2.833973 2.871452 4.795279
v 2.744705 2.803413 4.790789
v 2.808794 2.859762 4.804968
v 2.802304 2.860262 4.804139
v 2.767314 2.836643 4.789589
vn 0.0756 -0.4320 -0.8987
vn -0.5056 -0.0364 -0.8620
vn 0.0132 0.1524 -0.9882
vn 0.3220 -0.3480 -0.8805
vn 0.0591 0.4017 -0.9139
vn -0.8974 0.2974 -0.3260
vn -0.3672 0.7641 -0.5303
vn -0.1855 -0.6561 -0.7316
vn -0.7890 -0.3592 -0.4984
vn 0.2487 -0.6867 -0.6830
vn 0.1956 0.2932 -0.9358
vn -0.7916 0.6094 -0.0450
vn -0.3597 0.9176 -0.1692
vn -0.0744 0.8031 -0.5911
vn -0.5935 -0.5497 -0.5879
vn 0.4017 -0.6556 -0.6394
vn 0.3623 -0.0017 -0.9320
vn -0.1684 0.9581 -0.2316
vn 0.1204 0.6258 -0.7706
vn 0.3040 -0.7769 -0.5514
vn 0.4656 -0.5277 -0.7104
vn -0.5140 0.8404 0.1716
vn -0.2620 0.9251 0.2749
vn -0.2335 0.9591 0.1600
vn -0.0880 0.9342 -0.3458
vn -0.2350 -0.7713 -0.5915
vn 0.1820 -0.8038 -0.5663
vn -0.7518 -0.5134 -0.4137
vn 0.5096 -0.0572 -0.8585
vn 0.1838 0.6483 -0.7389
vn -0.2246 0.9724 0.0640
vn -0.1053 0.9830 -0.1507
vn 0.4163 -0.7769 -0.4724
vn -0.3165 0.8547 0.4115
vn 0.3080 0.6910 -0.6540
vn -0.9657 -0.0890 -0.2440
vn 0.5253 -0.6880 -0.5007
vn -0.8474 0.5248 0.0808
vn 0.6143 -0.5061 -0.6053
vn -0.2907 0.8974 0.3320
vn -0.2165 -0.8559 -0.4696
vn 0.2930 -0.8589 -0.4201
vn -0.5519 0.7565 0.3510
vn -0.2582 0.8775 0.4041
vn 0.6814 -0.0952 -0.7257
vn -0.1832 0.9602 0.2107
vn 0.6399 0.6030 -0.4764
vn 0.0401 0.9992 -0.0090
vn 0.5086 -0.7756 -0.3738
vn 0.8954 -0.1549 -0.4175
vn -0.7421 -0.5527 -0.3792
vn 0.3987 -0.8459 -0.3542
vn -0.3032 0.8584 0.4138
vn 0.6274 -0.6276 -0.4611
vn -0.2609 0.8859 0.3837
vn 0.4853 0.8743 0.0111
vn -0.4309 0.8394 0.3314
vn 0.8324 -0.5068 -0.2243
vn -0.3086 0.8856 0.3470
vn -0.1135 0.9453 0.3059
vn -0.9070 -0.3265 -0.2659
vn -0.9744 0.1799 -0.1350
vn -0.6388 0.7597 0.1211
vn -0.2629 0.8931 0.3650
vn 0.9476 0.3187 -0.0241
vn 0.1776 0.9135 0.3660
vn 0.0763 -0.9217 -0.3804
vn 0.4772 -0.8370 -0.2679
vn 0.6390 -0.7339 -0.2304
vn 0.9155 -0.3982 0.0580
vn -0.5282 -0.7540 -0.3904
vn 0.3704 -0.9025 -0.2199
vn -0.3500 0.9089 0.2266
vn -0.1666 0.8966 0.4103
vn -0.2343 -0.9208 -0.3117
vn 0.2253 -0.9581 -0.1767
vn 0.5882 -0.7982 -0.1299
vn -0.9316 0.3605 -0.0454
vn -0.3392 0.9311 0.1338
vn -0.2963 0.9101 0.2896
vn -0.3114 0.8790 0.3612
vn 0.7652 0.3605 0.5334
vn 0.4174 -0.9020 -0.1099
vn 0.4985 -0.8660 -0.0387
vn -0.5377 0.8377 0.0955
vn 0.7227 -0.6596 0.2064
vn 0.6019 -0.7852 0.1456
vn 0.8357 -0.4790 0.2687
vn -0.1047 0.8231 0.5581
vn 0.2568 0.6565 0.7093
vn 0.2086 0.7365 0.6435
vn -0.6227 -0.7510 -0.2195
vn -0.2683 0.9181 0.2917
vn 0.7509 0.0081 0.6604
vn 0.5301 -0.8154 0.2327
vn -0.3058 0.9392 0.1559
vn -0.1830 -0.9798 -0.0800
vn 0.3263 -0.9453 -0.0040
vn 0.4365 -0.8923 0.1155
vn 0.6226 -0.5831 0.5220
vn -0.2611 0.9448 0.1977
vn 0.6681 -0.1352 0.7317
vn -0.0723 0.7996 0.5962
vn -0.8165 -0.5672 -0.1076
vn -0.9539 -0.2998 -0.0147
vn -0.9492 0.2974 0.1029
vn -0.2863 0.9535 0.0938
vn -0.1874 0.9189 0.3473
vn 0.2947 0.4740 0.8298
vn 0.0357 -0.9643 0.2625
vn 0.5111 -0.7375 0.4415
vn 0.3873 0.3440 0.8554
vn 0.5394 -0.1443 0.8296
vn -0.1151 0.9459 0.3035
vn -0.6321 -0.7719 0.0680
vn 0.2710 0.4018 0.8747
vn 0.1146 0.6801 0.7241
vn 0.4213 -0.8487 0.3197
vn 0.5521 -0.4637 0.6930
vn 0.4327 0.0666 0.8990
vn 0.4876 -0.7427 0.4590
vn -0.5727 0.8081 0.1376
vn -0.0100 0.9407 0.3390
vn 0.5246 0.0568 0.8494
vn 0.2431 0.7551 0.6089
vn 0.5020 -0.5633 0.6563
vn -0.2887 0.9401 0.1816
vn -0.2005 -0.7804 0.5922
vn -0.7713 -0.5705 0.2821
vn 0.4009 -0.7312 0.5520
vn 0.5176 -0.1347 0.8449
vn 0.4275 0.4392 0.7902
vn 0.2206 0.7673 0.6021
vn -0.9306 -0.1951 0.3098
vn 0.3187 0.5931 0.7394
vn -0.8847 0.2896 0.3653
vn -0.0354 0.8311 0.5550
vn 0.3048 -0.5250 0.7946
vn -0.5228 0.3349 0.7839
vn -0.6172 -0.2804 0.7351
vn -0.3429 0.7191 0.6044
vn 0.3111 0.3605 0.8794
vn -0.0967 -0.2751 0.9565
vn 0.1544 -0.1851 0.9705
vn -0.1935 0.4051 0.8936
vn -0.1480 -0.0577 0.9873
usemtl mtl1.476
s 1
f 9//7 10//8 11//9
f 9//7 11//9 12//10
f 13//11 12//10 11//9
f 10//8 14//12 15//13
f 10//8 15//13 11//9
f 13//11 11//9 15//13
f 9//7 16//14 10//8
f 16//14 17//15 10//8
f 12//10 18//16 9//7
f 10//8 17//15 14//12
f 19//17 12//10 13//11
f 15//13 14//12 20//18
f 15//13 20//18 21//19
f 15//13 22//20 13//11
f 19//17 13//11 22//20
f 22//20 15//13 21//19
f 9//7 18//16 16//14
f 16//14 23//21 17//15
f 18//16 12//10 24//22
f 25//23 12//10 19//17
f 22//20 21//19 26//24
f 19//17 22//20 27//25
f 25//23 19//17 27//25
f 18//16 24//22 28//26
f 12//10 29//27 24//22
f 12//10 25//23 29//27
f 30//28 21//19 20//18
f 31//29 21//19 30//28
f 21//19 31//29 32//30
f 21//19 32//30 26//24
f 26//24 33//31 22//20
f 22//20 33//31 27//25
f 16//14 34//32 23//21
f 34//32 16//14 35//33
f 18//16 35//33 16//14
f 36//34 17//15 23//21
f 37//35 29//27 25//23
f 37//35 25//23 38//36
f 33//31 26//24 32//30
f 33//31 32//30 39//37
f 27//25 38//36 25//23
f 27//25 33//31 38//36
f 38//36 33//31 40//38
f 34//32 36//34 23//21
f 18//16 28//26 35//33
f 28//26 24//22 41//39
f 30//28 42//40 31//29
f 33//31 39//37 40//38
f 37//35 38//36 43//41
f 36//34 44//42 17//15
f 17//15 44//42 14//12
f 24//22 45//43 41//39
f 14//12 44//42 20//18
f 44//42 46//44 20//18
f 24//22 29//27 45//43
f 47//45 29//27 37//35
f 32//30 48//46 39//37
f 40//38 43//41 38//36
f 34//32 35//33 49//47
f 35//33 28//26 50//48
f 51//49 20//18 46//44
f 20//18 51//49 30//28
f 30//28 51//49 42//40
f 29//27 47//45 45//43
f 52//50 31//29 42//40
f 32//30 31//29 52//50
f 47//45 37//35 53//51
f 40//38 39//37 48//46
f 48//46 54//52 40//38
f 37//35 43//41 53//51
f 55//53 53//51 43//41
f 40//38 54//52 56//54
f 43//41 40//38 56//54
f 55//53 43//41 56//54
f 28//26 41//39 50//48
f 41//39 45//43 57//55
f 48//46 32//30 52//50
f 53//51 58//56 47//45
f 50//48 49//47 35//33
f 49//47 59//57 36//34
f 49//47 36//34 34//32
f 50//48 41//39 60//58
f 60//58 41//39 57//55
f 61//59 42//40 51//49
f 62//60 45//43 47//45
f 42//40 61//59 52//50
f 52//50 61//59 63//61
f 62//60 47//45 58//56
f 53//51 55//53 58//56
f 56//54 64//62 55//53
f 65//63 51//49 46//44
f 62//60 58//56 66//64
f 67//65 48//46 52//50
f 56//54 54//52 68//66
f 56//54 68//66 64//62
f 64//62 58//56 55//53
f 36//34 59//57 44//42
f 44//42 69//67 70//68
f 44//42 70//68 46//44
f 70//68 71//69 46//44
f 65//63 46//44 71//69
f 65//63 61//59 51//49
f 52//50 63//61 67//65
f 67//65 72//70 48//46
f 54//52 48//46 68//66
f 73//71 58//56 64//62
f 64//62 68//66 74//72
f 50//48 75//73 49//47
f 44//42 59//57 69//67
f 57//55 76//74 60//58
f 77//75 57//55 45//43
f 45//43 62//60 77//75
f 66//64 58//56 78//76
f 58//56 73//71 78//76
f 59//57 49//47 79//77
f 79//77 49//47 75//73
f 50//48 60//58 80//78
f 71//69 81//79 65//63
f 76//74 57//55 77//75
f 66//64 77//75 62//60
f 72//70 82//80 48//46
f 68//66 48//46 82//80
f 74//72 73//71 64//62
f 75//73 83//81 79//77
f 83//81 75//73 84//82
f 76//74 77//75 85//83
f 68//66 82//80 74//72
f 59//57 79//77 69//67
f 75//73 50//48 80//78
f 69//67 86//84 70//68
f 60//58 76//74 80//78
f 70//68 86//84 71//69
f 81//79 71//69 87//85
f 88//86 61//59 65//63
f 63//61 61//59 88//86
f 67//65 63//61 88//86
f 77//75 66//64 78//76
f 72//70 67//65 89//87
f 78//76 73//71 90//88
f 90//88 73//71 74//72
f 75//73 80//78 84//82
f 76//74 91//89 80//78
f 92//90 91//89 76//74
f 86//84 93//91 71//69
f 76//74 85//83 92//90
f 71//69 93//91 87//85
f 77//75 94//92 85//83
f 85//83 94//92 95//93
f 96//94 77//75 78//76
f 72//70 97//95 98//96
f 72//70 98//96 82//80
f 74//72 82//80 99//97
f 99//97 90//88 74//72
f 69//67 79//77 100//98
f 81//79 88//86 65//63
f 67//65 88//86 101//99
f 67//65 101//99 89//87
f 94//92 77//75 96//94
f 96//94 78//76 102//100
f 72//70 89//87 97//95
f 78//76 90//88 102//100
f 92//90 95//93 103//101
f 85//83 95//93 92//90
f 81//79 87//85 104//102
f 102//100 90//88 99//97
f 98//96 99//97 82//80
f 83//81 84//82 105//103
f 80//78 106//104 84//82
f 107//105 106//104 80//78
f 91//89 107//105 80//78
f 91//89 92//90 107//105
f 103//101 95//93 108//106
f 81//79 104//102 88//86
f 88//86 109//107 101//99
f 110//108 94//92 96//94
f 89//87 101//99 111//109
f 96//94 102//100 110//108
f 89//87 111//109 97//95
f 98//96 110//108 102//100
f 102//100 99//97 98//96
f 83//81 100//98 79//77
f 83//81 105//103 100//98
f 105//103 84//82 106//104
f 112//110 69//67 100//98
f 69//67 113//111 86//84
f 86//84 113//111 114//112
f 87//85 93//91 115//113
f 87//85 115//113 104//102
f 88//86 104//102 109//107
f 94//92 108//106 95//93
f 94//92 110//108 108//106
f 101//99 109//107 116//114
f 111//109 101//99 116//114
f 110//108 98//96 117//115
f 98//96 97//95 117//115
f 105//103 106//104 118//116
f 92//90 103//101 107//105
f 103//101 108//106 119//117
f 110//108 120//118 121//119
f 108//106 110//108 121//119
f 116//114 109//107 122//120
f 110//108 117//115 120//118
f 120//118 117//115 111//109
f 117//115 97//95 111//109
f 100//98 123//121 112//110
f 105//103 123//121 100//98
f 69//67 112//110 113//111
f 103//101 119//117 107//105
f 104//102 115//113 109//107
f 120//118 124//122 121//119
f 111//109 116//114 125//123
f 125//123 124//122 111//109
f 120//118 111//109 124//122
f 105//103 118//116 123//121
f 106//104 107//105 126//124
f 108//106 127//125 119//117
f 121//119 127//125 108//106
f 109//107 115//113 122//120
f 128//126 127//125 121//119
f 116//114 122//120 125//123
f 128//126 124//122 125//123
f 121//119 124//122 128//126
f 106//104 126//124 118//116
f 107//105 129//127 126//124
f 119//117 129//127 107//105
f 130//128 86//84 114//112
f 86//84 130//128 93//91
f 122//120 115//113 131//129
f 127//125 128//126 132//130
f 122//120 133//131 125//123
f 112//110 123//121 113//111
f 119//117 127//125 129//127
f 134//132 127//125 132//130
f 93//91 130//128 115//113
f 115//113 135//133 131//129
f 122//120 131//129 133//131
f 132//130 125//123 133//131
f 128//126 125//123 132//130
f 118//116 136//134 123//121
f 113//111 123//121 137//135
f 126//124 129//127 138//136
f 127//125 134//132 129//127
f 132//130 139//137 134//132
f 140//138 139//137 132//130
f 133//131 140//138 132//130
f 131//129 141//139 133//131
f 123//121 136//134 137//135
f 126//124 138//136 118//116
f 118//116 138//136 136//134
f 113//111 137//135 142//140
f 113//111 142//140 114//112
f 131//129 143//141 141//139
f 133//131 141//139 140//138
f 134//132 138//136 129//127
f 114//112 142//140 144//142
f 144//142 130//128 114//112
f 130//128 135//133 115//113
f 143//141 139//137 140//138
f 140//138 141//139 143//141
f 131//129 135//133 145//143
f 131//129 145//143 143//141
f 134//132 139//137 146//144
f 130//128 144//142 147//145
f 137//135 148//146 142//140
f 148//146 137//135 136//134
f 138//136 146//144 136//134
f 138//136 134//132 146//144
f 149//147 130//128 147//145
f 139//137 143//141 150//148
f 135//133 130//128 149//147
f 143//141 145//143 150//148
f 148//146 136//134 151//149
f 136//134 146//144 151//149
f 142//140 148//146 144//142
f 147//145 144//142 148//146
f 146//144 139//137 152//150
f 139//137 150//148 152//150
f 153//151 152//150 150//148
f 153//151 145//143 149//147
f 149//147 145//143 135//133
f 150//148 145//143 153//151
f 148//146 151//149 154//152
f 146//144 154//152 151//149
f 152//150 154//152 146//144
f 148//146 154//152 147//145
f 154//152 149//147 147//145
f 152//150 153//151 154//152
f 153//151 149//147 154//152
