# Blender v2.92.0 OBJ File: 'convert_to_one_sided.blend'
# www.blender.org
mtllib 530L.mtl
o 530
v 5.954933 2.419188 5.325191
v 5.969123 2.419118 5.333972
v 5.994743 2.400318 5.341522
v 5.879964 2.460867 5.334762
v 5.908684 2.451678 5.325722
v 5.933584 2.452058 5.339452
v 5.845785 2.489577 5.335052
v 5.885294 2.476127 5.334382
v 5.839495 2.509937 5.350021
v 5.973943 2.401828 5.359152
v 6.037252 2.371348 5.361882
v 6.070572 2.345229 5.373211
v 6.069652 2.377759 5.396001
v 5.791356 2.515087 5.364961
v 5.888294 2.499907 5.398601
v 5.808166 2.521646 5.357552
v 5.795666 2.540496 5.371861
v 6.124941 2.318929 5.384631
v 6.129801 2.306869 5.418531
v 6.169011 2.294569 5.417451
v 6.079212 2.345789 5.374341
v 6.115091 2.336469 5.394901
v 5.851655 2.466777 5.383331
v 6.001853 2.430888 5.412351
v 5.764756 2.546816 5.385652
v 5.792725 2.561066 5.419331
v 6.168141 2.300560 5.410841
v 6.163891 2.307060 5.414071
v 6.025853 2.364579 5.438810
v 5.911544 2.429388 5.430611
v 5.744806 2.529037 5.431801
v 5.738016 2.552706 5.409451
v 5.756506 2.567626 5.410311
v 6.176371 2.286920 5.496260
v 6.189760 2.294450 5.452470
v 6.169671 2.326749 5.462490
v 5.822085 2.479357 5.457230
v 5.960923 2.481057 5.494680
v 5.715587 2.585446 5.439930
v 6.189930 2.288560 5.475720
v 5.683677 2.589176 5.473980
v 5.812825 2.573096 5.523059
v 5.731736 2.597415 5.469690
v 6.092912 2.333799 5.547939
v 6.095091 2.398938 5.531099
v 5.771256 2.511467 5.561649
v 5.676247 2.610875 5.476830
v 5.662837 2.628705 5.503380
v 6.196260 2.290820 5.568759
v 6.204420 2.296399 5.561629
v 6.209790 2.310709 5.614728
v 5.960883 2.409478 5.575269
v 5.657917 2.586006 5.611798
v 5.616608 2.637615 5.558139
v 5.653117 2.625165 5.510200
v 6.183940 2.344669 5.612359
v 5.653567 2.658395 5.562999
v 5.617508 2.654725 5.551809
v 5.588688 2.666965 5.585369
v 5.620848 2.658115 5.556359
v 5.973743 2.490217 5.602238
v 5.583058 2.649585 5.642278
v 6.167311 2.296139 5.683588
v 5.565188 2.682124 5.624928
v 5.720316 2.640535 5.640958
v 5.579888 2.683954 5.608258
v 6.150531 2.374178 5.689907
v 5.854045 2.469187 5.674637
v 5.641937 2.683545 5.669467
v 5.584748 2.704104 5.649437
v 5.544369 2.706324 5.660388
v 5.553478 2.685565 5.688357
v 5.553629 2.711014 5.666477
v 5.562338 2.714784 5.698127
v 6.202473 2.293457 5.699999
v 5.556179 2.701135 5.699999
v 5.563323 2.714180 5.699999
v 6.146752 2.375723 5.699999
v 6.203128 2.293898 5.699999
v 6.211028 2.298656 5.699999
v 5.901944 2.440053 5.699999
v 5.837226 2.570801 5.699999
v 5.564865 2.672783 5.699999
v 5.554170 2.685616 5.699999
v 5.556652 2.690647 5.699999
v 5.856715 2.465930 5.699999
v 6.065851 2.346103 5.699999
v 6.206832 2.327273 5.699999
v 6.211640 2.301561 5.699999
v 6.159659 2.367963 5.699999
v 5.656488 2.674019 5.699999
v 5.615715 2.695895 5.699999
v 5.558825 2.703085 5.699999
v 6.073126 2.341900 5.699999
v 6.107754 2.404903 5.699999
v 5.998290 2.387386 5.699999
v 5.930567 2.423155 5.699999
v 5.597464 2.702927 5.699999
v 5.713828 2.547783 5.699999
v 6.066575 2.433660 5.699999
v 5.962021 2.498962 5.699999
v 5.842365 2.567997 5.699999
v 5.654894 2.587675 5.699999
v 5.604759 2.631933 5.699999
v 5.826936 2.482950 5.699999
v 5.562278 2.713306 5.699999
v 6.209380 2.309340 5.699999
v 5.760905 2.516554 5.699999
v 5.831193 2.574627 5.699999
v 5.706988 2.645517 5.699999
v 5.587574 2.646447 5.699999
v 6.075054 2.427716 5.699999
v 6.188272 2.294701 5.699999
v 6.101965 2.327837 5.699999
v 6.197385 2.339812 5.699999
v 5.566353 2.713533 5.699999
v 6.163061 2.297437 5.699999
v 6.169378 2.295704 5.699999
vn -0.0581 -0.4116 -0.9095
vn 0.4895 0.4926 -0.7195
vn 0.3256 -0.2114 -0.9216
vn -0.4775 -0.6419 -0.6000
vn 0.1006 0.2216 -0.9699
vn 0.4778 0.7093 -0.5183
vn -0.1977 0.1669 -0.9660
vn 0.3245 0.6755 -0.6621
vn 0.2659 0.7430 -0.6142
vn -0.3846 -0.8507 -0.3584
vn 0.2623 -0.0418 -0.9641
vn -0.2403 -0.7134 -0.6582
vn 0.5837 0.6437 -0.4948
vn -0.6413 -0.3797 -0.6668
vn 0.4887 0.8288 -0.2725
vn -0.2424 0.3957 -0.8858
vn 0.0505 0.7570 -0.6514
vn 0.2843 -0.2366 -0.9291
vn -0.3637 -0.9127 -0.1864
vn 0.2351 -0.8736 -0.4261
vn 0.3075 0.0872 -0.9476
vn 0.5459 0.5694 -0.6147
vn -0.5277 -0.8338 -0.1625
vn 0.5538 0.7832 -0.2826
vn -0.4197 0.4063 -0.8116
vn 0.3711 0.8767 -0.3062
vn 0.7151 -0.0817 -0.6942
vn 0.6866 0.5131 -0.5151
vn -0.4872 -0.8727 -0.0331
vn -0.4879 -0.8724 -0.0299
vn -0.6548 -0.7314 -0.1904
vn -0.7544 -0.1394 -0.6415
vn 0.0233 0.8476 -0.5302
vn -0.1633 -0.9864 -0.0168
vn 0.9477 -0.0651 -0.3123
vn 0.7017 0.6634 -0.2597
vn -0.5054 -0.8629 -0.0094
vn 0.5235 0.8316 -0.1852
vn -0.3852 0.5619 -0.7320
vn 0.4912 -0.8624 -0.1222
vn -0.8082 -0.3126 -0.4991
vn 0.4676 0.8703 -0.1545
vn 0.2244 0.9022 -0.3683
vn -0.4716 -0.8815 0.0230
vn 0.5700 0.8081 -0.1489
vn -0.5095 -0.8604 0.0058
vn -0.6547 0.2572 -0.7107
vn -0.2047 0.7538 -0.6245
vn 0.2594 -0.9657 0.0117
vn 0.8189 -0.5712 -0.0568
vn 0.9623 0.2589 -0.0832
vn -0.4900 -0.8716 0.0159
vn -0.6447 -0.7615 -0.0673
vn -0.8140 -0.3927 -0.4281
vn -0.7532 0.1205 -0.6467
vn 0.6870 0.7194 -0.1022
vn 0.2524 0.9150 -0.3148
vn -0.5955 0.3876 -0.7037
vn -0.7869 0.1226 -0.6047
vn -0.1170 0.8402 -0.5295
vn 0.5224 0.8497 -0.0706
vn -0.7604 -0.6401 -0.1096
vn -0.2457 -0.9693 0.0037
vn -0.3592 -0.6146 0.7023
vn -0.3313 -0.6377 0.6954
vn 0.5159 0.5674 0.6418
vn 0.6704 0.3783 0.6383
vn -0.8980 -0.2035 -0.3901
vn 0.4780 0.8760 -0.0648
vn -0.3756 0.7307 -0.5701
vn 0.5667 -0.3924 0.7245
vn 0.1984 -0.6320 0.7491
vn 0.5731 0.8195 -0.0043
vn 0.4155 0.6043 0.6799
vn 0.4124 0.6018 0.6839
vn -0.4768 -0.8787 -0.0240
vn 0.4272 0.9018 -0.0650
vn 0.1744 0.9571 -0.2316
vn -0.3497 -0.6089 0.7120
vn -0.3528 -0.6282 0.6934
vn 0.4170 0.6001 0.6826
vn 0.3613 0.6148 0.7010
vn 0.3531 0.6313 0.6906
vn 0.3646 0.6265 0.6889
vn -0.9194 0.3424 -0.1937
vn -0.2959 -0.6516 0.6985
vn 0.3887 0.6069 0.6933
vn -0.9479 -0.3178 0.0209
vn -0.4289 0.8903 -0.1527
vn 0.6459 0.1614 0.7461
vn -0.4591 -0.5523 0.6958
vn -0.3799 -0.5901 0.7123
vn -0.1742 0.9715 0.1606
vn 0.7287 0.0283 0.6842
vn -0.4827 -0.5266 0.6998
vn -0.7213 0.0193 0.6924
vn -0.5151 -0.3877 0.7644
vn -0.0620 0.5203 0.8517
vn 0.3223 0.7699 0.5508
vn -0.5902 0.1425 0.7946
vn 0.3719 0.5432 0.7527
vn -0.0373 -0.7149 0.6982
vn -0.0687 -0.7155 0.6953
vn -0.2600 -0.6735 0.6919
vn 0.3364 0.6061 0.7207
vn 0.3914 0.6167 0.6831
vn -0.3592 -0.6239 0.6941
vn -0.5247 -0.4882 0.6974
vn 0.2678 0.6627 0.6993
vn -0.5397 0.3389 0.7706
vn 0.2817 0.6839 0.6730
vn 0.3322 0.6041 0.7244
vn -0.3652 -0.6359 0.6799
vn -0.3223 -0.6225 0.7132
vn -0.3658 -0.6225 0.6919
vn -0.5159 0.1449 0.8443
vn -0.6177 0.2379 0.7496
vn 0.2075 -0.6985 0.6849
usemtl mtl1.1332
s 1
f 1//1 2//2 3//3
f 1//1 4//4 5//5
f 1//1 5//5 2//2
f 2//2 5//5 6//6
f 4//4 7//7 5//5
f 5//5 7//7 8//8
f 6//6 5//5 8//8
f 8//8 7//7 9//9
f 10//10 11//11 12//12
f 1//1 3//3 10//10
f 10//10 3//3 11//11
f 11//11 3//3 13//13
f 10//10 4//4 1//1
f 3//3 2//2 13//13
f 7//7 4//4 14//14
f 15//15 6//6 8//8
f 14//14 16//16 7//7
f 7//7 16//16 9//9
f 15//15 8//8 9//9
f 17//17 9//9 16//16
f 18//18 19//19 12//12
f 19//19 18//18 20//20
f 12//12 21//21 18//18
f 22//22 18//18 21//21
f 21//21 12//12 11//11
f 21//21 11//11 22//22
f 11//11 13//13 22//22
f 4//4 10//10 23//23
f 6//6 24//24 2//2
f 13//13 2//2 24//24
f 14//14 4//4 23//23
f 6//6 15//15 24//24
f 25//25 16//16 14//14
f 16//16 25//25 17//17
f 9//9 17//17 26//26
f 15//15 9//9 26//26
f 18//18 27//27 20//20
f 18//18 22//22 28//28
f 18//18 28//28 27//27
f 10//10 12//12 29//29
f 30//30 23//23 10//10
f 14//14 23//23 31//31
f 14//14 32//32 25//25
f 25//25 33//33 17//17
f 19//19 20//20 34//34
f 27//27 35//35 20//20
f 19//19 29//29 12//12
f 27//27 28//28 35//35
f 30//30 10//10 29//29
f 28//28 22//22 36//36
f 23//23 30//30 37//37
f 23//23 37//37 31//31
f 24//24 15//15 38//38
f 14//14 31//31 32//32
f 32//32 39//39 25//25
f 39//39 33//33 25//25
f 17//17 33//33 26//26
f 40//40 34//34 20//20
f 20//20 35//35 40//40
f 28//28 36//36 35//35
f 36//36 22//22 13//13
f 32//32 31//31 41//41
f 15//15 26//26 42//42
f 32//32 41//41 39//39
f 33//33 39//39 43//43
f 19//19 44//44 29//29
f 44//44 19//19 34//34
f 45//45 36//36 13//13
f 45//45 13//13 24//24
f 31//31 37//37 46//46
f 39//39 41//41 47//47
f 47//47 48//48 39//39
f 39//39 48//48 43//43
f 33//33 43//43 26//26
f 40//40 49//49 34//34
f 50//50 40//40 35//35
f 50//50 35//35 51//51
f 35//35 36//36 51//51
f 37//37 52//52 46//46
f 15//15 42//42 38//38
f 31//31 46//46 53//53
f 41//41 31//31 53//53
f 41//41 53//53 54//54
f 55//55 41//41 54//54
f 42//42 26//26 43//43
f 47//47 55//55 48//48
f 47//47 41//41 55//55
f 40//40 50//50 49//49
f 51//51 36//36 56//56
f 52//52 30//30 29//29
f 45//45 56//56 36//36
f 30//30 52//52 37//37
f 45//45 24//24 38//38
f 48//48 57//57 43//43
f 29//29 44//44 52//52
f 58//58 55//55 54//54
f 59//59 58//58 54//54
f 55//55 58//58 48//48
f 58//58 60//60 48//48
f 60//60 57//57 48//48
f 43//43 57//57 42//42
f 38//38 61//61 45//45
f 38//38 42//42 61//61
f 54//54 53//53 62//62
f 34//34 63//63 44//44
f 34//34 49//49 63//63
f 87//64 44//44 94//65
f 51//51 115//66 88//67
f 59//59 54//54 64//68
f 57//57 65//69 42//42
f 66//70 58//58 59//59
f 66//70 60//60 58//58
f 57//57 60//60 66//70
f 80//71 79//72 50//50
f 67//73 56//56 45//45
f 67//73 112//74 95//75
f 68//76 46//46 52//52
f 64//68 54//54 62//62
f 66//70 59//59 64//68
f 57//57 69//77 65//69
f 57//57 66//70 70//78
f 69//77 57//57 70//78
f 96//79 52//52 87//64
f 96//79 97//80 52//52
f 100//81 61//61 101//82
f 102//83 42//42 82//84
f 71//85 66//70 64//68
f 94//65 63//63 114//86
f 115//66 67//73 90//87
f 101//82 61//61 102//83
f 64//68 62//62 72//88
f 64//68 72//88 71//85
f 66//70 71//85 73//89
f 73//89 70//78 66//70
f 107//90 51//51 88//67
f 103//91 53//53 99//92
f 70//78 73//89 74//93
f 89//94 51//51 107//90
f 103//91 104//95 53//53
f 84//96 72//88 83//97
f 77//98 116//99 74//93
f 84//96 85//100 72//88
f 78//101 90//87 67//73
f 78//101 67//73 95//75
f 113//102 118//103 63//63
f 63//63 118//103 117//104
f 63//63 117//104 114//86
f 65//69 110//105 109//106
f 68//76 108//107 46//46
f 62//62 104//95 111//108
f 87//64 94//65 95//75
f 61//61 112//74 45//45
f 108//107 53//53 46//46
f 74//93 98//109 70//78
f 93//110 74//93 73//89
f 98//109 69//77 70//78
f 69//77 110//105 65//69
f 69//77 92//111 91//112
f 68//76 86//113 105//114
f 111//108 72//88 62//62
f 65//69 82//84 42//42
f 97//80 68//76 52//52
f 68//76 81//115 86//113
f 51//51 80//71 50//50
f 74//93 106//116 77//98
f 72//88 76//117 71//85
f 73//89 76//117 93//110
f 79//72 49//49 50//50
f 75//118 63//63 49//49
f 87//64 52//52 44//44
f 51//51 56//56 115//66
f 67//73 45//45 112//74
f 102//83 61//61 42//42
f 94//65 44//44 63//63
f 115//66 56//56 67//73
f 68//76 105//114 108//107
f 62//62 53//53 104//95
f 82//84 109//106 108//107
f 109//106 110//105 99//92
f 110//105 91//112 103//91
f 91//112 92//111 104//95
f 92//111 98//109 111//108
f 98//109 116//99 93//110
f 83//97 98//109 85//100
f 116//99 77//98 106//116
f 93//110 76//117 85//100
f 116//99 106//116 93//110
f 91//112 104//95 103//91
f 98//109 83//97 111//108
f 101//82 102//83 86//113
f 102//83 82//84 105//114
f 86//113 102//83 105//114
f 109//106 99//92 108//107
f 104//95 92//111 111//108
f 93//110 85//100 98//109
f 85//100 84//96 83//97
f 103//91 99//92 110//105
f 108//107 105//114 82//84
f 112//74 100//81 96//79
f 100//81 101//82 96//79
f 78//101 95//75 114//86
f 95//75 112//74 87//64
f 114//86 95//75 94//65
f 115//66 90//87 117//104
f 90//87 78//101 114//86
f 117//104 90//87 114//86
f 107//90 88//67 113//102
f 88//67 115//66 113//102
f 80//71 89//94 79//72
f 89//94 107//90 79//72
f 113//102 75//118 79//72
f 113//102 115//66 118//103
f 81//115 97//80 101//82
f 97//80 96//79 101//82
f 86//113 81//115 101//82
f 112//74 96//79 87//64
f 79//72 107//90 113//102
f 117//104 118//103 115//66
f 61//61 100//81 112//74
f 108//107 99//92 53//53
f 74//93 116//99 98//109
f 93//110 106//116 74//93
f 98//109 92//111 69//77
f 69//77 91//112 110//105
f 111//108 83//97 72//88
f 65//69 109//106 82//84
f 97//80 81//115 68//76
f 51//51 89//94 80//71
f 72//88 85//100 76//117
f 73//89 71//85 76//117
f 79//72 75//118 49//49
f 75//118 113//102 63//63
