# Blender v2.92.0 OBJ File: 'convert_to_one_sided.blend'
# www.blender.org
mtllib 530L.mtl
o Cube
v 0.001000 0.001000 -0.001000
v 0.001000 -0.001000 -0.001000
v 0.001000 0.001000 0.001000
v 0.001000 -0.001000 0.001000
v -0.001000 0.001000 -0.001000
v -0.001000 -0.001000 -0.001000
v -0.001000 0.001000 0.001000
v -0.001000 -0.001000 0.001000
vt 0.625000 0.500000
vt 0.875000 0.500000
vt 0.875000 0.750000
vt 0.625000 0.750000
vt 0.375000 0.750000
vt 0.625000 1.000000
vt 0.375000 1.000000
vt 0.375000 0.000000
vt 0.625000 0.000000
vt 0.625000 0.250000
vt 0.375000 0.250000
vt 0.125000 0.500000
vt 0.375000 0.500000
vt 0.125000 0.750000
vn 0.0000 1.0000 0.0000
vn 0.0000 0.0000 1.0000
vn -1.0000 0.0000 0.0000
vn 0.0000 -1.0000 0.0000
vn 1.0000 0.0000 0.0000
vn 0.0000 0.0000 -1.0000
usemtl Material
s off
f 1/1/1 5/2/1 7/3/1 3/4/1
f 4/5/2 3/4/2 7/6/2 8/7/2
f 8/8/3 7/9/3 5/10/3 6/11/3
f 6/12/4 2/13/4 4/5/4 8/14/4
f 2/13/5 1/1/5 3/4/5 4/5/5
f 6/11/6 5/10/6 1/1/6 2/13/6
o 530
v 5.954933 2.419188 5.325191
v 5.969123 2.419118 5.333972
v 5.994743 2.400318 5.341522
v 5.879964 2.460867 5.334762
v 5.908684 2.451678 5.325722
v 5.933584 2.452058 5.339452
v 5.845785 2.489577 5.335052
v 5.885294 2.476127 5.334382
v 5.839495 2.509937 5.350021
v 5.973943 2.401828 5.359152
v 6.037252 2.371348 5.361882
v 6.070572 2.345229 5.373211
v 6.069652 2.377759 5.396001
v 5.791356 2.515087 5.364961
v 5.888294 2.499907 5.398601
v 5.808166 2.521646 5.357552
v 5.795666 2.540496 5.371861
v 6.124941 2.318929 5.384631
v 6.129801 2.306869 5.418531
v 6.169011 2.294569 5.417451
v 6.079212 2.345789 5.374341
v 6.115091 2.336469 5.394901
v 5.851655 2.466777 5.383331
v 6.001853 2.430888 5.412351
v 5.764756 2.546816 5.385652
v 5.792725 2.561066 5.419331
v 6.168141 2.300560 5.410841
v 6.163891 2.307060 5.414071
v 6.025853 2.364579 5.438810
v 5.911544 2.429388 5.430611
v 5.744806 2.529037 5.431801
v 5.738016 2.552706 5.409451
v 5.756506 2.567626 5.410311
v 6.176371 2.286920 5.496260
v 6.189760 2.294450 5.452470
v 6.169671 2.326749 5.462490
v 5.822085 2.479357 5.457230
v 5.960923 2.481057 5.494680
v 5.715587 2.585446 5.439930
v 6.189930 2.288560 5.475720
v 5.683677 2.589176 5.473980
v 5.812825 2.573096 5.523059
v 5.731736 2.597415 5.469690
v 6.092912 2.333799 5.547939
v 6.095091 2.398938 5.531099
v 5.771256 2.511467 5.561649
v 5.676247 2.610875 5.476830
v 5.662837 2.628705 5.503380
v 6.196260 2.290820 5.568759
v 6.204420 2.296399 5.561629
v 6.209790 2.310709 5.614728
v 5.960883 2.409478 5.575269
v 5.657917 2.586006 5.611798
v 5.616608 2.637615 5.558139
v 5.653117 2.625165 5.510200
v 6.183940 2.344669 5.612359
v 5.653567 2.658395 5.562999
v 5.617508 2.654725 5.551809
v 5.588688 2.666965 5.585369
v 5.620848 2.658115 5.556359
v 5.973743 2.490217 5.602238
v 5.583058 2.649585 5.642278
v 6.167311 2.296139 5.683588
v 5.565188 2.682124 5.624928
v 5.720316 2.640535 5.640958
v 5.579888 2.683954 5.608258
v 6.150531 2.374178 5.689907
v 5.854045 2.469187 5.674637
v 5.641937 2.683545 5.669467
v 5.584748 2.704104 5.649437
v 5.544369 2.706324 5.660388
v 5.553478 2.685565 5.688357
v 5.553629 2.711014 5.666477
v 5.562338 2.714784 5.698127
v 6.202473 2.293457 5.699999
v 5.556179 2.701135 5.699999
v 5.563323 2.714180 5.699999
v 6.146752 2.375723 5.699999
v 6.203128 2.293898 5.699999
v 6.211028 2.298656 5.699999
v 5.901944 2.440053 5.699999
v 5.837226 2.570801 5.699999
v 5.564865 2.672783 5.699999
v 5.554170 2.685616 5.699999
v 5.556652 2.690647 5.699999
v 5.856715 2.465930 5.699999
v 6.065851 2.346103 5.699999
v 6.206832 2.327273 5.699999
v 6.211640 2.301561 5.699999
v 6.159659 2.367963 5.699999
v 5.656488 2.674019 5.699999
v 5.615715 2.695895 5.699999
v 5.558825 2.703085 5.699999
v 6.073126 2.341900 5.699999
v 6.107754 2.404903 5.699999
v 5.998290 2.387386 5.699999
v 5.930567 2.423155 5.699999
v 5.597464 2.702927 5.699999
v 5.713828 2.547783 5.699999
v 6.066575 2.433660 5.699999
v 5.962021 2.498962 5.699999
v 5.842365 2.567997 5.699999
v 5.654894 2.587675 5.699999
v 5.604759 2.631933 5.699999
v 5.826936 2.482950 5.699999
v 5.562278 2.713306 5.699999
v 6.209380 2.309340 5.699999
v 5.760905 2.516554 5.699999
v 5.831193 2.574627 5.699999
v 5.706988 2.645517 5.699999
v 5.587574 2.646447 5.699999
v 6.075054 2.427716 5.699999
v 6.188272 2.294701 5.699999
v 6.101965 2.327837 5.699999
v 6.197385 2.339812 5.699999
v 5.566353 2.713533 5.699999
v 6.163061 2.297437 5.699999
v 6.169378 2.295704 5.699999
vn -0.0581 -0.4116 -0.9095
vn 0.4895 0.4926 -0.7195
vn 0.3256 -0.2114 -0.9216
vn -0.4775 -0.6419 -0.6000
vn 0.1006 0.2216 -0.9699
vn 0.4778 0.7093 -0.5183
vn -0.1977 0.1669 -0.9660
vn 0.3245 0.6755 -0.6621
vn 0.2659 0.7430 -0.6142
vn -0.3846 -0.8507 -0.3584
vn 0.2623 -0.0418 -0.9641
vn -0.2403 -0.7134 -0.6582
vn 0.5837 0.6437 -0.4948
vn -0.6413 -0.3797 -0.6668
vn 0.4887 0.8288 -0.2725
vn -0.2424 0.3957 -0.8858
vn 0.0505 0.7570 -0.6514
vn 0.2843 -0.2366 -0.9291
vn -0.3637 -0.9127 -0.1864
vn 0.2351 -0.8736 -0.4261
vn 0.3075 0.0872 -0.9476
vn 0.5459 0.5694 -0.6147
vn -0.5277 -0.8338 -0.1625
vn 0.5538 0.7832 -0.2826
vn -0.4197 0.4063 -0.8116
vn 0.3711 0.8767 -0.3062
vn 0.7151 -0.0817 -0.6942
vn 0.6866 0.5131 -0.5151
vn -0.4872 -0.8727 -0.0331
vn -0.4879 -0.8724 -0.0299
vn -0.6548 -0.7314 -0.1904
vn -0.7544 -0.1394 -0.6415
vn 0.0233 0.8476 -0.5302
vn -0.1633 -0.9864 -0.0168
vn 0.9477 -0.0651 -0.3123
vn 0.7017 0.6634 -0.2597
vn -0.5054 -0.8629 -0.0094
vn 0.5235 0.8316 -0.1852
vn -0.3852 0.5619 -0.7320
vn 0.4912 -0.8624 -0.1222
vn -0.8082 -0.3126 -0.4991
vn 0.4676 0.8703 -0.1545
vn 0.2244 0.9022 -0.3683
vn -0.4716 -0.8815 0.0230
vn 0.5700 0.8081 -0.1489
vn -0.5095 -0.8604 0.0058
vn -0.6547 0.2572 -0.7107
vn -0.2047 0.7538 -0.6245
vn 0.2594 -0.9657 0.0117
vn 0.8189 -0.5712 -0.0568
vn 0.9623 0.2589 -0.0832
vn -0.4900 -0.8716 0.0159
vn -0.6447 -0.7615 -0.0673
vn -0.8140 -0.3927 -0.4281
vn -0.7532 0.1205 -0.6467
vn 0.6870 0.7194 -0.1022
vn 0.2524 0.9150 -0.3148
vn -0.5955 0.3876 -0.7037
vn -0.7869 0.1226 -0.6047
vn -0.1170 0.8402 -0.5295
vn 0.5224 0.8497 -0.0706
vn -0.7604 -0.6401 -0.1096
vn -0.2457 -0.9693 0.0037
vn -0.3592 -0.6146 0.7023
vn -0.3313 -0.6377 0.6954
vn 0.5159 0.5674 0.6418
vn 0.6704 0.3783 0.6383
vn -0.8980 -0.2035 -0.3901
vn 0.4780 0.8760 -0.0648
vn -0.3756 0.7307 -0.5701
vn 0.5667 -0.3924 0.7245
vn 0.1984 -0.6320 0.7491
vn 0.5731 0.8195 -0.0043
vn 0.4155 0.6043 0.6799
vn 0.4124 0.6018 0.6839
vn -0.4768 -0.8787 -0.0240
vn 0.4272 0.9018 -0.0650
vn 0.1744 0.9571 -0.2316
vn -0.3497 -0.6089 0.7120
vn -0.3528 -0.6282 0.6934
vn 0.4170 0.6001 0.6826
vn 0.3613 0.6148 0.7010
vn 0.3531 0.6313 0.6906
vn 0.3646 0.6265 0.6889
vn -0.9194 0.3424 -0.1937
vn -0.2959 -0.6516 0.6985
vn 0.3887 0.6069 0.6933
vn -0.9479 -0.3178 0.0209
vn -0.4289 0.8903 -0.1527
vn 0.6459 0.1614 0.7461
vn -0.4591 -0.5523 0.6958
vn -0.3799 -0.5901 0.7123
vn -0.1742 0.9715 0.1606
vn 0.7287 0.0283 0.6842
vn -0.4827 -0.5266 0.6998
vn -0.7213 0.0193 0.6924
vn -0.5151 -0.3877 0.7644
vn -0.0620 0.5203 0.8517
vn 0.3223 0.7699 0.5508
vn -0.5902 0.1425 0.7946
vn 0.3719 0.5432 0.7527
vn -0.0373 -0.7149 0.6982
vn -0.0687 -0.7155 0.6953
vn -0.2600 -0.6735 0.6919
vn 0.3364 0.6061 0.7207
vn 0.3914 0.6167 0.6831
vn -0.3592 -0.6239 0.6941
vn -0.5247 -0.4882 0.6974
vn 0.2678 0.6627 0.6993
vn -0.5397 0.3389 0.7706
vn 0.2817 0.6839 0.6730
vn 0.3322 0.6041 0.7244
vn -0.3652 -0.6359 0.6799
vn -0.3223 -0.6225 0.7132
vn -0.3658 -0.6225 0.6919
vn -0.5159 0.1449 0.8443
vn -0.6177 0.2379 0.7496
vn 0.2075 -0.6985 0.6849
usemtl mtl1.481
s 1
f 9//7 10//8 11//9
f 9//7 12//10 13//11
f 9//7 13//11 10//8
f 10//8 13//11 14//12
f 12//10 15//13 13//11
f 13//11 15//13 16//14
f 14//12 13//11 16//14
f 16//14 15//13 17//15
f 18//16 19//17 20//18
f 9//7 11//9 18//16
f 18//16 11//9 19//17
f 19//17 11//9 21//19
f 18//16 12//10 9//7
f 11//9 10//8 21//19
f 15//13 12//10 22//20
f 23//21 14//12 16//14
f 22//20 24//22 15//13
f 15//13 24//22 17//15
f 23//21 16//14 17//15
f 25//23 17//15 24//22
f 26//24 27//25 20//18
f 27//25 26//24 28//26
f 20//18 29//27 26//24
f 30//28 26//24 29//27
f 29//27 20//18 19//17
f 29//27 19//17 30//28
f 19//17 21//19 30//28
f 12//10 18//16 31//29
f 14//12 32//30 10//8
f 21//19 10//8 32//30
f 22//20 12//10 31//29
f 14//12 23//21 32//30
f 33//31 24//22 22//20
f 24//22 33//31 25//23
f 17//15 25//23 34//32
f 23//21 17//15 34//32
f 26//24 35//33 28//26
f 26//24 30//28 36//34
f 26//24 36//34 35//33
f 18//16 20//18 37//35
f 38//36 31//29 18//16
f 22//20 31//29 39//37
f 22//20 40//38 33//31
f 33//31 41//39 25//23
f 27//25 28//26 42//40
f 35//33 43//41 28//26
f 27//25 37//35 20//18
f 35//33 36//34 43//41
f 38//36 18//16 37//35
f 36//34 30//28 44//42
f 31//29 38//36 45//43
f 31//29 45//43 39//37
f 32//30 23//21 46//44
f 22//20 39//37 40//38
f 40//38 47//45 33//31
f 47//45 41//39 33//31
f 25//23 41//39 34//32
f 48//46 42//40 28//26
f 28//26 43//41 48//46
f 36//34 44//42 43//41
f 44//42 30//28 21//19
f 40//38 39//37 49//47
f 23//21 34//32 50//48
f 40//38 49//47 47//45
f 41//39 47//45 51//49
f 27//25 52//50 37//35
f 52//50 27//25 42//40
f 53//51 44//42 21//19
f 53//51 21//19 32//30
f 39//37 45//43 54//52
f 47//45 49//47 55//53
f 55//53 56//54 47//45
f 47//45 56//54 51//49
f 41//39 51//49 34//32
f 48//46 57//55 42//40
f 58//56 48//46 43//41
f 58//56 43//41 59//57
f 43//41 44//42 59//57
f 45//43 60//58 54//52
f 23//21 50//48 46//44
f 39//37 54//52 61//59
f 49//47 39//37 61//59
f 49//47 61//59 62//60
f 63//61 49//47 62//60
f 50//48 34//32 51//49
f 55//53 63//61 56//54
f 55//53 49//47 63//61
f 48//46 58//56 57//55
f 59//57 44//42 64//62
f 60//58 38//36 37//35
f 53//51 64//62 44//42
f 38//36 60//58 45//43
f 53//51 32//30 46//44
f 56//54 65//63 51//49
f 37//35 52//50 60//58
f 66//64 63//61 62//60
f 67//65 66//64 62//60
f 63//61 66//64 56//54
f 66//64 68//66 56//54
f 68//66 65//63 56//54
f 51//49 65//63 50//48
f 46//44 69//67 53//51
f 46//44 50//48 69//67
f 62//60 61//59 70//68
f 42//40 71//69 52//50
f 42//40 57//55 71//69
f 95//70 52//50 102//71
f 59//57 123//72 96//73
f 67//65 62//60 72//74
f 65//63 73//75 50//48
f 74//76 66//64 67//65
f 74//76 68//66 66//64
f 65//63 68//66 74//76
f 88//77 87//78 58//56
f 75//79 64//62 53//51
f 75//79 120//80 103//81
f 76//82 54//52 60//58
f 72//74 62//60 70//68
f 74//76 67//65 72//74
f 65//63 77//83 73//75
f 65//63 74//76 78//84
f 77//83 65//63 78//84
f 104//85 60//58 95//70
f 104//85 105//86 60//58
f 108//87 69//67 109//88
f 110//89 50//48 90//90
f 79//91 74//76 72//74
f 102//71 71//69 122//92
f 123//72 75//79 98//93
f 109//88 69//67 110//89
f 72//74 70//68 80//94
f 72//74 80//94 79//91
f 74//76 79//91 81//95
f 81//95 78//84 74//76
f 115//96 59//57 96//73
f 111//97 61//59 107//98
f 78//84 81//95 82//99
f 97//100 59//57 115//96
f 111//97 112//101 61//59
f 92//102 80//94 91//103
f 85//104 124//105 82//99
f 92//102 93//106 80//94
f 86//107 98//93 75//79
f 86//107 75//79 103//81
f 121//108 126//109 71//69
f 71//69 126//109 125//110
f 71//69 125//110 122//92
f 73//75 118//111 117//112
f 76//82 116//113 54//52
f 70//68 112//101 119//114
f 95//70 102//71 103//81
f 69//67 120//80 53//51
f 116//113 61//59 54//52
f 82//99 106//115 78//84
f 101//116 82//99 81//95
f 106//115 77//83 78//84
f 77//83 118//111 73//75
f 77//83 100//117 99//118
f 76//82 94//119 113//120
f 119//114 80//94 70//68
f 73//75 90//90 50//48
f 105//86 76//82 60//58
f 76//82 89//121 94//119
f 59//57 88//77 58//56
f 82//99 114//122 85//104
f 80//94 84//123 79//91
f 81//95 84//123 101//116
f 87//78 57//55 58//56
f 83//124 71//69 57//55
f 95//70 60//58 52//50
f 59//57 64//62 123//72
f 75//79 53//51 120//80
f 110//89 69//67 50//48
f 102//71 52//50 71//69
f 123//72 64//62 75//79
f 76//82 113//120 116//113
f 70//68 61//59 112//101
f 90//90 117//112 116//113
f 117//112 118//111 107//98
f 118//111 99//118 111//97
f 99//118 100//117 112//101
f 100//117 106//115 119//114
f 106//115 124//105 101//116
f 91//103 106//115 93//106
f 124//105 85//104 114//122
f 101//116 84//123 93//106
f 124//105 114//122 101//116
f 99//118 112//101 111//97
f 106//115 91//103 119//114
f 109//88 110//89 94//119
f 110//89 90//90 113//120
f 94//119 110//89 113//120
f 117//112 107//98 116//113
f 112//101 100//117 119//114
f 101//116 93//106 106//115
f 93//106 92//102 91//103
f 111//97 107//98 118//111
f 116//113 113//120 90//90
f 120//80 108//87 104//85
f 108//87 109//88 104//85
f 86//107 103//81 122//92
f 103//81 120//80 95//70
f 122//92 103//81 102//71
f 123//72 98//93 125//110
f 98//93 86//107 122//92
f 125//110 98//93 122//92
f 115//96 96//73 121//108
f 96//73 123//72 121//108
f 88//77 97//100 87//78
f 97//100 115//96 87//78
f 121//108 83//124 87//78
f 121//108 123//72 126//109
f 89//121 105//86 109//88
f 105//86 104//85 109//88
f 94//119 89//121 109//88
f 120//80 104//85 95//70
f 87//78 115//96 121//108
f 125//110 126//109 123//72
f 69//67 108//87 120//80
f 116//113 107//98 61//59
f 82//99 124//105 106//115
f 101//116 114//122 82//99
f 106//115 100//117 77//83
f 77//83 99//118 118//111
f 119//114 91//103 80//94
f 73//75 117//112 90//90
f 105//86 89//121 76//82
f 59//57 97//100 88//77
f 80//94 93//106 84//123
f 81//95 79//91 84//123
f 87//78 83//124 57//55
f 83//124 121//108 71//69
