# Blender v2.92.0 OBJ File: 'convert_to_one_sided.blend'
# www.blender.org
mtllib 531L.mtl
o 531
v 8.034206 2.343709 5.186274
v 8.066636 2.372559 5.181554
v 8.102606 2.304029 5.207243
v 7.994077 2.435228 5.190604
v 8.074276 2.435228 5.201733
v 8.018216 2.493587 5.209013
v 7.989307 2.500147 5.209414
v 8.115855 2.362519 5.210003
v 7.985407 2.364719 5.214573
v 7.939618 2.429828 5.238433
v 7.958118 2.498957 5.241063
v 8.129875 2.235730 5.257093
v 8.038326 2.301569 5.236393
v 8.154116 2.313509 5.245043
v 8.135096 2.418688 5.253413
v 8.065106 2.490907 5.239113
v 8.006927 2.527156 5.259223
v 8.084896 2.234990 5.282272
v 7.965528 2.362069 5.262573
v 8.191014 2.329929 5.299502
v 7.946138 2.533767 5.300912
v 7.984757 2.552846 5.308562
v 8.123925 2.213681 5.294772
v 8.020687 2.296409 5.296992
v 8.177235 2.262580 5.300842
v 7.926138 2.430168 5.288783
v 7.935028 2.478117 5.282262
v 8.114785 2.216241 5.313972
v 8.149585 2.232020 5.325191
v 8.076626 2.252760 5.330802
v 8.166265 2.417228 5.323542
v 8.090675 2.487987 5.292532
v 8.196815 2.273860 5.338472
v 7.960777 2.388278 5.322222
v 7.949818 2.468967 5.342981
v 7.970957 2.549036 5.333722
v 8.028666 2.527606 5.333412
v 8.181575 2.255350 5.337362
v 8.188205 2.331949 5.358491
v 7.964808 2.523106 5.353941
v 8.112145 2.468047 5.358582
v 8.116376 2.263130 5.371601
v 8.031307 2.337309 5.366471
v 8.155015 2.400598 5.378891
v 8.168445 2.285390 5.367822
v 7.983687 2.406398 5.363351
v 8.058706 2.497817 5.386391
v 8.006097 2.515167 5.372041
v 8.109996 2.430168 5.410041
v 8.007697 2.476217 5.394351
v 8.075016 2.346739 5.412801
v 8.149734 2.357259 5.400361
v 8.020787 2.407638 5.388381
v 8.117206 2.341989 5.408681
v 8.052286 2.466557 5.401690
v 8.073716 2.409488 5.408371
v 8.114836 2.385339 5.405541
vn -0.2974 -0.4191 -0.8578
vn 0.2254 0.0173 -0.9741
vn 0.2369 -0.4119 -0.8799
vn -0.3257 0.1127 -0.9387
vn 0.4376 0.3620 -0.8231
vn 0.2355 0.5820 -0.7783
vn -0.2533 0.6280 -0.7358
vn 0.6187 0.0974 -0.7796
vn -0.6795 -0.4415 -0.5860
vn -0.8714 -0.0799 -0.4840
vn -0.6871 0.4783 -0.5470
vn 0.3005 -0.7192 -0.6265
vn -0.5034 -0.7056 -0.4987
vn 0.7423 -0.1044 -0.6619
vn 0.7602 0.4089 -0.5049
vn 0.5442 0.6940 -0.4714
vn 0.1281 0.9093 -0.3958
vn -0.5285 -0.8203 -0.2187
vn -0.8081 -0.5714 -0.1431
vn 0.9484 0.0941 -0.3027
vn -0.7680 0.6349 -0.0837
vn 0.0277 0.9900 -0.1387
vn 0.0948 -0.9798 -0.1759
vn -0.7374 -0.6648 0.1199
vn 0.7862 -0.5034 -0.3584
vn -0.9762 -0.1914 0.1017
vn -0.9722 0.2149 -0.0928
vn -0.2245 -0.9134 0.3395
vn 0.4704 -0.8444 0.2563
vn -0.5992 -0.6891 0.4076
vn 0.8616 0.5077 -0.0036
vn 0.6147 0.7744 -0.1500
vn 0.9308 -0.3042 0.2027
vn -0.7928 -0.4476 0.4138
vn -0.8299 -0.0100 0.5579
vn -0.1892 0.8898 0.4153
vn 0.4224 0.8910 0.1664
vn 0.6399 -0.7139 0.2843
vn 0.8989 0.1093 0.4244
vn -0.6222 0.4198 0.6608
vn 0.6511 0.7070 0.2760
vn -0.1072 -0.6379 0.7626
vn -0.6208 -0.4862 0.6150
vn 0.7688 0.4004 0.4987
vn 0.4744 -0.4219 0.7726
vn -0.6596 -0.2693 0.7017
vn 0.3069 0.7131 0.6303
vn -0.0346 0.6692 0.7422
vn 0.3497 0.3013 0.8871
vn -0.3825 0.1331 0.9143
vn -0.3123 -0.2653 0.9122
vn 0.5082 0.0079 0.8612
vn -0.5217 -0.1568 0.8386
vn 0.1743 -0.1674 0.9704
vn -0.0338 0.3238 0.9455
vn -0.1011 0.0215 0.9946
vn 0.1294 0.0116 0.9915
usemtl mtl1.1333
s 1
f 1//1 2//2 3//3
f 2//2 1//1 4//4
f 5//5 2//2 4//4
f 6//6 5//5 4//4
f 6//6 4//4 7//7
f 8//8 3//3 2//2
f 1//1 9//9 4//4
f 10//10 4//4 9//9
f 2//2 5//5 8//8
f 11//11 4//4 10//10
f 7//7 4//4 11//11
f 12//12 13//13 3//3
f 3//3 13//13 1//1
f 14//14 12//12 3//3
f 14//14 3//3 8//8
f 13//13 9//9 1//1
f 8//8 5//5 15//15
f 15//15 5//5 16//16
f 6//6 16//16 5//5
f 7//7 17//17 6//6
f 17//17 7//7 11//11
f 16//16 6//6 17//17
f 13//13 12//12 18//18
f 13//13 19//19 9//9
f 14//14 8//8 15//15
f 15//15 20//20 14//14
f 10//10 9//9 19//19
f 21//21 17//17 11//11
f 22//22 17//17 21//21
f 23//23 18//18 12//12
f 13//13 18//18 24//24
f 12//12 14//14 25//25
f 24//24 19//19 13//13
f 25//25 14//14 20//20
f 10//10 19//19 26//26
f 27//27 11//11 10//10
f 27//27 21//21 11//11
f 23//23 28//28 18//18
f 23//23 12//12 29//29
f 12//12 25//25 29//29
f 30//30 24//24 18//18
f 20//20 15//15 31//31
f 26//26 27//27 10//10
f 16//16 32//32 15//15
f 32//32 16//16 17//17
f 18//18 28//28 30//30
f 25//25 20//20 33//33
f 24//24 34//34 19//19
f 19//19 34//34 26//26
f 32//32 31//31 15//15
f 27//27 35//35 21//21
f 36//36 22//22 21//21
f 37//37 32//32 17//17
f 17//17 22//22 37//37
f 23//23 29//29 28//28
f 38//38 29//29 25//25
f 25//25 33//33 38//38
f 33//33 20//20 39//39
f 20//20 31//31 39//39
f 40//40 21//21 35//35
f 32//32 37//37 41//41
f 21//21 40//40 36//36
f 28//28 42//42 30//30
f 24//24 30//30 43//43
f 43//43 34//34 24//24
f 26//26 34//34 35//35
f 26//26 35//35 27//27
f 31//31 41//41 44//44
f 41//41 31//31 32//32
f 36//36 37//37 22//22
f 29//29 42//42 28//28
f 45//45 42//42 29//29
f 29//29 38//38 45//45
f 42//42 43//43 30//30
f 38//38 33//33 45//45
f 39//39 45//45 33//33
f 43//43 46//46 34//34
f 39//39 31//31 44//44
f 34//34 46//46 35//35
f 47//47 41//41 37//37
f 36//36 40//40 48//48
f 36//36 48//48 37//37
f 41//41 49//49 44//44
f 40//40 35//35 50//50
f 49//49 41//41 47//47
f 50//50 48//48 40//40
f 37//37 48//48 47//47
f 42//42 51//51 43//43
f 52//52 45//45 39//39
f 44//44 52//52 39//39
f 46//46 53//53 35//35
f 53//53 50//50 35//35
f 42//42 45//45 54//54
f 54//54 45//45 52//52
f 43//43 51//51 53//53
f 46//46 43//43 53//53
f 52//52 44//44 49//49
f 49//49 47//47 55//55
f 55//55 48//48 50//50
f 47//47 48//48 55//55
f 42//42 54//54 51//51
f 53//53 51//51 56//56
f 57//57 54//54 52//52
f 52//52 49//49 57//57
f 56//56 50//50 53//53
f 56//56 57//57 49//49
f 55//55 50//50 56//56
f 49//49 55//55 56//56
f 54//54 56//56 51//51
f 57//57 56//56 54//54
