# Blender v2.92.0 OBJ File: 'convert_to_one_sided.blend'
# www.blender.org
mtllib 531L.mtl
o Cube
v 0.001000 0.001000 -0.001000
v 0.001000 -0.001000 -0.001000
v 0.001000 0.001000 0.001000
v 0.001000 -0.001000 0.001000
v -0.001000 0.001000 -0.001000
v -0.001000 -0.001000 -0.001000
v -0.001000 0.001000 0.001000
v -0.001000 -0.001000 0.001000
vt 0.625000 0.500000
vt 0.875000 0.500000
vt 0.875000 0.750000
vt 0.625000 0.750000
vt 0.375000 0.750000
vt 0.625000 1.000000
vt 0.375000 1.000000
vt 0.375000 0.000000
vt 0.625000 0.000000
vt 0.625000 0.250000
vt 0.375000 0.250000
vt 0.125000 0.500000
vt 0.375000 0.500000
vt 0.125000 0.750000
vn 0.0000 1.0000 0.0000
vn 0.0000 0.0000 1.0000
vn -1.0000 0.0000 0.0000
vn 0.0000 -1.0000 0.0000
vn 1.0000 0.0000 0.0000
vn 0.0000 0.0000 -1.0000
usemtl Material
s off
f 1/1/1 5/2/1 7/3/1 3/4/1
f 4/5/2 3/4/2 7/6/2 8/7/2
f 8/8/3 7/9/3 5/10/3 6/11/3
f 6/12/4 2/13/4 4/5/4 8/14/4
f 2/13/5 1/1/5 3/4/5 4/5/5
f 6/11/6 5/10/6 1/1/6 2/13/6
o 531
v 8.034206 2.343709 5.186274
v 8.066636 2.372559 5.181554
v 8.102606 2.304029 5.207243
v 7.994077 2.435228 5.190604
v 8.074276 2.435228 5.201733
v 8.018216 2.493587 5.209013
v 7.989307 2.500147 5.209414
v 8.115855 2.362519 5.210003
v 7.985407 2.364719 5.214573
v 7.939618 2.429828 5.238433
v 7.958118 2.498957 5.241063
v 8.129875 2.235730 5.257093
v 8.038326 2.301569 5.236393
v 8.154116 2.313509 5.245043
v 8.135096 2.418688 5.253413
v 8.065106 2.490907 5.239113
v 8.006927 2.527156 5.259223
v 8.084896 2.234990 5.282272
v 7.965528 2.362069 5.262573
v 8.191014 2.329929 5.299502
v 7.946138 2.533767 5.300912
v 7.984757 2.552846 5.308562
v 8.123925 2.213681 5.294772
v 8.020687 2.296409 5.296992
v 8.177235 2.262580 5.300842
v 7.926138 2.430168 5.288783
v 7.935028 2.478117 5.282262
v 8.114785 2.216241 5.313972
v 8.149585 2.232020 5.325191
v 8.076626 2.252760 5.330802
v 8.166265 2.417228 5.323542
v 8.090675 2.487987 5.292532
v 8.196815 2.273860 5.338472
v 7.960777 2.388278 5.322222
v 7.949818 2.468967 5.342981
v 7.970957 2.549036 5.333722
v 8.028666 2.527606 5.333412
v 8.181575 2.255350 5.337362
v 8.188205 2.331949 5.358491
v 7.964808 2.523106 5.353941
v 8.112145 2.468047 5.358582
v 8.116376 2.263130 5.371601
v 8.031307 2.337309 5.366471
v 8.155015 2.400598 5.378891
v 8.168445 2.285390 5.367822
v 7.983687 2.406398 5.363351
v 8.058706 2.497817 5.386391
v 8.006097 2.515167 5.372041
v 8.109996 2.430168 5.410041
v 8.007697 2.476217 5.394351
v 8.075016 2.346739 5.412801
v 8.149734 2.357259 5.400361
v 8.020787 2.407638 5.388381
v 8.117206 2.341989 5.408681
v 8.052286 2.466557 5.401690
v 8.073716 2.409488 5.408371
v 8.114836 2.385339 5.405541
vn -0.2974 -0.4191 -0.8578
vn 0.2254 0.0173 -0.9741
vn 0.2369 -0.4119 -0.8799
vn -0.3257 0.1127 -0.9387
vn 0.4376 0.3620 -0.8231
vn 0.2355 0.5820 -0.7783
vn -0.2533 0.6280 -0.7358
vn 0.6187 0.0974 -0.7796
vn -0.6795 -0.4415 -0.5860
vn -0.8714 -0.0799 -0.4840
vn -0.6871 0.4783 -0.5470
vn 0.3005 -0.7192 -0.6265
vn -0.5034 -0.7056 -0.4987
vn 0.7423 -0.1044 -0.6619
vn 0.7602 0.4089 -0.5049
vn 0.5442 0.6940 -0.4714
vn 0.1281 0.9093 -0.3958
vn -0.5285 -0.8203 -0.2187
vn -0.8081 -0.5714 -0.1431
vn 0.9484 0.0941 -0.3027
vn -0.7680 0.6349 -0.0837
vn 0.0277 0.9900 -0.1387
vn 0.0948 -0.9798 -0.1759
vn -0.7374 -0.6648 0.1199
vn 0.7862 -0.5034 -0.3584
vn -0.9762 -0.1914 0.1017
vn -0.9722 0.2149 -0.0928
vn -0.2245 -0.9134 0.3395
vn 0.4704 -0.8444 0.2563
vn -0.5992 -0.6891 0.4076
vn 0.8616 0.5077 -0.0036
vn 0.6147 0.7744 -0.1500
vn 0.9308 -0.3042 0.2027
vn -0.7928 -0.4476 0.4138
vn -0.8299 -0.0100 0.5579
vn -0.1892 0.8898 0.4153
vn 0.4224 0.8910 0.1664
vn 0.6399 -0.7139 0.2843
vn 0.8989 0.1093 0.4244
vn -0.6222 0.4198 0.6608
vn 0.6511 0.7070 0.2760
vn -0.1072 -0.6379 0.7626
vn -0.6208 -0.4862 0.6150
vn 0.7688 0.4004 0.4987
vn 0.4744 -0.4219 0.7726
vn -0.6596 -0.2693 0.7017
vn 0.3069 0.7131 0.6303
vn -0.0346 0.6692 0.7422
vn 0.3497 0.3013 0.8871
vn -0.3825 0.1331 0.9143
vn -0.3123 -0.2653 0.9122
vn 0.5082 0.0079 0.8612
vn -0.5217 -0.1568 0.8386
vn 0.1743 -0.1674 0.9704
vn -0.0338 0.3238 0.9455
vn -0.1011 0.0215 0.9946
vn 0.1294 0.0116 0.9915
usemtl mtl1.482
s 1
f 9//7 10//8 11//9
f 10//8 9//7 12//10
f 13//11 10//8 12//10
f 14//12 13//11 12//10
f 14//12 12//10 15//13
f 16//14 11//9 10//8
f 9//7 17//15 12//10
f 18//16 12//10 17//15
f 10//8 13//11 16//14
f 19//17 12//10 18//16
f 15//13 12//10 19//17
f 20//18 21//19 11//9
f 11//9 21//19 9//7
f 22//20 20//18 11//9
f 22//20 11//9 16//14
f 21//19 17//15 9//7
f 16//14 13//11 23//21
f 23//21 13//11 24//22
f 14//12 24//22 13//11
f 15//13 25//23 14//12
f 25//23 15//13 19//17
f 24//22 14//12 25//23
f 21//19 20//18 26//24
f 21//19 27//25 17//15
f 22//20 16//14 23//21
f 23//21 28//26 22//20
f 18//16 17//15 27//25
f 29//27 25//23 19//17
f 30//28 25//23 29//27
f 31//29 26//24 20//18
f 21//19 26//24 32//30
f 20//18 22//20 33//31
f 32//30 27//25 21//19
f 33//31 22//20 28//26
f 18//16 27//25 34//32
f 35//33 19//17 18//16
f 35//33 29//27 19//17
f 31//29 36//34 26//24
f 31//29 20//18 37//35
f 20//18 33//31 37//35
f 38//36 32//30 26//24
f 28//26 23//21 39//37
f 34//32 35//33 18//16
f 24//22 40//38 23//21
f 40//38 24//22 25//23
f 26//24 36//34 38//36
f 33//31 28//26 41//39
f 32//30 42//40 27//25
f 27//25 42//40 34//32
f 40//38 39//37 23//21
f 35//33 43//41 29//27
f 44//42 30//28 29//27
f 45//43 40//38 25//23
f 25//23 30//28 45//43
f 31//29 37//35 36//34
f 46//44 37//35 33//31
f 33//31 41//39 46//44
f 41//39 28//26 47//45
f 28//26 39//37 47//45
f 48//46 29//27 43//41
f 40//38 45//43 49//47
f 29//27 48//46 44//42
f 36//34 50//48 38//36
f 32//30 38//36 51//49
f 51//49 42//40 32//30
f 34//32 42//40 43//41
f 34//32 43//41 35//33
f 39//37 49//47 52//50
f 49//47 39//37 40//38
f 44//42 45//43 30//28
f 37//35 50//48 36//34
f 53//51 50//48 37//35
f 37//35 46//44 53//51
f 50//48 51//49 38//36
f 46//44 41//39 53//51
f 47//45 53//51 41//39
f 51//49 54//52 42//40
f 47//45 39//37 52//50
f 42//40 54//52 43//41
f 55//53 49//47 45//43
f 44//42 48//46 56//54
f 44//42 56//54 45//43
f 49//47 57//55 52//50
f 48//46 43//41 58//56
f 57//55 49//47 55//53
f 58//56 56//54 48//46
f 45//43 56//54 55//53
f 50//48 59//57 51//49
f 60//58 53//51 47//45
f 52//50 60//58 47//45
f 54//52 61//59 43//41
f 61//59 58//56 43//41
f 50//48 53//51 62//60
f 62//60 53//51 60//58
f 51//49 59//57 61//59
f 54//52 51//49 61//59
f 60//58 52//50 57//55
f 57//55 55//53 63//61
f 63//61 56//54 58//56
f 55//53 56//54 63//61
f 50//48 62//60 59//57
f 61//59 59//57 64//62
f 65//63 62//60 60//58
f 60//58 57//55 65//63
f 64//62 58//56 61//59
f 64//62 65//63 57//55
f 63//61 58//56 64//62
f 57//55 63//61 64//62
f 62//60 64//62 59//57
f 65//63 64//62 62//60
