# Blender v2.92.0 OBJ File: 'convert_to_one_sided.blend'
# www.blender.org
mtllib 534L.mtl
o Cube
v 0.001000 0.001000 -0.001000
v 0.001000 -0.001000 -0.001000
v 0.001000 0.001000 0.001000
v 0.001000 -0.001000 0.001000
v -0.001000 0.001000 -0.001000
v -0.001000 -0.001000 -0.001000
v -0.001000 0.001000 0.001000
v -0.001000 -0.001000 0.001000
vt 0.625000 0.500000
vt 0.875000 0.500000
vt 0.875000 0.750000
vt 0.625000 0.750000
vt 0.375000 0.750000
vt 0.625000 1.000000
vt 0.375000 1.000000
vt 0.375000 0.000000
vt 0.625000 0.000000
vt 0.625000 0.250000
vt 0.375000 0.250000
vt 0.125000 0.500000
vt 0.375000 0.500000
vt 0.125000 0.750000
vn 0.0000 1.0000 0.0000
vn 0.0000 0.0000 1.0000
vn -1.0000 0.0000 0.0000
vn 0.0000 -1.0000 0.0000
vn 1.0000 0.0000 0.0000
vn 0.0000 0.0000 -1.0000
usemtl Material
s off
f 1/1/1 5/2/1 7/3/1 3/4/1
f 4/5/2 3/4/2 7/6/2 8/7/2
f 8/8/3 7/9/3 5/10/3 6/11/3
f 6/12/4 2/13/4 4/5/4 8/14/4
f 2/13/5 1/1/5 3/4/5 4/5/5
f 6/11/6 5/10/6 1/1/6 2/13/6
o 534
v 9.958542 4.975125 3.755732
v 9.863043 4.978086 3.759812
v 9.894063 5.017565 3.752292
v 9.960443 5.036705 3.773282
v 9.856564 5.051535 3.771162
v 9.854393 4.908556 3.790112
v 9.813213 4.974455 3.778462
v 9.979562 4.922436 3.780012
v 10.084670 4.936016 3.784982
v 10.098070 4.973695 3.794352
v 9.796945 5.029745 3.787432
v 9.803254 5.085564 3.794082
v 9.872523 5.088964 3.810112
v 10.029671 4.856677 3.819121
v 9.890553 4.845937 3.851191
v 9.800204 4.894037 3.835691
v 9.785334 4.959065 3.813972
v 10.107670 4.895206 3.804552
v 10.197769 4.899517 3.823411
v 10.109969 5.013795 3.820752
v 9.997062 5.054394 3.813152
v 9.749254 5.077504 3.835601
v 9.771634 5.102204 3.849121
v 10.175770 4.828727 3.843971
v 10.229769 4.946236 3.848471
v 9.741044 5.003185 3.849381
v 9.958471 5.071814 3.843301
v 10.143169 4.774268 3.875191
v 10.018271 4.808147 3.866461
v 10.279167 4.822297 3.869821
v 9.748044 4.923347 3.875311
v 10.250467 4.970295 3.886521
v 10.152069 5.011995 3.858641
v 10.053571 5.036865 3.849801
v 9.725124 5.092494 3.944860
v 9.875643 5.097544 3.913020
v 9.799133 5.111413 3.943320
v 10.268867 4.750008 3.911680
v 9.950082 4.801438 3.900880
v 9.785044 4.860537 3.906740
v 10.308867 4.879977 3.877971
v 10.331567 4.921126 3.907531
v 10.095771 5.006385 3.906060
v 9.714174 5.037605 3.931080
v 10.067970 4.764038 3.913080
v 10.348967 4.812518 3.917660
v 9.857722 4.808918 3.954680
v 9.711816 4.960906 3.938130
v 10.186668 4.974695 3.922370
v 9.988881 5.041685 3.919430
v 9.751394 5.107054 3.984030
v 10.174769 4.729148 3.925890
v 10.362367 4.752518 3.960510
v 10.387166 4.868577 3.936800
v 9.729615 4.881357 3.990759
v 10.403866 4.898557 3.961660
v 10.257668 4.689449 4.000849
v 10.087470 4.728969 3.989899
v 10.335768 4.704959 4.009689
v 9.961992 4.757488 4.016529
v 10.420766 4.797998 3.999209
v 10.360466 4.917866 3.996859
v 10.258068 4.939586 3.972290
v 10.129169 4.967926 3.967220
v 9.697724 5.005925 4.023639
v 10.071271 4.987645 3.971109
v 9.832244 5.104934 4.032469
v 10.175770 4.700249 4.016739
v 10.391867 4.732628 4.024489
v 9.781075 4.819578 4.017389
v 10.428366 4.864327 3.988709
v 9.705205 4.951296 4.039669
v 10.196669 4.942746 3.999659
v 9.922552 5.063314 3.991119
v 10.037870 4.715099 4.104348
v 9.861833 4.760548 4.117118
v 10.443565 4.881667 4.065489
v 10.413266 4.897566 4.029759
v 10.006171 5.013905 4.029369
v 9.710125 5.057694 4.052569
v 9.779134 5.103444 4.082628
v 10.317867 4.664069 4.116808
v 10.131869 4.690319 4.109528
v 10.458365 4.835847 4.095978
v 9.741075 5.087004 4.078629
v 10.390567 4.699049 4.109428
v 10.456965 4.779858 4.108178
v 9.746634 4.826447 4.112318
v 10.271868 4.920876 4.046369
v 10.418365 4.894177 4.121598
v 10.142369 4.951756 4.065499
v 10.221869 4.664629 4.158897
v 10.426166 4.750858 4.084728
v 9.973062 4.721869 4.158487
v 9.720366 4.901037 4.117708
v 10.359867 4.901416 4.143338
v 9.927082 5.046385 4.105368
v 9.800424 4.783438 4.153297
v 10.459665 4.859667 4.150497
v 10.251868 4.915916 4.172017
v 9.714465 4.985565 4.126368
v 10.028272 4.975076 4.151938
v 10.438066 4.738179 4.194537
v 10.359267 4.662390 4.226107
v 9.741255 4.843457 4.190837
v 10.462465 4.798468 4.175787
v 10.460766 4.831707 4.215757
v 10.439766 4.861147 4.236547
v 10.135070 4.930856 4.179257
v 9.948212 5.015645 4.170457
v 10.398067 4.693419 4.207897
v 10.091570 4.680589 4.225647
v 9.787674 4.793058 4.247076
v 9.734915 5.051105 4.162568
v 9.835753 5.076144 4.172927
v 9.904343 5.032625 4.200337
v 9.782544 5.065784 4.200307
v 10.293367 4.645460 4.251016
v 9.736525 4.900957 4.208197
v 10.335667 4.904356 4.287476
v 10.391166 4.888117 4.303155
v 10.165770 4.901966 4.266546
v 10.213069 4.648930 4.268626
v 9.952882 4.715219 4.251186
v 9.857123 4.753428 4.245056
v 9.958591 4.985015 4.257176
v 9.754065 4.968666 4.241226
v 9.783704 5.015965 4.266956
v 10.393466 4.690579 4.285416
v 9.762144 4.833057 4.248736
v 10.060670 4.930246 4.263856
v 9.896653 5.015685 4.304705
v 10.447766 4.780048 4.286166
v 10.416566 4.728289 4.321235
v 9.785954 4.810267 4.291846
v 10.256868 4.901937 4.299396
v 10.114070 4.895347 4.331445
v 9.846124 5.034365 4.288146
v 10.165569 4.654640 4.328095
v 10.334767 4.658420 4.323245
v 10.059370 4.687939 4.344235
v 9.946502 4.727219 4.349005
v 9.867203 4.759378 4.325885
v 9.842653 4.792697 4.350715
v 9.790544 4.868397 4.300756
v 10.003371 4.945406 4.320005
v 9.993651 4.952045 4.379255
v 9.834524 5.007655 4.324095
v 10.250868 4.651440 4.341025
v 10.434866 4.819478 4.348135
v 10.404766 4.852427 4.407554
v 10.059370 4.918866 4.358925
v 10.200769 4.897037 4.361085
v 10.351067 4.898046 4.411624
v 10.278467 4.900076 4.393034
v 10.374267 4.699979 4.380654
v 10.132669 4.903766 4.406174
v 9.850734 4.927406 4.364635
v 9.893773 4.993265 4.366655
v 10.402866 4.767467 4.412164
v 9.876503 4.833577 4.393384
v 9.963192 4.966845 4.403375
v 10.171169 4.672698 4.403874
v 9.942042 4.753178 4.409124
v 10.407166 4.815187 4.421634
v 10.371666 4.878787 4.433834
v 9.905872 4.964825 4.397754
v 10.290768 4.685719 4.427644
v 10.070271 4.714298 4.433914
v 10.350966 4.722408 4.447584
v 9.934011 4.787407 4.430764
v 10.272167 4.892846 4.482624
v 10.043671 4.927406 4.468793
v 10.099469 4.915146 4.440574
v 10.191569 4.900536 4.435954
v 9.965212 4.951096 4.434404
v 10.185069 4.702619 4.465273
v 10.314867 4.718059 4.481584
v 9.963922 4.844747 4.462873
v 9.956931 4.917356 4.446953
v 10.251568 4.732058 4.507273
v 10.018271 4.772458 4.469024
v 10.368166 4.861966 4.484434
v 10.332067 4.877146 4.485583
v 10.331267 4.760248 4.496853
v 10.369267 4.819267 4.474894
v 10.038171 4.870716 4.508843
v 10.164669 4.900236 4.487583
v 10.021171 4.912106 4.477383
v 10.132969 4.747478 4.497443
v 10.076771 4.807217 4.509573
v 10.113669 4.885516 4.514903
v 10.234468 4.875136 4.519663
v 10.186769 4.783298 4.534282
v 10.277368 4.786518 4.538302
v 10.319867 4.810157 4.526302
v 10.157669 4.838387 4.536773
v 10.319568 4.846647 4.508143
v 10.197569 4.859877 4.534883
v 10.226568 4.807467 4.545083
v 10.247368 4.830057 4.529323
vn 0.1316 -0.0455 -0.9903
vn -0.2164 -0.1484 -0.9650
vn -0.0244 0.2088 -0.9777
vn 0.2288 0.5547 -0.8000
vn -0.1170 0.4168 -0.9014
vn -0.2780 -0.5336 -0.7987
vn -0.5201 -0.2370 -0.8206
vn 0.0272 -0.4243 -0.9051
vn 0.2094 -0.1736 -0.9623
vn 0.3427 0.2654 -0.9012
vn -0.5566 0.0377 -0.8299
vn -0.2948 0.6114 -0.7343
vn 0.1509 0.9155 -0.3730
vn -0.0283 -0.5858 -0.8100
vn -0.2471 -0.7957 -0.5529
vn -0.5271 -0.6051 -0.5967
vn -0.6738 -0.2962 -0.6770
vn 0.1315 -0.3933 -0.9100
vn 0.3348 -0.0922 -0.9378
vn 0.3928 0.7462 -0.5375
vn 0.3103 0.8928 -0.3264
vn -0.7908 0.3489 -0.5028
vn -0.2937 0.9243 -0.2436
vn 0.1418 -0.4540 -0.8796
vn 0.4815 0.3969 -0.7814
vn -0.8502 -0.1002 -0.5168
vn 0.3220 0.9467 0.0021
vn -0.0448 -0.6934 -0.7192
vn -0.1627 -0.7646 -0.6236
vn 0.3703 -0.3272 -0.8694
vn -0.7870 -0.4155 -0.4561
vn 0.4255 0.8955 -0.1308
vn 0.3055 0.9478 0.0909
vn 0.3114 0.9485 0.0583
vn -0.7651 0.6390 -0.0794
vn 0.3147 0.9483 0.0400
vn 0.0388 0.9989 -0.0274
vn 0.2403 -0.6643 -0.7078
vn -0.2427 -0.8706 -0.4279
vn -0.5398 -0.7495 -0.3831
vn 0.5362 0.0511 -0.8426
vn 0.5827 0.5782 -0.5712
vn 0.2764 0.8925 0.3565
vn -0.9685 0.1439 -0.2032
vn -0.2258 -0.8598 -0.4580
vn 0.5726 -0.3093 -0.7593
vn -0.3237 -0.8853 -0.3339
vn -0.9591 -0.1708 -0.2255
vn 0.2333 0.9037 0.3591
vn 0.3976 0.8937 0.2077
vn -0.3310 0.9432 0.0292
vn -0.1139 -0.8744 -0.4716
vn 0.5430 -0.5776 -0.6095
vn 0.7024 0.0263 -0.7113
vn -0.8582 -0.4805 -0.1805
vn 0.6695 0.6582 -0.3443
vn 0.0220 -0.9353 -0.3533
vn -0.2472 -0.9289 -0.2756
vn 0.3612 -0.8349 -0.4154
vn -0.2680 -0.9240 -0.2728
vn 0.8163 -0.3238 -0.4784
vn 0.2859 0.9570 0.0494
vn 0.1806 0.9448 0.2734
vn 0.2721 0.9207 0.2799
vn -0.9994 0.0351 -0.0003
vn 0.3775 0.9016 0.2110
vn 0.2868 0.9514 0.1122
vn -0.1929 -0.9517 -0.2389
vn 0.6643 -0.6483 -0.3722
vn -0.5288 -0.8156 -0.2348
vn 0.9031 0.0952 -0.4187
vn -0.9822 -0.1868 0.0177
vn 0.2135 0.9511 0.2232
vn 0.4519 0.8835 0.1232
vn -0.2516 -0.9474 -0.1980
vn -0.3379 -0.9259 -0.1688
vn 0.7735 0.6296 -0.0728
vn 0.4509 0.8920 -0.0333
vn 0.4467 0.8835 0.1408
vn -0.9263 0.3627 0.1017
vn -0.1201 0.9761 0.1811
vn 0.1888 -0.9613 -0.2006
vn -0.2185 -0.9578 -0.1867
vn 0.9867 0.0361 -0.1587
vn -0.5811 0.7890 0.1995
vn 0.6032 -0.7735 -0.1943
vn 0.9174 -0.3533 -0.1833
vn -0.7868 -0.6153 -0.0483
vn 0.1729 0.9770 0.1245
vn 0.4092 0.9098 0.0694
vn 0.2942 0.9474 0.1257
vn -0.1339 -0.9772 -0.1647
vn 0.7762 -0.5818 -0.2432
vn -0.2621 -0.9499 -0.1704
vn -0.9723 -0.2211 0.0755
vn 0.1648 0.9844 0.0618
vn 0.4679 0.8645 0.1837
vn -0.5057 -0.8598 -0.0710
vn 0.9127 0.4066 0.0399
vn 0.1074 0.9873 0.1170
vn -0.9741 0.0373 0.2229
vn 0.4195 0.8797 0.2240
vn 0.8331 -0.5530 -0.0112
vn 0.4469 -0.8938 -0.0379
vn -0.9158 -0.3688 0.1589
vn 0.9863 -0.1634 0.0233
vn 0.9799 0.1613 0.1175
vn 0.7456 0.6464 0.1620
vn 0.2337 0.9446 0.2304
vn 0.4853 0.8410 0.2393
vn 0.6772 -0.7347 -0.0395
vn -0.2387 -0.9650 -0.1083
vn -0.6739 -0.7203 0.1642
vn -0.8097 0.4607 0.3635
vn 0.2421 0.9361 0.2552
vn 0.4864 0.8475 0.2125
vn -0.3482 0.8423 0.4115
vn 0.0713 -0.9969 -0.0334
vn -0.9406 -0.0645 0.3334
vn 0.1143 0.9927 0.0387
vn 0.4741 0.8747 0.1009
vn 0.0876 0.9811 0.1728
vn -0.1148 -0.9919 -0.0545
vn -0.3106 -0.9503 -0.0232
vn -0.4231 -0.9052 0.0392
vn 0.5095 0.8426 0.1742
vn -0.8616 0.1156 0.4942
vn -0.7014 0.4075 0.5848
vn 0.6738 -0.7313 0.1058
vn -0.8993 -0.2687 0.3450
vn 0.3601 0.9087 0.2114
vn 0.3755 0.8981 0.2290
vn 0.9535 -0.2381 0.1850
vn 0.8325 -0.5124 0.2108
vn -0.8123 -0.3734 0.4480
vn -0.0306 0.9973 0.0667
vn 0.2010 0.9790 0.0342
vn -0.0161 0.9048 0.4256
vn -0.1828 -0.9793 0.0875
vn 0.3357 -0.9225 0.1905
vn -0.2881 -0.9450 0.1547
vn -0.3660 -0.9045 0.2190
vn -0.5107 -0.8142 0.2761
vn -0.6738 -0.4687 0.5713
vn -0.8044 -0.0218 0.5937
vn 0.4796 0.8733 0.0852
vn 0.4562 0.8894 0.0295
vn -0.4633 0.6036 0.6488
vn 0.0230 -0.9817 0.1891
vn 0.9512 0.1312 0.2793
vn 0.8361 0.4421 0.3248
vn 0.3731 0.9270 -0.0370
vn -0.0093 0.9999 -0.0081
vn 0.2622 0.9506 0.1659
vn -0.0012 0.9992 0.0397
vn 0.6136 -0.7141 0.3370
vn 0.1608 0.9795 -0.1211
vn -0.6781 0.1401 0.7215
vn -0.0635 0.8385 0.5412
vn 0.8372 -0.3207 0.4429
vn -0.6784 -0.0776 0.7305
vn 0.2486 0.9219 0.2970
vn -0.1327 -0.9295 0.3440
vn -0.4532 -0.7150 0.5323
vn 0.8827 0.0350 0.4686
vn 0.5744 0.7762 0.2599
vn -0.4539 0.4504 0.7689
vn 0.1812 -0.8915 0.4151
vn -0.2951 -0.8202 0.4901
vn 0.5954 -0.6360 0.4909
vn -0.5512 -0.3473 0.7587
vn 0.1067 0.9546 0.2780
vn 0.1277 0.8989 0.4192
vn 0.2402 0.9704 -0.0240
vn 0.0799 0.9968 -0.0030
vn -0.1742 0.6885 0.7040
vn -0.1103 -0.8189 0.5632
vn 0.3535 -0.6973 0.6235
vn -0.5380 -0.0831 0.8388
vn -0.4809 0.2967 0.8251
vn 0.0519 -0.6588 0.7505
vn -0.3847 -0.4931 0.7803
vn 0.6458 0.4244 0.6347
vn 0.3101 0.7710 0.5562
vn 0.5612 -0.3934 0.7282
vn 0.7559 -0.0265 0.6541
vn -0.3385 0.1880 0.9220
vn 0.1139 0.9403 0.3208
vn -0.2216 0.5580 0.7997
vn -0.2430 -0.6068 0.7568
vn -0.3350 -0.2860 0.8978
vn -0.0578 0.6070 0.7926
vn 0.1642 0.6356 0.7544
vn -0.1505 -0.3629 0.9196
vn 0.2041 -0.2077 0.9567
vn 0.4595 0.0936 0.8832
vn -0.1137 0.0954 0.9889
vn 0.3593 0.3404 0.8689
vn 0.0669 0.3203 0.9450
vn 0.0507 0.0906 0.9946
vn 0.1823 0.2892 0.9398
usemtl mtl1.484
s 1
f 9//7 10//8 11//9
f 9//7 11//9 12//10
f 11//9 10//8 13//11
f 12//10 11//9 13//11
f 14//12 15//13 10//8
f 16//14 14//12 10//8
f 9//7 16//14 10//8
f 17//15 16//14 9//7
f 17//15 9//7 18//16
f 10//8 15//13 19//17
f 9//7 12//10 18//16
f 10//8 19//17 13//11
f 19//17 20//18 13//11
f 21//19 13//11 20//18
f 12//10 13//11 21//19
f 14//12 16//14 22//20
f 14//12 23//21 24//22
f 14//12 24//22 25//23
f 26//24 16//14 17//15
f 14//12 25//23 15//13
f 27//25 26//24 17//15
f 27//25 17//15 18//16
f 15//13 25//23 19//17
f 12//10 28//26 18//16
f 29//27 28//26 12//10
f 19//17 30//28 20//18
f 29//27 12//10 21//19
f 20//18 30//28 31//29
f 21//19 20//18 31//29
f 14//12 22//20 23//21
f 22//20 26//24 32//30
f 26//24 22//20 16//14
f 27//25 32//30 26//24
f 33//31 27//25 18//16
f 25//23 34//32 19//17
f 18//16 28//26 33//31
f 35//33 29//27 21//19
f 22//20 36//34 37//35
f 32//30 36//34 22//20
f 38//36 32//30 27//25
f 24//22 39//37 25//23
f 25//23 39//37 34//32
f 33//31 28//26 40//38
f 40//38 28//26 41//39
f 19//17 34//32 30//28
f 28//26 42//40 41//39
f 29//27 35//33 42//40
f 42//40 28//26 29//27
f 30//28 43//41 31//29
f 35//33 21//19 44//42
f 21//19 31//29 45//43
f 44//42 21//19 45//43
f 32//30 38//36 46//44
f 47//45 23//21 37//35
f 37//35 23//21 22//20
f 23//21 48//46 24//22
f 24//22 48//46 39//37
f 38//36 27//25 49//47
f 27//25 33//31 49//47
f 50//48 49//47 33//31
f 50//48 33//31 40//38
f 41//39 42//40 51//49
f 34//32 52//50 30//28
f 52//50 43//41 30//28
f 37//35 36//34 53//51
f 46//44 36//34 32//30
f 54//52 46//44 38//36
f 53//51 47//45 37//35
f 23//21 55//53 48//46
f 23//21 47//45 55//53
f 54//52 38//36 49//47
f 39//37 56//54 34//32
f 40//38 41//39 57//55
f 52//50 34//32 56//54
f 35//33 58//56 42//40
f 43//41 59//57 31//29
f 31//29 59//57 45//43
f 60//58 53//51 36//34
f 46//44 60//58 36//34
f 46//44 54//52 61//59
f 62//60 54//52 49//47
f 48//46 63//61 39//37
f 49//47 50//48 62//60
f 64//62 62//60 50//48
f 51//49 57//55 41//39
f 42//40 58//56 51//49
f 44//42 58//56 35//33
f 60//58 46//44 65//63
f 66//64 53//51 60//58
f 46//44 61//59 67//65
f 53//51 68//66 47//45
f 61//59 54//52 69//67
f 62//60 69//67 54//52
f 63//61 56//54 39//37
f 50//48 40//38 70//68
f 64//62 50//48 70//68
f 71//69 70//68 40//38
f 72//70 57//55 51//49
f 40//38 57//55 71//69
f 56//54 73//71 52//50
f 74//72 72//70 51//49
f 51//49 58//56 74//72
f 44//42 45//43 75//73
f 65//63 76//74 60//58
f 46//44 67//65 65//63
f 76//74 66//64 60//58
f 67//65 61//59 77//75
f 53//51 66//64 68//66
f 47//45 68//66 55//53
f 48//46 78//76 63//61
f 78//76 48//46 55//53
f 69//67 62//60 79//77
f 62//60 64//62 79//77
f 56//54 80//78 73//71
f 72//70 81//79 57//55
f 58//56 44//42 82//80
f 68//66 66//64 83//81
f 55//53 68//66 84//82
f 61//59 69//67 77//75
f 79//77 64//62 85//83
f 56//54 63//61 80//78
f 86//84 85//83 64//62
f 86//84 64//62 70//68
f 71//69 57//55 81//79
f 87//85 74//72 58//56
f 87//85 58//56 82//80
f 52//50 88//86 43//41
f 45//43 89//87 75//73
f 82//80 44//42 75//73
f 67//65 90//88 65//63
f 76//74 91//89 66//64
f 55//53 84//82 78//76
f 69//67 79//77 92//90
f 92//90 79//77 85//83
f 73//71 88//86 52//50
f 93//91 43//41 88//86
f 43//41 93//91 59//57
f 94//92 90//88 67//65
f 77//75 94//92 67//65
f 66//64 91//89 83//81
f 95//93 69//67 92//90
f 78//76 96//94 63//61
f 97//95 70//68 71//69
f 70//68 98//96 86//84
f 74//72 99//97 72//70
f 81//79 72//70 99//97
f 71//69 81//79 97//95
f 59//57 89//87 45//43
f 76//74 100//98 91//89
f 100//98 76//74 65//63
f 94//92 77//75 101//99
f 68//66 102//100 84//82
f 101//99 77//75 69//67
f 101//99 69//67 95//93
f 63//61 103//101 80//78
f 103//101 63//61 96//94
f 81//79 99//97 97//95
f 70//68 104//102 98//96
f 87//85 99//97 74//72
f 87//85 82//80 105//103
f 82//80 75//73 105//103
f 78//76 106//104 96//94
f 85//83 107//105 92//90
f 98//96 85//83 86//84
f 99//97 108//106 97//95
f 97//95 104//102 70//68
f 80//78 109//107 73//71
f 73//71 109//107 88//86
f 110//108 87//85 105//103
f 93//91 89//87 59//57
f 90//88 100//98 65//63
f 106//104 78//76 84//82
f 111//109 101//99 95//93
f 90//88 94//92 112//110
f 111//109 94//92 101//99
f 68//66 83//81 102//100
f 96//94 113//111 103//101
f 95//93 92//90 114//112
f 107//105 115//113 92//90
f 103//101 109//107 80//78
f 85//83 98//96 116//114
f 116//114 107//105 85//83
f 99//97 110//108 117//115
f 110//108 99//97 87//85
f 110//108 105//103 118//116
f 119//117 112//110 94//92
f 100//98 120//118 91//89
f 91//89 120//118 83//81
f 119//117 94//92 111//109
f 121//119 113//111 96//94
f 114//112 92//90 115//113
f 97//95 108//106 104//102
f 108//106 99//97 117//115
f 109//107 122//120 88//86
f 105//103 123//121 124//122
f 124//122 118//116 105//103
f 88//86 122//120 93//91
f 89//87 93//91 125//123
f 123//121 105//103 75//73
f 90//88 112//110 126//124
f 96//94 106//104 121//119
f 114//112 111//109 95//93
f 103//101 127//125 109//107
f 104//102 108//106 128//126
f 98//96 104//102 129//127
f 98//96 129//127 116//114
f 108//106 117//115 130//128
f 75//73 89//87 123//121
f 89//87 125//123 123//121
f 90//88 126//124 100//98
f 100//98 126//124 131//129
f 102//100 83//81 120//118
f 132//130 84//82 102//100
f 106//104 133//131 121//119
f 133//131 106//104 84//82
f 113//111 127//125 103//101
f 104//102 128//126 129//127
f 118//116 134//132 110//108
f 135//133 122//120 109//107
f 124//122 134//132 118//116
f 122//120 136//134 125//123
f 93//91 122//120 125//123
f 131//129 120//118 100//98
f 119//117 111//109 137//135
f 132//130 133//131 84//82
f 113//111 121//119 138//136
f 107//105 116//114 115//113
f 127//125 135//133 109//107
f 139//137 117//115 110//108
f 139//137 110//108 134//132
f 124//122 123//121 140//138
f 137//135 112//110 119//117
f 132//130 102//100 120//118
f 111//109 141//139 142//140
f 114//112 141//139 111//109
f 121//119 143//141 138//136
f 114//112 115//113 141//139
f 113//111 138//136 127//125
f 108//106 130//128 144//142
f 108//106 144//142 128//126
f 117//115 139//137 130//128
f 122//120 135//133 136//134
f 124//122 140//138 134//132
f 137//135 111//109 142//140
f 139//137 145//143 130//128
f 123//121 125//123 146//144
f 120//118 131//129 147//145
f 112//110 148//146 126//124
f 112//110 137//135 148//146
f 132//130 120//118 149//147
f 132//130 150//148 133//131
f 151//149 121//119 133//131
f 121//119 152//150 143//141
f 143//141 153//151 138//136
f 127//125 138//136 153//151
f 135//133 127//125 153//151
f 134//132 154//152 139//137
f 134//132 140//138 155//153
f 125//123 156//154 146//144
f 125//123 136//134 156//154
f 146//144 140//138 123//121
f 131//129 126//124 157//155
f 131//129 157//155 147//145
f 126//124 148//146 157//155
f 132//130 149//147 150//148
f 121//119 151//149 152//150
f 141//139 115//113 158//156
f 158//156 115//113 116//114
f 116//114 129//127 159//157
f 145//143 139//137 160//158
f 145//143 161//159 130//128
f 130//128 161//159 144//142
f 128//126 162//160 129//127
f 128//126 144//142 163//161
f 120//118 147//145 149//147
f 137//135 164//162 148//146
f 142//140 164//162 137//135
f 150//148 151//149 133//131
f 152//150 153//151 143//141
f 145//143 165//163 161//159
f 165//163 145//143 160//158
f 135//133 153//151 166//164
f 160//158 139//137 154//152
f 128//126 163//161 162//160
f 134//132 155//153 154//152
f 166//164 136//134 135//133
f 166//164 156//154 136//134
f 156//154 167//165 146//144
f 140//138 146//144 167//165
f 168//166 142//140 141//139
f 141//139 158//156 168//166
f 158//156 116//114 159//157
f 166//164 153//151 169//167
f 144//142 161//159 163//161
f 155//153 160//158 154//152
f 167//165 170//168 140//138
f 170//168 155//153 140//138
f 147//145 157//155 171//169
f 168//166 164//162 142//140
f 151//149 150//148 172//170
f 152//150 151//149 172//170
f 152//150 169//167 153//151
f 158//156 159//157 173//171
f 129//127 162//160 174//172
f 174//172 159//157 129//127
f 156//154 166//164 175//173
f 157//155 148//146 176//174
f 171//169 149//147 147//145
f 164//162 176//174 148//146
f 149//147 177//175 150//148
f 168//166 178//176 164//162
f 177//175 172//170 150//148
f 179//177 169//167 152//150
f 168//166 158//156 173//171
f 163//161 180//178 162//160
f 170//168 181//179 155//153
f 167//165 156//154 175//173
f 176//174 171//169 157//155
f 171//169 177//175 149//147
f 164//162 178//176 176//174
f 172//170 179//177 152//150
f 165//163 160//158 182//180
f 165//163 182//180 183//181
f 161//159 165//163 183//181
f 161//159 183//181 163//161
f 160//158 155//153 182//180
f 155//153 181//179 182//180
f 167//165 184//182 170//168
f 181//179 170//168 184//182
f 176//174 185//183 171//169
f 171//169 185//183 177//175
f 178//176 186//184 176//174
f 169//167 187//185 166//164
f 188//186 166//164 187//185
f 180//178 163//161 183//181
f 175//173 166//164 188//186
f 175//173 188//186 184//182
f 175//173 184//182 167//165
f 176//174 189//187 185//183
f 177//175 190//188 172//170
f 172//170 190//188 179//177
f 179//177 187//185 169//167
f 159//157 174//172 191//189
f 162//160 180//178 192//190
f 192//190 174//172 162//160
f 189//187 176//174 186//184
f 178//176 193//191 186//184
f 178//176 168//166 193//191
f 187//185 179//177 190//188
f 168//166 194//192 193//191
f 168//166 173//171 194//192
f 173//171 159//157 194//192
f 188//186 187//185 195//193
f 159//157 191//189 194//192
f 182//180 196//194 183//181
f 183//181 196//194 180//178
f 192//190 191//189 174//172
f 197//195 188//186 195//193
f 196//194 182//180 181//179
f 197//195 184//182 188//186
f 181//179 184//182 197//195
f 185//183 198//196 177//175
f 189//187 198//196 185//183
f 190//188 177//175 198//196
f 193//191 189//187 186//184
f 187//185 190//188 199//197
f 199//197 195//193 187//185
f 200//198 197//195 195//193
f 181//179 200//198 196//194
f 180//178 196//194 201//199
f 196//194 200//198 201//199
f 192//190 180//178 201//199
f 181//179 197//195 200//198
f 198//196 189//187 202//200
f 203//201 189//187 193//191
f 198//196 199//197 190//188
f 203//201 202//200 189//187
f 193//191 204//202 203//201
f 202//200 199//197 198//196
f 193//191 194//192 204//202
f 205//203 195//193 199//197
f 194//192 191//189 206//204
f 204//202 194//192 206//204
f 205//203 200//198 195//193
f 205//203 207//205 200//198
f 200//198 207//205 201//199
f 191//189 192//190 206//204
f 192//190 201//199 206//204
f 208//206 202//200 203//201
f 202//200 205//203 199//197
f 208//206 205//203 202//200
f 204//202 209//207 203//201
f 209//207 208//206 203//201
f 208//206 209//207 205//203
f 204//202 206//204 209//207
f 209//207 207//205 205//203
f 201//199 207//205 209//207
f 206//204 201//199 209//207
