# Blender v2.92.0 OBJ File: 'convert_to_one_sided.blend'
# www.blender.org
mtllib 549009203L.mtl
o Cube
v 0.001000 0.001000 -0.001000
v 0.001000 -0.001000 -0.001000
v 0.001000 0.001000 0.001000
v 0.001000 -0.001000 0.001000
v -0.001000 0.001000 -0.001000
v -0.001000 -0.001000 -0.001000
v -0.001000 0.001000 0.001000
v -0.001000 -0.001000 0.001000
vt 0.625000 0.500000
vt 0.875000 0.500000
vt 0.875000 0.750000
vt 0.625000 0.750000
vt 0.375000 0.750000
vt 0.625000 1.000000
vt 0.375000 1.000000
vt 0.375000 0.000000
vt 0.625000 0.000000
vt 0.625000 0.250000
vt 0.375000 0.250000
vt 0.125000 0.500000
vt 0.375000 0.500000
vt 0.125000 0.750000
vn 0.0000 1.0000 0.0000
vn 0.0000 0.0000 1.0000
vn -1.0000 0.0000 0.0000
vn 0.0000 -1.0000 0.0000
vn 1.0000 0.0000 0.0000
vn 0.0000 0.0000 -1.0000
usemtl Material
s off
f 1/1/1 5/2/1 7/3/1 3/4/1
f 4/5/2 3/4/2 7/6/2 8/7/2
f 8/8/3 7/9/3 5/10/3 6/11/3
f 6/12/4 2/13/4 4/5/4 8/14/4
f 2/13/5 1/1/5 3/4/5 4/5/5
f 6/11/6 5/10/6 1/1/6 2/13/6
o 549009203
v 7.988397 3.684972 4.993166
v 7.915638 3.643752 4.989286
v 7.947728 3.735951 4.994586
v 7.876789 3.581813 5.006076
v 7.877109 3.673632 5.008476
v 7.942718 3.598313 5.013646
v 8.002407 3.630082 5.021766
v 8.042506 3.664162 5.042396
v 8.008857 3.759001 5.021596
v 7.917708 3.784330 5.018896
v 7.956448 3.782711 5.017046
v 7.870649 3.491104 5.061265
v 7.833799 3.560143 5.036636
v 7.825129 3.667202 5.055125
v 7.868689 3.754271 5.043295
v 8.075446 3.740671 5.068655
v 8.040647 3.801230 5.062386
v 7.971957 3.816900 5.052435
v 7.810269 3.467765 5.077085
v 7.802759 3.526454 5.074825
v 7.975368 3.560083 5.067425
v 7.854879 3.779811 5.078305
v 7.852359 3.409345 5.123365
v 7.907518 3.464575 5.109525
v 8.042747 3.594643 5.103964
v 7.822649 3.706161 5.118935
v 8.079216 3.674322 5.092115
v 8.079396 3.789150 5.113635
v 7.905488 3.823990 5.079065
v 8.027356 3.836070 5.114705
v 7.972487 3.852429 5.127584
v 7.822140 3.421015 5.111845
v 7.800290 3.451655 5.109385
v 7.799799 3.552104 5.106375
v 7.875889 3.804190 5.135644
v 7.930018 3.839630 5.159504
v 7.889359 3.425985 5.150214
v 7.955778 3.500534 5.142804
v 8.076675 3.636582 5.140365
v 7.809100 3.618342 5.150674
v 8.087316 3.713891 5.130125
v 8.020997 3.853699 5.179664
v 7.819789 3.407815 5.139964
v 7.807940 3.494384 5.145154
v 8.018677 3.565343 5.159264
v 7.827330 3.701391 5.156064
v 8.057837 3.818110 5.181744
v 7.855579 3.415025 5.163814
v 8.078436 3.693222 5.191003
v 8.074886 3.763021 5.173454
v 7.847369 3.483204 5.185664
v 7.905168 3.451925 5.174334
v 7.852249 3.617223 5.205103
v 8.039106 3.608832 5.188154
v 7.856789 3.721671 5.178264
v 7.978587 3.849389 5.200533
v 7.979727 3.549113 5.196654
v 7.922928 3.806770 5.200573
v 7.916389 3.514624 5.204453
v 7.875198 3.580613 5.226623
v 8.037477 3.667902 5.227593
v 8.052426 3.766221 5.225283
v 8.020476 3.827100 5.221463
v 7.917648 3.607963 5.241373
v 7.908278 3.668672 5.247873
v 7.920238 3.741511 5.234013
v 7.982947 3.805910 5.238573
v 7.983407 3.640162 5.241223
v 8.020257 3.780460 5.251793
v 8.018947 3.727981 5.248743
v 7.965077 3.710911 5.241883
vn 0.3838 -0.0983 -0.9182
vn -0.0599 -0.1010 -0.9931
vn -0.0230 0.2614 -0.9650
vn -0.2042 -0.2897 -0.9351
vn -0.5153 0.1448 -0.8447
vn 0.2977 -0.4682 -0.8320
vn 0.5264 -0.4576 -0.7166
vn 0.7090 -0.2657 -0.6532
vn 0.4494 0.3264 -0.8316
vn -0.3067 0.5479 -0.7783
vn 0.1376 0.5486 -0.8247
vn 0.1348 -0.5745 -0.8073
vn -0.5655 -0.1518 -0.8107
vn -0.8640 0.1854 -0.4681
vn -0.6416 0.4169 -0.6439
vn 0.8418 0.1097 -0.5285
vn 0.5440 0.5888 -0.5978
vn 0.1158 0.7871 -0.6059
vn -0.5549 -0.3963 -0.7315
vn -0.9064 -0.0296 -0.4215
vn 0.5621 -0.6159 -0.5520
vn -0.8075 0.5186 -0.2811
vn 0.2208 -0.9126 -0.3440
vn 0.5810 -0.6612 -0.4746
vn 0.7467 -0.5885 -0.3100
vn -0.9289 0.3632 0.0722
vn 0.9127 -0.2419 -0.3292
vn 0.8975 0.4183 -0.1397
vn -0.4446 0.8257 -0.3471
vn 0.4652 0.8377 -0.2860
vn -0.0581 0.9829 -0.1749
vn -0.3699 -0.7248 -0.5813
vn -0.9532 -0.2726 -0.1311
vn -0.9976 0.0689 -0.0041
vn -0.7491 0.6210 0.2308
vn -0.4761 0.8604 0.1819
vn 0.5955 -0.8026 0.0351
vn 0.7178 -0.6955 -0.0329
vn 0.9129 -0.4002 0.0800
vn -0.9040 0.1108 0.4129
vn 1.0000 0.0026 -0.0069
vn 0.3590 0.9214 0.1485
vn -0.6526 -0.6970 0.2972
vn -0.8785 -0.0823 0.4706
vn 0.7305 -0.6504 0.2084
vn -0.8292 0.3974 0.3930
vn 0.8023 0.5466 0.2400
vn 0.0784 -0.7576 0.6480
vn 0.9004 -0.1301 0.4152
vn 0.9508 0.1783 0.2535
vn -0.4465 -0.2695 0.8532
vn 0.5313 -0.6373 0.5582
vn -0.7220 0.0714 0.6882
vn 0.7297 -0.4807 0.4863
vn -0.7442 0.3683 0.5572
vn -0.1980 0.8630 0.4648
vn 0.5527 -0.5516 0.6247
vn -0.5889 0.5439 0.5978
vn 0.1472 -0.4151 0.8978
vn -0.4526 -0.1371 0.8811
vn 0.5802 -0.2742 0.7670
vn 0.7536 0.1461 0.6409
vn 0.3921 0.6294 0.6709
vn -0.0271 -0.2206 0.9750
vn -0.3232 0.0609 0.9444
vn -0.4809 0.2626 0.8366
vn -0.2179 0.4183 0.8818
vn 0.2096 -0.2566 0.9435
vn 0.2221 0.2069 0.9528
vn 0.2968 -0.0918 0.9505
vn -0.0718 0.0287 0.9970
usemtl mtl1.494
s 1
f 9//7 10//8 11//9
f 10//8 12//10 13//11
f 14//12 12//10 10//8
f 10//8 9//7 14//12
f 9//7 15//13 14//12
f 10//8 13//11 11//9
f 9//7 16//14 15//13
f 17//15 16//14 9//7
f 13//11 18//16 11//9
f 11//9 17//15 9//7
f 19//17 11//9 18//16
f 17//15 11//9 19//17
f 14//12 20//18 12//10
f 12//10 21//19 13//11
f 13//11 21//19 22//20
f 23//21 13//11 22//20
f 13//11 23//21 18//16
f 24//22 16//14 17//15
f 24//22 17//15 25//23
f 26//24 17//15 19//17
f 26//24 19//17 18//16
f 12//10 20//18 21//19
f 20//18 27//25 21//19
f 21//19 27//25 28//26
f 15//13 29//27 14//12
f 22//20 21//19 28//26
f 29//27 15//13 16//14
f 22//20 30//28 23//21
f 17//15 26//24 25//23
f 31//29 20//18 32//30
f 20//18 29//27 32//30
f 20//18 14//12 29//27
f 29//27 16//14 33//31
f 22//20 34//32 30//28
f 35//33 16//14 24//22
f 24//22 25//23 36//34
f 23//21 30//28 37//35
f 23//21 37//35 18//16
f 18//16 37//35 26//24
f 26//24 38//36 25//23
f 26//24 37//35 39//37
f 27//25 40//38 41//39
f 20//18 40//38 27//25
f 31//29 40//38 20//18
f 27//25 41//39 28//26
f 42//40 28//26 41//39
f 28//26 42//40 22//20
f 35//33 33//31 16//14
f 22//20 42//40 34//32
f 38//36 36//34 25//23
f 37//35 43//41 44//42
f 44//42 39//37 37//35
f 26//24 39//37 38//36
f 32//30 45//43 31//29
f 46//44 32//30 29//27
f 33//31 46//44 29//27
f 33//31 35//33 47//45
f 48//46 34//32 42//40
f 47//45 35//33 49//47
f 49//47 35//33 24//22
f 49//47 24//22 36//34
f 37//35 30//28 43//41
f 50//48 38//36 39//37
f 41//39 40//38 51//49
f 40//38 31//29 51//49
f 46//44 45//43 32//30
f 52//50 42//40 41//39
f 47//45 53//51 33//31
f 48//46 54//52 34//32
f 43//41 30//28 34//32
f 55//53 36//34 38//36
f 52//50 41//39 51//49
f 31//29 45//43 56//54
f 52//50 48//46 42//40
f 46//44 33//31 53//51
f 49//47 57//55 47//45
f 58//56 57//55 49//47
f 38//36 50//48 55//53
f 31//29 56//54 51//49
f 52//50 51//49 59//57
f 60//58 56//54 45//43
f 45//43 46//44 60//58
f 48//46 52//50 61//59
f 62//60 53//51 47//45
f 62//60 47//45 57//55
f 54//52 63//61 34//32
f 58//56 49//47 36//34
f 34//32 63//61 43//41
f 44//42 64//62 39//37
f 46//44 65//63 60//58
f 46//44 53//51 65//63
f 65//63 53//51 62//60
f 48//46 63//61 54//52
f 36//34 55//53 58//56
f 43//41 63//61 66//64
f 43//41 66//64 44//42
f 64//62 44//42 66//64
f 39//37 64//62 50//48
f 51//49 56//54 59//57
f 59//57 56//54 67//65
f 67//65 56//54 60//58
f 52//50 59//57 61//59
f 68//66 61//59 59//57
f 69//67 62//60 57//55
f 48//46 61//59 63//61
f 70//68 57//55 58//56
f 58//56 55//53 70//68
f 71//69 55//53 50//48
f 67//65 72//70 59//57
f 68//66 59//57 72//70
f 60//58 65//63 67//65
f 62//60 69//67 65//63
f 73//71 61//59 68//66
f 61//59 74//72 63//61
f 55//53 71//69 70//68
f 66//64 75//73 64//62
f 64//62 71//69 50//48
f 72//70 73//71 68//66
f 76//74 67//65 65//63
f 76//74 65//63 69//67
f 73//71 74//72 61//59
f 57//55 70//68 69//67
f 63//61 74//72 66//64
f 70//68 71//69 77//75
f 64//62 75//73 71//69
f 72//70 67//65 76//74
f 78//76 76//74 69//67
f 69//67 70//68 78//76
f 77//75 78//76 70//68
f 66//64 74//72 75//73
f 77//75 71//69 75//73
f 72//70 76//74 79//77
f 73//71 72//70 79//77
f 78//76 79//77 76//74
f 73//71 79//77 74//72
f 78//76 77//75 79//77
f 79//77 75//73 74//72
f 77//75 75//73 79//77
