# Blender v2.92.0 OBJ File: 'convert_to_one_sided.blend'
# www.blender.org
mtllib 549009219L.mtl
o Cube
v 0.001000 0.001000 -0.001000
v 0.001000 -0.001000 -0.001000
v 0.001000 0.001000 0.001000
v 0.001000 -0.001000 0.001000
v -0.001000 0.001000 -0.001000
v -0.001000 -0.001000 -0.001000
v -0.001000 0.001000 0.001000
v -0.001000 -0.001000 0.001000
vt 0.625000 0.500000
vt 0.875000 0.500000
vt 0.875000 0.750000
vt 0.625000 0.750000
vt 0.375000 0.750000
vt 0.625000 1.000000
vt 0.375000 1.000000
vt 0.375000 0.000000
vt 0.625000 0.000000
vt 0.625000 0.250000
vt 0.375000 0.250000
vt 0.125000 0.500000
vt 0.375000 0.500000
vt 0.125000 0.750000
vn 0.0000 1.0000 0.0000
vn 0.0000 0.0000 1.0000
vn -1.0000 0.0000 0.0000
vn 0.0000 -1.0000 0.0000
vn 1.0000 0.0000 0.0000
vn 0.0000 0.0000 -1.0000
usemtl Material
s off
f 1/1/1 5/2/1 7/3/1 3/4/1
f 4/5/2 3/4/2 7/6/2 8/7/2
f 8/8/3 7/9/3 5/10/3 6/11/3
f 6/12/4 2/13/4 4/5/4 8/14/4
f 2/13/5 1/1/5 3/4/5 4/5/5
f 6/11/6 5/10/6 1/1/6 2/13/6
o 549009219
v 10.144870 5.541868 4.366055
v 10.132569 5.576308 4.365065
v 10.176669 5.567258 4.371445
v 10.172468 5.603168 4.384125
v 10.150270 5.603877 4.415264
v 10.213569 5.541418 4.421234
v 10.167769 5.524988 4.415534
v 10.132469 5.545557 4.401924
v 10.233568 5.588347 4.430754
v 10.125870 5.570347 4.413584
v 10.233668 5.619407 4.449004
v 10.224869 5.616317 4.457883
v 10.158669 5.575357 4.463953
v 10.183669 5.530268 4.458354
v 10.233068 5.542307 4.465453
v 10.156070 5.555128 4.450573
v 10.263167 5.572487 4.490573
v 10.267367 5.614437 4.495083
v 10.257268 5.604257 4.488943
v 10.229468 5.589827 4.490443
v 10.215069 5.556207 4.486863
v 10.235068 5.554058 4.487443
v 10.258768 5.594007 4.497293
v 10.243069 5.573407 4.486104
vn -0.1196 -0.6929 -0.7110
vn -0.6784 0.2821 -0.6784
vn 0.4414 0.0055 -0.8973
vn 0.1346 0.7959 -0.5903
vn -0.5552 0.8079 0.1978
vn 0.6437 -0.5980 -0.4776
vn -0.0260 -0.9957 -0.0892
vn -0.7909 -0.6080 0.0693
vn 0.8079 0.1074 -0.5794
vn -0.9612 0.0712 0.2666
vn 0.5574 0.7330 -0.3899
vn -0.2016 0.9560 0.2134
vn -0.6392 0.1717 0.7497
vn -0.2739 -0.8060 0.5248
vn 0.4189 -0.8984 0.1321
vn -0.6697 -0.4012 0.6249
vn 0.8539 -0.4163 0.3123
vn 0.4815 0.7337 0.4794
vn 0.9821 0.1375 -0.1289
vn -0.2872 0.3468 0.8929
vn -0.2453 -0.2600 0.9339
vn 0.1675 -0.5579 0.8128
vn 0.4582 -0.1125 0.8817
vn 0.0581 -0.2042 0.9772
usemtl mtl1.497
s 1
f 9//7 10//8 11//9
f 12//10 11//9 10//8
f 12//10 10//8 13//11
f 9//7 14//12 15//13
f 11//9 14//12 9//7
f 9//7 16//14 10//8
f 14//12 11//9 17//15
f 18//16 10//8 16//14
f 11//9 12//10 17//15
f 19//17 17//15 12//10
f 13//11 10//8 18//16
f 20//18 12//10 13//11
f 19//17 12//10 20//18
f 9//7 15//13 16//14
f 18//16 21//19 13//11
f 16//14 15//13 22//20
f 15//13 14//12 23//21
f 22//20 24//22 16//14
f 23//21 14//12 25//23
f 16//14 24//22 18//16
f 17//15 25//23 14//12
f 26//24 19//17 20//18
f 24//22 21//19 18//16
f 17//15 19//17 27//25
f 15//13 23//21 22//20
f 25//23 17//15 27//25
f 13//11 21//19 28//26
f 13//11 28//26 20//18
f 27//25 19//17 26//24
f 22//20 29//27 24//22
f 30//28 23//21 25//23
f 20//18 28//26 26//24
f 23//21 30//28 22//20
f 24//22 29//27 21//19
f 25//23 27//25 31//29
f 29//27 22//20 30//28
f 28//26 21//19 29//27
f 31//29 27//25 26//24
f 29//27 30//28 32//30
f 32//30 30//28 25//23
f 25//23 31//29 32//30
f 31//29 26//24 28//26
f 32//30 28//26 29//27
f 31//29 28//26 32//30
