# Blender v2.92.0 OBJ File: 'convert_to_one_sided.blend'
# www.blender.org
mtllib 553L.mtl
o 553
v 11.648650 6.787432 3.377968
v 11.665050 6.806282 3.369728
v 11.764049 6.801662 3.375498
v 11.773748 6.816222 3.368518
v 11.854648 6.814952 3.381968
v 11.707850 6.833581 3.378898
v 11.583551 6.801572 3.384638
v 11.568551 6.825121 3.401707
v 11.847548 6.836822 3.388548
v 11.779749 6.870091 3.413997
v 11.553951 6.785602 3.401567
v 11.739948 6.788742 3.395157
v 11.866147 6.806582 3.408277
v 11.509752 6.800022 3.409307
v 11.966247 6.827572 3.413607
v 12.001346 6.861571 3.423747
v 11.893747 6.883031 3.434177
v 11.493052 6.772692 3.436837
v 11.613251 6.779382 3.426257
v 11.477652 6.787062 3.424397
v 11.448452 6.800952 3.431207
v 12.011745 6.814352 3.437987
v 11.456553 6.818332 3.438557
v 12.067245 6.841032 3.431227
v 12.085045 6.829291 3.440367
v 11.678349 6.877931 3.446227
v 12.130644 6.857781 3.448467
v 11.428053 6.790082 3.455467
v 11.771149 6.797372 3.464307
v 11.571951 6.779702 3.499606
v 11.941047 6.809412 3.450707
v 11.402554 6.801642 3.470596
v 12.143544 6.840092 3.453337
v 11.542051 6.880701 3.508326
v 12.104244 6.897471 3.473996
v 12.034045 6.953650 3.531376
v 11.857647 6.942590 3.517686
v 11.494553 6.772062 3.483116
v 11.376353 6.792932 3.517926
v 12.047645 6.814332 3.462417
v 12.160943 6.831572 3.480686
v 12.233043 6.854751 3.490876
v 11.402153 6.838801 3.526006
v 12.262941 6.918710 3.541456
v 11.718249 6.956220 3.575645
v 11.421053 6.780162 3.501536
v 12.019645 6.823212 3.509006
v 11.365554 6.815711 3.542595
v 12.277742 6.847152 3.514306
v 12.337742 6.882481 3.542826
v 11.810648 6.840432 3.571485
v 12.244942 6.835242 3.542396
v 12.340041 6.861721 3.541486
v 11.459452 6.787832 3.565305
v 11.389554 6.793972 3.567265
v 11.623850 6.815182 3.580195
v 11.360754 6.834882 3.560585
v 11.951446 6.869711 3.598415
v 12.085844 6.879101 3.615065
v 12.305141 6.849751 3.537385
v 11.459352 6.908891 3.628685
v 12.390740 6.908571 3.577675
v 11.357854 6.824372 3.613315
v 11.354854 6.840312 3.593005
v 12.409841 6.867631 3.588095
v 11.376254 6.869551 3.626265
v 12.411840 6.884571 3.585285
v 11.604450 6.970550 3.669804
v 12.395041 6.957820 3.618815
v 11.886747 7.037109 3.668844
v 12.239543 6.867581 3.616085
v 12.374841 6.862391 3.612255
v 12.184544 6.972360 3.575975
v 12.302841 7.015029 3.648274
v 12.023846 7.037149 3.650944
v 11.659450 6.869651 3.689884
v 12.490839 6.882531 3.658294
v 12.494439 6.893331 3.644584
v 12.476839 6.921990 3.635904
v 12.168744 7.035419 3.651474
v 11.390254 6.810862 3.642114
v 11.480452 6.833101 3.681234
v 11.370853 6.841831 3.701254
v 11.843447 6.911060 3.693804
v 12.405640 6.878951 3.672944
v 11.358354 6.860101 3.644404
v 11.986746 6.934680 3.705633
v 12.165343 6.923851 3.695714
v 11.373754 6.891831 3.703454
v 12.579538 6.927470 3.699564
v 12.503139 6.996099 3.692514
v 11.762348 7.034419 3.719143
v 12.151544 7.093548 3.728923
v 12.370841 6.927111 3.734883
v 12.486439 6.887581 3.690674
v 12.587937 6.912471 3.716393
v 11.418253 6.921451 3.724923
v 12.561739 6.963260 3.701103
v 12.434139 7.052019 3.716713
v 12.573238 7.068958 3.782122
v 12.629738 7.007099 3.760233
v 11.399054 6.840591 3.711263
v 12.566339 6.904060 3.726953
v 12.043645 7.092649 3.741163
v 12.350941 7.091978 3.750123
v 11.392054 6.863842 3.753843
v 11.372153 6.870791 3.703103
v 11.405053 6.908491 3.763443
v 12.282342 6.984450 3.781263
v 12.693636 6.941960 3.775993
v 11.846348 6.978680 3.799242
v 12.663737 6.966590 3.758993
v 11.901647 7.084518 3.774383
v 12.482939 7.086898 3.772382
v 11.435653 6.872191 3.765393
v 11.393353 6.873241 3.747333
v 12.576738 6.923261 3.777092
v 12.655837 6.927570 3.777943
v 11.683949 6.915871 3.763873
v 11.530352 6.979610 3.764843
v 11.658850 7.020919 3.756673
v 12.200744 7.117358 3.790293
v 11.557252 6.891751 3.762873
v 12.749236 6.942350 3.823512
v 12.407540 6.980280 3.800072
v 12.105944 6.984820 3.774823
v 12.770135 6.966740 3.812652
v 12.755237 6.997900 3.815082
v 11.455052 6.945080 3.785952
v 12.700836 7.041849 3.819472
v 11.763148 7.060369 3.801252
v 12.040444 7.106888 3.798112
v 12.549338 6.972919 3.832642
v 12.792336 6.954770 3.832832
v 12.844335 6.964970 3.853621
v 11.567351 7.005459 3.825762
v 11.645250 7.025159 3.812762
v 12.549838 7.114788 3.835932
v 12.408541 7.126068 3.836422
v 11.434153 6.904770 3.790272
v 11.456753 6.937200 3.804232
v 11.628350 6.940510 3.814172
v 12.719737 6.940890 3.830122
v 12.760036 6.964930 3.885721
v 12.876134 6.989280 3.870011
v 11.511552 6.967370 3.814992
v 12.242642 7.030499 3.820632
v 12.828035 7.052188 3.886071
v 11.861847 7.087168 3.826732
v 12.725037 7.103918 3.889061
v 11.981445 7.099198 3.825242
v 12.114944 7.107918 3.828072
v 12.266542 7.121518 3.830462
v 11.515351 6.920660 3.807622
v 12.807135 6.955210 3.864971
v 12.887534 6.965350 3.889771
v 12.454240 7.025849 3.852351
v 12.065444 7.038979 3.831902
v 11.864247 7.032329 3.846252
v 11.643950 7.026739 3.840652
v 11.715349 7.045929 3.834022
v 11.808848 7.067369 3.839662
v 12.367541 7.127917 3.850322
v 11.515252 6.953890 3.825892
v 11.581251 6.958810 3.834352
v 12.706136 7.017419 3.927061
v 11.705050 6.991820 3.836682
v 12.933534 6.982010 3.901641
v 12.980533 7.000030 3.922981
v 11.591950 7.000350 3.836602
v 11.992846 7.063998 3.849411
v 12.276941 7.075819 3.847352
v 12.117144 7.085258 3.841502
v 11.998246 7.086668 3.843732
v 11.903847 7.082098 3.838132
v 12.260742 7.109168 3.839822
v 12.403041 7.113348 3.861451
v 12.464640 7.125868 3.866921
v 12.561638 7.127078 3.892351
v 11.623150 6.989900 3.838882
v 13.011432 6.996850 3.944781
v 11.727049 7.029369 3.840062
v 12.640738 7.073029 3.941410
v 12.995132 7.050359 3.958510
v 11.882647 7.061419 3.841382
v 12.475039 7.084558 3.882001
v 12.911834 7.108638 3.968570
v 12.509839 7.112998 3.886011
v 12.684237 7.138597 3.932380
v 12.832635 7.139187 3.973070
v 12.927933 6.982520 3.944850
v 12.986733 6.990880 3.942730
v 13.040732 7.020879 3.968980
v 12.576038 7.097448 3.913971
v 12.594137 7.112618 3.919181
v 13.051332 7.018209 3.985510
v 13.060032 7.047219 3.989150
v 12.673137 7.111738 3.964000
v 12.834635 7.160887 4.011209
v 13.023733 7.012599 3.994040
v 13.080232 7.066119 4.028429
v 13.063532 7.077589 4.015669
v 13.029932 7.102298 4.018329
v 12.665337 7.131497 3.950240
v 12.757635 7.154207 3.993660
v 12.899834 7.025489 3.995510
v 12.753336 7.139557 4.000989
v 12.854934 7.169847 4.036589
v 12.971333 7.141178 4.042619
v 12.999832 7.027659 4.016599
v 12.861235 7.089808 4.034139
v 12.752135 7.114638 3.999280
v 13.057631 7.106008 4.053449
v 12.829835 7.160707 4.032969
v 12.925933 7.163527 4.060109
v 13.060732 7.057319 4.038159
v 13.084332 7.098138 4.070098
v 13.082732 7.088438 4.058019
v 12.993333 7.071528 4.051339
v 12.850434 7.142478 4.043439
v 12.910434 7.161217 4.061859
v 13.056332 7.105498 4.078699
v 13.042032 7.123508 4.078378
v 12.975533 7.146167 4.077059
v 12.984432 7.111818 4.080779
v 12.939834 7.134468 4.070358
v 13.000733 7.124648 4.074698
vn -0.0434 -0.7487 -0.6614
vn -0.0918 0.0274 -0.9954
vn 0.1108 -0.6821 -0.7228
vn 0.0756 0.0716 -0.9946
vn 0.2317 -0.3958 -0.8886
vn -0.0683 0.6240 -0.7785
vn -0.2450 -0.0864 -0.9657
vn -0.2266 0.6236 -0.7482
vn 0.1265 0.4530 -0.8825
vn -0.0238 0.7644 -0.6443
vn -0.1769 -0.7045 -0.6873
vn 0.1083 -0.9747 -0.1957
vn 0.1551 -0.9342 -0.3214
vn -0.3228 0.0416 -0.9456
vn 0.2199 -0.3538 -0.9091
vn 0.1384 0.4769 -0.8680
vn 0.0430 0.7437 -0.6672
vn -0.1611 -0.9379 -0.3072
vn 0.0476 -0.9948 -0.0897
vn -0.3378 -0.5623 -0.7548
vn -0.5131 -0.0682 -0.8556
vn 0.1480 -0.9118 -0.3831
vn -0.3939 0.6370 -0.6626
vn 0.2244 -0.0936 -0.9700
vn 0.2354 -0.6664 -0.7075
vn -0.1485 0.8369 -0.5268
vn 0.2859 0.3148 -0.9051
vn -0.4938 -0.7023 -0.5127
vn 0.0999 -0.9822 0.1589
vn 0.1012 -0.9755 0.1954
vn 0.0597 -0.9981 0.0169
vn -0.7595 0.1427 -0.6347
vn 0.3458 -0.4412 -0.8281
vn -0.2476 0.8632 -0.4400
vn 0.1509 0.6919 -0.7061
vn 0.0471 0.7839 -0.6191
vn -0.0594 0.8397 -0.5398
vn -0.0011 -0.9973 0.0729
vn -0.7093 -0.6731 -0.2093
vn 0.0991 -0.9948 0.0242
vn 0.2259 -0.9243 -0.3076
vn 0.4066 -0.1165 -0.9061
vn -0.4752 0.7462 -0.4663
vn 0.2493 0.5987 -0.7612
vn -0.1808 0.8741 -0.4507
vn -0.2186 -0.9754 -0.0274
vn 0.0370 -0.9491 0.3127
vn -0.9241 0.0923 -0.3707
vn 0.3507 -0.7196 -0.5993
vn 0.4008 0.2583 -0.8790
vn 0.1123 -0.8995 0.4222
vn 0.0950 -0.9899 0.1053
vn 0.4903 -0.3955 -0.7767
vn 0.0173 -0.9669 0.2546
vn -0.3319 -0.9294 0.1617
vn 0.1396 -0.9255 0.3521
vn -0.7270 0.5530 -0.4070
vn 0.0547 -0.8689 0.4920
vn -0.0318 -0.8636 0.5032
vn 0.2735 -0.9329 -0.2345
vn -0.3407 0.8769 -0.3392
vn 0.4007 0.4196 -0.8145
vn -0.8912 -0.4372 0.1212
vn -0.9533 0.2641 -0.1466
vn 0.4512 -0.7595 -0.4686
vn -0.5516 0.7893 -0.2696
vn 0.5525 -0.0207 -0.8333
vn -0.2625 0.8920 -0.3681
vn 0.2854 0.6092 -0.7399
vn -0.1290 0.8803 -0.4565
vn -0.0586 -0.8886 0.4550
vn 0.1070 -0.9848 0.1371
vn 0.1307 0.7460 -0.6530
vn 0.1475 0.7295 -0.6679
vn -0.0309 0.8359 -0.5480
vn 0.1651 -0.8783 0.4487
vn 0.3193 -0.9387 -0.1302
vn 0.5938 -0.3741 -0.7123
vn 0.4825 0.3032 -0.8217
vn 0.0645 0.7919 -0.6072
vn -0.2368 -0.9205 0.3108
vn 0.1140 -0.9031 0.4140
vn -0.7599 -0.5066 0.4073
vn 0.1439 -0.8571 0.4947
vn -0.0455 -0.9131 0.4051
vn -0.9566 0.2909 0.0181
vn 0.0367 -0.8482 0.5284
vn -0.0555 -0.8165 0.5746
vn -0.8084 0.5858 0.0579
vn 0.5622 -0.0639 -0.8245
vn 0.3370 0.5478 -0.7657
vn -0.2153 0.9079 -0.3596
vn 0.0039 0.8730 -0.4877
vn -0.1322 -0.7785 0.6135
vn 0.0744 -0.9658 0.2483
vn 0.4746 -0.7847 -0.3987
vn -0.4998 0.8590 -0.1108
vn 0.4400 0.3717 -0.8175
vn 0.1968 0.7079 -0.6783
vn 0.2795 0.6828 -0.6750
vn 0.3823 0.4869 -0.7853
vn -0.0969 -0.8864 0.4526
vn 0.1870 -0.9743 0.1257
vn -0.0855 0.9235 -0.3740
vn 0.0881 0.8489 -0.5212
vn -0.5081 -0.5199 0.6867
vn -0.9497 0.0331 0.3115
vn -0.7955 0.4066 0.4494
vn -0.0912 -0.7207 0.6872
vn 0.4847 -0.5813 -0.6536
vn 0.1246 -0.7458 0.6545
vn 0.4715 0.1908 -0.8610
vn -0.1597 0.9598 -0.2306
vn 0.1721 0.7931 -0.5843
vn 0.0203 -0.7721 0.6352
vn -0.8442 0.0312 0.5351
vn -0.0397 -0.8996 0.4348
vn 0.2138 -0.9768 -0.0121
vn 0.1757 -0.8303 0.5289
vn -0.3799 0.9130 -0.1486
vn -0.2797 0.9259 -0.2541
vn -0.0313 0.9846 -0.1718
vn 0.1410 -0.8272 0.5439
vn 0.2399 -0.9620 -0.1301
vn -0.1632 -0.6918 0.7034
vn 0.0155 -0.7595 0.6503
vn 0.4694 -0.1255 -0.8740
vn 0.4011 0.4006 -0.8238
vn -0.5435 0.8167 0.1941
vn 0.3448 0.5868 -0.7327
vn -0.2553 0.9650 -0.0604
vn -0.0934 0.9946 -0.0451
vn -0.1905 -0.7182 0.6693
vn 0.3640 -0.8122 -0.4558
vn 0.4597 -0.5032 -0.7318
vn -0.4253 0.8344 0.3505
vn -0.2874 0.9567 -0.0464
vn 0.1236 0.8994 -0.4192
vn 0.0086 0.9940 -0.1095
vn -0.4390 -0.2285 0.8689
vn -0.5647 0.4122 0.7150
vn 0.1322 -0.7011 0.7007
vn 0.0413 -0.9655 0.2573
vn -0.1125 -0.8371 0.5353
vn 0.4458 0.1808 -0.8767
vn -0.4871 0.6852 0.5415
vn -0.0517 -0.6082 0.7921
vn 0.3412 0.5605 -0.7546
vn -0.1728 0.9499 0.2603
vn 0.2509 0.7425 -0.6211
vn -0.0933 0.9414 0.3243
vn -0.0620 0.8504 0.5225
vn -0.0937 0.9458 0.3108
vn -0.0004 -0.6228 0.7824
vn 0.1050 -0.9824 0.1545
vn 0.2724 -0.9473 -0.1687
vn -0.1999 -0.5504 0.8106
vn 0.0499 -0.4976 0.8660
vn 0.0218 -0.2627 0.9646
vn -0.2187 0.7104 0.6690
vn -0.2170 0.8529 0.4748
vn -0.1656 0.6528 0.7392
vn -0.1158 0.8138 0.5694
vn -0.2465 -0.0203 0.9689
vn 0.0037 -0.3869 0.9221
vn -0.2388 -0.6325 0.7369
vn 0.0767 -0.3766 0.9232
vn 0.4708 -0.5916 -0.6545
vn 0.5207 0.0312 -0.8532
vn -0.2320 0.2647 0.9360
vn 0.0149 -0.0021 0.9999
vn -0.0987 -0.1328 0.9862
vn 0.0026 0.1866 0.9824
vn -0.0414 0.5034 0.8631
vn -0.0751 0.6074 0.7909
vn -0.1144 0.4670 0.8768
vn -0.1749 0.3366 0.9253
vn -0.1306 0.7838 0.6071
vn -0.1806 0.9124 0.3672
vn -0.0405 -0.0544 0.9977
vn 0.5907 -0.6291 -0.5052
vn -0.0478 0.1479 0.9878
vn -0.3537 -0.2668 0.8965
vn 0.3879 0.4946 -0.7778
vn -0.0554 0.2107 0.9760
vn -0.2642 0.0120 0.9644
vn 0.2943 0.6924 -0.6587
vn -0.2665 0.4083 0.8730
vn -0.0217 0.9757 -0.2182
vn 0.2030 0.8171 -0.5396
vn 0.0135 -0.9130 0.4078
vn 0.2882 -0.9573 0.0207
vn 0.7405 -0.0659 -0.6689
vn -0.3879 0.1422 0.9107
vn -0.4078 0.4195 0.8110
vn 0.6462 -0.7619 0.0431
vn 0.6804 0.2633 -0.6839
vn -0.4575 0.1241 0.8805
vn 0.0994 0.9325 -0.3472
vn 0.1951 -0.8769 0.4393
vn 0.9769 -0.1023 -0.1878
vn 0.5898 0.5769 -0.5651
vn 0.3832 0.7160 -0.5835
vn -0.4146 0.6800 0.6047
vn -0.3179 0.8945 0.3144
vn -0.1697 -0.6931 0.7006
vn -0.4518 0.2775 0.8478
vn -0.1364 0.9498 0.2815
vn 0.3230 0.8832 -0.3400
vn -0.0177 -0.7373 0.6753
vn -0.2824 -0.4128 0.8660
vn -0.3849 -0.1460 0.9113
vn 0.5642 0.7566 -0.3305
vn -0.3774 0.4821 0.7907
vn 0.1728 0.9813 0.0851
vn 0.3254 -0.7136 0.6204
vn 0.8711 0.2988 0.3898
vn 0.6113 -0.5476 0.5713
vn -0.0797 -0.6047 0.7924
vn -0.3485 -0.0169 0.9372
vn -0.1956 0.4920 0.8483
vn 0.1757 -0.2281 0.9576
vn 0.3751 0.7383 0.5606
vn 0.1251 0.6297 0.7667
vn -0.1109 -0.1662 0.9798
vn -0.1975 0.0225 0.9800
vn 0.0113 0.1790 0.9838
usemtl mtl1.1346
s 1
f 1//1 2//2 3//3
f 3//3 2//2 4//4
f 4//4 5//5 3//3
f 4//4 2//2 6//6
f 2//2 7//7 8//8
f 6//6 2//2 8//8
f 9//9 4//4 6//6
f 5//5 4//4 9//9
f 9//9 6//6 10//10
f 11//11 7//7 1//1
f 7//7 2//2 1//1
f 3//3 12//12 1//1
f 12//12 3//3 13//13
f 7//7 11//11 14//14
f 13//13 3//3 5//5
f 5//5 15//15 13//13
f 7//7 14//14 8//8
f 15//15 5//5 9//9
f 16//16 15//15 9//9
f 10//10 17//17 9//9
f 17//17 16//16 9//9
f 18//18 11//11 19//19
f 11//11 1//1 19//19
f 1//1 12//12 19//19
f 20//20 21//21 14//14
f 20//20 14//14 11//11
f 15//15 22//22 13//13
f 21//21 23//23 14//14
f 15//15 24//24 25//25
f 14//14 23//23 8//8
f 24//24 15//15 16//16
f 8//8 26//26 6//6
f 26//26 10//10 6//6
f 27//27 24//24 16//16
f 20//20 11//11 18//18
f 20//20 28//28 21//21
f 19//19 29//29 30//30
f 12//12 29//29 19//19
f 13//13 29//29 12//12
f 13//13 31//31 29//29
f 32//32 21//21 28//28
f 13//13 22//22 31//31
f 21//21 32//32 23//23
f 25//25 22//22 15//15
f 24//24 33//33 25//25
f 33//33 24//24 27//27
f 8//8 23//23 34//34
f 34//34 26//26 8//8
f 16//16 35//35 27//27
f 17//17 36//36 16//16
f 36//36 35//35 16//16
f 10//10 26//26 37//37
f 28//28 20//20 18//18
f 19//19 38//38 18//18
f 19//19 30//30 38//38
f 32//32 28//28 39//39
f 22//22 40//40 31//31
f 25//25 41//41 22//22
f 33//33 41//41 25//25
f 33//33 42//42 41//41
f 32//32 43//43 23//23
f 23//23 43//43 34//34
f 27//27 42//42 33//33
f 27//27 44//44 42//42
f 35//35 44//44 27//27
f 45//45 26//26 34//34
f 37//37 26//26 45//45
f 17//17 10//10 37//37
f 18//18 46//46 28//28
f 40//40 47//47 31//31
f 22//22 41//41 40//40
f 32//32 39//39 48//48
f 43//43 32//32 48//48
f 42//42 49//49 41//41
f 50//50 42//42 44//44
f 28//28 46//46 39//39
f 18//18 38//38 46//46
f 29//29 47//47 51//51
f 31//31 47//47 29//29
f 41//41 47//47 40//40
f 41//41 52//52 47//47
f 53//53 42//42 50//50
f 49//49 42//42 53//53
f 17//17 37//37 36//36
f 46//46 54//54 55//55
f 39//39 46//46 55//55
f 46//46 38//38 54//54
f 38//38 30//30 54//54
f 29//29 56//56 30//30
f 29//29 51//51 56//56
f 48//48 57//57 43//43
f 47//47 58//58 51//51
f 59//59 58//58 47//47
f 49//49 60//60 41//41
f 41//41 60//60 52//52
f 49//49 53//53 60//60
f 34//34 43//43 61//61
f 44//44 62//62 50//50
f 39//39 55//55 63//63
f 48//48 39//39 63//63
f 63//63 64//64 48//48
f 48//48 64//64 57//57
f 53//53 65//65 60//60
f 57//57 64//64 66//66
f 43//43 57//57 66//66
f 65//65 53//53 67//67
f 50//50 67//67 53//53
f 50//50 62//62 67//67
f 34//34 61//61 68//68
f 45//45 34//34 68//68
f 62//62 44//44 69//69
f 37//37 45//45 70//70
f 30//30 56//56 54//54
f 71//71 59//59 47//47
f 52//52 71//71 47//47
f 60//60 72//72 52//52
f 52//52 72//72 71//71
f 60//60 65//65 72//72
f 43//43 66//66 61//61
f 44//44 35//35 73//73
f 36//36 73//73 35//35
f 74//74 44//44 73//73
f 36//36 37//37 75//75
f 51//51 76//76 56//56
f 72//72 65//65 77//77
f 65//65 67//67 78//78
f 65//65 78//78 77//77
f 78//78 67//67 79//79
f 67//67 62//62 79//79
f 62//62 69//69 79//79
f 44//44 74//74 69//69
f 75//75 37//37 70//70
f 80//80 36//36 75//75
f 73//73 36//36 80//80
f 54//54 81//81 55//55
f 54//54 82//82 81//81
f 56//56 82//82 54//54
f 81//81 63//63 55//55
f 83//83 63//63 81//81
f 84//84 76//76 51//51
f 51//51 58//58 84//84
f 85//85 71//71 72//72
f 64//64 86//86 66//66
f 59//59 87//87 58//58
f 71//71 88//88 59//59
f 66//66 86//86 89//89
f 78//78 79//79 90//90
f 79//79 69//69 91//91
f 45//45 68//68 92//92
f 70//70 45//45 92//92
f 80//80 75//75 93//93
f 63//63 86//86 64//64
f 71//71 85//85 94//94
f 72//72 95//95 85//85
f 72//72 77//77 95//95
f 94//94 88//88 71//71
f 77//77 78//78 96//96
f 66//66 89//89 97//97
f 61//61 66//66 97//97
f 90//90 79//79 98//98
f 79//79 91//91 98//98
f 99//99 91//91 69//69
f 74//74 99//99 69//69
f 74//74 73//73 80//80
f 56//56 76//76 82//82
f 78//78 90//90 96//96
f 88//88 87//87 59//59
f 91//91 99//99 100//100
f 91//91 100//100 101//101
f 83//83 81//81 102//102
f 82//82 102//102 81//81
f 96//96 103//103 77//77
f 77//77 103//103 95//95
f 58//58 87//87 84//84
f 98//98 91//91 101//101
f 75//75 70//70 104//104
f 99//99 74//74 105//105
f 102//102 106//106 83//83
f 83//83 107//107 63//63
f 63//63 107//107 86//86
f 107//107 89//89 86//86
f 108//108 97//97 89//89
f 94//94 109//109 88//88
f 90//90 110//110 96//96
f 87//87 111//111 84//84
f 112//112 110//110 90//90
f 112//112 90//90 98//98
f 101//101 112//112 98//98
f 70//70 92//92 113//113
f 80//80 105//105 74//74
f 100//100 99//99 114//114
f 104//104 70//70 113//113
f 75//75 104//104 93//93
f 115//115 106//106 102//102
f 82//82 115//115 102//102
f 83//83 116//116 107//107
f 106//106 116//116 83//83
f 117//117 94//94 85//85
f 95//95 117//117 85//85
f 96//96 118//118 103//103
f 107//107 108//108 89//89
f 84//84 119//119 76//76
f 110//110 118//118 96//96
f 111//111 119//119 84//84
f 61//61 97//97 120//120
f 68//68 61//61 120//120
f 68//68 120//120 121//121
f 92//92 68//68 121//121
f 80//80 93//93 105//105
f 99//99 105//105 114//114
f 93//93 104//104 122//122
f 123//123 115//115 82//82
f 76//76 123//123 82//82
f 103//103 117//117 95//95
f 110//110 124//124 118//118
f 125//125 109//109 94//94
f 87//87 88//88 126//126
f 127//127 112//112 128//128
f 110//110 112//112 127//127
f 97//97 129//129 120//120
f 112//112 101//101 128//128
f 101//101 130//130 128//128
f 101//101 100//100 130//130
f 92//92 121//121 131//131
f 113//113 92//92 131//131
f 122//122 104//104 132//132
f 93//93 122//122 105//105
f 76//76 119//119 123//123
f 103//103 118//118 117//117
f 116//116 108//108 107//107
f 94//94 117//117 133//133
f 125//125 94//94 133//133
f 110//110 127//127 134//134
f 110//110 134//134 124//124
f 108//108 129//129 97//97
f 126//126 111//111 87//87
f 127//127 135//135 134//134
f 109//109 126//126 88//88
f 120//120 136//136 137//137
f 121//121 120//120 137//137
f 104//104 113//113 132//132
f 100//100 114//114 138//138
f 105//105 122//122 139//139
f 138//138 105//105 139//139
f 114//114 105//105 138//138
f 106//106 115//115 140//140
f 116//116 106//106 140//140
f 116//116 140//140 108//108
f 108//108 140//140 141//141
f 123//123 119//119 142//142
f 143//143 144//144 117//117
f 118//118 143//143 117//117
f 108//108 141//141 129//129
f 145//145 135//135 127//127
f 146//146 120//120 129//129
f 127//127 128//128 145//145
f 136//136 120//120 146//146
f 109//109 147//147 126//126
f 148//148 145//145 128//128
f 128//128 130//130 148//148
f 121//121 137//137 131//131
f 113//113 131//131 149//149
f 150//150 130//130 100//100
f 113//113 149//149 151//151
f 132//132 113//113 151//151
f 150//150 100//100 138//138
f 122//122 132//132 152//152
f 122//122 152//152 153//153
f 122//122 153//153 139//139
f 115//115 123//123 154//154
f 140//140 115//115 154//154
f 142//142 154//154 123//123
f 133//133 117//117 144//144
f 124//124 143//143 118//118
f 134//134 155//155 124//124
f 134//134 135//135 156//156
f 134//134 156//156 155//155
f 119//119 111//111 142//142
f 125//125 133//133 157//157
f 129//129 141//141 146//146
f 111//111 126//126 158//158
f 109//109 125//125 157//157
f 158//158 159//159 111//111
f 126//126 147//147 158//158
f 109//109 157//157 147//147
f 137//137 136//136 160//160
f 137//137 160//160 161//161
f 137//137 161//161 131//131
f 162//162 131//131 161//161
f 149//149 131//131 162//162
f 132//132 151//151 152//152
f 139//139 153//153 163//163
f 140//140 154//154 164//164
f 141//141 140//140 164//164
f 164//164 154//154 165//165
f 154//154 142//142 165//165
f 155//155 143//143 124//124
f 144//144 166//166 133//133
f 167//167 165//165 142//142
f 167//167 142//142 111//111
f 156//156 135//135 168//168
f 145//145 168//168 135//135
f 169//169 168//168 145//145
f 164//164 146//146 141//141
f 111//111 159//159 167//167
f 136//136 146//146 170//170
f 136//136 170//170 160//160
f 159//159 158//158 171//171
f 158//158 147//147 172//172
f 147//147 157//157 172//172
f 158//158 173//173 171//171
f 172//172 173//173 158//158
f 130//130 150//150 148//148
f 171//171 173//173 174//174
f 149//149 162//162 175//175
f 151//151 149//149 175//175
f 175//175 174//174 151//151
f 173//173 152//152 174//174
f 176//176 152//152 173//173
f 152//152 151//151 174//174
f 176//176 177//177 163//163
f 176//176 153//153 152//152
f 163//163 153//153 176//176
f 139//139 163//163 178//178
f 138//138 139//139 179//179
f 139//139 178//178 179//179
f 155//155 144//144 143//143
f 180//180 170//170 164//164
f 165//165 180//180 164//164
f 165//165 167//167 180//180
f 168//168 169//169 181//181
f 164//164 170//170 146//146
f 157//157 133//133 166//166
f 182//182 170//170 180//180
f 167//167 182//182 180//180
f 167//167 159//159 182//182
f 183//183 157//157 166//166
f 145//145 148//148 184//184
f 145//145 184//184 169//169
f 160//160 170//170 182//182
f 185//185 182//182 159//159
f 159//159 171//171 185//185
f 182//182 161//161 160//160
f 172//172 157//157 186//186
f 186//186 157//157 183//183
f 148//148 187//187 184//184
f 162//162 161//161 182//182
f 185//185 162//162 182//182
f 185//185 175//175 162//162
f 174//174 175//175 185//185
f 171//171 174//174 185//185
f 172//172 176//176 173//173
f 177//177 176//176 172//172
f 186//186 177//177 172//172
f 188//188 177//177 186//186
f 177//177 188//188 178//178
f 178//178 163//163 177//177
f 138//138 179//179 189//189
f 150//150 138//138 189//189
f 190//190 150//150 189//189
f 191//191 144//144 155//155
f 156//156 191//191 155//155
f 168//168 192//192 156//156
f 156//156 192//192 191//191
f 168//168 181//181 192//192
f 193//193 181//181 169//169
f 184//184 193//193 169//169
f 186//186 183//183 194//194
f 148//148 150//150 187//187
f 194//194 188//188 186//186
f 190//190 187//187 150//150
f 195//195 188//188 194//194
f 188//188 195//195 179//179
f 188//188 179//179 178//178
f 192//192 181//181 196//196
f 181//181 193//193 196//196
f 193//193 184//184 197//197
f 194//194 183//183 198//198
f 198//198 195//195 194//194
f 190//190 189//189 199//199
f 192//192 200//200 191//191
f 196//196 200//200 192//192
f 201//201 193//193 197//197
f 184//184 202//202 197//197
f 201//201 197//197 202//202
f 187//187 203//203 184//184
f 202//202 184//184 203//203
f 198//198 204//204 195//195
f 195//195 204//204 179//179
f 179//179 204//204 189//189
f 204//204 205//205 189//189
f 189//189 205//205 199//199
f 144//144 191//191 206//206
f 206//206 166//166 144//144
f 201//201 196//196 193//193
f 204//204 198//198 207//207
f 208//208 199//199 205//205
f 187//187 190//190 209//209
f 209//209 190//190 199//199
f 210//210 206//206 191//191
f 200//200 210//210 191//191
f 166//166 206//206 211//211
f 198//198 183//183 212//212
f 166//166 211//211 183//183
f 201//201 202//202 213//213
f 212//212 207//207 198//198
f 204//204 207//207 205//205
f 203//203 187//187 209//209
f 205//205 214//214 208//208
f 205//205 207//207 214//214
f 199//199 215//215 209//209
f 215//215 199//199 208//208
f 196//196 216//216 200//200
f 196//196 201//201 216//216
f 183//183 211//211 212//212
f 213//213 217//217 201//201
f 201//201 217//217 218//218
f 202//202 203//203 213//213
f 211//211 206//206 219//219
f 206//206 210//210 219//219
f 200//200 216//216 210//210
f 218//218 216//216 201//201
f 211//211 220//220 212//212
f 220//220 207//207 212//212
f 203//203 209//209 213//213
f 207//207 220//220 214//214
f 208//208 214//214 221//221
f 208//208 221//221 215//215
f 210//210 216//216 219//219
f 216//216 218//218 222//222
f 222//222 218//218 217//217
f 213//213 209//209 223//223
f 213//213 223//223 217//217
f 224//224 209//209 215//215
f 223//223 209//209 224//224
f 224//224 215//215 221//221
f 219//219 216//216 222//222
f 211//211 219//219 225//225
f 211//211 226//226 220//220
f 225//225 226//226 211//211
f 217//217 223//223 222//222
f 226//226 221//221 220//220
f 220//220 221//221 214//214
f 225//225 219//219 222//222
f 225//225 227//227 226//226
f 222//222 227//227 225//225
f 227//227 222//222 223//223
f 227//227 224//224 226//226
f 224//224 221//221 226//226
f 223//223 224//224 227//227
