# Blender v2.92.0 OBJ File: 'convert_to_one_sided.blend'
# www.blender.org
mtllib 556L.mtl
o 556
v 3.388006 4.322753 5.402871
v 3.422026 4.340493 5.394821
v 3.450346 4.290334 5.412071
v 3.461465 4.328653 5.405641
v 3.367857 4.323963 5.409750
v 3.387126 4.355453 5.403671
v 3.417456 4.364383 5.399021
v 3.436356 4.372933 5.414221
v 3.404176 4.377933 5.414011
v 3.490935 4.279944 5.421551
v 3.480425 4.231194 5.435480
v 3.384946 4.274594 5.429310
v 3.502905 4.274264 5.430770
v 3.349177 4.293354 5.443740
v 3.482035 4.321934 5.429161
v 3.370616 4.349933 5.443361
v 3.470005 4.346973 5.438681
v 3.405566 4.378143 5.430611
v 3.428886 4.371003 5.446421
v 3.562774 4.186635 5.457750
v 3.489135 4.083887 5.461430
v 3.390636 4.166055 5.454060
v 3.325737 4.177345 5.466340
v 3.293628 3.487534 5.467080
v 3.116760 3.324496 5.494370
v 3.124960 3.420505 5.487180
v 3.276058 3.350236 5.488110
v 3.560614 3.333916 5.485460
v 3.601104 3.348026 5.473100
v 3.725352 3.343416 5.483040
v 3.732102 3.374966 5.475740
v 3.769032 3.395066 5.484470
v 3.440256 3.393845 5.469480
v 3.451926 3.350376 5.483550
v 3.630333 3.511404 5.467540
v 3.538934 3.592743 5.463680
v 3.756132 3.526684 5.482140
v 3.236778 3.613642 5.482670
v 3.781771 3.432685 5.489570
v 3.530895 3.719281 5.462070
v 3.629473 3.751761 5.464320
v 3.720402 3.731871 5.477300
v 3.435096 3.777801 5.470130
v 3.772501 3.657222 5.492110
v 3.311867 3.801140 5.480950
v 3.393776 3.897499 5.474420
v 3.675533 3.916269 5.478780
v 3.760002 3.773781 5.493590
v 3.565034 3.896959 5.466970
v 3.721382 3.863519 5.492040
v 3.458705 3.931648 5.469770
v 3.603484 4.053367 5.476040
v 3.379267 3.977028 5.472960
v 3.330737 4.052027 5.476250
v 3.599974 4.126846 5.476200
v 3.620293 4.084257 5.489320
v 3.572214 4.188305 5.474230
v 3.511735 4.273834 5.454151
v 3.290348 4.167106 5.488430
v 3.316337 4.251594 5.495160
v 3.476585 4.321223 5.465000
v 3.386776 4.356853 5.464090
v 3.063190 3.304976 5.509580
v 3.074311 3.363776 5.504210
v 3.099640 3.297966 5.509779
v 3.170759 3.308146 5.513060
v 3.289618 3.322246 5.514249
v 3.413336 3.334156 5.500979
v 3.773421 3.388685 5.488080
v 3.100800 3.493714 5.506750
v 3.781591 3.520304 5.498700
v 3.159829 3.668632 5.500870
v 3.228809 3.769590 5.490070
v 3.189559 3.801490 5.502979
v 3.291588 3.892579 5.485890
v 3.779751 3.688962 5.509820
v 3.244218 3.954138 5.498390
v 3.693472 3.940628 5.493460
v 3.660913 3.999788 5.501790
v 3.231718 4.020007 5.518039
v 3.283068 4.075227 5.491970
v 3.597474 4.122926 5.494990
v 3.352007 4.316533 5.485560
v 3.096280 3.300467 5.511010
v 3.058981 3.378276 5.519740
v 3.392736 3.326836 5.518209
v 3.556794 3.328866 5.511350
v 3.714912 3.352416 5.498940
v 3.068581 3.482754 5.534469
v 3.125400 3.665882 5.530769
v 3.182169 3.856189 5.527150
v 3.749362 3.829730 5.511250
v 3.705912 3.914459 5.504170
v 3.707822 3.918349 5.519209
v 3.258778 4.100337 5.534369
v 3.530505 4.241125 5.473850
v 3.426546 4.335523 5.482150
v 3.067051 3.327606 5.523399
v 3.223188 3.311027 5.528259
v 3.313497 3.326066 5.531949
v 3.663923 3.347626 5.528739
v 3.773792 3.428645 5.501510
v 3.057801 3.404135 5.534329
v 3.784931 3.551123 5.526670
v 3.770982 3.715951 5.538739
v 3.148999 3.799990 5.551489
v 3.115620 3.669162 5.563509
v 3.766121 3.766421 5.522160
v 3.193269 3.927449 5.541739
v 3.740382 3.829790 5.532479
v 3.213009 3.989418 5.547209
v 3.658493 3.998568 5.521820
v 3.506725 4.228765 5.503210
v 3.291847 4.182845 5.540509
v 3.325757 4.261664 5.516650
v 3.365267 4.296024 5.508410
v 3.131740 3.312646 5.527139
v 3.505055 3.338426 5.530849
v 3.748362 3.429865 5.524519
v 3.067331 3.475384 5.550669
v 3.759851 3.503514 5.549719
v 3.095920 3.569853 5.551799
v 3.769711 3.600313 5.546219
v 3.585824 4.065417 5.537289
v 3.463385 4.196935 5.540249
v 3.423946 4.264094 5.517249
v 3.101110 3.327106 5.540969
v 3.225809 3.331116 5.540499
v 3.075230 3.389565 5.543589
v 3.425136 3.344226 5.542649
v 3.575414 3.362766 5.545309
v 3.694862 3.410265 5.540979
v 3.101620 3.579353 5.564429
v 3.139430 3.761251 5.569519
v 3.733872 3.825730 5.548139
v 3.179769 3.880619 5.568009
v 3.692693 3.910589 5.535699
v 3.221899 3.994168 5.564469
v 3.258608 4.062537 5.571349
v 3.326737 4.234145 5.536900
v 3.380077 4.202725 5.548779
v 3.156889 3.389066 5.554409
v 3.370407 3.398985 5.555139
v 3.121340 3.499984 5.564929
v 3.245248 3.482604 5.567688
v 3.584154 3.453925 5.554759
v 3.432916 3.514054 5.571419
v 3.619034 3.562743 5.571229
v 3.726742 3.642532 5.559779
v 3.127250 3.681312 5.574789
v 3.666123 3.845500 5.558089
v 3.497685 4.043177 5.565188
v 3.313357 4.149816 5.560479
v 3.281588 3.594023 5.586779
v 3.168529 3.668962 5.587308
v 3.486275 3.616482 5.587059
v 3.610484 3.698161 5.576409
v 3.381586 3.677372 5.599988
v 3.504565 3.740381 5.594698
v 3.169309 3.795460 5.583339
v 3.528515 3.864579 5.582399
v 3.436246 3.858469 5.601919
v 3.213398 3.925578 5.582748
v 3.407356 3.980948 5.590989
v 3.260768 3.962138 5.594298
v 3.320667 4.034437 5.586228
v 3.382566 4.082306 5.570189
v 3.298657 3.741681 5.603708
v 3.394236 3.785630 5.603478
v 3.241248 3.834860 5.593908
v 3.336907 3.885859 5.596169
vn -0.2342 -0.2253 -0.9457
vn 0.0037 -0.0076 -1.0000
vn 0.0523 -0.3141 -0.9480
vn 0.4878 0.1825 -0.8537
vn -0.6207 -0.1329 -0.7727
vn -0.5779 0.3649 -0.7300
vn 0.0827 0.4925 -0.8664
vn 0.4561 0.8216 -0.3420
vn -0.3084 0.8679 -0.3895
vn 0.3860 -0.1976 -0.9011
vn 0.1349 -0.2617 -0.9557
vn -0.2827 -0.3387 -0.8974
vn 0.6951 0.1138 -0.7098
vn -0.8093 0.1255 -0.5738
vn 0.7945 0.4450 -0.4132
vn -0.7738 0.6310 -0.0550
vn 0.7381 0.6689 0.0886
vn -0.1906 0.9705 0.1477
vn 0.2948 0.8444 0.4473
vn 0.5638 0.1487 -0.8124
vn 0.0176 -0.0825 -0.9964
vn -0.1209 -0.1733 -0.9774
vn -0.3952 -0.0785 -0.9153
vn -0.0639 -0.0331 -0.9974
vn -0.0958 -0.3371 -0.9366
vn -0.2480 0.0375 -0.9680
vn 0.0011 -0.5156 -0.8568
vn 0.0207 -0.8988 -0.4379
vn 0.0064 -0.3641 -0.9313
vn 0.3734 -0.7603 -0.5316
vn 0.1818 -0.1513 -0.9716
vn 0.5405 -0.2312 -0.8089
vn -0.0260 -0.1538 -0.9878
vn -0.0508 -0.5419 -0.8389
vn 0.0663 -0.0187 -0.9976
vn 0.0116 -0.0203 -0.9997
vn 0.3801 0.0248 -0.9246
vn -0.1726 0.0596 -0.9832
vn 0.8203 -0.0478 -0.5700
vn -0.0172 0.0159 -0.9997
vn 0.0780 0.0164 -0.9968
vn 0.2706 0.0510 -0.9614
vn -0.0728 0.0267 -0.9970
vn 0.6538 0.0442 -0.7553
vn -0.1056 0.0253 -0.9941
vn -0.0885 -0.0046 -0.9961
vn 0.3252 0.1688 -0.9304
vn 0.7172 0.1765 -0.6742
vn 0.0341 0.0216 -0.9992
vn 0.6520 0.2524 -0.7150
vn -0.0525 -0.0211 -0.9984
vn 0.4160 0.0837 -0.9055
vn -0.0876 -0.0305 -0.9957
vn -0.1986 -0.0472 -0.9789
vn 0.8574 0.3001 -0.4181
vn 0.8588 0.3195 -0.4005
vn 0.8671 0.4972 -0.0288
vn 0.8587 0.5029 -0.0987
vn -0.7904 0.1712 -0.5882
vn -0.9122 0.4084 -0.0340
vn 0.6165 0.5828 0.5294
vn -0.2831 0.7779 0.5610
vn -0.6969 -0.5999 -0.3930
vn -0.5047 0.0111 -0.8632
vn -0.0501 -0.9055 -0.4213
vn 0.1030 -0.9605 -0.2585
vn 0.0795 -0.9566 -0.2803
vn -0.0124 -0.8630 -0.5051
vn 0.9047 -0.4204 0.0691
vn -0.5464 0.1483 -0.8243
vn 0.9663 -0.0165 -0.2568
vn -0.4128 0.1033 -0.9050
vn -0.1964 0.0560 -0.9789
vn -0.4744 0.1355 -0.8698
vn -0.1702 0.0193 -0.9852
vn 0.9848 0.1132 -0.1313
vn -0.4458 0.1022 -0.8893
vn 0.7007 0.3684 -0.6110
vn 0.8298 0.4491 -0.3312
vn -0.8059 0.2379 -0.5421
vn -0.4668 0.0320 -0.8838
vn 0.7924 0.4653 0.3945
vn -0.6510 0.6349 0.4160
vn -0.1426 -0.8989 0.4142
vn -0.9410 0.0173 -0.3379
vn 0.0381 -0.9973 0.0631
vn 0.0702 -0.9938 0.0857
vn 0.4069 -0.8060 0.4300
vn -0.9535 0.2084 -0.2177
vn -0.8327 0.2231 -0.5068
vn -0.7550 0.2137 -0.6199
vn 0.9311 0.3377 -0.1377
vn 0.8748 0.4126 -0.2540
vn 0.8549 0.4491 0.2598
vn -0.9238 0.3705 0.0968
vn 0.7118 0.5301 0.4608
vn 0.2123 0.5648 0.7974
vn -0.6385 -0.4656 0.6128
vn 0.0695 -0.9229 0.3786
vn 0.0706 -0.8739 0.4810
vn 0.2370 -0.6433 0.7280
vn 0.8086 -0.2802 0.5174
vn -0.9302 -0.0519 0.3633
vn 0.9046 -0.0801 0.4187
vn 0.7224 0.1139 0.6821
vn -0.9491 0.2785 -0.1469
vn -0.9562 0.1972 0.2162
vn 0.9458 0.2297 0.2294
vn -0.9308 0.2964 -0.2141
vn 0.8180 0.3323 0.4696
vn -0.9353 0.3509 0.0457
vn 0.7334 0.4513 0.5084
vn 0.4701 0.4433 0.7632
vn -0.7163 0.4023 0.5701
vn -0.6402 0.5435 0.5430
vn -0.1380 0.5381 0.8315
vn -0.0604 -0.8007 0.5960
vn 0.0552 -0.7955 0.6034
vn 0.5726 -0.3686 0.7322
vn -0.7705 0.0795 0.6324
vn 0.3899 -0.1568 0.9074
vn -0.9609 0.2413 0.1356
vn 0.5755 0.0086 0.8178
vn 0.4188 0.3161 0.8513
vn 0.2540 0.3317 0.9085
vn 0.1919 0.4277 0.8833
vn -0.1791 -0.4457 0.8771
vn 0.0206 -0.4823 0.8758
vn -0.3962 -0.1435 0.9069
vn 0.0343 -0.5164 0.8556
vn 0.0656 -0.3412 0.9377
vn 0.2221 -0.2584 0.9402
vn -0.6352 0.0752 0.7687
vn -0.8248 0.2343 0.5146
vn 0.5323 0.2389 0.8121
vn -0.8509 0.2994 0.4317
vn 0.5363 0.3355 0.7745
vn -0.7885 0.3441 0.5098
vn -0.5138 0.3031 0.8026
vn -0.2853 0.4162 0.8633
vn 0.0579 0.2915 0.9548
vn -0.0500 -0.1622 0.9855
vn 0.0145 -0.1819 0.9832
vn -0.1713 -0.0950 0.9806
vn -0.0135 -0.1436 0.9895
vn 0.0597 -0.1446 0.9877
vn 0.0274 -0.1622 0.9864
vn 0.0918 -0.1033 0.9904
vn 0.2454 0.0279 0.9690
vn -0.5855 0.0973 0.8048
vn 0.2315 0.1182 0.9656
vn 0.1761 0.1779 0.9682
vn -0.1523 0.2610 0.9533
vn -0.0259 -0.1411 0.9897
vn -0.1976 -0.0272 0.9799
vn 0.0678 -0.1163 0.9909
vn 0.1529 0.0048 0.9882
vn 0.0279 -0.0867 0.9958
vn 0.1248 -0.0162 0.9920
vn -0.4363 0.1296 0.8904
vn 0.1916 0.0926 0.9771
vn 0.0787 0.0602 0.9951
vn -0.4827 0.1838 0.8563
vn 0.0901 0.1428 0.9856
vn -0.1587 0.1112 0.9811
vn -0.0226 0.1713 0.9850
vn 0.0812 0.2052 0.9753
vn -0.0520 -0.0173 0.9985
vn 0.0170 0.0025 0.9999
vn -0.1467 0.0407 0.9883
vn -0.0228 0.0565 0.9981
usemtl mtl1.1347
s 1
f 1//1 2//2 3//3
f 4//4 3//3 2//2
f 1//1 5//5 6//6
f 2//2 1//1 6//6
f 4//4 2//2 7//7
f 4//4 7//7 8//8
f 6//6 7//7 2//2
f 9//9 7//7 6//6
f 9//9 8//8 7//7
f 3//3 10//10 11//11
f 1//1 12//12 5//5
f 3//3 12//12 1//1
f 4//4 10//10 3//3
f 4//4 13//13 10//10
f 5//5 14//14 6//6
f 13//13 4//4 15//15
f 8//8 15//15 4//4
f 16//16 9//9 6//6
f 15//15 8//8 17//17
f 18//18 8//8 9//9
f 19//19 8//8 18//18
f 20//20 21//21 11//11
f 21//21 22//22 11//11
f 11//11 22//22 12//12
f 12//12 23//23 14//14
f 3//3 11//11 12//12
f 10//10 13//13 11//11
f 13//13 20//20 11//11
f 5//5 12//12 14//14
f 16//16 6//6 14//14
f 8//8 19//19 17//17
f 9//9 16//16 18//18
f 24//24 25//25 26//26
f 27//27 25//25 24//24
f 28//28 29//29 30//30
f 29//29 31//31 30//30
f 30//30 31//31 32//32
f 33//33 27//27 24//24
f 34//34 27//27 33//33
f 31//31 29//29 35//35
f 29//29 34//34 33//33
f 33//33 24//24 36//36
f 35//35 29//29 33//33
f 31//31 35//35 37//37
f 37//37 32//32 31//31
f 26//26 38//38 24//24
f 35//35 33//33 36//36
f 39//39 32//32 37//37
f 36//36 24//24 40//40
f 35//35 36//36 41//41
f 37//37 35//35 42//42
f 40//40 24//24 43//43
f 35//35 41//41 42//42
f 44//44 37//37 42//42
f 43//43 24//24 38//38
f 41//41 36//36 40//40
f 43//43 38//38 45//45
f 45//45 46//46 43//43
f 42//42 41//41 47//47
f 48//48 44//44 42//42
f 49//49 40//40 43//43
f 49//49 41//41 40//40
f 47//47 41//41 49//49
f 47//47 50//50 42//42
f 43//43 46//46 51//51
f 49//49 43//43 51//51
f 47//47 49//49 52//52
f 21//21 51//51 53//53
f 49//49 51//51 21//21
f 53//53 54//54 21//21
f 21//21 54//54 22//22
f 52//52 49//49 21//21
f 22//22 54//54 23//23
f 55//55 56//56 52//52
f 52//52 20//20 55//55
f 21//21 20//20 52//52
f 20//20 57//57 55//55
f 22//22 23//23 12//12
f 20//20 13//13 58//58
f 20//20 58//58 57//57
f 23//23 59//59 14//14
f 14//14 59//59 60//60
f 60//60 16//16 14//14
f 13//13 15//15 58//58
f 58//58 15//15 17//17
f 61//61 17//17 19//19
f 16//16 62//62 18//18
f 25//25 63//63 64//64
f 63//63 25//25 65//65
f 25//25 27//27 66//66
f 65//65 25//25 66//66
f 66//66 27//27 67//67
f 67//67 27//27 68//68
f 64//64 26//26 25//25
f 68//68 27//27 34//34
f 34//34 28//28 68//68
f 30//30 32//32 69//69
f 28//28 34//34 29//29
f 39//39 69//69 32//32
f 64//64 70//70 26//26
f 26//26 70//70 38//38
f 71//71 69//69 39//39
f 38//38 70//70 72//72
f 71//71 39//39 37//37
f 73//73 38//38 72//72
f 45//45 38//38 73//73
f 44//44 71//71 37//37
f 74//74 73//73 72//72
f 45//45 73//73 75//75
f 48//48 76//76 44//44
f 45//45 75//75 46//46
f 48//48 42//42 50//50
f 75//75 73//73 74//74
f 75//75 74//74 77//77
f 50//50 47//47 78//78
f 75//75 77//77 54//54
f 46//46 75//75 53//53
f 51//51 46//46 53//53
f 53//53 75//75 54//54
f 78//78 47//47 79//79
f 47//47 52//52 79//79
f 77//77 80//80 81//81
f 77//77 81//81 54//54
f 52//52 56//56 79//79
f 54//54 81//81 23//23
f 59//59 23//23 81//81
f 56//56 55//55 82//82
f 83//83 16//16 60//60
f 17//17 61//61 58//58
f 62//62 16//16 83//83
f 18//18 62//62 19//19
f 84//84 65//65 66//66
f 65//65 84//84 63//63
f 85//85 64//64 63//63
f 68//68 86//86 67//67
f 68//68 28//28 87//87
f 86//86 68//68 87//87
f 28//28 88//88 87//87
f 30//30 88//88 28//28
f 30//30 69//69 88//88
f 64//64 85//85 70//70
f 70//70 85//85 89//89
f 90//90 70//70 89//89
f 70//70 90//90 72//72
f 71//71 44//44 76//76
f 72//72 90//90 74//74
f 90//90 91//91 74//74
f 48//48 92//92 76//76
f 48//48 50//50 92//92
f 74//74 91//91 77//77
f 50//50 93//93 92//92
f 50//50 78//78 93//93
f 80//80 77//77 91//91
f 79//79 93//93 78//78
f 93//93 79//79 94//94
f 81//81 80//80 59//59
f 79//79 56//56 82//82
f 95//95 59//59 80//80
f 55//55 57//57 82//82
f 60//60 59//59 95//95
f 57//57 58//58 96//96
f 58//58 61//61 96//96
f 97//97 61//61 19//19
f 19//19 62//62 97//97
f 84//84 98//98 63//63
f 67//67 99//99 66//66
f 63//63 98//98 85//85
f 67//67 100//100 99//99
f 86//86 100//100 67//67
f 88//88 101//101 87//87
f 102//102 88//88 69//69
f 69//69 71//71 102//102
f 85//85 103//103 89//89
f 102//102 71//71 104//104
f 71//71 76//76 104//104
f 104//104 76//76 105//105
f 106//106 90//90 107//107
f 105//105 76//76 108//108
f 106//106 91//91 90//90
f 91//91 106//106 109//109
f 108//108 76//76 92//92
f 110//110 108//108 92//92
f 92//92 94//94 110//110
f 92//92 93//93 94//94
f 109//109 80//80 91//91
f 111//111 80//80 109//109
f 79//79 112//112 94//94
f 95//95 80//80 111//111
f 79//79 82//82 112//112
f 82//82 96//96 113//113
f 82//82 57//57 96//96
f 95//95 114//114 60//60
f 60//60 115//115 83//83
f 113//113 96//96 61//61
f 83//83 115//115 116//116
f 83//83 116//116 62//62
f 113//113 61//61 97//97
f 97//97 62//62 116//116
f 117//117 98//98 84//84
f 66//66 117//117 84//84
f 66//66 99//99 117//117
f 100//100 86//86 118//118
f 86//86 87//87 118//118
f 118//118 87//87 101//101
f 98//98 103//103 85//85
f 88//88 119//119 101//101
f 88//88 102//102 119//119
f 103//103 120//120 89//89
f 104//104 119//119 102//102
f 121//121 119//119 104//104
f 120//120 122//122 89//89
f 123//123 121//121 104//104
f 90//90 89//89 122//122
f 90//90 122//122 107//107
f 123//123 104//104 105//105
f 82//82 124//124 112//112
f 124//124 82//82 113//113
f 113//113 125//125 124//124
f 114//114 115//115 60//60
f 125//125 113//113 126//126
f 97//97 116//116 126//126
f 113//113 97//97 126//126
f 127//127 98//98 117//117
f 128//128 127//127 117//117
f 99//99 128//128 117//117
f 99//99 100//100 128//128
f 98//98 129//129 103//103
f 129//129 98//98 127//127
f 100//100 130//130 128//128
f 100//100 118//118 130//130
f 118//118 101//101 131//131
f 131//131 101//101 132//132
f 132//132 101//101 119//119
f 131//131 130//130 118//118
f 103//103 129//129 120//120
f 121//121 132//132 119//119
f 122//122 133//133 107//107
f 107//107 134//134 106//106
f 110//110 135//135 105//105
f 105//105 108//108 110//110
f 136//136 109//109 106//106
f 110//110 94//94 137//137
f 135//135 110//110 137//137
f 136//136 111//111 109//109
f 137//137 94//94 112//112
f 136//136 138//138 111//111
f 137//137 112//112 124//124
f 139//139 95//95 138//138
f 138//138 95//95 111//111
f 139//139 114//114 95//95
f 114//114 140//140 115//115
f 115//115 140//140 116//116
f 116//116 140//140 141//141
f 125//125 126//126 141//141
f 126//126 116//116 141//141
f 142//142 127//127 128//128
f 129//129 127//127 142//142
f 130//130 143//143 128//128
f 143//143 142//142 128//128
f 130//130 131//131 143//143
f 142//142 144//144 129//129
f 145//145 144//144 142//142
f 143//143 145//145 142//142
f 131//131 146//146 143//143
f 132//132 146//146 131//131
f 143//143 147//147 145//145
f 144//144 120//120 129//129
f 132//132 121//121 146//146
f 146//146 147//147 143//143
f 148//148 147//147 146//146
f 121//121 148//148 146//146
f 133//133 120//120 144//144
f 122//122 120//120 133//133
f 121//121 149//149 148//148
f 121//121 123//123 149//149
f 107//107 133//133 150//150
f 123//123 105//105 149//149
f 107//107 150//150 134//134
f 105//105 151//151 149//149
f 105//105 135//135 151//151
f 135//135 137//137 151//151
f 134//134 136//136 106//106
f 151//151 137//137 124//124
f 151//151 124//124 152//152
f 124//124 125//125 152//152
f 139//139 153//153 114//114
f 140//140 114//114 153//153
f 152//152 125//125 141//141
f 141//141 140//140 153//153
f 147//147 154//154 145//145
f 145//145 154//154 144//144
f 154//154 155//155 144//144
f 133//133 144//144 155//155
f 147//147 148//148 156//156
f 147//147 156//156 154//154
f 148//148 157//157 156//156
f 149//149 157//157 148//148
f 155//155 150//150 133//133
f 154//154 156//156 158//158
f 157//157 159//159 156//156
f 158//158 156//156 159//159
f 155//155 160//160 150//150
f 160//160 134//134 150//150
f 149//149 151//151 157//157
f 157//157 161//161 159//159
f 151//151 161//161 157//157
f 159//159 161//161 162//162
f 134//134 160//160 136//136
f 136//136 163//163 138//138
f 136//136 160//160 163//163
f 162//162 161//161 164//164
f 138//138 163//163 139//139
f 161//161 152//152 164//164
f 151//151 152//152 161//161
f 165//165 166//166 139//139
f 152//152 167//167 164//164
f 153//153 139//139 166//166
f 164//164 167//167 166//166
f 167//167 153//153 166//166
f 152//152 141//141 167//167
f 167//167 141//141 153//153
f 155//155 154//154 168//168
f 168//168 154//154 158//158
f 158//158 159//159 169//169
f 158//158 169//169 168//168
f 168//168 170//170 155//155
f 170//170 160//160 155//155
f 162//162 169//169 159//159
f 169//169 171//171 168//168
f 163//163 160//160 170//170
f 171//171 170//170 168//168
f 169//169 162//162 171//171
f 170//170 165//165 163//163
f 162//162 164//164 171//171
f 171//171 165//165 170//170
f 163//163 165//165 139//139
f 171//171 166//166 165//165
f 164//164 166//166 171//171
