# Blender v2.92.0 OBJ File: 'convert_to_one_sided.blend'
# www.blender.org
mtllib 556L.mtl
o Cube
v 0.001000 0.001000 -0.001000
v 0.001000 -0.001000 -0.001000
v 0.001000 0.001000 0.001000
v 0.001000 -0.001000 0.001000
v -0.001000 0.001000 -0.001000
v -0.001000 -0.001000 -0.001000
v -0.001000 0.001000 0.001000
v -0.001000 -0.001000 0.001000
vt 0.625000 0.500000
vt 0.875000 0.500000
vt 0.875000 0.750000
vt 0.625000 0.750000
vt 0.375000 0.750000
vt 0.625000 1.000000
vt 0.375000 1.000000
vt 0.375000 0.000000
vt 0.625000 0.000000
vt 0.625000 0.250000
vt 0.375000 0.250000
vt 0.125000 0.500000
vt 0.375000 0.500000
vt 0.125000 0.750000
vn 0.0000 1.0000 0.0000
vn 0.0000 0.0000 1.0000
vn -1.0000 0.0000 0.0000
vn 0.0000 -1.0000 0.0000
vn 1.0000 0.0000 0.0000
vn 0.0000 0.0000 -1.0000
usemtl Material
s off
f 1/1/1 5/2/1 7/3/1 3/4/1
f 4/5/2 3/4/2 7/6/2 8/7/2
f 8/8/3 7/9/3 5/10/3 6/11/3
f 6/12/4 2/13/4 4/5/4 8/14/4
f 2/13/5 1/1/5 3/4/5 4/5/5
f 6/11/6 5/10/6 1/1/6 2/13/6
o 556
v 3.388006 4.322753 5.402871
v 3.422026 4.340493 5.394821
v 3.450346 4.290334 5.412071
v 3.461465 4.328653 5.405641
v 3.367857 4.323963 5.409750
v 3.387126 4.355453 5.403671
v 3.417456 4.364383 5.399021
v 3.436356 4.372933 5.414221
v 3.404176 4.377933 5.414011
v 3.490935 4.279944 5.421551
v 3.480425 4.231194 5.435480
v 3.384946 4.274594 5.429310
v 3.502905 4.274264 5.430770
v 3.349177 4.293354 5.443740
v 3.482035 4.321934 5.429161
v 3.370616 4.349933 5.443361
v 3.470005 4.346973 5.438681
v 3.405566 4.378143 5.430611
v 3.428886 4.371003 5.446421
v 3.562774 4.186635 5.457750
v 3.489135 4.083887 5.461430
v 3.390636 4.166055 5.454060
v 3.325737 4.177345 5.466340
v 3.293628 3.487534 5.467080
v 3.116760 3.324496 5.494370
v 3.124960 3.420505 5.487180
v 3.276058 3.350236 5.488110
v 3.560614 3.333916 5.485460
v 3.601104 3.348026 5.473100
v 3.725352 3.343416 5.483040
v 3.732102 3.374966 5.475740
v 3.769032 3.395066 5.484470
v 3.440256 3.393845 5.469480
v 3.451926 3.350376 5.483550
v 3.630333 3.511404 5.467540
v 3.538934 3.592743 5.463680
v 3.756132 3.526684 5.482140
v 3.236778 3.613642 5.482670
v 3.781771 3.432685 5.489570
v 3.530895 3.719281 5.462070
v 3.629473 3.751761 5.464320
v 3.720402 3.731871 5.477300
v 3.435096 3.777801 5.470130
v 3.772501 3.657222 5.492110
v 3.311867 3.801140 5.480950
v 3.393776 3.897499 5.474420
v 3.675533 3.916269 5.478780
v 3.760002 3.773781 5.493590
v 3.565034 3.896959 5.466970
v 3.721382 3.863519 5.492040
v 3.458705 3.931648 5.469770
v 3.603484 4.053367 5.476040
v 3.379267 3.977028 5.472960
v 3.330737 4.052027 5.476250
v 3.599974 4.126846 5.476200
v 3.620293 4.084257 5.489320
v 3.572214 4.188305 5.474230
v 3.511735 4.273834 5.454151
v 3.290348 4.167106 5.488430
v 3.316337 4.251594 5.495160
v 3.476585 4.321223 5.465000
v 3.386776 4.356853 5.464090
v 3.063190 3.304976 5.509580
v 3.074311 3.363776 5.504210
v 3.099640 3.297966 5.509779
v 3.170759 3.308146 5.513060
v 3.289618 3.322246 5.514249
v 3.413336 3.334156 5.500979
v 3.773421 3.388685 5.488080
v 3.100800 3.493714 5.506750
v 3.781591 3.520304 5.498700
v 3.159829 3.668632 5.500870
v 3.228809 3.769590 5.490070
v 3.189559 3.801490 5.502979
v 3.291588 3.892579 5.485890
v 3.779751 3.688962 5.509820
v 3.244218 3.954138 5.498390
v 3.693472 3.940628 5.493460
v 3.660913 3.999788 5.501790
v 3.231718 4.020007 5.518039
v 3.283068 4.075227 5.491970
v 3.597474 4.122926 5.494990
v 3.352007 4.316533 5.485560
v 3.096280 3.300467 5.511010
v 3.058981 3.378276 5.519740
v 3.392736 3.326836 5.518209
v 3.556794 3.328866 5.511350
v 3.714912 3.352416 5.498940
v 3.068581 3.482754 5.534469
v 3.125400 3.665882 5.530769
v 3.182169 3.856189 5.527150
v 3.749362 3.829730 5.511250
v 3.705912 3.914459 5.504170
v 3.707822 3.918349 5.519209
v 3.258778 4.100337 5.534369
v 3.530505 4.241125 5.473850
v 3.426546 4.335523 5.482150
v 3.067051 3.327606 5.523399
v 3.223188 3.311027 5.528259
v 3.313497 3.326066 5.531949
v 3.663923 3.347626 5.528739
v 3.773792 3.428645 5.501510
v 3.057801 3.404135 5.534329
v 3.784931 3.551123 5.526670
v 3.770982 3.715951 5.538739
v 3.148999 3.799990 5.551489
v 3.115620 3.669162 5.563509
v 3.766121 3.766421 5.522160
v 3.193269 3.927449 5.541739
v 3.740382 3.829790 5.532479
v 3.213009 3.989418 5.547209
v 3.658493 3.998568 5.521820
v 3.506725 4.228765 5.503210
v 3.291847 4.182845 5.540509
v 3.325757 4.261664 5.516650
v 3.365267 4.296024 5.508410
v 3.131740 3.312646 5.527139
v 3.505055 3.338426 5.530849
v 3.748362 3.429865 5.524519
v 3.067331 3.475384 5.550669
v 3.759851 3.503514 5.549719
v 3.095920 3.569853 5.551799
v 3.769711 3.600313 5.546219
v 3.585824 4.065417 5.537289
v 3.463385 4.196935 5.540249
v 3.423946 4.264094 5.517249
v 3.101110 3.327106 5.540969
v 3.225809 3.331116 5.540499
v 3.075230 3.389565 5.543589
v 3.425136 3.344226 5.542649
v 3.575414 3.362766 5.545309
v 3.694862 3.410265 5.540979
v 3.101620 3.579353 5.564429
v 3.139430 3.761251 5.569519
v 3.733872 3.825730 5.548139
v 3.179769 3.880619 5.568009
v 3.692693 3.910589 5.535699
v 3.221899 3.994168 5.564469
v 3.258608 4.062537 5.571349
v 3.326737 4.234145 5.536900
v 3.380077 4.202725 5.548779
v 3.156889 3.389066 5.554409
v 3.370407 3.398985 5.555139
v 3.121340 3.499984 5.564929
v 3.245248 3.482604 5.567688
v 3.584154 3.453925 5.554759
v 3.432916 3.514054 5.571419
v 3.619034 3.562743 5.571229
v 3.726742 3.642532 5.559779
v 3.127250 3.681312 5.574789
v 3.666123 3.845500 5.558089
v 3.497685 4.043177 5.565188
v 3.313357 4.149816 5.560479
v 3.281588 3.594023 5.586779
v 3.168529 3.668962 5.587308
v 3.486275 3.616482 5.587059
v 3.610484 3.698161 5.576409
v 3.381586 3.677372 5.599988
v 3.504565 3.740381 5.594698
v 3.169309 3.795460 5.583339
v 3.528515 3.864579 5.582399
v 3.436246 3.858469 5.601919
v 3.213398 3.925578 5.582748
v 3.407356 3.980948 5.590989
v 3.260768 3.962138 5.594298
v 3.320667 4.034437 5.586228
v 3.382566 4.082306 5.570189
v 3.298657 3.741681 5.603708
v 3.394236 3.785630 5.603478
v 3.241248 3.834860 5.593908
v 3.336907 3.885859 5.596169
vn -0.2342 -0.2253 -0.9457
vn 0.0037 -0.0076 -1.0000
vn 0.0523 -0.3141 -0.9480
vn 0.4878 0.1825 -0.8537
vn -0.6207 -0.1329 -0.7727
vn -0.5779 0.3649 -0.7300
vn 0.0827 0.4925 -0.8664
vn 0.4561 0.8216 -0.3420
vn -0.3084 0.8679 -0.3895
vn 0.3860 -0.1976 -0.9011
vn 0.1349 -0.2617 -0.9557
vn -0.2827 -0.3387 -0.8974
vn 0.6951 0.1138 -0.7098
vn -0.8093 0.1255 -0.5738
vn 0.7945 0.4450 -0.4132
vn -0.7738 0.6310 -0.0550
vn 0.7381 0.6689 0.0886
vn -0.1906 0.9705 0.1477
vn 0.2948 0.8444 0.4473
vn 0.5638 0.1487 -0.8124
vn 0.0176 -0.0825 -0.9964
vn -0.1209 -0.1733 -0.9774
vn -0.3952 -0.0785 -0.9153
vn -0.0639 -0.0331 -0.9974
vn -0.0958 -0.3371 -0.9366
vn -0.2480 0.0375 -0.9680
vn 0.0011 -0.5156 -0.8568
vn 0.0207 -0.8988 -0.4379
vn 0.0064 -0.3641 -0.9313
vn 0.3734 -0.7603 -0.5316
vn 0.1818 -0.1513 -0.9716
vn 0.5405 -0.2312 -0.8089
vn -0.0260 -0.1538 -0.9878
vn -0.0508 -0.5419 -0.8389
vn 0.0663 -0.0187 -0.9976
vn 0.0116 -0.0203 -0.9997
vn 0.3801 0.0248 -0.9246
vn -0.1726 0.0596 -0.9832
vn 0.8203 -0.0478 -0.5700
vn -0.0172 0.0159 -0.9997
vn 0.0780 0.0164 -0.9968
vn 0.2706 0.0510 -0.9614
vn -0.0728 0.0267 -0.9970
vn 0.6538 0.0442 -0.7553
vn -0.1056 0.0253 -0.9941
vn -0.0885 -0.0046 -0.9961
vn 0.3252 0.1688 -0.9304
vn 0.7172 0.1765 -0.6742
vn 0.0341 0.0216 -0.9992
vn 0.6520 0.2524 -0.7150
vn -0.0525 -0.0211 -0.9984
vn 0.4160 0.0837 -0.9055
vn -0.0876 -0.0305 -0.9957
vn -0.1986 -0.0472 -0.9789
vn 0.8574 0.3001 -0.4181
vn 0.8588 0.3195 -0.4005
vn 0.8671 0.4972 -0.0288
vn 0.8587 0.5029 -0.0987
vn -0.7904 0.1712 -0.5882
vn -0.9122 0.4084 -0.0340
vn 0.6165 0.5828 0.5294
vn -0.2831 0.7779 0.5610
vn -0.6969 -0.5999 -0.3930
vn -0.5047 0.0111 -0.8632
vn -0.0501 -0.9055 -0.4213
vn 0.1030 -0.9605 -0.2585
vn 0.0795 -0.9566 -0.2803
vn -0.0124 -0.8630 -0.5051
vn 0.9047 -0.4204 0.0691
vn -0.5464 0.1483 -0.8243
vn 0.9663 -0.0165 -0.2568
vn -0.4128 0.1033 -0.9050
vn -0.1964 0.0560 -0.9789
vn -0.4744 0.1355 -0.8698
vn -0.1702 0.0193 -0.9852
vn 0.9848 0.1132 -0.1313
vn -0.4458 0.1022 -0.8893
vn 0.7007 0.3684 -0.6110
vn 0.8298 0.4491 -0.3312
vn -0.8059 0.2379 -0.5421
vn -0.4668 0.0320 -0.8838
vn 0.7924 0.4653 0.3945
vn -0.6510 0.6349 0.4160
vn -0.1426 -0.8989 0.4142
vn -0.9410 0.0173 -0.3379
vn 0.0381 -0.9973 0.0631
vn 0.0702 -0.9938 0.0857
vn 0.4069 -0.8060 0.4300
vn -0.9535 0.2084 -0.2177
vn -0.8327 0.2231 -0.5068
vn -0.7550 0.2137 -0.6199
vn 0.9311 0.3377 -0.1377
vn 0.8748 0.4126 -0.2540
vn 0.8549 0.4491 0.2598
vn -0.9238 0.3705 0.0968
vn 0.7118 0.5301 0.4608
vn 0.2123 0.5648 0.7974
vn -0.6385 -0.4656 0.6128
vn 0.0695 -0.9229 0.3786
vn 0.0706 -0.8739 0.4810
vn 0.2370 -0.6433 0.7280
vn 0.8086 -0.2802 0.5174
vn -0.9302 -0.0519 0.3633
vn 0.9046 -0.0801 0.4187
vn 0.7224 0.1139 0.6821
vn -0.9491 0.2785 -0.1469
vn -0.9562 0.1972 0.2162
vn 0.9458 0.2297 0.2294
vn -0.9308 0.2964 -0.2141
vn 0.8180 0.3323 0.4696
vn -0.9353 0.3509 0.0457
vn 0.7334 0.4513 0.5084
vn 0.4701 0.4433 0.7632
vn -0.7163 0.4023 0.5701
vn -0.6402 0.5435 0.5430
vn -0.1380 0.5381 0.8315
vn -0.0604 -0.8007 0.5960
vn 0.0552 -0.7955 0.6034
vn 0.5726 -0.3686 0.7322
vn -0.7705 0.0795 0.6324
vn 0.3899 -0.1568 0.9074
vn -0.9609 0.2413 0.1356
vn 0.5755 0.0086 0.8178
vn 0.4188 0.3161 0.8513
vn 0.2540 0.3317 0.9085
vn 0.1919 0.4277 0.8833
vn -0.1791 -0.4457 0.8771
vn 0.0206 -0.4823 0.8758
vn -0.3962 -0.1435 0.9069
vn 0.0343 -0.5164 0.8556
vn 0.0656 -0.3412 0.9377
vn 0.2221 -0.2584 0.9402
vn -0.6352 0.0752 0.7687
vn -0.8248 0.2343 0.5146
vn 0.5323 0.2389 0.8121
vn -0.8509 0.2994 0.4317
vn 0.5363 0.3355 0.7745
vn -0.7885 0.3441 0.5098
vn -0.5138 0.3031 0.8026
vn -0.2853 0.4162 0.8633
vn 0.0579 0.2915 0.9548
vn -0.0500 -0.1622 0.9855
vn 0.0145 -0.1819 0.9832
vn -0.1713 -0.0950 0.9806
vn -0.0135 -0.1436 0.9895
vn 0.0597 -0.1446 0.9877
vn 0.0274 -0.1622 0.9864
vn 0.0918 -0.1033 0.9904
vn 0.2454 0.0279 0.9690
vn -0.5855 0.0973 0.8048
vn 0.2315 0.1182 0.9656
vn 0.1761 0.1779 0.9682
vn -0.1523 0.2610 0.9533
vn -0.0259 -0.1411 0.9897
vn -0.1976 -0.0272 0.9799
vn 0.0678 -0.1163 0.9909
vn 0.1529 0.0048 0.9882
vn 0.0279 -0.0867 0.9958
vn 0.1248 -0.0162 0.9920
vn -0.4363 0.1296 0.8904
vn 0.1916 0.0926 0.9771
vn 0.0787 0.0602 0.9951
vn -0.4827 0.1838 0.8563
vn 0.0901 0.1428 0.9856
vn -0.1587 0.1112 0.9811
vn -0.0226 0.1713 0.9850
vn 0.0812 0.2052 0.9753
vn -0.0520 -0.0173 0.9985
vn 0.0170 0.0025 0.9999
vn -0.1467 0.0407 0.9883
vn -0.0228 0.0565 0.9981
usemtl mtl1.502
s 1
f 9//7 10//8 11//9
f 12//10 11//9 10//8
f 9//7 13//11 14//12
f 10//8 9//7 14//12
f 12//10 10//8 15//13
f 12//10 15//13 16//14
f 14//12 15//13 10//8
f 17//15 15//13 14//12
f 17//15 16//14 15//13
f 11//9 18//16 19//17
f 9//7 20//18 13//11
f 11//9 20//18 9//7
f 12//10 18//16 11//9
f 12//10 21//19 18//16
f 13//11 22//20 14//12
f 21//19 12//10 23//21
f 16//14 23//21 12//10
f 24//22 17//15 14//12
f 23//21 16//14 25//23
f 26//24 16//14 17//15
f 27//25 16//14 26//24
f 28//26 29//27 19//17
f 29//27 30//28 19//17
f 19//17 30//28 20//18
f 20//18 31//29 22//20
f 11//9 19//17 20//18
f 18//16 21//19 19//17
f 21//19 28//26 19//17
f 13//11 20//18 22//20
f 24//22 14//12 22//20
f 16//14 27//25 25//23
f 17//15 24//22 26//24
f 32//30 33//31 34//32
f 35//33 33//31 32//30
f 36//34 37//35 38//36
f 37//35 39//37 38//36
f 38//36 39//37 40//38
f 41//39 35//33 32//30
f 42//40 35//33 41//39
f 39//37 37//35 43//41
f 37//35 42//40 41//39
f 41//39 32//30 44//42
f 43//41 37//35 41//39
f 39//37 43//41 45//43
f 45//43 40//38 39//37
f 34//32 46//44 32//30
f 43//41 41//39 44//42
f 47//45 40//38 45//43
f 44//42 32//30 48//46
f 43//41 44//42 49//47
f 45//43 43//41 50//48
f 48//46 32//30 51//49
f 43//41 49//47 50//48
f 52//50 45//43 50//48
f 51//49 32//30 46//44
f 49//47 44//42 48//46
f 51//49 46//44 53//51
f 53//51 54//52 51//49
f 50//48 49//47 55//53
f 56//54 52//50 50//48
f 57//55 48//46 51//49
f 57//55 49//47 48//46
f 55//53 49//47 57//55
f 55//53 58//56 50//48
f 51//49 54//52 59//57
f 57//55 51//49 59//57
f 55//53 57//55 60//58
f 29//27 59//57 61//59
f 57//55 59//57 29//27
f 61//59 62//60 29//27
f 29//27 62//60 30//28
f 60//58 57//55 29//27
f 30//28 62//60 31//29
f 63//61 64//62 60//58
f 60//58 28//26 63//61
f 29//27 28//26 60//58
f 28//26 65//63 63//61
f 30//28 31//29 20//18
f 28//26 21//19 66//64
f 28//26 66//64 65//63
f 31//29 67//65 22//20
f 22//20 67//65 68//66
f 68//66 24//22 22//20
f 21//19 23//21 66//64
f 66//64 23//21 25//23
f 69//67 25//23 27//25
f 24//22 70//68 26//24
f 33//31 71//69 72//70
f 71//69 33//31 73//71
f 33//31 35//33 74//72
f 73//71 33//31 74//72
f 74//72 35//33 75//73
f 75//73 35//33 76//74
f 72//70 34//32 33//31
f 76//74 35//33 42//40
f 42//40 36//34 76//74
f 38//36 40//38 77//75
f 36//34 42//40 37//35
f 47//45 77//75 40//38
f 72//70 78//76 34//32
f 34//32 78//76 46//44
f 79//77 77//75 47//45
f 46//44 78//76 80//78
f 79//77 47//45 45//43
f 81//79 46//44 80//78
f 53//51 46//44 81//79
f 52//50 79//77 45//43
f 82//80 81//79 80//78
f 53//51 81//79 83//81
f 56//54 84//82 52//50
f 53//51 83//81 54//52
f 56//54 50//48 58//56
f 83//81 81//79 82//80
f 83//81 82//80 85//83
f 58//56 55//53 86//84
f 83//81 85//83 62//60
f 54//52 83//81 61//59
f 59//57 54//52 61//59
f 61//59 83//81 62//60
f 86//84 55//53 87//85
f 55//53 60//58 87//85
f 85//83 88//86 89//87
f 85//83 89//87 62//60
f 60//58 64//62 87//85
f 62//60 89//87 31//29
f 67//65 31//29 89//87
f 64//62 63//61 90//88
f 91//89 24//22 68//66
f 25//23 69//67 66//64
f 70//68 24//22 91//89
f 26//24 70//68 27//25
f 92//90 73//71 74//72
f 73//71 92//90 71//69
f 93//91 72//70 71//69
f 76//74 94//92 75//73
f 76//74 36//34 95//93
f 94//92 76//74 95//93
f 36//34 96//94 95//93
f 38//36 96//94 36//34
f 38//36 77//75 96//94
f 72//70 93//91 78//76
f 78//76 93//91 97//95
f 98//96 78//76 97//95
f 78//76 98//96 80//78
f 79//77 52//50 84//82
f 80//78 98//96 82//80
f 98//96 99//97 82//80
f 56//54 100//98 84//82
f 56//54 58//56 100//98
f 82//80 99//97 85//83
f 58//56 101//99 100//98
f 58//56 86//84 101//99
f 88//86 85//83 99//97
f 87//85 101//99 86//84
f 101//99 87//85 102//100
f 89//87 88//86 67//65
f 87//85 64//62 90//88
f 103//101 67//65 88//86
f 63//61 65//63 90//88
f 68//66 67//65 103//101
f 65//63 66//64 104//102
f 66//64 69//67 104//102
f 105//103 69//67 27//25
f 27//25 70//68 105//103
f 92//90 106//104 71//69
f 75//73 107//105 74//72
f 71//69 106//104 93//91
f 75//73 108//106 107//105
f 94//92 108//106 75//73
f 96//94 109//107 95//93
f 110//108 96//94 77//75
f 77//75 79//77 110//108
f 93//91 111//109 97//95
f 110//108 79//77 112//110
f 79//77 84//82 112//110
f 112//110 84//82 113//111
f 114//112 98//96 115//113
f 113//111 84//82 116//114
f 114//112 99//97 98//96
f 99//97 114//112 117//115
f 116//114 84//82 100//98
f 118//116 116//114 100//98
f 100//98 102//100 118//116
f 100//98 101//99 102//100
f 117//115 88//86 99//97
f 119//117 88//86 117//115
f 87//85 120//118 102//100
f 103//101 88//86 119//117
f 87//85 90//88 120//118
f 90//88 104//102 121//119
f 90//88 65//63 104//102
f 103//101 122//120 68//66
f 68//66 123//121 91//89
f 121//119 104//102 69//67
f 91//89 123//121 124//122
f 91//89 124//122 70//68
f 121//119 69//67 105//103
f 105//103 70//68 124//122
f 125//123 106//104 92//90
f 74//72 125//123 92//90
f 74//72 107//105 125//123
f 108//106 94//92 126//124
f 94//92 95//93 126//124
f 126//124 95//93 109//107
f 106//104 111//109 93//91
f 96//94 127//125 109//107
f 96//94 110//108 127//125
f 111//109 128//126 97//95
f 112//110 127//125 110//108
f 129//127 127//125 112//110
f 128//126 130//128 97//95
f 131//129 129//127 112//110
f 98//96 97//95 130//128
f 98//96 130//128 115//113
f 131//129 112//110 113//111
f 90//88 132//130 120//118
f 132//130 90//88 121//119
f 121//119 133//131 132//130
f 122//120 123//121 68//66
f 133//131 121//119 134//132
f 105//103 124//122 134//132
f 121//119 105//103 134//132
f 135//133 106//104 125//123
f 136//134 135//133 125//123
f 107//105 136//134 125//123
f 107//105 108//106 136//134
f 106//104 137//135 111//109
f 137//135 106//104 135//133
f 108//106 138//136 136//134
f 108//106 126//124 138//136
f 126//124 109//107 139//137
f 139//137 109//107 140//138
f 140//138 109//107 127//125
f 139//137 138//136 126//124
f 111//109 137//135 128//126
f 129//127 140//138 127//125
f 130//128 141//139 115//113
f 115//113 142//140 114//112
f 118//116 143//141 113//111
f 113//111 116//114 118//116
f 144//142 117//115 114//112
f 118//116 102//100 145//143
f 143//141 118//116 145//143
f 144//142 119//117 117//115
f 145//143 102//100 120//118
f 144//142 146//144 119//117
f 145//143 120//118 132//130
f 147//145 103//101 146//144
f 146//144 103//101 119//117
f 147//145 122//120 103//101
f 122//120 148//146 123//121
f 123//121 148//146 124//122
f 124//122 148//146 149//147
f 133//131 134//132 149//147
f 134//132 124//122 149//147
f 150//148 135//133 136//134
f 137//135 135//133 150//148
f 138//136 151//149 136//134
f 151//149 150//148 136//134
f 138//136 139//137 151//149
f 150//148 152//150 137//135
f 153//151 152//150 150//148
f 151//149 153//151 150//148
f 139//137 154//152 151//149
f 140//138 154//152 139//137
f 151//149 155//153 153//151
f 152//150 128//126 137//135
f 140//138 129//127 154//152
f 154//152 155//153 151//149
f 156//154 155//153 154//152
f 129//127 156//154 154//152
f 141//139 128//126 152//150
f 130//128 128//126 141//139
f 129//127 157//155 156//154
f 129//127 131//129 157//155
f 115//113 141//139 158//156
f 131//129 113//111 157//155
f 115//113 158//156 142//140
f 113//111 159//157 157//155
f 113//111 143//141 159//157
f 143//141 145//143 159//157
f 142//140 144//142 114//112
f 159//157 145//143 132//130
f 159//157 132//130 160//158
f 132//130 133//131 160//158
f 147//145 161//159 122//120
f 148//146 122//120 161//159
f 160//158 133//131 149//147
f 149//147 148//146 161//159
f 155//153 162//160 153//151
f 153//151 162//160 152//150
f 162//160 163//161 152//150
f 141//139 152//150 163//161
f 155//153 156//154 164//162
f 155//153 164//162 162//160
f 156//154 165//163 164//162
f 157//155 165//163 156//154
f 163//161 158//156 141//139
f 162//160 164//162 166//164
f 165//163 167//165 164//162
f 166//164 164//162 167//165
f 163//161 168//166 158//156
f 168//166 142//140 158//156
f 157//155 159//157 165//163
f 165//163 169//167 167//165
f 159//157 169//167 165//163
f 167//165 169//167 170//168
f 142//140 168//166 144//142
f 144//142 171//169 146//144
f 144//142 168//166 171//169
f 170//168 169//167 172//170
f 146//144 171//169 147//145
f 169//167 160//158 172//170
f 159//157 160//158 169//167
f 173//171 174//172 147//145
f 160//158 175//173 172//170
f 161//159 147//145 174//172
f 172//170 175//173 174//172
f 175//173 161//159 174//172
f 160//158 149//147 175//173
f 175//173 149//147 161//159
f 163//161 162//160 176//174
f 176//174 162//160 166//164
f 166//164 167//165 177//175
f 166//164 177//175 176//174
f 176//174 178//176 163//161
f 178//176 168//166 163//161
f 170//168 177//175 167//165
f 177//175 179//177 176//174
f 171//169 168//166 178//176
f 179//177 178//176 176//174
f 177//175 170//168 179//177
f 178//176 173//171 171//169
f 170//168 172//170 179//177
f 179//177 173//171 178//176
f 171//169 173//171 147//145
f 179//177 174//172 173//171
f 172//170 174//172 179//177
