# Blender v2.92.0 OBJ File: 'convert_to_one_sided.blend'
# www.blender.org
mtllib 557L.mtl
o 557
v 7.448154 6.460876 4.405254
v 7.403465 6.481666 4.409844
v 7.430744 6.497625 4.403295
v 7.502004 6.493705 4.430674
v 7.401185 6.529855 4.414664
v 7.452744 6.556624 4.429554
v 7.387765 6.459486 4.449074
v 7.442184 6.438856 4.450203
v 7.505293 6.449576 4.457774
v 7.380275 6.527245 4.439774
v 7.536593 6.548435 4.463344
v 7.394625 6.597554 4.456573
v 7.508823 6.657223 4.525513
v 7.417585 6.430206 4.477973
v 7.565863 6.468806 4.490553
v 7.364285 6.521945 4.501853
v 7.602192 6.517735 4.521492
v 7.363025 6.612224 4.511173
v 7.432425 6.673553 4.516202
v 7.524343 6.426136 4.517033
v 7.471054 6.426996 4.534933
v 7.585272 6.630184 4.573052
v 7.373395 6.649283 4.502823
v 7.389135 6.701523 4.540413
v 7.576582 6.451716 4.529183
v 7.402305 6.458746 4.519992
v 7.539423 6.697623 4.584792
v 7.627032 6.484175 4.568962
v 7.367856 6.513095 4.576152
v 7.366106 6.708713 4.563362
v 7.564733 6.438476 4.597842
v 7.643951 6.562435 4.588352
v 7.665371 6.531035 4.616982
v 7.351635 6.691133 4.592152
v 7.387865 6.767872 4.596241
v 7.424724 6.802011 4.645371
v 7.606402 6.461856 4.593781
v 7.394695 6.479536 4.595392
v 7.353435 6.628064 4.597422
v 7.461124 6.471576 4.625251
v 7.377645 6.534685 4.641551
v 7.363685 6.615314 4.665171
v 7.658591 6.617624 4.675291
v 7.377855 6.783192 4.628811
v 7.546583 6.461996 4.637491
v 7.521503 6.765322 4.654501
v 7.597072 6.760952 4.751690
v 7.357685 6.766102 4.666381
v 7.629612 6.496855 4.689731
v 7.411554 6.532635 4.666881
v 7.657661 6.505505 4.648361
v 7.685821 6.552064 4.698771
v 7.381935 6.822221 4.678201
v 7.392005 6.876801 4.750140
v 7.472854 6.588594 4.757940
v 7.358126 6.724873 4.737690
v 7.551193 6.834481 4.784669
v 7.555912 6.538965 4.731380
v 7.674181 6.533155 4.718980
v 7.680961 6.624014 4.756880
v 7.647582 6.717292 4.812839
v 7.370945 6.847551 4.747180
v 7.395935 6.681733 4.783180
v 7.512073 6.864361 4.797869
v 7.451574 6.901960 4.825349
v 7.671211 6.562375 4.772930
v 7.677061 6.595214 4.777529
v 7.371565 6.788852 4.847599
v 7.624952 6.790781 4.855669
v 7.380485 6.888460 4.818919
v 7.618132 6.580265 4.786219
v 7.373395 6.832391 4.810169
v 7.471344 6.719883 4.888588
v 7.665531 6.662054 4.815749
v 7.419235 6.914620 4.868698
v 7.564113 6.683593 4.881238
v 7.665261 6.608594 4.810889
v 7.586292 6.844141 4.882898
v 7.641411 6.648043 4.838269
v 7.659761 6.648263 4.824289
v 7.393125 6.797441 4.892678
v 7.443834 6.813901 4.945357
v 7.641922 6.712363 4.872578
v 7.624012 6.786962 4.901518
v 7.405235 6.901080 4.897558
v 7.473044 6.938390 4.939908
v 7.519423 6.903430 4.911128
v 7.408724 6.854401 4.912127
v 7.615392 6.726862 4.914248
v 7.444654 6.924130 4.951147
v 7.587372 6.762992 4.963297
v 7.559323 6.774762 4.977397
v 7.605912 6.839281 4.964177
v 7.429074 6.903560 4.944577
v 7.521993 6.922270 4.985147
v 7.523053 6.782291 4.965437
v 7.605292 6.790512 4.954447
v 7.565073 6.878250 4.973067
v 7.497193 6.925230 4.993186
v 7.577813 6.854531 5.002417
v 7.464814 6.890531 4.975986
v 7.540333 6.894770 5.005296
v 7.563222 6.815152 4.993627
v 7.515573 6.850311 4.997057
v 7.545893 6.870241 5.006997
v 7.515833 6.888881 4.993947
v 7.584802 6.414886 5.445781
v 7.561643 6.474296 5.444731
v 7.619602 6.534835 5.444201
v 7.665151 6.467356 5.452931
v 7.639071 6.389717 5.493051
v 7.700781 6.448456 5.483881
v 7.535113 6.386437 5.479781
v 7.513923 6.489835 5.493260
v 7.727800 6.476286 5.492490
v 7.691981 6.525465 5.467781
v 7.546913 6.571274 5.466990
v 7.644422 6.568534 5.457681
v 7.593652 6.594754 5.465431
v 7.652421 6.580054 5.489861
v 7.561893 6.346267 5.509820
v 7.513783 6.602744 5.516040
v 7.539633 6.614514 5.497580
v 7.573943 6.617984 5.519210
v 7.524223 6.363377 5.537610
v 7.594152 6.321908 5.536590
v 7.723001 6.508885 5.515930
v 7.564173 6.311118 5.570469
v 7.657451 6.355437 5.546800
v 7.706691 6.423066 5.523270
v 7.504163 6.448266 5.539760
v 7.731950 6.454276 5.533390
v 7.503363 6.514225 5.549789
v 7.678801 6.557964 5.557950
v 7.614222 6.599274 5.538770
v 7.531543 6.622094 5.545929
v 7.609622 6.319777 5.568089
v 7.519743 6.587084 5.577679
v 7.707581 6.407537 5.558209
v 7.509213 6.436686 5.568820
v 7.718691 6.473485 5.565539
v 7.590502 6.600734 5.571670
v 7.643722 6.343927 5.582349
v 7.700621 6.521035 5.590079
v 7.585123 6.310248 5.592879
v 7.561443 6.322708 5.634368
v 7.539093 6.388497 5.605459
v 7.523473 6.488016 5.601059
v 7.636432 6.562524 5.599589
v 7.542343 6.592564 5.600688
v 7.606462 6.345078 5.621499
v 7.672541 6.395857 5.592249
v 7.658812 6.453916 5.608459
v 7.538833 6.542525 5.667198
v 7.597842 6.379997 5.639089
v 7.585212 6.426676 5.642578
v 7.548263 6.445596 5.641109
v 7.607162 6.517775 5.628129
v 7.569232 6.560705 5.639958
v 7.573863 6.343408 5.699108
v 7.553643 6.379637 5.668548
v 7.569283 6.375427 5.695318
v 7.555043 6.515905 5.659208
v 7.550123 6.518255 5.666098
v 7.559543 6.542285 5.677978
v 7.574691 6.344785 5.699999
v 7.573692 6.342959 5.699999
v 7.574504 6.343570 5.699999
v 7.551880 6.345654 5.699999
v 7.550776 6.348807 5.699999
v 7.566767 6.377909 5.699999
v 7.573745 6.378630 5.699999
v 7.568938 6.385653 5.699999
v 7.550073 6.511431 5.699999
v 7.561307 6.517960 5.699999
v 7.549518 6.511853 5.699999
v 7.561848 6.526451 5.699999
v 7.562760 6.560008 5.699999
v 7.568887 6.544430 5.699999
v 7.547940 6.515279 5.699999
v 7.541710 6.563072 5.699999
v 7.539369 6.524728 5.699999
v 7.532383 6.535922 5.699999
v 7.551086 6.353496 5.699999
v 7.564810 6.566599 5.699999
v 7.551193 6.573265 5.699999
v 7.569828 6.344065 5.699999
v 7.551555 6.350840 5.699999
vn 0.1382 -0.5115 -0.8481
vn -0.5201 -0.3413 -0.7830
vn 0.0587 0.1180 -0.9913
vn 0.5275 -0.0412 -0.8486
vn -0.3869 0.2821 -0.8779
vn 0.1936 0.4640 -0.8644
vn -0.7695 -0.5724 -0.2833
vn -0.0889 -0.9097 -0.4055
vn 0.4277 -0.7038 -0.5672
vn -0.8693 0.0543 -0.4913
vn 0.5566 0.3565 -0.7504
vn -0.4210 0.4774 -0.7712
vn 0.3753 0.6198 -0.6891
vn -0.4038 -0.9137 -0.0457
vn 0.6678 -0.4120 -0.6198
vn -0.9714 -0.2232 -0.0814
vn 0.7591 0.0615 -0.6480
vn -0.9342 0.1238 -0.3345
vn 0.0967 0.6498 -0.7540
vn 0.2716 -0.9461 -0.1765
vn -0.1717 -0.9625 0.2101
vn 0.6716 0.5059 -0.5413
vn -0.6689 0.4132 -0.6179
vn -0.1713 0.6457 -0.7441
vn 0.5671 -0.7536 -0.3324
vn -0.6588 -0.7270 0.1935
vn 0.5513 0.6163 -0.5623
vn 0.7909 -0.5015 -0.3506
vn -0.9192 -0.3719 0.1296
vn -0.7771 0.4320 -0.4577
vn 0.1817 -0.9512 0.2494
vn 0.7938 0.3224 -0.5158
vn 0.9300 -0.0770 -0.3595
vn -0.9786 0.1302 -0.1593
vn -0.2961 0.7113 -0.6375
vn 0.1274 0.7858 -0.6052
vn 0.5523 -0.8336 -0.0056
vn -0.5774 -0.7214 0.3824
vn -0.9977 -0.0630 0.0241
vn -0.2817 -0.8094 0.5152
vn -0.7662 -0.4616 0.4470
vn -0.9380 -0.2259 0.2631
vn 0.8493 0.4059 -0.3375
vn -0.5866 0.6652 -0.4619
vn -0.1034 -0.8427 0.5283
vn 0.4971 0.6928 -0.5223
vn 0.7240 0.5688 -0.3904
vn -0.9625 0.2426 -0.1214
vn 0.2440 -0.8561 0.4557
vn -0.4448 -0.6361 0.6305
vn 0.7630 -0.6463 -0.0077
vn 0.9903 -0.1273 -0.0556
vn -0.5862 0.6645 -0.4634
vn -0.3419 0.8536 -0.3930
vn -0.3309 -0.6703 0.6643
vn -0.9783 -0.1084 0.1765
vn 0.5881 0.7059 -0.3947
vn -0.1422 -0.7387 0.6589
vn 0.7717 -0.5847 0.2504
vn 0.9773 0.2106 -0.0231
vn 0.9285 0.3630 -0.0778
vn -0.8970 0.4090 -0.1676
vn -0.6858 -0.4871 0.5408
vn 0.4248 0.8095 -0.4054
vn 0.2001 0.9033 -0.3796
vn 0.4279 -0.6375 0.6407
vn 0.9356 -0.1565 0.3164
vn -0.9400 -0.0885 0.3295
vn 0.8473 0.5076 -0.1566
vn -0.8263 0.5631 -0.0084
vn -0.0132 -0.7010 0.7130
vn -0.9790 0.1305 0.1566
vn -0.3963 -0.6220 0.6753
vn 0.9585 0.0994 0.2673
vn -0.3912 0.9161 -0.0875
vn -0.0619 -0.7027 0.7088
vn 0.6767 -0.3047 0.6703
vn 0.7009 0.6847 -0.1997
vn 0.3521 -0.5041 0.7886
vn 0.7998 -0.1558 0.5797
vn -0.7634 -0.2680 0.5878
vn -0.5623 -0.3603 0.7443
vn 0.8902 -0.0729 0.4497
vn 0.9542 0.2708 0.1275
vn -0.8674 0.4061 0.2875
vn 0.0281 0.9994 -0.0207
vn 0.5188 0.8179 -0.2489
vn -0.8513 0.0242 0.5241
vn 0.5418 -0.4896 0.6832
vn -0.6085 0.6534 0.4503
vn 0.3871 -0.4943 0.7784
vn -0.0943 -0.5611 0.8224
vn 0.8965 0.3838 0.2212
vn -0.7771 0.1747 0.6046
vn 0.4781 0.8547 0.2024
vn -0.3230 -0.5207 0.7903
vn 0.7825 -0.1607 0.6016
vn 0.7039 0.7010 0.1143
vn -0.2247 0.5630 0.7953
vn 0.6060 0.1594 0.7794
vn -0.5595 0.0185 0.8286
vn 0.2766 0.4502 0.8490
vn 0.1228 -0.3188 0.9398
vn -0.3306 -0.2054 0.9212
vn -0.0765 -0.0212 0.9968
vn -0.3084 0.0523 0.9498
vn 0.0158 -0.3902 -0.9206
vn -0.4427 -0.0120 -0.8966
vn 0.0700 0.1566 -0.9852
vn 0.4084 -0.2215 -0.8855
vn 0.3954 -0.6253 -0.6728
vn 0.5694 -0.5038 -0.6496
vn -0.6386 -0.3955 -0.6601
vn -0.8914 -0.0273 -0.4524
vn 0.8302 -0.1466 -0.5378
vn 0.6310 0.3370 -0.6987
vn -0.4865 0.2910 -0.8238
vn 0.3876 0.5471 -0.7419
vn 0.0767 0.7144 -0.6956
vn 0.5566 0.8016 -0.2181
vn -0.2214 -0.7546 -0.6177
vn -0.8825 0.3973 -0.2519
vn -0.3142 0.8155 -0.4861
vn 0.2286 0.9705 -0.0761
vn -0.8908 -0.4403 -0.1121
vn 0.2136 -0.8487 -0.4839
vn 0.9006 0.4323 -0.0446
vn -0.4131 -0.9045 -0.1064
vn 0.6135 -0.7362 -0.2859
vn 0.7143 -0.5815 -0.3893
vn -0.9892 -0.1185 -0.0859
vn 0.9808 -0.1950 0.0099
vn -0.9930 0.0524 0.1057
vn 0.6700 0.7063 0.2285
vn 0.4381 0.8890 0.1330
vn -0.3362 0.9238 0.1831
vn 0.3777 -0.9203 -0.1017
vn -0.8719 0.3675 0.3236
vn 0.8356 -0.5056 0.2148
vn -0.9465 -0.1435 0.2891
vn 0.8664 0.0589 0.4959
vn 0.2881 0.8769 0.3847
vn 0.6354 -0.7063 0.3120
vn 0.6518 0.3057 0.6940
vn 0.2940 -0.9210 0.2554
vn -0.2680 -0.9216 0.2807
vn -0.9247 -0.2677 0.2706
vn -0.9151 -0.0579 0.3989
vn 0.4448 0.6083 0.6573
vn -0.2438 0.7830 0.5722
vn 0.6129 -0.5753 0.5416
vn 0.6473 -0.2856 0.7067
vn 0.5049 -0.0402 0.8622
vn -0.9837 0.0783 0.1616
vn 0.7066 -0.0219 0.7073
vn 0.3177 0.1806 0.9308
vn -0.5643 -0.0112 0.8255
vn 0.4823 0.1384 0.8650
vn 0.3998 0.8041 0.4399
vn 0.7371 -0.6689 -0.0961
vn -0.2704 0.4586 0.8465
vn -0.9494 -0.2938 -0.1114
vn 0.8897 0.4226 -0.1727
vn -0.1540 0.4256 0.8917
vn 0.4546 -0.6257 0.6339
vn -0.5829 -0.6815 0.4426
vn 0.9998 -0.0192 0.0075
vn 0.8777 -0.3930 0.2741
vn 0.8257 0.0316 0.5632
vn -0.3561 -0.8238 0.4410
vn -0.5037 -0.3127 0.8053
vn -0.6138 -0.5925 0.5217
vn -0.3950 0.8244 0.4054
vn 0.5727 0.4137 0.7077
vn 0.7035 -0.0777 -0.7064
vn 0.5893 0.1441 -0.7950
vn -0.7223 0.3162 -0.6150
vn -0.0079 0.3206 -0.9472
vn -0.4926 -0.5374 0.6845
vn 0.1462 -0.8422 -0.5189
vn -0.0378 -0.9949 0.0938
vn 0.8980 0.3939 0.1961
vn -0.7150 -0.1502 0.6828
vn -0.5247 0.5111 0.6808
vn 0.6555 0.1266 0.7445
vn 0.7763 0.1232 0.6181
vn -0.5744 -0.8172 -0.0475
vn 0.7584 -0.3142 -0.5711
usemtl mtl1.1348
s 1
f 1//1 2//2 3//3
f 4//4 1//1 3//3
f 3//3 2//2 5//5
f 4//4 3//3 6//6
f 3//3 5//5 6//6
f 7//7 2//2 8//8
f 1//1 8//8 2//2
f 4//4 9//9 1//1
f 2//2 10//10 5//5
f 7//7 10//10 2//2
f 4//4 6//6 11//11
f 12//12 5//5 10//10
f 13//13 11//11 6//6
f 5//5 12//12 6//6
f 14//14 7//7 8//8
f 9//9 8//8 1//1
f 15//15 9//9 4//4
f 10//10 7//7 16//16
f 11//11 17//17 4//4
f 18//18 12//12 10//10
f 12//12 19//19 6//6
f 19//19 13//13 6//6
f 9//9 20//20 8//8
f 8//8 20//20 21//21
f 15//15 4//4 17//17
f 10//10 16//16 18//18
f 11//11 22//22 17//17
f 11//11 13//13 22//22
f 12//12 18//18 23//23
f 24//24 12//12 23//23
f 19//19 12//12 24//24
f 14//14 8//8 21//21
f 9//9 25//25 20//20
f 26//26 7//7 14//14
f 7//7 26//26 16//16
f 9//9 15//15 25//25
f 22//22 13//13 27//27
f 15//15 28//28 25//25
f 29//29 16//16 26//26
f 28//28 15//15 17//17
f 18//18 30//30 23//23
f 24//24 23//23 30//30
f 20//20 31//31 21//21
f 21//21 26//26 14//14
f 17//17 22//22 32//32
f 17//17 32//32 33//33
f 18//18 34//34 30//30
f 24//24 30//30 35//35
f 19//19 24//24 36//36
f 25//25 37//37 20//20
f 20//20 37//37 31//31
f 38//38 29//29 26//26
f 28//28 17//17 33//33
f 16//16 39//39 18//18
f 39//39 34//34 18//18
f 19//19 36//36 13//13
f 40//40 26//26 21//21
f 40//40 38//38 26//26
f 25//25 28//28 37//37
f 29//29 38//38 41//41
f 29//29 41//41 42//42
f 22//22 43//43 32//32
f 35//35 30//30 44//44
f 35//35 36//36 24//24
f 36//36 35//35 44//44
f 21//21 45//45 40//40
f 31//31 45//45 21//21
f 29//29 39//39 16//16
f 22//22 46//46 47//47
f 34//34 48//48 30//30
f 27//27 13//13 46//46
f 27//27 46//46 22//22
f 44//44 30//30 48//48
f 37//37 49//49 31//31
f 41//41 38//38 50//50
f 40//40 50//50 38//38
f 51//51 28//28 33//33
f 29//29 42//42 39//39
f 33//33 32//32 43//43
f 43//43 22//22 47//47
f 39//39 48//48 34//34
f 13//13 36//36 46//46
f 31//31 49//49 45//45
f 37//37 28//28 51//51
f 51//51 33//33 52//52
f 33//33 43//43 52//52
f 44//44 48//48 53//53
f 53//53 36//36 44//44
f 54//54 36//36 53//53
f 55//55 50//50 40//40
f 42//42 56//56 39//39
f 39//39 56//56 48//48
f 47//47 46//46 57//57
f 55//55 40//40 58//58
f 58//58 40//40 45//45
f 49//49 37//37 51//51
f 59//59 49//49 51//51
f 52//52 43//43 60//60
f 43//43 47//47 61//61
f 48//48 62//62 53//53
f 49//49 58//58 45//45
f 59//59 51//51 52//52
f 41//41 50//50 63//63
f 41//41 63//63 42//42
f 63//63 56//56 42//42
f 61//61 60//60 43//43
f 46//46 36//36 64//64
f 46//46 64//64 57//57
f 53//53 62//62 54//54
f 36//36 54//54 65//65
f 64//64 36//36 65//65
f 59//59 66//66 49//49
f 52//52 67//67 59//59
f 68//68 56//56 63//63
f 61//61 47//47 69//69
f 54//54 62//62 70//70
f 58//58 49//49 71//71
f 50//50 55//55 63//63
f 67//67 52//52 60//60
f 56//56 72//72 48//48
f 48//48 72//72 62//62
f 62//62 72//72 70//70
f 49//49 66//66 71//71
f 59//59 67//67 66//66
f 63//63 55//55 73//73
f 60//60 61//61 74//74
f 54//54 75//75 65//65
f 76//76 55//55 58//58
f 77//77 66//66 67//67
f 67//67 60//60 74//74
f 56//56 68//68 72//72
f 69//69 47//47 78//78
f 47//47 57//57 78//78
f 70//70 75//75 54//54
f 71//71 66//66 79//79
f 55//55 76//76 73//73
f 71//71 76//76 58//58
f 77//77 79//79 66//66
f 67//67 74//74 80//80
f 77//77 67//67 80//80
f 63//63 81//81 68//68
f 79//79 77//77 80//80
f 73//73 82//82 63//63
f 74//74 83//83 80//80
f 74//74 61//61 83//83
f 61//61 69//69 84//84
f 72//72 85//85 70//70
f 85//85 75//75 70//70
f 57//57 64//64 78//78
f 65//65 75//75 86//86
f 64//64 65//65 87//87
f 76//76 71//71 79//79
f 79//79 80//80 83//83
f 83//83 61//61 84//84
f 72//72 88//88 85//85
f 78//78 64//64 87//87
f 65//65 86//86 87//87
f 76//76 79//79 89//89
f 79//79 83//83 89//89
f 82//82 81//81 63//63
f 68//68 88//88 72//72
f 78//78 84//84 69//69
f 75//75 90//90 86//86
f 76//76 91//91 92//92
f 89//89 91//91 76//76
f 68//68 81//81 88//88
f 93//93 84//84 78//78
f 88//88 94//94 85//85
f 75//75 85//85 90//90
f 87//87 86//86 95//95
f 73//73 76//76 96//96
f 89//89 97//97 91//91
f 89//89 83//83 97//97
f 73//73 96//96 82//82
f 82//82 88//88 81//81
f 85//85 94//94 90//90
f 98//98 78//78 87//87
f 92//92 96//96 76//76
f 97//97 83//83 84//84
f 84//84 93//93 97//97
f 78//78 98//98 93//93
f 86//86 90//90 99//99
f 95//95 86//86 99//99
f 97//97 93//93 100//100
f 93//93 98//98 100//100
f 94//94 88//88 101//101
f 90//90 101//101 99//99
f 90//90 94//94 101//101
f 95//95 98//98 87//87
f 95//95 102//102 98//98
f 91//91 103//103 92//92
f 91//91 97//97 103//103
f 97//97 100//100 103//103
f 82//82 101//101 88//88
f 98//98 102//102 100//100
f 99//99 102//102 95//95
f 96//96 92//92 103//103
f 103//103 104//104 96//96
f 96//96 104//104 82//82
f 100//100 105//105 103//103
f 82//82 104//104 101//101
f 100//100 102//102 105//105
f 106//106 101//101 104//104
f 99//99 101//101 106//106
f 106//106 102//102 99//99
f 104//104 103//103 105//105
f 105//105 106//106 104//104
f 102//102 106//106 105//105
f 107//107 108//108 109//109
f 110//110 107//107 109//109
f 110//110 111//111 107//107
f 111//111 110//110 112//112
f 108//108 113//113 114//114
f 107//107 113//113 108//108
f 112//112 110//110 115//115
f 115//115 110//110 116//116
f 117//117 108//108 114//114
f 110//110 109//109 116//116
f 109//109 108//108 117//117
f 109//109 118//118 116//116
f 119//119 109//109 117//117
f 118//118 109//109 119//119
f 116//116 118//118 120//120
f 121//121 113//113 107//107
f 111//111 121//121 107//107
f 114//114 122//122 117//117
f 119//119 120//120 118//118
f 117//117 122//122 123//123
f 120//120 119//119 124//124
f 119//119 117//117 123//123
f 124//124 119//119 123//123
f 113//113 121//121 125//125
f 126//126 121//121 111//111
f 114//114 113//113 125//125
f 115//115 116//116 127//127
f 116//116 120//120 127//127
f 128//128 121//121 126//126
f 126//126 111//111 129//129
f 129//129 111//111 130//130
f 114//114 125//125 131//131
f 111//111 112//112 130//130
f 112//112 115//115 130//130
f 130//130 115//115 132//132
f 132//132 115//115 127//127
f 131//131 133//133 114//114
f 114//114 133//133 122//122
f 134//134 127//127 120//120
f 120//120 124//124 135//135
f 136//136 123//123 122//122
f 123//123 136//136 124//124
f 126//126 137//137 128//128
f 133//133 138//138 122//122
f 134//134 120//120 135//135
f 138//138 136//136 122//122
f 125//125 121//121 128//128
f 126//126 129//129 137//137
f 139//139 129//129 130//130
f 125//125 140//140 131//131
f 139//139 130//130 132//132
f 140//140 133//133 131//131
f 132//132 127//127 141//141
f 124//124 136//136 142//142
f 142//142 135//135 124//124
f 129//129 143//143 137//137
f 143//143 129//129 139//139
f 139//139 132//132 141//141
f 134//134 144//144 141//141
f 134//134 141//141 127//127
f 142//142 134//134 135//135
f 128//128 145//145 146//146
f 137//137 145//145 128//128
f 128//128 147//147 125//125
f 146//146 147//147 128//128
f 145//145 137//137 143//143
f 140//140 148//148 133//133
f 134//134 149//149 144//144
f 148//148 138//138 133//133
f 142//142 149//149 134//134
f 136//136 138//138 150//150
f 150//150 142//142 136//136
f 145//145 143//143 151//151
f 140//140 125//125 147//147
f 143//143 152//152 151//151
f 139//139 152//152 143//143
f 148//148 140//140 147//147
f 139//139 141//141 152//152
f 152//152 141//141 153//153
f 144//144 153//153 141//141
f 138//138 148//148 154//154
f 138//138 154//154 150//150
f 146//146 145//145 151//151
f 151//151 152//152 155//155
f 152//152 153//153 155//155
f 153//153 156//156 155//155
f 147//147 157//157 148//148
f 158//158 156//156 153//153
f 153//153 144//144 158//158
f 157//157 154//154 148//148
f 144//144 149//149 158//158
f 158//158 149//149 159//159
f 159//159 149//149 142//142
f 150//150 154//154 159//159
f 150//150 159//159 142//142
f 160//160 146//146 151//151
f 184//161 147//147 170//162
f 156//156 162//163 155//155
f 161//164 156//156 157//157
f 156//156 163//165 157//157
f 158//158 163//165 156//156
f 163//165 164//166 157//157
f 158//158 165//167 163//165
f 157//157 164//166 154//154
f 175//168 165//167 177//169
f 158//158 159//159 165//167
f 151//151 155//155 160//160
f 162//163 160//160 155//155
f 161//164 162//163 156//156
f 175//168 174//170 163//165
f 180//171 164//166 176//172
f 186//173 185//174 159//159
f 166//175 162//163 172//176
f 171//177 173//178 162//163
f 172//176 162//163 173//178
f 180//171 182//179 154//154
f 167//180 187//181 160//160
f 161//164 184//161 188//182
f 154//154 182//179 183//183
f 154//154 186//173 159//159
f 154//154 183//183 181//184
f 185//174 165//167 159//159
f 165//167 178//185 179//186
f 165//167 179//186 177//169
f 174//170 164//166 163//165
f 178//185 186//173 181//184
f 146//146 170//162 147//147
f 160//160 169//187 146//146
f 160//160 168//188 167//180
f 160//160 166//175 168//188
f 184//161 157//157 147//147
f 175//168 163//165 165//167
f 180//171 154//154 164//166
f 166//175 160//160 162//163
f 161//164 157//157 184//161
f 154//154 181//184 186//173
f 185//174 178//185 165//167
f 174//170 176//172 164//166
f 176//172 174//170 180//171
f 174//170 175//168 180//171
f 177//169 179//186 183//183
f 179//186 178//185 181//184
f 183//183 179//186 181//184
f 175//168 177//169 180//171
f 183//183 182//179 177//169
f 182//179 180//171 177//169
f 178//185 185//174 186//173
f 146//146 169//187 170//162
f 160//160 187//181 169//187
