# Blender v2.92.0 OBJ File: 'convert_to_one_sided.blend'
# www.blender.org
mtllib 560581563L.mtl
o Cube
v 0.001000 0.001000 -0.001000
v 0.001000 -0.001000 -0.001000
v 0.001000 0.001000 0.001000
v 0.001000 -0.001000 0.001000
v -0.001000 0.001000 -0.001000
v -0.001000 -0.001000 -0.001000
v -0.001000 0.001000 0.001000
v -0.001000 -0.001000 0.001000
vt 0.625000 0.500000
vt 0.875000 0.500000
vt 0.875000 0.750000
vt 0.625000 0.750000
vt 0.375000 0.750000
vt 0.625000 1.000000
vt 0.375000 1.000000
vt 0.375000 0.000000
vt 0.625000 0.000000
vt 0.625000 0.250000
vt 0.375000 0.250000
vt 0.125000 0.500000
vt 0.375000 0.500000
vt 0.125000 0.750000
vn 0.0000 1.0000 0.0000
vn 0.0000 0.0000 1.0000
vn -1.0000 0.0000 0.0000
vn 0.0000 -1.0000 0.0000
vn 1.0000 0.0000 0.0000
vn 0.0000 0.0000 -1.0000
usemtl Material
s off
f 1/1/1 5/2/1 7/3/1 3/4/1
f 4/5/2 3/4/2 7/6/2 8/7/2
f 8/8/3 7/9/3 5/10/3 6/11/3
f 6/12/4 2/13/4 4/5/4 8/14/4
f 2/13/5 1/1/5 3/4/5 4/5/5
f 6/11/6 5/10/6 1/1/6 2/13/6
o 560581563
v 8.399342 4.150746 3.261099
v 8.409822 4.155886 3.267019
v 8.473751 4.138627 3.267909
v 8.556809 4.139636 3.272898
v 8.490961 4.194856 3.297628
v 8.460931 4.134417 3.295958
v 8.592639 4.113837 3.298778
v 8.665619 4.117567 3.297938
v 8.385772 4.151146 3.275138
v 8.309943 4.165886 3.290938
v 8.636608 4.164886 3.307238
v 8.313483 4.180606 3.289438
v 8.317133 4.229985 3.342438
v 8.722638 4.076687 3.326748
v 8.323893 4.164756 3.342118
v 8.731148 4.123827 3.319998
v 8.727737 4.099607 3.318528
v 8.228045 4.178845 3.339668
v 8.232064 4.180136 3.325478
v 8.273363 4.186205 3.316458
v 8.739258 4.181046 3.363328
v 8.776087 4.086847 3.340298
v 8.639799 4.075667 3.370577
v 8.537900 4.118947 3.347847
v 8.786037 4.119456 3.358197
v 8.222434 4.199066 3.353467
v 8.609590 4.221436 3.353268
v 8.484510 4.252925 3.371647
v 8.792217 4.048567 3.358207
v 8.753807 4.015348 3.390207
v 8.434881 4.144186 3.378917
v 8.200355 4.189646 3.367997
v 8.217364 4.249804 3.414127
v 8.832367 3.990808 3.407787
v 8.813587 4.073717 3.377957
v 8.220644 4.184856 3.388037
v 8.186255 4.198376 3.404447
v 8.318923 4.174506 3.438046
v 8.810547 4.137596 3.408647
v 8.708777 4.239175 3.417717
v 8.267243 4.333024 3.516315
v 8.418082 4.309674 3.450436
v 8.811377 3.935469 3.430917
v 8.762588 3.944799 3.441247
v 8.848346 4.041307 3.441116
v 8.656999 4.001318 3.463246
v 8.506940 4.114576 3.426897
v 8.767077 4.205925 3.438676
v 8.177385 4.227105 3.444216
v 8.574279 4.271345 3.423257
v 8.820247 3.884680 3.468786
v 8.831717 3.918639 3.455686
v 8.794356 3.897709 3.464906
v 8.846436 3.955959 3.469366
v 8.545400 4.074107 3.473266
v 8.241934 4.186656 3.428677
v 8.194784 4.201675 3.451486
v 8.855896 4.009698 3.485146
v 8.336283 4.158316 3.529555
v 8.804347 4.170876 3.469916
v 8.183015 4.287114 3.523135
v 8.621099 4.285415 3.470446
v 8.502291 4.338223 3.529465
v 8.394932 4.379253 3.574205
v 8.782436 3.876660 3.498496
v 8.717228 3.917869 3.503845
v 8.853235 4.057417 3.479886
v 8.832056 4.097806 3.474536
v 8.173415 4.222075 3.503356
v 8.673898 4.267895 3.494926
v 8.351923 4.358694 3.538805
v 8.792467 3.878460 3.512115
v 8.817217 3.911899 3.505246
v 8.463632 4.072707 3.555045
v 8.146285 4.250835 3.587245
v 8.150425 4.267304 3.565615
v 8.723058 4.218395 3.546695
v 8.738028 3.888619 3.522355
v 8.582920 3.982148 3.562935
v 8.562469 4.031417 3.515415
v 8.233944 4.198225 3.515006
v 8.785378 4.136066 3.537385
v 8.586500 4.313924 3.562565
v 8.747087 3.889599 3.534075
v 8.687438 3.918159 3.550195
v 8.837636 3.977328 3.514915
v 8.833896 4.045817 3.504476
v 8.245853 4.193316 3.586985
v 8.149885 4.301644 3.622304
v 8.199095 4.338314 3.627084
v 8.332063 4.386243 3.604894
v 8.733527 4.184576 3.574295
v 8.138315 4.279464 3.664933
v 8.644579 4.275795 3.581775
v 8.519920 4.358743 3.627484
v 8.769338 3.908629 3.546605
v 8.692348 3.926569 3.579295
v 8.631169 3.945419 3.589895
v 8.799127 3.951189 3.545565
v 8.772927 4.052767 3.567685
v 8.342222 4.120566 3.640914
v 8.271294 4.175296 3.611304
v 8.227903 4.195186 3.634474
v 8.290684 4.394833 3.679963
v 8.452042 4.387343 3.636104
v 8.612979 3.958009 3.622494
v 8.553090 3.987938 3.631704
v 8.473950 4.037797 3.628044
v 8.699388 4.178885 3.621834
v 8.632089 4.265065 3.660294
v 8.731057 3.984968 3.590004
v 8.697448 4.090957 3.638814
v 8.554480 4.339963 3.678043
v 8.383411 4.406843 3.687923
v 8.648438 3.983088 3.634114
v 8.676249 4.031188 3.643544
v 8.474021 4.032058 3.672133
v 8.172245 4.246125 3.706183
v 8.165455 4.319744 3.672184
v 8.535621 4.022828 3.681173
v 8.601250 4.045527 3.691123
v 8.641698 4.040927 3.667173
v 8.401802 4.075747 3.683413
v 8.468981 4.388463 3.702263
v 8.415122 4.085147 3.740223
v 8.618589 4.112516 3.709373
v 8.323153 4.140286 3.729643
v 8.634329 4.173186 3.704003
v 8.581969 4.255275 3.756252
v 8.235344 4.362823 3.763002
v 8.477971 4.382733 3.769642
v 8.538671 4.075407 3.732443
v 8.464021 4.095717 3.766362
v 8.560909 4.104016 3.743473
v 8.152386 4.271514 3.722373
v 8.188065 4.305114 3.744823
v 8.526501 4.331194 3.765652
v 8.344843 4.418153 3.766492
v 8.399482 4.131146 3.816921
v 8.248653 4.207095 3.776632
v 8.229274 4.330434 3.814262
v 8.304633 4.398433 3.793432
v 8.407382 4.402063 3.777382
v 8.489910 4.137376 3.804122
v 8.529760 4.173486 3.801632
v 8.572909 4.195725 3.768092
v 8.208714 4.262945 3.781892
v 8.341833 4.169446 3.829361
v 8.240174 4.296784 3.848521
v 8.294413 4.382283 3.850761
v 8.404542 4.166086 3.851161
v 8.281444 4.247225 3.870661
v 8.496731 4.249075 3.845901
v 8.476641 4.316074 3.847151
v 8.269403 4.324934 3.873121
v 8.422701 4.368083 3.837681
v 8.344973 4.390173 3.823622
v 8.453811 4.201965 3.858921
v 8.268674 4.285804 3.882321
v 8.401562 4.337684 3.895531
v 8.352492 4.211686 3.885881
v 8.294213 4.286974 3.903740
v 8.422341 4.246575 3.900651
v 8.417212 4.289694 3.897871
v 8.344883 4.348993 3.881801
v 8.396722 4.218635 3.890121
v 8.355473 4.268905 3.904051
v 8.369252 4.314934 3.904340
v 8.325583 4.306394 3.892360
vn -0.1698 -0.3852 -0.9071
vn -0.0409 0.3298 -0.9432
vn -0.0246 -0.6516 -0.7582
vn 0.1339 -0.0002 -0.9910
vn 0.0846 0.6587 -0.7477
vn -0.1741 -0.9788 -0.1084
vn -0.0889 -0.8358 -0.5417
vn 0.1993 -0.1614 -0.9666
vn -0.2239 -0.9315 -0.2867
vn -0.4113 -0.4500 -0.7927
vn 0.2531 0.5076 -0.8236
vn -0.3086 0.3774 -0.8731
vn -0.1497 0.7550 -0.6384
vn 0.0629 -0.6029 -0.7953
vn -0.1971 -0.9803 0.0154
vn 0.4153 0.2670 -0.8696
vn 0.3139 -0.1930 -0.9296
vn -0.4521 -0.8604 -0.2352
vn -0.6122 0.0210 -0.7904
vn -0.3851 0.4846 -0.7854
vn 0.4839 0.6248 -0.6128
vn 0.5169 -0.0712 -0.8531
vn -0.3384 -0.8421 -0.4200
vn -0.2624 -0.9550 -0.1381
vn 0.6740 0.3389 -0.6564
vn -0.5310 0.5891 -0.6091
vn 0.1950 0.7624 -0.6171
vn 0.0705 0.8153 -0.5747
vn 0.3837 -0.4077 -0.8286
vn -0.1595 -0.6519 -0.7413
vn -0.2554 -0.9663 -0.0335
vn -0.8782 -0.1108 -0.4652
vn -0.4962 0.7001 -0.5134
vn 0.6574 -0.3220 -0.6813
vn 0.8006 0.0766 -0.5943
vn -0.2650 -0.9599 0.0917
vn -0.7196 -0.6928 -0.0481
vn -0.2409 -0.9704 0.0180
vn 0.8376 0.4334 -0.3325
vn 0.3637 0.8453 -0.3914
vn -0.2884 0.8577 -0.4256
vn 0.0233 0.8564 -0.5158
vn 0.1066 -0.5584 -0.8227
vn -0.3797 -0.6005 -0.7037
vn 0.9569 0.1189 -0.2648
vn -0.4719 -0.6801 -0.5611
vn -0.3682 -0.8866 -0.2798
vn 0.6455 0.7480 -0.1543
vn -0.9286 0.1700 -0.3300
vn 0.1578 0.8619 -0.4819
vn 0.4684 -0.8228 -0.3218
vn 0.8320 -0.4522 -0.3213
vn -0.2786 -0.6960 -0.6618
vn 0.9668 -0.2552 -0.0128
vn -0.4633 -0.7576 -0.4598
vn -0.1924 -0.9741 0.1188
vn -0.3590 -0.9228 0.1401
vn 0.9662 -0.0109 0.2577
vn -0.4122 -0.8931 -0.1801
vn 0.8240 0.5470 0.1476
vn -0.6394 0.6770 -0.3643
vn 0.2967 0.9149 -0.2736
vn 0.2471 0.9079 -0.3386
vn 0.0594 0.9304 -0.3616
vn -0.2047 -0.9531 -0.2229
vn -0.5101 -0.7007 -0.4987
vn 0.9269 0.2812 0.2485
vn 0.9040 0.3852 0.1856
vn -0.6723 -0.7395 0.0329
vn 0.5134 0.8581 -0.0038
vn -0.0945 0.8792 -0.4669
vn 0.3776 -0.8174 0.4351
vn 0.7969 -0.4199 0.4343
vn -0.4952 -0.7788 -0.3851
vn -0.8820 -0.4708 -0.0208
vn -0.9380 0.2524 -0.2374
vn 0.6861 0.6565 0.3135
vn -0.4380 -0.8912 -0.1178
vn -0.5338 -0.7793 -0.3282
vn -0.5007 -0.7020 -0.5066
vn -0.3084 -0.9505 0.0378
vn 0.7833 0.3399 0.5205
vn 0.4500 0.8884 -0.0905
vn -0.1124 -0.8988 0.4236
vn -0.4540 -0.8907 0.0216
vn 0.8139 -0.1110 0.5704
vn 0.7651 0.2087 0.6092
vn -0.3814 -0.9201 -0.0893
vn -0.7839 0.5982 -0.1663
vn -0.5155 0.8393 -0.1728
vn -0.1445 0.9404 -0.3078
vn 0.7055 0.5115 0.4906
vn -0.9879 0.1030 0.1158
vn 0.6142 0.7792 0.1249
vn 0.4236 0.8957 -0.1353
vn 0.3835 -0.4950 0.7797
vn 0.0345 -0.7703 0.6368
vn -0.3867 -0.9173 0.0945
vn 0.5963 -0.2195 0.7722
vn 0.6758 0.0479 0.7355
vn -0.5463 -0.8232 -0.1546
vn -0.4961 -0.8436 -0.2057
vn -0.5136 -0.8580 0.0107
vn -0.3411 0.9312 -0.1287
vn 0.2551 0.9463 -0.1986
vn -0.1484 -0.8360 0.5284
vn -0.4399 -0.8882 0.1329
vn -0.5334 -0.8285 -0.1706
vn 0.7542 0.2906 0.5889
vn 0.7399 0.5748 0.3495
vn 0.4851 -0.2763 0.8297
vn 0.6777 -0.0603 0.7329
vn 0.6081 0.7872 0.1030
vn 0.0785 0.9883 -0.1306
vn 0.3028 -0.5183 0.7998
vn 0.5236 -0.2993 0.7977
vn -0.4040 -0.8880 0.2197
vn -0.7094 -0.6627 0.2399
vn -0.7419 0.6571 0.1338
vn -0.0548 -0.7671 0.6391
vn 0.3235 -0.5051 0.8002
vn 0.4431 -0.3751 0.8143
vn -0.5405 -0.8384 0.0704
vn 0.3488 0.9370 -0.0198
vn -0.3446 -0.8453 0.4083
vn 0.5765 -0.2511 0.7776
vn -0.5556 -0.8076 0.1978
vn 0.7303 0.0030 0.6831
vn 0.7588 0.2515 0.6009
vn -0.6264 0.7506 0.2102
vn 0.4975 0.8185 0.2875
vn 0.2093 -0.6449 0.7350
vn 0.0512 -0.7590 0.6491
vn 0.4257 -0.4633 0.7773
vn -0.8735 -0.1477 0.4639
vn -0.8343 0.3574 0.4199
vn 0.6803 0.5848 0.4417
vn -0.0595 0.9881 0.1418
vn -0.1719 -0.7841 0.5964
vn -0.6153 -0.7066 0.3496
vn -0.7642 0.4681 0.4436
vn -0.3210 0.9274 0.1920
vn 0.2279 0.9470 0.2263
vn 0.3007 -0.5745 0.7613
vn 0.5426 -0.3113 0.7801
vn 0.6936 -0.0748 0.7165
vn -0.7679 -0.3393 0.5433
vn -0.4313 -0.7460 0.5074
vn -0.8310 -0.0221 0.5558
vn -0.3103 0.8007 0.5124
vn 0.0413 -0.6603 0.7499
vn -0.5574 -0.4993 0.6633
vn 0.6324 -0.0309 0.7740
vn 0.6324 0.4091 0.6578
vn -0.5317 0.4389 0.7243
vn 0.3458 0.7758 0.5278
vn 0.0698 0.8837 0.4629
vn 0.3940 -0.4386 0.8077
vn -0.6968 -0.1081 0.7091
vn 0.2776 0.5213 0.8069
vn -0.2254 -0.5414 0.8100
vn -0.3250 0.0235 0.9454
vn 0.3150 -0.2078 0.9261
vn 0.3669 0.1180 0.9228
vn -0.0781 0.6236 0.7778
vn 0.0956 -0.4658 0.8797
vn -0.0818 -0.1330 0.9877
vn -0.0736 0.2216 0.9724
vn -0.1746 0.3390 0.9244
usemtl mtl1.509
s 1
f 9//7 10//8 11//9
f 12//10 11//9 10//8
f 13//11 12//10 10//8
f 14//12 11//9 15//13
f 11//9 12//10 15//13
f 12//10 16//14 15//13
f 17//15 18//16 9//7
f 11//9 17//15 9//7
f 19//17 16//14 12//10
f 9//7 18//16 10//8
f 10//8 18//16 20//18
f 13//11 19//17 12//10
f 10//8 20//18 21//19
f 13//11 10//8 21//19
f 15//13 16//14 22//20
f 18//16 17//15 23//21
f 23//21 17//15 14//12
f 11//9 14//12 17//15
f 24//22 25//23 16//14
f 18//16 26//24 27//25
f 16//14 19//17 24//22
f 27//25 28//26 18//16
f 18//16 28//26 20//18
f 29//27 24//22 19//17
f 28//26 21//19 20//18
f 22//20 25//23 30//28
f 15//13 31//29 32//30
f 22//20 31//29 15//13
f 25//23 22//20 16//14
f 15//13 32//30 14//12
f 24//22 30//28 25//23
f 18//16 23//21 26//24
f 33//31 24//22 29//27
f 27//25 34//32 28//26
f 13//11 35//33 19//17
f 21//19 28//26 34//32
f 21//19 36//34 13//11
f 36//34 35//33 13//11
f 22//20 37//35 38//36
f 37//35 22//20 30//28
f 14//12 39//37 23//21
f 32//30 39//37 14//12
f 24//22 33//31 30//28
f 40//38 27//25 26//24
f 27//25 40//38 34//32
f 35//33 29//27 19//17
f 34//32 41//39 21//19
f 42//40 38//36 37//35
f 38//36 31//29 22//20
f 43//41 42//40 37//35
f 37//35 30//28 43//41
f 43//41 30//28 33//31
f 26//24 44//42 45//43
f 23//21 44//42 26//24
f 39//37 46//44 23//21
f 26//24 45//43 40//38
f 33//31 29//27 47//45
f 35//33 48//46 29//27
f 21//19 41//39 49//47
f 36//34 21//19 50//48
f 51//49 52//50 38//36
f 42//40 51//49 38//36
f 43//41 53//51 42//40
f 54//52 31//29 38//36
f 55//53 32//30 31//29
f 32//30 55//53 39//37
f 43//41 33//31 47//45
f 47//45 29//27 56//54
f 34//32 40//38 57//55
f 29//27 48//46 56//54
f 48//46 35//33 58//56
f 58//56 36//34 50//48
f 35//33 36//34 58//56
f 59//57 51//49 60//58
f 51//49 61//59 52//50
f 42//40 60//58 51//49
f 60//58 42//40 62//60
f 54//52 38//36 52//50
f 53//51 62//60 42//40
f 54//52 63//61 31//29
f 47//45 53//51 43//41
f 44//42 23//21 64//62
f 64//62 23//21 46//44
f 40//38 45//43 57//55
f 44//42 65//63 45//43
f 64//62 65//63 44//42
f 34//32 57//55 41//39
f 49//47 50//48 21//19
f 59//57 61//59 51//49
f 62//60 53//51 66//64
f 55//53 31//29 63//61
f 67//65 39//37 55//53
f 67//65 46//44 39//37
f 56//54 68//66 47//45
f 41//39 57//55 69//67
f 70//68 48//46 58//56
f 50//48 71//69 58//56
f 50//48 72//70 71//69
f 73//71 61//59 59//57
f 61//59 73//71 74//72
f 74//72 52//50 61//59
f 52//50 74//72 54//52
f 66//64 53//51 75//73
f 75//73 53//51 76//74
f 47//45 68//66 76//74
f 76//74 53//51 47//45
f 45//43 77//75 57//55
f 48//46 78//76 56//54
f 48//46 70//68 78//76
f 41//39 69//67 49//47
f 50//48 49//47 79//77
f 73//71 59//57 80//78
f 59//57 60//58 81//79
f 81//79 60//58 62//60
f 82//80 55//53 63//61
f 65//63 77//75 45//43
f 83//81 84//82 57//55
f 85//83 68//66 56//54
f 69//67 57//55 84//82
f 85//83 56//54 78//76
f 70//68 58//56 71//69
f 79//77 72//70 50//48
f 86//84 74//72 73//71
f 59//57 81//79 80//78
f 87//85 54//52 74//72
f 88//86 63//61 54//52
f 88//86 82//80 63//61
f 82//80 67//65 55//53
f 89//87 64//62 46//44
f 46//44 67//65 89//87
f 65//63 89//87 77//75
f 64//62 89//87 65//63
f 90//88 76//74 68//66
f 83//81 57//55 77//75
f 71//69 91//89 70//68
f 73//71 92//90 86//84
f 80//78 92//90 73//71
f 93//91 74//72 86//84
f 93//91 87//85 74//72
f 94//92 81//79 62//60
f 66//64 94//92 62//60
f 54//52 87//85 88//86
f 95//93 94//92 66//64
f 75//73 95//93 66//64
f 76//74 95//93 75//73
f 89//87 67//65 96//94
f 68//66 85//83 90//88
f 69//67 84//82 97//95
f 49//47 69//67 98//96
f 79//77 99//97 72//70
f 76//74 90//88 95//93
f 100//98 90//88 85//83
f 84//82 83//81 101//99
f 102//100 85//83 78//76
f 78//76 70//68 91//89
f 91//89 71//69 103//101
f 92//90 80//78 104//102
f 104//102 80//78 81//79
f 93//91 105//103 106//104
f 92//90 93//91 86//84
f 92//90 105//103 93//91
f 104//102 105//103 92//90
f 87//85 93//91 106//104
f 81//79 107//105 104//102
f 81//79 94//92 107//105
f 108//106 107//105 94//92
f 94//92 95//93 108//106
f 88//86 87//85 82//80
f 90//88 108//106 95//93
f 109//107 110//108 67//65
f 82//80 109//107 67//65
f 67//65 110//108 96//94
f 89//87 111//109 77//75
f 97//95 84//82 101//99
f 78//76 91//89 102//100
f 49//47 98//96 112//110
f 49//47 112//110 99//97
f 79//77 49//47 99//97
f 71//69 72//70 113//111
f 103//101 71//69 113//111
f 106//104 105//103 114//112
f 87//85 106//104 115//113
f 82//80 116//114 109//107
f 117//115 108//106 90//88
f 100//98 117//115 90//88
f 89//87 96//94 111//109
f 111//109 83//81 77//75
f 102//100 118//116 85//83
f 69//67 97//95 98//96
f 106//104 114//112 115//113
f 104//102 119//117 105//103
f 107//105 119//117 104//102
f 107//105 108//106 119//117
f 116//114 82//80 87//85
f 119//117 108//106 120//118
f 120//118 108//106 117//115
f 96//94 110//108 111//109
f 117//115 85//83 118//116
f 117//115 100//98 85//83
f 121//119 118//116 102//100
f 72//70 99//97 122//120
f 72//70 122//120 113//111
f 105//103 123//121 114//112
f 105//103 119//117 123//121
f 123//121 119//117 124//122
f 115//113 125//123 116//114
f 87//85 115//113 116//114
f 120//118 124//122 119//117
f 126//124 83//81 111//109
f 127//125 97//95 101//99
f 97//95 127//125 98//96
f 121//119 102//100 91//89
f 114//112 128//126 115//113
f 128//126 123//121 129//127
f 128//126 114//112 123//121
f 123//121 124//122 130//128
f 116//114 131//129 109//107
f 109//107 111//109 110//108
f 83//81 126//124 101//99
f 121//119 91//89 103//101
f 113//111 132//130 103//101
f 125//123 115//113 128//126
f 129//127 123//121 130//128
f 125//123 131//129 116//114
f 125//123 133//131 131//129
f 129//127 130//128 134//132
f 124//122 134//132 130//128
f 109//107 131//129 135//133
f 134//132 124//122 120//118
f 117//115 136//134 120//118
f 117//115 137//135 136//134
f 118//116 137//135 117//115
f 98//96 127//125 138//136
f 121//119 132//130 139//137
f 103//101 132//130 121//119
f 112//110 98//96 138//136
f 99//97 112//110 122//120
f 128//126 133//131 125//123
f 140//138 141//139 128//126
f 129//127 140//138 128//126
f 129//127 134//132 142//140
f 131//129 133//131 135//133
f 136//134 134//132 120//118
f 109//107 135//133 111//109
f 126//124 143//141 101//99
f 101//99 144//142 127//125
f 121//119 145//143 118//116
f 127//125 144//142 138//136
f 112//110 146//144 122//120
f 113//111 122//120 132//130
f 141//139 147//145 133//131
f 128//126 141//139 133//131
f 140//138 129//127 142//140
f 148//146 126//124 111//109
f 101//99 143//141 144//142
f 118//116 145//143 137//135
f 149//147 138//136 144//142
f 121//119 139//137 145//143
f 150//148 112//110 138//136
f 112//110 150//148 146//144
f 122//120 151//149 132//130
f 152//150 140//138 142//140
f 134//132 153//151 142//140
f 111//109 135//133 148//146
f 136//134 154//152 134//132
f 155//153 126//124 148//146
f 137//135 154//152 136//134
f 126//124 155//153 143//141
f 122//120 146//144 151//149
f 156//154 135//133 133//131
f 147//145 156//154 133//131
f 152//150 141//139 140//138
f 134//132 154//152 153//151
f 144//142 157//155 149//147
f 142//140 153//151 152//150
f 156//154 148//146 135//133
f 143//141 155//153 144//142
f 144//142 155//153 157//155
f 138//136 158//156 150//148
f 151//149 139//137 132//130
f 152//150 159//157 141//139
f 148//146 160//158 155//153
f 154//152 161//159 153//151
f 157//155 155//153 160//158
f 161//159 154//152 137//135
f 145//143 162//160 137//135
f 157//155 163//161 149//147
f 145//143 164//162 162//160
f 138//136 149//147 163//161
f 163//161 158//156 138//136
f 145//143 139//137 164//162
f 164//162 139//137 151//149
f 150//148 165//163 146//144
f 151//149 146//144 165//163
f 147//145 141//139 159//157
f 156//154 147//145 159//157
f 166//164 159//157 152//150
f 166//164 152//150 153//151
f 153//151 161//159 166//164
f 160//158 167//165 157//155
f 137//135 162//160 161//159
f 150//148 158//156 165//163
f 165//163 164//162 151//149
f 156//154 160//158 148//146
f 168//166 162//160 164//162
f 159//157 169//167 156//154
f 169//167 160//158 156//154
f 160//158 170//168 167//165
f 166//164 161//159 171//169
f 172//170 171//169 161//159
f 167//165 163//161 157//155
f 172//170 161//159 162//160
f 162//160 168//166 172//170
f 158//156 173//171 165//163
f 165//163 173//171 164//162
f 169//167 159//157 174//172
f 159//157 166//164 174//172
f 174//172 166//164 171//169
f 163//161 173//171 158//156
f 164//162 173//171 168//166
f 160//158 169//167 175//173
f 174//172 175//173 169//167
f 175//173 170//168 160//158
f 171//169 175//173 174//172
f 171//169 172//170 175//173
f 172//170 176//174 175//173
f 163//161 167//165 170//168
f 163//161 170//168 177//175
f 177//175 173//171 163//161
f 172//170 168//166 176//174
f 176//174 173//171 177//175
f 168//166 173//171 176//174
f 175//173 177//175 170//168
f 175//173 176//174 177//175
