# Blender v2.92.0 OBJ File: 'convert_to_one_sided.blend'
# www.blender.org
mtllib 560581559L.mtl
o Cube
v 0.001000 0.001000 -0.001000
v 0.001000 -0.001000 -0.001000
v 0.001000 0.001000 0.001000
v 0.001000 -0.001000 0.001000
v -0.001000 0.001000 -0.001000
v -0.001000 -0.001000 -0.001000
v -0.001000 0.001000 0.001000
v -0.001000 -0.001000 0.001000
vt 0.625000 0.500000
vt 0.875000 0.500000
vt 0.875000 0.750000
vt 0.625000 0.750000
vt 0.375000 0.750000
vt 0.625000 1.000000
vt 0.375000 1.000000
vt 0.375000 0.000000
vt 0.625000 0.000000
vt 0.625000 0.250000
vt 0.375000 0.250000
vt 0.125000 0.500000
vt 0.375000 0.500000
vt 0.125000 0.750000
vn 0.0000 1.0000 0.0000
vn 0.0000 0.0000 1.0000
vn -1.0000 0.0000 0.0000
vn 0.0000 -1.0000 0.0000
vn 1.0000 0.0000 0.0000
vn 0.0000 0.0000 -1.0000
usemtl Material
s off
f 1/1/1 5/2/1 7/3/1 3/4/1
f 4/5/2 3/4/2 7/6/2 8/7/2
f 8/8/3 7/9/3 5/10/3 6/11/3
f 6/12/4 2/13/4 4/5/4 8/14/4
f 2/13/5 1/1/5 3/4/5 4/5/5
f 6/11/6 5/10/6 1/1/6 2/13/6
o 560581559
v 6.238969 4.983835 5.590689
v 6.144361 5.008015 5.581339
v 6.220660 5.039774 5.574780
v 6.352418 5.052794 5.592939
v 6.181320 5.118223 5.583419
v 6.064212 5.065914 5.598799
v 6.107981 5.168153 5.600199
v 6.338398 5.142423 5.593649
v 6.175380 4.970555 5.595749
v 6.211570 4.941965 5.628028
v 6.119761 4.983355 5.622909
v 6.407388 5.014794 5.621799
v 6.332939 4.964505 5.642618
v 6.540525 5.104663 5.624819
v 6.051602 5.164062 5.613499
v 6.465387 5.148403 5.605849
v 6.183840 5.215902 5.601979
v 6.356608 5.281871 5.604409
v 6.514566 5.236342 5.605639
v 6.190860 5.281661 5.619839
v 6.702514 5.438339 5.600879
v 6.618315 5.355860 5.604159
v 6.555036 5.420439 5.608219
v 6.685034 5.471589 5.609229
v 6.805462 5.471408 5.613239
v 6.827742 5.373040 5.612719
v 6.154831 4.932585 5.685418
v 6.015833 5.042794 5.650578
v 6.005322 5.123863 5.634859
v 6.063552 5.227082 5.641678
v 6.583235 5.188212 5.615519
v 6.656704 5.166673 5.631158
v 6.705474 5.247021 5.618438
v 6.893521 5.237032 5.631958
v 6.782743 5.168602 5.648738
v 6.988650 5.236612 5.634708
v 6.964390 5.308031 5.632588
v 6.396188 5.417170 5.630898
v 6.936071 5.420019 5.638118
v 6.585975 5.479799 5.628078
v 6.717083 5.494419 5.624959
v 6.824982 5.495268 5.647919
v 6.280699 4.929265 5.681338
v 6.212740 4.926016 5.678858
v 6.059772 4.990725 5.684548
v 6.459537 4.997285 5.668808
v 6.560626 5.053564 5.661258
v 6.690384 5.116573 5.661658
v 5.972633 5.112803 5.672828
v 5.999843 5.180432 5.674188
v 6.975100 5.184392 5.648758
v 6.918501 5.150373 5.663778
v 7.017769 5.222941 5.656308
v 6.149220 5.331020 5.655668
v 7.009059 5.323980 5.657968
v 6.269239 5.397140 5.653728
v 7.013979 5.382020 5.672078
v 6.368908 5.459039 5.660618
v 6.921670 5.469549 5.655728
v 6.963261 5.443059 5.666698
v 6.500356 5.496268 5.663998
v 6.674684 5.509258 5.654508
v 6.365748 4.955245 5.680908
v 6.004073 5.031354 5.690258
v 6.545735 5.031894 5.680778
v 6.662314 5.086594 5.684848
v 5.981073 5.073414 5.697457
v 6.831312 5.131893 5.679908
v 7.000840 5.138533 5.680398
v 7.042739 5.187312 5.685128
v 6.064582 5.273081 5.682518
v 7.037939 5.284121 5.689968
v 6.139661 5.350270 5.689807
v 6.216410 5.393689 5.684958
v 6.307499 5.442149 5.681968
v 6.393078 5.478149 5.687298
v 6.908591 5.485308 5.689787
v 6.770613 5.519678 5.689787
v 6.584965 5.052194 5.689998
v 6.740503 5.112993 5.687727
v 6.949361 5.125073 5.691537
v 7.003760 5.120723 5.699748
v 7.033880 5.168473 5.698098
v 7.043439 5.213152 5.696758
v 7.026020 5.378280 5.699957
v 6.984170 5.428899 5.697528
v 6.482407 5.505898 5.697278
v 6.607435 5.516648 5.693247
v 6.510846 5.016914 5.696867
v 6.339418 5.458729 5.697778
v 6.709430 5.105151 5.699999
v 5.973134 5.130486 5.699999
v 6.114048 5.328234 5.699999
v 6.753392 5.117707 5.699999
v 6.187559 5.382518 5.699999
v 6.149932 5.350969 5.699999
v 6.467045 4.997196 5.699999
v 6.678945 5.095079 5.699999
v 5.977015 5.140013 5.699999
v 5.999679 5.186213 5.699999
v 6.200753 5.390306 5.699999
v 6.270662 5.426610 5.699999
v 6.986254 5.426922 5.699999
v 6.981413 5.431260 5.699999
v 6.608744 5.067487 5.699999
v 6.330500 4.940306 5.699999
v 5.978152 5.095663 5.699999
v 5.983962 5.069526 5.699999
v 6.963935 5.129758 5.699999
v 6.920836 5.134749 5.699999
v 6.283320 5.433444 5.699999
v 6.467895 5.500077 5.699999
v 6.234878 4.927141 5.699999
v 6.161728 4.933294 5.699999
v 6.135972 4.945856 5.699999
v 6.295860 4.938731 5.699999
v 5.981033 5.074786 5.699999
v 6.490549 5.505863 5.699999
v 7.003295 5.121061 5.699999
v 6.782583 5.124164 5.699999
v 6.858067 5.142780 5.699999
v 6.384523 5.471362 5.699999
v 6.628784 5.517719 5.699999
v 6.213364 4.926116 5.699999
v 6.595925 5.514085 5.699999
v 7.003936 5.121569 5.699999
v 6.042058 5.005791 5.699999
v 6.923222 5.475347 5.699999
v 6.881227 5.494643 5.699999
v 6.071694 4.985238 5.699999
v 7.034275 5.176501 5.699999
v 7.032075 5.169518 5.699999
v 6.903743 5.484871 5.699999
v 6.191718 4.928551 5.699999
v 6.411773 4.972746 5.699999
v 6.311750 5.446403 5.699999
v 6.786326 5.518282 5.699999
v 6.750466 5.520220 5.699999
v 6.339580 4.943069 5.699999
v 6.080921 5.295267 5.699999
v 6.397578 4.966612 5.699999
v 6.028050 5.225965 5.699999
v 6.056147 5.261395 5.699999
v 6.502756 5.014354 5.699999
v 6.520148 5.023160 5.699999
v 7.042515 5.218659 5.699999
v 6.006512 5.031147 5.699999
v 6.343068 5.459067 5.699999
v 6.574646 5.051398 5.699999
v 7.037868 5.270210 5.699999
v 7.032621 5.306798 5.699999
vn 0.1388 -0.4931 -0.8588
vn -0.2232 -0.2997 -0.9276
vn 0.0490 -0.0623 -0.9969
vn 0.1792 -0.1666 -0.9696
vn -0.0742 0.1084 -0.9913
vn -0.4155 -0.1441 -0.8981
vn -0.1826 0.1969 -0.9633
vn 0.0761 0.0431 -0.9962
vn -0.1955 -0.6752 -0.7113
vn -0.0419 -0.8728 -0.4862
vn -0.4634 -0.7059 -0.5357
vn 0.2933 -0.5540 -0.7792
vn 0.2605 -0.7876 -0.5583
vn 0.2275 -0.3155 -0.9212
vn -0.3977 0.2773 -0.8746
vn 0.1268 -0.0767 -0.9890
vn -0.0989 0.2314 -0.9678
vn -0.0399 0.1381 -0.9896
vn 0.0626 -0.0388 -0.9973
vn -0.2161 0.3497 -0.9116
vn 0.0146 0.0925 -0.9956
vn 0.0166 -0.0327 -0.9993
vn -0.0965 0.2178 -0.9712
vn -0.0498 0.4184 -0.9069
vn 0.1592 0.4091 -0.8985
vn 0.1133 -0.0223 -0.9933
vn -0.3270 -0.9401 -0.0960
vn -0.6962 -0.4778 -0.5356
vn -0.6822 0.1280 -0.7199
vn -0.5410 0.4584 -0.7051
vn 0.1212 -0.1541 -0.9806
vn 0.1638 -0.3037 -0.9386
vn 0.0841 -0.1670 -0.9824
vn 0.0471 -0.2143 -0.9756
vn 0.0958 -0.4408 -0.8925
vn 0.2994 -0.1180 -0.9468
vn 0.3199 0.0645 -0.9452
vn -0.1697 0.4178 -0.8926
vn 0.3759 0.3082 -0.8739
vn -0.1344 0.6213 -0.7720
vn 0.0077 0.7528 -0.6582
vn 0.1997 0.8158 -0.5427
vn 0.1609 -0.9822 -0.0971
vn -0.0405 -0.9882 -0.1479
vn -0.5636 -0.8141 -0.1402
vn 0.3736 -0.8541 -0.3618
vn 0.3771 -0.7112 -0.5933
vn 0.2421 -0.6450 -0.7248
vn -0.9266 -0.0186 -0.3756
vn -0.8142 0.4473 -0.3701
vn 0.2100 -0.3765 -0.9023
vn 0.0325 -0.6014 -0.7983
vn 0.6147 -0.0949 -0.7831
vn -0.4510 0.5936 -0.6666
vn 0.6202 0.1153 -0.7759
vn -0.3266 0.5905 -0.7380
vn 0.7606 0.3604 -0.5400
vn -0.2805 0.7278 -0.6258
vn 0.4034 0.6935 -0.5969
vn 0.6245 0.6436 -0.4425
vn -0.1621 0.8342 -0.5271
vn -0.0296 0.9025 -0.4296
vn 0.3307 -0.9131 -0.2385
vn -0.7551 -0.6461 -0.1112
vn 0.4435 -0.8626 -0.2433
vn 0.3752 -0.9152 -0.1473
vn -0.9351 -0.3537 -0.0214
vn 0.1192 -0.9476 -0.2964
vn 0.4295 -0.6344 -0.6427
vn 0.9011 -0.2366 -0.3633
vn -0.7359 0.6248 -0.2611
vn 0.9706 0.1024 -0.2179
vn -0.6044 0.7921 -0.0851
vn -0.4586 0.8090 -0.3676
vn -0.4113 0.8514 -0.3255
vn -0.3069 0.9440 -0.1215
vn 0.4278 0.9010 -0.0717
vn 0.0945 0.9775 -0.1885
vn 0.2368 -0.4924 0.8376
vn 0.2347 -0.5172 0.8230
vn -0.3211 0.7481 0.5807
vn 0.4589 -0.8884 -0.0130
vn -0.0356 -0.9990 -0.0283
vn 0.4561 -0.8192 0.3478
vn 0.2448 -0.9621 -0.1199
vn 0.8722 -0.4098 0.2672
vn 0.9827 -0.0560 0.1766
vn 0.7949 0.3564 0.4911
vn 0.7096 0.6993 -0.0860
vn -0.1991 0.9767 0.0799
vn -0.0710 0.9936 -0.0877
vn 0.4276 -0.8877 0.1706
vn -0.6372 0.3879 0.6660
vn -0.7481 0.2867 0.5984
vn -0.5725 0.3615 0.7359
vn -0.6436 0.4459 0.6221
vn 0.5482 0.4791 0.6855
vn -0.3673 0.9209 0.1301
vn 0.1781 0.7769 0.6039
vn -0.0078 0.7286 0.6849
vn -0.1134 -0.6981 0.7069
vn -0.0154 -0.7112 0.7029
vn -0.6543 -0.1887 0.7323
vn -0.6848 -0.0895 0.7232
vn 0.1215 -0.6621 0.7395
vn -0.0121 -0.4073 0.9132
vn -0.0876 -0.4361 0.8957
vn -0.0328 -0.4153 0.9091
vn -0.5761 0.5476 0.6068
vn -0.2985 0.3648 0.8819
vn -0.4050 0.6869 0.6034
vn -0.3086 0.6508 0.6937
vn -0.1593 0.5663 0.8087
vn -0.5403 -0.2939 0.7885
vn 0.3927 -0.1553 0.9065
vn -0.1239 -0.3327 0.9349
vn 0.6668 0.0706 0.7419
vn 0.5698 0.0540 0.8200
vn 0.2726 0.5447 0.7931
vn 0.4360 0.6146 0.6574
vn -0.5124 0.5650 0.6467
vn 0.2996 -0.6520 0.6965
vn 0.2041 -0.7613 0.6154
vn 0.2921 -0.6612 0.6910
vn 0.4506 -0.0739 0.8896
vn 0.3316 -0.1042 0.9376
vn 0.2114 0.7397 0.6389
vn -0.3719 -0.5460 0.7507
vn -0.4876 -0.4751 0.7325
vn -0.3545 -0.5803 0.7332
vn -0.0068 0.7501 0.6613
vn -0.0246 0.6258 0.7796
vn -0.2071 0.5821 0.7863
vn -0.3249 -0.6018 0.7296
vn -0.1622 -0.6787 0.7162
vn 0.0208 -0.7077 0.7062
vn 0.0280 -0.5103 0.8596
vn -0.1701 0.5948 0.7856
vn -0.1005 0.6104 0.7857
vn 0.2302 -0.7329 0.6403
vn 0.2603 -0.4492 0.8547
vn 0.2469 -0.4636 0.8509
vn 0.4417 0.5729 0.6905
vn -0.4022 0.6550 0.6397
vn -0.4618 0.7185 0.5200
vn 0.2456 -0.5410 0.8043
vn 0.3187 -0.6900 0.6499
vn 0.1522 -0.5864 0.7956
vn 0.2280 -0.5621 0.7950
vn 0.6541 0.0270 0.7559
vn -0.7728 0.1352 0.6201
usemtl mtl1.508
s 1
f 9//7 10//8 11//9
f 12//10 9//7 11//9
f 11//9 10//8 13//11
f 10//8 14//12 13//11
f 13//11 14//12 15//13
f 12//10 11//9 16//14
f 16//14 11//9 13//11
f 17//15 9//7 18//16
f 17//15 19//17 10//8
f 9//7 17//15 10//8
f 20//18 21//19 9//7
f 10//8 19//17 14//12
f 12//10 20//18 9//7
f 22//20 20//18 12//10
f 14//12 23//21 15//13
f 24//22 22//20 12//10
f 24//22 12//10 16//14
f 25//23 13//11 15//13
f 16//14 13//11 26//24
f 24//22 16//14 27//25
f 15//13 23//21 28//26
f 28//26 25//23 15//13
f 26//24 13//11 25//23
f 27//25 16//14 26//24
f 29//27 30//28 31//29
f 29//27 31//29 32//30
f 33//31 29//27 32//30
f 34//32 29//27 33//31
f 18//16 35//33 19//17
f 18//16 19//17 17//15
f 19//17 36//34 14//12
f 14//12 37//35 23//21
f 36//34 37//35 14//12
f 37//35 38//36 23//21
f 39//37 22//20 24//22
f 40//38 22//20 39//37
f 39//37 24//22 27//25
f 28//26 23//21 38//36
f 41//39 42//40 43//41
f 40//38 39//37 41//39
f 39//37 27//25 41//39
f 27//25 26//24 30//28
f 41//39 27//25 30//28
f 26//24 25//23 28//26
f 42//40 41//39 34//32
f 44//42 42//40 45//43
f 34//32 41//39 30//28
f 46//44 26//24 28//26
f 45//43 42//40 34//32
f 31//29 26//24 46//44
f 30//28 26//24 31//29
f 34//32 30//28 29//27
f 47//45 45//43 34//32
f 47//45 34//32 33//31
f 48//46 31//29 46//44
f 32//30 31//29 48//46
f 48//46 49//47 32//30
f 32//30 49//47 33//31
f 50//48 47//45 33//31
f 50//48 33//31 49//47
f 18//16 21//19 51//49
f 52//50 18//16 51//49
f 53//51 19//17 35//33
f 21//19 18//16 9//7
f 19//17 53//51 36//34
f 21//19 20//18 54//52
f 20//18 55//53 54//52
f 22//20 55//53 20//18
f 56//54 55//53 22//20
f 57//55 37//35 36//34
f 40//38 56//54 22//20
f 43//41 56//54 40//38
f 38//36 37//35 58//56
f 59//57 60//58 42//40
f 61//59 59//57 44//42
f 42//40 60//58 43//41
f 59//57 42//40 44//42
f 43//41 40//38 41//39
f 44//42 45//43 61//59
f 38//36 62//60 28//26
f 61//59 45//43 63//61
f 62//60 64//62 28//26
f 45//43 47//45 63//61
f 65//63 63//61 47//45
f 28//26 64//62 46//44
f 64//62 66//64 46//44
f 47//45 50//48 67//65
f 47//45 67//65 68//66
f 69//67 46//44 66//64
f 46//44 69//67 48//46
f 49//47 48//46 70//68
f 50//48 49//47 70//68
f 52//50 35//33 18//16
f 21//19 71//69 51//49
f 21//19 54//52 71//69
f 72//70 36//34 53//51
f 54//52 55//53 73//71
f 55//53 56//54 74//72
f 57//55 36//34 75//73
f 76//74 56//54 43//41
f 43//41 60//58 76//74
f 77//75 59//57 61//59
f 61//59 78//76 77//75
f 58//56 37//35 57//55
f 77//75 60//58 59//57
f 38//36 58//56 79//77
f 78//76 61//59 80//78
f 61//59 63//61 80//78
f 38//36 79//77 62//60
f 62//60 79//77 81//79
f 65//63 80//78 63//61
f 62//60 81//79 82//80
f 62//60 82//80 64//62
f 65//63 47//45 68//66
f 64//62 82//80 83//81
f 83//81 66//64 64//62
f 69//67 66//64 84//82
f 69//67 70//68 48//46
f 85//83 67//65 50//48
f 50//48 70//68 86//84
f 85//83 50//48 86//84
f 152//85 153//86 110//87
f 55//53 87//88 73//71
f 55//53 74//72 87//88
f 72//70 75//73 36//34
f 89//89 77//75 90//90
f 74//72 56//54 88//91
f 56//54 76//74 88//91
f 76//74 60//58 89//89
f 77//75 89//89 60//58
f 77//75 78//76 91//92
f 92//93 91//92 78//76
f 92//93 78//76 80//78
f 80//78 65//63 93//94
f 68//66 94//95 65//63
f 67//65 85//83 68//66
f 85//83 94//95 68//66
f 66//64 83//81 84//82
f 69//67 84//82 95//96
f 70//68 69//67 96//97
f 69//67 95//96 96//97
f 86//84 70//68 96//97
f 54//52 73//71 97//98
f 87//88 97//98 73//71
f 91//92 90//90 77//75
f 108//99 58//56 107//100
f 151//101 79//77 150//102
f 65//63 94//95 93//94
f 93//94 94//95 111//103
f 83//81 98//104 84//82
f 145//105 86//84 146//106
f 142//107 52//50 132//108
f 125//109 115//110 75//73
f 128//111 76//74 129//112
f 117//113 118//114 89//89
f 101//115 104//116 81//79
f 104//116 103//117 81//79
f 144//118 156//119 98//104
f 116//120 125//109 75//73
f 134//121 127//122 90//90
f 158//123 80//78 159//124
f 141//125 136//126 85//83
f 158//123 92//93 80//78
f 87//88 153//86 97//98
f 97//98 153//86 152//85
f 79//77 151//101 148//127
f 71//69 149//128 147//129
f 143//130 71//69 54//52
f 92//93 139//131 91//92
f 91//92 139//131 140//132
f 86//84 137//133 85//83
f 85//83 137//133 141//125
f 72//70 135//134 155//135
f 53//51 138//136 135//134
f 91//92 134//121 90//90
f 86//84 131//137 146//106
f 96//97 133//138 131//137
f 98//104 130//139 84//82
f 95//96 133//138 96//97
f 53//51 123//140 138//136
f 35//33 122//141 123//140
f 35//33 142//107 122//141
f 121//142 52//50 51//49
f 51//49 124//143 121//142
f 84//82 120//144 95//96
f 95//96 120//144 126//145
f 83//81 144//118 98//104
f 118//114 76//74 89//89
f 90//90 117//113 89//89
f 72//70 116//120 75//73
f 71//69 114//146 51//49
f 51//49 114//146 124//143
f 87//88 113//147 157//148
f 94//95 136//126 112//149
f 94//95 112//149 111//103
f 83//81 110//87 119//150
f 82//80 109//151 110//87
f 58//56 150//102 79//77
f 74//72 106//152 113//147
f 54//52 105//153 143//130
f 97//98 152//85 105//153
f 82//80 103//117 109//151
f 88//91 128//111 102//154
f 80//78 93//94 159//124
f 79//77 101//115 81//79
f 115//110 57//55 75//73
f 57//55 107//100 58//56
f 74//72 99//155 106//152
f 88//91 102//154 99//155
f 93//94 111//103 159//124
f 111//103 112//149 159//124
f 112//149 136//126 129//112
f 136//126 141//125 129//112
f 141//125 137//133 129//112
f 137//133 145//105 129//112
f 145//105 146//106 128//111
f 146//106 131//137 102//154
f 102//154 131//137 99//155
f 133//138 126//145 106//152
f 126//145 120//144 113//147
f 106//152 126//145 113//147
f 131//137 133//138 99//155
f 154//156 158//123 118//114
f 158//123 159//124 129//112
f 140//132 139//131 117//113
f 139//131 154//156 117//113
f 127//122 134//121 117//113
f 134//121 140//132 117//113
f 129//112 118//114 158//123
f 118//114 117//113 154//156
f 159//124 112//149 129//112
f 99//155 133//138 106//152
f 130//139 156//119 153//86
f 156//119 144//118 153//86
f 130//139 153//86 157//148
f 120//144 130//139 113//147
f 102//154 128//111 146//106
f 128//111 129//112 145//105
f 144//118 119//150 153//86
f 119//150 110//87 153//86
f 110//87 109//151 105//153
f 109//151 103//117 104//116
f 110//87 105//153 152//85
f 104//116 101//115 148//127
f 105//153 109//151 143//130
f 113//147 130//139 157//148
f 104//116 148//127 124//143
f 148//127 151//101 124//143
f 151//101 150//102 138//136
f 150//102 108//99 135//134
f 138//136 150//102 135//134
f 108//99 107//100 115//110
f 107//100 100//157 115//110
f 115//110 125//109 116//120
f 151//101 138//136 123//140
f 108//99 115//110 135//134
f 135//134 115//110 116//120
f 116//120 155//135 135//134
f 123//140 122//141 142//107
f 151//101 123//140 121//142
f 142//107 132//108 121//142
f 123//140 142//107 121//142
f 121//142 124//143 151//101
f 124//143 114//146 147//129
f 147//129 149//128 124//143
f 149//128 143//130 104//116
f 124//143 149//128 104//116
f 109//151 104//116 143//130
f 142//107 35//33 52//50
f 158//123 154//156 92//93
f 87//88 157//148 153//86
f 143//130 149//128 71//69
f 92//93 154//156 139//131
f 86//84 145//105 137//133
f 72//70 53//51 135//134
f 91//92 140//132 134//121
f 86//84 96//97 131//137
f 98//104 156//119 130//139
f 95//96 126//145 133//138
f 53//51 35//33 123//140
f 121//142 132//108 52//50
f 84//82 130//139 120//144
f 83//81 119//150 144//118
f 118//114 129//112 76//74
f 90//90 127//122 117//113
f 72//70 155//135 116//120
f 71//69 147//129 114//146
f 87//88 74//72 113//147
f 94//95 85//83 136//126
f 83//81 82//80 110//87
f 58//56 108//99 150//102
f 54//52 97//98 105//153
f 82//80 81//79 103//117
f 88//91 76//74 128//111
f 79//77 148//127 101//115
f 115//110 100//157 57//55
f 57//55 100//157 107//100
f 74//72 88//91 99//155
