# Blender v2.92.0 OBJ File: 'convert_to_one_sided.blend'
# www.blender.org
mtllib 576073704L.mtl
o Cube
v 0.001000 0.001000 -0.001000
v 0.001000 -0.001000 -0.001000
v 0.001000 0.001000 0.001000
v 0.001000 -0.001000 0.001000
v -0.001000 0.001000 -0.001000
v -0.001000 -0.001000 -0.001000
v -0.001000 0.001000 0.001000
v -0.001000 -0.001000 0.001000
vt 0.625000 0.500000
vt 0.875000 0.500000
vt 0.875000 0.750000
vt 0.625000 0.750000
vt 0.375000 0.750000
vt 0.625000 1.000000
vt 0.375000 1.000000
vt 0.375000 0.000000
vt 0.625000 0.000000
vt 0.625000 0.250000
vt 0.375000 0.250000
vt 0.125000 0.500000
vt 0.375000 0.500000
vt 0.125000 0.750000
vn 0.0000 1.0000 0.0000
vn 0.0000 0.0000 1.0000
vn -1.0000 0.0000 0.0000
vn 0.0000 -1.0000 0.0000
vn 1.0000 0.0000 0.0000
vn 0.0000 0.0000 -1.0000
usemtl Material
s off
f 1/1/1 5/2/1 7/3/1 3/4/1
f 4/5/2 3/4/2 7/6/2 8/7/2
f 8/8/3 7/9/3 5/10/3 6/11/3
f 6/12/4 2/13/4 4/5/4 8/14/4
f 2/13/5 1/1/5 3/4/5 4/5/5
f 6/11/6 5/10/6 1/1/6 2/13/6
o 576073704
v 6.448057 6.126880 4.554552
v 6.438877 6.231159 4.560392
v 6.539756 6.224909 4.552163
v 6.574585 6.142470 4.564772
v 6.645064 6.261708 4.562382
v 6.571255 6.307038 4.565492
v 6.488327 5.980692 4.618961
v 6.451467 6.047031 4.587222
v 6.630835 6.075371 4.606862
v 6.384998 6.050851 4.589692
v 6.335428 6.121120 4.601422
v 6.711174 6.198069 4.594102
v 6.328678 6.246369 4.606612
v 6.446357 6.317778 4.584722
v 6.710934 6.315258 4.586252
v 6.527286 6.360797 4.586132
v 6.616625 6.356517 4.588382
v 6.361788 5.956382 4.636412
v 6.280199 5.985322 4.648631
v 6.707714 6.098900 4.634091
v 6.264229 6.154380 4.636181
v 6.327919 6.320968 4.644111
v 6.792583 6.275058 4.616881
v 6.786593 6.329058 4.619421
v 6.436307 6.364017 4.622091
v 6.681604 6.362517 4.610571
v 6.562376 5.966112 4.651171
v 6.637064 6.015232 4.655341
v 6.771053 6.169670 4.647471
v 6.204530 6.188089 4.678441
v 6.261600 6.261088 4.661271
v 6.819182 6.294578 4.632142
v 6.821362 6.238769 4.663041
v 6.546016 6.377287 4.617671
v 6.200340 6.059271 4.678781
v 6.810522 6.297608 4.648501
v 6.359928 6.355997 4.663031
v 6.725904 6.352757 4.632122
v 6.430127 6.371887 4.652891
v 6.612045 6.375297 4.634061
v 6.488847 6.370377 4.671221
v 6.249819 5.892273 4.696371
v 6.360608 5.859933 4.708130
v 6.177700 5.957112 4.707291
v 6.477877 5.876083 4.711800
v 6.592345 5.945003 4.698590
v 6.697384 6.044451 4.688760
v 6.280069 6.327178 4.713621
v 6.623694 6.362727 4.655981
v 6.782793 6.132320 4.710760
v 6.821362 6.191299 4.709331
v 6.819292 6.227999 4.697650
v 6.219910 6.273048 4.712640
v 6.731123 6.318808 4.663051
v 6.367558 6.350897 4.700110
v 6.251780 5.827824 4.750920
v 6.104062 5.990072 4.743580
v 6.630785 5.951713 4.737280
v 6.112102 6.110850 4.739650
v 6.152211 6.208319 4.734640
v 6.764813 6.248899 4.708210
v 6.666655 6.269568 4.694890
v 6.577785 6.322828 4.688251
v 6.543216 6.242419 4.702170
v 6.501276 6.346407 4.697490
v 6.322049 5.795004 4.786199
v 6.396898 5.810554 4.790319
v 6.468037 5.827794 4.792870
v 6.164841 5.891463 4.751910
v 6.548726 5.888843 4.764900
v 6.698194 6.021412 4.743480
v 6.802073 6.152220 4.742770
v 6.462897 6.216249 4.723290
v 6.500387 6.183060 4.722290
v 6.572536 6.201399 4.740260
v 6.483087 6.170080 4.767770
v 6.810172 6.184169 4.733980
v 6.495117 6.278079 4.716220
v 6.774393 6.199489 4.752550
v 6.447667 6.304038 4.745719
v 6.405707 6.336247 4.734250
v 6.205550 5.828024 4.780199
v 6.264349 5.796355 4.822139
v 6.627495 5.946252 4.791989
v 6.065232 6.022421 4.776400
v 6.695673 6.044421 4.826379
v 6.066122 6.074811 4.784669
v 6.108381 6.168370 4.782699
v 6.459277 6.198080 4.751360
v 6.453747 6.241829 4.754330
v 6.595505 6.213929 4.786919
v 6.662115 6.223959 4.755990
v 6.165251 6.244628 4.763999
v 6.706474 6.213299 4.785560
v 6.226460 6.292038 4.769360
v 6.320979 6.316148 4.790509
v 6.140001 5.871973 4.797419
v 6.085782 5.951853 4.793279
v 6.470837 6.218519 4.778739
v 6.753923 6.144180 4.797879
v 6.520246 6.225409 4.791169
v 6.461707 6.257039 4.782949
v 6.616205 6.231879 4.826139
v 6.429047 6.286688 4.792079
v 6.225840 5.813624 4.831459
v 6.518506 5.857723 4.843559
v 6.098192 5.920273 4.840369
v 6.059712 6.012152 4.802359
v 6.295739 5.988992 4.790879
v 6.260709 5.957353 4.802059
v 6.314129 5.988982 4.815059
v 6.287569 6.013632 4.834679
v 6.281049 5.979402 4.850779
v 6.277959 6.018941 4.807199
v 6.092862 6.065731 4.851139
v 6.142281 6.153500 4.871988
v 6.551675 6.241119 4.819879
v 6.711664 6.184959 4.825179
v 6.202010 6.229969 4.847139
v 6.478367 6.263948 4.817539
v 6.422047 6.293548 4.823379
v 6.237929 5.793904 4.925328
v 6.421197 5.802444 4.874848
v 6.185730 5.872313 4.819689
v 6.134741 5.904813 4.840039
v 6.093962 5.977732 4.859939
v 6.209600 5.941382 4.835989
v 6.247020 5.892443 4.828719
v 6.275529 5.932333 4.843608
v 6.247060 5.978372 4.837469
v 6.681324 6.100700 4.894538
v 6.688214 6.156210 4.871878
v 6.318499 5.790775 4.882258
v 6.238430 5.798315 4.874408
v 6.230480 5.834994 4.882668
v 6.170701 5.919373 4.847468
v 6.125301 5.920293 4.882738
v 6.189880 5.925693 4.879028
v 6.247759 5.884493 4.876088
v 6.569215 5.915303 4.892168
v 6.645774 6.218189 4.847909
v 6.505256 6.264008 4.848508
v 6.282489 6.276838 4.860068
v 6.156550 5.915793 4.885588
v 6.232810 5.926513 4.878188
v 6.624565 6.200089 4.898588
v 6.534306 6.246198 4.890908
v 6.299019 6.228769 4.943307
v 6.356908 6.279468 4.881858
v 6.463197 5.838933 4.934178
v 6.217330 5.869793 4.912398
v 6.147711 5.904383 4.928697
v 6.186200 5.894164 4.915627
v 6.121091 5.935963 4.906507
v 6.584185 5.962802 4.945087
v 6.141241 5.965512 4.959307
v 6.601475 6.028642 4.958707
v 6.185450 6.074011 4.966917
v 6.222110 6.169660 4.929667
v 6.446337 6.269938 4.882168
v 6.359448 5.797764 4.961077
v 6.628815 6.145480 4.938967
v 6.279989 5.792264 4.985597
v 6.189480 5.861114 4.940268
v 6.492036 5.893543 4.986497
v 6.161691 5.884803 4.981497
v 6.523816 6.221759 4.950607
v 6.427847 6.234549 4.942967
v 6.589825 6.094531 4.982457
v 6.563525 6.185319 4.961037
v 6.263730 6.142450 4.987337
v 6.219700 5.811684 5.019176
v 6.197041 5.837804 4.986097
v 6.397317 5.836944 5.012116
v 6.554976 6.151980 4.987677
v 6.485926 6.178020 4.997907
v 6.325358 5.811604 5.022326
v 6.193120 5.846334 5.023936
v 6.523506 5.959103 5.004336
v 6.346998 6.138980 5.011046
v 6.181041 5.887883 5.021776
v 6.503306 6.016652 5.033746
v 6.214860 5.946773 5.039626
v 6.505226 6.112411 5.020816
v 6.259059 6.056401 5.019897
v 6.272929 5.820395 5.045886
v 6.222830 5.858823 5.039246
v 6.424937 5.908893 5.046736
v 6.414557 6.073011 5.049296
v 6.335649 5.852734 5.056306
v 6.316809 5.985582 5.063136
v 6.452747 6.037931 5.051456
v 6.283319 5.890593 5.058316
v 6.349028 5.915113 5.064866
v 6.410658 5.990082 5.050716
vn -0.1183 -0.1561 -0.9806
vn -0.2329 0.1397 -0.9624
vn 0.0245 0.0331 -0.9992
vn 0.1791 -0.2643 -0.9477
vn 0.1981 0.0151 -0.9801
vn 0.0028 0.2742 -0.9617
vn 0.1230 -0.5296 -0.8393
vn 0.0151 -0.3992 -0.9167
vn 0.3383 -0.4468 -0.8282
vn -0.2395 -0.2933 -0.9255
vn -0.4147 -0.0596 -0.9080
vn 0.4043 -0.2342 -0.8841
vn -0.4644 0.2152 -0.8591
vn -0.2784 0.4040 -0.8714
vn 0.2782 0.2685 -0.9222
vn -0.0948 0.6436 -0.7595
vn 0.1098 0.6421 -0.7587
vn -0.1209 -0.4741 -0.8721
vn -0.3799 -0.2481 -0.8912
vn 0.5472 -0.4945 -0.6753
vn -0.5045 0.0158 -0.8633
vn -0.5015 0.5819 -0.6402
vn 0.5529 -0.1185 -0.8248
vn 0.5548 0.6858 -0.4710
vn -0.2696 0.8003 -0.5356
vn 0.2117 0.8771 -0.4311
vn 0.3428 -0.6300 -0.6968
vn 0.4967 -0.6132 -0.6142
vn 0.6730 -0.4367 -0.5970
vn -0.6085 0.2078 -0.7659
vn -0.6036 0.3848 -0.6983
vn 0.9071 0.2438 -0.3433
vn 0.9527 -0.1585 -0.2594
vn -0.0083 0.9686 -0.2486
vn -0.5127 -0.0624 -0.8563
vn 0.6523 0.6000 0.4633
vn -0.3481 0.9140 -0.2084
vn 0.3110 0.8888 0.3365
vn -0.1390 0.9903 -0.0012
vn 0.1191 0.9801 0.1585
vn 0.0344 0.9205 0.3893
vn -0.3068 -0.5007 -0.8094
vn 0.0312 -0.7103 -0.7032
vn -0.4832 -0.2847 -0.8279
vn 0.2816 -0.7778 -0.5619
vn 0.4946 -0.7271 -0.4761
vn 0.6600 -0.6260 -0.4155
vn -0.4565 0.8875 -0.0630
vn 0.1761 0.7227 0.6684
vn 0.7908 -0.5727 -0.2160
vn 0.9804 -0.1803 0.0800
vn 0.7784 0.3934 0.4892
vn -0.6518 0.6030 -0.4599
vn 0.2033 0.5801 0.7888
vn -0.1329 0.9517 0.2767
vn -0.2573 -0.7602 -0.5966
vn -0.6318 -0.2262 -0.7414
vn 0.6331 -0.7367 -0.2375
vn -0.7112 0.1636 -0.6836
vn -0.7413 0.4273 -0.5175
vn 0.2374 0.6979 0.6757
vn -0.0171 0.5638 0.8258
vn 0.2331 0.2839 0.9301
vn 0.0716 0.2384 0.9685
vn 0.2041 0.6227 0.7553
vn 0.0151 -0.9362 -0.3510
vn 0.1890 -0.9255 -0.3282
vn 0.4107 -0.8813 -0.2336
vn -0.5596 -0.5240 -0.6421
vn 0.5354 -0.8114 -0.2344
vn 0.7638 -0.6439 -0.0448
vn 0.8701 -0.3559 0.3409
vn 0.6574 0.1290 0.7424
vn 0.1469 0.6306 0.7621
vn -0.2740 0.9430 0.1892
vn 0.2742 0.8032 -0.5289
vn 0.7848 0.1663 0.5970
vn 0.4609 -0.0912 0.8828
vn 0.5250 0.5410 0.6570
vn 0.6887 0.3571 0.6311
vn 0.1765 0.8436 0.5072
vn -0.4835 -0.8117 -0.3276
vn -0.2715 -0.9483 -0.1643
vn 0.6954 -0.7148 0.0740
vn -0.8588 -0.1001 -0.5024
vn 0.7948 -0.4961 0.3496
vn -0.9591 0.2514 -0.1300
vn -0.8620 0.5054 0.0395
vn 0.9186 0.3951 -0.0021
vn 0.9967 0.0795 0.0152
vn -0.0132 0.9241 -0.3820
vn -0.0831 0.9740 0.2109
vn -0.7216 0.6919 -0.0220
vn 0.3194 0.8672 0.3819
vn -0.5153 0.8368 0.1850
vn -0.1142 0.9299 0.3497
vn -0.6445 -0.7556 0.1171
vn -0.8665 -0.4317 -0.2507
vn 0.6156 0.2249 -0.7553
vn 0.7590 0.0809 0.6461
vn 0.1545 0.6586 -0.7365
vn 0.7425 0.5304 -0.4091
vn 0.1894 0.9783 -0.0842
vn 0.7789 0.6176 0.1088
vn -0.8102 -0.5398 0.2283
vn 0.5879 -0.8066 0.0612
vn -0.7446 -0.6109 0.2690
vn -0.9845 -0.1020 0.1430
vn -0.3668 0.5492 0.7509
vn 0.0834 0.2091 0.9743
vn -0.9698 0.2404 -0.0413
vn -0.0225 -0.7557 -0.6546
vn -0.3340 -0.2094 -0.9190
vn 0.4800 -0.8769 -0.0266
vn -0.8537 0.2322 0.4660
vn -0.6962 0.4925 0.5223
vn 0.2038 0.8584 -0.4708
vn 0.5957 0.5759 0.5600
vn -0.5848 0.6669 0.4618
vn 0.3970 0.8395 -0.3709
vn 0.4031 0.8869 0.2255
vn -0.6865 -0.7259 -0.0423
vn 0.3238 -0.9458 0.0252
vn -0.2915 -0.3206 0.9013
vn -0.1453 -0.8773 0.4574
vn -0.9212 -0.1512 0.3584
vn 0.5417 -0.7496 0.3803
vn -0.5927 0.4367 0.6767
vn -0.8855 0.4086 -0.2212
vn 0.6962 -0.6704 -0.2568
vn 0.7659 -0.0719 0.6389
vn 0.6916 0.3473 0.6333
vn 0.0382 -0.9990 -0.0246
vn -0.9868 -0.0500 0.1543
vn -0.9982 -0.0238 -0.0548
vn 0.3639 -0.8486 0.3840
vn -0.4470 -0.8751 0.1855
vn 0.1835 -0.8894 -0.4188
vn -0.8729 0.1500 -0.4643
vn 0.6866 -0.6682 0.2866
vn 0.4074 0.8422 0.3531
vn 0.2877 0.9565 -0.0488
vn -0.3327 0.8285 0.4505
vn 0.0040 -0.9882 -0.1531
vn -0.1922 -0.5318 -0.8248
vn 0.5069 0.6597 0.5548
vn 0.2721 0.8989 0.3434
vn -0.3027 0.6806 0.6672
vn -0.0143 0.8864 0.4628
vn 0.5322 -0.7929 0.2969
vn -0.6700 -0.1810 -0.7199
vn -0.5772 -0.7894 -0.2092
vn -0.2802 -0.6939 -0.6633
vn -0.8524 -0.4281 0.3002
vn 0.7158 -0.4742 0.5127
vn -0.8438 0.0467 0.5347
vn 0.7000 -0.2542 0.6674
vn -0.6320 0.3490 0.6919
vn -0.5597 0.5449 0.6244
vn 0.1722 0.9098 0.3776
vn 0.2642 -0.9360 0.2326
vn 0.6156 0.3406 0.7106
vn -0.0293 -0.9722 0.2323
vn -0.7400 -0.5212 -0.4252
vn 0.5934 -0.5897 0.5479
vn -0.8722 -0.4598 0.1669
vn 0.2648 0.7608 0.5926
vn 0.0333 0.7748 0.6313
vn 0.5790 0.0606 0.8131
vn 0.4319 0.5532 0.7124
vn -0.4242 0.4556 0.7826
vn -0.4863 -0.7480 0.4516
vn -0.7893 -0.6137 -0.0208
vn 0.4352 -0.6986 0.5679
vn 0.4266 0.3691 0.8257
vn 0.1367 0.5362 0.8330
vn 0.2187 -0.8191 0.5304
vn -0.7292 -0.4369 0.5267
vn 0.5943 -0.3391 0.7293
vn -0.1527 0.4719 0.8683
vn -0.7115 -0.0703 0.6992
vn 0.4312 -0.0905 0.8977
vn -0.4664 0.1505 0.8717
vn 0.3106 0.2396 0.9199
vn -0.3618 0.3366 0.8694
vn -0.0962 -0.5831 0.8067
vn -0.3641 -0.1960 0.9105
vn 0.3822 -0.2928 0.8765
vn 0.0315 0.2499 0.9678
vn 0.1808 -0.4075 0.8951
vn -0.1204 0.1629 0.9793
vn 0.1945 0.0444 0.9799
vn -0.1613 -0.0848 0.9833
vn 0.0903 -0.0554 0.9944
vn 0.1477 -0.0231 0.9888
usemtl mtl1.522
s 1
f 9//7 10//8 11//9
f 12//10 9//7 11//9
f 13//11 12//10 11//9
f 14//12 11//9 10//8
f 15//13 16//14 12//10
f 17//15 15//13 12//10
f 9//7 18//16 19//17
f 16//14 18//16 9//7
f 12//10 16//14 9//7
f 9//7 19//17 10//8
f 17//15 12//10 20//18
f 10//8 19//17 21//19
f 21//19 22//20 10//8
f 20//18 12//10 13//11
f 13//11 11//9 14//12
f 14//12 10//8 22//20
f 20//18 13//11 23//21
f 14//12 22//20 24//22
f 23//21 13//11 14//12
f 25//23 14//12 24//22
f 23//21 14//12 25//23
f 15//13 26//24 16//14
f 16//14 26//24 18//16
f 18//16 27//25 19//17
f 20//18 28//26 17//15
f 29//27 21//19 19//17
f 21//19 30//28 22//20
f 20//18 23//21 31//29
f 23//21 32//30 31//29
f 22//20 33//31 24//22
f 22//20 30//28 33//31
f 25//23 34//32 23//21
f 23//21 34//32 32//30
f 26//24 27//25 18//16
f 17//15 35//33 15//13
f 35//33 17//15 36//34
f 17//15 28//26 36//34
f 37//35 28//26 20//18
f 38//36 21//19 29//27
f 20//18 31//29 37//35
f 38//36 39//37 21//19
f 39//37 30//28 21//19
f 40//38 41//39 31//29
f 31//29 32//30 40//38
f 33//31 42//40 24//22
f 24//22 42//40 25//23
f 42//40 34//32 25//23
f 27//25 43//41 19//17
f 19//17 43//41 29//27
f 40//38 32//30 44//42
f 33//31 30//28 45//43
f 34//32 46//44 32//30
f 33//31 45//43 47//45
f 42//40 33//31 47//45
f 48//46 46//44 34//32
f 42//40 49//47 48//46
f 34//32 42//40 48//46
f 26//24 50//48 27//25
f 51//49 26//24 15//13
f 27//25 50//48 52//50
f 35//33 53//51 15//13
f 54//52 53//51 35//33
f 54//52 35//33 36//34
f 27//25 52//50 43//41
f 36//34 28//26 55//53
f 37//35 31//29 41//39
f 41//39 40//38 44//42
f 32//30 46//44 44//42
f 30//28 56//54 45//43
f 46//44 48//46 57//55
f 42//40 47//45 49//47
f 51//49 50//48 26//24
f 53//51 51//49 15//13
f 36//34 55//53 54//52
f 28//26 37//35 55//53
f 43//41 38//36 29//27
f 41//39 58//56 37//35
f 58//56 41//39 59//57
f 59//57 41//39 60//58
f 38//36 61//59 39//37
f 41//39 44//42 60//58
f 30//28 61//59 56//54
f 30//28 39//37 61//59
f 44//42 46//44 62//60
f 47//45 45//43 63//61
f 47//45 63//61 49//47
f 49//47 57//55 48//46
f 46//44 57//55 62//60
f 50//48 51//49 64//62
f 52//50 65//63 43//41
f 54//52 55//53 66//64
f 37//35 58//56 55//53
f 67//65 68//66 38//36
f 38//36 68//66 61//59
f 60//58 44//42 69//67
f 70//68 71//69 72//70
f 69//67 62//60 70//68
f 44//42 62//60 69//67
f 71//69 57//55 73//71
f 62//60 71//69 70//68
f 56//54 63//61 45//43
f 71//69 62//60 57//55
f 73//71 57//55 49//47
f 64//62 51//49 74//72
f 74//72 51//49 75//73
f 51//49 53//51 75//73
f 75//73 53//51 76//74
f 50//48 64//62 77//75
f 53//51 78//76 76//74
f 53//51 54//52 78//76
f 77//75 52//50 50//48
f 65//63 52//50 77//75
f 66//64 55//53 79//77
f 43//41 65//63 67//65
f 43//41 67//65 38//36
f 79//77 55//53 58//56
f 58//56 59//57 80//78
f 72//70 81//79 82//80
f 83//81 82//80 84//82
f 83//81 72//70 82//80
f 60//58 85//83 59//57
f 72//70 86//84 81//79
f 60//58 69//67 87//85
f 70//68 72//70 83//81
f 72//70 71//69 86//84
f 71//69 88//86 86//84
f 71//69 73//71 88//86
f 89//87 49//47 63//61
f 73//71 49//47 89//87
f 90//88 64//62 91//89
f 64//62 74//72 91//89
f 64//62 90//88 77//75
f 66//64 78//76 54//52
f 66//64 79//77 92//90
f 67//65 65//63 93//91
f 94//92 79//77 58//56
f 67//65 93//91 95//93
f 96//94 67//65 95//93
f 67//65 96//94 68//66
f 84//82 82//80 97//95
f 82//80 81//79 97//95
f 85//83 80//78 59//57
f 81//79 98//96 97//95
f 99//97 100//98 83//81
f 101//99 68//66 96//94
f 81//79 86//84 98//96
f 102//100 87//85 69//67
f 85//83 60//58 87//85
f 83//81 100//98 70//68
f 69//67 70//68 100//98
f 101//99 61//59 68//66
f 88//86 98//96 86//84
f 103//101 61//59 101//99
f 61//59 103//101 56//54
f 56//54 103//101 104//102
f 63//61 56//54 104//102
f 73//71 89//87 88//86
f 90//88 105//103 77//75
f 77//75 105//103 106//104
f 78//76 66//64 92//90
f 106//104 65//63 77//75
f 93//91 65//63 106//104
f 58//56 80//78 94//92
f 97//95 107//105 84//82
f 85//83 108//106 80//78
f 98//96 107//105 97//95
f 107//105 109//107 84//82
f 84//82 109//107 83//81
f 83//81 109//107 99//97
f 107//105 98//96 110//108
f 100//98 99//97 111//109
f 100//98 111//109 102//100
f 69//67 100//98 102//100
f 88//86 110//108 98//96
f 88//86 112//110 110//108
f 91//89 113//111 90//88
f 113//111 105//103 90//88
f 76//74 78//76 114//112
f 78//76 92//90 114//112
f 115//113 106//104 105//103
f 106//104 116//114 93//91
f 117//115 118//116 119//117
f 120//118 119//117 121//119
f 120//118 122//120 119//117
f 116//114 95//93 93//91
f 108//106 94//92 80//78
f 95//93 123//121 96//94
f 123//121 124//122 96//94
f 108//106 85//83 87//85
f 109//107 107//105 110//108
f 109//107 125//123 99//97
f 87//85 102//100 126//124
f 127//125 96//94 124//122
f 109//107 110//108 128//126
f 125//123 109//107 128//126
f 99//97 125//123 111//109
f 101//99 96//94 127//125
f 128//126 110//108 112//110
f 101//99 127//125 103//101
f 89//87 129//127 88//86
f 112//110 88//86 129//127
f 104//102 89//87 63//61
f 91//89 130//128 113//111
f 76//74 131//129 75//73
f 76//74 114//112 131//129
f 113//111 132//130 105//103
f 132//130 133//131 105//103
f 105//103 133//131 115//113
f 115//113 134//132 106//104
f 118//116 135//133 136//134
f 137//135 118//116 136//134
f 94//92 92//90 79//77
f 106//104 134//132 116//114
f 135//133 118//116 138//136
f 119//117 118//116 137//135
f 121//119 119//117 137//135
f 138//136 118//116 122//120
f 138//136 122//120 120//118
f 116//114 123//121 95//93
f 108//106 139//137 94//92
f 126//124 140//138 108//106
f 108//106 87//85 126//124
f 128//126 112//110 129//127
f 89//87 104//102 129//127
f 74//72 141//139 91//89
f 75//73 141//139 74//72
f 113//111 130//128 142//140
f 143//141 113//111 142//140
f 132//130 113//111 143//141
f 133//131 132//130 144//142
f 136//134 132//130 143//141
f 133//131 145//143 115//113
f 144//142 135//133 146//144
f 144//142 132//130 135//133
f 136//134 135//133 132//130
f 147//145 137//135 136//134
f 148//146 92//90 94//92
f 134//132 123//121 116//114
f 138//136 120//118 121//119
f 140//138 139//137 108//106
f 102//100 149//147 126//124
f 149//147 102//100 111//109
f 125//123 150//148 111//109
f 125//123 128//126 150//148
f 103//101 127//125 151//149
f 128//126 129//127 150//148
f 103//101 151//149 104//102
f 91//89 141//139 130//128
f 75//73 131//129 141//139
f 92//90 148//146 114//112
f 143//141 147//145 136//134
f 133//131 152//150 145//143
f 144//142 152//150 133//131
f 152//150 144//142 146//144
f 135//133 153//151 146//144
f 147//145 153//151 137//135
f 137//135 153//151 121//119
f 138//136 153//151 135//133
f 138//136 121//119 153//151
f 154//152 126//124 149//147
f 111//109 150//148 155//153
f 155//153 149//147 111//109
f 127//125 156//154 151//149
f 129//127 104//102 157//155
f 104//102 151//149 157//155
f 130//128 143//141 142//140
f 131//129 114//112 158//156
f 147//145 143//141 159//157
f 147//145 159//157 153//151
f 160//158 145//143 152//150
f 161//159 153//151 159//157
f 162//160 115//113 145//143
f 152//150 146//144 161//159
f 146//144 153//151 161//159
f 115//113 162//160 134//132
f 94//92 163//161 148//146
f 162//160 164//162 134//132
f 134//132 164//162 123//121
f 94//92 165//163 163//161
f 139//137 165//163 94//92
f 123//121 166//164 124//122
f 140//138 126//124 154//152
f 124//122 167//165 127//125
f 150//148 129//127 168//166
f 129//127 157//155 168//166
f 141//139 131//129 169//167
f 114//112 148//146 158//156
f 160//158 152//150 161//159
f 162//160 145//143 160//158
f 124//122 166//164 167//165
f 170//168 140//138 154//152
f 167//165 156//154 127//125
f 149//147 155//153 154//152
f 151//149 156//154 157//155
f 155//153 150//148 168//166
f 130//128 141//139 171//169
f 143//141 130//128 172//170
f 131//129 158//156 169//167
f 159//157 143//141 172//170
f 172//170 161//159 159//157
f 172//170 160//158 161//159
f 148//146 173//171 158//156
f 174//172 162//160 160//158
f 148//146 163//161 173//171
f 139//137 140//138 170//168
f 154//152 155//153 175//173
f 176//174 175//173 155//153
f 168//166 157//155 176//174
f 155//153 168//166 176//174
f 172//170 174//172 160//158
f 174//172 164//162 162//160
f 164//162 166//164 123//121
f 177//175 165//163 139//137
f 139//137 170//168 177//175
f 170//168 154//152 178//176
f 167//165 179//177 156//154
f 154//152 175//173 178//176
f 141//139 169//167 171//169
f 130//128 180//178 181//179
f 172//170 130//128 181//179
f 180//178 130//128 171//169
f 158//156 182//180 169//167
f 181//179 174//172 172//170
f 166//164 179//177 167//165
f 183//181 177//175 170//168
f 178//176 183//181 170//168
f 178//176 175//173 184//182
f 156//154 176//174 157//155
f 184//182 175//173 176//174
f 169//167 182//180 185//183
f 181//179 186//184 174//172
f 173//171 182//180 158//156
f 163//161 187//185 173//171
f 165//163 187//185 163//161
f 176//174 156//154 188//186
f 171//169 169//167 185//183
f 186//184 181//179 180//178
f 174//172 189//187 164//162
f 189//187 174//172 186//184
f 190//188 187//185 165//163
f 164//162 191//189 166//164
f 165//163 177//175 190//188
f 177//175 192//190 190//188
f 193//191 179//177 166//164
f 183//181 192//190 177//175
f 192//190 183//181 184//182
f 156//154 179//177 188//186
f 178//176 184//182 183//181
f 184//182 176//174 188//186
f 194//192 180//178 171//169
f 171//169 185//183 194//192
f 180//178 195//193 186//184
f 194//192 195//193 180//178
f 173//171 196//194 182//180
f 173//171 187//185 196//194
f 189//187 191//189 164//162
f 193//191 166//164 191//189
f 193//191 188//186 179//177
f 192//190 184//182 197//195
f 184//182 188//186 197//195
f 185//183 198//196 194//192
f 185//183 182//180 198//196
f 186//184 195//193 189//187
f 182//180 196//194 198//196
f 196//194 187//185 190//188
f 191//189 199//197 193//191
f 192//190 200//198 190//188
f 188//186 193//191 199//197
f 197//195 188//186 199//197
f 192//190 197//195 200//198
f 201//199 194//192 198//196
f 195//193 194//192 201//199
f 202//200 201//199 198//196
f 195//193 191//189 189//187
f 201//199 191//189 195//193
f 198//196 196//194 202//200
f 196//194 203//201 202//200
f 196//194 190//188 203//201
f 190//188 200//198 203//201
f 203//201 197//195 199//197
f 200//198 197//195 203//201
f 201//199 199//197 191//189
f 202//200 199//197 201//199
f 203//201 199//197 202//200
