# Blender v2.92.0 OBJ File: 'convert_to_one_sided.blend'
# www.blender.org
mtllib 580L.mtl
o 580
v 9.020054 3.514234 3.452466
v 8.928225 3.517454 3.455376
v 8.941134 3.609513 3.445506
v 8.893415 3.567994 3.464336
v 8.997153 3.628983 3.453056
v 8.904796 3.642563 3.459376
v 8.946135 3.679422 3.463216
v 8.980804 3.681622 3.471106
v 9.041174 3.619833 3.481916
v 8.958924 3.695812 3.489876
v 8.956474 3.399706 3.485166
v 9.066273 3.366336 3.478306
v 9.138433 3.392086 3.481096
v 8.896095 3.482475 3.484676
v 9.074543 3.541214 3.476296
v 8.883235 3.628663 3.477366
v 9.098642 3.555164 3.491626
v 8.908286 3.673522 3.484516
v 8.932195 3.687412 3.500006
v 9.153663 3.222668 3.502035
v 9.048643 3.283277 3.497826
v 9.200521 3.279697 3.501425
v 9.207362 3.364616 3.511695
v 9.143342 3.474905 3.503425
v 8.869866 3.541414 3.506835
v 9.109324 3.549284 3.515905
v 8.884426 3.629633 3.506935
v 9.208851 3.065080 3.550135
v 9.073763 3.179209 3.532025
v 9.220151 3.163689 3.530285
v 9.229321 3.253338 3.525405
v 8.970944 3.286347 3.520175
v 9.240412 3.267947 3.546045
v 8.891146 3.371596 3.541255
v 9.031263 3.620923 3.527545
v 8.905185 3.647593 3.534325
v 9.235381 3.041291 3.576884
v 9.242930 3.106760 3.579214
v 9.010983 3.166299 3.567535
v 9.190291 3.416476 3.543995
v 8.858006 3.429915 3.578404
v 8.874416 3.521664 3.571434
v 8.957435 3.657793 3.530835
v 9.147852 3.054770 3.574955
v 8.892866 3.239538 3.602674
v 9.141613 3.493134 3.564485
v 9.005524 3.605143 3.572364
v 9.211761 2.973081 3.611934
v 9.092143 3.040650 3.606634
v 8.990335 3.114079 3.614534
v 9.250361 3.141999 3.613394
v 9.233031 3.287627 3.587174
v 8.866456 3.319717 3.607994
v 9.199782 3.388846 3.584084
v 9.078473 3.531294 3.588694
v 8.893695 3.566064 3.580364
v 9.238371 2.973451 3.639103
v 9.088364 2.998151 3.647014
v 8.923975 3.155589 3.642954
v 8.868046 3.367446 3.633774
v 8.892756 3.508554 3.604754
v 8.938245 3.562934 3.590534
v 9.168551 2.946601 3.655263
v 9.211661 2.935502 3.664273
v 9.247061 3.031400 3.645774
v 9.010964 3.068480 3.664353
v 9.235141 3.190148 3.638804
v 9.236621 3.077700 3.669613
v 9.211971 3.290447 3.627964
v 8.884006 3.243128 3.639764
v 9.151572 3.394616 3.618534
v 9.016064 3.529504 3.607914
v 9.131823 2.958761 3.689673
v 9.075353 3.009281 3.675063
v 8.948145 3.122839 3.667823
v 8.916645 3.167449 3.672973
v 9.204102 3.169819 3.680493
v 9.171931 3.291917 3.651913
v 9.045534 3.435066 3.641924
v 8.912126 3.405946 3.659574
v 8.972375 3.459115 3.640174
v 9.190842 2.930552 3.687143
v 9.216771 2.933022 3.688563
v 9.231462 2.986871 3.684733
v 8.888136 3.248228 3.671223
v 9.059233 3.033760 3.700303
v 8.976514 3.110079 3.688623
v 8.934505 3.183438 3.700223
v 9.101473 3.263577 3.692063
v 8.905755 3.278777 3.685853
v 8.984335 3.355506 3.681733
v 9.103143 2.995631 3.713933
v 9.209901 3.025700 3.712363
v 9.056423 3.066300 3.724163
v 9.156383 3.099540 3.725543
v 9.076583 3.178158 3.731232
v 9.021624 3.246978 3.716303
v 8.964765 3.274517 3.703533
v 9.158133 2.964291 3.709163
v 9.198562 2.972161 3.707393
v 8.978604 3.192598 3.711653
v 9.149842 3.031880 3.722332
v 9.035954 3.171479 3.724633
v 9.095324 3.110079 3.725163
vn 0.1051 -0.0704 -0.9920
vn -0.2800 -0.1927 -0.9405
vn -0.1239 0.0723 -0.9897
vn -0.6236 -0.0678 -0.7788
vn 0.3253 0.2680 -0.9068
vn -0.5135 0.3073 -0.8012
vn -0.1491 0.6776 -0.7202
vn 0.5159 0.7434 -0.4257
vn 0.6898 0.5722 -0.4437
vn 0.1908 0.9695 0.1540
vn -0.2987 -0.2893 -0.9094
vn -0.0307 -0.1758 -0.9839
vn 0.3089 0.0361 -0.9504
vn -0.6458 -0.2601 -0.7178
vn 0.4606 0.1909 -0.8668
vn -0.8913 0.2489 -0.3790
vn 0.6879 0.4017 -0.6044
vn -0.7007 0.6938 -0.1664
vn -0.3194 0.9165 0.2410
vn 0.0416 -0.2220 -0.9742
vn -0.1839 -0.2885 -0.9397
vn 0.4249 -0.0582 -0.9034
vn 0.7580 0.2187 -0.6145
vn 0.7126 0.3346 -0.6166
vn -0.9637 -0.0150 -0.2666
vn 0.8036 0.5911 -0.0702
vn -0.9225 0.3517 0.1590
vn 0.0867 -0.4084 -0.9087
vn -0.2627 -0.4058 -0.8754
vn 0.5743 -0.1693 -0.8010
vn 0.7845 -0.0299 -0.6194
vn -0.4278 -0.3837 -0.8184
vn 0.9730 0.1363 -0.1861
vn -0.7226 -0.3008 -0.6224
vn 0.5905 0.7206 0.3634
vn -0.5535 0.5864 0.5914
vn 0.7092 -0.3260 -0.6251
vn 0.9432 -0.0910 -0.3196
vn -0.4498 -0.4617 -0.7646
vn 0.9045 0.4209 -0.0693
vn -0.9977 -0.0144 -0.0661
vn -0.8999 0.2462 0.3600
vn 0.0810 0.6957 0.7138
vn -0.2919 -0.5093 -0.8096
vn -0.7465 -0.4061 -0.5270
vn 0.7087 0.5647 0.4229
vn 0.2223 0.5983 0.7698
vn 0.0940 -0.6712 -0.7353
vn -0.3693 -0.5760 -0.7292
vn -0.5623 -0.5872 -0.5823
vn 0.9905 0.0641 0.1214
vn 0.9429 0.2520 0.2178
vn -0.9694 -0.1847 -0.1617
vn 0.8031 0.4153 0.4272
vn 0.4294 0.5058 0.7482
vn -0.5570 0.4010 0.7273
vn 0.8911 -0.4091 -0.1965
vn -0.5844 -0.7377 -0.3380
vn -0.7765 -0.5798 -0.2467
vn -0.8743 0.0929 0.4764
vn -0.5662 0.3294 0.7555
vn -0.1195 0.4626 0.8785
vn -0.3181 -0.8309 -0.4565
vn 0.2751 -0.8996 -0.3391
vn 0.9917 -0.0653 0.1108
vn -0.6792 -0.7335 -0.0237
vn 0.8572 0.1916 0.4779
vn 0.8621 0.0991 0.4969
vn 0.6876 0.3169 0.6532
vn -0.9577 -0.2861 0.0311
vn 0.4633 0.3942 0.7937
vn 0.1179 0.4162 0.9016
vn -0.5462 -0.8093 0.2163
vn -0.6793 -0.7266 0.1026
vn -0.7194 -0.6726 0.1737
vn -0.8220 -0.4487 0.3508
vn 0.5718 0.2507 0.7811
vn 0.4340 0.3335 0.8369
vn 0.2187 0.3693 0.9032
vn -0.2963 0.3164 0.9012
vn 0.0146 0.3910 0.9203
vn -0.1623 -0.9619 0.2199
vn 0.5440 -0.6544 0.5252
vn 0.8508 -0.1348 0.5079
vn -0.8402 -0.1374 0.5246
vn -0.6598 -0.6377 0.3974
vn -0.6220 -0.5692 0.5377
vn -0.5304 -0.2102 0.8213
vn 0.2958 0.3328 0.8954
vn -0.4786 0.0905 0.8733
vn 0.0435 0.3346 0.9413
vn -0.4565 -0.5668 0.6858
vn 0.5248 0.0089 0.8512
vn -0.2819 -0.2380 0.9294
vn 0.2374 0.1066 0.9655
vn 0.0511 0.1106 0.9926
vn -0.0051 0.2353 0.9719
vn -0.1873 0.1607 0.9691
vn -0.0907 -0.4699 0.8781
vn 0.3342 -0.2264 0.9149
vn -0.2540 0.0086 0.9672
vn 0.0592 -0.1091 0.9923
vn -0.1561 0.0070 0.9877
vn -0.0345 -0.0596 0.9976
usemtl mtl1.1364
s 1
f 1//1 2//2 3//3
f 3//3 2//2 4//4
f 1//1 3//3 5//5
f 6//6 3//3 4//4
f 3//3 6//6 7//7
f 5//5 3//3 7//7
f 8//8 9//9 5//5
f 7//7 8//8 5//5
f 8//8 7//7 10//10
f 11//11 1//1 12//12
f 1//1 13//13 12//12
f 1//1 11//11 2//2
f 11//11 14//14 2//2
f 2//2 14//14 4//4
f 15//15 13//13 1//1
f 15//15 1//1 5//5
f 16//16 6//6 4//4
f 9//9 15//15 5//5
f 17//17 15//15 9//9
f 18//18 6//6 16//16
f 7//7 6//6 18//18
f 7//7 18//18 19//19
f 10//10 7//7 19//19
f 20//20 21//21 12//12
f 20//20 12//12 13//13
f 22//22 20//20 13//13
f 12//12 21//21 11//11
f 22//22 13//13 23//23
f 24//24 23//23 13//13
f 14//14 25//25 4//4
f 15//15 24//24 13//13
f 4//4 25//25 16//16
f 15//15 17//17 24//24
f 26//26 24//24 17//17
f 27//27 18//18 16//16
f 28//28 29//29 20//20
f 30//30 28//28 20//20
f 30//30 20//20 22//22
f 22//22 31//31 30//30
f 20//20 29//29 21//21
f 21//21 32//32 11//11
f 31//31 22//22 23//23
f 23//23 33//33 31//31
f 14//14 11//11 34//34
f 11//11 32//32 34//34
f 14//14 34//34 25//25
f 25//25 27//27 16//16
f 26//26 17//17 9//9
f 35//35 9//9 8//8
f 19//19 18//18 36//36
f 35//35 8//8 10//10
f 28//28 30//30 37//37
f 37//37 30//30 38//38
f 30//30 31//31 38//38
f 39//39 32//32 29//29
f 21//21 29//29 32//32
f 33//33 38//38 31//31
f 39//39 34//34 32//32
f 23//23 40//40 33//33
f 25//25 34//34 41//41
f 23//23 24//24 40//40
f 24//24 26//26 40//40
f 41//41 42//42 25//25
f 25//25 42//42 27//27
f 26//26 9//9 35//35
f 27//27 36//36 18//18
f 19//19 43//43 10//10
f 19//19 36//36 43//43
f 43//43 35//35 10//10
f 28//28 44//44 29//29
f 44//44 39//39 29//29
f 39//39 45//45 34//34
f 26//26 35//35 46//46
f 36//36 27//27 42//42
f 35//35 43//43 47//47
f 48//48 28//28 37//37
f 49//49 39//39 44//44
f 49//49 50//50 39//39
f 50//50 45//45 39//39
f 38//38 33//33 51//51
f 51//51 33//33 52//52
f 34//34 45//45 53//53
f 34//34 53//53 41//41
f 33//33 40//40 52//52
f 52//52 40//40 54//54
f 40//40 26//26 46//46
f 46//46 35//35 55//55
f 42//42 56//56 36//36
f 35//35 47//47 55//55
f 28//28 48//48 44//44
f 38//38 57//57 37//37
f 49//49 58//58 50//50
f 50//50 59//59 45//45
f 53//53 60//60 41//41
f 40//40 46//46 54//54
f 60//60 42//42 41//41
f 60//60 61//61 42//42
f 62//62 36//36 56//56
f 62//62 43//43 36//36
f 47//47 43//43 62//62
f 49//49 48//48 63//63
f 48//48 49//49 44//44
f 64//64 48//48 57//57
f 63//63 58//58 49//49
f 48//48 37//37 57//57
f 57//57 38//38 65//65
f 65//65 38//38 51//51
f 58//58 66//66 50//50
f 50//50 66//66 59//59
f 51//51 67//67 68//68
f 69//69 67//67 52//52
f 67//67 51//51 52//52
f 45//45 70//70 53//53
f 52//52 54//54 69//69
f 54//54 71//71 69//69
f 54//54 46//46 71//71
f 61//61 56//56 42//42
f 71//71 46//46 55//55
f 55//55 47//47 72//72
f 47//47 62//62 72//72
f 64//64 63//63 48//48
f 63//63 73//73 58//58
f 73//73 74//74 58//58
f 58//58 74//74 66//66
f 68//68 65//65 51//51
f 75//75 59//59 66//66
f 59//59 76//76 70//70
f 59//59 70//70 45//45
f 69//69 77//77 67//67
f 78//78 77//77 69//69
f 78//78 69//69 71//71
f 71//71 55//55 79//79
f 79//79 55//55 72//72
f 62//62 56//56 61//61
f 62//62 61//61 80//80
f 81//81 62//62 80//80
f 81//81 72//72 62//62
f 73//73 63//63 82//82
f 63//63 64//64 82//82
f 64//64 57//57 83//83
f 57//57 65//65 84//84
f 59//59 75//75 76//76
f 76//76 85//85 70//70
f 70//70 60//60 53//53
f 60//60 80//80 61//61
f 64//64 83//83 82//82
f 57//57 84//84 83//83
f 86//86 74//74 73//73
f 65//65 68//68 84//84
f 86//86 66//66 74//74
f 87//87 66//66 86//86
f 87//87 75//75 66//66
f 75//75 87//87 76//76
f 67//67 77//77 68//68
f 87//87 88//88 76//76
f 85//85 76//76 88//88
f 60//60 70//70 85//85
f 77//77 78//78 89//89
f 78//78 71//71 89//89
f 71//71 79//79 89//89
f 60//60 90//90 80//80
f 89//89 79//79 91//91
f 79//79 81//81 91//91
f 79//79 72//72 81//81
f 73//73 92//92 86//86
f 68//68 93//93 84//84
f 86//86 94//94 87//87
f 77//77 93//93 68//68
f 95//95 89//89 96//96
f 77//77 89//89 95//95
f 85//85 90//90 60//60
f 97//97 96//96 89//89
f 89//89 91//91 97//97
f 98//98 80//80 90//90
f 98//98 91//91 80//80
f 91//91 81//81 80//80
f 82//82 83//83 99//99
f 82//82 99//99 73//73
f 83//83 100//100 99//99
f 83//83 84//84 100//100
f 73//73 99//99 92//92
f 100//100 84//84 93//93
f 86//86 92//92 94//94
f 88//88 87//87 94//94
f 93//93 77//77 95//95
f 101//101 88//88 94//94
f 88//88 90//90 85//85
f 101//101 90//90 88//88
f 101//101 98//98 90//90
f 97//97 91//91 98//98
f 100//100 102//102 99//99
f 92//92 99//99 94//94
f 94//94 99//99 102//102
f 102//102 93//93 95//95
f 102//102 100//100 93//93
f 103//103 94//94 104//104
f 101//101 94//94 103//103
f 103//103 98//98 101//101
f 96//96 97//97 103//103
f 103//103 97//97 98//98
f 104//104 102//102 95//95
f 102//102 104//104 94//94
f 95//95 96//96 104//104
f 96//96 103//103 104//104
