# Blender v2.92.0 OBJ File: 'convert_to_one_sided.blend'
# www.blender.org
mtllib 587L.mtl
o Cube
v 0.001000 0.001000 -0.001000
v 0.001000 -0.001000 -0.001000
v 0.001000 0.001000 0.001000
v 0.001000 -0.001000 0.001000
v -0.001000 0.001000 -0.001000
v -0.001000 -0.001000 -0.001000
v -0.001000 0.001000 0.001000
v -0.001000 -0.001000 0.001000
vt 0.625000 0.500000
vt 0.875000 0.500000
vt 0.875000 0.750000
vt 0.625000 0.750000
vt 0.375000 0.750000
vt 0.625000 1.000000
vt 0.375000 1.000000
vt 0.375000 0.000000
vt 0.625000 0.000000
vt 0.625000 0.250000
vt 0.375000 0.250000
vt 0.125000 0.500000
vt 0.375000 0.500000
vt 0.125000 0.750000
vn 0.0000 1.0000 0.0000
vn 0.0000 0.0000 1.0000
vn -1.0000 0.0000 0.0000
vn 0.0000 -1.0000 0.0000
vn 1.0000 0.0000 0.0000
vn 0.0000 0.0000 -1.0000
usemtl Material
s off
f 1/1/1 5/2/1 7/3/1 3/4/1
f 4/5/2 3/4/2 7/6/2 8/7/2
f 8/8/3 7/9/3 5/10/3 6/11/3
f 6/12/4 2/13/4 4/5/4 8/14/4
f 2/13/5 1/1/5 3/4/5 4/5/5
f 6/11/6 5/10/6 1/1/6 2/13/6
o 587
v 8.706178 3.607183 5.412931
v 8.671418 3.643312 5.387931
v 8.729438 3.652932 5.419861
v 8.572760 3.663682 5.392761
v 8.634269 3.694992 5.390491
v 8.695828 3.694292 5.402171
v 8.645658 3.611243 5.417991
v 8.533020 3.650202 5.423060
v 8.469872 3.708431 5.410641
v 8.536570 3.734161 5.406131
v 8.638478 3.758411 5.418001
v 8.721407 3.731521 5.443230
v 8.702418 3.589113 5.462810
v 8.493211 3.651402 5.447330
v 8.415122 3.713741 5.431671
v 8.394022 3.780020 5.423291
v 8.501720 3.799700 5.426850
v 8.667229 3.806130 5.455420
v 8.342282 3.934378 5.444800
v 8.255024 3.869429 5.436531
v 8.188305 3.943198 5.441591
v 8.170415 4.057967 5.453080
v 8.603120 3.609143 5.476680
v 8.730258 3.618362 5.455070
v 8.388433 3.710771 5.455250
v 8.742248 3.675912 5.488720
v 8.299453 3.794380 5.449821
v 8.689088 3.808520 5.472150
v 8.544130 3.855249 5.451631
v 8.237394 3.819860 5.487400
v 8.196545 3.893519 5.469960
v 8.129705 4.010907 5.465310
v 8.098426 4.092196 5.461450
v 8.118726 4.078336 5.460500
v 8.121945 4.136336 5.466960
v 8.448321 3.678522 5.497729
v 8.717097 3.769150 5.498070
v 8.597279 3.879359 5.481620
v 8.467731 3.958998 5.478220
v 8.368882 4.042797 5.486610
v 8.262693 4.109476 5.482090
v 8.107105 4.141886 5.474970
v 8.170355 4.152316 5.475490
v 8.138995 4.175465 5.490670
v 8.330442 3.753571 5.490760
v 8.200404 3.874239 5.520400
v 8.653858 3.847719 5.507060
v 8.139445 3.980768 5.508329
v 8.510760 3.968068 5.501999
v 8.113565 4.084287 5.487310
v 8.429361 4.031157 5.510400
v 8.336583 4.099297 5.513380
v 8.121865 4.139246 5.513869
v 8.199064 4.179445 5.509329
v 8.688458 3.585883 5.512509
v 8.722248 3.616493 5.514630
v 8.553540 3.635342 5.538259
v 8.284233 3.792410 5.528749
v 8.556621 3.935358 5.518879
v 8.477801 4.001987 5.526709
v 8.265233 4.153996 5.516459
v 8.164935 4.171775 5.532929
v 8.238483 4.181565 5.533769
v 8.629259 3.607132 5.535689
v 8.740817 3.658742 5.532499
v 8.368933 3.738501 5.538659
v 8.725218 3.715741 5.544049
v 8.678848 3.808230 5.534719
v 8.598370 3.889069 5.549839
v 8.138565 4.055927 5.548189
v 8.379911 4.077657 5.543609
v 8.291624 4.139816 5.534679
v 8.214274 4.178395 5.544409
v 8.675978 3.617392 5.559389
v 8.714878 3.658402 5.558029
v 8.463541 3.720861 5.586019
v 8.484111 3.987378 5.553749
v 8.194284 3.956368 5.587578
v 8.172575 4.108296 5.580949
v 8.282523 4.123426 5.581049
v 8.597559 3.651672 5.576109
v 8.325362 3.804290 5.587179
v 8.248544 3.869339 5.572958
v 8.618059 3.825880 5.584708
v 8.500891 3.949268 5.584299
v 8.398811 4.027867 5.592399
v 8.213734 4.124546 5.591919
v 8.644898 3.651352 5.593469
v 8.665978 3.676682 5.595478
v 8.675468 3.723731 5.581738
v 8.254944 3.913069 5.639718
v 8.211265 4.003997 5.675457
v 8.186725 4.040657 5.609558
v 8.580859 3.715401 5.611669
v 8.589109 3.778811 5.609718
v 8.480070 3.785740 5.643178
v 8.372972 3.831810 5.651238
v 8.481481 3.906729 5.631538
v 8.352452 4.028297 5.653788
v 8.214574 4.075616 5.653088
v 8.267934 4.081777 5.655097
v 8.510660 3.817790 5.637578
v 8.462741 3.884989 5.677628
v 8.298003 3.888079 5.692307
v 8.470041 3.842290 5.687297
v 8.438401 3.818011 5.699999
v 8.283403 3.897379 5.699999
v 8.371603 3.821611 5.699999
v 8.297861 3.882565 5.699999
v 8.447103 3.944203 5.699999
v 8.239491 3.924601 5.699999
v 8.421715 3.967767 5.699999
v 8.344267 4.050184 5.699999
v 8.314122 3.872117 5.699999
v 8.221490 3.968455 5.699999
v 8.474044 3.856700 5.699999
v 8.207841 4.035589 5.699999
v 8.224843 4.092116 5.699999
v 8.486226 3.834237 5.699999
v 8.199259 4.008514 5.699999
v 8.302905 4.076124 5.699999
v 8.250356 4.094745 5.699999
v 8.207893 4.063319 5.699999
v 8.461447 3.827803 5.699999
v 8.458131 3.809921 5.699999
v 8.471855 3.884324 5.699999
v 8.448696 3.927206 5.699999
vn 0.4380 -0.6553 -0.6154
vn 0.1668 -0.2191 -0.9613
vn 0.8064 -0.0423 -0.5898
vn -0.1904 -0.2846 -0.9395
vn 0.0454 0.2136 -0.9759
vn 0.4072 0.2801 -0.8693
vn -0.1830 -0.8158 -0.5485
vn -0.3347 -0.7262 -0.6005
vn -0.2765 -0.2428 -0.9298
vn -0.0545 0.2123 -0.9757
vn 0.1921 0.4247 -0.8847
vn 0.7351 0.3985 -0.5484
vn 0.2928 -0.9472 -0.1305
vn -0.4180 -0.8580 -0.2986
vn -0.4125 -0.5112 -0.7540
vn -0.1707 -0.0314 -0.9848
vn 0.0434 0.2851 -0.9575
vn 0.3724 0.5219 -0.7674
vn 0.1009 0.2233 -0.9695
vn -0.3135 -0.2267 -0.9221
vn -0.3506 -0.1464 -0.9250
vn -0.0363 0.1207 -0.9920
vn -0.3025 -0.9507 -0.0681
vn 0.8750 -0.4671 -0.1274
vn -0.5591 -0.7825 -0.2739
vn 0.9992 0.0227 -0.0342
vn -0.5295 -0.5442 -0.6507
vn 0.6727 0.6321 -0.3847
vn 0.1926 0.4236 -0.8851
vn -0.7021 -0.6973 -0.1445
vn -0.7454 -0.4940 -0.4476
vn -0.7435 -0.3033 -0.5960
vn -0.7989 -0.0014 -0.6015
vn -0.2072 -0.0204 -0.9781
vn -0.2195 0.3624 -0.9058
vn -0.4675 -0.8612 0.1993
vn 0.8890 0.4545 0.0559
vn 0.4636 0.6415 -0.6112
vn 0.2950 0.4597 -0.8376
vn 0.3274 0.4711 -0.8191
vn 0.2847 0.4579 -0.8422
vn -0.9021 0.4060 -0.1466
vn 0.1314 0.5028 -0.8544
vn -0.3887 0.8771 -0.2822
vn -0.5820 -0.8132 -0.0043
vn -0.7876 -0.5556 0.2664
vn 0.7076 0.7066 -0.0046
vn -0.9176 -0.3661 0.1551
vn 0.5214 0.6843 -0.5098
vn -0.9636 -0.1278 0.2346
vn 0.4912 0.6953 -0.5247
vn 0.5047 0.6994 -0.5061
vn -0.8251 0.3265 0.4612
vn 0.1143 0.9155 -0.3857
vn 0.1345 -0.9513 0.2773
vn 0.7543 -0.5820 0.3038
vn -0.3724 -0.8392 0.3962
vn -0.6037 -0.7103 0.3620
vn 0.6565 0.7516 -0.0642
vn 0.6184 0.7825 -0.0729
vn 0.4541 0.7197 -0.5252
vn -0.3988 0.7753 0.4898
vn 0.3837 0.9219 0.0531
vn -0.2314 -0.8736 0.4281
vn 0.9112 -0.1672 0.3765
vn -0.4849 -0.7869 0.3816
vn 0.8082 0.2641 0.5264
vn 0.7350 0.5354 0.4160
vn 0.6442 0.6486 0.4054
vn -0.8569 -0.0803 0.5093
vn 0.5911 0.7980 0.1175
vn 0.5927 0.8053 -0.0142
vn -0.0211 0.8800 0.4746
vn 0.2343 -0.6735 0.7011
vn 0.6348 -0.2171 0.7416
vn -0.3317 -0.6852 0.6484
vn 0.6028 0.7110 0.3621
vn -0.8044 -0.3767 0.4594
vn -0.6702 0.3397 0.6598
vn 0.3978 0.7615 0.5117
vn -0.2387 -0.6706 0.7023
vn -0.5078 -0.6559 0.5584
vn -0.6528 -0.5700 0.4989
vn 0.5577 0.3943 0.7304
vn 0.5410 0.5822 0.6069
vn 0.5496 0.6564 0.5167
vn -0.1740 0.7096 0.6827
vn 0.0078 -0.5115 0.8592
vn 0.3770 -0.1366 0.9161
vn 0.5425 0.1755 0.8215
vn -0.6981 -0.6538 0.2919
vn -0.9856 -0.1691 -0.0028
vn -0.8624 -0.0060 0.5062
vn 0.0229 -0.2949 0.9553
vn 0.3635 0.1320 0.9222
vn 0.1358 -0.5652 0.8137
vn -0.4266 -0.8478 0.3150
vn 0.6652 0.4407 0.6027
vn 0.6346 0.7587 0.1471
vn -0.7629 0.5666 0.3113
vn 0.1990 0.9647 0.1725
vn 0.5504 0.0337 0.8342
vn -0.1542 -0.5451 0.8240
vn 0.2298 -0.6747 0.7014
vn 0.9511 0.2615 0.1641
vn -0.5895 -0.7758 -0.2249
vn -0.2842 -0.7453 0.6031
vn 0.9835 -0.1808 0.0055
vn 0.4817 -0.3049 0.8216
vn 0.5383 0.0480 0.8414
vn 0.4996 0.5594 0.6614
vn -0.5466 -0.5538 0.6281
vn 0.4673 0.6536 0.5954
vn 0.8415 -0.5193 0.1488
vn -0.4951 -0.7299 0.4713
vn -0.3340 -0.5845 0.7395
vn -0.6693 -0.3304 0.6655
vn -0.8882 -0.0322 0.4582
vn -0.7395 0.0945 0.6665
vn 0.3375 0.7018 0.6273
vn 0.0467 0.8664 0.4971
vn 0.8196 0.1969 0.5381
vn -0.7889 0.2164 0.5752
vn -0.4299 0.6949 0.5765
vn 0.7991 0.2571 0.5434
vn -0.6157 -0.5037 0.6060
vn 0.5653 0.4628 0.6828
usemtl mtl1.530
s 1
f 9//7 10//8 11//9
f 10//8 12//10 13//11
f 14//12 11//9 10//8
f 14//12 10//8 13//11
f 15//13 16//14 12//10
f 10//8 15//13 12//10
f 9//7 15//13 10//8
f 16//14 17//15 12//10
f 12//10 17//15 18//16
f 12//10 18//16 13//11
f 13//11 19//17 14//12
f 19//17 20//18 14//12
f 9//7 21//19 15//13
f 16//14 22//20 23//21
f 16//14 23//21 17//15
f 11//9 14//12 20//18
f 24//22 17//15 23//21
f 18//16 17//15 24//22
f 19//17 18//16 25//23
f 18//16 19//17 13//11
f 20//18 19//17 26//24
f 18//16 24//22 25//23
f 25//23 24//22 27//25
f 27//25 24//22 28//26
f 28//26 29//27 27//25
f 27//25 29//27 30//28
f 16//14 31//29 22//20
f 15//13 31//29 16//14
f 9//7 11//9 32//30
f 33//31 23//21 22//20
f 34//32 11//9 20//18
f 23//21 33//31 35//33
f 35//33 28//26 24//22
f 23//21 35//33 24//22
f 20//18 26//24 36//34
f 37//35 26//24 19//17
f 35//33 38//36 39//37
f 35//33 39//37 28//26
f 39//37 29//27 28//26
f 29//27 39//37 40//38
f 29//27 40//38 30//28
f 41//39 42//40 40//38
f 40//38 42//40 30//28
f 30//28 42//40 43//41
f 42//40 41//39 43//41
f 15//13 21//19 31//29
f 22//20 31//29 44//42
f 32//30 21//19 9//7
f 33//31 22//20 44//42
f 32//30 11//9 34//32
f 34//32 20//18 45//43
f 20//18 36//34 45//43
f 37//35 46//44 26//24
f 27//25 37//35 25//23
f 19//17 25//23 37//35
f 37//35 27//25 47//45
f 47//45 27//25 48//46
f 27//25 30//28 49//47
f 48//46 27//25 49//47
f 43//41 41//39 50//48
f 30//28 43//41 51//49
f 51//49 49//47 30//28
f 50//48 52//50 43//41
f 51//49 43//41 52//50
f 33//31 44//42 53//51
f 33//31 53//51 35//33
f 35//33 53//51 38//36
f 54//52 39//37 38//36
f 36//34 26//24 46//44
f 55//53 36//34 46//44
f 47//45 46//44 37//35
f 39//37 56//54 40//38
f 57//55 46//44 47//45
f 56//54 58//56 40//38
f 40//38 58//56 41//39
f 59//57 57//55 47//45
f 59//57 47//45 48//46
f 59//57 48//46 60//58
f 60//58 48//46 49//47
f 58//56 50//48 41//39
f 52//50 50//48 61//59
f 62//60 49//47 51//49
f 51//49 52//50 62//60
f 21//19 63//61 31//29
f 64//62 63//61 21//19
f 65//63 44//42 31//29
f 32//30 64//62 21//19
f 64//62 32//30 34//32
f 66//64 38//36 53//51
f 36//34 55//53 45//43
f 56//54 39//37 54//52
f 55//53 46//44 67//65
f 46//44 57//55 67//65
f 57//55 59//57 68//66
f 49//47 69//67 60//58
f 58//56 61//59 50//48
f 69//67 49//47 62//60
f 52//50 61//59 70//68
f 69//67 62//60 71//69
f 52//50 70//68 62//60
f 31//29 63//61 72//70
f 64//62 34//32 73//71
f 53//51 44//42 74//72
f 34//32 45//43 75//73
f 74//72 66//64 53//51
f 45//43 76//74 75//73
f 66//64 54//52 38//36
f 45//43 55//53 76//74
f 77//75 55//53 67//65
f 57//55 68//66 67//65
f 56//54 78//76 58//56
f 59//57 60//58 79//77
f 69//67 80//78 60//58
f 71//69 80//78 69//67
f 62//60 70//68 81//79
f 71//69 62//60 81//79
f 72//70 65//63 31//29
f 64//62 82//80 63//61
f 64//62 83//81 82//80
f 64//62 73//71 83//81
f 65//63 84//82 44//42
f 84//82 74//72 44//42
f 34//32 75//73 73//71
f 55//53 77//75 76//74
f 85//83 77//75 67//65
f 56//54 86//84 78//76
f 68//66 85//83 67//65
f 68//66 79//77 85//83
f 59//57 79//77 68//66
f 78//76 61//59 58//56
f 78//76 87//85 61//59
f 87//85 70//68 61//59
f 81//79 88//86 71//69
f 72//70 63//61 82//80
f 89//87 65//63 72//70
f 89//87 84//82 65//63
f 90//88 66//64 74//72
f 84//82 90//88 74//72
f 66//64 90//88 91//89
f 66//64 91//89 54//52
f 76//74 77//75 92//90
f 54//52 86//84 56//54
f 88//86 79//77 80//78
f 60//58 80//78 79//77
f 71//69 88//86 80//78
f 89//87 72//70 82//80
f 75//73 83//81 73//71
f 92//90 75//73 76//74
f 54//52 91//89 86//84
f 92//90 77//75 93//91
f 77//75 85//83 93//91
f 85//83 94//92 93//91
f 85//83 79//77 94//92
f 79//77 88//86 94//92
f 81//79 70//68 95//93
f 88//86 81//79 95//93
f 89//87 82//80 96//94
f 82//80 83//81 97//95
f 97//95 96//94 82//80
f 97//95 83//81 98//96
f 83//81 75//73 98//96
f 98//96 75//73 92//90
f 99//97 86//84 91//89
f 99//97 100//98 86//84
f 86//84 101//99 78//76
f 87//85 78//76 101//99
f 95//93 70//68 87//85
f 96//94 102//100 89//87
f 97//95 102//100 96//94
f 102//100 84//82 89//87
f 102//100 97//95 103//101
f 98//96 103//101 97//95
f 104//102 84//82 102//100
f 90//88 84//82 105//103
f 105//103 84//82 104//102
f 98//96 92//90 103//101
f 90//88 99//97 91//89
f 99//97 90//88 105//103
f 103//101 92//90 106//104
f 92//90 93//91 106//104
f 86//84 100//98 101//99
f 94//92 107//105 106//104
f 93//91 94//92 106//104
f 101//99 108//106 87//85
f 88//86 95//93 109//107
f 107//105 88//86 109//107
f 94//92 88//86 107//105
f 95//93 87//85 108//106
f 102//100 103//101 110//108
f 110//108 104//102 102//100
f 114//109 104//102 133//110
f 103//101 106//104 110//108
f 110//108 106//104 111//111
f 112//112 99//97 105//103
f 108//106 101//99 100//98
f 109//107 95//93 108//106
f 114//109 116//113 105//103
f 133//110 113//114 132//115
f 110//108 111//111 113//114
f 110//108 113//114 104//102
f 135//116 120//117 122//118
f 121//119 120//117 107//105
f 132//115 113//114 127//120
f 122//118 117//121 112//112
f 117//121 115//122 112//112
f 123//123 128//124 100//98
f 128//124 125//125 100//98
f 129//126 109//107 130//127
f 111//111 135//116 134//128
f 108//106 130//127 109//107
f 108//106 131//129 126//130
f 125//125 108//106 100//98
f 111//111 124//131 113//114
f 113//114 124//131 127//120
f 129//126 107//105 109//107
f 119//132 100//98 99//97
f 118//133 111//111 106//104
f 106//104 120//117 118//133
f 105//103 122//118 112//112
f 115//122 99//97 112//112
f 114//109 105//103 104//102
f 133//110 104//102 113//114
f 125//125 128//124 123//123
f 123//123 119//132 115//122
f 115//122 117//121 120//117
f 117//121 122//118 120//117
f 122//118 116//113 135//116
f 116//113 114//109 134//128
f 135//116 116//113 134//128
f 114//109 133//110 132//115
f 132//115 127//120 124//131
f 124//131 134//128 114//109
f 135//116 118//133 120//117
f 120//117 121//119 115//122
f 121//119 129//126 123//123
f 115//122 121//119 123//123
f 129//126 130//127 125//125
f 130//127 126//130 131//129
f 125//125 130//127 131//129
f 125//125 123//123 129//126
f 114//109 132//115 124//131
f 108//106 126//130 130//127
f 125//125 131//129 108//106
f 111//111 134//128 124//131
f 129//126 121//119 107//105
f 119//132 123//123 100//98
f 118//133 135//116 111//111
f 106//104 107//105 120//117
f 105//103 116//113 122//118
f 115//122 119//132 99//97
