# Blender v2.92.0 OBJ File: 'convert_to_one_sided.blend'
# www.blender.org
mtllib 589508451L.mtl
o Cube
v 0.001000 0.001000 -0.001000
v 0.001000 -0.001000 -0.001000
v 0.001000 0.001000 0.001000
v 0.001000 -0.001000 0.001000
v -0.001000 0.001000 -0.001000
v -0.001000 -0.001000 -0.001000
v -0.001000 0.001000 0.001000
v -0.001000 -0.001000 0.001000
vt 0.625000 0.500000
vt 0.875000 0.500000
vt 0.875000 0.750000
vt 0.625000 0.750000
vt 0.375000 0.750000
vt 0.625000 1.000000
vt 0.375000 1.000000
vt 0.375000 0.000000
vt 0.625000 0.000000
vt 0.625000 0.250000
vt 0.375000 0.250000
vt 0.125000 0.500000
vt 0.375000 0.500000
vt 0.125000 0.750000
vn 0.0000 1.0000 0.0000
vn 0.0000 0.0000 1.0000
vn -1.0000 0.0000 0.0000
vn 0.0000 -1.0000 0.0000
vn 1.0000 0.0000 0.0000
vn 0.0000 0.0000 -1.0000
usemtl Material
s off
f 1/1/1 5/2/1 7/3/1 3/4/1
f 4/5/2 3/4/2 7/6/2 8/7/2
f 8/8/3 7/9/3 5/10/3 6/11/3
f 6/12/4 2/13/4 4/5/4 8/14/4
f 2/13/5 1/1/5 3/4/5 4/5/5
f 6/11/6 5/10/6 1/1/6 2/13/6
o 589508451
v 12.359341 5.265802 3.418417
v 12.319342 5.335201 3.390707
v 12.398041 5.327671 3.400917
v 12.365241 5.359160 3.394247
v 12.305542 5.362431 3.399367
v 12.420740 5.345401 3.418057
v 12.264042 5.263512 3.447457
v 12.229543 5.312521 3.439897
v 12.435241 5.271202 3.447787
v 12.443939 5.316641 3.442667
v 12.265442 5.351181 3.417737
v 12.266242 5.364230 3.423277
v 12.411840 5.354611 3.437597
v 12.365241 5.355771 3.450106
v 12.417741 5.193953 3.498076
v 12.366241 5.191783 3.485786
v 12.296641 5.173793 3.523845
v 12.216343 5.338931 3.459047
v 12.498739 5.273211 3.511526
v 12.473539 5.319861 3.493056
v 12.285042 5.344060 3.487136
v 12.456840 5.334971 3.506906
v 12.499740 5.188272 3.569945
v 12.192043 5.261442 3.487506
v 12.174543 5.296201 3.499776
v 12.217643 5.212613 3.518006
v 12.170443 5.310371 3.520106
v 12.214243 5.327401 3.501946
v 12.163943 5.232702 3.550505
v 12.147744 5.258922 3.564535
v 12.550938 5.273992 3.584265
v 12.384940 5.330901 3.529985
v 12.375841 5.128603 3.570455
v 12.212643 5.158103 3.594365
v 12.471939 5.100584 3.644814
v 12.578638 5.213982 3.643874
v 12.271842 5.316071 3.539615
v 12.509739 5.296701 3.590145
v 12.297242 5.092264 3.648994
v 12.143144 5.206212 3.613245
v 12.170143 5.166433 3.636654
v 12.576738 5.142364 3.700403
v 12.222743 5.251222 3.617054
v 12.568438 5.272012 3.627004
v 12.396640 5.069084 3.671883
v 12.602038 5.246402 3.674044
v 12.172244 5.194843 3.656764
v 12.379241 5.266822 3.638784
v 12.217243 5.100814 3.705003
v 12.600437 5.257322 3.714333
v 12.455640 5.029254 3.762592
v 12.189443 5.135373 3.705863
v 12.534539 5.261832 3.721693
v 12.355141 5.042665 3.732893
v 12.299742 5.050694 3.741783
v 12.631137 5.220092 3.713603
v 12.659436 5.178903 3.758753
v 12.209343 5.177573 3.709523
v 12.307042 5.177033 3.747453
v 12.663238 5.215232 3.764442
v 12.466740 5.209712 3.794622
v 12.557738 5.072624 3.769472
v 12.220743 5.084604 3.754812
v 12.662137 5.109404 3.814772
v 12.233342 5.128114 3.761533
v 12.371640 5.020045 3.802212
v 12.646338 5.228772 3.835331
v 12.686637 5.214372 3.813242
v 12.556938 5.026205 3.863451
v 12.283842 5.050085 3.804932
v 12.244542 5.082534 3.787322
v 12.741436 5.140304 3.837552
v 12.571838 5.226262 3.834831
v 12.747236 5.166733 3.836232
v 12.403140 5.126063 3.864291
v 12.487839 5.172893 3.869361
v 12.741237 5.183163 3.842891
v 12.470039 5.008715 3.869031
v 12.356241 5.025685 3.892961
v 12.313842 5.051435 3.858641
v 12.623637 5.059564 3.862901
v 12.546938 5.172473 3.902591
v 12.403041 5.017945 3.886081
v 12.734736 5.063514 3.915550
v 12.312041 5.083124 3.846661
v 12.312641 5.126513 3.805552
v 12.791335 5.095164 3.898201
v 12.834035 5.122354 3.913021
v 12.803434 5.151893 3.896801
v 12.675037 5.032905 3.949110
v 12.874234 5.057224 3.987819
v 12.877535 5.093804 3.956030
v 12.769736 5.172323 3.901261
v 12.568338 5.019425 3.925680
v 12.493540 5.142404 3.903631
v 12.640137 5.182813 3.925360
v 12.508739 5.018205 3.939760
v 12.407841 5.054655 3.914210
v 12.750636 5.158263 3.960150
v 12.448740 5.027165 3.936160
v 12.909734 5.094544 3.976520
v 12.923933 5.075704 4.002810
v 12.890234 5.108724 3.977320
v 12.620238 5.032935 3.986249
v 12.816635 5.037835 4.017209
v 12.512839 5.109663 3.941100
v 12.854434 5.118194 4.011639
v 12.611137 5.137884 3.963620
v 12.536139 5.030555 3.970930
v 12.523438 5.057164 3.962000
v 12.933333 5.077084 4.013759
v 12.707436 5.127563 3.999969
v 12.801235 5.112063 4.031169
v 12.596638 5.051655 3.989729
v 12.746936 5.041874 4.028479
v 12.912234 5.043655 4.063319
v 12.933734 5.067595 4.039819
v 12.695637 5.058764 4.028239
v 12.632937 5.088514 3.994239
v 12.940633 5.074204 4.052608
v 12.920234 5.082474 4.049439
v 12.845035 5.042274 4.060259
v 12.785336 5.076994 4.051639
v 12.940333 5.063224 4.080918
v 12.877034 5.079634 4.055729
v 12.803835 5.050294 4.055509
v 12.931433 5.065794 4.071339
v 12.874735 5.058754 4.057509
vn 0.0474 -0.5631 -0.8250
vn -0.1985 -0.0925 -0.9757
vn 0.4048 -0.1080 -0.9080
vn 0.1981 0.7278 -0.6566
vn -0.1853 0.7508 -0.6340
vn 0.6477 0.4860 -0.5868
vn -0.3227 -0.5436 -0.7748
vn -0.6035 -0.0860 -0.7927
vn 0.5435 -0.4061 -0.7346
vn 0.7552 0.0184 -0.6552
vn -0.5500 0.3186 -0.7720
vn -0.3036 0.9382 -0.1659
vn 0.3577 0.9281 -0.1036
vn 0.0457 0.9900 0.1336
vn 0.3260 -0.6735 -0.6634
vn 0.0127 -0.7394 -0.6731
vn -0.2274 -0.7501 -0.6211
vn -0.6273 0.7322 -0.2654
vn 0.7810 -0.1132 -0.6142
vn 0.7385 0.6063 -0.2950
vn -0.1150 0.9379 0.3272
vn 0.3059 0.9412 0.1434
vn 0.6020 -0.5235 -0.6030
vn -0.6132 -0.4203 -0.6689
vn -0.8730 0.0840 -0.4804
vn -0.4294 -0.6737 -0.6015
vn -0.5535 0.7915 0.2592
vn -0.1997 0.9260 0.3205
vn -0.7525 -0.4631 -0.4682
vn -0.9145 0.3756 0.1507
vn 0.8070 0.4272 -0.4077
vn -0.0020 0.9141 0.4055
vn 0.0347 -0.8269 -0.5613
vn -0.4533 -0.7526 -0.4777
vn 0.3615 -0.7625 -0.5366
vn 0.7735 -0.2344 -0.5889
vn -0.1282 0.8524 0.5069
vn 0.2851 0.9473 0.1464
vn -0.2262 -0.8594 -0.4586
vn -0.9830 -0.1726 0.0625
vn -0.7144 -0.6511 -0.2562
vn 0.5922 -0.5696 -0.5700
vn -0.2871 0.7654 0.5760
vn 0.6230 0.7631 -0.1715
vn 0.0306 -0.8789 -0.4760
vn 0.8386 0.3642 -0.4052
vn -0.6726 0.4619 0.5781
vn -0.1452 0.8655 0.4794
vn -0.5525 -0.7984 -0.2395
vn 0.4672 0.8837 -0.0263
vn 0.1583 -0.9213 -0.3551
vn -0.9179 -0.1997 0.3428
vn -0.0685 0.9506 0.3028
vn -0.1045 -0.9256 -0.3638
vn -0.3128 -0.9160 -0.2513
vn 0.8304 0.0277 -0.5565
vn 0.6970 -0.2471 -0.6732
vn -0.4232 0.6410 0.6403
vn -0.2965 0.7381 0.6061
vn 0.7652 0.4400 -0.4700
vn -0.3092 0.8191 0.4832
vn 0.4413 -0.7693 -0.4620
vn -0.7728 -0.6048 0.1922
vn 0.4368 -0.6615 -0.6096
vn -0.5807 0.4356 0.6878
vn -0.1665 -0.9784 -0.1229
vn 0.1617 0.9484 0.2726
vn 0.5261 0.8426 -0.1147
vn 0.2858 -0.9112 -0.2967
vn -0.5187 -0.8430 0.1424
vn -0.7713 -0.1113 0.6266
vn 0.5407 -0.3586 -0.7609
vn -0.1794 0.8772 0.4454
vn 0.7074 0.1987 -0.6783
vn -0.4094 0.6291 0.6607
vn -0.3717 0.7299 0.5737
vn 0.6382 0.6978 -0.3252
vn 0.0350 -0.9987 -0.0383
vn -0.5203 -0.5683 0.6375
vn -0.6842 -0.1218 0.7191
vn 0.3565 -0.8164 -0.4543
vn -0.3000 0.7268 0.6179
vn -0.1996 -0.9619 0.1870
vn 0.2384 -0.8462 -0.4766
vn -0.5136 0.4175 0.7497
vn -0.3887 0.6539 0.6491
vn 0.4197 -0.5868 -0.6925
vn 0.6789 0.0513 -0.7324
vn 0.6716 0.6286 -0.3921
vn 0.1602 -0.9763 -0.1457
vn 0.3446 -0.8221 -0.4533
vn 0.5041 -0.4664 -0.7269
vn 0.4169 0.9064 0.0681
vn 0.1082 -0.9933 0.0400
vn -0.3762 0.6271 0.6821
vn -0.1075 0.8101 0.5763
vn -0.0815 -0.9397 0.3323
vn -0.4465 0.2454 0.8605
vn 0.0909 0.8818 0.4627
vn -0.3406 -0.4957 0.7989
vn 0.7636 0.0838 -0.6402
vn 0.6266 -0.5582 -0.5439
vn 0.6130 0.7783 -0.1364
vn -0.0825 -0.8382 0.5390
vn 0.0819 -0.9939 -0.0742
vn -0.3713 0.4727 0.7992
vn 0.2231 0.8867 0.4049
vn -0.2744 0.5803 0.7668
vn -0.2524 -0.4488 0.8572
vn -0.3611 0.1509 0.9203
vn 0.9424 0.0582 -0.3294
vn -0.1706 0.6361 0.7525
vn -0.0147 0.7231 0.6906
vn -0.3034 -0.1024 0.9473
vn -0.1298 -0.8693 0.4769
vn 0.2991 -0.8799 0.3692
vn 0.7375 -0.6540 -0.1683
vn -0.3004 -0.2377 0.9237
vn -0.3194 0.3191 0.8923
vn 0.9698 0.2292 0.0831
vn 0.3309 0.8605 0.3874
vn -0.0656 -0.6673 0.7419
vn -0.1720 0.2934 0.9404
vn 0.3732 0.1821 0.9097
vn -0.0258 0.5641 0.8253
vn -0.1728 -0.2726 0.9465
vn 0.5863 -0.6646 0.4632
vn -0.0728 -0.1346 0.9882
usemtl mtl1.534
s 1
f 9//7 10//8 11//9
f 11//9 10//8 12//10
f 12//10 10//8 13//11
f 14//12 11//9 12//10
f 15//13 16//14 10//8
f 9//7 15//13 10//8
f 17//15 9//7 11//9
f 17//15 11//9 18//16
f 10//8 16//14 19//17
f 14//12 18//16 11//9
f 10//8 19//17 13//11
f 19//17 20//18 13//11
f 21//19 14//12 12//10
f 12//10 13//11 22//20
f 12//10 22//20 21//19
f 9//7 17//15 23//21
f 24//22 9//7 23//21
f 9//7 25//23 15//13
f 24//22 25//23 9//7
f 19//17 26//24 20//18
f 13//11 20//18 22//20
f 18//16 27//25 17//15
f 16//14 26//24 19//17
f 28//26 18//16 14//12
f 29//27 20//18 26//24
f 28//26 14//12 21//19
f 30//28 28//26 21//19
f 20//18 29//27 22//20
f 23//21 17//15 31//29
f 15//13 32//30 16//14
f 17//15 27//25 31//29
f 16//14 32//30 33//31
f 16//14 33//31 26//24
f 15//13 25//23 34//32
f 15//13 34//32 32//30
f 26//24 33//31 35//33
f 18//16 28//26 27//25
f 26//24 35//33 36//34
f 26//24 36//34 29//27
f 22//20 30//28 21//19
f 32//30 34//32 37//35
f 37//35 33//31 32//30
f 38//36 35//33 33//31
f 27//25 28//26 39//37
f 29//27 40//38 22//20
f 25//23 24//22 41//39
f 24//22 23//21 41//39
f 34//32 25//23 42//40
f 23//21 31//29 43//41
f 44//42 31//29 27//25
f 38//36 33//31 37//35
f 36//34 45//43 29//27
f 29//27 45//43 40//38
f 28//26 30//28 46//44
f 30//28 22//20 40//38
f 47//45 25//23 41//39
f 23//21 43//41 41//39
f 34//32 42//40 37//35
f 37//35 48//46 38//36
f 28//26 46//44 39//37
f 35//33 45//43 36//34
f 30//28 40//38 46//44
f 42//40 25//23 47//45
f 37//35 42//40 49//47
f 43//41 31//29 50//48
f 44//42 27//25 39//37
f 38//36 51//49 35//33
f 35//33 51//49 45//43
f 52//50 39//37 46//44
f 53//51 41//39 43//41
f 31//29 44//42 50//48
f 37//35 49//47 48//46
f 39//37 54//52 44//42
f 48//46 55//53 38//36
f 52//50 54//52 39//37
f 51//49 38//36 55//53
f 53//51 47//45 41//39
f 40//38 56//54 46//44
f 42//40 47//45 57//55
f 57//55 49//47 42//40
f 45//43 51//49 56//54
f 40//38 45//43 56//54
f 52//50 46//44 58//56
f 53//51 43//41 59//57
f 49//47 57//55 60//58
f 49//47 60//58 48//46
f 58//56 54//52 52//50
f 46//44 56//54 61//59
f 58//56 46//44 61//59
f 47//45 62//60 63//61
f 53//51 62//60 47//45
f 47//45 63//61 57//55
f 60//58 55//53 48//46
f 64//62 65//63 44//42
f 66//64 51//49 55//53
f 51//49 67//65 56//54
f 44//42 54//52 64//62
f 64//62 54//52 68//66
f 58//56 68//66 54//52
f 69//67 61//59 56//54
f 59//57 62//60 53//51
f 59//57 43//41 70//68
f 43//41 50//48 70//68
f 60//58 57//55 71//69
f 72//70 50//48 65//63
f 50//48 44//42 65//63
f 55//53 73//71 66//64
f 67//65 51//49 66//64
f 63//61 62//60 74//72
f 73//71 55//53 60//58
f 67//65 69//67 56//54
f 58//56 61//59 75//73
f 58//56 75//73 76//74
f 77//75 59//57 70//68
f 57//55 78//76 71//69
f 78//76 57//55 63//61
f 70//68 50//48 72//70
f 79//77 60//58 71//69
f 73//71 60//58 79//77
f 80//78 72//70 65//63
f 73//71 67//65 66//64
f 65//63 64//62 68//66
f 58//56 76//74 68//66
f 69//67 81//79 61//59
f 63//61 74//72 78//76
f 59//57 74//72 62//60
f 71//69 78//76 79//77
f 82//80 80//78 65//63
f 69//67 67//65 83//81
f 69//67 83//81 84//82
f 68//66 82//80 65//63
f 68//66 76//74 85//83
f 61//59 81//79 75//73
f 59//57 86//84 74//72
f 78//76 87//85 88//86
f 77//75 70//68 89//87
f 78//76 88//86 79//77
f 72//70 89//87 70//68
f 82//80 68//66 85//83
f 69//67 84//82 90//88
f 69//67 90//88 81//79
f 59//57 77//75 86//84
f 91//89 78//76 74//72
f 72//70 92//90 89//87
f 93//91 73//71 79//77
f 93//91 94//92 73//71
f 80//78 95//93 72//70
f 95//93 80//78 96//94
f 94//92 67//65 73//71
f 82//80 96//94 80//78
f 82//80 85//83 97//95
f 86//84 91//89 74//72
f 77//75 89//87 98//96
f 88//86 93//91 79//77
f 92//90 95//93 99//97
f 95//93 92//90 72//70
f 95//93 96//94 100//98
f 94//92 83//81 67//65
f 96//94 82//80 97//95
f 75//73 101//99 76//74
f 85//83 76//74 101//99
f 77//75 102//100 86//84
f 91//89 87//85 78//76
f 95//93 100//98 99//97
f 84//82 83//81 103//101
f 97//95 85//83 101//99
f 103//101 90//88 84//82
f 81//79 90//88 104//102
f 86//84 105//103 91//89
f 77//75 98//96 102//100
f 89//87 92//90 98//96
f 93//91 88//86 106//104
f 83//81 94//92 93//91
f 101//99 75//73 107//105
f 104//102 107//105 75//73
f 75//73 81//79 104//102
f 108//106 91//89 105//103
f 86//84 102//100 105//103
f 108//106 87//85 91//89
f 87//85 106//104 88//86
f 93//91 106//104 83//81
f 109//107 110//108 100//98
f 100//98 96//94 109//107
f 96//94 97//95 111//109
f 96//94 111//109 109//107
f 111//109 97//95 101//99
f 102//100 112//110 105//103
f 98//96 112//110 102//100
f 87//85 108//106 106//104
f 92//90 113//111 98//96
f 99//97 113//111 92//90
f 83//81 114//112 103//101
f 111//109 101//99 115//113
f 116//114 104//102 90//88
f 105//103 117//115 108//106
f 112//110 117//115 105//103
f 106//104 108//106 118//116
f 100//98 110//108 99//97
f 114//112 83//81 106//104
f 109//107 119//117 110//108
f 109//107 111//109 119//117
f 90//88 103//101 114//112
f 90//88 114//112 116//114
f 101//99 107//105 115//113
f 120//118 104//102 116//114
f 107//105 104//102 120//118
f 121//119 107//105 120//118
f 118//116 108//106 117//115
f 112//110 122//120 117//115
f 123//121 98//96 113//111
f 124//122 113//111 99//97
f 99//97 125//123 124//122
f 112//110 126//124 122//120
f 99//97 110//108 125//123
f 125//123 110//108 119//117
f 114//112 106//104 118//116
f 127//125 114//112 118//116
f 119//117 111//109 128//126
f 116//114 114//112 127//125
f 111//109 115//113 129//127
f 115//113 107//105 121//119
f 126//124 112//110 123//121
f 112//110 98//96 123//121
f 122//120 118//116 117//115
f 125//123 119//117 128//126
f 127//125 118//116 122//120
f 126//124 127//125 122//120
f 111//109 129//127 128//126
f 127//125 120//118 116//114
f 113//111 130//128 123//121
f 113//111 124//122 130//128
f 131//129 127//125 126//124
f 128//126 129//127 132//130
f 131//129 120//118 127//125
f 115//113 121//119 133//131
f 133//131 129//127 115//113
f 123//121 134//132 126//124
f 125//123 128//126 135//133
f 135//133 128//126 132//130
f 134//132 131//129 126//124
f 121//119 120//118 131//129
f 123//121 130//128 134//132
f 136//134 130//128 124//122
f 124//122 135//133 136//134
f 125//123 135//133 124//122
f 133//131 132//130 129//127
f 133//131 121//119 131//129
f 134//132 130//128 136//134
f 135//133 132//130 136//134
f 134//132 136//134 131//129
f 133//131 131//129 136//134
f 132//130 133//131 136//134
