# Blender v2.92.0 OBJ File: 'convert_to_one_sided.blend'
# www.blender.org
mtllib 589508455L.mtl
o Cube
v 0.001000 0.001000 -0.001000
v 0.001000 -0.001000 -0.001000
v 0.001000 0.001000 0.001000
v 0.001000 -0.001000 0.001000
v -0.001000 0.001000 -0.001000
v -0.001000 -0.001000 -0.001000
v -0.001000 0.001000 0.001000
v -0.001000 -0.001000 0.001000
vt 0.625000 0.500000
vt 0.875000 0.500000
vt 0.875000 0.750000
vt 0.625000 0.750000
vt 0.375000 0.750000
vt 0.625000 1.000000
vt 0.375000 1.000000
vt 0.375000 0.000000
vt 0.625000 0.000000
vt 0.625000 0.250000
vt 0.375000 0.250000
vt 0.125000 0.500000
vt 0.375000 0.500000
vt 0.125000 0.750000
vn 0.0000 1.0000 0.0000
vn 0.0000 0.0000 1.0000
vn -1.0000 0.0000 0.0000
vn 0.0000 -1.0000 0.0000
vn 1.0000 0.0000 0.0000
vn 0.0000 0.0000 -1.0000
usemtl Material
s off
f 1/1/1 5/2/1 7/3/1 3/4/1
f 4/5/2 3/4/2 7/6/2 8/7/2
f 8/8/3 7/9/3 5/10/3 6/11/3
f 6/12/4 2/13/4 4/5/4 8/14/4
f 2/13/5 1/1/5 3/4/5 4/5/5
f 6/11/6 5/10/6 1/1/6 2/13/6
o 589508455
v 11.434452 4.144786 4.280836
v 11.446652 4.183526 4.285575
v 11.491352 4.164366 4.295765
v 11.501451 4.231655 4.301945
v 11.529552 4.182926 4.347945
v 11.375254 4.050597 4.343615
v 11.372853 4.094827 4.305735
v 11.433253 4.109567 4.313035
v 11.339754 4.114687 4.305535
v 11.446353 4.251065 4.346405
v 11.494951 4.257454 4.335034
v 11.269256 4.050027 4.345395
v 11.267056 4.089807 4.329385
v 11.281555 4.124156 4.340985
v 11.466152 4.072517 4.377994
v 11.511852 4.117527 4.383314
v 11.355754 4.188056 4.350514
v 11.514752 4.240965 4.367494
v 11.321354 3.986218 4.419963
v 11.214355 4.093827 4.386784
v 11.333554 4.242685 4.415973
v 11.469553 4.272394 4.394814
v 11.210655 3.989278 4.430254
v 11.195156 4.039507 4.398964
v 11.410453 4.014987 4.416264
v 11.161757 4.062187 4.428414
v 11.242855 4.184165 4.434793
v 11.534052 4.180905 4.448573
v 11.527351 4.119756 4.466083
v 11.495052 4.256704 4.438993
v 11.514152 4.211415 4.484463
v 11.381153 4.276134 4.442083
v 11.164455 4.022217 4.437593
v 11.456753 4.012607 4.471343
v 11.495352 4.064507 4.467683
v 11.264855 3.959098 4.478193
v 11.156656 3.991208 4.498183
v 11.120557 4.062437 4.534262
v 11.159456 4.130376 4.491723
v 11.263355 4.254094 4.499273
v 11.435053 4.258484 4.514092
v 11.215455 3.968608 4.528942
v 11.322854 3.961538 4.478013
v 11.374153 3.981538 4.479293
v 11.518452 4.129806 4.563442
v 11.324854 4.273594 4.542552
v 11.122356 4.013308 4.590352
v 11.477352 4.027167 4.533502
v 11.168356 4.200485 4.543372
v 11.511252 4.177606 4.548022
v 11.483253 4.210435 4.550932
v 11.312255 3.970898 4.538032
v 11.407853 4.004958 4.560071
v 11.498053 4.075497 4.547252
v 11.231455 4.263394 4.569171
v 11.163556 3.989468 4.582051
v 11.098257 4.054257 4.610761
v 11.117657 4.146216 4.593191
v 11.189456 4.238034 4.576022
v 11.380453 4.241974 4.609001
v 11.306355 4.002748 4.630641
v 11.454352 4.053827 4.610441
v 11.101157 4.091016 4.638981
v 11.234856 4.252154 4.622121
v 11.307155 4.238165 4.635961
v 11.206256 3.998088 4.624261
v 11.140157 4.014857 4.636941
v 11.148757 4.203705 4.619741
v 11.191656 4.234454 4.614501
v 11.113757 4.049587 4.653131
v 11.476552 4.103986 4.630151
v 11.435452 4.203955 4.625441
v 11.353153 4.041567 4.662340
v 11.476552 4.156456 4.616681
v 11.150757 4.045537 4.687480
v 11.246056 4.043307 4.686250
v 11.409853 4.087866 4.680100
v 11.121557 4.147726 4.668000
v 11.172656 4.193845 4.672370
v 11.342454 4.188485 4.687260
v 11.247255 4.206535 4.673420
v 11.126956 4.095446 4.690420
v 11.443053 4.124226 4.672510
v 11.420452 4.157546 4.667260
v 11.313354 4.084957 4.714680
v 11.370554 4.134656 4.701710
v 11.151257 4.138026 4.708500
v 11.300855 4.154455 4.725009
v 11.239855 4.156646 4.712660
v 11.218155 4.098956 4.707250
v 11.289555 4.128076 4.711820
vn 0.0939 -0.2885 -0.9529
vn -0.1771 0.3687 -0.9125
vn 0.5658 -0.3504 -0.7464
vn 0.4831 0.4779 -0.7337
vn 0.9601 -0.0630 -0.2724
vn 0.2096 -0.7303 -0.6501
vn 0.0170 -0.5213 -0.8532
vn 0.3412 -0.6489 -0.6801
vn -0.3255 0.1080 -0.9394
vn -0.2955 0.7764 -0.5567
vn 0.2907 0.8907 -0.3495
vn -0.3017 -0.4998 -0.8119
vn -0.5472 0.0643 -0.8346
vn -0.5092 0.5160 -0.6888
vn 0.5540 -0.6857 -0.4721
vn 0.8002 -0.5158 -0.3060
vn -0.4507 0.5793 -0.6792
vn 0.8295 0.5563 -0.0500
vn 0.1078 -0.8667 -0.4870
vn -0.6912 0.2515 -0.6775
vn -0.4403 0.7127 -0.5462
vn 0.2189 0.9741 -0.0561
vn -0.3452 -0.8024 -0.4868
vn -0.6025 -0.2638 -0.7532
vn 0.3448 -0.8351 -0.4286
vn -0.8207 0.0949 -0.5635
vn -0.5897 0.5745 -0.5676
vn 0.9788 0.1801 0.0978
vn 0.9462 -0.3233 -0.0152
vn 0.6010 0.7721 0.2068
vn 0.8299 0.5071 0.2325
vn -0.1359 0.9738 -0.1821
vn -0.7636 -0.4069 -0.5013
vn 0.5362 -0.8283 -0.1628
vn 0.8221 -0.5536 -0.1328
vn -0.0719 -0.9866 -0.1462
vn -0.6383 -0.7423 -0.2037
vn -0.9501 -0.0424 -0.3089
vn -0.7892 0.4010 -0.4651
vn -0.4378 0.8203 -0.3681
vn 0.3170 0.9081 0.2735
vn -0.1902 -0.9794 0.0678
vn 0.2042 -0.9731 -0.1069
vn 0.3349 -0.9378 -0.0910
vn 0.9422 -0.0422 0.3324
vn 0.0153 0.9884 0.1511
vn -0.7570 -0.6528 0.0299
vn 0.7009 -0.6918 0.1734
vn -0.7204 0.5745 -0.3886
vn 0.8406 0.3971 0.3684
vn 0.6413 0.6473 0.4119
vn 0.1389 -0.9620 0.2350
vn 0.3456 -0.8902 0.2968
vn 0.8655 -0.4476 0.2250
vn -0.3403 0.9403 -0.0011
vn -0.3314 -0.9270 0.1756
vn -0.9707 -0.2401 0.0014
vn -0.9126 0.3594 -0.1948
vn -0.6064 0.7797 -0.1558
vn 0.2489 0.8481 0.4676
vn 0.1551 -0.8576 0.4904
vn 0.5747 -0.6514 0.4954
vn -0.9854 0.0843 0.1479
vn -0.1507 0.8830 0.4444
vn 0.0885 0.8331 0.5460
vn -0.0559 -0.9002 0.4318
vn -0.4173 -0.8182 0.3955
vn -0.7315 0.6764 0.0854
vn -0.4853 0.8382 0.2490
vn -0.7867 -0.4408 0.4321
vn 0.7833 -0.2663 0.5617
vn 0.5057 0.6483 0.5692
vn 0.2783 -0.7341 0.6194
vn 0.7339 0.3600 0.5761
vn -0.2768 -0.5747 0.7701
vn 0.0239 -0.6525 0.7574
vn 0.4483 -0.4301 0.7836
vn -0.8307 0.4060 0.3808
vn -0.3808 0.7021 0.6017
vn 0.2082 0.6350 0.7439
vn -0.0409 0.6923 0.7204
vn -0.6502 -0.1156 0.7509
vn 0.5995 0.1031 0.7937
vn 0.4799 0.4493 0.7536
vn 0.1212 -0.3131 0.9419
vn 0.3224 0.0882 0.9425
vn -0.3912 0.2221 0.8931
vn 0.0769 0.1180 0.9900
vn -0.1035 0.3313 0.9378
vn -0.0943 -0.1917 0.9769
vn -0.0106 -0.1467 0.9891
usemtl mtl1.535
s 1
f 9//7 10//8 11//9
f 12//10 13//11 11//9
f 11//9 10//8 12//10
f 14//12 15//13 16//14
f 9//7 15//13 17//15
f 16//14 15//13 9//7
f 16//14 9//7 11//9
f 9//7 17//15 10//8
f 18//16 12//10 10//8
f 12//10 18//16 19//17
f 17//15 20//18 21//19
f 15//13 20//18 17//15
f 21//19 22//20 17//15
f 16//14 11//9 23//21
f 23//21 11//9 24//22
f 25//23 17//15 22//20
f 17//15 25//23 10//8
f 24//22 11//9 13//11
f 10//8 25//23 18//16
f 12//10 26//24 13//11
f 26//24 12//10 19//17
f 20//18 14//12 27//25
f 21//19 20//18 28//26
f 14//12 20//18 15//13
f 23//21 14//12 16//14
f 28//26 22//20 21//19
f 18//16 25//23 29//27
f 19//17 18//16 30//28
f 31//29 32//30 20//18
f 27//25 31//29 20//18
f 20//18 32//30 28//26
f 30//28 26//24 19//17
f 33//31 27//25 14//12
f 14//12 23//21 33//31
f 28//26 32//30 34//32
f 22//20 28//26 35//33
f 36//34 37//35 13//11
f 37//35 24//22 13//11
f 25//23 22//20 35//33
f 36//34 13//11 26//24
f 26//24 38//36 39//37
f 18//16 29//27 40//38
f 18//16 40//38 30//28
f 38//36 26//24 30//28
f 31//29 41//39 32//30
f 23//21 42//40 33//31
f 41//39 34//32 32//30
f 43//41 42//40 23//21
f 23//21 24//22 43//41
f 36//34 26//24 39//37
f 35//33 29//27 25//23
f 27//25 44//42 31//29
f 31//29 45//43 41//39
f 41//39 46//44 34//32
f 34//32 47//45 28//26
f 43//41 24//22 37//35
f 35//33 28//26 47//45
f 29//27 35//33 48//46
f 30//28 40//38 49//47
f 31//29 50//48 45//43
f 31//29 44//42 50//48
f 44//42 27//25 51//49
f 27//25 52//50 51//49
f 33//31 52//50 27//25
f 41//39 45//43 46//44
f 29//27 48//46 40//38
f 49//47 38//36 30//28
f 33//31 42//40 52//50
f 37//35 36//34 53//51
f 40//38 54//52 49//47
f 55//53 46//44 45//43
f 42//40 43//41 56//54
f 35//33 47//45 57//55
f 58//56 36//34 39//37
f 35//33 57//55 48//46
f 59//57 39//37 38//36
f 54//52 40//38 48//46
f 51//49 60//58 44//42
f 52//50 60//58 51//49
f 52//50 61//59 60//58
f 42//40 61//59 52//50
f 61//59 42//40 56//54
f 62//60 43//41 37//35
f 37//35 53//51 62//60
f 47//45 34//32 46//44
f 39//37 59//57 58//56
f 38//36 49//47 59//57
f 63//61 54//52 48//46
f 44//42 60//58 50//48
f 64//62 45//43 50//48
f 55//53 45//43 64//62
f 46//44 55//53 65//63
f 62//60 56//54 43//41
f 46//44 66//64 47//45
f 53//51 36//34 58//56
f 57//55 47//45 66//64
f 57//55 67//65 48//46
f 48//46 67//65 63//61
f 49//47 54//52 68//66
f 61//59 69//67 60//58
f 56//54 70//68 61//59
f 65//63 71//69 46//44
f 66//64 46//44 71//69
f 54//52 63//61 72//70
f 54//52 72//70 73//71
f 54//52 73//71 68//66
f 50//48 74//72 64//62
f 60//58 74//72 50//48
f 75//73 55//53 64//62
f 70//68 56//54 62//60
f 76//74 57//55 66//64
f 76//74 67//65 57//55
f 63//61 67//65 77//75
f 63//61 77//75 72//70
f 74//72 60//58 69//67
f 78//76 65//63 55//53
f 62//60 79//77 70//68
f 62//60 53//51 79//77
f 68//66 80//78 49//47
f 80//78 59//57 49//47
f 67//65 76//74 77//75
f 55//53 75//73 78//76
f 61//59 81//79 69//67
f 81//79 61//59 70//68
f 58//56 82//80 53//51
f 59//57 80//78 82//80
f 82//80 58//56 59//57
f 74//72 75//73 64//62
f 74//72 83//81 75//73
f 69//67 84//82 74//72
f 70//68 85//83 81//79
f 70//68 79//77 85//83
f 65//63 78//76 71//69
f 79//77 53//51 82//80
f 71//69 86//84 66//64
f 66//64 86//84 76//74
f 77//75 76//74 87//85
f 73//71 88//86 68//66
f 88//86 80//78 68//66
f 72//70 77//75 87//85
f 72//70 89//87 73//71
f 78//76 75//73 83//81
f 81//79 84//82 69//67
f 78//76 90//88 71//69
f 79//77 91//89 85//83
f 79//77 82//80 91//89
f 92//90 91//89 82//80
f 80//78 88//86 92//90
f 82//80 80//78 92//90
f 76//74 86//84 87//85
f 89//87 88//86 73//71
f 72//70 87//85 89//87
f 83//81 74//72 84//82
f 83//81 90//88 78//76
f 85//83 93//91 81//79
f 90//88 86//84 71//69
f 84//82 81//79 93//91
f 93//91 85//83 94//92
f 94//92 85//83 91//89
f 90//88 95//93 86//84
f 92//90 94//92 91//89
f 94//92 88//86 96//94
f 94//92 92//90 88//86
f 95//93 87//85 86//84
f 87//85 95//93 97//95
f 97//95 96//94 88//86
f 89//87 87//85 97//95
f 88//86 89//87 97//95
f 83//81 84//82 98//96
f 83//81 98//96 90//88
f 93//91 98//96 84//82
f 94//92 99//97 93//91
f 98//96 95//93 90//88
f 98//96 97//95 95//93
f 94//92 96//94 99//97
f 96//94 97//95 99//97
f 93//91 99//97 98//96
f 99//97 97//95 98//96
