# Blender v2.92.0 OBJ File: 'convert_to_one_sided.blend'
# www.blender.org
mtllib 58L.mtl
o 58
v 8.529040 4.839627 4.417744
v 8.520270 4.797967 4.406294
v 8.499261 4.814307 4.411504
v 8.490291 4.815437 4.422574
v 8.535140 4.826587 4.423974
v 8.457661 4.857727 4.444124
v 8.469730 4.901736 4.444504
v 8.530150 4.883056 4.458823
v 8.499320 4.951926 4.468624
v 8.512480 4.924876 4.473063
v 8.418872 5.054494 4.508053
v 8.462311 4.845376 4.449014
v 8.483261 4.860577 4.463463
v 8.523550 4.850867 4.443384
v 8.386312 5.010145 4.502583
v 8.402072 4.949625 4.497443
v 8.440931 5.095324 4.545022
v 8.371842 5.080194 4.525103
v 8.493501 4.936056 4.504753
v 8.423712 4.930835 4.508643
v 8.478110 5.021784 4.536363
v 8.353702 5.029554 4.535213
v 8.343992 5.098743 4.548812
v 8.443951 5.014534 4.570912
v 8.354093 5.035894 4.562902
v 8.358612 5.136403 4.554852
v 8.367602 5.080374 4.612381
v 8.468700 5.012495 4.554812
v 8.310203 5.141803 4.593372
v 8.324483 5.196702 4.592272
v 8.366043 5.233862 4.611232
v 8.422281 5.157643 4.594162
v 8.302903 5.308311 4.641271
v 8.454062 5.074514 4.587652
v 8.423521 5.158332 4.617091
v 8.282443 5.268101 4.636501
v 8.303023 5.190423 4.648891
v 8.274774 5.259171 4.651111
v 8.376972 5.261541 4.655461
v 8.254054 5.423499 4.697641
v 8.380152 5.137353 4.651941
v 8.405071 5.148522 4.635511
v 8.246814 5.366990 4.691000
v 8.293674 5.436109 4.710210
v 8.323174 5.399900 4.721090
v 8.380272 5.228632 4.664651
v 8.252653 5.345310 4.703530
v 8.221154 5.449879 4.722010
v 8.334173 5.195922 4.671961
v 8.347102 5.305801 4.699851
v 8.191134 5.506618 4.754890
v 8.209074 5.523118 4.744560
v 8.223694 5.577087 4.765080
v 8.135645 5.870303 4.751470
v 8.130746 5.863363 4.764949
v 8.140125 5.880303 4.755180
v 8.156385 5.862793 4.781049
v 8.347773 5.248141 4.686050
v 8.287193 5.326111 4.715250
v 8.138945 5.771815 4.779940
v 8.159165 5.807855 4.789419
v 8.304893 5.398030 4.744110
v 8.216675 5.485919 4.780250
v 8.174785 5.620956 4.775419
v 8.271983 5.547267 4.784969
v 8.121325 5.779195 4.809529
v 8.153105 5.863834 4.789609
v 8.283703 5.508848 4.800149
v 8.142935 5.680006 4.801409
v 8.185635 5.711515 4.799689
v 8.183524 5.787845 4.822089
v 8.145075 5.821984 4.829439
v 8.166895 5.837484 4.812069
v 8.259903 5.485708 4.798779
v 8.277233 5.497218 4.803519
v 8.158285 5.637567 4.819019
v 8.223564 5.658036 4.822189
v 8.134965 5.719245 4.826259
v 8.200225 5.629477 4.846859
v 8.252254 5.575527 4.831709
v 8.248184 5.596027 4.825239
v 8.155055 5.733725 4.842419
v 8.168885 5.804144 4.834249
v 8.197425 5.699006 4.842929
v 8.167415 5.759185 4.847359
v 8.179615 5.705856 4.843249
vn 0.6222 0.2434 -0.7441
vn 0.3388 -0.9404 0.0296
vn -0.4009 -0.2083 -0.8921
vn -0.5611 -0.8251 0.0658
vn 0.9294 -0.3197 0.1844
vn -0.8570 -0.3539 -0.3747
vn -0.3073 0.2307 -0.9232
vn 0.9553 0.0377 0.2931
vn 0.5722 0.5070 -0.6447
vn 0.8782 0.4031 -0.2572
vn 0.0281 0.4393 -0.8979
vn -0.5882 -0.7047 0.3967
vn 0.0634 -0.6270 0.7765
vn 0.4241 -0.4952 0.7583
vn -0.5503 0.0752 -0.8315
vn -0.8634 -0.3849 -0.3262
vn 0.6365 0.5507 -0.5400
vn -0.3448 0.2991 -0.8898
vn 0.5861 -0.3060 0.7502
vn -0.5110 -0.6490 0.5636
vn 0.9547 0.2747 0.1147
vn -0.8856 -0.2293 -0.4039
vn -0.6314 0.1634 -0.7580
vn 0.2793 -0.4438 0.8515
vn -0.7753 -0.5442 0.3204
vn -0.2121 0.4271 -0.8790
vn -0.3084 -0.5669 0.7638
vn 0.7446 -0.1750 0.6442
vn -0.9306 -0.1502 -0.3337
vn -0.3810 0.3146 -0.8694
vn 0.3937 0.5523 -0.7348
vn 0.8223 0.5029 -0.2662
vn -0.0914 0.4029 -0.9106
vn 0.7550 -0.0728 0.6517
vn 0.9056 0.2265 0.3587
vn -0.6629 0.1367 -0.7361
vn -0.7155 -0.4621 0.5239
vn -0.9664 -0.2274 -0.1199
vn 0.9201 0.3870 0.0603
vn -0.2789 0.3117 -0.9083
vn 0.1908 -0.3598 0.9133
vn 0.5912 -0.1275 0.7964
vn -0.8494 -0.0483 -0.5255
vn 0.4517 0.5065 -0.7344
vn 0.9505 0.3062 0.0529
vn 0.7316 0.0182 0.6815
vn -0.8501 -0.4087 0.3321
vn -0.6002 0.1210 -0.7906
vn -0.2188 -0.4159 0.8827
vn 0.7514 0.0155 0.6596
vn -0.9232 -0.1810 -0.3391
vn -0.3759 0.2252 -0.8989
vn 0.3255 0.4243 -0.8450
vn 0.1845 0.1051 -0.9772
vn -0.9188 0.3887 -0.0682
vn 0.0374 0.9724 -0.2305
vn 0.8749 0.4156 -0.2485
vn 0.3183 -0.2268 0.9204
vn -0.2386 -0.4392 0.8661
vn -0.3729 -0.1328 -0.9183
vn 0.6993 -0.0224 -0.7144
vn 0.4965 -0.2609 0.8279
vn -0.6000 -0.4580 0.6559
vn -0.2775 0.1213 -0.9530
vn 0.8574 0.4460 -0.2568
vn -0.9821 -0.0110 0.1880
vn 0.0899 0.8140 0.5739
vn 0.8726 0.0744 0.4828
vn -0.9378 -0.1932 -0.2886
vn 0.5707 0.2094 -0.7940
vn 0.9631 0.2679 -0.0237
vn -0.4502 0.3844 0.8060
vn 0.7091 0.5575 0.4317
vn -0.0570 -0.4215 0.9050
vn 0.3967 -0.2920 0.8703
vn -0.7839 -0.3288 0.5267
vn 0.9027 0.3950 -0.1708
vn -0.8639 -0.1783 0.4710
vn -0.1693 -0.1878 0.9675
vn 0.4719 -0.0380 0.8808
vn 0.8853 0.3203 0.3372
vn -0.4733 -0.0484 0.8796
vn 0.4375 0.4237 0.7932
vn 0.5908 0.2000 0.7817
vn 0.0057 0.0953 0.9954
vn 0.0121 -0.0145 0.9998
usemtl mtl1.1363
s 1
f 1//1 2//2 3//3
f 2//2 4//4 3//3
f 1//1 5//5 2//2
f 6//6 3//3 4//4
f 7//7 3//3 6//6
f 1//1 3//3 7//7
f 1//1 8//8 5//5
f 7//7 9//9 1//1
f 10//10 1//1 9//9
f 9//9 7//7 11//11
f 12//12 4//4 13//13
f 2//2 13//13 4//4
f 14//14 2//2 5//5
f 4//4 12//12 6//6
f 1//1 10//10 8//8
f 7//7 15//15 11//11
f 13//13 2//2 14//14
f 14//14 5//5 8//8
f 7//7 6//6 16//16
f 15//15 7//7 16//16
f 11//11 17//17 9//9
f 15//15 18//18 11//11
f 8//8 19//19 14//14
f 12//12 20//20 6//6
f 6//6 20//20 16//16
f 13//13 14//14 19//19
f 12//12 13//13 20//20
f 21//21 19//19 8//8
f 10//10 21//21 8//8
f 15//15 16//16 22//22
f 23//23 15//15 22//22
f 18//18 15//15 23//23
f 24//24 13//13 19//19
f 16//16 20//20 25//25
f 16//16 25//25 22//22
f 10//10 9//9 21//21
f 17//17 21//21 9//9
f 23//23 26//26 18//18
f 11//11 18//18 26//26
f 13//13 24//24 20//20
f 25//25 20//20 27//27
f 19//19 21//21 28//28
f 29//29 23//23 22//22
f 30//30 23//23 29//29
f 23//23 30//30 26//26
f 26//26 31//31 11//11
f 11//11 31//31 17//17
f 20//20 24//24 27//27
f 19//19 28//28 24//24
f 17//17 32//32 21//21
f 32//32 17//17 31//31
f 26//26 30//30 31//31
f 30//30 33//33 31//31
f 28//28 34//34 24//24
f 28//28 21//21 34//34
f 22//22 25//25 29//29
f 21//21 35//35 34//34
f 21//21 32//32 35//35
f 30//30 29//29 36//36
f 30//30 36//36 33//33
f 25//25 27//27 37//37
f 25//25 37//37 29//29
f 29//29 38//38 36//36
f 39//39 32//32 31//31
f 33//33 36//36 40//40
f 24//24 41//41 27//27
f 34//34 42//42 24//24
f 38//38 29//29 37//37
f 34//34 35//35 42//42
f 32//32 39//39 35//35
f 43//43 36//36 38//38
f 43//43 40//40 36//36
f 33//33 44//44 31//31
f 45//45 31//31 44//44
f 33//33 40//40 44//44
f 24//24 42//42 41//41
f 46//46 42//42 35//35
f 47//47 38//38 37//37
f 39//39 46//46 35//35
f 38//38 47//47 43//43
f 31//31 45//45 39//39
f 48//48 40//40 43//43
f 37//37 27//27 49//49
f 41//41 49//49 27//27
f 46//46 39//39 50//50
f 43//43 47//47 51//51
f 39//39 45//45 50//50
f 48//48 43//43 51//51
f 52//52 48//48 51//51
f 48//48 52//52 40//40
f 44//44 40//40 53//53
f 54//54 55//55 56//56
f 57//57 54//54 56//56
f 41//41 58//58 49//49
f 41//41 42//42 58//58
f 59//59 37//37 49//49
f 42//42 46//46 58//58
f 37//37 59//59 47//47
f 46//46 50//50 58//58
f 52//52 53//53 40//40
f 54//54 60//60 55//55
f 57//57 61//61 54//54
f 58//58 59//59 49//49
f 58//58 50//50 62//62
f 47//47 59//59 63//63
f 47//47 63//63 51//51
f 45//45 62//62 50//50
f 52//52 51//51 64//64
f 65//65 44//44 53//53
f 53//53 52//52 64//64
f 61//61 60//60 54//54
f 55//55 60//60 66//66
f 67//67 56//56 55//55
f 57//57 56//56 67//67
f 62//62 59//59 58//58
f 62//62 45//45 68//68
f 64//64 51//51 69//69
f 44//44 65//65 45//45
f 53//53 64//64 70//70
f 60//60 64//64 69//69
f 60//60 70//70 64//64
f 66//66 60//60 69//69
f 70//70 60//60 61//61
f 57//57 71//71 61//61
f 55//55 72//72 67//67
f 57//57 67//67 73//73
f 62//62 74//74 59//59
f 59//59 74//74 63//63
f 62//62 75//75 74//74
f 62//62 68//68 75//75
f 51//51 76//76 69//69
f 45//45 65//65 68//68
f 77//77 53//53 70//70
f 66//66 69//69 78//78
f 70//70 61//61 71//71
f 71//71 57//57 73//73
f 63//63 76//76 51//51
f 65//65 53//53 77//77
f 77//77 70//70 71//71
f 66//66 72//72 55//55
f 63//63 74//74 79//79
f 75//75 80//80 74//74
f 63//63 79//79 76//76
f 81//81 68//68 65//65
f 69//69 76//76 78//78
f 77//77 81//81 65//65
f 78//78 82//82 66//66
f 66//66 82//82 72//72
f 67//67 72//72 83//83
f 73//73 67//67 83//83
f 79//79 74//74 80//80
f 75//75 68//68 80//80
f 80//80 68//68 81//81
f 77//77 84//84 81//81
f 84//84 77//77 71//71
f 85//85 72//72 82//82
f 73//73 83//83 71//71
f 78//78 76//76 82//82
f 71//71 83//83 84//84
f 83//83 72//72 85//85
f 80//80 84//84 79//79
f 80//80 81//81 84//84
f 84//84 86//86 79//79
f 79//79 82//82 76//76
f 82//82 79//79 86//86
f 86//86 85//85 82//82
f 84//84 85//85 86//86
f 84//84 83//83 85//85
