# Blender v2.92.0 OBJ File: 'convert_to_one_sided.blend'
# www.blender.org
mtllib 58L.mtl
o Cube
v 0.001000 0.001000 -0.001000
v 0.001000 -0.001000 -0.001000
v 0.001000 0.001000 0.001000
v 0.001000 -0.001000 0.001000
v -0.001000 0.001000 -0.001000
v -0.001000 -0.001000 -0.001000
v -0.001000 0.001000 0.001000
v -0.001000 -0.001000 0.001000
vt 0.625000 0.500000
vt 0.875000 0.500000
vt 0.875000 0.750000
vt 0.625000 0.750000
vt 0.375000 0.750000
vt 0.625000 1.000000
vt 0.375000 1.000000
vt 0.375000 0.000000
vt 0.625000 0.000000
vt 0.625000 0.250000
vt 0.375000 0.250000
vt 0.125000 0.500000
vt 0.375000 0.500000
vt 0.125000 0.750000
vn 0.0000 1.0000 0.0000
vn 0.0000 0.0000 1.0000
vn -1.0000 0.0000 0.0000
vn 0.0000 -1.0000 0.0000
vn 1.0000 0.0000 0.0000
vn 0.0000 0.0000 -1.0000
usemtl Material
s off
f 1/1/1 5/2/1 7/3/1 3/4/1
f 4/5/2 3/4/2 7/6/2 8/7/2
f 8/8/3 7/9/3 5/10/3 6/11/3
f 6/12/4 2/13/4 4/5/4 8/14/4
f 2/13/5 1/1/5 3/4/5 4/5/5
f 6/11/6 5/10/6 1/1/6 2/13/6
o 58
v 8.529040 4.839627 4.417744
v 8.520270 4.797967 4.406294
v 8.499261 4.814307 4.411504
v 8.490291 4.815437 4.422574
v 8.535140 4.826587 4.423974
v 8.457661 4.857727 4.444124
v 8.469730 4.901736 4.444504
v 8.530150 4.883056 4.458823
v 8.499320 4.951926 4.468624
v 8.512480 4.924876 4.473063
v 8.418872 5.054494 4.508053
v 8.462311 4.845376 4.449014
v 8.483261 4.860577 4.463463
v 8.523550 4.850867 4.443384
v 8.386312 5.010145 4.502583
v 8.402072 4.949625 4.497443
v 8.440931 5.095324 4.545022
v 8.371842 5.080194 4.525103
v 8.493501 4.936056 4.504753
v 8.423712 4.930835 4.508643
v 8.478110 5.021784 4.536363
v 8.353702 5.029554 4.535213
v 8.343992 5.098743 4.548812
v 8.443951 5.014534 4.570912
v 8.354093 5.035894 4.562902
v 8.358612 5.136403 4.554852
v 8.367602 5.080374 4.612381
v 8.468700 5.012495 4.554812
v 8.310203 5.141803 4.593372
v 8.324483 5.196702 4.592272
v 8.366043 5.233862 4.611232
v 8.422281 5.157643 4.594162
v 8.302903 5.308311 4.641271
v 8.454062 5.074514 4.587652
v 8.423521 5.158332 4.617091
v 8.282443 5.268101 4.636501
v 8.303023 5.190423 4.648891
v 8.274774 5.259171 4.651111
v 8.376972 5.261541 4.655461
v 8.254054 5.423499 4.697641
v 8.380152 5.137353 4.651941
v 8.405071 5.148522 4.635511
v 8.246814 5.366990 4.691000
v 8.293674 5.436109 4.710210
v 8.323174 5.399900 4.721090
v 8.380272 5.228632 4.664651
v 8.252653 5.345310 4.703530
v 8.221154 5.449879 4.722010
v 8.334173 5.195922 4.671961
v 8.347102 5.305801 4.699851
v 8.191134 5.506618 4.754890
v 8.209074 5.523118 4.744560
v 8.223694 5.577087 4.765080
v 8.135645 5.870303 4.751470
v 8.130746 5.863363 4.764949
v 8.140125 5.880303 4.755180
v 8.156385 5.862793 4.781049
v 8.347773 5.248141 4.686050
v 8.287193 5.326111 4.715250
v 8.138945 5.771815 4.779940
v 8.159165 5.807855 4.789419
v 8.304893 5.398030 4.744110
v 8.216675 5.485919 4.780250
v 8.174785 5.620956 4.775419
v 8.271983 5.547267 4.784969
v 8.121325 5.779195 4.809529
v 8.153105 5.863834 4.789609
v 8.283703 5.508848 4.800149
v 8.142935 5.680006 4.801409
v 8.185635 5.711515 4.799689
v 8.183524 5.787845 4.822089
v 8.145075 5.821984 4.829439
v 8.166895 5.837484 4.812069
v 8.259903 5.485708 4.798779
v 8.277233 5.497218 4.803519
v 8.158285 5.637567 4.819019
v 8.223564 5.658036 4.822189
v 8.134965 5.719245 4.826259
v 8.200225 5.629477 4.846859
v 8.252254 5.575527 4.831709
v 8.248184 5.596027 4.825239
v 8.155055 5.733725 4.842419
v 8.168885 5.804144 4.834249
v 8.197425 5.699006 4.842929
v 8.167415 5.759185 4.847359
v 8.179615 5.705856 4.843249
vn 0.6222 0.2434 -0.7441
vn 0.3388 -0.9404 0.0296
vn -0.4009 -0.2083 -0.8921
vn -0.5611 -0.8251 0.0658
vn 0.9294 -0.3197 0.1844
vn -0.8570 -0.3539 -0.3747
vn -0.3073 0.2307 -0.9232
vn 0.9553 0.0377 0.2931
vn 0.5722 0.5070 -0.6447
vn 0.8782 0.4031 -0.2572
vn 0.0281 0.4393 -0.8979
vn -0.5882 -0.7047 0.3967
vn 0.0634 -0.6270 0.7765
vn 0.4241 -0.4952 0.7583
vn -0.5503 0.0752 -0.8315
vn -0.8634 -0.3849 -0.3262
vn 0.6365 0.5507 -0.5400
vn -0.3448 0.2991 -0.8898
vn 0.5861 -0.3060 0.7502
vn -0.5110 -0.6490 0.5636
vn 0.9547 0.2747 0.1147
vn -0.8856 -0.2293 -0.4039
vn -0.6314 0.1634 -0.7580
vn 0.2793 -0.4438 0.8515
vn -0.7753 -0.5442 0.3204
vn -0.2121 0.4271 -0.8790
vn -0.3084 -0.5669 0.7638
vn 0.7446 -0.1750 0.6442
vn -0.9306 -0.1502 -0.3337
vn -0.3810 0.3146 -0.8694
vn 0.3937 0.5523 -0.7348
vn 0.8223 0.5029 -0.2662
vn -0.0914 0.4029 -0.9106
vn 0.7550 -0.0728 0.6517
vn 0.9056 0.2265 0.3587
vn -0.6629 0.1367 -0.7361
vn -0.7155 -0.4621 0.5239
vn -0.9664 -0.2274 -0.1199
vn 0.9201 0.3870 0.0603
vn -0.2789 0.3117 -0.9083
vn 0.1908 -0.3598 0.9133
vn 0.5912 -0.1275 0.7964
vn -0.8494 -0.0483 -0.5255
vn 0.4517 0.5065 -0.7344
vn 0.9505 0.3062 0.0529
vn 0.7316 0.0182 0.6815
vn -0.8501 -0.4087 0.3321
vn -0.6002 0.1210 -0.7906
vn -0.2188 -0.4159 0.8827
vn 0.7514 0.0155 0.6596
vn -0.9232 -0.1810 -0.3391
vn -0.3759 0.2252 -0.8989
vn 0.3255 0.4243 -0.8450
vn 0.1845 0.1051 -0.9772
vn -0.9188 0.3887 -0.0682
vn 0.0374 0.9724 -0.2305
vn 0.8749 0.4156 -0.2485
vn 0.3183 -0.2268 0.9204
vn -0.2386 -0.4392 0.8661
vn -0.3729 -0.1328 -0.9183
vn 0.6993 -0.0224 -0.7144
vn 0.4965 -0.2609 0.8279
vn -0.6000 -0.4580 0.6559
vn -0.2775 0.1213 -0.9530
vn 0.8574 0.4460 -0.2568
vn -0.9821 -0.0110 0.1880
vn 0.0899 0.8140 0.5739
vn 0.8726 0.0744 0.4828
vn -0.9378 -0.1932 -0.2886
vn 0.5707 0.2094 -0.7940
vn 0.9631 0.2679 -0.0237
vn -0.4502 0.3844 0.8060
vn 0.7091 0.5575 0.4317
vn -0.0570 -0.4215 0.9050
vn 0.3967 -0.2920 0.8703
vn -0.7839 -0.3288 0.5267
vn 0.9027 0.3950 -0.1708
vn -0.8639 -0.1783 0.4710
vn -0.1693 -0.1878 0.9675
vn 0.4719 -0.0380 0.8808
vn 0.8853 0.3203 0.3372
vn -0.4733 -0.0484 0.8796
vn 0.4375 0.4237 0.7932
vn 0.5908 0.2000 0.7817
vn 0.0057 0.0953 0.9954
vn 0.0121 -0.0145 0.9998
usemtl mtl1.525
s 1
f 9//7 10//8 11//9
f 10//8 12//10 11//9
f 9//7 13//11 10//8
f 14//12 11//9 12//10
f 15//13 11//9 14//12
f 9//7 11//9 15//13
f 9//7 16//14 13//11
f 15//13 17//15 9//7
f 18//16 9//7 17//15
f 17//15 15//13 19//17
f 20//18 12//10 21//19
f 10//8 21//19 12//10
f 22//20 10//8 13//11
f 12//10 20//18 14//12
f 9//7 18//16 16//14
f 15//13 23//21 19//17
f 21//19 10//8 22//20
f 22//20 13//11 16//14
f 15//13 14//12 24//22
f 23//21 15//13 24//22
f 19//17 25//23 17//15
f 23//21 26//24 19//17
f 16//14 27//25 22//20
f 20//18 28//26 14//12
f 14//12 28//26 24//22
f 21//19 22//20 27//25
f 20//18 21//19 28//26
f 29//27 27//25 16//14
f 18//16 29//27 16//14
f 23//21 24//22 30//28
f 31//29 23//21 30//28
f 26//24 23//21 31//29
f 32//30 21//19 27//25
f 24//22 28//26 33//31
f 24//22 33//31 30//28
f 18//16 17//15 29//27
f 25//23 29//27 17//15
f 31//29 34//32 26//24
f 19//17 26//24 34//32
f 21//19 32//30 28//26
f 33//31 28//26 35//33
f 27//25 29//27 36//34
f 37//35 31//29 30//28
f 38//36 31//29 37//35
f 31//29 38//36 34//32
f 34//32 39//37 19//17
f 19//17 39//37 25//23
f 28//26 32//30 35//33
f 27//25 36//34 32//30
f 25//23 40//38 29//27
f 40//38 25//23 39//37
f 34//32 38//36 39//37
f 38//36 41//39 39//37
f 36//34 42//40 32//30
f 36//34 29//27 42//40
f 30//28 33//31 37//35
f 29//27 43//41 42//40
f 29//27 40//38 43//41
f 38//36 37//35 44//42
f 38//36 44//42 41//39
f 33//31 35//33 45//43
f 33//31 45//43 37//35
f 37//35 46//44 44//42
f 47//45 40//38 39//37
f 41//39 44//42 48//46
f 32//30 49//47 35//33
f 42//40 50//48 32//30
f 46//44 37//35 45//43
f 42//40 43//41 50//48
f 40//38 47//45 43//41
f 51//49 44//42 46//44
f 51//49 48//46 44//42
f 41//39 52//50 39//37
f 53//51 39//37 52//50
f 41//39 48//46 52//50
f 32//30 50//48 49//47
f 54//52 50//48 43//41
f 55//53 46//44 45//43
f 47//45 54//52 43//41
f 46//44 55//53 51//49
f 39//37 53//51 47//45
f 56//54 48//46 51//49
f 45//43 35//33 57//55
f 49//47 57//55 35//33
f 54//52 47//45 58//56
f 51//49 55//53 59//57
f 47//45 53//51 58//56
f 56//54 51//49 59//57
f 60//58 56//54 59//57
f 56//54 60//58 48//46
f 52//50 48//46 61//59
f 62//60 63//61 64//62
f 65//63 62//60 64//62
f 49//47 66//64 57//55
f 49//47 50//48 66//64
f 67//65 45//43 57//55
f 50//48 54//52 66//64
f 45//43 67//65 55//53
f 54//52 58//56 66//64
f 60//58 61//59 48//46
f 62//60 68//66 63//61
f 65//63 69//67 62//60
f 66//64 67//65 57//55
f 66//64 58//56 70//68
f 55//53 67//65 71//69
f 55//53 71//69 59//57
f 53//51 70//68 58//56
f 60//58 59//57 72//70
f 73//71 52//50 61//59
f 61//59 60//58 72//70
f 69//67 68//66 62//60
f 63//61 68//66 74//72
f 75//73 64//62 63//61
f 65//63 64//62 75//73
f 70//68 67//65 66//64
f 70//68 53//51 76//74
f 72//70 59//57 77//75
f 52//50 73//71 53//51
f 61//59 72//70 78//76
f 68//66 72//70 77//75
f 68//66 78//76 72//70
f 74//72 68//66 77//75
f 78//76 68//66 69//67
f 65//63 79//77 69//67
f 63//61 80//78 75//73
f 65//63 75//73 81//79
f 70//68 82//80 67//65
f 67//65 82//80 71//69
f 70//68 83//81 82//80
f 70//68 76//74 83//81
f 59//57 84//82 77//75
f 53//51 73//71 76//74
f 85//83 61//59 78//76
f 74//72 77//75 86//84
f 78//76 69//67 79//77
f 79//77 65//63 81//79
f 71//69 84//82 59//57
f 73//71 61//59 85//83
f 85//83 78//76 79//77
f 74//72 80//78 63//61
f 71//69 82//80 87//85
f 83//81 88//86 82//80
f 71//69 87//85 84//82
f 89//87 76//74 73//71
f 77//75 84//82 86//84
f 85//83 89//87 73//71
f 86//84 90//88 74//72
f 74//72 90//88 80//78
f 75//73 80//78 91//89
f 81//79 75//73 91//89
f 87//85 82//80 88//86
f 83//81 76//74 88//86
f 88//86 76//74 89//87
f 85//83 92//90 89//87
f 92//90 85//83 79//77
f 93//91 80//78 90//88
f 81//79 91//89 79//77
f 86//84 84//82 90//88
f 79//77 91//89 92//90
f 91//89 80//78 93//91
f 88//86 92//90 87//85
f 88//86 89//87 92//90
f 92//90 94//92 87//85
f 87//85 90//88 84//82
f 90//88 87//85 94//92
f 94//92 93//91 90//88
f 92//90 93//91 94//92
f 92//90 91//89 93//91
