# Blender v2.92.0 OBJ File: 'convert_to_one_sided.blend'
# www.blender.org
mtllib 599626927L.mtl
o Cube
v 0.001000 0.001000 -0.001000
v 0.001000 -0.001000 -0.001000
v 0.001000 0.001000 0.001000
v 0.001000 -0.001000 0.001000
v -0.001000 0.001000 -0.001000
v -0.001000 -0.001000 -0.001000
v -0.001000 0.001000 0.001000
v -0.001000 -0.001000 0.001000
vt 0.625000 0.500000
vt 0.875000 0.500000
vt 0.875000 0.750000
vt 0.625000 0.750000
vt 0.375000 0.750000
vt 0.625000 1.000000
vt 0.375000 1.000000
vt 0.375000 0.000000
vt 0.625000 0.000000
vt 0.625000 0.250000
vt 0.375000 0.250000
vt 0.125000 0.500000
vt 0.375000 0.500000
vt 0.125000 0.750000
vn 0.0000 1.0000 0.0000
vn 0.0000 0.0000 1.0000
vn -1.0000 0.0000 0.0000
vn 0.0000 -1.0000 0.0000
vn 1.0000 0.0000 0.0000
vn 0.0000 0.0000 -1.0000
usemtl Material
s off
f 1/1/1 5/2/1 7/3/1 3/4/1
f 4/5/2 3/4/2 7/6/2 8/7/2
f 8/8/3 7/9/3 5/10/3 6/11/3
f 6/12/4 2/13/4 4/5/4 8/14/4
f 2/13/5 1/1/5 3/4/5 4/5/5
f 6/11/6 5/10/6 1/1/6 2/13/6
o 599626927
v 10.643764 4.570890 5.291713
v 10.638663 4.626689 5.299373
v 10.710563 4.606530 5.299823
v 10.696162 4.543150 5.316853
v 10.763762 4.579210 5.318563
v 10.586564 4.589580 5.327783
v 10.590163 4.647589 5.340242
v 10.784061 4.639149 5.337122
v 10.633463 4.684209 5.340022
v 10.717762 4.685209 5.350582
v 10.612864 4.539291 5.345162
v 10.755161 4.524681 5.348972
v 10.804361 4.581050 5.363702
v 10.793661 4.689389 5.383272
v 10.671763 4.499881 5.387242
v 10.557664 4.627100 5.398382
v 10.820261 4.641169 5.401241
v 10.601963 4.688589 5.386432
v 10.765461 4.722838 5.409351
v 10.657462 4.712568 5.387592
v 10.590464 4.518891 5.421911
v 10.757262 4.494451 5.418652
v 10.799762 4.535021 5.397501
v 10.577964 4.567101 5.394851
v 10.719262 4.729768 5.433501
v 10.827161 4.579940 5.429901
v 10.582064 4.681269 5.441371
v 10.768762 4.730928 5.445901
v 10.709462 4.482361 5.455291
v 10.654263 4.497602 5.473021
v 10.827360 4.631299 5.477341
v 10.791661 4.693769 5.445940
v 10.612063 4.524181 5.501410
v 10.805660 4.532570 5.457131
v 10.762261 4.508541 5.490170
v 10.579663 4.576750 5.470690
v 10.643662 4.711258 5.445441
v 10.576864 4.647180 5.467261
v 10.755661 4.716218 5.487930
v 10.818761 4.574960 5.489110
v 10.632363 4.684628 5.507640
v 10.709661 4.504501 5.509300
v 10.793861 4.549830 5.512380
v 10.695962 4.710458 5.487320
v 10.679763 4.535001 5.547379
v 10.791961 4.597400 5.536230
v 10.615363 4.625810 5.531550
v 10.778261 4.664189 5.515890
v 10.634263 4.574260 5.541959
v 10.658063 4.656669 5.561139
v 10.714662 4.672929 5.535240
v 10.745262 4.544301 5.531450
v 10.744862 4.629859 5.558529
v 10.655863 4.614390 5.568289
v 10.678263 4.587920 5.572659
v 10.721763 4.591560 5.557749
v 10.692762 4.624440 5.557799
vn -0.2193 -0.3243 -0.9202
vn -0.2271 0.3523 -0.9079
vn 0.2183 0.1207 -0.9684
vn 0.0772 -0.6295 -0.7732
vn 0.4869 -0.2432 -0.8389
vn -0.7828 -0.1623 -0.6007
vn -0.6939 0.4324 -0.5758
vn 0.6027 0.2866 -0.7447
vn -0.2646 0.7400 -0.6184
vn 0.1383 0.7141 -0.6862
vn -0.5127 -0.6998 -0.4974
vn 0.4178 -0.7027 -0.5759
vn 0.8316 -0.2136 -0.5127
vn 0.6634 0.6135 -0.4285
vn -0.1333 -0.9351 -0.3284
vn -0.9843 0.1441 -0.1018
vn 0.9383 0.2392 -0.2498
vn -0.5949 0.7665 -0.2421
vn 0.3994 0.8495 -0.3446
vn -0.1770 0.9360 -0.3043
vn -0.7007 -0.7119 -0.0465
vn 0.3988 -0.9055 -0.1448
vn 0.7650 -0.5743 -0.2915
vn -0.9172 -0.3659 -0.1578
vn -0.0699 0.9963 -0.0494
vn 0.9720 -0.2129 -0.0995
vn -0.7283 0.6675 0.1548
vn 0.4597 0.8832 0.0929
vn 0.0413 -0.9921 0.1181
vn -0.2744 -0.9298 0.2453
vn 0.9293 0.2387 0.2817
vn 0.8103 0.5709 0.1322
vn -0.6142 -0.5999 0.5127
vn 0.7741 -0.6209 0.1235
vn 0.4193 -0.8094 0.4113
vn -0.9169 -0.1958 0.3477
vn -0.3385 0.9328 0.1235
vn -0.8704 0.2560 0.4205
vn 0.2996 0.8026 0.5158
vn 0.9034 -0.2584 0.3423
vn -0.4501 0.7240 0.5228
vn 0.0857 -0.8288 0.5529
vn 0.6258 -0.5189 0.5823
vn -0.1422 0.8857 0.4420
vn -0.0788 -0.6082 0.7899
vn 0.6126 -0.0809 0.7863
vn -0.7449 0.1410 0.6521
vn 0.5860 0.5090 0.6305
vn -0.6090 -0.2617 0.7488
vn -0.2027 0.4553 0.8670
vn 0.0977 0.6424 0.7601
vn 0.3167 -0.5174 0.7950
vn 0.2512 0.2576 0.9330
vn -0.3201 0.0570 0.9457
vn -0.0366 -0.1303 0.9908
vn 0.2523 -0.1850 0.9498
vn 0.1409 0.2358 0.9615
usemtl mtl1.546
s 1
f 9//7 10//8 11//9
f 11//9 12//10 9//7
f 11//9 13//11 12//10
f 10//8 14//12 15//13
f 9//7 14//12 10//8
f 13//11 11//9 16//14
f 10//8 15//13 17//15
f 10//8 18//16 11//9
f 16//14 11//9 18//16
f 19//17 9//7 12//10
f 9//7 19//17 14//12
f 20//18 12//10 13//11
f 13//11 16//14 21//19
f 17//15 18//16 10//8
f 16//14 18//16 22//20
f 19//17 12//10 23//21
f 12//10 20//18 23//21
f 21//19 20//18 13//11
f 24//22 15//13 14//12
f 25//23 21//19 16//14
f 26//24 15//13 24//22
f 15//13 26//24 17//15
f 22//20 18//16 27//25
f 18//16 17//15 28//26
f 29//27 19//17 23//21
f 23//21 20//18 30//28
f 20//18 31//29 30//28
f 19//17 29//27 32//30
f 19//17 32//30 14//12
f 32//30 24//22 14//12
f 16//14 22//20 25//23
f 17//15 26//24 28//26
f 33//31 18//16 28//26
f 27//25 18//16 33//31
f 20//18 21//19 31//29
f 31//29 21//19 34//32
f 34//32 21//19 25//23
f 26//24 24//22 35//33
f 27//25 33//31 36//34
f 23//21 37//35 38//36
f 23//21 30//28 37//35
f 23//21 38//36 29//27
f 34//32 25//23 39//37
f 22//20 27//25 40//38
f 29//27 38//36 41//39
f 30//28 42//40 43//41
f 31//29 42//40 30//28
f 44//42 32//30 29//27
f 31//29 34//32 42//40
f 25//23 22//20 40//38
f 28//26 26//24 45//43
f 27//25 36//34 40//38
f 28//26 45//43 33//31
f 30//28 43//41 37//35
f 32//30 44//42 24//22
f 44//42 46//44 24//22
f 24//22 46//44 35//33
f 35//33 45//43 26//24
f 36//34 33//31 47//45
f 44//42 29//27 41//39
f 34//32 48//46 42//40
f 34//32 39//37 48//46
f 49//47 35//33 46//44
f 45//43 35//33 49//47
f 47//45 40//38 36//34
f 37//35 43//41 50//48
f 51//49 42//40 48//46
f 25//23 40//38 39//37
f 45//43 49//47 52//50
f 45//43 52//50 33//31
f 47//45 33//31 52//50
f 50//48 38//36 37//35
f 38//36 53//51 41//39
f 42//40 51//49 43//41
f 39//37 54//52 48//46
f 55//53 49//47 46//44
f 40//38 56//54 39//37
f 40//38 47//45 56//54
f 50//48 53//51 38//36
f 41//39 57//55 44//42
f 54//52 51//49 48//46
f 44//42 55//53 46//44
f 54//52 39//37 56//54
f 49//47 58//56 59//57
f 52//50 59//57 47//45
f 59//57 56//54 47//45
f 49//47 59//57 52//50
f 43//41 60//58 50//48
f 43//41 51//49 60//58
f 41//39 53//51 57//55
f 60//58 51//49 54//52
f 44//42 57//55 55//53
f 54//52 56//54 61//59
f 49//47 55//53 58//56
f 56//54 59//57 61//59
f 53//51 50//48 60//58
f 57//55 62//60 55//53
f 62//60 58//56 55//53
f 57//55 53//51 63//61
f 53//51 60//58 64//62
f 63//61 53//51 64//62
f 62//60 57//55 63//61
f 60//58 54//52 64//62
f 61//59 64//62 54//52
f 65//63 58//56 62//60
f 65//63 61//59 59//57
f 58//56 65//63 59//57
f 65//63 62//60 63//61
f 64//62 65//63 63//61
f 64//62 61//59 65//63
