# Blender v2.92.0 OBJ File: 'convert_to_one_sided.blend'
# www.blender.org
mtllib 59L.mtl
o Cube
v 0.001000 0.001000 -0.001000
v 0.001000 -0.001000 -0.001000
v 0.001000 0.001000 0.001000
v 0.001000 -0.001000 0.001000
v -0.001000 0.001000 -0.001000
v -0.001000 -0.001000 -0.001000
v -0.001000 0.001000 0.001000
v -0.001000 -0.001000 0.001000
vt 0.625000 0.500000
vt 0.875000 0.500000
vt 0.875000 0.750000
vt 0.625000 0.750000
vt 0.375000 0.750000
vt 0.625000 1.000000
vt 0.375000 1.000000
vt 0.375000 0.000000
vt 0.625000 0.000000
vt 0.625000 0.250000
vt 0.375000 0.250000
vt 0.125000 0.500000
vt 0.375000 0.500000
vt 0.125000 0.750000
vn 0.0000 1.0000 0.0000
vn 0.0000 0.0000 1.0000
vn -1.0000 0.0000 0.0000
vn 0.0000 -1.0000 0.0000
vn 1.0000 0.0000 0.0000
vn 0.0000 0.0000 -1.0000
usemtl Material
s off
f 1/1/1 5/2/1 7/3/1 3/4/1
f 4/5/2 3/4/2 7/6/2 8/7/2
f 8/8/3 7/9/3 5/10/3 6/11/3
f 6/12/4 2/13/4 4/5/4 8/14/4
f 2/13/5 1/1/5 3/4/5 4/5/5
f 6/11/6 5/10/6 1/1/6 2/13/6
o 59
v 7.370015 4.152606 5.480720
v 7.370245 4.021097 5.490600
v 7.347345 4.039337 5.488970
v 7.309696 4.121366 5.494590
v 7.339816 4.315323 5.475100
v 7.372765 4.309453 5.485700
v 7.250047 4.301454 5.496180
v 7.283756 4.410242 5.479051
v 7.208907 4.407043 5.493640
v 7.339276 4.416392 5.493361
v 7.235467 4.444662 5.488881
v 7.285186 4.454372 5.495530
v 7.285846 3.892739 5.517729
v 7.260647 3.882329 5.524389
v 7.299116 3.960048 5.508369
v 7.332196 3.961148 5.511070
v 7.366785 3.980718 5.519889
v 7.389815 4.075787 5.505900
v 7.391395 4.205085 5.499670
v 7.411175 4.175325 5.529709
v 7.249116 4.165245 5.520639
v 7.197757 4.201575 5.536349
v 7.166988 4.290524 5.526279
v 7.131208 4.364933 5.524240
v 7.169767 4.426822 5.514660
v 7.376695 4.392023 5.512290
v 7.395765 4.289564 5.520840
v 7.222287 4.455721 5.511790
v 7.323856 4.468912 5.517080
v 7.286566 4.474782 5.527770
v 7.243977 3.853339 5.545339
v 7.311326 3.915659 5.538029
v 7.238037 3.941978 5.529369
v 7.205687 4.055977 5.540709
v 7.036109 4.378882 5.549999
v 7.090549 4.398992 5.543059
v 7.120728 4.423052 5.573479
v 7.354486 4.447152 5.565519
v 7.222957 4.457912 5.572949
v 7.325216 4.472502 5.574339
v 7.180187 3.820080 5.557429
v 7.211537 3.863309 5.545879
v 7.117788 3.893599 5.564899
v 7.358736 3.949638 5.596138
v 7.397255 4.053697 5.552539
v 7.415724 4.237435 5.591989
v 7.108268 4.242474 5.551979
v 7.001770 4.272354 5.566519
v 7.388145 4.369943 5.607448
v 6.867822 3.793060 5.579518
v 7.084109 3.793920 5.576029
v 7.098089 3.757261 5.590659
v 7.171098 3.809640 5.578359
v 7.130258 4.028647 5.569199
v 6.407908 3.967108 5.576748
v 6.300599 3.970878 5.582819
v 6.369828 4.046157 5.575489
v 6.542936 4.093356 5.570279
v 6.300369 4.032607 5.589038
v 6.483336 4.132966 5.571349
v 6.393708 4.093027 5.585309
v 7.113338 4.111466 5.567329
v 6.744153 4.133506 5.577429
v 6.711413 4.202115 5.563289
v 6.467437 4.144876 5.583768
v 6.623845 4.193965 5.565269
v 6.833962 4.240345 5.572089
v 6.565455 4.192075 5.577309
v 6.734114 4.242064 5.566719
v 7.417244 4.102876 5.606598
v 6.671004 4.239275 5.572459
v 6.593275 4.220745 5.615868
v 6.704514 4.264754 5.618458
v 6.791392 4.282344 5.582759
v 6.925501 4.325093 5.578649
v 6.854562 4.316323 5.585848
v 7.010870 4.374633 5.586679
v 7.279286 4.468751 5.615808
v 6.637644 3.672122 5.610898
v 6.711704 3.716811 5.595068
v 6.765843 3.665822 5.615368
v 6.895431 3.687572 5.608879
v 6.580775 3.710731 5.604958
v 6.951430 3.740461 5.594688
v 7.019860 3.724261 5.609888
v 6.473197 3.782230 5.606258
v 6.594895 3.858520 5.588518
v 6.783483 3.892519 5.587769
v 6.938971 3.919128 5.589738
v 6.389188 3.897689 5.594328
v 6.674554 3.992508 5.586729
v 7.254237 3.857029 5.605888
v 7.017669 3.995648 5.585958
v 6.291679 3.935578 5.604108
v 6.369968 3.858349 5.612508
v 6.884091 3.985038 5.593788
v 6.946890 3.966708 5.589859
v 6.269410 3.987298 5.607038
v 6.837592 4.068646 5.592198
v 7.398365 4.022577 5.628278
v 6.255699 4.020207 5.647218
v 6.285759 4.042837 5.642968
v 6.340148 4.068307 5.620648
v 6.883421 4.164886 5.582448
v 6.977820 4.120336 5.577279
v 6.407487 4.113106 5.628288
v 6.493156 4.162235 5.628508
v 6.811192 4.302864 5.613938
v 6.888152 4.328353 5.623038
v 6.691784 3.651212 5.665247
v 6.854762 3.658662 5.673878
v 6.969200 3.692081 5.670557
v 6.584156 3.673482 5.683097
v 6.536916 3.716771 5.628558
v 6.428247 3.785430 5.659247
v 7.132758 3.777660 5.613358
v 6.256699 3.963208 5.666557
v 6.250219 4.001468 5.689827
v 7.190207 4.447752 5.657609
v 7.335986 4.469162 5.686338
v 6.765453 3.651772 5.674407
v 6.503546 3.720131 5.696097
v 7.080439 3.743121 5.669757
v 6.322278 3.884019 5.688287
v 7.420994 4.190345 5.695717
v 7.407475 4.310973 5.679148
v 6.783053 4.298964 5.691047
v 6.981530 4.374153 5.691377
v 6.439467 4.139366 5.686088
v 7.376555 4.435113 5.699999
v 7.395267 4.375599 5.699999
v 6.603872 3.667398 5.699999
v 6.582252 3.673188 5.699999
v 6.567878 3.680978 5.699999
v 7.408573 4.303016 5.699999
v 6.774487 4.295444 5.699999
v 6.789446 4.301676 5.699999
v 6.397400 3.805427 5.699999
v 7.003566 4.383382 5.699999
v 6.446307 3.766096 5.699999
v 6.985334 4.376508 5.699999
v 6.964407 4.367946 5.699999
v 6.977608 4.372844 5.699999
v 7.183820 3.801746 5.699999
v 7.389155 3.986157 5.699999
v 7.413352 4.062994 5.699999
v 6.267834 4.038861 5.699999
v 6.266856 3.949250 5.699999
v 6.254564 4.025080 5.699999
v 6.258345 3.976221 5.699999
v 7.376121 4.436305 5.699999
v 6.270935 4.041271 5.699999
v 7.414365 4.067000 5.699999
v 6.338866 4.079378 5.699999
v 6.251170 4.008215 5.699999
v 6.252244 3.999589 5.699999
v 7.372326 4.439481 5.699999
v 6.344067 4.082129 5.699999
v 7.403266 4.338908 5.699999
v 6.645695 4.246881 5.699999
v 6.541210 4.196897 5.699999
v 7.249326 4.465732 5.699999
v 7.149733 4.437763 5.699999
v 7.194524 4.452486 5.699999
v 6.646572 4.247226 5.699999
v 6.372675 4.099892 5.699999
v 7.323663 4.472219 5.699999
v 7.334408 4.469944 5.699999
v 7.338693 4.466372 5.699999
v 6.349155 4.085433 5.699999
v 6.485011 4.165590 5.699999
v 6.761054 3.651861 5.699999
v 6.440413 4.139909 5.699999
v 6.525703 4.187669 5.699999
v 6.506338 3.717929 5.699999
v 6.498721 3.723594 5.699999
v 7.326203 3.908372 5.699999
v 7.207059 3.816782 5.699999
v 7.385215 3.978119 5.699999
v 7.076646 3.740821 5.699999
v 7.317468 3.900731 5.699999
v 6.334254 3.868838 5.699999
v 6.314652 3.892426 5.699999
v 6.322832 3.882092 5.699999
v 7.420530 4.194940 5.699999
v 7.148455 3.780989 5.699999
v 7.290251 4.476487 5.699999
v 6.664994 3.653744 5.699999
v 6.730965 3.651650 5.699999
v 7.417593 4.127461 5.699999
v 6.891912 3.666944 5.699999
v 6.802980 3.655100 5.699999
v 6.855430 3.659998 5.699999
v 7.420907 4.187941 5.699999
v 6.655475 4.250634 5.699999
v 6.959608 3.686527 5.699999
v 7.009166 3.709868 5.699999
vn 0.3236 -0.0361 -0.9455
vn 0.4768 -0.2771 -0.8342
vn -0.0569 -0.1536 -0.9865
vn -0.2985 -0.0580 -0.9527
vn 0.0578 0.0288 -0.9979
vn 0.6235 0.1148 -0.7733
vn -0.2997 -0.1338 -0.9446
vn -0.0142 0.1352 -0.9907
vn -0.3068 0.0383 -0.9510
vn 0.4766 0.3841 -0.7908
vn -0.2302 0.4630 -0.8559
vn 0.0608 0.6582 -0.7504
vn 0.3304 -0.5165 -0.7899
vn -0.1760 -0.3137 -0.9331
vn -0.1221 -0.1432 -0.9821
vn 0.3470 -0.4400 -0.8282
vn 0.7851 -0.4790 -0.3926
vn 0.8510 -0.1423 -0.5055
vn 0.7823 0.0177 -0.6227
vn 0.9527 -0.0252 -0.3028
vn -0.3983 -0.0915 -0.9127
vn -0.3015 -0.1305 -0.9445
vn -0.2908 -0.1852 -0.9387
vn -0.3072 -0.0068 -0.9516
vn -0.4597 0.5136 -0.7244
vn 0.8529 0.3423 -0.3941
vn 0.9346 0.1364 -0.3286
vn -0.2993 0.8771 -0.3757
vn 0.4340 0.7944 -0.4249
vn -0.0756 0.9783 -0.1929
vn 0.3223 -0.7600 -0.5644
vn 0.6628 -0.6904 -0.2898
vn -0.3154 -0.0549 -0.9474
vn -0.3443 -0.0188 -0.9387
vn -0.3763 0.4420 -0.8142
vn -0.4045 0.6723 -0.6200
vn -0.3903 0.9040 -0.1747
vn 0.7705 0.6149 -0.1679
vn -0.2726 0.9621 -0.0082
vn 0.2941 0.9554 -0.0246
vn 0.0099 -0.4891 -0.8722
vn -0.1915 -0.2493 -0.9493
vn -0.1918 -0.0109 -0.9814
vn 0.8028 -0.5856 -0.1120
vn 0.9441 -0.2708 -0.1878
vn 0.9898 0.1108 -0.0891
vn -0.1965 -0.1378 -0.9708
vn -0.1479 -0.0451 -0.9880
vn 0.9588 0.2689 -0.0914
vn -0.0280 -0.0656 -0.9975
vn 0.0227 -0.3736 -0.9273
vn 0.2702 -0.7160 -0.6437
vn 0.3787 -0.8204 -0.4285
vn -0.2497 -0.0072 -0.9683
vn -0.0248 -0.1104 -0.9936
vn -0.3426 -0.1301 -0.9304
vn -0.1677 0.1397 -0.9759
vn 0.0039 -0.0565 -0.9984
vn -0.5640 0.5055 -0.6530
vn -0.2243 0.3178 -0.9212
vn -0.4607 0.6532 -0.6009
vn -0.1912 -0.0868 -0.9777
vn 0.0744 -0.1228 -0.9896
vn 0.0350 -0.0309 -0.9989
vn -0.4660 0.7701 -0.4356
vn -0.1183 0.2141 -0.9696
vn 0.0166 0.0620 -0.9979
vn -0.3773 0.7062 -0.5991
vn -0.0338 0.2771 -0.9603
vn 0.9892 -0.1171 -0.0882
vn -0.2707 0.7012 -0.6595
vn -0.4309 0.8841 -0.1810
vn -0.3401 0.9179 -0.2043
vn -0.2226 0.6526 -0.7243
vn -0.2616 0.5644 -0.7830
vn -0.2803 0.8783 -0.3873
vn -0.4260 0.8609 -0.2781
vn -0.0953 0.9954 0.0022
vn -0.2100 -0.7646 -0.6093
vn -0.0257 -0.2594 -0.9654
vn 0.0443 -0.8393 -0.5419
vn 0.1603 -0.7295 -0.6650
vn -0.2598 -0.4591 -0.8496
vn 0.0497 -0.3990 -0.9156
vn 0.3130 -0.8548 -0.4139
vn -0.3210 -0.4237 -0.8470
vn -0.0360 -0.0837 -0.9958
vn 0.0034 0.0449 -0.9990
vn -0.0598 0.0647 -0.9961
vn -0.1791 -0.2959 -0.9383
vn 0.0416 -0.0462 -0.9981
vn 0.5925 -0.7989 -0.1035
vn -0.0952 -0.0116 -0.9954
vn -0.6401 -0.5067 -0.5775
vn -0.5389 -0.6057 -0.5853
vn -0.0261 -0.0052 -0.9996
vn -0.0593 0.0114 -0.9982
vn -0.8625 -0.0552 -0.5030
vn 0.0033 -0.0731 -0.9973
vn 0.9379 -0.3320 -0.1009
vn -0.8523 0.4647 -0.2402
vn -0.5497 0.8086 -0.2096
vn -0.5152 0.8262 -0.2277
vn -0.0102 -0.0963 -0.9953
vn -0.0864 -0.0758 -0.9934
vn -0.5254 0.8373 -0.1511
vn -0.4859 0.8643 -0.1302
vn -0.3535 0.9161 -0.1893
vn -0.3138 0.9320 -0.1812
vn -0.0810 -0.9877 -0.1340
vn 0.1617 -0.9795 -0.1201
vn 0.3444 -0.9285 -0.1391
vn -0.3782 -0.9151 -0.1400
vn -0.4926 -0.7566 -0.4300
vn -0.6234 -0.7391 -0.2552
vn 0.4913 -0.8621 -0.1245
vn -0.9169 -0.3919 -0.0753
vn -0.9985 -0.0423 -0.0348
vn -0.2881 0.9566 -0.0443
vn 0.4255 0.9048 -0.0187
vn 0.0488 -0.9919 -0.1173
vn -0.5647 -0.8146 -0.1326
vn 0.4492 -0.8902 -0.0761
vn -0.7375 -0.6627 -0.1301
vn 0.4745 -0.5884 0.6547
vn 0.5346 -0.5322 0.6565
vn 0.9996 0.0285 -0.0016
vn 0.9867 0.1587 -0.0361
vn -0.3500 0.9355 -0.0486
vn -0.3684 0.9268 -0.0727
vn 0.7009 -0.0349 0.7124
vn 0.7243 -0.1183 0.6793
vn -0.5004 0.8637 -0.0600
vn 0.2905 -0.6459 0.7060
vn 0.3243 -0.6494 0.6879
vn 0.4403 -0.6224 0.6471
vn -0.7343 0.3671 0.5710
vn -0.7523 0.0743 0.6546
vn -0.4325 0.6391 0.6360
vn -0.3608 0.6554 0.6635
vn -0.6252 -0.1431 0.7672
vn -0.6432 -0.2131 0.7354
vn 0.6764 0.3912 0.6241
vn 0.4431 0.5480 0.7095
vn -0.3615 -0.6429 0.6753
vn -0.3931 -0.6395 0.6607
vn -0.1891 0.7084 0.6800
vn -0.1971 0.7151 0.6707
vn -0.2860 -0.6830 0.6721
vn -0.1505 -0.7193 0.6782
vn 0.3728 -0.6297 0.6815
vn -0.4455 -0.5868 0.6762
vn -0.5390 -0.5529 0.6355
vn -0.5553 -0.4651 0.6894
vn -0.5613 -0.4604 0.6877
vn -0.5965 -0.4079 0.6912
vn -0.3557 0.6482 0.6733
vn -0.3542 0.6191 0.7009
vn -0.2598 0.7040 0.6610
vn -0.2822 0.6841 0.6725
vn 0.7130 -0.0131 0.7010
vn 0.7071 0.0677 0.7038
vn -0.2635 0.6813 0.6829
vn -0.2415 0.6484 0.7220
vn 0.4152 0.5464 0.7274
vn 0.2436 -0.7031 0.6681
vn 0.1115 -0.6879 0.7172
vn 0.0413 -0.7007 0.7122
vn 0.1878 -0.7037 0.6852
vn 0.0085 -0.7053 0.7088
vn -0.1338 -0.7370 0.6625
vn -0.5462 -0.5332 0.6460
vn 0.6599 -0.3872 0.6438
vn -0.4492 -0.5710 0.6871
vn -0.3866 0.6040 0.6969
vn 0.2891 0.6961 0.6572
vn -0.0595 0.7436 0.6660
vn 0.0820 0.7311 0.6773
vn -0.3857 0.6349 0.6694
vn -0.2533 0.6782 0.6898
vn -0.2493 0.7012 0.6680
vn -0.3620 0.6429 0.6751
vn -0.2842 0.6748 0.6811
vn -0.2317 0.6930 0.6827
vn -0.3949 0.6250 0.6733
vn -0.4452 0.6418 0.6244
vn 0.7020 -0.1836 0.6881
vn 0.6791 -0.2995 0.6701
vn -0.2613 0.6566 0.7076
vn -0.2558 0.6553 0.7107
vn 0.7016 0.0929 0.7064
vn 0.7168 0.1440 0.6823
vn 0.7237 0.1967 0.6615
vn 0.7052 0.2577 0.6605
vn 0.3527 -0.6319 0.6901
vn 0.0157 -0.7090 0.7050
vn -0.3837 0.6567 0.6492
usemtl mtl1.536
s 1
f 9//7 10//8 11//9
f 9//7 12//10 13//11
f 13//11 14//12 9//7
f 12//10 15//13 13//11
f 13//11 15//13 16//14
f 16//14 15//13 17//15
f 14//12 13//11 18//16
f 19//17 16//14 17//15
f 13//11 16//14 18//16
f 20//18 16//14 19//17
f 18//16 16//14 20//18
f 21//19 22//20 23//21
f 24//22 21//19 23//21
f 11//9 24//22 23//21
f 25//23 24//22 10//8
f 11//9 10//8 24//22
f 26//24 25//23 10//8
f 11//9 23//21 12//10
f 10//8 9//7 26//24
f 26//24 9//7 27//25
f 27//25 28//26 26//24
f 11//9 12//10 9//7
f 14//12 27//25 9//7
f 15//13 29//27 30//28
f 12//10 29//27 15//13
f 15//13 30//28 31//29
f 31//29 32//30 15//13
f 15//13 32//30 17//15
f 33//31 17//15 32//30
f 34//32 35//33 14//12
f 14//12 18//16 34//32
f 17//15 33//31 19//17
f 36//34 19//17 33//31
f 18//16 20//18 37//35
f 20//18 19//17 36//34
f 38//36 20//18 36//34
f 37//35 20//18 38//36
f 22//20 21//19 39//37
f 40//38 21//19 24//22
f 22//20 41//39 23//21
f 24//22 25//23 40//38
f 12//10 41//39 42//40
f 23//21 41//39 12//10
f 29//27 12//10 42//40
f 27//25 35//33 28//26
f 27//25 14//12 35//33
f 32//30 43//41 44//42
f 32//30 44//42 33//31
f 33//31 44//42 45//43
f 34//32 18//16 46//44
f 33//31 45//43 36//34
f 18//16 37//35 46//44
f 36//34 47//45 38//36
f 48//46 37//35 38//36
f 49//47 50//48 39//37
f 39//37 50//48 22//20
f 39//37 21//19 40//38
f 41//39 50//48 51//49
f 50//48 41//39 22//20
f 51//49 42//40 41//39
f 52//50 40//38 25//23
f 25//23 26//24 53//51
f 26//24 28//26 53//51
f 29//27 42//40 30//28
f 28//26 35//33 54//52
f 31//29 30//28 55//53
f 56//54 32//30 55//53
f 31//29 55//53 32//30
f 54//52 35//33 57//55
f 56//54 43//41 32//30
f 34//32 57//55 35//33
f 34//32 46//44 57//55
f 48//46 46//44 37//35
f 58//56 51//49 59//57
f 60//58 59//57 61//59
f 49//47 59//57 51//49
f 59//57 49//47 61//59
f 49//47 39//37 61//59
f 49//47 51//49 50//48
f 42//40 51//49 62//60
f 63//61 64//62 65//63
f 66//64 63//61 65//63
f 65//63 64//62 67//65
f 66//64 65//63 68//66
f 69//67 65//63 67//65
f 68//66 65//63 69//67
f 42//40 62//60 70//68
f 71//69 66//64 72//70
f 69//67 73//71 68//66
f 74//72 66//64 68//66
f 72//70 66//64 74//72
f 42//40 70//68 30//28
f 71//69 72//70 75//73
f 76//74 68//66 73//71
f 68//66 76//74 74//72
f 77//75 72//70 74//72
f 30//28 70//68 55//53
f 28//26 54//52 78//76
f 79//77 74//72 76//74
f 77//75 74//72 79//77
f 75//73 72//70 77//75
f 80//78 81//79 79//77
f 80//78 79//77 76//74
f 82//80 77//75 79//77
f 82//80 79//77 81//79
f 75//73 77//75 82//80
f 83//81 75//73 82//80
f 83//81 82//80 84//82
f 56//54 75//73 83//81
f 56//54 83//81 43//41
f 43//41 83//81 85//83
f 43//41 85//83 44//42
f 44//42 85//83 45//43
f 36//34 45//43 47//45
f 38//36 47//45 86//84
f 87//85 88//86 89//87
f 88//86 90//88 89//87
f 91//89 88//86 87//85
f 90//88 88//86 92//90
f 90//88 92//90 93//91
f 88//86 91//89 94//92
f 92//90 88//86 58//56
f 59//57 92//90 58//56
f 93//91 92//90 60//58
f 60//58 92//90 59//57
f 88//86 94//92 95//93
f 58//56 88//86 95//93
f 96//94 58//56 95//93
f 58//56 96//94 97//95
f 94//92 98//96 95//93
f 96//94 95//93 99//97
f 58//56 97//95 51//49
f 100//98 39//37 40//38
f 95//93 98//96 63//61
f 51//49 97//95 101//99
f 102//100 98//96 103//101
f 99//97 95//93 63//61
f 97//95 96//94 104//102
f 40//38 52//50 100//98
f 98//96 102//100 64//62
f 104//102 105//103 97//95
f 101//99 97//95 105//103
f 62//60 51//49 101//99
f 106//104 64//62 102//100
f 63//61 98//96 64//62
f 104//102 96//94 99//97
f 99//97 63//61 66//64
f 104//102 99//97 107//105
f 25//23 53//51 52//50
f 52//50 53//51 108//106
f 64//62 106//104 67//65
f 109//107 67//65 106//104
f 71//69 99//97 66//64
f 107//105 99//97 71//69
f 67//65 109//107 110//108
f 108//106 53//51 78//76
f 67//65 110//108 111//109
f 69//67 67//65 111//109
f 107//105 71//69 112//110
f 70//68 101//99 113//111
f 62//60 101//99 70//68
f 53//51 28//26 78//76
f 69//67 111//109 114//112
f 73//71 69//67 114//112
f 112//110 71//69 75//73
f 113//111 112//110 56//54
f 70//68 113//111 55//53
f 76//74 73//71 115//113
f 55//53 113//111 56//54
f 76//74 115//113 80//78
f 56//54 112//110 75//73
f 82//80 81//79 116//114
f 116//114 84//82 82//80
f 83//81 84//82 117//115
f 85//83 83//81 117//115
f 38//36 86//84 48//46
f 87//85 89//87 118//116
f 89//87 90//88 119//117
f 119//117 90//88 120//118
f 87//85 121//119 122//120
f 87//85 122//120 91//89
f 93//91 120//118 90//88
f 123//121 94//92 122//120
f 91//89 122//120 94//92
f 94//92 123//121 103//101
f 60//58 61//59 124//122
f 61//59 100//98 124//122
f 100//98 61//59 39//37
f 103//101 98//96 94//92
f 106//104 102//100 125//123
f 101//99 105//103 104//102
f 126//124 109//107 106//104
f 104//102 107//105 113//111
f 101//99 104//102 113//111
f 113//111 107//105 112//110
f 73//71 114//112 115//113
f 84//82 116//114 117//115
f 45//43 127//125 47//45
f 46//44 48//46 128//126
f 89//87 129//127 118//116
f 119//117 129//127 89//87
f 121//119 87//85 118//116
f 130//128 122//120 121//119
f 93//91 131//129 120//118
f 93//91 124//122 131//129
f 60//58 124//122 93//91
f 123//121 132//130 103//101
f 102//100 132//130 125//123
f 132//130 102//100 103//101
f 189//131 52//50 185//132
f 125//123 126//124 106//104
f 78//76 54//52 133//133
f 54//52 57//55 134//134
f 81//79 135//135 116//114
f 45//43 85//83 136//136
f 45//43 136//136 127//125
f 47//45 127//125 86//84
f 130//128 123//121 122//120
f 78//76 198//137 161//138
f 115//113 114//112 137//139
f 116//114 135//135 117//115
f 85//83 117//115 136//136
f 48//46 86//84 128//126
f 205//140 131//129 188//141
f 186//142 100//98 189//131
f 157//143 126//124 163//144
f 160//145 162//146 110//108
f 164//147 158//148 160//145
f 54//52 134//134 133//133
f 117//115 135//135 136//136
f 159//149 128//126 165//150
f 130//128 142//151 183//152
f 170//153 127//125 172//154
f 141//155 121//119 140//156
f 194//157 188//141 131//129
f 148//158 146//159 123//121
f 192//160 191//161 132//130
f 156//162 158//148 125//123
f 126//124 158//148 164//147
f 179//163 137//139 181//164
f 147//165 136//136 149//166
f 198//137 133//133 202//167
f 202//167 133//133 193//168
f 145//169 135//135 144//170
f 177//171 165//150 128//126
f 120//118 205//140 204//172
f 119//117 201//173 200//174
f 120//118 199//175 119//117
f 119//117 199//175 201//173
f 118//116 197//176 196//177
f 132//130 190//178 192//160
f 52//50 187//179 185//132
f 130//128 183//152 184//180
f 129//127 197//176 118//116
f 200//174 129//127 119//117
f 115//113 179//163 182//181
f 128//126 176//182 177//171
f 195//183 128//126 86//84
f 128//126 175//184 176//182
f 114//112 174//185 137//139
f 137//139 174//185 181//164
f 81//79 203//186 135//135
f 127//125 171//187 172//154
f 86//84 170//153 195//183
f 115//113 169//188 80//78
f 81//79 168//189 173//190
f 80//78 169//188 168//189
f 111//109 178//191 114//112
f 126//124 164//147 163//144
f 162//146 111//109 110//108
f 132//130 156//162 125//123
f 109//107 160//145 110//108
f 109//107 157//143 155//192
f 108//106 161//138 154//193
f 108//106 187//179 52//50
f 108//106 154//193 153//194
f 186//142 124//122 100//98
f 124//122 194//157 131//129
f 136//136 150//195 151//196
f 136//136 151//196 149//166
f 130//128 148//158 123//121
f 136//136 171//187 127//125
f 146//159 132//130 123//121
f 135//135 150//195 136//136
f 135//135 203//186 144//170
f 133//133 143//197 193//168
f 134//134 167//198 143//197
f 121//119 141//155 142//151
f 196//177 121//119 118//116
f 139//199 134//134 57//55
f 57//55 159//149 138//200
f 57//55 138//200 139//199
f 189//131 100//98 52//50
f 78//76 133//133 198//137
f 205//140 120//118 131//129
f 157//143 109//107 126//124
f 198//137 202//167 147//165
f 202//167 193//168 147//165
f 193//168 143//197 171//187
f 143//197 167//198 172//154
f 171//187 143//197 172//154
f 167//198 139//199 170//153
f 139//199 138//200 165//150
f 170//153 139//199 165//150
f 138//200 159//149 165//150
f 177//171 176//182 175//184
f 165//150 177//171 175//184
f 161//138 198//137 154//193
f 147//165 193//168 171//187
f 153//194 154//193 185//132
f 185//132 154//193 198//137
f 185//132 187//179 153//194
f 186//142 189//131 151//196
f 189//131 185//132 151//196
f 194//157 152//201 150//195
f 152//201 186//142 150//195
f 150//195 186//142 151//196
f 205//140 188//141 144//170
f 188//141 194//157 145//169
f 144//170 188//141 145//169
f 199//175 204//172 144//170
f 204//172 205//140 144//170
f 200//174 201//173 203//186
f 201//173 199//175 203//186
f 197//176 180//202 173//190
f 180//202 200//174 173//190
f 140//156 196//177 169//188
f 196//177 197//176 169//188
f 140//156 169//188 182//181
f 142//151 141//155 140//156
f 184//180 183//152 182//181
f 183//152 142//151 182//181
f 190//178 146//159 174//185
f 146//159 148//158 181//164
f 174//185 146//159 181//164
f 148//158 184//180 182//181
f 142//151 140//156 182//181
f 203//186 199//175 144//170
f 165//150 175//184 170//153
f 175//184 195//183 170//153
f 170//153 172//154 167//198
f 147//165 149//166 151//196
f 198//137 147//165 185//132
f 150//195 145//169 194//157
f 147//165 151//196 185//132
f 192//160 190//178 174//185
f 158//148 156//162 162//146
f 156//162 191//161 162//146
f 162//146 191//161 166//203
f 191//161 192//160 178//191
f 173//190 200//174 203//186
f 173//190 168//189 169//188
f 182//181 179//163 148//158
f 179//163 181//164 148//158
f 173//190 169//188 197//176
f 174//185 178//191 192//160
f 178//191 166//203 191//161
f 162//146 160//145 158//148
f 160//145 155//192 164//147
f 155//192 157//143 163//144
f 164//147 155//192 163//144
f 159//149 46//44 128//126
f 130//128 121//119 142//151
f 126//124 125//123 158//148
f 120//118 204//172 199//175
f 129//127 180//202 197//176
f 200//174 180//202 129//127
f 115//113 137//139 179//163
f 195//183 175//184 128//126
f 114//112 178//191 174//185
f 81//79 173//190 203//186
f 86//84 127//125 170//153
f 115//113 182//181 169//188
f 81//79 80//78 168//189
f 111//109 166//203 178//191
f 162//146 166//203 111//109
f 132//130 191//161 156//162
f 109//107 155//192 160//145
f 108//106 78//76 161//138
f 108//106 153//194 187//179
f 186//142 152//201 124//122
f 124//122 152//201 194//157
f 130//128 184//180 148//158
f 136//136 147//165 171//187
f 146//159 190//178 132//130
f 135//135 145//169 150//195
f 133//133 134//134 143//197
f 196//177 140//156 121//119
f 139//199 167//198 134//134
f 57//55 46//44 159//149
