# Blender v2.92.0 OBJ File: 'convert_to_one_sided.blend'
# www.blender.org
mtllib 604L.mtl
o 604
v 10.529565 4.823467 5.179454
v 10.600063 4.836737 5.178304
v 10.554864 4.797817 5.198824
v 10.596963 4.872466 5.174244
v 10.520265 4.859076 5.188924
v 10.645863 4.868006 5.183784
v 10.593764 4.916386 5.191374
v 10.653863 4.903216 5.195564
v 10.475465 4.782847 5.210534
v 10.477465 4.811657 5.204824
v 10.637564 4.827067 5.211584
v 10.560163 4.775768 5.236114
v 10.534565 4.909616 5.221004
v 10.674962 4.875106 5.218354
v 10.683763 4.922826 5.226443
v 10.606363 4.957195 5.229604
v 10.652563 4.951355 5.235353
v 10.435066 4.781038 5.236293
v 10.471865 4.840637 5.230063
v 10.438066 4.753908 5.251503
v 10.482065 4.760208 5.246364
v 10.619864 4.785347 5.294783
v 10.414666 4.804277 5.293883
v 10.670463 4.829196 5.290403
v 10.553464 4.969645 5.334122
v 10.691362 4.971335 5.328282
v 10.630363 4.989675 5.307693
v 10.409266 4.752528 5.322262
v 10.424066 4.730798 5.362282
v 10.522464 4.747668 5.352402
v 10.696763 4.894466 5.447401
v 10.471365 4.895276 5.327502
v 10.669363 4.989625 5.319383
v 10.473065 4.958285 5.472741
v 10.684362 5.011225 5.405811
v 10.380366 4.764098 5.433631
v 10.664263 4.797667 5.363852
v 10.411066 4.871387 5.420581
v 10.454165 4.713078 5.433011
v 10.436766 4.922485 5.472210
v 10.596864 5.017934 5.449761
v 10.653563 5.018575 5.424201
v 10.624363 4.768708 5.425361
v 10.385366 4.833047 5.464890
v 10.678762 4.819537 5.433631
v 10.549564 4.723788 5.468760
v 10.407066 4.899066 5.532350
v 10.704062 4.799487 5.657678
v 10.706362 4.960525 5.648198
v 10.391867 4.708118 5.474801
v 10.364866 4.767138 5.629288
v 10.695962 5.004415 5.615958
v 10.634563 5.042184 5.611299
v 10.427166 4.697258 5.464180
v 10.373466 4.649969 5.583159
v 10.384466 4.854216 5.601179
v 10.439066 4.948035 5.588349
v 10.508965 4.989405 5.570459
v 10.671962 5.027004 5.638118
v 10.480965 4.678079 5.506420
v 10.636064 4.723848 5.548100
v 10.668662 4.762958 5.546829
v 10.420166 4.652359 5.533860
v 10.565764 4.659459 5.561989
v 10.567664 5.023095 5.643688
v 10.391067 4.592720 5.575639
v 10.419465 4.560570 5.579099
v 10.482164 4.587470 5.566999
v 10.628763 4.663099 5.610219
v 10.503565 4.512871 5.595049
v 10.453165 4.496721 5.599699
v 10.543765 4.562040 5.593909
v 10.592463 4.560121 5.625988
v 10.662462 4.704598 5.633208
v 10.496465 4.447011 5.620739
v 10.443965 4.435492 5.635919
v 10.413766 4.493881 5.618478
v 10.545164 4.491381 5.619689
v 10.491465 4.410962 5.656538
v 10.537464 4.437092 5.649838
v 10.570264 4.478652 5.650168
v 10.408966 4.440162 5.670858
v 10.388367 4.533081 5.647768
v 10.595963 4.515351 5.677528
v 10.631963 4.629989 5.650508
v 10.398767 4.903126 5.683708
v 10.448066 4.414922 5.674388
v 10.528765 4.411032 5.680818
v 10.619864 4.588090 5.677168
v 10.370466 4.632329 5.697207
v 10.562963 4.451732 5.680368
v 10.707195 4.937854 5.699999
v 10.487401 4.406492 5.699999
v 10.434661 4.422822 5.699999
v 10.437201 4.949078 5.699999
v 10.488186 4.406543 5.699999
v 10.581472 5.029021 5.699999
v 10.538752 4.424447 5.699999
v 10.446532 4.954647 5.699999
v 10.519461 4.990449 5.699999
v 10.681565 4.740532 5.699999
v 10.374192 4.840675 5.699999
v 10.628983 4.620467 5.699999
v 10.609389 4.566895 5.699999
v 10.365366 4.753224 5.699999
v 10.365600 4.779238 5.699999
v 10.699492 4.989690 5.699999
v 10.423962 4.429702 5.699999
v 10.401602 4.481904 5.699999
v 10.370387 4.634127 5.699999
v 10.705964 4.962332 5.699999
v 10.693404 5.002884 5.699999
v 10.370903 4.631954 5.699999
v 10.373542 4.617990 5.699999
v 10.612368 5.038309 5.699999
v 10.394094 4.517687 5.699999
v 10.643245 5.037556 5.699999
v 10.486778 4.406579 5.699999
v 10.582768 4.493489 5.699999
v 10.598999 4.535197 5.699999
v 10.556142 5.013459 5.699999
v 10.667682 5.027872 5.699999
v 10.677023 5.019033 5.699999
v 10.649275 4.680795 5.699999
v 10.704915 4.882731 5.699999
v 10.638247 4.652924 5.699999
v 10.705310 4.817203 5.699999
v 10.706321 4.800800 5.699999
v 10.698421 4.780342 5.699999
v 10.374843 4.843922 5.699999
v 10.550817 4.438818 5.699999
v 10.575149 4.478689 5.699999
v 10.415842 4.923805 5.699999
v 10.396094 4.896892 5.699999
v 10.398657 4.901358 5.699999
v 10.378158 4.852454 5.699999
vn -0.1754 -0.2009 -0.9638
vn 0.2316 -0.4259 -0.8746
vn 0.1558 -0.7298 -0.6657
vn 0.0267 0.1511 -0.9882
vn -0.4551 0.3648 -0.8123
vn 0.5194 -0.1865 -0.8340
vn -0.0922 0.5705 -0.8161
vn 0.4452 0.3265 -0.8338
vn -0.2467 -0.5440 -0.8020
vn -0.5744 0.1028 -0.8121
vn 0.5513 -0.6825 -0.4798
vn 0.2802 -0.8964 -0.3433
vn -0.5582 0.6691 -0.4907
vn 0.8757 -0.2352 -0.4218
vn 0.8568 0.2590 -0.4459
vn -0.1866 0.8390 -0.5111
vn 0.3483 0.7411 -0.5740
vn -0.7862 -0.0597 -0.6150
vn -0.7234 0.4791 -0.4971
vn -0.4130 -0.7705 -0.4856
vn 0.0891 -0.9206 -0.3802
vn 0.4659 -0.8598 -0.2088
vn -0.9043 0.2888 -0.3143
vn 0.8473 -0.4981 -0.1845
vn -0.4730 0.8423 -0.2586
vn 0.8977 0.3919 -0.2015
vn -0.0627 0.9451 -0.3207
vn -0.8419 -0.4467 -0.3029
vn -0.1406 -0.9515 -0.2738
vn 0.2291 -0.9515 -0.2055
vn 0.9920 -0.1045 -0.0709
vn -0.6933 0.6498 -0.3116
vn 0.3657 0.8633 -0.3479
vn -0.5886 0.7845 -0.1952
vn 0.5870 0.7966 -0.1446
vn -0.9728 -0.1102 -0.2036
vn 0.6931 -0.7143 -0.0974
vn -0.8191 0.5242 -0.2328
vn 0.1587 -0.9198 -0.3589
vn -0.7290 0.6534 -0.2040
vn -0.2880 0.9446 -0.1577
vn 0.1195 0.9787 -0.1671
vn 0.5233 -0.8285 -0.1992
vn -0.9536 0.2743 -0.1239
vn 0.8792 -0.4649 -0.1038
vn 0.3226 -0.8485 -0.4194
vn -0.8580 0.5029 -0.1043
vn 0.9644 -0.2479 -0.0923
vn 0.9951 0.0957 -0.0243
vn -0.6020 -0.6679 -0.4376
vn -0.9972 0.0636 -0.0402
vn 0.8913 0.4533 -0.0071
vn 0.0203 0.9989 -0.0426
vn -0.0953 -0.8983 -0.4290
vn -0.9573 -0.2114 -0.1972
vn -0.9510 0.3037 -0.0585
vn -0.6858 0.7240 -0.0742
vn -0.4765 0.8770 -0.0623
vn 0.5217 0.8531 -0.0096
vn 0.1529 -0.7641 -0.6267
vn 0.6122 -0.6660 -0.4261
vn 0.7976 -0.5469 -0.2544
vn -0.1210 -0.6375 -0.7609
vn 0.4338 -0.5392 -0.7219
vn -0.4087 0.9124 -0.0228
vn -0.6399 -0.4475 -0.6248
vn -0.2445 -0.4200 -0.8739
vn 0.1155 -0.4047 -0.9071
vn 0.7328 -0.4565 -0.5047
vn 0.2079 -0.3386 -0.9177
vn -0.1463 -0.4134 -0.8987
vn 0.3929 -0.3165 -0.8634
vn 0.7503 -0.3586 -0.5554
vn 0.8728 -0.4498 -0.1895
vn 0.1509 -0.5450 -0.8248
vn -0.3441 -0.6682 -0.6596
vn -0.6196 -0.4379 -0.6514
vn 0.4834 -0.3891 -0.7842
vn 0.7500 -0.1539 0.6433
vn 0.6854 0.0010 0.7282
vn 0.0542 -0.8924 -0.4481
vn 0.5376 -0.6314 -0.5589
vn 0.7609 -0.4570 -0.4606
vn -0.8091 -0.5575 -0.1858
vn -0.9522 -0.2564 -0.1659
vn 0.9215 -0.3797 -0.0819
vn 0.9056 -0.3754 -0.1973
vn -0.8662 0.4995 -0.0131
vn -0.3607 -0.9174 -0.1681
vn 0.4902 -0.8655 -0.1035
vn 0.9405 -0.3339 -0.0624
vn -0.9876 -0.1512 0.0423
vn 0.6719 -0.2954 0.6792
vn -0.7155 0.1987 0.6697
vn -0.6836 0.2660 0.6797
vn 0.8185 -0.5674 -0.0904
vn 0.7275 -0.0038 0.6861
vn 0.7165 0.1008 0.6902
vn 0.5472 -0.4355 0.7148
vn 0.4960 -0.5300 0.6878
vn -0.6701 -0.1082 0.7343
vn -0.6556 -0.1205 0.7454
vn 0.6116 -0.3110 0.7275
vn 0.6101 -0.2164 0.7622
vn 0.6144 -0.2185 0.7581
vn 0.6790 -0.1801 0.7117
vn 0.5980 -0.2792 0.7513
vn 0.6646 -0.2246 0.7127
vn -0.6387 -0.1767 0.7489
vn -0.1158 -0.7450 0.6569
vn 0.6017 -0.3326 0.7262
vn -0.7083 -0.0358 0.7050
vn -0.7172 0.0655 0.6937
vn -0.4661 0.5680 0.6783
vn -0.5597 0.4588 0.6901
vn -0.3566 0.6262 0.6933
vn -0.3409 0.5908 0.7313
vn 0.5870 0.4034 0.7019
vn 0.6883 0.1870 0.7010
vn -0.6587 0.2914 0.6937
vn -0.5811 0.3801 0.7196
vn -0.5991 -0.1385 0.7886
vn -0.6928 -0.0514 0.7193
vn 0.7091 -0.0157 0.7049
vn 0.4110 0.6353 0.6538
vn 0.4600 0.5113 0.7259
vn 0.1529 0.7460 0.6481
vn -0.1456 0.7396 0.6571
vn -0.5393 -0.5312 0.6534
vn -0.7193 0.1330 0.6818
vn 0.6480 -0.3253 0.6887
vn -0.3590 0.5983 0.7164
vn -0.2953 0.6734 0.6777
vn 0.0669 -0.7066 0.7044
vn -0.3520 -0.6434 0.6798
vn -0.0456 -0.7597 0.6486
usemtl mtl1.1384
s 1
f 1//1 2//2 3//3
f 4//4 1//1 5//5
f 2//2 1//1 4//4
f 6//6 2//2 4//4
f 5//5 7//7 4//4
f 6//6 4//4 8//8
f 7//7 8//8 4//4
f 1//1 9//9 10//10
f 3//3 9//9 1//1
f 3//3 11//11 12//12
f 2//2 11//11 3//3
f 10//10 5//5 1//1
f 11//11 2//2 6//6
f 5//5 13//13 7//7
f 14//14 6//6 8//8
f 8//8 15//15 14//14
f 16//16 7//7 13//13
f 7//7 17//17 8//8
f 16//16 17//17 7//7
f 15//15 8//8 17//17
f 9//9 18//18 10//10
f 10//10 18//18 19//19
f 10//10 19//19 5//5
f 6//6 14//14 11//11
f 19//19 13//13 5//5
f 20//20 18//18 9//9
f 21//21 20//20 9//9
f 3//3 21//21 9//9
f 21//21 3//3 12//12
f 12//12 11//11 22//22
f 19//19 18//18 23//23
f 11//11 14//14 24//24
f 16//16 13//13 25//25
f 15//15 17//17 26//26
f 17//17 16//16 27//27
f 28//28 20//20 29//29
f 20//20 21//21 29//29
f 20//20 28//28 18//18
f 21//21 12//12 30//30
f 23//23 18//18 28//28
f 24//24 22//22 11//11
f 24//24 14//14 31//31
f 19//19 32//32 13//13
f 14//14 15//15 31//31
f 15//15 26//26 31//31
f 13//13 32//32 25//25
f 16//16 25//25 27//27
f 27//27 33//33 17//17
f 33//33 26//26 17//17
f 30//30 29//29 21//21
f 12//12 22//22 30//30
f 19//19 23//23 32//32
f 25//25 32//32 34//34
f 35//35 26//26 33//33
f 28//28 36//36 23//23
f 24//24 37//37 22//22
f 32//32 23//23 38//38
f 30//30 39//39 29//29
f 40//40 32//32 38//38
f 27//27 25//25 41//41
f 27//27 41//41 42//42
f 33//33 27//27 42//42
f 33//33 42//42 35//35
f 30//30 22//22 43//43
f 44//44 23//23 36//36
f 23//23 44//44 38//38
f 37//37 24//24 45//45
f 24//24 31//31 45//45
f 46//46 39//39 30//30
f 30//30 43//43 46//46
f 37//37 43//43 22//22
f 44//44 47//47 38//38
f 45//45 31//31 48//48
f 31//31 26//26 49//49
f 28//28 29//29 50//50
f 50//50 36//36 28//28
f 43//43 37//37 45//45
f 36//36 51//51 44//44
f 35//35 52//52 26//26
f 26//26 52//52 49//49
f 42//42 41//41 53//53
f 29//29 54//54 50//50
f 29//29 39//39 54//54
f 36//36 50//50 55//55
f 36//36 55//55 51//51
f 40//40 34//34 32//32
f 56//56 47//47 44//44
f 40//40 57//57 34//34
f 58//58 25//25 34//34
f 35//35 42//42 59//59
f 42//42 53//53 59//59
f 54//54 39//39 60//60
f 39//39 46//46 60//60
f 43//43 61//61 46//46
f 62//62 43//43 45//45
f 34//34 57//57 58//58
f 35//35 59//59 52//52
f 54//54 63//63 50//50
f 60//60 46//46 64//64
f 64//64 46//46 61//61
f 51//51 56//56 44//44
f 62//62 45//45 48//48
f 41//41 25//25 58//58
f 60//60 63//63 54//54
f 43//43 62//62 61//61
f 47//47 40//40 38//38
f 65//65 53//53 41//41
f 66//66 63//63 67//67
f 68//68 63//63 60//60
f 60//60 64//64 68//68
f 63//63 66//66 50//50
f 64//64 61//61 69//69
f 65//65 41//41 58//58
f 70//70 71//71 68//68
f 72//72 70//70 68//68
f 68//68 71//71 67//67
f 68//68 67//67 63//63
f 64//64 72//72 68//68
f 73//73 72//72 64//64
f 64//64 69//69 73//73
f 61//61 62//62 74//74
f 75//75 76//76 71//71
f 76//76 77//77 71//71
f 70//70 75//75 71//71
f 70//70 78//78 75//75
f 66//66 67//67 77//77
f 71//71 77//77 67//67
f 78//78 70//70 72//72
f 73//73 78//78 72//72
f 50//50 66//66 55//55
f 74//74 62//62 48//48
f 128//79 48//48 127//80
f 47//47 57//57 40//40
f 75//75 79//81 76//76
f 80//82 79//81 75//75
f 78//78 80//82 75//75
f 80//82 78//78 81//83
f 76//76 82//84 77//77
f 77//77 82//84 83//85
f 66//66 77//77 83//85
f 73//73 84//86 81//83
f 78//78 73//73 81//83
f 55//55 66//66 83//85
f 85//87 73//73 69//69
f 74//74 69//69 61//61
f 86//88 47//47 56//56
f 76//76 79//81 87//89
f 79//81 80//82 88//90
f 73//73 89//91 84//86
f 73//73 85//87 89//91
f 90//92 51//51 55//55
f 85//87 69//69 74//74
f 129//93 48//48 128//79
f 86//88 130//94 136//95
f 86//88 57//57 47//47
f 87//89 82//84 76//76
f 91//96 88//90 80//82
f 91//96 80//82 81//83
f 91//96 81//83 84//86
f 83//85 90//92 55//55
f 92//97 49//49 111//98
f 88//90 131//99 98//100
f 114//101 83//85 116//102
f 119//103 84//86 120//104
f 104//105 89//91 103//106
f 85//87 124//107 126//108
f 109//109 118//110 131//99
f 132//111 131//99 91//96
f 105//112 106//113 51//51
f 95//114 86//88 133//115
f 99//116 100//117 58//58
f 112//118 107//119 52//52
f 136//95 134//120 86//88
f 135//121 86//88 134//120
f 135//121 133//115 86//88
f 114//101 113//122 90//92
f 113//122 110//123 90//92
f 48//48 125//124 127//80
f 59//59 122//125 123//126
f 84//86 132//111 91//96
f 59//59 117//127 122//125
f 53//53 115//128 117//127
f 59//59 112//118 52//52
f 109//109 83//85 82//84
f 82//84 108//129 109//109
f 49//49 107//119 111//98
f 90//92 105//112 51//51
f 84//86 104//105 120//104
f 85//87 103//106 89//91
f 102//130 56//56 51//51
f 51//51 106//113 102//130
f 48//48 101//131 74//74
f 74//74 101//131 124//107
f 100//117 65//65 58//58
f 65//65 115//128 53//53
f 65//65 121//132 97//133
f 88//90 98//100 96//134
f 57//57 99//116 58//58
f 87//89 108//129 82//84
f 87//89 118//110 94//135
f 79//81 118//110 87//89
f 96//134 79//81 88//90
f 49//49 125//124 31//31
f 86//88 56//56 130//94
f 88//90 91//96 131//99
f 114//101 90//92 83//85
f 85//87 74//74 124//107
f 101//131 129//93 133//115
f 129//93 128//79 127//80
f 129//93 127//80 99//116
f 124//107 101//131 106//113
f 129//93 99//116 133//115
f 99//116 127//80 100//117
f 125//124 92//97 121//132
f 92//97 111//98 97//133
f 127//80 125//124 100//117
f 104//105 103//106 114//101
f 103//106 126//108 113//122
f 126//108 124//107 105//112
f 136//95 101//131 134//120
f 92//97 97//133 121//132
f 111//98 107//119 123//126
f 97//133 111//98 115//128
f 107//119 112//118 123//126
f 123//126 122//125 117//127
f 117//127 115//128 123//126
f 123//126 115//128 111//98
f 121//132 100//117 125//124
f 99//116 95//114 133//115
f 133//115 135//121 134//120
f 101//131 133//115 134//120
f 136//95 130//94 102//130
f 102//130 106//113 101//131
f 106//113 105//112 124//107
f 105//112 110//123 126//108
f 110//123 113//122 126//108
f 113//122 114//101 103//106
f 114//101 116//102 104//105
f 116//102 109//109 132//111
f 109//109 108//129 94//135
f 118//110 109//109 94//135
f 118//110 93//136 96//134
f 96//134 98//100 131//99
f 131//99 132//111 109//109
f 132//111 119//103 116//102
f 119//103 120//104 116//102
f 120//104 104//105 116//102
f 101//131 136//95 102//130
f 118//110 96//134 131//99
f 95//114 57//57 86//88
f 48//48 31//31 125//124
f 84//86 119//103 132//111
f 59//59 53//53 117//127
f 59//59 123//126 112//118
f 109//109 116//102 83//85
f 49//49 52//52 107//119
f 90//92 110//123 105//112
f 84//86 89//91 104//105
f 85//87 126//108 103//106
f 102//130 130//94 56//56
f 48//48 129//93 101//131
f 100//117 121//132 65//65
f 65//65 97//133 115//128
f 57//57 95//114 99//116
f 87//89 94//135 108//129
f 79//81 93//136 118//110
f 96//134 93//136 79//81
f 49//49 92//97 125//124
