# Blender v2.92.0 OBJ File: 'convert_to_one_sided.blend'
# www.blender.org
mtllib 606826647L.mtl
o Cube
v 0.001000 0.001000 -0.001000
v 0.001000 -0.001000 -0.001000
v 0.001000 0.001000 0.001000
v 0.001000 -0.001000 0.001000
v -0.001000 0.001000 -0.001000
v -0.001000 -0.001000 -0.001000
v -0.001000 0.001000 0.001000
v -0.001000 -0.001000 0.001000
vt 0.625000 0.500000
vt 0.875000 0.500000
vt 0.875000 0.750000
vt 0.625000 0.750000
vt 0.375000 0.750000
vt 0.625000 1.000000
vt 0.375000 1.000000
vt 0.375000 0.000000
vt 0.625000 0.000000
vt 0.625000 0.250000
vt 0.375000 0.250000
vt 0.125000 0.500000
vt 0.375000 0.500000
vt 0.125000 0.750000
vn 0.0000 1.0000 0.0000
vn 0.0000 0.0000 1.0000
vn -1.0000 0.0000 0.0000
vn 0.0000 -1.0000 0.0000
vn 1.0000 0.0000 0.0000
vn 0.0000 0.0000 -1.0000
usemtl Material
s off
f 1/1/1 5/2/1 7/3/1 3/4/1
f 4/5/2 3/4/2 7/6/2 8/7/2
f 8/8/3 7/9/3 5/10/3 6/11/3
f 6/12/4 2/13/4 4/5/4 8/14/4
f 2/13/5 1/1/5 3/4/5 4/5/5
f 6/11/6 5/10/6 1/1/6 2/13/6
o 606826647
v 7.829809 6.114090 4.891038
v 7.760630 6.142510 4.894918
v 7.816109 6.171600 4.883468
v 7.954478 6.123210 4.909558
v 7.917708 6.192060 4.896638
v 7.782620 6.200179 4.892278
v 7.864879 6.251029 4.896488
v 7.907458 6.058281 4.939057
v 7.762760 6.074011 4.933767
v 7.736081 6.105011 4.927018
v 7.716581 6.105000 4.958187
v 7.737280 6.193439 4.926648
v 8.021387 6.193319 4.917598
v 7.982127 6.279978 4.916217
v 7.821390 6.294248 4.925888
v 7.904139 6.321127 4.921917
v 7.807810 6.029552 4.963467
v 8.046436 6.082401 4.964497
v 8.038047 6.140620 4.934777
v 7.750960 6.255019 4.946857
v 8.119295 6.241689 4.959727
v 8.054067 6.313788 4.949687
v 7.888898 6.363017 4.947917
v 7.968997 6.362707 4.961827
v 7.863709 5.964342 5.035766
v 7.990287 5.985412 5.042686
v 8.121645 6.154260 4.970757
v 7.726380 6.039892 4.998407
v 7.700761 6.125560 4.993816
v 7.717741 6.201809 4.968147
v 7.782590 6.304028 4.968557
v 7.853219 6.364337 4.982697
v 8.050667 6.350627 4.979067
v 7.911328 6.408997 5.018606
v 7.747900 5.997572 5.020626
v 8.195515 6.089981 5.038936
v 8.186085 6.190730 4.996307
v 8.231323 6.155690 5.036336
v 8.172464 6.251688 4.990736
v 8.220055 6.225329 5.034816
v 7.736480 6.237169 4.998207
v 8.148325 6.283349 5.008687
v 8.011797 6.390477 5.010617
v 7.703231 6.021232 5.069046
v 7.713231 6.146580 5.046266
v 7.791770 6.296868 5.046846
v 8.106775 6.345587 5.053566
v 7.962068 6.410387 5.026536
v 7.784570 5.946603 5.065806
v 8.140036 5.992052 5.098275
v 7.701441 6.065441 5.081396
v 7.827909 6.350388 5.022896
v 7.868559 6.390877 5.046886
v 7.945138 6.430057 5.074736
v 7.740690 5.941133 5.094096
v 7.726711 5.981912 5.067176
v 7.825779 5.903493 5.115065
v 8.295044 6.093831 5.111655
v 8.227784 6.256718 5.063816
v 8.226134 6.284568 5.112995
v 7.840489 6.356047 5.072936
v 8.052237 6.388997 5.101825
v 7.908288 6.417676 5.075826
v 7.933358 5.893583 5.142625
v 7.723011 6.090701 5.137375
v 8.312053 6.157730 5.122095
v 7.761390 6.216129 5.087225
v 8.078146 5.906103 5.166774
v 8.252944 6.009322 5.147025
v 8.296443 6.226489 5.149075
v 7.830489 6.318708 5.114205
v 7.880818 6.390447 5.095366
v 8.222054 6.317667 5.202064
v 7.767800 5.903373 5.146435
v 7.730610 5.943722 5.124925
v 8.213163 5.926883 5.209824
v 8.327482 6.032221 5.188394
v 7.707021 6.014042 5.133635
v 8.358043 6.086541 5.198654
v 8.020556 6.402617 5.141315
v 8.030706 5.855394 5.220354
v 8.371253 6.176600 5.227664
v 8.156025 6.350677 5.196814
v 7.946008 6.409077 5.115335
v 8.091116 6.372787 5.166454
v 7.853069 5.874343 5.181934
v 7.941098 5.855394 5.214184
v 8.380962 6.132560 5.232733
v 7.790540 6.203399 5.148535
v 8.307473 6.261378 5.227434
v 7.908668 6.368237 5.138255
v 8.228754 6.321008 5.252413
v 7.808069 5.878763 5.211494
v 7.749930 5.911723 5.177254
v 7.722561 5.959172 5.152685
v 7.728441 5.995402 5.177925
v 8.378201 6.025761 5.274833
v 7.857219 6.298038 5.152245
v 8.022847 6.362037 5.180385
v 8.141585 5.874303 5.242674
v 8.305803 5.976552 5.233233
v 7.762240 6.067921 5.187644
v 7.940898 6.304988 5.184004
v 8.119876 6.351017 5.206934
v 7.906238 5.851924 5.238764
v 8.004467 5.842624 5.260643
v 7.758630 5.924023 5.201554
v 8.400542 6.098171 5.278493
v 7.873678 6.183239 5.200244
v 8.029727 6.254678 5.236794
v 8.090496 5.853174 5.262683
v 8.158095 5.866364 5.281133
v 8.219664 5.896853 5.273773
v 7.824479 5.885823 5.239174
v 8.278234 5.931893 5.268203
v 7.756371 5.968172 5.209394
v 7.835769 6.023991 5.234344
v 7.929798 6.105641 5.249273
v 8.416021 6.147460 5.317712
v 8.377603 6.208879 5.294793
v 8.091156 6.320358 5.224034
v 8.232404 6.311967 5.283753
v 7.949317 5.843654 5.262233
v 7.900038 5.861494 5.254193
v 7.825580 5.928283 5.241064
v 8.345633 5.970412 5.308942
v 8.159475 6.295018 5.271263
v 8.104526 5.857754 5.286653
v 7.907828 5.881553 5.272823
v 8.282763 5.928623 5.302193
v 7.933197 5.945393 5.288253
v 8.004197 6.039661 5.304943
v 8.407582 6.030162 5.357532
v 8.075376 6.147160 5.300582
v 8.335133 6.261229 5.307033
v 8.282273 6.293418 5.297603
v 8.004557 5.860584 5.279393
v 8.220163 5.905623 5.309312
v 8.416262 6.083051 5.342682
v 8.159195 6.211969 5.317593
v 8.253514 6.236389 5.349372
v 8.131975 5.898753 5.321582
v 8.051936 5.924723 5.322083
v 8.100996 6.000072 5.351662
v 8.320733 5.964922 5.348342
v 8.378152 6.005612 5.370292
v 8.187895 6.123530 5.362442
v 8.417912 6.182469 5.368532
v 8.312373 6.264268 5.351692
v 8.172015 5.956142 5.361712
v 8.169555 5.984752 5.371862
v 8.249754 5.960272 5.362742
v 8.427292 6.080941 5.390961
v 8.421201 6.136090 5.380412
v 8.383042 6.224849 5.363602
v 8.337572 6.255059 5.347142
v 8.264314 6.002182 5.396751
v 8.345162 6.014452 5.397242
v 8.403562 6.056141 5.395681
v 8.366733 6.224279 5.386862
v 8.237494 6.041951 5.395852
v 8.405201 6.169010 5.400012
v 8.282273 6.177340 5.392902
v 8.326043 6.196350 5.394331
v 8.414172 6.108730 5.407941
v 8.331822 6.053021 5.422161
v 8.384542 6.079571 5.418672
v 8.306813 6.121300 5.409621
v 8.398911 6.121871 5.422881
v 8.368293 6.154370 5.409431
v 8.361782 6.104430 5.415701
vn -0.0089 -0.3900 -0.9208
vn -0.4975 -0.1290 -0.8578
vn -0.0449 0.0146 -0.9989
vn 0.2399 -0.3105 -0.9198
vn 0.1559 -0.0014 -0.9878
vn -0.3569 0.2724 -0.8935
vn -0.0270 0.2659 -0.9636
vn 0.1426 -0.6463 -0.7497
vn -0.3528 -0.5796 -0.7346
vn -0.6605 -0.3682 -0.6544
vn -0.8709 -0.1521 -0.4674
vn -0.7591 0.2196 -0.6129
vn 0.3207 -0.0555 -0.9455
vn 0.2132 0.2659 -0.9401
vn -0.4059 0.5304 -0.7443
vn 0.0059 0.4635 -0.8861
vn -0.1081 -0.7044 -0.7015
vn 0.3370 -0.5332 -0.7760
vn 0.3746 -0.2818 -0.8833
vn -0.7525 0.5112 -0.4152
vn 0.4669 0.1540 -0.8708
vn 0.3925 0.4685 -0.7915
vn -0.1775 0.7126 -0.6787
vn 0.1638 0.6842 -0.7106
vn 0.0494 -0.7697 -0.6365
vn 0.2146 -0.7314 -0.6473
vn 0.4471 -0.2417 -0.8612
vn -0.7053 -0.5035 -0.4990
vn -0.9860 0.0556 -0.1574
vn -0.9395 0.3123 -0.1406
vn -0.7138 0.6742 -0.1897
vn -0.5310 0.7712 -0.3511
vn 0.4482 0.6937 -0.5638
vn -0.2182 0.9048 -0.3656
vn -0.4489 -0.6660 -0.5957
vn 0.4678 -0.4717 -0.7475
vn 0.5711 -0.0119 -0.8208
vn 0.6329 -0.1387 -0.7617
vn 0.5835 0.3921 -0.7112
vn 0.7123 0.2575 -0.6530
vn -0.8613 0.4893 0.1371
vn 0.5645 0.6132 -0.5525
vn 0.3575 0.8481 -0.3911
vn -0.9441 -0.2861 -0.1640
vn -0.9269 0.3031 0.2213
vn -0.8040 0.5505 0.2249
vn 0.5377 0.7813 -0.3170
vn 0.1901 0.9051 -0.3803
vn -0.2016 -0.7864 -0.5839
vn 0.3346 -0.6753 -0.6573
vn -0.9846 0.1037 0.1404
vn -0.7277 0.6857 0.0155
vn -0.6211 0.7836 -0.0115
vn 0.0214 0.9994 0.0276
vn -0.5675 -0.7056 -0.4244
vn -0.7621 -0.5206 -0.3849
vn -0.0875 -0.8643 -0.4953
vn 0.6647 -0.3281 -0.6712
vn 0.6746 0.5464 -0.4963
vn 0.6093 0.7112 -0.3507
vn -0.7487 0.6257 0.2188
vn 0.3915 0.9151 -0.0966
vn -0.4237 0.8912 0.1618
vn 0.0855 -0.8381 -0.5388
vn -0.8422 0.2857 0.4572
vn 0.8019 0.1074 -0.5877
vn -0.8206 0.4292 0.3773
vn 0.2441 -0.7634 -0.5980
vn 0.4743 -0.6147 -0.6302
vn 0.7568 0.4926 -0.4296
vn -0.7025 0.5100 0.4964
vn -0.5741 0.7017 0.4219
vn 0.5164 0.8389 -0.1718
vn -0.4144 -0.8679 -0.2738
vn -0.8157 -0.5578 -0.1533
vn 0.4076 -0.7416 -0.5329
vn 0.6649 -0.5012 -0.5538
vn -0.9671 -0.0228 0.2535
vn 0.8319 -0.1982 -0.5183
vn 0.1109 0.9122 0.3944
vn 0.1352 -0.9020 -0.4101
vn 0.8453 0.3348 -0.4164
vn 0.2701 0.9514 0.1481
vn -0.2502 0.7831 0.5693
vn 0.2624 0.9408 0.2145
vn -0.1349 -0.9443 -0.3002
vn -0.0262 -0.9436 -0.3301
vn 0.8885 0.0366 -0.4574
vn -0.6411 0.3746 0.6698
vn 0.6729 0.6815 -0.2877
vn -0.3988 0.5591 0.7269
vn 0.3591 0.9294 0.0856
vn -0.4527 -0.8610 0.2319
vn -0.7525 -0.6390 0.1598
vn -0.9269 -0.3011 0.2240
vn -0.8187 0.0216 0.5738
vn 0.8182 -0.4380 -0.3725
vn -0.4746 0.4000 0.7840
vn -0.2118 0.5772 0.7887
vn 0.3073 -0.8585 -0.4106
vn 0.5838 -0.6619 -0.4702
vn -0.5600 0.2695 0.7834
vn -0.3237 0.3932 0.8606
vn -0.0413 0.8012 0.5970
vn -0.2082 -0.9779 0.0191
vn 0.0166 -0.9942 0.1061
vn -0.7122 -0.3147 0.6274
vn 0.9202 -0.1407 -0.3652
vn -0.3925 0.3033 0.8683
vn -0.3495 0.3896 0.8521
vn 0.1798 -0.9774 -0.1108
vn 0.3171 -0.9464 0.0611
vn 0.4379 -0.8868 -0.1476
vn -0.4830 -0.4495 0.7514
vn 0.5313 -0.7862 -0.3157
vn -0.5646 0.0399 0.8244
vn -0.3984 0.2016 0.8948
vn -0.3826 0.3023 0.8731
vn 0.9550 0.1432 -0.2596
vn 0.7849 0.5570 -0.2714
vn -0.2604 0.5506 0.7931
vn -0.0044 0.8493 0.5278
vn -0.1783 -0.8416 0.5097
vn -0.3208 -0.7064 0.6309
vn -0.4351 -0.0370 0.8996
vn 0.6398 -0.7632 -0.0906
vn -0.3107 0.5581 0.7694
vn 0.0943 -0.8614 0.4992
vn -0.3027 -0.3291 0.8945
vn 0.4730 -0.8751 0.1025
vn -0.3652 -0.0011 0.9309
vn -0.3911 0.2219 0.8932
vn 0.8454 -0.5321 0.0458
vn -0.4057 0.3129 0.8588
vn 0.6105 0.7869 -0.0903
vn 0.4004 0.9038 0.1513
vn -0.1171 -0.6077 0.7855
vn 0.2818 -0.8301 0.4812
vn 0.9670 -0.1436 -0.2105
vn -0.3911 0.3723 0.8417
vn -0.3219 0.4824 0.8147
vn -0.0051 -0.6165 0.7874
vn -0.2278 -0.3240 0.9182
vn -0.3384 0.0121 0.9409
vn 0.3613 -0.8124 0.4576
vn 0.5459 -0.7245 0.4207
vn -0.3888 0.2395 0.8897
vn 0.9094 0.4090 0.0761
vn 0.0358 0.7650 0.6430
vn -0.1023 -0.4847 0.8687
vn -0.2436 -0.2139 0.9460
vn 0.1087 -0.6795 0.7255
vn 0.9392 -0.1967 0.2814
vn 0.9786 0.1131 0.1719
vn 0.6660 0.7214 0.1901
vn 0.4271 0.8612 0.2755
vn -0.0804 -0.4140 0.9067
vn 0.2468 -0.5963 0.7639
vn 0.5843 -0.4703 0.6613
vn 0.2621 0.6252 0.7351
vn -0.2898 0.0017 0.9571
vn 0.6280 0.3899 0.6735
vn -0.3090 0.3081 0.8998
vn -0.1495 0.3922 0.9077
vn 0.7244 -0.0414 0.6881
vn -0.0372 -0.1407 0.9893
vn 0.2865 -0.2448 0.9263
vn -0.1993 0.1565 0.9674
vn 0.2234 0.1145 0.9680
vn -0.0121 0.2788 0.9603
vn -0.0800 0.0899 0.9927
usemtl mtl1.553
s 1
f 9//7 10//8 11//9
f 12//10 9//7 13//11
f 13//11 9//7 11//9
f 11//9 10//8 14//12
f 15//13 11//9 14//12
f 13//11 11//9 15//13
f 9//7 12//10 16//14
f 10//8 17//15 18//16
f 19//17 10//8 18//16
f 9//7 17//15 10//8
f 10//8 19//17 20//18
f 10//8 20//18 14//12
f 12//10 13//11 21//19
f 21//19 13//11 22//20
f 20//18 23//21 14//12
f 14//12 23//21 15//13
f 13//11 15//13 22//20
f 23//21 24//22 15//13
f 22//20 15//13 24//22
f 16//14 25//23 9//7
f 9//7 25//23 17//15
f 16//14 12//10 26//24
f 12//10 27//25 26//24
f 21//19 27//25 12//10
f 20//18 28//26 23//21
f 29//27 21//19 22//20
f 29//27 22//20 30//28
f 24//22 23//21 31//29
f 24//22 32//30 22//20
f 32//30 30//28 22//20
f 32//30 24//22 31//29
f 33//31 25//23 16//14
f 16//14 26//24 34//32
f 27//25 35//33 26//24
f 36//34 19//17 18//16
f 21//19 35//33 27//25
f 19//17 37//35 20//18
f 38//36 20//18 37//35
f 35//33 21//19 29//27
f 38//36 28//26 20//18
f 23//21 28//26 39//37
f 23//21 39//37 40//38
f 23//21 40//38 31//29
f 30//28 32//30 41//39
f 32//30 31//29 42//40
f 17//15 25//23 43//41
f 17//15 43//41 36//34
f 33//31 16//14 34//32
f 17//15 36//34 18//16
f 26//24 35//33 44//42
f 45//43 46//44 35//33
f 35//33 29//27 45//43
f 47//45 48//46 29//27
f 45//43 29//27 48//46
f 28//26 38//36 49//47
f 28//26 49//47 39//37
f 29//27 30//28 50//48
f 47//45 29//27 50//48
f 30//28 41//39 50//48
f 41//39 32//30 51//49
f 31//29 40//38 42//40
f 36//34 52//50 19//17
f 52//50 37//35 19//17
f 35//33 46//44 44//42
f 37//35 53//51 38//36
f 53//51 49//47 38//36
f 39//37 49//47 54//52
f 41//39 51//49 55//53
f 42//40 56//54 32//30
f 56//54 51//49 32//30
f 25//23 57//55 43//41
f 33//31 57//55 25//23
f 34//32 26//24 58//56
f 44//42 58//56 26//24
f 37//35 52//50 59//57
f 37//35 59//57 53//51
f 47//45 50//48 48//46
f 54//52 60//58 39//37
f 41//39 55//53 50//48
f 60//58 40//38 39//37
f 42//40 40//38 61//59
f 42//40 62//60 56//54
f 43//41 63//61 64//62
f 63//61 43//41 57//55
f 33//31 65//63 57//55
f 43//41 64//62 36//34
f 36//34 64//62 52//50
f 44//42 46//44 66//64
f 45//43 48//46 46//44
f 48//46 50//48 67//65
f 50//48 68//66 67//65
f 60//58 54//52 69//67
f 40//38 60//58 61//59
f 70//68 55//53 51//49
f 42//40 61//59 71//69
f 70//68 51//49 56//54
f 34//32 72//70 33//31
f 59//57 73//71 53//51
f 66//64 46//44 74//72
f 46//44 48//46 74//72
f 53//51 75//73 49//47
f 50//48 55//53 68//66
f 42//40 71//69 62//60
f 34//32 58//56 76//74
f 58//56 44//42 77//75
f 44//42 66//64 77//75
f 48//46 67//65 78//76
f 48//46 78//76 74//72
f 49//47 75//73 54//52
f 75//73 79//77 54//52
f 54//52 79//77 69//67
f 69//67 61//59 60//58
f 69//67 80//78 61//59
f 70//68 81//79 55//53
f 62//60 70//68 56//54
f 57//55 82//80 63//61
f 82//80 57//55 65//63
f 33//31 72//70 65//63
f 63//61 83//81 64//62
f 76//74 72//70 34//32
f 76//74 58//56 84//82
f 77//75 66//64 85//83
f 86//84 73//71 59//57
f 66//64 74//72 87//85
f 88//86 70//68 62//60
f 63//61 82//80 83//81
f 89//87 72//70 76//74
f 64//62 83//81 52//50
f 52//50 86//84 59//57
f 66//64 87//85 85//83
f 73//71 75//73 53//51
f 74//72 78//76 90//88
f 55//53 81//79 68//66
f 79//77 80//78 69//67
f 81//79 70//68 91//89
f 80//78 71//69 61//59
f 92//90 71//69 80//78
f 70//68 88//86 93//91
f 62//60 71//69 92//90
f 62//60 92//90 88//86
f 82//80 65//63 94//92
f 72//70 94//92 65//63
f 72//70 95//93 94//92
f 84//82 58//56 77//75
f 87//85 74//72 96//94
f 74//72 90//88 96//94
f 75//73 97//95 79//77
f 78//76 67//65 68//66
f 78//76 68//66 98//96
f 81//79 98//96 68//66
f 99//97 80//78 79//77
f 81//79 91//89 100//98
f 70//68 93//91 91//89
f 72//70 89//87 95//93
f 82//80 94//92 101//99
f 83//81 82//80 102//100
f 83//81 103//101 52//50
f 52//50 103//101 86//84
f 104//102 73//71 86//84
f 105//103 85//83 87//85
f 97//95 106//104 79//77
f 79//77 106//104 99//97
f 92//90 80//78 99//97
f 107//105 92//90 99//97
f 88//86 92//90 107//105
f 76//74 84//82 108//106
f 101//99 102//100 82//80
f 102//100 103//101 83//81
f 77//75 109//107 84//82
f 103//101 104//102 86//84
f 110//108 97//95 73//71
f 97//95 75//73 73//71
f 99//97 106//104 111//109
f 107//105 112//110 88//86
f 88//86 112//110 93//91
f 93//91 112//110 91//89
f 94//92 113//111 101//99
f 114//112 95//93 89//87
f 89//87 76//74 108//106
f 115//113 102//100 101//99
f 102//100 115//113 103//101
f 103//101 115//113 104//102
f 77//75 85//83 109//107
f 104//102 110//108 73//71
f 96//94 116//114 87//85
f 110//108 117//115 97//95
f 97//95 117//115 106//104
f 106//104 117//115 111//109
f 118//116 111//109 117//115
f 107//105 99//97 111//109
f 114//112 89//87 119//117
f 95//93 113//111 94//92
f 113//111 95//93 114//112
f 108//106 119//117 89//87
f 119//117 108//106 120//118
f 108//106 84//82 121//119
f 101//99 122//120 115//113
f 84//82 123//121 121//119
f 84//82 109//107 123//121
f 104//102 115//113 124//122
f 109//107 85//83 105//103
f 124//122 110//108 104//102
f 110//108 124//122 125//123
f 87//85 116//114 105//103
f 125//123 117//115 110//108
f 117//115 125//123 126//124
f 96//94 90//88 127//125
f 90//88 78//76 128//126
f 78//76 98//96 128//126
f 117//115 126//124 118//116
f 118//116 107//105 111//109
f 129//127 107//105 118//116
f 100//98 91//89 130//128
f 91//89 112//110 130//128
f 112//110 107//105 129//127
f 114//112 131//129 113//111
f 113//111 132//130 101//99
f 131//129 132//130 113//111
f 122//120 101//99 132//130
f 108//106 121//119 120//118
f 122//120 133//131 115//113
f 115//113 133//131 124//122
f 134//132 123//121 109//107
f 125//123 124//122 133//131
f 134//132 109//107 105//103
f 116//114 96//94 127//125
f 127//125 90//88 128//126
f 118//116 135//133 129//127
f 119//117 136//134 114//112
f 119//117 120//118 136//134
f 133//131 122//120 137//135
f 137//135 122//120 132//130
f 123//121 138//136 121//119
f 137//135 139//137 133//131
f 139//137 125//123 133//131
f 123//121 134//132 138//136
f 140//138 125//123 139//137
f 134//132 105//103 141//139
f 140//138 126//124 125//123
f 140//138 142//140 126//124
f 142//140 118//116 126//124
f 98//96 143//141 128//126
f 144//142 81//79 100//98
f 112//110 129//127 135//133
f 130//128 112//110 135//133
f 131//129 114//112 145//143
f 114//112 136//134 145//143
f 131//129 145//143 132//130
f 137//135 132//130 145//143
f 120//118 146//144 136//134
f 121//119 146//144 120//118
f 121//119 138//136 146//144
f 105//103 116//114 147//145
f 116//114 127//125 147//145
f 118//116 142//140 148//146
f 148//146 135//133 118//116
f 143//141 98//96 81//79
f 144//142 143//141 81//79
f 135//133 149//147 130//128
f 130//128 144//142 100//98
f 145//143 136//134 150//148
f 137//135 145//143 151//149
f 151//149 145//143 150//148
f 136//134 146//144 150//148
f 137//135 151//149 139//137
f 151//149 152//150 139//137
f 138//136 153//151 146//144
f 134//132 153//151 138//136
f 134//132 154//152 153//151
f 154//152 134//132 141//139
f 141//139 105//103 147//145
f 155//153 142//140 140//138
f 148//146 142//140 155//153
f 127//125 128//126 156//154
f 149//147 157//155 130//128
f 157//155 144//142 130//128
f 151//149 150//148 158//156
f 158//156 159//157 151//149
f 146//144 160//158 150//148
f 160//158 158//156 150//148
f 153//151 160//158 146//144
f 152//150 140//138 139//137
f 155//153 140//138 152//150
f 141//139 147//145 161//159
f 147//145 127//125 162//160
f 156//154 162//160 127//125
f 163//161 156//154 128//126
f 163//161 128//126 143//141
f 148//146 149//147 135//133
f 144//142 157//155 164//162
f 164//162 143//141 144//142
f 159//157 152//150 151//149
f 159//157 158//156 165//163
f 166//164 160//158 153//151
f 154//152 166//164 153//151
f 167//165 154//152 141//139
f 141//139 161//159 167//165
f 161//159 147//145 162//160
f 148//146 155//153 149//147
f 143//141 164//162 163//161
f 164//162 157//155 168//166
f 158//156 160//158 165//163
f 169//167 159//157 165//163
f 167//165 166//164 154//152
f 156//154 170//168 162//160
f 171//169 149//147 155//153
f 156//154 163//161 170//168
f 171//169 172//170 149//147
f 168//166 163//161 164//162
f 157//155 149//147 172//170
f 168//166 157//155 172//170
f 166//164 165//163 160//158
f 169//167 152//150 159//157
f 155//153 152//150 169//167
f 173//171 167//165 161//159
f 162//160 173//171 161//159
f 170//168 173//171 162//160
f 163//161 168//166 170//168
f 165//163 174//172 169//167
f 165//163 166//164 174//172
f 166//164 167//165 175//173
f 175//173 174//172 166//164
f 174//172 176//174 169//167
f 167//165 173//171 175//173
f 176//174 155//153 169//167
f 175//173 173//171 177//175
f 155//153 176//174 171//169
f 178//176 172//170 176//174
f 173//171 170//168 177//175
f 176//174 172//170 171//169
f 177//175 170//168 178//176
f 178//176 168//166 172//170
f 170//168 168//166 178//176
f 179//177 174//172 175//173
f 176//174 174//172 179//177
f 175//173 177//175 179//177
f 178//176 176//174 179//177
f 177//175 178//176 179//177
