# Blender v2.92.0 OBJ File: 'convert_to_one_sided.blend'
# www.blender.org
mtllib 606826655L.mtl
o Cube
v 0.001000 0.001000 -0.001000
v 0.001000 -0.001000 -0.001000
v 0.001000 0.001000 0.001000
v 0.001000 -0.001000 0.001000
v -0.001000 0.001000 -0.001000
v -0.001000 -0.001000 -0.001000
v -0.001000 0.001000 0.001000
v -0.001000 -0.001000 0.001000
vt 0.625000 0.500000
vt 0.875000 0.500000
vt 0.875000 0.750000
vt 0.625000 0.750000
vt 0.375000 0.750000
vt 0.625000 1.000000
vt 0.375000 1.000000
vt 0.375000 0.000000
vt 0.625000 0.000000
vt 0.625000 0.250000
vt 0.375000 0.250000
vt 0.125000 0.500000
vt 0.375000 0.500000
vt 0.125000 0.750000
vn 0.0000 1.0000 0.0000
vn 0.0000 0.0000 1.0000
vn -1.0000 0.0000 0.0000
vn 0.0000 -1.0000 0.0000
vn 1.0000 0.0000 0.0000
vn 0.0000 0.0000 -1.0000
usemtl Material
s off
f 1/1/1 5/2/1 7/3/1 3/4/1
f 4/5/2 3/4/2 7/6/2 8/7/2
f 8/8/3 7/9/3 5/10/3 6/11/3
f 6/12/4 2/13/4 4/5/4 8/14/4
f 2/13/5 1/1/5 3/4/5 4/5/5
f 6/11/6 5/10/6 1/1/6 2/13/6
o 606826655
v 8.360212 6.192410 5.464261
v 8.303153 6.226769 5.480921
v 8.335692 6.264678 5.480801
v 8.396651 6.195439 5.486171
v 8.374372 6.253869 5.487830
v 8.397972 6.121100 5.495060
v 8.338173 6.130920 5.517190
v 8.253554 6.299068 5.505640
v 8.353683 6.279119 5.503300
v 8.281863 6.308738 5.523980
v 8.387152 6.082840 5.530840
v 8.417151 6.075071 5.542099
v 8.423872 6.122160 5.523800
v 8.266794 6.170390 5.529099
v 8.427622 6.175560 5.522220
v 8.399932 6.234289 5.524590
v 8.239804 6.231659 5.519910
v 8.205215 6.268008 5.535310
v 8.201574 6.323358 5.553610
v 8.257764 6.103301 5.582449
v 8.207624 6.181219 5.564929
v 8.379642 6.058341 5.617739
v 8.321942 6.081651 5.604129
v 8.427391 6.077021 5.577849
v 8.433611 6.121210 5.588879
v 8.428391 6.179749 5.596129
v 8.177355 6.262398 5.577149
v 8.240794 6.341598 5.627179
v 8.413562 6.231089 5.612609
v 8.341493 6.287988 5.624379
v 8.166305 6.332647 5.648608
v 8.191305 6.347257 5.680948
v 8.414241 6.057501 5.664548
v 8.167805 6.165199 5.631679
v 8.202095 6.104450 5.644508
v 8.159595 6.244719 5.677207
v 8.333102 6.059751 5.695678
v 8.262504 6.081090 5.672088
v 8.429352 6.075621 5.687228
v 8.439561 6.131050 5.696818
v 8.429512 6.189969 5.691888
v 8.396518 6.057565 5.699999
v 8.410408 6.235894 5.699999
v 8.414850 6.061994 5.699999
v 8.330715 6.061181 5.699999
v 8.439145 6.132083 5.699999
v 8.238863 6.086871 5.699999
v 8.199683 6.345466 5.699999
v 8.159456 6.226663 5.699999
v 8.376871 6.057878 5.699999
v 8.389746 6.252117 5.699999
v 8.350392 6.287141 5.699999
v 8.314146 6.307941 5.699999
v 8.162289 6.185387 5.699999
v 8.430334 6.077941 5.699999
v 8.427195 6.074778 5.699999
v 8.337042 6.059555 5.699999
v 8.178527 6.101932 5.699999
v 8.211582 6.096338 5.699999
v 8.166722 6.316461 5.699999
v 8.439435 6.129527 5.699999
v 8.178835 6.332753 5.699999
v 8.272968 6.081307 5.699999
v 8.425282 6.199933 5.699999
v 8.170528 6.114043 5.699999
v 8.275871 6.328242 5.699999
v 8.237891 6.339869 5.699999
v 8.161568 6.257867 5.699999
v 8.190583 6.342736 5.699999
v 8.429381 6.187331 5.699999
vn -0.0146 -0.1428 -0.9897
vn -0.3906 -0.1604 -0.9065
vn 0.1303 0.4613 -0.8776
vn 0.6456 0.1364 -0.7514
vn 0.5969 0.5077 -0.6213
vn 0.2501 -0.4555 -0.8544
vn -0.3665 -0.5924 -0.7175
vn -0.3384 0.3555 -0.8712
vn 0.4819 0.8118 -0.3299
vn 0.1749 0.8983 -0.4031
vn -0.2278 -0.8119 -0.5375
vn 0.4498 -0.7867 -0.4228
vn 0.8622 -0.1940 -0.4679
vn -0.4741 -0.4363 -0.7647
vn 0.9434 0.1631 -0.2886
vn 0.8182 0.5374 -0.2044
vn -0.5386 -0.2123 -0.8154
vn -0.6949 -0.0147 -0.7190
vn -0.4839 0.7265 -0.4880
vn -0.3914 -0.7579 -0.5219
vn -0.6744 -0.3766 -0.6351
vn -0.0830 -0.9844 -0.1550
vn -0.2965 -0.8982 -0.3244
vn 0.8862 -0.4411 -0.1418
vn 0.9947 -0.0621 -0.0817
vn 0.9704 0.2344 -0.0581
vn -0.9124 0.0145 -0.4089
vn 0.2084 0.9724 -0.1052
vn 0.8435 0.5345 -0.0531
vn 0.5533 0.8313 -0.0533
vn -0.8664 0.4935 -0.0758
vn -0.2805 0.9598 -0.0098
vn 0.4459 -0.8950 -0.0139
vn -0.9204 -0.2587 -0.2932
vn -0.5347 -0.7790 -0.3275
vn -0.9974 0.0307 -0.0655
vn -0.2346 -0.9719 -0.0165
vn -0.2673 -0.9588 -0.0958
vn 0.8938 -0.4483 0.0073
vn 0.9997 0.0244 0.0002
vn 0.9623 0.2707 0.0266
vn -0.7064 -0.3789 0.5978
vn -0.7073 -0.0291 0.7063
vn -0.7357 -0.0092 0.6773
vn -0.7009 0.0415 0.7121
vn -0.5644 0.4747 0.6754
vn -0.3748 0.5934 0.7123
vn 0.3219 0.6633 0.6756
vn 0.1347 0.6995 0.7018
vn 0.3558 -0.5950 0.7206
vn 0.5019 -0.4769 0.7216
vn 0.7198 -0.3493 0.6000
vn -0.0435 -0.7116 0.7012
vn 0.0284 -0.7230 0.6902
vn 0.7117 -0.0552 0.7003
vn 0.6583 0.0987 0.7462
vn 0.6541 0.2630 0.7092
vn 0.6673 0.1535 0.7288
vn -0.7125 0.1345 0.6886
vn -0.1669 -0.7201 0.6735
vn -0.5475 -0.6459 0.5321
vn 0.3546 0.6503 0.6718
vn 0.4447 0.6138 0.6523
vn 0.4407 0.5620 0.6999
vn -0.0517 0.7237 0.6882
vn -0.1739 -0.6326 0.7547
vn -0.1910 -0.7219 0.6651
vn -0.0964 -0.6933 0.7142
vn -0.2088 -0.6553 0.7260
vn 0.5861 0.4485 0.6748
usemtl mtl1.555
s 1
f 9//7 10//8 11//9
f 12//10 9//7 11//9
f 13//11 12//10 11//9
f 14//12 15//13 9//7
f 14//12 9//7 12//10
f 9//7 15//13 10//8
f 11//9 10//8 16//14
f 13//11 11//9 17//15
f 18//16 11//9 16//14
f 17//15 11//9 18//16
f 19//17 15//13 14//12
f 20//18 19//17 14//12
f 20//18 14//12 21//19
f 14//12 12//10 21//19
f 15//13 22//20 10//8
f 23//21 21//19 12//10
f 24//22 23//21 12//10
f 22//20 25//23 10//8
f 12//10 13//11 24//22
f 10//8 25//23 16//14
f 25//23 26//24 16//14
f 24//22 13//11 17//15
f 16//14 26//24 27//25
f 16//14 27//25 18//16
f 28//26 22//20 15//13
f 29//27 25//23 22//20
f 20//18 30//28 19//17
f 31//29 15//13 19//17
f 20//18 21//19 32//30
f 31//29 28//26 15//13
f 21//19 23//21 33//31
f 29//27 26//24 25//23
f 23//21 24//22 34//32
f 26//24 29//27 35//33
f 27//25 26//24 35//33
f 18//16 27//25 36//34
f 19//17 30//28 31//29
f 32//30 21//19 33//31
f 28//26 29//27 22//20
f 33//31 23//21 34//32
f 34//32 24//22 37//35
f 24//22 38//36 37//35
f 24//22 17//15 38//36
f 39//37 27//25 35//33
f 40//38 36//34 27//25
f 30//28 20//18 41//39
f 41//39 20//18 32//30
f 42//40 29//27 43//41
f 28//26 43//41 29//27
f 42//40 35//33 29//27
f 35//33 44//42 39//37
f 38//36 17//15 18//16
f 27//25 39//37 40//38
f 18//16 36//34 38//36
f 45//43 31//29 30//28
f 42//40 44//42 35//33
f 28//26 46//44 43//41
f 41//39 32//30 47//45
f 28//26 31//29 46//44
f 32//30 33//31 47//45
f 33//31 48//46 47//45
f 33//31 34//32 48//46
f 48//46 34//32 49//47
f 34//32 37//35 49//47
f 31//29 45//43 46//44
f 73//48 62//49 42//40
f 57//50 76//51 44//42
f 40//38 70//52 77//53
f 74//54 36//34 75//55
f 52//56 47//45 64//57
f 63//58 64//57 47//45
f 58//59 50//60 64//57
f 52//56 50//60 41//39
f 69//61 48//46 54//62
f 49//47 72//63 78//64
f 44//42 68//65 39//37
f 39//37 68//65 70//52
f 43//41 73//48 42//40
f 43//41 67//66 66//67
f 48//46 63//58 47//45
f 38//36 74//54 61//68
f 38//36 61//68 60//69
f 38//36 60//69 59//70
f 58//59 45//43 30//28
f 62//49 44//42 42//40
f 40//38 75//55 36//34
f 40//38 77//53 56//71
f 46//44 67//66 43//41
f 46//44 71//72 55//73
f 48//46 78//64 54//62
f 45//43 71//72 46//44
f 45//43 65//74 53//75
f 59//70 37//35 38//36
f 49//47 51//76 72//63
f 41//39 58//59 30//28
f 40//38 39//37 70//52
f 52//56 41//39 47//45
f 69//61 54//62 58//59
f 54//62 78//64 53//75
f 65//74 54//62 53//75
f 78//64 72//63 71//72
f 72//63 51//76 59//70
f 59//70 60//69 71//72
f 60//69 61//68 62//49
f 71//72 60//69 62//49
f 72//63 59//70 71//72
f 63//58 69//61 64//57
f 54//62 65//74 58//59
f 64//57 69//61 58//59
f 50//60 52//56 64//57
f 61//68 74//54 76//51
f 74//54 75//55 76//51
f 61//68 76//51 57//50
f 75//55 56//71 70//52
f 56//71 77//53 70//52
f 70//52 68//65 75//55
f 68//65 76//51 75//55
f 57//50 62//49 61//68
f 62//49 73//48 67//66
f 71//72 62//49 55//73
f 73//48 66//67 67//66
f 67//66 55//73 62//49
f 71//72 53//75 78//64
f 44//42 76//51 68//65
f 43//41 66//67 73//48
f 48//46 69//61 63//58
f 38//36 36//34 74//54
f 58//59 65//74 45//43
f 62//49 57//50 44//42
f 40//38 56//71 75//55
f 46//44 55//73 67//66
f 48//46 49//47 78//64
f 45//43 53//75 71//72
f 59//70 51//76 37//35
f 49//47 37//35 51//76
f 41//39 50//60 58//59
