# wavefront obj file written by the visualization toolkit


v 8982.84 5218.19 5575.81
v 8957.61 5175.71 5576.62
v 8881.99 5258.62 5564.14
v 8854.8 5217.7 5570.04
v 8804.12 5210.98 5582.34
v 8793.58 5274.95 5575.1
v 8819.75 5314.38 5577.96
v 9018.91 5116.53 5611.53
v 8887.79 5301.06 5588.64
v 8964.54 5266.19 5601.57
v 8764.23 5222.3 5609.25
v 8746.53 5273.17 5635.11
v 8769.82 5322.3 5629.01
v 8814.35 5336.24 5628.52
v 9000.81 5076.15 5625.78
v 8889.56 5116.84 5620.05
v 8783.03 5146.56 5638.75
v 9016.92 5168.8 5638.51
v 8917.3 5325.79 5657.02
v 9046.14 5031.7 5662.6
v 8989.33 5031.58 5664.52
v 9039.48 5085.92 5649.97
v 8744.55 5208.62 5682
v 8977.1 5258.38 5679.94
v 8841.29 5349.19 5681.38
v 8889.02 5045.47 5677.78
v 8806.7 5092.52 5665.9
v 8771.58 5131.18 5668.56
v 8744.38 5321.44 5710.95
v 8741.18 5283.82 5701.22
v 8786.62 5344.74 5712.16
v 9035.1 5006.29 5695.69
v 9047.21 5083.17 5695.17
v 8826.13 5359.52 5733.47
v 8969.16 5020.34 5693.65
v 8920.19 5026.67 5702.66
v 8842.24 5062.88 5697.21
v 8776.37 5135.89 5698.4
v 8945.53 5298.79 5740.97
v 8867.08 5341.26 5733.49
v 9045.63 5032.05 5705.83
v 9006.1 5187.52 5741.81
v 8985.6 5051.77 5734.37
v 8754.13 5212.23 5759.79
v 8747.95 5284.27 5749.82
v 9033.8 5037.69 5717.79
v 8880.58 5071.43 5724.77
v 9021.72 5091.27 5742.39
v 8816.19 5128.89 5734.17
v 8889.11 5126.75 5769.01
v 8809.64 5199.9 5794.33
v 8770.65 5328.98 5767.63
v 8825.03 5343.33 5759.06
v 8973.64 5145.95 5789.28
v 8772.43 5244.85 5806.04
v 8961.37 5260.48 5785.85
v 8979.51 5203.57 5796.65
v 8891.38 5309.92 5778.14
v 8991.27 5157.23 5769.08
v 8874.13 5204.07 5812.54
v 8780.12 5276.31 5797.4
v 8807.86 5242.16 5808.96
v 8907.93 5270.9 5809.38
v 8832.3 5304.92 5790.05
v 8914.84 5225.07 5809.16
v 8852.17 5252.98 5803.45
vn 0.564693 0.263899 -0.781972
vn 0.0803116 -0.284022 -0.955448
vn 0.0686973 0.154944 -0.985532
vn -0.1324 -0.258022 -0.957024
vn -0.388108 -0.369624 -0.844246
vn -0.491514 0.0957183 -0.865593
vn -0.125886 0.642208 -0.756123
vn 0.666705 -0.11199 -0.73686
vn 0.293191 0.741523 -0.603475
vn 0.719635 0.605002 -0.340733
vn -0.792853 -0.22377 -0.566844
vn -0.930066 0.121739 -0.346636
vn -0.601843 0.682056 -0.415433
vn -0.0687648 0.944442 -0.321404
vn 0.0702201 -0.520911 -0.850718
vn -0.209678 -0.556587 -0.803894
vn -0.638875 -0.468683 -0.610061
vn 0.930333 0.320354 -0.178478
vn 0.506642 0.84968 -0.146143
vn 0.743109 -0.444807 -0.499935
vn -0.0833877 -0.780209 -0.619936
vn 0.946469 0.102361 -0.306136
vn -0.973439 -0.218347 -0.0688601
vn 0.845328 0.534174 -0.00884782
vn 0.126034 0.971351 -0.201478
vn -0.305253 -0.849421 -0.43047
vn -0.582129 -0.7315 -0.355012
vn -0.854917 -0.493683 -0.159355
vn -0.871497 0.489811 0.0240415
vn -0.999142 0.0343669 0.023106
vn -0.363029 0.931694 0.0124691
vn 0.289518 -0.929406 0.228875
vn 0.986042 0.125723 0.109159
vn 0.0069481 0.983882 0.178682
vn -0.150369 -0.988347 0.0236464
vn -0.258418 -0.894407 0.365042
vn -0.546771 -0.777886 0.309732
vn -0.774422 -0.561028 0.292435
vn 0.673717 0.709675 0.206076
vn 0.372961 0.898496 0.231528
vn 0.874713 -0.28269 0.393655
vn 0.911931 0.295819 0.284381
vn 0.0109456 -0.613671 0.789486
vn -0.836793 -0.300108 0.457944
vn -0.935262 0.0846845 0.343676
vn 0.399799 -0.450481 0.798265
vn -0.306521 -0.605984 0.73405
vn 0.686593 -0.0955556 0.720735
vn -0.488252 -0.585063 0.647543
vn -0.20895 -0.546187 0.811184
vn -0.341457 -0.493602 0.799852
vn -0.503104 0.654945 0.563856
vn -0.0122554 0.831207 0.555828
vn 0.299899 -0.28568 0.910191
vn -0.527047 -0.116838 0.841766
vn 0.656268 0.535824 0.53123
vn 0.617375 0.0711462 0.783445
vn 0.308388 0.745852 0.590425
vn 0.79115 -0.00978807 0.611543
vn -0.0537087 -0.194233 0.979484
vn -0.463957 0.293298 0.835895
vn -0.0932357 0.0305956 0.995174
vn 0.169629 0.335515 0.926637
vn -0.0369874 0.489451 0.871246
vn 0.0968607 -0.00602426 0.99528
vn -0.0353918 0.195897 0.979986

g grp1
usemtl mtl1
f 1//1 2//2 3//3 
f 2//2 4//4 3//3 
f 4//4 5//5 6//6 
f 3//3 4//4 6//6 
f 3//3 6//6 7//7 
f 1//1 8//8 2//2 
f 3//3 9//9 1//1 
f 9//9 10//10 1//1 
f 6//6 5//5 11//11 
f 12//12 6//6 11//11 
f 7//7 9//9 3//3 
f 6//6 12//12 13//13 
f 13//13 7//7 6//6 
f 14//14 7//7 13//13 
f 9//9 7//7 14//14 
f 8//8 15//15 2//2 
f 16//16 4//4 2//2 
f 15//15 16//16 2//2 
f 5//5 4//4 16//16 
f 17//17 5//5 16//16 
f 8//8 1//1 18//18 
f 1//1 10//10 18//18 
f 10//10 9//9 19//19 
f 15//15 20//20 21//21 
f 16//16 15//15 21//21 
f 8//8 20//20 15//15 
f 18//18 22//22 8//8 
f 5//5 17//17 11//11 
f 23//23 12//12 11//11 
f 19//19 24//24 10//10 
f 25//25 9//9 14//14 
f 16//16 21//21 26//26 
f 8//8 22//22 20//20 
f 27//27 28//28 17//17 
f 26//26 27//27 16//16 
f 16//16 27//27 17//17 
f 23//23 17//17 28//28 
f 11//11 17//17 23//23 
f 10//10 24//24 18//18 
f 29//29 12//12 30//30 
f 12//12 29//29 13//13 
f 31//31 14//14 13//13 
f 9//9 25//25 19//19 
f 25//25 14//14 31//31 
f 21//21 20//20 32//32 
f 22//22 33//33 20//20 
f 22//22 18//18 33//33 
f 23//23 30//30 12//12 
f 13//13 29//29 31//31 
f 25//25 31//31 34//34 
f 35//35 21//21 32//32 
f 21//21 35//35 26//26 
f 36//36 26//26 35//35 
f 27//27 37//37 38//38 
f 26//26 37//37 27//27 
f 27//27 38//38 28//28 
f 24//24 19//19 39//39 
f 25//25 40//40 19//19 
f 41//41 32//32 20//20 
f 20//20 33//33 41//41 
f 26//26 36//36 37//37 
f 28//28 38//38 23//23 
f 33//33 18//18 42//42 
f 42//42 18//18 24//24 
f 39//39 42//42 24//24 
f 32//32 43//43 35//35 
f 43//43 36//36 35//35 
f 23//23 38//38 44//44 
f 30//30 45//45 29//29 
f 19//19 40//40 39//39 
f 25//25 34//34 40//40 
f 43//43 32//32 46//46 
f 46//46 32//32 41//41 
f 47//47 36//36 43//43 
f 37//37 36//36 47//47 
f 48//48 46//46 41//41 
f 37//37 49//49 38//38 
f 37//37 47//47 49//49 
f 48//48 41//41 33//33 
f 49//49 44//44 38//38 
f 23//23 45//45 30//30 
f 48//48 43//43 46//46 
f 49//49 47//47 50//50 
f 50//50 51//51 49//49 
f 49//49 51//51 44//44 
f 23//23 44//44 45//45 
f 45//45 52//52 29//29 
f 31//31 29//29 52//52 
f 34//34 31//31 53//53 
f 34//34 53//53 40//40 
f 43//43 50//50 47//47 
f 48//48 54//54 43//43 
f 33//33 42//42 48//48 
f 51//51 55//55 44//44 
f 42//42 56//56 57//57 
f 39//39 56//56 42//42 
f 58//58 56//56 39//39 
f 31//31 52//52 53//53 
f 53//53 58//58 40//40 
f 58//58 39//39 40//40 
f 54//54 48//48 59//59 
f 50//50 43//43 54//54 
f 48//48 42//42 59//59 
f 54//54 60//60 50//50 
f 42//42 57//57 59//59 
f 45//45 44//44 61//61 
f 45//45 61//61 52//52 
f 50//50 60//60 51//51 
f 54//54 59//59 57//57 
f 55//55 51//51 62//62 
f 51//51 60//60 62//62 
f 57//57 56//56 63//63 
f 44//44 55//55 61//61 
f 63//63 56//56 58//58 
f 63//63 58//58 64//64 
f 52//52 64//64 53//53 
f 58//58 53//53 64//64 
f 54//54 57//57 65//65 
f 54//54 65//65 60//60 
f 57//57 63//63 65//65 
f 55//55 62//62 61//61 
f 66//66 62//62 60//60 
f 60//60 65//65 66//66 
f 63//63 66//66 65//65 
f 64//64 52//52 61//61 
f 66//66 64//64 61//61 
f 63//63 64//64 66//66 
f 66//66 61//61 62//62 
