# wavefront obj file written by the visualization toolkit


v 8611.36 5571.62 5517.57
v 8711.42 5518.98 5530.68
v 8633.06 5525.6 5539.24
v 8548.79 5600.78 5529.18
v 8645.14 5618.02 5518.99
v 8715.54 5635.56 5532.26
v 8582.29 5674.44 5521.91
v 8521.05 5679.1 5539.74
v 8670.85 5732.94 5538.47
v 8581.43 5762.07 5546.59
v 8816.95 5460.73 5561.38
v 8805.63 5588.62 5547.09
v 8913.61 5544.58 5563.7
v 8555.22 5571.98 5542.46
v 8531.32 5590.95 5622.89
v 8778.38 5694.3 5554.22
v 8479.35 5665.06 5648.06
v 8511.24 5741.34 5587.66
v 8555.91 5804.3 5578.95
v 8766.45 5764.73 5572.34
v 8676.88 5802.37 5572.41
v 8614.27 5830.37 5592.31
v 8703.1 5455.33 5594.87
v 8821.55 5414.56 5609.34
v 8943.74 5467.21 5581.85
v 8917.45 5418.21 5616.4
v 8996.89 5525.6 5598.64
v 8621.58 5508.85 5614.36
v 8866.23 5636.6 5560.75
v 8935 5624.63 5582.43
v 9000.66 5605.53 5614.03
v 8863.06 5697.37 5580.25
v 8518.25 5790.99 5617.52
v 8674.77 5834.51 5601.61
v 8980.84 5460.18 5617.76
v 9030.66 5548.02 5648.76
v 8936.8 5679.08 5611.11
v 8467.23 5707.46 5685.33
v 8851.44 5741.99 5605.93
v 8558.33 5825.14 5637.74
v 8759.55 5802.66 5631.29
v 8608.79 5854.91 5680.6
v 8866.05 5391.76 5680.58
v 8936.55 5399.83 5675.65
v 8767.52 5410.84 5678.65
v 9017.77 5489.7 5666.55
v 9028.81 5588.96 5676.32
v 8985.64 5652.87 5674.41
v 8483.95 5751.22 5667.1
v 8664.07 5838.46 5643.07
v 8974.54 5435.06 5679.73
v 8686.57 5451.81 5679.76
v 8612.69 5506.69 5725.76
v 8895.44 5727.5 5660.94
v 8514.42 5795.1 5700.8
v 8485.45 5617.65 5771.24
v 8460.57 5713.13 5753.98
v 8823.86 5782.56 5720.98
v 8804.38 5395.38 5742.84
v 9030.33 5532.79 5726.69
v 8534.05 5572.06 5762.78
v 8564.5 5833.4 5730.54
v 8694.53 5836.12 5718
v 8709.79 5444.49 5766.58
v 8948.59 5415.1 5735.79
v 9010.64 5609.05 5734.21
v 8940.6 5690.45 5725.13
v 8479.44 5745.14 5762.69
v 8622.05 5845.51 5749.4
v 8998.79 5465.33 5736.5
v 8471.9 5675.08 5788.51
v 8870.88 5736.46 5770.6
v 8866.51 5400.09 5755.13
v 8519.46 5788.33 5769.44
v 8751.92 5803.87 5777.5
v 8975.54 5448.19 5787.37
v 8481.27 5629.36 5819.32
v 8962.5 5650.43 5774.87
v 8468.96 5714.96 5782.29
v 8651.04 5831.16 5793.41
v 8817.09 5408.83 5777.21
v 8885.18 5418.26 5783.25
v 9006.71 5498.21 5774.9
v 8602.42 5528.37 5816.05
v 8998.34 5569.82 5779.7
v 8520.84 5597.04 5821.36
v 8504.58 5745.54 5807.49
v 8570.54 5803.39 5796.69
v 8795.18 5433.54 5802.37
v 8699.87 5473.84 5817.44
v 8966.55 5626.98 5795.3
v 8907.37 5677.8 5796.91
v 8786.03 5749.87 5812.09
v 8669.64 5799.12 5828.66
v 8894.17 5453.19 5811.41
v 8969.21 5503.75 5800.43
v 8682.01 5496.95 5839.75
v 8931.3 5587.09 5807.32
v 8849.88 5654.15 5815.15
v 8812.07 5565.81 5836.53
v 8760.59 5667.89 5840.17
v 8603.76 5797.06 5832.59
v 8793.6 5484.92 5827.47
v 8880.86 5517.19 5815.77
v 8722.88 5533.73 5846.8
v 8697.02 5622.98 5858.48
v 8567.02 5587.58 5852.69
v 8668.94 5717.79 5855.08
v 8556.18 5761.92 5844.31
v 8645.01 5567.92 5848.4
v 8527.72 5646.53 5844.23
v 8526.97 5714.27 5832.3
v 8613.22 5765 5847.67
v 8612.01 5644.69 5857.04
v 8582.75 5710.51 5845.36
vn -0.138339 -0.217557 -0.966194
vn 0.0758233 -0.213957 -0.973896
vn -0.332455 -0.662445 -0.671298
vn -0.595651 -0.298802 -0.745598
vn 0.0982888 0.0519013 -0.993804
vn 0.183974 0.0827889 -0.979439
vn -0.134811 0.119458 -0.983644
vn -0.732156 0.0176235 -0.680909
vn 0.129271 0.26972 -0.954222
vn -0.217477 0.428021 -0.877213
vn 0.039653 -0.49937 -0.865481
vn 0.176827 0.0118281 -0.984171
vn 0.26524 -0.013399 -0.964089
vn -0.678312 -0.638476 -0.36365
vn -0.80305 -0.571476 -0.168895
vn 0.225552 0.213978 -0.950442
vn -0.94841 -0.214555 -0.233418
vn -0.80955 0.282741 -0.514477
vn -0.482744 0.648006 -0.589107
vn 0.322616 0.548086 -0.7717
vn 0.185562 0.616149 -0.765459
vn -0.0957751 0.857188 -0.506019
vn -0.382329 -0.840443 -0.384032
vn -0.100861 -0.885267 -0.454016
vn 0.374198 -0.401183 -0.836079
vn 0.303254 -0.804334 -0.510963
vn 0.66891 -0.114537 -0.734467
vn -0.603277 -0.783123 -0.150916
vn 0.251148 0.183514 -0.950393
vn 0.424757 0.254952 -0.868666
vn 0.754871 0.36203 -0.546903
vn 0.372102 0.406007 -0.834684
vn -0.741345 0.613524 -0.272022
vn 0.226796 0.883239 -0.410431
vn 0.668183 -0.580431 -0.465437
vn 0.955792 -0.0330619 -0.292179
vn 0.585233 0.607434 -0.537146
vn -0.981703 0.0021028 -0.190407
vn 0.486841 0.718453 -0.496801
vn -0.484373 0.857481 -0.173519
vn 0.420575 0.862282 -0.282111
vn -0.0929427 0.993588 -0.0643848
vn 0.0296017 -0.996189 -0.0820481
vn 0.414763 -0.901149 -0.126107
vn -0.336241 -0.935856 -0.105428
vn 0.883683 -0.433344 -0.176968
vn 0.939396 0.337609 -0.0596226
vn 0.748549 0.656831 -0.0908121
vn -0.891231 0.42798 -0.150137
vn 0.196511 0.972814 -0.122543
vn 0.691572 -0.710985 -0.127393
vn -0.531149 -0.846163 -0.0434623
vn -0.618333 -0.785536 0.0244504
vn 0.587698 0.796512 -0.142057
vn -0.711132 0.702943 0.0127742
vn -0.840038 -0.542217 0.0183757
vn -0.97859 0.19179 0.0746863
vn 0.504876 0.860587 0.0670041
vn -0.190041 -0.966233 0.174004
vn 0.976672 -0.0727841 0.202024
vn -0.653969 -0.753307 0.0696626
vn -0.466325 0.866942 0.175933
vn 0.283898 0.956761 0.0633226
vn -0.434315 -0.858873 0.271492
vn 0.439312 -0.873344 0.210415
vn 0.848095 0.453762 0.273562
vn 0.670158 0.728586 0.141599
vn -0.808295 0.554881 0.196891
vn -0.100523 0.95603 0.275504
vn 0.819318 -0.558373 0.130149
vn -0.917655 -0.0463541 0.394666
vn 0.532661 0.708922 0.462279
vn 0.118389 -0.946032 0.301674
vn -0.622401 0.710548 0.328235
vn 0.380266 0.815662 0.435997
vn 0.532912 -0.573323 0.622339
vn -0.786961 -0.297335 0.540634
vn 0.691629 0.562845 0.452608
vn -0.848455 0.268904 0.455868
vn 0.0457267 0.894703 0.444314
vn -0.112254 -0.849232 0.51595
vn 0.152735 -0.779582 0.607391
vn 0.809454 -0.204997 0.550237
vn -0.486721 -0.722889 0.490443
vn 0.72419 0.164098 0.669792
vn -0.606163 -0.621931 0.495749
vn -0.659675 0.423046 0.621177
vn -0.398032 0.784014 0.476334
vn -0.0983494 -0.673304 0.732796
vn -0.248533 -0.737883 0.627503
vn 0.533048 0.302829 0.790034
vn 0.375161 0.403579 0.834493
vn 0.335221 0.421986 0.842351
vn 0.192046 0.562186 0.804404
vn 0.148704 -0.355565 0.922746
vn 0.375865 -0.0574875 0.924889
vn -0.171044 -0.465605 0.868306
vn 0.272209 0.0730952 0.959458
vn 0.254246 0.172156 0.951694
vn 0.209971 -0.0184577 0.977533
vn 0.257948 0.150136 0.954422
vn -0.152694 0.671755 0.724865
vn 0.0749766 -0.327153 0.941992
vn 0.184135 -0.0653433 0.980727
vn 0.0567045 -0.166297 0.984444
vn 0.080191 -0.0256544 0.996449
vn -0.286956 -0.342933 0.894457
vn 0.0942499 0.165263 0.981736
vn -0.364928 0.362259 0.857669
vn -0.110871 -0.24875 0.962201
vn -0.41981 0.0131779 0.907516
vn -0.506481 0.107199 0.855562
vn -0.0243134 0.25336 0.967067
vn -0.0805665 0.00592076 0.996732
vn -0.159048 0.0636932 0.985214

g grp1
usemtl mtl1
f 1//1 2//2 3//3 
f 1//1 3//3 4//4 
f 2//2 1//1 5//5 
f 6//6 2//2 5//5 
f 1//1 4//4 7//7 
f 5//5 1//1 7//7 
f 4//4 8//8 7//7 
f 5//5 7//7 9//9 
f 9//9 6//6 5//5 
f 8//8 10//10 7//7 
f 9//9 7//7 10//10 
f 11//11 3//3 2//2 
f 12//12 11//11 2//2 
f 13//13 11//11 12//12 
f 12//12 2//2 6//6 
f 14//14 4//4 3//3 
f 14//14 15//15 4//4 
f 15//15 8//8 4//4 
f 12//12 6//6 16//16 
f 8//8 15//15 17//17 
f 18//18 8//8 17//17 
f 8//8 18//18 10//10 
f 6//6 9//9 16//16 
f 18//18 19//19 10//10 
f 16//16 9//9 20//20 
f 10//10 21//21 9//9 
f 20//20 9//9 21//21 
f 22//22 10//10 19//19 
f 21//21 10//10 22//22 
f 23//23 11//11 24//24 
f 11//11 25//25 26//26 
f 11//11 23//23 3//3 
f 13//13 25//25 11//11 
f 27//27 25//25 13//13 
f 3//3 28//28 14//14 
f 13//13 12//12 29//29 
f 27//27 13//13 30//30 
f 30//30 31//31 27//27 
f 12//12 16//16 29//29 
f 30//30 13//13 29//29 
f 30//30 29//29 32//32 
f 32//32 29//29 16//16 
f 18//18 33//33 19//19 
f 32//32 16//16 20//20 
f 22//22 34//34 21//21 
f 26//26 24//24 11//11 
f 23//23 28//28 3//3 
f 27//27 35//35 25//25 
f 14//14 28//28 15//15 
f 31//31 36//36 27//27 
f 31//31 30//30 37//37 
f 30//30 32//32 37//37 
f 38//38 18//18 17//17 
f 32//32 39//39 37//37 
f 32//32 20//20 39//39 
f 33//33 40//40 19//19 
f 20//20 21//21 41//41 
f 22//22 19//19 40//40 
f 21//21 34//34 41//41 
f 22//22 40//40 42//42 
f 26//26 43//43 24//24 
f 26//26 44//44 43//43 
f 24//24 45//45 23//23 
f 26//26 25//25 35//35 
f 35//35 27//27 46//46 
f 36//36 46//46 27//27 
f 36//36 31//31 47//47 
f 48//48 31//31 37//37 
f 49//49 18//18 38//38 
f 49//49 33//33 18//18 
f 41//41 39//39 20//20 
f 50//50 22//22 42//42 
f 50//50 34//34 22//22 
f 26//26 51//51 44//44 
f 26//26 35//35 51//51 
f 52//52 28//28 23//23 
f 51//51 35//35 46//46 
f 53//53 15//15 28//28 
f 48//48 47//47 31//31 
f 37//37 39//39 54//54 
f 54//54 39//39 41//41 
f 33//33 55//55 40//40 
f 34//34 50//50 41//41 
f 45//45 24//24 43//43 
f 23//23 45//45 52//52 
f 53//53 28//28 52//52 
f 56//56 17//17 15//15 
f 38//38 57//57 49//49 
f 54//54 48//48 37//37 
f 33//33 49//49 55//55 
f 54//54 41//41 58//58 
f 43//43 59//59 45//45 
f 46//46 36//36 60//60 
f 61//61 15//15 53//53 
f 36//36 47//47 60//60 
f 55//55 62//62 40//40 
f 41//41 63//63 58//58 
f 40//40 62//62 42//42 
f 63//63 41//41 50//50 
f 50//50 42//42 63//63 
f 45//45 64//64 52//52 
f 44//44 51//51 65//65 
f 15//15 61//61 56//56 
f 66//66 47//47 48//48 
f 67//67 48//48 54//54 
f 49//49 68//68 55//55 
f 69//69 42//42 62//62 
f 44//44 65//65 43//43 
f 52//52 64//64 53//53 
f 51//51 46//46 70//70 
f 46//46 60//60 70//70 
f 60//60 47//47 66//66 
f 17//17 56//56 71//71 
f 17//17 71//71 38//38 
f 38//38 71//71 57//57 
f 67//67 66//66 48//48 
f 49//49 57//57 68//68 
f 67//67 54//54 58//58 
f 72//72 67//67 58//58 
f 42//42 69//69 63//63 
f 73//73 59//59 43//43 
f 45//45 59//59 64//64 
f 65//65 51//51 70//70 
f 68//68 74//74 55//55 
f 74//74 62//62 55//55 
f 75//75 58//58 63//63 
f 73//73 43//43 65//65 
f 76//76 65//65 70//70 
f 56//56 77//77 71//71 
f 66//66 67//67 78//78 
f 71//71 79//79 57//57 
f 68//68 57//57 79//79 
f 58//58 75//75 72//72 
f 69//69 80//80 63//63 
f 63//63 80//80 75//75 
f 81//81 64//64 59//59 
f 73//73 81//81 59//59 
f 65//65 82//82 73//73 
f 83//83 76//76 70//70 
f 84//84 53//53 64//64 
f 60//60 83//83 70//70 
f 85//85 83//83 60//60 
f 61//61 86//86 56//56 
f 66//66 85//85 60//60 
f 66//66 78//78 85//85 
f 56//56 86//86 77//77 
f 67//67 72//72 78//78 
f 87//87 68//68 79//79 
f 74//74 68//68 87//87 
f 62//62 88//88 69//69 
f 82//82 81//81 73//73 
f 64//64 89//89 90//90 
f 81//81 89//89 64//64 
f 76//76 82//82 65//65 
f 90//90 84//84 64//64 
f 84//84 61//61 53//53 
f 91//91 85//85 78//78 
f 92//92 91//91 78//78 
f 78//78 72//72 92//92 
f 92//92 72//72 93//93 
f 94//94 93//93 75//75 
f 72//72 75//75 93//93 
f 74//74 88//88 62//62 
f 80//80 94//94 75//75 
f 69//69 88//88 80//80 
f 89//89 81//81 82//82 
f 95//95 89//89 82//82 
f 82//82 76//76 95//95 
f 95//95 76//76 96//96 
f 97//97 84//84 90//90 
f 76//76 83//83 96//96 
f 83//83 85//85 96//96 
f 86//86 61//61 84//84 
f 85//85 98//98 96//96 
f 98//98 85//85 91//91 
f 98//98 99//99 100//100 
f 92//92 99//99 98//98 
f 100//100 99//99 101//101 
f 98//98 91//91 92//92 
f 99//99 93//93 101//101 
f 92//92 93//93 99//99 
f 74//74 87//87 88//88 
f 88//88 102//102 80//80 
f 102//102 94//94 80//80 
f 103//103 89//89 95//95 
f 90//90 89//89 103//103 
f 97//97 90//90 103//103 
f 95//95 104//104 103//103 
f 95//95 96//96 104//104 
f 100//100 105//105 103//103 
f 106//106 105//105 100//100 
f 104//104 100//100 103//103 
f 96//96 98//98 104//104 
f 104//104 98//98 100//100 
f 84//84 107//107 86//86 
f 100//100 101//101 106//106 
f 71//71 87//87 79//79 
f 101//101 108//108 106//106 
f 93//93 108//108 101//101 
f 87//87 109//109 88//88 
f 109//109 102//102 88//88 
f 108//108 93//93 94//94 
f 97//97 103//103 105//105 
f 97//97 110//110 84//84 
f 105//105 110//110 97//97 
f 84//84 110//110 107//107 
f 105//105 106//106 110//110 
f 86//86 107//107 111//111 
f 86//86 111//111 77//77 
f 77//77 111//111 71//71 
f 112//112 71//71 111//111 
f 112//112 87//87 71//71 
f 87//87 112//112 109//109 
f 102//102 109//109 113//113 
f 108//108 94//94 113//113 
f 102//102 113//113 94//94 
f 110//110 114//114 107//107 
f 106//106 114//114 110//110 
f 114//114 111//111 107//107 
f 114//114 115//115 111//111 
f 115//115 112//112 111//111 
f 115//115 109//109 112//112 
f 106//106 108//108 114//114 
f 114//114 108//108 115//115 
f 113//113 109//109 115//115 
f 108//108 113//113 115//115 
