# wavefront obj file written by the visualization toolkit


v 8574.59 5526.36 5408.94
v 8488.65 5521.58 5416.27
v 8494.44 5570.87 5417.08
v 8651.77 5584.18 5418.91
v 8706.92 5524.6 5432.9
v 8573.27 5590.9 5414.86
v 8580.11 5647.19 5431.34
v 8575.73 5506.23 5436.89
v 8685.07 5491.27 5445.98
v 8451.5 5540.67 5435.52
v 8448.1 5582.17 5447.49
v 8801.41 5562.94 5456.17
v 8502.13 5647.84 5450.4
v 8732.88 5643.57 5463.02
v 8560.75 5705.37 5461.4
v 8656.17 5695.42 5471.5
v 8826.87 5493.48 5465.73
v 8778.27 5460.66 5484
v 8500.5 5522.95 5439.55
v 8470.27 5638.19 5466.22
v 8891.34 5460.14 5494.74
v 8669.6 5487.04 5471.78
v 8919.96 5489.5 5486.14
v 8942.81 5503.37 5498.67
v 8566.67 5508.89 5460.61
v 8502.37 5534.59 5460.56
v 8451.99 5568.83 5455
v 8903.66 5535.35 5494.62
v 8514.98 5679.48 5471.53
v 8787.12 5684.29 5507.87
v 8670.15 5718.04 5497.26
v 8836.88 5445.89 5503.66
v 8461.2 5615.22 5465.61
v 8860.04 5613.89 5505.16
v 8490.22 5658.01 5474.3
v 8576.88 5689.14 5483.64
v 8900.18 5450.62 5508.73
v 8765.06 5463.86 5499.25
v 8931.43 5488.86 5504.12
v 8632.17 5510.93 5488.86
v 8921.64 5537.35 5512.17
v 8549.24 5602.32 5479.15
v 8857.78 5642.2 5512.75
v 8741.78 5717.08 5511.66
v 8702.71 5712.74 5509.11
v 8866.13 5452.96 5515.24
v 8853.53 5642.72 5517.84
v 8777.78 5692.95 5519.57
v 8913.45 5496.99 5517.26
v 8767.17 5551.68 5524.36
v 8646.68 5590.68 5502.13
v 8668.43 5644.91 5508.01
v 8872.97 5539.92 5532.96
v 8877.53 5587.5 5528.18
v 8770.87 5654.67 5527.14
v 8832.09 5637.44 5528.12
v 8826.43 5595.27 5527.38
v 8817.21 5600.91 5836.96
v 8732.47 5682.52 5851.09
v 8808.7 5684.21 5841.75
v 8865.75 5667.82 5842.72
v 8892.65 5612.21 5847.95
v 8801.86 5505.59 5864.13
v 8904.28 5539.88 5858.55
v 8903.24 5481.53 5882.7
v 8936.19 5574.86 5861.8
v 8714.93 5610.69 5861.49
v 8907.84 5614.96 5854.67
v 8735.28 5715.55 5861.33
v 8791.3 5703.08 5852.42
v 8838.22 5462.38 5886.57
v 8704.87 5485.63 5897.35
v 8933.15 5529.3 5876.77
v 8647.78 5564.04 5882.04
v 8645.49 5661.08 5876.5
v 8871.56 5632.14 5870.42
v 8785.05 5698.26 5862.77
v 8704.77 5722.15 5878.72
v 8711.56 5468.75 5916.04
v 8786.12 5463.58 5908.93
v 8542.25 5522.44 5915.71
v 8518.4 5600.85 5905.1
v 8934.09 5551.28 5875.55
v 8446.77 5583.32 5919.1
v 8483.67 5636.24 5920.47
v 8568.66 5689.85 5906.88
v 8637.84 5712.64 5894.99
v 8578.5 5714.32 5906.65
v 8863.95 5465.79 5894.12
v 8907.05 5505.01 5889.35
v 8613.5 5495.29 5929.73
v 8456.1 5554.41 5941.03
v 8518.86 5522.29 5943.06
v 8452.41 5585.13 5940.02
v 8540.16 5690.34 5917.94
v 8713.05 5685.88 5906.97
v 8609.23 5705.89 5907.48
v 8735.02 5484.2 5929.97
v 8844.06 5480.3 5903.67
v 8895.68 5561.96 5891.13
v 8796.16 5582.62 5923.55
v 8490.39 5641.03 5935.93
v 8830.78 5517.66 5911.65
v 8590.66 5505.13 5949.1
v 8448.01 5558.77 5961.04
v 8748.79 5525.8 5940.33
v 8494.86 5617.58 5958.88
v 8654.11 5609.38 5960
v 8539.1 5672.36 5932.21
v 8521.01 5533.62 5956.57
v 8691.1 5555.77 5960.19
v 8586.55 5648.41 5942.99
v 8619.78 5529.09 5960.78
v 8530.07 5564.14 5970.97
v 8602.96 5569.66 5970
v 8573.2 5600.34 5960.18
vn 0.0193194 -0.319818 -0.947282
vn -0.335634 -0.711469 -0.617383
vn -0.330311 0.156863 -0.930746
vn 0.171053 0.164111 -0.971498
vn 0.193265 -0.213306 -0.957679
vn -0.00792691 0.175492 -0.984449
vn 0.00133253 0.407531 -0.91319
vn -0.139718 -0.957874 -0.250909
vn 0.00541944 -0.755206 -0.655466
vn -0.818217 -0.571557 -0.0620005
vn -0.930935 0.227155 -0.285938
vn 0.326563 0.168589 -0.930019
vn -0.457553 0.530573 -0.713538
vn 0.284579 0.420929 -0.861298
vn -0.231386 0.889983 -0.392927
vn 0.189139 0.624629 -0.757671
vn 0.200185 -0.297653 -0.93345
vn -0.0849774 -0.900385 -0.426716
vn -0.328075 -0.920604 0.211792
vn -0.812896 0.582367 -0.00701728
vn 0.373872 -0.728051 -0.574597
vn -0.229003 -0.967539 0.106895
vn 0.415324 -0.16119 -0.895279
vn 0.893584 -0.0976624 -0.438143
vn -0.260267 -0.887063 0.381289
vn -0.355242 -0.564566 0.74503
vn -0.654362 -0.218326 0.723978
vn 0.497352 0.335765 -0.799939
vn -0.546069 0.827989 0.127448
vn 0.443202 0.757899 -0.478709
vn -0.0228781 0.998364 -0.0524084
vn -0.0481318 -0.996704 0.0652985
vn -0.6991 0.12262 0.704431
vn 0.667465 0.394161 -0.631766
vn -0.463207 0.374427 0.80327
vn -0.265305 0.509349 0.818644
vn 0.439867 -0.815391 0.37637
vn -0.260505 -0.776625 0.573577
vn 0.859321 -0.395166 0.324671
vn -0.258351 -0.463119 0.847806
vn 0.885763 0.394956 0.243792
vn -0.217984 -0.0720211 0.973291
vn 0.861797 0.489915 -0.131491
vn 0.242924 0.934885 0.258801
vn -0.140281 0.466294 0.873436
vn -0.00105471 -0.480301 0.877103
vn 0.71241 0.550493 0.435235
vn 0.305016 0.618413 0.724245
vn 0.45625 -0.130943 0.880165
vn -0.147412 -0.125662 0.98106
vn -0.22196 -0.0789533 0.971854
vn -0.212172 0.0375141 0.976512
vn 0.0811757 -0.0471182 0.995585
vn 0.362296 0.182932 0.913935
vn -0.063961 0.100241 0.992905
vn 0.175405 0.230013 0.95725
vn -0.0125255 0.0263253 0.999575
vn -0.0395959 -0.095211 -0.994669
vn -0.217655 0.117476 -0.96893
vn 0.0871399 0.35362 -0.931322
vn 0.598445 0.762629 -0.24548
vn 0.373882 0.126877 -0.918757
vn -0.0794417 -0.376171 -0.923138
vn 0.331701 -0.27005 -0.903907
vn 0.542713 -0.754395 -0.369257
vn 0.934136 0.239482 -0.264648
vn -0.235819 -0.121656 -0.964152
vn 0.809814 0.567065 -0.150462
vn -0.139734 0.637152 -0.757965
vn 0.273724 0.925928 -0.260254
vn 0.0286344 -0.899193 -0.436614
vn -0.206371 -0.737574 -0.642958
vn 0.93468 -0.351927 -0.0502138
vn -0.21591 -0.209371 -0.953702
vn -0.278967 0.149622 -0.948573
vn 0.50728 0.523499 0.684555
vn 0.390917 0.756908 0.523712
vn 0.0973365 0.975294 0.198313
vn -0.146369 -0.982671 0.113726
vn 0.0240604 -0.943215 0.331311
vn -0.33239 -0.643645 -0.689375
vn -0.282636 -0.0770924 -0.956124
vn 0.717394 0.168853 0.675895
vn -0.796676 -0.00472712 -0.604388
vn -0.680504 0.551506 -0.482448
vn -0.369605 0.377346 -0.849118
vn -0.201306 0.801345 -0.563313
vn -0.293856 0.925915 -0.23734
vn 0.335649 -0.786434 0.518518
vn 0.521923 -0.268035 0.809786
vn -0.231082 -0.972217 0.0373433
vn -0.699392 -0.679837 -0.220619
vn -0.364545 -0.914719 0.174344
vn -0.920152 0.313467 0.234647
vn -0.5244 0.841555 0.129575
vn 0.232778 0.546304 0.804591
vn -0.00487022 0.791018 0.611774
vn 0.0853868 -0.568003 0.818586
vn 0.233457 -0.352656 0.906163
vn 0.37629 0.164167 0.911842
vn 0.32422 0.19669 0.925308
vn -0.627423 0.645282 0.435835
vn 0.286507 -0.101054 0.952734
vn -0.125239 -0.763458 0.633598
vn -0.632172 -0.234669 0.738437
vn 0.24948 -0.195023 0.948539
vn -0.26955 0.405531 0.873434
vn 0.124216 0.304094 0.944509
vn -0.175395 0.623925 0.761547
vn -0.238589 -0.640942 0.729567
vn 0.194519 -0.0455709 0.97984
vn 0.0408794 0.448644 0.892775
vn 0.0414509 -0.340119 0.939468
vn -0.0571886 -0.0647981 0.996258
vn 0.0401089 0.0517167 0.997856
vn -0.00344517 0.290261 0.956941

g grp1
usemtl mtl1
f 1//1 2//2 3//3 
f 1//1 4//4 5//5 
f 1//1 3//3 6//6 
f 4//4 1//1 6//6 
f 3//3 7//7 6//6 
f 4//4 6//6 7//7 
f 1//1 8//8 2//2 
f 1//1 5//5 9//9 
f 3//3 2//2 10//10 
f 11//11 3//3 10//10 
f 12//12 5//5 4//4 
f 11//11 13//13 3//3 
f 3//3 13//13 7//7 
f 12//12 4//4 14//14 
f 7//7 14//14 4//4 
f 13//13 15//15 7//7 
f 16//16 7//7 15//15 
f 9//9 17//17 18//18 
f 17//17 9//9 5//5 
f 2//2 19//19 10//10 
f 2//2 8//8 19//19 
f 9//9 8//8 1//1 
f 12//12 17//17 5//5 
f 11//11 20//20 13//13 
f 16//16 14//14 7//7 
f 18//18 17//17 21//21 
f 22//22 9//9 18//18 
f 23//23 21//21 17//17 
f 21//21 23//23 24//24 
f 8//8 22//22 25//25 
f 9//9 22//22 8//8 
f 10//10 26//26 27//27 
f 10//10 19//19 26//26 
f 8//8 25//25 19//19 
f 10//10 27//27 11//11 
f 28//28 17//17 12//12 
f 23//23 17//17 28//28 
f 13//13 20//20 29//29 
f 13//13 29//29 15//15 
f 16//16 30//30 14//14 
f 15//15 31//31 16//16 
f 18//18 21//21 32//32 
f 19//19 25//25 26//26 
f 24//24 23//23 28//28 
f 11//11 27//27 33//33 
f 33//33 20//20 11//11 
f 12//12 34//34 28//28 
f 12//12 14//14 34//34 
f 30//30 34//34 14//14 
f 35//35 29//29 20//20 
f 36//36 15//15 29//29 
f 16//16 31//31 30//30 
f 15//15 36//36 31//31 
f 21//21 37//37 32//32 
f 18//18 38//38 22//22 
f 18//18 32//32 38//38 
f 21//21 39//39 37//37 
f 21//21 24//24 39//39 
f 22//22 40//40 25//25 
f 39//39 24//24 41//41 
f 42//42 27//27 26//26 
f 24//24 28//28 41//41 
f 28//28 34//34 41//41 
f 33//33 35//35 20//20 
f 34//34 30//30 43//43 
f 36//36 29//29 35//35 
f 30//30 31//31 44//44 
f 31//31 36//36 45//45 
f 32//32 46//46 38//38 
f 22//22 38//38 40//40 
f 26//26 25//25 40//40 
f 42//42 26//26 40//40 
f 42//42 33//33 27//27 
f 35//35 33//33 42//42 
f 47//47 41//41 34//34 
f 48//48 30//30 44//44 
f 31//31 45//45 44//44 
f 32//32 37//37 46//46 
f 49//49 46//46 37//37 
f 39//39 49//49 37//37 
f 40//40 38//38 50//50 
f 46//46 50//50 38//38 
f 51//51 40//40 50//50 
f 39//39 41//41 49//49 
f 42//42 40//40 51//51 
f 51//51 52//52 42//42 
f 34//34 43//43 47//47 
f 30//30 47//47 43//43 
f 52//52 36//36 42//42 
f 36//36 35//35 42//42 
f 47//47 30//30 48//48 
f 45//45 36//36 52//52 
f 44//44 45//45 48//48 
f 46//46 49//49 53//53 
f 53//53 50//50 46//46 
f 50//50 52//52 51//51 
f 53//53 49//49 54//54 
f 49//49 41//41 54//54 
f 52//52 50//50 55//55 
f 54//54 41//41 47//47 
f 54//54 47//47 56//56 
f 56//56 47//47 48//48 
f 45//45 52//52 55//55 
f 48//48 45//45 55//55 
f 56//56 48//48 55//55 
f 53//53 57//57 50//50 
f 55//55 50//50 57//57 
f 53//53 54//54 57//57 
f 54//54 56//56 57//57 
f 57//57 56//56 55//55 
f 58//58 59//59 60//60 
f 61//61 62//62 60//60 
f 60//60 62//62 58//58 
f 63//63 64//64 65//65 
f 64//64 63//63 58//58 
f 62//62 64//64 58//58 
f 64//64 62//62 66//66 
f 58//58 67//67 59//59 
f 68//68 66//66 62//62 
f 62//62 61//61 68//68 
f 59//59 69//69 60//60 
f 60//60 70//70 61//61 
f 70//70 60//60 69//69 
f 63//63 65//65 71//71 
f 72//72 63//63 71//71 
f 65//65 64//64 73//73 
f 72//72 74//74 63//63 
f 64//64 66//66 73//73 
f 63//63 74//74 67//67 
f 63//63 67//67 58//58 
f 75//75 67//67 74//74 
f 59//59 67//67 75//75 
f 68//68 61//61 76//76 
f 59//59 75//75 69//69 
f 70//70 77//77 61//61 
f 69//69 78//78 70//70 
f 78//78 77//77 70//70 
f 79//79 72//72 80//80 
f 71//71 80//80 72//72 
f 72//72 81//81 74//74 
f 81//81 82//82 74//74 
f 73//73 66//66 83//83 
f 84//84 85//85 82//82 
f 75//75 74//74 82//82 
f 76//76 83//83 66//66 
f 86//86 82//82 85//85 
f 76//76 66//66 68//68 
f 75//75 82//82 86//86 
f 76//76 61//61 77//77 
f 75//75 86//86 87//87 
f 75//75 87//87 69//69 
f 87//87 86//86 88//88 
f 69//69 87//87 78//78 
f 71//71 89//89 80//80 
f 65//65 89//89 71//71 
f 65//65 90//90 89//89 
f 73//73 90//90 65//65 
f 91//91 72//72 79//79 
f 92//92 81//81 93//93 
f 93//93 81//81 91//91 
f 72//72 91//91 81//81 
f 81//81 92//92 82//82 
f 82//82 92//92 84//84 
f 84//84 94//94 85//85 
f 85//85 95//95 86//86 
f 77//77 96//96 76//76 
f 88//88 86//86 95//95 
f 96//96 77//77 78//78 
f 87//87 88//88 97//97 
f 87//87 97//97 78//78 
f 79//79 80//80 98//98 
f 89//89 99//99 80//80 
f 73//73 83//83 90//90 
f 100//100 90//90 83//83 
f 94//94 84//84 92//92 
f 83//83 76//76 100//100 
f 100//100 76//76 101//101 
f 85//85 94//94 102//102 
f 85//85 102//102 95//95 
f 101//101 76//76 96//96 
f 88//88 95//95 97//97 
f 96//96 78//78 97//97 
f 99//99 98//98 80//80 
f 79//79 98//98 91//91 
f 89//89 90//90 99//99 
f 99//99 90//90 103//103 
f 91//91 104//104 93//93 
f 90//90 100//100 103//103 
f 92//92 105//105 94//94 
f 103//103 101//101 106//106 
f 100//100 101//101 103//103 
f 94//94 107//107 102//102 
f 101//101 96//96 108//108 
f 95//95 102//102 109//109 
f 95//95 109//109 97//97 
f 91//91 98//98 104//104 
f 99//99 103//103 98//98 
f 103//103 106//106 98//98 
f 105//105 92//92 110//110 
f 110//110 92//92 93//93 
f 106//106 101//101 111//111 
f 101//101 108//108 111//111 
f 96//96 112//112 108//108 
f 112//112 97//97 109//109 
f 96//96 97//97 112//112 
f 104//104 98//98 113//113 
f 113//113 98//98 106//106 
f 93//93 104//104 110//110 
f 106//106 111//111 113//113 
f 94//94 105//105 107//107 
f 109//109 102//102 107//107 
f 110//110 104//104 113//113 
f 105//105 110//110 114//114 
f 113//113 114//114 110//110 
f 114//114 107//107 105//105 
f 115//115 114//114 113//113 
f 111//111 115//115 113//113 
f 116//116 107//107 114//114 
f 111//111 108//108 115//115 
f 115//115 108//108 116//116 
f 116//116 112//112 107//107 
f 108//108 112//112 116//116 
f 112//112 109//109 107//107 
f 115//115 116//116 114//114 
