# Blender v2.92.0 OBJ File: 'convert_to_one_sided.blend'
# www.blender.org
mtllib 607344846L.mtl
o Cube
v 0.001000 0.001000 -0.001000
v 0.001000 -0.001000 -0.001000
v 0.001000 0.001000 0.001000
v 0.001000 -0.001000 0.001000
v -0.001000 0.001000 -0.001000
v -0.001000 -0.001000 -0.001000
v -0.001000 0.001000 0.001000
v -0.001000 -0.001000 0.001000
vt 0.625000 0.500000
vt 0.875000 0.500000
vt 0.875000 0.750000
vt 0.625000 0.750000
vt 0.375000 0.750000
vt 0.625000 1.000000
vt 0.375000 1.000000
vt 0.375000 0.000000
vt 0.625000 0.000000
vt 0.625000 0.250000
vt 0.375000 0.250000
vt 0.125000 0.500000
vt 0.375000 0.500000
vt 0.125000 0.750000
vn 0.0000 1.0000 0.0000
vn 0.0000 0.0000 1.0000
vn -1.0000 0.0000 0.0000
vn 0.0000 -1.0000 0.0000
vn 1.0000 0.0000 0.0000
vn 0.0000 0.0000 -1.0000
usemtl Material
s off
f 1/1/1 5/2/1 7/3/1 3/4/1
f 4/5/2 3/4/2 7/6/2 8/7/2
f 8/8/3 7/9/3 5/10/3 6/11/3
f 6/12/4 2/13/4 4/5/4 8/14/4
f 2/13/5 1/1/5 3/4/5 4/5/5
f 6/11/6 5/10/6 1/1/6 2/13/6
o 607344846
v 8.598409 5.474538 5.240784
v 8.523041 5.493708 5.238293
v 8.599830 5.547918 5.232873
v 8.689148 5.470958 5.258543
v 8.725458 5.552348 5.267913
v 8.500311 5.523358 5.250053
v 8.570180 5.594067 5.243144
v 8.661179 5.635337 5.266763
v 8.668988 5.414380 5.284323
v 8.535060 5.427029 5.275233
v 8.460200 5.451899 5.274303
v 8.786507 5.467869 5.299542
v 8.498401 5.573867 5.281173
v 8.589210 5.661786 5.303942
v 8.819207 5.600237 5.325292
v 8.451311 5.408849 5.302533
v 8.754368 5.424539 5.299093
v 8.437121 5.492958 5.293153
v 8.790906 5.676506 5.351442
v 8.678818 5.729675 5.364012
v 8.422372 5.444139 5.307413
v 8.528430 5.394660 5.310113
v 8.613809 5.395280 5.305482
v 8.445111 5.550267 5.325993
v 8.843956 5.507988 5.332942
v 8.603589 5.731356 5.387142
v 8.466421 5.397240 5.320632
v 8.686588 5.384500 5.322972
v 8.754277 5.396570 5.326902
v 8.419372 5.430039 5.325882
v 8.829356 5.441849 5.345132
v 8.416512 5.472058 5.328662
v 8.523790 5.639996 5.349622
v 8.537601 5.393800 5.326383
v 8.608370 5.394840 5.327403
v 8.905126 5.500478 5.386432
v 8.897956 5.578697 5.387152
v 8.460351 5.577817 5.356652
v 8.870436 5.641627 5.387392
v 8.784977 5.736195 5.415981
v 8.512740 5.404900 5.337962
v 8.700508 5.402959 5.359882
v 8.752777 5.397260 5.353392
v 8.821986 5.423889 5.374932
v 8.450791 5.425659 5.337662
v 8.414111 5.455619 5.338372
v 8.876406 5.460649 5.393751
v 8.432781 5.513018 5.344642
v 8.512280 5.636786 5.374102
v 8.853207 5.690056 5.414511
v 8.607948 5.413469 5.350562
v 8.548370 5.501248 5.375922
v 8.470071 5.569187 5.367222
v 8.707108 5.780915 5.434651
v 8.809186 5.442039 5.402051
v 8.874846 5.461938 5.406441
v 8.461541 5.503578 5.354152
v 8.505610 5.560957 5.374642
v 8.928286 5.573217 5.433641
v 8.896485 5.648817 5.439611
v 8.569960 5.696166 5.395981
v 8.822606 5.727925 5.456571
v 8.651839 5.767785 5.422461
v 8.713267 5.498068 5.404481
v 8.906666 5.511798 5.418001
v 8.550810 5.621827 5.388782
v 8.653919 5.625647 5.428951
v 8.625528 5.757855 5.429251
v 8.743737 5.773555 5.454250
v 8.926415 5.578648 5.449511
v 8.784377 5.618436 5.466351
v 8.621279 5.721086 5.432081
v 8.912745 5.630737 5.462241
v 8.689619 5.780115 5.455361
v 8.806566 5.511478 5.431161
v 8.866985 5.559258 5.445551
v 8.667158 5.770955 5.459451
v 8.854506 5.697926 5.477921
v 8.707268 5.714756 5.466520
v 8.772317 5.753065 5.470960
v 8.892065 5.633877 5.465921
v 8.842636 5.651826 5.472510
v 8.781497 5.708325 5.474651
v 8.722238 5.748425 5.462051
vn 0.0499 -0.3592 -0.9319
vn -0.1999 -0.1973 -0.9598
vn 0.0583 0.0817 -0.9949
vn 0.2651 -0.2366 -0.9347
vn 0.3846 0.0830 -0.9193
vn -0.4499 0.1927 -0.8721
vn -0.2559 0.4619 -0.8492
vn 0.1754 0.4911 -0.8533
vn 0.1087 -0.6625 -0.7411
vn -0.0855 -0.6237 -0.7770
vn -0.4634 -0.2476 -0.8509
vn 0.4917 -0.2040 -0.8465
vn -0.5958 0.5512 -0.5841
vn -0.3378 0.7185 -0.6080
vn 0.5217 0.2744 -0.8078
vn -0.4187 -0.7220 -0.5508
vn 0.3764 -0.5071 -0.7754
vn -0.7555 0.2205 -0.6169
vn 0.4080 0.5923 -0.6947
vn 0.0342 0.7667 -0.6411
vn -0.8238 -0.2028 -0.5294
vn -0.0541 -0.9551 -0.2915
vn -0.0288 -0.9027 -0.4292
vn -0.8472 0.4872 -0.2116
vn 0.6031 -0.0561 -0.7957
vn -0.5152 0.7872 -0.3389
vn -0.2900 -0.9108 0.2939
vn 0.0241 -0.9971 -0.0720
vn 0.3446 -0.8594 -0.3776
vn -0.8234 -0.5487 0.1451
vn 0.6147 -0.5538 -0.5616
vn -0.9883 0.1356 -0.0693
vn -0.6793 0.6949 -0.2359
vn -0.0313 -0.9194 0.3921
vn -0.0582 -0.9626 0.2644
vn 0.8600 -0.3048 -0.4093
vn 0.7609 0.2064 -0.6151
vn -0.8201 0.4951 0.2871
vn 0.6647 0.4388 -0.6046
vn 0.4050 0.7854 -0.4680
vn -0.1137 -0.5979 0.7935
vn -0.1015 -0.7303 0.6755
vn 0.1404 -0.9251 0.3530
vn 0.4235 -0.8933 0.1502
vn -0.2951 -0.4394 0.8484
vn -0.7054 -0.1330 0.6963
vn 0.7148 -0.6991 -0.0163
vn -0.8007 0.1965 0.5659
vn -0.6716 0.4668 0.5754
vn 0.6115 0.6649 -0.4290
vn -0.0936 -0.6024 0.7927
vn -0.1950 -0.2333 0.9527
vn -0.4599 0.0704 0.8852
vn 0.0998 0.9456 -0.3098
vn 0.0235 -0.5894 0.8075
vn 0.4073 -0.6534 0.6381
vn -0.3042 -0.1209 0.9449
vn -0.2262 -0.1101 0.9678
vn 0.9965 0.0341 -0.0767
vn 0.8184 0.5394 -0.1983
vn -0.7571 0.4788 0.4445
vn 0.5985 0.7998 0.0466
vn -0.2748 0.9225 -0.2711
vn -0.1933 -0.3606 0.9125
vn 0.7298 -0.5003 0.4660
vn -0.3672 0.0007 0.9302
vn -0.3044 -0.1976 0.9318
vn -0.6313 0.7031 0.3272
vn 0.3445 0.9327 0.1065
vn 0.5755 -0.2523 0.7779
vn -0.1258 -0.2366 0.9634
vn -0.5246 0.0278 0.8509
vn 0.8101 0.2776 0.5164
vn -0.1307 0.8553 0.5014
vn -0.0778 -0.3624 0.9288
vn 0.1027 -0.3457 0.9327
vn -0.3141 0.3283 0.8908
vn 0.4367 0.3897 0.8108
vn -0.2172 -0.0527 0.9747
vn 0.1580 0.5486 0.8210
vn 0.2044 -0.1213 0.9713
vn 0.0319 -0.1434 0.9891
vn -0.0603 0.0358 0.9975
vn -0.0585 0.2213 0.9735
usemtl mtl1.563
s 1
f 9//7 10//8 11//9
f 12//10 9//7 11//9
f 13//11 12//10 11//9
f 11//9 10//8 14//12
f 14//12 15//13 11//9
f 13//11 11//9 16//14
f 16//14 11//9 15//13
f 9//7 12//10 17//15
f 18//16 9//7 17//15
f 18//16 19//17 10//8
f 18//16 10//8 9//7
f 20//18 12//10 13//11
f 14//12 21//19 15//13
f 15//13 22//20 16//14
f 16//14 23//21 13//11
f 18//16 24//22 19//17
f 25//23 17//15 12//10
f 20//18 25//23 12//10
f 10//8 19//17 14//12
f 19//17 26//24 14//12
f 21//19 14//12 26//24
f 15//13 21//19 22//20
f 27//25 23//21 16//14
f 16//14 22//20 28//26
f 24//22 29//27 19//17
f 18//16 30//28 24//22
f 31//29 30//28 18//16
f 17//15 31//29 18//16
f 26//24 19//17 29//27
f 21//19 26//24 32//30
f 20//18 13//11 33//31
f 33//31 13//11 23//21
f 34//32 28//26 22//20
f 27//25 16//14 28//26
f 35//33 24//22 30//28
f 31//29 17//15 36//34
f 36//34 17//15 37//35
f 29//27 24//22 38//36
f 38//36 24//22 35//33
f 37//35 17//15 25//23
f 25//23 39//37 37//35
f 25//23 20//18 39//37
f 40//38 26//24 29//27
f 20//18 33//31 39//37
f 32//30 26//24 40//38
f 21//19 32//30 41//39
f 22//20 21//19 41//39
f 22//20 41//39 34//32
f 30//28 42//40 35//33
f 31//29 36//34 43//41
f 31//29 43//41 30//28
f 30//28 43//41 42//40
f 29//27 38//36 40//38
f 44//42 39//37 33//31
f 23//21 45//43 33//31
f 46//44 41//39 32//30
f 23//21 47//45 45//43
f 27//25 47//45 23//21
f 48//46 27//25 28//26
f 35//33 42//40 49//47
f 36//34 50//48 43//41
f 36//34 51//49 50//48
f 37//35 51//49 36//34
f 52//50 51//49 37//35
f 53//51 38//36 35//33
f 49//47 53//51 35//33
f 52//50 37//35 39//37
f 38//36 54//52 40//38
f 53//51 54//52 38//36
f 55//53 39//37 44//42
f 40//38 56//54 32//30
f 32//30 56//54 46//44
f 46//44 57//55 41//39
f 47//45 27//25 58//56
f 58//56 27//25 48//46
f 49//47 42//40 59//57
f 42//40 43//41 59//57
f 50//48 59//57 43//41
f 53//51 49//47 60//58
f 59//57 60//58 49//47
f 39//37 55//53 52//50
f 54//52 56//54 40//38
f 44//42 33//31 45//43
f 61//59 46//44 56//54
f 61//59 57//55 46//44
f 62//60 48//46 28//26
f 50//48 51//49 63//61
f 52//50 63//61 51//49
f 52//50 55//53 64//62
f 53//51 65//63 54//52
f 60//58 65//63 53//51
f 65//63 56//54 54//52
f 60//58 66//64 65//63
f 65//63 61//59 56//54
f 66//64 61//59 65//63
f 67//65 44//42 45//43
f 45//43 47//45 68//66
f 67//65 45//43 68//66
f 57//55 69//67 41//39
f 41//39 69//67 34//32
f 48//46 70//68 58//56
f 28//26 34//32 71//69
f 71//69 62//60 28//26
f 50//48 72//70 59//57
f 63//61 72//70 50//48
f 52//50 64//62 63//61
f 73//71 55//53 44//42
f 72//70 60//58 59//57
f 73//71 44//42 67//65
f 60//58 74//72 66//64
f 75//73 74//72 60//58
f 66//64 74//72 61//59
f 74//72 57//55 61//59
f 47//45 58//56 68//66
f 57//55 74//72 69//67
f 76//74 34//32 69//67
f 34//32 76//74 71//69
f 77//75 48//46 62//60
f 55//53 73//71 64//62
f 72//70 75//73 60//58
f 73//71 67//65 78//76
f 75//73 72//70 79//77
f 75//73 80//78 74//72
f 68//66 81//79 67//65
f 74//72 80//78 69//67
f 80//78 76//74 69//67
f 68//66 58//56 70//68
f 71//69 76//74 82//80
f 62//60 71//69 82//80
f 62//60 82//80 77//75
f 72//70 63//61 83//81
f 84//82 83//81 63//61
f 64//62 84//82 63//61
f 73//71 84//82 64//62
f 73//71 78//76 84//82
f 83//81 79//77 72//70
f 78//76 67//65 81//79
f 85//83 76//74 80//78
f 70//68 48//46 77//75
f 76//74 85//83 82//80
f 84//82 79//77 83//81
f 68//66 86//84 81//79
f 80//78 75//73 87//85
f 70//68 86//84 68//66
f 85//83 80//78 87//85
f 70//68 77//75 88//86
f 77//75 82//80 88//86
f 84//82 78//76 89//87
f 84//82 90//88 79//77
f 89//87 90//88 84//82
f 78//76 81//79 89//87
f 90//88 91//89 79//77
f 81//79 86//84 89//87
f 75//73 79//77 87//85
f 87//85 79//77 91//89
f 92//90 85//83 87//85
f 70//68 88//86 86//84
f 82//80 92//90 88//86
f 82//80 85//83 92//90
f 89//87 86//84 90//88
f 90//88 86//84 91//89
f 87//85 91//89 92//90
f 86//84 88//86 91//89
f 91//89 88//86 92//90
