# Blender v2.92.0 OBJ File: 'convert_to_one_sided.blend'
# www.blender.org
mtllib 607344850L.mtl
o Cube
v 0.001000 0.001000 -0.001000
v 0.001000 -0.001000 -0.001000
v 0.001000 0.001000 0.001000
v 0.001000 -0.001000 0.001000
v -0.001000 0.001000 -0.001000
v -0.001000 -0.001000 -0.001000
v -0.001000 0.001000 0.001000
v -0.001000 -0.001000 0.001000
vt 0.625000 0.500000
vt 0.875000 0.500000
vt 0.875000 0.750000
vt 0.625000 0.750000
vt 0.375000 0.750000
vt 0.625000 1.000000
vt 0.375000 1.000000
vt 0.375000 0.000000
vt 0.625000 0.000000
vt 0.625000 0.250000
vt 0.375000 0.250000
vt 0.125000 0.500000
vt 0.375000 0.500000
vt 0.125000 0.750000
vn 0.0000 1.0000 0.0000
vn 0.0000 0.0000 1.0000
vn -1.0000 0.0000 0.0000
vn 0.0000 -1.0000 0.0000
vn 1.0000 0.0000 0.0000
vn 0.0000 0.0000 -1.0000
usemtl Material
s off
f 1/1/1 5/2/1 7/3/1 3/4/1
f 4/5/2 3/4/2 7/6/2 8/7/2
f 8/8/3 7/9/3 5/10/3 6/11/3
f 6/12/4 2/13/4 4/5/4 8/14/4
f 2/13/5 1/1/5 3/4/5 4/5/5
f 6/11/6 5/10/6 1/1/6 2/13/6
o 607344850
v 8.574479 5.526288 5.408871
v 8.488541 5.521508 5.416201
v 8.494331 5.570797 5.417011
v 8.651658 5.584107 5.418841
v 8.706808 5.524528 5.432831
v 8.573159 5.590827 5.414791
v 8.580000 5.647116 5.431271
v 8.575620 5.506158 5.436821
v 8.684958 5.491199 5.445911
v 8.451391 5.540597 5.435451
v 8.447990 5.582097 5.447421
v 8.801297 5.562867 5.456100
v 8.502021 5.647766 5.450331
v 8.732767 5.643496 5.462951
v 8.560639 5.705296 5.461330
v 8.656058 5.695346 5.471430
v 8.826756 5.493408 5.465661
v 8.778156 5.460589 5.483931
v 8.500391 5.522878 5.439481
v 8.470160 5.638116 5.466151
v 8.891226 5.460069 5.494670
v 8.669488 5.486969 5.471710
v 8.919846 5.489429 5.486071
v 8.942695 5.503298 5.498600
v 8.566560 5.508818 5.460540
v 8.502260 5.534518 5.460491
v 8.451881 5.568758 5.454931
v 8.903545 5.535278 5.494550
v 8.514871 5.679406 5.471460
v 8.787007 5.684216 5.507800
v 8.670039 5.717966 5.497190
v 8.836766 5.445819 5.503590
v 8.461091 5.615147 5.465540
v 8.859926 5.613817 5.505090
v 8.490110 5.657936 5.474230
v 8.576770 5.689066 5.483571
v 8.900065 5.450549 5.508660
v 8.764947 5.463789 5.499180
v 8.931314 5.488788 5.504050
v 8.632059 5.510858 5.488790
v 8.921525 5.537278 5.512100
v 8.549130 5.602247 5.479080
v 8.857666 5.642127 5.512680
v 8.741668 5.717006 5.511590
v 8.702598 5.712666 5.509040
v 8.866015 5.452889 5.515170
v 8.853416 5.642647 5.517770
v 8.777667 5.692876 5.519500
v 8.913336 5.496919 5.517190
v 8.767057 5.551608 5.524290
v 8.646568 5.590607 5.502060
v 8.668318 5.644836 5.507940
v 8.872855 5.539848 5.532890
v 8.877416 5.587427 5.528110
v 8.770757 5.654596 5.527070
v 8.831976 5.637366 5.528050
v 8.826316 5.595197 5.527310
vn 0.0193 -0.3198 -0.9473
vn -0.3356 -0.7115 -0.6174
vn -0.3303 0.1569 -0.9307
vn 0.1711 0.1641 -0.9715
vn 0.1933 -0.2133 -0.9577
vn -0.0079 0.1755 -0.9844
vn 0.0013 0.4075 -0.9132
vn -0.1397 -0.9579 -0.2509
vn 0.0054 -0.7552 -0.6554
vn -0.8182 -0.5716 -0.0620
vn -0.9309 0.2271 -0.2859
vn 0.3266 0.1686 -0.9300
vn -0.4576 0.5306 -0.7135
vn 0.2846 0.4209 -0.8613
vn -0.2307 0.8902 -0.3929
vn 0.1891 0.6246 -0.7577
vn 0.2002 -0.2977 -0.9334
vn -0.0850 -0.9004 -0.4267
vn -0.3281 -0.9206 0.2118
vn -0.8129 0.5824 -0.0069
vn 0.3739 -0.7281 -0.5746
vn -0.2290 -0.9675 0.1069
vn 0.4153 -0.1612 -0.8953
vn 0.8936 -0.0977 -0.4381
vn -0.2603 -0.8871 0.3813
vn -0.3553 -0.5646 0.7450
vn -0.6543 -0.2183 0.7240
vn 0.4973 0.3358 -0.7999
vn -0.5461 0.8280 0.1274
vn 0.4432 0.7579 -0.4787
vn -0.0229 0.9984 -0.0524
vn -0.0481 -0.9967 0.0653
vn -0.6991 0.1227 0.7045
vn 0.6674 0.3942 -0.6318
vn -0.4632 0.3744 0.8033
vn -0.2653 0.5094 0.8186
vn 0.4399 -0.8154 0.3764
vn -0.2605 -0.7766 0.5736
vn 0.8593 -0.3952 0.3247
vn -0.2583 -0.4631 0.8478
vn 0.8857 0.3950 0.2438
vn -0.2180 -0.0720 0.9733
vn 0.8618 0.4899 -0.1315
vn 0.2430 0.9349 0.2588
vn -0.1403 0.4663 0.8734
vn -0.0010 -0.4803 0.8771
vn 0.7124 0.5505 0.4352
vn 0.3050 0.6184 0.7243
vn 0.4562 -0.1309 0.8802
vn -0.1474 -0.1257 0.9811
vn -0.2220 -0.0789 0.9719
vn -0.2122 0.0375 0.9765
vn 0.0812 -0.0471 0.9956
vn 0.3623 0.1829 0.9139
vn -0.0640 0.1002 0.9929
vn 0.1754 0.2300 0.9572
vn -0.0125 0.0263 0.9996
usemtl mtl1.564
s 1
f 9//7 10//8 11//9
f 9//7 12//10 13//11
f 9//7 11//9 14//12
f 12//10 9//7 14//12
f 11//9 15//13 14//12
f 12//10 14//12 15//13
f 9//7 16//14 10//8
f 9//7 13//11 17//15
f 11//9 10//8 18//16
f 19//17 11//9 18//16
f 20//18 13//11 12//10
f 19//17 21//19 11//9
f 11//9 21//19 15//13
f 20//18 12//10 22//20
f 15//13 22//20 12//10
f 21//19 23//21 15//13
f 24//22 15//13 23//21
f 17//15 25//23 26//24
f 25//23 17//15 13//11
f 10//8 27//25 18//16
f 10//8 16//14 27//25
f 17//15 16//14 9//7
f 20//18 25//23 13//11
f 19//17 28//26 21//19
f 24//22 22//20 15//13
f 26//24 25//23 29//27
f 30//28 17//15 26//24
f 31//29 29//27 25//23
f 29//27 31//29 32//30
f 16//14 30//28 33//31
f 17//15 30//28 16//14
f 18//16 34//32 35//33
f 18//16 27//25 34//32
f 16//14 33//31 27//25
f 18//16 35//33 19//17
f 36//34 25//23 20//18
f 31//29 25//23 36//34
f 21//19 28//26 37//35
f 21//19 37//35 23//21
f 24//22 38//36 22//20
f 23//21 39//37 24//22
f 26//24 29//27 40//38
f 27//25 33//31 34//32
f 32//30 31//29 36//34
f 19//17 35//33 41//39
f 41//39 28//26 19//17
f 20//18 42//40 36//34
f 20//18 22//20 42//40
f 38//36 42//40 22//20
f 43//41 37//35 28//26
f 44//42 23//21 37//35
f 24//22 39//37 38//36
f 23//21 44//42 39//37
f 29//27 45//43 40//38
f 26//24 46//44 30//28
f 26//24 40//38 46//44
f 29//27 47//45 45//43
f 29//27 32//30 47//45
f 30//28 48//46 33//31
f 47//45 32//30 49//47
f 50//48 35//33 34//32
f 32//30 36//34 49//47
f 36//34 42//40 49//47
f 41//39 43//41 28//26
f 42//40 38//36 51//49
f 44//42 37//35 43//41
f 38//36 39//37 52//50
f 39//37 44//42 53//51
f 40//38 54//52 46//44
f 30//28 46//44 48//46
f 34//32 33//31 48//46
f 50//48 34//32 48//46
f 50//48 41//39 35//33
f 43//41 41//39 50//48
f 55//53 49//47 42//40
f 56//54 38//36 52//50
f 39//37 53//51 52//50
f 40//38 45//43 54//52
f 57//55 54//52 45//43
f 47//45 57//55 45//43
f 48//46 46//44 58//56
f 54//52 58//56 46//44
f 59//57 48//46 58//56
f 47//45 49//47 57//55
f 50//48 48//46 59//57
f 59//57 60//58 50//48
f 42//40 51//49 55//53
f 38//36 55//53 51//49
f 60//58 44//42 50//48
f 44//42 43//41 50//48
f 55//53 38//36 56//54
f 53//51 44//42 60//58
f 52//50 53//51 56//54
f 54//52 57//55 61//59
f 61//59 58//56 54//52
f 58//56 60//58 59//57
f 61//59 57//55 62//60
f 57//55 49//47 62//60
f 60//58 58//56 63//61
f 62//60 49//47 55//53
f 62//60 55//53 64//62
f 64//62 55//53 56//54
f 53//51 60//58 63//61
f 56//54 53//51 63//61
f 64//62 56//54 63//61
f 61//59 65//63 58//56
f 63//61 58//56 65//63
f 61//59 62//60 65//63
f 62//60 64//62 65//63
f 65//63 64//62 63//61
