# Blender v2.92.0 OBJ File: 'convert_to_one_sided.blend'
# www.blender.org
mtllib 607344834L.mtl
o Cube
v 0.001000 0.001000 -0.001000
v 0.001000 -0.001000 -0.001000
v 0.001000 0.001000 0.001000
v 0.001000 -0.001000 0.001000
v -0.001000 0.001000 -0.001000
v -0.001000 -0.001000 -0.001000
v -0.001000 0.001000 0.001000
v -0.001000 -0.001000 0.001000
vt 0.625000 0.500000
vt 0.875000 0.500000
vt 0.875000 0.750000
vt 0.625000 0.750000
vt 0.375000 0.750000
vt 0.625000 1.000000
vt 0.375000 1.000000
vt 0.375000 0.000000
vt 0.625000 0.000000
vt 0.625000 0.250000
vt 0.375000 0.250000
vt 0.125000 0.500000
vt 0.375000 0.500000
vt 0.125000 0.750000
vn 0.0000 1.0000 0.0000
vn 0.0000 0.0000 1.0000
vn -1.0000 0.0000 0.0000
vn 0.0000 -1.0000 0.0000
vn 1.0000 0.0000 0.0000
vn 0.0000 0.0000 -1.0000
usemtl Material
s off
f 1/1/1 5/2/1 7/3/1 3/4/1
f 4/5/2 3/4/2 7/6/2 8/7/2
f 8/8/3 7/9/3 5/10/3 6/11/3
f 6/12/4 2/13/4 4/5/4 8/14/4
f 2/13/5 1/1/5 3/4/5 4/5/5
f 6/11/6 5/10/6 1/1/6 2/13/6
o 607344834
v 8.562349 5.291541 5.493470
v 8.539190 5.226992 5.524600
v 8.473021 5.302210 5.483620
v 8.516331 5.348600 5.480230
v 8.372832 5.344390 5.484130
v 8.403092 5.410619 5.476050
v 8.312763 5.431159 5.500340
v 8.514300 5.430979 5.493670
v 8.352813 5.489058 5.490270
v 8.417372 5.483538 5.488500
v 8.470971 5.510808 5.507550
v 8.417602 5.235822 5.530990
v 8.334843 5.304231 5.521940
v 8.612339 5.342340 5.517730
v 8.302853 5.354220 5.524440
v 8.547729 5.475869 5.521760
v 8.318063 5.514208 5.518680
v 8.511041 5.531568 5.543709
v 8.387482 5.541238 5.517510
v 8.327402 5.252172 5.559820
v 8.634870 5.243392 5.557260
v 8.606120 5.419049 5.531920
v 8.659289 5.374860 5.552279
v 8.259283 5.388420 5.556189
v 8.271613 5.472799 5.558400
v 8.438581 5.573507 5.545979
v 8.339823 5.577918 5.562439
v 8.387512 5.591277 5.562049
v 8.529110 5.147833 5.587719
v 8.603449 5.167442 5.588009
v 8.279984 5.312071 5.574629
v 8.672658 5.316980 5.571630
v 8.646298 5.417599 5.562079
v 8.588739 5.466389 5.555799
v 8.294543 5.537148 5.572819
v 8.445781 5.144353 5.603869
v 8.372072 5.198472 5.584739
v 8.323692 5.217822 5.628718
v 8.660988 5.152173 5.624819
v 8.683828 5.222442 5.624449
v 8.677488 5.384630 5.646588
v 8.263353 5.526288 5.628958
v 8.538449 5.532788 5.611529
v 8.471241 5.578628 5.583809
v 8.367192 5.619496 5.640868
v 8.419672 5.605617 5.614099
v 8.536831 5.097943 5.641368
v 8.238354 5.356650 5.614348
v 8.239064 5.430539 5.656528
v 8.612880 5.459639 5.641308
v 8.312902 5.579747 5.639359
v 8.601719 5.115693 5.635828
v 8.400752 5.150962 5.634038
v 8.697478 5.300841 5.682278
v 8.471531 5.586687 5.684388
v 8.473351 5.106153 5.671978
v 8.686488 5.156133 5.663798
v 8.260974 5.293551 5.660448
v 8.237524 5.345770 5.691748
v 8.587389 5.089314 5.683308
v 8.372942 5.160683 5.692968
v 8.651568 5.121863 5.672378
v 8.699190 5.218717 5.699999
v 8.248315 5.482460 5.699999
v 8.401000 5.618654 5.699999
v 8.639779 5.438145 5.699999
v 8.345929 5.608557 5.699999
v 8.683928 5.364713 5.699999
v 8.237557 5.436364 5.699999
v 8.684353 5.164639 5.699999
v 8.239795 5.407767 5.699999
v 8.657198 5.407512 5.699999
v 8.291725 5.247579 5.699999
v 8.510197 5.555676 5.699999
v 8.700156 5.242901 5.699999
v 8.257004 5.519540 5.699999
v 8.409574 5.616850 5.699999
v 8.585280 5.491317 5.699999
v 8.289766 5.564322 5.699999
v 8.307041 5.227842 5.699999
v 8.700377 5.297843 5.699999
v 8.696187 5.309634 5.699999
v 8.260686 5.297361 5.699999
v 8.666604 5.145926 5.699999
v 8.436234 5.604380 5.699999
v 8.565508 5.511266 5.699999
v 8.293052 5.567766 5.699999
v 8.333091 5.599185 5.699999
v 8.557761 5.091378 5.699999
v 8.586022 5.091675 5.699999
v 8.610212 5.106619 5.699999
v 8.476640 5.580040 5.699999
v 8.240931 5.339218 5.699999
v 8.384412 5.155061 5.699999
v 8.372842 5.618605 5.699999
v 8.699862 5.226802 5.699999
v 8.350928 5.182649 5.699999
v 8.503473 5.098760 5.699999
v 8.370628 5.162875 5.699999
v 8.453723 5.118352 5.699999
v 8.237963 5.350761 5.699999
v 8.638187 5.122135 5.699999
v 8.636797 5.441650 5.699999
vn 0.3009 -0.2549 -0.9190
vn 0.1314 -0.5406 -0.8309
vn -0.0316 -0.2999 -0.9534
vn 0.1936 0.0309 -0.9806
vn -0.3165 -0.2607 -0.9121
vn -0.0513 0.0446 -0.9977
vn -0.5482 0.0324 -0.8357
vn 0.2803 0.2204 -0.9343
vn -0.2148 0.2958 -0.9308
vn 0.0782 0.3084 -0.9480
vn 0.2412 0.4798 -0.8436
vn -0.2262 -0.5689 -0.7907
vn -0.5098 -0.4190 -0.7514
vn 0.5096 0.0246 -0.8601
vn -0.6204 -0.2724 -0.7355
vn 0.4733 0.4643 -0.7486
vn -0.5474 0.4441 -0.7093
vn 0.5119 0.6845 -0.5191
vn -0.0752 0.5804 -0.8109
vn -0.5724 -0.5701 -0.5893
vn 0.5557 -0.3377 -0.7597
vn 0.5198 0.3544 -0.7773
vn 0.7811 0.2032 -0.5903
vn -0.8514 -0.0685 -0.5200
vn -0.8537 0.2419 -0.4611
vn 0.2304 0.7651 -0.6013
vn -0.4479 0.7395 -0.5025
vn -0.0373 0.8479 -0.5289
vn 0.0282 -0.6787 -0.7338
vn 0.2794 -0.5865 -0.7602
vn -0.7648 -0.4362 -0.4742
vn 0.8700 -0.0368 -0.4916
vn 0.7394 0.5577 -0.3772
vn 0.6422 0.6490 -0.4079
vn -0.7326 0.5552 -0.3938
vn -0.2742 -0.7779 -0.5655
vn -0.4696 -0.7022 -0.5352
vn -0.7125 -0.6573 -0.2456
vn 0.5827 -0.5595 -0.5895
vn 0.8990 -0.1590 -0.4080
vn 0.9103 0.4062 -0.0797
vn -0.8609 0.4747 -0.1830
vn 0.6534 0.7440 -0.1396
vn 0.4726 0.8434 -0.2555
vn -0.2208 0.9630 -0.1546
vn 0.2631 0.9395 -0.2195
vn -0.0405 -0.8879 -0.4583
vn -0.9478 -0.2192 -0.2318
vn -0.9872 0.1122 -0.1131
vn 0.7191 0.6888 -0.0918
vn -0.6418 0.7503 -0.1587
vn 0.2739 -0.7853 -0.5553
vn -0.5109 -0.8079 -0.2939
vn 0.9819 0.1119 -0.1526
vn 0.5263 0.8500 0.0233
vn -0.3256 -0.9385 -0.1146
vn 0.8856 -0.4375 -0.1560
vn -0.8587 -0.5003 -0.1112
vn -0.5620 0.5087 0.6523
vn -0.7112 0.1758 0.6806
vn 0.3597 0.5334 0.7656
vn -0.9778 -0.2062 0.0382
vn 0.1984 -0.9784 -0.0580
vn -0.5921 -0.8054 -0.0275
vn 0.5747 -0.8150 -0.0744
vn 0.5099 0.5210 0.6845
vn 0.5443 0.5129 0.6639
vn -0.6974 0.2885 0.6561
vn -0.1286 0.7264 0.6751
vn 0.1089 0.7390 0.6649
vn 0.7717 -0.0159 0.6357
vn 0.7847 0.1123 0.6097
vn 0.4319 -0.4524 0.7802
vn 0.6388 -0.3001 0.7084
vn -0.4578 -0.5618 0.6890
vn -0.5247 -0.5062 0.6845
vn 0.6923 0.1914 0.6958
vn 0.3530 -0.5138 0.7820
vn -0.5928 -0.4506 0.6675
vn -0.6218 -0.3270 0.7116
vn -0.6963 -0.0059 0.7177
vn -0.7452 0.0600 0.6641
vn 0.5707 0.3442 0.7456
vn 0.6886 0.2472 0.6818
vn -0.3212 -0.6101 0.7243
vn -0.6519 -0.2704 0.7085
vn -0.7004 -0.0468 0.7122
vn 0.5981 0.4650 0.6527
vn 0.3230 0.6689 0.6695
vn -0.1298 -0.7377 0.6625
vn -0.3019 -0.6104 0.7323
vn 0.3162 -0.5539 0.7702
vn 0.1598 -0.7116 0.6842
vn -0.0744 -0.7656 0.6390
vn -0.5091 0.5424 0.6683
vn -0.4359 0.5925 0.6774
vn -0.5681 -0.4963 0.6564
vn 0.5025 0.5375 0.6772
vn 0.2203 0.7309 0.6459
vn 0.7821 -0.0525 0.6209
vn 0.4482 0.5642 0.6934
vn -0.3798 0.6433 0.6648
vn 0.7755 -0.0577 0.6288
usemtl mtl1.560
s 1
f 9//7 10//8 11//9
f 9//7 11//9 12//10
f 11//9 13//11 14//12
f 12//10 11//9 14//12
f 14//12 13//11 15//13
f 12//10 14//12 16//14
f 14//12 15//13 17//15
f 14//12 17//15 18//16
f 16//14 14//12 18//16
f 16//14 18//16 19//17
f 10//8 20//18 11//9
f 20//18 21//19 13//11
f 11//9 20//18 13//11
f 22//20 9//7 12//10
f 13//11 21//19 23//21
f 16//14 22//20 12//10
f 23//21 15//13 13//11
f 16//14 19//17 24//22
f 17//15 15//13 25//23
f 24//22 19//17 26//24
f 18//16 17//15 27//25
f 27//25 17//15 25//23
f 27//25 19//17 18//16
f 20//18 28//26 21//19
f 9//7 29//27 10//8
f 29//27 9//7 22//20
f 30//28 22//20 16//14
f 30//28 31//29 22//20
f 24//22 30//28 16//14
f 15//13 23//21 32//30
f 33//31 15//13 32//30
f 33//31 25//23 15//13
f 19//17 34//32 26//24
f 25//23 35//33 27//25
f 19//17 27//25 34//32
f 36//34 27//25 35//33
f 34//32 27//25 36//34
f 20//18 10//8 37//35
f 10//8 29//27 38//36
f 28//26 39//37 21//19
f 22//20 40//38 29//27
f 31//29 40//38 22//20
f 21//19 39//37 23//21
f 39//37 32//30 23//21
f 41//39 31//29 30//28
f 42//40 41//39 30//28
f 42//40 30//28 24//22
f 24//22 26//24 42//40
f 25//23 33//31 43//41
f 25//23 43//41 35//33
f 37//35 10//8 38//36
f 20//18 44//42 45//43
f 37//35 44//42 20//18
f 20//18 45//43 28//26
f 28//26 45//43 46//44
f 47//45 29//27 48//46
f 39//37 28//26 46//44
f 48//46 29//27 40//38
f 49//47 40//38 31//29
f 31//29 41//39 49//47
f 50//48 43//41 33//31
f 26//24 51//49 42//40
f 26//24 34//32 52//50
f 36//34 35//33 53//51
f 54//52 34//32 36//34
f 52//50 34//32 54//52
f 44//42 37//35 55//53
f 38//36 29//27 47//45
f 39//37 56//54 32//30
f 57//55 32//30 56//54
f 32//30 57//55 33//31
f 41//39 58//56 49//47
f 57//55 50//48 33//31
f 58//56 41//39 42//40
f 42//40 51//49 58//56
f 26//24 52//50 51//49
f 35//33 43//41 59//57
f 35//33 59//57 53//51
f 55//53 37//35 60//58
f 47//45 60//58 38//36
f 44//42 61//59 45//43
f 61//59 46//44 45//43
f 48//46 40//38 62//60
f 40//38 49//47 62//60
f 43//41 50//48 59//57
f 63//61 51//49 52//50
f 52//50 54//52 63//61
f 36//34 53//51 54//52
f 64//62 61//59 44//42
f 38//36 60//58 37//35
f 65//63 47//45 48//46
f 66//64 39//37 46//44
f 87//65 72//66 100//67
f 39//37 66//64 56//54
f 56//54 67//68 57//55
f 64//62 55//53 68//69
f 55//53 60//58 68//69
f 64//62 44//42 55//53
f 69//70 61//59 64//62
f 60//58 47//45 70//71
f 47//45 65//63 70//71
f 61//59 69//70 46//44
f 56//54 66//64 67//68
f 86//72 111//73 58//56
f 87//65 50//48 84//74
f 103//75 73//76 53//51
f 60//58 70//71 68//69
f 83//77 62//60 89//78
f 92//79 65//63 78//80
f 107//81 105//82 69//70
f 89//78 62//60 90//83
f 110//84 70//71 92//79
f 81//85 91//86 66//64
f 79//87 77//88 57//55
f 80//89 76//90 49//47
f 102//91 107//81 69//70
f 101//92 109//93 67//68
f 80//89 49//47 74//94
f 100//67 63//61 93//95
f 64//62 106//96 108//97
f 108//97 69//70 64//62
f 70//71 99//98 68//69
f 68//69 99//98 98//99
f 68//69 106//96 64//62
f 68//69 98//99 97//100
f 59//57 95//101 96//102
f 91//86 67//68 66//64
f 46//44 105//82 88//103
f 87//65 59//57 50//48
f 58//56 94//104 86//72
f 85//105 63//61 54//52
f 62//60 104//106 48//46
f 51//49 82//107 94//104
f 63//61 100//67 82//107
f 46//44 81//85 66//64
f 67//68 79//87 57//55
f 62//60 76//90 90//83
f 96//102 53//51 59//57
f 53//51 75//108 103//75
f 58//56 74//94 49//47
f 53//51 85//105 54//52
f 50//48 72//66 84//74
f 57//55 77//88 72//66
f 48//46 71//109 65//63
f 65//63 71//109 78//80
f 99//98 110//84 83//77
f 110//84 92//79 71//109
f 83//77 110//84 104//106
f 92//79 78//80 71//109
f 71//109 104//106 110//84
f 83//77 89//78 90//83
f 90//83 76//90 80//89
f 80//89 74//94 111//73
f 86//72 94//104 81//85
f 94//104 82//107 79//87
f 80//89 111//73 105//82
f 111//73 86//72 105//82
f 83//77 90//83 108//97
f 90//83 80//89 108//97
f 108//97 80//89 102//91
f 98//99 99//98 97//100
f 106//96 97//100 99//98
f 108//97 106//96 83//77
f 105//82 107//81 102//91
f 81//85 88//103 86//72
f 88//103 105//82 86//72
f 101//92 91//86 79//87
f 91//86 81//85 94//104
f 79//87 91//86 94//104
f 79//87 109//93 101//92
f 72//66 77//88 79//87
f 87//65 84//74 72//66
f 96//102 95//101 93//95
f 95//101 87//65 100//67
f 103//75 75//108 73//76
f 75//108 96//102 73//76
f 85//105 73//76 93//95
f 100//67 93//95 95//101
f 93//95 73//76 96//102
f 82//107 100//67 72//66
f 79//87 82//107 72//66
f 102//91 80//89 105//82
f 99//98 83//77 106//96
f 92//79 70//71 65//63
f 108//97 102//91 69//70
f 70//71 110//84 99//98
f 68//69 97//100 106//96
f 91//86 101//92 67//68
f 46//44 69//70 105//82
f 87//65 95//101 59//57
f 58//56 51//49 94//104
f 85//105 93//95 63//61
f 62//60 83//77 104//106
f 51//49 63//61 82//107
f 46//44 88//103 81//85
f 67//68 109//93 79//87
f 62//60 49//47 76//90
f 96//102 75//108 53//51
f 58//56 111//73 74//94
f 53//51 73//76 85//105
f 50//48 57//55 72//66
f 48//46 104//106 71//109
