# Blender v2.92.0 OBJ File: 'convert_to_one_sided.blend'
# www.blender.org
mtllib 607344830L.mtl
o Cube
v 0.001000 0.001000 -0.001000
v 0.001000 -0.001000 -0.001000
v 0.001000 0.001000 0.001000
v 0.001000 -0.001000 0.001000
v -0.001000 0.001000 -0.001000
v -0.001000 -0.001000 -0.001000
v -0.001000 0.001000 0.001000
v -0.001000 -0.001000 0.001000
vt 0.625000 0.500000
vt 0.875000 0.500000
vt 0.875000 0.750000
vt 0.625000 0.750000
vt 0.375000 0.750000
vt 0.625000 1.000000
vt 0.375000 1.000000
vt 0.375000 0.000000
vt 0.625000 0.000000
vt 0.625000 0.250000
vt 0.375000 0.250000
vt 0.125000 0.500000
vt 0.375000 0.500000
vt 0.125000 0.750000
vn 0.0000 1.0000 0.0000
vn 0.0000 0.0000 1.0000
vn -1.0000 0.0000 0.0000
vn 0.0000 -1.0000 0.0000
vn 1.0000 0.0000 0.0000
vn 0.0000 0.0000 -1.0000
usemtl Material
s off
f 1/1/1 5/2/1 7/3/1 3/4/1
f 4/5/2 3/4/2 7/6/2 8/7/2
f 8/8/3 7/9/3 5/10/3 6/11/3
f 6/12/4 2/13/4 4/5/4 8/14/4
f 2/13/5 1/1/5 3/4/5 4/5/5
f 6/11/6 5/10/6 1/1/6 2/13/6
o 607344830
v 8.599959 5.316500 5.265513
v 8.535630 5.338531 5.256703
v 8.561130 5.377950 5.250283
v 8.599939 5.359250 5.262453
v 8.522341 5.364910 5.265043
v 8.560360 5.379960 5.261293
v 8.505561 5.252811 5.311502
v 8.640279 5.310481 5.285553
v 8.657818 5.304981 5.302563
v 8.486771 5.332800 5.287553
v 8.504820 5.334681 5.294663
v 8.619880 5.341110 5.289353
v 8.670649 5.256321 5.324432
v 8.602559 5.202772 5.358412
v 8.472422 5.287791 5.309752
v 8.452641 5.272391 5.329672
v 8.418522 5.228052 5.354982
v 8.586659 5.297031 5.341292
v 8.664148 5.277881 5.347472
v 8.694947 5.254791 5.357232
v 8.702088 5.175492 5.397681
v 8.430752 5.221251 5.354322
v 8.471070 5.171742 5.403721
v 8.706858 5.230371 5.375892
v 8.610999 5.138793 5.433281
v 8.730008 5.203042 5.405371
v 8.470501 5.253151 5.368462
v 8.412622 5.200792 5.390242
v 8.414792 5.208602 5.384362
v 8.688249 5.209252 5.407791
v 8.699408 5.141423 5.438571
v 8.707539 5.166193 5.422941
v 8.416962 5.171562 5.426841
v 8.539560 5.206942 5.422051
v 8.525110 5.133323 5.448941
v 8.443501 5.186102 5.425831
v 8.585170 5.120093 5.463111
v 8.670308 5.133993 5.449841
v 8.514041 5.141483 5.449151
v 8.553860 5.162033 5.461531
v 8.640738 5.163522 5.453581
v 8.675388 5.155462 5.444241
v 8.518121 5.155962 5.449921
v 8.593920 5.146653 5.450901
vn 0.2012 -0.3435 -0.9174
vn -0.3095 -0.1912 -0.9315
vn 0.0191 0.4557 -0.8899
vn 0.6218 0.5424 -0.5650
vn -0.6375 0.6009 -0.4822
vn 0.0430 0.9700 0.2394
vn -0.1534 -0.5767 -0.8024
vn 0.5887 -0.0517 -0.8067
vn 0.8478 0.3435 -0.4041
vn -0.8315 0.5230 -0.1871
vn -0.3603 0.7579 0.5438
vn 0.4725 0.8083 0.3513
vn 0.5152 -0.3743 -0.7711
vn 0.0477 -0.6952 -0.7172
vn -0.6107 -0.0992 -0.7857
vn -0.7747 0.6184 0.1321
vn -0.8969 0.0693 -0.4367
vn 0.0232 0.6986 0.7152
vn 0.2673 0.7219 0.6383
vn 0.6978 0.6744 0.2416
vn 0.5435 -0.5914 -0.5957
vn -0.3803 -0.5598 -0.7362
vn -0.2569 -0.8467 -0.4659
vn 0.8661 -0.1035 -0.4890
vn 0.0394 -0.8974 -0.4394
vn 0.9001 0.3355 0.2778
vn -0.2832 0.7048 0.6504
vn -0.8061 -0.4847 -0.3395
vn -0.7741 0.5062 0.3801
vn 0.2526 0.5830 0.7722
vn 0.5992 -0.8006 -0.0093
vn 0.8860 -0.1042 0.4517
vn -0.7427 -0.3075 0.5948
vn -0.0251 0.6518 0.7579
vn -0.3267 -0.9436 -0.0547
vn -0.2972 0.4796 0.8256
vn -0.0619 -0.7684 0.6369
vn 0.3804 -0.4264 0.8206
vn -0.3707 -0.5567 0.7434
vn -0.0827 0.0828 0.9931
vn 0.1555 0.2439 0.9573
vn 0.3463 0.1323 0.9287
vn -0.1972 -0.1503 0.9688
vn 0.0258 -0.1572 0.9872
usemtl mtl1.559
s 1
f 9//7 10//8 11//9
f 9//7 11//9 12//10
f 10//8 13//11 11//9
f 13//11 14//12 11//9
f 14//12 12//10 11//9
f 9//7 15//13 10//8
f 12//10 16//14 9//7
f 17//15 16//14 12//10
f 13//11 18//16 19//17
f 13//11 19//17 14//12
f 14//12 20//18 12//10
f 9//7 21//19 22//20
f 15//13 23//21 10//8
f 21//19 9//7 16//14
f 16//14 17//15 21//19
f 10//8 23//21 13//11
f 18//16 13//11 23//21
f 17//15 12//10 20//18
f 9//7 22//20 15//13
f 24//22 23//21 25//23
f 23//21 24//22 18//16
f 20//18 26//24 27//25
f 28//26 17//15 20//18
f 27//25 28//26 20//18
f 19//17 26//24 14//12
f 20//18 14//12 26//24
f 22//20 21//19 29//27
f 23//21 30//28 25//23
f 15//13 30//28 23//21
f 15//13 31//29 30//28
f 22//20 31//29 15//13
f 17//15 32//30 21//19
f 28//26 32//30 17//15
f 24//22 19//17 18//16
f 31//29 22//20 33//31
f 34//32 32//30 28//26
f 24//22 35//33 19//17
f 35//33 26//24 19//17
f 30//28 31//29 36//34
f 29//27 33//31 22//20
f 32//30 29//27 21//19
f 36//34 25//23 30//28
f 37//35 25//23 36//34
f 37//35 24//22 25//23
f 35//33 24//22 37//35
f 27//25 38//36 28//26
f 38//36 34//32 28//26
f 33//31 29//27 39//37
f 32//30 40//38 29//27
f 36//34 41//39 37//35
f 34//32 40//38 32//30
f 26//24 38//36 27//25
f 26//24 42//40 38//36
f 43//41 31//29 33//31
f 41//39 36//34 31//29
f 41//39 44//42 37//35
f 35//33 37//35 44//42
f 42//40 26//24 35//33
f 33//31 45//43 43//41
f 39//37 46//44 33//31
f 31//29 47//45 41//39
f 43//41 47//45 31//29
f 40//38 39//37 29//27
f 34//32 38//36 40//38
f 35//33 44//42 42//40
f 33//31 46//44 45//43
f 43//41 45//43 47//45
f 46//44 39//37 40//38
f 44//42 48//46 42//40
f 48//46 49//47 42//40
f 49//47 38//36 42//40
f 40//38 50//48 46//44
f 51//49 44//42 41//39
f 47//45 51//49 41//39
f 48//46 44//42 51//49
f 40//38 38//36 50//48
f 38//36 49//47 50//48
f 47//45 45//43 52//50
f 45//43 46//44 52//50
f 52//50 46//44 50//48
f 52//50 51//49 47//45
f 52//50 48//46 51//49
f 49//47 48//46 52//50
f 50//48 49//47 52//50
