# wavefront obj file written by the visualization toolkit


v 8333.9 5347.56 5339.39
v 8378.35 5324.02 5348.4
v 8379.95 5265.98 5396.7
v 8351.63 5350.38 5347.58
v 8300.37 5316.1 5387.53
v 8418.09 5296.41 5375.56
v 8413.85 5311.57 5371.07
v 8308.55 5364.59 5372.6
v 8351.85 5355.15 5380.78
v 8307.36 5238.57 5451.19
v 8458.19 5259.29 5418.49
v 8468.46 5266.14 5416.3
v 8269.6 5331.48 5407.99
v 8270.72 5276.58 5450.33
v 8270.75 5357.91 5433.09
v 8295.48 5370.65 5415.82
v 8410.75 5310.72 5412.31
v 8378.69 5210.67 5466.75
v 8469.29 5242.26 5447.5
v 8266.95 5358.4 5457.75
v 8439.04 5213.22 5474.11
v 8466.54 5236.7 5456.76
v 8260.28 5297.68 5475.46
v 8417.04 5281.6 5458.55
v 8330.17 5319.77 5456.15
v 8262.59 5324.21 5482.47
v 8285.13 5246.37 5501.38
v 8465.47 5215.26 5475.29
v 8433.33 5223.65 5483.43
v 8358.11 5214.89 5499.91
v 8375.7 5255.13 5494.59
v 8408.78 5213.48 5497.43
v 8271.78 5279.46 5504.98
v 8277.63 5308.94 5486.09
v 8307.92 5237.52 5513.71
v 8374.95 5230.01 5511
v 8324.88 5255.29 5500.93
v 8356.48 5231.38 5501.59
v 8350.51 5192.91 5865.73
v 8282.43 5231.65 5866.82
v 8307.59 5226.13 5860.71
v 8367.54 5248.39 5885.03
v 8282.49 5285.42 5885.82
v 8263.17 5290.52 5891.83
v 8332.86 5200.75 5881.75
v 8402.79 5196.5 5894.35
v 8429.96 5214.57 5910.82
v 8430.37 5252.16 5931.81
v 8270.54 5332.25 5905.46
v 8311.23 5343.63 5947.75
v 8283.2 5251.73 5918.82
v 8395.67 5294.63 5945.4
v 8268 5334.87 5941.29
v 8429.78 5226.82 5937.35
v 8266.05 5308.94 5951.07
v 8362.87 5244.58 5954.6
v 8438.08 5257.86 5955.55
v 8418.21 5289.98 5966.95
v 8377.76 5328.85 5980.81
v 8302.81 5275.03 5980.23
v 8285.64 5305.01 5989.82
v 8283.43 5365.51 5987.08
v 8283.72 5344.96 5992.18
v 8342.87 5357.97 6005.98
v 8302.81 5361.61 5998.64
v 8323.83 5302.24 6011.93
v 8411.45 5272.95 5984.69
v 8393.46 5305.89 5995.55
v 8371.12 5307.45 6014.53
v 8315.09 5356.04 6015.22
v 8383.16 5309.58 6011.32
v 8307.06 5333.3 6012.35
v 8354.77 5330.64 6014.61
v 8333.57 5326.85 6011.42
vn -0.290164 -0.0409353 -0.956101
vn 0.309647 -0.107351 -0.944772
vn -0.0579567 -0.697871 -0.713874
vn 0.30942 0.726044 -0.6141
vn -0.581613 -0.396858 -0.710091
vn 0.431654 -0.347669 -0.832347
vn 0.71295 0.429109 -0.554588
vn -0.449111 0.700105 -0.555114
vn 0.405872 0.912186 0.0564281
vn -0.449114 -0.805256 -0.387118
vn 0.48836 -0.531577 -0.692048
vn 0.947998 0.16208 -0.273914
vn -0.878217 -0.023545 -0.477682
vn -0.803192 -0.490874 -0.337529
vn -0.835912 0.541051 -0.0922774
vn 0.013254 0.99143 0.129966
vn 0.55981 0.784785 0.265943
vn -0.10771 -0.944894 -0.309149
vn 0.835858 0.377459 0.398581
vn -0.166637 0.798244 0.578825
vn 0.218879 -0.948127 -0.230538
vn 0.797065 -0.516686 -0.312605
vn -0.990034 -0.098141 0.101005
vn 0.445263 0.62861 0.637644
vn 0.330617 0.693374 0.640254
vn -0.69876 0.403371 0.590784
vn -0.714659 -0.646412 0.267235
vn 0.77481 -0.44318 0.450845
vn 0.46464 0.27549 0.841555
vn -0.150578 -0.896406 0.416872
vn 0.252971 0.508341 0.823162
vn 0.166559 -0.603948 0.779426
vn -0.442033 0.117404 0.889283
vn 0.13795 0.501175 0.854279
vn -0.0893577 -0.255478 0.962677
vn 0.084703 -0.0237796 0.996122
vn 0.110129 0.332712 0.936576
vn -0.0389756 -0.336048 0.941038
vn 0.121624 -0.580145 -0.805382
vn -0.677605 -0.425622 -0.599748
vn -0.0404023 0.0979094 -0.994375
vn 0.387525 0.414893 -0.823218
vn -0.0678413 0.418862 -0.905512
vn -0.930123 0.0527176 -0.363444
vn -0.351217 -0.915961 0.194065
vn 0.230616 -0.963232 0.137839
vn 0.842913 -0.255868 -0.473317
vn 0.732609 0.453544 -0.507524
vn -0.363987 0.699461 -0.615034
vn 0.205728 0.849818 -0.485269
vn -0.710827 -0.625786 0.321118
vn 0.496261 0.679976 -0.539775
vn -0.832128 0.550165 -0.0698673
vn 0.506432 -0.697901 0.50642
vn -0.963904 -0.112635 0.241252
vn -0.0940175 -0.768603 0.63278
vn 0.964383 0.0750386 0.253642
vn 0.769975 0.629971 -0.101367
vn 0.595343 0.785813 -0.167526
vn -0.399465 -0.695132 0.597678
vn -0.704208 -0.336268 0.625312
vn -0.460234 0.874835 0.151159
vn -0.817165 0.166554 0.551817
vn 0.427134 0.856865 0.288685
vn 0.0574908 0.993149 0.101736
vn -0.196822 -0.402821 0.893866
vn 0.519621 -0.32443 0.790404
vn 0.744525 0.490879 0.45246
vn 0.112178 -0.265661 0.957518
vn -0.174723 0.470554 0.8649
vn 0.578366 0.2119 0.787776
vn -0.385031 -0.0524296 0.921413
vn 0.303493 0.344547 0.888358
vn -0.0354291 -0.0185087 0.999201

g grp1
usemtl mtl1
f 1//1 2//2 3//3 
f 4//4 2//2 1//1 
f 3//3 5//5 1//1 
f 2//2 6//6 3//3 
f 2//2 7//7 6//6 
f 8//8 1//1 5//5 
f 2//2 4//4 7//7 
f 4//4 1//1 8//8 
f 4//4 8//8 9//9 
f 3//3 10//10 5//5 
f 11//11 6//6 7//7 
f 7//7 12//12 11//11 
f 13//13 5//5 14//14 
f 5//5 13//13 8//8 
f 15//15 8//8 13//13 
f 4//4 9//9 7//7 
f 8//8 16//16 9//9 
f 5//5 10//10 14//14 
f 12//12 7//7 17//17 
f 7//7 9//9 17//17 
f 8//8 15//15 16//16 
f 3//3 18//18 10//10 
f 11//11 3//3 6//6 
f 12//12 17//17 19//19 
f 16//16 15//15 20//20 
f 3//3 21//21 18//18 
f 21//21 11//11 22//22 
f 11//11 21//21 3//3 
f 11//11 12//12 22//22 
f 14//14 23//23 13//13 
f 19//19 17//17 24//24 
f 17//17 9//9 25//25 
f 9//9 16//16 25//25 
f 22//22 12//12 19//19 
f 23//23 15//15 13//13 
f 24//24 17//17 25//25 
f 15//15 26//26 20//20 
f 16//16 20//20 25//25 
f 27//27 14//14 10//10 
f 22//22 19//19 28//28 
f 27//27 23//23 14//14 
f 29//29 19//19 24//24 
f 26//26 15//15 23//23 
f 21//21 30//30 18//18 
f 27//27 10//10 30//30 
f 30//30 10//10 18//18 
f 28//28 21//21 22//22 
f 19//19 29//29 28//28 
f 29//29 24//24 31//31 
f 31//31 24//24 25//25 
f 21//21 32//32 30//30 
f 28//28 32//32 21//21 
f 23//23 33//33 26//26 
f 27//27 33//33 23//23 
f 20//20 26//26 34//34 
f 25//25 20//20 34//34 
f 35//35 27//27 30//30 
f 28//28 29//29 32//32 
f 29//29 36//36 32//32 
f 35//35 33//33 27//27 
f 36//36 29//29 31//31 
f 36//36 31//31 37//37 
f 37//37 31//31 25//25 
f 33//33 34//34 26//26 
f 37//37 25//25 34//34 
f 38//38 30//30 32//32 
f 38//38 35//35 30//30 
f 32//32 36//36 38//38 
f 36//36 37//37 38//38 
f 37//37 34//34 33//33 
f 38//38 37//37 35//35 
f 37//37 33//33 35//35 
f 39//39 40//40 41//41 
f 42//42 39//39 41//41 
f 43//43 41//41 40//40 
f 44//44 43//43 40//40 
f 42//42 41//41 43//43 
f 45//45 39//39 46//46 
f 39//39 47//47 46//46 
f 45//45 40//40 39//39 
f 47//47 39//39 42//42 
f 48//48 47//47 42//42 
f 49//49 43//43 44//44 
f 43//43 50//50 42//42 
f 50//50 43//43 49//49 
f 45//45 51//51 40//40 
f 40//40 51//51 44//44 
f 52//52 48//48 42//42 
f 49//49 44//44 53//53 
f 47//47 54//54 46//46 
f 51//51 55//55 44//44 
f 44//44 55//55 53//53 
f 42//42 50//50 52//52 
f 50//50 49//49 53//53 
f 45//45 46//46 56//56 
f 45//45 56//56 51//51 
f 54//54 47//47 57//57 
f 47//47 48//48 57//57 
f 52//52 58//58 48//48 
f 50//50 59//59 52//52 
f 46//46 54//54 56//56 
f 51//51 56//56 60//60 
f 51//51 61//61 55//55 
f 60//60 61//61 51//51 
f 48//48 58//58 57//57 
f 52//52 59//59 58//58 
f 53//53 62//62 50//50 
f 55//55 63//63 53//53 
f 64//64 59//59 50//50 
f 50//50 62//62 65//65 
f 50//50 65//65 64//64 
f 56//56 66//66 60//60 
f 56//56 54//54 67//67 
f 54//54 57//57 67//67 
f 61//61 63//63 55//55 
f 68//68 57//57 58//58 
f 58//58 59//59 68//68 
f 63//63 62//62 53//53 
f 66//66 56//56 69//69 
f 56//56 67//67 69//69 
f 60//60 66//66 61//61 
f 68//68 67//67 57//57 
f 70//70 62//62 63//63 
f 69//69 67//67 71//71 
f 71//71 67//67 68//68 
f 68//68 59//59 64//64 
f 62//62 70//70 65//65 
f 65//65 70//70 64//64 
f 61//61 66//66 72//72 
f 69//69 71//71 73//73 
f 61//61 72//72 63//63 
f 71//71 68//68 73//73 
f 63//63 72//72 70//70 
f 73//73 68//68 64//64 
f 70//70 73//73 64//64 
f 66//66 69//69 74//74 
f 72//72 66//66 74//74 
f 69//69 73//73 74//74 
f 74//74 70//70 72//72 
f 74//74 73//73 70//70 
