# Blender v2.92.0 OBJ File: 'convert_to_one_sided.blend'
# www.blender.org
mtllib 607344842L.mtl
o Cube
v 0.001000 0.001000 -0.001000
v 0.001000 -0.001000 -0.001000
v 0.001000 0.001000 0.001000
v 0.001000 -0.001000 0.001000
v -0.001000 0.001000 -0.001000
v -0.001000 -0.001000 -0.001000
v -0.001000 0.001000 0.001000
v -0.001000 -0.001000 0.001000
vt 0.625000 0.500000
vt 0.875000 0.500000
vt 0.875000 0.750000
vt 0.625000 0.750000
vt 0.375000 0.750000
vt 0.625000 1.000000
vt 0.375000 1.000000
vt 0.375000 0.000000
vt 0.625000 0.000000
vt 0.625000 0.250000
vt 0.375000 0.250000
vt 0.125000 0.500000
vt 0.375000 0.500000
vt 0.125000 0.750000
vn 0.0000 1.0000 0.0000
vn 0.0000 0.0000 1.0000
vn -1.0000 0.0000 0.0000
vn 0.0000 -1.0000 0.0000
vn 1.0000 0.0000 0.0000
vn 0.0000 0.0000 -1.0000
usemtl Material
s off
f 1/1/1 5/2/1 7/3/1 3/4/1
f 4/5/2 3/4/2 7/6/2 8/7/2
f 8/8/3 7/9/3 5/10/3 6/11/3
f 6/12/4 2/13/4 4/5/4 8/14/4
f 2/13/5 1/1/5 3/4/5 4/5/5
f 6/11/6 5/10/6 1/1/6 2/13/6
o 607344842
v 8.982724 5.218122 5.575739
v 8.957495 5.175642 5.576549
v 8.881876 5.258552 5.564069
v 8.854686 5.217632 5.569969
v 8.804007 5.210912 5.582269
v 8.793467 5.274881 5.575029
v 8.819636 5.314311 5.577889
v 9.018794 5.116463 5.611458
v 8.887675 5.300991 5.588569
v 8.964425 5.266121 5.601499
v 8.764117 5.222231 5.609179
v 8.746418 5.273101 5.635038
v 8.769708 5.322230 5.628938
v 8.814236 5.336171 5.628448
v 9.000693 5.076084 5.625708
v 8.889445 5.116773 5.619978
v 8.782917 5.146493 5.638679
v 9.016804 5.168732 5.638438
v 8.917185 5.325720 5.656948
v 9.046023 5.031634 5.662528
v 8.989214 5.031514 5.664448
v 9.039364 5.085854 5.649899
v 8.744437 5.208552 5.681928
v 8.976984 5.258311 5.679868
v 8.841176 5.349120 5.681308
v 8.888906 5.045404 5.677708
v 8.806587 5.092453 5.665828
v 8.771467 5.131113 5.668488
v 9.034984 5.006225 5.695618
v 9.047093 5.083104 5.695097
v 8.969045 5.020274 5.693578
v 8.842127 5.062814 5.697137
v 8.776258 5.135823 5.698328
v 8.747644 5.321485 5.699999
v 8.784064 5.341408 5.699999
v 8.835736 5.352827 5.699999
v 8.934143 5.024786 5.699999
v 8.931663 5.311874 5.699999
v 8.850427 5.346275 5.699999
v 9.046367 5.059597 5.699999
v 8.746663 5.209391 5.699999
v 8.840109 5.067925 5.699999
v 8.846107 5.063702 5.699999
v 8.986421 5.235254 5.699999
v 9.039534 5.017356 5.699999
v 8.883059 5.043800 5.699999
v 8.744576 5.314447 5.699999
v 8.741160 5.283566 5.699999
v 8.790515 5.343442 5.699999
v 8.916833 5.028560 5.699999
v 8.966570 5.271641 5.699999
v 9.045582 5.031938 5.699999
v 9.010356 5.179888 5.699999
v 9.029376 5.011376 5.699999
v 8.775652 5.137902 5.699999
v 9.034725 5.012450 5.699999
v 8.778118 5.135496 5.699999
v 8.741268 5.279258 5.699999
v 8.888912 5.334430 5.699999
v 8.807978 5.346418 5.699999
v 8.745343 5.228710 5.699999
v 9.042773 5.094070 5.699999
v 8.971638 5.025231 5.699999
v 9.044447 5.083944 5.699999
vn 0.5647 0.2639 -0.7820
vn 0.0803 -0.2840 -0.9555
vn 0.0687 0.1549 -0.9855
vn -0.1324 -0.2580 -0.9570
vn -0.3881 -0.3696 -0.8442
vn -0.4915 0.0957 -0.8656
vn -0.1259 0.6422 -0.7561
vn 0.6667 -0.1120 -0.7369
vn 0.2932 0.7415 -0.6035
vn 0.7196 0.6050 -0.3407
vn -0.7929 -0.2237 -0.5668
vn -0.9301 0.1218 -0.3466
vn -0.6019 0.6820 -0.4154
vn -0.0688 0.9444 -0.3214
vn 0.0702 -0.5209 -0.8507
vn -0.2097 -0.5566 -0.8039
vn -0.6389 -0.4687 -0.6101
vn 0.9304 0.3204 -0.1784
vn 0.5066 0.8497 -0.1461
vn 0.7439 -0.4439 -0.4995
vn -0.0834 -0.7802 -0.6199
vn 0.9465 0.1023 -0.3061
vn -0.9734 -0.2183 -0.0689
vn 0.8453 0.5342 -0.0089
vn 0.1263 0.9713 -0.2017
vn -0.3052 -0.8500 -0.4294
vn -0.5821 -0.7315 -0.3550
vn -0.8549 -0.4937 -0.1593
vn -0.7475 0.2603 0.6111
vn -0.7567 0.0170 0.6535
vn -0.2009 0.7423 0.6393
vn -0.2895 0.7093 0.6427
vn 0.2893 -0.9294 0.2292
vn 0.9860 0.1257 0.1092
vn -0.1506 -0.9883 0.0253
vn -0.3097 -0.8149 0.4900
vn -0.2062 -0.7919 0.5747
vn -0.5468 -0.7779 0.3097
vn -0.7744 -0.5610 0.2924
vn 0.7596 -0.1088 0.6412
vn 0.6126 -0.2353 0.7546
vn 0.6306 0.2572 0.7322
vn 0.6501 0.2916 0.7016
vn 0.5853 0.4514 0.6735
vn -0.0697 -0.3594 0.9306
vn -0.1402 -0.4122 0.9002
vn 0.2694 -0.2667 0.9254
vn -0.6830 -0.1710 0.7101
vn -0.2961 -0.3392 0.8929
vn 0.5586 0.0413 0.8284
vn 0.6900 0.0212 0.7235
vn -0.6281 -0.3029 0.7168
vn 0.6806 0.2404 0.6921
vn -0.6458 -0.0455 0.7621
vn -0.7412 -0.0249 0.6708
vn -0.1080 0.7420 0.6616
vn -0.3130 -0.6326 0.7084
vn -0.2466 -0.3161 0.9161
vn -0.3072 -0.3255 0.8942
vn 0.2536 0.6373 0.7277
vn 0.4709 0.5231 0.7103
vn 0.0656 0.8343 0.5474
vn 0.2468 0.6747 0.6956
vn -0.6554 0.5036 0.5629
usemtl mtl1.562
s 1
f 9//7 10//8 11//9
f 10//8 12//10 11//9
f 12//10 13//11 14//12
f 11//9 12//10 14//12
f 11//9 14//12 15//13
f 9//7 16//14 10//8
f 11//9 17//15 9//7
f 17//15 18//16 9//7
f 14//12 13//11 19//17
f 20//18 14//12 19//17
f 15//13 17//15 11//9
f 14//12 20//18 21//19
f 21//19 15//13 14//12
f 22//20 15//13 21//19
f 17//15 15//13 22//20
f 16//14 23//21 10//8
f 24//22 12//10 10//8
f 23//21 24//22 10//8
f 13//11 12//10 24//22
f 25//23 13//11 24//22
f 16//14 9//7 26//24
f 9//7 18//16 26//24
f 18//16 17//15 27//25
f 23//21 28//26 29//27
f 24//22 23//21 29//27
f 16//14 28//26 23//21
f 26//24 30//28 16//14
f 13//11 25//23 19//17
f 31//29 20//18 19//17
f 27//25 32//30 18//16
f 33//31 17//15 22//20
f 24//22 29//27 34//32
f 16//14 30//28 28//26
f 35//33 36//34 25//23
f 34//32 35//33 24//22
f 24//22 35//33 25//23
f 31//29 25//23 36//34
f 19//17 25//23 31//29
f 18//16 32//30 26//24
f 55//35 20//18 56//36
f 57//37 21//19 43//38
f 17//15 33//31 27//25
f 29//27 28//26 37//39
f 30//28 38//40 28//26
f 30//28 26//24 38//40
f 39//41 29//27 37//39
f 29//27 39//41 34//32
f 58//42 39//41 45//43
f 35//33 40//44 41//45
f 34//32 40//44 35//33
f 35//33 41//45 36//34
f 37//39 60//46 53//47
f 36//34 41//45 31//29
f 61//48 32//30 52//49
f 59//50 52//49 32//30
f 71//51 45//43 39//41
f 62//52 37//39 64//53
f 64//53 37//39 53//47
f 49//54 65//55 59//50
f 72//56 48//57 38//40
f 65//55 63//58 41//45
f 38//40 70//59 72//56
f 31//29 69//60 66//61
f 62//52 39//41 37//39
f 26//24 70//59 38//40
f 33//31 57//37 68//62
f 66//61 20//18 31//29
f 34//32 54//63 40//44
f 40//44 54//63 51//64
f 50//65 41//45 40//44
f 40//44 51//64 50//65
f 41//45 49//54 31//29
f 31//29 49//54 69//60
f 28//26 48//57 60//46
f 33//31 67//66 27//25
f 32//30 46//67 59//50
f 27//25 67//66 46//67
f 33//31 68//62 44//68
f 33//31 44//68 47//69
f 55//35 21//19 20//18
f 21//19 42//70 43//38
f 57//37 22//20 21//19
f 58//42 34//32 39//41
f 37//39 28//26 60//46
f 61//48 26//24 32//30
f 65//55 50//65 52//49
f 50//65 51//64 61//48
f 52//49 50//65 61//48
f 51//64 54//63 61//48
f 54//63 58//42 61//48
f 58//42 45//43 61//48
f 45//43 71//51 61//48
f 71//51 62//52 60//46
f 62//52 64//53 53//47
f 60//46 62//52 53//47
f 60//46 48//57 71//51
f 48//57 72//56 71//51
f 72//56 70//59 71//51
f 70//59 61//48 71//51
f 52//49 59//50 65//55
f 59//50 46//67 49//54
f 46//67 67//66 49//54
f 49//54 67//66 69//60
f 47//69 44//68 68//62
f 67//66 47//69 69//60
f 47//69 68//62 69//60
f 68//62 57//37 66//61
f 66//61 57//37 43//38
f 43//38 42//70 55//35
f 56//36 43//38 55//35
f 56//36 66//61 43//38
f 66//61 69//60 68//62
f 49//54 63//58 65//55
f 62//52 71//51 39//41
f 26//24 61//48 70//59
f 33//31 22//20 57//37
f 66//61 56//36 20//18
f 34//32 58//42 54//63
f 50//65 65//55 41//45
f 41//45 63//58 49//54
f 28//26 38//40 48//57
f 33//31 47//69 67//66
f 32//30 27//25 46//67
f 55//35 42//70 21//19
