# wavefront obj file written by the visualization toolkit


v 8562.46 5291.61 5493.54
v 8539.3 5227.06 5524.67
v 8473.13 5302.28 5483.69
v 8516.44 5348.67 5480.3
v 8372.94 5344.46 5484.2
v 8403.2 5410.69 5476.12
v 8312.87 5431.23 5500.41
v 8514.41 5431.05 5493.74
v 8352.92 5489.13 5490.34
v 8417.48 5483.61 5488.57
v 8471.08 5510.88 5507.62
v 8417.71 5235.89 5531.06
v 8334.95 5304.3 5522.01
v 8612.45 5342.41 5517.8
v 8302.96 5354.29 5524.51
v 8547.84 5475.94 5521.83
v 8318.17 5514.28 5518.75
v 8511.15 5531.64 5543.78
v 8387.59 5541.31 5517.58
v 8327.51 5252.24 5559.89
v 8634.98 5243.46 5557.33
v 8606.23 5419.12 5531.99
v 8659.4 5374.93 5552.35
v 8259.39 5388.49 5556.26
v 8271.72 5472.87 5558.47
v 8438.69 5573.58 5546.05
v 8339.93 5577.99 5562.51
v 8387.62 5591.35 5562.12
v 8529.22 5147.9 5587.79
v 8603.56 5167.51 5588.08
v 8280.09 5312.14 5574.7
v 8672.77 5317.05 5571.7
v 8646.41 5417.67 5562.15
v 8588.85 5466.46 5555.87
v 8294.65 5537.22 5572.89
v 8445.89 5144.42 5603.94
v 8372.18 5198.54 5584.81
v 8323.8 5217.89 5628.79
v 8661.1 5152.24 5624.89
v 8683.94 5222.51 5624.52
v 8677.6 5384.7 5646.66
v 8263.46 5526.36 5629.03
v 8538.56 5532.86 5611.6
v 8471.35 5578.7 5583.88
v 8367.3 5619.57 5640.94
v 8419.78 5605.69 5614.17
v 8536.94 5098.01 5641.44
v 8238.46 5356.72 5614.42
v 8239.17 5430.61 5656.6
v 8612.99 5459.71 5641.38
v 8313.01 5579.82 5639.43
v 8601.83 5115.76 5635.9
v 8400.86 5151.03 5634.11
v 8697.59 5300.91 5682.35
v 8471.64 5586.76 5684.46
v 8473.46 5106.22 5672.05
v 8686.6 5156.2 5663.87
v 8261.08 5293.62 5660.52
v 8701 5227.15 5704.91
v 8237.63 5345.84 5691.82
v 8254.54 5516.88 5728.83
v 8408.22 5618.55 5712.51
v 8587.5 5089.38 5683.38
v 8373.05 5160.75 5693.04
v 8651.68 5121.93 5672.45
v 8573.41 5505.14 5725.55
v 8638 5440.9 5702.75
v 8291.62 5566.91 5704.77
v 8339.37 5605.2 5718.61
v 8374.77 5618.39 5719.12
v 8303.61 5230.04 5715.22
v 8707.44 5290.72 5742.58
v 8691.68 5341.15 5763.45
v 8235.62 5444.33 5759
v 8524.06 5093.8 5719.12
v 8682.73 5171.62 5729.49
v 8354.22 5178.59 5750.26
v 8583.4 5096.46 5733.43
v 8630.98 5122.35 5715.18
v 8433.01 5131.36 5729.8
v 8260.45 5301.96 5747.08
v 8240.75 5381.38 5750.58
v 8637.85 5429.53 5751.3
v 8486.15 5129.49 5771.62
v 8391.95 5188.09 5796.7
v 8692.19 5266.27 5777
v 8306.94 5558.91 5787.21
v 8503.69 5545.06 5782.4
v 8547.76 5147.24 5796.37
v 8614.19 5171.13 5786.69
v 8261.07 5485.12 5802.66
v 8390.74 5583.05 5790.46
v 8662.8 5224.33 5798.32
v 8317.12 5261.09 5798.19
v 8269.49 5363.68 5819.23
v 8252.83 5426.98 5798.25
v 8442.68 5211.59 5846.93
v 8500.03 5177.75 5823.76
v 8672.58 5327.65 5822.19
v 8592.9 5474.87 5775.05
v 8296.93 5509.69 5843.56
v 8538.61 5234.9 5857.44
v 8627.29 5237.76 5833.45
v 8367.04 5272.09 5856.02
v 8653.26 5275.95 5830.19
v 8586.63 5435.22 5817.67
v 8279.43 5445.36 5842.55
v 8347.48 5540.45 5848.52
v 8459.92 5526.93 5844.43
v 8314.08 5335.91 5854.96
v 8394.35 5548.39 5845.57
v 8605.42 5273.38 5859.7
v 8570.21 5350.94 5871.95
v 8300.91 5393.94 5865.16
v 8480.84 5459.22 5880.58
v 8423.3 5317.86 5893.02
v 8551.53 5296.32 5877.32
v 8346.52 5371.06 5882.23
v 8331.45 5463.81 5870.62
v 8399.29 5493.59 5875.52
v 8499.81 5336.29 5892.93
v 8478.29 5402.6 5900.09
v 8389.99 5417.9 5896.05
v 8436.51 5431.93 5896.88
v 8446.45 5382.46 5895.37
vn 0.300894 -0.254921 -0.918955
vn 0.131394 -0.540635 -0.830933
vn -0.0316178 -0.299925 -0.953439
vn 0.193661 0.0308714 -0.980583
vn -0.316558 -0.260698 -0.912046
vn -0.0512939 0.0446077 -0.997687
vn -0.54823 0.0324129 -0.8357
vn 0.280292 0.220366 -0.934278
vn -0.214787 0.295823 -0.930782
vn 0.0781781 0.308411 -0.948035
vn 0.241243 0.479764 -0.84358
vn -0.226181 -0.56894 -0.790664
vn -0.509776 -0.419002 -0.751376
vn 0.509608 0.024605 -0.860055
vn -0.620387 -0.272402 -0.73547
vn 0.473321 0.464252 -0.748624
vn -0.547377 0.444092 -0.709338
vn 0.51188 0.684497 -0.519079
vn -0.0751961 0.580376 -0.810869
vn -0.572389 -0.570136 -0.589334
vn 0.555672 -0.337654 -0.759749
vn 0.519786 0.354429 -0.777305
vn 0.781154 0.203237 -0.590333
vn -0.85145 -0.0685252 -0.51994
vn -0.853746 0.241921 -0.461077
vn 0.230421 0.765082 -0.601295
vn -0.44791 0.739475 -0.502547
vn -0.0373085 0.847876 -0.528881
vn 0.0282446 -0.678728 -0.733846
vn 0.279386 -0.586525 -0.760218
vn -0.764784 -0.436185 -0.474182
vn 0.870042 -0.0368293 -0.4916
vn 0.739352 0.557756 -0.377184
vn 0.642201 0.649002 -0.40789
vn -0.732616 0.555177 -0.393766
vn -0.274192 -0.777857 -0.565471
vn -0.46955 -0.702191 -0.535211
vn -0.712455 -0.657351 -0.245556
vn 0.582649 -0.559495 -0.589479
vn 0.899009 -0.158958 -0.408064
vn 0.910276 0.406252 -0.0797303
vn -0.860944 0.474638 -0.183013
vn 0.653437 0.743993 -0.139624
vn 0.472625 0.843423 -0.255466
vn -0.220833 0.962975 -0.154637
vn 0.263103 0.939465 -0.219503
vn -0.0404755 -0.887847 -0.458356
vn -0.947765 -0.219158 -0.231758
vn -0.987223 0.112243 -0.113101
vn 0.719142 0.68877 -0.0918177
vn -0.641755 0.750307 -0.158715
vn 0.273854 -0.785283 -0.555279
vn -0.510891 -0.807848 -0.293891
vn 0.981936 0.111936 -0.152554
vn 0.526282 0.849992 0.0232488
vn -0.325593 -0.938543 -0.114574
vn 0.885436 -0.437818 -0.155942
vn -0.858671 -0.500314 -0.111219
vn 0.989061 -0.147313 0.00752275
vn -0.977745 -0.206277 0.0382667
vn -0.89171 0.440918 0.102196
vn 0.258637 0.952844 0.158732
vn 0.198555 -0.97837 -0.0580435
vn -0.592103 -0.805395 -0.0274421
vn 0.574666 -0.814997 -0.0744301
vn 0.673896 0.73426 0.0820129
vn 0.770509 0.636879 0.0264723
vn -0.715992 0.69645 0.0481036
vn -0.476629 0.859606 0.184129
vn -0.149082 0.956555 0.250556
vn -0.775749 -0.624101 0.0933389
vn 0.991958 0.0485264 0.116895
vn 0.904866 0.346424 0.247403
vn -0.977066 0.0976243 0.189237
vn -0.177546 -0.958677 0.222296
vn 0.764848 -0.526045 0.371865
vn -0.607514 -0.733045 0.305895
vn 0.228671 -0.846992 0.479911
vn 0.533974 -0.763782 0.362642
vn -0.404173 -0.874194 0.269126
vn -0.873378 -0.422959 0.241489
vn -0.968854 -0.132058 0.209484
vn 0.785832 0.561627 0.258926
vn -0.185714 -0.796907 0.574847
vn -0.431618 -0.696389 0.573366
vn 0.889764 -0.150077 0.431041
vn -0.58449 0.722431 0.369412
vn 0.496621 0.773948 0.392902
vn 0.134551 -0.6615 0.737777
vn 0.416347 -0.610254 0.673978
vn -0.857677 0.313752 0.407369
vn 0.000237742 0.874136 0.485681
vn 0.646154 -0.422953 0.635292
vn -0.68087 -0.533392 0.501905
vn -0.824572 -0.240883 0.511915
vn -0.900828 -0.0193118 0.433746
vn -0.175897 -0.578098 0.796783
vn -0.0154384 -0.636357 0.77124
vn 0.732494 0.189189 0.653957
vn 0.669487 0.636131 0.383569
vn -0.604416 0.408772 0.683803
vn 0.135017 -0.45119 0.882155
vn 0.417657 -0.456354 0.785687
vn -0.429455 -0.463985 0.774782
vn 0.617358 -0.163127 0.769583
vn 0.605187 0.510719 0.610667
vn -0.741133 0.0809388 0.666461
vn -0.246217 0.621929 0.743358
vn 0.342911 0.65115 0.677064
vn -0.585791 -0.360394 0.725923
vn 0.0804716 0.684911 0.724169
vn 0.361766 -0.207592 0.908863
vn 0.416681 0.140522 0.898126
vn -0.58128 -0.0784994 0.809908
vn 0.320187 0.402954 0.857384
vn -0.104705 -0.236618 0.965945
vn 0.205316 -0.167854 0.964194
vn -0.352154 -0.144327 0.924747
vn -0.351234 0.194473 0.915868
vn -0.0121825 0.397091 0.917699
vn 0.110649 -0.134574 0.984706
vn 0.144897 0.0862942 0.985676
vn -0.149074 0.0760182 0.9859
vn 0.0102777 0.184344 0.982808
vn -0.0328343 -0.051625 0.998127

g grp1
usemtl mtl1
f 1//1 2//2 3//3 
f 1//1 3//3 4//4 
f 3//3 5//5 6//6 
f 4//4 3//3 6//6 
f 6//6 5//5 7//7 
f 4//4 6//6 8//8 
f 6//6 7//7 9//9 
f 6//6 9//9 10//10 
f 8//8 6//6 10//10 
f 8//8 10//10 11//11 
f 2//2 12//12 3//3 
f 12//12 13//13 5//5 
f 3//3 12//12 5//5 
f 14//14 1//1 4//4 
f 5//5 13//13 15//15 
f 8//8 14//14 4//4 
f 15//15 7//7 5//5 
f 8//8 11//11 16//16 
f 9//9 7//7 17//17 
f 16//16 11//11 18//18 
f 10//10 9//9 19//19 
f 19//19 9//9 17//17 
f 19//19 11//11 10//10 
f 12//12 20//20 13//13 
f 1//1 21//21 2//2 
f 21//21 1//1 14//14 
f 22//22 14//14 8//8 
f 22//22 23//23 14//14 
f 16//16 22//22 8//8 
f 7//7 15//15 24//24 
f 25//25 7//7 24//24 
f 25//25 17//17 7//7 
f 11//11 26//26 18//18 
f 17//17 27//27 19//19 
f 11//11 19//19 26//26 
f 28//28 19//19 27//27 
f 26//26 19//19 28//28 
f 12//12 2//2 29//29 
f 2//2 21//21 30//30 
f 20//20 31//31 13//13 
f 14//14 32//32 21//21 
f 23//23 32//32 14//14 
f 13//13 31//31 15//15 
f 31//31 24//24 15//15 
f 33//33 23//23 22//22 
f 34//34 33//33 22//22 
f 34//34 22//22 16//16 
f 16//16 18//18 34//34 
f 17//17 25//25 35//35 
f 17//17 35//35 27//27 
f 29//29 2//2 30//30 
f 12//12 36//36 37//37 
f 29//29 36//36 12//12 
f 12//12 37//37 20//20 
f 20//20 37//37 38//38 
f 39//39 21//21 40//40 
f 31//31 20//20 38//38 
f 40//40 21//21 32//32 
f 41//41 32//32 23//23 
f 23//23 33//33 41//41 
f 42//42 35//35 25//25 
f 18//18 43//43 34//34 
f 18//18 26//26 44//44 
f 28//28 27//27 45//45 
f 46//46 26//26 28//28 
f 44//44 26//26 46//46 
f 36//36 29//29 47//47 
f 30//30 21//21 39//39 
f 31//31 48//48 24//24 
f 49//49 24//24 48//48 
f 24//24 49//49 25//25 
f 33//33 50//50 41//41 
f 49//49 42//42 25//25 
f 50//50 33//33 34//34 
f 34//34 43//43 50//50 
f 18//18 44//44 43//43 
f 27//27 35//35 51//51 
f 27//27 51//51 45//45 
f 47//47 29//29 52//52 
f 39//39 52//52 30//30 
f 36//36 53//53 37//37 
f 53//53 38//38 37//37 
f 40//40 32//32 54//54 
f 32//32 41//41 54//54 
f 35//35 42//42 51//51 
f 55//55 43//43 44//44 
f 44//44 46//46 55//55 
f 28//28 45//45 46//46 
f 56//56 53//53 36//36 
f 30//30 52//52 29//29 
f 57//57 39//39 40//40 
f 58//58 31//31 38//38 
f 54//54 59//59 40//40 
f 31//31 58//58 48//48 
f 48//48 60//60 49//49 
f 42//42 49//49 61//61 
f 46//46 45//45 62//62 
f 56//56 47//47 63//63 
f 47//47 52//52 63//63 
f 56//56 36//36 47//47 
f 64//64 53//53 56//56 
f 52//52 39//39 65//65 
f 39//39 57//57 65//65 
f 53//53 64//64 38//38 
f 48//48 58//58 60//60 
f 50//50 43//43 66//66 
f 66//66 67//67 50//50 
f 68//68 42//42 61//61 
f 42//42 68//68 51//51 
f 51//51 69//69 45//45 
f 70//70 62//62 45//45 
f 46//46 62//62 55//55 
f 52//52 65//65 63//63 
f 38//38 64//64 71//71 
f 57//57 40//40 59//59 
f 58//58 38//38 71//71 
f 59//59 54//54 72//72 
f 54//54 41//41 73//73 
f 49//49 74//74 61//61 
f 51//51 68//68 69//69 
f 45//45 69//69 70//70 
f 63//63 75//75 56//56 
f 76//76 65//65 57//57 
f 77//77 71//71 64//64 
f 72//72 54//54 73//73 
f 41//41 50//50 67//67 
f 43//43 55//55 66//66 
f 63//63 78//78 75//75 
f 65//65 79//79 63//63 
f 63//63 79//79 78//78 
f 56//56 75//75 80//80 
f 79//79 65//65 76//76 
f 56//56 80//80 64//64 
f 57//57 59//59 76//76 
f 71//71 81//81 58//58 
f 58//58 81//81 60//60 
f 60//60 82//82 49//49 
f 82//82 74//74 49//49 
f 83//83 73//73 41//41 
f 75//75 78//78 84//84 
f 84//84 80//80 75//75 
f 80//80 77//77 64//64 
f 80//80 85//85 77//77 
f 76//76 59//59 86//86 
f 81//81 82//82 60//60 
f 83//83 41//41 67//67 
f 87//87 68//68 61//61 
f 88//88 55//55 62//62 
f 84//84 78//78 89//89 
f 78//78 79//79 90//90 
f 90//90 89//89 78//78 
f 79//79 76//76 90//90 
f 86//86 59//59 72//72 
f 61//61 91//91 87//87 
f 55//55 88//88 66//66 
f 68//68 87//87 69//69 
f 70//70 92//92 62//62 
f 84//84 85//85 80//80 
f 90//90 76//76 93//93 
f 94//94 77//77 85//85 
f 94//94 71//71 77//77 
f 71//71 94//94 81//81 
f 81//81 95//95 82//82 
f 72//72 73//73 86//86 
f 82//82 96//96 74//74 
f 67//67 66//66 83//83 
f 74//74 91//91 61//61 
f 87//87 92//92 69//69 
f 70//70 69//69 92//92 
f 62//62 92//92 88//88 
f 97//97 85//85 84//84 
f 89//89 98//98 84//84 
f 76//76 86//86 93//93 
f 94//94 95//95 81//81 
f 86//86 73//73 99//99 
f 95//95 96//96 82//82 
f 74//74 96//96 91//91 
f 66//66 100//100 83//83 
f 87//87 91//91 101//101 
f 66//66 88//88 100//100 
f 97//97 84//84 98//98 
f 102//102 98//98 89//89 
f 102//102 89//89 90//90 
f 103//103 102//102 90//90 
f 103//103 90//90 93//93 
f 94//94 85//85 104//104 
f 86//86 105//105 93//93 
f 99//99 105//105 86//86 
f 73//73 106//106 99//99 
f 83//83 106//106 73//73 
f 96//96 107//107 91//91 
f 83//83 100//100 106//106 
f 100//100 88//88 106//106 
f 87//87 108//108 92//92 
f 92//92 109//109 88//88 
f 97//97 104//104 85//85 
f 94//94 104//104 110//110 
f 93//93 105//105 103//103 
f 94//94 110//110 95//95 
f 95//95 107//107 96//96 
f 107//107 101//101 91//91 
f 88//88 109//109 106//106 
f 101//101 108//108 87//87 
f 108//108 111//111 92//92 
f 109//109 92//92 111//111 
f 98//98 102//102 97//97 
f 103//103 112//112 102//102 
f 103//103 105//105 112//112 
f 112//112 105//105 113//113 
f 99//99 113//113 105//105 
f 110//110 114//114 95//95 
f 99//99 106//106 113//113 
f 106//106 115//115 113//113 
f 95//95 114//114 107//107 
f 115//115 106//106 109//109 
f 97//97 102//102 116//116 
f 97//97 116//116 104//104 
f 102//102 112//112 117//117 
f 104//104 118//118 110//110 
f 113//113 117//117 112//112 
f 114//114 110//110 118//118 
f 114//114 119//119 107//107 
f 119//119 101//101 107//107 
f 108//108 101//101 119//119 
f 119//119 120//120 108//108 
f 115//115 109//109 120//120 
f 120//120 109//109 111//111 
f 111//111 108//108 120//120 
f 102//102 121//121 116//116 
f 102//102 117//117 121//121 
f 116//116 118//118 104//104 
f 117//117 113//113 121//121 
f 113//113 122//122 121//121 
f 118//118 119//119 114//114 
f 123//123 119//119 118//118 
f 113//113 115//115 122//122 
f 120//120 119//119 123//123 
f 124//124 120//120 123//123 
f 122//122 115//115 124//124 
f 115//115 120//120 124//124 
f 121//121 125//125 116//116 
f 116//116 123//123 118//118 
f 125//125 123//123 116//116 
f 121//121 122//122 125//125 
f 125//125 124//124 123//123 
f 122//122 124//124 125//125 
