# Blender v2.92.0 OBJ File: 'convert_to_one_sided.blend'
# www.blender.org
mtllib 607344862L.mtl
o Cube
v 0.001000 0.001000 -0.001000
v 0.001000 -0.001000 -0.001000
v 0.001000 0.001000 0.001000
v 0.001000 -0.001000 0.001000
v -0.001000 0.001000 -0.001000
v -0.001000 -0.001000 -0.001000
v -0.001000 0.001000 0.001000
v -0.001000 -0.001000 0.001000
vt 0.625000 0.500000
vt 0.875000 0.500000
vt 0.875000 0.750000
vt 0.625000 0.750000
vt 0.375000 0.750000
vt 0.625000 1.000000
vt 0.375000 1.000000
vt 0.375000 0.000000
vt 0.625000 0.000000
vt 0.625000 0.250000
vt 0.375000 0.250000
vt 0.125000 0.500000
vt 0.375000 0.500000
vt 0.125000 0.750000
vn 0.0000 1.0000 0.0000
vn 0.0000 0.0000 1.0000
vn -1.0000 0.0000 0.0000
vn 0.0000 -1.0000 0.0000
vn 1.0000 0.0000 0.0000
vn 0.0000 0.0000 -1.0000
usemtl Material
s off
f 1/1/1 5/2/1 7/3/1 3/4/1
f 4/5/2 3/4/2 7/6/2 8/7/2
f 8/8/3 7/9/3 5/10/3 6/11/3
f 6/12/4 2/13/4 4/5/4 8/14/4
f 2/13/5 1/1/5 3/4/5 4/5/5
f 6/11/6 5/10/6 1/1/6 2/13/6
o 607344862
v 8.333793 5.347490 5.339323
v 8.378242 5.323950 5.348332
v 8.379843 5.265911 5.396632
v 8.351522 5.350310 5.347512
v 8.300263 5.316031 5.387461
v 8.417981 5.296341 5.375492
v 8.413741 5.311501 5.371002
v 8.308443 5.364520 5.372532
v 8.351742 5.355080 5.380712
v 8.307254 5.238502 5.451121
v 8.458081 5.259222 5.418421
v 8.468351 5.266071 5.416231
v 8.269493 5.331410 5.407922
v 8.270614 5.276511 5.450261
v 8.270643 5.357840 5.433021
v 8.295374 5.370580 5.415751
v 8.410642 5.310651 5.412241
v 8.378583 5.210602 5.466681
v 8.469181 5.242191 5.447431
v 8.266844 5.358330 5.457681
v 8.438931 5.213152 5.474041
v 8.466431 5.236632 5.456690
v 8.260174 5.297611 5.475390
v 8.416932 5.281531 5.458480
v 8.330063 5.319701 5.456080
v 8.262484 5.324141 5.482400
v 8.285024 5.246302 5.501310
v 8.465361 5.215192 5.475221
v 8.433222 5.223582 5.483361
v 8.358003 5.214822 5.499840
v 8.375592 5.255061 5.494520
v 8.408672 5.213412 5.497360
v 8.271674 5.279391 5.504910
v 8.277523 5.308871 5.486020
v 8.307813 5.237452 5.513640
v 8.374843 5.229941 5.510930
v 8.324773 5.255221 5.500860
v 8.356373 5.231312 5.501520
vn -0.2902 -0.0410 -0.9561
vn 0.3096 -0.1074 -0.9448
vn -0.0579 -0.6979 -0.7139
vn 0.3094 0.7260 -0.6141
vn -0.5816 -0.3968 -0.7101
vn 0.4316 -0.3477 -0.8323
vn 0.7130 0.4291 -0.5546
vn -0.4491 0.7001 -0.5551
vn 0.4059 0.9122 0.0564
vn -0.4491 -0.8053 -0.3871
vn 0.4884 -0.5316 -0.6921
vn 0.9480 0.1620 -0.2739
vn -0.8782 -0.0236 -0.4777
vn -0.8032 -0.4909 -0.3375
vn -0.8359 0.5411 -0.0923
vn 0.0133 0.9914 0.1300
vn 0.5598 0.7848 0.2659
vn -0.1077 -0.9449 -0.3091
vn 0.8357 0.3784 0.3981
vn -0.1666 0.7982 0.5788
vn 0.2189 -0.9481 -0.2305
vn 0.7971 -0.5167 -0.3127
vn -0.9900 -0.0981 0.1010
vn 0.4453 0.6286 0.6376
vn 0.3306 0.6934 0.6403
vn -0.6988 0.4034 0.5908
vn -0.7147 -0.6464 0.2673
vn 0.7749 -0.4431 0.4508
vn 0.4646 0.2755 0.8416
vn -0.1506 -0.8964 0.4169
vn 0.2530 0.5083 0.8232
vn 0.1666 -0.6039 0.7794
vn -0.4421 0.1174 0.8893
vn 0.1380 0.5012 0.8543
vn -0.0894 -0.2555 0.9627
vn 0.0847 -0.0238 0.9961
vn 0.1101 0.3327 0.9366
vn -0.0389 -0.3361 0.9410
usemtl mtl1.567
s 1
f 9//7 10//8 11//9
f 12//10 10//8 9//7
f 11//9 13//11 9//7
f 10//8 14//12 11//9
f 10//8 15//13 14//12
f 16//14 9//7 13//11
f 10//8 12//10 15//13
f 12//10 9//7 16//14
f 12//10 16//14 17//15
f 11//9 18//16 13//11
f 19//17 14//12 15//13
f 15//13 20//18 19//17
f 21//19 13//11 22//20
f 13//11 21//19 16//14
f 23//21 16//14 21//19
f 12//10 17//15 15//13
f 16//14 24//22 17//15
f 13//11 18//16 22//20
f 20//18 15//13 25//23
f 15//13 17//15 25//23
f 16//14 23//21 24//22
f 11//9 26//24 18//16
f 19//17 11//9 14//12
f 20//18 25//23 27//25
f 24//22 23//21 28//26
f 11//9 29//27 26//24
f 29//27 19//17 30//28
f 19//17 29//27 11//9
f 19//17 20//18 30//28
f 22//20 31//29 21//19
f 27//25 25//23 32//30
f 25//23 17//15 33//31
f 17//15 24//22 33//31
f 30//28 20//18 27//25
f 31//29 23//21 21//19
f 32//30 25//23 33//31
f 23//21 34//32 28//26
f 24//22 28//26 33//31
f 35//33 22//20 18//16
f 30//28 27//25 36//34
f 35//33 31//29 22//20
f 37//35 27//25 32//30
f 34//32 23//21 31//29
f 29//27 38//36 26//24
f 35//33 18//16 38//36
f 38//36 18//16 26//24
f 36//34 29//27 30//28
f 27//25 37//35 36//34
f 37//35 32//30 39//37
f 39//37 32//30 33//31
f 29//27 40//38 38//36
f 36//34 40//38 29//27
f 31//29 41//39 34//32
f 35//33 41//39 31//29
f 28//26 34//32 42//40
f 33//31 28//26 42//40
f 43//41 35//33 38//36
f 36//34 37//35 40//38
f 37//35 44//42 40//38
f 43//41 41//39 35//33
f 44//42 37//35 39//37
f 44//42 39//37 45//43
f 45//43 39//37 33//31
f 41//39 42//40 34//32
f 45//43 33//31 42//40
f 46//44 38//36 40//38
f 46//44 43//41 38//36
f 40//38 44//42 46//44
f 44//42 45//43 46//44
f 45//43 42//40 41//39
f 46//44 45//43 43//41
f 45//43 41//39 43//41
