# Blender v2.92.0 OBJ File: 'convert_to_one_sided.blend'
# www.blender.org
mtllib 607344858L.mtl
o Cube
v 0.001000 0.001000 -0.001000
v 0.001000 -0.001000 -0.001000
v 0.001000 0.001000 0.001000
v 0.001000 -0.001000 0.001000
v -0.001000 0.001000 -0.001000
v -0.001000 -0.001000 -0.001000
v -0.001000 0.001000 0.001000
v -0.001000 -0.001000 0.001000
vt 0.625000 0.500000
vt 0.875000 0.500000
vt 0.875000 0.750000
vt 0.625000 0.750000
vt 0.375000 0.750000
vt 0.625000 1.000000
vt 0.375000 1.000000
vt 0.375000 0.000000
vt 0.625000 0.000000
vt 0.625000 0.250000
vt 0.375000 0.250000
vt 0.125000 0.500000
vt 0.375000 0.500000
vt 0.125000 0.750000
vn 0.0000 1.0000 0.0000
vn 0.0000 0.0000 1.0000
vn -1.0000 0.0000 0.0000
vn 0.0000 -1.0000 0.0000
vn 1.0000 0.0000 0.0000
vn 0.0000 0.0000 -1.0000
usemtl Material
s off
f 1/1/1 5/2/1 7/3/1 3/4/1
f 4/5/2 3/4/2 7/6/2 8/7/2
f 8/8/3 7/9/3 5/10/3 6/11/3
f 6/12/4 2/13/4 4/5/4 8/14/4
f 2/13/5 1/1/5 3/4/5 4/5/5
f 6/11/6 5/10/6 1/1/6 2/13/6
o 607344858
v 8.650158 5.350990 5.358292
v 8.527831 5.375500 5.365292
v 8.580019 5.393709 5.364252
v 8.764697 5.317811 5.382972
v 8.618879 5.331141 5.372252
v 8.533239 5.337950 5.382452
v 8.699728 5.376760 5.374342
v 8.835656 5.367160 5.400691
v 8.451582 5.394539 5.391541
v 8.497280 5.423999 5.381402
v 8.628179 5.422339 5.391521
v 8.513250 5.454958 5.405652
v 8.670999 5.283761 5.410172
v 8.498371 5.337200 5.415701
v 8.890176 5.313961 5.422741
v 8.828667 5.279941 5.422181
v 8.772027 5.396410 5.405992
v 8.765237 5.420459 5.425191
v 8.882336 5.387990 5.439331
v 8.427372 5.432399 5.415661
v 8.646579 5.439429 5.428591
v 8.762298 5.246682 5.456191
v 8.842366 5.257231 5.456011
v 8.592580 5.283911 5.445881
v 8.509081 5.315801 5.444661
v 8.901175 5.282761 5.454571
v 8.428651 5.399429 5.420491
v 8.914665 5.346850 5.441591
v 8.468611 5.457139 5.426661
v 8.936666 5.316901 5.465531
v 8.447832 5.373890 5.430901
v 8.938765 5.347281 5.471311
v 8.415522 5.418719 5.423841
v 8.858806 5.399150 5.469980
v 8.433931 5.438429 5.424341
v 8.568180 5.450479 5.440441
v 8.870576 5.253121 5.477480
v 8.554920 5.288301 5.454441
v 8.519400 5.333550 5.455321
v 8.715678 5.422090 5.470561
v 8.481601 5.446389 5.440451
v 8.668339 5.281911 5.467230
v 8.918435 5.287261 5.481190
v 8.458450 5.407059 5.433961
v 8.947755 5.335421 5.491580
v 8.917735 5.368250 5.484870
v 8.590199 5.431329 5.467511
v 8.837426 5.290571 5.498280
v 8.552020 5.392170 5.467101
v 8.849586 5.384689 5.500920
v 8.678288 5.350460 5.493051
v 8.926335 5.346290 5.513310
v 8.647718 5.399290 5.488350
v 8.664558 5.410180 5.485480
v 8.918395 5.324841 5.504100
v 8.760567 5.378090 5.504630
v 8.828167 5.342080 5.519510
v 8.884166 5.334051 5.516060
v 8.851275 5.354600 5.510120
vn 0.0476 -0.0900 -0.9948
vn -0.1991 -0.1412 -0.9698
vn 0.0335 0.3609 -0.9320
vn 0.1628 -0.3293 -0.9301
vn -0.0778 -0.5402 -0.8379
vn -0.3088 -0.6436 -0.7003
vn 0.1873 0.3643 -0.9123
vn 0.3415 0.2973 -0.8916
vn -0.5653 -0.2514 -0.7856
vn -0.1753 0.4446 -0.8784
vn 0.1391 0.6987 -0.7017
vn -0.0248 0.8942 -0.4470
vn -0.0961 -0.8014 -0.5903
vn -0.4996 -0.7708 -0.3953
vn 0.4752 -0.2720 -0.8368
vn 0.2020 -0.6690 -0.7153
vn 0.2242 0.6389 -0.7359
vn 0.2138 0.9278 -0.3057
vn 0.4805 0.7432 -0.4657
vn -0.6729 0.5275 -0.5186
vn 0.1575 0.9763 -0.1483
vn -0.0967 -0.9776 0.1870
vn 0.2404 -0.8674 -0.4358
vn -0.2624 -0.9547 -0.1402
vn -0.5816 -0.8000 0.1473
vn 0.5107 -0.7016 -0.4970
vn -0.8308 -0.4344 -0.3478
vn 0.6518 0.2037 -0.7305
vn -0.2685 0.9482 0.1700
vn 0.8447 -0.2865 -0.4520
vn -0.7128 -0.5254 0.4646
vn 0.8467 0.4247 -0.3204
vn -0.8995 0.0228 0.4363
vn 0.2868 0.9395 0.1871
vn -0.5620 0.5641 0.6050
vn 0.0482 0.9437 0.3274
vn 0.2491 -0.9140 0.3203
vn -0.3336 -0.7918 0.5116
vn -0.3441 -0.2440 0.9067
vn 0.1014 0.8708 0.4811
vn -0.2382 0.4861 0.8408
vn -0.1600 -0.6059 0.7793
vn 0.6182 -0.7416 0.2605
vn -0.3674 0.0182 0.9299
vn 0.9352 -0.0176 0.3538
vn 0.5736 0.7796 0.2516
vn -0.0905 0.5625 0.8218
vn 0.0045 -0.4936 0.8697
vn -0.2557 0.0743 0.9639
vn 0.1458 0.6625 0.7347
vn -0.1811 -0.1482 0.9722
vn 0.3655 0.2478 0.8972
vn -0.1515 0.2033 0.9673
vn -0.0139 0.5474 0.8368
vn 0.3576 -0.4509 0.8178
vn -0.0318 0.3745 0.9267
vn -0.0368 0.0308 0.9988
vn 0.1051 -0.1245 0.9866
vn 0.0476 0.3378 0.9400
usemtl mtl1.566
s 1
f 9//7 10//8 11//9
f 12//10 13//11 9//7
f 13//11 14//12 10//8
f 9//7 13//11 10//8
f 12//10 9//7 15//13
f 16//14 12//10 15//13
f 14//12 17//15 10//8
f 11//9 15//13 9//7
f 10//8 17//15 18//16
f 11//9 10//8 18//16
f 15//13 11//9 19//17
f 19//17 11//9 18//16
f 19//17 18//16 20//18
f 14//12 21//19 22//20
f 12//10 21//19 13//11
f 13//11 21//19 14//12
f 23//21 24//22 12//10
f 14//12 22//20 17//15
f 23//21 12//10 16//14
f 15//13 25//23 16//14
f 26//24 25//23 19//17
f 19//17 25//23 15//13
f 27//25 16//14 25//23
f 17//15 28//26 18//16
f 19//17 29//27 26//24
f 20//18 18//16 28//26
f 20//18 29//27 19//17
f 30//28 21//19 31//29
f 21//19 24//22 31//29
f 22//20 21//19 32//30
f 24//22 21//19 12//10
f 33//31 22//20 32//30
f 23//21 34//32 24//22
f 22//20 35//33 17//15
f 16//14 36//34 23//21
f 17//15 35//33 28//26
f 16//14 27//25 36//34
f 20//18 28//26 37//35
f 32//30 21//19 30//28
f 24//22 34//32 31//29
f 23//21 38//36 34//32
f 39//37 22//20 33//31
f 36//34 38//36 23//21
f 22//20 39//37 35//33
f 40//38 38//36 36//34
f 41//39 35//33 39//37
f 25//23 26//24 27//25
f 40//38 36//34 27//25
f 35//33 41//39 28//26
f 42//40 27//25 26//24
f 28//26 41//39 43//41
f 37//35 28//26 43//41
f 20//18 37//35 44//42
f 29//27 20//18 44//42
f 31//29 45//43 30//28
f 33//31 32//30 46//44
f 46//44 47//45 33//31
f 26//24 29//27 48//46
f 37//35 43//41 49//47
f 29//27 44//42 48//46
f 37//35 49//47 44//42
f 32//30 50//48 46//44
f 30//28 50//48 32//30
f 34//32 51//49 31//29
f 31//29 51//49 45//43
f 38//36 51//49 34//32
f 47//45 39//37 33//31
f 52//50 39//37 47//45
f 53//51 38//36 40//38
f 41//39 39//37 52//50
f 27//25 54//52 40//38
f 52//50 43//41 41//39
f 26//24 48//46 42//40
f 42//40 54//52 27//25
f 52//50 49//47 43//41
f 55//53 44//42 49//47
f 56//54 50//48 30//28
f 45//43 56//54 30//28
f 45//43 51//49 56//54
f 47//45 57//55 52//50
f 53//51 40//38 54//52
f 42//40 48//46 58//56
f 52//50 57//55 49//47
f 55//53 49//47 57//55
f 44//42 55//53 48//46
f 50//48 47//45 46//44
f 47//45 50//48 59//57
f 53//51 51//49 38//36
f 59//57 57//55 47//45
f 53//51 54//52 60//58
f 59//57 61//59 57//55
f 58//56 60//58 54//52
f 54//52 42//40 58//56
f 55//53 57//55 61//59
f 62//60 55//53 61//59
f 62//60 48//46 55//53
f 59//57 50//48 56//54
f 63//61 56//54 51//49
f 51//49 53//51 63//61
f 63//61 53//51 60//58
f 64//62 61//59 59//57
f 62//60 61//59 64//62
f 64//62 58//56 48//46
f 48//46 62//60 64//62
f 59//57 56//54 65//63
f 66//64 56//54 63//61
f 66//64 65//63 56//54
f 60//58 66//64 63//61
f 64//62 59//57 65//63
f 67//65 64//62 65//63
f 66//64 60//58 67//65
f 67//65 58//56 64//62
f 60//58 58//56 67//65
f 65//63 66//64 67//65
