# wavefront obj file written by the visualization toolkit


v 8598.52 5474.61 5240.85
v 8523.15 5493.78 5238.36
v 8599.94 5547.99 5232.94
v 8689.26 5471.03 5258.61
v 8725.57 5552.42 5267.98
v 8500.42 5523.43 5250.12
v 8570.29 5594.14 5243.21
v 8661.29 5635.41 5266.83
v 8669.1 5414.45 5284.39
v 8535.17 5427.1 5275.3
v 8460.31 5451.97 5274.37
v 8786.62 5467.94 5299.61
v 8498.51 5573.94 5281.24
v 8589.32 5661.86 5304.01
v 8819.32 5600.31 5325.36
v 8451.42 5408.92 5302.6
v 8754.48 5424.61 5299.16
v 8437.23 5493.03 5293.22
v 8791.02 5676.58 5351.51
v 8678.93 5729.75 5364.08
v 8422.48 5444.21 5307.48
v 8528.54 5394.73 5310.18
v 8613.92 5395.35 5305.55
v 8445.22 5550.34 5326.06
v 8844.07 5508.06 5333.01
v 8603.7 5731.43 5387.21
v 8466.53 5397.31 5320.7
v 8686.7 5384.57 5323.04
v 8754.39 5396.64 5326.97
v 8419.48 5430.11 5325.95
v 8829.47 5441.92 5345.2
v 8416.62 5472.13 5328.73
v 8523.9 5640.07 5349.69
v 8537.71 5393.87 5326.45
v 8608.48 5394.91 5327.47
v 8905.24 5500.55 5386.5
v 8898.07 5578.77 5387.22
v 8460.46 5577.89 5356.72
v 8870.55 5641.7 5387.46
v 8785.09 5736.27 5416.05
v 8512.85 5404.97 5338.03
v 8700.62 5403.03 5359.95
v 8752.89 5397.33 5353.46
v 8822.1 5423.96 5375
v 8450.9 5425.73 5337.73
v 8414.22 5455.69 5338.44
v 8876.52 5460.72 5393.82
v 8432.89 5513.09 5344.71
v 8512.39 5636.86 5374.17
v 8853.32 5690.13 5414.58
v 8608.06 5413.54 5350.63
v 8548.48 5501.32 5375.99
v 8470.18 5569.26 5367.29
v 8707.22 5780.99 5434.72
v 8809.3 5442.11 5402.12
v 8874.96 5462.01 5406.51
v 8461.65 5503.65 5354.22
v 8505.72 5561.03 5374.71
v 8928.4 5573.29 5433.71
v 8896.6 5648.89 5439.68
v 8570.07 5696.24 5396.05
v 8822.72 5728 5456.64
v 8651.95 5767.86 5422.53
v 8713.38 5498.14 5404.55
v 8906.78 5511.87 5418.07
v 8550.92 5621.9 5388.85
v 8654.03 5625.72 5429.02
v 8625.64 5757.93 5429.32
v 8743.85 5773.63 5454.32
v 8926.53 5578.72 5449.58
v 8784.49 5618.51 5466.42
v 8621.39 5721.16 5432.15
v 8912.86 5630.81 5462.31
v 8689.73 5780.19 5455.43
v 8806.68 5511.55 5431.23
v 8867.1 5559.33 5445.62
v 8667.27 5771.03 5459.52
v 8854.62 5698 5477.99
v 8707.38 5714.83 5466.59
v 8772.43 5753.14 5471.03
v 8892.18 5633.95 5465.99
v 8842.75 5651.9 5472.58
v 8781.61 5708.4 5474.72
v 8722.35 5748.5 5462.12
v 8871.76 5712.25 5893.58
v 8866.26 5679.53 5897.83
v 8815.79 5743.82 5894.47
v 8768.18 5748.05 5898.77
v 8755.49 5775.75 5905.52
v 8787.61 5623.04 5922.91
v 8890.69 5571.68 5922.88
v 8910.9 5615.71 5916.21
v 8910.06 5640.42 5922.52
v 8672.36 5734.56 5935.89
v 8700.45 5775 5921.82
v 8814.48 5746.04 5913.47
v 8827.88 5496.68 5949.62
v 8725.78 5534.99 5965.8
v 8923.79 5562.27 5943.79
v 8866.81 5699.35 5927.46
v 8650.25 5769.24 5946.25
v 8760.53 5774.6 5925.75
v 8704.94 5767.64 5959.3
v 8886.33 5491.41 5959.14
v 8659.2 5635.71 5960.4
v 8928.58 5600.02 5951.32
v 8882.8 5642.41 5976.5
v 8616.21 5700.98 5964.39
v 8590.56 5709.38 5979.85
v 8820.36 5430.66 5994.75
v 8715.46 5453.42 6000
v 8876.24 5449.15 5991.31
v 8908.26 5500.83 5973.82
v 8615.43 5560.86 5988.55
v 8574.52 5639.25 5987.31
v 8788.55 5725.65 5972.47
v 8618.35 5734.38 5990.72
v 8892.26 5532.02 5999.21
v 8486.93 5534.27 6012.85
v 8486.57 5590.22 6020.16
v 8639.41 5412.61 6036.14
v 8729.77 5405.87 6037.86
v 8809.35 5418.34 6026.11
v 8569.87 5467.75 6018.2
v 8848.92 5449.91 6018.24
v 8484.66 5451.5 6028.65
v 8424.4 5457.06 6042.23
v 8444.55 5515.52 6031.86
v 8824.79 5592.92 6054.36
v 8532.86 5651.02 6029.06
v 8657.46 5735.16 6032.1
v 8720.69 5713.8 6045.85
v 8647.89 5400.05 6058.7
v 8467.43 5411.74 6052.64
v 8537.85 5419.29 6043.49
v 8518.42 5401.66 6061.72
v 8583.44 5408.53 6057.39
v 8422.33 5416.01 6064.6
v 8408.23 5442.11 6067.77
v 8434.85 5507.59 6048.76
v 8465.4 5564.19 6055.1
v 8470.05 5406.24 6071.45
v 8802.7 5456.64 6069.53
v 8783.01 5657.17 6050.33
v 8589.31 5679.38 6065.14
v 8694.39 5407.19 6068.51
v 8431.18 5418.13 6075.72
v 8563.13 5408.56 6073.99
v 8778.31 5429.5 6057.29
v 8798.2 5532.92 6078.36
v 8442.31 5505.08 6084.49
v 8514.53 5595.65 6091.75
v 8484.57 5427.96 6095.69
v 8451.2 5463.89 6097.54
v 8738.63 5589.75 6109.48
v 8647.54 5674.53 6098.73
v 8573.67 5630.61 6114.99
v 8597.96 5435.3 6107.36
v 8705.27 5447 6097.87
v 8494.94 5528.75 6122.54
v 8709.51 5656.61 6091.29
v 8718.28 5507.7 6113.95
v 8534.05 5477.86 6124.57
v 8545.1 5581.05 6133.83
v 8622.62 5490.92 6132.51
v 8662.43 5619.03 6128.57
v 8600.66 5599.39 6136.99
v 8569.98 5539.69 6137.12
v 8651.69 5559.4 6125.73
vn 0.0498931 -0.359255 -0.931905
vn -0.199851 -0.197288 -0.959759
vn 0.0583285 0.081728 -0.994946
vn 0.265153 -0.23663 -0.934719
vn 0.384632 0.0829576 -0.919335
vn -0.44987 0.192677 -0.872062
vn -0.255941 0.4619 -0.849201
vn 0.17542 0.491072 -0.853274
vn 0.108674 -0.66249 -0.741145
vn -0.0854748 -0.623712 -0.776967
vn -0.463402 -0.247566 -0.850864
vn 0.491673 -0.204023 -0.846542
vn -0.595837 0.551196 -0.58409
vn -0.337794 0.718483 -0.60801
vn 0.521652 0.274404 -0.807825
vn -0.418668 -0.722053 -0.550777
vn 0.376465 -0.507047 -0.775356
vn -0.755485 0.220529 -0.616935
vn 0.408057 0.592341 -0.694709
vn 0.0342481 0.766685 -0.641109
vn -0.823777 -0.202811 -0.529395
vn -0.0540823 -0.95505 -0.29147
vn -0.0288186 -0.902752 -0.429195
vn -0.847243 0.487228 -0.211633
vn 0.603108 -0.0560973 -0.795684
vn -0.515235 0.787212 -0.338866
vn -0.290035 -0.910779 0.293874
vn 0.0240801 -0.997116 -0.0719717
vn 0.344632 -0.859418 -0.377663
vn -0.823367 -0.548657 0.145061
vn 0.614675 -0.553823 -0.561653
vn -0.988345 0.135561 -0.0692587
vn -0.679326 0.694902 -0.235855
vn -0.0313454 -0.919403 0.392065
vn -0.0582069 -0.962645 0.264435
vn 0.859983 -0.304822 -0.409284
vn 0.760932 0.206386 -0.615131
vn -0.820076 0.495038 0.287076
vn 0.664758 0.438791 -0.604615
vn 0.405045 0.785437 -0.468003
vn -0.113665 -0.597907 0.793466
vn -0.101544 -0.730322 0.675514
vn 0.14037 -0.925047 0.352965
vn 0.423542 -0.893331 0.150241
vn -0.29511 -0.439406 0.84843
vn -0.705356 -0.133002 0.696263
vn 0.714818 -0.699121 -0.016299
vn -0.800695 0.196533 0.565917
vn -0.671619 0.466758 0.575382
vn 0.611465 0.664871 -0.42902
vn -0.0936433 -0.602426 0.792663
vn -0.194986 -0.233246 0.952668
vn -0.459921 0.0704445 0.885161
vn 0.0997738 0.945551 -0.309803
vn 0.0234592 -0.589394 0.807505
vn 0.407305 -0.653373 0.638127
vn -0.304242 -0.120871 0.944895
vn -0.226246 -0.110137 0.967824
vn 0.996473 0.0341197 -0.076662
vn 0.818404 0.539355 -0.198271
vn -0.757068 0.478844 0.444474
vn 0.598497 0.799771 0.0465683
vn -0.274804 0.922484 -0.27112
vn -0.193327 -0.360612 0.91246
vn 0.729777 -0.500298 0.46597
vn -0.367177 0.000669523 0.930151
vn -0.304392 -0.197646 0.931816
vn -0.631318 0.703127 0.327185
vn 0.344467 0.932734 0.106538
vn 0.575553 -0.252431 0.777829
vn -0.125826 -0.23664 0.963415
vn -0.524579 0.0278341 0.850907
vn 0.81013 0.277563 0.516381
vn -0.130631 0.855259 0.501465
vn -0.0778135 -0.362414 0.928763
vn 0.102693 -0.34565 0.932727
vn -0.31407 0.328367 0.890806
vn 0.4367 0.389709 0.810814
vn -0.217187 -0.0527314 0.974705
vn 0.157973 0.548599 0.821026
vn 0.204371 -0.12133 0.971345
vn 0.0319046 -0.143476 0.989139
vn -0.0603097 0.0357719 0.997539
vn -0.0585454 0.221252 0.973458
vn 0.679997 0.588958 -0.43673
vn 0.19951 -0.0392649 -0.979109
vn 0.237436 0.526085 -0.816615
vn -0.183855 0.0668829 -0.980675
vn 0.0974611 0.897692 -0.42971
vn -0.217492 -0.231911 -0.948111
vn 0.188645 -0.314718 -0.930251
vn 0.616061 -0.0512378 -0.78603
vn 0.907634 0.336774 -0.250567
vn -0.41728 -0.0147106 -0.908659
vn -0.308125 0.659263 -0.685879
vn 0.517023 0.85183 0.0840968
vn -0.0947031 -0.413072 -0.905761
vn -0.26485 -0.286087 -0.920874
vn 0.908933 -0.219069 -0.354752
vn 0.672892 0.647679 0.35739
vn -0.541744 0.764705 -0.348911
vn 0.301971 0.914486 0.269311
vn 0.00849983 0.954652 0.297603
vn 0.424528 -0.543214 -0.724358
vn -0.301068 -0.188999 -0.934686
vn 0.941846 0.178191 0.284911
vn 0.675749 0.469193 0.568525
vn -0.440215 -0.0286782 -0.897434
vn -0.689392 0.387807 -0.611837
vn 0.0855802 -0.775674 -0.625304
vn -0.169314 -0.482329 -0.859472
vn 0.630669 -0.77115 -0.0870836
vn 0.912639 -0.379671 0.151457
vn -0.211555 -0.219239 -0.952459
vn -0.370366 -0.0261205 -0.928518
vn 0.460286 0.711733 0.530634
vn -0.51418 0.82777 0.224534
vn 0.766097 -0.038803 0.641553
vn -0.291108 -0.0580051 -0.95493
vn -0.729917 0.38713 -0.56334
vn -0.0866846 -0.739008 -0.668096
vn 0.0336543 -0.9387 -0.343088
vn 0.362506 -0.901211 0.237505
vn -0.105601 -0.343784 -0.933092
vn 0.649354 -0.466956 0.600242
vn -0.143771 -0.359225 -0.92211
vn -0.629083 -0.163538 -0.759941
vn -0.701092 0.196069 -0.685585
vn 0.604919 0.225671 0.76364
vn -0.719423 0.684255 0.119274
vn -0.153329 0.84494 0.512413
vn 0.303694 0.708237 0.637315
vn -0.0319961 -0.995771 -0.0861162
vn -0.187691 -0.738557 -0.647538
vn -0.042359 -0.659468 -0.750538
vn -0.00478862 -0.967697 -0.25207
vn -0.0366183 -0.949365 -0.312034
vn -0.59356 -0.780841 -0.194871
vn -0.96072 -0.0621455 0.270471
vn -0.916426 0.365099 -0.163909
vn -0.816088 0.556209 0.156948
vn -0.14126 -0.958124 0.249086
vn 0.501895 -0.332323 0.798538
vn 0.500377 0.496646 0.709201
vn -0.470866 0.734706 0.488357
vn 0.14598 -0.854166 0.499089
vn -0.451523 -0.586254 0.672632
vn -0.00137225 -0.925247 0.379363
vn 0.375311 -0.655845 0.654988
vn 0.538703 -0.0148919 0.842364
vn -0.768011 0.355145 0.532946
vn -0.633059 0.568806 0.525069
vn -0.132475 -0.582133 0.802229
vn -0.463559 -0.126331 0.877014
vn 0.390282 0.169166 0.905021
vn -0.020291 0.62609 0.779487
vn -0.355755 0.596241 0.719677
vn 0.0304203 -0.596612 0.801953
vn 0.22582 -0.488521 0.842824
vn -0.454642 0.135129 0.880364
vn 0.341943 0.48136 0.807074
vn 0.29594 -0.121547 0.947442
vn -0.148844 -0.264568 0.952811
vn -0.356412 0.316868 0.878957
vn 0.100037 -0.217345 0.970955
vn 0.196339 0.257409 0.946146
vn -0.0226492 0.23592 0.971508
vn -0.0481347 -0.0378479 0.998124
vn 0.168817 -0.020065 0.985443

g grp1
usemtl mtl1
f 1//1 2//2 3//3 
f 4//4 1//1 3//3 
f 5//5 4//4 3//3 
f 3//3 2//2 6//6 
f 6//6 7//7 3//3 
f 5//5 3//3 8//8 
f 8//8 3//3 7//7 
f 1//1 4//4 9//9 
f 10//10 1//1 9//9 
f 10//10 11//11 2//2 
f 10//10 2//2 1//1 
f 12//12 4//4 5//5 
f 6//6 13//13 7//7 
f 7//7 14//14 8//8 
f 8//8 15//15 5//5 
f 10//10 16//16 11//11 
f 17//17 9//9 4//4 
f 12//12 17//17 4//4 
f 2//2 11//11 6//6 
f 11//11 18//18 6//6 
f 13//13 6//6 18//18 
f 7//7 13//13 14//14 
f 19//19 15//15 8//8 
f 8//8 14//14 20//20 
f 16//16 21//21 11//11 
f 10//10 22//22 16//16 
f 23//23 22//22 10//10 
f 9//9 23//23 10//10 
f 18//18 11//11 21//21 
f 13//13 18//18 24//24 
f 12//12 5//5 25//25 
f 25//25 5//5 15//15 
f 26//26 20//20 14//14 
f 19//19 8//8 20//20 
f 27//27 16//16 22//22 
f 23//23 9//9 28//28 
f 28//28 9//9 29//29 
f 21//21 16//16 30//30 
f 30//30 16//16 27//27 
f 29//29 9//9 17//17 
f 17//17 31//31 29//29 
f 17//17 12//12 31//31 
f 32//32 18//18 21//21 
f 12//12 25//25 31//31 
f 24//24 18//18 32//32 
f 13//13 24//24 33//33 
f 14//14 13//13 33//33 
f 14//14 33//33 26//26 
f 22//22 34//34 27//27 
f 23//23 28//28 35//35 
f 23//23 35//35 22//22 
f 22//22 35//35 34//34 
f 21//21 30//30 32//32 
f 36//36 31//31 25//25 
f 15//15 37//37 25//25 
f 38//38 33//33 24//24 
f 15//15 39//39 37//37 
f 19//19 39//39 15//15 
f 40//40 19//19 20//20 
f 27//27 34//34 41//41 
f 28//28 42//42 35//35 
f 28//28 43//43 42//42 
f 29//29 43//43 28//28 
f 44//44 43//43 29//29 
f 45//45 30//30 27//27 
f 41//41 45//45 27//27 
f 44//44 29//29 31//31 
f 30//30 46//46 32//32 
f 45//45 46//46 30//30 
f 47//47 31//31 36//36 
f 32//32 48//48 24//24 
f 24//24 48//48 38//38 
f 38//38 49//49 33//33 
f 39//39 19//19 50//50 
f 50//50 19//19 40//40 
f 41//41 34//34 51//51 
f 34//34 35//35 51//51 
f 42//42 51//51 35//35 
f 45//45 41//41 52//52 
f 51//51 52//52 41//41 
f 31//31 47//47 44//44 
f 46//46 48//48 32//32 
f 36//36 25//25 37//37 
f 53//53 38//38 48//48 
f 53//53 49//49 38//38 
f 54//54 40//40 20//20 
f 42//42 43//43 55//55 
f 44//44 55//55 43//43 
f 44//44 47//47 56//56 
f 45//45 57//57 46//46 
f 52//52 57//57 45//45 
f 57//57 48//48 46//46 
f 52//52 58//58 57//57 
f 57//57 53//53 48//48 
f 58//58 53//53 57//57 
f 59//59 36//36 37//37 
f 37//37 39//39 60//60 
f 59//59 37//37 60//60 
f 49//49 61//61 33//33 
f 33//33 61//61 26//26 
f 40//40 62//62 50//50 
f 20//20 26//26 63//63 
f 63//63 54//54 20//20 
f 42//42 64//64 51//51 
f 55//55 64//64 42//42 
f 44//44 56//56 55//55 
f 65//65 47//47 36//36 
f 64//64 52//52 51//51 
f 65//65 36//36 59//59 
f 52//52 66//66 58//58 
f 67//67 66//66 52//52 
f 58//58 66//66 53//53 
f 66//66 49//49 53//53 
f 39//39 50//50 60//60 
f 49//49 66//66 61//61 
f 68//68 26//26 61//61 
f 26//26 68//68 63//63 
f 69//69 40//40 54//54 
f 47//47 65//65 56//56 
f 64//64 67//67 52//52 
f 65//65 59//59 70//70 
f 67//67 64//64 71//71 
f 67//67 72//72 66//66 
f 60//60 73//73 59//59 
f 66//66 72//72 61//61 
f 72//72 68//68 61//61 
f 60//60 50//50 62//62 
f 63//63 68//68 74//74 
f 54//54 63//63 74//74 
f 54//54 74//74 69//69 
f 64//64 55//55 75//75 
f 76//76 75//75 55//55 
f 56//56 76//76 55//55 
f 65//65 76//76 56//56 
f 65//65 70//70 76//76 
f 75//75 71//71 64//64 
f 70//70 59//59 73//73 
f 77//77 68//68 72//72 
f 62//62 40//40 69//69 
f 68//68 77//77 74//74 
f 76//76 71//71 75//75 
f 60//60 78//78 73//73 
f 72//72 67//67 79//79 
f 62//62 78//78 60//60 
f 77//77 72//72 79//79 
f 62//62 69//69 80//80 
f 69//69 74//74 80//80 
f 76//76 70//70 81//81 
f 76//76 82//82 71//71 
f 81//81 82//82 76//76 
f 70//70 73//73 81//81 
f 82//82 83//83 71//71 
f 73//73 78//78 81//81 
f 67//67 71//71 79//79 
f 79//79 71//71 83//83 
f 84//84 77//77 79//79 
f 62//62 80//80 78//78 
f 74//74 84//84 80//80 
f 74//74 77//77 84//84 
f 81//81 78//78 82//82 
f 82//82 78//78 83//83 
f 79//79 83//83 84//84 
f 78//78 80//80 83//83 
f 83//83 80//80 84//84 
f 85//85 86//86 87//87 
f 86//86 88//88 87//87 
f 89//89 87//87 88//88 
f 90//90 86//86 91//91 
f 86//86 92//92 91//91 
f 86//86 93//93 92//92 
f 86//86 90//90 88//88 
f 86//86 85//85 93//93 
f 90//90 94//94 88//88 
f 88//88 94//94 95//95 
f 87//87 89//89 96//96 
f 87//87 96//96 85//85 
f 88//88 95//95 89//89 
f 97//97 98//98 90//90 
f 91//91 97//97 90//90 
f 99//99 91//91 92//92 
f 92//92 93//93 99//99 
f 85//85 96//96 100//100 
f 93//93 85//85 100//100 
f 94//94 101//101 95//95 
f 89//89 102//102 96//96 
f 95//95 101//101 103//103 
f 95//95 103//103 89//89 
f 89//89 103//103 102//102 
f 104//104 97//97 91//91 
f 104//104 91//91 99//99 
f 90//90 98//98 105//105 
f 99//99 93//93 106//106 
f 106//106 93//93 107//107 
f 93//93 100//100 107//107 
f 105//105 108//108 94//94 
f 90//90 105//105 94//94 
f 109//109 94//94 108//108 
f 101//101 94//94 109//109 
f 110//110 111//111 97//97 
f 110//110 104//104 112//112 
f 112//112 104//104 113//113 
f 98//98 111//111 114//114 
f 97//97 111//111 98//98 
f 104//104 110//110 97//97 
f 104//104 99//99 113//113 
f 105//105 98//98 114//114 
f 105//105 115//115 108//108 
f 109//109 108//108 115//115 
f 116//116 100//100 96//96 
f 102//102 116//116 96//96 
f 101//101 117//117 103//103 
f 113//113 99//99 118//118 
f 99//99 106//106 118//118 
f 114//114 119//119 115//115 
f 105//105 114//114 115//115 
f 107//107 118//118 106//106 
f 120//120 115//115 119//119 
f 109//109 115//115 120//120 
f 100//100 116//116 107//107 
f 117//117 101//101 109//109 
f 103//103 116//116 102//102 
f 121//121 111//111 122//122 
f 122//122 110//110 123//123 
f 111//111 121//121 124//124 
f 110//110 122//122 111//111 
f 110//110 112//112 123//123 
f 125//125 112//112 113//113 
f 111//111 124//124 114//114 
f 124//124 126//126 119//119 
f 119//119 126//126 127//127 
f 113//113 118//118 125//125 
f 119//119 127//127 128//128 
f 114//114 124//124 119//119 
f 128//128 120//120 119//119 
f 107//107 129//129 118//118 
f 130//130 109//109 120//120 
f 117//117 109//109 130//130 
f 117//117 131//131 103//103 
f 131//131 132//132 103//103 
f 103//103 132//132 116//116 
f 133//133 121//121 122//122 
f 134//134 135//135 136//136 
f 137//137 121//121 133//133 
f 138//138 127//127 134//134 
f 135//135 134//134 126//126 
f 137//137 135//135 121//121 
f 121//121 135//135 124//124 
f 123//123 112//112 125//125 
f 138//138 139//139 127//127 
f 126//126 134//134 127//127 
f 124//124 135//135 126//126 
f 140//140 127//127 139//139 
f 140//140 128//128 127//127 
f 140//140 120//120 128//128 
f 141//141 120//120 140//140 
f 130//130 120//120 141//141 
f 134//134 142//142 138//138 
f 142//142 134//134 136//136 
f 136//136 135//135 137//137 
f 118//118 143//143 125//125 
f 129//129 107//107 144//144 
f 145//145 117//117 130//130 
f 107//107 116//116 144//144 
f 144//144 116//116 132//132 
f 131//131 117//117 145//145 
f 122//122 146//146 133//133 
f 122//122 123//123 146//146 
f 139//139 138//138 147//147 
f 147//147 138//138 142//142 
f 136//136 148//148 142//142 
f 137//137 148//148 136//136 
f 133//133 148//148 137//137 
f 125//125 143//143 149//149 
f 123//123 125//125 149//149 
f 143//143 118//118 150//150 
f 140//140 151//151 141//141 
f 118//118 129//129 150//150 
f 141//141 152//152 130//130 
f 152//152 145//145 130//130 
f 148//148 153//153 142//142 
f 133//133 146//146 148//148 
f 123//123 149//149 146//146 
f 139//139 151//151 140//140 
f 151//151 139//139 154//154 
f 155//155 150//150 129//129 
f 151//151 152//152 141//141 
f 129//129 144//144 155//155 
f 145//145 156//156 131//131 
f 157//157 156//156 145//145 
f 147//147 142//142 153//153 
f 148//148 146//146 158//158 
f 148//148 158//158 153//153 
f 149//149 159//159 146//146 
f 149//149 143//143 159//159 
f 147//147 154//154 139//139 
f 151//151 154//154 160//160 
f 144//144 161//161 155//155 
f 152//152 157//157 145//145 
f 161//161 132//132 156//156 
f 161//161 144//144 132//132 
f 156//156 132//132 131//131 
f 147//147 153//153 154//154 
f 158//158 146//146 159//159 
f 159//159 143//143 162//162 
f 163//163 160//160 154//154 
f 153//153 163//163 154//154 
f 162//162 143//143 150//150 
f 155//155 162//162 150//150 
f 151//151 160//160 152//152 
f 152//152 164//164 157//157 
f 165//165 158//158 159//159 
f 158//158 163//163 153//153 
f 162//162 165//165 159//159 
f 165//165 163//163 158//158 
f 152//152 160//160 164//164 
f 155//155 161//161 166//166 
f 157//157 164//164 167//167 
f 161//161 156//156 166//166 
f 156//156 157//157 167//167 
f 156//156 167//167 166//166 
f 165//165 168//168 163//163 
f 162//162 169//169 165//165 
f 168//168 160//160 163//163 
f 169//169 168//168 165//165 
f 162//162 155//155 169//169 
f 168//168 164//164 160//160 
f 167//167 164//164 168//168 
f 169//169 166//166 167//167 
f 155//155 166//166 169//169 
f 169//169 167//167 168//168 
