# Blender v2.92.0 OBJ File: 'convert_to_one_sided.blend'
# www.blender.org
mtllib 609L.mtl
o Cube
v 0.001000 0.001000 -0.001000
v 0.001000 -0.001000 -0.001000
v 0.001000 0.001000 0.001000
v 0.001000 -0.001000 0.001000
v -0.001000 0.001000 -0.001000
v -0.001000 -0.001000 -0.001000
v -0.001000 0.001000 0.001000
v -0.001000 -0.001000 0.001000
vt 0.625000 0.500000
vt 0.875000 0.500000
vt 0.875000 0.750000
vt 0.625000 0.750000
vt 0.375000 0.750000
vt 0.625000 1.000000
vt 0.375000 1.000000
vt 0.375000 0.000000
vt 0.625000 0.000000
vt 0.625000 0.250000
vt 0.375000 0.250000
vt 0.125000 0.500000
vt 0.375000 0.500000
vt 0.125000 0.750000
vn 0.0000 1.0000 0.0000
vn 0.0000 0.0000 1.0000
vn -1.0000 0.0000 0.0000
vn 0.0000 -1.0000 0.0000
vn 1.0000 0.0000 0.0000
vn 0.0000 0.0000 -1.0000
usemtl Material
s off
f 1/1/1 5/2/1 7/3/1 3/4/1
f 4/5/2 3/4/2 7/6/2 8/7/2
f 8/8/3 7/9/3 5/10/3 6/11/3
f 6/12/4 2/13/4 4/5/4 8/14/4
f 2/13/5 1/1/5 3/4/5 4/5/5
f 6/11/6 5/10/6 1/1/6 2/13/6
o 609
v 7.550103 4.400272 5.410851
v 7.486874 4.496801 5.414661
v 7.545803 4.521711 5.430801
v 7.595362 4.398313 5.436331
v 7.579732 3.673932 5.430051
v 7.555043 3.725301 5.434361
v 7.595002 3.736811 5.443281
v 7.555973 3.864369 5.443700
v 7.558413 4.216455 5.426810
v 7.503874 4.366693 5.423851
v 7.574333 4.312934 5.426600
v 7.470794 4.362523 5.436540
v 7.449084 4.444022 5.435311
v 7.588912 4.558711 5.471111
v 7.417534 4.564910 5.457460
v 7.490154 4.601510 5.461151
v 7.447244 4.655229 5.490700
v 7.550493 3.646712 5.463680
v 7.592072 3.649852 5.479750
v 7.553553 3.594383 5.523510
v 7.509593 3.685882 5.470230
v 7.617752 3.692441 5.485450
v 7.622172 3.839930 5.477770
v 7.510463 3.799530 5.464180
v 7.598982 3.908459 5.454761
v 7.503423 3.992058 5.465280
v 7.544293 4.058637 5.442330
v 7.607962 4.084646 5.451600
v 7.619092 4.028177 5.472160
v 7.577802 4.061187 5.443250
v 7.499094 4.222575 5.448821
v 7.590412 4.224005 5.441940
v 7.614282 4.198225 5.462650
v 7.626732 4.370763 5.492200
v 7.449354 4.351953 5.454890
v 7.411445 4.472011 5.465901
v 7.613652 4.526251 5.500280
v 7.385385 4.566650 5.499210
v 7.552503 4.651799 5.501670
v 7.509004 3.637092 5.491170
v 7.483613 3.737871 5.492370
v 7.454954 4.190105 5.488660
v 7.419344 4.355713 5.494590
v 7.414704 4.667959 5.510450
v 7.493924 4.712978 5.521160
v 7.510883 3.584543 5.546239
v 7.487053 3.620882 5.548449
v 7.477784 3.847070 5.497940
v 7.630042 4.058107 5.505980
v 7.461464 4.009177 5.509590
v 7.386455 4.479441 5.565779
v 7.628572 4.517941 5.532730
v 7.391595 4.655239 5.531390
v 7.439174 4.717019 5.528050
v 7.616642 3.653202 5.568409
v 7.465544 3.718411 5.592728
v 7.625372 3.792660 5.516439
v 7.445734 4.098286 5.518709
v 7.427255 4.169255 5.564439
v 7.374375 4.639140 5.582719
v 7.591822 4.638129 5.531300
v 7.536043 4.727738 5.540370
v 7.497973 3.520074 5.624028
v 7.530103 3.553693 5.577329
v 7.556222 3.558033 5.580938
v 7.581862 3.598353 5.565529
v 7.457894 3.890259 5.567229
v 7.443454 4.015247 5.589438
v 7.632542 4.299844 5.574449
v 7.408285 4.298573 5.598918
v 7.614872 4.561871 5.600109
v 7.409335 4.742128 5.560239
v 7.489233 3.539574 5.615748
v 7.387695 4.755948 5.610749
v 7.555973 4.719958 5.557999
v 7.575052 4.695179 5.615368
v 7.511894 4.766297 5.568349
v 7.454194 4.777087 5.570949
v 7.556843 3.544403 5.632888
v 7.586902 3.585193 5.669198
v 7.629372 3.956098 5.597118
v 7.420295 4.795497 5.596249
v 7.450084 4.826817 5.611889
v 7.487053 4.802537 5.602749
v 7.523373 3.525164 5.630228
v 7.475074 3.570913 5.670778
v 7.445774 3.867879 5.682067
v 7.394205 4.379423 5.678738
v 7.369695 4.586020 5.690968
v 7.530693 4.770648 5.633899
v 7.414575 4.821147 5.643428
v 7.624672 3.776181 5.653697
v 7.431895 4.072367 5.699007
v 7.635562 4.212095 5.675387
v 7.589313 4.682359 5.696278
v 7.480734 4.824507 5.674588
v 7.436784 4.837617 5.667688
v 7.487134 3.516944 5.663727
v 7.509523 3.512344 5.682397
v 7.533433 3.525383 5.667927
v 7.632272 4.426952 5.696348
v 7.562882 4.733248 5.681308
v 7.423125 4.836187 5.697577
v 7.388220 4.413638 5.699999
v 7.633855 3.944725 5.699999
v 7.432001 4.071405 5.699999
v 7.431847 4.073240 5.699999
v 7.395016 4.375424 5.699999
v 7.541679 4.761521 5.699999
v 7.411153 4.251512 5.699999
v 7.370817 4.568045 5.699999
v 7.426879 4.116316 5.699999
v 7.634930 4.047102 5.699999
v 7.394741 4.799779 5.699999
v 7.413566 4.234060 5.699999
v 7.378642 4.481889 5.699999
v 7.371165 4.672565 5.699999
v 7.630228 4.451721 5.699999
v 7.586149 4.688089 5.699999
v 7.369771 4.589892 5.699999
v 7.636255 4.210353 5.699999
v 7.632185 4.429167 5.699999
v 7.589890 4.680044 5.699999
v 7.555372 3.546734 5.699999
v 7.616370 3.651917 5.699999
v 7.371612 4.694418 5.699999
v 7.507414 3.520265 5.699999
v 7.460146 4.834506 5.699999
v 7.505793 4.799150 5.699999
v 7.480680 4.823329 5.699999
v 7.441491 4.840466 5.699999
v 7.558714 4.739901 5.699999
v 7.413165 4.236982 5.699999
v 7.371977 4.697129 5.699999
v 7.492262 3.528264 5.699999
v 7.396803 4.803952 5.699999
v 7.615342 3.636407 5.699999
v 7.469628 3.628222 5.699999
v 7.618811 4.577927 5.699999
v 7.425466 4.836849 5.699999
v 7.483581 3.562688 5.699999
v 7.526689 3.525778 5.699999
v 7.513874 3.518989 5.699999
v 7.476901 3.581146 5.699999
v 7.423291 4.835776 5.699999
v 7.414293 4.825505 5.699999
v 7.594255 4.665797 5.699999
v 7.610611 3.627331 5.699999
v 7.462402 3.718453 5.699999
v 7.632056 3.901112 5.699999
v 7.627460 3.757565 5.699999
v 7.544667 3.537166 5.699999
v 7.590211 3.590585 5.699999
v 7.444960 3.889022 5.699999
v 7.447195 3.862609 5.699999
v 7.570273 3.565824 5.699999
v 7.450059 3.825984 5.699999
v 7.632539 4.417542 5.699999
vn 0.1996 0.0110 -0.9798
vn -0.1643 0.1406 -0.9763
vn 0.3286 0.3064 -0.8934
vn 0.6861 0.0677 -0.7244
vn 0.2561 -0.3846 -0.8868
vn -0.2935 -0.0636 -0.9538
vn 0.5798 -0.0411 -0.8137
vn -0.0925 0.0136 -0.9956
vn 0.0516 -0.0888 -0.9947
vn -0.2902 -0.1149 -0.9501
vn 0.4533 -0.0515 -0.8899
vn -0.4706 -0.1547 -0.8687
vn -0.5279 -0.0879 -0.8447
vn 0.6840 0.3117 -0.6596
vn -0.5408 0.2329 -0.8082
vn 0.0197 0.4323 -0.9015
vn -0.1876 0.4508 -0.8727
vn -0.2051 -0.6071 -0.7677
vn 0.6733 -0.5747 -0.4652
vn 0.2666 -0.7704 -0.5792
vn -0.6769 -0.2001 -0.7083
vn 0.9191 -0.2020 -0.3383
vn 0.9006 -0.0158 -0.4344
vn -0.6116 -0.0072 -0.7911
vn 0.5293 -0.0089 -0.8484
vn -0.5962 -0.0495 -0.8013
vn -0.2292 -0.0559 -0.9718
vn 0.6187 -0.0174 -0.7855
vn 0.8617 -0.0115 -0.5072
vn 0.2310 -0.0417 -0.9721
vn -0.4658 -0.1260 -0.8759
vn 0.5094 -0.0338 -0.8599
vn 0.8381 0.0024 -0.5456
vn 0.9495 0.0384 -0.3115
vn -0.6796 -0.1753 -0.7123
vn -0.8333 -0.1151 -0.5408
vn 0.8995 0.2427 -0.3632
vn -0.9258 0.0385 -0.3760
vn 0.4417 0.4706 -0.7639
vn -0.6413 -0.4525 -0.6197
vn -0.8786 -0.0935 -0.4683
vn -0.7979 -0.1163 -0.5915
vn -0.9195 -0.1530 -0.3620
vn -0.5192 0.4116 -0.7490
vn 0.0756 0.5499 -0.8318
vn -0.4263 -0.6653 -0.6129
vn -0.8991 -0.2667 -0.3471
vn -0.8837 -0.0439 -0.4659
vn 0.9840 -0.0044 -0.1779
vn -0.8969 -0.0908 -0.4328
vn -0.9853 -0.1182 -0.1235
vn 0.9730 0.1899 -0.1315
vn -0.8354 0.2690 -0.4792
vn -0.2405 0.5368 -0.8087
vn 0.9554 -0.2841 -0.0800
vn -0.9858 -0.0934 -0.1392
vn 0.9976 -0.0406 -0.0564
vn -0.9411 -0.0987 -0.3234
vn -0.9778 -0.1142 -0.1759
vn -0.9883 0.0628 -0.1393
vn 0.8653 0.3771 -0.3302
vn 0.4323 0.5881 -0.6836
vn -0.2513 -0.8776 -0.4081
vn 0.0746 -0.8311 -0.5511
vn 0.5040 -0.7778 -0.3755
vn 0.7721 -0.5885 -0.2400
vn -0.9794 -0.0776 -0.1866
vn -0.9840 -0.1045 -0.1446
vn 0.9997 0.0198 -0.0171
vn -0.9869 -0.1311 -0.0940
vn 0.9695 0.2369 -0.0627
vn -0.5734 0.4893 -0.6571
vn -0.8335 -0.4275 -0.3500
vn -0.9015 0.3382 -0.2702
vn 0.7461 0.5620 -0.3571
vn 0.9018 0.4213 -0.0962
vn 0.4075 0.7270 -0.5526
vn -0.0627 0.6461 -0.7607
vn 0.6936 -0.7137 -0.0980
vn 0.8394 -0.5424 -0.0347
vn 0.9994 -0.0256 -0.0215
vn -0.5293 0.6121 -0.5876
vn -0.0235 0.8783 -0.4774
vn 0.4486 0.7785 -0.4390
vn 0.3411 -0.9038 -0.2585
vn -0.9775 -0.2106 0.0079
vn -0.9964 -0.0807 -0.0270
vn -0.9897 -0.1416 -0.0233
vn -0.9989 -0.0358 -0.0288
vn -0.7274 -0.0904 0.6802
vn -0.7220 -0.0642 0.6889
vn 0.7465 0.6498 -0.1430
vn -0.6448 0.7188 -0.2601
vn 0.9969 -0.0521 -0.0586
vn -0.9957 -0.0923 -0.0081
vn 0.9995 0.0007 -0.0310
vn 0.9302 0.3667 -0.0169
vn 0.5161 0.8516 -0.0915
vn -0.0991 0.9822 -0.1593
vn -0.7404 -0.6721 0.0064
vn 0.1061 -0.9888 0.1054
vn 0.5192 -0.8546 -0.0140
vn 0.7230 -0.0073 0.6908
vn 0.7257 -0.0255 0.6875
vn -0.7120 -0.1007 0.6950
vn -0.7141 -0.1012 0.6927
vn 0.9981 0.0532 -0.0325
vn -0.7186 -0.1085 0.6869
vn 0.8543 0.5159 -0.0637
vn -0.7042 0.2715 0.6561
vn -0.6394 0.4205 0.6437
vn -0.5309 0.8471 0.0208
vn 0.6977 -0.0367 0.7155
vn 0.7494 -0.0636 0.6591
vn -0.7178 0.1214 0.6856
vn 0.2874 0.6791 0.6754
vn 0.0263 0.7901 0.6124
vn -0.6077 -0.3490 0.7134
vn -0.2164 -0.6202 0.7540
vn 0.3294 -0.5259 0.7842
vn 0.4147 -0.5396 0.7327
vn 0.4006 0.5880 0.7027
vn 0.1957 -0.6414 0.7418
vn 0.5086 -0.4963 0.7035
vn 0.5456 -0.4367 0.7153
vn 0.6013 -0.4098 0.6859
vn 0.7199 0.0033 0.6940
vn -0.7104 -0.0006 0.7038
vn 0.6216 0.3262 0.7121
vn 0.6575 0.2442 0.7128
vn -0.4007 0.5509 0.7321
vn -0.5680 0.4501 0.6891
vn -0.6184 -0.1917 0.7621
vn -0.6407 -0.1657 0.7497
vn -0.7114 -0.0803 0.6981
vn -0.6820 -0.0548 0.7293
vn -0.6934 -0.0490 0.7189
vn 0.7192 -0.0358 0.6939
vn -0.6876 -0.1068 0.7182
vn 0.7186 0.0141 0.6953
vn 0.7144 0.0509 0.6979
vn 0.7041 0.2094 0.6785
vn -0.7054 -0.0579 0.7064
vn 0.6404 -0.3539 0.6817
vn -0.1877 0.7179 0.6704
vn 0.7474 0.1800 0.6396
vn -0.7230 -0.0866 0.6854
vn 0.7536 -0.2045 0.6248
vn 0.5139 0.4774 0.7127
vn -0.7343 0.0612 0.6761
vn 0.7198 0.0687 0.6908
vn -0.7221 0.0149 0.6916
vn -0.7092 -0.1021 0.6976
vn -0.7192 -0.0824 0.6899
vn 0.5568 0.4829 0.6759
vn 0.5998 0.4255 0.6776
vn -0.6839 -0.0744 0.7257
vn -0.6919 -0.0533 0.7200
usemtl mtl1.569
s 1
f 9//7 10//8 11//9
f 11//9 12//10 9//7
f 13//11 14//12 15//13
f 15//13 14//12 16//14
f 17//15 18//16 9//7
f 19//17 17//15 9//7
f 19//17 9//7 12//10
f 20//18 21//19 18//16
f 9//7 18//16 10//8
f 18//16 21//19 10//8
f 11//9 22//20 12//10
f 10//8 21//19 23//21
f 24//22 10//8 23//21
f 11//9 10//8 24//22
f 24//22 23//21 25//23
f 26//24 27//25 28//26
f 14//12 26//24 29//27
f 13//11 26//24 14//12
f 27//25 26//24 13//11
f 15//13 27//25 13//11
f 15//13 30//28 27//25
f 31//29 30//28 15//13
f 14//12 29//27 32//30
f 33//31 31//29 15//13
f 14//12 32//30 16//14
f 15//13 16//14 33//31
f 34//32 16//14 32//30
f 35//33 16//14 34//32
f 36//34 37//35 33//31
f 16//14 35//33 38//36
f 33//31 16//14 38//36
f 33//31 38//36 36//34
f 38//36 35//33 17//15
f 39//37 35//33 34//32
f 17//15 35//33 39//37
f 38//36 17//15 40//38
f 36//34 38//36 40//38
f 41//39 36//34 40//38
f 17//15 19//17 40//38
f 17//15 39//37 18//16
f 18//16 39//37 20//18
f 40//38 19//17 12//10
f 12//10 41//39 40//38
f 41//39 12//10 42//40
f 21//19 20//18 43//41
f 44//42 21//19 43//41
f 42//40 12//10 45//43
f 12//10 22//20 45//43
f 21//19 44//42 23//21
f 46//44 23//21 44//42
f 22//20 11//9 47//45
f 48//46 29//27 26//24
f 49//47 32//30 29//27
f 31//29 33//31 37//35
f 34//32 50//48 39//37
f 50//48 43//41 39//37
f 39//37 43//41 20//18
f 44//42 43//41 51//49
f 23//21 52//50 25//23
f 11//9 24//22 47//45
f 47//45 24//22 53//51
f 26//24 54//52 48//46
f 54//52 26//24 28//26
f 29//27 48//46 55//53
f 29//27 55//53 49//47
f 49//47 56//54 32//30
f 32//30 56//54 34//32
f 31//29 37//35 57//55
f 56//54 58//56 34//32
f 34//32 58//56 50//48
f 36//34 41//39 37//35
f 51//49 43//41 50//48
f 44//42 51//49 59//57
f 42//40 45//43 60//58
f 46//44 44//42 59//57
f 46//44 61//59 23//21
f 61//59 52//50 23//21
f 25//23 53//51 24//22
f 62//60 53//51 25//23
f 25//23 52//50 62//60
f 27//25 30//28 63//61
f 64//62 49//47 55//53
f 30//28 31//29 65//63
f 56//54 49//47 64//62
f 31//29 57//55 65//63
f 58//56 66//64 50//48
f 37//35 41//39 57//55
f 67//65 50//48 66//64
f 50//48 67//65 51//49
f 41//39 42//40 57//55
f 59//57 68//66 46//44
f 61//59 46//44 68//66
f 45//43 22//20 69//67
f 22//20 47//45 69//67
f 47//45 53//51 70//68
f 71//69 54//52 72//70
f 28//26 72//70 54//52
f 73//71 72//70 28//26
f 73//71 28//26 74//72
f 54//52 55//53 48//46
f 74//72 28//26 27//25
f 63//61 74//72 27//25
f 63//61 30//28 65//63
f 64//62 75//73 56//54
f 58//56 56//54 75//73
f 58//56 75//73 76//74
f 76//74 66//64 58//56
f 57//55 42//40 77//75
f 51//49 78//76 59//57
f 42//40 60//58 77//75
f 45//43 69//67 79//77
f 60//58 45//43 79//77
f 52//50 61//59 80//78
f 52//50 80//78 62//60
f 81//79 55//53 54//52
f 76//74 67//65 66//64
f 67//65 78//76 51//49
f 60//58 79//77 77//75
f 82//80 61//59 68//66
f 69//67 47//45 83//81
f 69//67 83//81 84//82
f 79//77 69//67 84//82
f 47//45 70//68 83//81
f 83//81 70//68 85//83
f 80//78 86//84 62//60
f 53//51 85//83 70//68
f 86//84 85//83 53//51
f 53//51 62//60 86//84
f 54//52 71//69 81//79
f 73//71 74//72 87//85
f 74//72 63//61 88//86
f 63//61 65//63 89//87
f 65//63 57//55 89//87
f 89//87 57//55 77//75
f 82//80 80//78 61//59
f 90//88 80//78 82//80
f 80//78 90//88 86//84
f 90//88 91//89 86//84
f 86//84 92//90 85//83
f 92//90 86//84 91//89
f 71//69 72//70 93//91
f 72//70 73//71 93//91
f 55//53 81//79 94//92
f 55//53 94//92 64//62
f 75//73 95//93 76//74
f 96//94 59//57 78//76
f 97//95 124//96 119//97
f 59//57 97//95 68//66
f 83//81 98//98 84//82
f 85//83 98//98 83//81
f 85//83 92//90 98//98
f 90//88 99//99 91//89
f 93//91 73//71 87//85
f 88//86 87//85 74//72
f 100//100 63//61 89//87
f 64//62 95//93 75//73
f 76//74 101//101 67//65
f 89//87 77//75 102//102
f 79//77 84//82 103//103
f 99//99 90//88 82//80
f 98//98 92//90 104//104
f 91//89 99//99 105//105
f 92//90 91//89 104//104
f 91//89 105//105 104//104
f 106//106 71//69 107//107
f 71//69 93//91 107//107
f 71//69 106//106 81//79
f 108//108 93//91 87//85
f 95//93 101//101 76//74
f 89//87 121//109 113//110
f 118//111 78//76 141//112
f 102//102 77//75 109//113
f 124//96 96//94 112//114
f 77//75 79//77 109//113
f 84//82 110//115 103//103
f 99//99 122//116 144//117
f 99//99 111//118 105//105
f 93//91 108//108 107//107
f 106//106 94//92 81//79
f 133//119 100//100 159//120
f 84//82 98//98 110//115
f 142//121 122//116 82//80
f 136//122 105//105 139//123
f 143//124 107//107 135//125
f 150//126 108//108 160//127
f 138//128 104//104 136//122
f 151//129 107//107 150//126
f 132//130 88//86 164//131
f 161//132 164//131 88//86
f 121//109 102//102 129//133
f 119//97 128//134 97//95
f 127//135 131//136 103//103
f 153//137 111//118 154//138
f 149//139 152//140 94//92
f 165//141 163//142 95//93
f 162//143 163//142 158//144
f 118//111 116//145 96//94
f 166//146 109//113 130//147
f 155//148 103//103 131//136
f 95//93 163//142 162//143
f 100//100 158//144 159//120
f 157//149 95//93 64//62
f 88//86 156//150 161//132
f 111//118 153//137 148//151
f 103//103 147//152 79//77
f 146//153 64//62 94//92
f 94//92 152//140 146//153
f 88//86 145//154 156//150
f 144//117 111//118 99//99
f 143//124 94//92 106//106
f 111//118 139//123 105//105
f 104//104 138//128 137//155
f 107//107 151//129 135//125
f 134//156 82//80 68//66
f 63//61 133//119 145//154
f 108//108 132//130 160//127
f 102//102 166//146 129//133
f 110//115 127//135 103//103
f 79//77 126//157 109//113
f 109//113 126//157 130//147
f 97//95 134//156 68//66
f 97//95 128//134 125//158
f 123//159 78//76 67//65
f 67//65 120//160 123//159
f 110//115 117//161 140//162
f 98//98 137//155 117//161
f 101//101 115//163 120//160
f 162//143 101//101 95//93
f 101//101 114//164 115//163
f 89//87 158//144 100//100
f 96//94 116//145 112//114
f 97//95 59//57 124//96
f 89//87 102//102 121//109
f 118//111 96//94 78//76
f 124//96 59//57 96//94
f 99//99 82//80 122//116
f 136//122 104//104 105//105
f 143//124 106//106 107//107
f 150//126 107//107 108//108
f 132//130 87//85 88//86
f 153//137 154//138 148//151
f 154//138 144//117 138//128
f 144//117 122//116 138//128
f 122//116 142//121 137//155
f 142//121 134//156 140//162
f 134//156 125//158 140//162
f 125//158 128//134 155//148
f 128//134 119//97 147//152
f 125//158 155//148 127//135
f 119//97 124//96 147//152
f 124//96 112//114 126//157
f 126//157 112//114 130//147
f 116//145 118//111 166//146
f 118//111 141//112 129//133
f 166//146 118//111 129//133
f 112//114 116//145 166//146
f 154//138 138//128 136//122
f 122//116 137//155 138//128
f 139//123 148//151 154//138
f 136//122 139//123 154//138
f 117//161 137//155 142//121
f 127//135 140//162 125//158
f 140//162 117//161 142//121
f 155//148 131//136 127//135
f 126//157 147//152 124//96
f 147//152 155//148 128//134
f 166//146 130//147 112//114
f 121//109 129//133 120//160
f 123//159 129//133 141//112
f 158//144 113//110 162//143
f 113//110 121//109 114//164
f 114//164 121//109 115//163
f 133//119 159//120 157//149
f 159//120 158//144 165//141
f 157//149 159//120 165//141
f 156//150 145//154 133//119
f 164//131 161//132 146//153
f 161//132 156//150 146//153
f 160//127 132//130 149//139
f 132//130 164//131 149//139
f 151//129 150//126 135//125
f 150//126 160//127 149//139
f 143//124 135//125 150//126
f 146//153 152//140 164//131
f 152//140 149//139 164//131
f 149//139 143//124 150//126
f 156//150 133//119 146//153
f 129//133 123//159 120//160
f 120//160 115//163 121//109
f 165//141 158//144 163//142
f 113//110 114//164 162//143
f 157//149 146//153 133//119
f 157//149 165//141 95//93
f 103//103 155//148 147//152
f 146//153 157//149 64//62
f 88//86 63//61 145//154
f 144//117 154//138 111//118
f 143//124 149//139 94//92
f 111//118 148//151 139//123
f 134//156 142//121 82//80
f 63//61 100//100 133//119
f 108//108 87//85 132//130
f 102//102 109//113 166//146
f 110//115 140//162 127//135
f 79//77 147//152 126//157
f 97//95 125//158 134//156
f 123//159 141//112 78//76
f 67//65 101//101 120//160
f 110//115 98//98 117//161
f 98//98 104//104 137//155
f 162//143 114//164 101//101
f 89//87 113//110 158//144
