# Blender v2.92.0 OBJ File: 'convert_to_one_sided.blend'
# www.blender.org
mtllib 609L.mtl
o 609
v 7.550103 4.400272 5.410851
v 7.486874 4.496801 5.414661
v 7.545803 4.521711 5.430801
v 7.595362 4.398313 5.436331
v 7.579732 3.673932 5.430051
v 7.555043 3.725301 5.434361
v 7.595002 3.736811 5.443281
v 7.555973 3.864369 5.443700
v 7.558413 4.216455 5.426810
v 7.503874 4.366693 5.423851
v 7.574333 4.312934 5.426600
v 7.470794 4.362523 5.436540
v 7.449084 4.444022 5.435311
v 7.588912 4.558711 5.471111
v 7.417534 4.564910 5.457460
v 7.490154 4.601510 5.461151
v 7.447244 4.655229 5.490700
v 7.550493 3.646712 5.463680
v 7.592072 3.649852 5.479750
v 7.553553 3.594383 5.523510
v 7.509593 3.685882 5.470230
v 7.617752 3.692441 5.485450
v 7.622172 3.839930 5.477770
v 7.510463 3.799530 5.464180
v 7.598982 3.908459 5.454761
v 7.503423 3.992058 5.465280
v 7.544293 4.058637 5.442330
v 7.607962 4.084646 5.451600
v 7.619092 4.028177 5.472160
v 7.577802 4.061187 5.443250
v 7.499094 4.222575 5.448821
v 7.590412 4.224005 5.441940
v 7.614282 4.198225 5.462650
v 7.626732 4.370763 5.492200
v 7.449354 4.351953 5.454890
v 7.411445 4.472011 5.465901
v 7.613652 4.526251 5.500280
v 7.385385 4.566650 5.499210
v 7.552503 4.651799 5.501670
v 7.509004 3.637092 5.491170
v 7.483613 3.737871 5.492370
v 7.454954 4.190105 5.488660
v 7.419344 4.355713 5.494590
v 7.414704 4.667959 5.510450
v 7.493924 4.712978 5.521160
v 7.510883 3.584543 5.546239
v 7.487053 3.620882 5.548449
v 7.477784 3.847070 5.497940
v 7.630042 4.058107 5.505980
v 7.461464 4.009177 5.509590
v 7.386455 4.479441 5.565779
v 7.628572 4.517941 5.532730
v 7.391595 4.655239 5.531390
v 7.439174 4.717019 5.528050
v 7.616642 3.653202 5.568409
v 7.465544 3.718411 5.592728
v 7.625372 3.792660 5.516439
v 7.445734 4.098286 5.518709
v 7.427255 4.169255 5.564439
v 7.374375 4.639140 5.582719
v 7.591822 4.638129 5.531300
v 7.536043 4.727738 5.540370
v 7.497973 3.520074 5.624028
v 7.530103 3.553693 5.577329
v 7.556222 3.558033 5.580938
v 7.581862 3.598353 5.565529
v 7.457894 3.890259 5.567229
v 7.443454 4.015247 5.589438
v 7.632542 4.299844 5.574449
v 7.408285 4.298573 5.598918
v 7.614872 4.561871 5.600109
v 7.409335 4.742128 5.560239
v 7.489233 3.539574 5.615748
v 7.387695 4.755948 5.610749
v 7.555973 4.719958 5.557999
v 7.575052 4.695179 5.615368
v 7.511894 4.766297 5.568349
v 7.454194 4.777087 5.570949
v 7.556843 3.544403 5.632888
v 7.586902 3.585193 5.669198
v 7.629372 3.956098 5.597118
v 7.420295 4.795497 5.596249
v 7.450084 4.826817 5.611889
v 7.487053 4.802537 5.602749
v 7.523373 3.525164 5.630228
v 7.475074 3.570913 5.670778
v 7.445774 3.867879 5.682067
v 7.394205 4.379423 5.678738
v 7.369695 4.586020 5.690968
v 7.530693 4.770648 5.633899
v 7.414575 4.821147 5.643428
v 7.624672 3.776181 5.653697
v 7.431895 4.072367 5.699007
v 7.635562 4.212095 5.675387
v 7.589313 4.682359 5.696278
v 7.480734 4.824507 5.674588
v 7.436784 4.837617 5.667688
v 7.487134 3.516944 5.663727
v 7.509523 3.512344 5.682397
v 7.533433 3.525383 5.667927
v 7.632272 4.426952 5.696348
v 7.562882 4.733248 5.681308
v 7.423125 4.836187 5.697577
v 7.388220 4.413638 5.699999
v 7.633855 3.944725 5.699999
v 7.432001 4.071405 5.699999
v 7.431847 4.073240 5.699999
v 7.395016 4.375424 5.699999
v 7.541679 4.761521 5.699999
v 7.411153 4.251512 5.699999
v 7.370817 4.568045 5.699999
v 7.426879 4.116316 5.699999
v 7.634930 4.047102 5.699999
v 7.394741 4.799779 5.699999
v 7.413566 4.234060 5.699999
v 7.378642 4.481889 5.699999
v 7.371165 4.672565 5.699999
v 7.630228 4.451721 5.699999
v 7.586149 4.688089 5.699999
v 7.369771 4.589892 5.699999
v 7.636255 4.210353 5.699999
v 7.632185 4.429167 5.699999
v 7.589890 4.680044 5.699999
v 7.555372 3.546734 5.699999
v 7.616370 3.651917 5.699999
v 7.371612 4.694418 5.699999
v 7.507414 3.520265 5.699999
v 7.460146 4.834506 5.699999
v 7.505793 4.799150 5.699999
v 7.480680 4.823329 5.699999
v 7.441491 4.840466 5.699999
v 7.558714 4.739901 5.699999
v 7.413165 4.236982 5.699999
v 7.371977 4.697129 5.699999
v 7.492262 3.528264 5.699999
v 7.396803 4.803952 5.699999
v 7.615342 3.636407 5.699999
v 7.469628 3.628222 5.699999
v 7.618811 4.577927 5.699999
v 7.425466 4.836849 5.699999
v 7.483581 3.562688 5.699999
v 7.526689 3.525778 5.699999
v 7.513874 3.518989 5.699999
v 7.476901 3.581146 5.699999
v 7.423291 4.835776 5.699999
v 7.414293 4.825505 5.699999
v 7.594255 4.665797 5.699999
v 7.610611 3.627331 5.699999
v 7.462402 3.718453 5.699999
v 7.632056 3.901112 5.699999
v 7.627460 3.757565 5.699999
v 7.544667 3.537166 5.699999
v 7.590211 3.590585 5.699999
v 7.444960 3.889022 5.699999
v 7.447195 3.862609 5.699999
v 7.570273 3.565824 5.699999
v 7.450059 3.825984 5.699999
v 7.632539 4.417542 5.699999
vn 0.1996 0.0110 -0.9798
vn -0.1643 0.1406 -0.9763
vn 0.3286 0.3064 -0.8934
vn 0.6861 0.0677 -0.7244
vn 0.2561 -0.3846 -0.8868
vn -0.2935 -0.0636 -0.9538
vn 0.5798 -0.0411 -0.8137
vn -0.0925 0.0136 -0.9956
vn 0.0516 -0.0888 -0.9947
vn -0.2902 -0.1149 -0.9501
vn 0.4533 -0.0515 -0.8899
vn -0.4706 -0.1547 -0.8687
vn -0.5279 -0.0879 -0.8447
vn 0.6840 0.3117 -0.6596
vn -0.5408 0.2329 -0.8082
vn 0.0197 0.4323 -0.9015
vn -0.1876 0.4508 -0.8727
vn -0.2051 -0.6071 -0.7677
vn 0.6733 -0.5747 -0.4652
vn 0.2666 -0.7704 -0.5792
vn -0.6769 -0.2001 -0.7083
vn 0.9191 -0.2020 -0.3383
vn 0.9006 -0.0158 -0.4344
vn -0.6116 -0.0072 -0.7911
vn 0.5293 -0.0089 -0.8484
vn -0.5962 -0.0495 -0.8013
vn -0.2292 -0.0559 -0.9718
vn 0.6187 -0.0174 -0.7855
vn 0.8617 -0.0115 -0.5072
vn 0.2310 -0.0417 -0.9721
vn -0.4658 -0.1260 -0.8759
vn 0.5094 -0.0338 -0.8599
vn 0.8381 0.0024 -0.5456
vn 0.9495 0.0384 -0.3115
vn -0.6796 -0.1753 -0.7123
vn -0.8333 -0.1151 -0.5408
vn 0.8995 0.2427 -0.3632
vn -0.9258 0.0385 -0.3760
vn 0.4417 0.4706 -0.7639
vn -0.6413 -0.4525 -0.6197
vn -0.8786 -0.0935 -0.4683
vn -0.7979 -0.1163 -0.5915
vn -0.9195 -0.1530 -0.3620
vn -0.5192 0.4116 -0.7490
vn 0.0756 0.5499 -0.8318
vn -0.4263 -0.6653 -0.6129
vn -0.8991 -0.2667 -0.3471
vn -0.8837 -0.0439 -0.4659
vn 0.9840 -0.0044 -0.1779
vn -0.8969 -0.0908 -0.4328
vn -0.9853 -0.1182 -0.1235
vn 0.9730 0.1899 -0.1315
vn -0.8354 0.2690 -0.4792
vn -0.2405 0.5368 -0.8087
vn 0.9554 -0.2841 -0.0800
vn -0.9858 -0.0934 -0.1392
vn 0.9976 -0.0406 -0.0564
vn -0.9411 -0.0987 -0.3234
vn -0.9778 -0.1142 -0.1759
vn -0.9883 0.0628 -0.1393
vn 0.8653 0.3771 -0.3302
vn 0.4323 0.5881 -0.6836
vn -0.2513 -0.8776 -0.4081
vn 0.0746 -0.8311 -0.5511
vn 0.5040 -0.7778 -0.3755
vn 0.7721 -0.5885 -0.2400
vn -0.9794 -0.0776 -0.1866
vn -0.9840 -0.1045 -0.1446
vn 0.9997 0.0198 -0.0171
vn -0.9869 -0.1311 -0.0940
vn 0.9695 0.2369 -0.0627
vn -0.5734 0.4893 -0.6571
vn -0.8335 -0.4275 -0.3500
vn -0.9015 0.3382 -0.2702
vn 0.7461 0.5620 -0.3571
vn 0.9018 0.4213 -0.0962
vn 0.4075 0.7270 -0.5526
vn -0.0627 0.6461 -0.7607
vn 0.6936 -0.7137 -0.0980
vn 0.8394 -0.5424 -0.0347
vn 0.9994 -0.0256 -0.0215
vn -0.5293 0.6121 -0.5876
vn -0.0235 0.8783 -0.4774
vn 0.4486 0.7785 -0.4390
vn 0.3411 -0.9038 -0.2585
vn -0.9775 -0.2106 0.0079
vn -0.9964 -0.0807 -0.0270
vn -0.9897 -0.1416 -0.0233
vn -0.9989 -0.0358 -0.0288
vn -0.7274 -0.0904 0.6802
vn -0.7220 -0.0642 0.6889
vn 0.7465 0.6498 -0.1430
vn -0.6448 0.7188 -0.2601
vn 0.9969 -0.0521 -0.0586
vn -0.9957 -0.0923 -0.0081
vn 0.9995 0.0007 -0.0310
vn 0.9302 0.3667 -0.0169
vn 0.5161 0.8516 -0.0915
vn -0.0991 0.9822 -0.1593
vn -0.7404 -0.6721 0.0064
vn 0.1061 -0.9888 0.1054
vn 0.5192 -0.8546 -0.0140
vn 0.7230 -0.0073 0.6908
vn 0.7257 -0.0255 0.6875
vn -0.7120 -0.1007 0.6950
vn -0.7141 -0.1012 0.6927
vn 0.9981 0.0532 -0.0325
vn -0.7186 -0.1085 0.6869
vn 0.8543 0.5159 -0.0637
vn -0.7042 0.2715 0.6561
vn -0.6394 0.4205 0.6437
vn -0.5309 0.8471 0.0208
vn 0.6977 -0.0367 0.7155
vn 0.7494 -0.0636 0.6591
vn -0.7178 0.1214 0.6856
vn 0.2874 0.6791 0.6754
vn 0.0263 0.7901 0.6124
vn -0.6077 -0.3490 0.7134
vn -0.2164 -0.6202 0.7540
vn 0.3294 -0.5259 0.7842
vn 0.4147 -0.5396 0.7327
vn 0.4006 0.5880 0.7027
vn 0.1957 -0.6414 0.7418
vn 0.5086 -0.4963 0.7035
vn 0.5456 -0.4367 0.7153
vn 0.6013 -0.4098 0.6859
vn 0.7199 0.0033 0.6940
vn -0.7104 -0.0006 0.7038
vn 0.6216 0.3262 0.7121
vn 0.6575 0.2442 0.7128
vn -0.4007 0.5509 0.7321
vn -0.5680 0.4501 0.6891
vn -0.6184 -0.1917 0.7621
vn -0.6407 -0.1657 0.7497
vn -0.7114 -0.0803 0.6981
vn -0.6820 -0.0548 0.7293
vn -0.6934 -0.0490 0.7189
vn 0.7192 -0.0358 0.6939
vn -0.6876 -0.1068 0.7182
vn 0.7186 0.0141 0.6953
vn 0.7144 0.0509 0.6979
vn 0.7041 0.2094 0.6785
vn -0.7054 -0.0579 0.7064
vn 0.6404 -0.3539 0.6817
vn -0.1877 0.7179 0.6704
vn 0.7474 0.1800 0.6396
vn -0.7230 -0.0866 0.6854
vn 0.7536 -0.2045 0.6248
vn 0.5139 0.4774 0.7127
vn -0.7343 0.0612 0.6761
vn 0.7198 0.0687 0.6908
vn -0.7221 0.0149 0.6916
vn -0.7092 -0.1021 0.6976
vn -0.7192 -0.0824 0.6899
vn 0.5568 0.4829 0.6759
vn 0.5998 0.4255 0.6776
vn -0.6839 -0.0744 0.7257
vn -0.6919 -0.0533 0.7200
usemtl mtl1.1388
s 1
f 1//1 2//2 3//3
f 3//3 4//4 1//1
f 5//5 6//6 7//7
f 7//7 6//6 8//8
f 9//9 10//10 1//1
f 11//11 9//9 1//1
f 11//11 1//1 4//4
f 12//12 13//13 10//10
f 1//1 10//10 2//2
f 10//10 13//13 2//2
f 3//3 14//14 4//4
f 2//2 13//13 15//15
f 16//16 2//2 15//15
f 3//3 2//2 16//16
f 16//16 15//15 17//17
f 18//18 19//19 20//20
f 6//6 18//18 21//21
f 5//5 18//18 6//6
f 19//19 18//18 5//5
f 7//7 19//19 5//5
f 7//7 22//22 19//19
f 23//23 22//22 7//7
f 6//6 21//21 24//24
f 25//25 23//23 7//7
f 6//6 24//24 8//8
f 7//7 8//8 25//25
f 26//26 8//8 24//24
f 27//27 8//8 26//26
f 28//28 29//29 25//25
f 8//8 27//27 30//30
f 25//25 8//8 30//30
f 25//25 30//30 28//28
f 30//30 27//27 9//9
f 31//31 27//27 26//26
f 9//9 27//27 31//31
f 30//30 9//9 32//32
f 28//28 30//30 32//32
f 33//33 28//28 32//32
f 9//9 11//11 32//32
f 9//9 31//31 10//10
f 10//10 31//31 12//12
f 32//32 11//11 4//4
f 4//4 33//33 32//32
f 33//33 4//4 34//34
f 13//13 12//12 35//35
f 36//36 13//13 35//35
f 34//34 4//4 37//37
f 4//4 14//14 37//37
f 13//13 36//36 15//15
f 38//38 15//15 36//36
f 14//14 3//3 39//39
f 40//40 21//21 18//18
f 41//41 24//24 21//21
f 23//23 25//25 29//29
f 26//26 42//42 31//31
f 42//42 35//35 31//31
f 31//31 35//35 12//12
f 36//36 35//35 43//43
f 15//15 44//44 17//17
f 3//3 16//16 39//39
f 39//39 16//16 45//45
f 18//18 46//46 40//40
f 46//46 18//18 20//20
f 21//21 40//40 47//47
f 21//21 47//47 41//41
f 41//41 48//48 24//24
f 24//24 48//48 26//26
f 23//23 29//29 49//49
f 48//48 50//50 26//26
f 26//26 50//50 42//42
f 28//28 33//33 29//29
f 43//43 35//35 42//42
f 36//36 43//43 51//51
f 34//34 37//37 52//52
f 38//38 36//36 51//51
f 38//38 53//53 15//15
f 53//53 44//44 15//15
f 17//17 45//45 16//16
f 54//54 45//45 17//17
f 17//17 44//44 54//54
f 19//19 22//22 55//55
f 56//56 41//41 47//47
f 22//22 23//23 57//57
f 48//48 41//41 56//56
f 23//23 49//49 57//57
f 50//50 58//58 42//42
f 29//29 33//33 49//49
f 59//59 42//42 58//58
f 42//42 59//59 43//43
f 33//33 34//34 49//49
f 51//51 60//60 38//38
f 53//53 38//38 60//60
f 37//37 14//14 61//61
f 14//14 39//39 61//61
f 39//39 45//45 62//62
f 63//63 46//46 64//64
f 20//20 64//64 46//46
f 65//65 64//64 20//20
f 65//65 20//20 66//66
f 46//46 47//47 40//40
f 66//66 20//20 19//19
f 55//55 66//66 19//19
f 55//55 22//22 57//57
f 56//56 67//67 48//48
f 50//50 48//48 67//67
f 50//50 67//67 68//68
f 68//68 58//58 50//50
f 49//49 34//34 69//69
f 43//43 70//70 51//51
f 34//34 52//52 69//69
f 37//37 61//61 71//71
f 52//52 37//37 71//71
f 44//44 53//53 72//72
f 44//44 72//72 54//54
f 73//73 47//47 46//46
f 68//68 59//59 58//58
f 59//59 70//70 43//43
f 52//52 71//71 69//69
f 74//74 53//53 60//60
f 61//61 39//39 75//75
f 61//61 75//75 76//76
f 71//71 61//61 76//76
f 39//39 62//62 75//75
f 75//75 62//62 77//77
f 72//72 78//78 54//54
f 45//45 77//77 62//62
f 78//78 77//77 45//45
f 45//45 54//54 78//78
f 46//46 63//63 73//73
f 65//65 66//66 79//79
f 66//66 55//55 80//80
f 55//55 57//57 81//81
f 57//57 49//49 81//81
f 81//81 49//49 69//69
f 74//74 72//72 53//53
f 82//82 72//72 74//74
f 72//72 82//82 78//78
f 82//82 83//83 78//78
f 78//78 84//84 77//77
f 84//84 78//78 83//83
f 63//63 64//64 85//85
f 64//64 65//65 85//85
f 47//47 73//73 86//86
f 47//47 86//86 56//56
f 67//67 87//87 68//68
f 88//88 51//51 70//70
f 89//89 116//90 111//91
f 51//51 89//89 60//60
f 75//75 90//92 76//76
f 77//77 90//92 75//75
f 77//77 84//84 90//92
f 82//82 91//93 83//83
f 85//85 65//65 79//79
f 80//80 79//79 66//66
f 92//94 55//55 81//81
f 56//56 87//87 67//67
f 68//68 93//95 59//59
f 81//81 69//69 94//96
f 71//71 76//76 95//97
f 91//93 82//82 74//74
f 90//92 84//84 96//98
f 83//83 91//93 97//99
f 84//84 83//83 96//98
f 83//83 97//99 96//98
f 98//100 63//63 99//101
f 63//63 85//85 99//101
f 63//63 98//100 73//73
f 100//102 85//85 79//79
f 87//87 93//95 68//68
f 81//81 113//103 105//104
f 110//105 70//70 133//106
f 94//96 69//69 101//107
f 116//90 88//88 104//108
f 69//69 71//71 101//107
f 76//76 102//109 95//97
f 91//93 114//110 136//111
f 91//93 103//112 97//99
f 85//85 100//102 99//101
f 98//100 86//86 73//73
f 125//113 92//94 151//114
f 76//76 90//92 102//109
f 134//115 114//110 74//74
f 128//116 97//99 131//117
f 135//118 99//101 127//119
f 142//120 100//102 152//121
f 130//122 96//98 128//116
f 143//123 99//101 142//120
f 124//124 80//80 156//125
f 153//126 156//125 80//80
f 113//103 94//96 121//127
f 111//91 120//128 89//89
f 119//129 123//130 95//97
f 145//131 103//112 146//132
f 141//133 144//134 86//86
f 157//135 155//136 87//87
f 154//137 155//136 150//138
f 110//105 108//139 88//88
f 158//140 101//107 122//141
f 147//142 95//97 123//130
f 87//87 155//136 154//137
f 92//94 150//138 151//114
f 149//143 87//87 56//56
f 80//80 148//144 153//126
f 103//112 145//131 140//145
f 95//97 139//146 71//71
f 138//147 56//56 86//86
f 86//86 144//134 138//147
f 80//80 137//148 148//144
f 136//111 103//112 91//93
f 135//118 86//86 98//100
f 103//112 131//117 97//99
f 96//98 130//122 129//149
f 99//101 143//123 127//119
f 126//150 74//74 60//60
f 55//55 125//113 137//148
f 100//102 124//124 152//121
f 94//96 158//140 121//127
f 102//109 119//129 95//97
f 71//71 118//151 101//107
f 101//107 118//151 122//141
f 89//89 126//150 60//60
f 89//89 120//128 117//152
f 115//153 70//70 59//59
f 59//59 112//154 115//153
f 102//109 109//155 132//156
f 90//92 129//149 109//155
f 93//95 107//157 112//154
f 154//137 93//95 87//87
f 93//95 106//158 107//157
f 81//81 150//138 92//94
f 88//88 108//139 104//108
f 89//89 51//51 116//90
f 81//81 94//96 113//103
f 110//105 88//88 70//70
f 116//90 51//51 88//88
f 91//93 74//74 114//110
f 128//116 96//98 97//99
f 135//118 98//100 99//101
f 142//120 99//101 100//102
f 124//124 79//79 80//80
f 145//131 146//132 140//145
f 146//132 136//111 130//122
f 136//111 114//110 130//122
f 114//110 134//115 129//149
f 134//115 126//150 132//156
f 126//150 117//152 132//156
f 117//152 120//128 147//142
f 120//128 111//91 139//146
f 117//152 147//142 119//129
f 111//91 116//90 139//146
f 116//90 104//108 118//151
f 118//151 104//108 122//141
f 108//139 110//105 158//140
f 110//105 133//106 121//127
f 158//140 110//105 121//127
f 104//108 108//139 158//140
f 146//132 130//122 128//116
f 114//110 129//149 130//122
f 131//117 140//145 146//132
f 128//116 131//117 146//132
f 109//155 129//149 134//115
f 119//129 132//156 117//152
f 132//156 109//155 134//115
f 147//142 123//130 119//129
f 118//151 139//146 116//90
f 139//146 147//142 120//128
f 158//140 122//141 104//108
f 113//103 121//127 112//154
f 115//153 121//127 133//106
f 150//138 105//104 154//137
f 105//104 113//103 106//158
f 106//158 113//103 107//157
f 125//113 151//114 149//143
f 151//114 150//138 157//135
f 149//143 151//114 157//135
f 148//144 137//148 125//113
f 156//125 153//126 138//147
f 153//126 148//144 138//147
f 152//121 124//124 141//133
f 124//124 156//125 141//133
f 143//123 142//120 127//119
f 142//120 152//121 141//133
f 135//118 127//119 142//120
f 138//147 144//134 156//125
f 144//134 141//133 156//125
f 141//133 135//118 142//120
f 148//144 125//113 138//147
f 121//127 115//153 112//154
f 112//154 107//157 113//103
f 157//135 150//138 155//136
f 105//104 106//158 154//137
f 149//143 138//147 125//113
f 149//143 157//135 87//87
f 95//97 147//142 139//146
f 138//147 149//143 56//56
f 80//80 55//55 137//148
f 136//111 146//132 103//112
f 135//118 141//133 86//86
f 103//112 140//145 131//117
f 126//150 134//115 74//74
f 55//55 92//94 125//113
f 100//102 79//79 124//124
f 94//96 101//107 158//140
f 102//109 132//156 119//129
f 71//71 139//146 118//151
f 89//89 117//152 126//150
f 115//153 133//106 70//70
f 59//59 93//95 112//154
f 102//109 90//92 109//155
f 90//92 96//98 129//149
f 154//137 106//158 93//95
f 81//81 105//104 150//138
