# Blender v2.92.0 OBJ File: 'convert_to_one_sided.blend'
# www.blender.org
mtllib 611L.mtl
o Cube
v 0.001000 0.001000 -0.001000
v 0.001000 -0.001000 -0.001000
v 0.001000 0.001000 0.001000
v 0.001000 -0.001000 0.001000
v -0.001000 0.001000 -0.001000
v -0.001000 -0.001000 -0.001000
v -0.001000 0.001000 0.001000
v -0.001000 -0.001000 0.001000
vt 0.625000 0.500000
vt 0.875000 0.500000
vt 0.875000 0.750000
vt 0.625000 0.750000
vt 0.375000 0.750000
vt 0.625000 1.000000
vt 0.375000 1.000000
vt 0.375000 0.000000
vt 0.625000 0.000000
vt 0.625000 0.250000
vt 0.375000 0.250000
vt 0.125000 0.500000
vt 0.375000 0.500000
vt 0.125000 0.750000
vn 0.0000 1.0000 0.0000
vn 0.0000 0.0000 1.0000
vn -1.0000 0.0000 0.0000
vn 0.0000 -1.0000 0.0000
vn 1.0000 0.0000 0.0000
vn 0.0000 0.0000 -1.0000
usemtl Material
s off
f 1/1/1 5/2/1 7/3/1 3/4/1
f 4/5/2 3/4/2 7/6/2 8/7/2
f 8/8/3 7/9/3 5/10/3 6/11/3
f 6/12/4 2/13/4 4/5/4 8/14/4
f 2/13/5 1/1/5 3/4/5 4/5/5
f 6/11/6 5/10/6 1/1/6 2/13/6
o 611
v 6.775093 3.005770 5.271163
v 6.765833 3.002340 5.280962
v 6.768643 2.986211 5.289752
v 6.784053 3.001720 5.283113
v 7.359915 2.825693 5.311172
v 7.350885 2.755494 5.328102
v 7.269277 2.826443 5.307092
v 7.145148 2.810333 5.330502
v 7.185947 2.863962 5.309452
v 7.272916 2.843632 5.309052
v 7.214437 2.864482 5.308372
v 6.839052 2.967731 5.303682
v 6.914001 2.962061 5.306052
v 7.006560 2.903322 5.319602
v 6.800612 2.959771 5.317442
v 6.839782 2.983231 5.299633
v 6.921931 2.959461 5.306952
v 6.784133 2.979751 5.303652
v 7.404554 2.768143 5.329382
v 7.466244 2.728964 5.333322
v 7.475914 2.745024 5.345282
v 6.998500 2.858102 5.344472
v 7.223167 2.846962 5.324092
v 7.353285 2.809443 5.289823
v 7.113478 2.890332 5.315112
v 6.898961 2.917621 5.336422
v 7.017729 2.918482 5.317742
v 7.116788 2.887232 5.315492
v 6.801682 2.959951 5.321372
v 6.850872 2.966541 5.311272
v 7.608632 2.607646 5.360791
v 7.514683 2.612845 5.388402
v 7.543283 2.667365 5.354321
v 7.459254 2.683285 5.359221
v 7.616482 2.632375 5.370411
v 7.378175 2.666235 5.381441
v 7.612282 2.655675 5.445301
v 7.540773 2.692805 5.371811
v 7.243657 2.718924 5.374851
v 7.150138 2.760664 5.366481
v 7.073939 2.817303 5.356862
v 7.398664 2.769753 5.375902
v 7.006640 2.915552 5.323502
v 7.635592 2.567646 5.412491
v 7.595992 2.555046 5.430100
v 7.513923 2.719274 5.432011
v 6.996970 2.857362 5.350702
v 7.259407 2.777853 5.388621
v 6.928771 2.893222 5.346992
v 6.857081 2.936921 5.331501
v 6.819712 2.960111 5.323482
v 6.913041 2.920242 5.331792
v 7.649821 2.564606 5.519549
v 7.185528 2.735124 5.381981
v 7.137918 2.773633 5.373841
v 7.085168 2.856462 5.350152
v 7.630272 2.529106 5.487130
v 7.432644 2.610935 5.443060
v 7.329466 2.662085 5.415521
v 7.244177 2.713154 5.395531
v 7.034780 2.844982 5.350771
v 7.143668 2.796363 5.370641
v 7.381995 2.747874 5.446131
v 7.552523 2.550696 5.525929
v 7.604272 2.529146 5.494190
v 7.401285 2.636595 5.481070
v 7.338885 2.677935 5.444440
v 7.217017 2.751074 5.389381
v 7.307676 2.718724 5.429261
v 7.570802 2.698154 5.577708
v 7.631252 2.638735 5.600489
v 7.387975 2.727114 5.480070
v 7.463604 2.726884 5.507920
v 7.651122 2.599806 5.618498
v 7.391425 2.687384 5.489700
v 7.619722 2.520727 5.550769
v 7.468904 2.616445 5.559269
v 7.457364 2.696694 5.581639
v 7.646882 2.523987 5.687217
v 7.439214 2.660715 5.551979
v 7.509683 2.595135 5.669378
v 7.473594 2.661405 5.654278
v 7.511403 2.712934 5.680898
v 7.535338 2.571934 5.699999
v 7.495714 2.613129 5.699999
v 7.500731 2.598897 5.699999
v 7.654765 2.589468 5.699999
v 7.637152 2.625174 5.699999
v 7.580280 2.536678 5.699999
v 7.479545 2.694351 5.699999
v 7.472657 2.653441 5.699999
v 7.470347 2.671062 5.699999
v 7.538677 2.707382 5.699999
v 7.655717 2.574916 5.699999
v 7.488955 2.703212 5.699999
v 7.506207 2.713821 5.699999
v 7.515565 2.712241 5.699999
v 7.599949 2.675882 5.699999
v 7.556670 2.703486 5.699999
v 7.479156 2.699381 5.699999
v 7.608613 2.667179 5.699999
v 7.628415 2.528056 5.699999
v 7.648470 2.531701 5.699999
v 7.633583 2.632097 5.699999
v 7.647535 2.525146 5.699999
v 7.644979 2.523859 5.699999
v 7.566280 2.542870 5.699999
vn -0.2216 0.9708 -0.0921
vn -0.4542 -0.3531 -0.8179
vn -0.9260 0.0284 0.3765
vn 0.2054 0.0440 -0.9777
vn 0.0926 -0.0764 -0.9928
vn -0.0442 -0.3771 -0.9251
vn -0.0169 -0.0715 -0.9973
vn -0.2219 -0.5097 -0.8313
vn 0.0109 0.1645 -0.9863
vn 0.2859 0.7733 -0.5659
vn 0.2761 0.9245 -0.2628
vn -0.0013 -0.4003 -0.9164
vn 0.2222 0.3795 -0.8981
vn -0.0680 -0.1895 -0.9795
vn -0.5132 -0.8518 -0.1047
vn 0.3438 0.7424 -0.5751
vn 0.3109 0.9417 0.1282
vn -0.2602 0.6322 0.7298
vn 0.4096 0.5088 -0.7572
vn 0.2610 0.0766 -0.9623
vn 0.5006 0.7803 -0.3750
vn -0.4157 -0.8040 -0.4251
vn 0.2615 0.7966 0.5450
vn 0.4715 0.8522 0.2268
vn 0.1379 0.6621 -0.7366
vn -0.3764 -0.8310 -0.4095
vn 0.3280 0.8428 -0.4268
vn 0.2689 0.9422 0.1998
vn -0.4363 -0.0851 0.8958
vn 0.1357 0.7559 0.6405
vn 0.1761 -0.4463 -0.8774
vn -0.2602 -0.7066 -0.6580
vn 0.1537 -0.0253 -0.9878
vn -0.1038 -0.4702 -0.8764
vn 0.7787 0.3416 -0.5263
vn -0.2322 -0.6994 -0.6760
vn 0.7763 0.6213 -0.1065
vn 0.5962 0.6434 -0.4801
vn -0.3069 -0.7964 -0.5211
vn -0.5094 -0.8047 -0.3050
vn -0.5328 -0.8358 0.1323
vn 0.2882 0.9320 0.2199
vn 0.2132 0.7271 0.6526
vn 0.7057 -0.5179 -0.4835
vn -0.1758 -0.8724 -0.4561
vn 0.4552 0.8904 -0.0002
vn -0.4001 -0.7126 0.5763
vn -0.0952 0.5812 0.8082
vn -0.4313 -0.5953 0.6779
vn -0.4058 -0.5717 0.7131
vn -0.0195 0.4856 0.8739
vn 0.0193 0.3115 0.9500
vn 0.9944 -0.0443 -0.0959
vn -0.4889 -0.8603 0.1443
vn -0.4633 -0.4081 0.7867
vn 0.0459 0.4377 0.8980
vn 0.4161 -0.8771 -0.2401
vn -0.4122 -0.9029 -0.1222
vn -0.5177 -0.8550 0.0330
vn -0.4981 -0.5708 0.6527
vn -0.1794 -0.0662 0.9815
vn -0.1273 0.1723 0.9768
vn -0.0486 0.8980 0.4372
vn -0.4895 -0.8682 -0.0811
vn -0.2427 -0.9467 -0.2118
vn -0.6705 -0.5704 0.4743
vn -0.6044 -0.3742 0.7033
vn -0.2571 0.0814 0.9630
vn -0.4943 0.0495 0.8679
vn 0.4653 0.8851 -0.0116
vn 0.8093 0.5871 -0.0173
vn -0.4316 0.5635 0.7044
vn -0.0244 0.9651 0.2606
vn 0.9380 0.3444 -0.0404
vn -0.7168 -0.0752 0.6933
vn -0.1216 -0.9920 -0.0334
vn -0.7060 -0.6565 0.2656
vn -0.7869 0.4757 0.3932
vn 0.5713 -0.8204 -0.0233
vn -0.8580 -0.2093 0.4692
vn -0.7880 -0.6155 -0.0148
vn -0.9828 -0.1482 0.1101
vn 0.4693 0.5327 0.7042
vn 0.2580 0.7073 0.6581
vn -0.0504 0.9974 0.0516
vn -0.6609 -0.2518 0.7070
vn -0.8124 0.1685 0.5582
vn 0.0339 -0.7902 0.6119
vn 0.6367 -0.4275 0.6417
vn -0.6765 -0.4132 0.6096
vn -0.6985 -0.3199 0.6402
vn 0.6893 -0.1212 0.7142
vn -0.1347 -0.6876 0.7135
vn 0.5590 0.5002 0.6613
vn 0.6116 0.3581 0.7055
vn -0.2947 0.7608 0.5782
vn 0.1550 0.6650 0.7306
vn -0.7027 0.3831 0.5995
vn -0.3153 0.5810 0.7503
vn 0.7584 -0.0247 0.6513
vn 0.1971 0.6810 0.7053
vn 0.6870 0.2848 0.6686
vn -0.4756 -0.5585 0.6796
vn -0.3907 -0.6371 0.6644
vn -0.6635 0.1068 0.7405
vn -0.3204 -0.6816 0.6578
vn 0.6843 0.2344 0.6905
usemtl mtl1.571
s 1
f 9//7 10//8 11//9
f 9//7 12//10 10//8
f 13//11 14//12 15//13
f 14//12 16//14 15//13
f 16//14 17//15 15//13
f 13//11 15//13 18//16
f 18//16 15//13 17//15
f 18//16 17//15 19//17
f 20//18 21//19 22//20
f 10//8 20//18 23//21
f 12//10 20//18 10//8
f 10//8 23//21 11//9
f 24//22 20//18 12//10
f 25//23 21//19 24//22
f 24//22 21//19 20//18
f 24//22 12//10 9//7
f 11//9 26//24 9//7
f 27//25 28//26 14//12
f 13//11 27//25 14//12
f 28//26 27//25 29//27
f 30//28 22//20 16//14
f 17//15 16//14 22//20
f 18//16 31//29 32//30
f 17//15 22//20 33//31
f 17//15 33//31 19//17
f 18//16 19//17 31//29
f 23//21 20//18 34//32
f 20//18 22//20 34//32
f 33//31 22//20 35//33
f 19//17 33//31 36//34
f 35//33 22//20 21//19
f 36//34 33//31 35//33
f 23//21 37//35 11//9
f 35//33 21//19 25//23
f 11//9 37//35 26//24
f 26//24 38//36 9//7
f 24//22 9//7 38//36
f 39//37 40//38 41//39
f 40//38 42//40 41//39
f 43//41 39//37 41//39
f 41//39 42//40 28//26
f 42//40 44//42 14//12
f 45//43 43//41 46//44
f 46//44 43//41 41//39
f 42//40 14//12 28//26
f 41//39 28//26 46//44
f 47//45 16//14 14//12
f 16//14 47//45 48//46
f 28//26 29//27 46//44
f 48//46 49//47 16//14
f 32//30 50//48 27//25
f 50//48 29//27 27//25
f 16//14 49//47 30//28
f 32//30 31//29 50//48
f 34//32 22//20 30//28
f 36//34 35//33 51//49
f 35//33 25//23 51//49
f 38//36 25//23 24//22
f 39//37 52//50 53//51
f 39//37 53//51 40//38
f 39//37 43//41 52//50
f 14//12 44//42 47//45
f 54//52 46//44 29//27
f 55//53 30//28 49//47
f 50//48 31//29 56//54
f 57//55 30//28 55//53
f 30//28 57//55 34//32
f 34//32 57//55 58//56
f 58//56 23//21 34//32
f 37//35 23//21 58//56
f 51//49 31//29 36//34
f 19//17 36//34 31//29
f 37//35 59//57 26//24
f 59//57 60//58 38//36
f 38//36 51//49 25//23
f 60//58 51//49 38//36
f 38//36 26//24 59//57
f 40//38 44//42 42//40
f 52//50 43//41 61//59
f 61//59 43//41 45//43
f 47//45 62//60 48//46
f 48//46 62//60 63//61
f 45//43 46//44 54//52
f 63//61 49//47 48//46
f 29//27 50//48 54//52
f 56//54 31//29 64//62
f 31//29 51//49 64//62
f 60//58 59//57 37//35
f 64//62 51//49 60//58
f 53//51 52//50 65//63
f 44//42 40//38 66//64
f 67//65 44//42 66//64
f 44//42 67//65 47//45
f 47//45 68//66 62//60
f 68//66 47//45 67//65
f 63//61 69//67 49//47
f 55//53 49//47 69//67
f 70//68 69//67 63//61
f 70//68 56//54 64//62
f 56//54 71//69 50//48
f 57//55 55//53 69//67
f 58//56 57//55 60//58
f 60//58 57//55 69//67
f 64//62 69//67 70//68
f 58//56 60//58 37//35
f 64//62 60//58 69//67
f 72//70 53//51 73//71
f 72//70 40//38 53//51
f 65//63 52//50 61//59
f 72//70 66//64 40//38
f 67//65 66//64 74//72
f 67//65 75//73 68//66
f 62//60 68//66 63//61
f 68//66 76//74 63//61
f 77//75 76//74 68//66
f 76//74 70//68 63//61
f 56//54 70//68 76//74
f 77//75 56//54 76//74
f 74//72 75//73 67//65
f 45//43 78//76 79//77
f 56//54 80//78 71//69
f 56//54 77//75 80//78
f 78//76 45//43 54//52
f 54//52 50//48 81//79
f 53//51 65//63 73//71
f 61//59 45//43 82//80
f 74//72 83//81 75//73
f 82//80 45//43 79//77
f 75//73 77//75 68//66
f 71//69 80//78 81//79
f 50//48 71//69 81//79
f 73//71 84//82 72//70
f 65//63 84//82 73//71
f 85//83 66//64 72//70
f 85//83 74//72 66//64
f 75//73 83//81 77//75
f 83//81 80//78 77//75
f 86//84 80//78 83//81
f 78//76 54//52 81//79
f 65//63 61//59 87//85
f 85//83 88//86 74//72
f 74//72 88//86 83//81
f 80//78 86//84 81//79
f 65//63 87//85 84//82
f 72//70 89//87 85//83
f 86//84 83//81 88//86
f 88//86 90//88 86//84
f 88//86 85//83 90//88
f 106//89 78//76 107//90
f 78//76 81//79 91//91
f 85//83 89//87 90//88
f 81//79 86//84 91//91
f 99//92 100//93 90//88
f 114//94 87//85 113//95
f 94//96 93//97 89//87
f 87//85 111//98 113//95
f 87//85 114//94 110//99
f 79//77 109//100 112//101
f 79//77 106//89 109//100
f 91//91 104//102 105//103
f 108//104 91//91 86//84
f 91//91 103//105 104//102
f 87//85 102//106 111//98
f 91//91 107//90 78//76
f 91//91 105//103 101//107
f 96//108 92//109 115//110
f 90//88 108//104 86//84
f 90//88 100//93 98//111
f 84//82 115//110 72//70
f 87//85 97//112 84//82
f 112//101 82//80 79//77
f 82//80 102//106 61//59
f 82//80 96//108 95//113
f 90//88 93//97 99//92
f 115//110 89//87 72//70
f 89//87 92//109 94//96
f 79//77 78//76 106//89
f 108//104 103//105 91//91
f 87//85 61//59 102//106
f 91//91 101//107 107//90
f 96//108 112//101 92//109
f 112//101 109//100 92//109
f 109//100 106//89 92//109
f 106//89 107//90 93//97
f 107//90 101//107 93//97
f 101//107 105//103 99//92
f 93//97 101//107 99//92
f 105//103 104//102 103//105
f 103//105 108//104 98//111
f 98//111 100//93 99//92
f 93//97 94//96 92//109
f 98//111 99//92 103//105
f 105//103 103//105 99//92
f 106//89 93//97 92//109
f 95//113 96//108 97//112
f 111//98 102//106 110//99
f 102//106 95//113 97//112
f 110//99 102//106 97//112
f 114//94 113//95 111//98
f 115//110 97//112 96//108
f 110//99 114//94 111//98
f 90//88 98//111 108//104
f 84//82 97//112 115//110
f 87//85 110//99 97//112
f 112//101 96//108 82//80
f 82//80 95//113 102//106
f 90//88 89//87 93//97
f 115//110 92//109 89//87
