# Blender v2.92.0 OBJ File: 'convert_to_one_sided.blend'
# www.blender.org
mtllib 611L.mtl
o 611
v 6.775093 3.005770 5.271163
v 6.765833 3.002340 5.280962
v 6.768643 2.986211 5.289752
v 6.784053 3.001720 5.283113
v 7.359915 2.825693 5.311172
v 7.350885 2.755494 5.328102
v 7.269277 2.826443 5.307092
v 7.145148 2.810333 5.330502
v 7.185947 2.863962 5.309452
v 7.272916 2.843632 5.309052
v 7.214437 2.864482 5.308372
v 6.839052 2.967731 5.303682
v 6.914001 2.962061 5.306052
v 7.006560 2.903322 5.319602
v 6.800612 2.959771 5.317442
v 6.839782 2.983231 5.299633
v 6.921931 2.959461 5.306952
v 6.784133 2.979751 5.303652
v 7.404554 2.768143 5.329382
v 7.466244 2.728964 5.333322
v 7.475914 2.745024 5.345282
v 6.998500 2.858102 5.344472
v 7.223167 2.846962 5.324092
v 7.353285 2.809443 5.289823
v 7.113478 2.890332 5.315112
v 6.898961 2.917621 5.336422
v 7.017729 2.918482 5.317742
v 7.116788 2.887232 5.315492
v 6.801682 2.959951 5.321372
v 6.850872 2.966541 5.311272
v 7.608632 2.607646 5.360791
v 7.514683 2.612845 5.388402
v 7.543283 2.667365 5.354321
v 7.459254 2.683285 5.359221
v 7.616482 2.632375 5.370411
v 7.378175 2.666235 5.381441
v 7.612282 2.655675 5.445301
v 7.540773 2.692805 5.371811
v 7.243657 2.718924 5.374851
v 7.150138 2.760664 5.366481
v 7.073939 2.817303 5.356862
v 7.398664 2.769753 5.375902
v 7.006640 2.915552 5.323502
v 7.635592 2.567646 5.412491
v 7.595992 2.555046 5.430100
v 7.513923 2.719274 5.432011
v 6.996970 2.857362 5.350702
v 7.259407 2.777853 5.388621
v 6.928771 2.893222 5.346992
v 6.857081 2.936921 5.331501
v 6.819712 2.960111 5.323482
v 6.913041 2.920242 5.331792
v 7.649821 2.564606 5.519549
v 7.185528 2.735124 5.381981
v 7.137918 2.773633 5.373841
v 7.085168 2.856462 5.350152
v 7.630272 2.529106 5.487130
v 7.432644 2.610935 5.443060
v 7.329466 2.662085 5.415521
v 7.244177 2.713154 5.395531
v 7.034780 2.844982 5.350771
v 7.143668 2.796363 5.370641
v 7.381995 2.747874 5.446131
v 7.552523 2.550696 5.525929
v 7.604272 2.529146 5.494190
v 7.401285 2.636595 5.481070
v 7.338885 2.677935 5.444440
v 7.217017 2.751074 5.389381
v 7.307676 2.718724 5.429261
v 7.570802 2.698154 5.577708
v 7.631252 2.638735 5.600489
v 7.387975 2.727114 5.480070
v 7.463604 2.726884 5.507920
v 7.651122 2.599806 5.618498
v 7.391425 2.687384 5.489700
v 7.619722 2.520727 5.550769
v 7.468904 2.616445 5.559269
v 7.457364 2.696694 5.581639
v 7.646882 2.523987 5.687217
v 7.439214 2.660715 5.551979
v 7.509683 2.595135 5.669378
v 7.473594 2.661405 5.654278
v 7.511403 2.712934 5.680898
v 7.535338 2.571934 5.699999
v 7.495714 2.613129 5.699999
v 7.500731 2.598897 5.699999
v 7.654765 2.589468 5.699999
v 7.637152 2.625174 5.699999
v 7.580280 2.536678 5.699999
v 7.479545 2.694351 5.699999
v 7.472657 2.653441 5.699999
v 7.470347 2.671062 5.699999
v 7.538677 2.707382 5.699999
v 7.655717 2.574916 5.699999
v 7.488955 2.703212 5.699999
v 7.506207 2.713821 5.699999
v 7.515565 2.712241 5.699999
v 7.599949 2.675882 5.699999
v 7.556670 2.703486 5.699999
v 7.479156 2.699381 5.699999
v 7.608613 2.667179 5.699999
v 7.628415 2.528056 5.699999
v 7.648470 2.531701 5.699999
v 7.633583 2.632097 5.699999
v 7.647535 2.525146 5.699999
v 7.644979 2.523859 5.699999
v 7.566280 2.542870 5.699999
vn -0.2216 0.9708 -0.0921
vn -0.4542 -0.3531 -0.8179
vn -0.9260 0.0284 0.3765
vn 0.2054 0.0440 -0.9777
vn 0.0926 -0.0764 -0.9928
vn -0.0442 -0.3771 -0.9251
vn -0.0169 -0.0715 -0.9973
vn -0.2219 -0.5097 -0.8313
vn 0.0109 0.1645 -0.9863
vn 0.2859 0.7733 -0.5659
vn 0.2761 0.9245 -0.2628
vn -0.0013 -0.4003 -0.9164
vn 0.2222 0.3795 -0.8981
vn -0.0680 -0.1895 -0.9795
vn -0.5132 -0.8518 -0.1047
vn 0.3438 0.7424 -0.5751
vn 0.3109 0.9417 0.1282
vn -0.2602 0.6322 0.7298
vn 0.4096 0.5088 -0.7572
vn 0.2610 0.0766 -0.9623
vn 0.5006 0.7803 -0.3750
vn -0.4157 -0.8040 -0.4251
vn 0.2615 0.7966 0.5450
vn 0.4715 0.8522 0.2268
vn 0.1379 0.6621 -0.7366
vn -0.3764 -0.8310 -0.4095
vn 0.3280 0.8428 -0.4268
vn 0.2689 0.9422 0.1998
vn -0.4363 -0.0851 0.8958
vn 0.1357 0.7559 0.6405
vn 0.1761 -0.4463 -0.8774
vn -0.2602 -0.7066 -0.6580
vn 0.1537 -0.0253 -0.9878
vn -0.1038 -0.4702 -0.8764
vn 0.7787 0.3416 -0.5263
vn -0.2322 -0.6994 -0.6760
vn 0.7763 0.6213 -0.1065
vn 0.5962 0.6434 -0.4801
vn -0.3069 -0.7964 -0.5211
vn -0.5094 -0.8047 -0.3050
vn -0.5328 -0.8358 0.1323
vn 0.2882 0.9320 0.2199
vn 0.2132 0.7271 0.6526
vn 0.7057 -0.5179 -0.4835
vn -0.1758 -0.8724 -0.4561
vn 0.4552 0.8904 -0.0002
vn -0.4001 -0.7126 0.5763
vn -0.0952 0.5812 0.8082
vn -0.4313 -0.5953 0.6779
vn -0.4058 -0.5717 0.7131
vn -0.0195 0.4856 0.8739
vn 0.0193 0.3115 0.9500
vn 0.9944 -0.0443 -0.0959
vn -0.4889 -0.8603 0.1443
vn -0.4633 -0.4081 0.7867
vn 0.0459 0.4377 0.8980
vn 0.4161 -0.8771 -0.2401
vn -0.4122 -0.9029 -0.1222
vn -0.5177 -0.8550 0.0330
vn -0.4981 -0.5708 0.6527
vn -0.1794 -0.0662 0.9815
vn -0.1273 0.1723 0.9768
vn -0.0486 0.8980 0.4372
vn -0.4895 -0.8682 -0.0811
vn -0.2427 -0.9467 -0.2118
vn -0.6705 -0.5704 0.4743
vn -0.6044 -0.3742 0.7033
vn -0.2571 0.0814 0.9630
vn -0.4943 0.0495 0.8679
vn 0.4653 0.8851 -0.0116
vn 0.8093 0.5871 -0.0173
vn -0.4316 0.5635 0.7044
vn -0.0244 0.9651 0.2606
vn 0.9380 0.3444 -0.0404
vn -0.7168 -0.0752 0.6933
vn -0.1216 -0.9920 -0.0334
vn -0.7060 -0.6565 0.2656
vn -0.7869 0.4757 0.3932
vn 0.5713 -0.8204 -0.0233
vn -0.8580 -0.2093 0.4692
vn -0.7880 -0.6155 -0.0148
vn -0.9828 -0.1482 0.1101
vn 0.4693 0.5327 0.7042
vn 0.2580 0.7073 0.6581
vn -0.0504 0.9974 0.0516
vn -0.6609 -0.2518 0.7070
vn -0.8124 0.1685 0.5582
vn 0.0339 -0.7902 0.6119
vn 0.6367 -0.4275 0.6417
vn -0.6765 -0.4132 0.6096
vn -0.6985 -0.3199 0.6402
vn 0.6893 -0.1212 0.7142
vn -0.1347 -0.6876 0.7135
vn 0.5590 0.5002 0.6613
vn 0.6116 0.3581 0.7055
vn -0.2947 0.7608 0.5782
vn 0.1550 0.6650 0.7306
vn -0.7027 0.3831 0.5995
vn -0.3153 0.5810 0.7503
vn 0.7584 -0.0247 0.6513
vn 0.1971 0.6810 0.7053
vn 0.6870 0.2848 0.6686
vn -0.4756 -0.5585 0.6796
vn -0.3907 -0.6371 0.6644
vn -0.6635 0.1068 0.7405
vn -0.3204 -0.6816 0.6578
vn 0.6843 0.2344 0.6905
usemtl mtl1.1390
s 1
f 1//1 2//2 3//3
f 1//1 4//4 2//2
f 5//5 6//6 7//7
f 6//6 8//8 7//7
f 8//8 9//9 7//7
f 5//5 7//7 10//10
f 10//10 7//7 9//9
f 10//10 9//9 11//11
f 12//12 13//13 14//14
f 2//2 12//12 15//15
f 4//4 12//12 2//2
f 2//2 15//15 3//3
f 16//16 12//12 4//4
f 17//17 13//13 16//16
f 16//16 13//13 12//12
f 16//16 4//4 1//1
f 3//3 18//18 1//1
f 19//19 20//20 6//6
f 5//5 19//19 6//6
f 20//20 19//19 21//21
f 22//22 14//14 8//8
f 9//9 8//8 14//14
f 10//10 23//23 24//24
f 9//9 14//14 25//25
f 9//9 25//25 11//11
f 10//10 11//11 23//23
f 15//15 12//12 26//26
f 12//12 14//14 26//26
f 25//25 14//14 27//27
f 11//11 25//25 28//28
f 27//27 14//14 13//13
f 28//28 25//25 27//27
f 15//15 29//29 3//3
f 27//27 13//13 17//17
f 3//3 29//29 18//18
f 18//18 30//30 1//1
f 16//16 1//1 30//30
f 31//31 32//32 33//33
f 32//32 34//34 33//33
f 35//35 31//31 33//33
f 33//33 34//34 20//20
f 34//34 36//36 6//6
f 37//37 35//35 38//38
f 38//38 35//35 33//33
f 34//34 6//6 20//20
f 33//33 20//20 38//38
f 39//39 8//8 6//6
f 8//8 39//39 40//40
f 20//20 21//21 38//38
f 40//40 41//41 8//8
f 24//24 42//42 19//19
f 42//42 21//21 19//19
f 8//8 41//41 22//22
f 24//24 23//23 42//42
f 26//26 14//14 22//22
f 28//28 27//27 43//43
f 27//27 17//17 43//43
f 30//30 17//17 16//16
f 31//31 44//44 45//45
f 31//31 45//45 32//32
f 31//31 35//35 44//44
f 6//6 36//36 39//39
f 46//46 38//38 21//21
f 47//47 22//22 41//41
f 42//42 23//23 48//48
f 49//49 22//22 47//47
f 22//22 49//49 26//26
f 26//26 49//49 50//50
f 50//50 15//15 26//26
f 29//29 15//15 50//50
f 43//43 23//23 28//28
f 11//11 28//28 23//23
f 29//29 51//51 18//18
f 51//51 52//52 30//30
f 30//30 43//43 17//17
f 52//52 43//43 30//30
f 30//30 18//18 51//51
f 32//32 36//36 34//34
f 44//44 35//35 53//53
f 53//53 35//35 37//37
f 39//39 54//54 40//40
f 40//40 54//54 55//55
f 37//37 38//38 46//46
f 55//55 41//41 40//40
f 21//21 42//42 46//46
f 48//48 23//23 56//56
f 23//23 43//43 56//56
f 52//52 51//51 29//29
f 56//56 43//43 52//52
f 45//45 44//44 57//57
f 36//36 32//32 58//58
f 59//59 36//36 58//58
f 36//36 59//59 39//39
f 39//39 60//60 54//54
f 60//60 39//39 59//59
f 55//55 61//61 41//41
f 47//47 41//41 61//61
f 62//62 61//61 55//55
f 62//62 48//48 56//56
f 48//48 63//63 42//42
f 49//49 47//47 61//61
f 50//50 49//49 52//52
f 52//52 49//49 61//61
f 56//56 61//61 62//62
f 50//50 52//52 29//29
f 56//56 52//52 61//61
f 64//64 45//45 65//65
f 64//64 32//32 45//45
f 57//57 44//44 53//53
f 64//64 58//58 32//32
f 59//59 58//58 66//66
f 59//59 67//67 60//60
f 54//54 60//60 55//55
f 60//60 68//68 55//55
f 69//69 68//68 60//60
f 68//68 62//62 55//55
f 48//48 62//62 68//68
f 69//69 48//48 68//68
f 66//66 67//67 59//59
f 37//37 70//70 71//71
f 48//48 72//72 63//63
f 48//48 69//69 72//72
f 70//70 37//37 46//46
f 46//46 42//42 73//73
f 45//45 57//57 65//65
f 53//53 37//37 74//74
f 66//66 75//75 67//67
f 74//74 37//37 71//71
f 67//67 69//69 60//60
f 63//63 72//72 73//73
f 42//42 63//63 73//73
f 65//65 76//76 64//64
f 57//57 76//76 65//65
f 77//77 58//58 64//64
f 77//77 66//66 58//58
f 67//67 75//75 69//69
f 75//75 72//72 69//69
f 78//78 72//72 75//75
f 70//70 46//46 73//73
f 57//57 53//53 79//79
f 77//77 80//80 66//66
f 66//66 80//80 75//75
f 72//72 78//78 73//73
f 57//57 79//79 76//76
f 64//64 81//81 77//77
f 78//78 75//75 80//80
f 80//80 82//82 78//78
f 80//80 77//77 82//82
f 98//83 70//70 99//84
f 70//70 73//73 83//85
f 77//77 81//81 82//82
f 73//73 78//78 83//85
f 91//86 92//87 82//82
f 106//88 79//79 105//89
f 86//90 85//91 81//81
f 79//79 103//92 105//89
f 79//79 106//88 102//93
f 71//71 101//94 104//95
f 71//71 98//83 101//94
f 83//85 96//96 97//97
f 100//98 83//85 78//78
f 83//85 95//99 96//96
f 79//79 94//100 103//92
f 83//85 99//84 70//70
f 83//85 97//97 93//101
f 88//102 84//103 107//104
f 82//82 100//98 78//78
f 82//82 92//87 90//105
f 76//76 107//104 64//64
f 79//79 89//106 76//76
f 104//95 74//74 71//71
f 74//74 94//100 53//53
f 74//74 88//102 87//107
f 82//82 85//91 91//86
f 107//104 81//81 64//64
f 81//81 84//103 86//90
f 71//71 70//70 98//83
f 100//98 95//99 83//85
f 79//79 53//53 94//100
f 83//85 93//101 99//84
f 88//102 104//95 84//103
f 104//95 101//94 84//103
f 101//94 98//83 84//103
f 98//83 99//84 85//91
f 99//84 93//101 85//91
f 93//101 97//97 91//86
f 85//91 93//101 91//86
f 97//97 96//96 95//99
f 95//99 100//98 90//105
f 90//105 92//87 91//86
f 85//91 86//90 84//103
f 90//105 91//86 95//99
f 97//97 95//99 91//86
f 98//83 85//91 84//103
f 87//107 88//102 89//106
f 103//92 94//100 102//93
f 94//100 87//107 89//106
f 102//93 94//100 89//106
f 106//88 105//89 103//92
f 107//104 89//106 88//102
f 102//93 106//88 103//92
f 82//82 90//105 100//98
f 76//76 89//106 107//104
f 79//79 102//93 89//106
f 104//95 88//102 74//74
f 74//74 87//107 94//100
f 82//82 81//81 85//91
f 107//104 84//103 81//81
