# Blender v2.92.0 OBJ File: 'convert_to_one_sided.blend'
# www.blender.org
mtllib 614454277L.mtl
o Cube
v 0.001000 0.001000 -0.001000
v 0.001000 -0.001000 -0.001000
v 0.001000 0.001000 0.001000
v 0.001000 -0.001000 0.001000
v -0.001000 0.001000 -0.001000
v -0.001000 -0.001000 -0.001000
v -0.001000 0.001000 0.001000
v -0.001000 -0.001000 0.001000
vt 0.625000 0.500000
vt 0.875000 0.500000
vt 0.875000 0.750000
vt 0.625000 0.750000
vt 0.375000 0.750000
vt 0.625000 1.000000
vt 0.375000 1.000000
vt 0.375000 0.000000
vt 0.625000 0.000000
vt 0.625000 0.250000
vt 0.375000 0.250000
vt 0.125000 0.500000
vt 0.375000 0.500000
vt 0.125000 0.750000
vn 0.0000 1.0000 0.0000
vn 0.0000 0.0000 1.0000
vn -1.0000 0.0000 0.0000
vn 0.0000 -1.0000 0.0000
vn 1.0000 0.0000 0.0000
vn 0.0000 0.0000 -1.0000
usemtl Material
s off
f 1/1/1 5/2/1 7/3/1 3/4/1
f 4/5/2 3/4/2 7/6/2 8/7/2
f 8/8/3 7/9/3 5/10/3 6/11/3
f 6/12/4 2/13/4 4/5/4 8/14/4
f 2/13/5 1/1/5 3/4/5 4/5/5
f 6/11/6 5/10/6 1/1/6 2/13/6
o 614454277
v 9.392030 3.559603 5.231813
v 9.369530 3.524594 5.247383
v 9.335270 3.550133 5.243203
v 9.366220 3.588303 5.248783
v 9.269590 3.574173 5.258433
v 9.287741 3.609483 5.270743
v 9.349460 3.611573 5.287522
v 9.257661 3.524144 5.270212
v 9.303330 3.480944 5.309252
v 9.364180 3.464025 5.341672
v 9.401699 3.513594 5.319452
v 9.404259 3.558463 5.277653
v 9.201811 3.587183 5.296923
v 9.199561 3.474664 5.335902
v 9.177292 3.532284 5.311342
v 9.231561 3.610852 5.299542
v 9.133702 3.487294 5.361321
v 9.416709 3.527843 5.367782
v 9.389380 3.574063 5.315642
v 9.183632 3.596093 5.331952
v 9.267310 3.609373 5.325612
v 9.104833 3.517944 5.369231
v 9.140102 3.558873 5.348581
v 9.356000 3.574953 5.378612
v 9.312720 3.419765 5.411111
v 9.354899 3.435485 5.396021
v 9.366449 3.440695 5.421751
v 9.229971 3.432095 5.394761
v 9.097302 3.538464 5.387721
v 9.127703 3.561283 5.392581
v 9.396119 3.539524 5.398581
v 9.291560 3.557143 5.444870
v 9.159942 3.438485 5.417421
v 9.115553 3.462754 5.431201
v 9.396269 3.476034 5.432861
v 9.100383 3.499534 5.426230
v 9.378779 3.513874 5.475400
v 9.210702 3.549023 5.443161
v 9.113603 3.501254 5.456280
v 9.386080 3.476824 5.481680
v 9.344290 3.517904 5.490450
v 9.227592 3.398565 5.494349
v 9.151642 3.424825 5.487430
v 9.130613 3.451114 5.487240
v 9.153583 3.505894 5.486150
v 9.319930 3.407865 5.491560
v 9.356080 3.430385 5.496420
v 9.221581 3.474644 5.548279
v 9.291121 3.502504 5.516999
v 9.292060 3.406375 5.546219
v 9.181782 3.415715 5.532769
v 9.173182 3.458435 5.518189
v 9.232911 3.410435 5.544429
v 9.343889 3.467244 5.532959
v 9.340229 3.438885 5.530839
v 9.248491 3.430845 5.552989
v 9.304951 3.438525 5.550389
v 9.281671 3.460705 5.539619
vn 0.5884 -0.0554 -0.8067
vn 0.2351 -0.6771 -0.6974
vn -0.1658 -0.2063 -0.9643
vn 0.3084 0.6872 -0.6578
vn -0.3175 0.1673 -0.9334
vn -0.1365 0.8279 -0.5440
vn 0.3246 0.9458 -0.0076
vn -0.2808 -0.4523 -0.8465
vn -0.0642 -0.7782 -0.6247
vn 0.4234 -0.8069 -0.4119
vn 0.8262 -0.4969 -0.2655
vn 0.9213 0.3400 -0.1885
vn -0.5439 0.4633 -0.6997
vn -0.2844 -0.7077 -0.6467
vn -0.5463 -0.1609 -0.8220
vn -0.2821 0.9207 -0.2696
vn -0.5398 -0.5979 -0.5926
vn 0.9843 0.1432 0.1029
vn 0.6914 0.7162 0.0946
vn -0.4250 0.9050 -0.0192
vn -0.0161 0.9708 0.2393
vn -0.8400 -0.1689 -0.5156
vn -0.7067 0.4832 -0.5168
vn 0.3582 0.8556 0.3737
vn 0.1470 -0.9426 -0.2999
vn 0.4457 -0.8705 -0.2086
vn 0.6261 -0.7721 -0.1089
vn -0.1249 -0.8894 -0.4398
vn -0.9016 0.4315 -0.0298
vn -0.4989 0.8217 0.2755
vn 0.7461 0.5829 0.3218
vn 0.0520 0.8653 0.4986
vn -0.3688 -0.8560 -0.3624
vn -0.7776 -0.6080 -0.1600
vn 0.8838 -0.4662 0.0383
vn -0.9819 -0.1405 0.1270
vn 0.6148 0.5799 0.5345
vn -0.1320 0.8512 0.5080
vn -0.7366 0.3574 0.5742
vn 0.8979 -0.0230 0.4395
vn 0.2510 0.7508 0.6109
vn -0.1275 -0.9914 -0.0290
vn -0.5735 -0.8182 0.0412
vn -0.8458 -0.2440 0.4744
vn -0.4277 0.6052 0.6714
vn 0.3344 -0.9424 -0.0025
vn 0.7079 -0.6637 0.2416
vn -0.1624 0.4564 0.8748
vn 0.0659 0.6714 0.7381
vn 0.2664 -0.7298 0.6297
vn -0.5050 -0.5240 0.6858
vn -0.5465 0.1474 0.8244
vn -0.1494 -0.7299 0.6671
vn 0.4186 0.3415 0.8415
vn 0.6489 -0.3154 0.6924
vn -0.1288 -0.0536 0.9902
vn 0.2305 0.0299 0.9726
vn 0.1008 0.3866 0.9167
usemtl mtl1.575
s 1
f 9//7 10//8 11//9
f 12//10 11//9 13//11
f 9//7 11//9 12//10
f 12//10 13//11 14//12
f 15//13 12//10 14//12
f 16//14 11//9 17//15
f 11//9 10//8 17//15
f 17//15 10//8 18//16
f 18//16 10//8 19//17
f 9//7 19//17 10//8
f 13//11 11//9 16//14
f 20//18 19//17 9//7
f 9//7 12//10 20//18
f 14//12 13//11 21//19
f 16//14 22//20 23//21
f 17//15 22//20 16//14
f 23//21 21//19 13//11
f 23//21 13//11 16//14
f 24//22 14//12 21//19
f 23//21 22//20 25//23
f 19//17 20//18 26//24
f 12//10 27//25 20//18
f 28//26 24//22 21//19
f 27//25 12//10 15//13
f 14//12 24//22 29//27
f 15//13 14//12 29//27
f 23//21 25//23 30//28
f 23//21 30//28 31//29
f 23//21 31//29 21//19
f 20//18 27//25 26//24
f 21//19 31//29 28//26
f 15//13 32//30 27//25
f 32//30 15//13 29//27
f 17//15 18//16 33//31
f 33//31 18//16 34//32
f 35//33 18//16 19//17
f 17//15 36//34 22//20
f 17//15 33//31 36//34
f 34//32 18//16 35//33
f 37//35 31//29 30//28
f 31//29 37//35 38//36
f 31//29 38//36 28//26
f 27//25 39//37 26//24
f 24//22 28//26 29//27
f 40//38 32//30 29//27
f 22//20 41//39 25//23
f 41//39 22//20 36//34
f 30//28 25//23 42//40
f 35//33 19//17 43//41
f 30//28 42//40 44//42
f 19//17 26//24 43//41
f 37//35 30//28 44//42
f 39//37 27//25 32//30
f 45//43 39//37 32//30
f 29//27 28//26 46//44
f 46//44 40//38 29//27
f 41//39 42//40 25//23
f 37//35 47//45 38//36
f 28//26 38//36 46//44
f 43//41 26//24 48//46
f 48//46 26//24 39//37
f 44//42 47//45 37//35
f 40//38 49//47 32//30
f 41//39 36//34 50//48
f 33//31 50//48 36//34
f 34//32 35//33 33//31
f 42//40 41//39 51//49
f 52//50 44//42 42//40
f 47//45 53//51 38//36
f 38//36 53//51 46//44
f 45//43 32//30 49//47
f 50//48 33//31 54//52
f 51//49 41//39 50//48
f 52//50 42//40 51//49
f 39//37 45//43 48//46
f 54//52 33//31 35//33
f 35//33 43//41 55//53
f 44//42 52//50 47//45
f 53//51 56//54 46//44
f 57//55 40//38 46//44
f 49//47 40//38 57//55
f 54//52 58//56 50//48
f 51//49 50//48 59//57
f 55//53 54//52 35//33
f 43//41 48//46 55//53
f 52//50 60//58 47//45
f 50//48 58//56 61//59
f 54//52 55//53 58//56
f 52//50 51//49 59//57
f 47//45 60//58 53//51
f 49//47 62//60 45//43
f 45//43 62//60 48//46
f 56//54 57//55 46//44
f 61//59 59//57 50//48
f 55//53 48//46 63//61
f 63//61 48//46 62//60
f 60//58 56//54 53//51
f 55//53 63//61 58//56
f 59//57 60//58 52//50
f 62//60 49//47 57//55
f 59//57 61//59 64//62
f 61//59 58//56 64//62
f 60//58 59//57 64//62
f 65//63 64//62 58//56
f 65//63 58//56 63//61
f 63//61 62//60 65//63
f 64//62 56//54 60//58
f 65//63 62//60 66//64
f 66//64 56//54 64//62
f 66//64 62//60 57//55
f 57//55 56//54 66//64
f 65//63 66//64 64//62
