# wavefront obj file written by the visualization toolkit


v 9392.15 3559.65 5231.88
v 9369.65 3524.64 5247.45
v 9335.39 3550.18 5243.27
v 9366.34 3588.35 5248.85
v 9269.71 3574.22 5258.5
v 9287.86 3609.53 5270.81
v 9349.58 3611.62 5287.59
v 9257.78 3524.19 5270.28
v 9303.45 3480.99 5309.32
v 9364.3 3464.07 5341.74
v 9401.82 3513.64 5319.52
v 9404.38 3558.51 5277.72
v 9201.93 3587.23 5296.99
v 9199.68 3474.71 5335.97
v 9177.41 3532.33 5311.41
v 9231.68 3610.9 5299.61
v 9133.82 3487.34 5361.39
v 9416.83 3527.89 5367.85
v 9389.5 3574.11 5315.71
v 9183.75 3596.14 5332.02
v 9267.43 3609.42 5325.68
v 9104.95 3517.99 5369.3
v 9140.22 3558.92 5348.65
v 9356.12 3575 5378.68
v 9312.84 3419.81 5411.18
v 9355.02 3435.53 5396.09
v 9366.57 3440.74 5421.82
v 9230.09 3432.14 5394.83
v 9097.42 3538.51 5387.79
v 9127.82 3561.33 5392.65
v 9396.24 3539.57 5398.65
v 9291.68 3557.19 5444.94
v 9160.06 3438.53 5417.49
v 9115.67 3462.8 5431.27
v 9396.39 3476.08 5432.93
v 9100.5 3499.58 5426.3
v 9378.9 3513.92 5475.47
v 9210.82 3549.07 5443.23
v 9113.72 3501.3 5456.35
v 9386.2 3476.87 5481.75
v 9344.41 3517.95 5490.52
v 9227.71 3398.61 5494.42
v 9151.76 3424.87 5487.5
v 9130.73 3451.16 5487.31
v 9153.7 3505.94 5486.22
v 9320.05 3407.91 5491.63
v 9356.2 3430.43 5496.49
v 9221.7 3474.69 5548.35
v 9291.24 3502.55 5517.07
v 9292.18 3406.42 5546.29
v 9181.9 3415.76 5532.84
v 9173.3 3458.48 5518.26
v 9233.03 3410.48 5544.5
v 9344.01 3467.29 5533.03
v 9340.35 3438.93 5530.91
v 9248.61 3430.89 5553.06
v 9305.07 3438.57 5550.46
v 9281.79 3460.75 5539.69
v 9310.84 3424.81 5790.91
v 9249.43 3416.77 5797
v 9283.91 3452.95 5803.92
v 9170.66 3415.45 5823.57
v 9232.1 3392.53 5827.48
v 9310.22 3407.42 5814.43
v 9352.29 3430.08 5822.23
v 9200.37 3474.99 5848.89
v 9337.31 3457.65 5822.99
v 9388.99 3473.54 5886.33
v 9157.62 3408.58 5851.93
v 9137.91 3427.91 5848.93
v 9356.13 3412.69 5863.99
v 9133.2 3460.21 5872.72
v 9283.49 3517.87 5889.15
v 9286.84 3393.15 5871.14
v 9208.86 3398 5893.16
v 9385.29 3452.83 5894.64
v 9127.54 3522.97 5920.84
v 9369.6 3530.41 5942.46
v 9118.96 3449.06 5900.04
v 9149.94 3426.94 5928
v 9413.68 3503.2 5984.08
v 9210.43 3567.19 5968.74
v 9271.78 3417.17 5964.99
v 9340.67 3420.41 5926.17
v 9113.4 3469.99 5961.08
v 9383.65 3455.76 5956.8
v 9107.64 3503.43 5950.18
v 9399.72 3522.57 5965.83
v 9124.69 3554.42 5983.31
v 9331.83 3581.11 6008.99
v 9196.78 3419.42 5949.52
v 9357.3 3460.69 6025
v 9401.26 3505.07 6058.14
v 9397.74 3553.86 6033.24
v 9113.66 3572.58 6016.68
v 9171.42 3583.85 6037.32
v 9198.85 3462.87 6015.18
v 9124.5 3512.3 6011.05
v 9118.93 3548.1 6003.11
v 9303.02 3468.93 6056.34
v 9410.44 3540.03 6069.7
v 9180.96 3564.54 6062.99
v 9236.95 3603.26 6087.63
v 9294.84 3598.44 6086.59
v 9220.29 3515.71 6076.4
v 9373.77 3583.54 6082.26
v 9279.19 3500.14 6090.62
v 9346.21 3513.17 6102.28
v 9397.76 3566.13 6095.92
v 9282.15 3556.43 6118.04
v 9271.59 3584.51 6114.35
v 9366.08 3578.57 6122.07
v 9382.33 3549.16 6101.12
v 9310.95 3580.68 6143.87
v 9319.27 3575.39 6130.94
v 9332.98 3565.36 6117.73
vn 0.588384 -0.0553437 -0.806686
vn 0.235046 -0.677071 -0.697372
vn -0.165794 -0.206285 -0.964344
vn 0.308426 0.687169 -0.657778
vn -0.317445 0.167282 -0.933405
vn -0.136539 0.827905 -0.543996
vn 0.324594 0.945823 -0.00758468
vn -0.280763 -0.4523 -0.84652
vn -0.0642214 -0.778228 -0.62469
vn 0.42336 -0.806897 -0.411927
vn 0.826215 -0.496893 -0.265455
vn 0.921333 0.340032 -0.188479
vn -0.543898 0.463299 -0.699664
vn -0.284404 -0.707704 -0.646738
vn -0.546277 -0.160849 -0.822015
vn -0.282125 0.920721 -0.26959
vn -0.539792 -0.597899 -0.592571
vn 0.984327 0.143187 0.102942
vn 0.691441 0.71621 0.094625
vn -0.425029 0.904975 -0.0192459
vn -0.0160884 0.97081 0.23931
vn -0.840031 -0.16889 -0.515581
vn -0.70668 0.483227 -0.516812
vn 0.3582 0.855593 0.373702
vn 0.146943 -0.942571 -0.299947
vn 0.445705 -0.870523 -0.208654
vn 0.626077 -0.77212 -0.108893
vn -0.12485 -0.889373 -0.439806
vn -0.901611 0.431521 -0.0297983
vn -0.498911 0.82169 0.275523
vn 0.746091 0.582899 0.321834
vn 0.0520077 0.865274 0.498594
vn -0.368831 -0.855954 -0.362361
vn -0.777617 -0.60803 -0.160036
vn 0.883794 -0.466302 0.0383425
vn -0.981897 -0.1405 0.127039
vn 0.614838 0.57989 0.534511
vn -0.132023 0.851213 0.507944
vn -0.736559 0.357395 0.574238
vn 0.897951 -0.0229988 0.439494
vn 0.251014 0.75084 0.610927
vn -0.127553 -0.991408 -0.0289952
vn -0.573487 -0.818176 0.0412398
vn -0.845802 -0.243999 0.474429
vn -0.427716 0.605187 0.671422
vn 0.334448 -0.942411 -0.00255688
vn 0.70787 -0.663744 0.241586
vn -0.162458 0.456407 0.874814
vn 0.065891 0.671401 0.738159
vn 0.26643 -0.729755 0.629661
vn -0.504996 -0.524045 0.685825
vn -0.546454 0.147415 0.824413
vn -0.149352 -0.729842 0.667102
vn 0.418601 0.341555 0.841495
vn 0.648934 -0.315413 0.692387
vn -0.128817 -0.0535564 0.990221
vn 0.230492 0.0299421 0.972613
vn 0.100804 0.386546 0.916745
vn 0.303787 -0.0753464 -0.949756
vn -0.185129 -0.205786 -0.960926
vn -0.0389051 0.581393 -0.812692
vn -0.495648 -0.180081 -0.849649
vn -0.118233 -0.924787 -0.361649
vn 0.264142 -0.836843 -0.479503
vn 0.765895 -0.282679 -0.577492
vn -0.259724 0.618106 -0.741949
vn 0.421453 0.58342 -0.694261
vn 0.833073 0.288396 -0.472035
vn -0.521175 -0.842068 -0.138918
vn -0.830709 -0.243146 -0.500801
vn 0.580967 -0.811216 -0.0663826
vn -0.716529 0.328157 -0.615548
vn 0.0685431 0.819966 -0.568294
vn 0.149729 -0.986388 0.0679718
vn -0.16654 -0.96899 0.182546
vn 0.900562 -0.407079 -0.152564
vn -0.53328 0.642236 -0.550586
vn 0.421371 0.771127 -0.477295
vn -0.91887 -0.382483 -0.0968704
vn -0.479137 -0.822838 0.305559
vn 0.994828 -0.0725006 -0.0711356
vn -0.0949701 0.900096 -0.425214
vn 0.025389 -0.917742 0.396365
vn 0.354322 -0.900093 0.25355
vn -0.776753 -0.519143 0.356575
vn 0.69416 -0.70022 0.166836
vn -0.987563 0.126073 -0.0939426
vn 0.752379 0.562096 -0.343473
vn -0.636238 0.688071 -0.348941
vn 0.23035 0.911056 -0.341931
vn -0.224007 -0.874944 0.429295
vn 0.341078 -0.840378 0.421224
vn 0.689251 -0.571739 0.445025
vn 0.722155 0.658278 -0.212515
vn -0.812254 0.525435 0.253303
vn -0.27316 0.961965 -0.00264495
vn -0.320797 -0.735791 0.596406
vn -0.741345 -0.28354 0.608287
vn -0.956891 0.0213371 0.289664
vn 0.00426184 -0.816853 0.576831
vn 0.955474 -0.00883166 0.294943
vn -0.586952 0.138812 0.797633
vn -0.325662 0.813892 0.481169
vn 0.0628411 0.991686 0.112294
vn -0.438739 -0.411 0.799116
vn 0.427374 0.904005 0.0112192
vn -0.181153 -0.617055 0.765785
vn 0.199922 -0.559352 0.804461
vn 0.832005 0.407496 0.37645
vn -0.266562 -0.293872 0.917924
vn -0.284016 0.604411 0.744327
vn 0.388157 0.447707 0.805539
vn 0.522527 -0.294402 0.800183
vn 0.166717 0.222521 0.960568
vn 0.26474 0.702022 0.661119
vn 0.285016 -0.270083 0.919685

g grp1
usemtl mtl1
f 1//1 2//2 3//3 
f 4//4 3//3 5//5 
f 1//1 3//3 4//4 
f 4//4 5//5 6//6 
f 7//7 4//4 6//6 
f 8//8 3//3 9//9 
f 3//3 2//2 9//9 
f 9//9 2//2 10//10 
f 10//10 2//2 11//11 
f 1//1 11//11 2//2 
f 5//5 3//3 8//8 
f 12//12 11//11 1//1 
f 1//1 4//4 12//12 
f 6//6 5//5 13//13 
f 8//8 14//14 15//15 
f 9//9 14//14 8//8 
f 15//15 13//13 5//5 
f 15//15 5//5 8//8 
f 16//16 6//6 13//13 
f 15//15 14//14 17//17 
f 11//11 12//12 18//18 
f 4//4 19//19 12//12 
f 20//20 16//16 13//13 
f 19//19 4//4 7//7 
f 6//6 16//16 21//21 
f 7//7 6//6 21//21 
f 15//15 17//17 22//22 
f 15//15 22//22 23//23 
f 15//15 23//23 13//13 
f 12//12 19//19 18//18 
f 13//13 23//23 20//20 
f 7//7 24//24 19//19 
f 24//24 7//7 21//21 
f 9//9 10//10 25//25 
f 25//25 10//10 26//26 
f 27//27 10//10 11//11 
f 9//9 28//28 14//14 
f 9//9 25//25 28//28 
f 26//26 10//10 27//27 
f 29//29 23//23 22//22 
f 23//23 29//29 30//30 
f 23//23 30//30 20//20 
f 19//19 31//31 18//18 
f 16//16 20//20 21//21 
f 32//32 24//24 21//21 
f 14//14 33//33 17//17 
f 33//33 14//14 28//28 
f 22//22 17//17 34//34 
f 27//27 11//11 35//35 
f 22//22 34//34 36//36 
f 11//11 18//18 35//35 
f 29//29 22//22 36//36 
f 31//31 19//19 24//24 
f 37//37 31//31 24//24 
f 21//21 20//20 38//38 
f 38//38 32//32 21//21 
f 33//33 34//34 17//17 
f 29//29 39//39 30//30 
f 20//20 30//30 38//38 
f 35//35 18//18 40//40 
f 40//40 18//18 31//31 
f 36//36 39//39 29//29 
f 32//32 41//41 24//24 
f 33//33 28//28 42//42 
f 25//25 42//42 28//28 
f 26//26 27//27 25//25 
f 34//34 33//33 43//43 
f 44//44 36//36 34//34 
f 39//39 45//45 30//30 
f 30//30 45//45 38//38 
f 37//37 24//24 41//41 
f 42//42 25//25 46//46 
f 43//43 33//33 42//42 
f 44//44 34//34 43//43 
f 31//31 37//37 40//40 
f 46//46 25//25 27//27 
f 27//27 35//35 47//47 
f 36//36 44//44 39//39 
f 45//45 48//48 38//38 
f 49//49 32//32 38//38 
f 41//41 32//32 49//49 
f 46//46 50//50 42//42 
f 43//43 42//42 51//51 
f 47//47 46//46 27//27 
f 35//35 40//40 47//47 
f 44//44 52//52 39//39 
f 42//42 50//50 53//53 
f 46//46 47//47 50//50 
f 44//44 43//43 51//51 
f 39//39 52//52 45//45 
f 41//41 54//54 37//37 
f 37//37 54//54 40//40 
f 48//48 49//49 38//38 
f 53//53 51//51 42//42 
f 47//47 40//40 55//55 
f 55//55 40//40 54//54 
f 52//52 48//48 45//45 
f 47//47 55//55 50//50 
f 51//51 52//52 44//44 
f 54//54 41//41 49//49 
f 51//51 53//53 56//56 
f 53//53 50//50 56//56 
f 52//52 51//51 56//56 
f 57//57 56//56 50//50 
f 57//57 50//50 55//55 
f 55//55 54//54 57//57 
f 56//56 48//48 52//52 
f 57//57 54//54 58//58 
f 58//58 48//48 56//56 
f 58//58 54//54 49//49 
f 49//49 48//48 58//58 
f 57//57 58//58 56//56 
f 59//59 60//60 61//61 
f 62//62 60//60 63//63 
f 64//64 60//60 59//59 
f 65//65 64//64 59//59 
f 60//60 62//62 66//66 
f 66//66 61//61 60//60 
f 61//61 67//67 59//59 
f 59//59 67//67 65//65 
f 67//67 68//68 65//65 
f 62//62 69//69 70//70 
f 69//69 62//62 63//63 
f 64//64 63//63 60//60 
f 64//64 65//65 71//71 
f 62//62 72//72 66//66 
f 70//70 72//72 62//62 
f 67//67 61//61 73//73 
f 63//63 74//74 75//75 
f 64//64 74//74 63//63 
f 64//64 71//71 74//74 
f 65//65 68//68 76//76 
f 66//66 72//72 77//77 
f 67//67 78//78 68//68 
f 66//66 73//73 61//61 
f 73//73 78//78 67//67 
f 63//63 75//75 69//69 
f 70//70 69//69 79//79 
f 65//65 76//76 71//71 
f 70//70 79//79 72//72 
f 69//69 80//80 79//79 
f 76//76 68//68 81//81 
f 66//66 77//77 82//82 
f 73//73 66//66 82//82 
f 74//74 83//83 75//75 
f 69//69 75//75 80//80 
f 74//74 84//84 83//83 
f 71//71 84//84 74//74 
f 79//79 80//80 85//85 
f 71//71 86//86 84//84 
f 86//86 71//71 76//76 
f 87//87 72//72 79//79 
f 77//77 72//72 87//87 
f 78//78 88//88 68//68 
f 68//68 88//88 81//81 
f 77//77 87//87 89//89 
f 78//78 73//73 90//90 
f 73//73 82//82 90//90 
f 91//91 80//80 75//75 
f 83//83 91//91 75//75 
f 82//82 77//77 89//89 
f 86//86 92//92 84//84 
f 79//79 85//85 87//87 
f 86//86 76//76 81//81 
f 86//86 81//81 93//93 
f 88//88 78//78 94//94 
f 94//94 78//78 90//90 
f 89//89 95//95 96//96 
f 89//89 96//96 82//82 
f 84//84 92//92 83//83 
f 91//91 97//97 80//80 
f 80//80 97//97 85//85 
f 92//92 86//86 93//93 
f 85//85 98//98 87//87 
f 98//98 99//99 87//87 
f 89//89 87//87 99//99 
f 89//89 99//99 95//95 
f 83//83 97//97 91//91 
f 100//100 83//83 92//92 
f 85//85 97//97 98//98 
f 81//81 88//88 94//94 
f 101//101 81//81 94//94 
f 95//95 99//99 102//102 
f 96//96 95//95 102//102 
f 102//102 103//103 96//96 
f 82//82 96//96 104//104 
f 90//90 82//82 104//104 
f 97//97 83//83 100//100 
f 97//97 105//105 98//98 
f 93//93 81//81 101//101 
f 98//98 102//102 99//99 
f 106//106 94//94 90//90 
f 106//106 90//90 104//104 
f 97//97 100//100 107//107 
f 107//107 105//105 97//97 
f 100//100 92//92 108//108 
f 92//92 93//93 108//108 
f 98//98 105//105 102//102 
f 94//94 109//109 101//101 
f 96//96 103//103 104//104 
f 102//102 105//105 110//110 
f 111//111 102//102 110//110 
f 111//111 103//103 102//102 
f 109//109 94//94 106//106 
f 112//112 109//109 106//106 
f 105//105 107//107 110//110 
f 108//108 107//107 100//100 
f 93//93 113//113 108//108 
f 93//93 101//101 113//113 
f 111//111 110//110 114//114 
f 103//103 111//111 104//104 
f 104//104 111//111 115//115 
f 104//104 115//115 112//112 
f 112//112 106//106 104//104 
f 108//108 110//110 107//107 
f 101//101 109//109 113//113 
f 109//109 112//112 113//113 
f 110//110 108//108 116//116 
f 116//116 108//108 113//113 
f 114//114 110//110 116//116 
f 113//113 112//112 116//116 
f 116//116 112//112 115//115 
f 115//115 111//111 114//114 
f 116//116 115//115 114//114 
