# Blender v2.92.0 OBJ File: 'convert_to_one_sided.blend'
# www.blender.org
mtllib 619L.mtl
o Cube
v 0.001000 0.001000 -0.001000
v 0.001000 -0.001000 -0.001000
v 0.001000 0.001000 0.001000
v 0.001000 -0.001000 0.001000
v -0.001000 0.001000 -0.001000
v -0.001000 -0.001000 -0.001000
v -0.001000 0.001000 0.001000
v -0.001000 -0.001000 0.001000
vt 0.625000 0.500000
vt 0.875000 0.500000
vt 0.875000 0.750000
vt 0.625000 0.750000
vt 0.375000 0.750000
vt 0.625000 1.000000
vt 0.375000 1.000000
vt 0.375000 0.000000
vt 0.625000 0.000000
vt 0.625000 0.250000
vt 0.375000 0.250000
vt 0.125000 0.500000
vt 0.375000 0.500000
vt 0.125000 0.750000
vn 0.0000 1.0000 0.0000
vn 0.0000 0.0000 1.0000
vn -1.0000 0.0000 0.0000
vn 0.0000 -1.0000 0.0000
vn 1.0000 0.0000 0.0000
vn 0.0000 0.0000 -1.0000
usemtl Material
s off
f 1/1/1 5/2/1 7/3/1 3/4/1
f 4/5/2 3/4/2 7/6/2 8/7/2
f 8/8/3 7/9/3 5/10/3 6/11/3
f 6/12/4 2/13/4 4/5/4 8/14/4
f 2/13/5 1/1/5 3/4/5 4/5/5
f 6/11/6 5/10/6 1/1/6 2/13/6
o 619
v 6.102931 6.733543 3.314878
v 6.060802 6.613405 3.345858
v 6.008653 6.724123 3.329268
v 6.138611 6.621634 3.342298
v 6.182380 6.721063 3.338268
v 6.164240 6.847181 3.336518
v 5.960703 6.816922 3.335388
v 6.046412 6.835222 3.321118
v 6.103931 6.842291 3.324069
v 6.232780 6.777493 3.374868
v 6.003683 6.910750 3.336858
v 6.101392 6.938370 3.353158
v 6.112102 6.576185 3.363018
v 6.158131 6.564605 3.383387
v 6.209590 6.624244 3.382918
v 5.964613 6.650624 3.366568
v 5.939114 6.732633 3.358108
v 6.224340 6.693304 3.375098
v 6.233670 6.912841 3.411077
v 5.934534 6.878291 3.356158
v 6.176920 6.963419 3.393308
v 5.965093 6.968580 3.372628
v 6.030552 6.985390 3.367968
v 6.092511 6.539435 3.422187
v 5.989093 6.577005 3.417357
v 5.892104 6.687654 3.405427
v 6.262290 6.693404 3.420957
v 5.897014 6.799562 3.386008
v 5.896244 6.926580 3.405787
v 6.003483 7.051478 3.396218
v 6.076422 7.048789 3.393768
v 6.210990 6.559975 3.427647
v 6.249959 6.600945 3.464327
v 5.913124 6.613504 3.443467
v 6.284859 6.812432 3.460137
v 5.852155 6.850781 3.431127
v 6.217750 7.031809 3.448957
v 6.150731 7.097288 3.427577
v 6.030462 7.168537 3.406917
v 6.177110 6.537195 3.448436
v 5.838535 6.759623 3.467836
v 5.848575 6.942260 3.459437
v 6.280819 6.929520 3.490016
v 5.932214 7.032669 3.416987
v 6.254189 7.037609 3.494806
v 5.953403 7.149667 3.417507
v 6.085902 7.176357 3.415967
v 5.975323 7.236377 3.413987
v 6.044622 7.256626 3.421347
v 6.002073 7.247516 3.416027
v 5.926033 7.233016 3.430437
v 5.980543 7.283046 3.431547
v 5.937324 6.561385 3.484026
v 6.000543 6.527835 3.492306
v 5.865984 6.658294 3.469877
v 6.297859 6.739083 3.483696
v 5.868834 7.016499 3.461917
v 5.899664 7.127347 3.443057
v 6.108942 7.233467 3.443777
v 5.883914 7.205817 3.453067
v 5.907474 7.288015 3.464267
v 6.056962 7.308735 3.468747
v 5.976283 7.326126 3.482366
v 6.076511 6.503226 3.506816
v 6.146811 6.510866 3.501816
v 5.878395 6.604924 3.525176
v 6.209650 6.543645 3.510106
v 6.287910 6.672584 3.511056
v 5.823945 6.906161 3.497576
v 5.855474 7.137898 3.475027
v 5.856895 7.234746 3.483676
v 6.171051 7.209617 3.481016
v 6.148421 7.265346 3.504396
v 5.859045 7.289576 3.514936
v 6.022442 7.340135 3.502886
v 5.838905 6.675714 3.519926
v 5.806106 6.852791 3.535496
v 5.835045 7.032289 3.497336
v 6.208420 7.136628 3.488976
v 5.825255 7.141008 3.518326
v 5.825635 7.220827 3.534336
v 6.129081 7.303385 3.538026
v 5.916203 7.322365 3.541906
v 6.066842 7.331665 3.543695
v 6.003353 7.336645 3.547546
v 6.026862 6.502706 3.563725
v 6.259199 6.601015 3.557675
v 5.811285 6.756263 3.579975
v 6.309829 6.769992 3.543596
v 6.302089 6.877941 3.527186
v 6.288059 6.991769 3.543616
v 6.199020 7.212257 3.521946
v 5.808985 7.141937 3.557485
v 5.827865 7.249756 3.572765
v 5.942303 6.549765 3.561575
v 6.171911 6.513516 3.565195
v 5.805535 6.999199 3.561765
v 6.247960 7.124198 3.550635
v 5.859865 7.281966 3.590635
v 6.113071 6.505376 3.575575
v 5.840405 6.661164 3.581305
v 6.294869 6.698683 3.604735
v 5.801335 6.860841 3.575795
v 5.811195 7.143347 3.601105
v 6.193710 7.237496 3.566455
v 5.986163 6.536505 3.639224
v 6.208680 6.570535 3.628814
v 5.873454 6.613554 3.608835
v 6.308789 6.905080 3.595115
v 6.279379 7.061599 3.607685
v 6.239890 7.175627 3.604835
v 6.148721 7.284926 3.622265
v 5.897144 7.307015 3.613735
v 6.047982 7.320255 3.619285
v 5.961743 7.314285 3.619864
v 6.061942 6.516235 3.624104
v 6.158641 6.525115 3.604924
v 5.917924 6.579965 3.637354
v 5.802105 6.871641 3.624584
v 5.838035 7.219377 3.646704
v 6.212380 7.226097 3.627394
v 5.874974 7.270246 3.650084
v 6.132871 6.555385 3.668474
v 6.261729 6.660274 3.653664
v 5.840034 6.689643 3.649794
v 5.822245 6.794002 3.675164
v 6.306459 6.833241 3.654314
v 5.807825 7.023909 3.648274
v 5.889004 6.639864 3.682864
v 6.289639 6.987550 3.674394
v 6.254370 7.121738 3.675454
v 5.829835 7.135338 3.678714
v 5.921844 7.277396 3.680294
v 6.096792 7.283326 3.688174
v 6.016572 7.268636 3.712123
v 6.053832 6.549845 3.679774
v 5.939904 6.599524 3.693094
v 6.280819 6.784962 3.719453
v 6.152981 7.247216 3.713983
v 6.201710 7.203917 3.697224
v 6.009363 6.601825 3.730863
v 6.082912 6.595075 3.730943
v 6.183791 6.609584 3.709493
v 5.818765 6.929120 3.688894
v 6.287589 6.906301 3.727273
v 6.235990 7.123497 3.750293
v 6.265349 7.024869 3.743923
v 5.886524 7.235046 3.701344
v 6.150801 6.645764 3.761253
v 6.224120 6.695154 3.737863
v 5.872094 6.742013 3.734483
v 5.850745 6.904321 3.742793
v 5.848815 7.041209 3.735243
v 5.881404 7.159807 3.740543
v 5.938453 6.662374 3.741763
v 5.954003 7.212077 3.759323
v 6.104892 7.229887 3.760303
v 6.254910 6.814152 3.789742
v 6.261359 6.932370 3.785332
v 6.178690 7.172077 3.774553
v 6.080262 6.665833 3.791322
v 6.006613 6.694664 3.798062
v 5.884674 6.985729 3.794792
v 6.224130 7.067889 3.802972
v 6.044032 7.200397 3.798062
v 5.938453 6.752303 3.794972
v 6.190720 6.715603 3.794602
v 6.215300 6.782113 3.813922
v 5.904024 6.874771 3.795402
v 6.230710 6.894190 3.833212
v 5.911654 7.082618 3.804752
v 5.948093 7.148347 3.803532
v 6.118511 7.164867 3.821042
v 6.083902 6.755702 3.846192
v 6.158700 6.747622 3.822272
v 6.018163 6.795942 3.847012
v 5.972403 6.891051 3.848472
v 5.957163 6.990439 3.844152
v 6.223910 6.985400 3.836312
v 6.172941 7.115098 3.829252
v 5.998083 7.162867 3.820132
v 6.188300 6.850451 3.857512
v 6.184670 7.047549 3.856261
v 6.003083 7.085198 3.850842
v 6.064872 7.132218 3.844702
v 6.136231 6.821132 3.866971
v 6.025753 6.907161 3.879321
v 6.005173 6.945200 3.871671
v 6.178441 6.954190 3.871291
v 6.130901 7.093399 3.858641
v 6.084221 6.876181 3.881701
v 6.140441 6.893531 3.878251
v 6.037712 6.976470 3.877861
v 6.139941 7.027649 3.880501
v 6.082422 7.048369 3.871111
v 6.111561 6.963090 3.876231
vn 0.0727 -0.0648 -0.9952
vn -0.2111 -0.4863 -0.8479
vn -0.2582 -0.1513 -0.9542
vn 0.2434 -0.3456 -0.9063
vn 0.4694 -0.0995 -0.8774
vn 0.3946 0.1997 -0.8969
vn -0.3949 0.0098 -0.9187
vn -0.0612 0.1156 -0.9914
vn 0.1089 0.1868 -0.9763
vn 0.7177 0.0470 -0.6947
vn -0.1621 0.2732 -0.9482
vn 0.1556 0.3287 -0.9315
vn -0.0224 -0.6645 -0.7469
vn 0.2941 -0.7019 -0.6487
vn 0.6428 -0.3332 -0.6898
vn -0.4680 -0.4190 -0.7781
vn -0.5279 -0.1570 -0.8347
vn 0.6851 -0.1478 -0.7133
vn 0.7089 0.2410 -0.6628
vn -0.5380 0.1815 -0.8232
vn 0.4659 0.3269 -0.8222
vn -0.3676 0.3487 -0.8622
vn -0.0534 0.3768 -0.9247
vn -0.0963 -0.8658 -0.4911
vn -0.3838 -0.7149 -0.5845
vn -0.7155 -0.2786 -0.6406
vn 0.8518 -0.1727 -0.4946
vn -0.6960 -0.0216 -0.7177
vn -0.6456 0.2147 -0.7329
vn -0.1728 0.2400 -0.9553
vn 0.1090 0.2558 -0.9606
vn 0.6191 -0.6698 -0.4101
vn 0.8504 -0.4491 -0.2741
vn -0.6376 -0.5724 -0.5155
vn 0.8991 0.0799 -0.4303
vn -0.8016 0.0527 -0.5955
vn 0.6265 0.3139 -0.7134
vn 0.4617 0.2795 -0.8418
vn 0.0101 0.1149 -0.9933
vn 0.3030 -0.8953 -0.3266
vn -0.8953 -0.1309 -0.4257
vn -0.7727 0.1589 -0.6146
vn 0.8845 0.1829 -0.4292
vn -0.4798 0.1911 -0.8563
vn 0.8188 0.2851 -0.4983
vn -0.3018 0.0523 -0.9519
vn 0.2955 0.1916 -0.9359
vn -0.1708 0.1825 -0.9682
vn 0.2165 0.3746 -0.9016
vn 0.0150 0.2664 -0.9638
vn -0.4217 0.1911 -0.8864
vn -0.1128 0.5472 -0.8294
vn -0.5492 -0.7709 -0.3226
vn -0.3458 -0.8849 -0.3121
vn -0.8184 -0.4051 -0.4076
vn 0.9511 -0.0933 -0.2944
vn -0.6501 0.1247 -0.7496
vn -0.5222 0.0232 -0.8525
vn 0.4991 0.4068 -0.7651
vn -0.5975 0.1304 -0.7912
vn -0.4803 0.5804 -0.6577
vn 0.3291 0.7435 -0.5821
vn -0.1653 0.8903 -0.4244
vn -0.0527 -0.9760 -0.2115
vn 0.2346 -0.9533 -0.1902
vn -0.7681 -0.6180 -0.1676
vn 0.6429 -0.7642 -0.0515
vn 0.9469 -0.2904 -0.1381
vn -0.9067 0.0520 -0.4185
vn -0.7146 0.0303 -0.6989
vn -0.7621 0.2113 -0.6119
vn 0.6582 0.3746 -0.6530
vn 0.6445 0.5968 -0.4779
vn -0.7293 0.6274 -0.2728
vn 0.0880 0.9658 -0.2437
vn -0.9159 -0.3397 -0.2139
vn -0.9674 -0.0387 -0.2504
vn -0.8313 0.0660 -0.5519
vn 0.7322 0.3165 -0.6030
vn -0.8806 0.0509 -0.4711
vn -0.9404 0.2136 -0.2644
vn 0.5764 0.7907 -0.2065
vn -0.3449 0.9373 -0.0496
vn 0.3002 0.9538 -0.0109
vn -0.0809 0.9924 0.0932
vn -0.2393 -0.9693 0.0564
vn 0.8432 -0.5281 0.1004
vn -0.9829 -0.1839 -0.0131
vn 0.9946 -0.0515 -0.0899
vn 0.9642 0.1015 -0.2452
vn 0.9431 0.2208 -0.2487
vn 0.7999 0.4491 -0.3982
vn -0.9809 0.0868 -0.1742
vn -0.9078 0.4133 0.0713
vn -0.5594 -0.8287 0.0171
vn 0.4337 -0.8885 0.1502
vn -0.9838 0.0336 -0.1760
vn 0.8859 0.3543 -0.2996
vn -0.6838 0.7053 0.1870
vn 0.1127 -0.9723 0.2046
vn -0.9020 -0.4302 0.0363
vn 0.9482 -0.2739 0.1611
vn -0.9984 -0.0356 -0.0448
vn -0.9843 0.1380 0.1097
vn 0.7868 0.5918 -0.1753
vn -0.3430 -0.8468 0.4066
vn 0.6307 -0.6718 0.3886
vn -0.7574 -0.6279 0.1792
vn 0.9938 0.1093 -0.0209
vn 0.9641 0.2633 -0.0335
vn 0.9050 0.4171 -0.0837
vn 0.5361 0.8250 0.1790
vn -0.4030 0.8641 0.3016
vn 0.1012 0.9433 0.3162
vn -0.1132 0.9334 0.3404
vn 0.0047 -0.9154 0.4026
vn 0.3107 -0.8473 0.4308
vn -0.6021 -0.7335 0.3155
vn -0.9905 -0.0383 0.1319
vn -0.8333 0.3857 0.3960
vn 0.8008 0.5898 0.1047
vn -0.6211 0.6466 0.4428
vn 0.2418 -0.8005 0.5484
vn 0.8039 -0.4494 0.3897
vn -0.8743 -0.3680 0.3166
vn -0.9171 -0.1494 0.3696
vn 0.9849 -0.0340 0.1699
vn -0.9716 0.0558 0.2301
vn -0.6744 -0.5316 0.5124
vn 0.9731 0.1667 0.1590
vn 0.9172 0.3574 0.1763
vn -0.8938 0.1744 0.4131
vn -0.2843 0.7737 0.5661
vn 0.2026 0.8671 0.4551
vn -0.0652 0.8192 0.5698
vn -0.0286 -0.8065 0.5905
vn -0.4712 -0.6562 0.5894
vn 0.8964 -0.2134 0.3885
vn 0.4944 0.7374 0.4603
vn 0.7355 0.5942 0.3255
vn -0.2219 -0.6662 0.7120
vn 0.0802 -0.7106 0.6990
vn 0.4956 -0.6348 0.5928
vn -0.9188 -0.0082 0.3947
vn 0.9492 0.0399 0.3120
vn 0.8188 0.4157 0.3959
vn 0.9226 0.1999 0.3300
vn -0.5733 0.5280 0.6265
vn 0.3182 -0.6113 0.7246
vn 0.6886 -0.4747 0.5481
vn -0.7218 -0.2844 0.6310
vn -0.8144 -0.0724 0.5757
vn -0.8436 0.1018 0.5272
vn -0.6904 0.3349 0.6413
vn -0.4846 -0.4977 0.7194
vn -0.3446 0.6198 0.7050
vn 0.2037 0.7440 0.6363
vn 0.8032 -0.2298 0.5495
vn 0.8858 0.0531 0.4609
vn 0.5710 0.5806 0.5805
vn 0.0367 -0.5772 0.8158
vn -0.2770 -0.4862 0.8288
vn -0.7088 0.0062 0.7054
vn 0.7733 0.3074 0.5546
vn -0.0537 0.6771 0.7340
vn -0.5113 -0.3090 0.8019
vn 0.4783 -0.4959 0.7248
vn 0.5792 -0.3503 0.7360
vn -0.6451 -0.1265 0.7536
vn 0.6937 -0.0783 0.7160
vn -0.6159 0.2010 0.7618
vn -0.4811 0.4040 0.7780
vn 0.2367 0.5933 0.7694
vn -0.0186 -0.4163 0.9091
vn 0.2813 -0.4543 0.8453
vn -0.3019 -0.2972 0.9058
vn -0.5119 -0.1345 0.8485
vn -0.4937 0.0491 0.8682
vn 0.7308 0.1200 0.6719
vn 0.5120 0.4710 0.7183
vn -0.2507 0.4998 0.8291
vn 0.4268 -0.2246 0.8760
vn 0.5263 0.2679 0.8070
vn -0.3025 0.2421 0.9219
vn -0.0431 0.4266 0.9034
vn 0.1920 -0.2962 0.9356
vn -0.2804 -0.1003 0.9546
vn -0.4043 0.0304 0.9141
vn 0.3852 0.0071 0.9228
vn 0.1809 0.3905 0.9026
vn -0.0311 -0.1262 0.9915
vn 0.1699 -0.0628 0.9835
vn -0.1606 0.1009 0.9818
vn 0.1333 0.1411 0.9810
vn -0.0763 0.1952 0.9778
vn 0.0212 0.0255 0.9995
usemtl mtl1.578
s 1
f 9//7 10//8 11//9
f 12//10 10//8 9//7
f 13//11 12//10 9//7
f 13//11 9//7 14//12
f 11//9 15//13 16//14
f 9//7 11//9 16//14
f 14//12 9//7 17//15
f 18//16 13//11 14//12
f 9//7 16//14 17//15
f 15//13 19//17 16//14
f 17//15 16//14 20//18
f 14//12 17//15 20//18
f 20//18 16//14 19//17
f 21//19 12//10 22//20
f 22//20 12//10 23//21
f 12//10 21//19 10//8
f 10//8 24//22 11//9
f 23//21 12//10 13//11
f 11//9 24//22 25//23
f 26//24 23//21 13//11
f 11//9 25//23 15//13
f 18//16 26//24 13//11
f 14//12 27//25 18//16
f 15//13 28//26 19//17
f 14//12 20//18 29//27
f 28//26 30//28 19//17
f 31//29 19//17 30//28
f 20//18 19//17 31//29
f 32//30 21//19 22//20
f 32//30 33//31 10//8
f 32//30 10//8 21//19
f 10//8 33//31 24//22
f 24//22 34//32 25//23
f 26//24 35//33 23//21
f 25//23 34//32 36//34
f 25//23 36//34 15//13
f 15//13 36//34 28//26
f 28//26 36//34 37//35
f 14//12 29//27 27//25
f 28//26 37//35 30//28
f 38//36 31//29 30//28
f 39//37 31//29 38//36
f 20//18 31//29 39//37
f 22//20 23//21 40//38
f 40//38 23//21 41//39
f 24//22 33//31 42//40
f 41//39 23//21 35//33
f 34//32 24//22 42//40
f 18//16 35//33 26//24
f 43//41 35//33 18//16
f 27//25 43//41 18//16
f 37//35 36//34 44//42
f 27//25 29//27 45//43
f 29//27 20//18 46//44
f 20//18 39//37 46//44
f 39//37 38//36 47//45
f 22//20 48//46 32//30
f 36//34 34//32 49//47
f 50//48 37//35 44//42
f 27//25 51//49 43//41
f 30//28 37//35 52//50
f 27//25 45//43 53//51
f 30//28 52//50 38//36
f 29//27 46//44 45//43
f 52//50 54//52 38//36
f 38//36 54//52 47//45
f 47//45 55//53 39//37
f 46//44 39//37 55//53
f 47//45 54//52 56//54
f 55//53 47//45 57//55
f 47//45 56//54 58//56
f 57//55 47//45 58//56
f 56//54 54//52 59//57
f 59//57 60//58 56//54
f 58//56 56//54 60//58
f 57//55 58//56 60//58
f 61//59 33//31 62//60
f 32//30 62//60 33//31
f 22//20 40//38 48//46
f 33//31 61//59 42//40
f 34//32 42//40 63//61
f 34//32 63//61 49//47
f 64//62 35//33 43//41
f 44//42 36//34 49//47
f 65//63 37//35 50//48
f 37//35 65//63 52//50
f 52//50 65//63 66//64
f 52//50 66//64 54//52
f 54//52 66//64 59//57
f 55//53 67//65 46//44
f 66//64 68//66 59//57
f 55//53 57//55 67//65
f 68//66 69//67 59//57
f 59//57 69//67 60//58
f 57//55 70//68 67//65
f 60//58 70//68 57//55
f 71//69 60//58 69//67
f 70//68 60//58 71//69
f 32//30 72//70 62//60
f 32//30 48//46 73//71
f 42//40 61//59 74//72
f 40//38 41//39 75//73
f 42//40 74//72 63//61
f 41//39 35//33 76//74
f 35//33 64//62 76//74
f 44//42 49//47 77//75
f 44//42 77//75 50//48
f 27//25 53//51 51//49
f 68//66 66//64 78//76
f 79//77 68//66 78//76
f 46//44 67//65 80//78
f 68//66 79//77 69//67
f 81//79 80//78 67//65
f 82//80 69//67 79//77
f 67//65 70//68 81//79
f 71//69 83//81 70//68
f 72//70 32//30 73//71
f 40//38 75//73 48//46
f 63//61 74//72 84//82
f 63//61 84//82 49//47
f 49//47 85//83 77//75
f 77//75 86//84 50//48
f 65//63 50//48 86//84
f 66//64 65//63 78//76
f 46//44 80//78 87//85
f 45//43 46//44 87//85
f 79//77 78//76 88//86
f 79//77 88//86 89//87
f 82//80 79//77 89//87
f 90//88 81//79 70//68
f 91//89 69//67 82//80
f 91//89 71//69 69//67
f 92//90 70//68 83//81
f 90//88 70//68 92//90
f 71//69 93//91 83//81
f 94//92 62//60 72//70
f 73//71 48//46 75//73
f 75//73 41//39 95//93
f 41//39 76//74 95//93
f 49//47 84//82 96//94
f 96//94 85//83 49//47
f 64//62 43//41 97//95
f 97//95 43//41 98//96
f 43//41 51//49 98//96
f 51//49 53//51 99//97
f 65//63 86//84 78//76
f 45//43 87//85 53//51
f 80//78 100//98 87//85
f 89//87 88//86 101//99
f 80//78 81//79 100//98
f 102//100 82//80 89//87
f 71//69 91//89 93//91
f 83//81 93//91 92//90
f 62//60 103//101 61//59
f 62//60 94//92 103//101
f 73//71 75//73 104//102
f 76//74 64//62 97//95
f 85//83 105//103 77//75
f 99//97 98//96 51//49
f 77//75 105//103 86//84
f 86//84 88//86 78//76
f 106//104 53//51 87//85
f 87//85 100//98 106//104
f 82//80 107//105 91//89
f 72//70 108//106 94//92
f 72//70 73//71 108//106
f 73//71 104//102 108//106
f 61//59 103//101 74//72
f 84//82 74//72 109//107
f 76//74 110//108 95//93
f 84//82 109//107 96//94
f 76//74 97//95 110//108
f 96//94 111//109 85//83
f 105//103 85//83 111//109
f 99//97 53//51 106//104
f 86//84 105//103 88//86
f 105//103 101//99 88//86
f 112//110 89//87 101//99
f 81//79 113//111 100//98
f 82//80 102//100 107//105
f 113//111 81//79 90//88
f 103//101 94//92 114//112
f 115//113 104//102 75//73
f 116//114 74//72 103//101
f 97//95 98//96 117//115
f 98//96 99//97 117//115
f 118//116 117//115 99//97
f 99//97 106//104 118//116
f 118//116 106//104 119//117
f 89//87 112//110 102//100
f 106//104 100//98 113//111
f 120//118 113//111 90//88
f 107//105 121//119 91//89
f 92//90 122//120 120//118
f 120//118 90//88 92//90
f 91//89 123//121 93//91
f 94//92 124//122 114//112
f 108//106 124//122 94//92
f 104//102 125//123 108//106
f 104//102 115//113 125//123
f 115//113 75//73 95//93
f 103//101 126//124 116//114
f 74//72 116//114 109//107
f 96//94 127//125 111//109
f 105//103 112//110 101//99
f 106//104 113//111 119//117
f 112//110 128//126 102//100
f 102//100 128//126 107//105
f 113//111 120//118 129//127
f 107//105 130//128 121//119
f 91//89 121//119 123//121
f 92//90 93//91 122//120
f 108//106 131//129 124//122
f 108//106 125//123 131//129
f 95//93 132//130 115//113
f 132//130 95//93 110//108
f 133//131 109//107 116//114
f 109//107 133//131 96//94
f 133//131 134//132 96//94
f 97//95 135//133 110//108
f 97//95 117//115 135//133
f 111//109 127//125 105//103
f 127//125 136//134 105//103
f 105//103 136//134 112//110
f 128//126 130//128 107//105
f 93//91 123//121 122//120
f 114//112 126//124 103//101
f 116//114 137//135 133//131
f 96//94 134//132 127//125
f 117//115 138//136 135//133
f 117//115 118//116 138//136
f 119//117 139//137 118//116
f 136//134 140//138 112//110
f 140//138 128//126 112//110
f 119//117 129//127 139//137
f 113//111 129//127 119//117
f 130//128 141//139 121//119
f 122//120 142//140 120//118
f 143//141 122//120 123//121
f 131//129 144//142 124//122
f 114//112 145//143 126//124
f 116//114 126//124 137//135
f 137//135 126//124 145//143
f 146//144 132//130 110//108
f 146//144 110//108 135//133
f 118//116 139//137 138//136
f 142//140 147//145 120//118
f 147//145 148//146 120//118
f 129//127 120//118 148//146
f 114//112 124//122 144//142
f 149//147 145//143 114//112
f 144//142 149//147 114//112
f 131//129 150//148 144//142
f 131//129 125//123 115//113
f 151//149 131//129 115//113
f 134//132 152//150 127//125
f 135//133 138//136 153//151
f 152//150 136//134 127//125
f 139//137 154//152 155//153
f 139//137 129//127 148//146
f 128//126 156//154 130//128
f 130//128 156//154 141//139
f 121//119 141//139 123//121
f 123//121 141//139 143//141
f 142//140 122//120 143//141
f 151//149 157//155 131//129
f 115//113 158//156 151//149
f 115//113 132//130 158//156
f 146//144 158//156 132//130
f 133//131 137//135 159//157
f 134//132 133//131 159//157
f 134//132 160//158 152//150
f 152//150 161//159 136//134
f 136//134 161//159 140//138
f 138//136 139//137 155//153
f 162//160 128//126 140//138
f 157//155 150//148 131//129
f 145//143 163//161 137//135
f 145//143 149//147 163//161
f 160//158 134//132 159//157
f 146//144 135//133 153//151
f 160//158 161//159 152//150
f 140//138 161//159 162//160
f 162//160 156//154 128//126
f 139//137 148//146 154//152
f 156//154 164//162 141//139
f 142//140 165//163 147//145
f 149//147 144//142 150//148
f 137//135 163//161 159//157
f 146//144 166//164 158//156
f 167//165 146//144 153//151
f 153//151 138//136 155//153
f 162//160 164//162 156//154
f 154//152 148//146 168//166
f 165//163 168//166 147//145
f 148//146 147//145 168//166
f 141//139 164//162 143//141
f 142//140 143//141 165//163
f 150//148 169//167 149//147
f 149//147 169//167 170//168
f 157//155 169//167 150//148
f 151//149 158//156 157//155
f 166//164 146//144 167//165
f 160//158 171//169 161//159
f 155//153 154//152 172//170
f 164//162 173//171 143//141
f 165//163 143//141 173//171
f 163//161 149//147 170//168
f 163//161 170//168 174//172
f 157//155 158//156 175//173
f 163//161 174//172 159//157
f 158//156 176//174 175//173
f 158//156 166//164 176//174
f 159//157 177//175 160//158
f 177//175 159//157 174//172
f 166//164 167//165 178//176
f 177//175 171//169 160//158
f 155//153 167//165 153//151
f 172//170 167//165 155//153
f 179//177 161//159 171//169
f 161//159 179//177 162//160
f 179//177 180//178 162//160
f 172//170 154//152 168//166
f 162//160 180//178 164//162
f 181//179 168//166 165//163
f 181//179 165//163 173//171
f 169//167 182//180 170//168
f 157//155 183//181 169//167
f 183//181 182//180 169//167
f 183//181 157//155 175//173
f 184//182 174//172 170//168
f 185//183 174//172 184//182
f 177//175 174//172 185//183
f 178//176 176//174 166//164
f 186//184 171//169 177//175
f 167//165 172//170 187//185
f 179//177 171//169 186//184
f 172//170 168//166 188//186
f 180//178 189//187 164//162
f 188//186 168//166 181//179
f 189//187 173//171 164//162
f 184//182 170//168 182//180
f 183//181 176//174 190//188
f 183//181 175//173 176//174
f 176//174 178//176 190//188
f 186//184 177//175 185//183
f 187//185 178//176 167//165
f 187//185 172//170 191//189
f 192//190 179//177 186//184
f 191//189 172//170 188//186
f 179//177 192//190 180//178
f 189//187 180//178 192//190
f 193//191 181//179 173//171
f 173//171 189//187 193//191
f 183//181 194//192 182//180
f 184//182 195//193 185//183
f 183//181 190//188 194//192
f 185//183 196//194 186//184
f 196//194 185//183 195//193
f 190//188 178//176 197//195
f 178//176 187//185 197//195
f 191//189 197//195 187//185
f 191//189 188//186 198//196
f 193//191 189//187 192//190
f 198//196 181//179 193//191
f 188//186 181//179 198//196
f 184//182 182//180 199//197
f 184//182 199//197 195//193
f 194//192 199//197 182//180
f 194//192 200//198 199//197
f 194//192 190//188 200//198
f 190//188 197//195 200//198
f 195//193 201//199 196//194
f 201//199 186//184 196//194
f 191//189 202//200 197//195
f 201//199 192//190 186//184
f 203//201 192//190 201//199
f 202//200 198//196 203//201
f 191//189 198//196 202//200
f 203//201 193//191 192//190
f 198//196 193//191 203//201
f 200//198 204//202 199//197
f 199//197 201//199 195//193
f 204//202 201//199 199//197
f 200//198 197//195 204//202
f 197//195 202//200 204//202
f 204//202 203//201 201//199
f 202//200 203//201 204//202
