# Blender v2.92.0 OBJ File: 'convert_to_one_sided.blend'
# www.blender.org
mtllib 621L.mtl
o Cube
v 0.001000 0.001000 -0.001000
v 0.001000 -0.001000 -0.001000
v 0.001000 0.001000 0.001000
v 0.001000 -0.001000 0.001000
v -0.001000 0.001000 -0.001000
v -0.001000 -0.001000 -0.001000
v -0.001000 0.001000 0.001000
v -0.001000 -0.001000 0.001000
vt 0.625000 0.500000
vt 0.875000 0.500000
vt 0.875000 0.750000
vt 0.625000 0.750000
vt 0.375000 0.750000
vt 0.625000 1.000000
vt 0.375000 1.000000
vt 0.375000 0.000000
vt 0.625000 0.000000
vt 0.625000 0.250000
vt 0.375000 0.250000
vt 0.125000 0.500000
vt 0.375000 0.500000
vt 0.125000 0.750000
vn 0.0000 1.0000 0.0000
vn 0.0000 0.0000 1.0000
vn -1.0000 0.0000 0.0000
vn 0.0000 -1.0000 0.0000
vn 1.0000 0.0000 0.0000
vn 0.0000 0.0000 -1.0000
usemtl Material
s off
f 1/1/1 5/2/1 7/3/1 3/4/1
f 4/5/2 3/4/2 7/6/2 8/7/2
f 8/8/3 7/9/3 5/10/3 6/11/3
f 6/12/4 2/13/4 4/5/4 8/14/4
f 2/13/5 1/1/5 3/4/5 4/5/5
f 6/11/6 5/10/6 1/1/6 2/13/6
o 621
v 10.149869 5.212383 3.841262
v 10.029171 5.152283 3.838032
v 10.110869 5.260191 3.845932
v 10.013071 5.075784 3.870221
v 9.944492 5.147243 3.857181
v 10.149969 5.114144 3.863101
v 9.997801 5.235532 3.853061
v 10.120170 5.340940 3.864131
v 10.022671 5.343351 3.875581
v 10.217769 5.343561 3.867571
v 10.177969 5.019575 3.899110
v 10.212369 5.053294 3.884911
v 10.287168 5.073414 3.897110
v 9.905912 5.127644 3.882101
v 10.283168 5.203243 3.886681
v 9.891943 5.219472 3.874111
v 9.938112 5.300811 3.866991
v 9.880383 5.330791 3.878111
v 9.961482 5.399700 3.886571
v 10.131070 5.433400 3.895921
v 10.358367 5.356161 3.915890
v 10.208168 5.454969 3.900861
v 9.898823 5.460149 3.892331
v 10.110570 4.989215 3.931730
v 10.020771 5.023035 3.922530
v 10.274467 5.021905 3.909220
v 9.945142 5.075944 3.909261
v 9.879233 5.118574 3.926960
v 9.864444 5.171813 3.903521
v 9.844704 5.295441 3.908701
v 9.857043 5.452929 3.904251
v 10.418866 5.210312 3.934630
v 10.080670 5.491739 3.923460
v 9.979391 5.518089 3.916350
v 9.916233 5.550368 3.915501
v 10.296568 5.478749 3.923420
v 10.375566 5.453979 3.947380
v 9.886302 5.534188 3.914701
v 10.247568 5.548588 3.954430
v 10.293167 4.978826 3.937790
v 10.355567 5.010475 3.940480
v 9.997811 5.015565 3.961990
v 10.395466 5.094954 3.940740
v 9.845863 5.186023 3.956200
v 9.831053 5.445600 3.945260
v 10.436266 5.396090 3.965820
v 10.176369 5.528768 3.944650
v 9.869163 5.572398 3.951770
v 9.983151 5.597988 3.940980
v 9.932372 5.613637 3.947300
v 10.212468 4.967646 3.944730
v 10.201869 4.927956 4.015249
v 9.943952 5.053925 3.982099
v 10.464665 5.137163 3.965390
v 10.484565 5.233732 3.977890
v 9.826324 5.336591 3.983850
v 10.441165 5.309011 3.958320
v 10.062470 5.595367 3.956770
v 10.359767 5.536328 3.981260
v 9.836843 5.543348 3.978980
v 10.296268 5.590427 4.001430
v 10.310167 4.940906 3.991519
v 10.089170 4.965176 3.994739
v 10.362166 4.967296 3.975580
v 10.425666 5.001315 3.996889
v 10.472165 5.071095 4.000800
v 9.881453 5.121953 4.010849
v 10.503265 5.156424 4.015909
v 10.485565 5.352750 4.008999
v 10.409966 5.484689 3.989630
v 10.136270 5.587428 3.971760
v 10.213168 5.621587 4.008289
v 9.916862 5.643967 3.966470
v 10.018571 5.651757 3.971690
v 9.961761 5.677766 3.983109
v 10.392666 4.944456 4.035489
v 10.481965 5.016515 4.050439
v 10.512964 5.264162 4.036929
v 10.449965 5.450959 4.021299
v 9.829734 5.493499 4.012280
v 9.861354 5.596648 4.004649
v 10.116070 5.667027 4.017149
v 9.911313 5.657456 3.998879
v 10.041170 5.706316 4.023809
v 9.983761 5.711046 4.031309
v 10.342667 4.909006 4.084658
v 10.135369 4.937626 4.022679
v 10.030771 4.986616 4.041099
v 9.951921 5.053595 4.060279
v 9.839833 5.248492 4.036349
v 10.405766 5.537008 4.028849
v 10.384067 5.547958 4.012290
v 10.358666 5.597507 4.052929
v 9.890313 5.653427 4.043879
v 10.510164 5.075514 4.085168
v 10.522264 5.187323 4.079858
v 9.827034 5.390770 4.040859
v 10.513464 5.362000 4.082978
v 10.478065 5.427710 4.069659
v 10.274868 5.660797 4.065848
v 9.944912 5.695456 4.061949
v 10.053170 5.735716 4.070789
v 10.130169 5.725136 4.083068
v 10.150969 4.931246 4.069889
v 10.455266 4.970086 4.080148
v 9.900563 5.107354 4.062169
v 9.879603 5.164853 4.073809
v 10.528164 5.270112 4.121988
v 10.419465 5.534508 4.096808
v 9.867853 5.596508 4.069019
v 10.200869 5.681746 4.061749
v 10.019571 5.729666 4.092908
v 10.099469 5.737475 4.108738
v 10.259168 4.900846 4.114518
v 10.416666 4.930886 4.130068
v 10.029671 4.993985 4.102388
v 10.490464 5.008275 4.112518
v 9.951511 5.089654 4.111628
v 9.863104 5.243672 4.098198
v 9.850553 5.361701 4.100478
v 9.845883 5.479029 4.079238
v 10.355866 5.633497 4.113998
v 9.917302 5.667037 4.082569
v 10.316167 5.664096 4.104628
v 10.379466 4.903707 4.173917
v 10.332767 4.895427 4.162927
v 10.103670 4.953576 4.112578
v 10.006171 5.029445 4.121108
v 10.477865 5.444930 4.134098
v 9.886393 5.550348 4.130218
v 9.969671 5.695966 4.115118
v 10.245769 5.698676 4.116058
v 10.206868 4.918226 4.172137
v 10.466965 4.971955 4.167758
v 10.028771 5.030585 4.153337
v 10.527765 5.158373 4.166627
v 9.924972 5.185323 4.137137
v 10.530364 5.259042 4.195177
v 10.512465 5.346691 4.166327
v 9.876103 5.453199 4.134758
v 9.926812 5.634437 4.123318
v 10.311768 5.670007 4.142767
v 10.500964 5.041084 4.170797
v 9.887273 5.294762 4.137628
v 9.898323 5.381920 4.160927
v 10.411866 5.541988 4.172197
v 10.362267 5.610528 4.142798
v 10.001971 5.668346 4.164767
v 10.230168 5.701466 4.171457
v 10.041271 5.717136 4.138577
v 10.152969 5.724185 4.133548
v 10.086270 5.729156 4.129078
v 10.296667 4.899046 4.203817
v 10.115870 4.978835 4.178307
v 10.060970 5.088274 4.205377
v 9.929572 5.492849 4.179637
v 10.464965 5.425330 4.217456
v 9.942452 5.586878 4.160227
v 10.108170 5.704566 4.162887
v 10.354667 4.907006 4.233057
v 10.475065 4.997185 4.244596
v 9.985591 5.242812 4.198147
v 10.327367 5.612347 4.187237
v 10.271368 4.907056 4.231637
v 10.247468 4.928636 4.244687
v 10.412866 4.944396 4.228177
v 10.503065 5.073974 4.245047
v 10.516564 5.187973 4.247026
v 9.999242 5.361560 4.219787
v 10.504965 5.306981 4.235396
v 10.397567 5.506879 4.224997
v 10.018371 5.573848 4.205897
v 10.076870 5.653527 4.193817
v 10.148370 5.670816 4.193667
v 10.228168 5.605057 4.221706
v 10.308368 4.917556 4.258796
v 10.197269 4.996615 4.266306
v 10.105570 5.160833 4.265996
v 10.085470 5.251822 4.264866
v 10.052570 5.437679 4.243026
v 10.119969 5.481619 4.263726
v 10.129770 5.581838 4.225837
v 10.341967 5.531758 4.243996
v 10.187368 5.071194 4.297205
v 10.478665 5.027105 4.282426
v 10.106170 5.317411 4.278106
v 10.480165 5.342631 4.276526
v 10.427465 5.417590 4.273296
v 10.206868 5.518328 4.263186
v 10.289667 5.509829 4.267086
v 10.367567 4.950786 4.297286
v 10.443465 4.999425 4.287126
v 10.260568 5.004795 4.321945
v 10.477964 5.109344 4.302716
v 10.488565 5.251012 4.290036
v 10.161069 5.345801 4.302236
v 10.364166 5.431620 4.296566
v 10.299268 5.418200 4.309135
v 10.286668 4.963786 4.291086
v 10.204369 5.184913 4.321506
v 10.462465 5.322881 4.303095
v 10.224168 5.392420 4.308775
v 10.448266 5.231892 4.335365
v 10.252168 5.278642 4.335985
v 10.423165 5.345651 4.311955
v 10.374866 5.333031 4.330555
v 10.331367 5.011045 4.340635
v 10.413567 5.037675 4.327055
v 10.260168 5.065254 4.331295
v 10.433166 5.115503 4.346115
v 10.318167 5.302491 4.341615
v 10.383166 5.086144 4.359295
v 10.308967 5.096744 4.348255
v 10.406066 5.163193 4.360645
v 10.325867 5.193613 4.348745
v 10.375667 5.244352 4.342845
vn 0.1675 -0.0325 -0.9853
vn -0.0557 -0.1127 -0.9921
vn -0.0211 0.1638 -0.9863
vn -0.1841 -0.5410 -0.8206
vn -0.2930 -0.1624 -0.9422
vn 0.1323 -0.2525 -0.9585
vn -0.1370 0.1408 -0.9805
vn -0.0489 0.2713 -0.9613
vn -0.0407 0.2645 -0.9635
vn 0.1801 0.1756 -0.9679
vn 0.0152 -0.5315 -0.8469
vn 0.1251 -0.3192 -0.9394
vn 0.2909 -0.1753 -0.9406
vn -0.5353 -0.4370 -0.7228
vn 0.3183 -0.0564 -0.9463
vn -0.4372 -0.0463 -0.8981
vn -0.0963 0.1304 -0.9868
vn -0.3245 0.0826 -0.9423
vn 0.0421 0.2062 -0.9776
vn -0.0602 0.3887 -0.9194
vn 0.3971 0.1275 -0.9089
vn 0.0278 0.3962 -0.9178
vn -0.0890 0.2030 -0.9751
vn -0.1610 -0.7857 -0.5973
vn -0.3371 -0.7891 -0.5135
vn 0.2030 -0.4067 -0.8907
vn -0.5083 -0.7296 -0.4576
vn -0.7684 -0.5904 -0.2470
vn -0.8030 -0.2451 -0.5432
vn -0.8478 -0.0434 -0.5285
vn -0.6306 0.1859 -0.7536
vn 0.4486 -0.0103 -0.8937
vn 0.0757 0.3438 -0.9360
vn 0.1454 0.2613 -0.9543
vn -0.0123 0.3464 -0.9380
vn 0.2613 0.3948 -0.8808
vn 0.4650 0.3280 -0.8223
vn -0.3593 0.3807 -0.8520
vn 0.1004 0.5515 -0.8281
vn 0.1673 -0.6396 -0.7503
vn 0.4034 -0.3876 -0.8289
vn -0.5010 -0.8293 -0.2474
vn 0.4552 -0.2098 -0.8653
vn -0.9620 -0.2598 -0.0841
vn -0.9321 0.1160 -0.3431
vn 0.6410 0.2538 -0.7244
vn 0.0145 0.4949 -0.8688
vn -0.6791 0.4495 -0.5803
vn 0.1207 0.3791 -0.9174
vn -0.1424 0.4862 -0.8621
vn -0.0166 -0.7819 -0.6232
vn -0.1084 -0.9314 -0.3475
vn -0.6533 -0.7546 -0.0618
vn 0.6370 -0.1633 -0.7533
vn 0.7405 0.0501 -0.6702
vn -0.9969 -0.0504 -0.0596
vn 0.5838 0.1154 -0.8037
vn 0.2175 0.3892 -0.8951
vn 0.4360 0.5523 -0.7105
vn -0.9240 0.3148 -0.2172
vn 0.2901 0.6419 -0.7098
vn 0.1424 -0.8613 -0.4877
vn -0.3538 -0.8937 -0.2759
vn 0.3774 -0.6819 -0.6266
vn 0.5908 -0.5073 -0.6273
vn 0.7404 -0.3011 -0.6010
vn -0.8442 -0.5212 0.1252
vn 0.9004 -0.1174 -0.4189
vn 0.8240 0.2417 -0.5124
vn 0.6541 0.4255 -0.6253
vn 0.1649 0.4674 -0.8685
vn 0.1673 0.6173 -0.7687
vn -0.4215 0.6084 -0.6725
vn 0.1615 0.5211 -0.8381
vn -0.1425 0.7247 -0.6742
vn 0.4388 -0.8076 -0.3940
vn 0.8096 -0.4512 -0.3755
vn 0.9442 0.0610 -0.3236
vn 0.8185 0.4190 -0.3930
vn -0.9831 0.1533 0.1005
vn -0.8777 0.4681 -0.1027
vn 0.2488 0.6044 -0.7568
vn -0.6046 0.7249 -0.3302
vn 0.1432 0.7565 -0.6381
vn -0.2809 0.9028 -0.3256
vn 0.1937 -0.9481 -0.2521
vn -0.3060 -0.9335 -0.1868
vn -0.5211 -0.8535 -0.0026
vn -0.6898 -0.6909 0.2165
vn -0.9537 -0.2032 0.2216
vn 0.7556 0.5480 -0.3589
vn 0.5905 0.5848 -0.5562
vn 0.5774 0.6825 -0.4482
vn -0.7705 0.6364 0.0370
vn 0.9561 -0.2239 -0.1889
vn 0.9835 -0.0554 -0.1725
vn -0.9768 -0.0075 0.2138
vn 0.9485 0.2756 -0.1564
vn 0.8646 0.4428 -0.2376
vn 0.3236 0.7487 -0.5785
vn -0.5436 0.8385 0.0381
vn -0.0051 0.9583 -0.2858
vn 0.2590 0.8724 -0.4146
vn -0.3423 -0.9394 -0.0192
vn 0.6733 -0.6926 -0.2588
vn -0.7699 -0.5366 0.3455
vn -0.8249 -0.3562 0.4390
vn 0.9949 0.0731 -0.0700
vn 0.8306 0.5499 -0.0878
vn -0.8736 0.3550 0.3328
vn 0.2632 0.7444 -0.6137
vn -0.2865 0.9437 0.1654
vn 0.0539 0.9956 0.0768
vn -0.1314 -0.9885 -0.0748
vn 0.5474 -0.8324 -0.0869
vn -0.5823 -0.7587 0.2921
vn 0.8816 -0.4655 -0.0778
vn -0.6790 -0.4583 0.5734
vn -0.8190 -0.2175 0.5310
vn -0.8682 -0.0434 0.4944
vn -0.9117 0.1184 0.3933
vn 0.7498 0.6602 -0.0436
vn -0.6977 0.6047 0.3842
vn 0.5099 0.8076 -0.2963
vn 0.4079 -0.9124 0.0325
vn 0.0796 -0.9968 -0.0052
vn -0.4573 -0.8668 0.1987
vn -0.6422 -0.6277 0.4400
vn 0.8855 0.4613 0.0565
vn -0.7414 0.2413 0.6261
vn -0.5257 0.7097 0.4690
vn 0.3335 0.9197 -0.2070
vn -0.3788 -0.9011 0.2109
vn 0.7509 -0.6584 0.0515
vn -0.5961 -0.5101 0.6200
vn 0.9929 -0.1139 0.0339
vn -0.6463 -0.2918 0.7051
vn 0.9807 0.1049 0.1649
vn 0.9443 0.2928 0.1505
vn -0.7767 0.0660 0.6264
vn -0.6544 0.4343 0.6190
vn 0.5744 0.7818 0.2426
vn 0.9418 -0.3313 0.0579
vn -0.6853 -0.1513 0.7124
vn -0.6449 -0.0450 0.7630
vn 0.7513 0.5803 0.3143
vn 0.7423 0.5989 0.3005
vn -0.3901 0.4907 0.7791
vn 0.2230 0.7736 0.5932
vn -0.2533 0.7790 0.5735
vn 0.1555 0.9593 0.2358
vn -0.0645 0.8942 0.4431
vn -0.0818 -0.9827 0.1661
vn -0.5333 -0.6624 0.5261
vn -0.5832 -0.3412 0.7372
vn -0.5429 0.1201 0.8312
vn 0.8098 0.4486 0.3782
vn -0.5398 0.3015 0.7859
vn -0.0864 0.7045 0.7044
vn 0.2322 -0.9197 0.3167
vn 0.7782 -0.5734 0.2560
vn -0.5653 -0.1638 0.8084
vn 0.4850 0.5911 0.6445
vn -0.2526 -0.8930 0.3724
vn -0.4191 -0.6899 0.5903
vn 0.5670 -0.7722 0.2868
vn 0.9434 -0.2118 0.2551
vn 0.9294 -0.0106 0.3690
vn -0.4953 -0.0201 0.8685
vn 0.9108 0.2288 0.3437
vn 0.5874 0.5466 0.5969
vn -0.3416 0.2626 0.9024
vn -0.1791 0.4351 0.8824
vn -0.0422 0.4868 0.8725
vn 0.0924 0.4704 0.8776
vn -0.0988 -0.8137 0.5728
vn -0.5246 -0.5111 0.6808
vn -0.5375 -0.1718 0.8256
vn -0.5001 -0.0712 0.8630
vn -0.4158 0.1022 0.9037
vn -0.2467 0.2596 0.9337
vn -0.1203 0.3604 0.9250
vn 0.3231 0.5365 0.7796
vn -0.5178 -0.2398 0.8212
vn 0.7463 -0.3650 0.5567
vn -0.4458 0.0123 0.8951
vn 0.7870 0.3280 0.5225
vn 0.5269 0.4785 0.7024
vn -0.0767 0.3847 0.9199
vn 0.0865 0.4555 0.8860
vn 0.2339 -0.6855 0.6895
vn 0.5233 -0.5489 0.6518
vn -0.3809 -0.4241 0.8216
vn 0.7237 -0.1438 0.6750
vn 0.8141 0.0949 0.5729
vn -0.3366 0.1028 0.9360
vn 0.2398 0.4208 0.8749
vn 0.0062 0.3404 0.9403
vn -0.2566 -0.6345 0.7291
vn -0.3665 -0.0470 0.9292
vn 0.5815 0.2867 0.7614
vn -0.1607 0.2446 0.9562
vn 0.4630 0.1372 0.8757
vn -0.2078 0.0822 0.9747
vn 0.3489 0.3382 0.8740
vn 0.1607 0.2483 0.9553
vn -0.0568 -0.3870 0.9203
vn 0.4370 -0.3842 0.8133
vn -0.3274 -0.1328 0.9355
vn 0.5122 -0.1530 0.8451
vn -0.0247 0.1663 0.9858
vn 0.0956 -0.1592 0.9826
vn -0.2092 -0.0601 0.9760
vn 0.1544 0.0788 0.9849
vn -0.1195 0.0490 0.9916
vn 0.0783 0.1596 0.9841
usemtl mtl1.581
s 1
f 9//7 10//8 11//9
f 12//10 13//11 10//8
f 14//12 12//10 10//8
f 14//12 10//8 9//7
f 10//8 13//11 15//13
f 10//8 15//13 11//9
f 11//9 15//13 16//14
f 16//14 15//13 17//15
f 9//7 11//9 18//16
f 18//16 11//9 16//14
f 14//12 19//17 12//10
f 14//12 20//18 19//17
f 21//19 20//18 14//12
f 12//10 22//20 13//11
f 23//21 21//19 14//12
f 13//11 22//20 24//22
f 13//11 24//22 15//13
f 23//21 14//12 9//7
f 15//13 24//22 25//23
f 23//21 9//7 18//16
f 17//15 15//13 25//23
f 25//23 24//22 26//24
f 27//25 25//23 26//24
f 27//25 17//15 25//23
f 16//14 17//15 28//26
f 23//21 18//16 29//27
f 30//28 16//14 28//26
f 27//25 26//24 31//29
f 18//16 16//14 30//28
f 12//10 32//30 33//31
f 34//32 19//17 20//18
f 19//17 32//30 12//10
f 34//32 20//18 21//19
f 33//31 35//33 12//10
f 35//33 36//34 22//20
f 12//10 35//33 22//20
f 22//20 36//34 37//35
f 37//35 24//22 22//20
f 38//36 24//22 37//35
f 26//24 24//22 38//36
f 39//37 26//24 38//36
f 29//27 40//38 23//21
f 17//15 27//25 41//39
f 28//26 17//15 41//39
f 27//25 31//29 42//40
f 26//24 39//37 31//29
f 42//40 31//29 43//41
f 30//28 44//42 18//16
f 29//27 18//16 44//42
f 29//27 44//42 45//43
f 31//29 39//37 46//44
f 44//42 30//28 47//45
f 43//41 31//29 46//44
f 19//17 34//32 48//46
f 34//32 49//47 48//46
f 50//48 35//33 33//31
f 49//47 34//32 21//19
f 51//49 49//47 21//19
f 51//49 21//19 23//21
f 40//38 51//49 23//21
f 38//36 37//35 52//50
f 38//36 53//51 39//37
f 41//39 27//25 42//40
f 45//43 54//52 29//27
f 55//53 28//26 41//39
f 30//28 55//53 47//45
f 30//28 28//26 55//53
f 46//44 39//37 56//54
f 56//54 39//37 53//51
f 57//55 42//40 43//41
f 46//44 58//56 43//41
f 58//56 46//44 56//54
f 58//56 57//55 43//41
f 32//30 59//57 60//58
f 19//17 59//57 32//30
f 48//46 59//57 19//17
f 35//33 50//48 61//59
f 35//33 61//59 36//34
f 62//60 51//49 40//38
f 37//35 36//34 52//50
f 40//38 63//61 62//60
f 52//50 64//62 38//36
f 65//63 63//61 40//38
f 29//27 65//63 40//38
f 38//36 64//62 53//51
f 54//52 65//63 29//27
f 41//39 42//40 66//64
f 44//42 67//65 45//43
f 68//66 56//54 53//51
f 66//64 42//40 57//55
f 44//42 47//45 69//67
f 67//65 44//42 69//67
f 60//58 59//57 70//68
f 71//69 32//30 60//58
f 70//68 59//57 48//46
f 71//69 50//48 33//31
f 32//30 71//69 33//31
f 72//70 48//46 49//47
f 73//71 72//70 49//47
f 51//49 73//71 49//47
f 51//49 74//72 73//71
f 62//60 74//72 51//49
f 75//73 36//34 61//59
f 74//72 62//60 76//74
f 63//61 76//74 62//60
f 77//75 63//61 65//63
f 45//43 67//65 78//76
f 66//64 79//77 41//39
f 55//53 41//39 79//77
f 47//45 55//53 80//78
f 56//54 81//79 58//56
f 57//55 58//56 82//80
f 82//80 66//64 57//55
f 81//79 83//81 58//56
f 82//80 58//56 83//81
f 70//68 72//70 84//82
f 72//70 70//68 48//46
f 73//71 74//72 85//83
f 36//34 75//73 52//50
f 86//84 76//74 63//61
f 77//75 86//84 63//61
f 65//63 54//52 77//75
f 54//52 87//85 77//75
f 64//62 88//86 53//51
f 54//52 45//43 78//76
f 54//52 78//76 87//85
f 53//51 88//86 68//66
f 68//66 89//87 56//54
f 55//53 79//77 80//78
f 80//78 69//67 47//45
f 79//77 66//64 90//88
f 56//54 89//87 91//89
f 81//79 56//54 91//89
f 82//80 90//88 66//64
f 91//89 83//81 81//79
f 83//81 92//90 82//80
f 93//91 83//81 91//89
f 70//68 94//92 60//58
f 95//93 71//69 60//58
f 72//70 73//71 84//82
f 96//94 50//48 71//69
f 61//59 96//94 97//95
f 96//94 61//59 50//48
f 61//59 97//95 75//73
f 52//50 98//96 64//62
f 98//96 52//50 75//73
f 78//76 99//97 87//85
f 78//76 100//98 99//97
f 78//76 67//65 100//98
f 68//66 88//86 89//87
f 67//65 69//67 101//99
f 67//65 101//99 100//98
f 79//77 90//88 80//78
f 102//100 91//89 89//87
f 90//88 82//80 92//90
f 93//91 92//90 83//81
f 70//68 84//82 94//92
f 85//83 74//72 103//101
f 103//101 74//72 76//74
f 86//84 104//102 76//74
f 105//103 88//86 64//62
f 86//84 77//75 106//104
f 77//75 87//85 107//105
f 106//104 77//75 107//105
f 80//78 108//106 69//67
f 101//99 69//67 108//106
f 91//89 102//100 109//107
f 91//89 109//107 93//91
f 92//90 93//91 110//108
f 111//109 92//90 110//108
f 112//110 71//69 95//93
f 71//69 112//110 96//94
f 73//71 113//111 84//82
f 85//83 113//111 73//71
f 75//73 97//95 114//112
f 103//101 76//74 104//102
f 75//73 115//113 98//96
f 104//102 86//84 116//114
f 64//62 98//96 105//103
f 87//85 99//97 117//115
f 87//85 117//115 107//105
f 118//116 89//87 88//86
f 101//99 99//97 100//98
f 118//116 102//100 89//87
f 80//78 90//88 119//117
f 90//88 92//90 111//109
f 90//88 111//109 119//117
f 110//108 93//91 120//118
f 110//108 120//118 121//119
f 112//110 60//58 122//120
f 94//92 122//120 60//58
f 112//110 95//93 60//58
f 84//82 123//121 94//92
f 113//111 123//121 84//82
f 96//94 124//122 97//95
f 113//111 85//83 125//123
f 85//83 103//101 125//123
f 114//112 97//95 126//124
f 114//112 115//113 75//73
f 98//96 115//113 127//125
f 98//96 128//126 105//103
f 106//104 116//114 86//84
f 128//126 129//127 105//103
f 105//103 129//127 88//86
f 129//127 118//116 88//86
f 101//99 117//115 99//97
f 117//115 101//99 130//128
f 131//129 102//100 118//116
f 131//129 109//107 102//100
f 132//130 101//99 108//106
f 80//78 119//117 108//106
f 93//91 109//107 120//118
f 111//109 110//108 121//119
f 94//92 133//131 134//132
f 94//92 123//121 133//131
f 135//133 96//94 112//110
f 124//122 96//94 135//133
f 136//134 97//95 124//122
f 126//124 97//95 136//134
f 114//112 126//124 115//113
f 128//126 98//96 127//125
f 107//105 117//115 137//135
f 106//104 107//105 137//135
f 138//136 118//116 129//127
f 101//99 132//130 130//128
f 139//137 109//107 131//129
f 119//117 140//138 108//106
f 109//107 139//137 120//118
f 140//138 119//117 111//109
f 122//120 141//139 112//110
f 122//120 94//92 134//132
f 112//110 141//139 135//133
f 142//140 123//121 113//111
f 142//140 113//111 125//123
f 136//134 143//141 126//124
f 103//101 104//102 144//142
f 126//124 145//143 115//113
f 115//113 145//143 127//125
f 104//102 116//114 144//142
f 144//142 116//114 146//144
f 116//114 106//104 147//145
f 129//127 128//126 148//146
f 148//146 138//136 129//127
f 138//136 149//147 118//116
f 149//147 131//129 118//116
f 132//130 150//148 130//128
f 131//129 149//147 139//137
f 132//130 108//106 140//138
f 103//101 151//149 125//123
f 145//143 152//150 127//125
f 128//126 127//125 152//150
f 153//151 128//126 152//150
f 148//146 128//126 153//151
f 116//114 147//145 146//144
f 147//145 106//104 137//135
f 117//115 154//152 137//135
f 117//115 155//153 154//152
f 155//153 117//115 130//128
f 149//147 156//154 139//137
f 150//148 132//130 140//138
f 157//155 150//148 140//138
f 139//137 158//156 120//118
f 140//138 111//109 159//157
f 120//118 160//158 121//119
f 159//157 111//109 121//119
f 159//157 121//119 160//158
f 161//159 141//139 122//120
f 162//160 135//133 141//139
f 162//160 124//122 135//133
f 142//140 125//123 151//149
f 136//134 162//160 143//141
f 124//122 162//160 136//134
f 103//101 144//142 151//149
f 126//124 163//161 145//143
f 164//162 148//146 153//151
f 138//136 148//146 164//162
f 165//163 137//135 154//152
f 138//136 166//164 149//147
f 150//148 155//153 130//128
f 139//137 156//154 158//156
f 120//118 158//156 160//158
f 167//165 159//157 160//158
f 140//138 159//157 157//155
f 134//132 161//159 122//120
f 134//132 168//166 161//159
f 134//132 133//131 168//166
f 169//167 142//140 151//149
f 143//141 163//161 126//124
f 152//150 170//168 153//151
f 147//145 137//135 165//163
f 166//164 138//136 164//162
f 155//153 171//169 154//152
f 149//147 166//164 156//154
f 155//153 150//148 171//169
f 150//148 157//155 171//169
f 158//156 156//154 167//165
f 167//165 160//158 158//156
f 159//157 167//165 157//155
f 172//170 141//139 161//159
f 172//170 173//171 141//139
f 133//131 174//172 168//166
f 123//121 174//172 133//131
f 173//171 162//160 141//139
f 142//140 174//172 123//121
f 169//167 174//172 142//140
f 162//160 163//161 143//141
f 151//149 144//142 175//173
f 152//150 145//143 170//168
f 144//142 146//144 176//174
f 170//168 177//175 153//151
f 146//144 147//145 178//176
f 147//145 165//163 178//176
f 164//162 153//151 177//175
f 165//163 154//152 179//177
f 164//162 180//178 166//164
f 179//177 154//152 171//169
f 180//178 156//154 166//164
f 180//178 181//179 156//154
f 167//165 156//154 181//179
f 167//165 181//179 182//180
f 182//180 183//181 157//155
f 171//169 157//155 183//181
f 157//155 167//165 182//180
f 161//159 168//166 184//182
f 162//160 173//171 185//183
f 162//160 185//183 163//161
f 151//149 175//173 169//167
f 163//161 170//168 145//143
f 170//168 163//161 186//184
f 175//173 144//142 176//174
f 177//175 170//168 187//185
f 176//174 146//144 178//176
f 188//186 164//162 177//175
f 180//178 164//162 188//186
f 180//178 188//186 189//187
f 189//187 190//188 180//178
f 191//189 179//177 171//169
f 190//188 181//179 180//178
f 190//188 183//181 182//180
f 171//169 183//181 191//189
f 181//179 190//188 182//180
f 161//159 184//182 172//170
f 192//190 163//161 185//183
f 193//191 169//167 175//173
f 163//161 192//190 186//184
f 186//184 187//185 170//168
f 194//192 177//175 187//185
f 195//193 178//176 165//163
f 194//192 188//186 177//175
f 165//163 196//194 195//193
f 165//163 179//177 196//194
f 196//194 179//177 191//189
f 197//195 183//181 190//188
f 198//196 183//181 197//195
f 191//189 183//181 198//196
f 184//182 173//171 172//170
f 168//166 199//197 184//182
f 200//198 174//172 169//167
f 193//191 200//198 169//167
f 185//183 201//199 192//190
f 176//174 202//200 175//173
f 176//174 178//176 203//201
f 203//201 178//176 195//193
f 188//186 194//192 204//202
f 189//187 188//186 204//202
f 196//194 191//189 205//203
f 197//195 190//188 189//187
f 198//196 197//195 206//204
f 205//203 198//196 206//204
f 191//189 198//196 205//203
f 207//205 173//171 184//182
f 168//166 174//172 199//197
f 174//172 200//198 199//197
f 193//191 175//173 202//200
f 194//192 187//185 208//206
f 203//201 195//193 209//207
f 209//207 195//193 196//194
f 210//208 189//187 204//202
f 197//195 189//187 210//208
f 206//204 197//195 210//208
f 184//182 199//197 207//205
f 173//171 207//205 185//183
f 185//183 207//205 201//199
f 202//200 200//198 193//191
f 186//184 192//190 208//206
f 186//184 208//206 187//185
f 203//201 211//209 202//200
f 202//200 176//174 203//201
f 203//201 209//207 211//209
f 212//210 204//202 208//206
f 208//206 204//202 194//192
f 213//211 209//207 196//194
f 214//212 213//211 205//203
f 196//194 205//203 213//211
f 205//203 206//204 214//212
f 199//197 215//213 207//205
f 201//199 207//205 215//213
f 216//214 215//213 199//197
f 216//214 199//197 200//198
f 217//215 201//199 215//213
f 201//199 217//215 192//190
f 200//198 202//200 216//214
f 202//200 218//216 216//214
f 217//215 208//206 192//190
f 202//200 211//209 218//216
f 212//210 210//208 204//202
f 214//212 211//209 213//211
f 211//209 209//207 213//211
f 219//217 210//208 212//210
f 219//217 206//204 210//208
f 214//212 206//204 219//217
f 216//214 220//218 215//213
f 215//213 221//219 217//215
f 220//218 221//219 215//213
f 216//214 218//216 220//218
f 218//216 222//220 220//218
f 221//219 208//206 217//215
f 218//216 211//209 222//220
f 212//210 208//206 223//221
f 224//222 222//220 211//209
f 211//209 214//212 224//222
f 223//221 219//217 212//210
f 224//222 219//217 223//221
f 214//212 219//217 224//222
f 220//218 223//221 221//219
f 221//219 223//221 208//206
f 222//220 223//221 220//218
f 222//220 224//222 223//221
