# Blender v2.92.0 OBJ File: 'convert_to_one_sided.blend'
# www.blender.org
mtllib 621L.mtl
o 621
v 10.149869 5.212383 3.841262
v 10.029171 5.152283 3.838032
v 10.110869 5.260191 3.845932
v 10.013071 5.075784 3.870221
v 9.944492 5.147243 3.857181
v 10.149969 5.114144 3.863101
v 9.997801 5.235532 3.853061
v 10.120170 5.340940 3.864131
v 10.022671 5.343351 3.875581
v 10.217769 5.343561 3.867571
v 10.177969 5.019575 3.899110
v 10.212369 5.053294 3.884911
v 10.287168 5.073414 3.897110
v 9.905912 5.127644 3.882101
v 10.283168 5.203243 3.886681
v 9.891943 5.219472 3.874111
v 9.938112 5.300811 3.866991
v 9.880383 5.330791 3.878111
v 9.961482 5.399700 3.886571
v 10.131070 5.433400 3.895921
v 10.358367 5.356161 3.915890
v 10.208168 5.454969 3.900861
v 9.898823 5.460149 3.892331
v 10.110570 4.989215 3.931730
v 10.020771 5.023035 3.922530
v 10.274467 5.021905 3.909220
v 9.945142 5.075944 3.909261
v 9.879233 5.118574 3.926960
v 9.864444 5.171813 3.903521
v 9.844704 5.295441 3.908701
v 9.857043 5.452929 3.904251
v 10.418866 5.210312 3.934630
v 10.080670 5.491739 3.923460
v 9.979391 5.518089 3.916350
v 9.916233 5.550368 3.915501
v 10.296568 5.478749 3.923420
v 10.375566 5.453979 3.947380
v 9.886302 5.534188 3.914701
v 10.247568 5.548588 3.954430
v 10.293167 4.978826 3.937790
v 10.355567 5.010475 3.940480
v 9.997811 5.015565 3.961990
v 10.395466 5.094954 3.940740
v 9.845863 5.186023 3.956200
v 9.831053 5.445600 3.945260
v 10.436266 5.396090 3.965820
v 10.176369 5.528768 3.944650
v 9.869163 5.572398 3.951770
v 9.983151 5.597988 3.940980
v 9.932372 5.613637 3.947300
v 10.212468 4.967646 3.944730
v 10.201869 4.927956 4.015249
v 9.943952 5.053925 3.982099
v 10.464665 5.137163 3.965390
v 10.484565 5.233732 3.977890
v 9.826324 5.336591 3.983850
v 10.441165 5.309011 3.958320
v 10.062470 5.595367 3.956770
v 10.359767 5.536328 3.981260
v 9.836843 5.543348 3.978980
v 10.296268 5.590427 4.001430
v 10.310167 4.940906 3.991519
v 10.089170 4.965176 3.994739
v 10.362166 4.967296 3.975580
v 10.425666 5.001315 3.996889
v 10.472165 5.071095 4.000800
v 9.881453 5.121953 4.010849
v 10.503265 5.156424 4.015909
v 10.485565 5.352750 4.008999
v 10.409966 5.484689 3.989630
v 10.136270 5.587428 3.971760
v 10.213168 5.621587 4.008289
v 9.916862 5.643967 3.966470
v 10.018571 5.651757 3.971690
v 9.961761 5.677766 3.983109
v 10.392666 4.944456 4.035489
v 10.481965 5.016515 4.050439
v 10.512964 5.264162 4.036929
v 10.449965 5.450959 4.021299
v 9.829734 5.493499 4.012280
v 9.861354 5.596648 4.004649
v 10.116070 5.667027 4.017149
v 9.911313 5.657456 3.998879
v 10.041170 5.706316 4.023809
v 9.983761 5.711046 4.031309
v 10.342667 4.909006 4.084658
v 10.135369 4.937626 4.022679
v 10.030771 4.986616 4.041099
v 9.951921 5.053595 4.060279
v 9.839833 5.248492 4.036349
v 10.405766 5.537008 4.028849
v 10.384067 5.547958 4.012290
v 10.358666 5.597507 4.052929
v 9.890313 5.653427 4.043879
v 10.510164 5.075514 4.085168
v 10.522264 5.187323 4.079858
v 9.827034 5.390770 4.040859
v 10.513464 5.362000 4.082978
v 10.478065 5.427710 4.069659
v 10.274868 5.660797 4.065848
v 9.944912 5.695456 4.061949
v 10.053170 5.735716 4.070789
v 10.130169 5.725136 4.083068
v 10.150969 4.931246 4.069889
v 10.455266 4.970086 4.080148
v 9.900563 5.107354 4.062169
v 9.879603 5.164853 4.073809
v 10.528164 5.270112 4.121988
v 10.419465 5.534508 4.096808
v 9.867853 5.596508 4.069019
v 10.200869 5.681746 4.061749
v 10.019571 5.729666 4.092908
v 10.099469 5.737475 4.108738
v 10.259168 4.900846 4.114518
v 10.416666 4.930886 4.130068
v 10.029671 4.993985 4.102388
v 10.490464 5.008275 4.112518
v 9.951511 5.089654 4.111628
v 9.863104 5.243672 4.098198
v 9.850553 5.361701 4.100478
v 9.845883 5.479029 4.079238
v 10.355866 5.633497 4.113998
v 9.917302 5.667037 4.082569
v 10.316167 5.664096 4.104628
v 10.379466 4.903707 4.173917
v 10.332767 4.895427 4.162927
v 10.103670 4.953576 4.112578
v 10.006171 5.029445 4.121108
v 10.477865 5.444930 4.134098
v 9.886393 5.550348 4.130218
v 9.969671 5.695966 4.115118
v 10.245769 5.698676 4.116058
v 10.206868 4.918226 4.172137
v 10.466965 4.971955 4.167758
v 10.028771 5.030585 4.153337
v 10.527765 5.158373 4.166627
v 9.924972 5.185323 4.137137
v 10.530364 5.259042 4.195177
v 10.512465 5.346691 4.166327
v 9.876103 5.453199 4.134758
v 9.926812 5.634437 4.123318
v 10.311768 5.670007 4.142767
v 10.500964 5.041084 4.170797
v 9.887273 5.294762 4.137628
v 9.898323 5.381920 4.160927
v 10.411866 5.541988 4.172197
v 10.362267 5.610528 4.142798
v 10.001971 5.668346 4.164767
v 10.230168 5.701466 4.171457
v 10.041271 5.717136 4.138577
v 10.152969 5.724185 4.133548
v 10.086270 5.729156 4.129078
v 10.296667 4.899046 4.203817
v 10.115870 4.978835 4.178307
v 10.060970 5.088274 4.205377
v 9.929572 5.492849 4.179637
v 10.464965 5.425330 4.217456
v 9.942452 5.586878 4.160227
v 10.108170 5.704566 4.162887
v 10.354667 4.907006 4.233057
v 10.475065 4.997185 4.244596
v 9.985591 5.242812 4.198147
v 10.327367 5.612347 4.187237
v 10.271368 4.907056 4.231637
v 10.247468 4.928636 4.244687
v 10.412866 4.944396 4.228177
v 10.503065 5.073974 4.245047
v 10.516564 5.187973 4.247026
v 9.999242 5.361560 4.219787
v 10.504965 5.306981 4.235396
v 10.397567 5.506879 4.224997
v 10.018371 5.573848 4.205897
v 10.076870 5.653527 4.193817
v 10.148370 5.670816 4.193667
v 10.228168 5.605057 4.221706
v 10.308368 4.917556 4.258796
v 10.197269 4.996615 4.266306
v 10.105570 5.160833 4.265996
v 10.085470 5.251822 4.264866
v 10.052570 5.437679 4.243026
v 10.119969 5.481619 4.263726
v 10.129770 5.581838 4.225837
v 10.341967 5.531758 4.243996
v 10.187368 5.071194 4.297205
v 10.478665 5.027105 4.282426
v 10.106170 5.317411 4.278106
v 10.480165 5.342631 4.276526
v 10.427465 5.417590 4.273296
v 10.206868 5.518328 4.263186
v 10.289667 5.509829 4.267086
v 10.367567 4.950786 4.297286
v 10.443465 4.999425 4.287126
v 10.260568 5.004795 4.321945
v 10.477964 5.109344 4.302716
v 10.488565 5.251012 4.290036
v 10.161069 5.345801 4.302236
v 10.364166 5.431620 4.296566
v 10.299268 5.418200 4.309135
v 10.286668 4.963786 4.291086
v 10.204369 5.184913 4.321506
v 10.462465 5.322881 4.303095
v 10.224168 5.392420 4.308775
v 10.448266 5.231892 4.335365
v 10.252168 5.278642 4.335985
v 10.423165 5.345651 4.311955
v 10.374866 5.333031 4.330555
v 10.331367 5.011045 4.340635
v 10.413567 5.037675 4.327055
v 10.260168 5.065254 4.331295
v 10.433166 5.115503 4.346115
v 10.318167 5.302491 4.341615
v 10.383166 5.086144 4.359295
v 10.308967 5.096744 4.348255
v 10.406066 5.163193 4.360645
v 10.325867 5.193613 4.348745
v 10.375667 5.244352 4.342845
vn 0.1675 -0.0325 -0.9853
vn -0.0557 -0.1127 -0.9921
vn -0.0211 0.1638 -0.9863
vn -0.1841 -0.5410 -0.8206
vn -0.2930 -0.1624 -0.9422
vn 0.1323 -0.2525 -0.9585
vn -0.1370 0.1408 -0.9805
vn -0.0489 0.2713 -0.9613
vn -0.0407 0.2645 -0.9635
vn 0.1801 0.1756 -0.9679
vn 0.0152 -0.5315 -0.8469
vn 0.1251 -0.3192 -0.9394
vn 0.2909 -0.1753 -0.9406
vn -0.5353 -0.4370 -0.7228
vn 0.3183 -0.0564 -0.9463
vn -0.4372 -0.0463 -0.8981
vn -0.0963 0.1304 -0.9868
vn -0.3245 0.0826 -0.9423
vn 0.0421 0.2062 -0.9776
vn -0.0602 0.3887 -0.9194
vn 0.3971 0.1275 -0.9089
vn 0.0278 0.3962 -0.9178
vn -0.0890 0.2030 -0.9751
vn -0.1610 -0.7857 -0.5973
vn -0.3371 -0.7891 -0.5135
vn 0.2030 -0.4067 -0.8907
vn -0.5083 -0.7296 -0.4576
vn -0.7684 -0.5904 -0.2470
vn -0.8030 -0.2451 -0.5432
vn -0.8478 -0.0434 -0.5285
vn -0.6306 0.1859 -0.7536
vn 0.4486 -0.0103 -0.8937
vn 0.0757 0.3438 -0.9360
vn 0.1454 0.2613 -0.9543
vn -0.0123 0.3464 -0.9380
vn 0.2613 0.3948 -0.8808
vn 0.4650 0.3280 -0.8223
vn -0.3593 0.3807 -0.8520
vn 0.1004 0.5515 -0.8281
vn 0.1673 -0.6396 -0.7503
vn 0.4034 -0.3876 -0.8289
vn -0.5010 -0.8293 -0.2474
vn 0.4552 -0.2098 -0.8653
vn -0.9620 -0.2598 -0.0841
vn -0.9321 0.1160 -0.3431
vn 0.6410 0.2538 -0.7244
vn 0.0145 0.4949 -0.8688
vn -0.6791 0.4495 -0.5803
vn 0.1207 0.3791 -0.9174
vn -0.1424 0.4862 -0.8621
vn -0.0166 -0.7819 -0.6232
vn -0.1084 -0.9314 -0.3475
vn -0.6533 -0.7546 -0.0618
vn 0.6370 -0.1633 -0.7533
vn 0.7405 0.0501 -0.6702
vn -0.9969 -0.0504 -0.0596
vn 0.5838 0.1154 -0.8037
vn 0.2175 0.3892 -0.8951
vn 0.4360 0.5523 -0.7105
vn -0.9240 0.3148 -0.2172
vn 0.2901 0.6419 -0.7098
vn 0.1424 -0.8613 -0.4877
vn -0.3538 -0.8937 -0.2759
vn 0.3774 -0.6819 -0.6266
vn 0.5908 -0.5073 -0.6273
vn 0.7404 -0.3011 -0.6010
vn -0.8442 -0.5212 0.1252
vn 0.9004 -0.1174 -0.4189
vn 0.8240 0.2417 -0.5124
vn 0.6541 0.4255 -0.6253
vn 0.1649 0.4674 -0.8685
vn 0.1673 0.6173 -0.7687
vn -0.4215 0.6084 -0.6725
vn 0.1615 0.5211 -0.8381
vn -0.1425 0.7247 -0.6742
vn 0.4388 -0.8076 -0.3940
vn 0.8096 -0.4512 -0.3755
vn 0.9442 0.0610 -0.3236
vn 0.8185 0.4190 -0.3930
vn -0.9831 0.1533 0.1005
vn -0.8777 0.4681 -0.1027
vn 0.2488 0.6044 -0.7568
vn -0.6046 0.7249 -0.3302
vn 0.1432 0.7565 -0.6381
vn -0.2809 0.9028 -0.3256
vn 0.1937 -0.9481 -0.2521
vn -0.3060 -0.9335 -0.1868
vn -0.5211 -0.8535 -0.0026
vn -0.6898 -0.6909 0.2165
vn -0.9537 -0.2032 0.2216
vn 0.7556 0.5480 -0.3589
vn 0.5905 0.5848 -0.5562
vn 0.5774 0.6825 -0.4482
vn -0.7705 0.6364 0.0370
vn 0.9561 -0.2239 -0.1889
vn 0.9835 -0.0554 -0.1725
vn -0.9768 -0.0075 0.2138
vn 0.9485 0.2756 -0.1564
vn 0.8646 0.4428 -0.2376
vn 0.3236 0.7487 -0.5785
vn -0.5436 0.8385 0.0381
vn -0.0051 0.9583 -0.2858
vn 0.2590 0.8724 -0.4146
vn -0.3423 -0.9394 -0.0192
vn 0.6733 -0.6926 -0.2588
vn -0.7699 -0.5366 0.3455
vn -0.8249 -0.3562 0.4390
vn 0.9949 0.0731 -0.0700
vn 0.8306 0.5499 -0.0878
vn -0.8736 0.3550 0.3328
vn 0.2632 0.7444 -0.6137
vn -0.2865 0.9437 0.1654
vn 0.0539 0.9956 0.0768
vn -0.1314 -0.9885 -0.0748
vn 0.5474 -0.8324 -0.0869
vn -0.5823 -0.7587 0.2921
vn 0.8816 -0.4655 -0.0778
vn -0.6790 -0.4583 0.5734
vn -0.8190 -0.2175 0.5310
vn -0.8682 -0.0434 0.4944
vn -0.9117 0.1184 0.3933
vn 0.7498 0.6602 -0.0436
vn -0.6977 0.6047 0.3842
vn 0.5099 0.8076 -0.2963
vn 0.4079 -0.9124 0.0325
vn 0.0796 -0.9968 -0.0052
vn -0.4573 -0.8668 0.1987
vn -0.6422 -0.6277 0.4400
vn 0.8855 0.4613 0.0565
vn -0.7414 0.2413 0.6261
vn -0.5257 0.7097 0.4690
vn 0.3335 0.9197 -0.2070
vn -0.3788 -0.9011 0.2109
vn 0.7509 -0.6584 0.0515
vn -0.5961 -0.5101 0.6200
vn 0.9929 -0.1139 0.0339
vn -0.6463 -0.2918 0.7051
vn 0.9807 0.1049 0.1649
vn 0.9443 0.2928 0.1505
vn -0.7767 0.0660 0.6264
vn -0.6544 0.4343 0.6190
vn 0.5744 0.7818 0.2426
vn 0.9418 -0.3313 0.0579
vn -0.6853 -0.1513 0.7124
vn -0.6449 -0.0450 0.7630
vn 0.7513 0.5803 0.3143
vn 0.7423 0.5989 0.3005
vn -0.3901 0.4907 0.7791
vn 0.2230 0.7736 0.5932
vn -0.2533 0.7790 0.5735
vn 0.1555 0.9593 0.2358
vn -0.0645 0.8942 0.4431
vn -0.0818 -0.9827 0.1661
vn -0.5333 -0.6624 0.5261
vn -0.5832 -0.3412 0.7372
vn -0.5429 0.1201 0.8312
vn 0.8098 0.4486 0.3782
vn -0.5398 0.3015 0.7859
vn -0.0864 0.7045 0.7044
vn 0.2322 -0.9197 0.3167
vn 0.7782 -0.5734 0.2560
vn -0.5653 -0.1638 0.8084
vn 0.4850 0.5911 0.6445
vn -0.2526 -0.8930 0.3724
vn -0.4191 -0.6899 0.5903
vn 0.5670 -0.7722 0.2868
vn 0.9434 -0.2118 0.2551
vn 0.9294 -0.0106 0.3690
vn -0.4953 -0.0201 0.8685
vn 0.9108 0.2288 0.3437
vn 0.5874 0.5466 0.5969
vn -0.3416 0.2626 0.9024
vn -0.1791 0.4351 0.8824
vn -0.0422 0.4868 0.8725
vn 0.0924 0.4704 0.8776
vn -0.0988 -0.8137 0.5728
vn -0.5246 -0.5111 0.6808
vn -0.5375 -0.1718 0.8256
vn -0.5001 -0.0712 0.8630
vn -0.4158 0.1022 0.9037
vn -0.2467 0.2596 0.9337
vn -0.1203 0.3604 0.9250
vn 0.3231 0.5365 0.7796
vn -0.5178 -0.2398 0.8212
vn 0.7463 -0.3650 0.5567
vn -0.4458 0.0123 0.8951
vn 0.7870 0.3280 0.5225
vn 0.5269 0.4785 0.7024
vn -0.0767 0.3847 0.9199
vn 0.0865 0.4555 0.8860
vn 0.2339 -0.6855 0.6895
vn 0.5233 -0.5489 0.6518
vn -0.3809 -0.4241 0.8216
vn 0.7237 -0.1438 0.6750
vn 0.8141 0.0949 0.5729
vn -0.3366 0.1028 0.9360
vn 0.2398 0.4208 0.8749
vn 0.0062 0.3404 0.9403
vn -0.2566 -0.6345 0.7291
vn -0.3665 -0.0470 0.9292
vn 0.5815 0.2867 0.7614
vn -0.1607 0.2446 0.9562
vn 0.4630 0.1372 0.8757
vn -0.2078 0.0822 0.9747
vn 0.3489 0.3382 0.8740
vn 0.1607 0.2483 0.9553
vn -0.0568 -0.3870 0.9203
vn 0.4370 -0.3842 0.8133
vn -0.3274 -0.1328 0.9355
vn 0.5122 -0.1530 0.8451
vn -0.0247 0.1663 0.9858
vn 0.0956 -0.1592 0.9826
vn -0.2092 -0.0601 0.9760
vn 0.1544 0.0788 0.9849
vn -0.1195 0.0490 0.9916
vn 0.0783 0.1596 0.9841
usemtl mtl1.1400
s 1
f 1//1 2//2 3//3
f 4//4 5//5 2//2
f 6//6 4//4 2//2
f 6//6 2//2 1//1
f 2//2 5//5 7//7
f 2//2 7//7 3//3
f 3//3 7//7 8//8
f 8//8 7//7 9//9
f 1//1 3//3 10//10
f 10//10 3//3 8//8
f 6//6 11//11 4//4
f 6//6 12//12 11//11
f 13//13 12//12 6//6
f 4//4 14//14 5//5
f 15//15 13//13 6//6
f 5//5 14//14 16//16
f 5//5 16//16 7//7
f 15//15 6//6 1//1
f 7//7 16//16 17//17
f 15//15 1//1 10//10
f 9//9 7//7 17//17
f 17//17 16//16 18//18
f 19//19 17//17 18//18
f 19//19 9//9 17//17
f 8//8 9//9 20//20
f 15//15 10//10 21//21
f 22//22 8//8 20//20
f 19//19 18//18 23//23
f 10//10 8//8 22//22
f 4//4 24//24 25//25
f 26//26 11//11 12//12
f 11//11 24//24 4//4
f 26//26 12//12 13//13
f 25//25 27//27 4//4
f 27//27 28//28 14//14
f 4//4 27//27 14//14
f 14//14 28//28 29//29
f 29//29 16//16 14//14
f 30//30 16//16 29//29
f 18//18 16//16 30//30
f 31//31 18//18 30//30
f 21//21 32//32 15//15
f 9//9 19//19 33//33
f 20//20 9//9 33//33
f 19//19 23//23 34//34
f 18//18 31//31 23//23
f 34//34 23//23 35//35
f 22//22 36//36 10//10
f 21//21 10//10 36//36
f 21//21 36//36 37//37
f 23//23 31//31 38//38
f 36//36 22//22 39//39
f 35//35 23//23 38//38
f 11//11 26//26 40//40
f 26//26 41//41 40//40
f 42//42 27//27 25//25
f 41//41 26//26 13//13
f 43//43 41//41 13//13
f 43//43 13//13 15//15
f 32//32 43//43 15//15
f 30//30 29//29 44//44
f 30//30 45//45 31//31
f 33//33 19//19 34//34
f 37//37 46//46 21//21
f 47//47 20//20 33//33
f 22//22 47//47 39//39
f 22//22 20//20 47//47
f 38//38 31//31 48//48
f 48//48 31//31 45//45
f 49//49 34//34 35//35
f 38//38 50//50 35//35
f 50//50 38//38 48//48
f 50//50 49//49 35//35
f 24//24 51//51 52//52
f 11//11 51//51 24//24
f 40//40 51//51 11//11
f 27//27 42//42 53//53
f 27//27 53//53 28//28
f 54//54 43//43 32//32
f 29//29 28//28 44//44
f 32//32 55//55 54//54
f 44//44 56//56 30//30
f 57//57 55//55 32//32
f 21//21 57//57 32//32
f 30//30 56//56 45//45
f 46//46 57//57 21//21
f 33//33 34//34 58//58
f 36//36 59//59 37//37
f 60//60 48//48 45//45
f 58//58 34//34 49//49
f 36//36 39//39 61//61
f 59//59 36//36 61//61
f 52//52 51//51 62//62
f 63//63 24//24 52//52
f 62//62 51//51 40//40
f 63//63 42//42 25//25
f 24//24 63//63 25//25
f 64//64 40//40 41//41
f 65//65 64//64 41//41
f 43//43 65//65 41//41
f 43//43 66//66 65//65
f 54//54 66//66 43//43
f 67//67 28//28 53//53
f 66//66 54//54 68//68
f 55//55 68//68 54//54
f 69//69 55//55 57//57
f 37//37 59//59 70//70
f 58//58 71//71 33//33
f 47//47 33//33 71//71
f 39//39 47//47 72//72
f 48//48 73//73 50//50
f 49//49 50//50 74//74
f 74//74 58//58 49//49
f 73//73 75//75 50//50
f 74//74 50//50 75//75
f 62//62 64//64 76//76
f 64//64 62//62 40//40
f 65//65 66//66 77//77
f 28//28 67//67 44//44
f 78//78 68//68 55//55
f 69//69 78//78 55//55
f 57//57 46//46 69//69
f 46//46 79//79 69//69
f 56//56 80//80 45//45
f 46//46 37//37 70//70
f 46//46 70//70 79//79
f 45//45 80//80 60//60
f 60//60 81//81 48//48
f 47//47 71//71 72//72
f 72//72 61//61 39//39
f 71//71 58//58 82//82
f 48//48 81//81 83//83
f 73//73 48//48 83//83
f 74//74 82//82 58//58
f 83//83 75//75 73//73
f 75//75 84//84 74//74
f 85//85 75//75 83//83
f 62//62 86//86 52//52
f 87//87 63//63 52//52
f 64//64 65//65 76//76
f 88//88 42//42 63//63
f 53//53 88//88 89//89
f 88//88 53//53 42//42
f 53//53 89//89 67//67
f 44//44 90//90 56//56
f 90//90 44//44 67//67
f 70//70 91//91 79//79
f 70//70 92//92 91//91
f 70//70 59//59 92//92
f 60//60 80//80 81//81
f 59//59 61//61 93//93
f 59//59 93//93 92//92
f 71//71 82//82 72//72
f 94//94 83//83 81//81
f 82//82 74//74 84//84
f 85//85 84//84 75//75
f 62//62 76//76 86//86
f 77//77 66//66 95//95
f 95//95 66//66 68//68
f 78//78 96//96 68//68
f 97//97 80//80 56//56
f 78//78 69//69 98//98
f 69//69 79//79 99//99
f 98//98 69//69 99//99
f 72//72 100//100 61//61
f 93//93 61//61 100//100
f 83//83 94//94 101//101
f 83//83 101//101 85//85
f 84//84 85//85 102//102
f 103//103 84//84 102//102
f 104//104 63//63 87//87
f 63//63 104//104 88//88
f 65//65 105//105 76//76
f 77//77 105//105 65//65
f 67//67 89//89 106//106
f 95//95 68//68 96//96
f 67//67 107//107 90//90
f 96//96 78//78 108//108
f 56//56 90//90 97//97
f 79//79 91//91 109//109
f 79//79 109//109 99//99
f 110//110 81//81 80//80
f 93//93 91//91 92//92
f 110//110 94//94 81//81
f 72//72 82//82 111//111
f 82//82 84//84 103//103
f 82//82 103//103 111//111
f 102//102 85//85 112//112
f 102//102 112//112 113//113
f 104//104 52//52 114//114
f 86//86 114//114 52//52
f 104//104 87//87 52//52
f 76//76 115//115 86//86
f 105//105 115//115 76//76
f 88//88 116//116 89//89
f 105//105 77//77 117//117
f 77//77 95//95 117//117
f 106//106 89//89 118//118
f 106//106 107//107 67//67
f 90//90 107//107 119//119
f 90//90 120//120 97//97
f 98//98 108//108 78//78
f 120//120 121//121 97//97
f 97//97 121//121 80//80
f 121//121 110//110 80//80
f 93//93 109//109 91//91
f 109//109 93//93 122//122
f 123//123 94//94 110//110
f 123//123 101//101 94//94
f 124//124 93//93 100//100
f 72//72 111//111 100//100
f 85//85 101//101 112//112
f 103//103 102//102 113//113
f 86//86 125//125 126//126
f 86//86 115//115 125//125
f 127//127 88//88 104//104
f 116//116 88//88 127//127
f 128//128 89//89 116//116
f 118//118 89//89 128//128
f 106//106 118//118 107//107
f 120//120 90//90 119//119
f 99//99 109//109 129//129
f 98//98 99//99 129//129
f 130//130 110//110 121//121
f 93//93 124//124 122//122
f 131//131 101//101 123//123
f 111//111 132//132 100//100
f 101//101 131//131 112//112
f 132//132 111//111 103//103
f 114//114 133//133 104//104
f 114//114 86//86 126//126
f 104//104 133//133 127//127
f 134//134 115//115 105//105
f 134//134 105//105 117//117
f 128//128 135//135 118//118
f 95//95 96//96 136//136
f 118//118 137//137 107//107
f 107//107 137//137 119//119
f 96//96 108//108 136//136
f 136//136 108//108 138//138
f 108//108 98//98 139//139
f 121//121 120//120 140//140
f 140//140 130//130 121//121
f 130//130 141//141 110//110
f 141//141 123//123 110//110
f 124//124 142//142 122//122
f 123//123 141//141 131//131
f 124//124 100//100 132//132
f 95//95 143//143 117//117
f 137//137 144//144 119//119
f 120//120 119//119 144//144
f 145//145 120//120 144//144
f 140//140 120//120 145//145
f 108//108 139//139 138//138
f 139//139 98//98 129//129
f 109//109 146//146 129//129
f 109//109 147//147 146//146
f 147//147 109//109 122//122
f 141//141 148//148 131//131
f 142//142 124//124 132//132
f 149//149 142//142 132//132
f 131//131 150//150 112//112
f 132//132 103//103 151//151
f 112//112 152//152 113//113
f 151//151 103//103 113//113
f 151//151 113//113 152//152
f 153//153 133//133 114//114
f 154//154 127//127 133//133
f 154//154 116//116 127//127
f 134//134 117//117 143//143
f 128//128 154//154 135//135
f 116//116 154//154 128//128
f 95//95 136//136 143//143
f 118//118 155//155 137//137
f 156//156 140//140 145//145
f 130//130 140//140 156//156
f 157//157 129//129 146//146
f 130//130 158//158 141//141
f 142//142 147//147 122//122
f 131//131 148//148 150//150
f 112//112 150//150 152//152
f 159//159 151//151 152//152
f 132//132 151//151 149//149
f 126//126 153//153 114//114
f 126//126 160//160 153//153
f 126//126 125//125 160//160
f 161//161 134//134 143//143
f 135//135 155//155 118//118
f 144//144 162//162 145//145
f 139//139 129//129 157//157
f 158//158 130//130 156//156
f 147//147 163//163 146//146
f 141//141 158//158 148//148
f 147//147 142//142 163//163
f 142//142 149//149 163//163
f 150//150 148//148 159//159
f 159//159 152//152 150//150
f 151//151 159//159 149//149
f 164//164 133//133 153//153
f 164//164 165//165 133//133
f 125//125 166//166 160//160
f 115//115 166//166 125//125
f 165//165 154//154 133//133
f 134//134 166//166 115//115
f 161//161 166//166 134//134
f 154//154 155//155 135//135
f 143//143 136//136 167//167
f 144//144 137//137 162//162
f 136//136 138//138 168//168
f 162//162 169//169 145//145
f 138//138 139//139 170//170
f 139//139 157//157 170//170
f 156//156 145//145 169//169
f 157//157 146//146 171//171
f 156//156 172//172 158//158
f 171//171 146//146 163//163
f 172//172 148//148 158//158
f 172//172 173//173 148//148
f 159//159 148//148 173//173
f 159//159 173//173 174//174
f 174//174 175//175 149//149
f 163//163 149//149 175//175
f 149//149 159//159 174//174
f 153//153 160//160 176//176
f 154//154 165//165 177//177
f 154//154 177//177 155//155
f 143//143 167//167 161//161
f 155//155 162//162 137//137
f 162//162 155//155 178//178
f 167//167 136//136 168//168
f 169//169 162//162 179//179
f 168//168 138//138 170//170
f 180//180 156//156 169//169
f 172//172 156//156 180//180
f 172//172 180//180 181//181
f 181//181 182//182 172//172
f 183//183 171//171 163//163
f 182//182 173//173 172//172
f 182//182 175//175 174//174
f 163//163 175//175 183//183
f 173//173 182//182 174//174
f 153//153 176//176 164//164
f 184//184 155//155 177//177
f 185//185 161//161 167//167
f 155//155 184//184 178//178
f 178//178 179//179 162//162
f 186//186 169//169 179//179
f 187//187 170//170 157//157
f 186//186 180//180 169//169
f 157//157 188//188 187//187
f 157//157 171//171 188//188
f 188//188 171//171 183//183
f 189//189 175//175 182//182
f 190//190 175//175 189//189
f 183//183 175//175 190//190
f 176//176 165//165 164//164
f 160//160 191//191 176//176
f 192//192 166//166 161//161
f 185//185 192//192 161//161
f 177//177 193//193 184//184
f 168//168 194//194 167//167
f 168//168 170//170 195//195
f 195//195 170//170 187//187
f 180//180 186//186 196//196
f 181//181 180//180 196//196
f 188//188 183//183 197//197
f 189//189 182//182 181//181
f 190//190 189//189 198//198
f 197//197 190//190 198//198
f 183//183 190//190 197//197
f 199//199 165//165 176//176
f 160//160 166//166 191//191
f 166//166 192//192 191//191
f 185//185 167//167 194//194
f 186//186 179//179 200//200
f 195//195 187//187 201//201
f 201//201 187//187 188//188
f 202//202 181//181 196//196
f 189//189 181//181 202//202
f 198//198 189//189 202//202
f 176//176 191//191 199//199
f 165//165 199//199 177//177
f 177//177 199//199 193//193
f 194//194 192//192 185//185
f 178//178 184//184 200//200
f 178//178 200//200 179//179
f 195//195 203//203 194//194
f 194//194 168//168 195//195
f 195//195 201//201 203//203
f 204//204 196//196 200//200
f 200//200 196//196 186//186
f 205//205 201//201 188//188
f 206//206 205//205 197//197
f 188//188 197//197 205//205
f 197//197 198//198 206//206
f 191//191 207//207 199//199
f 193//193 199//199 207//207
f 208//208 207//207 191//191
f 208//208 191//191 192//192
f 209//209 193//193 207//207
f 193//193 209//209 184//184
f 192//192 194//194 208//208
f 194//194 210//210 208//208
f 209//209 200//200 184//184
f 194//194 203//203 210//210
f 204//204 202//202 196//196
f 206//206 203//203 205//205
f 203//203 201//201 205//205
f 211//211 202//202 204//204
f 211//211 198//198 202//202
f 206//206 198//198 211//211
f 208//208 212//212 207//207
f 207//207 213//213 209//209
f 212//212 213//213 207//207
f 208//208 210//210 212//212
f 210//210 214//214 212//212
f 213//213 200//200 209//209
f 210//210 203//203 214//214
f 204//204 200//200 215//215
f 216//216 214//214 203//203
f 203//203 206//206 216//216
f 215//215 211//211 204//204
f 216//216 211//211 215//215
f 206//206 211//211 216//216
f 212//212 215//215 213//213
f 213//213 215//215 200//200
f 214//214 215//215 212//212
f 214//214 216//216 215//215
