# Blender v2.92.0 OBJ File: 'convert_to_one_sided.blend'
# www.blender.org
mtllib 628L.mtl
o Cube
v 0.001000 0.001000 -0.001000
v 0.001000 -0.001000 -0.001000
v 0.001000 0.001000 0.001000
v 0.001000 -0.001000 0.001000
v -0.001000 0.001000 -0.001000
v -0.001000 -0.001000 -0.001000
v -0.001000 0.001000 0.001000
v -0.001000 -0.001000 0.001000
vt 0.625000 0.500000
vt 0.875000 0.500000
vt 0.875000 0.750000
vt 0.625000 0.750000
vt 0.375000 0.750000
vt 0.625000 1.000000
vt 0.375000 1.000000
vt 0.375000 0.000000
vt 0.625000 0.000000
vt 0.625000 0.250000
vt 0.375000 0.250000
vt 0.125000 0.500000
vt 0.375000 0.500000
vt 0.125000 0.750000
vn 0.0000 1.0000 0.0000
vn 0.0000 0.0000 1.0000
vn -1.0000 0.0000 0.0000
vn 0.0000 -1.0000 0.0000
vn 1.0000 0.0000 0.0000
vn 0.0000 0.0000 -1.0000
usemtl Material
s off
f 1/1/1 5/2/1 7/3/1 3/4/1
f 4/5/2 3/4/2 7/6/2 8/7/2
f 8/8/3 7/9/3 5/10/3 6/11/3
f 6/12/4 2/13/4 4/5/4 8/14/4
f 2/13/5 1/1/5 3/4/5 4/5/5
f 6/11/6 5/10/6 1/1/6 2/13/6
o 628
v 8.331492 2.711234 4.042618
v 8.353103 2.649115 4.068588
v 8.326763 2.665815 4.051458
v 8.278613 2.643115 4.059568
v 8.243604 2.699315 4.054608
v 8.284384 2.721064 4.050368
v 8.343192 2.692125 4.059998
v 8.219094 2.729014 4.075508
v 8.302023 2.737894 4.055688
v 8.260263 2.752454 4.067138
v 8.281604 2.760864 4.059078
v 8.288593 2.553116 4.095098
v 8.233104 2.590216 4.096738
v 8.318192 2.601336 4.074338
v 8.349742 2.591576 4.088758
v 8.220004 2.647165 4.083018
v 8.184025 2.676545 4.101938
v 8.198954 2.736644 4.114537
v 8.328093 2.707864 4.081478
v 8.247244 2.749724 4.097558
v 8.285543 2.746094 4.071068
v 8.330603 2.531527 4.112148
v 8.361432 2.497607 4.145567
v 8.369701 2.542567 4.135047
v 8.360292 2.612156 4.126297
v 8.146635 2.693015 4.143307
v 8.298943 2.453098 4.166207
v 8.234684 2.518547 4.141637
v 8.159355 2.594246 4.150047
v 8.126125 2.649405 4.160367
v 8.286714 2.699884 4.141447
v 8.344433 2.453198 4.172017
v 8.135525 2.697045 4.183406
v 8.339833 2.622416 4.179697
v 8.203324 2.732404 4.144097
v 8.242464 2.431468 4.204366
v 8.153395 2.493527 4.218266
v 8.370422 2.384019 4.240656
v 8.379902 2.439128 4.213406
v 8.367963 2.526427 4.238786
v 8.085346 2.645565 4.205226
v 8.173895 2.714254 4.172717
v 8.202814 2.696965 4.201176
v 8.253564 2.651265 4.242556
v 8.336553 2.381179 4.233076
v 8.383092 2.455178 4.246786
v 8.068876 2.550736 4.250706
v 8.093016 2.608296 4.208276
v 8.102746 2.669005 4.204386
v 8.286993 2.608396 4.269916
v 8.290374 2.354079 4.267256
v 8.160425 2.385408 4.317665
v 8.344482 2.312349 4.310915
v 8.046737 2.471637 4.332715
v 8.381172 2.398898 4.362464
v 8.047247 2.596956 4.267376
v 8.069616 2.634455 4.255035
v 8.103816 2.655955 4.257566
v 8.193225 2.629385 4.322165
v 8.148095 2.677355 4.233446
v 8.386222 2.328849 4.334695
v 8.390072 2.329409 4.389774
v 8.065436 2.404258 4.379124
v 8.038197 2.603406 4.304145
v 8.229283 2.584516 4.362094
v 8.369812 2.323020 4.312835
v 8.336653 2.482877 4.348974
v 7.998647 2.571066 4.349524
v 8.306603 2.287690 4.342965
v 8.007667 2.538347 4.339984
v 8.066536 2.610986 4.340065
v 8.245234 2.287350 4.383604
v 8.160345 2.318689 4.396324
v 8.279663 2.509357 4.398004
v 8.009887 2.583676 4.368855
v 8.138206 2.631485 4.324255
v 8.325263 2.249120 4.408864
v 8.364263 2.277160 4.377734
v 8.072726 2.355249 4.439023
v 7.999677 2.423978 4.434504
v 7.954148 2.489237 4.434073
v 7.968477 2.561036 4.408834
v 8.015317 2.573766 4.446093
v 8.159775 2.279660 4.474933
v 7.948228 2.533147 4.432573
v 8.164225 2.576896 4.423684
v 8.359412 2.225661 4.452173
v 8.377612 2.251110 4.432444
v 8.386862 2.255190 4.461563
v 8.384452 2.279750 4.492672
v 8.361912 2.322809 4.509672
v 7.911358 2.502437 4.490043
v 7.968217 2.561136 4.437443
v 8.079926 2.573136 4.472173
v 8.268113 2.204251 4.554712
v 8.302214 2.397858 4.514523
v 7.928988 2.537757 4.487613
v 8.205014 2.490987 4.523952
v 8.341912 2.199081 4.517722
v 8.370412 2.209851 4.516462
v 7.925948 2.444868 4.513732
v 7.882619 2.485727 4.553912
v 8.145525 2.232091 4.629071
v 7.955268 2.390409 4.556551
v 7.960248 2.547446 4.508313
v 8.051247 2.310649 4.573071
v 7.900968 2.512627 4.527192
v 8.004607 2.545136 4.574841
v 8.376522 2.210081 4.569962
v 8.364822 2.213641 4.637811
v 7.912088 2.524487 4.596441
v 8.108136 2.529687 4.591082
v 8.056787 2.543027 4.593142
v 8.339772 2.168351 4.609801
v 8.356782 2.186111 4.564852
v 8.315533 2.281950 4.664351
v 7.888849 2.444528 4.588841
v 8.361282 2.180431 4.598641
v 8.241934 2.382618 4.650630
v 8.144065 2.485347 4.653181
v 8.180395 2.446648 4.664800
v 7.857319 2.497157 4.627171
v 8.210694 2.175411 4.737460
v 7.931758 2.359009 4.699310
v 7.879028 2.424208 4.657310
v 7.852399 2.464738 4.657990
v 7.924808 2.526347 4.715740
v 8.344732 2.152552 4.692830
v 8.040566 2.279140 4.698830
v 7.835749 2.505537 4.722560
v 8.296983 2.154932 4.718319
v 8.358892 2.179021 4.648561
v 8.198504 2.380619 4.771759
v 7.813669 2.486547 4.761559
v 7.867629 2.518277 4.724170
v 8.023227 2.524187 4.702840
v 8.084896 2.493977 4.754809
v 8.340833 2.160911 4.729830
v 8.110525 2.219071 4.797039
v 7.845259 2.437028 4.750100
v 8.138725 2.444368 4.781669
v 8.324443 2.149202 4.758559
v 7.990957 2.290350 4.881588
v 7.798090 2.499237 4.830208
v 7.850379 2.512807 4.821858
v 7.938868 2.514117 4.838048
v 8.312123 2.197261 4.786759
v 8.247984 2.298840 4.803998
v 8.254224 2.150892 4.821939
v 8.308033 2.156332 4.809829
v 7.867849 2.391569 4.909678
v 7.786110 2.489237 4.894998
v 8.015997 2.497097 4.872748
v 8.176345 2.174421 4.908797
v 7.811170 2.457548 4.888788
v 7.890218 2.506307 4.918567
v 8.297833 2.152782 4.798149
v 8.269874 2.159921 4.861828
v 8.258174 2.219921 4.895158
v 8.080606 2.450108 4.914197
v 7.799560 2.490707 4.933087
v 8.228614 2.165451 4.906567
v 8.268563 2.178871 4.877308
v 8.079666 2.217541 4.977517
v 8.004397 2.267080 5.017036
v 8.170095 2.362149 4.896857
v 8.215465 2.270490 4.952407
v 7.941308 2.492747 4.971766
v 8.236424 2.172601 4.922847
v 8.218604 2.190611 4.973686
v 8.194075 2.175801 4.970047
v 8.144005 2.185471 5.014796
v 7.933988 2.325679 5.037366
v 7.816469 2.436848 4.989526
v 8.116735 2.378819 5.011166
v 7.796549 2.469378 4.968756
v 7.797159 2.475347 4.986476
v 8.014486 2.470538 4.979826
v 7.864469 2.491757 4.972786
v 8.215734 2.223031 4.995766
v 8.160535 2.309570 5.034426
v 7.850559 2.405088 5.028856
v 8.181684 2.247180 5.060135
v 8.023916 2.252050 5.081525
v 8.045517 2.425058 5.040926
v 7.974737 2.459347 5.051355
v 7.834459 2.468578 5.048505
v 8.179685 2.209611 5.065945
v 8.165484 2.194781 5.052286
v 7.827439 2.446248 5.050826
v 8.109156 2.214251 5.090085
v 8.084326 2.358509 5.089865
v 7.881029 2.387009 5.096745
v 7.898858 2.464838 5.071635
v 7.854089 2.445008 5.118855
v 8.043386 2.255830 5.141954
v 7.955578 2.323779 5.119734
v 8.128756 2.287680 5.111545
v 7.866838 2.426038 5.124905
v 7.861679 2.453698 5.102955
v 8.146205 2.214301 5.105845
v 8.142345 2.236450 5.114885
v 7.985217 2.413578 5.107005
v 8.102886 2.235590 5.132635
v 7.982477 2.307519 5.157394
v 7.923498 2.370028 5.142834
v 8.051936 2.344139 5.132664
v 7.902208 2.404378 5.148044
v 7.903298 2.428668 5.121184
v 8.039717 2.276430 5.160644
v 8.063327 2.292040 5.144664
v 7.986237 2.354649 5.145414
v 8.012696 2.311429 5.157534
v 7.973907 2.335689 5.149624
vn 0.5021 0.2579 -0.8255
vn 0.8416 -0.0549 -0.5372
vn 0.1822 -0.2328 -0.9553
vn -0.1779 -0.2746 -0.9450
vn -0.4044 -0.0391 -0.9138
vn -0.1286 0.2011 -0.9711
vn 0.8916 0.4453 -0.0828
vn -0.5643 0.3813 -0.7322
vn 0.5101 0.7296 -0.4555
vn -0.2897 0.7171 -0.6340
vn 0.2622 0.9573 -0.1217
vn -0.1399 -0.4871 -0.8621
vn -0.4254 -0.3946 -0.8145
vn 0.1302 -0.3911 -0.9111
vn 0.5049 -0.3460 -0.7908
vn -0.4999 -0.2706 -0.8227
vn -0.6572 -0.0634 -0.7510
vn -0.4716 0.8760 -0.1007
vn 0.7317 0.6253 0.2712
vn 0.0752 0.9450 0.3183
vn 0.5582 0.7476 0.3598
vn 0.2013 -0.5120 -0.8351
vn 0.5894 -0.4335 -0.6817
vn 0.9352 -0.1012 -0.3394
vn 0.9567 0.2727 0.1018
vn -0.7573 0.4284 -0.4928
vn -0.0961 -0.6330 -0.7681
vn -0.4175 -0.5207 -0.7447
vn -0.6009 -0.3346 -0.7260
vn -0.7147 -0.0897 -0.6937
vn 0.4753 0.7288 0.4929
vn 0.2223 -0.6064 -0.7635
vn -0.5050 0.8546 0.1210
vn 0.7458 0.5358 0.3959
vn -0.1085 0.9292 0.3534
vn -0.3818 -0.6309 -0.6754
vn -0.5373 -0.5212 -0.6630
vn 0.5349 -0.5875 -0.6072
vn 0.9156 -0.2248 -0.3333
vn 0.8915 0.3682 0.2641
vn -0.8513 0.2409 -0.4662
vn -0.2162 0.9028 0.3719
vn 0.1484 0.8504 0.5047
vn 0.4105 0.7640 0.4978
vn 0.0850 -0.7018 -0.7073
vn 0.9958 0.0911 -0.0024
vn -0.7023 -0.3092 -0.6413
vn -0.7303 -0.1899 -0.6562
vn -0.7070 0.7036 -0.0712
vn 0.5900 0.6408 0.4912
vn -0.2255 -0.7354 -0.6390
vn -0.4669 -0.6621 -0.5862
vn 0.1677 -0.7843 -0.5973
vn -0.6359 -0.4930 -0.5938
vn 0.9180 0.3161 0.2394
vn -0.8728 0.1434 -0.4665
vn -0.7306 0.6828 -0.0043
vn -0.3874 0.8686 0.3090
vn 0.2487 0.8304 0.4986
vn -0.1612 0.8855 0.4357
vn 0.8921 -0.3567 -0.2772
vn 0.9990 0.0362 0.0247
vn -0.5572 -0.6271 -0.5443
vn -0.6882 0.7209 -0.0824
vn 0.4792 0.7189 0.5036
vn 0.5619 -0.6676 -0.4885
vn 0.7309 0.5309 0.4289
vn -0.8363 0.4153 -0.3579
vn -0.1526 -0.8181 -0.5544
vn -0.8118 -0.1758 -0.5568
vn -0.3355 0.9124 0.2346
vn -0.3412 -0.8073 -0.4815
vn -0.4462 -0.7468 -0.4932
vn 0.6328 0.6115 0.4749
vn -0.4942 0.8693 0.0050
vn -0.0456 0.9023 0.4287
vn -0.0605 -0.8838 -0.4638
vn 0.4443 -0.7510 -0.4885
vn -0.5486 -0.7154 -0.4327
vn -0.6451 -0.5894 -0.4863
vn -0.7713 -0.3343 -0.5416
vn -0.7120 0.6746 -0.1948
vn -0.2284 0.9557 0.1857
vn -0.4387 -0.8251 -0.3561
vn -0.8743 0.1983 -0.4431
vn 0.2950 0.8454 0.4454
vn 0.3289 -0.8482 -0.4151
vn 0.7166 -0.6121 -0.3345
vn 0.9613 -0.2635 -0.0797
vn 0.9737 0.1510 0.1704
vn 0.8184 0.4558 0.3498
vn -0.8875 0.0245 -0.4602
vn -0.4108 0.9090 0.0707
vn 0.0250 0.9553 0.2947
vn -0.2948 -0.9039 -0.3100
vn 0.6917 0.5936 0.4112
vn -0.6514 0.7539 -0.0850
vn 0.5970 0.6990 0.3937
vn 0.0610 -0.9355 -0.3479
vn 0.6642 -0.7123 -0.2270
vn -0.7314 -0.5243 -0.4362
vn -0.8990 -0.1804 -0.3992
vn -0.4584 -0.8555 -0.2409
vn -0.6358 -0.6957 -0.3342
vn -0.2966 0.9453 0.1357
vn -0.5492 -0.7836 -0.2903
vn -0.8275 0.4998 -0.2556
vn -0.1054 0.9812 0.1616
vn 0.9636 -0.2643 0.0395
vn 0.9447 0.1814 0.2731
vn -0.3952 0.9182 -0.0264
vn 0.3668 0.8843 0.2891
vn 0.1131 0.9663 0.2313
vn 0.0823 -0.9680 -0.2370
vn 0.3830 -0.8841 -0.2679
vn 0.7829 0.5146 0.3496
vn -0.7747 -0.5385 -0.3315
vn 0.6975 -0.7075 -0.1136
vn 0.7251 0.6098 0.3199
vn 0.5896 0.7588 0.2768
vn 0.6943 0.6593 0.2886
vn -0.8746 0.3960 -0.2798
vn -0.3621 -0.9181 -0.1610
vn -0.6417 -0.7464 -0.1765
vn -0.7422 -0.6235 -0.2457
vn -0.8895 -0.3596 -0.2818
vn -0.0764 0.9950 0.0644
vn 0.5468 -0.8372 -0.0130
vn -0.5512 -0.8157 -0.1754
vn -0.5903 0.7925 -0.1529
vn -0.1319 -0.9834 -0.1247
vn 0.9405 -0.3230 0.1054
vn 0.7433 0.6124 0.2691
vn -0.9676 -0.0785 -0.2402
vn -0.2640 0.9643 -0.0191
vn 0.1497 0.9730 0.1758
vn 0.4644 0.8536 0.2360
vn 0.9256 -0.2623 0.2730
vn -0.4992 -0.8582 -0.1198
vn -0.7894 -0.5938 -0.1558
vn 0.6659 0.6991 0.2606
vn 0.3869 -0.9092 0.1538
vn -0.6044 -0.7920 -0.0862
vn -0.6820 0.7263 -0.0863
vn -0.1895 0.9796 0.0663
vn 0.0600 0.9903 0.1253
vn 0.8898 0.2436 0.3858
vn 0.8023 0.5199 0.2933
vn -0.0857 -0.9953 0.0448
vn 0.7384 -0.5232 0.4255
vn -0.6923 -0.7188 -0.0646
vn -0.9950 0.0988 -0.0116
vn 0.3054 0.9312 0.1988
vn -0.3053 -0.9523 -0.0009
vn -0.8178 -0.5665 -0.1015
vn -0.0391 0.9860 0.1624
vn 0.1453 -0.9797 0.1381
vn 0.3953 -0.8463 0.3570
vn 0.9045 0.1778 0.3875
vn 0.5875 0.7657 0.2620
vn -0.4203 0.8912 0.1703
vn 0.0610 -0.9758 0.2099
vn 0.8339 -0.2440 0.4949
vn -0.4981 -0.8669 -0.0185
vn -0.6065 -0.7941 -0.0386
vn 0.7508 0.6051 0.2649
vn 0.8447 0.4323 0.3155
vn 0.1293 0.9616 0.2423
vn 0.4997 -0.7596 0.4164
vn 0.7368 -0.5097 0.4442
vn 0.1574 -0.9531 0.2584
vn -0.2286 -0.9631 0.1423
vn -0.6672 -0.7436 0.0451
vn -0.8026 -0.5935 0.0590
vn 0.6798 0.6509 0.3379
vn -0.9252 -0.3657 0.1015
vn -0.8814 0.3453 0.3223
vn 0.3995 0.8706 0.2871
vn -0.0983 0.9691 0.2264
vn 0.9125 0.0450 0.4065
vn 0.7624 0.5271 0.3755
vn -0.7412 -0.6619 0.1123
vn 0.8420 0.2430 0.4816
vn -0.5591 -0.8208 0.1171
vn 0.5228 0.7421 0.4194
vn 0.3051 0.8504 0.4285
vn -0.4275 0.8213 0.3777
vn 0.7641 -0.3569 0.5373
vn 0.2262 -0.9045 0.3615
vn -0.9084 -0.2307 0.3487
vn -0.2638 -0.9181 0.2957
vn 0.5883 0.6221 0.5166
vn -0.7329 -0.6208 0.2784
vn 0.1031 0.9024 0.4184
vn -0.4999 0.4925 0.7124
vn -0.3965 -0.7876 0.4716
vn -0.6641 -0.7015 0.2586
vn 0.6402 0.3899 0.6619
vn -0.7434 -0.3337 0.5796
vn -0.0102 0.8653 0.5012
vn 0.3006 -0.7113 0.6354
vn 0.6079 -0.0273 0.7935
vn 0.3365 0.6870 0.6440
vn 0.1532 -0.5052 0.8493
vn -0.4549 -0.4282 0.7808
vn -0.5752 -0.4350 0.6928
vn 0.4055 0.4769 0.7798
vn -0.1810 0.1407 0.9734
vn 0.2105 0.6917 0.6908
vn 0.0205 -0.1590 0.9871
vn 0.3856 0.2208 0.8959
vn 0.2170 0.4086 0.8865
vn 0.1245 0.2458 0.9613
vn -0.1146 0.0440 0.9924
usemtl mtl1.585
s 1
f 9//7 10//8 11//9
f 12//10 13//11 14//12
f 14//12 11//9 12//10
f 9//7 11//9 14//12
f 15//13 10//8 9//7
f 13//11 16//14 14//12
f 17//15 9//7 14//12
f 15//13 9//7 17//15
f 14//12 16//14 18//16
f 17//15 14//12 18//16
f 17//15 18//16 19//17
f 20//18 21//19 12//10
f 22//20 20//18 12//10
f 11//9 22//20 12//10
f 23//21 22//20 11//9
f 12//10 21//19 24//22
f 10//8 23//21 11//9
f 12//10 24//22 13//11
f 13//11 24//22 25//23
f 13//11 25//23 16//14
f 26//24 18//16 16//14
f 27//25 15//13 17//15
f 19//17 18//16 28//26
f 19//17 28//26 29//27
f 29//27 17//15 19//17
f 30//28 20//18 22//20
f 23//21 30//28 22//20
f 31//29 30//28 23//21
f 23//21 32//30 31//29
f 23//21 10//8 32//30
f 32//30 10//8 33//31
f 10//8 15//13 33//31
f 33//31 15//13 27//25
f 25//23 34//32 16//14
f 16//14 34//32 26//24
f 17//15 29//27 27//25
f 20//18 30//28 35//33
f 20//18 36//34 21//19
f 36//34 37//35 21//19
f 24//22 21//19 37//35
f 25//23 37//35 38//36
f 24//22 37//35 25//23
f 38//36 34//32 25//23
f 29//27 39//37 27//25
f 18//16 26//24 28//26
f 29//27 28//26 39//37
f 30//28 40//38 35//33
f 30//28 31//29 40//38
f 20//18 35//33 36//34
f 26//24 34//32 41//39
f 27//25 39//37 42//40
f 28//26 26//24 43//41
f 44//42 36//34 35//33
f 44//42 45//43 36//34
f 40//38 31//29 46//44
f 32//30 47//45 31//29
f 45//43 37//35 36//34
f 33//31 42//40 48//46
f 27//25 42//40 33//31
f 38//36 49//47 34//32
f 26//24 41//39 50//48
f 26//24 50//48 43//41
f 51//49 52//50 39//37
f 28//26 43//41 51//49
f 39//37 28//26 51//49
f 53//51 35//33 40//38
f 40//38 46//44 53//51
f 46//44 31//29 47//45
f 47//45 32//30 54//52
f 45//43 55//53 37//35
f 32//30 33//31 54//52
f 56//54 37//35 55//53
f 56//54 38//36 37//35
f 57//55 34//32 49//47
f 42//40 39//37 58//56
f 34//32 57//55 41//39
f 39//37 52//50 58//56
f 43//41 50//48 51//49
f 44//42 35//33 59//57
f 59//57 35//33 53//51
f 44//42 60//58 45//43
f 54//52 33//31 48//46
f 56//54 49//47 38//36
f 53//51 46//44 61//59
f 45//43 60//58 62//60
f 55//53 45//43 62//60
f 54//52 48//46 63//61
f 56//54 64//62 49//47
f 64//62 65//63 49//47
f 49//47 65//63 57//55
f 65//63 66//64 57//55
f 57//55 66//64 41//39
f 51//49 67//65 52//50
f 41//39 68//66 50//48
f 59//57 60//58 44//42
f 47//45 54//52 69//67
f 54//52 70//68 69//67
f 71//69 62//60 60//58
f 64//62 56//54 55//53
f 72//70 65//63 64//62
f 73//71 58//56 52//50
f 41//39 66//64 68//66
f 68//66 51//49 50//48
f 61//59 59//57 53//51
f 74//72 46//44 69//67
f 69//67 46//44 47//45
f 58//56 75//73 42//40
f 42//40 75//73 48//46
f 76//74 72//70 64//62
f 67//65 73//71 52//50
f 61//59 77//75 59//57
f 61//59 46//44 74//72
f 78//76 55//53 62//60
f 64//62 55//53 78//76
f 79//77 65//63 72//70
f 66//64 65//63 79//77
f 80//78 59//57 77//75
f 60//58 80//78 81//79
f 59//57 80//78 60//58
f 54//52 63//61 70//68
f 78//76 76//74 64//62
f 58//56 82//80 75//73
f 82//80 58//56 73//71
f 72//70 83//81 79//77
f 68//66 66//64 84//82
f 66//64 79//77 84//82
f 68//66 84//82 51//49
f 67//65 51//49 84//82
f 77//75 61//59 85//83
f 85//83 61//59 86//84
f 61//59 74//72 86//84
f 69//67 86//84 74//72
f 81//79 87//85 60//58
f 60//58 87//85 71//69
f 62//60 71//69 88//86
f 62//60 88//86 89//87
f 48//46 75//73 63//61
f 78//76 62//60 89//87
f 76//74 90//88 83//81
f 72//70 76//74 83//81
f 83//81 91//89 79//77
f 85//83 80//78 77//75
f 81//79 80//78 92//90
f 78//76 89//87 93//91
f 76//74 78//76 93//91
f 90//88 76//74 93//91
f 84//82 94//92 67//65
f 86//84 95//93 85//83
f 95//93 86//84 96//94
f 69//67 96//94 86//84
f 97//95 96//94 69//67
f 69//67 70//68 97//95
f 98//96 70//68 63//61
f 63//61 75//73 99//97
f 93//91 89//87 100//98
f 83//81 90//88 101//99
f 83//81 101//99 91//89
f 91//89 102//100 79//77
f 67//65 94//92 73//71
f 79//77 102//100 84//82
f 103//101 80//78 85//83
f 87//85 81//79 92//90
f 104//102 75//73 82//80
f 105//103 90//88 93//91
f 90//88 105//103 101//99
f 106//104 82//80 73//71
f 94//92 84//82 102//100
f 95//93 107//105 85//83
f 95//93 108//106 107//105
f 108//106 95//93 96//94
f 92//90 80//78 103//101
f 97//95 70//68 98//96
f 71//69 87//85 88//86
f 63//61 99//97 98//96
f 88//86 109//107 89//87
f 89//87 109//107 110//108
f 100//98 89//87 110//108
f 82//80 106//104 104//102
f 111//109 92//90 103//101
f 87//85 112//110 88//86
f 99//97 75//73 104//102
f 73//71 94//92 106//104
f 101//99 105//103 113//111
f 101//99 113//111 91//89
f 103//101 85//83 107//105
f 97//95 108//106 96//94
f 114//112 92//90 111//109
f 92//90 114//112 87//85
f 88//86 112//110 109//107
f 115//113 93//91 100//98
f 115//113 105//103 93//91
f 102//100 91//89 116//114
f 108//106 97//95 117//115
f 117//115 97//95 98//96
f 98//96 99//97 118//116
f 87//85 114//112 112//110
f 110//108 115//113 100//98
f 119//117 105//103 115//113
f 94//92 120//118 106//104
f 105//103 119//117 113//111
f 102//100 116//114 121//119
f 122//120 107//105 123//121
f 108//106 123//121 107//105
f 124//122 99//97 104//102
f 112//110 125//123 109//107
f 116//114 91//89 113//111
f 121//119 120//118 102//100
f 94//92 102//100 120//118
f 107//105 122//120 103//101
f 126//124 123//121 108//106
f 117//115 126//124 108//106
f 99//97 124//122 118//116
f 104//102 106//104 127//125
f 110//108 109//107 125//123
f 106//104 128//126 129//127
f 120//118 128//126 106//104
f 115//113 130//128 119//117
f 113//111 119//117 116//114
f 123//121 126//124 122//120
f 111//109 103//101 131//129
f 117//115 98//96 118//116
f 112//110 114//112 132//130
f 104//102 127//125 124//122
f 112//110 132//130 133//131
f 112//110 133//131 125//123
f 106//104 129//127 127//125
f 110//108 125//123 134//132
f 130//128 110//108 134//132
f 110//108 130//128 115//113
f 116//114 119//117 135//133
f 136//134 122//120 126//124
f 137//135 114//112 111//109
f 132//130 114//112 137//135
f 130//128 138//136 119//117
f 122//120 139//137 103//101
f 140//138 136//134 126//124
f 126//124 117//115 140//138
f 131//129 103//101 139//137
f 118//116 140//138 117//115
f 129//127 141//139 127//125
f 125//123 133//131 134//132
f 134//132 142//140 130//128
f 119//117 138//136 143//141
f 144//142 145//143 120//118
f 145//143 128//126 120//118
f 144//142 120//118 121//119
f 122//120 136//134 139//137
f 136//134 140//138 146//144
f 111//109 147//145 137//135
f 134//132 133//131 148//146
f 129//127 149//147 141//139
f 138//136 130//128 142//140
f 119//117 143//141 135//133
f 116//114 135//133 144//142
f 116//114 144//142 121//119
f 136//134 150//148 139//137
f 150//148 136//134 146//144
f 147//145 111//109 131//129
f 137//135 151//149 132//130
f 133//131 132//130 148//146
f 142//140 134//132 148//146
f 128//126 149//147 129//127
f 142//140 152//150 138//136
f 149//147 128//126 145//143
f 143//141 153//151 135//133
f 135//133 154//152 144//142
f 140//138 118//116 146//144
f 155//153 118//116 124//122
f 127//125 156//154 124//122
f 131//129 139//137 157//155
f 146//144 158//156 150//148
f 146//144 118//116 155//153
f 156//154 155//153 124//122
f 137//135 147//145 151//149
f 127//125 141//139 156//154
f 159//157 148//146 132//130
f 142//140 160//158 152//150
f 138//136 152//150 153//151
f 138//136 153//151 143//141
f 154//152 135//133 153//151
f 161//159 145//143 144//142
f 131//129 162//160 147//145
f 162//160 131//129 157//155
f 151//149 159//157 132//130
f 142//140 148//146 163//161
f 142//140 163//161 160//158
f 154//152 153//151 164//162
f 150//148 165//163 139//137
f 139//137 165//163 157//155
f 150//148 158//156 165//163
f 158//156 146//144 155//153
f 158//156 166//164 165//163
f 156//154 167//165 155//153
f 168//166 149//147 145//143
f 169//167 152//150 160//158
f 152//150 169//167 153//151
f 144//142 154//152 161//159
f 157//155 170//168 162//160
f 165//163 166//164 157//155
f 157//155 166//164 170//168
f 155//153 171//169 158//156
f 155//153 167//165 171//169
f 151//149 147//145 172//170
f 173//171 151//149 172//170
f 141//139 174//172 156//154
f 174//172 141//139 149//147
f 159//157 163//161 148//146
f 168//166 145//143 161//159
f 166//164 158//156 171//169
f 156//154 175//173 167//165
f 149//147 168//166 174//172
f 154//152 164//162 176//174
f 154//152 176//174 161//159
f 177//175 170//168 166//164
f 177//175 166//164 171//169
f 167//165 178//176 171//169
f 162//160 179//177 180//178
f 170//168 179//177 162//160
f 177//175 171//169 178//176
f 151//149 173//171 181//179
f 181//179 159//157 151//149
f 156//154 174//172 175//173
f 159//157 182//180 163//161
f 168//166 183//181 174//172
f 163//161 184//182 160//158
f 184//182 163//161 182//180
f 169//167 160//158 185//183
f 161//159 186//184 168//166
f 153//151 169//167 187//185
f 153//151 187//185 164//162
f 177//175 179//177 170//168
f 162//160 172//170 147//145
f 172//170 162//160 180//178
f 178//176 167//165 188//186
f 167//165 175//173 188//186
f 189//187 175//173 174//172
f 190//188 159//157 181//179
f 176//174 186//184 161//159
f 164//162 187//185 176//174
f 177//175 178//176 179//177
f 175//173 191//189 188//186
f 190//188 182//180 159//157
f 184//182 185//183 160//158
f 192//190 173//171 172//170
f 174//172 183//181 189//187
f 183//181 168//166 193//191
f 186//184 194//192 193//191
f 193//191 168//166 186//184
f 169//167 185//183 195//193
f 187//185 169//167 195//193
f 186//184 176//174 194//192
f 178//176 196//194 197//195
f 178//176 197//195 179//177
f 196//194 178//176 188//186
f 196//194 188//186 191//189
f 175//173 189//187 191//189
f 184//182 182//180 198//196
f 184//182 198//196 185//183
f 198//196 195//193 185//183
f 179//177 197//195 180//178
f 199//197 172//170 180//178
f 173//171 192//190 181//179
f 183//181 200//198 189//187
f 190//188 201//199 198//196
f 182//180 190//188 198//196
f 183//181 193//191 200//198
f 176//174 187//185 202//200
f 176//174 202//200 194//192
f 180//178 197//195 199//197
f 199//197 192//190 172//170
f 195//193 198//196 203//201
f 187//185 195//193 202//200
f 204//202 192//190 199//197
f 205//203 181//179 192//190
f 189//187 206//204 191//189
f 206//204 189//187 200//198
f 201//199 190//188 181//179
f 201//199 207//205 198//196
f 207//205 203//201 198//196
f 195//193 203//201 208//206
f 202//200 195//193 208//206
f 197//195 209//207 199//197
f 197//195 196//194 209//207
f 196//194 210//208 209//207
f 210//208 196//194 191//189
f 206//204 210//208 191//189
f 181//179 205//203 201//199
f 211//209 193//191 194//192
f 200//198 193//191 211//209
f 211//209 194//192 202//200
f 209//207 212//210 199//197
f 205//203 204//202 213//211
f 204//202 205//203 192//190
f 205//203 213//211 214//212
f 215//213 206//204 200//198
f 214//212 201//199 205//203
f 200//198 211//209 215//213
f 201//199 214//212 207//205
f 203//201 207//205 216//214
f 217//215 203//201 216//214
f 217//215 208//206 203//201
f 202//200 208//206 217//215
f 211//209 202//200 217//215
f 218//216 204//202 212//210
f 212//210 204//202 199//197
f 212//210 210//208 219//217
f 212//210 209//207 210//208
f 210//208 206//204 219//217
f 206//204 215//213 219//217
f 220//218 219//217 215//213
f 214//212 216//214 207//205
f 215//213 211//209 220//218
f 220//218 217//215 216//214
f 211//209 217//215 220//218
f 218//216 212//210 219//217
f 204//202 218//216 213//211
f 219//217 221//219 218//216
f 213//211 218//216 222//220
f 222//220 218//216 221//219
f 220//218 221//219 219//217
f 220//218 222//220 221//219
f 213//211 222//220 214//212
f 214//212 222//220 216//214
f 220//218 216//214 222//220
