# Blender v2.92.0 OBJ File: 'convert_to_one_sided.blend'
# www.blender.org
mtllib 633L.mtl
o 633
v 10.189069 2.078892 5.211674
v 10.207668 2.087742 5.214063
v 10.209868 2.035553 5.246683
v 10.234868 2.027553 5.277993
v 10.193069 2.104772 5.236163
v 10.174669 2.052473 5.326772
v 10.217168 2.103112 5.227383
v 10.225168 2.079392 5.239973
v 10.187169 1.990894 5.338202
v 10.209569 2.101332 5.272623
v 10.233068 2.051973 5.305812
v 10.223769 1.971054 5.316052
v 10.177869 2.072432 5.354392
v 10.194468 2.092772 5.301442
v 10.212069 1.959144 5.344382
v 10.223968 2.052233 5.368492
v 10.248467 1.976414 5.385751
v 10.201368 2.061253 5.380422
v 10.202468 1.917894 5.446330
v 10.223769 1.919414 5.414431
v 10.180369 1.929334 5.516850
v 10.238168 1.943544 5.404471
v 10.238269 1.992114 5.485580
v 10.172169 1.974324 5.551479
v 10.181969 2.037883 5.463870
v 10.174969 2.017073 5.599728
v 10.215669 2.028973 5.481709
v 10.198569 2.030353 5.513920
v 10.216868 1.886455 5.548119
v 10.231869 1.892345 5.609998
v 10.245168 1.935634 5.564129
v 10.188369 2.020793 5.614718
v 10.218868 2.003293 5.693727
v 10.196968 1.904365 5.678358
v 10.218211 1.879169 5.699999
v 10.173926 1.931839 5.699999
v 10.220599 1.880633 5.699999
v 10.184251 1.919245 5.699999
v 10.230048 1.892972 5.699999
v 10.172338 2.008358 5.699999
v 10.173579 2.017578 5.699999
v 10.180322 2.019402 5.699999
v 10.237740 1.907488 5.699999
v 10.208706 1.890077 5.699999
v 10.246258 1.952972 5.699999
v 10.216421 2.004581 5.699999
v 10.244067 1.927298 5.699999
v 10.218522 2.004208 5.699999
v 10.219393 2.003818 5.699999
v 10.218830 2.004565 5.699999
v 10.173146 1.936814 5.699999
v 10.170287 1.984665 5.699999
v 10.186476 2.021049 5.699999
v 10.198227 1.903934 5.699999
v 10.195765 1.908565 5.699999
v 10.245051 1.965772 5.699999
v 10.221908 1.998505 5.699999
vn -0.7299 -0.1391 -0.6692
vn 0.4192 0.0461 -0.9067
vn -0.0508 -0.6775 -0.7338
vn 0.8647 -0.2836 -0.4145
vn -0.4742 0.8512 -0.2249
vn -0.9921 0.1150 -0.0508
vn 0.6636 0.6895 -0.2902
vn 0.9377 0.0717 -0.3401
vn -0.8542 -0.4403 -0.2766
vn 0.4251 0.8815 0.2054
vn 0.9391 0.3408 0.0440
vn 0.3916 -0.7452 -0.5397
vn -0.3841 0.8952 0.2259
vn -0.1124 0.9568 0.2680
vn -0.4476 -0.7651 -0.4629
vn 0.7230 0.6610 0.2009
vn 0.9973 -0.0324 -0.0655
vn 0.2146 0.9317 0.2929
vn -0.6262 -0.7475 -0.2216
vn 0.2460 -0.9121 -0.3280
vn -0.8870 -0.4542 -0.0829
vn 0.8616 -0.4679 -0.1967
vn 0.9180 0.3896 0.0746
vn -0.9979 -0.0540 -0.0353
vn 0.0075 0.9799 0.1993
vn -0.7162 0.6956 0.0569
vn 0.6033 0.7817 0.1578
vn 0.2001 0.9672 0.1565
vn -0.1738 -0.9762 -0.1296
vn 0.7607 -0.6471 -0.0506
vn 0.9909 -0.1341 -0.0138
vn 0.0211 0.9971 0.0735
vn 0.5038 0.8633 -0.0296
vn -0.7442 -0.6679 -0.0056
vn -0.5947 0.0887 0.7990
vn -0.4823 0.6499 0.5874
vn 0.7031 -0.1538 0.6942
vn 0.6479 -0.3151 0.6935
vn -0.7319 -0.0736 0.6774
vn -0.7329 -0.0070 0.6803
vn 0.2176 0.4739 0.8533
vn -0.5136 -0.4575 0.7259
vn -0.5350 -0.4241 0.7307
vn 0.5173 0.5228 0.6776
vn 0.0147 0.9650 0.2617
vn -0.5542 -0.5110 0.6571
vn -0.5666 -0.4091 0.7153
vn -0.4371 0.5784 0.6888
vn 0.6881 0.2713 0.6730
vn 0.4025 0.3869 0.8297
vn 0.0504 0.7618 0.6458
vn 0.7296 -0.0131 0.6837
vn -0.2452 0.5649 0.7879
vn 0.5676 -0.4151 0.7110
vn 0.4435 -0.6337 0.6338
vn -0.7243 -0.2593 0.6389
vn -0.2827 -0.7815 0.5563
usemtl mtl1.1410
s 1
f 1//1 2//2 3//3
f 3//3 2//2 4//4
f 5//5 1//1 6//6
f 2//2 1//1 5//5
f 7//7 8//8 2//2
f 5//5 7//7 2//2
f 9//9 1//1 3//3
f 1//1 9//9 6//6
f 4//4 2//2 8//8
f 7//7 5//5 10//10
f 4//4 8//8 11//11
f 8//8 7//7 11//11
f 3//3 4//4 12//12
f 13//13 5//5 6//6
f 14//14 5//5 13//13
f 7//7 10//10 11//11
f 5//5 14//14 10//10
f 15//15 3//3 12//12
f 15//15 9//9 3//3
f 16//16 11//11 10//10
f 4//4 11//11 17//17
f 14//14 18//18 10//10
f 19//19 15//15 20//20
f 12//12 20//20 15//15
f 9//9 19//19 21//21
f 9//9 15//15 19//19
f 4//4 22//22 12//12
f 17//17 22//22 4//4
f 17//17 11//11 23//23
f 10//10 18//18 16//16
f 22//22 20//20 12//12
f 21//21 24//24 9//9
f 9//9 24//24 6//6
f 13//13 25//25 18//18
f 13//13 18//18 14//14
f 11//11 16//16 23//23
f 6//6 26//26 13//13
f 18//18 27//27 16//16
f 24//24 26//26 6//6
f 25//25 13//13 26//26
f 18//18 25//25 28//28
f 18//18 28//28 27//27
f 20//20 29//29 19//19
f 22//22 30//30 20//20
f 31//31 30//30 22//22
f 22//22 17//17 31//31
f 29//29 20//20 30//30
f 31//31 17//17 23//23
f 16//16 27//27 23//23
f 32//32 25//25 26//26
f 25//25 32//32 28//28
f 33//33 23//23 27//27
f 34//34 19//19 29//29
f 19//19 34//34 21//21
f 33//33 27//27 28//28
f 28//28 32//32 33//33
f 40//35 41//36 26//26
f 30//30 47//37 43//38
f 51//39 52//40 24//24
f 40//35 52//40 46//41
f 38//42 34//34 55//43
f 49//44 33//33 50//45
f 44//46 54//47 34//34
f 50//45 33//33 48//48
f 33//33 56//49 23//23
f 34//34 54//47 55//43
f 33//33 49//44 57//50
f 53//51 33//33 32//32
f 33//33 46//41 48//48
f 31//31 56//49 45//52
f 31//31 45//52 47//37
f 32//32 42//53 53//51
f 26//26 41//36 42//53
f 52//40 26//26 24//24
f 30//30 43//38 39//54
f 30//30 39//54 37//55
f 36//56 24//24 21//21
f 34//34 36//56 21//21
f 30//30 35//57 29//29
f 35//57 34//34 29//29
f 30//30 31//31 47//37
f 55//43 54//47 43//38
f 54//47 44//46 39//54
f 43//38 54//47 39//54
f 44//46 35//57 37//55
f 37//55 39//54 44//46
f 43//38 47//37 55//43
f 47//37 45//52 38//42
f 38//42 45//52 51//39
f 45//52 56//49 51//39
f 56//49 57//50 51//39
f 57//50 49//44 48//48
f 49//44 50//45 48//48
f 38//42 51//39 36//56
f 38//42 55//43 47//37
f 57//50 48//48 46//41
f 46//41 53//51 40//35
f 53//51 42//53 40//35
f 57//50 46//41 52//40
f 52//40 51//39 57//50
f 41//36 40//35 42//53
f 33//33 57//50 56//49
f 53//51 46//41 33//33
f 31//31 23//23 56//49
f 32//32 26//26 42//53
f 52//40 40//35 26//26
f 36//56 51//39 24//24
f 34//34 38//42 36//56
f 30//30 37//55 35//57
f 35//57 44//46 34//34
