# Blender v2.92.0 OBJ File: 'convert_to_one_sided.blend'
# www.blender.org
mtllib 643L.mtl
o 643
v 8.792477 2.737725 0.968834
v 8.742147 2.651366 0.988502
v 8.758617 2.728805 0.979516
v 8.798747 2.762994 0.986646
v 8.804147 2.746004 0.985594
v 8.673898 2.591236 1.008638
v 8.708648 2.664375 0.991876
v 8.783317 2.669086 1.002148
v 8.719638 2.711545 0.998230
v 8.759427 2.751814 1.002618
v 8.806757 2.765274 0.992393
v 8.745107 2.572317 1.031737
v 8.671059 2.492548 1.058487
v 8.681188 2.647156 1.009277
v 8.626069 2.565667 1.050457
v 8.721527 2.733345 1.038787
v 8.804827 2.733845 1.022687
v 8.625969 2.512537 1.055347
v 8.663428 2.651456 1.052267
v 8.795227 2.660566 1.041747
v 8.770777 2.760014 1.022507
v 8.794538 2.750574 1.018857
v 8.730828 2.484968 1.080546
v 8.768347 2.574227 1.059907
v 8.565940 2.448648 1.093446
v 8.590309 2.428968 1.089596
v 8.549840 2.461638 1.115776
v 8.593229 2.551597 1.108836
v 8.776156 2.557417 1.093466
v 8.772118 2.605836 1.116246
v 8.665539 2.668385 1.076677
v 8.787066 2.707055 1.063937
v 8.742038 2.737265 1.060177
v 8.768377 2.724135 1.061507
v 8.547239 2.309460 1.147596
v 8.526541 2.358689 1.131666
v 8.660499 2.337470 1.157645
v 8.735417 2.449098 1.126686
v 8.634509 2.617526 1.092016
v 8.677329 2.645256 1.111526
v 8.696518 2.345540 1.176985
v 8.471761 2.341599 1.170075
v 8.731208 2.648056 1.122426
v 8.467011 2.286450 1.172665
v 8.507881 2.423378 1.174015
v 8.744418 2.470168 1.159786
v 8.561501 2.503727 1.160775
v 8.620119 2.583416 1.121506
v 8.764217 2.660056 1.101126
v 8.399142 2.203231 1.202695
v 8.525990 2.179602 1.228135
v 8.703697 2.354280 1.195625
v 8.651999 2.516037 1.204005
v 8.407842 2.173912 1.214015
v 8.378592 2.233651 1.213425
v 8.608859 2.198771 1.247534
v 8.659759 2.275681 1.223745
v 8.394592 2.299580 1.249124
v 8.513160 2.430578 1.200845
v 8.572710 2.488298 1.187905
v 8.743567 2.605326 1.141556
v 8.739458 2.565367 1.165105
v 8.716788 2.543147 1.183785
v 8.305504 2.133292 1.231915
v 8.286103 2.157372 1.236794
v 8.304523 2.081713 1.263444
v 8.462122 2.050083 1.313143
v 8.360932 2.254631 1.240594
v 8.454201 2.362159 1.230754
v 8.697578 2.364889 1.238954
v 8.719228 2.482978 1.199605
v 8.120006 2.114253 1.269154
v 8.182195 2.107683 1.257324
v 8.059486 2.102823 1.283914
v 8.196904 2.149332 1.277794
v 8.285724 2.199471 1.267924
v 8.666169 2.283790 1.255144
v 8.121395 2.048263 1.290164
v 8.047617 2.050853 1.305974
v 8.013877 2.112513 1.311313
v 8.552110 2.095233 1.320793
v 8.029847 2.136492 1.315093
v 8.405521 2.305830 1.283094
v 8.485311 2.378789 1.246884
v 8.680988 2.460778 1.232684
v 8.523160 2.364389 1.283414
v 8.203805 1.980894 1.329303
v 8.343402 1.953165 1.367333
v 8.619139 2.201531 1.288884
v 8.005836 2.139402 1.328253
v 8.105266 2.145422 1.311953
v 8.221475 2.185282 1.321313
v 8.313863 2.233061 1.282564
v 8.638959 2.258431 1.307284
v 8.667499 2.378969 1.264634
v 8.108625 1.960925 1.358023
v 8.050616 2.020434 1.358983
v 8.008207 2.144932 1.339753
v 8.044156 2.147212 1.336683
v 8.325143 2.240691 1.313903
v 8.421422 2.305500 1.301954
v 8.616429 2.379699 1.282294
v 8.238784 1.868906 1.427392
v 8.465771 1.943595 1.408002
v 8.505680 2.019184 1.364173
v 8.370982 2.268400 1.314533
v 8.606059 2.279011 1.332913
v 8.087896 1.943265 1.393622
v 8.519150 1.997194 1.402392
v 8.047827 2.019864 1.417762
v 8.033067 2.086513 1.376323
v 8.566050 2.100093 1.377583
v 8.126155 2.163412 1.356273
v 8.142515 1.868936 1.449992
v 8.095756 1.934215 1.456872
v 8.036086 2.109303 1.396872
v 8.572809 2.167132 1.393232
v 8.047056 2.140492 1.362073
v 8.247264 2.193121 1.350683
v 8.379462 2.255031 1.333603
v 8.492881 2.219511 1.384533
v 8.382902 1.872956 1.448022
v 8.100766 2.116112 1.409662
v 8.283813 2.138872 1.418172
v 8.557059 2.197511 1.393072
v 8.194565 1.818666 1.477311
v 8.493900 1.927575 1.454472
v 8.513440 1.967604 1.460711
v 8.073066 2.014264 1.466801
v 8.531930 2.043494 1.458362
v 8.551940 2.150652 1.423542
v 8.235964 1.800657 1.498431
v 8.314893 1.823396 1.490391
v 8.388322 1.839576 1.500131
v 8.446240 1.888005 1.479391
v 8.135315 1.859866 1.512901
v 8.082596 1.970134 1.474151
v 8.103705 2.038553 1.481261
v 8.534961 2.100903 1.451752
v 8.206465 2.054953 1.486781
v 8.534030 2.149562 1.426792
v 8.256174 1.794467 1.526251
v 8.504820 2.023534 1.503131
v 8.311133 2.038794 1.516671
v 8.502431 2.098613 1.464502
v 8.173195 1.825566 1.520351
v 8.478400 1.908975 1.493601
v 8.477521 1.940695 1.522041
v 8.420562 2.082963 1.481621
v 8.209494 1.805357 1.538970
v 8.340282 1.823766 1.529251
v 8.426731 1.877506 1.511121
v 8.120806 1.911865 1.528961
v 8.259044 1.828326 1.569230
v 8.146125 1.856006 1.537191
v 8.124445 1.968134 1.530151
v 8.464571 1.963215 1.551320
v 8.210944 1.968754 1.555540
v 8.467701 2.024264 1.516751
v 8.176945 1.858336 1.564830
v 8.358662 1.972324 1.558670
v 8.363233 1.867066 1.556020
v 8.383032 1.905745 1.576370
v 8.158794 1.915005 1.558260
v 8.302193 1.869556 1.589560
v 8.384373 1.931275 1.575530
v 8.241514 1.869836 1.596140
v 8.202564 1.900715 1.578770
v 8.316643 1.905175 1.585670
v 8.265094 1.920115 1.575130
vn 0.3359 0.0415 -0.9410
vn 0.0913 -0.2967 -0.9506
vn -0.3556 0.3434 -0.8693
vn 0.1248 0.8807 -0.4568
vn 0.8982 0.0266 -0.4387
vn -0.3780 -0.1652 -0.9109
vn -0.4193 0.0800 -0.9043
vn 0.7043 -0.3853 -0.5962
vn -0.6877 0.4786 -0.5460
vn -0.4791 0.7966 -0.3687
vn 0.7639 0.6450 0.0197
vn 0.4711 -0.4669 -0.7484
vn 0.0917 -0.4655 -0.8803
vn -0.7241 0.2402 -0.6465
vn -0.7552 0.1775 -0.6310
vn -0.6360 0.7682 0.0734
vn 0.9327 0.1783 0.3136
vn -0.3543 -0.2315 -0.9060
vn -0.8352 0.4662 -0.2917
vn 0.9727 -0.2105 -0.0979
vn -0.0393 0.9557 0.2916
vn 0.4370 0.7450 0.5040
vn 0.5471 -0.5191 -0.6567
vn 0.8019 -0.4047 -0.4395
vn -0.5572 -0.0494 -0.8289
vn -0.2055 -0.3199 -0.9249
vn -0.8189 0.2982 -0.4905
vn -0.8563 0.4959 -0.1443
vn 0.9646 -0.2621 -0.0277
vn 0.8399 0.1069 0.5321
vn -0.7484 0.6322 0.2007
vn 0.6208 0.4086 0.6691
vn -0.1554 0.7500 0.6429
vn 0.3182 0.6069 0.7283
vn -0.0272 -0.4205 -0.9069
vn -0.3879 -0.2153 -0.8962
vn 0.4193 -0.5802 -0.6982
vn 0.8253 -0.4572 -0.3313
vn -0.8454 0.5334 0.0263
vn -0.4256 0.6442 0.6355
vn 0.7193 -0.5580 -0.4138
vn -0.6985 0.2366 -0.6754
vn 0.1211 0.5334 0.8372
vn -0.3856 -0.0904 -0.9182
vn -0.8280 0.5358 -0.1652
vn 0.9478 -0.1815 0.2622
vn -0.7296 0.6350 0.2540
vn -0.6984 0.6170 0.3628
vn 0.4698 0.4022 0.7859
vn -0.2411 -0.1271 -0.9622
vn 0.2349 -0.5946 -0.7689
vn 0.9165 -0.4000 0.0045
vn -0.1079 0.5559 0.8242
vn 0.0338 -0.4671 -0.8836
vn -0.5170 0.2358 -0.8229
vn 0.6055 -0.6318 -0.4839
vn 0.7726 -0.5790 -0.2605
vn -0.7178 0.6765 -0.1650
vn -0.6807 0.6726 0.2903
vn -0.4823 0.6546 0.5821
vn 0.4524 0.4075 0.7933
vn 0.5646 0.2857 0.7743
vn 0.2969 0.4006 0.8668
vn -0.1177 -0.2799 -0.9528
vn -0.3759 0.2738 -0.8853
vn 0.0430 -0.5433 -0.8384
vn 0.2711 -0.6198 -0.7365
vn -0.6631 0.5360 -0.5226
vn -0.6806 0.7120 0.1731
vn 0.8734 -0.1139 0.4735
vn 0.6920 0.1323 0.7096
vn -0.2420 0.5108 -0.8249
vn -0.1940 -0.0305 -0.9805
vn -0.3438 0.1376 -0.9289
vn -0.3208 0.6476 -0.6911
vn -0.5466 0.6106 -0.5731
vn 0.9015 -0.4051 0.1525
vn -0.1444 -0.4622 -0.8749
vn -0.5461 -0.4831 -0.6843
vn -0.8965 -0.0804 -0.4358
vn 0.6234 -0.6235 -0.4717
vn -0.3018 0.6483 -0.6990
vn -0.5653 0.7735 0.2867
vn -0.4962 0.7257 0.4766
vn 0.3214 0.3578 0.8767
vn -0.2376 0.6351 0.7350
vn -0.0132 -0.6139 -0.7893
vn 0.1379 -0.6384 -0.7573
vn 0.8611 -0.5079 -0.0224
vn -0.5894 0.6785 -0.4385
vn -0.2184 0.8277 -0.5169
vn -0.4109 0.8840 -0.2230
vn -0.6108 0.7462 -0.2649
vn 0.8463 -0.1298 0.5167
vn 0.5501 0.2049 0.8096
vn -0.3391 -0.6681 -0.6623
vn -0.8666 -0.4659 -0.1789
vn -0.8077 0.5314 0.2554
vn -0.1961 0.9731 -0.1207
vn -0.5116 0.8261 0.2360
vn -0.3827 0.7331 0.5622
vn 0.1261 0.4561 0.8809
vn -0.0015 -0.7015 -0.7127
vn 0.4029 -0.6819 -0.6105
vn 0.4748 -0.6238 -0.6208
vn -0.4409 0.7268 0.5267
vn 0.4298 0.3354 0.8383
vn -0.7262 -0.6156 -0.3059
vn 0.7535 -0.5508 -0.3590
vn -0.9462 -0.2488 0.2069
vn -0.9613 -0.1268 0.2446
vn 0.9310 -0.3507 0.1008
vn -0.2071 0.9470 0.2454
vn -0.5653 -0.7285 -0.3870
vn -0.8795 -0.4718 0.0628
vn -0.6158 0.4376 0.6552
vn 0.7783 0.0995 0.6199
vn -0.2542 0.8458 0.4690
vn -0.3061 0.8700 0.3865
vn -0.2845 0.6943 0.6610
vn 0.0048 0.5701 0.8216
vn 0.2674 -0.7459 -0.6101
vn -0.1775 0.7218 0.6689
vn -0.1315 0.6975 0.7045
vn 0.3284 0.4698 0.8194
vn -0.3195 -0.8255 -0.4652
vn 0.7133 -0.6553 -0.2486
vn 0.9198 -0.3645 0.1449
vn -0.8176 0.0723 0.5713
vn 0.8903 -0.1050 0.4432
vn 0.4726 0.3766 0.7967
vn -0.1153 -0.9363 -0.3319
vn 0.2248 -0.8833 -0.4115
vn 0.4656 -0.8757 -0.1277
vn 0.5355 -0.8110 -0.2355
vn -0.8235 -0.5603 0.0893
vn -0.9027 -0.2677 0.3369
vn -0.3479 0.5220 0.7788
vn 0.5731 0.2642 0.7757
vn -0.1294 0.6523 0.7469
vn 0.1828 0.4917 0.8514
vn 0.1223 -0.9816 0.1464
vn 0.6369 0.1921 0.7466
vn -0.0538 0.6156 0.7862
vn 0.2111 0.4918 0.8447
vn -0.5669 -0.8165 0.1095
vn 0.7357 -0.6432 0.2125
vn 0.7292 -0.3740 0.5731
vn 0.0145 0.5882 0.8086
vn -0.3320 -0.8621 0.3829
vn 0.3901 -0.8516 0.3502
vn 0.5811 -0.7055 0.4057
vn -0.8132 -0.1931 0.5490
vn 0.0639 -0.6712 0.7385
vn -0.7001 -0.5290 0.4796
vn -0.5282 0.2440 0.8133
vn 0.4165 0.1447 0.8975
vn -0.1594 0.4492 0.8791
vn 0.1957 0.4865 0.8515
vn -0.4837 -0.3850 0.7860
vn 0.0285 0.4545 0.8903
vn 0.4404 -0.6046 0.6638
vn 0.3672 -0.2698 0.8902
vn -0.4654 0.1015 0.8793
vn 0.2180 -0.3538 0.9096
vn 0.1433 0.2009 0.9691
vn -0.1175 -0.0623 0.9911
vn -0.2708 0.1927 0.9432
vn 0.0526 0.1938 0.9796
vn -0.0585 0.3616 0.9305
usemtl mtl1.1417
s 1
f 1//1 2//2 3//3
f 4//4 1//1 3//3
f 4//4 5//5 1//1
f 2//2 6//6 7//7
f 8//8 1//1 5//5
f 2//2 7//7 3//3
f 1//1 8//8 2//2
f 3//3 7//7 9//9
f 3//3 9//9 10//10
f 5//5 4//4 11//11
f 3//3 10//10 4//4
f 12//12 13//13 2//2
f 14//14 6//6 15//15
f 6//6 14//14 7//7
f 8//8 12//12 2//2
f 7//7 14//14 9//9
f 10//10 9//9 16//16
f 5//5 11//11 17//17
f 6//6 13//13 18//18
f 6//6 18//18 15//15
f 13//13 6//6 2//2
f 19//19 14//14 15//15
f 19//19 9//9 14//14
f 8//8 5//5 20//20
f 16//16 9//9 19//19
f 5//5 17//17 20//20
f 21//21 10//10 16//16
f 11//11 22//22 17//17
f 4//4 10//10 21//21
f 22//22 11//11 4//4
f 13//13 12//12 23//23
f 23//23 12//12 24//24
f 15//15 18//18 25//25
f 12//12 8//8 24//24
f 24//24 8//8 20//20
f 4//4 21//21 22//22
f 13//13 26//26 18//18
f 15//15 25//25 27//27
f 27//27 28//28 15//15
f 15//15 28//28 19//19
f 24//24 20//20 29//29
f 30//30 29//29 20//20
f 17//17 30//30 20//20
f 31//31 16//16 19//19
f 17//17 22//22 32//32
f 21//21 16//16 33//33
f 21//21 34//34 22//22
f 33//33 34//34 21//21
f 35//35 36//36 26//26
f 25//25 26//26 36//36
f 13//13 35//35 26//26
f 23//23 37//37 13//13
f 37//37 23//23 38//38
f 26//26 25//25 18//18
f 23//23 24//24 38//38
f 19//19 28//28 39//39
f 19//19 39//39 31//31
f 30//30 17//17 32//32
f 16//16 31//31 40//40
f 16//16 40//40 33//33
f 32//32 22//22 34//34
f 35//35 13//13 37//37
f 41//41 37//37 38//38
f 36//36 42//42 25//25
f 27//27 25//25 42//42
f 38//38 24//24 29//29
f 43//43 34//34 33//33
f 35//35 44//44 36//36
f 42//42 36//36 44//44
f 42//42 45//45 27//27
f 46//46 38//38 29//29
f 47//47 48//48 28//28
f 48//48 39//39 28//28
f 39//39 48//48 31//31
f 32//32 49//49 30//30
f 49//49 34//34 43//43
f 49//49 32//32 34//34
f 43//43 33//33 40//40
f 35//35 50//50 44//44
f 37//37 51//51 35//35
f 41//41 38//38 52//52
f 52//52 38//38 46//46
f 27//27 45//45 28//28
f 45//45 47//47 28//28
f 46//46 29//29 30//30
f 48//48 40//40 31//31
f 40//40 53//53 43//43
f 54//54 35//35 51//51
f 35//35 54//54 50//50
f 50//50 55//55 44//44
f 37//37 56//56 51//51
f 56//56 37//37 57//57
f 55//55 42//42 44//44
f 37//37 41//41 57//57
f 45//45 42//42 58//58
f 59//59 47//47 45//45
f 48//48 47//47 60//60
f 61//61 62//62 30//30
f 30//30 49//49 61//61
f 48//48 60//60 40//40
f 43//43 63//63 61//61
f 43//43 53//53 63//63
f 49//49 43//43 61//61
f 54//54 64//64 50//50
f 50//50 64//64 65//65
f 54//54 51//51 66//66
f 66//66 51//51 67//67
f 50//50 65//65 55//55
f 42//42 55//55 68//68
f 52//52 57//57 41//41
f 68//68 58//58 42//42
f 69//69 45//45 58//58
f 70//70 52//52 46//46
f 69//69 59//59 45//45
f 71//71 46//46 30//30
f 62//62 61//61 63//63
f 60//60 53//53 40//40
f 54//54 66//66 64//64
f 72//72 73//73 74//74
f 72//72 75//75 73//73
f 64//64 73//73 65//65
f 65//65 73//73 75//75
f 75//75 76//76 65//65
f 55//55 65//65 76//76
f 55//55 76//76 68//68
f 77//77 57//57 52//52
f 77//77 52//52 70//70
f 71//71 70//70 46//46
f 62//62 71//71 30//30
f 59//59 60//60 47//47
f 78//78 79//79 74//74
f 73//73 78//78 74//74
f 66//66 78//78 73//73
f 64//64 66//66 73//73
f 79//79 80//80 74//74
f 67//67 51//51 81//81
f 80//80 82//82 74//74
f 51//51 56//56 81//81
f 83//83 69//69 58//58
f 69//69 84//84 59//59
f 59//59 84//84 60//60
f 53//53 85//85 63//63
f 63//63 85//85 71//71
f 53//53 60//60 86//86
f 71//71 62//62 63//63
f 66//66 87//87 78//78
f 87//87 66//66 88//88
f 67//67 88//88 66//66
f 81//81 56//56 89//89
f 82//82 80//80 90//90
f 72//72 74//74 91//91
f 56//56 57//57 89//89
f 91//91 74//74 82//82
f 72//72 91//91 75//75
f 76//76 75//75 92//92
f 77//77 89//89 57//57
f 68//68 76//76 93//93
f 68//68 93//93 58//58
f 70//70 94//94 77//77
f 84//84 69//69 83//83
f 94//94 70//70 95//95
f 71//71 95//95 70//70
f 84//84 86//86 60//60
f 96//96 78//78 87//87
f 78//78 96//96 79//79
f 79//79 96//96 97//97
f 97//97 80//80 79//79
f 90//90 80//80 98//98
f 75//75 91//91 92//92
f 99//99 82//82 90//90
f 91//91 82//82 99//99
f 93//93 76//76 92//92
f 100//100 58//58 93//93
f 58//58 100//100 83//83
f 84//84 101//101 86//86
f 95//95 71//71 85//85
f 85//85 53//53 102//102
f 88//88 103//103 87//87
f 104//104 88//88 67//67
f 104//104 67//67 105//105
f 67//67 81//81 105//105
f 90//90 98//98 99//99
f 77//77 94//94 89//89
f 83//83 100//100 106//106
f 83//83 106//106 101//101
f 83//83 101//101 84//84
f 107//107 95//95 102//102
f 53//53 86//86 102//102
f 85//85 102//102 95//95
f 96//96 87//87 103//103
f 96//96 108//108 97//97
f 109//109 105//105 81//81
f 110//110 111//111 97//97
f 97//97 111//111 80//80
f 111//111 98//98 80//80
f 89//89 94//94 112//112
f 91//91 99//99 113//113
f 92//92 91//91 113//113
f 93//93 92//92 100//100
f 94//94 95//95 107//107
f 96//96 114//114 108//108
f 114//114 96//96 103//103
f 108//108 115//115 97//97
f 115//115 110//110 97//97
f 81//81 112//112 109//109
f 112//112 81//81 89//89
f 111//111 116//116 98//98
f 94//94 117//117 112//112
f 98//98 116//116 118//118
f 99//99 98//98 118//118
f 113//113 99//99 118//118
f 92//92 113//113 119//119
f 92//92 119//119 100//100
f 100//100 119//119 120//120
f 100//100 120//120 106//106
f 106//106 120//120 101//101
f 117//117 94//94 107//107
f 86//86 101//101 120//120
f 102//102 121//121 107//107
f 102//102 86//86 121//121
f 122//122 103//103 88//88
f 104//104 122//122 88//88
f 115//115 108//108 114//114
f 105//105 109//109 104//104
f 118//118 123//123 113//113
f 123//123 124//124 113//113
f 113//113 124//124 119//119
f 125//125 117//117 107//107
f 121//121 86//86 120//120
f 125//125 107//107 121//121
f 114//114 103//103 126//126
f 104//104 109//109 127//127
f 128//128 109//109 112//112
f 110//110 129//129 111//111
f 112//112 117//117 130//130
f 111//111 129//129 116//116
f 123//123 118//118 116//116
f 120//120 119//119 124//124
f 120//120 124//124 121//121
f 117//117 125//125 131//131
f 126//126 103//103 132//132
f 133//133 132//132 103//103
f 133//133 103//103 122//122
f 134//134 122//122 135//135
f 104//104 135//135 122//122
f 114//114 136//136 115//115
f 109//109 128//128 127//127
f 110//110 137//137 129//129
f 138//138 116//116 129//129
f 123//123 116//116 138//138
f 117//117 139//139 130//130
f 123//123 140//140 124//124
f 131//131 139//139 117//117
f 125//125 141//141 131//131
f 121//121 141//141 125//125
f 132//132 133//133 142//142
f 134//134 133//133 122//122
f 135//135 104//104 127//127
f 115//115 137//137 110//110
f 112//112 130//130 128//128
f 130//130 139//139 143//143
f 140//140 144//144 124//124
f 121//121 145//145 141//141
f 139//139 131//131 141//141
f 126//126 132//132 146//146
f 126//126 146//146 114//114
f 114//114 146//146 136//136
f 147//147 135//135 127//127
f 147//147 127//127 128//128
f 147//147 128//128 148//148
f 130//130 148//148 128//128
f 139//139 141//141 145//145
f 140//140 123//123 138//138
f 149//149 121//121 124//124
f 145//145 121//121 149//149
f 132//132 150//150 146//146
f 132//132 142//142 150//150
f 142//142 133//133 151//151
f 133//133 134//134 151//151
f 135//135 152//152 134//134
f 135//135 147//147 152//152
f 115//115 153//153 137//137
f 143//143 148//148 130//130
f 143//143 139//139 145//145
f 149//149 124//124 144//144
f 142//142 154//154 150//150
f 134//134 152//152 151//151
f 155//155 153//153 136//136
f 136//136 153//153 115//115
f 156//156 129//129 153//153
f 153//153 129//129 137//137
f 143//143 157//157 148//148
f 156//156 138//138 129//129
f 138//138 158//158 140//140
f 140//140 158//158 144//144
f 143//143 145//145 159//159
f 145//145 149//149 159//159
f 146//146 160//160 155//155
f 136//136 146//146 155//155
f 160//160 146//146 150//150
f 142//142 151//151 154//154
f 148//148 152//152 147//147
f 157//157 159//159 161//161
f 157//157 143//143 159//159
f 158//158 138//138 156//156
f 144//144 161//161 149//149
f 161//161 159//159 149//149
f 150//150 154//154 160//160
f 162//162 154//154 151//151
f 162//162 151//151 152//152
f 152//152 148//148 162//162
f 162//162 148//148 163//163
f 157//157 163//163 148//148
f 164//164 156//156 153//153
f 158//158 161//161 144//144
f 165//165 154//154 162//162
f 165//165 162//162 163//163
f 155//155 160//160 153//153
f 160//160 164//164 153//153
f 163//163 157//157 166//166
f 158//158 156//156 164//164
f 157//157 161//161 166//166
f 160//160 154//154 167//167
f 154//154 165//165 167//167
f 160//160 167//167 168//168
f 160//160 168//168 164//164
f 163//163 169//169 165//165
f 163//163 166//166 169//169
f 158//158 164//164 168//168
f 168//168 170//170 158//158
f 161//161 170//170 169//169
f 161//161 169//169 166//166
f 161//161 158//158 170//170
f 167//167 165//165 169//169
f 167//167 170//170 168//168
f 169//169 170//170 167//167
