# Blender v2.92.0 OBJ File: 'convert_to_one_sided.blend'
# www.blender.org
mtllib 64L.mtl
o 64
v 6.182121 3.304297 4.687680
v 6.133201 3.263397 4.695790
v 6.134611 3.353256 4.691170
v 6.059752 3.329767 4.699280
v 6.068672 3.399046 4.702620
v 6.214990 3.249617 4.723390
v 6.175021 3.192038 4.740399
v 6.235120 3.331956 4.714620
v 6.078792 3.246938 4.734540
v 6.207130 3.382316 4.708540
v 5.999032 3.402526 4.718610
v 6.032732 3.445555 4.717770
v 6.135171 3.455785 4.729000
v 6.135121 3.196818 4.749829
v 6.283269 3.333317 4.763529
v 6.008333 3.335216 4.744199
v 6.258369 3.405655 4.741560
v 5.946633 3.483864 4.748250
v 6.227420 3.447965 4.740699
v 6.023522 3.539974 4.767749
v 6.180211 3.143679 4.798579
v 6.234740 3.169809 4.784809
v 6.280309 3.212568 4.798889
v 5.933874 3.435035 4.782059
v 6.263989 3.491084 4.781339
v 5.882924 3.548934 4.805019
v 6.211320 3.525784 4.785239
v 5.949944 3.546894 4.768779
v 6.102261 3.184618 4.810749
v 6.279189 3.153769 4.825958
v 6.019552 3.275007 4.809709
v 5.966493 3.348496 4.813108
v 6.287159 3.439955 4.784959
v 5.904304 3.577573 4.789799
v 5.927284 3.634963 4.805539
v 6.132251 3.617003 4.827298
v 5.970943 3.765261 4.874738
v 6.328709 3.269527 4.847698
v 6.225020 3.590243 4.839438
v 5.853714 3.669122 4.835268
v 5.881684 3.646042 4.815259
v 6.262000 3.132719 4.854418
v 6.145241 3.138899 4.854698
v 6.302469 3.175039 4.858868
v 6.314898 3.404236 4.827848
v 5.928493 3.390446 4.872128
v 5.872214 3.529514 4.871208
v 6.276149 3.526034 4.846478
v 5.869965 3.724091 4.845038
v 5.893644 3.787081 4.871648
v 6.203980 3.126249 4.888298
v 5.985983 3.297007 4.885978
v 6.336128 3.357346 4.879658
v 5.849775 3.634283 4.860828
v 5.842705 3.777601 4.873188
v 6.088252 3.178818 4.914437
v 6.044122 3.232778 4.878088
v 6.332438 3.188768 4.905627
v 6.310369 3.458475 4.878528
v 6.228340 3.646192 4.894777
v 6.169051 3.684362 4.888007
v 5.832205 3.758431 4.888968
v 6.060262 3.805710 4.927087
v 5.850454 3.840040 4.896897
v 6.143361 3.148679 4.920207
v 6.341108 3.264177 4.923987
v 5.895684 3.476225 4.944017
v 6.275660 3.556943 4.906317
v 5.838445 3.677092 4.896257
v 5.832825 3.840090 4.906257
v 5.872824 3.888979 4.925287
v 6.262829 3.122889 4.913908
v 6.238620 3.135369 4.950057
v 6.299329 3.152269 4.911367
v 6.153831 3.750621 4.942707
v 5.925203 3.927389 4.963927
v 5.825665 3.865180 4.926777
v 5.837305 3.895629 4.938787
v 6.180790 3.154088 4.962497
v 6.323459 3.188508 4.952167
v 6.024413 3.252078 4.941357
v 5.963113 3.348736 4.952147
v 6.314479 3.418035 4.924407
v 5.848505 3.679572 4.940157
v 6.260540 3.581163 4.950377
v 6.221710 3.654582 4.932637
v 5.831355 3.810500 4.932567
v 6.064502 3.861170 4.980696
v 6.279059 3.155479 4.956637
v 6.123211 3.174028 4.962377
v 6.337029 3.228998 4.961067
v 6.322499 3.314047 4.963446
v 5.939943 3.418105 4.991426
v 5.980333 3.934529 4.991676
v 5.836095 3.915349 4.961607
v 5.862454 3.941729 4.972826
v 6.075302 3.217048 4.978876
v 6.287869 3.459425 4.963477
v 6.181631 3.715401 4.977036
v 5.842655 3.863620 4.972706
v 6.092852 3.835690 4.998836
v 5.920874 3.979688 4.999126
v 5.896284 3.982038 5.001816
v 6.223800 3.183268 5.000086
v 6.292079 3.188358 4.985036
v 6.313559 3.246268 4.977827
v 6.022213 3.278377 4.984686
v 6.011013 3.331796 5.012306
v 5.916154 3.532334 4.998356
v 5.874915 3.638242 4.972617
v 6.234810 3.581993 4.985606
v 5.859525 3.780330 4.982466
v 6.111481 3.808090 5.012616
v 6.002303 3.934289 5.018445
v 5.866244 3.952898 4.989456
v 5.931203 3.975978 5.012786
v 6.134291 3.198198 4.995836
v 6.268709 3.414175 4.994346
v 6.185390 3.622483 5.017246
v 5.906584 3.754671 5.014396
v 6.156741 3.712562 5.007416
v 5.882284 3.909659 5.011336
v 6.055402 3.874320 5.022846
v 5.904684 3.974328 5.012886
v 6.259850 3.266287 5.003516
v 6.079562 3.253117 5.011506
v 6.190870 3.386776 5.023556
v 6.161421 3.293007 5.029186
v 5.964573 3.432865 5.014666
v 6.180231 3.508674 5.023396
v 6.124981 3.519874 5.036585
v 5.975773 3.512914 5.023516
v 5.968433 3.632282 5.025036
v 5.976783 3.777991 5.043625
v 5.948884 3.966688 5.029166
v 6.139181 3.238258 5.017426
v 6.077991 3.319287 5.026296
v 6.022573 3.438115 5.026316
v 6.106291 3.425385 5.030506
v 6.044592 3.595243 5.036665
v 6.110261 3.645022 5.036896
v 6.080252 3.796080 5.031256
v 5.923784 3.879709 5.035416
v 6.010802 3.905529 5.028625
v 5.924774 3.937209 5.028376
v 6.034382 3.751431 5.042116
v 5.984913 3.860919 5.032916
vn 0.2481 -0.0828 -0.9652
vn -0.1167 -0.3940 -0.9117
vn -0.0064 0.1380 -0.9904
vn -0.3764 -0.2008 -0.9044
vn -0.0948 0.1922 -0.9768
vn 0.4818 -0.3569 -0.8003
vn 0.0695 -0.6382 -0.7667
vn 0.5744 -0.0305 -0.8180
vn -0.5751 -0.5800 -0.5769
vn 0.2882 0.2537 -0.9234
vn -0.4998 -0.0869 -0.8617
vn -0.1056 0.3211 -0.9412
vn 0.1031 0.4318 -0.8960
vn -0.3628 -0.7097 -0.6039
vn 0.7871 -0.0619 -0.6137
vn -0.7233 -0.4399 -0.5323
vn 0.6105 0.2023 -0.7657
vn -0.4210 0.1301 -0.8977
vn 0.3096 0.4175 -0.8543
vn 0.0416 0.4314 -0.9012
vn -0.1257 -0.8894 -0.4394
vn 0.3758 -0.6350 -0.6749
vn 0.7281 -0.2916 -0.6204
vn -0.8287 -0.3350 -0.4484
vn 0.5887 0.4550 -0.6681
vn -0.8329 -0.1397 -0.5355
vn 0.2442 0.5428 -0.8036
vn -0.1018 0.3270 -0.9395
vn -0.6161 -0.7353 -0.2823
vn 0.6428 -0.5830 -0.4970
vn -0.7503 -0.6077 -0.2601
vn -0.8190 -0.5035 -0.2751
vn 0.8319 0.2325 -0.5038
vn -0.4001 0.2039 -0.8935
vn -0.0344 0.3761 -0.9259
vn 0.2166 0.5309 -0.8193
vn 0.1832 0.4825 -0.8565
vn 0.9171 -0.1171 -0.3810
vn 0.4759 0.5750 -0.6655
vn -0.7118 0.0977 -0.6956
vn -0.3024 0.2700 -0.9141
vn 0.3841 -0.8792 -0.2820
vn -0.4187 -0.9040 -0.0864
vn 0.8020 -0.4935 -0.3365
vn 0.9217 0.1754 -0.3459
vn -0.8912 -0.4494 -0.0626
vn -0.9550 -0.2914 -0.0561
vn 0.8440 0.4166 -0.3379
vn -0.2275 0.3385 -0.9130
vn 0.0576 0.4375 -0.8974
vn -0.1330 -0.9893 0.0600
vn -0.8094 -0.5856 -0.0445
vn 0.9884 0.1371 -0.0661
vn -0.9608 -0.1434 -0.2374
vn -0.6043 0.2508 -0.7562
vn -0.6347 -0.7658 0.1033
vn -0.7388 -0.6671 -0.0955
vn 0.9127 -0.3934 -0.1106
vn 0.9513 0.3000 -0.0708
vn 0.7442 0.5687 -0.3503
vn 0.4158 0.5992 -0.6842
vn -0.9594 0.0069 -0.2820
vn 0.3659 0.5767 -0.7304
vn -0.2380 0.4478 -0.8619
vn -0.3544 -0.9039 0.2396
vn 0.9967 -0.0138 0.0801
vn -0.8998 -0.3035 0.3135
vn 0.9184 0.3956 -0.0026
vn -0.9875 -0.1502 0.0486
vn -0.6857 0.3096 -0.6588
vn 0.0098 0.5743 -0.8186
vn 0.3063 -0.9381 0.1619
vn 0.0177 -0.8670 0.4980
vn 0.6810 -0.7317 0.0281
vn 0.6929 0.6441 -0.3240
vn 0.1436 0.5953 -0.7905
vn -0.9425 0.2052 -0.2638
vn -0.5062 0.5616 -0.6545
vn -0.2066 -0.8379 0.5052
vn 0.7840 -0.4684 0.4074
vn -0.7585 -0.6290 0.1702
vn -0.8254 -0.4889 0.2823
vn 0.9430 0.2291 0.2413
vn -0.9192 -0.1626 0.3585
vn 0.8823 0.3544 0.3097
vn 0.8515 0.5238 0.0247
vn -0.9760 -0.0603 0.2091
vn 0.6079 0.6777 -0.4137
vn 0.4265 -0.7357 0.5261
vn -0.4110 -0.7914 0.4526
vn 0.8578 -0.1085 0.5025
vn 0.8279 0.1492 0.5407
vn -0.7427 -0.3282 0.5836
vn 0.4751 0.7081 -0.5224
vn -0.9251 0.3788 0.0248
vn -0.3858 0.7394 -0.5518
vn -0.5563 -0.6620 0.5023
vn 0.8102 0.2109 0.5469
vn 0.8259 0.4817 0.2930
vn -0.8407 -0.0090 0.5414
vn 0.7708 0.6351 0.0503
vn 0.2463 0.8287 -0.5026
vn -0.2914 0.9388 -0.1837
vn 0.0751 -0.4960 0.8650
vn 0.4543 -0.3667 0.8118
vn 0.5660 -0.0650 0.8219
vn -0.6779 -0.5249 0.5147
vn -0.4969 -0.3201 0.8066
vn -0.6044 -0.1219 0.7873
vn -0.7726 -0.1470 0.6177
vn 0.7175 0.2597 0.6463
vn -0.7252 -0.0986 0.6814
vn 0.6931 0.4122 0.5914
vn 0.6285 0.7549 0.1874
vn -0.7817 0.4808 0.3972
vn 0.2825 0.9488 0.1411
vn -0.2574 -0.6149 0.7454
vn 0.5269 0.0936 0.8447
vn 0.4617 0.1482 0.8746
vn -0.4940 -0.0911 0.8647
vn 0.6344 0.2797 0.7206
vn -0.5838 0.0605 0.8096
vn 0.5879 0.4826 0.6492
vn -0.3776 0.5618 0.7360
vn 0.3147 -0.0529 0.9477
vn -0.3588 -0.4298 0.8285
vn 0.2203 0.0043 0.9754
vn 0.0803 -0.0979 0.9920
vn -0.4071 -0.1455 0.9017
vn 0.2875 0.0316 0.9573
vn 0.0954 -0.0166 0.9953
vn -0.2643 -0.0472 0.9633
vn -0.2931 -0.0706 0.9535
vn -0.1307 -0.0206 0.9912
vn 0.1351 0.4986 0.8563
vn -0.1053 -0.3153 0.9431
vn -0.1426 -0.1348 0.9806
vn -0.1486 -0.0764 0.9859
vn -0.0094 -0.0355 0.9993
vn -0.0718 -0.0449 0.9964
vn 0.1645 0.0333 0.9858
vn 0.3107 0.1667 0.9358
vn -0.2456 0.0370 0.9687
vn 0.2959 0.2945 0.9087
vn -0.2270 0.1503 0.9622
vn 0.0766 0.0505 0.9958
vn 0.0616 0.0995 0.9931
usemtl mtl1.1415
s 1
f 1//1 2//2 3//3
f 2//2 4//4 3//3
f 3//3 4//4 5//5
f 6//6 7//7 2//2
f 1//1 6//6 2//2
f 8//8 6//6 1//1
f 2//2 9//9 4//4
f 10//10 8//8 1//1
f 11//11 5//5 4//4
f 3//3 10//10 1//1
f 11//11 12//12 5//5
f 3//3 5//5 13//13
f 10//10 3//3 13//13
f 13//13 5//5 12//12
f 14//14 9//9 2//2
f 14//14 2//2 7//7
f 6//6 8//8 15//15
f 16//16 4//4 9//9
f 16//16 11//11 4//4
f 10//10 17//17 8//8
f 12//12 11//11 18//18
f 10//10 13//13 19//19
f 19//19 17//17 10//10
f 12//12 18//18 20//20
f 14//14 7//7 21//21
f 22//22 6//6 23//23
f 7//7 6//6 22//22
f 6//6 15//15 23//23
f 8//8 17//17 15//15
f 11//11 16//16 24//24
f 11//11 24//24 18//18
f 17//17 19//19 25//25
f 18//18 24//24 26//26
f 27//27 25//25 19//19
f 12//12 20//20 13//13
f 18//18 28//28 20//20
f 27//27 19//19 13//13
f 29//29 14//14 21//21
f 22//22 21//21 7//7
f 22//22 23//23 30//30
f 29//29 31//31 9//9
f 14//14 29//29 9//9
f 31//31 16//16 9//9
f 24//24 16//16 32//32
f 15//15 17//17 33//33
f 33//33 17//17 25//25
f 34//34 18//18 26//26
f 28//28 18//18 34//34
f 20//20 28//28 35//35
f 35//35 28//28 34//34
f 36//36 13//13 20//20
f 37//37 20//20 35//35
f 15//15 38//38 23//23
f 16//16 31//31 32//32
f 27//27 39//39 25//25
f 40//40 34//34 26//26
f 37//37 36//36 20//20
f 36//36 27//27 13//13
f 41//41 34//34 40//40
f 34//34 41//41 35//35
f 22//22 30//30 42//42
f 22//22 42//42 21//21
f 43//43 29//29 21//21
f 44//44 23//23 38//38
f 38//38 15//15 45//45
f 15//15 33//33 45//45
f 24//24 46//46 47//47
f 24//24 32//32 46//46
f 24//24 47//47 26//26
f 33//33 25//25 48//48
f 33//33 48//48 45//45
f 27//27 36//36 39//39
f 41//41 40//40 49//49
f 37//37 35//35 50//50
f 49//49 50//50 35//35
f 49//49 35//35 41//41
f 51//51 21//21 42//42
f 51//51 43//43 21//21
f 23//23 44//44 30//30
f 31//31 52//52 32//32
f 32//32 52//52 46//46
f 38//38 45//45 53//53
f 26//26 47//47 54//54
f 25//25 39//39 48//48
f 40//40 26//26 54//54
f 55//55 49//49 40//40
f 30//30 44//44 42//42
f 43//43 56//56 29//29
f 31//31 29//29 57//57
f 31//31 57//57 52//52
f 44//44 38//38 58//58
f 59//59 45//45 48//48
f 39//39 60//60 48//48
f 36//36 61//61 39//39
f 62//62 40//40 54//54
f 63//63 61//61 36//36
f 55//55 40//40 62//62
f 49//49 55//55 64//64
f 49//49 64//64 50//50
f 65//65 43//43 51//51
f 65//65 56//56 43//43
f 56//56 57//57 29//29
f 58//58 38//38 66//66
f 66//66 38//38 53//53
f 45//45 59//59 53//53
f 67//67 47//47 46//46
f 68//68 59//59 48//48
f 54//54 47//47 69//69
f 48//48 60//60 68//68
f 61//61 60//60 39//39
f 37//37 63//63 36//36
f 70//70 55//55 62//62
f 55//55 70//70 64//64
f 64//64 71//71 50//50
f 37//37 50//50 71//71
f 51//51 72//72 73//73
f 42//42 72//72 51//51
f 42//42 74//74 72//72
f 74//74 42//42 44//44
f 54//54 69//69 62//62
f 75//75 61//61 63//63
f 71//71 76//76 37//37
f 37//37 76//76 63//63
f 77//77 70//70 62//62
f 70//70 77//77 78//78
f 78//78 64//64 70//70
f 51//51 79//79 65//65
f 73//73 79//79 51//51
f 74//74 44//44 58//58
f 80//80 74//74 58//58
f 52//52 57//57 81//81
f 82//82 46//46 52//52
f 67//67 46//46 82//82
f 66//66 53//53 83//83
f 53//53 59//59 83//83
f 69//69 47//47 84//84
f 47//47 67//67 84//84
f 59//59 68//68 83//83
f 85//85 83//83 68//68
f 60//60 86//86 68//68
f 69//69 87//87 62//62
f 60//60 61//61 75//75
f 75//75 63//63 88//88
f 62//62 87//87 77//77
f 78//78 71//71 64//64
f 72//72 74//74 89//89
f 79//79 90//90 65//65
f 90//90 56//56 65//65
f 58//58 66//66 80//80
f 80//80 66//66 91//91
f 56//56 81//81 57//57
f 82//82 52//52 81//81
f 91//91 66//66 92//92
f 92//92 66//66 83//83
f 93//93 67//67 82//82
f 86//86 85//85 68//68
f 69//69 84//84 87//87
f 60//60 75//75 86//86
f 94//94 88//88 63//63
f 76//76 94//94 63//63
f 87//87 95//95 77//77
f 78//78 77//77 95//95
f 78//78 95//95 96//96
f 71//71 78//78 96//96
f 72//72 89//89 73//73
f 97//97 56//56 90//90
f 97//97 81//81 56//56
f 83//83 85//85 98//98
f 85//85 86//86 99//99
f 84//84 100//100 87//87
f 99//99 86//86 75//75
f 75//75 101//101 99//99
f 88//88 101//101 75//75
f 87//87 100//100 95//95
f 96//96 76//76 71//71
f 94//94 76//76 102//102
f 76//76 96//96 103//103
f 104//104 79//79 73//73
f 89//89 104//104 73//73
f 74//74 80//80 89//89
f 80//80 105//105 89//89
f 91//91 106//106 80//80
f 81//81 107//107 82//82
f 92//92 106//106 91//91
f 82//82 108//108 93//93
f 92//92 83//83 98//98
f 67//67 109//109 110//110
f 67//67 110//110 84//84
f 98//98 85//85 111//111
f 110//110 112//112 84//84
f 85//85 99//99 111//111
f 84//84 112//112 100//100
f 113//113 99//99 101//101
f 88//88 114//114 101//101
f 94//94 114//114 88//88
f 115//115 96//96 95//95
f 94//94 102//102 116//116
f 96//96 115//115 103//103
f 103//103 102//102 76//76
f 117//117 90//90 79//79
f 89//89 105//105 104//104
f 105//105 80//80 106//106
f 81//81 97//97 107//107
f 92//92 118//118 106//106
f 82//82 107//107 108//108
f 92//92 98//98 118//118
f 93//93 109//109 67//67
f 118//118 98//98 111//111
f 119//119 118//118 111//111
f 109//109 120//120 110//110
f 110//110 120//120 112//112
f 111//111 121//121 119//119
f 99//99 121//121 111//111
f 99//99 113//113 121//121
f 122//122 112//112 120//120
f 112//112 122//122 100//100
f 101//101 114//114 123//123
f 95//95 100//100 115//115
f 94//94 116//116 114//114
f 103//103 115//115 124//124
f 102//102 103//103 116//116
f 103//103 124//124 116//116
f 117//117 79//79 104//104
f 90//90 117//117 97//97
f 104//104 105//105 125//125
f 97//97 117//117 126//126
f 105//105 106//106 125//125
f 97//97 126//126 107//107
f 106//106 118//118 125//125
f 125//125 127//127 128//128
f 125//125 118//118 127//127
f 108//108 129//129 93//93
f 127//127 130//130 131//131
f 118//118 130//130 127//127
f 129//129 109//109 93//93
f 132//132 109//109 129//129
f 118//118 119//119 130//130
f 109//109 132//132 133//133
f 133//133 120//120 109//109
f 133//133 134//134 120//120
f 101//101 123//123 113//113
f 122//122 115//115 100//100
f 114//114 116//116 135//135
f 117//117 104//104 136//136
f 126//126 117//117 136//136
f 104//104 128//128 136//136
f 125//125 128//128 104//104
f 137//137 126//126 136//136
f 126//126 108//108 107//107
f 108//108 126//126 137//137
f 137//137 138//138 108//108
f 128//128 127//127 139//139
f 129//129 108//108 138//138
f 127//127 131//131 139//139
f 138//138 132//132 129//129
f 138//138 140//140 132//132
f 139//139 140//140 138//138
f 131//131 140//140 139//139
f 130//130 141//141 131//131
f 140//140 133//133 132//132
f 141//141 140//140 131//131
f 130//130 119//119 141//141
f 140//140 134//134 133//133
f 119//119 142//142 141//141
f 119//119 121//121 142//142
f 120//120 134//134 143//143
f 121//121 113//113 142//142
f 113//113 123//123 142//142
f 120//120 143//143 122//122
f 123//123 144//144 142//142
f 145//145 122//122 143//143
f 123//123 114//114 144//144
f 145//145 124//124 122//122
f 144//144 114//114 135//135
f 122//122 124//124 115//115
f 145//145 135//135 124//124
f 116//116 124//124 135//135
f 136//136 128//128 137//137
f 139//139 137//137 128//128
f 137//137 139//139 138//138
f 141//141 146//146 140//140
f 134//134 140//140 146//146
f 141//141 142//142 146//146
f 146//146 147//147 134//134
f 143//143 134//134 147//147
f 142//142 144//144 147//147
f 142//142 147//147 146//146
f 147//147 145//145 143//143
f 147//147 135//135 145//145
f 144//144 135//135 147//147
