# Blender v2.92.0 OBJ File: 'convert_to_one_sided.blend'
# www.blender.org
mtllib 64L.mtl
o Cube
v 0.001000 0.001000 -0.001000
v 0.001000 -0.001000 -0.001000
v 0.001000 0.001000 0.001000
v 0.001000 -0.001000 0.001000
v -0.001000 0.001000 -0.001000
v -0.001000 -0.001000 -0.001000
v -0.001000 0.001000 0.001000
v -0.001000 -0.001000 0.001000
vt 0.625000 0.500000
vt 0.875000 0.500000
vt 0.875000 0.750000
vt 0.625000 0.750000
vt 0.375000 0.750000
vt 0.625000 1.000000
vt 0.375000 1.000000
vt 0.375000 0.000000
vt 0.625000 0.000000
vt 0.625000 0.250000
vt 0.375000 0.250000
vt 0.125000 0.500000
vt 0.375000 0.500000
vt 0.125000 0.750000
vn 0.0000 1.0000 0.0000
vn 0.0000 0.0000 1.0000
vn -1.0000 0.0000 0.0000
vn 0.0000 -1.0000 0.0000
vn 1.0000 0.0000 0.0000
vn 0.0000 0.0000 -1.0000
usemtl Material
s off
f 1/1/1 5/2/1 7/3/1 3/4/1
f 4/5/2 3/4/2 7/6/2 8/7/2
f 8/8/3 7/9/3 5/10/3 6/11/3
f 6/12/4 2/13/4 4/5/4 8/14/4
f 2/13/5 1/1/5 3/4/5 4/5/5
f 6/11/6 5/10/6 1/1/6 2/13/6
o 64
v 6.182121 3.304297 4.687680
v 6.133201 3.263397 4.695790
v 6.134611 3.353256 4.691170
v 6.059752 3.329767 4.699280
v 6.068672 3.399046 4.702620
v 6.214990 3.249617 4.723390
v 6.175021 3.192038 4.740399
v 6.235120 3.331956 4.714620
v 6.078792 3.246938 4.734540
v 6.207130 3.382316 4.708540
v 5.999032 3.402526 4.718610
v 6.032732 3.445555 4.717770
v 6.135171 3.455785 4.729000
v 6.135121 3.196818 4.749829
v 6.283269 3.333317 4.763529
v 6.008333 3.335216 4.744199
v 6.258369 3.405655 4.741560
v 5.946633 3.483864 4.748250
v 6.227420 3.447965 4.740699
v 6.023522 3.539974 4.767749
v 6.180211 3.143679 4.798579
v 6.234740 3.169809 4.784809
v 6.280309 3.212568 4.798889
v 5.933874 3.435035 4.782059
v 6.263989 3.491084 4.781339
v 5.882924 3.548934 4.805019
v 6.211320 3.525784 4.785239
v 5.949944 3.546894 4.768779
v 6.102261 3.184618 4.810749
v 6.279189 3.153769 4.825958
v 6.019552 3.275007 4.809709
v 5.966493 3.348496 4.813108
v 6.287159 3.439955 4.784959
v 5.904304 3.577573 4.789799
v 5.927284 3.634963 4.805539
v 6.132251 3.617003 4.827298
v 5.970943 3.765261 4.874738
v 6.328709 3.269527 4.847698
v 6.225020 3.590243 4.839438
v 5.853714 3.669122 4.835268
v 5.881684 3.646042 4.815259
v 6.262000 3.132719 4.854418
v 6.145241 3.138899 4.854698
v 6.302469 3.175039 4.858868
v 6.314898 3.404236 4.827848
v 5.928493 3.390446 4.872128
v 5.872214 3.529514 4.871208
v 6.276149 3.526034 4.846478
v 5.869965 3.724091 4.845038
v 5.893644 3.787081 4.871648
v 6.203980 3.126249 4.888298
v 5.985983 3.297007 4.885978
v 6.336128 3.357346 4.879658
v 5.849775 3.634283 4.860828
v 5.842705 3.777601 4.873188
v 6.088252 3.178818 4.914437
v 6.044122 3.232778 4.878088
v 6.332438 3.188768 4.905627
v 6.310369 3.458475 4.878528
v 6.228340 3.646192 4.894777
v 6.169051 3.684362 4.888007
v 5.832205 3.758431 4.888968
v 6.060262 3.805710 4.927087
v 5.850454 3.840040 4.896897
v 6.143361 3.148679 4.920207
v 6.341108 3.264177 4.923987
v 5.895684 3.476225 4.944017
v 6.275660 3.556943 4.906317
v 5.838445 3.677092 4.896257
v 5.832825 3.840090 4.906257
v 5.872824 3.888979 4.925287
v 6.262829 3.122889 4.913908
v 6.238620 3.135369 4.950057
v 6.299329 3.152269 4.911367
v 6.153831 3.750621 4.942707
v 5.925203 3.927389 4.963927
v 5.825665 3.865180 4.926777
v 5.837305 3.895629 4.938787
v 6.180790 3.154088 4.962497
v 6.323459 3.188508 4.952167
v 6.024413 3.252078 4.941357
v 5.963113 3.348736 4.952147
v 6.314479 3.418035 4.924407
v 5.848505 3.679572 4.940157
v 6.260540 3.581163 4.950377
v 6.221710 3.654582 4.932637
v 5.831355 3.810500 4.932567
v 6.064502 3.861170 4.980696
v 6.279059 3.155479 4.956637
v 6.123211 3.174028 4.962377
v 6.337029 3.228998 4.961067
v 6.322499 3.314047 4.963446
v 5.939943 3.418105 4.991426
v 5.980333 3.934529 4.991676
v 5.836095 3.915349 4.961607
v 5.862454 3.941729 4.972826
v 6.075302 3.217048 4.978876
v 6.287869 3.459425 4.963477
v 6.181631 3.715401 4.977036
v 5.842655 3.863620 4.972706
v 6.092852 3.835690 4.998836
v 5.920874 3.979688 4.999126
v 5.896284 3.982038 5.001816
v 6.223800 3.183268 5.000086
v 6.292079 3.188358 4.985036
v 6.313559 3.246268 4.977827
v 6.022213 3.278377 4.984686
v 6.011013 3.331796 5.012306
v 5.916154 3.532334 4.998356
v 5.874915 3.638242 4.972617
v 6.234810 3.581993 4.985606
v 5.859525 3.780330 4.982466
v 6.111481 3.808090 5.012616
v 6.002303 3.934289 5.018445
v 5.866244 3.952898 4.989456
v 5.931203 3.975978 5.012786
v 6.134291 3.198198 4.995836
v 6.268709 3.414175 4.994346
v 6.185390 3.622483 5.017246
v 5.906584 3.754671 5.014396
v 6.156741 3.712562 5.007416
v 5.882284 3.909659 5.011336
v 6.055402 3.874320 5.022846
v 5.904684 3.974328 5.012886
v 6.259850 3.266287 5.003516
v 6.079562 3.253117 5.011506
v 6.190870 3.386776 5.023556
v 6.161421 3.293007 5.029186
v 5.964573 3.432865 5.014666
v 6.180231 3.508674 5.023396
v 6.124981 3.519874 5.036585
v 5.975773 3.512914 5.023516
v 5.968433 3.632282 5.025036
v 5.976783 3.777991 5.043625
v 5.948884 3.966688 5.029166
v 6.139181 3.238258 5.017426
v 6.077991 3.319287 5.026296
v 6.022573 3.438115 5.026316
v 6.106291 3.425385 5.030506
v 6.044592 3.595243 5.036665
v 6.110261 3.645022 5.036896
v 6.080252 3.796080 5.031256
v 5.923784 3.879709 5.035416
v 6.010802 3.905529 5.028625
v 5.924774 3.937209 5.028376
v 6.034382 3.751431 5.042116
v 5.984913 3.860919 5.032916
vn 0.2481 -0.0828 -0.9652
vn -0.1167 -0.3940 -0.9117
vn -0.0064 0.1380 -0.9904
vn -0.3764 -0.2008 -0.9044
vn -0.0948 0.1922 -0.9768
vn 0.4818 -0.3569 -0.8003
vn 0.0695 -0.6382 -0.7667
vn 0.5744 -0.0305 -0.8180
vn -0.5751 -0.5800 -0.5769
vn 0.2882 0.2537 -0.9234
vn -0.4998 -0.0869 -0.8617
vn -0.1056 0.3211 -0.9412
vn 0.1031 0.4318 -0.8960
vn -0.3628 -0.7097 -0.6039
vn 0.7871 -0.0619 -0.6137
vn -0.7233 -0.4399 -0.5323
vn 0.6105 0.2023 -0.7657
vn -0.4210 0.1301 -0.8977
vn 0.3096 0.4175 -0.8543
vn 0.0416 0.4314 -0.9012
vn -0.1257 -0.8894 -0.4394
vn 0.3758 -0.6350 -0.6749
vn 0.7281 -0.2916 -0.6204
vn -0.8287 -0.3350 -0.4484
vn 0.5887 0.4550 -0.6681
vn -0.8329 -0.1397 -0.5355
vn 0.2442 0.5428 -0.8036
vn -0.1018 0.3270 -0.9395
vn -0.6161 -0.7353 -0.2823
vn 0.6428 -0.5830 -0.4970
vn -0.7503 -0.6077 -0.2601
vn -0.8190 -0.5035 -0.2751
vn 0.8319 0.2325 -0.5038
vn -0.4001 0.2039 -0.8935
vn -0.0344 0.3761 -0.9259
vn 0.2166 0.5309 -0.8193
vn 0.1832 0.4825 -0.8565
vn 0.9171 -0.1171 -0.3810
vn 0.4759 0.5750 -0.6655
vn -0.7118 0.0977 -0.6956
vn -0.3024 0.2700 -0.9141
vn 0.3841 -0.8792 -0.2820
vn -0.4187 -0.9040 -0.0864
vn 0.8020 -0.4935 -0.3365
vn 0.9217 0.1754 -0.3459
vn -0.8912 -0.4494 -0.0626
vn -0.9550 -0.2914 -0.0561
vn 0.8440 0.4166 -0.3379
vn -0.2275 0.3385 -0.9130
vn 0.0576 0.4375 -0.8974
vn -0.1330 -0.9893 0.0600
vn -0.8094 -0.5856 -0.0445
vn 0.9884 0.1371 -0.0661
vn -0.9608 -0.1434 -0.2374
vn -0.6043 0.2508 -0.7562
vn -0.6347 -0.7658 0.1033
vn -0.7388 -0.6671 -0.0955
vn 0.9127 -0.3934 -0.1106
vn 0.9513 0.3000 -0.0708
vn 0.7442 0.5687 -0.3503
vn 0.4158 0.5992 -0.6842
vn -0.9594 0.0069 -0.2820
vn 0.3659 0.5767 -0.7304
vn -0.2380 0.4478 -0.8619
vn -0.3544 -0.9039 0.2396
vn 0.9967 -0.0138 0.0801
vn -0.8998 -0.3035 0.3135
vn 0.9184 0.3956 -0.0026
vn -0.9875 -0.1502 0.0486
vn -0.6857 0.3096 -0.6588
vn 0.0098 0.5743 -0.8186
vn 0.3063 -0.9381 0.1619
vn 0.0177 -0.8670 0.4980
vn 0.6810 -0.7317 0.0281
vn 0.6929 0.6441 -0.3240
vn 0.1436 0.5953 -0.7905
vn -0.9425 0.2052 -0.2638
vn -0.5062 0.5616 -0.6545
vn -0.2066 -0.8379 0.5052
vn 0.7840 -0.4684 0.4074
vn -0.7585 -0.6290 0.1702
vn -0.8254 -0.4889 0.2823
vn 0.9430 0.2291 0.2413
vn -0.9192 -0.1626 0.3585
vn 0.8823 0.3544 0.3097
vn 0.8515 0.5238 0.0247
vn -0.9760 -0.0603 0.2091
vn 0.6079 0.6777 -0.4137
vn 0.4265 -0.7357 0.5261
vn -0.4110 -0.7914 0.4526
vn 0.8578 -0.1085 0.5025
vn 0.8279 0.1492 0.5407
vn -0.7427 -0.3282 0.5836
vn 0.4751 0.7081 -0.5224
vn -0.9251 0.3788 0.0248
vn -0.3858 0.7394 -0.5518
vn -0.5563 -0.6620 0.5023
vn 0.8102 0.2109 0.5469
vn 0.8259 0.4817 0.2930
vn -0.8407 -0.0090 0.5414
vn 0.7708 0.6351 0.0503
vn 0.2463 0.8287 -0.5026
vn -0.2914 0.9388 -0.1837
vn 0.0751 -0.4960 0.8650
vn 0.4543 -0.3667 0.8118
vn 0.5660 -0.0650 0.8219
vn -0.6779 -0.5249 0.5147
vn -0.4969 -0.3201 0.8066
vn -0.6044 -0.1219 0.7873
vn -0.7726 -0.1470 0.6177
vn 0.7175 0.2597 0.6463
vn -0.7252 -0.0986 0.6814
vn 0.6931 0.4122 0.5914
vn 0.6285 0.7549 0.1874
vn -0.7817 0.4808 0.3972
vn 0.2825 0.9488 0.1411
vn -0.2574 -0.6149 0.7454
vn 0.5269 0.0936 0.8447
vn 0.4617 0.1482 0.8746
vn -0.4940 -0.0911 0.8647
vn 0.6344 0.2797 0.7206
vn -0.5838 0.0605 0.8096
vn 0.5879 0.4826 0.6492
vn -0.3776 0.5618 0.7360
vn 0.3147 -0.0529 0.9477
vn -0.3588 -0.4298 0.8285
vn 0.2203 0.0043 0.9754
vn 0.0803 -0.0979 0.9920
vn -0.4071 -0.1455 0.9017
vn 0.2875 0.0316 0.9573
vn 0.0954 -0.0166 0.9953
vn -0.2643 -0.0472 0.9633
vn -0.2931 -0.0706 0.9535
vn -0.1307 -0.0206 0.9912
vn 0.1351 0.4986 0.8563
vn -0.1053 -0.3153 0.9431
vn -0.1426 -0.1348 0.9806
vn -0.1486 -0.0764 0.9859
vn -0.0094 -0.0355 0.9993
vn -0.0718 -0.0449 0.9964
vn 0.1645 0.0333 0.9858
vn 0.3107 0.1667 0.9358
vn -0.2456 0.0370 0.9687
vn 0.2959 0.2945 0.9087
vn -0.2270 0.1503 0.9622
vn 0.0766 0.0505 0.9958
vn 0.0616 0.0995 0.9931
usemtl mtl1.596
s 1
f 9//7 10//8 11//9
f 10//8 12//10 11//9
f 11//9 12//10 13//11
f 14//12 15//13 10//8
f 9//7 14//12 10//8
f 16//14 14//12 9//7
f 10//8 17//15 12//10
f 18//16 16//14 9//7
f 19//17 13//11 12//10
f 11//9 18//16 9//7
f 19//17 20//18 13//11
f 11//9 13//11 21//19
f 18//16 11//9 21//19
f 21//19 13//11 20//18
f 22//20 17//15 10//8
f 22//20 10//8 15//13
f 14//12 16//14 23//21
f 24//22 12//10 17//15
f 24//22 19//17 12//10
f 18//16 25//23 16//14
f 20//18 19//17 26//24
f 18//16 21//19 27//25
f 27//25 25//23 18//16
f 20//18 26//24 28//26
f 22//20 15//13 29//27
f 30//28 14//12 31//29
f 15//13 14//12 30//28
f 14//12 23//21 31//29
f 16//14 25//23 23//21
f 19//17 24//22 32//30
f 19//17 32//30 26//24
f 25//23 27//25 33//31
f 26//24 32//30 34//32
f 35//33 33//31 27//25
f 20//18 28//26 21//19
f 26//24 36//34 28//26
f 35//33 27//25 21//19
f 37//35 22//20 29//27
f 30//28 29//27 15//13
f 30//28 31//29 38//36
f 37//35 39//37 17//15
f 22//20 37//35 17//15
f 39//37 24//22 17//15
f 32//30 24//22 40//38
f 23//21 25//23 41//39
f 41//39 25//23 33//31
f 42//40 26//24 34//32
f 36//34 26//24 42//40
f 28//26 36//34 43//41
f 43//41 36//34 42//40
f 44//42 21//19 28//26
f 45//43 28//26 43//41
f 23//21 46//44 31//29
f 24//22 39//37 40//38
f 35//33 47//45 33//31
f 48//46 42//40 34//32
f 45//43 44//42 28//26
f 44//42 35//33 21//19
f 49//47 42//40 48//46
f 42//40 49//47 43//41
f 30//28 38//36 50//48
f 30//28 50//48 29//27
f 51//49 37//35 29//27
f 52//50 31//29 46//44
f 46//44 23//21 53//51
f 23//21 41//39 53//51
f 32//30 54//52 55//53
f 32//30 40//38 54//52
f 32//30 55//53 34//32
f 41//39 33//31 56//54
f 41//39 56//54 53//51
f 35//33 44//42 47//45
f 49//47 48//46 57//55
f 45//43 43//41 58//56
f 57//55 58//56 43//41
f 57//55 43//41 49//47
f 59//57 29//27 50//48
f 59//57 51//49 29//27
f 31//29 52//50 38//36
f 39//37 60//58 40//38
f 40//38 60//58 54//52
f 46//44 53//51 61//59
f 34//32 55//53 62//60
f 33//31 47//45 56//54
f 48//46 34//32 62//60
f 63//61 57//55 48//46
f 38//36 52//50 50//48
f 51//49 64//62 37//35
f 39//37 37//35 65//63
f 39//37 65//63 60//58
f 52//50 46//44 66//64
f 67//65 53//51 56//54
f 47//45 68//66 56//54
f 44//42 69//67 47//45
f 70//68 48//46 62//60
f 71//69 69//67 44//42
f 63//61 48//46 70//68
f 57//55 63//61 72//70
f 57//55 72//70 58//56
f 73//71 51//49 59//57
f 73//71 64//62 51//49
f 64//62 65//63 37//35
f 66//64 46//44 74//72
f 74//72 46//44 61//59
f 53//51 67//65 61//59
f 75//73 55//53 54//52
f 76//74 67//65 56//54
f 62//60 55//53 77//75
f 56//54 68//66 76//74
f 69//67 68//66 47//45
f 45//43 71//69 44//42
f 78//76 63//61 70//68
f 63//61 78//76 72//70
f 72//70 79//77 58//56
f 45//43 58//56 79//77
f 59//57 80//78 81//79
f 50//48 80//78 59//57
f 50//48 82//80 80//78
f 82//80 50//48 52//50
f 62//60 77//75 70//68
f 83//81 69//67 71//69
f 79//77 84//82 45//43
f 45//43 84//82 71//69
f 85//83 78//76 70//68
f 78//76 85//83 86//84
f 86//84 72//70 78//76
f 59//57 87//85 73//71
f 81//79 87//85 59//57
f 82//80 52//50 66//64
f 88//86 82//80 66//64
f 60//58 65//63 89//87
f 90//88 54//52 60//58
f 75//73 54//52 90//88
f 74//72 61//59 91//89
f 61//59 67//65 91//89
f 77//75 55//53 92//90
f 55//53 75//73 92//90
f 67//65 76//74 91//89
f 93//91 91//89 76//74
f 68//66 94//92 76//74
f 77//75 95//93 70//68
f 68//66 69//67 83//81
f 83//81 71//69 96//94
f 70//68 95//93 85//83
f 86//84 79//77 72//70
f 80//78 82//80 97//95
f 87//85 98//96 73//71
f 98//96 64//62 73//71
f 66//64 74//72 88//86
f 88//86 74//72 99//97
f 64//62 89//87 65//63
f 90//88 60//58 89//87
f 99//97 74//72 100//98
f 100//98 74//72 91//89
f 101//99 75//73 90//88
f 94//92 93//91 76//74
f 77//75 92//90 95//93
f 68//66 83//81 94//92
f 102//100 96//94 71//69
f 84//82 102//100 71//69
f 95//93 103//101 85//83
f 86//84 85//83 103//101
f 86//84 103//101 104//102
f 79//77 86//84 104//102
f 80//78 97//95 81//79
f 105//103 64//62 98//96
f 105//103 89//87 64//62
f 91//89 93//91 106//104
f 93//91 94//92 107//105
f 92//90 108//106 95//93
f 107//105 94//92 83//81
f 83//81 109//107 107//105
f 96//94 109//107 83//81
f 95//93 108//106 103//101
f 104//102 84//82 79//77
f 102//100 84//82 110//108
f 84//82 104//102 111//109
f 112//110 87//85 81//79
f 97//95 112//110 81//79
f 82//80 88//86 97//95
f 88//86 113//111 97//95
f 99//97 114//112 88//86
f 89//87 115//113 90//88
f 100//98 114//112 99//97
f 90//88 116//114 101//99
f 100//98 91//89 106//104
f 75//73 117//115 118//116
f 75//73 118//116 92//90
f 106//104 93//91 119//117
f 118//116 120//118 92//90
f 93//91 107//105 119//117
f 92//90 120//118 108//106
f 121//119 107//105 109//107
f 96//94 122//120 109//107
f 102//100 122//120 96//94
f 123//121 104//102 103//101
f 102//100 110//108 124//122
f 104//102 123//121 111//109
f 111//109 110//108 84//82
f 125//123 98//96 87//85
f 97//95 113//111 112//110
f 113//111 88//86 114//112
f 89//87 105//103 115//113
f 100//98 126//124 114//112
f 90//88 115//113 116//114
f 100//98 106//104 126//124
f 101//99 117//115 75//73
f 126//124 106//104 119//117
f 127//125 126//124 119//117
f 117//115 128//126 118//116
f 118//116 128//126 120//118
f 119//117 129//127 127//125
f 107//105 129//127 119//117
f 107//105 121//119 129//127
f 130//128 120//118 128//126
f 120//118 130//128 108//106
f 109//107 122//120 131//129
f 103//101 108//106 123//121
f 102//100 124//122 122//120
f 111//109 123//121 132//130
f 110//108 111//109 124//122
f 111//109 132//130 124//122
f 125//123 87//85 112//110
f 98//96 125//123 105//103
f 112//110 113//111 133//131
f 105//103 125//123 134//132
f 113//111 114//112 133//131
f 105//103 134//132 115//113
f 114//112 126//124 133//131
f 133//131 135//133 136//134
f 133//131 126//124 135//133
f 116//114 137//135 101//99
f 135//133 138//136 139//137
f 126//124 138//136 135//133
f 137//135 117//115 101//99
f 140//138 117//115 137//135
f 126//124 127//125 138//136
f 117//115 140//138 141//139
f 141//139 128//126 117//115
f 141//139 142//140 128//126
f 109//107 131//129 121//119
f 130//128 123//121 108//106
f 122//120 124//122 143//141
f 125//123 112//110 144//142
f 134//132 125//123 144//142
f 112//110 136//134 144//142
f 133//131 136//134 112//110
f 145//143 134//132 144//142
f 134//132 116//114 115//113
f 116//114 134//132 145//143
f 145//143 146//144 116//114
f 136//134 135//133 147//145
f 137//135 116//114 146//144
f 135//133 139//137 147//145
f 146//144 140//138 137//135
f 146//144 148//146 140//138
f 147//145 148//146 146//144
f 139//137 148//146 147//145
f 138//136 149//147 139//137
f 148//146 141//139 140//138
f 149//147 148//146 139//137
f 138//136 127//125 149//147
f 148//146 142//140 141//139
f 127//125 150//148 149//147
f 127//125 129//127 150//148
f 128//126 142//140 151//149
f 129//127 121//119 150//148
f 121//119 131//129 150//148
f 128//126 151//149 130//128
f 131//129 152//150 150//148
f 153//151 130//128 151//149
f 131//129 122//120 152//150
f 153//151 132//130 130//128
f 152//150 122//120 143//141
f 130//128 132//130 123//121
f 153//151 143//141 132//130
f 124//122 132//130 143//141
f 144//142 136//134 145//143
f 147//145 145//143 136//134
f 145//143 147//145 146//144
f 149//147 154//152 148//146
f 142//140 148//146 154//152
f 149//147 150//148 154//152
f 154//152 155//153 142//140
f 151//149 142//140 155//153
f 150//148 152//150 155//153
f 150//148 155//153 154//152
f 155//153 153//151 151//149
f 155//153 143//141 153//151
f 152//150 143//141 155//153
