# Blender v2.92.0 OBJ File: 'convert_to_one_sided.blend'
# www.blender.org
mtllib 653L.mtl
o Cube
v 0.001000 0.001000 -0.001000
v 0.001000 -0.001000 -0.001000
v 0.001000 0.001000 0.001000
v 0.001000 -0.001000 0.001000
v -0.001000 0.001000 -0.001000
v -0.001000 -0.001000 -0.001000
v -0.001000 0.001000 0.001000
v -0.001000 -0.001000 0.001000
vt 0.625000 0.500000
vt 0.875000 0.500000
vt 0.875000 0.750000
vt 0.625000 0.750000
vt 0.375000 0.750000
vt 0.625000 1.000000
vt 0.375000 1.000000
vt 0.375000 0.000000
vt 0.625000 0.000000
vt 0.625000 0.250000
vt 0.375000 0.250000
vt 0.125000 0.500000
vt 0.375000 0.500000
vt 0.125000 0.750000
vn 0.0000 1.0000 0.0000
vn 0.0000 0.0000 1.0000
vn -1.0000 0.0000 0.0000
vn 0.0000 -1.0000 0.0000
vn 1.0000 0.0000 0.0000
vn 0.0000 0.0000 -1.0000
usemtl Material
s off
f 1/1/1 5/2/1 7/3/1 3/4/1
f 4/5/2 3/4/2 7/6/2 8/7/2
f 8/8/3 7/9/3 5/10/3 6/11/3
f 6/12/4 2/13/4 4/5/4 8/14/4
f 2/13/5 1/1/5 3/4/5 4/5/5
f 6/11/6 5/10/6 1/1/6 2/13/6
o 653
v 10.731062 5.180072 5.184764
v 10.712461 5.228202 5.171074
v 10.787062 5.240172 5.166975
v 10.817660 5.186673 5.224123
v 10.856360 5.244961 5.206164
v 10.771661 5.285231 5.193054
v 10.835061 5.277141 5.210804
v 10.873860 5.265572 5.231254
v 10.684263 5.177892 5.213164
v 10.714763 5.271281 5.213904
v 10.762961 5.141173 5.259413
v 10.677662 5.220412 5.242983
v 10.886760 5.246282 5.262723
v 10.870660 5.200772 5.292663
v 10.813261 5.305351 5.250164
v 10.697662 5.140973 5.281433
v 10.667663 5.171143 5.285643
v 10.708762 5.281061 5.270193
v 10.757262 5.296331 5.265583
v 10.856360 5.271981 5.283173
v 10.766562 5.120173 5.337012
v 10.825261 5.154973 5.316183
v 10.658663 5.188892 5.321482
v 10.686462 5.236732 5.323782
v 10.870060 5.224492 5.331602
v 10.739861 5.277201 5.328552
v 10.673563 5.153623 5.346832
v 10.726662 5.127253 5.365452
v 10.838861 5.168222 5.360842
v 10.804561 5.284381 5.313373
v 10.837461 5.248441 5.348232
v 10.787861 5.130073 5.364012
v 10.763361 5.124483 5.373042
v 10.679063 5.191592 5.359482
v 10.725562 5.219972 5.378122
v 10.790361 5.237862 5.369212
v 10.774061 5.145483 5.390192
v 10.730062 5.172702 5.385282
v 10.804861 5.198642 5.380332
v 10.760061 5.198392 5.390431
v 10.767061 5.178362 5.385492
vn -0.0491 -0.6838 -0.7281
vn -0.5391 0.1930 -0.8198
vn 0.2676 0.0121 -0.9635
vn 0.4985 -0.6813 -0.5361
vn 0.7259 -0.1488 -0.6715
vn -0.0887 0.8025 -0.5900
vn 0.4538 0.7014 -0.5496
vn 0.7447 0.5800 -0.3302
vn -0.7609 -0.4150 -0.4988
vn -0.5781 0.7366 -0.3510
vn 0.2001 -0.9056 -0.3741
vn -0.9303 0.2932 -0.2204
vn 0.9927 0.1122 -0.0441
vn 0.8371 -0.5352 -0.1132
vn 0.2318 0.9717 -0.0443
vn -0.3989 -0.8905 -0.2189
vn -0.9110 -0.3762 -0.1689
vn -0.6323 0.7733 0.0462
vn -0.2090 0.9775 0.0297
vn 0.6036 0.7677 0.2152
vn 0.1236 -0.9908 -0.0554
vn 0.5644 -0.8140 -0.1373
vn -0.9841 0.1052 0.1434
vn -0.7440 0.5755 0.3394
vn 0.8378 0.1509 0.5248
vn -0.2614 0.8270 0.4977
vn -0.7700 -0.5004 0.3959
vn -0.3419 -0.7996 0.4937
vn 0.7182 -0.4707 0.5125
vn 0.1596 0.8773 0.4526
vn 0.4535 0.5752 0.6809
vn 0.4719 -0.8244 0.3125
vn 0.0948 -0.8781 0.4690
vn -0.7011 0.1729 0.6918
vn -0.3394 0.4518 0.8251
vn 0.1033 0.5741 0.8122
vn 0.1418 -0.3542 0.9244
vn -0.3033 -0.1318 0.9438
vn 0.3608 0.1171 0.9252
vn 0.0285 0.1279 0.9914
vn 0.0695 -0.0391 0.9968
usemtl mtl1.604
s 1
f 9//7 10//8 11//9
f 12//10 9//7 11//9
f 11//9 13//11 12//10
f 10//8 14//12 11//9
f 14//12 15//13 11//9
f 13//11 11//9 15//13
f 15//13 16//14 13//11
f 9//7 17//15 10//8
f 10//8 18//16 14//12
f 9//7 12//10 19//17
f 20//18 10//8 17//15
f 10//8 20//18 18//16
f 21//19 22//20 13//11
f 16//14 21//19 13//11
f 15//13 14//12 23//21
f 17//15 24//22 25//23
f 9//7 24//22 17//15
f 12//10 13//11 22//20
f 18//16 20//18 26//24
f 14//12 18//16 27//25
f 23//21 14//12 27//25
f 9//7 19//17 24//22
f 17//15 25//23 20//18
f 21//19 16//14 28//26
f 15//13 28//26 16//14
f 27//25 18//16 26//24
f 28//26 15//13 23//21
f 19//17 29//27 24//22
f 12//10 30//28 19//17
f 12//10 22//20 30//28
f 25//23 31//29 20//18
f 31//29 32//30 20//18
f 22//20 21//19 33//31
f 32//30 26//24 20//18
f 34//32 27//25 26//24
f 19//17 30//28 29//27
f 24//22 35//33 25//23
f 33//31 21//19 28//26
f 29//27 36//34 24//22
f 25//23 35//33 31//29
f 37//35 30//28 22//20
f 34//32 26//24 32//30
f 38//36 39//37 28//26
f 27//25 34//32 38//36
f 23//21 27//25 38//36
f 28//26 23//21 38//36
f 29//27 40//38 41//39
f 29//27 30//28 40//38
f 36//34 35//33 24//22
f 22//20 33//31 37//35
f 31//29 42//40 32//30
f 28//26 39//37 33//31
f 32//30 43//41 34//32
f 29//27 41//39 36//34
f 35//33 42//40 31//29
f 40//38 30//28 37//35
f 42//40 43//41 32//30
f 34//32 44//42 38//36
f 39//37 38//36 44//42
f 41//39 45//43 36//34
f 41//39 40//38 45//43
f 36//34 46//44 35//33
f 37//35 33//31 47//45
f 47//45 33//31 39//37
f 47//45 39//37 44//42
f 34//32 43//41 44//42
f 46//44 36//34 45//43
f 40//38 37//35 45//43
f 47//45 45//43 37//35
f 35//33 46//44 42//40
f 43//41 42//40 46//44
f 46//44 48//46 43//41
f 44//42 43//41 48//46
f 47//45 44//42 48//46
f 45//43 49//47 46//44
f 47//45 49//47 45//43
f 49//47 48//46 46//44
f 47//45 48//46 49//47
