# wavefront obj file written by the visualization toolkit


v 8561.25 5437.68 4919.46
v 8515.44 5448.05 4929.8
v 8508.8 5469.24 4934.98
v 8546.21 5470.01 4941.66
v 8575.97 5464.66 4993.24
v 8574.47 5440.87 5012.75
v 8483.47 5469.74 4948.41
v 8516.87 5437.65 5034.54
v 8443.79 5483.79 5003.01
v 8445.92 5509.26 4975.92
v 8482.55 5514.45 4979.09
v 8517.61 5514.21 5017.64
v 8411.88 5550.59 5003.46
v 8563.83 5433.85 5080.39
v 8367.67 5553.43 5010.69
v 8422.27 5563.88 5027.46
v 8243.72 5641.89 5005.58
v 8172.5 5683.75 5010.86
v 8185.7 5689.76 5006.87
v 8222.26 5677.03 5019.65
v 8163.38 5699.36 5041
v 8332.56 5524.24 5063.34
v 8242.54 5611.52 5028.67
v 8173.74 5651.17 5048.22
v 8329.25 5601.54 5023.27
v 8159.94 5679.82 5057.14
v 8388.71 5454.62 5140.02
v 8567.36 5444.93 5104.07
v 8573.6 5465.39 5065.65
v 8541.85 5497.66 5062.82
v 8227.59 5573.51 5107.88
v 8301.99 5632.95 5070.04
v 8207.93 5679.69 5073.05
v 8463.05 5434.48 5156.76
v 8532.83 5441.16 5110.59
v 8443.74 5550.72 5077.12
v 8180.62 5623.57 5132.28
v 8167.43 5667.86 5110.84
v 8184.85 5673.3 5112.2
v 8299.08 5497.49 5152.89
v 8246.05 5634.19 5135.99
v 8408.1 5434.85 5179.43
v 8468.3 5498.88 5139.58
v 8353.74 5573.48 5127.6
v 8183.67 5619.77 5181.52
v 8249.32 5525.53 5195.85
v 8499.22 5457.58 5147.12
v 8321.9 5467.87 5199.13
v 8290.63 5569.96 5195.8
v 8207.64 5581.14 5202.04
v 8208.77 5621.96 5173.19
v 8388.25 5448.23 5196.62
v 8457.96 5469.9 5179.4
v 8430.46 5457.46 5189.72
v 8382.55 5490.07 5201.67
v 8225.17 5576.61 5210.91
v 8240.2 5588.07 5194.14
v 8303.22 5487.66 5221.52
v 8353.71 5476.7 5211.79
v 8251.88 5537.47 5214.38
v 8298.95 5520.67 5208.15
v 8276.71 5485 6154.38
v 8328.44 5475.03 6150.3
v 8366.1 5455.8 6181.74
v 8408.36 5457.8 6176.46
v 8385.66 5469.2 6165.69
v 8255.45 5523.6 6151.04
v 8224.98 5548.59 6173.5
v 8210.92 5578.13 6171.68
v 8391.51 5505.11 6185.32
v 8253.16 5578.44 6184.06
v 8190.19 5624.94 6213.29
v 8317.99 5483.4 6206.22
v 8346.49 5576.49 6222.85
v 8180.93 5611.83 6239.24
v 8479.04 5437.75 6254.25
v 8485.2 5458.03 6216.36
v 8272.18 5539.52 6264.69
v 8157.22 5661.75 6267.99
v 8239.77 5633.54 6237.85
v 8395.64 5474.77 6306.02
v 8550.33 5434.63 6314.01
v 8563.3 5452.17 6292.12
v 8522.89 5472.85 6245.37
v 8463.23 5529.97 6261.92
v 8173.33 5669.29 6270.19
v 8538.77 5425.02 6374
v 8558.5 5471.68 6331.16
v 8341.34 5608.41 6278.47
v 8217.76 5676.6 6322.44
v 8173.02 5648.53 6335.62
v 8455.88 5557.61 6326.45
v 8149.39 5679.41 6309.13
v 8154.46 5695.58 6326.17
v 8531.81 5504.54 6351.65
v 8345.58 5611.96 6332.77
v 8492.24 5447.08 6391.74
v 8571.52 5448.89 6370.6
v 8357.5 5526.32 6361.58
v 8562.54 5464.87 6410.58
v 8256.89 5591.21 6355.37
v 8272.27 5653.34 6365.11
v 8146.89 5714.49 6356.09
v 8505.39 5511.34 6398.46
v 8149.39 5707.86 6352.34
v 8424.82 5482.72 6377.47
v 8197.42 5646.73 6377.29
v 8385.37 5582 6373.87
v 8194.3 5685.63 6365.85
v 8543.08 5443.25 6404.01
v 8306.88 5576.86 6372.16
v 8265.54 5618.44 6378.58
v 8267.77 5634.52 6380.84
v 8186.26 5667.91 6370.45
v 8453.93 5494.99 6415.02
v 8518.25 5485.63 6439.25
v 8360.93 5565.69 6384.79
v 8453.13 5516.94 6411.73
v 8222.56 5646.38 6381.31
v 8216.49 5656.77 6374.49
v 8505.93 5464.8 6433.97
v 8499.36 5481.05 6437.48
v 8524.26 5471.04 6423.42
vn 0.517222 -0.352163 -0.78004
vn -0.486671 -0.617327 -0.61811
vn -0.175539 0.35436 -0.918485
vn 0.429 0.710273 -0.558095
vn 0.87215 0.463866 -0.155509
vn 0.811427 -0.583875 -0.0260129
vn -0.656885 -0.226963 -0.71902
vn -0.131979 -0.986892 -0.092879
vn -0.593584 -0.667058 -0.450213
vn -0.419304 0.174929 -0.890834
vn 0.166426 0.760292 -0.6279
vn 0.501286 0.850067 -0.16155
vn 0.0398882 0.569719 -0.820871
vn 0.299098 -0.941894 0.152894
vn -0.302134 -0.191308 -0.933872
vn 0.388806 0.863842 -0.320324
vn 0.0740199 0.0832154 -0.993779
vn -0.693438 -0.127754 -0.709099
vn -0.00467527 0.649121 -0.760671
vn 0.439658 0.839312 -0.319776
vn -0.370436 0.928767 -0.0129985
vn -0.491402 -0.712746 -0.500516
vn -0.449106 -0.625013 -0.638485
vn -0.762097 -0.564543 -0.317016
vn 0.338224 0.640515 -0.689453
vn -0.997631 -0.0371034 -0.057924
vn -0.386055 -0.888344 -0.24861
vn 0.779882 -0.258601 0.570008
vn 0.879445 0.387538 0.27639
vn 0.606357 0.767109 0.209464
vn -0.635327 -0.706863 -0.310973
vn 0.481827 0.87153 0.090983
vn 0.352802 0.910418 0.216031
vn 0.203421 -0.900759 0.383735
vn 0.231749 -0.876885 0.421147
vn 0.479843 0.844439 0.238062
vn -0.906527 -0.421681 0.019858
vn -0.732624 0.513305 0.446968
vn 0.0378424 0.873311 0.485692
vn -0.535777 -0.785857 -0.308822
vn 0.393013 0.799923 0.453502
vn -0.245363 -0.96545 0.0877729
vn 0.517436 0.639908 0.568135
vn 0.455666 0.774552 0.438677
vn -0.664259 0.290807 0.688616
vn -0.710753 -0.691851 0.127171
vn 0.570089 -0.204958 0.795607
vn -0.45682 -0.886879 0.0690069
vn 0.328895 0.612751 0.718585
vn -0.748257 -0.340643 0.569275
vn 0.0964705 0.729051 0.677627
vn -0.0802455 -0.789514 0.608463
vn 0.510728 0.274577 0.814718
vn 0.352252 -0.281299 0.892631
vn 0.310417 0.342842 0.886623
vn -0.0125811 0.369056 0.929322
vn 0.213129 0.652698 0.727022
vn -0.22837 -0.42166 0.877525
vn 0.187919 -0.0315307 0.981678
vn -0.337055 -0.205205 0.91885
vn 0.169756 0.248795 0.953564
vn -0.546092 -0.803779 -0.236056
vn 0.0518048 -0.340757 -0.938723
vn -0.213795 -0.970097 -0.114902
vn 0.201483 -0.710767 -0.673955
vn 0.361491 0.0493884 -0.931067
vn -0.199326 0.045955 -0.978855
vn -0.808373 -0.539091 -0.236461
vn -0.598488 0.132207 -0.790148
vn 0.368664 0.475114 -0.79897
vn 0.207506 0.604232 -0.769314
vn -0.351875 0.566788 -0.74494
vn -0.45313 -0.845264 0.283199
vn 0.385115 0.715594 -0.582763
vn -0.906014 -0.401462 -0.13404
vn -0.0408221 -0.988478 -0.145754
vn 0.518431 -0.363332 -0.774092
vn -0.589768 -0.746556 0.307942
vn -0.783813 0.370421 -0.498424
vn 0.268656 0.806986 -0.525925
vn -0.450919 -0.852313 0.265017
vn 0.522826 -0.835432 -0.169431
vn 0.891173 -0.16455 -0.422769
vn 0.654815 0.453023 -0.60497
vn 0.544552 0.736173 -0.401886
vn -0.0275975 0.858065 -0.512799
vn 0.120101 -0.975358 0.185072
vn 0.812086 0.56337 -0.152088
vn 0.432139 0.856123 -0.28339
vn 0.353866 0.918094 -0.178556
vn -0.758121 -0.547399 0.354411
vn 0.505599 0.862763 0.00310451
vn -0.99636 -0.045013 -0.0723886
vn -0.507783 0.759479 -0.406629
vn 0.657179 0.753596 -0.0144495
vn 0.46808 0.883338 0.0247947
vn -0.371535 -0.845353 0.383848
vn 0.931708 -0.349465 0.0989718
vn -0.49858 -0.635692 0.589333
vn 0.819834 0.201168 0.5361
vn -0.475516 -0.670102 0.569954
vn 0.409578 0.836415 0.364219
vn -0.198926 0.96424 0.175128
vn 0.446337 0.801366 0.398241
vn -0.852131 0.131618 0.506507
vn -0.522528 -0.716165 0.46268
vn -0.463097 -0.378683 0.801336
vn 0.33849 0.722214 0.603185
vn 0.10544 0.591675 0.799252
vn 0.40486 -0.727529 0.553886
vn -0.339769 -0.486899 0.804665
vn -0.201998 -0.328306 0.92272
vn 0.12647 0.32807 0.936149
vn -0.388941 0.11104 0.914546
vn -0.48946 -0.372439 0.788491
vn 0.295201 0.254035 0.921044
vn -0.190518 -0.0612603 0.97977
vn -0.0733343 0.462358 0.883655
vn -0.0584993 0.14876 0.987142
vn 0.0163238 0.400074 0.916338
vn -0.070498 -0.557598 0.827112
vn -0.108627 -0.111316 0.98783
vn 0.358223 -0.366585 0.858657

g grp1
usemtl mtl1
f 1//1 2//2 3//3 
f 1//1 3//3 4//4 
f 1//1 4//4 5//5 
f 1//1 5//5 6//6 
f 7//7 3//3 2//2 
f 1//1 6//6 8//8 
f 1//1 8//8 2//2 
f 2//2 9//9 7//7 
f 7//7 10//10 3//3 
f 10//10 11//11 3//3 
f 4//4 3//3 11//11 
f 9//9 2//2 8//8 
f 11//11 12//12 4//4 
f 11//11 10//10 13//13 
f 8//8 6//6 14//14 
f 10//10 9//9 15//15 
f 10//10 7//7 9//9 
f 12//12 5//5 4//4 
f 10//10 15//15 13//13 
f 11//11 13//13 16//16 
f 17//17 18//18 19//19 
f 20//20 17//17 19//19 
f 21//21 19//19 18//18 
f 20//20 19//19 21//21 
f 15//15 22//22 23//23 
f 9//9 22//22 15//15 
f 12//12 11//11 16//16 
f 15//15 23//23 17//17 
f 18//18 23//23 24//24 
f 25//25 15//15 17//17 
f 25//25 13//13 15//15 
f 17//17 23//23 18//18 
f 20//20 25//25 17//17 
f 18//18 24//24 26//26 
f 18//18 26//26 21//21 
f 9//9 27//27 22//22 
f 27//27 9//9 8//8 
f 6//6 28//28 14//14 
f 29//29 6//6 5//5 
f 5//5 30//30 29//29 
f 30//30 5//5 12//12 
f 24//24 23//23 31//31 
f 13//13 25//25 16//16 
f 32//32 25//25 20//20 
f 21//21 33//33 20//20 
f 27//27 8//8 34//34 
f 14//14 28//28 35//35 
f 23//23 22//22 31//31 
f 36//36 30//30 12//12 
f 12//12 16//16 36//36 
f 16//16 25//25 32//32 
f 24//24 37//37 26//26 
f 33//33 32//32 20//20 
f 26//26 38//38 21//21 
f 33//33 21//21 39//39 
f 21//21 38//38 39//39 
f 8//8 35//35 34//34 
f 31//31 22//22 40//40 
f 36//36 16//16 32//32 
f 14//14 35//35 8//8 
f 6//6 29//29 28//28 
f 40//40 22//22 27//27 
f 37//37 24//24 31//31 
f 38//38 26//26 37//37 
f 33//33 41//41 32//32 
f 34//34 42//42 27//27 
f 30//30 43//43 29//29 
f 36//36 44//44 43//43 
f 30//30 36//36 43//43 
f 37//37 45//45 38//38 
f 28//28 29//29 43//43 
f 31//31 46//46 37//37 
f 44//44 36//36 32//32 
f 32//32 41//41 44//44 
f 33//33 39//39 41//41 
f 35//35 28//28 47//47 
f 40//40 27//27 48//48 
f 40//40 46//46 31//31 
f 43//43 44//44 49//49 
f 37//37 50//50 45//45 
f 51//51 39//39 38//38 
f 51//51 38//38 45//45 
f 41//41 39//39 51//51 
f 27//27 52//52 48//48 
f 52//52 27//27 42//42 
f 52//52 42//42 34//34 
f 35//35 47//47 34//34 
f 28//28 43//43 47//47 
f 47//47 43//43 53//53 
f 37//37 46//46 50//50 
f 44//44 41//41 49//49 
f 34//34 47//47 54//54 
f 40//40 48//48 46//46 
f 53//53 55//55 54//54 
f 47//47 53//53 54//54 
f 43//43 49//49 55//55 
f 43//43 55//55 53//53 
f 45//45 50//50 56//56 
f 51//51 45//45 56//56 
f 49//49 51//51 57//57 
f 49//49 41//41 51//51 
f 58//58 48//48 52//52 
f 54//54 59//59 52//52 
f 34//34 54//54 52//52 
f 48//48 58//58 46//46 
f 54//54 55//55 59//59 
f 46//46 60//60 50//50 
f 57//57 51//51 56//56 
f 61//61 59//59 55//55 
f 60//60 46//46 58//58 
f 55//55 49//49 61//61 
f 50//50 60//60 56//56 
f 49//49 56//56 61//61 
f 49//49 57//57 56//56 
f 58//58 52//52 59//59 
f 58//58 59//59 61//61 
f 60//60 58//58 61//61 
f 60//60 61//61 56//56 
f 62//62 63//63 64//64 
f 63//63 65//65 64//64 
f 65//65 63//63 66//66 
f 63//63 62//62 67//67 
f 67//67 62//62 68//68 
f 68//68 69//69 67//67 
f 63//63 67//67 70//70 
f 70//70 66//66 63//63 
f 70//70 67//67 71//71 
f 67//67 69//69 71//71 
f 71//71 69//69 72//72 
f 62//62 64//64 73//73 
f 71//71 74//74 70//70 
f 69//69 75//75 72//72 
f 65//65 76//76 64//64 
f 65//65 77//77 76//76 
f 62//62 73//73 78//78 
f 68//68 62//62 78//78 
f 66//66 77//77 65//65 
f 70//70 77//77 66//66 
f 68//68 75//75 69//69 
f 72//72 75//75 79//79 
f 80//80 71//71 72//72 
f 64//64 81//81 73//73 
f 82//82 77//77 83//83 
f 83//83 77//77 84//84 
f 70//70 84//84 77//77 
f 70//70 74//74 85//85 
f 84//84 70//70 85//85 
f 68//68 78//78 75//75 
f 71//71 80//80 74//74 
f 86//86 80//80 72//72 
f 76//76 82//82 87//87 
f 64//64 76//76 81//81 
f 82//82 76//76 77//77 
f 84//84 88//88 83//83 
f 74//74 89//89 85//85 
f 86//86 72//72 79//79 
f 74//74 80//80 89//89 
f 80//80 86//86 90//90 
f 73//73 81//81 78//78 
f 88//88 84//84 85//85 
f 91//91 75//75 78//78 
f 92//92 85//85 89//89 
f 79//79 75//75 93//93 
f 86//86 79//79 94//94 
f 94//94 79//79 93//93 
f 95//95 88//88 85//85 
f 85//85 92//92 95//95 
f 96//96 92//92 89//89 
f 89//89 80//80 90//90 
f 96//96 89//89 90//90 
f 86//86 94//94 90//90 
f 87//87 97//97 76//76 
f 98//98 82//82 83//83 
f 99//99 78//78 81//81 
f 88//88 95//95 100//100 
f 78//78 99//99 101//101 
f 101//101 91//91 78//78 
f 75//75 91//91 93//93 
f 102//102 96//96 90//90 
f 90//90 94//94 103//103 
f 98//98 83//83 88//88 
f 88//88 100//100 98//98 
f 92//92 104//104 95//95 
f 93//93 105//105 94//94 
f 94//94 105//105 103//103 
f 97//97 81//81 76//76 
f 97//97 106//106 81//81 
f 81//81 106//106 99//99 
f 101//101 107//107 91//91 
f 96//96 108//108 92//92 
f 108//108 96//96 102//102 
f 93//93 91//91 105//105 
f 90//90 109//109 102//102 
f 90//90 103//103 109//109 
f 87//87 110//110 97//97 
f 82//82 110//110 87//87 
f 110//110 82//82 98//98 
f 101//101 99//99 111//111 
f 100//100 95//95 104//104 
f 108//108 104//104 92//92 
f 101//101 111//111 112//112 
f 101//101 112//112 107//107 
f 108//108 102//102 113//113 
f 91//91 114//114 105//105 
f 107//107 114//114 91//91 
f 102//102 109//109 113//113 
f 103//103 105//105 109//109 
f 106//106 115//115 99//99 
f 116//116 100//100 104//104 
f 111//111 99//99 117//117 
f 117//117 99//99 115//115 
f 108//108 118//118 104//104 
f 117//117 118//118 108//108 
f 111//111 117//117 112//112 
f 112//112 119//119 107//107 
f 117//117 113//113 112//112 
f 113//113 119//119 112//112 
f 108//108 113//113 117//117 
f 113//113 120//120 119//119 
f 113//113 109//109 120//120 
f 114//114 109//109 105//105 
f 115//115 106//106 97//97 
f 118//118 116//116 104//104 
f 118//118 117//117 115//115 
f 119//119 114//114 107//107 
f 120//120 114//114 119//119 
f 120//120 109//109 114//114 
f 97//97 110//110 121//121 
f 121//121 115//115 97//97 
f 100//100 110//110 98//98 
f 122//122 118//118 115//115 
f 122//122 115//115 121//121 
f 116//116 118//118 122//122 
f 110//110 123//123 121//121 
f 122//122 121//121 123//123 
f 110//110 100//100 123//123 
f 100//100 116//116 123//123 
f 116//116 122//122 123//123 
