# Blender v2.92.0 OBJ File: 'convert_to_one_sided.blend'
# www.blender.org
mtllib 673L.mtl
o 673
v 8.561140 5.437609 4.919397
v 8.515331 5.447978 4.929737
v 8.508690 5.469169 4.934917
v 8.546100 5.469938 4.941597
v 8.575859 5.464589 4.993177
v 8.574359 5.440799 5.012686
v 8.483360 5.469669 4.948348
v 8.516761 5.437579 5.034476
v 8.443682 5.483718 5.002946
v 8.445811 5.509188 4.975857
v 8.482441 5.514378 4.979027
v 8.517501 5.514138 5.017577
v 8.411772 5.550518 5.003397
v 8.563720 5.433779 5.080326
v 8.367562 5.553358 5.010626
v 8.422161 5.563807 5.027396
v 8.243613 5.641817 5.005517
v 8.172395 5.683676 5.010796
v 8.185595 5.689685 5.006806
v 8.222154 5.676956 5.019586
v 8.163275 5.699286 5.040936
v 8.332452 5.524168 5.063276
v 8.242434 5.611447 5.028606
v 8.173635 5.651096 5.048156
v 8.329143 5.601467 5.023206
v 8.159835 5.679746 5.057076
v 8.388602 5.454549 5.139955
v 8.567250 5.444859 5.104005
v 8.573489 5.465319 5.065586
v 8.541739 5.497589 5.062756
v 8.227484 5.573437 5.107815
v 8.301884 5.632877 5.069976
v 8.207824 5.679616 5.072986
v 8.462941 5.434409 5.156694
v 8.532721 5.441089 5.110525
v 8.443631 5.550648 5.077056
v 8.180514 5.623497 5.132215
v 8.167325 5.667786 5.110775
v 8.184745 5.673226 5.112135
v 8.298973 5.497418 5.152825
v 8.245944 5.634117 5.135925
v 8.407991 5.434779 5.179365
v 8.468191 5.498808 5.139515
v 8.353633 5.573407 5.127535
v 8.183564 5.619697 5.181454
v 8.249214 5.525458 5.195784
v 8.499110 5.457509 5.147055
v 8.321794 5.467799 5.199064
v 8.290524 5.569887 5.195734
v 8.207534 5.581068 5.201974
v 8.208664 5.621887 5.173124
v 8.388142 5.448159 5.196554
v 8.457851 5.469829 5.179334
v 8.430351 5.457389 5.189654
v 8.382442 5.489998 5.201604
v 8.225064 5.576537 5.210844
v 8.240094 5.587997 5.194074
v 8.303113 5.487588 5.221454
v 8.353602 5.476629 5.211724
v 8.251774 5.537398 5.214314
v 8.298843 5.520598 5.208084
vn 0.5172 -0.3522 -0.7800
vn -0.4866 -0.6173 -0.6181
vn -0.1755 0.3544 -0.9185
vn 0.4290 0.7103 -0.5581
vn 0.8721 0.4639 -0.1555
vn 0.8114 -0.5839 -0.0260
vn -0.6569 -0.2269 -0.7190
vn -0.1320 -0.9869 -0.0929
vn -0.5936 -0.6671 -0.4502
vn -0.4193 0.1749 -0.8908
vn 0.1664 0.7603 -0.6279
vn 0.5013 0.8501 -0.1615
vn 0.0399 0.5697 -0.8209
vn 0.2990 -0.9419 0.1529
vn -0.3021 -0.1913 -0.9339
vn 0.3888 0.8638 -0.3203
vn 0.0740 0.0832 -0.9938
vn -0.6934 -0.1278 -0.7091
vn -0.0047 0.6491 -0.7607
vn 0.4396 0.8393 -0.3198
vn -0.3705 0.9288 -0.0130
vn -0.4914 -0.7128 -0.5005
vn -0.4491 -0.6250 -0.6385
vn -0.7621 -0.5645 -0.3170
vn 0.3382 0.6405 -0.6894
vn -0.9976 -0.0371 -0.0579
vn -0.3861 -0.8883 -0.2486
vn 0.7799 -0.2586 0.5700
vn 0.8794 0.3876 0.2764
vn 0.6064 0.7671 0.2095
vn -0.6353 -0.7069 -0.3110
vn 0.4818 0.8715 0.0910
vn 0.3528 0.9104 0.2160
vn 0.2034 -0.9008 0.3837
vn 0.2318 -0.8769 0.4212
vn 0.4798 0.8444 0.2381
vn -0.9065 -0.4217 0.0199
vn -0.7326 0.5133 0.4470
vn 0.0379 0.8733 0.4857
vn -0.5358 -0.7858 -0.3088
vn 0.3930 0.7999 0.4535
vn -0.2454 -0.9654 0.0879
vn 0.5174 0.6399 0.5681
vn 0.4557 0.7746 0.4387
vn -0.6643 0.2908 0.6886
vn -0.7107 -0.6919 0.1272
vn 0.5701 -0.2049 0.7956
vn -0.4568 -0.8869 0.0690
vn 0.3289 0.6127 0.7186
vn -0.7482 -0.3407 0.5693
vn 0.0965 0.7291 0.6776
vn -0.0803 -0.7895 0.6085
vn 0.5107 0.2746 0.8147
vn 0.3523 -0.2813 0.8926
vn 0.3104 0.3428 0.8866
vn -0.0126 0.3691 0.9293
vn 0.2131 0.6527 0.7270
vn -0.2285 -0.4217 0.8775
vn 0.1879 -0.0315 0.9817
vn -0.3371 -0.2052 0.9188
vn 0.1697 0.2488 0.9536
usemtl mtl1.1441
s 1
f 1//1 2//2 3//3
f 1//1 3//3 4//4
f 1//1 4//4 5//5
f 1//1 5//5 6//6
f 7//7 3//3 2//2
f 1//1 6//6 8//8
f 1//1 8//8 2//2
f 2//2 9//9 7//7
f 7//7 10//10 3//3
f 10//10 11//11 3//3
f 4//4 3//3 11//11
f 9//9 2//2 8//8
f 11//11 12//12 4//4
f 11//11 10//10 13//13
f 8//8 6//6 14//14
f 10//10 9//9 15//15
f 10//10 7//7 9//9
f 12//12 5//5 4//4
f 10//10 15//15 13//13
f 11//11 13//13 16//16
f 17//17 18//18 19//19
f 20//20 17//17 19//19
f 21//21 19//19 18//18
f 20//20 19//19 21//21
f 15//15 22//22 23//23
f 9//9 22//22 15//15
f 12//12 11//11 16//16
f 15//15 23//23 17//17
f 18//18 23//23 24//24
f 25//25 15//15 17//17
f 25//25 13//13 15//15
f 17//17 23//23 18//18
f 20//20 25//25 17//17
f 18//18 24//24 26//26
f 18//18 26//26 21//21
f 9//9 27//27 22//22
f 27//27 9//9 8//8
f 6//6 28//28 14//14
f 29//29 6//6 5//5
f 5//5 30//30 29//29
f 30//30 5//5 12//12
f 24//24 23//23 31//31
f 13//13 25//25 16//16
f 32//32 25//25 20//20
f 21//21 33//33 20//20
f 27//27 8//8 34//34
f 14//14 28//28 35//35
f 23//23 22//22 31//31
f 36//36 30//30 12//12
f 12//12 16//16 36//36
f 16//16 25//25 32//32
f 24//24 37//37 26//26
f 33//33 32//32 20//20
f 26//26 38//38 21//21
f 33//33 21//21 39//39
f 21//21 38//38 39//39
f 8//8 35//35 34//34
f 31//31 22//22 40//40
f 36//36 16//16 32//32
f 14//14 35//35 8//8
f 6//6 29//29 28//28
f 40//40 22//22 27//27
f 37//37 24//24 31//31
f 38//38 26//26 37//37
f 33//33 41//41 32//32
f 34//34 42//42 27//27
f 30//30 43//43 29//29
f 36//36 44//44 43//43
f 30//30 36//36 43//43
f 37//37 45//45 38//38
f 28//28 29//29 43//43
f 31//31 46//46 37//37
f 44//44 36//36 32//32
f 32//32 41//41 44//44
f 33//33 39//39 41//41
f 35//35 28//28 47//47
f 40//40 27//27 48//48
f 40//40 46//46 31//31
f 43//43 44//44 49//49
f 37//37 50//50 45//45
f 51//51 39//39 38//38
f 51//51 38//38 45//45
f 41//41 39//39 51//51
f 27//27 52//52 48//48
f 52//52 27//27 42//42
f 52//52 42//42 34//34
f 35//35 47//47 34//34
f 28//28 43//43 47//47
f 47//47 43//43 53//53
f 37//37 46//46 50//50
f 44//44 41//41 49//49
f 34//34 47//47 54//54
f 40//40 48//48 46//46
f 53//53 55//55 54//54
f 47//47 53//53 54//54
f 43//43 49//49 55//55
f 43//43 55//55 53//53
f 45//45 50//50 56//56
f 51//51 45//45 56//56
f 49//49 51//51 57//57
f 49//49 41//41 51//51
f 58//58 48//48 52//52
f 54//54 59//59 52//52
f 34//34 54//54 52//52
f 48//48 58//58 46//46
f 54//54 55//55 59//59
f 46//46 60//60 50//50
f 57//57 51//51 56//56
f 61//61 59//59 55//55
f 60//60 46//46 58//58
f 55//55 49//49 61//61
f 50//50 60//60 56//56
f 49//49 56//56 61//61
f 49//49 57//57 56//56
f 58//58 52//52 59//59
f 58//58 59//59 61//61
f 60//60 58//58 61//61
f 60//60 61//61 56//56
