# Blender v2.92.0 OBJ File: 'convert_to_one_sided.blend'
# www.blender.org
mtllib 673L.mtl
o Cube
v 0.001000 0.001000 -0.001000
v 0.001000 -0.001000 -0.001000
v 0.001000 0.001000 0.001000
v 0.001000 -0.001000 0.001000
v -0.001000 0.001000 -0.001000
v -0.001000 -0.001000 -0.001000
v -0.001000 0.001000 0.001000
v -0.001000 -0.001000 0.001000
vt 0.625000 0.500000
vt 0.875000 0.500000
vt 0.875000 0.750000
vt 0.625000 0.750000
vt 0.375000 0.750000
vt 0.625000 1.000000
vt 0.375000 1.000000
vt 0.375000 0.000000
vt 0.625000 0.000000
vt 0.625000 0.250000
vt 0.375000 0.250000
vt 0.125000 0.500000
vt 0.375000 0.500000
vt 0.125000 0.750000
vn 0.0000 1.0000 0.0000
vn 0.0000 0.0000 1.0000
vn -1.0000 0.0000 0.0000
vn 0.0000 -1.0000 0.0000
vn 1.0000 0.0000 0.0000
vn 0.0000 0.0000 -1.0000
usemtl Material
s off
f 1/1/1 5/2/1 7/3/1 3/4/1
f 4/5/2 3/4/2 7/6/2 8/7/2
f 8/8/3 7/9/3 5/10/3 6/11/3
f 6/12/4 2/13/4 4/5/4 8/14/4
f 2/13/5 1/1/5 3/4/5 4/5/5
f 6/11/6 5/10/6 1/1/6 2/13/6
o 673
v 8.561140 5.437609 4.919397
v 8.515331 5.447978 4.929737
v 8.508690 5.469169 4.934917
v 8.546100 5.469938 4.941597
v 8.575859 5.464589 4.993177
v 8.574359 5.440799 5.012686
v 8.483360 5.469669 4.948348
v 8.516761 5.437579 5.034476
v 8.443682 5.483718 5.002946
v 8.445811 5.509188 4.975857
v 8.482441 5.514378 4.979027
v 8.517501 5.514138 5.017577
v 8.411772 5.550518 5.003397
v 8.563720 5.433779 5.080326
v 8.367562 5.553358 5.010626
v 8.422161 5.563807 5.027396
v 8.243613 5.641817 5.005517
v 8.172395 5.683676 5.010796
v 8.185595 5.689685 5.006806
v 8.222154 5.676956 5.019586
v 8.163275 5.699286 5.040936
v 8.332452 5.524168 5.063276
v 8.242434 5.611447 5.028606
v 8.173635 5.651096 5.048156
v 8.329143 5.601467 5.023206
v 8.159835 5.679746 5.057076
v 8.388602 5.454549 5.139955
v 8.567250 5.444859 5.104005
v 8.573489 5.465319 5.065586
v 8.541739 5.497589 5.062756
v 8.227484 5.573437 5.107815
v 8.301884 5.632877 5.069976
v 8.207824 5.679616 5.072986
v 8.462941 5.434409 5.156694
v 8.532721 5.441089 5.110525
v 8.443631 5.550648 5.077056
v 8.180514 5.623497 5.132215
v 8.167325 5.667786 5.110775
v 8.184745 5.673226 5.112135
v 8.298973 5.497418 5.152825
v 8.245944 5.634117 5.135925
v 8.407991 5.434779 5.179365
v 8.468191 5.498808 5.139515
v 8.353633 5.573407 5.127535
v 8.183564 5.619697 5.181454
v 8.249214 5.525458 5.195784
v 8.499110 5.457509 5.147055
v 8.321794 5.467799 5.199064
v 8.290524 5.569887 5.195734
v 8.207534 5.581068 5.201974
v 8.208664 5.621887 5.173124
v 8.388142 5.448159 5.196554
v 8.457851 5.469829 5.179334
v 8.430351 5.457389 5.189654
v 8.382442 5.489998 5.201604
v 8.225064 5.576537 5.210844
v 8.240094 5.587997 5.194074
v 8.303113 5.487588 5.221454
v 8.353602 5.476629 5.211724
v 8.251774 5.537398 5.214314
v 8.298843 5.520598 5.208084
vn 0.5172 -0.3522 -0.7800
vn -0.4866 -0.6173 -0.6181
vn -0.1755 0.3544 -0.9185
vn 0.4290 0.7103 -0.5581
vn 0.8721 0.4639 -0.1555
vn 0.8114 -0.5839 -0.0260
vn -0.6569 -0.2269 -0.7190
vn -0.1320 -0.9869 -0.0929
vn -0.5936 -0.6671 -0.4502
vn -0.4193 0.1749 -0.8908
vn 0.1664 0.7603 -0.6279
vn 0.5013 0.8501 -0.1615
vn 0.0399 0.5697 -0.8209
vn 0.2990 -0.9419 0.1529
vn -0.3021 -0.1913 -0.9339
vn 0.3888 0.8638 -0.3203
vn 0.0740 0.0832 -0.9938
vn -0.6934 -0.1278 -0.7091
vn -0.0047 0.6491 -0.7607
vn 0.4396 0.8393 -0.3198
vn -0.3705 0.9288 -0.0130
vn -0.4914 -0.7128 -0.5005
vn -0.4491 -0.6250 -0.6385
vn -0.7621 -0.5645 -0.3170
vn 0.3382 0.6405 -0.6894
vn -0.9976 -0.0371 -0.0579
vn -0.3861 -0.8883 -0.2486
vn 0.7799 -0.2586 0.5700
vn 0.8794 0.3876 0.2764
vn 0.6064 0.7671 0.2095
vn -0.6353 -0.7069 -0.3110
vn 0.4818 0.8715 0.0910
vn 0.3528 0.9104 0.2160
vn 0.2034 -0.9008 0.3837
vn 0.2318 -0.8769 0.4212
vn 0.4798 0.8444 0.2381
vn -0.9065 -0.4217 0.0199
vn -0.7326 0.5133 0.4470
vn 0.0379 0.8733 0.4857
vn -0.5358 -0.7858 -0.3088
vn 0.3930 0.7999 0.4535
vn -0.2454 -0.9654 0.0879
vn 0.5174 0.6399 0.5681
vn 0.4557 0.7746 0.4387
vn -0.6643 0.2908 0.6886
vn -0.7107 -0.6919 0.1272
vn 0.5701 -0.2049 0.7956
vn -0.4568 -0.8869 0.0690
vn 0.3289 0.6127 0.7186
vn -0.7482 -0.3407 0.5693
vn 0.0965 0.7291 0.6776
vn -0.0803 -0.7895 0.6085
vn 0.5107 0.2746 0.8147
vn 0.3523 -0.2813 0.8926
vn 0.3104 0.3428 0.8866
vn -0.0126 0.3691 0.9293
vn 0.2131 0.6527 0.7270
vn -0.2285 -0.4217 0.8775
vn 0.1879 -0.0315 0.9817
vn -0.3371 -0.2052 0.9188
vn 0.1697 0.2488 0.9536
usemtl mtl1.622
s 1
f 9//7 10//8 11//9
f 9//7 11//9 12//10
f 9//7 12//10 13//11
f 9//7 13//11 14//12
f 15//13 11//9 10//8
f 9//7 14//12 16//14
f 9//7 16//14 10//8
f 10//8 17//15 15//13
f 15//13 18//16 11//9
f 18//16 19//17 11//9
f 12//10 11//9 19//17
f 17//15 10//8 16//14
f 19//17 20//18 12//10
f 19//17 18//16 21//19
f 16//14 14//12 22//20
f 18//16 17//15 23//21
f 18//16 15//13 17//15
f 20//18 13//11 12//10
f 18//16 23//21 21//19
f 19//17 21//19 24//22
f 25//23 26//24 27//25
f 28//26 25//23 27//25
f 29//27 27//25 26//24
f 28//26 27//25 29//27
f 23//21 30//28 31//29
f 17//15 30//28 23//21
f 20//18 19//17 24//22
f 23//21 31//29 25//23
f 26//24 31//29 32//30
f 33//31 23//21 25//23
f 33//31 21//19 23//21
f 25//23 31//29 26//24
f 28//26 33//31 25//23
f 26//24 32//30 34//32
f 26//24 34//32 29//27
f 17//15 35//33 30//28
f 35//33 17//15 16//14
f 14//12 36//34 22//20
f 37//35 14//12 13//11
f 13//11 38//36 37//35
f 38//36 13//11 20//18
f 32//30 31//29 39//37
f 21//19 33//31 24//22
f 40//38 33//31 28//26
f 29//27 41//39 28//26
f 35//33 16//14 42//40
f 22//20 36//34 43//41
f 31//29 30//28 39//37
f 44//42 38//36 20//18
f 20//18 24//22 44//42
f 24//22 33//31 40//38
f 32//30 45//43 34//32
f 41//39 40//38 28//26
f 34//32 46//44 29//27
f 41//39 29//27 47//45
f 29//27 46//44 47//45
f 16//14 43//41 42//40
f 39//37 30//28 48//46
f 44//42 24//22 40//38
f 22//20 43//41 16//14
f 14//12 37//35 36//34
f 48//46 30//28 35//33
f 45//43 32//30 39//37
f 46//44 34//32 45//43
f 41//39 49//47 40//38
f 42//40 50//48 35//33
f 38//36 51//49 37//35
f 44//42 52//50 51//49
f 38//36 44//42 51//49
f 45//43 53//51 46//44
f 36//34 37//35 51//49
f 39//37 54//52 45//43
f 52//50 44//42 40//38
f 40//38 49//47 52//50
f 41//39 47//45 49//47
f 43//41 36//34 55//53
f 48//46 35//33 56//54
f 48//46 54//52 39//37
f 51//49 52//50 57//55
f 45//43 58//56 53//51
f 59//57 47//45 46//44
f 59//57 46//44 53//51
f 49//47 47//45 59//57
f 35//33 60//58 56//54
f 60//58 35//33 50//48
f 60//58 50//48 42//40
f 43//41 55//53 42//40
f 36//34 51//49 55//53
f 55//53 51//49 61//59
f 45//43 54//52 58//56
f 52//50 49//47 57//55
f 42//40 55//53 62//60
f 48//46 56//54 54//52
f 61//59 63//61 62//60
f 55//53 61//59 62//60
f 51//49 57//55 63//61
f 51//49 63//61 61//59
f 53//51 58//56 64//62
f 59//57 53//51 64//62
f 57//55 59//57 65//63
f 57//55 49//47 59//57
f 66//64 56//54 60//58
f 62//60 67//65 60//58
f 42//40 62//60 60//58
f 56//54 66//64 54//52
f 62//60 63//61 67//65
f 54//52 68//66 58//56
f 65//63 59//57 64//62
f 69//67 67//65 63//61
f 68//66 54//52 66//64
f 63//61 57//55 69//67
f 58//56 68//66 64//62
f 57//55 64//62 69//67
f 57//55 65//63 64//62
f 66//64 60//58 67//65
f 66//64 67//65 69//67
f 68//66 66//64 69//67
f 68//66 69//67 64//62
