# Blender v2.92.0 OBJ File: 'convert_to_one_sided.blend'
# www.blender.org
mtllib 678L.mtl
o 678
v 7.242017 2.930622 1.149216
v 7.198437 2.975512 1.156026
v 7.245347 2.957632 1.153716
v 7.277196 2.921422 1.164346
v 7.274246 2.842343 1.171745
v 7.185977 2.865473 1.189585
v 7.296046 2.863203 1.181075
v 7.143938 2.956952 1.172235
v 7.129678 2.993221 1.178295
v 7.189787 2.982951 1.172375
v 7.311496 2.725945 1.227445
v 7.314126 2.798244 1.201785
v 7.307796 2.877123 1.199895
v 7.084309 2.891813 1.219375
v 7.082719 2.975921 1.198175
v 7.255426 2.941662 1.182645
v 7.109658 3.009621 1.202695
v 7.342066 2.739575 1.224685
v 7.341926 2.773634 1.231165
v 7.039599 2.962922 1.221245
v 7.170858 2.989831 1.204145
v 7.069239 2.992991 1.212925
v 7.142368 3.000991 1.199855
v 7.372675 2.671005 1.244645
v 7.384965 2.679225 1.249744
v 7.229707 2.657306 1.294874
v 7.044129 2.880993 1.253704
v 7.026430 2.929772 1.252764
v 7.037739 2.977802 1.232275
v 7.105788 3.008951 1.215345
v 7.061419 2.993871 1.230205
v 7.417944 2.607666 1.267544
v 7.406535 2.635566 1.260424
v 7.409884 2.663826 1.275314
v 7.315536 2.826753 1.250584
v 7.334166 2.801764 1.241594
v 7.203077 2.916122 1.248494
v 7.443584 2.604686 1.280814
v 7.107879 2.734295 1.312284
v 7.053799 2.831783 1.294004
v 7.033169 2.952122 1.257484
v 7.109188 2.982141 1.238734
v 7.504583 2.521667 1.305673
v 7.429985 2.532877 1.307693
v 7.507163 2.545347 1.309363
v 7.466464 2.595057 1.302894
v 7.193027 2.605486 1.343373
v 7.370635 2.723185 1.281074
v 7.461144 2.603656 1.320723
v 7.078689 2.765374 1.324933
v 7.041490 2.886092 1.292864
v 7.593712 2.465718 1.332143
v 7.675261 2.403619 1.341733
v 7.608402 2.431958 1.331723
v 7.553762 2.458158 1.323713
v 7.244997 2.526247 1.368753
v 7.536303 2.524707 1.331773
v 7.355945 2.725285 1.301104
v 7.280366 2.740805 1.332403
v 7.127538 2.901622 1.290114
v 7.035890 2.920892 1.289074
v 7.063659 2.944932 1.266484
v 7.777780 2.297830 1.370373
v 7.598242 2.349999 1.377723
v 7.693511 2.367069 1.356183
v 7.780260 2.329250 1.370423
v 7.711601 2.388909 1.358253
v 7.376565 2.428998 1.389312
v 7.195307 2.568297 1.378993
v 7.109519 2.706325 1.351603
v 7.077009 2.785584 1.328613
v 7.054799 2.862913 1.311524
v 7.073899 2.876663 1.306994
v 7.860439 2.251531 1.397732
v 7.869719 2.272310 1.399792
v 7.808179 2.325910 1.389042
v 7.635022 2.445968 1.358643
v 7.142518 2.653256 1.369243
v 7.435004 2.622846 1.335803
v 7.149118 2.788244 1.341043
v 7.905138 2.222731 1.416582
v 7.914368 2.192601 1.429042
v 7.802979 2.166192 1.464981
v 7.884708 2.268581 1.422562
v 7.729541 2.383059 1.380833
v 7.650491 2.429998 1.384702
v 7.548873 2.511927 1.355043
v 7.150908 2.642396 1.388543
v 7.102259 2.782674 1.340783
v 7.193987 2.703545 1.377473
v 7.622212 2.186202 1.480741
v 7.951218 2.167562 1.458062
v 7.923868 2.208141 1.439262
v 7.500953 2.267681 1.460062
v 7.285756 2.443338 1.422942
v 7.820960 2.317780 1.412682
v 7.729041 2.368809 1.413842
v 7.240577 2.487338 1.431712
v 7.194257 2.569307 1.406542
v 7.504283 2.471258 1.425702
v 7.123199 2.716085 1.362053
v 7.145638 2.731694 1.364013
v 7.947438 2.112113 1.494921
v 7.975828 2.136202 1.492121
v 7.897008 2.249171 1.452502
v 7.388485 2.331790 1.463691
v 7.284546 2.428529 1.452392
v 7.275986 2.594507 1.417122
v 7.178827 2.659225 1.389633
v 7.697691 2.072473 1.554810
v 7.573462 2.154832 1.529551
v 7.942398 2.182742 1.474901
v 7.334156 2.373579 1.472271
v 7.844009 2.255411 1.474881
v 7.697711 2.318430 1.476951
v 7.299206 2.420029 1.473641
v 7.240567 2.506518 1.445062
v 7.370115 2.455138 1.483561
v 7.213667 2.581517 1.415332
v 7.914788 2.006564 1.574610
v 7.995517 2.024924 1.560930
v 7.988017 2.087303 1.525141
v 7.471973 2.233051 1.514451
v 7.402485 2.295820 1.507731
v 7.811659 1.990924 1.605010
v 7.951668 2.152502 1.513951
v 7.377345 2.332220 1.515701
v 7.276346 2.471648 1.469491
v 7.473723 2.350119 1.529161
v 7.279576 2.503707 1.454872
v 8.006186 2.066713 1.552240
v 7.459054 2.237681 1.549180
v 7.815259 2.168172 1.573450
v 7.419505 2.285730 1.534201
v 7.627422 2.273880 1.547130
v 7.342435 2.415839 1.496471
v 8.032857 1.999714 1.593770
v 7.997187 1.938375 1.635419
v 7.637691 2.067463 1.593830
v 7.547412 2.155782 1.575740
v 7.932448 2.132772 1.552550
v 7.369735 2.356550 1.517221
v 7.395255 2.392779 1.512821
v 8.058426 1.936765 1.651989
v 8.056976 1.972664 1.636279
v 7.745200 1.986354 1.634309
v 7.993437 2.076023 1.573520
v 7.441124 2.277740 1.553810
v 7.566473 2.228511 1.597790
v 7.412224 2.343310 1.530751
v 7.615922 2.080793 1.610830
v 7.659951 2.040854 1.624449
v 7.967417 2.033983 1.639689
v 7.523763 2.189601 1.591630
v 7.701511 2.129612 1.639809
v 7.485514 2.278450 1.565510
v 7.913718 1.910085 1.663199
v 7.704591 2.005784 1.643329
v 8.035546 2.002074 1.623169
v 8.069606 1.949625 1.661289
v 7.596362 2.112633 1.620849
v 7.529843 2.210981 1.596060
v 7.844339 1.901915 1.702428
v 7.995447 1.877906 1.689899
v 8.047386 1.898395 1.686919
v 7.767430 1.957435 1.680979
v 7.670062 2.045163 1.645659
v 7.578972 2.147902 1.622219
v 7.847119 2.045074 1.674689
v 8.006137 1.855116 1.729278
v 8.063847 1.917895 1.685379
v 7.731750 1.994484 1.673819
v 7.608552 2.148042 1.630259
v 7.931908 1.862356 1.727648
v 8.041866 1.881966 1.717308
v 7.772740 1.962044 1.702318
v 8.036986 1.948355 1.679779
v 7.648541 2.090723 1.652009
v 7.663981 2.104703 1.652249
v 8.004046 1.852476 1.746848
v 7.819109 1.921035 1.722758
v 7.743600 2.012854 1.688069
v 7.944378 1.943855 1.728018
v 7.706931 2.074743 1.665429
v 7.765730 2.049103 1.679279
v 7.897718 1.852176 1.761808
v 7.862049 1.885985 1.748628
v 7.952788 1.849016 1.763558
v 8.023046 1.866106 1.738108
v 8.014497 1.903165 1.721258
v 7.815419 1.946535 1.727158
v 7.830409 1.983424 1.711078
v 7.863609 1.892705 1.758228
v 7.922778 1.843236 1.777508
v 7.967797 1.851756 1.764338
v 7.897778 1.860136 1.767008
v 7.966047 1.876066 1.760028
v 7.880239 1.910165 1.756038
v 7.914998 1.866906 1.766548
v 7.926128 1.897945 1.752688
vn 0.1232 -0.0359 -0.9917
vn -0.0075 0.4799 -0.8773
vn 0.5073 0.6823 -0.5263
vn 0.7688 0.3658 -0.5245
vn 0.1485 -0.2854 -0.9468
vn -0.2934 -0.3942 -0.8709
vn 0.6535 0.0001 -0.7569
vn -0.3253 -0.1089 -0.9393
vn -0.2467 0.5391 -0.8053
vn 0.3018 0.9266 -0.2243
vn -0.0642 -0.4016 -0.9136
vn 0.4922 -0.1559 -0.8564
vn 0.9061 0.4171 -0.0708
vn -0.4476 -0.3707 -0.8137
vn -0.4651 0.0671 -0.8827
vn 0.6312 0.7245 0.2768
vn -0.1064 0.9586 -0.2641
vn 0.4228 -0.0791 -0.9028
vn 0.8525 0.2265 -0.4712
vn -0.7198 0.0190 -0.6939
vn 0.4176 0.8026 0.4259
vn -0.5342 0.6300 -0.5637
vn 0.2872 0.9570 0.0416
vn 0.2493 -0.1562 -0.9557
vn 0.6049 0.1242 -0.7866
vn -0.3291 -0.4915 -0.8063
vn -0.7494 -0.3914 -0.5341
vn -0.9973 -0.0417 -0.0607
vn -0.8323 0.5432 -0.1109
vn 0.1130 0.9167 0.3833
vn -0.3346 0.8582 0.3893
vn 0.1682 -0.2529 -0.9528
vn 0.4249 -0.0430 -0.9042
vn 0.8141 0.4622 -0.3515
vn 0.6426 0.5624 0.5204
vn 0.9081 0.4114 0.0784
vn 0.4043 0.5795 0.7076
vn 0.6019 0.1934 -0.7748
vn -0.6883 -0.5316 -0.4935
vn -0.9400 -0.3400 -0.0291
vn -0.7097 0.4795 0.5161
vn 0.1626 0.6338 0.7562
vn 0.2395 -0.0854 -0.9671
vn -0.1742 -0.4671 -0.8669
vn 0.6261 0.3969 -0.6712
vn 0.7481 0.5430 -0.3815
vn -0.5172 -0.5274 -0.6741
vn 0.8152 0.5558 0.1628
vn 0.7492 0.6617 0.0302
vn -0.9151 -0.4019 0.0323
vn -0.9076 -0.0395 0.4181
vn 0.5030 0.4422 -0.7426
vn 0.2789 0.0988 -0.9552
vn 0.0788 -0.2060 -0.9754
vn -0.0753 -0.3801 -0.9219
vn -0.4512 -0.5769 -0.6809
vn 0.7030 0.6686 -0.2425
vn 0.5692 0.5766 0.5861
vn 0.3286 0.5190 0.7891
vn 0.1750 0.5051 0.8452
vn -0.4471 0.3967 0.8017
vn -0.0403 0.6008 0.7984
vn 0.0085 -0.3408 -0.9401
vn -0.1709 -0.5049 -0.8461
vn 0.0084 -0.2852 -0.9584
vn 0.3644 0.1525 -0.9187
vn 0.5575 0.6253 -0.5460
vn -0.2991 -0.5605 -0.7722
vn -0.7603 -0.5763 -0.2998
vn -0.8815 -0.3524 0.3142
vn -0.7699 -0.0931 0.6314
vn -0.4861 0.1338 0.8636
vn -0.0102 0.4033 0.9150
vn 0.1967 -0.2457 -0.9492
vn 0.6239 0.3410 -0.7031
vn 0.6142 0.6896 -0.3836
vn 0.6024 0.7870 -0.1331
vn -0.8669 -0.4967 0.0408
vn 0.5730 0.6415 0.5101
vn 0.0638 0.4064 0.9114
vn 0.5803 0.0173 -0.8142
vn 0.1883 -0.4534 -0.8712
vn -0.1112 -0.5942 -0.7966
vn 0.7491 0.6522 -0.1162
vn 0.5578 0.8286 0.0472
vn 0.4827 0.7935 0.3706
vn 0.6002 0.7444 0.2927
vn -0.6400 -0.1017 0.7616
vn -0.2412 0.2376 0.9409
vn 0.0527 0.3917 0.9186
vn -0.2205 -0.5983 -0.7703
vn 0.6465 -0.1681 -0.7442
vn 0.8400 0.3918 -0.3754
vn -0.3303 -0.6114 -0.7191
vn -0.5947 -0.6571 -0.4632
vn 0.5269 0.8056 0.2709
vn 0.4031 0.7459 0.5303
vn -0.8463 -0.5137 0.1408
vn -0.8229 -0.3136 0.4738
vn 0.3311 0.6218 0.7097
vn -0.4544 0.1137 0.8835
vn -0.1396 0.2987 0.9441
vn 0.1591 -0.5566 -0.8154
vn 0.9126 0.2349 -0.3347
vn 0.5998 0.7018 0.3843
vn -0.5118 -0.6772 -0.5287
vn -0.7748 -0.6321 0.0064
vn 0.0531 0.4143 0.9086
vn -0.1757 0.2448 0.9535
vn -0.2471 -0.6826 -0.6878
vn -0.4367 -0.7072 -0.5560
vn 0.8127 0.5723 0.1098
vn -0.7391 -0.6721 -0.0442
vn 0.3642 0.6868 0.6290
vn 0.3038 0.6578 0.6892
vn -0.7173 -0.3303 0.6136
vn -0.6129 -0.0184 0.7900
vn 0.0452 0.4612 0.8862
vn -0.3133 0.1846 0.9315
vn -0.0458 -0.6371 -0.7694
vn 0.2337 -0.5510 -0.8011
vn 0.6442 -0.2738 -0.7142
vn -0.5721 -0.7374 -0.3590
vn -0.7373 -0.6755 -0.0086
vn -0.1823 -0.7010 -0.6895
vn 0.6167 0.6524 0.4406
vn -0.7493 -0.4502 0.4857
vn -0.3947 0.1110 0.9121
vn 0.0833 0.4976 0.8634
vn -0.1593 0.3556 0.9210
vn 0.9158 0.3951 -0.0715
vn -0.7374 -0.6089 0.2925
vn 0.2746 0.6568 0.7023
vn -0.7426 -0.4845 0.4623
vn 0.2355 0.6153 0.7523
vn -0.2527 0.2242 0.9412
vn 0.6444 -0.3102 -0.6989
vn 0.1456 -0.6551 -0.7413
vn -0.5353 -0.7648 -0.3585
vn -0.7077 -0.7065 -0.0021
vn 0.3998 0.6824 0.6119
vn -0.4888 -0.0085 0.8724
vn -0.0631 0.3627 0.9298
vn 0.6881 -0.4643 -0.5576
vn 0.9597 0.1185 -0.2548
vn -0.3980 -0.8018 -0.4458
vn 0.6059 0.6602 0.4438
vn -0.5369 -0.1191 0.8352
vn -0.0159 0.4383 0.8987
vn -0.1745 0.2708 0.9467
vn -0.7198 -0.6753 0.1612
vn -0.6633 -0.7412 0.1033
vn 0.3687 0.6569 0.6577
vn -0.6688 -0.3697 0.6450
vn 0.0813 0.5049 0.8593
vn -0.1812 0.3196 0.9301
vn -0.1297 -0.7424 -0.6573
vn -0.6333 -0.7718 0.0571
vn 0.6672 0.6425 0.3767
vn 0.8371 0.4274 0.3416
vn -0.6860 -0.4676 0.5575
vn -0.3372 0.1369 0.9314
vn -0.4581 -0.8352 -0.3043
vn 0.0670 -0.7837 -0.6175
vn 0.5295 -0.7039 -0.4734
vn -0.6521 -0.7489 0.1182
vn -0.6466 -0.5025 0.5739
vn -0.4794 -0.0803 0.8739
vn 0.1559 0.5751 0.8031
vn 0.2542 -0.9285 -0.2708
vn 0.9585 -0.0655 0.2775
vn -0.6926 -0.4733 0.5442
vn -0.1729 0.2679 0.9478
vn -0.1398 -0.8943 -0.4250
vn 0.7743 -0.6255 0.0960
vn -0.6670 -0.3629 0.6507
vn 0.4571 0.5400 0.7067
vn -0.3915 -0.0434 0.9192
vn -0.1059 0.3064 0.9460
vn 0.4815 -0.7806 0.3985
vn -0.6995 -0.5527 0.4530
vn -0.3893 0.0448 0.9200
vn 0.2166 0.5281 0.8211
vn -0.1017 0.2982 0.9491
vn -0.0322 0.3935 0.9188
vn -0.4393 -0.8942 0.0858
vn -0.6970 -0.6201 0.3601
vn 0.0787 -0.9904 0.1136
vn 0.6384 -0.0339 0.7690
vn 0.4605 0.4380 0.7721
vn -0.4229 0.0903 0.9017
vn -0.0513 0.4451 0.8940
vn -0.4750 -0.1188 0.8720
vn -0.1101 -0.5758 0.8101
vn 0.3154 -0.3061 0.8982
vn -0.4958 -0.3377 0.8000
vn 0.2449 0.3282 0.9123
vn -0.0362 0.3637 0.9308
vn -0.0092 0.1814 0.9834
vn 0.1143 0.3967 0.9108
usemtl mtl1.1444
s 1
f 1//1 2//2 3//3
f 4//4 1//1 3//3
f 5//5 6//6 1//1
f 7//7 5//5 1//1
f 1//1 6//6 8//8
f 7//7 1//1 4//4
f 1//1 8//8 2//2
f 2//2 8//8 9//9
f 10//10 2//2 9//9
f 3//3 2//2 10//10
f 11//11 5//5 12//12
f 12//12 5//5 7//7
f 7//7 4//4 13//13
f 6//6 14//14 8//8
f 8//8 14//14 15//15
f 4//4 3//3 16//16
f 13//13 4//4 16//16
f 8//8 15//15 9//9
f 10//10 9//9 17//17
f 12//12 18//18 11//11
f 5//5 11//11 6//6
f 19//19 18//18 12//12
f 19//19 7//7 13//13
f 12//12 7//7 19//19
f 14//14 20//20 15//15
f 3//3 10//10 16//16
f 10//10 21//21 16//16
f 15//15 20//20 22//22
f 9//9 15//15 22//22
f 10//10 17//17 23//23
f 10//10 23//23 21//21
f 24//24 11//11 18//18
f 18//18 25//25 24//24
f 18//18 19//19 25//25
f 11//11 26//26 6//6
f 6//6 26//26 14//14
f 20//20 14//14 27//27
f 28//28 20//20 27//27
f 28//28 29//29 20//20
f 20//20 29//29 22//22
f 22//22 17//17 9//9
f 17//17 30//30 23//23
f 17//17 22//22 31//31
f 30//30 17//17 31//31
f 32//32 11//11 24//24
f 33//33 24//24 25//25
f 25//25 19//19 34//34
f 13//13 35//35 36//36
f 16//16 35//35 13//13
f 35//35 16//16 37//37
f 16//16 21//21 37//37
f 31//31 22//22 29//29
f 23//23 30//30 21//21
f 38//38 32//32 33//33
f 33//33 32//32 24//24
f 38//38 33//33 25//25
f 25//25 34//34 38//38
f 26//26 39//39 14//14
f 19//19 13//13 36//36
f 14//14 39//39 27//27
f 27//27 39//39 40//40
f 27//27 40//40 28//28
f 28//28 41//41 29//29
f 37//37 21//21 42//42
f 41//41 31//31 29//29
f 42//42 21//21 30//30
f 43//43 44//44 32//32
f 38//38 45//45 43//43
f 44//44 26//26 11//11
f 44//44 11//11 32//32
f 38//38 43//43 32//32
f 46//46 45//45 38//38
f 38//38 34//34 46//46
f 47//47 39//39 26//26
f 34//34 48//48 49//49
f 34//34 19//19 48//48
f 19//19 36//36 48//48
f 39//39 50//50 40//40
f 36//36 35//35 48//48
f 40//40 51//51 28//28
f 28//28 51//51 41//41
f 30//30 31//31 42//42
f 52//52 53//53 54//54
f 55//55 44//44 43//43
f 43//43 54//54 55//55
f 52//52 54//54 43//43
f 45//45 52//52 43//43
f 56//56 47//47 26//26
f 57//57 45//45 46//46
f 46//46 34//34 49//49
f 58//58 35//35 59//59
f 58//58 48//48 35//35
f 35//35 37//37 59//59
f 59//59 37//37 60//60
f 41//41 51//51 61//61
f 61//61 62//62 41//41
f 37//37 42//42 60//60
f 31//31 41//41 62//62
f 42//42 31//31 62//62
f 60//60 42//42 62//62
f 63//63 64//64 65//65
f 66//66 63//63 65//65
f 65//65 64//64 54//54
f 67//67 66//66 53//53
f 53//53 66//66 65//65
f 64//64 55//55 54//54
f 53//53 65//65 54//54
f 52//52 67//67 53//53
f 68//68 26//26 44//44
f 26//26 68//68 56//56
f 57//57 52//52 45//45
f 46//46 49//49 57//57
f 69//69 39//39 47//47
f 39//39 70//70 50//50
f 50//50 71//71 40//40
f 40//40 71//71 51//51
f 61//61 51//51 72//72
f 73//73 62//62 61//61
f 60//60 62//62 73//73
f 74//74 63//63 66//66
f 66//66 75//75 74//74
f 76//76 75//75 66//66
f 66//66 67//67 76//76
f 64//64 68//68 44//44
f 55//55 64//64 44//44
f 52//52 77//77 67//67
f 77//77 52//52 57//57
f 56//56 69//69 47//47
f 78//78 39//39 69//69
f 70//70 39//39 78//78
f 48//48 79//79 49//49
f 48//48 58//58 79//79
f 70//70 71//71 50//50
f 71//71 72//72 51//51
f 72//72 73//73 61//61
f 59//59 60//60 80//80
f 80//80 60//60 73//73
f 74//74 81//81 82//82
f 83//83 63//63 74//74
f 83//83 64//64 63//63
f 75//75 81//81 74//74
f 75//75 76//76 84//84
f 85//85 76//76 67//67
f 85//85 67//67 77//77
f 86//86 85//85 77//77
f 57//57 87//87 77//77
f 87//87 49//49 79//79
f 87//87 57//57 49//49
f 70//70 78//78 88//88
f 79//79 58//58 59//59
f 89//89 72//72 71//71
f 90//90 59//59 80//80
f 89//89 73//73 72//72
f 80//80 73//73 89//89
f 91//91 64//64 83//83
f 82//82 83//83 74//74
f 81//81 92//92 82//82
f 81//81 93//93 92//92
f 91//91 94//94 64//64
f 81//81 75//75 93//93
f 94//94 68//68 64//64
f 84//84 93//93 75//75
f 95//95 56//56 68//68
f 96//96 76//76 85//85
f 97//97 96//96 85//85
f 97//97 85//85 86//86
f 95//95 98//98 69//69
f 95//95 69//69 56//56
f 87//87 86//86 77//77
f 99//99 69//69 98//98
f 69//69 99//99 78//78
f 78//78 99//99 88//88
f 100//100 79//79 59//59
f 88//88 101//101 70//70
f 101//101 89//89 71//71
f 70//70 101//101 71//71
f 90//90 80//80 102//102
f 102//102 80//80 89//89
f 103//103 83//83 82//82
f 92//92 103//103 82//82
f 93//93 104//104 92//92
f 84//84 96//96 105//105
f 76//76 96//96 84//84
f 68//68 106//106 95//95
f 107//107 98//98 95//95
f 86//86 100//100 97//97
f 87//87 100//100 86//86
f 87//87 79//79 100//100
f 90//90 108//108 59//59
f 100//100 59//59 108//108
f 109//109 102//102 101//101
f 102//102 89//89 101//101
f 109//109 90//90 102//102
f 110//110 91//91 83//83
f 94//94 91//91 111//111
f 93//93 84//84 112//112
f 94//94 106//106 68//68
f 106//106 113//113 95//95
f 96//96 114//114 105//105
f 113//113 107//107 95//95
f 115//115 114//114 97//97
f 96//96 97//97 114//114
f 115//115 97//97 100//100
f 98//98 116//116 117//117
f 116//116 98//98 107//107
f 108//108 118//118 100//100
f 88//88 99//99 119//119
f 119//119 109//109 88//88
f 109//109 101//101 88//88
f 119//119 108//108 109//109
f 108//108 90//90 109//109
f 120//120 103//103 121//121
f 121//121 103//103 122//122
f 103//103 120//120 83//83
f 110//110 111//111 91//91
f 103//103 92//92 122//122
f 122//122 92//92 104//104
f 104//104 93//93 112//112
f 94//94 123//123 106//106
f 123//123 124//124 106//106
f 84//84 105//105 112//112
f 106//106 124//124 113//113
f 98//98 117//117 99//99
f 119//119 99//99 117//117
f 83//83 120//120 125//125
f 112//112 105//105 126//126
f 114//114 126//126 105//105
f 113//113 124//124 127//127
f 113//113 116//116 107//107
f 116//116 128//128 117//117
f 129//129 100//100 118//118
f 128//128 130//130 117//117
f 130//130 119//119 117//117
f 118//118 108//108 130//130
f 119//119 130//130 108//108
f 122//122 104//104 131//131
f 94//94 111//111 123//123
f 104//104 112//112 131//131
f 132//132 124//124 123//123
f 114//114 115//115 133//133
f 134//134 127//127 124//124
f 133//133 115//115 135//135
f 113//113 127//127 116//116
f 115//115 100//100 135//135
f 129//129 135//135 100//100
f 128//128 136//136 130//130
f 118//118 130//130 136//136
f 121//121 137//137 138//138
f 83//83 125//125 110//110
f 122//122 137//137 121//121
f 111//111 110//110 139//139
f 123//123 111//111 140//140
f 140//140 111//111 139//139
f 126//126 131//131 112//112
f 123//123 140//140 132//132
f 133//133 141//141 114//114
f 134//134 124//124 132//132
f 126//126 114//114 141//141
f 127//127 142//142 116//116
f 116//116 142//142 136//136
f 116//116 136//136 128//128
f 143//143 118//118 136//136
f 129//129 118//118 143//143
f 121//121 138//138 120//120
f 144//144 137//137 145//145
f 139//139 110//110 146//146
f 110//110 125//125 146//146
f 131//131 145//145 137//137
f 137//137 122//122 131//131
f 126//126 147//147 131//131
f 126//126 141//141 147//147
f 134//134 132//132 148//148
f 134//134 148//148 127//127
f 142//142 127//127 148//148
f 135//135 129//129 149//149
f 142//142 150//150 136//136
f 143//143 136//136 150//150
f 137//137 144//144 138//138
f 151//151 139//139 152//152
f 151//151 140//140 139//139
f 147//147 141//141 153//153
f 132//132 140//140 154//154
f 132//132 154//154 148//148
f 135//135 155//155 133//133
f 149//149 155//155 135//135
f 148//148 150//150 142//142
f 156//156 150//150 148//148
f 150//150 156//156 129//129
f 129//129 143//143 150//150
f 120//120 157//157 125//125
f 138//138 157//157 120//120
f 139//139 158//158 152//152
f 146//146 158//158 139//139
f 145//145 159//159 160//160
f 145//145 131//131 159//159
f 159//159 131//131 147//147
f 153//153 159//159 147//147
f 140//140 151//151 161//161
f 140//140 161//161 154//154
f 148//148 154//154 162//162
f 156//156 148//148 162//162
f 156//156 149//149 129//129
f 146//146 125//125 163//163
f 163//163 125//125 157//157
f 138//138 164//164 157//157
f 138//138 144//144 165//165
f 166//166 158//158 146//146
f 152//152 158//158 167//167
f 152//152 167//167 151//151
f 161//161 168//168 154//154
f 169//169 133//133 155//155
f 168//168 162//162 154//154
f 149//149 156//156 162//162
f 164//164 165//165 170//170
f 165//165 164//164 138//138
f 166//166 146//146 163//163
f 144//144 145//145 171//171
f 172//172 158//158 166//166
f 171//171 145//145 160//160
f 172//172 167//167 158//158
f 151//151 167//167 161//161
f 133//133 169//169 153//153
f 153//153 141//141 133//133
f 173//173 162//162 168//168
f 149//149 173//173 155//155
f 173//173 149//149 162//162
f 157//157 164//164 174//174
f 174//174 164//164 170//170
f 165//165 175//175 170//170
f 165//165 171//171 175//175
f 165//165 144//144 171//171
f 176//176 172//172 166//166
f 160//160 177//177 171//171
f 160//160 159//159 177//177
f 159//159 153//153 177//177
f 167//167 178//178 161//161
f 161//161 178//178 168//168
f 178//178 173//173 168//168
f 179//179 173//173 178//178
f 155//155 173//173 179//179
f 163//163 157//157 174//174
f 170//170 175//175 180//180
f 181//181 166//166 163//163
f 166//166 181//181 176//176
f 172//172 182//182 167//167
f 172//172 176//176 182//182
f 183//183 153//153 169//169
f 177//177 153//153 183//183
f 182//182 184//184 178//178
f 167//167 182//182 178//178
f 178//178 184//184 179//179
f 185//185 155//155 184//184
f 169//169 155//155 185//185
f 155//155 179//179 184//184
f 163//163 186//186 187//187
f 163//163 174//174 186//186
f 170//170 188//188 174//174
f 180//180 188//188 170//170
f 163//163 187//187 181//181
f 175//175 189//189 180//180
f 175//175 171//171 189//189
f 189//189 171//171 190//190
f 181//181 191//191 176//176
f 190//190 171//171 177//177
f 190//190 177//177 183//183
f 176//176 191//191 182//182
f 192//192 183//183 169//169
f 182//182 192//192 185//185
f 185//185 184//184 182//182
f 169//169 185//185 192//192
f 186//186 174//174 188//188
f 181//181 193//193 191//191
f 181//181 187//187 193//193
f 192//192 182//182 191//191
f 188//188 194//194 186//186
f 180//180 195//195 188//188
f 187//187 186//186 196//196
f 189//189 197//197 195//195
f 180//180 189//189 195//195
f 187//187 196//196 193//193
f 189//189 190//190 197//197
f 198//198 191//191 193//193
f 190//190 183//183 197//197
f 198//198 192//192 191//191
f 183//183 192//192 198//198
f 188//188 195//195 194//194
f 186//186 194//194 196//196
f 193//193 196//196 199//199
f 199//199 198//198 193//193
f 199//199 200//200 198//198
f 200//200 183//183 198//198
f 197//197 183//183 200//200
f 194//194 199//199 196//196
f 195//195 199//199 194//194
f 195//195 197//197 199//199
f 199//199 197//197 200//200
