# Blender v2.92.0 OBJ File: 'convert_to_one_sided.blend'
# www.blender.org
mtllib 678L.mtl
o Cube
v 0.001000 0.001000 -0.001000
v 0.001000 -0.001000 -0.001000
v 0.001000 0.001000 0.001000
v 0.001000 -0.001000 0.001000
v -0.001000 0.001000 -0.001000
v -0.001000 -0.001000 -0.001000
v -0.001000 0.001000 0.001000
v -0.001000 -0.001000 0.001000
vt 0.625000 0.500000
vt 0.875000 0.500000
vt 0.875000 0.750000
vt 0.625000 0.750000
vt 0.375000 0.750000
vt 0.625000 1.000000
vt 0.375000 1.000000
vt 0.375000 0.000000
vt 0.625000 0.000000
vt 0.625000 0.250000
vt 0.375000 0.250000
vt 0.125000 0.500000
vt 0.375000 0.500000
vt 0.125000 0.750000
vn 0.0000 1.0000 0.0000
vn 0.0000 0.0000 1.0000
vn -1.0000 0.0000 0.0000
vn 0.0000 -1.0000 0.0000
vn 1.0000 0.0000 0.0000
vn 0.0000 0.0000 -1.0000
usemtl Material
s off
f 1/1/1 5/2/1 7/3/1 3/4/1
f 4/5/2 3/4/2 7/6/2 8/7/2
f 8/8/3 7/9/3 5/10/3 6/11/3
f 6/12/4 2/13/4 4/5/4 8/14/4
f 2/13/5 1/1/5 3/4/5 4/5/5
f 6/11/6 5/10/6 1/1/6 2/13/6
o 678
v 7.242017 2.930622 1.149216
v 7.198437 2.975512 1.156026
v 7.245347 2.957632 1.153716
v 7.277196 2.921422 1.164346
v 7.274246 2.842343 1.171745
v 7.185977 2.865473 1.189585
v 7.296046 2.863203 1.181075
v 7.143938 2.956952 1.172235
v 7.129678 2.993221 1.178295
v 7.189787 2.982951 1.172375
v 7.311496 2.725945 1.227445
v 7.314126 2.798244 1.201785
v 7.307796 2.877123 1.199895
v 7.084309 2.891813 1.219375
v 7.082719 2.975921 1.198175
v 7.255426 2.941662 1.182645
v 7.109658 3.009621 1.202695
v 7.342066 2.739575 1.224685
v 7.341926 2.773634 1.231165
v 7.039599 2.962922 1.221245
v 7.170858 2.989831 1.204145
v 7.069239 2.992991 1.212925
v 7.142368 3.000991 1.199855
v 7.372675 2.671005 1.244645
v 7.384965 2.679225 1.249744
v 7.229707 2.657306 1.294874
v 7.044129 2.880993 1.253704
v 7.026430 2.929772 1.252764
v 7.037739 2.977802 1.232275
v 7.105788 3.008951 1.215345
v 7.061419 2.993871 1.230205
v 7.417944 2.607666 1.267544
v 7.406535 2.635566 1.260424
v 7.409884 2.663826 1.275314
v 7.315536 2.826753 1.250584
v 7.334166 2.801764 1.241594
v 7.203077 2.916122 1.248494
v 7.443584 2.604686 1.280814
v 7.107879 2.734295 1.312284
v 7.053799 2.831783 1.294004
v 7.033169 2.952122 1.257484
v 7.109188 2.982141 1.238734
v 7.504583 2.521667 1.305673
v 7.429985 2.532877 1.307693
v 7.507163 2.545347 1.309363
v 7.466464 2.595057 1.302894
v 7.193027 2.605486 1.343373
v 7.370635 2.723185 1.281074
v 7.461144 2.603656 1.320723
v 7.078689 2.765374 1.324933
v 7.041490 2.886092 1.292864
v 7.593712 2.465718 1.332143
v 7.675261 2.403619 1.341733
v 7.608402 2.431958 1.331723
v 7.553762 2.458158 1.323713
v 7.244997 2.526247 1.368753
v 7.536303 2.524707 1.331773
v 7.355945 2.725285 1.301104
v 7.280366 2.740805 1.332403
v 7.127538 2.901622 1.290114
v 7.035890 2.920892 1.289074
v 7.063659 2.944932 1.266484
v 7.777780 2.297830 1.370373
v 7.598242 2.349999 1.377723
v 7.693511 2.367069 1.356183
v 7.780260 2.329250 1.370423
v 7.711601 2.388909 1.358253
v 7.376565 2.428998 1.389312
v 7.195307 2.568297 1.378993
v 7.109519 2.706325 1.351603
v 7.077009 2.785584 1.328613
v 7.054799 2.862913 1.311524
v 7.073899 2.876663 1.306994
v 7.860439 2.251531 1.397732
v 7.869719 2.272310 1.399792
v 7.808179 2.325910 1.389042
v 7.635022 2.445968 1.358643
v 7.142518 2.653256 1.369243
v 7.435004 2.622846 1.335803
v 7.149118 2.788244 1.341043
v 7.905138 2.222731 1.416582
v 7.914368 2.192601 1.429042
v 7.802979 2.166192 1.464981
v 7.884708 2.268581 1.422562
v 7.729541 2.383059 1.380833
v 7.650491 2.429998 1.384702
v 7.548873 2.511927 1.355043
v 7.150908 2.642396 1.388543
v 7.102259 2.782674 1.340783
v 7.193987 2.703545 1.377473
v 7.622212 2.186202 1.480741
v 7.951218 2.167562 1.458062
v 7.923868 2.208141 1.439262
v 7.500953 2.267681 1.460062
v 7.285756 2.443338 1.422942
v 7.820960 2.317780 1.412682
v 7.729041 2.368809 1.413842
v 7.240577 2.487338 1.431712
v 7.194257 2.569307 1.406542
v 7.504283 2.471258 1.425702
v 7.123199 2.716085 1.362053
v 7.145638 2.731694 1.364013
v 7.947438 2.112113 1.494921
v 7.975828 2.136202 1.492121
v 7.897008 2.249171 1.452502
v 7.388485 2.331790 1.463691
v 7.284546 2.428529 1.452392
v 7.275986 2.594507 1.417122
v 7.178827 2.659225 1.389633
v 7.697691 2.072473 1.554810
v 7.573462 2.154832 1.529551
v 7.942398 2.182742 1.474901
v 7.334156 2.373579 1.472271
v 7.844009 2.255411 1.474881
v 7.697711 2.318430 1.476951
v 7.299206 2.420029 1.473641
v 7.240567 2.506518 1.445062
v 7.370115 2.455138 1.483561
v 7.213667 2.581517 1.415332
v 7.914788 2.006564 1.574610
v 7.995517 2.024924 1.560930
v 7.988017 2.087303 1.525141
v 7.471973 2.233051 1.514451
v 7.402485 2.295820 1.507731
v 7.811659 1.990924 1.605010
v 7.951668 2.152502 1.513951
v 7.377345 2.332220 1.515701
v 7.276346 2.471648 1.469491
v 7.473723 2.350119 1.529161
v 7.279576 2.503707 1.454872
v 8.006186 2.066713 1.552240
v 7.459054 2.237681 1.549180
v 7.815259 2.168172 1.573450
v 7.419505 2.285730 1.534201
v 7.627422 2.273880 1.547130
v 7.342435 2.415839 1.496471
v 8.032857 1.999714 1.593770
v 7.997187 1.938375 1.635419
v 7.637691 2.067463 1.593830
v 7.547412 2.155782 1.575740
v 7.932448 2.132772 1.552550
v 7.369735 2.356550 1.517221
v 7.395255 2.392779 1.512821
v 8.058426 1.936765 1.651989
v 8.056976 1.972664 1.636279
v 7.745200 1.986354 1.634309
v 7.993437 2.076023 1.573520
v 7.441124 2.277740 1.553810
v 7.566473 2.228511 1.597790
v 7.412224 2.343310 1.530751
v 7.615922 2.080793 1.610830
v 7.659951 2.040854 1.624449
v 7.967417 2.033983 1.639689
v 7.523763 2.189601 1.591630
v 7.701511 2.129612 1.639809
v 7.485514 2.278450 1.565510
v 7.913718 1.910085 1.663199
v 7.704591 2.005784 1.643329
v 8.035546 2.002074 1.623169
v 8.069606 1.949625 1.661289
v 7.596362 2.112633 1.620849
v 7.529843 2.210981 1.596060
v 7.844339 1.901915 1.702428
v 7.995447 1.877906 1.689899
v 8.047386 1.898395 1.686919
v 7.767430 1.957435 1.680979
v 7.670062 2.045163 1.645659
v 7.578972 2.147902 1.622219
v 7.847119 2.045074 1.674689
v 8.006137 1.855116 1.729278
v 8.063847 1.917895 1.685379
v 7.731750 1.994484 1.673819
v 7.608552 2.148042 1.630259
v 7.931908 1.862356 1.727648
v 8.041866 1.881966 1.717308
v 7.772740 1.962044 1.702318
v 8.036986 1.948355 1.679779
v 7.648541 2.090723 1.652009
v 7.663981 2.104703 1.652249
v 8.004046 1.852476 1.746848
v 7.819109 1.921035 1.722758
v 7.743600 2.012854 1.688069
v 7.944378 1.943855 1.728018
v 7.706931 2.074743 1.665429
v 7.765730 2.049103 1.679279
v 7.897718 1.852176 1.761808
v 7.862049 1.885985 1.748628
v 7.952788 1.849016 1.763558
v 8.023046 1.866106 1.738108
v 8.014497 1.903165 1.721258
v 7.815419 1.946535 1.727158
v 7.830409 1.983424 1.711078
v 7.863609 1.892705 1.758228
v 7.922778 1.843236 1.777508
v 7.967797 1.851756 1.764338
v 7.897778 1.860136 1.767008
v 7.966047 1.876066 1.760028
v 7.880239 1.910165 1.756038
v 7.914998 1.866906 1.766548
v 7.926128 1.897945 1.752688
vn 0.1232 -0.0359 -0.9917
vn -0.0075 0.4799 -0.8773
vn 0.5073 0.6823 -0.5263
vn 0.7688 0.3658 -0.5245
vn 0.1485 -0.2854 -0.9468
vn -0.2934 -0.3942 -0.8709
vn 0.6535 0.0001 -0.7569
vn -0.3253 -0.1089 -0.9393
vn -0.2467 0.5391 -0.8053
vn 0.3018 0.9266 -0.2243
vn -0.0642 -0.4016 -0.9136
vn 0.4922 -0.1559 -0.8564
vn 0.9061 0.4171 -0.0708
vn -0.4476 -0.3707 -0.8137
vn -0.4651 0.0671 -0.8827
vn 0.6312 0.7245 0.2768
vn -0.1064 0.9586 -0.2641
vn 0.4228 -0.0791 -0.9028
vn 0.8525 0.2265 -0.4712
vn -0.7198 0.0190 -0.6939
vn 0.4176 0.8026 0.4259
vn -0.5342 0.6300 -0.5637
vn 0.2872 0.9570 0.0416
vn 0.2493 -0.1562 -0.9557
vn 0.6049 0.1242 -0.7866
vn -0.3291 -0.4915 -0.8063
vn -0.7494 -0.3914 -0.5341
vn -0.9973 -0.0417 -0.0607
vn -0.8323 0.5432 -0.1109
vn 0.1130 0.9167 0.3833
vn -0.3346 0.8582 0.3893
vn 0.1682 -0.2529 -0.9528
vn 0.4249 -0.0430 -0.9042
vn 0.8141 0.4622 -0.3515
vn 0.6426 0.5624 0.5204
vn 0.9081 0.4114 0.0784
vn 0.4043 0.5795 0.7076
vn 0.6019 0.1934 -0.7748
vn -0.6883 -0.5316 -0.4935
vn -0.9400 -0.3400 -0.0291
vn -0.7097 0.4795 0.5161
vn 0.1626 0.6338 0.7562
vn 0.2395 -0.0854 -0.9671
vn -0.1742 -0.4671 -0.8669
vn 0.6261 0.3969 -0.6712
vn 0.7481 0.5430 -0.3815
vn -0.5172 -0.5274 -0.6741
vn 0.8152 0.5558 0.1628
vn 0.7492 0.6617 0.0302
vn -0.9151 -0.4019 0.0323
vn -0.9076 -0.0395 0.4181
vn 0.5030 0.4422 -0.7426
vn 0.2789 0.0988 -0.9552
vn 0.0788 -0.2060 -0.9754
vn -0.0753 -0.3801 -0.9219
vn -0.4512 -0.5769 -0.6809
vn 0.7030 0.6686 -0.2425
vn 0.5692 0.5766 0.5861
vn 0.3286 0.5190 0.7891
vn 0.1750 0.5051 0.8452
vn -0.4471 0.3967 0.8017
vn -0.0403 0.6008 0.7984
vn 0.0085 -0.3408 -0.9401
vn -0.1709 -0.5049 -0.8461
vn 0.0084 -0.2852 -0.9584
vn 0.3644 0.1525 -0.9187
vn 0.5575 0.6253 -0.5460
vn -0.2991 -0.5605 -0.7722
vn -0.7603 -0.5763 -0.2998
vn -0.8815 -0.3524 0.3142
vn -0.7699 -0.0931 0.6314
vn -0.4861 0.1338 0.8636
vn -0.0102 0.4033 0.9150
vn 0.1967 -0.2457 -0.9492
vn 0.6239 0.3410 -0.7031
vn 0.6142 0.6896 -0.3836
vn 0.6024 0.7870 -0.1331
vn -0.8669 -0.4967 0.0408
vn 0.5730 0.6415 0.5101
vn 0.0638 0.4064 0.9114
vn 0.5803 0.0173 -0.8142
vn 0.1883 -0.4534 -0.8712
vn -0.1112 -0.5942 -0.7966
vn 0.7491 0.6522 -0.1162
vn 0.5578 0.8286 0.0472
vn 0.4827 0.7935 0.3706
vn 0.6002 0.7444 0.2927
vn -0.6400 -0.1017 0.7616
vn -0.2412 0.2376 0.9409
vn 0.0527 0.3917 0.9186
vn -0.2205 -0.5983 -0.7703
vn 0.6465 -0.1681 -0.7442
vn 0.8400 0.3918 -0.3754
vn -0.3303 -0.6114 -0.7191
vn -0.5947 -0.6571 -0.4632
vn 0.5269 0.8056 0.2709
vn 0.4031 0.7459 0.5303
vn -0.8463 -0.5137 0.1408
vn -0.8229 -0.3136 0.4738
vn 0.3311 0.6218 0.7097
vn -0.4544 0.1137 0.8835
vn -0.1396 0.2987 0.9441
vn 0.1591 -0.5566 -0.8154
vn 0.9126 0.2349 -0.3347
vn 0.5998 0.7018 0.3843
vn -0.5118 -0.6772 -0.5287
vn -0.7748 -0.6321 0.0064
vn 0.0531 0.4143 0.9086
vn -0.1757 0.2448 0.9535
vn -0.2471 -0.6826 -0.6878
vn -0.4367 -0.7072 -0.5560
vn 0.8127 0.5723 0.1098
vn -0.7391 -0.6721 -0.0442
vn 0.3642 0.6868 0.6290
vn 0.3038 0.6578 0.6892
vn -0.7173 -0.3303 0.6136
vn -0.6129 -0.0184 0.7900
vn 0.0452 0.4612 0.8862
vn -0.3133 0.1846 0.9315
vn -0.0458 -0.6371 -0.7694
vn 0.2337 -0.5510 -0.8011
vn 0.6442 -0.2738 -0.7142
vn -0.5721 -0.7374 -0.3590
vn -0.7373 -0.6755 -0.0086
vn -0.1823 -0.7010 -0.6895
vn 0.6167 0.6524 0.4406
vn -0.7493 -0.4502 0.4857
vn -0.3947 0.1110 0.9121
vn 0.0833 0.4976 0.8634
vn -0.1593 0.3556 0.9210
vn 0.9158 0.3951 -0.0715
vn -0.7374 -0.6089 0.2925
vn 0.2746 0.6568 0.7023
vn -0.7426 -0.4845 0.4623
vn 0.2355 0.6153 0.7523
vn -0.2527 0.2242 0.9412
vn 0.6444 -0.3102 -0.6989
vn 0.1456 -0.6551 -0.7413
vn -0.5353 -0.7648 -0.3585
vn -0.7077 -0.7065 -0.0021
vn 0.3998 0.6824 0.6119
vn -0.4888 -0.0085 0.8724
vn -0.0631 0.3627 0.9298
vn 0.6881 -0.4643 -0.5576
vn 0.9597 0.1185 -0.2548
vn -0.3980 -0.8018 -0.4458
vn 0.6059 0.6602 0.4438
vn -0.5369 -0.1191 0.8352
vn -0.0159 0.4383 0.8987
vn -0.1745 0.2708 0.9467
vn -0.7198 -0.6753 0.1612
vn -0.6633 -0.7412 0.1033
vn 0.3687 0.6569 0.6577
vn -0.6688 -0.3697 0.6450
vn 0.0813 0.5049 0.8593
vn -0.1812 0.3196 0.9301
vn -0.1297 -0.7424 -0.6573
vn -0.6333 -0.7718 0.0571
vn 0.6672 0.6425 0.3767
vn 0.8371 0.4274 0.3416
vn -0.6860 -0.4676 0.5575
vn -0.3372 0.1369 0.9314
vn -0.4581 -0.8352 -0.3043
vn 0.0670 -0.7837 -0.6175
vn 0.5295 -0.7039 -0.4734
vn -0.6521 -0.7489 0.1182
vn -0.6466 -0.5025 0.5739
vn -0.4794 -0.0803 0.8739
vn 0.1559 0.5751 0.8031
vn 0.2542 -0.9285 -0.2708
vn 0.9585 -0.0655 0.2775
vn -0.6926 -0.4733 0.5442
vn -0.1729 0.2679 0.9478
vn -0.1398 -0.8943 -0.4250
vn 0.7743 -0.6255 0.0960
vn -0.6670 -0.3629 0.6507
vn 0.4571 0.5400 0.7067
vn -0.3915 -0.0434 0.9192
vn -0.1059 0.3064 0.9460
vn 0.4815 -0.7806 0.3985
vn -0.6995 -0.5527 0.4530
vn -0.3893 0.0448 0.9200
vn 0.2166 0.5281 0.8211
vn -0.1017 0.2982 0.9491
vn -0.0322 0.3935 0.9188
vn -0.4393 -0.8942 0.0858
vn -0.6970 -0.6201 0.3601
vn 0.0787 -0.9904 0.1136
vn 0.6384 -0.0339 0.7690
vn 0.4605 0.4380 0.7721
vn -0.4229 0.0903 0.9017
vn -0.0513 0.4451 0.8940
vn -0.4750 -0.1188 0.8720
vn -0.1101 -0.5758 0.8101
vn 0.3154 -0.3061 0.8982
vn -0.4958 -0.3377 0.8000
vn 0.2449 0.3282 0.9123
vn -0.0362 0.3637 0.9308
vn -0.0092 0.1814 0.9834
vn 0.1143 0.3967 0.9108
usemtl mtl1.625
s 1
f 9//7 10//8 11//9
f 12//10 9//7 11//9
f 13//11 14//12 9//7
f 15//13 13//11 9//7
f 9//7 14//12 16//14
f 15//13 9//7 12//10
f 9//7 16//14 10//8
f 10//8 16//14 17//15
f 18//16 10//8 17//15
f 11//9 10//8 18//16
f 19//17 13//11 20//18
f 20//18 13//11 15//13
f 15//13 12//10 21//19
f 14//12 22//20 16//14
f 16//14 22//20 23//21
f 12//10 11//9 24//22
f 21//19 12//10 24//22
f 16//14 23//21 17//15
f 18//16 17//15 25//23
f 20//18 26//24 19//17
f 13//11 19//17 14//12
f 27//25 26//24 20//18
f 27//25 15//13 21//19
f 20//18 15//13 27//25
f 22//20 28//26 23//21
f 11//9 18//16 24//22
f 18//16 29//27 24//22
f 23//21 28//26 30//28
f 17//15 23//21 30//28
f 18//16 25//23 31//29
f 18//16 31//29 29//27
f 32//30 19//17 26//24
f 26//24 33//31 32//30
f 26//24 27//25 33//31
f 19//17 34//32 14//12
f 14//12 34//32 22//20
f 28//26 22//20 35//33
f 36//34 28//26 35//33
f 36//34 37//35 28//26
f 28//26 37//35 30//28
f 30//28 25//23 17//15
f 25//23 38//36 31//29
f 25//23 30//28 39//37
f 38//36 25//23 39//37
f 40//38 19//17 32//30
f 41//39 32//30 33//31
f 33//31 27//25 42//40
f 21//19 43//41 44//42
f 24//22 43//41 21//19
f 43//41 24//22 45//43
f 24//22 29//27 45//43
f 39//37 30//28 37//35
f 31//29 38//36 29//27
f 46//44 40//38 41//39
f 41//39 40//38 32//30
f 46//44 41//39 33//31
f 33//31 42//40 46//44
f 34//32 47//45 22//20
f 27//25 21//19 44//42
f 22//20 47//45 35//33
f 35//33 47//45 48//46
f 35//33 48//46 36//34
f 36//34 49//47 37//35
f 45//43 29//27 50//48
f 49//47 39//37 37//35
f 50//48 29//27 38//36
f 51//49 52//50 40//38
f 46//44 53//51 51//49
f 52//50 34//32 19//17
f 52//50 19//17 40//38
f 46//44 51//49 40//38
f 54//52 53//51 46//44
f 46//44 42//40 54//52
f 55//53 47//45 34//32
f 42//40 56//54 57//55
f 42//40 27//25 56//54
f 27//25 44//42 56//54
f 47//45 58//56 48//46
f 44//42 43//41 56//54
f 48//46 59//57 36//34
f 36//34 59//57 49//47
f 38//36 39//37 50//48
f 60//58 61//59 62//60
f 63//61 52//50 51//49
f 51//49 62//60 63//61
f 60//58 62//60 51//49
f 53//51 60//58 51//49
f 64//62 55//53 34//32
f 65//63 53//51 54//52
f 54//52 42//40 57//55
f 66//64 43//41 67//65
f 66//64 56//54 43//41
f 43//41 45//43 67//65
f 67//65 45//43 68//66
f 49//47 59//57 69//67
f 69//67 70//68 49//47
f 45//43 50//48 68//66
f 39//37 49//47 70//68
f 50//48 39//37 70//68
f 68//66 50//48 70//68
f 71//69 72//70 73//71
f 74//72 71//69 73//71
f 73//71 72//70 62//60
f 75//73 74//72 61//59
f 61//59 74//72 73//71
f 72//70 63//61 62//60
f 61//59 73//71 62//60
f 60//58 75//73 61//59
f 76//74 34//32 52//50
f 34//32 76//74 64//62
f 65//63 60//58 53//51
f 54//52 57//55 65//63
f 77//75 47//45 55//53
f 47//45 78//76 58//56
f 58//56 79//77 48//46
f 48//46 79//77 59//57
f 69//67 59//57 80//78
f 81//79 70//68 69//67
f 68//66 70//68 81//79
f 82//80 71//69 74//72
f 74//72 83//81 82//80
f 84//82 83//81 74//72
f 74//72 75//73 84//82
f 72//70 76//74 52//50
f 63//61 72//70 52//50
f 60//58 85//83 75//73
f 85//83 60//58 65//63
f 64//62 77//75 55//53
f 86//84 47//45 77//75
f 78//76 47//45 86//84
f 56//54 87//85 57//55
f 56//54 66//64 87//85
f 78//76 79//77 58//56
f 79//77 80//78 59//57
f 80//78 81//79 69//67
f 67//65 68//66 88//86
f 88//86 68//66 81//79
f 82//80 89//87 90//88
f 91//89 71//69 82//80
f 91//89 72//70 71//69
f 83//81 89//87 82//80
f 83//81 84//82 92//90
f 93//91 84//82 75//73
f 93//91 75//73 85//83
f 94//92 93//91 85//83
f 65//63 95//93 85//83
f 95//93 57//55 87//85
f 95//93 65//63 57//55
f 78//76 86//84 96//94
f 87//85 66//64 67//65
f 97//95 80//78 79//77
f 98//96 67//65 88//86
f 97//95 81//79 80//78
f 88//86 81//79 97//95
f 99//97 72//70 91//89
f 90//88 91//89 82//80
f 89//87 100//98 90//88
f 89//87 101//99 100//98
f 99//97 102//100 72//70
f 89//87 83//81 101//99
f 102//100 76//74 72//70
f 92//90 101//99 83//81
f 103//101 64//62 76//74
f 104//102 84//82 93//91
f 105//103 104//102 93//91
f 105//103 93//91 94//92
f 103//101 106//104 77//75
f 103//101 77//75 64//62
f 95//93 94//92 85//83
f 107//105 77//75 106//104
f 77//75 107//105 86//84
f 86//84 107//105 96//94
f 108//106 87//85 67//65
f 96//94 109//107 78//76
f 109//107 97//95 79//77
f 78//76 109//107 79//77
f 98//96 88//86 110//108
f 110//108 88//86 97//95
f 111//109 91//89 90//88
f 100//98 111//109 90//88
f 101//99 112//110 100//98
f 92//90 104//102 113//111
f 84//82 104//102 92//90
f 76//74 114//112 103//101
f 115//113 106//104 103//101
f 94//92 108//106 105//103
f 95//93 108//106 94//92
f 95//93 87//85 108//106
f 98//96 116//114 67//65
f 108//106 67//65 116//114
f 117//115 110//108 109//107
f 110//108 97//95 109//107
f 117//115 98//96 110//108
f 118//116 99//97 91//89
f 102//100 99//97 119//117
f 101//99 92//90 120//118
f 102//100 114//112 76//74
f 114//112 121//119 103//101
f 104//102 122//120 113//111
f 121//119 115//113 103//101
f 123//121 122//120 105//103
f 104//102 105//103 122//120
f 123//121 105//103 108//106
f 106//104 124//122 125//123
f 124//122 106//104 115//113
f 116//114 126//124 108//106
f 96//94 107//105 127//125
f 127//125 117//115 96//94
f 117//115 109//107 96//94
f 127//125 116//114 117//115
f 116//114 98//96 117//115
f 128//126 111//109 129//127
f 129//127 111//109 130//128
f 111//109 128//126 91//89
f 118//116 119//117 99//97
f 111//109 100//98 130//128
f 130//128 100//98 112//110
f 112//110 101//99 120//118
f 102//100 131//129 114//112
f 131//129 132//130 114//112
f 92//90 113//111 120//118
f 114//112 132//130 121//119
f 106//104 125//123 107//105
f 127//125 107//105 125//123
f 91//89 128//126 133//131
f 120//118 113//111 134//132
f 122//120 134//132 113//111
f 121//119 132//130 135//133
f 121//119 124//122 115//113
f 124//122 136//134 125//123
f 137//135 108//106 126//124
f 136//134 138//136 125//123
f 138//136 127//125 125//123
f 126//124 116//114 138//136
f 127//125 138//136 116//114
f 130//128 112//110 139//137
f 102//100 119//117 131//129
f 112//110 120//118 139//137
f 140//138 132//130 131//129
f 122//120 123//121 141//139
f 142//140 135//133 132//130
f 141//139 123//121 143//141
f 121//119 135//133 124//122
f 123//121 108//106 143//141
f 137//135 143//141 108//106
f 136//134 144//142 138//136
f 126//124 138//136 144//142
f 129//127 145//143 146//144
f 91//89 133//131 118//116
f 130//128 145//143 129//127
f 119//117 118//116 147//145
f 131//129 119//117 148//146
f 148//146 119//117 147//145
f 134//132 139//137 120//118
f 131//129 148//146 140//138
f 141//139 149//147 122//120
f 142//140 132//130 140//138
f 134//132 122//120 149//147
f 135//133 150//148 124//122
f 124//122 150//148 144//142
f 124//122 144//142 136//134
f 151//149 126//124 144//142
f 137//135 126//124 151//149
f 129//127 146//144 128//126
f 152//150 145//143 153//151
f 147//145 118//116 154//152
f 118//116 133//131 154//152
f 139//137 153//151 145//143
f 145//143 130//128 139//137
f 134//132 155//153 139//137
f 134//132 149//147 155//153
f 142//140 140//138 156//154
f 142//140 156//154 135//133
f 150//148 135//133 156//154
f 143//141 137//135 157//155
f 150//148 158//156 144//142
f 151//149 144//142 158//156
f 145//143 152//150 146//144
f 159//157 147//145 160//158
f 159//157 148//146 147//145
f 155//153 149//147 161//159
f 140//138 148//146 162//160
f 140//138 162//160 156//154
f 143//141 163//161 141//139
f 157//155 163//161 143//141
f 156//154 158//156 150//148
f 164//162 158//156 156//154
f 158//156 164//162 137//135
f 137//135 151//149 158//156
f 128//126 165//163 133//131
f 146//144 165//163 128//126
f 147//145 166//164 160//158
f 154//152 166//164 147//145
f 153//151 167//165 168//166
f 153//151 139//137 167//165
f 167//165 139//137 155//153
f 161//159 167//165 155//153
f 148//146 159//157 169//167
f 148//146 169//167 162//160
f 156//154 162//160 170//168
f 164//162 156//154 170//168
f 164//162 157//155 137//135
f 154//152 133//131 171//169
f 171//169 133//131 165//163
f 146//144 172//170 165//163
f 146//144 152//150 173//171
f 174//172 166//164 154//152
f 160//158 166//164 175//173
f 160//158 175//173 159//157
f 169//167 176//174 162//160
f 177//175 141//139 163//161
f 176//174 170//168 162//160
f 157//155 164//162 170//168
f 172//170 173//171 178//176
f 173//171 172//170 146//144
f 174//172 154//152 171//169
f 152//150 153//151 179//177
f 180//178 166//164 174//172
f 179//177 153//151 168//166
f 180//178 175//173 166//164
f 159//157 175//173 169//167
f 141//139 177//175 161//159
f 161//159 149//147 141//139
f 181//179 170//168 176//174
f 157//155 181//179 163//161
f 181//179 157//155 170//168
f 165//163 172//170 182//180
f 182//180 172//170 178//176
f 173//171 183//181 178//176
f 173//171 179//177 183//181
f 173//171 152//150 179//177
f 184//182 180//178 174//172
f 168//166 185//183 179//177
f 168//166 167//165 185//183
f 167//165 161//159 185//183
f 175//173 186//184 169//167
f 169//167 186//184 176//174
f 186//184 181//179 176//174
f 187//185 181//179 186//184
f 163//161 181//179 187//185
f 171//169 165//163 182//180
f 178//176 183//181 188//186
f 189//187 174//172 171//169
f 174//172 189//187 184//182
f 180//178 190//188 175//173
f 180//178 184//182 190//188
f 191//189 161//159 177//175
f 185//183 161//159 191//189
f 190//188 192//190 186//184
f 175//173 190//188 186//184
f 186//184 192//190 187//185
f 193//191 163//161 192//190
f 177//175 163//161 193//191
f 163//161 187//185 192//190
f 171//169 194//192 195//193
f 171//169 182//180 194//192
f 178//176 196//194 182//180
f 188//186 196//194 178//176
f 171//169 195//193 189//187
f 183//181 197//195 188//186
f 183//181 179//177 197//195
f 197//195 179//177 198//196
f 189//187 199//197 184//182
f 198//196 179//177 185//183
f 198//196 185//183 191//189
f 184//182 199//197 190//188
f 200//198 191//189 177//175
f 190//188 200//198 193//191
f 193//191 192//190 190//188
f 177//175 193//191 200//198
f 194//192 182//180 196//194
f 189//187 201//199 199//197
f 189//187 195//193 201//199
f 200//198 190//188 199//197
f 196//194 202//200 194//192
f 188//186 203//201 196//194
f 195//193 194//192 204//202
f 197//195 205//203 203//201
f 188//186 197//195 203//201
f 195//193 204//202 201//199
f 197//195 198//196 205//203
f 206//204 199//197 201//199
f 198//196 191//189 205//203
f 206//204 200//198 199//197
f 191//189 200//198 206//204
f 196//194 203//201 202//200
f 194//192 202//200 204//202
f 201//199 204//202 207//205
f 207//205 206//204 201//199
f 207//205 208//206 206//204
f 208//206 191//189 206//204
f 205//203 191//189 208//206
f 202//200 207//205 204//202
f 203//201 207//205 202//200
f 203//201 205//203 207//205
f 207//205 205//203 208//206
