# Blender v2.92.0 OBJ File: 'convert_to_one_sided.blend'
# www.blender.org
mtllib 689L.mtl
o Cube
v 0.001000 0.001000 -0.001000
v 0.001000 -0.001000 -0.001000
v 0.001000 0.001000 0.001000
v 0.001000 -0.001000 0.001000
v -0.001000 0.001000 -0.001000
v -0.001000 -0.001000 -0.001000
v -0.001000 0.001000 0.001000
v -0.001000 -0.001000 0.001000
vt 0.625000 0.500000
vt 0.875000 0.500000
vt 0.875000 0.750000
vt 0.625000 0.750000
vt 0.375000 0.750000
vt 0.625000 1.000000
vt 0.375000 1.000000
vt 0.375000 0.000000
vt 0.625000 0.000000
vt 0.625000 0.250000
vt 0.375000 0.250000
vt 0.125000 0.500000
vt 0.375000 0.500000
vt 0.125000 0.750000
vn 0.0000 1.0000 0.0000
vn 0.0000 0.0000 1.0000
vn -1.0000 0.0000 0.0000
vn 0.0000 -1.0000 0.0000
vn 1.0000 0.0000 0.0000
vn 0.0000 0.0000 -1.0000
usemtl Material
s off
f 1/1/1 5/2/1 7/3/1 3/4/1
f 4/5/2 3/4/2 7/6/2 8/7/2
f 8/8/3 7/9/3 5/10/3 6/11/3
f 6/12/4 2/13/4 4/5/4 8/14/4
f 2/13/5 1/1/5 3/4/5 4/5/5
f 6/11/6 5/10/6 1/1/6 2/13/6
o 689
v 5.432400 6.817991 4.761540
v 5.375201 6.876221 4.760600
v 5.437050 6.882651 4.750900
v 5.465380 6.850821 4.763160
v 5.463670 6.900920 4.763469
v 5.487959 6.836271 4.795499
v 5.396960 6.926460 4.773479
v 5.451410 6.939810 4.799399
v 5.459530 6.787501 4.794279
v 5.354981 6.745192 4.834499
v 5.341261 6.820351 4.795609
v 5.267572 6.856941 4.813089
v 5.285902 6.915110 4.805649
v 5.299712 6.952320 4.815979
v 5.350601 6.969359 4.852708
v 5.431970 6.736222 4.848588
v 5.477389 6.779032 4.840508
v 5.486839 6.891690 4.827359
v 5.493109 6.832781 4.854179
v 5.427770 6.963470 4.874498
v 5.364381 6.718763 4.873878
v 5.248752 6.789892 4.850988
v 5.204363 6.827661 4.855248
v 5.177343 6.871581 4.869008
v 5.467189 6.932940 4.870148
v 5.192073 6.932550 4.869848
v 5.222163 6.970729 4.921507
v 5.198763 6.735202 4.923898
v 5.303872 6.718763 4.902518
v 5.451920 6.741982 4.896048
v 5.160873 6.803951 4.902458
v 5.360261 6.722093 4.905498
v 5.483189 6.801882 4.903108
v 5.481189 6.878780 4.903098
v 5.102734 6.909440 4.936038
v 5.141184 6.946579 4.948027
v 5.438130 6.940979 4.927217
v 5.364511 6.973949 4.938128
v 5.457350 6.769852 4.938487
v 5.086655 6.825381 4.961807
v 5.285352 6.983969 4.954678
v 5.351661 6.744572 4.967907
v 5.114154 6.766012 4.968717
v 5.244153 6.727212 4.960887
v 5.466860 6.825121 4.952087
v 5.058535 6.873920 5.012617
v 5.091855 6.925310 5.010726
v 5.153824 6.961400 5.010477
v 5.223712 6.979579 4.999907
v 5.136054 6.744402 5.008246
v 5.080245 6.778932 5.020876
v 5.450360 6.890770 4.965207
v 5.424730 6.791081 4.976507
v 5.060775 6.821251 5.031036
v 5.374121 6.944890 5.000787
v 5.285632 6.971709 5.008736
v 5.247212 6.748682 5.007936
v 5.331641 6.790411 5.020056
v 5.420560 6.845521 4.994617
v 5.399381 6.898840 5.011276
v 5.070485 6.894100 5.061016
v 5.333451 6.871721 5.049716
v 5.061805 6.844361 5.057966
v 5.333121 6.924900 5.046246
v 5.119404 6.937749 5.052206
v 5.290042 6.950400 5.047706
v 5.199513 6.773082 5.047006
v 5.115884 6.773712 5.050146
v 5.083415 6.812941 5.059505
v 5.247942 6.819961 5.065606
v 5.207533 6.951789 5.044666
v 5.101305 6.864851 5.081386
v 5.243982 6.916430 5.072145
v 5.151574 6.912180 5.068926
v 5.167103 6.830821 5.073656
v 5.235043 6.868891 5.075146
v 5.179153 6.878761 5.073536
vn -0.0126 -0.4091 -0.9124
vn -0.3015 -0.0179 -0.9533
vn 0.0964 0.1167 -0.9885
vn 0.5436 -0.1911 -0.8173
vn 0.6226 0.3723 -0.6883
vn 0.9130 -0.1411 -0.3827
vn -0.0601 0.6097 -0.7904
vn 0.4858 0.8011 -0.3496
vn 0.4665 -0.6155 -0.6352
vn -0.1712 -0.7214 -0.6710
vn -0.3434 -0.4001 -0.8497
vn -0.4482 -0.1761 -0.8764
vn -0.4310 0.2397 -0.8699
vn -0.2630 0.7479 -0.6094
vn 0.0294 0.9639 -0.2645
vn 0.3334 -0.8954 -0.2952
vn 0.8423 -0.5126 -0.1665
vn 0.9452 0.3079 -0.1081
vn 0.9977 -0.0638 0.0237
vn 0.4019 0.9154 0.0215
vn 0.0298 -0.9726 -0.2305
vn -0.4135 -0.4776 -0.7752
vn -0.5354 -0.2857 -0.7948
vn -0.6136 -0.0194 -0.7893
vn 0.7947 0.5993 0.0966
vn -0.5163 0.5539 -0.6531
vn -0.2502 0.9381 -0.2396
vn -0.3694 -0.8216 -0.4343
vn -0.1167 -0.9802 -0.1598
vn 0.5785 -0.7954 0.1807
vn -0.5899 -0.3903 -0.7068
vn 0.1618 -0.9700 0.1816
vn 0.9420 -0.2562 0.2167
vn 0.9354 0.2258 0.2720
vn -0.7599 0.3729 -0.5325
vn -0.4909 0.8227 -0.2867
vn 0.6507 0.6741 0.3494
vn 0.2656 0.9468 0.1815
vn 0.6557 -0.5372 0.5306
vn -0.8105 -0.2321 -0.5378
vn 0.0256 0.9996 0.0135
vn 0.2565 -0.8069 0.5321
vn -0.6279 -0.6455 -0.4348
vn -0.0074 -0.9765 0.2153
vn 0.8085 -0.1005 0.5798
vn -0.9726 0.1939 -0.1284
vn -0.6824 0.7299 -0.0384
vn -0.3249 0.9388 0.1147
vn -0.0960 0.9724 0.2128
vn -0.2359 -0.9420 0.2388
vn -0.7478 -0.6562 0.1008
vn 0.7569 0.2930 0.5842
vn 0.4868 -0.4278 0.7616
vn -0.9439 -0.3223 0.0725
vn 0.4818 0.6909 0.5390
vn 0.1502 0.9119 0.3820
vn 0.1302 -0.8158 0.5635
vn 0.3277 -0.5040 0.7991
vn 0.5685 -0.1297 0.8124
vn 0.5910 0.2067 0.7797
vn -0.6615 0.4545 0.5966
vn 0.3757 -0.0935 0.9220
vn -0.8278 -0.1069 0.5507
vn 0.4041 0.3340 0.8516
vn -0.3302 0.7706 0.5451
vn 0.1933 0.6926 0.6950
vn 0.0951 -0.6371 0.7649
vn -0.2357 -0.6464 0.7257
vn -0.4924 -0.4390 0.7516
vn 0.1964 -0.3238 0.9255
vn -0.0512 0.7677 0.6387
vn -0.2055 0.0128 0.9786
vn 0.0937 0.2722 0.9577
vn -0.0850 0.3897 0.9170
vn -0.0015 -0.2485 0.9686
vn 0.1094 -0.0414 0.9931
vn 0.0133 0.0710 0.9974
usemtl mtl1.633
s 1
f 9//7 10//8 11//9
f 12//10 9//7 11//9
f 13//11 14//12 12//10
f 11//9 10//8 15//13
f 13//11 11//9 15//13
f 13//11 12//10 11//9
f 13//11 15//13 16//14
f 17//15 18//16 9//7
f 17//15 9//7 12//10
f 17//15 12//10 14//12
f 9//7 19//17 10//8
f 10//8 20//18 21//19
f 21//19 15//13 10//8
f 21//19 22//20 15//13
f 23//21 15//13 22//20
f 16//14 15//13 23//21
f 24//22 18//16 17//15
f 18//16 19//17 9//7
f 17//15 14//12 25//23
f 19//17 20//18 10//8
f 14//12 26//24 27//25
f 14//12 13//11 26//24
f 16//14 26//24 13//11
f 16//14 23//21 28//26
f 29//27 18//16 24//22
f 18//16 30//28 19//17
f 30//28 31//29 20//18
f 19//17 30//28 20//18
f 25//23 14//12 27//25
f 32//30 21//19 20//18
f 26//24 16//14 33//31
f 21//19 34//32 22//20
f 22//20 35//33 23//21
f 20//18 31//29 32//30
f 21//19 32//30 34//32
f 34//32 35//33 22//20
f 36//34 18//16 37//35
f 37//35 18//16 29//27
f 18//16 36//34 30//28
f 24//22 25//23 38//36
f 17//15 25//23 24//22
f 30//28 39//37 31//29
f 16//14 28//26 33//31
f 37//35 29//27 40//38
f 24//22 40//38 29//27
f 24//22 38//36 40//38
f 41//39 38//36 25//23
f 36//34 39//37 30//28
f 31//29 39//37 32//30
f 27//25 26//24 42//40
f 34//32 43//41 44//42
f 34//32 32//30 43//41
f 42//40 26//24 33//31
f 34//32 44//42 35//33
f 28//26 45//43 33//31
f 28//26 23//21 46//44
f 47//45 38//36 41//39
f 41//39 25//23 27//25
f 39//37 48//46 32//30
f 48//46 43//41 32//30
f 23//21 35//33 49//47
f 23//21 49//47 46//44
f 28//26 46//44 45//43
f 38//36 50//48 40//38
f 38//36 47//45 50//48
f 39//37 36//34 51//49
f 39//37 51//49 48//46
f 41//39 27//25 42//40
f 33//31 45//43 42//40
f 37//35 40//38 52//50
f 52//50 36//34 37//35
f 53//51 47//45 41//39
f 53//51 41//39 42//40
f 48//46 54//52 43//41
f 55//53 43//41 54//52
f 43//41 55//53 44//42
f 44//42 56//54 35//33
f 35//33 56//54 57//55
f 49//47 35//33 57//55
f 51//49 36//34 58//56
f 58//56 36//34 52//50
f 59//57 48//46 51//49
f 60//58 53//51 42//40
f 45//43 60//58 42//40
f 51//49 58//56 59//57
f 40//38 50//48 52//50
f 61//59 50//48 47//45
f 47//45 53//51 61//59
f 48//46 59//57 62//60
f 54//52 48//46 62//60
f 60//58 45//43 63//61
f 44//42 55//53 56//54
f 64//62 63//61 46//44
f 63//61 45//43 46//44
f 46//44 49//47 64//62
f 52//50 65//63 58//56
f 50//48 65//63 52//50
f 50//48 61//59 66//64
f 61//59 53//51 67//65
f 53//51 60//58 67//65
f 68//66 67//65 60//58
f 54//52 69//67 55//53
f 60//58 63//61 68//66
f 57//55 64//62 49//47
f 50//48 66//64 65//63
f 61//59 67//65 66//64
f 66//64 67//65 70//68
f 62//60 71//69 54//52
f 67//65 68//66 70//68
f 68//66 63//61 72//70
f 55//53 69//67 73//71
f 55//53 73//71 56//54
f 63//61 74//72 72//70
f 63//61 64//62 74//72
f 58//56 65//63 75//73
f 59//57 58//56 76//74
f 75//73 76//74 58//56
f 62//60 59//57 77//75
f 77//75 59//57 76//74
f 77//75 71//69 62//60
f 70//68 78//76 66//64
f 71//69 69//67 54//52
f 72//70 70//68 68//66
f 56//54 73//71 79//77
f 56//54 79//77 57//55
f 66//64 75//73 65//63
f 78//76 75//73 66//64
f 80//78 69//67 71//69
f 70//68 72//70 81//79
f 72//70 74//72 81//79
f 73//71 82//80 79//77
f 79//77 74//72 64//62
f 64//62 57//55 79//77
f 76//74 75//73 83//81
f 83//81 77//75 76//74
f 83//81 75//73 78//76
f 77//75 80//78 71//69
f 78//76 84//82 83//81
f 78//76 70//68 84//82
f 80//78 82//80 69//67
f 84//82 70//68 81//79
f 73//71 69//67 82//80
f 82//80 81//79 79//77
f 81//79 74//72 79//77
f 83//81 80//78 77//75
f 83//81 85//83 80//78
f 84//82 85//83 83//81
f 85//83 82//80 80//78
f 84//82 81//79 85//83
f 81//79 82//80 85//83
