# Blender v2.92.0 OBJ File: 'convert_to_one_sided.blend'
# www.blender.org
mtllib 690L.mtl
o 690
v 6.847042 5.194952 5.020336
v 6.671874 5.110883 5.036156
v 6.866182 5.233992 5.013977
v 6.710634 5.209932 5.025907
v 6.885992 5.302881 5.016656
v 7.058099 5.263311 5.026526
v 6.776093 5.310861 5.045586
v 7.123158 5.338710 5.017566
v 6.906391 5.354790 5.034646
v 7.273036 5.331440 5.033366
v 7.337146 5.390810 5.029686
v 7.056989 5.379090 5.029506
v 7.221247 5.404229 5.028096
v 7.365315 5.459458 5.042986
v 6.581455 5.091643 5.039876
v 6.483047 4.965955 5.054546
v 6.453057 4.992445 5.053216
v 6.577855 5.136503 5.050336
v 6.788622 5.137243 5.046446
v 6.715404 5.069544 5.082315
v 6.939970 5.188182 5.059136
v 6.672314 5.236231 5.052176
v 7.194537 5.277251 5.050166
v 7.093589 5.237922 5.062196
v 7.320616 5.308671 5.063386
v 6.884681 5.379530 5.065766
v 7.427335 5.371260 5.065886
v 7.020730 5.409599 5.054366
v 7.446004 5.435469 5.056826
v 7.200507 5.447739 5.053456
v 7.481694 5.483219 5.065835
v 7.345055 5.506178 5.067716
v 7.451794 5.520038 5.076215
v 6.374868 4.887066 5.063356
v 6.304879 4.816217 5.096255
v 6.358068 4.916476 5.085266
v 6.406237 4.856437 5.093165
v 6.565255 4.967745 5.090365
v 6.386268 4.982305 5.106335
v 6.474486 5.055034 5.077085
v 6.841002 5.132633 5.081516
v 6.588205 5.186702 5.083545
v 7.228597 5.265071 5.088396
v 6.704074 5.290201 5.085135
v 6.793912 5.349040 5.093925
v 6.981360 5.424049 5.094105
v 7.529393 5.434609 5.106965
v 7.117158 5.460079 5.095315
v 7.264127 5.504919 5.095806
v 7.519993 5.510238 5.096275
v 6.339058 4.791808 5.125365
v 6.298719 4.836877 5.115515
v 6.295219 4.805507 5.114035
v 6.338129 4.909326 5.114145
v 6.488506 4.875446 5.125695
v 6.646305 4.996544 5.127815
v 6.809493 5.105043 5.127445
v 6.488856 5.094753 5.111615
v 6.928341 5.164022 5.116515
v 7.056859 5.213762 5.104156
v 7.422324 5.323190 5.109435
v 6.731614 5.318201 5.125695
v 7.506383 5.369150 5.119935
v 6.886191 5.389910 5.118145
v 7.557753 5.462929 5.155185
v 7.392515 5.546227 5.110555
v 7.484154 5.549017 5.120745
v 6.306129 4.800597 5.136965
v 6.415497 4.816047 5.145875
v 6.716954 5.049724 5.133265
v 6.557355 5.170932 5.116595
v 6.624685 5.223532 5.128805
v 7.328576 5.284951 5.129795
v 7.531893 5.354300 5.159434
v 7.541603 5.384840 5.150334
v 6.969710 5.417929 5.139105
v 7.070289 5.447839 5.135005
v 7.165917 5.481538 5.136245
v 7.219677 5.499498 5.125815
v 7.526613 5.513008 5.169825
v 6.356998 4.785667 5.176204
v 6.344628 4.915516 5.147604
v 6.564985 4.928835 5.140615
v 6.428277 5.021504 5.142125
v 6.516816 5.113703 5.146305
v 7.197187 5.254382 5.139565
v 7.036819 5.213502 5.161224
v 7.439034 5.320040 5.154735
v 7.551563 5.398019 5.181414
v 7.319806 5.537328 5.136105
v 7.386625 5.563528 5.146854
v 7.493223 5.556588 5.181365
v 7.436264 5.563617 5.168825
v 6.417647 4.803217 5.189214
v 6.311019 4.827087 5.168075
v 6.489606 4.861726 5.176794
v 6.589345 4.944335 5.171615
v 6.662124 5.006734 5.162575
v 6.724854 5.058134 5.167954
v 6.810402 5.119533 5.178294
v 6.894171 5.157232 5.158585
v 7.356915 5.310011 5.186894
v 6.713114 5.280311 5.166904
v 6.810513 5.344380 5.146345
v 6.925701 5.385870 5.165385
v 7.254056 5.509188 5.158675
v 7.363385 5.542878 5.182175
v 6.330789 4.798167 5.186304
v 6.362918 4.896796 5.198924
v 7.183727 5.272061 5.182175
v 6.571045 5.130983 5.189524
v 7.067529 5.434489 5.170054
v 7.162898 5.471118 5.159885
v 7.492243 5.528488 5.228583
v 6.388938 4.788328 5.203914
v 6.432777 4.831887 5.217904
v 6.635015 4.992405 5.195874
v 6.440277 5.003775 5.177234
v 7.497093 5.354850 5.195164
v 6.847612 5.324121 5.193364
v 7.040649 5.393820 5.197584
v 7.222657 5.468129 5.197794
v 7.536743 5.457329 5.219434
v 7.444294 5.554088 5.208594
v 7.466664 5.549298 5.197074
v 6.369948 4.806067 5.208974
v 6.362138 4.850246 5.208634
v 6.537936 4.917466 5.208084
v 6.758343 5.103313 5.207424
v 6.925771 5.188122 5.192234
v 7.072159 5.253351 5.197404
v 6.701794 5.219122 5.201594
v 7.201077 5.310290 5.212474
v 7.345406 5.340840 5.221663
v 7.436044 5.364530 5.230014
v 6.451407 4.961975 5.217504
v 6.614995 5.009944 5.223804
v 6.726923 5.123143 5.228174
v 6.578795 5.010075 5.240263
v 6.640574 5.108123 5.226124
v 6.954660 5.224162 5.214244
v 6.807732 5.249791 5.217494
v 7.077719 5.315480 5.226634
v 6.962551 5.318501 5.216444
v 7.315356 5.384019 5.241773
v 7.513913 5.404280 5.230034
v 7.152938 5.388440 5.219114
v 7.343825 5.451819 5.248193
v 7.390485 5.509238 5.223773
v 6.428187 4.877376 5.227874
v 6.507586 4.928346 5.228754
v 6.523046 4.975415 5.227844
v 6.861512 5.223001 5.220614
v 7.378825 5.429889 5.259883
v 7.457534 5.408920 5.254123
v 7.431074 5.443439 5.263864
v 7.490504 5.439439 5.248744
v 7.435335 5.484538 5.248593
v 7.477203 5.470559 5.240633
vn 0.1675 -0.4656 -0.8690
vn 0.1269 -0.3582 -0.9250
vn 0.0074 -0.0981 -0.9951
vn -0.1999 0.1695 -0.9650
vn -0.1098 0.2415 -0.9642
vn 0.1698 -0.4760 -0.8629
vn -0.3599 0.5901 -0.7227
vn 0.0349 0.0048 -0.9994
vn -0.1857 0.5386 -0.8218
vn 0.2024 -0.3932 -0.8969
vn 0.1647 -0.0591 -0.9846
vn -0.0811 0.4005 -0.9127
vn -0.0292 0.2934 -0.9555
vn 0.0535 0.3015 -0.9520
vn -0.1263 0.0242 -0.9917
vn 0.1478 -0.3101 -0.9392
vn -0.3433 0.2149 -0.9143
vn -0.4392 0.3892 -0.8097
vn 0.2679 -0.6620 -0.7000
vn 0.4223 -0.7473 -0.5130
vn 0.3070 -0.7937 -0.5251
vn -0.4734 0.5262 -0.7064
vn 0.2310 -0.7059 -0.6696
vn 0.2510 -0.8237 -0.5084
vn 0.3037 -0.6944 -0.6524
vn -0.3210 0.8243 -0.4663
vn 0.4002 -0.4270 -0.8109
vn -0.1814 0.7212 -0.6685
vn 0.3498 -0.1088 -0.9305
vn -0.1467 0.6107 -0.7781
vn 0.3756 0.1429 -0.9157
vn -0.1141 0.6604 -0.7422
vn 0.1326 0.6167 -0.7760
vn -0.1549 -0.1450 -0.9772
vn -0.4075 -0.4563 -0.7911
vn -0.6674 0.3683 -0.6472
vn 0.3100 -0.6012 -0.7365
vn 0.4297 -0.6229 -0.6538
vn -0.7753 0.6020 -0.1912
vn -0.6155 0.5286 -0.5846
vn 0.3929 -0.8333 -0.3888
vn -0.6345 0.6622 -0.3986
vn 0.2732 -0.9121 -0.3055
vn -0.5786 0.7510 -0.3182
vn -0.4428 0.8833 -0.1539
vn -0.2901 0.9379 -0.1900
vn 0.7368 -0.1760 -0.6528
vn -0.2689 0.9073 -0.3232
vn -0.2528 0.8479 -0.4660
vn 0.6905 0.4599 -0.5583
vn 0.0560 -0.8979 -0.4367
vn -0.9664 0.2384 -0.0960
vn -0.8789 -0.4327 -0.2006
vn -0.8485 0.4941 -0.1896
vn 0.5195 -0.7233 -0.4549
vn 0.5843 -0.7689 -0.2596
vn 0.4819 -0.8762 -0.0077
vn -0.7336 0.6718 -0.1025
vn 0.3999 -0.9146 -0.0603
vn 0.3006 -0.9460 -0.1214
vn 0.3780 -0.8219 -0.4261
vn -0.5327 0.8295 0.1679
vn 0.5734 -0.5111 -0.6403
vn -0.3867 0.9152 0.1137
vn 0.9807 0.1783 -0.0808
vn -0.0773 0.8799 -0.4689
vn 0.3566 0.8673 -0.3475
vn -0.6730 -0.7338 0.0931
vn 0.4402 -0.8198 -0.3662
vn 0.5721 -0.8122 -0.1139
vn -0.6881 0.7243 0.0447
vn -0.6424 0.7370 0.2102
vn 0.2739 -0.9617 0.0091
vn 0.6494 -0.7520 -0.1128
vn 0.8590 -0.3053 -0.4111
vn -0.3151 0.9114 0.2647
vn -0.2972 0.9419 0.1565
vn -0.3367 0.9358 0.1048
vn -0.3229 0.9412 -0.0991
vn 0.8115 0.5739 0.1099
vn -0.0610 -0.9923 0.1076
vn -0.8031 0.5195 0.2917
vn 0.5911 -0.7490 -0.2992
vn -0.7151 0.6281 0.3069
vn -0.6560 0.6419 0.3970
vn 0.2492 -0.9489 0.1938
vn 0.3113 -0.8834 0.3502
vn 0.3137 -0.9414 0.1239
vn 0.9306 -0.3087 0.1966
vn -0.3283 0.9397 -0.0957
vn -0.1826 0.9820 -0.0483
vn 0.4107 0.8866 0.2129
vn 0.0362 0.9969 0.0699
vn 0.5055 -0.8623 0.0289
vn -0.8607 0.0877 0.5014
vn 0.6264 -0.7786 0.0382
vn 0.6397 -0.7623 0.0983
vn 0.6329 -0.7715 0.0653
vn 0.5766 -0.7878 0.2167
vn 0.4777 -0.8178 0.3209
vn 0.4088 -0.8691 0.2786
vn 0.1899 -0.8315 0.5220
vn -0.4626 0.6605 0.5914
vn -0.3860 0.8229 0.4169
vn -0.3221 0.7669 0.5551
vn -0.3435 0.8908 0.2974
vn -0.2990 0.8455 0.4423
vn -0.5904 -0.4851 0.6450
vn -0.6299 0.3890 0.6722
vn 0.2049 -0.7768 0.5955
vn -0.5038 0.5341 0.6789
vn -0.2796 0.8088 0.5174
vn -0.3149 0.8570 0.4079
vn 0.3390 0.5830 0.7384
vn 0.1361 -0.8337 0.5352
vn 0.3713 -0.5325 0.7607
vn 0.5908 -0.6965 0.4073
vn -0.6127 0.5532 0.5645
vn 0.4108 -0.7452 0.5253
vn -0.2721 0.5553 0.7859
vn -0.2103 0.5306 0.8211
vn -0.2774 0.6522 0.7055
vn 0.7355 0.1780 0.6538
vn -0.0136 0.8490 0.5282
vn 0.1845 0.9089 0.3740
vn -0.2440 -0.4142 0.8769
vn -0.4696 0.0735 0.8798
vn 0.5397 -0.6205 0.5690
vn 0.4470 -0.6522 0.6123
vn 0.3725 -0.7737 0.5125
vn 0.2561 -0.7236 0.6410
vn -0.3143 0.4326 0.8450
vn 0.1336 -0.5751 0.8071
vn 0.0736 -0.5776 0.8130
vn 0.1670 -0.6048 0.7787
vn -0.3598 0.3141 0.8786
vn 0.3976 -0.4559 0.7963
vn 0.1681 -0.1712 0.9708
vn 0.0067 -0.0454 0.9989
vn -0.1967 0.2491 0.9483
vn 0.2164 -0.4638 0.8591
vn -0.1420 0.2640 0.9540
vn -0.0054 -0.0772 0.9970
vn -0.1135 0.2623 0.9583
vn -0.0491 -0.2545 0.9658
vn 0.5127 -0.3942 0.7627
vn -0.1584 0.2734 0.9488
vn -0.2113 0.3102 0.9269
vn -0.2119 0.5694 0.7943
vn -0.1167 -0.0252 0.9928
vn 0.1761 -0.2492 0.9523
vn -0.1970 0.1496 0.9689
vn -0.0014 0.0218 0.9998
vn -0.1431 -0.0372 0.9890
vn 0.1794 -0.3357 0.9247
vn 0.0754 0.0701 0.9947
vn 0.3793 0.0614 0.9232
vn 0.0110 0.3895 0.9209
vn 0.3066 0.2616 0.9152
usemtl mtl1.1453
s 1
f 1//1 2//2 3//3
f 3//3 2//2 4//4
f 5//5 3//3 4//4
f 6//6 1//1 3//3
f 4//4 7//7 5//5
f 6//6 3//3 8//8
f 8//8 3//3 5//5
f 9//9 5//5 7//7
f 10//10 6//6 8//8
f 11//11 10//10 8//8
f 9//9 12//12 5//5
f 8//8 5//5 12//12
f 13//13 8//8 12//12
f 11//11 8//8 13//13
f 14//14 11//11 13//13
f 15//15 16//16 17//17
f 18//18 15//15 17//17
f 16//16 15//15 2//2
f 2//2 19//19 20//20
f 2//2 15//15 4//4
f 1//1 19//19 2//2
f 1//1 21//21 19//19
f 15//15 18//18 4//4
f 18//18 22//22 4//4
f 1//1 6//6 21//21
f 6//6 23//23 24//24
f 21//21 6//6 24//24
f 4//4 22//22 7//7
f 6//6 10//10 23//23
f 23//23 10//10 25//25
f 7//7 26//26 9//9
f 27//27 10//10 11//11
f 28//28 9//9 26//26
f 9//9 28//28 12//12
f 29//29 27//27 11//11
f 30//30 13//13 12//12
f 30//30 12//12 28//28
f 11//11 14//14 29//29
f 30//30 14//14 13//13
f 29//29 14//14 31//31
f 30//30 32//32 14//14
f 31//31 14//14 33//33
f 33//33 14//14 32//32
f 34//34 35//35 36//36
f 37//37 34//34 16//16
f 17//17 34//34 36//36
f 37//37 16//16 38//38
f 36//36 39//39 40//40
f 16//16 34//34 17//17
f 38//38 16//16 2//2
f 40//40 17//17 36//36
f 20//20 38//38 2//2
f 17//17 40//40 18//18
f 41//41 20//20 19//19
f 21//21 41//41 19//19
f 40//40 42//42 18//18
f 22//22 18//18 42//42
f 43//43 24//24 23//23
f 23//23 25//25 43//43
f 22//22 42//42 44//44
f 22//22 44//44 7//7
f 25//25 10//10 27//27
f 7//7 44//44 45//45
f 45//45 26//26 7//7
f 28//28 26//26 46//46
f 47//47 27//27 29//29
f 30//30 28//28 48//48
f 47//47 29//29 31//31
f 32//32 30//30 49//49
f 31//31 33//33 50//50
f 35//35 37//37 51//51
f 37//37 35//35 34//34
f 52//52 35//35 53//53
f 52//52 36//36 35//35
f 54//54 36//36 52//52
f 55//55 37//37 38//38
f 54//54 39//39 36//36
f 38//38 20//20 56//56
f 20//20 41//41 57//57
f 58//58 42//42 40//40
f 41//41 21//21 59//59
f 24//24 60//60 21//21
f 24//24 43//43 60//60
f 43//43 25//25 61//61
f 27//27 61//61 25//25
f 44//44 62//62 45//45
f 47//47 63//63 27//27
f 26//26 45//45 64//64
f 46//46 26//26 64//64
f 28//28 46//46 48//48
f 30//30 48//48 49//49
f 47//47 31//31 50//50
f 50//50 65//65 47//47
f 32//32 49//49 66//66
f 33//33 67//67 50//50
f 33//33 32//32 66//66
f 67//67 33//33 66//66
f 35//35 68//68 53//53
f 68//68 35//35 51//51
f 51//51 37//37 69//69
f 69//69 37//37 55//55
f 56//56 20//20 70//70
f 40//40 39//39 58//58
f 57//57 70//70 20//20
f 41//41 59//59 57//57
f 21//21 60//60 59//59
f 42//42 58//58 71//71
f 42//42 71//71 72//72
f 43//43 61//61 73//73
f 44//44 42//42 72//72
f 44//44 72//72 62//62
f 63//63 61//61 27//27
f 74//74 61//61 63//63
f 63//63 47//47 75//75
f 46//46 64//64 76//76
f 48//48 46//46 77//77
f 78//78 48//48 77//77
f 48//48 78//78 79//79
f 49//49 48//48 79//79
f 50//50 80//80 65//65
f 50//50 67//67 80//80
f 51//51 81//81 68//68
f 69//69 81//81 51//51
f 53//53 68//68 52//52
f 52//52 82//82 54//54
f 55//55 38//38 83//83
f 54//54 82//82 39//39
f 38//38 56//56 83//83
f 58//58 39//39 84//84
f 85//85 58//58 84//84
f 85//85 71//71 58//58
f 60//60 86//86 87//87
f 43//43 86//86 60//60
f 43//43 73//73 86//86
f 61//61 88//88 73//73
f 61//61 74//74 88//88
f 76//76 77//77 46//46
f 89//89 47//47 65//65
f 49//49 79//79 90//90
f 66//66 49//49 90//90
f 66//66 90//90 91//91
f 92//92 80//80 67//67
f 66//66 91//91 93//93
f 67//67 66//66 93//93
f 92//92 67//67 93//93
f 69//69 94//94 81//81
f 52//52 68//68 95//95
f 96//96 69//69 55//55
f 55//55 83//83 96//96
f 83//83 56//56 97//97
f 82//82 84//84 39//39
f 70//70 98//98 56//56
f 99//99 98//98 70//70
f 57//57 99//99 70//70
f 100//100 99//99 57//57
f 59//59 101//101 57//57
f 57//57 101//101 100//100
f 59//59 87//87 101//101
f 60//60 87//87 59//59
f 85//85 72//72 71//71
f 73//73 102//102 86//86
f 72//72 103//103 62//62
f 75//75 74//74 63//63
f 62//62 103//103 104//104
f 62//62 104//104 45//45
f 45//45 104//104 64//64
f 75//75 47//47 89//89
f 64//64 105//105 76//76
f 79//79 78//78 106//106
f 79//79 106//106 90//90
f 91//91 90//90 107//107
f 68//68 81//81 108//108
f 96//96 94//94 69//69
f 95//95 82//82 52//52
f 95//95 109//109 82//82
f 83//83 97//97 96//96
f 56//56 98//98 97//97
f 87//87 86//86 110//110
f 85//85 111//111 72//72
f 86//86 102//102 110//110
f 73//73 88//88 102//102
f 74//74 75//75 89//89
f 64//64 104//104 105//105
f 76//76 105//105 112//112
f 76//76 112//112 77//77
f 78//78 77//77 113//113
f 106//106 78//78 113//113
f 90//90 106//106 107//107
f 80//80 92//92 114//114
f 91//91 107//107 93//93
f 81//81 94//94 115//115
f 68//68 108//108 95//95
f 116//116 94//94 96//96
f 117//117 97//97 98//98
f 82//82 109//109 118//118
f 118//118 84//84 82//82
f 98//98 99//99 117//117
f 84//84 118//118 85//85
f 118//118 111//111 85//85
f 72//72 111//111 103//103
f 88//88 119//119 102//102
f 119//119 88//88 74//74
f 103//103 120//120 104//104
f 119//119 74//74 89//89
f 104//104 120//120 105//105
f 105//105 121//121 112//112
f 77//77 112//112 113//113
f 112//112 122//122 113//113
f 80//80 123//123 65//65
f 93//93 107//107 124//124
f 92//92 93//93 125//125
f 126//126 108//108 81//81
f 81//81 115//115 126//126
f 94//94 116//116 115//115
f 108//108 127//127 95//95
f 127//127 109//109 95//95
f 116//116 96//96 128//128
f 128//128 96//96 97//97
f 97//97 117//117 128//128
f 99//99 129//129 117//117
f 100//100 129//129 99//99
f 100//100 101//101 130//130
f 129//129 100//100 130//130
f 130//130 101//101 87//87
f 87//87 131//131 130//130
f 87//87 110//110 131//131
f 103//103 111//111 132//132
f 110//110 133//133 131//131
f 110//110 102//102 133//133
f 133//133 102//102 134//134
f 135//135 134//134 102//102
f 119//119 135//135 102//102
f 120//120 103//103 132//132
f 105//105 120//120 121//121
f 122//122 112//112 121//121
f 89//89 65//65 123//123
f 80//80 114//114 123//123
f 106//106 122//122 107//107
f 106//106 113//113 122//122
f 125//125 114//114 92//92
f 93//93 124//124 125//125
f 126//126 127//127 108//108
f 116//116 126//126 115//115
f 109//109 127//127 136//136
f 109//109 136//136 118//118
f 117//117 137//137 128//128
f 138//138 139//139 137//137
f 117//117 129//129 137//137
f 129//129 138//138 137//137
f 111//111 118//118 136//136
f 140//140 111//111 136//136
f 140//140 132//132 111//111
f 130//130 141//141 129//129
f 142//142 132//132 140//140
f 129//129 141//141 138//138
f 130//130 131//131 141//141
f 133//133 141//141 131//131
f 142//142 120//120 132//132
f 133//133 143//143 141//141
f 144//144 120//120 142//142
f 134//134 145//145 133//133
f 119//119 89//89 146//146
f 133//133 145//145 143//143
f 144//144 121//121 120//120
f 147//147 121//121 144//144
f 122//122 121//121 147//147
f 122//122 147//147 148//148
f 107//107 149//149 124//124
f 107//107 122//122 149//149
f 150//150 127//127 126//126
f 116//116 150//150 126//126
f 151//151 150//150 116//116
f 151//151 116//116 128//128
f 136//136 127//127 150//150
f 152//152 136//136 150//150
f 128//128 137//137 151//151
f 137//137 139//139 151//151
f 140//140 136//136 152//152
f 140//140 152//152 139//139
f 138//138 140//140 139//139
f 153//153 140//140 138//138
f 142//142 140//140 153//153
f 138//138 141//141 153//153
f 141//141 143//143 153//153
f 144//144 142//142 153//153
f 143//143 144//144 153//153
f 145//145 134//134 135//135
f 135//135 119//119 146//146
f 147//147 144//144 143//143
f 143//143 145//145 147//147
f 148//148 147//147 145//145
f 89//89 123//123 146//146
f 145//145 154//154 148//148
f 122//122 148//148 149//149
f 114//114 124//124 149//149
f 125//125 124//124 114//114
f 152//152 150//150 151//151
f 151//151 139//139 152//152
f 145//145 135//135 155//155
f 135//135 146//146 155//155
f 154//154 145//145 156//156
f 156//156 145//145 155//155
f 146//146 123//123 157//157
f 155//155 146//146 157//157
f 154//154 156//156 148//148
f 158//158 148//148 156//156
f 123//123 159//159 157//157
f 159//159 123//123 114//114
f 148//148 158//158 149//149
f 159//159 114//114 158//158
f 114//114 149//149 158//158
f 157//157 156//156 155//155
f 157//157 159//159 156//156
f 159//159 158//158 156//156
