# Blender v2.92.0 OBJ File: 'convert_to_one_sided.blend'
# www.blender.org
mtllib 690L.mtl
o Cube
v 0.001000 0.001000 -0.001000
v 0.001000 -0.001000 -0.001000
v 0.001000 0.001000 0.001000
v 0.001000 -0.001000 0.001000
v -0.001000 0.001000 -0.001000
v -0.001000 -0.001000 -0.001000
v -0.001000 0.001000 0.001000
v -0.001000 -0.001000 0.001000
vt 0.625000 0.500000
vt 0.875000 0.500000
vt 0.875000 0.750000
vt 0.625000 0.750000
vt 0.375000 0.750000
vt 0.625000 1.000000
vt 0.375000 1.000000
vt 0.375000 0.000000
vt 0.625000 0.000000
vt 0.625000 0.250000
vt 0.375000 0.250000
vt 0.125000 0.500000
vt 0.375000 0.500000
vt 0.125000 0.750000
vn 0.0000 1.0000 0.0000
vn 0.0000 0.0000 1.0000
vn -1.0000 0.0000 0.0000
vn 0.0000 -1.0000 0.0000
vn 1.0000 0.0000 0.0000
vn 0.0000 0.0000 -1.0000
usemtl Material
s off
f 1/1/1 5/2/1 7/3/1 3/4/1
f 4/5/2 3/4/2 7/6/2 8/7/2
f 8/8/3 7/9/3 5/10/3 6/11/3
f 6/12/4 2/13/4 4/5/4 8/14/4
f 2/13/5 1/1/5 3/4/5 4/5/5
f 6/11/6 5/10/6 1/1/6 2/13/6
o 690
v 6.847042 5.194952 5.020336
v 6.671874 5.110883 5.036156
v 6.866182 5.233992 5.013977
v 6.710634 5.209932 5.025907
v 6.885992 5.302881 5.016656
v 7.058099 5.263311 5.026526
v 6.776093 5.310861 5.045586
v 7.123158 5.338710 5.017566
v 6.906391 5.354790 5.034646
v 7.273036 5.331440 5.033366
v 7.337146 5.390810 5.029686
v 7.056989 5.379090 5.029506
v 7.221247 5.404229 5.028096
v 7.365315 5.459458 5.042986
v 6.581455 5.091643 5.039876
v 6.483047 4.965955 5.054546
v 6.453057 4.992445 5.053216
v 6.577855 5.136503 5.050336
v 6.788622 5.137243 5.046446
v 6.715404 5.069544 5.082315
v 6.939970 5.188182 5.059136
v 6.672314 5.236231 5.052176
v 7.194537 5.277251 5.050166
v 7.093589 5.237922 5.062196
v 7.320616 5.308671 5.063386
v 6.884681 5.379530 5.065766
v 7.427335 5.371260 5.065886
v 7.020730 5.409599 5.054366
v 7.446004 5.435469 5.056826
v 7.200507 5.447739 5.053456
v 7.481694 5.483219 5.065835
v 7.345055 5.506178 5.067716
v 7.451794 5.520038 5.076215
v 6.374868 4.887066 5.063356
v 6.304879 4.816217 5.096255
v 6.358068 4.916476 5.085266
v 6.406237 4.856437 5.093165
v 6.565255 4.967745 5.090365
v 6.386268 4.982305 5.106335
v 6.474486 5.055034 5.077085
v 6.841002 5.132633 5.081516
v 6.588205 5.186702 5.083545
v 7.228597 5.265071 5.088396
v 6.704074 5.290201 5.085135
v 6.793912 5.349040 5.093925
v 6.981360 5.424049 5.094105
v 7.529393 5.434609 5.106965
v 7.117158 5.460079 5.095315
v 7.264127 5.504919 5.095806
v 7.519993 5.510238 5.096275
v 6.339058 4.791808 5.125365
v 6.298719 4.836877 5.115515
v 6.295219 4.805507 5.114035
v 6.338129 4.909326 5.114145
v 6.488506 4.875446 5.125695
v 6.646305 4.996544 5.127815
v 6.809493 5.105043 5.127445
v 6.488856 5.094753 5.111615
v 6.928341 5.164022 5.116515
v 7.056859 5.213762 5.104156
v 7.422324 5.323190 5.109435
v 6.731614 5.318201 5.125695
v 7.506383 5.369150 5.119935
v 6.886191 5.389910 5.118145
v 7.557753 5.462929 5.155185
v 7.392515 5.546227 5.110555
v 7.484154 5.549017 5.120745
v 6.306129 4.800597 5.136965
v 6.415497 4.816047 5.145875
v 6.716954 5.049724 5.133265
v 6.557355 5.170932 5.116595
v 6.624685 5.223532 5.128805
v 7.328576 5.284951 5.129795
v 7.531893 5.354300 5.159434
v 7.541603 5.384840 5.150334
v 6.969710 5.417929 5.139105
v 7.070289 5.447839 5.135005
v 7.165917 5.481538 5.136245
v 7.219677 5.499498 5.125815
v 7.526613 5.513008 5.169825
v 6.356998 4.785667 5.176204
v 6.344628 4.915516 5.147604
v 6.564985 4.928835 5.140615
v 6.428277 5.021504 5.142125
v 6.516816 5.113703 5.146305
v 7.197187 5.254382 5.139565
v 7.036819 5.213502 5.161224
v 7.439034 5.320040 5.154735
v 7.551563 5.398019 5.181414
v 7.319806 5.537328 5.136105
v 7.386625 5.563528 5.146854
v 7.493223 5.556588 5.181365
v 7.436264 5.563617 5.168825
v 6.417647 4.803217 5.189214
v 6.311019 4.827087 5.168075
v 6.489606 4.861726 5.176794
v 6.589345 4.944335 5.171615
v 6.662124 5.006734 5.162575
v 6.724854 5.058134 5.167954
v 6.810402 5.119533 5.178294
v 6.894171 5.157232 5.158585
v 7.356915 5.310011 5.186894
v 6.713114 5.280311 5.166904
v 6.810513 5.344380 5.146345
v 6.925701 5.385870 5.165385
v 7.254056 5.509188 5.158675
v 7.363385 5.542878 5.182175
v 6.330789 4.798167 5.186304
v 6.362918 4.896796 5.198924
v 7.183727 5.272061 5.182175
v 6.571045 5.130983 5.189524
v 7.067529 5.434489 5.170054
v 7.162898 5.471118 5.159885
v 7.492243 5.528488 5.228583
v 6.388938 4.788328 5.203914
v 6.432777 4.831887 5.217904
v 6.635015 4.992405 5.195874
v 6.440277 5.003775 5.177234
v 7.497093 5.354850 5.195164
v 6.847612 5.324121 5.193364
v 7.040649 5.393820 5.197584
v 7.222657 5.468129 5.197794
v 7.536743 5.457329 5.219434
v 7.444294 5.554088 5.208594
v 7.466664 5.549298 5.197074
v 6.369948 4.806067 5.208974
v 6.362138 4.850246 5.208634
v 6.537936 4.917466 5.208084
v 6.758343 5.103313 5.207424
v 6.925771 5.188122 5.192234
v 7.072159 5.253351 5.197404
v 6.701794 5.219122 5.201594
v 7.201077 5.310290 5.212474
v 7.345406 5.340840 5.221663
v 7.436044 5.364530 5.230014
v 6.451407 4.961975 5.217504
v 6.614995 5.009944 5.223804
v 6.726923 5.123143 5.228174
v 6.578795 5.010075 5.240263
v 6.640574 5.108123 5.226124
v 6.954660 5.224162 5.214244
v 6.807732 5.249791 5.217494
v 7.077719 5.315480 5.226634
v 6.962551 5.318501 5.216444
v 7.315356 5.384019 5.241773
v 7.513913 5.404280 5.230034
v 7.152938 5.388440 5.219114
v 7.343825 5.451819 5.248193
v 7.390485 5.509238 5.223773
v 6.428187 4.877376 5.227874
v 6.507586 4.928346 5.228754
v 6.523046 4.975415 5.227844
v 6.861512 5.223001 5.220614
v 7.378825 5.429889 5.259883
v 7.457534 5.408920 5.254123
v 7.431074 5.443439 5.263864
v 7.490504 5.439439 5.248744
v 7.435335 5.484538 5.248593
v 7.477203 5.470559 5.240633
vn 0.1675 -0.4656 -0.8690
vn 0.1269 -0.3582 -0.9250
vn 0.0074 -0.0981 -0.9951
vn -0.1999 0.1695 -0.9650
vn -0.1098 0.2415 -0.9642
vn 0.1698 -0.4760 -0.8629
vn -0.3599 0.5901 -0.7227
vn 0.0349 0.0048 -0.9994
vn -0.1857 0.5386 -0.8218
vn 0.2024 -0.3932 -0.8969
vn 0.1647 -0.0591 -0.9846
vn -0.0811 0.4005 -0.9127
vn -0.0292 0.2934 -0.9555
vn 0.0535 0.3015 -0.9520
vn -0.1263 0.0242 -0.9917
vn 0.1478 -0.3101 -0.9392
vn -0.3433 0.2149 -0.9143
vn -0.4392 0.3892 -0.8097
vn 0.2679 -0.6620 -0.7000
vn 0.4223 -0.7473 -0.5130
vn 0.3070 -0.7937 -0.5251
vn -0.4734 0.5262 -0.7064
vn 0.2310 -0.7059 -0.6696
vn 0.2510 -0.8237 -0.5084
vn 0.3037 -0.6944 -0.6524
vn -0.3210 0.8243 -0.4663
vn 0.4002 -0.4270 -0.8109
vn -0.1814 0.7212 -0.6685
vn 0.3498 -0.1088 -0.9305
vn -0.1467 0.6107 -0.7781
vn 0.3756 0.1429 -0.9157
vn -0.1141 0.6604 -0.7422
vn 0.1326 0.6167 -0.7760
vn -0.1549 -0.1450 -0.9772
vn -0.4075 -0.4563 -0.7911
vn -0.6674 0.3683 -0.6472
vn 0.3100 -0.6012 -0.7365
vn 0.4297 -0.6229 -0.6538
vn -0.7753 0.6020 -0.1912
vn -0.6155 0.5286 -0.5846
vn 0.3929 -0.8333 -0.3888
vn -0.6345 0.6622 -0.3986
vn 0.2732 -0.9121 -0.3055
vn -0.5786 0.7510 -0.3182
vn -0.4428 0.8833 -0.1539
vn -0.2901 0.9379 -0.1900
vn 0.7368 -0.1760 -0.6528
vn -0.2689 0.9073 -0.3232
vn -0.2528 0.8479 -0.4660
vn 0.6905 0.4599 -0.5583
vn 0.0560 -0.8979 -0.4367
vn -0.9664 0.2384 -0.0960
vn -0.8789 -0.4327 -0.2006
vn -0.8485 0.4941 -0.1896
vn 0.5195 -0.7233 -0.4549
vn 0.5843 -0.7689 -0.2596
vn 0.4819 -0.8762 -0.0077
vn -0.7336 0.6718 -0.1025
vn 0.3999 -0.9146 -0.0603
vn 0.3006 -0.9460 -0.1214
vn 0.3780 -0.8219 -0.4261
vn -0.5327 0.8295 0.1679
vn 0.5734 -0.5111 -0.6403
vn -0.3867 0.9152 0.1137
vn 0.9807 0.1783 -0.0808
vn -0.0773 0.8799 -0.4689
vn 0.3566 0.8673 -0.3475
vn -0.6730 -0.7338 0.0931
vn 0.4402 -0.8198 -0.3662
vn 0.5721 -0.8122 -0.1139
vn -0.6881 0.7243 0.0447
vn -0.6424 0.7370 0.2102
vn 0.2739 -0.9617 0.0091
vn 0.6494 -0.7520 -0.1128
vn 0.8590 -0.3053 -0.4111
vn -0.3151 0.9114 0.2647
vn -0.2972 0.9419 0.1565
vn -0.3367 0.9358 0.1048
vn -0.3229 0.9412 -0.0991
vn 0.8115 0.5739 0.1099
vn -0.0610 -0.9923 0.1076
vn -0.8031 0.5195 0.2917
vn 0.5911 -0.7490 -0.2992
vn -0.7151 0.6281 0.3069
vn -0.6560 0.6419 0.3970
vn 0.2492 -0.9489 0.1938
vn 0.3113 -0.8834 0.3502
vn 0.3137 -0.9414 0.1239
vn 0.9306 -0.3087 0.1966
vn -0.3283 0.9397 -0.0957
vn -0.1826 0.9820 -0.0483
vn 0.4107 0.8866 0.2129
vn 0.0362 0.9969 0.0699
vn 0.5055 -0.8623 0.0289
vn -0.8607 0.0877 0.5014
vn 0.6264 -0.7786 0.0382
vn 0.6397 -0.7623 0.0983
vn 0.6329 -0.7715 0.0653
vn 0.5766 -0.7878 0.2167
vn 0.4777 -0.8178 0.3209
vn 0.4088 -0.8691 0.2786
vn 0.1899 -0.8315 0.5220
vn -0.4626 0.6605 0.5914
vn -0.3860 0.8229 0.4169
vn -0.3221 0.7669 0.5551
vn -0.3435 0.8908 0.2974
vn -0.2990 0.8455 0.4423
vn -0.5904 -0.4851 0.6450
vn -0.6299 0.3890 0.6722
vn 0.2049 -0.7768 0.5955
vn -0.5038 0.5341 0.6789
vn -0.2796 0.8088 0.5174
vn -0.3149 0.8570 0.4079
vn 0.3390 0.5830 0.7384
vn 0.1361 -0.8337 0.5352
vn 0.3713 -0.5325 0.7607
vn 0.5908 -0.6965 0.4073
vn -0.6127 0.5532 0.5645
vn 0.4108 -0.7452 0.5253
vn -0.2721 0.5553 0.7859
vn -0.2103 0.5306 0.8211
vn -0.2774 0.6522 0.7055
vn 0.7355 0.1780 0.6538
vn -0.0136 0.8490 0.5282
vn 0.1845 0.9089 0.3740
vn -0.2440 -0.4142 0.8769
vn -0.4696 0.0735 0.8798
vn 0.5397 -0.6205 0.5690
vn 0.4470 -0.6522 0.6123
vn 0.3725 -0.7737 0.5125
vn 0.2561 -0.7236 0.6410
vn -0.3143 0.4326 0.8450
vn 0.1336 -0.5751 0.8071
vn 0.0736 -0.5776 0.8130
vn 0.1670 -0.6048 0.7787
vn -0.3598 0.3141 0.8786
vn 0.3976 -0.4559 0.7963
vn 0.1681 -0.1712 0.9708
vn 0.0067 -0.0454 0.9989
vn -0.1967 0.2491 0.9483
vn 0.2164 -0.4638 0.8591
vn -0.1420 0.2640 0.9540
vn -0.0054 -0.0772 0.9970
vn -0.1135 0.2623 0.9583
vn -0.0491 -0.2545 0.9658
vn 0.5127 -0.3942 0.7627
vn -0.1584 0.2734 0.9488
vn -0.2113 0.3102 0.9269
vn -0.2119 0.5694 0.7943
vn -0.1167 -0.0252 0.9928
vn 0.1761 -0.2492 0.9523
vn -0.1970 0.1496 0.9689
vn -0.0014 0.0218 0.9998
vn -0.1431 -0.0372 0.9890
vn 0.1794 -0.3357 0.9247
vn 0.0754 0.0701 0.9947
vn 0.3793 0.0614 0.9232
vn 0.0110 0.3895 0.9209
vn 0.3066 0.2616 0.9152
usemtl mtl1.634
s 1
f 9//7 10//8 11//9
f 11//9 10//8 12//10
f 13//11 11//9 12//10
f 14//12 9//7 11//9
f 12//10 15//13 13//11
f 14//12 11//9 16//14
f 16//14 11//9 13//11
f 17//15 13//11 15//13
f 18//16 14//12 16//14
f 19//17 18//16 16//14
f 17//15 20//18 13//11
f 16//14 13//11 20//18
f 21//19 16//14 20//18
f 19//17 16//14 21//19
f 22//20 19//17 21//19
f 23//21 24//22 25//23
f 26//24 23//21 25//23
f 24//22 23//21 10//8
f 10//8 27//25 28//26
f 10//8 23//21 12//10
f 9//7 27//25 10//8
f 9//7 29//27 27//25
f 23//21 26//24 12//10
f 26//24 30//28 12//10
f 9//7 14//12 29//27
f 14//12 31//29 32//30
f 29//27 14//12 32//30
f 12//10 30//28 15//13
f 14//12 18//16 31//29
f 31//29 18//16 33//31
f 15//13 34//32 17//15
f 35//33 18//16 19//17
f 36//34 17//15 34//32
f 17//15 36//34 20//18
f 37//35 35//33 19//17
f 38//36 21//19 20//18
f 38//36 20//18 36//34
f 19//17 22//20 37//35
f 38//36 22//20 21//19
f 37//35 22//20 39//37
f 38//36 40//38 22//20
f 39//37 22//20 41//39
f 41//39 22//20 40//38
f 42//40 43//41 44//42
f 45//43 42//40 24//22
f 25//23 42//40 44//42
f 45//43 24//22 46//44
f 44//42 47//45 48//46
f 24//22 42//40 25//23
f 46//44 24//22 10//8
f 48//46 25//23 44//42
f 28//26 46//44 10//8
f 25//23 48//46 26//24
f 49//47 28//26 27//25
f 29//27 49//47 27//25
f 48//46 50//48 26//24
f 30//28 26//24 50//48
f 51//49 32//30 31//29
f 31//29 33//31 51//49
f 30//28 50//48 52//50
f 30//28 52//50 15//13
f 33//31 18//16 35//33
f 15//13 52//50 53//51
f 53//51 34//32 15//13
f 36//34 34//32 54//52
f 55//53 35//33 37//35
f 38//36 36//34 56//54
f 55//53 37//35 39//37
f 40//38 38//36 57//55
f 39//37 41//39 58//56
f 43//41 45//43 59//57
f 45//43 43//41 42//40
f 60//58 43//41 61//59
f 60//58 44//42 43//41
f 62//60 44//42 60//58
f 63//61 45//43 46//44
f 62//60 47//45 44//42
f 46//44 28//26 64//62
f 28//26 49//47 65//63
f 66//64 50//48 48//46
f 49//47 29//27 67//65
f 32//30 68//66 29//27
f 32//30 51//49 68//66
f 51//49 33//31 69//67
f 35//33 69//67 33//31
f 52//50 70//68 53//51
f 55//53 71//69 35//33
f 34//32 53//51 72//70
f 54//52 34//32 72//70
f 36//34 54//52 56//54
f 38//36 56//54 57//55
f 55//53 39//37 58//56
f 58//56 73//71 55//53
f 40//38 57//55 74//72
f 41//39 75//73 58//56
f 41//39 40//38 74//72
f 75//73 41//39 74//72
f 43//41 76//74 61//59
f 76//74 43//41 59//57
f 59//57 45//43 77//75
f 77//75 45//43 63//61
f 64//62 28//26 78//76
f 48//46 47//45 66//64
f 65//63 78//76 28//26
f 49//47 67//65 65//63
f 29//27 68//66 67//65
f 50//48 66//64 79//77
f 50//48 79//77 80//78
f 51//49 69//67 81//79
f 52//50 50//48 80//78
f 52//50 80//78 70//68
f 71//69 69//67 35//33
f 82//80 69//67 71//69
f 71//69 55//53 83//81
f 54//52 72//70 84//82
f 56//54 54//52 85//83
f 86//84 56//54 85//83
f 56//54 86//84 87//85
f 57//55 56//54 87//85
f 58//56 88//86 73//71
f 58//56 75//73 88//86
f 59//57 89//87 76//74
f 77//75 89//87 59//57
f 61//59 76//74 60//58
f 60//58 90//88 62//60
f 63//61 46//44 91//89
f 62//60 90//88 47//45
f 46//44 64//62 91//89
f 66//64 47//45 92//90
f 93//91 66//64 92//90
f 93//91 79//77 66//64
f 68//66 94//92 95//93
f 51//49 94//92 68//66
f 51//49 81//79 94//92
f 69//67 96//94 81//79
f 69//67 82//80 96//94
f 84//82 85//83 54//52
f 97//95 55//53 73//71
f 57//55 87//85 98//96
f 74//72 57//55 98//96
f 74//72 98//96 99//97
f 100//98 88//86 75//73
f 74//72 99//97 101//99
f 75//73 74//72 101//99
f 100//98 75//73 101//99
f 77//75 102//100 89//87
f 60//58 76//74 103//101
f 104//102 77//75 63//61
f 63//61 91//89 104//102
f 91//89 64//62 105//103
f 90//88 92//90 47//45
f 78//76 106//104 64//62
f 107//105 106//104 78//76
f 65//63 107//105 78//76
f 108//106 107//105 65//63
f 67//65 109//107 65//63
f 65//63 109//107 108//106
f 67//65 95//93 109//107
f 68//66 95//93 67//65
f 93//91 80//78 79//77
f 81//79 110//108 94//92
f 80//78 111//109 70//68
f 83//81 82//80 71//69
f 70//68 111//109 112//110
f 70//68 112//110 53//51
f 53//51 112//110 72//70
f 83//81 55//53 97//95
f 72//70 113//111 84//82
f 87//85 86//84 114//112
f 87//85 114//112 98//96
f 99//97 98//96 115//113
f 76//74 89//87 116//114
f 104//102 102//100 77//75
f 103//101 90//88 60//58
f 103//101 117//115 90//88
f 91//89 105//103 104//102
f 64//62 106//104 105//103
f 95//93 94//92 118//116
f 93//91 119//117 80//78
f 94//92 110//108 118//116
f 81//79 96//94 110//108
f 82//80 83//81 97//95
f 72//70 112//110 113//111
f 84//82 113//111 120//118
f 84//82 120//118 85//83
f 86//84 85//83 121//119
f 114//112 86//84 121//119
f 98//96 114//112 115//113
f 88//86 100//98 122//120
f 99//97 115//113 101//99
f 89//87 102//100 123//121
f 76//74 116//114 103//101
f 124//122 102//100 104//102
f 125//123 105//103 106//104
f 90//88 117//115 126//124
f 126//124 92//90 90//88
f 106//104 107//105 125//123
f 92//90 126//124 93//91
f 126//124 119//117 93//91
f 80//78 119//117 111//109
f 96//94 127//125 110//108
f 127//125 96//94 82//80
f 111//109 128//126 112//110
f 127//125 82//80 97//95
f 112//110 128//126 113//111
f 113//111 129//127 120//118
f 85//83 120//118 121//119
f 120//118 130//128 121//119
f 88//86 131//129 73//71
f 101//99 115//113 132//130
f 100//98 101//99 133//131
f 134//132 116//114 89//87
f 89//87 123//121 134//132
f 102//100 124//122 123//121
f 116//114 135//133 103//101
f 135//133 117//115 103//101
f 124//122 104//102 136//134
f 136//134 104//102 105//103
f 105//103 125//123 136//134
f 107//105 137//135 125//123
f 108//106 137//135 107//105
f 108//106 109//107 138//136
f 137//135 108//106 138//136
f 138//136 109//107 95//93
f 95//93 139//137 138//136
f 95//93 118//116 139//137
f 111//109 119//117 140//138
f 118//116 141//139 139//137
f 118//116 110//108 141//139
f 141//139 110//108 142//140
f 143//141 142//140 110//108
f 127//125 143//141 110//108
f 128//126 111//109 140//138
f 113//111 128//126 129//127
f 130//128 120//118 129//127
f 97//95 73//71 131//129
f 88//86 122//120 131//129
f 114//112 130//128 115//113
f 114//112 121//119 130//128
f 133//131 122//120 100//98
f 101//99 132//130 133//131
f 134//132 135//133 116//114
f 124//122 134//132 123//121
f 117//115 135//133 144//142
f 117//115 144//142 126//124
f 125//123 145//143 136//134
f 146//144 147//145 145//143
f 125//123 137//135 145//143
f 137//135 146//144 145//143
f 119//117 126//124 144//142
f 148//146 119//117 144//142
f 148//146 140//138 119//117
f 138//136 149//147 137//135
f 150//148 140//138 148//146
f 137//135 149//147 146//144
f 138//136 139//137 149//147
f 141//139 149//147 139//137
f 150//148 128//126 140//138
f 141//139 151//149 149//147
f 152//150 128//126 150//148
f 142//140 153//151 141//139
f 127//125 97//95 154//152
f 141//139 153//151 151//149
f 152//150 129//127 128//126
f 155//153 129//127 152//150
f 130//128 129//127 155//153
f 130//128 155//153 156//154
f 115//113 157//155 132//130
f 115//113 130//128 157//155
f 158//156 135//133 134//132
f 124//122 158//156 134//132
f 159//157 158//156 124//122
f 159//157 124//122 136//134
f 144//142 135//133 158//156
f 160//158 144//142 158//156
f 136//134 145//143 159//157
f 145//143 147//145 159//157
f 148//146 144//142 160//158
f 148//146 160//158 147//145
f 146//144 148//146 147//145
f 161//159 148//146 146//144
f 150//148 148//146 161//159
f 146//144 149//147 161//159
f 149//147 151//149 161//159
f 152//150 150//148 161//159
f 151//149 152//150 161//159
f 153//151 142//140 143//141
f 143//141 127//125 154//152
f 155//153 152//150 151//149
f 151//149 153//151 155//153
f 156//154 155//153 153//151
f 97//95 131//129 154//152
f 153//151 162//160 156//154
f 130//128 156//154 157//155
f 122//120 132//130 157//155
f 133//131 132//130 122//120
f 160//158 158//156 159//157
f 159//157 147//145 160//158
f 153//151 143//141 163//161
f 143//141 154//152 163//161
f 162//160 153//151 164//162
f 164//162 153//151 163//161
f 154//152 131//129 165//163
f 163//161 154//152 165//163
f 162//160 164//162 156//154
f 166//164 156//154 164//162
f 131//129 167//165 165//163
f 167//165 131//129 122//120
f 156//154 166//164 157//155
f 167//165 122//120 166//164
f 122//120 157//155 166//164
f 165//163 164//162 163//161
f 165//163 167//165 164//162
f 167//165 166//164 164//162
