# Blender v2.92.0 OBJ File: 'convert_to_one_sided.blend'
# www.blender.org
mtllib 696L.mtl
o Cube
v 0.001000 0.001000 -0.001000
v 0.001000 -0.001000 -0.001000
v 0.001000 0.001000 0.001000
v 0.001000 -0.001000 0.001000
v -0.001000 0.001000 -0.001000
v -0.001000 -0.001000 -0.001000
v -0.001000 0.001000 0.001000
v -0.001000 -0.001000 0.001000
vt 0.625000 0.500000
vt 0.875000 0.500000
vt 0.875000 0.750000
vt 0.625000 0.750000
vt 0.375000 0.750000
vt 0.625000 1.000000
vt 0.375000 1.000000
vt 0.375000 0.000000
vt 0.625000 0.000000
vt 0.625000 0.250000
vt 0.375000 0.250000
vt 0.125000 0.500000
vt 0.375000 0.500000
vt 0.125000 0.750000
vn 0.0000 1.0000 0.0000
vn 0.0000 0.0000 1.0000
vn -1.0000 0.0000 0.0000
vn 0.0000 -1.0000 0.0000
vn 1.0000 0.0000 0.0000
vn 0.0000 0.0000 -1.0000
usemtl Material
s off
f 1/1/1 5/2/1 7/3/1 3/4/1
f 4/5/2 3/4/2 7/6/2 8/7/2
f 8/8/3 7/9/3 5/10/3 6/11/3
f 6/12/4 2/13/4 4/5/4 8/14/4
f 2/13/5 1/1/5 3/4/5 4/5/5
f 6/11/6 5/10/6 1/1/6 2/13/6
o 696
v 8.758047 2.639806 0.860844
v 8.788197 2.641716 0.865541
v 8.742748 2.586487 0.875793
v 8.786016 2.679485 0.868688
v 8.809266 2.683215 0.875588
v 8.810066 2.703165 0.874132
v 8.715387 2.575927 0.883224
v 8.746498 2.523907 0.906106
v 8.808066 2.610606 0.901455
v 8.715947 2.601626 0.898652
v 8.818266 2.680185 0.892091
v 8.775217 2.679495 0.890098
v 8.704557 2.527637 0.901804
v 8.669278 2.497118 0.924899
v 8.776437 2.496698 0.941191
v 8.825996 2.629536 0.922104
v 8.725107 2.637446 0.918508
v 8.826097 2.673855 0.909999
v 8.801967 2.687735 0.898828
v 8.656829 2.429089 0.946938
v 8.704748 2.388149 0.975984
v 8.762547 2.669635 0.917594
v 8.628369 2.432108 0.956038
v 8.617080 2.445018 0.974434
v 8.763827 2.404209 0.994316
v 8.795227 2.511947 0.974198
v 8.674969 2.556207 0.951887
v 8.792507 2.677485 0.926147
v 8.591290 2.305070 1.009157
v 8.608549 2.389249 0.980333
v 8.724188 2.317230 1.028047
v 8.814827 2.622206 0.942654
v 8.716558 2.615366 0.939875
v 8.738817 2.606416 0.960840
v 8.809426 2.665056 0.922674
v 8.556040 2.332210 1.020697
v 8.748567 2.331280 1.033367
v 8.755168 2.349270 1.050517
v 8.626899 2.469218 1.002128
v 8.681508 2.545517 0.974140
v 8.789026 2.608606 0.962885
v 8.527261 2.196951 1.055577
v 8.506921 2.233501 1.053387
v 8.612869 2.190842 1.081676
v 8.548900 2.348670 1.039077
v 8.592370 2.409419 1.018887
v 8.789026 2.529797 0.996842
v 8.771697 2.426018 1.036627
v 8.770097 2.525207 1.014127
v 8.739447 2.537407 1.004497
v 8.461472 2.163992 1.075346
v 8.694598 2.239891 1.087886
v 8.469391 2.243281 1.087566
v 8.667789 2.479538 1.021007
v 8.372172 2.093423 1.107656
v 8.414062 2.161252 1.100746
v 8.454871 2.076223 1.127196
v 8.512621 2.294830 1.088336
v 8.577800 2.371999 1.056657
v 8.316803 2.085633 1.128966
v 8.642778 2.137622 1.134276
v 8.661369 2.141792 1.152315
v 8.732738 2.321840 1.106596
v 8.714437 2.439858 1.057297
v 8.754467 2.435348 1.049607
v 8.297743 1.984154 1.166415
v 8.212324 2.024374 1.143486
v 8.228125 2.066123 1.161265
v 8.515640 1.981374 1.210055
v 8.598579 2.066313 1.173185
v 8.331992 2.129182 1.151276
v 8.692198 2.218211 1.134026
v 8.634778 2.385579 1.076716
v 8.728107 2.378729 1.088976
v 8.163275 1.933785 1.193555
v 8.075736 1.990954 1.168185
v 8.011897 2.011114 1.174005
v 8.072686 2.022594 1.170365
v 8.149674 2.030134 1.166115
v 8.405462 2.185452 1.145366
v 8.461291 2.228521 1.129626
v 8.554461 2.264910 1.138866
v 8.666629 2.335850 1.113906
v 8.095916 1.910055 1.220595
v 8.044557 1.961405 1.219695
v 8.395021 1.935265 1.220265
v 8.020226 1.995864 1.205365
v 8.049577 2.018884 1.179305
v 8.114655 2.039534 1.179915
v 8.623359 2.074753 1.185095
v 8.194085 2.072373 1.185195
v 8.689959 2.286600 1.142066
v 8.294674 1.867776 1.258604
v 8.276194 2.101123 1.188725
v 8.331263 2.128762 1.181235
v 8.390222 2.141352 1.191815
v 8.675638 2.197822 1.175795
v 8.691478 2.250811 1.153996
v 8.618509 2.216171 1.184865
v 8.085425 1.877646 1.270694
v 8.131166 1.826236 1.299154
v 8.188644 1.832476 1.287484
v 8.563380 1.957294 1.264964
v 8.097856 2.027484 1.208945
v 8.630689 2.093863 1.205245
v 8.654139 2.198401 1.187475
v 8.038517 1.963825 1.239314
v 8.227335 2.078623 1.206565
v 8.111176 1.820936 1.348063
v 8.072976 1.908185 1.283894
v 8.426251 1.849426 1.300084
v 8.506221 1.901625 1.283014
v 8.061526 1.977634 1.247874
v 8.144145 2.024014 1.239384
v 8.624159 2.102043 1.229755
v 8.594009 2.106063 1.246224
v 8.452671 2.083443 1.256224
v 8.200854 1.749297 1.374003
v 8.488010 1.837366 1.340543
v 8.572510 1.976194 1.297414
v 8.241474 2.036413 1.254574
v 8.144185 1.786597 1.357933
v 8.308003 1.789887 1.338993
v 8.515930 1.864256 1.363383
v 8.132055 1.971754 1.281314
v 8.581389 2.035654 1.282784
v 8.542460 2.030124 1.297064
v 8.104496 1.852646 1.347873
v 8.244074 1.946195 1.328043
v 8.121495 1.914475 1.310443
v 8.399981 1.776107 1.372943
v 8.539940 1.911775 1.357453
v 8.547820 1.970264 1.326363
v 8.315643 1.740487 1.409122
v 8.179935 1.732047 1.410452
v 8.454001 1.792927 1.397092
v 8.157084 1.760097 1.407292
v 8.156425 1.854466 1.370503
v 8.431741 1.934585 1.360313
v 8.223134 1.724818 1.424902
v 8.401372 1.766127 1.404282
v 8.151935 1.791147 1.400292
v 8.506330 1.910065 1.372473
v 8.178305 1.736447 1.439782
v 8.458820 1.806736 1.426552
v 8.494970 1.870656 1.393142
v 8.467752 1.876776 1.403812
v 8.196754 1.731167 1.436432
v 8.269464 1.733057 1.449392
v 8.374092 1.768057 1.433472
v 8.265984 1.851836 1.396542
v 8.377662 1.838206 1.426172
v 8.445962 1.837206 1.421812
v 8.214134 1.731197 1.451232
v 8.282683 1.741397 1.459381
v 8.350513 1.763027 1.452962
v 8.269254 1.775997 1.434532
v 8.401611 1.781867 1.441452
v 8.372712 1.784427 1.436312
vn -0.3475 0.1277 -0.9290
vn 0.3406 -0.1731 -0.9241
vn -0.0085 -0.3094 -0.9509
vn -0.2811 0.4716 -0.8358
vn 0.6220 0.0731 -0.7796
vn 0.2656 0.8833 -0.3862
vn -0.5150 -0.0461 -0.8560
vn 0.2876 -0.4528 -0.8440
vn 0.7764 -0.3075 -0.5501
vn -0.7887 0.3925 -0.4731
vn 0.9221 0.3101 -0.2315
vn -0.5734 0.8020 -0.1673
vn -0.1859 -0.3298 -0.9256
vn -0.6154 -0.0184 -0.7880
vn 0.6511 -0.4400 -0.6184
vn 0.9969 -0.0781 -0.0121
vn -0.7673 0.6412 -0.0098
vn 0.7617 0.5173 0.3902
vn 0.1784 0.9245 0.3370
vn -0.1906 -0.3494 -0.9174
vn 0.2562 -0.5058 -0.8237
vn -0.4451 0.8044 0.3936
vn -0.6084 -0.0820 -0.7894
vn -0.8555 0.3107 -0.4142
vn 0.7353 -0.4249 -0.5281
vn 0.9752 -0.2212 0.0042
vn -0.8381 0.5377 0.0920
vn 0.0519 0.7062 0.7061
vn -0.1715 -0.3362 -0.9260
vn -0.5609 -0.1332 -0.8171
vn 0.4351 -0.5676 -0.6990
vn 0.7501 0.1982 0.6309
vn -0.6014 0.6221 0.5014
vn -0.2872 0.5728 0.7678
vn 0.4365 0.5552 0.7080
vn -0.6663 0.0819 -0.7412
vn 0.7785 -0.5116 -0.3636
vn 0.9462 -0.3206 0.0431
vn -0.7459 0.5837 0.3207
vn -0.5596 0.5884 0.5836
vn 0.2647 0.4528 0.8514
vn -0.0254 -0.4029 -0.9149
vn -0.4592 -0.0090 -0.8883
vn 0.2649 -0.5650 -0.7814
vn -0.8295 0.5540 -0.0708
vn -0.8187 0.5640 0.1078
vn 0.7405 0.1686 0.6505
vn 0.8876 0.0053 0.4607
vn 0.2779 0.3939 0.8761
vn -0.1099 0.5167 0.8491
vn -0.2250 -0.2112 -0.9512
vn 0.7088 -0.5752 -0.4084
vn -0.7643 0.5577 -0.3236
vn -0.3552 0.5634 0.7460
vn -0.1836 -0.1528 -0.9711
vn -0.5264 0.2514 -0.8122
vn 0.1131 -0.5462 -0.8300
vn -0.6334 0.6820 0.3657
vn -0.5820 0.6273 0.5174
vn -0.4217 0.4039 -0.8118
vn 0.5213 -0.5900 -0.6165
vn 0.8443 -0.5017 -0.1882
vn 0.7619 0.0699 0.6439
vn -0.0115 0.4852 0.8743
vn 0.5060 0.2881 0.8130
vn 0.0635 -0.5396 -0.8395
vn -0.2067 0.0285 -0.9780
vn -0.3424 0.5757 -0.7425
vn 0.2812 -0.6281 -0.7256
vn 0.4134 -0.6335 -0.6541
vn -0.5553 0.7533 -0.3523
vn 0.9276 -0.3558 0.1141
vn -0.2570 0.5627 0.7857
vn 0.2739 0.4132 0.8685
vn -0.0262 -0.5766 -0.8166
vn -0.2626 -0.2587 -0.9296
vn -0.7652 0.2439 -0.5957
vn -0.2031 0.5808 -0.7883
vn -0.2022 0.4313 -0.8792
vn -0.5287 0.8068 0.2637
vn -0.5170 0.7494 0.4137
vn -0.2731 0.6207 0.7350
vn -0.0607 0.5121 0.8568
vn -0.3341 -0.6516 -0.6810
vn -0.8011 -0.5368 -0.2649
vn 0.1502 -0.6153 -0.7738
vn -0.8178 0.4184 0.3950
vn -0.3840 0.9225 -0.0386
vn -0.2929 0.8616 -0.4146
vn 0.7374 -0.5942 -0.3213
vn -0.3871 0.9173 -0.0935
vn 0.2627 0.3889 0.8830
vn 0.0892 -0.6638 -0.7425
vn -0.3923 0.9158 0.0861
vn -0.4329 0.8739 0.2210
vn -0.2807 0.7260 0.6278
vn 0.7983 -0.0698 0.5982
vn 0.5175 0.2157 0.8281
vn 0.0102 0.5001 0.8659
vn -0.7503 -0.6063 -0.2636
vn -0.3342 -0.7539 -0.5657
vn -0.0190 -0.7053 -0.7086
vn 0.7169 -0.6098 -0.3380
vn -0.3610 0.8562 0.3696
vn 0.9144 -0.3574 0.1902
vn 0.3846 0.2872 0.8773
vn -0.8992 -0.0979 0.4263
vn -0.3136 0.8506 0.4222
vn -0.9015 -0.3639 0.2343
vn -0.8860 -0.0549 0.4604
vn 0.2127 -0.6880 -0.6938
vn 0.3847 -0.6638 -0.6414
vn -0.4599 0.5018 0.7325
vn -0.2705 0.7056 0.6550
vn 0.7180 0.0645 0.6930
vn 0.2431 0.4201 0.8743
vn -0.1011 0.5897 0.8013
vn -0.0978 -0.8301 -0.5489
vn 0.5285 -0.7299 -0.4334
vn 0.9012 -0.1535 0.4054
vn -0.1822 0.6636 0.7255
vn -0.6108 -0.7294 -0.3079
vn 0.0954 -0.7545 -0.6494
vn 0.8590 -0.4644 0.2154
vn -0.2533 0.5733 0.7792
vn 0.5266 0.2635 0.8082
vn 0.1303 0.4888 0.8626
vn -0.6643 0.2643 0.6992
vn -0.1755 0.5750 0.7991
vn -0.3950 0.4876 0.7786
vn 0.2837 -0.8365 -0.4689
vn 0.7125 0.0647 0.6986
vn 0.4183 0.3730 0.8282
vn 0.2025 -0.9592 -0.1970
vn -0.4614 -0.8762 -0.1388
vn 0.5877 -0.8062 0.0677
vn -0.8237 -0.5144 0.2385
vn -0.2891 0.5026 0.8148
vn -0.0127 0.5721 0.8201
vn -0.0145 -0.9972 -0.0727
vn 0.3729 -0.9271 0.0376
vn -0.5531 0.2229 0.8027
vn 0.2902 0.4500 0.8446
vn -0.5959 -0.1807 0.7825
vn 0.5395 -0.2664 0.7987
vn 0.5530 0.1065 0.8264
vn 0.1888 0.4353 0.8803
vn -0.3519 -0.8703 0.3446
vn 0.1481 -0.8746 0.4616
vn 0.3905 -0.8262 0.4060
vn -0.1704 0.5005 0.8488
vn -0.0436 0.4038 0.9138
vn 0.2101 0.2161 0.9535
vn -0.2035 -0.3539 0.9129
vn 0.0062 0.0010 1.0000
vn 0.2635 -0.3764 0.8882
vn -0.1652 0.4068 0.8984
vn 0.3195 -0.2315 0.9189
vn 0.0467 0.2945 0.9545
usemtl mtl1.639
s 1
f 9//7 10//8 11//9
f 9//7 12//10 10//8
f 13//11 10//8 12//10
f 13//11 12//10 14//12
f 11//9 15//13 9//7
f 16//14 10//8 17//15
f 18//16 9//7 15//13
f 10//8 16//14 11//9
f 12//10 9//7 18//16
f 10//8 13//11 17//15
f 17//15 13//11 19//17
f 12//10 18//16 20//18
f 12//10 20//18 14//12
f 13//11 14//12 19//17
f 21//19 22//20 15//13
f 11//9 21//19 15//13
f 16//14 21//19 11//9
f 23//21 16//14 17//15
f 15//13 22//20 18//16
f 19//17 24//22 17//15
f 20//18 18//16 25//23
f 24//22 19//17 26//24
f 27//25 14//12 20//18
f 27//25 19//17 14//12
f 16//14 28//26 21//19
f 21//19 28//26 22//20
f 23//21 29//27 16//14
f 20//18 25//23 30//28
f 19//17 27//25 26//24
f 20//18 30//28 27//25
f 29//27 28//26 16//14
f 28//26 31//29 22//20
f 32//30 22//20 31//29
f 23//21 33//31 29//27
f 23//21 17//15 34//32
f 18//16 22//20 32//30
f 35//33 18//16 32//30
f 17//15 24//22 34//32
f 18//16 35//33 25//23
f 30//28 36//34 27//25
f 37//35 38//36 28//26
f 28//26 38//36 31//29
f 32//30 31//29 38//36
f 33//31 39//37 29//27
f 34//32 33//31 23//21
f 40//38 34//32 24//22
f 24//22 26//24 40//38
f 35//33 41//39 25//23
f 25//23 41//39 30//28
f 30//28 42//40 36//34
f 43//41 26//24 27//25
f 43//41 27//25 36//34
f 29//27 37//35 28//26
f 38//36 44//42 32//30
f 39//37 33//31 45//43
f 33//31 34//32 46//44
f 32//30 47//45 35//33
f 47//45 48//46 35//33
f 35//33 48//46 41//39
f 43//41 49//47 40//38
f 40//38 26//24 43//41
f 42//40 30//28 41//39
f 36//34 42//40 49//47
f 43//41 36//34 49//47
f 50//48 51//49 37//35
f 37//35 51//49 44//42
f 37//35 44//42 38//36
f 29//27 39//37 52//50
f 44//42 53//51 32//30
f 45//43 33//31 46//44
f 54//52 32//30 53//51
f 47//45 32//30 54//52
f 55//53 56//54 34//32
f 40//38 55//53 34//32
f 42//40 41//39 48//46
f 55//53 40//38 49//47
f 57//55 49//47 58//56
f 49//47 42//40 58//56
f 50//48 59//57 51//49
f 37//35 52//50 50//48
f 52//50 37//35 29//27
f 52//50 39//37 60//58
f 44//42 51//49 61//59
f 60//58 39//37 45//43
f 53//51 44//42 61//59
f 47//45 62//60 48//46
f 42//40 48//46 62//60
f 58//56 42//40 62//60
f 55//53 49//47 57//55
f 59//57 63//61 64//62
f 65//63 59//57 50//48
f 50//48 52//50 65//63
f 59//57 64//62 51//49
f 64//62 61//59 51//49
f 60//58 45//43 46//44
f 66//64 53//51 61//59
f 46//44 34//32 56//54
f 54//52 67//65 47//45
f 67//65 62//60 47//45
f 65//63 63//61 59//57
f 68//66 64//62 63//61
f 52//50 60//58 69//67
f 69//67 60//58 70//68
f 71//69 46//44 56//54
f 53//51 66//64 67//65
f 67//65 54//52 53//51
f 62//60 72//70 58//56
f 73//71 56//54 55//53
f 72//70 57//55 58//56
f 73//71 57//55 72//70
f 55//53 57//55 73//71
f 74//72 75//73 63//61
f 63//61 75//73 68//66
f 68//66 75//73 76//74
f 65//63 74//72 63//61
f 52//50 77//75 65//63
f 78//76 77//75 52//50
f 69//67 78//76 52//50
f 79//77 61//59 64//62
f 80//78 60//58 46//44
f 80//78 46//44 71//69
f 73//71 71//69 56//54
f 67//65 81//79 62//60
f 72//70 82//80 73//71
f 83//81 84//82 75//73
f 74//72 83//81 75//73
f 84//82 85//83 86//84
f 87//85 84//82 86//84
f 75//73 84//82 87//85
f 76//74 75//73 87//85
f 68//66 76//74 79//77
f 68//66 79//77 64//62
f 79//77 88//86 61//59
f 70//68 60//58 80//78
f 88//86 89//87 61//59
f 89//87 66//64 61//59
f 66//64 89//87 90//88
f 66//64 90//88 67//65
f 67//65 90//88 81//79
f 82//80 71//69 73//71
f 62//60 81//79 72//70
f 82//80 72//70 91//89
f 84//82 92//90 93//91
f 83//81 92//90 84//82
f 84//82 93//91 85//83
f 94//92 74//72 65//63
f 85//83 95//93 96//94
f 86//84 85//83 96//94
f 86//84 97//95 87//85
f 97//95 86//84 96//94
f 87//85 97//95 76//74
f 78//76 69//67 98//96
f 98//96 69//67 70//68
f 79//77 76//74 99//97
f 71//69 82//80 100//98
f 100//98 82//80 91//89
f 74//72 101//99 83//81
f 65//63 77//75 94//92
f 93//91 95//93 85//83
f 99//97 76//74 97//95
f 102//100 79//77 99//97
f 88//86 79//77 103//101
f 88//86 103//101 104//102
f 88//86 104//102 89//87
f 104//102 90//88 89//87
f 71//69 105//103 80//78
f 106//104 105//103 71//69
f 91//89 81//79 90//88
f 91//89 107//105 100//98
f 106//104 71//69 100//98
f 91//89 72//70 81//79
f 108//106 92//90 109//107
f 110//108 109//107 92//90
f 83//81 110//108 92//90
f 101//99 110//108 83//81
f 108//106 93//91 92//90
f 94//92 101//99 74//72
f 77//75 78//76 111//109
f 78//76 98//96 111//109
f 95//93 112//110 96//94
f 113//111 98//96 70//68
f 97//95 96//94 112//110
f 97//95 112//110 99//97
f 80//78 113//111 70//68
f 113//111 80//78 105//103
f 79//77 102//100 103//101
f 106//104 100//98 114//112
f 100//98 107//105 114//112
f 93//91 115//113 95//93
f 98//96 113//111 111//109
f 99//97 112//110 116//114
f 99//97 116//114 102//100
f 102//100 116//114 103//101
f 90//88 107//105 91//89
f 114//112 105//103 106//104
f 108//106 117//115 118//116
f 77//75 119//117 94//92
f 77//75 120//118 119//117
f 118//116 93//91 108//106
f 77//75 111//109 120//118
f 93//91 118//116 115//113
f 112//110 95//93 121//119
f 112//110 122//120 116//114
f 105//103 123//121 113//111
f 103//101 116//114 104//102
f 123//121 114//112 124//122
f 105//103 114//112 123//121
f 125//123 90//88 104//102
f 107//105 90//88 125//123
f 114//112 107//105 124//122
f 126//124 109//107 110//108
f 94//92 119//117 101//99
f 120//118 111//109 127//125
f 128//126 111//109 113//111
f 121//119 95//93 115//113
f 122//120 112//110 121//119
f 123//121 128//126 113//111
f 129//127 116//114 122//120
f 116//114 129//127 104//102
f 125//123 104//102 129//127
f 125//123 124//122 107//105
f 130//128 109//107 126//124
f 101//99 131//129 110//108
f 130//128 108//106 109//107
f 117//115 108//106 130//128
f 127//125 111//109 132//130
f 132//130 111//109 128//126
f 133//131 122//120 121//119
f 129//127 122//120 133//131
f 124//122 134//132 123//121
f 125//123 135//133 124//122
f 119//117 131//129 101//99
f 119//117 120//118 127//125
f 117//115 136//134 118//116
f 121//119 115//113 118//116
f 133//131 137//135 129//127
f 121//119 138//136 133//131
f 128//126 123//121 134//132
f 134//132 124//122 135//133
f 119//117 127//125 139//137
f 132//130 128//126 140//138
f 118//116 138//136 121//119
f 138//136 137//135 133//131
f 141//139 140//138 128//126
f 134//132 141//139 128//126
f 125//123 129//127 137//135
f 141//139 134//132 135//133
f 142//140 131//129 139//137
f 131//129 126//124 110//108
f 143//141 130//128 126//124
f 139//137 131//129 119//117
f 127//125 144//142 139//137
f 130//128 145//143 117//115
f 136//134 138//136 118//116
f 136//134 146//144 138//136
f 137//135 138//136 146//144
f 125//123 137//135 147//145
f 141//139 135//133 147//145
f 147//145 135//133 125//123
f 148//146 126//124 142//140
f 131//129 142//140 126//124
f 139//137 149//147 142//140
f 139//137 144//142 149//147
f 143//141 145//143 130//128
f 127//125 132//130 144//142
f 145//143 150//148 117//115
f 117//115 150//148 136//134
f 140//138 141//139 151//149
f 151//149 141//139 147//145
f 143//141 126//124 148//146
f 145//143 152//150 150//148
f 144//142 132//130 153//151
f 153//151 132//130 154//152
f 146//144 136//134 150//148
f 140//138 154//152 132//130
f 151//149 154//152 140//138
f 154//152 151//149 155//153
f 151//149 147//145 155//153
f 148//146 156//154 143//141
f 142//140 157//155 148//146
f 145//143 143//141 156//154
f 142//140 158//156 157//155
f 142//140 149//147 158//156
f 145//143 156//154 152//150
f 144//142 158//156 149//147
f 158//156 144//142 153//151
f 150//148 159//157 146//144
f 159//157 137//135 146//144
f 159//157 160//158 147//145
f 147//145 137//135 159//157
f 147//145 160//158 155//153
f 148//146 157//155 156//154
f 153//151 154//152 161//159
f 161//159 155//153 160//158
f 154//152 155//153 161//159
f 162//160 156//154 157//155
f 163//161 162//160 157//155
f 164//162 163//161 157//155
f 157//155 158//156 164//162
f 162//160 165//163 152//150
f 156//154 162//160 152//150
f 164//162 158//156 166//164
f 165//163 150//148 152//150
f 166//164 158//156 153//151
f 165//163 159//157 150//148
f 165//163 167//165 160//158
f 153//151 167//165 166//164
f 160//158 159//157 165//163
f 153//151 161//159 167//165
f 161//159 160//158 167//165
f 163//161 165//163 162//160
f 164//162 167//165 163//161
f 166//164 167//165 164//162
f 163//161 167//165 165//163
