# Blender v2.92.0 OBJ File: 'convert_to_one_sided.blend'
# www.blender.org
mtllib 706L.mtl
o Cube
v 0.001000 0.001000 -0.001000
v 0.001000 -0.001000 -0.001000
v 0.001000 0.001000 0.001000
v 0.001000 -0.001000 0.001000
v -0.001000 0.001000 -0.001000
v -0.001000 -0.001000 -0.001000
v -0.001000 0.001000 0.001000
v -0.001000 -0.001000 0.001000
vt 0.625000 0.500000
vt 0.875000 0.500000
vt 0.875000 0.750000
vt 0.625000 0.750000
vt 0.375000 0.750000
vt 0.625000 1.000000
vt 0.375000 1.000000
vt 0.375000 0.000000
vt 0.625000 0.000000
vt 0.625000 0.250000
vt 0.375000 0.250000
vt 0.125000 0.500000
vt 0.375000 0.500000
vt 0.125000 0.750000
vn 0.0000 1.0000 0.0000
vn 0.0000 0.0000 1.0000
vn -1.0000 0.0000 0.0000
vn 0.0000 -1.0000 0.0000
vn 1.0000 0.0000 0.0000
vn 0.0000 0.0000 -1.0000
usemtl Material
s off
f 1/1/1 5/2/1 7/3/1 3/4/1
f 4/5/2 3/4/2 7/6/2 8/7/2
f 8/8/3 7/9/3 5/10/3 6/11/3
f 6/12/4 2/13/4 4/5/4 8/14/4
f 2/13/5 1/1/5 3/4/5 4/5/5
f 6/11/6 5/10/6 1/1/6 2/13/6
o 706
v 8.104216 2.611176 4.650661
v 8.129775 2.613126 4.648971
v 8.110366 2.589176 4.654130
v 8.098076 2.590236 4.658621
v 8.065116 2.572656 4.699550
v 8.113016 2.633245 4.677640
v 8.074196 2.553077 4.716470
v 8.101496 2.561996 4.704080
v 8.118795 2.587276 4.692180
v 8.049076 2.595016 4.711440
v 8.118715 2.632445 4.704140
v 8.019736 2.626336 4.752439
v 8.076006 2.641865 4.716549
v 8.109706 2.599146 4.752719
v 8.088675 2.649655 4.740949
v 8.054557 2.539917 4.814659
v 7.991537 2.538267 4.816809
v 7.982217 2.579646 4.782389
v 8.091806 2.568226 4.761159
v 7.953388 2.618936 4.806629
v 8.090856 2.632796 4.793629
v 8.021486 2.666445 4.796459
v 8.051577 2.659455 4.828168
v 7.885908 2.546987 4.868998
v 8.062776 2.567326 4.867788
v 7.887269 2.591296 4.851638
v 7.899048 2.635815 4.853648
v 8.058756 2.604246 4.901408
v 7.987647 2.687385 4.892457
v 7.915828 2.682285 4.898037
v 7.998237 2.529157 4.991446
v 7.806290 2.560126 4.903007
v 8.036286 2.646555 4.919147
v 7.813799 2.672015 4.949157
v 7.998827 2.676845 4.936407
v 7.891559 2.507407 4.962777
v 7.955268 2.510327 4.984196
v 7.796609 2.589636 4.908107
v 7.771030 2.635995 4.955446
v 7.922918 2.697505 5.011336
v 7.797770 2.530777 4.984336
v 7.762840 2.563466 4.952397
v 7.837909 2.701555 4.988146
v 7.897869 2.698884 4.974046
v 7.894468 2.487627 5.068295
v 7.727800 2.562466 5.033165
v 7.736820 2.599816 4.995226
v 7.744461 2.669405 5.020156
v 7.960577 2.659595 5.038286
v 7.991427 2.562606 5.052795
v 7.720621 2.644495 5.049665
v 7.777000 2.693465 5.042116
v 7.718471 2.601906 5.084095
v 7.988797 2.613415 5.040465
v 7.769840 2.521777 5.098095
v 7.945218 2.503367 5.083345
v 7.827419 2.696205 5.059425
v 7.840059 2.498957 5.100275
v 7.753290 2.549476 5.135115
v 7.738930 2.675445 5.082725
v 7.896598 2.497717 5.126944
v 7.738310 2.633115 5.129874
v 7.771700 2.686055 5.085945
v 7.937908 2.518607 5.117265
v 7.918878 2.610665 5.149024
v 7.955228 2.578276 5.114645
v 7.870678 2.663285 5.106165
v 7.797510 2.515457 5.156224
v 7.926098 2.555876 5.152674
v 7.755090 2.584386 5.158704
v 7.792460 2.656565 5.127095
v 7.838539 2.511697 5.182404
v 7.793049 2.549706 5.183664
v 7.796179 2.592596 5.186754
v 7.848009 2.608216 5.177554
v 7.883759 2.530866 5.178734
v 7.872478 2.566446 5.192744
v 7.834739 2.553006 5.193354
v 7.838189 2.579246 5.186684
vn -0.4455 0.2621 -0.8560
vn 0.8714 0.1655 -0.4618
vn 0.1720 -0.6756 -0.7169
vn -0.4516 -0.3794 -0.8075
vn -0.5859 -0.4817 -0.6517
vn 0.1934 0.8980 -0.3953
vn -0.0721 -0.9230 -0.3779
vn 0.5891 -0.8017 -0.1009
vn 0.8762 -0.4817 -0.0150
vn -0.7287 -0.0015 -0.6849
vn 0.8166 0.5708 0.0853
vn -0.6348 0.3699 -0.6784
vn -0.2959 0.8373 -0.4598
vn 0.9634 -0.1055 0.2465
vn 0.3481 0.9364 -0.0441
vn 0.4523 -0.8908 0.0440
vn -0.2387 -0.8909 -0.3864
vn -0.6350 -0.2221 -0.7399
vn 0.8152 -0.5429 0.2016
vn -0.6127 0.1060 -0.7832
vn 0.8246 0.4984 0.2677
vn -0.1506 0.9171 -0.3692
vn 0.5108 0.8545 0.0946
vn -0.4006 -0.6930 -0.5994
vn 0.8604 -0.4287 0.2754
vn -0.5545 -0.0483 -0.8308
vn -0.5313 0.4592 -0.7120
vn 0.9236 0.0883 0.3730
vn 0.1862 0.9800 -0.0697
vn -0.2197 0.8918 -0.3954
vn 0.7079 -0.6709 0.2208
vn -0.5467 -0.4912 -0.6781
vn 0.7717 0.5394 0.3370
vn -0.4440 0.7417 -0.5028
vn 0.5524 0.8025 0.2255
vn -0.1568 -0.9588 -0.2370
vn 0.2393 -0.9695 -0.0531
vn -0.6879 0.0898 -0.7202
vn -0.7152 0.3791 -0.5872
vn 0.2853 0.9266 0.2448
vn -0.4034 -0.8745 -0.2693
vn -0.7666 -0.4190 -0.4866
vn -0.1605 0.9699 -0.1830
vn 0.0182 0.9974 -0.0701
vn 0.0537 -0.9985 -0.0132
vn -0.8415 -0.5227 -0.1366
vn -0.9133 0.0214 -0.4066
vn -0.6658 0.6670 -0.3346
vn 0.5984 0.6673 0.4434
vn 0.8814 -0.1783 0.4374
vn -0.9468 0.2934 -0.1321
vn -0.3268 0.9414 -0.0838
vn -0.9844 -0.0927 0.1493
vn 0.8272 0.3166 0.4642
vn -0.5397 -0.8417 0.0145
vn 0.4880 -0.8504 0.1968
vn 0.0349 0.9628 0.2679
vn -0.2215 -0.9749 0.0210
vn -0.7939 -0.4948 0.3534
vn -0.5937 0.7599 0.2649
vn 0.2556 -0.9170 0.3064
vn -0.7255 0.3945 0.5639
vn -0.1730 0.9081 0.3814
vn 0.6915 -0.5284 0.4927
vn 0.5809 0.4623 0.6699
vn 0.8221 0.1218 0.5562
vn 0.2424 0.8028 0.5448
vn -0.4824 -0.7994 0.3581
vn 0.7209 -0.1114 0.6840
vn -0.7669 -0.0748 0.6374
vn -0.1083 0.7535 0.6485
vn -0.0800 -0.7462 0.6609
vn -0.4996 -0.3288 0.8014
vn -0.2519 0.3064 0.9180
vn 0.1115 0.5624 0.8193
vn 0.4106 -0.4542 0.7906
vn 0.2838 0.1300 0.9500
vn -0.0261 -0.0944 0.9952
vn 0.0134 0.2650 0.9642
usemtl mtl1.648
s 1
f 9//7 10//8 11//9
f 11//9 12//10 9//7
f 12//10 11//9 13//11
f 10//8 9//7 14//12
f 11//9 15//13 13//11
f 15//13 11//9 16//14
f 17//15 16//14 11//9
f 10//8 17//15 11//9
f 9//7 13//11 18//16
f 13//11 9//7 12//10
f 19//17 10//8 14//12
f 9//7 20//18 21//19
f 21//19 14//12 9//7
f 18//16 20//18 9//7
f 22//20 10//8 19//17
f 14//12 21//19 23//21
f 23//21 19//17 14//12
f 16//14 24//22 15//13
f 22//20 17//15 10//8
f 13//11 25//23 26//24
f 13//11 15//13 25//23
f 25//23 15//13 24//22
f 27//25 16//14 17//15
f 13//11 26//24 18//16
f 17//15 22//20 27//25
f 20//18 26//24 28//26
f 26//24 20//18 18//16
f 29//27 22//20 19//17
f 30//28 23//21 21//19
f 29//27 19//17 23//21
f 24//22 16//14 27//25
f 20//18 30//28 21//19
f 31//29 29//27 23//21
f 23//21 30//28 31//29
f 25//23 32//30 26//24
f 22//20 33//31 27//25
f 28//26 26//24 34//32
f 28//26 35//33 20//18
f 29//27 36//34 22//20
f 20//18 35//33 30//28
f 30//28 37//35 31//29
f 27//25 33//31 24//22
f 32//30 34//32 26//24
f 36//34 33//31 22//20
f 35//33 38//36 30//28
f 30//28 38//36 37//35
f 33//31 39//37 24//22
f 32//30 40//38 34//32
f 34//32 35//33 28//26
f 36//34 29//27 41//39
f 41//39 29//27 31//29
f 38//36 35//33 42//40
f 43//41 31//29 37//35
f 25//23 44//42 32//30
f 25//23 45//43 44//42
f 25//23 24//22 45//43
f 40//38 46//44 34//32
f 34//32 46//44 35//33
f 35//33 46//44 47//45
f 43//41 41//39 31//29
f 37//35 48//46 43//41
f 24//22 39//37 45//43
f 40//38 49//47 50//48
f 32//30 49//47 40//38
f 40//38 50//48 46//44
f 35//33 47//45 42//40
f 38//36 42//40 51//49
f 38//36 52//50 37//35
f 49//47 32//30 44//42
f 38//36 51//49 52//50
f 45//43 53//51 44//42
f 49//47 54//52 50//48
f 50//48 54//52 55//53
f 46//44 50//48 55//53
f 47//45 46//44 55//53
f 47//45 56//54 42//40
f 43//41 48//46 57//55
f 37//35 52//50 48//46
f 33//31 36//34 58//56
f 47//45 55//53 59//57
f 47//45 59//57 56//54
f 42//40 56//54 60//58
f 42//40 60//58 51//49
f 58//56 39//37 33//31
f 55//53 54//52 61//59
f 58//56 36//34 62//60
f 59//57 55//53 61//59
f 36//34 41//39 62//60
f 43//41 57//55 41//39
f 49//47 63//61 54//52
f 64//62 45//43 39//37
f 57//55 62//60 41//39
f 51//49 65//63 52//50
f 44//42 66//64 49//47
f 49//47 66//64 63//61
f 67//65 54//52 63//61
f 56//54 59//57 68//66
f 56//54 68//66 60//58
f 51//49 60//58 65//63
f 52//50 65//63 48//46
f 66//64 44//42 53//51
f 53//51 45//43 69//67
f 54//52 67//65 61//59
f 59//57 70//68 68//66
f 65//63 60//58 71//69
f 53//51 69//67 66//64
f 45//43 64//62 69//67
f 72//70 64//62 39//37
f 58//56 72//70 39//37
f 70//68 59//57 61//59
f 62//60 57//55 73//71
f 71//69 60//58 68//66
f 58//56 62//60 74//72
f 62//60 73//71 74//72
f 75//73 57//55 48//46
f 48//46 65//63 75//73
f 66//64 76//74 63//61
f 64//62 72//70 69//67
f 77//75 72//70 58//56
f 67//65 78//76 61//59
f 77//75 58//56 74//72
f 73//71 57//55 75//73
f 71//69 68//66 79//77
f 71//69 79//77 65//63
f 63//61 76//74 67//65
f 78//76 70//68 61//59
f 70//68 79//77 68//66
f 79//77 75//73 65//63
f 66//64 69//67 80//78
f 67//65 76//74 81//79
f 81//79 78//76 67//65
f 82//80 70//68 78//76
f 70//68 82//80 79//77
f 75//73 83//81 73//71
f 75//73 79//77 83//81
f 80//78 76//74 66//64
f 69//67 84//82 80//78
f 72//70 84//82 69//67
f 73//71 77//75 74//72
f 83//81 79//77 82//80
f 80//78 81//79 76//74
f 72//70 77//75 84//82
f 77//75 73//71 85//83
f 85//83 73//71 83//81
f 81//79 80//78 86//84
f 86//84 80//78 84//82
f 85//83 84//82 77//75
f 81//79 82//80 78//76
f 86//84 82//80 81//79
f 86//84 87//85 82//80
f 85//83 83//81 87//85
f 87//85 83//81 82//80
f 84//82 85//83 86//84
f 85//83 87//85 86//84
