# Blender v2.92.0 OBJ File: 'convert_to_one_sided.blend'
# www.blender.org
mtllib 725L.mtl
o 725
v 7.653711 4.314634 4.092368
v 7.629042 4.309184 4.091228
v 7.621822 4.360484 4.087898
v 7.578002 4.370773 4.110148
v 7.622762 4.395163 4.104748
v 7.667671 4.361403 4.127798
v 7.561623 4.438663 4.113598
v 7.643631 4.273724 4.115227
v 7.664551 4.269635 4.129137
v 7.610372 4.284244 4.137807
v 7.679142 4.316244 4.146627
v 7.521363 4.456492 4.123048
v 7.556793 4.480892 4.138998
v 7.643411 4.259625 4.145367
v 7.555953 4.338564 4.156137
v 7.501584 4.432683 4.158547
v 7.631382 4.434382 4.175117
v 7.481544 4.494212 4.137928
v 7.476744 4.521471 4.144527
v 7.453134 4.528761 4.155757
v 7.480814 4.560071 4.174357
v 7.681771 4.282414 4.181937
v 7.407755 4.597880 4.188317
v 7.419494 4.605590 4.196667
v 7.650511 4.260554 4.185966
v 7.608302 4.267915 4.192806
v 7.561203 4.306944 4.201536
v 7.530903 4.353394 4.195357
v 7.679941 4.389343 4.246776
v 7.541003 4.536361 4.215117
v 7.431764 4.529331 4.201637
v 7.671102 4.282145 4.233186
v 7.687001 4.344144 4.280426
v 7.362775 4.654459 4.254646
v 7.438004 4.631020 4.245116
v 7.381935 4.659420 4.248917
v 7.480424 4.410903 4.257806
v 7.379685 4.570470 4.308955
v 7.601662 4.287045 4.267015
v 7.559253 4.316424 4.245225
v 7.635822 4.301614 4.298085
v 7.676271 4.321164 4.305095
v 7.592992 4.519291 4.336305
v 7.336075 4.656620 4.328815
v 7.495013 4.609550 4.319436
v 7.332836 4.724899 4.310245
v 7.363095 4.720239 4.320275
v 7.655761 4.319594 4.333135
v 7.686341 4.390613 4.376255
v 7.663241 4.433962 4.388364
v 7.312736 4.722448 4.357605
v 7.418904 4.690169 4.355474
v 7.305826 4.775738 4.366785
v 7.540263 4.361564 4.351045
v 7.390165 4.507751 4.383235
v 7.456274 4.673709 4.419234
v 7.607092 4.332474 4.369814
v 7.672591 4.370822 4.416984
v 7.454264 4.431313 4.374115
v 7.328156 4.623580 4.414034
v 7.306276 4.778278 4.379175
v 7.283466 4.797397 4.424584
v 7.641531 4.345403 4.419034
v 7.658872 4.350183 4.407973
v 7.277377 4.786687 4.453904
v 7.355785 4.755458 4.439524
v 7.486044 4.421222 4.441534
v 7.627512 4.491352 4.494443
v 7.532483 4.598800 4.511463
v 7.274587 4.718958 4.487653
v 7.407945 4.478521 4.449664
v 7.352785 4.545650 4.464874
v 7.293976 4.793057 4.466953
v 7.566613 4.392472 4.468103
v 7.459184 4.459062 4.494753
v 7.657392 4.423602 4.489963
v 7.293876 4.630040 4.537523
v 7.244177 4.770538 4.559332
v 7.265966 4.784547 4.537702
v 7.638701 4.391422 4.485693
v 7.386505 4.523571 4.510952
v 7.643782 4.462392 4.566412
v 7.606492 4.510111 4.570082
v 7.400595 4.723438 4.540833
v 7.310396 4.773088 4.541603
v 7.544773 4.456511 4.554002
v 7.608512 4.429082 4.555683
v 7.435954 4.493101 4.515613
v 7.251027 4.712588 4.570802
v 7.434994 4.512301 4.541122
v 7.605382 4.467981 4.597042
v 7.499593 4.511751 4.563082
v 7.337115 4.583210 4.562342
v 7.557043 4.565300 4.574242
v 7.246297 4.695099 4.610462
v 7.468864 4.649719 4.571792
v 7.235657 4.761358 4.609571
v 7.322986 4.762678 4.598772
v 7.633761 4.449781 4.565802
v 7.543583 4.513051 4.581602
v 7.633761 4.475061 4.588382
v 7.392965 4.602890 4.581802
v 7.478444 4.555911 4.573012
v 7.278666 4.652739 4.595402
v 7.374125 4.724868 4.598812
v 7.242277 4.737808 4.605092
v 7.599592 4.503881 4.591732
v 7.525523 4.554800 4.586732
v 7.567173 4.521561 4.585352
v 7.531093 4.568650 4.580932
v 7.307616 4.656439 4.607991
v 7.458184 4.619150 4.584832
v 7.362985 4.672899 4.610032
v 7.399415 4.681818 4.599142
v 7.276796 4.765118 4.598272
v 7.253916 4.698978 4.625551
v 7.244496 4.729678 4.617562
v 7.321206 4.717848 4.626892
v 7.620152 4.477141 4.583292
v 7.295216 4.700579 4.625381
v 7.308756 4.745958 4.614182
v 7.273746 4.729448 4.613042
vn 0.5661 -0.1017 -0.8180
vn -0.3080 -0.3868 -0.8692
vn -0.0288 0.1073 -0.9938
vn -0.5667 -0.2590 -0.7822
vn 0.4868 0.4870 -0.7252
vn 0.8350 0.3595 -0.4166
vn -0.0399 0.2784 -0.9596
vn -0.0493 -0.7368 -0.6743
vn 0.6248 -0.6837 -0.3770
vn -0.6113 -0.6563 -0.4422
vn 0.9673 -0.0242 -0.2524
vn -0.4181 -0.0971 -0.9032
vn 0.4206 0.6338 -0.6491
vn -0.1277 -0.9614 -0.2439
vn -0.7410 -0.4987 -0.4497
vn -0.7691 -0.4186 -0.4830
vn 0.7047 0.6379 -0.3105
vn -0.5515 -0.1352 -0.8231
vn -0.1001 0.3648 -0.9257
vn -0.7072 -0.1724 -0.6857
vn 0.3782 0.6931 -0.6136
vn 0.8658 -0.5000 0.0212
vn -0.5530 0.2345 -0.7995
vn 0.1332 0.6740 -0.7266
vn 0.2191 -0.9645 0.1475
vn -0.4639 -0.8858 0.0115
vn -0.7389 -0.6596 -0.1375
vn -0.8200 -0.5046 -0.2703
vn 0.9168 0.3828 -0.1136
vn 0.6201 0.7186 -0.3150
vn -0.8565 -0.3793 -0.3501
vn 0.4953 -0.8198 0.2875
vn 0.9914 -0.1224 0.0468
vn -0.8434 -0.0252 -0.5366
vn 0.4890 0.7617 -0.4250
vn -0.0460 0.6893 -0.7230
vn -0.8076 -0.5775 -0.1191
vn -0.8739 -0.4074 -0.2653
vn -0.3079 -0.9031 0.2992
vn -0.6729 -0.7251 0.1467
vn 0.0932 -0.9293 0.3574
vn 0.7817 -0.5693 0.2548
vn 0.7411 0.6600 -0.1230
vn -0.9142 -0.2987 -0.2739
vn 0.6551 0.7211 -0.2254
vn -0.3605 0.5771 -0.7328
vn 0.4149 0.8016 -0.4305
vn 0.4005 -0.8501 0.3420
vn 0.9875 0.1253 0.0961
vn 0.8702 0.4926 0.0089
vn -0.9301 -0.0928 -0.3554
vn 0.6095 0.7584 -0.2310
vn -0.6815 0.4828 -0.5500
vn -0.5663 -0.7937 0.2220
vn -0.8294 -0.5390 -0.1471
vn 0.6703 0.7351 -0.1015
vn -0.2609 -0.8863 0.3826
vn 0.8544 -0.4048 0.3259
vn -0.6746 -0.7374 0.0348
vn -0.9039 -0.3639 -0.2248
vn 0.2413 0.8960 -0.3727
vn -0.3956 0.8924 -0.2170
vn 0.1089 -0.8906 0.4415
vn 0.5592 -0.7300 0.3928
vn -0.9308 0.2620 -0.2550
vn 0.5567 0.8273 -0.0755
vn -0.5140 -0.8175 0.2597
vn 0.8372 0.5465 0.0182
vn 0.7191 0.6918 0.0660
vn -0.9353 -0.2181 -0.2785
vn -0.6770 -0.7213 0.1462
vn -0.8190 -0.5737 -0.0127
vn 0.2935 0.9552 0.0388
vn -0.3047 -0.8453 0.4389
vn -0.4814 -0.7486 0.4560
vn 0.9584 -0.0520 0.2807
vn -0.8413 -0.5377 -0.0550
vn -0.9612 0.2340 -0.1462
vn -0.3149 0.9413 0.1212
vn 0.4260 -0.7285 0.5364
vn -0.6104 -0.7086 0.3541
vn 0.9427 0.1593 0.2931
vn 0.7399 0.6109 0.2818
vn 0.6084 0.7817 0.1372
vn 0.3188 0.9349 0.1560
vn -0.3652 -0.6111 0.7023
vn -0.0167 -0.7938 0.6079
vn -0.4959 -0.6814 0.5383
vn -0.9497 -0.2307 -0.2117
vn -0.3683 -0.5878 0.7203
vn 0.0725 -0.2759 0.9584
vn -0.3275 -0.3846 0.8631
vn -0.4539 -0.6873 0.5671
vn 0.5902 0.6049 0.5346
vn -0.9061 -0.3625 0.2181
vn 0.5573 0.5222 0.6456
vn -0.6000 0.5520 0.5790
vn 0.3305 0.8312 0.4471
vn 0.5592 -0.5282 0.6390
vn -0.2858 -0.2600 0.9223
vn 0.5562 -0.0073 0.8310
vn -0.0554 -0.4083 0.9112
vn -0.2292 -0.3010 0.9257
vn -0.5738 -0.6674 0.4747
vn 0.4947 0.5363 0.6838
vn -0.9943 -0.0573 0.0900
vn 0.3093 0.2716 0.9114
vn -0.0483 -0.0341 0.9982
vn -0.0486 0.0562 0.9972
vn 0.2121 0.2887 0.9336
vn -0.0970 -0.4834 0.8700
vn 0.1485 0.0053 0.9889
vn 0.1514 -0.2141 0.9650
vn 0.3918 0.1537 0.9071
vn 0.0038 0.8087 0.5882
vn -0.3530 -0.2272 0.9076
vn -0.6581 0.0573 0.7508
vn 0.1497 0.1870 0.9709
vn 0.3017 -0.2407 0.9225
vn -0.0172 -0.0824 0.9965
vn 0.0777 0.5195 0.8509
vn -0.0985 0.3276 0.9397
usemtl mtl1.1477
s 1
f 1//1 2//2 3//3
f 3//3 2//2 4//4
f 3//3 5//5 1//1
f 5//5 6//6 1//1
f 3//3 4//4 7//7
f 5//5 3//3 7//7
f 8//8 1//1 9//9
f 10//10 2//2 8//8
f 1//1 8//8 2//2
f 2//2 10//10 4//4
f 6//6 11//11 1//1
f 4//4 12//12 7//7
f 5//5 7//7 13//13
f 14//14 8//8 9//9
f 11//11 9//9 1//1
f 4//4 10//10 15//15
f 16//16 4//4 15//15
f 4//4 16//16 12//12
f 6//6 5//5 17//17
f 16//16 18//18 12//12
f 12//12 19//19 7//7
f 19//19 13//13 7//7
f 12//12 18//18 19//19
f 19//19 18//18 20//20
f 13//13 19//19 21//21
f 10//10 8//8 14//14
f 22//22 9//9 11//11
f 17//17 5//5 13//13
f 16//16 20//20 18//18
f 19//19 20//20 23//23
f 19//19 23//23 24//24
f 24//24 21//21 19//19
f 9//9 25//25 14//14
f 26//26 10//10 14//14
f 25//25 9//9 22//22
f 27//27 15//15 10//10
f 16//16 15//15 28//28
f 11//11 6//6 29//29
f 6//6 17//17 29//29
f 17//17 13//13 30//30
f 23//23 20//20 31//31
f 26//26 14//14 25//25
f 10//10 26//26 27//27
f 32//32 25//25 22//22
f 15//15 27//27 28//28
f 11//11 33//33 22//22
f 33//33 11//11 29//29
f 16//16 31//31 20//20
f 30//30 13//13 21//21
f 34//34 23//23 31//31
f 35//35 21//21 24//24
f 23//23 34//34 36//36
f 24//24 23//23 36//36
f 31//31 16//16 37//37
f 38//38 34//34 31//31
f 21//21 35//35 30//30
f 26//26 39//39 40//40
f 27//27 26//26 40//40
f 25//25 39//39 26//26
f 41//41 39//39 25//25
f 32//32 41//41 25//25
f 42//42 32//32 22//22
f 22//22 33//33 42//42
f 28//28 37//37 16//16
f 43//43 17//17 30//30
f 36//36 35//35 24//24
f 28//28 27//27 37//37
f 29//29 17//17 43//43
f 31//31 37//37 38//38
f 38//38 44//44 34//34
f 45//45 30//30 35//35
f 36//36 34//34 46//46
f 36//36 46//46 47//47
f 36//36 47//47 35//35
f 48//48 41//41 32//32
f 32//32 42//42 48//48
f 27//27 40//40 37//37
f 33//33 29//29 49//49
f 29//29 43//43 50//50
f 43//43 30//30 45//45
f 44//44 51//51 34//34
f 52//52 45//45 35//35
f 46//46 34//34 51//51
f 53//53 46//46 51//51
f 39//39 54//54 40//40
f 49//49 29//29 50//50
f 38//38 37//37 55//55
f 43//43 45//45 56//56
f 35//35 47//47 52//52
f 57//57 54//54 39//39
f 40//40 54//54 37//37
f 58//58 42//42 33//33
f 33//33 49//49 58//58
f 37//37 59//59 55//55
f 38//38 60//60 44//44
f 61//61 53//53 62//62
f 46//46 53//53 61//61
f 47//47 46//46 61//61
f 39//39 41//41 57//57
f 41//41 63//63 57//57
f 48//48 63//63 41//41
f 42//42 64//64 48//48
f 37//37 54//54 59//59
f 60//60 38//38 55//55
f 52//52 56//56 45//45
f 51//51 65//65 53//53
f 47//47 66//66 52//52
f 62//62 53//53 65//65
f 66//66 47//47 61//61
f 48//48 64//64 63//63
f 64//64 42//42 58//58
f 67//67 59//59 54//54
f 50//50 43//43 68//68
f 69//69 43//43 56//56
f 44//44 60//60 51//51
f 65//65 51//51 70//70
f 59//59 67//67 71//71
f 55//55 59//59 71//71
f 60//60 55//55 72//72
f 51//51 60//60 70//70
f 56//56 52//52 66//66
f 61//61 62//62 73//73
f 66//66 61//61 73//73
f 54//54 57//57 74//74
f 67//67 75//75 71//71
f 50//50 76//76 49//49
f 50//50 68//68 76//76
f 60//60 72//72 77//77
f 70//70 78//78 65//65
f 62//62 65//65 79//79
f 79//79 65//65 78//78
f 62//62 79//79 73//73
f 74//74 67//67 54//54
f 49//49 76//76 58//58
f 55//55 71//71 72//72
f 69//69 68//68 43//43
f 57//57 63//63 74//74
f 64//64 80//80 63//63
f 67//67 74//74 75//75
f 72//72 71//71 81//81
f 75//75 81//81 71//71
f 76//76 68//68 82//82
f 83//83 68//68 69//69
f 77//77 70//70 60//60
f 56//56 66//66 84//84
f 66//66 73//73 85//85
f 63//63 80//80 74//74
f 86//86 74//74 87//87
f 74//74 86//86 75//75
f 64//64 58//58 80//80
f 88//88 81//81 75//75
f 70//70 77//77 89//89
f 75//75 90//90 88//88
f 75//75 86//86 90//90
f 82//82 68//68 83//83
f 72//72 81//81 77//77
f 69//69 56//56 84//84
f 70//70 89//89 78//78
f 84//84 66//66 85//85
f 73//73 79//79 85//85
f 86//86 87//87 91//91
f 76//76 80//80 58//58
f 86//86 92//92 90//90
f 81//81 88//88 90//90
f 90//90 93//93 81//81
f 77//77 81//81 93//93
f 69//69 94//94 83//83
f 77//77 95//95 89//89
f 96//96 69//69 84//84
f 97//97 79//79 78//78
f 98//98 84//84 85//85
f 74//74 80//80 87//87
f 99//99 80//80 76//76
f 100//100 92//92 86//86
f 82//82 99//99 76//76
f 82//82 83//83 101//101
f 93//93 90//90 102//102
f 102//102 90//90 103//103
f 100//100 103//103 92//92
f 103//103 90//90 92//92
f 77//77 93//93 104//104
f 104//104 95//95 77//77
f 94//94 69//69 96//96
f 105//105 96//96 84//84
f 89//89 106//106 78//78
f 100//100 86//86 91//91
f 99//99 82//82 101//101
f 83//83 107//107 101//101
f 103//103 100//100 108//108
f 108//108 100//100 109//109
f 110//110 107//107 94//94
f 93//93 102//102 111//111
f 110//110 108//108 109//109
f 83//83 94//94 107//107
f 104//104 93//93 111//111
f 103//103 112//112 102//102
f 112//112 113//113 102//102
f 108//108 112//112 103//103
f 110//110 112//112 108//108
f 102//102 113//113 111//111
f 110//110 96//96 112//112
f 94//94 96//96 110//110
f 114//114 112//112 96//96
f 89//89 95//95 106//106
f 114//114 96//96 105//105
f 106//106 97//97 78//78
f 105//105 84//84 98//98
f 79//79 97//97 115//115
f 79//79 115//115 85//85
f 99//99 91//91 87//87
f 80//80 99//99 87//87
f 107//107 110//110 109//109
f 104//104 111//111 116//116
f 104//104 116//116 95//95
f 95//95 116//116 117//117
f 106//106 95//95 117//117
f 112//112 114//114 113//113
f 118//118 113//113 114//114
f 114//114 105//105 118//118
f 115//115 98//98 85//85
f 91//91 99//99 119//119
f 99//99 101//101 119//119
f 91//91 109//109 100//100
f 107//107 109//109 91//91
f 111//111 120//120 116//116
f 113//113 120//120 111//111
f 120//120 113//113 118//118
f 118//118 105//105 121//121
f 117//117 97//97 106//106
f 121//121 98//98 115//115
f 105//105 98//98 121//121
f 119//119 107//107 91//91
f 101//101 107//107 119//119
f 120//120 122//122 116//116
f 122//122 117//117 116//116
f 118//118 122//122 120//120
f 122//122 97//97 117//117
f 121//121 122//122 118//118
f 115//115 97//97 122//122
f 121//121 115//115 122//122
