# Blender v2.92.0 OBJ File: 'convert_to_one_sided.blend'
# www.blender.org
mtllib 72L.mtl
o 72
v 5.005735 5.379730 5.248713
v 4.931247 5.380390 5.254413
v 4.982156 5.487799 5.230094
v 4.952056 5.533608 5.229313
v 4.913047 5.508088 5.246994
v 5.038825 5.569657 5.233414
v 4.951456 5.620667 5.236293
v 5.000855 5.651406 5.240083
v 5.051405 5.674826 5.241924
v 4.975106 5.325551 5.282793
v 5.014535 5.317370 5.301133
v 4.884607 5.411519 5.290373
v 5.113655 5.533227 5.286653
v 4.919707 5.614777 5.262063
v 5.102714 5.690606 5.272393
v 4.962476 5.682676 5.261553
v 5.058835 5.746155 5.274163
v 5.003656 5.745835 5.283723
v 4.911587 5.343720 5.335992
v 4.949037 5.322190 5.320042
v 5.083724 5.386390 5.341312
v 4.884287 5.523848 5.291713
v 5.151194 5.659926 5.299153
v 4.948766 5.712155 5.318232
v 5.120554 5.795565 5.324482
v 5.037615 5.306001 5.366362
v 5.133734 5.464499 5.338593
v 4.875638 5.465788 5.352742
v 4.903537 5.619777 5.319752
v 5.187973 5.633147 5.342472
v 5.170563 5.742075 5.340272
v 5.009066 5.790474 5.332423
v 5.061595 5.799005 5.331602
v 4.995006 5.300591 5.361332
v 4.894817 5.390610 5.370362
v 5.156013 5.454899 5.391382
v 4.887197 5.566457 5.352402
v 5.174684 5.528558 5.369382
v 5.222343 5.710636 5.397481
v 4.991426 5.781224 5.374622
v 5.181113 5.814214 5.394241
v 5.201983 5.771805 5.391771
v 5.045915 5.814444 5.381432
v 5.029675 5.293081 5.428381
v 4.956646 5.313091 5.398871
v 5.212473 5.597357 5.401561
v 4.913847 5.645637 5.378802
v 4.958856 5.727135 5.394432
v 5.114174 5.820404 5.384452
v 5.071425 5.335171 5.418521
v 4.910607 5.541448 5.434961
v 5.011055 5.761195 5.443701
v 4.992646 5.301381 5.437521
v 4.926736 5.353820 5.427491
v 5.138144 5.416329 5.446681
v 4.915837 5.423549 5.440821
v 5.202243 5.529868 5.435671
v 5.217253 5.774994 5.419101
v 5.237252 5.715446 5.458111
v 5.092205 5.805324 5.444191
v 5.225743 5.630266 5.436021
v 5.203033 5.792934 5.449501
v 5.152254 5.813194 5.441601
v 4.977486 5.338980 5.486660
v 4.952847 5.662386 5.446651
v 5.019605 5.309201 5.471641
v 5.070285 5.345670 5.480011
v 5.193313 5.504899 5.487330
v 5.223752 5.623076 5.481471
v 4.962176 5.591757 5.504100
v 5.134264 5.793724 5.488790
v 5.177833 5.791784 5.480310
v 4.942556 5.385250 5.474761
v 5.131134 5.423059 5.505800
v 4.974516 5.455849 5.513980
v 5.230723 5.700776 5.492520
v 4.998576 5.672846 5.500950
v 5.209563 5.743035 5.487841
v 5.083425 5.722035 5.512620
v 5.040845 5.342550 5.510970
v 5.081765 5.371970 5.512910
v 5.204593 5.678886 5.517840
v 5.166513 5.527828 5.525140
v 5.162243 5.743795 5.504190
v 5.023235 5.382610 5.527770
v 5.082745 5.416479 5.533060
v 5.021745 5.571687 5.539880
v 5.157864 5.602907 5.550499
v 5.141834 5.661746 5.540300
v 5.042275 5.443169 5.553289
v 5.023846 5.483319 5.549389
v 5.107704 5.512448 5.554329
v 5.111594 5.573437 5.563469
v 5.084105 5.598487 5.549550
v 5.065525 5.529978 5.550999
vn 0.3452 -0.3659 -0.8643
vn -0.4407 -0.4135 -0.7967
vn 0.0069 -0.0713 -0.9974
vn -0.1906 -0.0076 -0.9816
vn -0.6531 0.0161 -0.7571
vn 0.3085 -0.0264 -0.9508
vn -0.4012 0.2305 -0.8865
vn -0.0775 0.2491 -0.9654
vn 0.1984 0.2264 -0.9536
vn -0.1399 -0.8032 -0.5790
vn 0.4003 -0.7696 -0.4974
vn -0.9184 -0.2349 -0.3185
vn 0.6480 -0.2050 -0.7335
vn -0.7932 0.3147 -0.5213
vn 0.4999 0.1753 -0.8482
vn -0.5040 0.4832 -0.7159
vn 0.0618 0.5266 -0.8479
vn -0.3372 0.6168 -0.7113
vn -0.7693 -0.6316 -0.0964
vn -0.4677 -0.8418 -0.2694
vn 0.7456 -0.5067 -0.4328
vn -0.9494 0.1248 -0.2882
vn 0.6523 0.0433 -0.7567
vn -0.8096 0.5353 -0.2408
vn 0.3163 0.6645 -0.6770
vn 0.5491 -0.8044 -0.2269
vn 0.7503 -0.3690 -0.5485
vn -0.9869 -0.0328 0.1583
vn -0.9312 0.3369 -0.1388
vn 0.8097 -0.0825 -0.5810
vn 0.6895 0.2623 -0.6751
vn -0.4815 0.8014 -0.3549
vn -0.0894 0.8540 -0.5126
vn -0.1113 -0.9820 -0.1524
vn -0.9365 -0.2909 0.1958
vn 0.8322 -0.4680 -0.2974
vn -0.9753 0.1954 0.1028
vn 0.8376 -0.2821 -0.4678
vn 0.9057 0.0673 -0.4185
vn -0.7030 0.7028 0.1087
vn 0.5570 0.7687 -0.3143
vn 0.7718 0.3253 -0.5464
vn -0.3251 0.9437 0.0609
vn 0.3212 -0.9400 0.1145
vn -0.5434 -0.8283 0.1364
vn 0.9177 -0.1934 -0.3471
vn -0.9136 0.3563 0.1958
vn -0.8281 0.4980 0.2575
vn 0.0038 0.9941 -0.1084
vn 0.7570 -0.6512 -0.0533
vn -0.8822 0.1128 0.4571
vn -0.5744 0.6228 0.5312
vn -0.3213 -0.9153 0.2430
vn -0.8109 -0.4639 0.3566
vn 0.8076 -0.5895 -0.0157
vn -0.8742 -0.1040 0.4742
vn 0.9306 -0.3402 -0.1351
vn 0.8876 0.4039 -0.2215
vn 0.9795 0.1749 0.0996
vn -0.2793 0.8513 0.4442
vn 0.9814 -0.1490 -0.1213
vn 0.6784 0.6807 0.2765
vn 0.1239 0.9567 0.2633
vn -0.5137 -0.5624 0.6479
vn -0.8000 0.3631 0.4776
vn 0.0541 -0.8620 0.5040
vn 0.6260 -0.7217 0.2953
vn 0.8678 -0.3918 0.3056
vn 0.9270 -0.1780 0.3301
vn -0.6957 0.1729 0.6972
vn -0.0640 0.6888 0.7221
vn 0.3492 0.6632 0.6620
vn -0.7532 -0.2214 0.6194
vn 0.6930 -0.5117 0.5079
vn -0.6282 -0.0819 0.7737
vn 0.8376 0.1411 0.5278
vn -0.5435 0.3847 0.7461
vn 0.6127 0.4268 0.6652
vn -0.2562 0.4289 0.8662
vn 0.1525 -0.6339 0.7582
vn 0.5178 -0.5781 0.6306
vn 0.5456 0.1239 0.8289
vn 0.6330 -0.2423 0.7352
vn 0.1823 0.3734 0.9096
vn -0.2237 -0.3536 0.9083
vn 0.3305 -0.3581 0.8732
vn -0.3617 0.1548 0.9193
vn 0.4024 -0.0150 0.9153
vn 0.0580 0.2986 0.9526
vn -0.1358 -0.1722 0.9757
vn -0.3555 0.0130 0.9346
vn 0.2354 -0.1824 0.9546
vn -0.0335 0.0676 0.9972
vn -0.2261 0.2111 0.9510
vn -0.1613 0.0364 0.9862
usemtl mtl1.1473
s 1
f 1//1 2//2 3//3
f 4//4 2//2 5//5
f 3//3 2//2 4//4
f 6//6 1//1 3//3
f 7//7 4//4 5//5
f 3//3 4//4 8//8
f 6//6 3//3 8//8
f 8//8 4//4 7//7
f 6//6 8//8 9//9
f 10//10 1//1 11//11
f 1//1 10//10 2//2
f 5//5 2//2 12//12
f 1//1 6//6 13//13
f 5//5 14//14 7//7
f 13//13 6//6 15//15
f 6//6 9//9 15//15
f 14//14 16//16 7//7
f 7//7 16//16 8//8
f 8//8 17//17 9//9
f 17//17 15//15 9//9
f 16//16 18//18 8//8
f 17//17 8//8 18//18
f 19//19 2//2 20//20
f 20//20 2//2 10//10
f 11//11 1//1 21//21
f 13//13 21//21 1//1
f 12//12 22//22 5//5
f 5//5 22//22 14//14
f 23//23 13//13 15//15
f 16//16 14//14 24//24
f 25//25 15//15 17//17
f 16//16 24//24 18//18
f 26//26 11//11 21//21
f 12//12 2//2 19//19
f 21//21 13//13 27//27
f 12//12 28//28 22//22
f 22//22 29//29 14//14
f 23//23 30//30 13//13
f 14//14 29//29 24//24
f 15//15 31//31 23//23
f 25//25 31//31 15//15
f 18//18 24//24 32//32
f 17//17 18//18 33//33
f 25//25 17//17 33//33
f 11//11 34//34 10//10
f 10//10 34//34 20//20
f 19//19 35//35 12//12
f 21//21 27//27 36//36
f 28//28 37//37 22//22
f 27//27 13//13 38//38
f 22//22 37//37 29//29
f 30//30 38//38 13//13
f 30//30 23//23 31//31
f 33//33 18//18 32//32
f 26//26 34//34 11//11
f 35//35 28//28 12//12
f 31//31 39//39 30//30
f 32//32 24//24 40//40
f 31//31 25//25 41//41
f 41//41 42//42 31//31
f 32//32 43//43 33//33
f 44//44 34//34 26//26
f 20//20 34//34 45//45
f 36//36 27//27 38//38
f 30//30 46//46 38//38
f 37//37 47//47 29//29
f 29//29 47//47 24//24
f 24//24 48//48 40//40
f 42//42 39//39 31//31
f 43//43 32//32 40//40
f 33//33 43//43 49//49
f 25//25 33//33 49//49
f 41//41 25//25 49//49
f 45//45 19//19 20//20
f 26//26 21//21 50//50
f 28//28 51//51 37//37
f 39//39 46//46 30//30
f 47//47 48//48 24//24
f 40//40 52//52 43//43
f 34//34 53//53 45//45
f 34//34 44//44 53//53
f 19//19 45//45 54//54
f 19//19 54//54 35//35
f 50//50 21//21 55//55
f 55//55 21//21 36//36
f 35//35 56//56 28//28
f 28//28 56//56 51//51
f 36//36 38//38 57//57
f 51//51 47//47 37//37
f 48//48 52//52 40//40
f 39//39 42//42 58//58
f 39//39 58//58 59//59
f 49//49 43//43 60//60
f 44//44 26//26 50//50
f 55//55 36//36 57//57
f 38//38 46//46 57//57
f 61//61 46//46 39//39
f 61//61 39//39 59//59
f 58//58 42//42 41//41
f 62//62 58//58 41//41
f 49//49 60//60 63//63
f 41//41 49//49 63//63
f 53//53 64//64 45//45
f 45//45 64//64 54//54
f 54//54 56//56 35//35
f 57//57 46//46 61//61
f 51//51 65//65 47//47
f 65//65 48//48 47//47
f 52//52 60//60 43//43
f 63//63 62//62 41//41
f 66//66 64//64 53//53
f 44//44 66//66 53//53
f 50//50 67//67 44//44
f 50//50 55//55 67//67
f 68//68 55//55 57//57
f 57//57 61//61 69//69
f 51//51 70//70 65//65
f 61//61 59//59 69//69
f 65//65 52//52 48//48
f 58//58 62//62 59//59
f 71//71 72//72 63//63
f 63//63 72//72 62//62
f 63//63 60//60 71//71
f 44//44 67//67 66//66
f 54//54 73//73 56//56
f 74//74 67//67 55//55
f 51//51 56//56 75//75
f 70//70 51//51 75//75
f 69//69 68//68 57//57
f 69//69 59//59 76//76
f 65//65 77//77 52//52
f 78//78 76//76 59//59
f 59//59 62//62 78//78
f 52//52 79//79 60//60
f 66//66 67//67 80//80
f 64//64 73//73 54//54
f 81//81 67//67 74//74
f 75//75 56//56 73//73
f 74//74 55//55 68//68
f 82//82 83//83 69//69
f 77//77 65//65 70//70
f 76//76 82//82 69//69
f 76//76 78//78 82//82
f 52//52 77//77 79//79
f 79//79 71//71 60//60
f 72//72 78//78 62//62
f 66//66 80//80 64//64
f 67//67 81//81 80//80
f 68//68 83//83 74//74
f 68//68 69//69 83//83
f 82//82 78//78 84//84
f 78//78 72//72 84//84
f 71//71 79//79 84//84
f 72//72 71//71 84//84
f 64//64 80//80 85//85
f 86//86 85//85 80//80
f 81//81 86//86 80//80
f 75//75 64//64 85//85
f 75//75 73//73 64//64
f 81//81 74//74 86//86
f 74//74 83//83 86//86
f 87//87 70//70 75//75
f 83//83 82//82 88//88
f 77//77 70//70 87//87
f 87//87 79//79 77//77
f 88//88 82//82 89//89
f 82//82 84//84 89//89
f 89//89 84//84 79//79
f 85//85 90//90 75//75
f 86//86 90//90 85//85
f 91//91 75//75 90//90
f 86//86 92//92 90//90
f 86//86 83//83 92//92
f 83//83 88//88 92//92
f 88//88 93//93 92//92
f 75//75 91//91 87//87
f 94//94 79//79 87//87
f 88//88 89//89 93//93
f 93//93 89//89 94//94
f 89//89 79//79 94//94
f 90//90 92//92 95//95
f 90//90 95//95 91//91
f 87//87 91//91 95//95
f 92//92 93//93 95//95
f 93//93 94//94 95//95
f 95//95 94//94 87//87
