# Blender v2.92.0 OBJ File: 'convert_to_one_sided.blend'
# www.blender.org
mtllib 732L.mtl
o 732
v 7.839269 5.857944 5.489910
v 7.850299 5.837244 5.544930
v 7.809870 5.867884 5.496360
v 7.872269 5.845924 5.521020
v 7.882938 5.867904 5.519870
v 7.807989 5.876414 5.495640
v 7.789929 5.893603 5.501480
v 7.800029 5.868343 5.574389
v 7.773800 5.907003 5.524710
v 7.767020 5.949802 5.518100
v 7.805789 5.908503 5.506700
v 7.855289 5.914863 5.517690
v 7.905368 5.869993 5.541900
v 7.927418 5.925932 5.545969
v 7.737791 5.986872 5.565239
v 7.812319 6.022321 5.523170
v 7.894389 6.014002 5.534800
v 7.772860 6.089510 5.541659
v 7.880969 6.149970 5.530340
v 7.847889 6.222939 5.534240
v 7.965747 6.291468 5.534320
v 7.884238 6.340377 5.541890
v 7.762210 5.918073 5.603289
v 7.952857 5.909173 5.575609
v 7.993207 6.044841 5.552849
v 7.996997 5.981512 5.567949
v 7.755620 6.183029 5.597989
v 7.981487 6.161020 5.539720
v 8.057556 6.235699 5.547110
v 7.825779 6.274438 5.558199
v 8.021517 6.267938 5.537539
v 8.033696 6.298248 5.538760
v 8.034786 6.360787 5.551300
v 8.094106 6.271039 5.578639
v 7.879249 6.403797 5.568429
v 7.955858 6.391417 5.557070
v 8.074676 6.391977 5.593509
v 8.011847 6.425436 5.583859
v 7.908918 5.861564 5.606169
v 7.723610 6.069231 5.683648
v 8.053506 6.083220 5.580259
v 8.032307 5.984622 5.611299
v 7.810480 6.331538 5.610458
v 7.935947 6.446186 5.589029
v 7.880039 6.441956 5.632078
v 8.085936 6.033181 5.637419
v 8.104055 6.139030 5.635669
v 7.846249 6.394937 5.616759
v 8.105515 6.365217 5.643378
v 8.045517 6.436606 5.649718
v 7.916998 6.469215 5.681488
v 7.979417 6.459366 5.695807
v 7.739390 5.964762 5.692008
v 8.116746 6.266898 5.679018
v 7.983917 5.919793 5.672558
v 8.045297 5.979452 5.699128
v 7.771900 6.294008 5.673678
v 7.833759 6.388747 5.678768
v 7.737210 6.173049 5.692997
v 7.924889 5.866140 5.699999
v 7.963814 5.899745 5.699999
v 8.117862 6.159975 5.699999
v 8.082965 6.410381 5.699999
v 8.093701 6.077256 5.699999
v 7.904766 6.461793 5.699999
v 7.920564 6.469201 5.699999
v 7.769688 6.279812 5.699999
v 7.735898 6.166620 5.699999
v 7.740704 6.182919 5.699999
v 7.878161 6.443803 5.699999
v 7.750688 5.941846 5.699999
v 7.868867 5.826013 5.699999
v 7.824862 5.843984 5.699999
v 7.724512 6.083247 5.699999
v 7.983106 6.458668 5.699999
v 7.974496 5.910832 5.699999
v 7.982728 5.921740 5.699999
v 7.789268 6.317881 5.699999
v 7.979035 6.459743 5.699999
v 7.976198 6.460027 5.699999
v 7.881705 5.833210 5.699999
v 8.085567 6.406966 5.699999
v 7.737534 5.970194 5.699999
v 8.107594 6.364634 5.699999
v 7.848274 6.407612 5.699999
v 7.830464 6.381346 5.699999
v 8.044497 5.978810 5.699999
v 7.740531 5.962639 5.699999
v 8.047071 5.982508 5.699999
v 7.819508 5.847498 5.699999
v 7.776961 5.891633 5.699999
v 8.119329 6.209274 5.699999
v 8.079364 6.414130 5.699999
v 8.089185 6.050880 5.699999
v 8.033594 6.444263 5.699999
v 8.117653 6.261800 5.699999
v 8.045238 5.979646 5.699999
v 7.723338 6.058425 5.699999
v 8.113773 6.303627 5.699999
v 7.772235 5.898083 5.699999
vn 0.1231 -0.3100 -0.9427
vn -0.1263 -0.9736 -0.1903
vn -0.5678 -0.6336 -0.5255
vn 0.4858 -0.7486 -0.4512
vn 0.5717 -0.1460 -0.8074
vn -0.2497 -0.0296 -0.9679
vn -0.5364 -0.0833 -0.8399
vn -0.7007 -0.7106 -0.0636
vn -0.8632 -0.4033 -0.3036
vn -0.5532 0.0639 -0.8306
vn -0.0117 0.2309 -0.9729
vn 0.2858 0.1542 -0.9458
vn 0.7187 -0.4900 -0.4933
vn 0.4946 -0.1497 -0.8561
vn -0.9500 -0.0902 -0.2989
vn -0.0302 0.1021 -0.9943
vn 0.1935 -0.0120 -0.9810
vn -0.5757 0.1802 -0.7976
vn 0.0579 0.0068 -0.9983
vn -0.2191 0.1184 -0.9685
vn 0.0307 0.0951 -0.9950
vn -0.2288 0.2500 -0.9408
vn -0.8820 -0.4687 -0.0487
vn 0.7060 -0.5681 -0.4229
vn 0.3494 -0.1378 -0.9268
vn 0.6020 -0.3325 -0.7259
vn -0.8922 0.2366 -0.3847
vn 0.1401 -0.0611 -0.9882
vn 0.4469 -0.0474 -0.8933
vn -0.6160 0.2767 -0.7376
vn 0.1352 -0.0390 -0.9901
vn 0.2406 0.0822 -0.9671
vn 0.3672 0.2898 -0.8838
vn 0.8343 0.0338 -0.5503
vn -0.5031 0.5291 -0.6833
vn 0.0191 0.4117 -0.9111
vn 0.6972 0.5349 -0.4773
vn 0.2712 0.7594 -0.5914
vn 0.5862 -0.8028 -0.1086
vn -0.9955 0.0236 -0.0913
vn 0.6926 -0.2288 -0.6840
vn 0.7354 -0.5570 -0.3860
vn -0.8167 0.4323 -0.3822
vn -0.0534 0.8492 -0.5253
vn -0.6022 0.7642 -0.2310
vn 0.8675 -0.4105 -0.2811
vn 0.9468 -0.1448 -0.2874
vn -0.7837 0.5591 -0.2706
vn 0.9377 0.2910 -0.1896
vn 0.4530 0.8717 -0.1869
vn -0.1983 0.9747 -0.1029
vn 0.1933 0.9720 -0.1337
vn -0.4109 -0.6548 0.6344
vn -0.4760 -0.5628 0.6758
vn -0.9479 -0.3179 -0.0211
vn 0.9915 0.0372 -0.1247
vn 0.4753 -0.5796 0.6620
vn 0.7171 -0.6951 -0.0504
vn 0.4906 -0.5236 0.6965
vn -0.5519 -0.4546 0.6991
vn -0.6239 -0.3795 0.6832
vn 0.7657 -0.6418 0.0418
vn -0.9084 0.4133 -0.0632
vn -0.8201 0.5696 -0.0548
vn 0.6938 -0.2224 0.6849
vn 0.5718 -0.3529 0.7406
vn 0.6953 -0.0926 0.7127
vn -0.9741 0.2211 -0.0482
vn -0.7388 -0.0720 0.6700
vn -0.7247 0.0873 0.6835
vn 0.5024 -0.4254 0.7528
vn -0.6344 -0.3105 0.7079
vn -0.4822 0.5686 0.6665
vn -0.5532 0.4470 0.7030
vn 0.7732 -0.0185 0.6338
vn 0.7273 0.0471 0.6847
vn 0.4739 -0.4899 0.7317
vn 0.5364 -0.3950 0.7458
vn 0.5177 0.5593 0.6475
vn 0.2929 0.7024 0.6487
vn -0.3865 0.6215 0.6814
vn -0.0856 0.7423 0.6646
vn -0.7214 0.1166 0.6827
vn -0.6470 0.1992 0.7360
vn -0.5568 0.3837 0.7368
vn -0.6418 -0.2948 0.7080
vn 0.1118 0.7512 0.6505
vn 0.1030 0.7245 0.6815
vn 0.7052 0.0678 0.7058
vn -0.7315 -0.1597 0.6629
vn 0.6114 0.4384 0.6588
vn 0.7385 0.1935 0.6459
vn -0.5823 0.3483 0.7346
vn 0.5148 -0.4829 0.7084
vn 0.1759 0.7088 0.6831
vn 0.0843 -0.8413 0.5339
vn -0.6426 0.2284 0.7314
vn 0.5686 0.5443 0.6167
vn 0.7510 -0.1092 0.6512
vn 0.3974 -0.6528 0.6449
usemtl mtl1.1484
s 1
f 1//1 2//2 3//3
f 2//2 1//1 4//4
f 4//4 1//1 5//5
f 3//3 6//6 1//1
f 7//7 6//6 3//3
f 3//3 2//2 8//8
f 3//3 8//8 9//9
f 7//7 3//3 9//9
f 10//10 7//7 9//9
f 7//7 11//11 6//6
f 6//6 11//11 1//1
f 11//11 12//12 1//1
f 1//1 12//12 5//5
f 7//7 10//10 11//11
f 4//4 5//5 13//13
f 14//14 13//13 5//5
f 12//12 14//14 5//5
f 15//15 10//10 9//9
f 16//16 12//12 11//11
f 10//10 16//16 11//11
f 12//12 16//16 17//17
f 18//18 10//10 15//15
f 16//16 10//10 18//18
f 17//17 16//16 19//19
f 20//20 16//16 18//18
f 19//19 16//16 20//20
f 19//19 20//20 21//21
f 21//21 20//20 22//22
f 23//23 9//9 8//8
f 24//24 13//13 14//14
f 12//12 17//17 14//14
f 17//17 25//25 14//14
f 25//25 26//26 14//14
f 18//18 15//15 27//27
f 28//28 17//17 19//19
f 25//25 17//17 28//28
f 29//29 25//25 28//28
f 30//30 18//18 27//27
f 18//18 30//30 20//20
f 29//29 28//28 31//31
f 28//28 19//19 21//21
f 28//28 21//21 31//31
f 29//29 31//31 32//32
f 20//20 30//30 22//22
f 31//31 21//21 32//32
f 29//29 32//32 33//33
f 33//33 34//34 29//29
f 22//22 30//30 35//35
f 22//22 36//36 21//21
f 32//32 21//21 33//33
f 33//33 21//21 36//36
f 34//34 33//33 37//37
f 36//36 22//22 35//35
f 33//33 36//36 38//38
f 37//37 33//33 38//38
f 4//4 39//39 2//2
f 39//39 4//4 13//13
f 15//15 9//9 23//23
f 24//24 14//14 26//26
f 15//15 40//40 27//27
f 41//41 42//42 26//26
f 41//41 26//26 25//25
f 41//41 25//25 29//29
f 29//29 34//34 41//41
f 43//43 35//35 30//30
f 35//35 44//44 36//36
f 45//45 44//44 35//35
f 36//36 44//44 38//38
f 39//39 13//13 24//24
f 42//42 24//24 26//26
f 41//41 46//46 42//42
f 47//47 41//41 34//34
f 43//43 30//30 27//27
f 48//48 35//35 43//43
f 34//34 37//37 49//49
f 50//50 37//37 38//38
f 35//35 48//48 45//45
f 44//44 45//45 51//51
f 38//38 44//44 52//52
f 8//8 73//53 90//54
f 23//23 53//55 15//15
f 46//46 41//41 47//47
f 47//47 34//34 54//56
f 34//34 49//49 54//56
f 38//38 52//52 50//50
f 52//52 44//44 51//51
f 60//57 55//58 61//59
f 55//58 39//39 24//24
f 23//23 91//60 100//61
f 42//42 55//58 24//24
f 42//42 56//62 55//58
f 42//42 46//46 56//62
f 15//15 53//55 40//40
f 27//27 57//63 43//43
f 57//63 58//64 43//43
f 43//43 58//64 48//48
f 48//48 58//64 45//45
f 56//62 94//65 89//66
f 46//46 64//67 94//65
f 59//68 27//27 40//40
f 27//27 59//68 57//63
f 98//69 74//70 40//40
f 61//59 77//71 71//72
f 70//73 58//64 85//74
f 92//75 54//56 96//76
f 77//71 56//62 87//77
f 97//78 87//77 56//62
f 93//79 50//50 95//80
f 65//81 66//82 51//51
f 68//83 69//84 59//68
f 86//85 85//74 58//64
f 71//72 88//86 53//55
f 79//87 52//52 80//88
f 54//56 99//89 96//76
f 8//8 90//54 91//60
f 56//62 89//66 97//78
f 49//49 99//89 54//56
f 53//55 98//69 40//40
f 53//55 88//86 83//90
f 49//49 82//91 84//92
f 58//64 78//93 86//85
f 55//58 77//71 76//94
f 52//52 95//80 50//50
f 52//52 79//87 75//95
f 2//2 72//96 73//53
f 39//39 72//96 2//2
f 100//61 53//55 23//23
f 74//70 59//68 40//40
f 59//68 67//97 57//63
f 57//63 67//97 78//93
f 52//52 66//82 80//88
f 51//51 70//73 65//81
f 49//49 63//98 82//91
f 50//50 63//98 37//37
f 47//47 92//75 62//99
f 47//47 62//99 64//67
f 55//58 76//94 61//59
f 39//39 60//57 81//100
f 8//8 2//2 73//53
f 60//57 39//39 55//58
f 23//23 8//8 91//60
f 56//62 46//46 94//65
f 46//46 47//47 64//67
f 96//76 99//89 86//85
f 99//89 84//92 95//80
f 86//85 75//95 85//74
f 84//92 82//91 95//80
f 82//91 63//98 93//79
f 95//80 82//91 93//79
f 95//80 75//95 99//89
f 75//95 79//87 80//88
f 80//88 66//82 65//81
f 75//95 80//88 85//74
f 99//89 75//95 86//85
f 92//75 96//76 78//93
f 64//67 62//99 69//84
f 62//99 92//75 67//97
f 69//84 62//99 67//97
f 89//66 94//65 64//67
f 87//77 97//78 89//66
f 61//59 76//94 77//71
f 77//71 87//77 74//70
f 87//77 89//66 74//70
f 89//66 64//67 68//83
f 80//88 65//81 70//73
f 85//74 80//88 70//73
f 86//85 78//93 96//76
f 78//93 67//97 92//75
f 69//84 68//83 64//67
f 68//83 74//70 89//66
f 74//70 98//69 77//71
f 98//69 83//90 77//71
f 83//90 88//86 77//71
f 88//86 71//72 77//71
f 71//72 100//61 61//59
f 100//61 91//60 60//57
f 61//59 100//61 60//57
f 91//60 90//54 60//57
f 90//54 73//53 60//57
f 73//53 72//96 81//100
f 81//100 60//57 73//53
f 70//73 45//45 58//64
f 77//71 55//58 56//62
f 49//49 84//92 99//89
f 53//55 83//90 98//69
f 58//64 57//63 78//93
f 52//52 75//95 95//80
f 39//39 81//100 72//96
f 100//61 71//72 53//55
f 74//70 68//83 59//68
f 59//68 69//84 67//97
f 52//52 51//51 66//82
f 51//51 45//45 70//73
f 49//49 37//37 63//98
f 50//50 93//79 63//98
f 47//47 54//56 92//75
