# Blender v2.92.0 OBJ File: 'convert_to_one_sided.blend'
# www.blender.org
mtllib 741L.mtl
o 741
v 7.518863 4.452611 4.585542
v 7.464704 4.461082 4.584872
v 7.463604 4.505491 4.579152
v 7.401145 4.523211 4.591372
v 7.496274 4.541440 4.602162
v 7.399605 4.584370 4.597332
v 7.367555 4.564920 4.604012
v 7.446704 4.587900 4.606862
v 7.523723 4.422822 4.612102
v 7.553193 4.431142 4.611701
v 7.568522 4.413122 4.646051
v 7.442314 4.448392 4.624551
v 7.397625 4.495841 4.614392
v 7.551833 4.484181 4.626441
v 7.313186 4.576540 4.652921
v 7.332606 4.620370 4.629471
v 7.395525 4.671569 4.641401
v 7.338076 4.666939 4.637631
v 7.488754 4.414752 4.653281
v 7.581233 4.434252 4.662091
v 7.589652 4.475361 4.689530
v 7.516813 4.582530 4.661851
v 7.453184 4.635409 4.651191
v 7.301026 4.669369 4.648631
v 7.554673 4.407992 4.717890
v 7.421875 4.441502 4.686440
v 7.351305 4.501831 4.691450
v 7.563363 4.527661 4.691381
v 7.265547 4.673399 4.676901
v 7.292916 4.699619 4.663021
v 7.319546 4.725978 4.673511
v 7.589212 4.419512 4.766319
v 7.246117 4.634870 4.697501
v 7.236247 4.617770 4.721240
v 7.270377 4.724588 4.689700
v 7.414255 4.695609 4.672881
v 7.375285 4.728408 4.692070
v 7.317216 4.763338 4.712700
v 7.485894 4.421232 4.737050
v 7.242577 4.590730 4.765830
v 7.527393 4.619120 4.837338
v 7.441895 4.690349 4.753310
v 7.272476 4.754258 4.716580
v 7.578252 4.408062 4.806369
v 7.436244 4.440902 4.788449
v 7.598712 4.452472 4.776410
v 7.356075 4.484751 4.829759
v 7.580492 4.511861 4.805279
v 7.203568 4.671769 4.757620
v 7.236457 4.722078 4.731620
v 7.299386 4.783828 4.799989
v 7.283496 4.544200 4.824329
v 7.208097 4.636640 4.775180
v 7.242707 4.766038 4.808339
v 7.371075 4.754868 4.803099
v 7.196298 4.723878 4.821209
v 7.165548 4.695088 4.850059
v 7.573802 4.408152 4.854498
v 7.511183 4.426892 4.928158
v 7.472674 4.699909 4.889288
v 7.274647 4.791118 4.865838
v 7.406855 4.465941 4.991376
v 7.172227 4.658379 4.863809
v 7.430254 4.747288 4.919958
v 7.364715 4.797247 4.955227
v 7.596652 4.431362 4.900778
v 7.591982 4.473622 4.925608
v 7.269627 4.564060 4.986177
v 7.218987 4.601650 4.900608
v 7.569152 4.540391 4.934937
v 7.150658 4.734038 4.976517
v 7.203727 4.770118 4.944347
v 7.249067 4.790357 4.920888
v 7.283716 4.806237 4.960767
v 7.582322 4.415862 4.876218
v 7.143838 4.691329 4.936098
v 7.570703 4.421152 4.955827
v 7.460434 4.444932 5.054176
v 7.159788 4.650279 4.959767
v 7.144648 4.676239 4.949477
v 7.319286 4.852407 5.108795
v 7.334445 4.517441 5.034556
v 7.200077 4.623670 5.010336
v 7.475413 4.719638 4.993367
v 7.138758 4.698209 5.024656
v 7.132838 4.741138 5.084676
v 7.419024 4.785618 5.031046
v 7.584282 4.428912 4.979697
v 7.578432 4.452822 5.063956
v 7.566733 4.529621 5.061496
v 7.520813 4.638809 5.028916
v 7.216647 4.806897 5.044016
v 7.172508 4.662129 5.063246
v 7.136358 4.781078 5.136605
v 7.170948 4.785127 5.065846
v 7.472124 4.436032 5.131165
v 7.429404 4.450302 5.173524
v 7.369295 4.492491 5.172325
v 7.241087 4.855337 5.149865
v 7.538363 4.437892 5.146085
v 7.203367 4.644059 5.147075
v 7.373665 4.836277 5.110215
v 7.489823 4.430222 5.176624
v 7.510653 4.641529 5.166754
v 7.127109 4.733768 5.142205
v 7.122048 4.769428 5.174675
v 7.290126 4.568020 5.188214
v 7.427204 4.776848 5.137865
v 7.271056 4.887866 5.215144
v 7.314656 4.885596 5.202764
v 7.338555 4.866517 5.163575
v 7.148058 4.702019 5.154395
v 7.169158 4.838747 5.197934
v 7.552343 4.456682 5.185124
v 7.115038 4.768058 5.228683
v 7.541103 4.508621 5.200144
v 7.342495 4.864896 5.202404
v 7.521723 4.457812 5.258963
v 7.505243 4.442382 5.281303
v 7.123598 4.744778 5.226853
v 7.457154 4.436102 5.235134
v 7.232547 4.640140 5.279103
v 7.163948 4.715528 5.300192
v 7.437254 4.735048 5.267523
v 7.119548 4.813547 5.275393
v 7.211277 4.894796 5.293493
v 7.476984 4.442742 5.276183
v 7.340165 4.522211 5.279413
v 7.492234 4.602300 5.280813
v 7.119788 4.779908 5.308343
v 7.342205 4.851827 5.300962
v 7.277936 4.891426 5.286463
v 7.295486 4.578150 5.304283
v 7.409385 4.471292 5.269353
v 7.434054 4.683409 5.346352
v 7.361535 4.794347 5.374642
v 7.504953 4.507801 5.305493
v 7.108428 4.819377 5.388581
v 7.145578 4.870066 5.337082
v 7.229147 4.909016 5.376242
v 7.348615 4.543090 5.354952
v 7.472034 4.577580 5.340832
v 7.130978 4.785217 5.403031
v 7.120779 4.853557 5.392052
v 7.269476 4.892946 5.372521
v 7.423005 4.486941 5.345482
v 7.473604 4.476582 5.325882
v 7.248056 4.658149 5.388231
v 7.139638 4.884266 5.418851
v 7.293376 4.855756 5.414711
v 7.176698 4.889986 5.407541
v 7.467094 4.537601 5.351062
v 7.376395 4.551190 5.398481
v 7.308966 4.629379 5.425931
v 7.404725 4.629060 5.405941
v 7.421464 4.515521 5.374162
v 7.431784 4.542081 5.373191
v 7.176648 4.741498 5.417771
v 7.367595 4.738708 5.414521
v 7.149648 4.881046 5.447111
v 7.389585 4.581360 5.406501
v 7.368675 4.629290 5.433551
v 7.256257 4.685329 5.449701
v 7.123428 4.823487 5.446461
v 7.122928 4.840006 5.439461
v 7.325796 4.797257 5.434751
v 7.143618 4.868256 5.445761
v 7.230397 4.879346 5.436461
v 7.340555 4.645959 5.443921
v 7.220337 4.718948 5.450460
v 7.352406 4.678039 5.448541
v 7.337135 4.738128 5.449710
v 7.262577 4.719358 5.473290
v 7.184167 4.782998 5.464870
v 7.277196 4.816587 5.462721
v 7.182667 4.863486 5.467310
v 7.286796 4.739228 5.477410
v 7.259607 4.747148 5.490660
v 7.153588 4.836157 5.459141
v 7.230787 4.844227 5.471180
v 7.238647 4.770298 5.489640
v 7.232907 4.812227 5.479480
v 7.199957 4.814178 5.470520
vn 0.3358 -0.1329 -0.9325
vn -0.3005 -0.5102 -0.8058
vn 0.0556 0.1205 -0.9912
vn -0.4460 -0.2083 -0.8704
vn 0.5062 0.4181 -0.7543
vn -0.1192 0.2628 -0.9575
vn -0.5039 -0.0315 -0.8632
vn 0.2976 0.4624 -0.8352
vn -0.0204 -0.8536 -0.5204
vn 0.6455 -0.3189 -0.6940
vn 0.5304 -0.7909 -0.3054
vn -0.4953 -0.7724 -0.3976
vn -0.6362 -0.5603 -0.5304
vn 0.7702 0.2879 -0.5691
vn -0.7001 -0.3710 -0.6101
vn -0.4915 0.0524 -0.8693
vn 0.2302 0.5766 -0.7840
vn -0.1652 0.3712 -0.9138
vn -0.2568 -0.9543 -0.1527
vn 0.9330 -0.1615 -0.3216
vn 0.9390 0.2484 -0.2380
vn 0.7193 0.5794 -0.3832
vn 0.5763 0.6062 -0.5481
vn -0.4456 0.1766 -0.8777
vn 0.0589 -0.9973 -0.0444
vn -0.4892 -0.8688 -0.0765
vn -0.6779 -0.6946 -0.2408
vn 0.8475 0.4744 -0.2380
vn -0.6857 0.0870 -0.7226
vn -0.3889 0.3878 -0.8357
vn -0.0680 0.6437 -0.7623
vn 0.7694 -0.6360 -0.0595
vn -0.7624 -0.1588 -0.6273
vn -0.8053 -0.4274 -0.4109
vn -0.5354 0.4742 -0.6989
vn 0.5523 0.6933 -0.4629
vn 0.4001 0.8003 -0.4465
vn 0.1297 0.8996 -0.4170
vn -0.2638 -0.9630 0.0546
vn -0.7395 -0.6416 -0.2039
vn 0.8300 0.5476 -0.1056
vn 0.6643 0.7151 -0.2177
vn -0.4073 0.7806 -0.4742
vn 0.4608 -0.8873 -0.0200
vn -0.3760 -0.9250 0.0557
vn 0.9989 -0.0084 -0.0453
vn -0.5738 -0.8188 0.0181
vn 0.9270 0.3740 -0.0297
vn -0.8903 0.0060 -0.4554
vn -0.7578 0.4526 -0.4700
vn -0.0208 0.9781 -0.2072
vn -0.6583 -0.7519 -0.0359
vn -0.8660 -0.4152 -0.2786
vn -0.5190 0.8196 -0.2427
vn 0.4718 0.8585 -0.2009
vn -0.7616 0.5643 -0.3187
vn -0.9345 0.1630 -0.3165
vn 0.1377 -0.9879 0.0717
vn -0.2121 -0.9764 0.0407
vn 0.7184 0.6731 -0.1758
vn -0.2810 0.9443 -0.1714
vn -0.4548 -0.8904 0.0196
vn -0.8735 -0.4351 -0.2184
vn 0.6083 0.7681 -0.1998
vn 0.3440 0.9094 -0.2336
vn 0.9352 -0.3484 0.0626
vn 0.9811 0.1858 0.0548
vn -0.6356 -0.7690 0.0679
vn -0.6814 -0.7313 -0.0286
vn 0.9213 0.3885 0.0146
vn -0.8585 0.4653 -0.2156
vn -0.5843 0.7786 -0.2288
vn -0.3798 0.9078 -0.1782
vn -0.1340 0.9672 -0.2156
vn 0.5868 -0.8064 0.0741
vn -0.9856 -0.0149 -0.1685
vn 0.1907 -0.9741 0.1217
vn -0.3656 -0.9301 -0.0364
vn -0.7701 -0.6375 0.0246
vn -0.9296 -0.3559 -0.0959
vn 0.0922 0.9444 -0.3156
vn -0.6097 -0.7910 0.0511
vn -0.6562 -0.7477 0.1018
vn 0.7819 0.6196 -0.0687
vn -0.9642 -0.2651 -0.0018
vn -0.9769 0.1422 -0.1594
vn 0.6512 0.7473 -0.1324
vn 0.6554 -0.7395 0.1539
vn 0.9594 -0.2121 0.1860
vn 0.9532 0.2785 0.1177
vn 0.8842 0.4658 0.0346
vn -0.4259 0.8634 -0.2705
vn -0.7474 -0.6528 0.1231
vn -0.8137 0.5314 -0.2358
vn -0.6086 0.7431 -0.2783
vn -0.3235 -0.9456 -0.0352
vn -0.4623 -0.8867 -0.0020
vn -0.6148 -0.7881 0.0305
vn -0.2919 0.9022 -0.3176
vn 0.4167 -0.8951 0.1587
vn -0.6925 -0.7111 0.1221
vn 0.5437 0.8268 -0.1442
vn -0.0072 -0.9984 0.0567
vn 0.9000 0.4050 0.1613
vn -0.9676 -0.2491 -0.0404
vn -0.9713 0.1792 -0.1567
vn -0.6918 -0.7180 0.0766
vn 0.7894 0.6109 0.0598
vn -0.0751 0.9716 -0.2245
vn 0.2919 0.9497 -0.1137
vn 0.4349 0.8812 -0.1852
vn -0.7817 -0.6171 0.0907
vn -0.5744 0.7661 -0.2883
vn 0.8768 -0.3906 0.2804
vn -0.9958 -0.0910 -0.0126
vn 0.9507 0.1435 0.2749
vn 0.6213 0.7816 0.0546
vn 0.8377 -0.3361 0.4305
vn 0.4676 -0.7632 0.4459
vn -0.8684 -0.4863 0.0965
vn -0.3082 -0.9466 0.0950
vn -0.7087 -0.6876 0.1579
vn -0.7380 -0.6507 0.1789
vn 0.8371 0.4951 0.2328
vn -0.9238 0.3541 -0.1454
vn -0.2725 0.9447 -0.1827
vn -0.0521 -0.9440 0.3258
vn -0.6604 -0.7369 0.1445
vn 0.8982 0.2941 0.3267
vn -0.9373 -0.3363 0.0911
vn 0.6850 0.7086 0.1694
vn 0.3020 0.9532 0.0120
vn -0.7186 -0.6704 0.1846
vn -0.5124 -0.8359 0.1967
vn 0.8264 0.3360 0.4519
vn 0.7816 0.5047 0.3666
vn 0.8558 -0.0167 0.5170
vn -0.9918 -0.0606 0.1124
vn -0.5943 0.7809 -0.1922
vn 0.0732 0.9882 0.1348
vn -0.5863 -0.7198 0.3716
vn 0.8155 0.1776 0.5509
vn -0.7734 -0.5536 0.3089
vn -0.8834 0.4668 0.0405
vn 0.4747 0.8482 0.2351
vn -0.2230 -0.8123 0.5389
vn 0.4600 -0.4902 0.7403
vn -0.6557 -0.6817 0.3246
vn -0.6319 0.7665 0.1146
vn 0.6084 0.6485 0.4575
vn -0.1557 0.9715 0.1787
vn 0.6549 -0.1085 0.7478
vn -0.1770 -0.5917 0.7865
vn -0.4027 -0.6237 0.6699
vn 0.6723 0.0371 0.7393
vn 0.2528 -0.4710 0.8451
vn 0.5098 -0.2077 0.8348
vn -0.6853 -0.6095 0.3986
vn 0.7711 0.3067 0.5579
vn -0.3232 0.7864 0.5265
vn 0.3497 -0.2982 0.8881
vn 0.3980 -0.2310 0.8878
vn -0.4781 -0.6247 0.6174
vn -0.7560 -0.2067 0.6211
vn -0.8236 0.2818 0.4922
vn 0.6871 0.4261 0.5885
vn -0.6873 0.3986 0.6072
vn 0.2643 0.7922 0.5501
vn 0.0626 -0.3710 0.9265
vn -0.5698 -0.5629 0.5988
vn 0.4569 -0.0479 0.8882
vn 0.6178 0.2137 0.7567
vn -0.2248 -0.4671 0.8551
vn -0.5086 -0.3505 0.7865
vn 0.4666 0.4066 0.7855
vn -0.1225 0.4801 0.8686
vn 0.3379 0.0129 0.9411
vn 0.0943 -0.2222 0.9704
vn -0.4187 0.0879 0.9038
vn 0.2682 0.4834 0.8333
vn -0.1535 -0.0038 0.9881
vn 0.0983 0.2121 0.9723
vn -0.2769 0.0443 0.9599
usemtl mtl1.1489
s 1
f 1//1 2//2 3//3
f 2//2 4//4 3//3
f 1//1 3//3 5//5
f 3//3 4//4 6//6
f 6//6 4//4 7//7
f 3//3 6//6 8//8
f 5//5 3//3 8//8
f 9//9 10//10 11//11
f 9//9 12//12 2//2
f 1//1 9//9 2//2
f 10//10 9//9 1//1
f 2//2 12//12 13//13
f 10//10 1//1 14//14
f 1//1 5//5 14//14
f 13//13 4//4 2//2
f 15//15 4//4 13//13
f 15//15 7//7 4//4
f 7//7 16//16 6//6
f 8//8 6//6 17//17
f 18//18 6//6 16//16
f 17//17 6//6 18//18
f 19//19 12//12 9//9
f 14//14 20//20 10//10
f 21//21 20//20 14//14
f 22//22 14//14 5//5
f 15//15 16//16 7//7
f 8//8 23//23 5//5
f 23//23 22//22 5//5
f 18//18 16//16 24//24
f 17//17 23//23 8//8
f 9//9 25//25 19//19
f 11//11 25//25 9//9
f 10//10 20//20 11//11
f 12//12 26//26 27//27
f 13//13 12//12 27//27
f 15//15 13//13 27//27
f 14//14 28//28 21//21
f 14//14 22//22 28//28
f 16//16 29//29 24//24
f 15//15 29//29 16//16
f 30//30 24//24 29//29
f 18//18 24//24 30//30
f 31//31 18//18 30//30
f 17//17 18//18 31//31
f 26//26 12//12 19//19
f 11//11 20//20 32//32
f 33//33 15//15 34//34
f 29//29 15//15 33//33
f 35//35 30//30 29//29
f 36//36 23//23 17//17
f 31//31 37//37 17//17
f 31//31 30//30 35//35
f 37//37 31//31 38//38
f 19//19 25//25 39//39
f 11//11 32//32 25//25
f 39//39 26//26 19//19
f 15//15 27//27 40//40
f 15//15 40//40 34//34
f 28//28 22//22 41//41
f 36//36 42//42 23//23
f 42//42 22//22 23//23
f 36//36 17//17 37//37
f 43//43 31//31 35//35
f 38//38 31//31 43//43
f 32//32 44//44 25//25
f 39//39 45//45 26//26
f 32//32 20//20 46//46
f 27//27 26//26 47//47
f 20//20 21//21 46//46
f 21//21 28//28 48//48
f 33//33 34//34 49//49
f 22//22 42//42 41//41
f 29//29 33//33 49//49
f 29//29 49//49 50//50
f 29//29 50//50 35//35
f 42//42 36//36 37//37
f 43//43 35//35 50//50
f 38//38 43//43 51//51
f 27//27 47//47 52//52
f 27//27 52//52 40//40
f 21//21 48//48 46//46
f 28//28 41//41 48//48
f 34//34 40//40 53//53
f 43//43 50//50 54//54
f 55//55 37//37 38//38
f 42//42 37//37 55//55
f 55//55 38//38 51//51
f 45//45 47//47 26//26
f 34//34 53//53 49//49
f 56//56 49//49 57//57
f 56//56 50//50 49//49
f 51//51 43//43 54//54
f 25//25 58//58 59//59
f 44//44 58//58 25//25
f 42//42 60//60 41//41
f 50//50 56//56 54//54
f 61//61 51//51 54//54
f 59//59 39//39 25//25
f 47//47 45//45 62//62
f 49//49 53//53 63//63
f 49//49 63//63 57//57
f 64//64 42//42 55//55
f 64//64 55//55 65//65
f 59//59 45//45 39//39
f 32//32 46//46 66//66
f 46//46 67//67 66//66
f 52//52 47//47 68//68
f 46//46 48//48 67//67
f 69//69 40//40 52//52
f 53//53 40//40 63//63
f 70//70 48//48 41//41
f 71//71 56//56 57//57
f 42//42 64//64 60//60
f 56//56 72//72 54//54
f 61//61 54//54 73//73
f 54//54 72//72 73//73
f 61//61 73//73 74//74
f 51//51 61//61 74//74
f 55//55 51//51 65//65
f 75//75 58//58 44//44
f 44//44 32//32 75//75
f 45//45 59//59 62//62
f 52//52 68//68 69//69
f 40//40 69//69 63//63
f 51//51 74//74 65//65
f 75//75 32//32 66//66
f 63//63 76//76 57//57
f 57//57 76//76 71//71
f 71//71 72//72 56//56
f 77//77 59//59 58//58
f 77//77 58//58 75//75
f 59//59 78//78 62//62
f 63//63 69//69 79//79
f 63//63 79//79 80//80
f 80//80 76//76 63//63
f 65//65 74//74 81//81
f 62//62 82//82 47//47
f 67//67 48//48 70//70
f 69//69 68//68 83//83
f 60//60 84//84 41//41
f 82//82 68//68 47//47
f 76//76 85//85 71//71
f 86//86 71//71 85//85
f 60//60 64//64 84//84
f 87//87 64//64 65//65
f 75//75 88//88 77//77
f 66//66 67//67 89//89
f 89//89 67//67 90//90
f 90//90 67//67 70//70
f 79//79 69//69 83//83
f 70//70 41//41 91//91
f 72//72 92//92 73//73
f 88//88 75//75 66//66
f 66//66 89//89 88//88
f 93//93 79//79 83//83
f 80//80 85//85 76//76
f 41//41 84//84 91//91
f 71//71 86//86 94//94
f 72//72 71//71 95//95
f 92//92 72//72 95//95
f 73//73 92//92 74//74
f 96//96 78//78 59//59
f 62//62 78//78 97//97
f 82//82 62//62 98//98
f 79//79 85//85 80//80
f 71//71 94//94 95//95
f 74//74 99//99 81//81
f 77//77 100//100 59//59
f 77//77 88//88 100//100
f 88//88 89//89 100//100
f 68//68 101//101 83//83
f 70//70 91//91 90//90
f 101//101 93//93 83//83
f 79//79 93//93 85//85
f 87//87 84//84 64//64
f 102//102 87//87 65//65
f 74//74 92//92 99//99
f 65//65 81//81 102//102
f 59//59 103//103 96//96
f 59//59 100//100 103//103
f 78//78 96//96 97//97
f 62//62 97//97 98//98
f 90//90 91//91 104//104
f 105//105 86//86 85//85
f 105//105 106//106 86//86
f 94//94 86//86 106//106
f 68//68 107//107 101//101
f 84//84 87//87 108//108
f 108//108 91//91 84//84
f 81//81 99//99 109//109
f 81//81 109//109 110//110
f 81//81 110//110 111//111
f 102//102 81//81 111//111
f 82//82 107//107 68//68
f 112//112 93//93 101//101
f 93//93 112//112 85//85
f 112//112 105//105 85//85
f 92//92 95//95 113//113
f 92//92 113//113 99//99
f 114//114 100//100 89//89
f 98//98 107//107 82//82
f 91//91 108//108 104//104
f 105//105 115//115 106//106
f 108//108 87//87 102//102
f 116//116 114//114 89//89
f 89//89 90//90 116//116
f 95//95 94//94 113//113
f 102//102 117//117 108//108
f 117//117 102//102 111//111
f 100//100 118//118 119//119
f 114//114 118//118 100//100
f 90//90 104//104 116//116
f 112//112 120//120 105//105
f 121//121 97//97 96//96
f 103//103 121//121 96//96
f 122//122 101//101 107//107
f 112//112 101//101 123//123
f 104//104 108//108 124//124
f 125//125 106//106 115//115
f 94//94 106//106 125//125
f 99//99 113//113 126//126
f 109//109 99//99 126//126
f 117//117 111//111 110//110
f 119//119 127//127 100//100
f 100//100 127//127 103//103
f 98//98 128//128 107//107
f 116//116 104//104 129//129
f 104//104 124//124 129//129
f 123//123 120//120 112//112
f 130//130 115//115 120//120
f 115//115 105//105 120//120
f 125//125 113//113 94//94
f 108//108 131//131 124//124
f 117//117 131//131 108//108
f 110//110 109//109 132//132
f 110//110 132//132 117//117
f 103//103 127//127 121//121
f 128//128 133//133 107//107
f 107//107 133//133 122//122
f 115//115 130//130 125//125
f 98//98 97//97 134//134
f 121//121 134//134 97//97
f 134//134 128//128 98//98
f 122//122 123//123 101//101
f 129//129 124//124 135//135
f 124//124 136//136 135//135
f 131//131 117//117 132//132
f 132//132 109//109 126//126
f 116//116 118//118 114//114
f 116//116 137//137 118//118
f 116//116 129//129 137//137
f 130//130 138//138 125//125
f 131//131 136//136 124//124
f 139//139 113//113 125//125
f 126//126 113//113 139//139
f 126//126 140//140 132//132
f 141//141 128//128 134//134
f 142//142 137//137 129//129
f 135//135 142//142 129//129
f 123//123 130//130 120//120
f 143//143 130//130 123//123
f 144//144 125//125 138//138
f 125//125 144//144 139//139
f 132//132 145//145 131//131
f 127//127 134//134 121//121
f 127//127 146//146 134//134
f 119//119 147//147 127//127
f 119//119 118//118 147//147
f 134//134 146//146 141//141
f 118//118 137//137 147//147
f 141//141 133//133 128//128
f 133//133 148//148 122//122
f 143//143 138//138 130//130
f 149//149 139//139 144//144
f 131//131 150//150 136//136
f 139//139 151//151 126//126
f 145//145 150//150 131//131
f 126//126 151//151 140//140
f 132//132 140//140 145//145
f 147//147 137//137 152//152
f 141//141 146//146 153//153
f 153//153 154//154 141//141
f 137//137 142//142 152//152
f 152//152 142//142 155//155
f 141//141 148//148 133//133
f 155//155 142//142 135//135
f 148//148 123//123 122//122
f 149//149 151//151 139//139
f 146//146 127//127 147//147
f 153//153 146//146 156//156
f 147//147 156//156 146//146
f 156//156 147//147 157//157
f 147//147 152//152 157//157
f 157//157 152//152 155//155
f 141//141 154//154 148//148
f 158//158 123//123 148//148
f 135//135 159//159 155//155
f 158//158 143//143 123//123
f 136//136 159//159 135//135
f 149//149 160//160 151//151
f 156//156 161//161 153//153
f 157//157 161//161 156//156
f 157//157 155//155 161//161
f 161//161 155//155 162//162
f 148//148 154//154 163//163
f 138//138 143//143 164//164
f 138//138 165//165 144//144
f 136//136 166//166 159//159
f 136//136 150//150 166//166
f 167//167 149//149 144//144
f 149//149 167//167 160//160
f 140//140 151//151 168//168
f 140//140 168//168 145//145
f 154//154 153//153 169//169
f 169//169 153//153 161//161
f 169//169 161//161 162//162
f 163//163 170//170 148//148
f 171//171 162//162 155//155
f 170//170 158//158 148//148
f 172//172 171//171 155//155
f 155//155 159//159 172//172
f 138//138 164//164 165//165
f 165//165 167//167 144//144
f 150//150 145//145 168//168
f 173//173 154//154 169//169
f 169//169 162//162 171//171
f 154//154 173//173 163//163
f 158//158 174//174 143//143
f 143//143 174//174 164//164
f 172//172 159//159 166//166
f 150//150 168//168 175//175
f 175//175 166//166 150//150
f 160//160 167//167 176//176
f 160//160 176//176 151//151
f 151//151 176//176 168//168
f 173//173 169//169 177//177
f 171//171 177//177 169//169
f 163//163 173//173 170//170
f 178//178 173//173 177//177
f 171//171 172//172 177//177
f 158//158 170//170 174//174
f 172//172 166//166 175//175
f 177//177 172//172 175//175
f 174//174 179//179 164//164
f 179//179 167//167 165//165
f 164//164 179//179 165//165
f 176//176 167//167 179//179
f 175//175 168//168 180//180
f 180//180 168//168 176//176
f 174//174 170//170 173//173
f 178//178 181//181 173//173
f 174//174 173//173 181//181
f 178//178 177//177 181//181
f 177//177 182//182 181//181
f 183//183 179//179 174//174
f 183//183 174//174 181//181
f 175//175 182//182 177//177
f 183//183 176//176 179//179
f 183//183 182//182 176//176
f 182//182 180//180 176//176
f 182//182 175//175 180//180
f 182//182 183//183 181//181
