# wavefront obj file written by the visualization toolkit


v 11454.9 3595.09 5227.9
v 11387.1 3644.41 5220.98
v 11563.7 3611.93 5221.25
v 11650.4 3645.91 5230.01
v 11645.8 3599.01 5261.6
v 11518.3 3674.04 5214.29
v 11398.8 3709.39 5210.27
v 11317.3 3714.95 5226.46
v 11591.6 3719.7 5230.03
v 11363.3 3765.12 5227.93
v 11461.6 3750.06 5227.12
v 11565.8 3578.9 5256.3
v 11489.6 3574.71 5275.57
v 11280.5 3632.65 5261.05
v 11379.8 3604.84 5260.02
v 11274.8 3679.99 5266.57
v 11676.3 3681.69 5261.52
v 11644.1 3728.57 5264.63
v 11290.5 3748.49 5261.13
v 11583.6 3758.42 5256.27
v 11518.2 3771.77 5245.17
v 11430.7 3806.18 5266.27
v 11332.3 3804.19 5273.09
v 11576.4 3566.73 5292.98
v 11623.7 3575.78 5308.41
v 11687.4 3637.46 5290.78
v 11308.7 3608.71 5301.61
v 11700.6 3668.56 5353.17
v 11624.8 3734.96 5372.35
v 11542.4 3775.97 5292.45
v 11275.5 3779.93 5304.54
v 11303.1 3817.16 5335.57
v 11345.9 3826.92 5350.11
v 11414.9 3589.52 5332.71
v 11253.8 3646.5 5335.01
v 11253.4 3718.16 5336.68
v 11674.5 3692.33 5371.04
v 11473.5 3806.89 5331.26
v 11395.7 3823.65 5390.45
v 11674.6 3606.14 5345.4
v 11546.5 3763.64 5376.68
v 11550.8 3578.08 5351.75
v 11361.7 3614.01 5421.03
v 11695.7 3637.08 5389.52
v 11268.8 3774.77 5360.81
v 11440 3793.03 5448.58
v 11645.8 3595.92 5403.34
v 11237.9 3681.45 5396.11
v 11695.1 3661.59 5462.26
v 11302.9 3793.73 5459.64
v 11508.7 3769.16 5425.11
v 11520.6 3593.81 5464.34
v 11610 3594.03 5466.17
v 11684.8 3622.06 5470.21
v 11284.7 3660.61 5460.52
v 11694 3646.28 5445.32
v 11266.9 3735.57 5457.21
v 11354.8 3813.35 5478.41
v 11653.4 3606.66 5532.04
v 11557.7 3743.85 5451.9
v 11404.9 3790.79 5548.45
v 11370.9 3638.48 5563.49
v 11270.5 3697.35 5494.13
v 11669.6 3676.99 5548.48
v 11588.7 3714.21 5575.06
v 11303.8 3766.52 5616
v 11301.7 3686.25 5596.48
v 11492.4 3755.62 5540.03
v 11505.8 3605.59 5641.31
v 11684.9 3645.3 5564.04
v 11288.6 3723.77 5565.76
v 11616.2 3604.04 5648.51
v 11331.4 3664.1 5634.19
v 11351.5 3794.24 5610.55
v 11431.1 3620.55 5709.4
v 11669.7 3623.83 5646.46
v 11295.7 3731.36 5683.94
v 11367.6 3643.1 5703.66
v 11441.3 3767.93 5687.66
v 11316.2 3669.12 5720.83
v 11523.9 3734.25 5661.37
v 11565.2 3719.95 5752.97
v 11392.4 3789.73 5650.3
v 11682.5 3646.96 5757.09
v 11639.1 3688.8 5725.6
v 11331.3 3801.66 5762.85
v 11285.1 3702.55 5758.12
v 11492.8 3749.2 5774.99
v 11298.6 3780.99 5796.28
v 11608.3 3592.43 5855.13
v 11491.7 3600.68 5822.19
v 11364.6 3619.91 5847.72
v 11315.9 3649.4 5807.84
v 11384.8 3798.69 5766.77
v 11266.6 3741.9 5848.96
v 11601.1 3722.14 5866.23
v 11438.4 3781.75 5815.74
v 11663.5 3615.62 5799.85
v 11274.3 3674.64 5838.26
v 11665.1 3698.92 5926.16
v 11248.1 3699.05 5881.75
v 11273.4 3642.28 5912.1
v 11690 3626.16 5869.43
v 11317.1 3822.96 5918.48
v 11515.5 3769 5895.71
v 11275.7 3785.85 5963.1
v 11357.4 3830.64 5912.16
v 11429.2 3809.51 5922.58
v 11457.3 3586.14 5957.53
v 11558.3 3577.02 5946.15
v 11234.1 3672.72 5948.5
v 11700 3650.06 5965.39
v 11242.4 3726.69 5985.39
v 11334.5 3608.44 5985.04
v 11574.2 3759.33 5997.4
v 11339.5 3842.25 6023.29
v 11676.8 3609.35 5961.13
v 11690.8 3691.92 6024.5
v 11628.5 3581.1 6010.38
v 11249.8 3640.43 6011.46
v 11703.8 3638.8 6056.84
v 11404.2 3826.82 6044.95
v 11536.4 3570.44 6041.98
v 11226.6 3675.68 6039.73
v 11483.5 3795.23 5995.68
v 11692.2 3681.01 6074.57
v 11309.2 3822.54 6028.87
v 11411.8 3585.73 6058.68
v 11238.9 3643.49 6080.79
v 11312.1 3616.21 6069.75
v 11623.5 3732.35 6062.22
v 11274 3773.71 6071.27
v 11668.4 3614.11 6088.42
v 11237 3712.13 6071.28
v 11336.9 3815.79 6078.4
v 11514.3 3581.36 6114.88
v 11595.2 3589.25 6085
v 11305.5 3640.92 6124.27
v 11248 3677.61 6089.69
v 11505.8 3787.46 6064.98
v 11403.1 3603.81 6105.67
v 11683.4 3659.44 6106.31
v 11277 3711.55 6121.89
v 11422.9 3789.64 6118.64
v 11572 3608.8 6130.92
v 11632.9 3705.9 6126.18
v 11542.2 3755.2 6118.33
v 11430.5 3620.74 6136.5
v 11355.7 3681.39 6150.16
v 11608.7 3654.04 6133.07
v 11324.3 3733.26 6153.88
v 11331.6 3761.05 6120.38
v 11501 3750.03 6150.5
v 11565.8 3728.91 6142.23
v 11485.2 3668.56 6150.79
v 11525.7 3712.07 6146.24
v 11420.5 3728.21 6140.61
vn -0.13381 -0.747135 -0.651064
vn -0.221446 -0.297984 -0.928529
vn 0.115503 -0.417207 -0.901442
vn 0.48901 -0.121713 -0.863745
vn 0.507251 -0.718713 -0.475551
vn 0.0686246 0.0410474 -0.996798
vn -0.0530922 0.098805 -0.993689
vn -0.432393 0.0516242 -0.900206
vn 0.287816 0.400372 -0.869979
vn -0.17921 0.488714 -0.85384
vn 0.0776389 0.413128 -0.907358
vn 0.1313 -0.872694 -0.470282
vn -0.130236 -0.982754 -0.131274
vn -0.569014 -0.58428 -0.578654
vn -0.254402 -0.883124 -0.394171
vn -0.787038 -0.0333321 -0.616004
vn 0.79963 0.3748 -0.469166
vn 0.620699 0.712729 -0.326726
vn -0.703714 0.334854 -0.626626
vn 0.378053 0.853955 -0.357543
vn 0.203342 0.752821 -0.626029
vn 0.119199 0.895626 -0.428539
vn -0.322458 0.788056 -0.524394
vn 0.0667131 -0.994523 -0.0804619
vn 0.31142 -0.948409 -0.0594776
vn 0.900127 -0.320281 -0.295282
vn -0.3502 -0.935684 -0.04307
vn 0.978925 0.19931 -0.0445163
vn 0.458555 0.882576 0.103862
vn 0.347668 0.934812 -0.0724843
vn -0.801991 0.499541 -0.32752
vn -0.533848 0.841065 -0.0872667
vn -0.126925 0.991055 -0.0412222
vn -0.16429 -0.985056 0.0517083
vn -0.830189 -0.555655 -0.0450951
vn -0.965404 0.177356 -0.191152
vn 0.71287 0.700654 0.0300076
vn 0.344685 0.935917 0.0724702
vn 0.20042 0.976549 0.078641
vn 0.679125 -0.732653 -0.0448089
vn 0.384936 0.908766 0.161146
vn 0.00558368 -0.990131 0.140035
vn -0.317049 -0.933639 0.166727
vn 0.939146 -0.343441 -0.00730933
vn -0.8761 0.479215 0.0529326
vn 0.378983 0.907684 0.180226
vn 0.319775 -0.943597 0.0858436
vn -0.975561 -0.161386 0.149112
vn 0.926958 0.362166 0.0979013
vn -0.588458 0.794998 0.147294
vn 0.381469 0.905455 0.1861
vn -0.0711039 -0.992537 0.0990703
vn 0.111093 -0.991053 0.0739737
vn 0.781374 -0.620995 0.0618105
vn -0.620982 -0.747652 0.235368
vn 0.982251 -0.176275 0.0641059
vn -0.93923 0.304077 0.159322
vn -0.0845236 0.986117 0.142933
vn 0.364719 -0.929061 0.061859
vn 0.350955 0.92187 0.164275
vn 0.288524 0.95076 0.113179
vn -0.423635 -0.902178 0.0812883
vn -0.940565 -0.19673 0.276831
vn 0.695808 0.712775 0.0883371
vn 0.375744 0.923163 0.0811523
vn -0.826142 0.56207 0.0395825
vn -0.836403 -0.542374 0.0791225
vn 0.375814 0.919768 0.113097
vn -0.146189 -0.989058 0.0198282
vn 0.994699 -0.0668161 0.0781582
vn -0.985706 0.0264915 0.166377
vn 0.183192 -0.982903 0.0184997
vn -0.53631 -0.84365 -0.0250315
vn -0.130548 0.990834 0.0347235
vn -0.256478 -0.964753 -0.0589066
vn 0.693326 -0.719502 0.0402056
vn -0.991475 0.110884 -0.06842
vn -0.428595 -0.899686 -0.0828966
vn 0.398167 0.91726 -0.0098164
vn -0.635539 -0.761772 -0.125671
vn 0.363551 0.931381 0.0189704
vn 0.362426 0.928521 -0.0806001
vn 0.265484 0.964084 -0.0077963
vn 0.994938 0.0834443 -0.0559917
vn 0.517694 0.854483 -0.0430224
vn -0.321966 0.937524 -0.131857
vn -0.949184 -0.245195 -0.197304
vn 0.380289 0.918119 -0.111529
vn -0.802958 0.582736 -0.125209
vn 0.168016 -0.982188 -0.0841253
vn -0.127014 -0.98644 -0.103937
vn -0.286707 -0.946412 -0.148669
vn -0.513759 -0.831271 -0.212229
vn 0.263328 0.958061 -0.113038
vn -0.933329 0.315164 -0.171954
vn 0.419994 0.896713 -0.139679
vn 0.405461 0.900364 -0.157941
vn 0.560459 -0.825278 -0.0692965
vn -0.776423 -0.565572 -0.278021
vn 0.64592 0.75493 -0.113438
vn -0.971519 -0.0192782 -0.236177
vn -0.546476 -0.810136 -0.212234
vn 0.835746 -0.54309 -0.0811259
vn -0.517697 0.848249 -0.111635
vn 0.382249 0.908219 -0.170364
vn -0.808362 0.586597 -0.0495547
vn 0.0786044 0.988233 -0.131215
vn 0.354114 0.925732 -0.132756
vn -0.15223 -0.982386 -0.108366
vn 0.00416062 -0.994198 -0.107487
vn -0.929049 -0.319142 -0.187126
vn 0.996465 0.0567212 -0.0619724
vn -0.934554 0.351932 -0.0524592
vn -0.297596 -0.951431 -0.0788394
vn 0.432318 0.898628 -0.0746259
vn -0.193675 0.97326 0.123508
vn 0.630287 -0.77596 -0.0249899
vn 0.780146 0.62522 -0.0217254
vn 0.288558 -0.95658 0.0411026
vn -0.622406 -0.778796 -0.0780229
vn 0.935988 -0.300217 0.183836
vn 0.239258 0.958506 0.15499
vn 0.0177843 -0.998455 0.0526416
vn -0.991231 -0.0923281 0.0945329
vn 0.365074 0.928726 -0.0647269
vn 0.846017 0.474603 0.242917
vn -0.619015 0.770071 0.154309
vn -0.199895 -0.974449 0.10243
vn -0.737541 -0.56788 0.365439
vn -0.310674 -0.932442 0.184483
vn 0.498196 0.856382 0.135688
vn -0.712045 0.592066 0.377426
vn 0.507311 -0.717203 0.477762
vn -0.902017 0.262163 0.342982
vn -0.262397 0.798602 0.541648
vn -0.0182663 -0.886351 0.462654
vn 0.237306 -0.913997 0.329081
vn -0.384146 -0.532363 0.754335
vn -0.782999 -0.0472756 0.620223
vn 0.354368 0.918669 0.174559
vn -0.226628 -0.863283 0.450978
vn 0.693717 -0.067843 0.717045
vn -0.623615 0.169687 0.763093
vn 0.0554443 0.746679 0.66287
vn 0.186745 -0.53501 0.823949
vn 0.466446 0.461496 0.754618
vn 0.345835 0.837559 0.422958
vn -0.0983229 -0.521765 0.847404
vn -0.149201 -0.151306 0.977162
vn 0.265187 -0.161694 0.950543
vn -0.235051 0.345492 0.908508
vn -0.294073 0.610503 0.735396
vn 0.0913966 0.416545 0.904509
vn 0.29052 0.392774 0.872541
vn 0.0378275 -0.075861 0.996401
vn 0.0931561 -0.018176 0.995486
vn -0.0198916 0.247586 0.968662

g grp1
usemtl mtl1
f 1//1 2//2 3//3 
f 3//3 4//4 5//5 
f 3//3 2//2 6//6 
f 4//4 3//3 6//6 
f 6//6 2//2 7//7 
f 7//7 2//2 8//8 
f 9//9 4//4 6//6 
f 7//7 8//8 10//10 
f 11//11 7//7 10//10 
f 6//6 7//7 11//11 
f 9//9 6//6 11//11 
f 1//1 12//12 13//13 
f 3//3 12//12 1//1 
f 5//5 12//12 3//3 
f 14//14 2//2 15//15 
f 1//1 15//15 2//2 
f 14//14 16//16 2//2 
f 16//16 8//8 2//2 
f 9//9 17//17 4//4 
f 9//9 18//18 17//17 
f 19//19 8//8 16//16 
f 8//8 19//19 10//10 
f 20//20 18//18 9//9 
f 11//11 21//21 9//9 
f 21//21 20//20 9//9 
f 22//22 11//11 10//10 
f 21//21 11//11 22//22 
f 10//10 19//19 23//23 
f 22//22 10//10 23//23 
f 13//13 12//12 24//24 
f 24//24 12//12 25//25 
f 15//15 1//1 13//13 
f 12//12 5//5 25//25 
f 26//26 5//5 4//4 
f 15//15 27//27 14//14 
f 4//4 17//17 26//26 
f 26//26 17//17 28//28 
f 29//29 18//18 20//20 
f 29//29 20//20 30//30 
f 23//23 19//19 31//31 
f 20//20 21//21 30//30 
f 23//23 31//31 32//32 
f 30//30 21//21 22//22 
f 23//23 32//32 33//33 
f 22//22 23//23 33//33 
f 13//13 34//34 15//15 
f 14//14 27//27 35//35 
f 14//14 35//35 16//16 
f 36//36 19//19 16//16 
f 28//28 17//17 37//37 
f 37//37 17//17 18//18 
f 30//30 22//22 38//38 
f 22//22 33//33 39//39 
f 38//38 22//22 39//39 
f 40//40 25//25 5//5 
f 15//15 34//34 27//27 
f 5//5 26//26 40//40 
f 35//35 36//36 16//16 
f 36//36 31//31 19//19 
f 37//37 18//18 29//29 
f 29//29 30//30 41//41 
f 41//41 30//30 38//38 
f 13//13 42//42 34//34 
f 24//24 42//42 13//13 
f 24//24 25//25 42//42 
f 27//27 43//43 35//35 
f 27//27 34//34 43//43 
f 26//26 28//28 44//44 
f 45//45 32//32 31//31 
f 38//38 39//39 46//46 
f 25//25 47//47 42//42 
f 44//44 40//40 26//26 
f 35//35 48//48 36//36 
f 49//49 28//28 37//37 
f 36//36 45//45 31//31 
f 50//50 32//32 45//45 
f 32//32 50//50 33//33 
f 47//47 25//25 40//40 
f 38//38 51//51 41//41 
f 42//42 52//52 34//34 
f 47//47 53//53 42//42 
f 52//52 43//43 34//34 
f 40//40 54//54 47//47 
f 35//35 55//55 48//48 
f 43//43 55//55 35//35 
f 54//54 40//40 44//44 
f 44//44 28//28 56//56 
f 48//48 57//57 36//36 
f 56//56 28//28 49//49 
f 57//57 45//45 36//36 
f 38//38 46//46 51//51 
f 33//33 50//50 58//58 
f 42//42 53//53 52//52 
f 59//59 47//47 54//54 
f 56//56 54//54 44//44 
f 60//60 29//29 41//41 
f 41//41 51//51 60//60 
f 61//61 46//46 39//39 
f 59//59 53//53 47//47 
f 43//43 62//62 55//55 
f 48//48 63//63 57//57 
f 29//29 64//64 37//37 
f 64//64 49//49 37//37 
f 60//60 65//65 29//29 
f 57//57 50//50 45//45 
f 66//66 50//50 57//57 
f 39//39 33//33 58//58 
f 58//58 61//61 39//39 
f 55//55 63//63 48//48 
f 55//55 62//62 67//67 
f 68//68 60//60 51//51 
f 51//51 46//46 68//68 
f 52//52 69//69 43//43 
f 70//70 54//54 56//56 
f 56//56 49//49 70//70 
f 65//65 64//64 29//29 
f 63//63 71//71 57//57 
f 46//46 61//61 68//68 
f 62//62 43//43 69//69 
f 53//53 72//72 52//52 
f 62//62 73//73 67//67 
f 55//55 67//67 63//63 
f 70//70 49//49 64//64 
f 71//71 66//66 57//57 
f 52//52 72//72 69//69 
f 67//67 71//71 63//63 
f 58//58 50//50 74//74 
f 69//69 75//75 62//62 
f 53//53 59//59 72//72 
f 54//54 76//76 59//59 
f 76//76 54//54 70//70 
f 71//71 77//77 66//66 
f 68//68 65//65 60//60 
f 72//72 59//59 76//76 
f 78//78 73//73 62//62 
f 79//79 68//68 61//61 
f 74//74 61//61 58//58 
f 62//62 75//75 78//78 
f 73//73 80//80 67//67 
f 67//67 77//77 71//71 
f 65//65 81//81 82//82 
f 68//68 79//79 81//81 
f 81//81 65//65 68//68 
f 83//83 79//79 61//61 
f 66//66 74//74 50//50 
f 61//61 74//74 83//83 
f 70//70 64//64 84//84 
f 78//78 80//80 73//73 
f 64//64 65//65 85//85 
f 74//74 66//66 86//86 
f 84//84 76//76 70//70 
f 65//65 82//82 85//85 
f 64//64 85//85 84//84 
f 80//80 87//87 67//67 
f 67//67 87//87 77//77 
f 79//79 88//88 81//81 
f 77//77 89//89 66//66 
f 72//72 90//90 69//69 
f 69//69 90//90 91//91 
f 75//75 92//92 78//78 
f 78//78 93//93 80//80 
f 81//81 88//88 82//82 
f 89//89 86//86 66//66 
f 83//83 74//74 94//94 
f 74//74 86//86 94//94 
f 92//92 75//75 91//91 
f 69//69 91//91 75//75 
f 93//93 78//78 92//92 
f 87//87 95//95 77//77 
f 85//85 82//82 96//96 
f 95//95 89//89 77//77 
f 88//88 79//79 97//97 
f 83//83 94//94 79//79 
f 98//98 76//76 84//84 
f 80//80 93//93 99//99 
f 80//80 99//99 87//87 
f 85//85 100//100 84//84 
f 87//87 101//101 95//95 
f 97//97 79//79 94//94 
f 72//72 98//98 90//90 
f 98//98 72//72 76//76 
f 93//93 92//92 102//102 
f 103//103 98//98 84//84 
f 87//87 99//99 101//101 
f 85//85 96//96 100//100 
f 86//86 89//89 104//104 
f 102//102 99//99 93//93 
f 96//96 82//82 105//105 
f 82//82 88//88 105//105 
f 95//95 106//106 89//89 
f 89//89 106//106 104//104 
f 94//94 86//86 107//107 
f 86//86 104//104 107//107 
f 94//94 107//107 108//108 
f 88//88 97//97 105//105 
f 97//97 94//94 108//108 
f 92//92 91//91 109//109 
f 90//90 110//110 91//91 
f 99//99 102//102 111//111 
f 103//103 84//84 112//112 
f 112//112 84//84 100//100 
f 111//111 101//101 99//99 
f 101//101 113//113 95//95 
f 91//91 110//110 109//109 
f 102//102 92//92 114//114 
f 96//96 105//105 115//115 
f 106//106 95//95 113//113 
f 107//107 104//104 116//116 
f 117//117 98//98 103//103 
f 117//117 103//103 112//112 
f 100//100 118//118 112//112 
f 113//113 101//101 111//111 
f 97//97 108//108 105//105 
f 110//110 90//90 119//119 
f 90//90 98//98 117//117 
f 120//120 102//102 114//114 
f 121//121 117//117 112//112 
f 102//102 120//120 111//111 
f 100//100 96//96 115//115 
f 107//107 116//116 122//122 
f 108//108 107//107 122//122 
f 110//110 123//123 109//109 
f 110//110 119//119 123//123 
f 90//90 117//117 119//119 
f 92//92 109//109 114//114 
f 111//111 120//120 124//124 
f 111//111 124//124 113//113 
f 105//105 125//125 115//115 
f 121//121 112//112 126//126 
f 112//112 118//118 126//126 
f 108//108 125//125 105//105 
f 104//104 127//127 116//116 
f 125//125 108//108 122//122 
f 109//109 128//128 114//114 
f 123//123 128//128 109//109 
f 129//129 120//120 130//130 
f 130//130 120//120 114//114 
f 120//120 129//129 124//124 
f 100//100 115//115 131//131 
f 100//100 131//131 118//118 
f 113//113 132//132 106//106 
f 106//106 132//132 127//127 
f 104//104 106//106 127//127 
f 133//133 119//119 117//117 
f 117//117 121//121 133//133 
f 124//124 134//134 113//113 
f 134//134 132//132 113//113 
f 135//135 116//116 127//127 
f 116//116 135//135 122//122 
f 123//123 136//136 128//128 
f 123//123 137//137 136//136 
f 119//119 137//137 123//123 
f 130//130 114//114 128//128 
f 119//119 133//133 137//137 
f 138//138 129//129 130//130 
f 129//129 139//139 124//124 
f 124//124 139//139 134//134 
f 131//131 126//126 118//118 
f 140//140 115//115 125//125 
f 125//125 122//122 140//140 
f 128//128 141//141 130//130 
f 136//136 141//141 128//128 
f 133//133 121//121 142//142 
f 121//121 126//126 142//142 
f 132//132 134//134 143//143 
f 140//140 131//131 115//115 
f 135//135 144//144 122//122 
f 122//122 144//144 140//140 
f 145//145 136//136 137//137 
f 141//141 138//138 130//130 
f 129//129 138//138 139//139 
f 126//126 146//146 142//142 
f 139//139 143//143 134//134 
f 131//131 146//146 126//126 
f 147//147 146//146 131//131 
f 147//147 131//131 140//140 
f 140//140 144//144 147//147 
f 127//127 132//132 135//135 
f 141//141 136//136 148//148 
f 136//136 145//145 148//148 
f 137//137 133//133 145//145 
f 148//148 149//149 138//138 
f 141//141 148//148 138//138 
f 145//145 133//133 150//150 
f 133//133 142//142 150//150 
f 138//138 143//143 139//139 
f 143//143 138//138 149//149 
f 146//146 150//150 142//142 
f 151//151 143//143 149//149 
f 143//143 151//151 152//152 
f 153//153 154//154 147//147 
f 146//146 147//147 154//154 
f 143//143 152//152 132//132 
f 147//147 144//144 153//153 
f 135//135 132//132 152//152 
f 135//135 152//152 144//144 
f 148//148 145//145 155//155 
f 149//149 148//148 155//155 
f 150//150 155//155 145//145 
f 150//150 156//156 155//155 
f 155//155 157//157 149//149 
f 156//156 157//157 155//155 
f 157//157 151//151 149//149 
f 150//150 146//146 156//156 
f 156//156 153//153 157//157 
f 154//154 153//153 156//156 
f 146//146 154//154 156//156 
f 157//157 152//152 151//151 
f 144//144 152//152 157//157 
f 153//153 144//144 157//157 
