# Blender v2.92.0 OBJ File: 'convert_to_one_sided.blend'
# www.blender.org
mtllib 744L.mtl
o 744
v 11.454753 3.595043 5.227833
v 11.386953 3.644362 5.220913
v 11.563551 3.611882 5.221183
v 11.650250 3.645862 5.229943
v 11.645650 3.598963 5.261533
v 11.518151 3.673992 5.214223
v 11.398653 3.709341 5.210204
v 11.317154 3.714901 5.226393
v 11.591451 3.719651 5.229963
v 11.363153 3.765071 5.227863
v 11.461452 3.750011 5.227053
v 11.565651 3.578853 5.256233
v 11.489451 3.574663 5.275502
v 11.280354 3.632602 5.260983
v 11.379653 3.604793 5.259953
v 11.274654 3.679942 5.266502
v 11.676149 3.681642 5.261453
v 11.643950 3.728521 5.264563
v 11.290355 3.748441 5.261063
v 11.583450 3.758371 5.256203
v 11.518052 3.771720 5.245103
v 11.430553 3.806130 5.266203
v 11.332154 3.804140 5.273023
v 11.576251 3.566683 5.292912
v 11.623550 3.575733 5.308342
v 11.687250 3.637412 5.290712
v 11.308555 3.608663 5.301542
v 11.700449 3.668512 5.353101
v 11.624650 3.734911 5.372282
v 11.542252 3.775920 5.292383
v 11.275354 3.779880 5.304472
v 11.302954 3.817110 5.335502
v 11.345755 3.826870 5.350041
v 11.414753 3.589473 5.332642
v 11.253654 3.646452 5.334941
v 11.253256 3.718111 5.336612
v 11.674350 3.692281 5.370971
v 11.473352 3.806840 5.331192
v 11.395554 3.823600 5.390381
v 11.674449 3.606092 5.345332
v 11.546351 3.763591 5.376611
v 11.550652 3.578033 5.351682
v 11.361554 3.613962 5.420960
v 11.695550 3.637032 5.389451
v 11.268655 3.774720 5.360742
v 11.439853 3.792980 5.448510
v 11.645650 3.595873 5.403271
v 11.237756 3.681401 5.396041
v 11.694949 3.661542 5.462190
v 11.302754 3.793680 5.459570
v 11.508552 3.769110 5.425041
v 11.520452 3.593763 5.464270
v 11.609851 3.593983 5.466100
v 11.684649 3.622012 5.470140
v 11.284554 3.660562 5.460450
v 11.693850 3.646232 5.445250
v 11.266755 3.735521 5.457140
v 11.354653 3.813300 5.478340
v 11.653251 3.606612 5.531969
v 11.557551 3.743801 5.451830
v 11.404754 3.790740 5.548379
v 11.370754 3.638432 5.563419
v 11.270355 3.697302 5.494060
v 11.669450 3.676942 5.548409
v 11.588551 3.714161 5.574989
v 11.303655 3.766471 5.615928
v 11.301555 3.686202 5.596408
v 11.492252 3.755571 5.539959
v 11.505651 3.605543 5.641238
v 11.684750 3.645252 5.563969
v 11.288454 3.723721 5.565689
v 11.616051 3.603993 5.648438
v 11.331255 3.664052 5.634118
v 11.351354 3.794190 5.610478
v 11.669550 3.623782 5.646388
v 11.295555 3.731311 5.683867
v 11.441153 3.767880 5.687587
v 11.523752 3.734201 5.661298
v 11.392254 3.789680 5.650228
v 11.365584 3.644137 5.699999
v 11.319696 3.667869 5.699999
v 11.572039 3.718194 5.699999
v 11.630403 3.693060 5.699999
v 11.513159 3.739293 5.699999
v 11.319398 3.786588 5.699999
v 11.339480 3.798552 5.699999
v 11.301229 3.773219 5.699999
v 11.370437 3.796740 5.699999
v 11.313634 3.671932 5.699999
v 11.290916 3.696648 5.699999
v 11.389006 3.793509 5.699999
v 11.667383 3.620913 5.699999
v 11.675753 3.634991 5.699999
v 11.432288 3.772707 5.699999
v 11.441186 3.618453 5.699999
v 11.293249 3.725046 5.699999
v 11.295971 3.738438 5.699999
v 11.533820 3.601926 5.699999
v 11.501072 3.603947 5.699999
v 11.292710 3.732341 5.699999
v 11.541201 3.728159 5.699999
v 11.427104 3.621649 5.699999
v 11.367538 3.642934 5.699999
v 11.683059 3.646422 5.699999
v 11.448472 3.765218 5.699999
v 11.440871 3.769220 5.699999
v 11.678823 3.655120 5.699999
v 11.643345 3.687049 5.699999
v 11.614079 3.601095 5.699999
v 11.632166 3.607938 5.699999
vn -0.1338 -0.7471 -0.6511
vn -0.2215 -0.2980 -0.9285
vn 0.1155 -0.4172 -0.9014
vn 0.4890 -0.1217 -0.8638
vn 0.5073 -0.7187 -0.4756
vn 0.0686 0.0410 -0.9968
vn -0.0531 0.0988 -0.9937
vn -0.4324 0.0516 -0.9002
vn 0.2878 0.4004 -0.8700
vn -0.1792 0.4887 -0.8538
vn 0.0776 0.4132 -0.9073
vn 0.1313 -0.8727 -0.4703
vn -0.1302 -0.9828 -0.1313
vn -0.5690 -0.5843 -0.5786
vn -0.2544 -0.8831 -0.3942
vn -0.7870 -0.0333 -0.6160
vn 0.7996 0.3748 -0.4692
vn 0.6207 0.7127 -0.3267
vn -0.7037 0.3349 -0.6266
vn 0.3780 0.8540 -0.3576
vn 0.2033 0.7528 -0.6260
vn 0.1192 0.8956 -0.4285
vn -0.3225 0.7881 -0.5244
vn 0.0667 -0.9945 -0.0805
vn 0.3114 -0.9484 -0.0595
vn 0.9001 -0.3203 -0.2953
vn -0.3502 -0.9357 -0.0431
vn 0.9789 0.1993 -0.0445
vn 0.4586 0.8826 0.1039
vn 0.3477 0.9348 -0.0725
vn -0.8020 0.4995 -0.3275
vn -0.5338 0.8411 -0.0873
vn -0.1269 0.9911 -0.0412
vn -0.1643 -0.9851 0.0517
vn -0.8302 -0.5556 -0.0451
vn -0.9654 0.1774 -0.1911
vn 0.7129 0.7007 0.0300
vn 0.3447 0.9359 0.0725
vn 0.2004 0.9766 0.0787
vn 0.6791 -0.7327 -0.0448
vn 0.3849 0.9088 0.1611
vn 0.0056 -0.9901 0.1400
vn -0.3170 -0.9336 0.1667
vn 0.9392 -0.3434 -0.0073
vn -0.8761 0.4792 0.0529
vn 0.3790 0.9077 0.1802
vn 0.3198 -0.9436 0.0858
vn -0.9756 -0.1614 0.1491
vn 0.9270 0.3621 0.0979
vn -0.5884 0.7950 0.1473
vn 0.3815 0.9055 0.1861
vn -0.0711 -0.9925 0.0991
vn 0.1111 -0.9911 0.0740
vn 0.7814 -0.6209 0.0618
vn -0.6210 -0.7477 0.2354
vn 0.9823 -0.1762 0.0641
vn -0.9392 0.3041 0.1593
vn -0.0845 0.9861 0.1429
vn 0.3647 -0.9290 0.0618
vn 0.3510 0.9219 0.1643
vn 0.2885 0.9508 0.1132
vn -0.4236 -0.9022 0.0813
vn -0.9406 -0.1967 0.2769
vn 0.6958 0.7128 0.0883
vn 0.3758 0.9232 0.0812
vn -0.8261 0.5621 0.0396
vn -0.8364 -0.5424 0.0791
vn 0.3758 0.9198 0.1131
vn -0.1462 -0.9891 0.0198
vn 0.9948 -0.0657 0.0781
vn -0.9857 0.0265 0.1664
vn 0.1833 -0.9829 0.0185
vn -0.5363 -0.8437 -0.0250
vn -0.1308 0.9908 0.0347
vn 0.6938 -0.7190 0.0404
vn -0.9915 0.1109 -0.0684
vn -0.3559 -0.6669 0.6547
vn -0.3400 -0.6089 0.7167
vn 0.3981 0.9173 -0.0098
vn 0.3496 0.9366 0.0247
vn 0.2655 0.9641 -0.0078
vn -0.3688 -0.6268 0.6864
vn 0.7198 -0.0188 0.6939
vn 0.5987 -0.3070 0.7398
vn -0.4784 -0.5395 0.6929
vn -0.7842 -0.1993 0.5876
vn -0.3803 0.6168 0.6891
vn -0.6818 0.1913 0.7060
vn 0.0839 0.7688 0.6340
vn -0.7054 0.4358 0.5590
vn -0.7387 0.0072 0.6740
vn -0.7934 0.1515 0.5896
vn 0.2851 0.6454 0.7087
vn 0.3091 0.6834 0.6614
vn 0.5132 -0.5424 0.6651
vn 0.2934 0.6585 0.6930
vn 0.2409 -0.6616 0.7101
vn 0.1316 -0.7370 0.6629
vn 0.3731 0.6007 0.7071
vn 0.6082 0.4315 0.6663
vn -0.2249 -0.6947 0.6833
vn -0.0366 -0.7192 0.6939
vn -0.1375 -0.7341 0.6650
vn -0.1824 -0.6987 0.6918
vn 0.2170 0.7156 0.6640
vn -0.2492 0.7418 0.6226
vn 0.2527 0.6661 0.7017
vn 0.2282 0.6553 0.7201
vn 0.2427 0.6592 0.7117
vn 0.2547 0.6554 0.7111
usemtl mtl1.1491
s 1
f 1//1 2//2 3//3
f 3//3 4//4 5//5
f 3//3 2//2 6//6
f 4//4 3//3 6//6
f 6//6 2//2 7//7
f 7//7 2//2 8//8
f 9//9 4//4 6//6
f 7//7 8//8 10//10
f 11//11 7//7 10//10
f 6//6 7//7 11//11
f 9//9 6//6 11//11
f 1//1 12//12 13//13
f 3//3 12//12 1//1
f 5//5 12//12 3//3
f 14//14 2//2 15//15
f 1//1 15//15 2//2
f 14//14 16//16 2//2
f 16//16 8//8 2//2
f 9//9 17//17 4//4
f 9//9 18//18 17//17
f 19//19 8//8 16//16
f 8//8 19//19 10//10
f 20//20 18//18 9//9
f 11//11 21//21 9//9
f 21//21 20//20 9//9
f 22//22 11//11 10//10
f 21//21 11//11 22//22
f 10//10 19//19 23//23
f 22//22 10//10 23//23
f 13//13 12//12 24//24
f 24//24 12//12 25//25
f 15//15 1//1 13//13
f 12//12 5//5 25//25
f 26//26 5//5 4//4
f 15//15 27//27 14//14
f 4//4 17//17 26//26
f 26//26 17//17 28//28
f 29//29 18//18 20//20
f 29//29 20//20 30//30
f 23//23 19//19 31//31
f 20//20 21//21 30//30
f 23//23 31//31 32//32
f 30//30 21//21 22//22
f 23//23 32//32 33//33
f 22//22 23//23 33//33
f 13//13 34//34 15//15
f 14//14 27//27 35//35
f 14//14 35//35 16//16
f 36//36 19//19 16//16
f 28//28 17//17 37//37
f 37//37 17//17 18//18
f 30//30 22//22 38//38
f 22//22 33//33 39//39
f 38//38 22//22 39//39
f 40//40 25//25 5//5
f 15//15 34//34 27//27
f 5//5 26//26 40//40
f 35//35 36//36 16//16
f 36//36 31//31 19//19
f 37//37 18//18 29//29
f 29//29 30//30 41//41
f 41//41 30//30 38//38
f 13//13 42//42 34//34
f 24//24 42//42 13//13
f 24//24 25//25 42//42
f 27//27 43//43 35//35
f 27//27 34//34 43//43
f 26//26 28//28 44//44
f 45//45 32//32 31//31
f 38//38 39//39 46//46
f 25//25 47//47 42//42
f 44//44 40//40 26//26
f 35//35 48//48 36//36
f 49//49 28//28 37//37
f 36//36 45//45 31//31
f 50//50 32//32 45//45
f 32//32 50//50 33//33
f 47//47 25//25 40//40
f 38//38 51//51 41//41
f 42//42 52//52 34//34
f 47//47 53//53 42//42
f 52//52 43//43 34//34
f 40//40 54//54 47//47
f 35//35 55//55 48//48
f 43//43 55//55 35//35
f 54//54 40//40 44//44
f 44//44 28//28 56//56
f 48//48 57//57 36//36
f 56//56 28//28 49//49
f 57//57 45//45 36//36
f 38//38 46//46 51//51
f 33//33 50//50 58//58
f 42//42 53//53 52//52
f 59//59 47//47 54//54
f 56//56 54//54 44//44
f 60//60 29//29 41//41
f 41//41 51//51 60//60
f 61//61 46//46 39//39
f 59//59 53//53 47//47
f 43//43 62//62 55//55
f 48//48 63//63 57//57
f 29//29 64//64 37//37
f 64//64 49//49 37//37
f 60//60 65//65 29//29
f 57//57 50//50 45//45
f 66//66 50//50 57//57
f 39//39 33//33 58//58
f 58//58 61//61 39//39
f 55//55 63//63 48//48
f 55//55 62//62 67//67
f 68//68 60//60 51//51
f 51//51 46//46 68//68
f 52//52 69//69 43//43
f 70//70 54//54 56//56
f 56//56 49//49 70//70
f 65//65 64//64 29//29
f 63//63 71//71 57//57
f 46//46 61//61 68//68
f 62//62 43//43 69//69
f 53//53 72//72 52//52
f 62//62 73//73 67//67
f 55//55 67//67 63//63
f 70//70 49//49 64//64
f 71//71 66//66 57//57
f 52//52 72//72 69//69
f 67//67 71//71 63//63
f 58//58 50//50 74//74
f 53//53 59//59 72//72
f 54//54 75//75 59//59
f 75//75 54//54 70//70
f 71//71 76//76 66//66
f 68//68 65//65 60//60
f 72//72 59//59 75//75
f 73//73 103//77 80//78
f 77//79 68//68 61//61
f 74//74 61//61 58//58
f 67//67 76//76 71//71
f 68//68 77//79 78//80
f 78//80 65//65 68//68
f 79//81 77//79 61//61
f 66//66 74//74 50//50
f 61//61 74//74 79//81
f 80//78 81//82 73//73
f 75//75 104//83 93//84
f 89//85 90//86 67//67
f 85//87 97//88 88//89
f 87//90 85//87 66//66
f 96//91 100//92 76//76
f 100//92 97//88 76//76
f 105//93 77//79 106//94
f 92//95 75//75 93//84
f 106//94 77//79 94//96
f 110//97 75//75 92//95
f 72//72 110//97 109//98
f 64//64 108//99 107//100
f 70//70 107//100 104//83
f 62//62 102//101 103//77
f 72//72 98//102 69//69
f 69//69 98//102 99//103
f 69//69 102//101 62//62
f 69//69 99//103 95//104
f 91//105 77//79 79//81
f 90//86 76//76 67//67
f 79//81 88//89 91//105
f 76//76 87//90 66//66
f 74//74 86//106 88//89
f 74//74 85//87 86//106
f 77//79 84//107 78//80
f 78//80 84//107 101//108
f 65//65 108//99 64//64
f 78//80 82//109 65//65
f 65//65 82//109 83//110
f 73//73 89//85 67//67
f 73//73 62//62 103//77
f 75//75 70//70 104//83
f 108//99 83//110 110//97
f 83//110 82//109 109//98
f 110//97 83//110 109//98
f 82//109 101//108 98//102
f 104//83 107//100 93//84
f 107//100 108//99 93//84
f 110//97 92//95 108//99
f 92//95 93//84 108//99
f 101//108 84//107 99//103
f 82//109 98//102 109//98
f 105//93 106//94 103//77
f 106//94 94//96 103//77
f 103//77 94//96 80//78
f 84//107 105//93 95//104
f 95//104 99//103 84//107
f 99//103 98//102 101//108
f 103//77 102//101 105//93
f 102//101 95//104 105//93
f 89//85 81//82 96//91
f 81//82 80//78 91//105
f 96//91 81//82 97//88
f 94//96 91//105 80//78
f 91//105 88//89 97//88
f 90//86 89//85 96//91
f 97//88 100//92 96//91
f 97//88 81//82 91//105
f 88//89 86//106 85//87
f 85//87 87//90 97//88
f 110//97 72//72 75//75
f 70//70 64//64 107//100
f 72//72 109//98 98//102
f 69//69 95//104 102//101
f 91//105 94//96 77//79
f 90//86 96//91 76//76
f 79//81 74//74 88//89
f 76//76 97//88 87//90
f 74//74 66//66 85//87
f 77//79 105//93 84//107
f 65//65 83//110 108//99
f 78//80 101//108 82//109
f 73//73 81//82 89//85
