# Blender v2.92.0 OBJ File: 'convert_to_one_sided.blend'
# www.blender.org
mtllib 74L.mtl
o 74
v 8.771637 2.097593 2.085393
v 8.656478 2.066963 2.094293
v 8.755117 2.123033 2.092824
v 8.577049 2.029674 2.105933
v 8.547630 1.997414 2.127453
v 8.540740 2.021434 2.122783
v 8.607880 2.009174 2.124983
v 8.717607 2.049093 2.112053
v 8.568340 2.057343 2.124573
v 8.883246 2.121912 2.101013
v 8.817316 2.016334 2.177952
v 8.646938 2.101183 2.111193
v 8.866716 2.147622 2.094353
v 8.964745 2.178592 2.094413
v 8.729968 2.143452 2.110663
v 9.049334 2.196611 2.105593
v 8.878765 2.194041 2.107783
v 8.964535 2.198711 2.096754
v 9.052693 2.224451 2.100673
v 9.094942 2.275810 2.116293
v 9.188401 2.274050 2.116073
v 9.248041 2.327030 2.123533
v 8.521811 2.005864 2.145263
v 8.640718 1.952875 2.185982
v 8.517310 2.019594 2.174812
v 8.579870 2.092253 2.137633
v 8.653559 2.129072 2.134353
v 9.031294 2.121672 2.164462
v 8.779777 2.176402 2.127233
v 9.208881 2.221531 2.156363
v 8.885736 2.223281 2.131113
v 9.332769 2.298310 2.149013
v 8.993084 2.267751 2.141373
v 9.120632 2.326590 2.150193
v 9.242871 2.363109 2.145503
v 9.327470 2.332600 2.139263
v 9.316939 2.362549 2.144613
v 8.558239 1.937615 2.188122
v 8.521860 1.956005 2.183722
v 8.544041 2.066583 2.172602
v 8.594029 2.104663 2.155902
v 8.812026 2.200351 2.149403
v 8.713978 2.157752 2.157732
v 8.909195 2.240451 2.155213
v 9.386019 2.220541 2.246232
v 9.442549 2.281590 2.229332
v 9.405799 2.329090 2.179583
v 9.214881 2.387059 2.174833
v 9.385280 2.369309 2.174773
v 9.335919 2.398509 2.171772
v 8.503461 1.964844 2.204172
v 9.006674 2.016443 2.268011
v 8.632999 2.123922 2.163142
v 8.858895 2.215621 2.181402
v 8.995924 2.277880 2.177632
v 9.077383 2.315370 2.178082
v 9.439959 2.340939 2.209772
v 9.151082 2.358619 2.182082
v 9.285781 2.409449 2.181833
v 9.385819 2.406898 2.201412
v 8.691878 1.882795 2.285011
v 8.497121 1.896055 2.250191
v 8.858696 1.916545 2.320930
v 8.583830 2.094673 2.186282
v 9.232891 2.110862 2.285171
v 8.772567 2.179862 2.175972
v 8.951575 2.253661 2.192262
v 9.465818 2.303990 2.243632
v 9.142332 2.354999 2.206132
v 9.209592 2.394009 2.207652
v 9.435699 2.365689 2.231692
v 9.276260 2.422198 2.207882
v 9.338140 2.420028 2.205132
v 8.577689 1.856996 2.280151
v 8.519691 1.867816 2.268071
v 8.513871 2.027083 2.219722
v 8.538520 2.053043 2.214252
v 8.682208 2.115392 2.214782
v 9.384780 2.146462 2.325600
v 8.801167 2.142272 2.250691
v 8.930125 2.206011 2.251482
v 9.067163 2.281400 2.249651
v 9.404308 2.405079 2.255391
v 8.495061 1.846126 2.296251
v 8.479591 1.890225 2.295311
v 8.495530 1.960194 2.267701
v 8.585029 2.034203 2.275311
v 9.505908 2.271130 2.298091
v 9.488057 2.233351 2.306931
v 9.480819 2.317000 2.273891
v 9.193282 2.356969 2.265271
v 9.266150 2.414848 2.244972
v 9.334870 2.424158 2.244822
v 8.479851 1.819836 2.342250
v 9.475449 2.346479 2.307041
v 9.398648 2.405608 2.308871
v 8.521029 1.991344 2.280221
v 9.131963 2.000414 2.363580
v 8.723357 2.028713 2.362790
v 9.465508 2.169542 2.355330
v 9.269341 2.378099 2.308841
v 9.336130 2.401949 2.301401
v 8.493860 1.795936 2.352130
v 8.522000 1.794207 2.351930
v 8.460961 1.828336 2.381480
v 8.471141 1.881575 2.352080
v 9.004964 1.943065 2.369910
v 9.383579 2.105582 2.383830
v 8.875385 2.114782 2.339780
v 9.464178 2.358109 2.348840
v 8.607199 1.780857 2.395219
v 8.762828 1.840046 2.379480
v 8.484820 1.907455 2.361540
v 8.558310 1.936635 2.391259
v 9.010914 2.166712 2.371210
v 9.530988 2.224451 2.368270
v 9.524528 2.275760 2.358180
v 9.515847 2.301400 2.396070
v 8.501221 1.748297 2.422869
v 8.885566 1.874425 2.407739
v 9.094893 1.961814 2.409339
v 9.269091 2.049713 2.391639
v 9.332150 2.320590 2.404349
v 9.416869 2.342939 2.400500
v 9.458128 2.343409 2.395340
v 8.474101 1.766217 2.410869
v 9.181412 1.999364 2.423889
v 9.520647 2.172732 2.401109
v 9.554936 2.226491 2.409770
v 9.545267 2.191521 2.425439
v 9.180092 2.250971 2.389460
v 8.458101 1.779217 2.431429
v 8.710438 1.799996 2.414029
v 8.762597 1.818156 2.422349
v 8.461931 1.829366 2.429319
v 8.997745 1.918185 2.432679
v 8.485280 1.854916 2.455839
v 9.351250 2.069583 2.429199
v 8.903065 2.052083 2.439059
v 9.475449 2.140312 2.403999
v 9.439388 2.112862 2.440569
v 9.498588 2.306290 2.432959
v 8.467240 1.744737 2.465618
v 8.683218 1.784307 2.436979
v 8.895176 1.869386 2.443509
v 9.512128 2.158832 2.435739
v 9.067003 2.131882 2.457869
v 9.542517 2.252930 2.418829
v 9.530448 2.259940 2.449859
v 8.534890 1.730667 2.458879
v 8.603569 1.753827 2.454179
v 8.789057 1.827226 2.449919
v 8.531140 1.848296 2.496988
v 9.100753 1.968164 2.449959
v 8.651018 1.915155 2.467738
v 9.206761 2.014754 2.466928
v 9.275650 2.040233 2.445919
v 9.536198 2.175431 2.454019
v 9.537937 2.214981 2.446639
v 9.303500 2.231111 2.484428
v 8.489081 1.728867 2.485088
v 8.575060 1.737727 2.473738
v 8.646889 1.770167 2.473178
v 8.896145 1.880135 2.468488
v 8.472311 1.807836 2.497738
v 9.006834 1.935145 2.469239
v 8.494160 1.835046 2.482928
v 8.780947 1.954054 2.472618
v 9.342309 2.070033 2.462708
v 9.278821 2.046043 2.468019
v 9.489258 2.148592 2.460878
v 9.417129 2.126422 2.486038
v 9.472158 2.305940 2.447949
v 8.548050 1.738607 2.490278
v 8.463490 1.770297 2.483658
v 8.749187 1.825306 2.485978
v 8.964965 1.932105 2.490258
v 9.105793 2.000494 2.492018
v 9.277350 2.064103 2.488478
v 8.991374 2.050563 2.491588
v 9.188441 2.175022 2.481358
v 9.500888 2.187731 2.480648
v 9.410048 2.264970 2.477829
v 9.494207 2.268040 2.468839
v 8.486820 1.734917 2.519568
v 8.475091 1.745367 2.510168
v 8.623698 1.773787 2.498798
v 8.815427 1.879115 2.501888
v 9.096334 2.092882 2.503808
v 9.513308 2.234691 2.471269
v 9.330339 2.209111 2.512578
v 8.559090 1.758837 2.514528
v 8.479591 1.743977 2.531458
v 8.478831 1.768447 2.519128
v 8.638829 1.801777 2.516818
v 8.689238 1.844646 2.522498
v 8.621379 1.867226 2.506338
v 8.804906 1.909495 2.507448
v 8.690719 1.882865 2.502878
v 8.949234 1.960414 2.505248
v 8.901376 1.986614 2.488728
v 9.008314 2.028234 2.502468
v 9.130413 2.061763 2.515908
v 9.223171 2.075433 2.514048
v 9.333330 2.124952 2.516088
v 9.423179 2.167912 2.508658
v 9.452369 2.214581 2.490698
v 8.533350 1.765087 2.527518
v 8.590969 1.797897 2.530988
v 8.510480 1.802106 2.518858
v 8.589109 1.828456 2.518508
v 9.261130 2.115772 2.527068
v 9.239521 2.150612 2.509558
v 9.349259 2.177681 2.504988
v 8.528050 1.780507 2.522388
vn 0.0663 -0.1938 -0.9788
vn -0.1194 -0.0455 -0.9918
vn -0.1416 0.3304 -0.9332
vn -0.2272 -0.1169 -0.9668
vn -0.3226 -0.5122 -0.7960
vn -0.6721 0.1636 -0.7221
vn 0.0922 -0.5992 -0.7953
vn 0.1618 -0.6085 -0.7769
vn -0.5631 0.4378 -0.7009
vn 0.2178 -0.4852 -0.8469
vn 0.2663 -0.7094 -0.6526
vn -0.3219 0.4914 -0.8093
vn -0.0016 0.0908 -0.9959
vn 0.0839 -0.1174 -0.9895
vn -0.2733 0.6303 -0.7267
vn 0.2548 -0.4196 -0.8712
vn -0.1868 0.5444 -0.8177
vn -0.0665 0.2543 -0.9648
vn 0.0715 0.0629 -0.9955
vn -0.1221 0.4564 -0.8814
vn 0.1837 -0.1533 -0.9710
vn 0.0496 0.2690 -0.9619
vn -0.8209 -0.1453 -0.5523
vn 0.1725 -0.7166 -0.6759
vn -0.9001 0.3438 -0.2678
vn -0.5539 0.6757 -0.4865
vn -0.3876 0.8372 -0.3859
vn 0.3179 -0.6673 -0.6735
vn -0.3346 0.8114 -0.4792
vn 0.3258 -0.5999 -0.7307
vn -0.3131 0.8132 -0.4906
vn 0.3809 -0.4266 -0.8203
vn -0.3177 0.8230 -0.4709
vn -0.3356 0.7555 -0.5627
vn -0.1073 0.6057 -0.7884
vn 0.3229 0.0330 -0.9459
vn 0.1767 0.4260 -0.8873
vn -0.0457 -0.7167 -0.6959
vn -0.5292 -0.5464 -0.6492
vn -0.7414 0.6601 -0.1209
vn -0.5175 0.8534 -0.0623
vn -0.3900 0.9154 -0.0995
vn -0.3986 0.9160 0.0455
vn -0.3796 0.9227 -0.0679
vn 0.3970 -0.6416 -0.6563
vn 0.5748 -0.4226 -0.7007
vn 0.5790 -0.0998 -0.8092
vn -0.3106 0.8220 -0.4773
vn 0.5066 0.3859 -0.7710
vn 0.1625 0.6706 -0.7238
vn -0.9361 -0.0771 -0.3432
vn 0.3218 -0.7385 -0.5926
vn -0.3900 0.9089 0.1474
vn -0.3886 0.8646 0.3186
vn -0.3967 0.9148 0.0762
vn -0.4766 0.8775 -0.0527
vn 0.7557 0.2546 -0.6034
vn -0.4652 0.8558 -0.2262
vn -0.0649 0.8042 -0.5908
vn 0.4790 0.7403 -0.4717
vn 0.2403 -0.7677 -0.5940
vn -0.6853 -0.4391 -0.5810
vn 0.3045 -0.7780 -0.5495
vn -0.4614 0.8309 0.3110
vn 0.3434 -0.7230 -0.5994
vn -0.3864 0.8593 0.3352
vn -0.4023 0.8599 0.3142
vn 0.7710 -0.0612 -0.6339
vn -0.5258 0.8286 0.1924
vn -0.4578 0.8881 0.0414
vn 0.7381 0.5592 -0.3774
vn -0.1885 0.9660 -0.1772
vn 0.1498 0.9401 -0.3063
vn 0.1111 -0.7675 -0.6314
vn -0.1695 -0.7061 -0.6875
vn -0.8332 0.5317 0.1516
vn -0.5704 0.7363 0.3641
vn -0.3407 0.8114 0.4750
vn 0.3721 -0.7246 -0.5801
vn -0.3574 0.7724 0.5251
vn -0.3964 0.7663 0.5056
vn -0.4526 0.7865 0.4201
vn 0.4998 0.8627 -0.0772
vn -0.4604 -0.6222 -0.6332
vn -0.9639 -0.0422 -0.2630
vn -0.9446 0.3257 0.0408
vn -0.3760 0.7563 0.5354
vn 0.8382 -0.1157 -0.5329
vn 0.5861 -0.5424 -0.6019
vn 0.8640 0.3271 -0.3827
vn -0.4911 0.7523 0.4392
vn -0.3198 0.8933 0.3159
vn 0.0381 0.9919 0.1213
vn -0.7905 -0.4192 -0.4465
vn 0.7844 0.6012 -0.1526
vn 0.1941 0.9225 0.3336
vn -0.6211 0.6490 0.4394
vn 0.3722 -0.8050 -0.4620
vn -0.3242 0.7483 0.5787
vn 0.4832 -0.6669 -0.5673
vn -0.3612 0.7529 0.5502
vn -0.1554 0.8525 0.4991
vn -0.3261 -0.7377 -0.5911
vn 0.0243 -0.8032 -0.5952
vn -0.9852 -0.0355 -0.1676
vn -0.9637 0.2666 0.0127
vn 0.3438 -0.8342 -0.4311
vn 0.3902 -0.8073 -0.4426
vn -0.3765 0.7475 0.5472
vn 0.5805 0.7993 0.1551
vn 0.2074 -0.8480 -0.4878
vn 0.3036 -0.8126 -0.4975
vn -0.7595 0.5773 0.2997
vn -0.3966 0.7489 0.5309
vn -0.4134 0.7336 0.5393
vn 0.8016 -0.3411 -0.4911
vn 0.9185 0.3078 -0.2481
vn 0.7954 0.5999 0.0859
vn -0.1663 -0.8781 -0.4487
vn 0.3696 -0.8743 -0.3145
vn 0.3928 -0.9009 -0.1849
vn 0.3755 -0.8501 -0.3692
vn -0.2423 0.7182 0.6523
vn -0.0672 0.7822 0.6193
vn 0.2641 0.8458 0.4636
vn -0.6246 -0.6543 -0.4264
vn 0.4043 -0.9098 -0.0940
vn 0.6434 -0.6566 -0.3934
vn 0.9980 0.0346 -0.0525
vn 0.8985 -0.4327 -0.0741
vn -0.4117 0.7012 0.5821
vn -0.9607 -0.2342 -0.1489
vn 0.2999 -0.8735 -0.3834
vn 0.3719 -0.8949 -0.2467
vn -0.9478 0.2743 0.1627
vn 0.4134 -0.9101 0.0281
vn -0.5916 0.6531 0.4727
vn 0.4036 -0.9052 -0.1330
vn -0.3715 0.6645 0.6484
vn 0.4814 -0.8134 -0.3266
vn 0.4737 -0.8778 0.0709
vn 0.5165 0.7197 0.4639
vn -0.7571 -0.6425 -0.1182
vn 0.3285 -0.9293 -0.1689
vn 0.4031 -0.9129 0.0638
vn 0.6049 -0.7958 -0.0265
vn -0.3770 0.6612 0.6486
vn 0.9171 0.3647 0.1609
vn 0.7443 0.4112 0.5262
vn 0.1257 -0.9726 -0.1953
vn 0.3215 -0.9182 -0.2313
vn 0.3879 -0.9154 0.1073
vn -0.3211 0.6315 0.7058
vn 0.3764 -0.8817 0.2845
vn -0.2310 0.7026 0.6730
vn 0.3395 -0.8541 0.3939
vn 0.3804 -0.9238 0.0431
vn 0.7642 -0.4789 0.4320
vn 0.8561 0.0360 0.5156
vn -0.2763 0.6223 0.7324
vn -0.2757 -0.9612 0.0088
vn 0.2975 -0.9517 0.0764
vn 0.3848 -0.8910 0.2411
vn 0.3712 -0.7923 0.4842
vn -0.6726 0.4587 0.5807
vn 0.3791 -0.7962 0.4716
vn -0.4541 0.6515 0.6078
vn -0.2463 0.6091 0.7539
vn 0.3915 -0.8447 0.3650
vn 0.3533 -0.8334 0.4249
vn 0.4870 -0.7308 0.4783
vn 0.3769 -0.6292 0.6797
vn 0.1444 0.7139 0.6852
vn 0.2314 -0.9023 0.3637
vn -0.9697 -0.0421 0.2408
vn 0.3611 -0.7407 0.5665
vn 0.2777 -0.5830 0.7636
vn 0.2431 -0.6065 0.7570
vn 0.2851 -0.6580 0.6970
vn -0.3258 0.4858 0.8111
vn -0.3137 0.5946 0.7403
vn 0.4836 -0.1861 0.8553
vn -0.0006 0.5151 0.8571
vn 0.3123 0.4452 0.8392
vn -0.0826 -0.8309 0.5502
vn -0.8310 -0.4656 0.3046
vn 0.3403 -0.7508 0.5661
vn 0.2363 -0.4143 0.8789
vn -0.2422 0.4089 0.8798
vn 0.5117 0.1491 0.8461
vn -0.0141 0.2935 0.9559
vn 0.2803 -0.6783 0.6793
vn -0.4046 -0.1833 0.8959
vn -0.6536 0.1658 0.7385
vn 0.2823 -0.5081 0.8137
vn 0.0669 0.0689 0.9954
vn -0.1399 0.5414 0.8291
vn -0.0659 0.2759 0.9589
vn -0.1204 0.5001 0.8575
vn 0.0232 -0.0868 0.9960
vn -0.2471 0.4188 0.8738
vn -0.1960 0.2301 0.9532
vn -0.0525 -0.0347 0.9980
vn 0.1518 -0.4533 0.8783
vn 0.2004 -0.3042 0.9313
vn 0.2191 -0.0634 0.9736
vn 0.1671 0.2322 0.9582
vn 0.1300 -0.3334 0.9338
vn 0.0160 -0.0154 0.9998
vn -0.2429 0.3331 0.9111
vn -0.1135 0.3564 0.9274
vn 0.0262 0.0178 0.9995
vn -0.1685 0.3251 0.9306
vn 0.0875 0.1661 0.9822
vn -0.1279 0.1902 0.9734
usemtl mtl1.1488
s 1
f 1//1 2//2 3//3
f 4//4 5//5 6//6
f 5//5 4//4 7//7
f 2//2 7//7 4//4
f 2//2 8//8 7//7
f 9//9 4//4 6//6
f 1//1 8//8 2//2
f 2//2 4//4 9//9
f 8//8 10//10 11//11
f 9//9 12//12 2//2
f 12//12 3//3 2//2
f 10//10 8//8 1//1
f 13//13 10//10 1//1
f 14//14 10//10 13//13
f 12//12 15//15 3//3
f 3//3 13//13 1//1
f 16//16 10//10 14//14
f 17//17 3//3 15//15
f 13//13 3//3 17//17
f 14//14 13//13 18//18
f 19//19 14//14 18//18
f 18//18 13//13 17//17
f 16//16 14//14 19//19
f 20//20 19//19 18//18
f 21//21 16//16 19//19
f 20//20 18//18 17//17
f 21//21 19//19 20//20
f 22//22 21//21 20//20
f 5//5 23//23 6//6
f 7//7 8//8 24//24
f 24//24 8//8 11//11
f 25//25 6//6 23//23
f 6//6 25//25 9//9
f 26//26 12//12 9//9
f 12//12 26//26 27//27
f 27//27 15//15 12//12
f 28//28 10//10 16//16
f 29//29 15//15 27//27
f 16//16 30//30 28//28
f 29//29 17//17 15//15
f 31//31 17//17 29//29
f 16//16 21//21 30//30
f 21//21 32//32 30//30
f 33//33 17//17 31//31
f 17//17 33//33 20//20
f 34//34 20//20 33//33
f 20//20 35//35 22//22
f 32//32 21//21 36//36
f 36//36 21//21 22//22
f 35//35 20//20 34//34
f 37//37 36//36 22//22
f 37//37 22//22 35//35
f 5//5 38//38 39//39
f 5//5 39//39 23//23
f 7//7 38//38 5//5
f 11//11 10//10 28//28
f 26//26 9//9 40//40
f 26//26 40//40 41//41
f 26//26 41//41 27//27
f 42//42 29//29 43//43
f 31//31 29//29 42//42
f 44//44 31//31 42//42
f 45//45 30//30 32//32
f 44//44 33//33 31//31
f 45//45 32//32 46//46
f 46//46 32//32 47//47
f 32//32 36//36 47//47
f 48//48 35//35 34//34
f 47//47 36//36 49//49
f 35//35 50//50 37//37
f 37//37 49//49 36//36
f 7//7 24//24 38//38
f 23//23 39//39 51//51
f 51//51 25//25 23//23
f 52//52 11//11 28//28
f 40//40 9//9 25//25
f 27//27 41//41 53//53
f 29//29 27//27 43//43
f 27//27 53//53 43//43
f 42//42 54//54 44//44
f 33//33 44//44 55//55
f 33//33 55//55 56//56
f 34//34 33//33 56//56
f 49//49 57//57 47//47
f 48//48 34//34 58//58
f 35//35 59//59 50//50
f 37//37 50//50 49//49
f 49//49 50//50 60//60
f 59//59 35//35 48//48
f 24//24 11//11 61//61
f 39//39 62//62 51//51
f 52//52 63//63 11//11
f 64//64 41//41 40//40
f 41//41 64//64 53//53
f 30//30 65//65 28//28
f 42//42 43//43 66//66
f 42//42 66//66 54//54
f 30//30 45//45 65//65
f 44//44 54//54 67//67
f 55//55 44//44 67//67
f 47//47 57//57 68//68
f 56//56 58//58 34//34
f 58//58 69//69 70//70
f 58//58 70//70 48//48
f 49//49 60//60 71//71
f 48//48 70//70 72//72
f 72//72 59//59 48//48
f 50//50 59//59 73//73
f 60//60 50//50 73//73
f 38//38 24//24 74//74
f 74//74 24//24 61//61
f 75//75 62//62 39//39
f 38//38 75//75 39//39
f 76//76 40//40 25//25
f 77//77 64//64 40//40
f 53//53 64//64 78//78
f 53//53 78//78 43//43
f 43//43 78//78 66//66
f 65//65 45//45 79//79
f 54//54 66//66 80//80
f 54//54 81//81 67//67
f 67//67 82//82 55//55
f 46//46 47//47 68//68
f 55//55 82//82 56//56
f 56//56 69//69 58//58
f 57//57 49//49 71//71
f 83//83 71//71 60//60
f 59//59 72//72 73//73
f 73//73 83//83 60//60
f 75//75 38//38 74//74
f 75//75 84//84 62//62
f 51//51 62//62 85//85
f 63//63 61//61 11//11
f 86//86 51//51 85//85
f 86//86 25//25 51//51
f 52//52 28//28 65//65
f 64//64 77//77 87//87
f 78//78 64//64 87//87
f 54//54 80//80 81//81
f 46//46 88//88 89//89
f 46//46 68//68 88//88
f 68//68 90//90 88//88
f 57//57 90//90 68//68
f 90//90 57//57 71//71
f 70//70 91//91 92//92
f 72//72 70//70 92//92
f 72//72 92//92 93//93
f 73//73 72//72 93//93
f 83//83 73//73 93//93
f 62//62 84//84 94//94
f 85//85 62//62 94//94
f 25//25 86//86 76//76
f 40//40 76//76 77//77
f 78//78 80//80 66//66
f 67//67 81//81 82//82
f 56//56 82//82 69//69
f 69//69 91//91 70//70
f 71//71 83//83 95//95
f 83//83 93//93 96//96
f 97//97 77//77 76//76
f 65//65 98//98 52//52
f 77//77 97//97 87//87
f 78//78 99//99 80//80
f 79//79 45//45 100//100
f 45//45 46//46 89//89
f 45//45 89//89 100//100
f 69//69 82//82 91//91
f 90//90 71//71 95//95
f 91//91 101//101 92//92
f 92//92 102//102 93//93
f 93//93 102//102 96//96
f 84//84 75//75 103//103
f 74//74 104//104 75//75
f 75//75 104//104 103//103
f 85//85 94//94 105//105
f 105//105 106//106 85//85
f 85//85 106//106 86//86
f 107//107 63//63 52//52
f 52//52 98//98 107//107
f 97//97 76//76 86//86
f 78//78 87//87 99//99
f 65//65 79//79 108//108
f 80//80 109//109 81//81
f 83//83 110//110 95//95
f 92//92 101//101 102//102
f 83//83 96//96 110//110
f 103//103 94//94 84//84
f 111//111 104//104 74//74
f 74//74 61//61 111//111
f 61//61 63//63 112//112
f 86//86 113//113 97//97
f 114//114 87//87 97//97
f 109//109 115//115 81//81
f 89//89 88//88 116//116
f 115//115 82//82 81//81
f 88//88 90//90 117//117
f 90//90 95//95 117//117
f 118//118 95//95 110//110
f 103//103 104//104 119//119
f 112//112 111//111 61//61
f 63//63 107//107 120//120
f 63//63 120//120 112//112
f 98//98 121//121 107//107
f 97//97 113//113 114//114
f 122//122 98//98 65//65
f 65//65 108//108 122//122
f 80//80 99//99 109//109
f 79//79 100//100 108//108
f 89//89 116//116 100//100
f 88//88 117//117 116//116
f 101//101 123//123 102//102
f 124//124 125//125 96//96
f 125//125 110//110 96//96
f 124//124 102//102 123//123
f 96//96 102//102 124//124
f 119//119 104//104 111//111
f 94//94 103//103 126//126
f 126//126 103//103 119//119
f 86//86 106//106 113//113
f 121//121 98//98 127//127
f 98//98 122//122 127//127
f 87//87 114//114 99//99
f 100//100 116//116 128//128
f 129//129 130//130 116//116
f 82//82 115//115 131//131
f 116//116 117//117 129//129
f 82//82 131//131 91//91
f 117//117 95//95 118//118
f 131//131 101//101 91//91
f 94//94 126//126 132//132
f 105//105 94//94 132//132
f 111//111 112//112 133//133
f 134//134 112//112 120//120
f 105//105 135//135 106//106
f 120//120 107//107 136//136
f 107//107 121//121 136//136
f 113//113 137//137 114//114
f 122//122 108//108 138//138
f 109//109 99//99 139//139
f 108//108 140//140 141//141
f 108//108 100//100 140//140
f 100//100 128//128 140//140
f 109//109 139//139 115//115
f 128//128 116//116 130//130
f 131//131 123//123 101//101
f 110//110 142//142 118//118
f 125//125 142//142 110//110
f 132//132 126//126 143//143
f 111//111 133//133 144//144
f 133//133 112//112 134//134
f 132//132 135//135 105//105
f 113//113 106//106 135//135
f 120//120 136//136 145//145
f 108//108 141//141 138//138
f 128//128 146//146 140//140
f 128//128 130//130 146//146
f 115//115 147//147 131//131
f 117//117 148//148 129//129
f 117//117 118//118 148//148
f 149//149 148//148 118//118
f 119//119 111//111 150//150
f 151//151 150//150 111//111
f 119//119 143//143 126//126
f 144//144 151//151 111//111
f 133//133 134//134 144//144
f 120//120 152//152 134//134
f 120//120 145//145 152//152
f 137//137 113//113 135//135
f 137//137 153//153 114//114
f 121//121 154//154 136//136
f 153//153 155//155 114//114
f 127//127 154//154 121//121
f 156//156 154//154 127//127
f 127//127 157//157 156//156
f 122//122 157//157 127//127
f 122//122 138//138 157//157
f 140//140 146//146 141//141
f 146//146 130//130 158//158
f 130//130 129//129 159//159
f 159//159 129//129 148//148
f 123//123 131//131 160//160
f 149//149 118//118 142//142
f 119//119 161//161 143//143
f 150//150 161//161 119//119
f 151//151 162//162 150//150
f 151//151 163//163 162//162
f 144//144 163//163 151//151
f 144//144 152//152 163//163
f 134//134 152//152 144//144
f 145//145 164//164 152//152
f 135//135 165//165 137//137
f 136//136 164//164 145//145
f 136//136 166//166 164//164
f 137//137 167//167 153//153
f 136//136 154//154 166//166
f 114//114 155//155 99//99
f 155//155 168//168 99//99
f 157//157 169//169 170//170
f 138//138 169//169 157//157
f 168//168 139//139 99//99
f 138//138 141//141 169//169
f 141//141 171//171 172//172
f 146//146 171//171 141//141
f 115//115 139//139 147//147
f 171//171 146//146 158//158
f 159//159 158//158 130//130
f 125//125 173//173 142//142
f 125//125 124//124 173//173
f 150//150 174//174 161//161
f 174//174 150//150 162//162
f 143//143 175//175 132//132
f 162//162 163//163 174//174
f 132//132 175//175 135//135
f 152//152 176//176 163//163
f 152//152 164//164 176//176
f 137//137 165//165 167//167
f 164//164 166//166 177//177
f 154//154 178//178 166//166
f 156//156 178//178 154//154
f 157//157 170//170 156//156
f 169//169 179//179 170//170
f 141//141 172//172 169//169
f 139//139 180//180 147//147
f 131//131 147//147 181//181
f 159//159 182//182 158//158
f 148//148 149//149 159//159
f 123//123 160//160 183//183
f 173//173 184//184 142//142
f 184//184 149//149 142//142
f 124//124 123//123 183//183
f 173//173 124//124 183//183
f 161//161 185//185 186//186
f 161//161 174//174 185//185
f 175//175 143//143 186//186
f 186//186 143//143 161//161
f 163//163 187//187 174//174
f 187//187 163//163 176//176
f 175//175 165//165 135//135
f 176//176 164//164 188//188
f 188//188 164//164 177//177
f 166//166 178//178 177//177
f 156//156 170//170 179//179
f 178//178 156//156 179//179
f 169//169 172//172 179//179
f 171//171 182//182 172//172
f 182//182 171//171 158//158
f 147//147 189//189 181//181
f 159//159 190//190 182//182
f 159//159 149//149 190//190
f 160//160 131//131 181//181
f 190//190 149//149 184//184
f 160//160 191//191 183//183
f 192//192 185//185 174//174
f 185//185 193//193 186//186
f 192//192 174//174 187//187
f 186//186 194//194 175//175
f 192//192 187//187 195//195
f 175//175 194//194 165//165
f 187//187 176//176 195//195
f 188//188 196//196 195//195
f 176//176 188//188 195//195
f 153//153 197//197 155//155
f 198//198 196//196 188//188
f 197//197 199//199 155//155
f 200//200 198//198 188//188
f 168//168 155//155 199//199
f 200//200 201//201 198//198
f 198//198 168//168 199//199
f 201//201 168//168 198//198
f 177//177 200//200 188//188
f 200//200 177//177 178//178
f 202//202 201//201 200//200
f 178//178 203//203 200//200
f 201//201 139//139 168//168
f 180//180 139//139 201//201
f 202//202 180//180 201//201
f 178//178 179//179 204//204
f 204//204 203//203 178//178
f 189//189 180//180 202//202
f 179//179 172//172 205//205
f 204//204 179//179 205//205
f 180//180 189//189 147//147
f 205//205 172//172 206//206
f 172//172 182//182 206//206
f 207//207 206//206 182//182
f 190//190 207//207 182//182
f 190//190 184//184 207//207
f 207//207 184//184 183//183
f 184//184 173//173 183//183
f 208//208 185//185 192//192
f 208//208 193//193 185//185
f 186//186 193//193 194//194
f 192//192 195//195 208//208
f 208//208 195//195 209//209
f 210//210 165//165 194//194
f 165//165 210//210 153//153
f 195//195 196//196 209//209
f 196//196 211//211 209//209
f 165//165 153//153 167//167
f 211//211 153//153 210//210
f 197//197 153//153 211//211
f 199//199 211//211 196//196
f 198//198 199//199 196//196
f 211//211 199//199 197//197
f 203//203 202//202 200//200
f 202//202 203//203 189//189
f 204//204 212//212 203//203
f 213//213 189//189 203//203
f 204//204 205//205 212//212
f 212//212 213//213 203//203
f 214//214 212//212 205//205
f 206//206 214//214 205//205
f 181//181 189//189 213//213
f 181//181 213//213 160//160
f 213//213 214//214 191//191
f 206//206 207//207 214//214
f 191//191 160//160 213//213
f 207//207 183//183 214//214
f 183//183 191//191 214//214
f 208//208 215//215 193//193
f 215//215 194//194 193//193
f 208//208 209//209 215//215
f 215//215 210//210 194//194
f 211//211 210//210 215//215
f 209//209 211//211 215//215
f 214//214 213//213 212//212
