# Blender v2.92.0 OBJ File: 'convert_to_one_sided.blend'
# www.blender.org
mtllib 757L.mtl
o Cube
v 0.001000 0.001000 -0.001000
v 0.001000 -0.001000 -0.001000
v 0.001000 0.001000 0.001000
v 0.001000 -0.001000 0.001000
v -0.001000 0.001000 -0.001000
v -0.001000 -0.001000 -0.001000
v -0.001000 0.001000 0.001000
v -0.001000 -0.001000 0.001000
vt 0.625000 0.500000
vt 0.875000 0.500000
vt 0.875000 0.750000
vt 0.625000 0.750000
vt 0.375000 0.750000
vt 0.625000 1.000000
vt 0.375000 1.000000
vt 0.375000 0.000000
vt 0.625000 0.000000
vt 0.625000 0.250000
vt 0.375000 0.250000
vt 0.125000 0.500000
vt 0.375000 0.500000
vt 0.125000 0.750000
vn 0.0000 1.0000 0.0000
vn 0.0000 0.0000 1.0000
vn -1.0000 0.0000 0.0000
vn 0.0000 -1.0000 0.0000
vn 1.0000 0.0000 0.0000
vn 0.0000 0.0000 -1.0000
usemtl Material
s off
f 1/1/1 5/2/1 7/3/1 3/4/1
f 4/5/2 3/4/2 7/6/2 8/7/2
f 8/8/3 7/9/3 5/10/3 6/11/3
f 6/12/4 2/13/4 4/5/4 8/14/4
f 2/13/5 1/1/5 3/4/5 4/5/5
f 6/11/6 5/10/6 1/1/6 2/13/6
o 757
v 9.912943 4.430722 5.271343
v 9.840293 4.455971 5.281913
v 9.933152 4.468492 5.280713
v 9.880653 4.511831 5.294173
v 9.915692 4.400472 5.295933
v 9.808524 4.411532 5.316223
v 10.002071 4.432542 5.301272
v 9.769964 4.486761 5.316542
v 9.825793 4.520281 5.308593
v 9.982692 4.496301 5.312133
v 9.902403 4.355703 5.348132
v 10.025771 4.373093 5.331402
v 10.097970 4.402022 5.347282
v 10.077770 4.459562 5.346882
v 9.788044 4.548990 5.344832
v 9.893843 4.541411 5.334202
v 10.002571 4.516971 5.356772
v 10.093470 4.352993 5.370202
v 10.004871 4.342703 5.368661
v 9.784815 4.396722 5.370352
v 9.757154 4.449642 5.351282
v 10.121870 4.422972 5.392951
v 9.745634 4.502251 5.369862
v 9.826653 4.578810 5.381112
v 9.952182 4.336963 5.389231
v 10.117370 4.376782 5.396601
v 10.069870 4.476272 5.383542
v 9.771794 4.552270 5.391722
v 9.922332 4.553710 5.377912
v 9.851433 4.369613 5.398721
v 10.048071 4.348703 5.404011
v 9.772944 4.416452 5.416441
v 9.748714 4.459531 5.392711
v 9.753035 4.512041 5.409681
v 9.992151 4.520801 5.404691
v 9.878063 4.558820 5.418632
v 9.811543 4.565510 5.408351
v 10.117869 4.392612 5.428241
v 10.052371 4.451652 5.424971
v 9.948932 4.509971 5.437301
v 9.940172 4.363923 5.428671
v 10.046471 4.371953 5.436161
v 10.083870 4.376273 5.416541
v 9.828633 4.427272 5.446270
v 9.776284 4.483111 5.431391
v 9.806355 4.535281 5.428161
v 9.867323 4.508641 5.454751
v 9.954382 4.412982 5.455811
v 10.026271 4.413422 5.442221
v 9.946992 4.463142 5.450521
v 9.822324 4.486752 5.449690
v 9.883533 4.460341 5.450751
vn 0.0619 -0.2450 -0.9675
vn -0.2584 -0.0327 -0.9655
vn 0.1729 0.2719 -0.9467
vn 0.0357 0.5550 -0.8311
vn -0.0421 -0.6053 -0.7949
vn -0.4790 -0.5616 -0.6746
vn 0.3679 -0.0765 -0.9267
vn -0.6639 0.1027 -0.7407
vn -0.2042 0.5611 -0.8021
vn 0.3543 0.5764 -0.7364
vn -0.1877 -0.8899 -0.4157
vn 0.1830 -0.6069 -0.7734
vn 0.6844 -0.1454 -0.7144
vn 0.6320 0.5188 -0.5757
vn -0.4468 0.7110 -0.5430
vn 0.1358 0.8266 -0.5461
vn 0.4409 0.8530 -0.2792
vn 0.4429 -0.8205 -0.3615
vn 0.0702 -0.9476 -0.3116
vn -0.6529 -0.7469 -0.1258
vn -0.8738 -0.3275 -0.3594
vn 0.9234 0.3809 0.0476
vn -0.9541 0.2301 -0.1919
vn -0.0706 0.9950 -0.0705
vn -0.0989 -0.9841 0.1473
vn 0.7886 -0.6034 0.1184
vn 0.6229 0.7637 0.1696
vn -0.6570 0.7219 0.2172
vn 0.3129 0.9473 -0.0684
vn -0.3340 -0.8739 0.3532
vn 0.2172 -0.8962 0.3868
vn -0.6397 -0.5293 0.5573
vn -0.9448 -0.2417 0.2212
vn -0.8026 0.2654 0.5343
vn 0.4404 0.8059 0.3957
vn 0.1386 0.7892 0.5983
vn -0.2475 0.7839 0.5695
vn 0.5740 -0.2122 0.7909
vn 0.4174 0.4700 0.7777
vn 0.2749 0.4839 0.8308
vn -0.1048 -0.7031 0.7033
vn 0.1819 -0.5450 0.8185
vn 0.3614 -0.7793 0.5120
vn -0.2417 -0.3298 0.9126
vn -0.5601 0.0044 0.8284
vn -0.3277 0.4613 0.8245
vn -0.0047 0.2798 0.9601
vn 0.0232 -0.1438 0.9893
vn 0.2027 0.0893 0.9752
vn 0.1534 0.1585 0.9754
vn -0.2289 0.0688 0.9710
vn -0.0367 -0.0268 0.9990
usemtl mtl1.681
s 1
f 9//7 10//8 11//9
f 11//9 10//8 12//10
f 13//11 14//12 10//8
f 9//7 13//11 10//8
f 15//13 13//11 9//7
f 14//12 16//14 10//8
f 15//13 9//7 11//9
f 10//8 16//14 17//15
f 11//9 18//16 15//13
f 10//8 17//15 12//10
f 12//10 18//16 11//9
f 19//17 13//11 20//18
f 13//11 19//17 14//12
f 20//18 13//11 15//13
f 21//19 20//18 15//13
f 21//19 15//13 22//20
f 18//16 22//20 15//13
f 16//14 23//21 17//15
f 17//15 24//22 12//10
f 12//10 24//22 18//16
f 25//23 18//16 24//22
f 20//18 26//24 27//25
f 19//17 28//26 14//12
f 20//18 21//19 26//24
f 14//12 28//26 29//27
f 16//14 14//12 29//27
f 30//28 21//19 22//20
f 29//27 31//29 16//14
f 22//20 18//16 25//23
f 23//21 16//14 31//29
f 23//21 24//22 17//15
f 32//30 24//22 23//21
f 19//17 27//25 33//31
f 20//18 27//25 19//17
f 21//19 34//32 26//24
f 30//28 34//32 21//19
f 35//33 30//28 22//20
f 36//34 23//21 31//29
f 37//35 25//23 24//22
f 23//21 36//34 32//30
f 24//22 32//30 37//35
f 28//26 19//17 38//36
f 38//36 19//17 33//31
f 27//25 26//24 39//37
f 26//24 34//32 39//37
f 28//26 40//38 41//39
f 29//27 28//26 41//39
f 42//40 31//29 41//39
f 31//29 29//27 41//39
f 35//33 22//20 25//23
f 31//29 42//40 36//34
f 25//23 37//35 43//41
f 28//26 38//36 40//38
f 25//23 43//41 35//33
f 44//42 43//41 37//35
f 45//43 32//30 36//34
f 37//35 32//30 44//42
f 27//25 39//37 33//31
f 34//32 30//28 46//44
f 43//41 47//45 35//33
f 43//41 44//42 48//46
f 32//30 45//43 44//42
f 33//31 39//37 49//47
f 38//36 33//31 49//47
f 39//37 50//48 49//47
f 39//37 51//49 50//48
f 34//32 51//49 39//37
f 49//47 52//50 38//36
f 52//50 40//38 38//36
f 51//49 34//32 46//44
f 40//38 52//50 53//51
f 40//38 53//51 41//39
f 46//44 30//28 47//45
f 41//39 53//51 42//40
f 30//28 35//33 47//45
f 48//46 47//45 43//41
f 36//34 42//40 54//52
f 55//53 48//46 44//42
f 56//54 49//47 50//48
f 52//50 49//47 56//54
f 50//48 46//44 57//55
f 50//48 51//49 46//44
f 57//55 46//44 47//45
f 42//40 53//51 54//52
f 54//52 55//53 44//42
f 45//43 36//34 54//52
f 44//42 45//43 54//52
f 50//48 57//55 56//54
f 57//55 58//56 56//54
f 47//45 58//56 57//55
f 59//57 53//51 52//50
f 47//45 48//46 58//56
f 55//53 58//56 48//46
f 53//51 59//57 54//52
f 55//53 54//52 59//57
f 52//50 56//54 60//58
f 56//54 58//56 60//58
f 52//50 60//58 59//57
f 58//56 55//53 60//58
f 55//53 59//57 60//58
