# Blender v2.92.0 OBJ File: 'convert_to_one_sided.blend'
# www.blender.org
mtllib 759L.mtl
o 759
v 8.705348 2.755374 1.121706
v 8.746277 2.797454 1.114086
v 8.742897 2.767744 1.120346
v 8.766907 2.797024 1.119806
v 8.763347 2.807804 1.123596
v 8.766637 2.811494 1.114636
v 8.692358 2.686245 1.149906
v 8.661669 2.694395 1.146896
v 8.738407 2.690225 1.168995
v 8.671238 2.726075 1.141556
v 8.707118 2.766884 1.136256
v 8.760347 2.766794 1.145126
v 8.757947 2.799194 1.120576
v 8.631358 2.609166 1.190265
v 8.640658 2.675335 1.168355
v 8.645059 2.690985 1.174655
v 8.758897 2.784914 1.140016
v 8.682299 2.577777 1.213295
v 8.713448 2.584256 1.223335
v 8.743828 2.661675 1.207485
v 8.594749 2.489288 1.246884
v 8.586899 2.590806 1.219565
v 8.743958 2.697465 1.203195
v 8.665548 2.707865 1.191905
v 8.731487 2.755404 1.166145
v 8.746508 2.740175 1.178285
v 8.565430 2.524617 1.237504
v 8.692058 2.517027 1.261814
v 8.714308 2.574967 1.242535
v 8.597889 2.617496 1.231105
v 8.519720 2.441778 1.275614
v 8.634369 2.455078 1.285034
v 8.531520 2.358889 1.324483
v 8.527240 2.495697 1.263764
v 8.536690 2.523877 1.266654
v 8.706098 2.554617 1.280804
v 8.620519 2.632596 1.244614
v 8.726697 2.684095 1.222375
v 8.675938 2.663496 1.232825
v 8.558550 2.545137 1.285304
v 8.439002 2.343640 1.327093
v 8.460280 2.412209 1.317913
v 8.658039 2.450788 1.316813
v 8.703848 2.600086 1.275564
v 8.673348 2.609146 1.275104
v 8.400242 2.341599 1.343133
v 8.481371 2.447098 1.328953
v 8.357963 2.288630 1.364673
v 8.587319 2.336330 1.368883
v 8.357583 2.317870 1.366133
v 8.380793 2.347670 1.376823
v 8.613379 2.574157 1.287694
v 8.605470 2.466068 1.359153
v 8.265134 2.221381 1.392772
v 8.267844 2.251771 1.393322
v 8.363043 2.204531 1.415792
v 8.499701 2.209541 1.440832
v 8.600369 2.322490 1.403602
v 8.433182 2.393809 1.370033
v 8.647408 2.427198 1.360593
v 8.498530 2.440068 1.353763
v 8.665178 2.494238 1.327773
v 8.154665 2.204671 1.415642
v 8.559310 2.263140 1.428962
v 8.276183 2.275100 1.407002
v 8.171044 2.148142 1.447492
v 8.076616 2.182552 1.439202
v 8.091326 2.211082 1.434972
v 8.178124 2.228901 1.424872
v 8.108855 2.220831 1.439122
v 8.079267 2.211491 1.440232
v 8.297833 2.287690 1.422052
v 8.627099 2.416378 1.379023
v 8.270904 2.072313 1.507411
v 8.078006 2.131412 1.484161
v 8.069236 2.183332 1.454682
v 8.391792 2.082183 1.519001
v 8.181015 2.236331 1.439412
v 8.389492 2.344300 1.401922
v 8.464271 2.332650 1.435182
v 8.586620 2.361229 1.422872
v 8.169285 2.032284 1.551650
v 8.060526 2.153412 1.476891
v 8.469872 2.100313 1.528821
v 8.330833 2.232611 1.481341
v 8.587999 2.321870 1.428212
v 8.539650 2.299080 1.464061
v 8.566870 2.302150 1.452302
v 8.112386 2.053073 1.550440
v 8.528171 2.202201 1.484321
v 8.098936 2.168842 1.477911
v 8.470401 2.065753 1.581280
v 8.099175 2.091323 1.527781
v 8.543400 2.250031 1.479301
v 8.190914 2.149452 1.523211
v 8.492850 2.108133 1.557090
v 8.501461 2.169212 1.531381
v 8.131425 2.120063 1.536251
v 8.447792 2.174782 1.538571
v 8.143735 1.997014 1.598480
v 8.186335 1.960734 1.630299
v 8.279984 1.991554 1.600100
v 8.404812 2.020094 1.603180
v 8.469172 2.067713 1.594250
v 8.123316 2.092163 1.548450
v 8.510121 2.221931 1.501721
v 8.134686 2.009414 1.595020
v 8.176775 2.061133 1.588560
v 8.160025 1.972344 1.629379
v 8.435122 2.021114 1.619250
v 8.143935 2.025264 1.595700
v 8.467252 2.093843 1.580410
v 8.307023 2.088553 1.586120
v 8.442161 2.031594 1.608920
v 8.244514 1.950635 1.647469
v 8.321794 1.974884 1.639009
v 8.376492 1.994894 1.627569
v 8.159855 1.973424 1.628689
v 8.219275 1.992754 1.631029
v 8.415262 2.072043 1.595360
v 8.206375 1.956835 1.638079
v 8.290903 1.960405 1.642219
v 8.323963 2.004794 1.624179
v 8.259804 1.972864 1.633009
vn -0.4044 0.1067 -0.9083
vn -0.3558 0.6236 -0.6960
vn 0.2037 -0.1960 -0.9592
vn 0.7418 -0.0635 -0.6676
vn 0.0506 0.6081 -0.7922
vn 0.6353 0.7717 0.0294
vn 0.1103 -0.4367 -0.8928
vn -0.4450 -0.1584 -0.8814
vn 0.6946 -0.4442 -0.5659
vn -0.7738 0.3602 -0.5211
vn -0.6532 0.7570 0.0143
vn 0.9895 0.0023 0.1443
vn -0.2803 0.9282 0.2448
vn -0.2763 -0.3205 -0.9060
vn -0.7689 0.0828 -0.6340
vn -0.8467 0.5235 -0.0950
vn 0.4346 0.5923 0.6784
vn 0.2803 -0.5215 -0.8059
vn 0.6699 -0.4886 -0.5590
vn 0.9767 -0.2127 0.0300
vn 0.0431 -0.4764 -0.8782
vn -0.7864 0.2015 -0.5840
vn 0.7603 0.2330 0.6064
vn -0.5095 0.7146 0.4793
vn -0.1493 0.7127 0.6853
vn 0.3297 0.5353 0.7776
vn -0.3988 -0.1815 -0.8989
vn 0.6566 -0.5774 -0.4853
vn 0.9079 -0.3939 -0.1432
vn -0.7938 0.5944 0.1290
vn -0.3175 -0.2658 -0.9102
vn 0.3983 -0.6187 -0.6772
vn 0.1587 -0.5773 -0.8010
vn -0.6858 0.0817 -0.7232
vn -0.8516 0.4934 -0.1772
vn 0.9026 -0.1071 0.4169
vn -0.4356 0.6539 0.6187
vn 0.1922 0.5357 0.8223
vn -0.1608 0.6275 0.7618
vn -0.6067 0.6536 0.4525
vn -0.2295 -0.2756 -0.9335
vn -0.7064 0.2959 -0.6430
vn 0.8331 -0.5219 -0.1833
vn 0.4589 0.3225 0.8279
vn -0.0166 0.5473 0.8368
vn -0.4528 0.0413 -0.8907
vn -0.7034 0.6947 0.1501
vn -0.2654 -0.1601 -0.9507
vn 0.5246 -0.6318 -0.5706
vn -0.5875 0.3806 -0.7142
vn -0.6517 0.7572 -0.0436
vn -0.2448 0.5952 0.7654
vn 0.0689 0.5038 0.8611
vn -0.1023 -0.3232 -0.9408
vn -0.3916 0.3180 -0.8634
vn 0.0806 -0.5794 -0.8110
vn 0.3887 -0.6573 -0.6457
vn 0.8685 -0.4932 -0.0493
vn -0.5229 0.7524 0.4006
vn 0.8634 -0.1109 0.4922
vn -0.3417 0.6726 0.6564
vn 0.5389 0.2405 0.8073
vn -0.2529 0.0308 -0.9670
vn 0.6258 -0.6621 -0.4123
vn -0.5292 0.7709 -0.3545
vn -0.0950 -0.5955 -0.7977
vn -0.5401 -0.2595 -0.8006
vn -0.5111 0.4717 -0.7185
vn -0.3212 0.7281 -0.6055
vn -0.2785 0.9068 -0.3166
vn -0.5937 0.7902 0.1517
vn -0.4075 0.8408 0.3563
vn 0.5241 0.2644 0.8096
vn 0.0472 -0.6793 -0.7324
vn -0.6968 -0.5577 -0.4509
vn -0.9637 0.2165 -0.1562
vn 0.1902 -0.6994 -0.6890
vn -0.2878 0.8952 0.3402
vn -0.3765 0.7274 0.5737
vn -0.1511 0.5958 0.7888
vn 0.4421 0.3144 0.8401
vn -0.1628 -0.7205 -0.6741
vn -0.9409 0.1065 0.3215
vn 0.4974 -0.6852 -0.5321
vn -0.1761 0.6320 0.7547
vn 0.7900 -0.0503 0.6110
vn 0.2028 0.4090 0.8897
vn 0.5436 0.2005 0.8150
vn -0.7919 -0.5647 -0.2326
vn 0.9011 -0.4315 0.0434
vn -0.4289 0.5727 0.6986
vn 0.8232 -0.5676 0.0114
vn -0.8549 0.0490 0.5165
vn 0.6345 0.1074 0.7654
vn -0.1617 0.6457 0.7463
vn 0.8602 -0.0001 0.5100
vn 0.5643 0.2622 0.7828
vn -0.3065 0.5696 0.7627
vn 0.0587 0.4935 0.8677
vn -0.5944 -0.7316 -0.3339
vn -0.2384 -0.9470 -0.2155
vn 0.1160 -0.8070 -0.5791
vn 0.3499 -0.8494 -0.3950
vn 0.7330 -0.0669 0.6770
vn -0.5126 0.4246 0.7463
vn 0.2921 0.3660 0.8836
vn -0.9068 -0.2065 0.3676
vn -0.2158 0.5043 0.8361
vn -0.6580 -0.6644 0.3545
vn 0.6454 -0.6938 0.3194
vn -0.5021 0.3430 0.7939
vn 0.3201 0.3690 0.8726
vn -0.0596 0.5151 0.8551
vn 0.4014 0.0297 0.9154
vn 0.0586 -0.9690 0.2400
vn 0.3460 -0.9380 0.0235
vn 0.3879 -0.5555 0.7354
vn -0.5088 0.0368 0.8601
vn -0.0939 0.3190 0.9431
vn 0.0533 0.4031 0.9136
vn -0.2013 -0.3384 0.9192
vn 0.1380 -0.2360 0.9619
vn 0.0511 0.2829 0.9578
vn -0.0148 0.2152 0.9764
usemtl mtl1.1501
s 1
f 1//1 2//2 3//3
f 4//4 3//3 5//5
f 5//5 3//3 2//2
f 6//6 4//4 5//5
f 7//7 8//8 1//1
f 7//7 3//3 9//9
f 3//3 7//7 1//1
f 1//1 8//8 10//10
f 4//4 9//9 3//3
f 11//11 1//1 10//10
f 11//11 2//2 1//1
f 4//4 6//6 12//12
f 2//2 11//11 13//13
f 2//2 13//13 5//5
f 13//13 6//6 5//5
f 8//8 14//14 15//15
f 8//8 7//7 14//14
f 10//10 8//8 15//15
f 16//16 10//10 15//15
f 9//9 4//4 12//12
f 16//16 11//11 10//10
f 12//12 6//6 17//17
f 9//9 18//18 7//7
f 9//9 19//19 18//18
f 9//9 12//12 20//20
f 13//13 17//17 6//6
f 18//18 21//21 14//14
f 18//18 14//14 7//7
f 15//15 14//14 22//22
f 22//22 16//16 15//15
f 20//20 12//12 23//23
f 24//24 11//11 16//16
f 25//25 11//11 24//24
f 26//26 23//23 17//17
f 17//17 23//23 12//12
f 11//11 25//25 13//13
f 17//17 13//13 25//25
f 26//26 17//17 25//25
f 21//21 27//27 14//14
f 28//28 18//18 19//19
f 27//27 22//22 14//14
f 19//19 9//9 29//29
f 29//29 9//9 20//20
f 30//30 16//16 22//22
f 24//24 16//16 30//30
f 21//21 31//31 27//27
f 21//21 32//32 33//33
f 27//27 31//31 34//34
f 18//18 32//32 21//21
f 34//34 22//22 27//27
f 28//28 19//19 29//29
f 35//35 22//22 34//34
f 30//30 22//22 35//35
f 29//29 20//20 36//36
f 30//30 37//37 24//24
f 23//23 26//26 38//38
f 25//25 24//24 39//39
f 25//25 39//39 38//38
f 26//26 25//25 38//38
f 33//33 31//31 21//21
f 32//32 18//18 28//28
f 35//35 40//40 30//30
f 36//36 20//20 23//23
f 37//37 39//39 24//24
f 33//33 41//41 31//31
f 31//31 41//41 42//42
f 31//31 42//42 34//34
f 35//35 34//34 42//42
f 28//28 29//29 43//43
f 30//30 40//40 37//37
f 23//23 44//44 36//36
f 38//38 44//44 23//23
f 45//45 44//44 38//38
f 42//42 41//41 46//46
f 32//32 28//28 43//43
f 29//29 36//36 43//43
f 35//35 47//47 40//40
f 38//38 39//39 45//45
f 41//41 48//48 46//46
f 32//32 49//49 33//33
f 42//42 50//50 51//51
f 46//46 50//50 42//42
f 47//47 42//42 51//51
f 42//42 47//47 35//35
f 40//40 52//52 37//37
f 52//52 53//53 45//45
f 44//44 45//45 53//53
f 39//39 37//37 52//52
f 39//39 52//52 45//45
f 54//54 55//55 48//48
f 56//56 54//54 48//48
f 55//55 50//50 48//48
f 56//56 48//48 41//41
f 33//33 56//56 41//41
f 49//49 57//57 33//33
f 48//48 50//50 46//46
f 49//49 43//43 58//58
f 32//32 43//43 49//49
f 51//51 59//59 47//47
f 36//36 60//60 43//43
f 47//47 59//59 61//61
f 62//62 60//60 36//36
f 47//47 61//61 40//40
f 40//40 61//61 52//52
f 62//62 36//36 44//44
f 63//63 55//55 54//54
f 57//57 56//56 33//33
f 64//64 57//57 49//49
f 55//55 65//65 50//50
f 50//50 65//65 51//51
f 60//60 58//58 43//43
f 61//61 53//53 52//52
f 62//62 44//44 53//53
f 66//66 67//67 63//63
f 54//54 66//66 63//63
f 63//63 67//67 68//68
f 63//63 68//68 69//69
f 63//63 69//69 55//55
f 70//70 68//68 71//71
f 69//69 68//68 70//70
f 65//65 55//55 69//69
f 64//64 49//49 58//58
f 51//51 65//65 72//72
f 73//73 60//60 62//62
f 73//73 62//62 53//53
f 66//66 56//56 74//74
f 66//66 75//75 67//67
f 56//56 66//66 54//54
f 75//75 76//76 67//67
f 57//57 77//77 56//56
f 76//76 68//68 67//67
f 68//68 76//76 71//71
f 69//69 78//78 65//65
f 51//51 72//72 79//79
f 59//59 51//51 79//79
f 59//59 79//79 61//61
f 80//80 53//53 61//61
f 73//73 53//53 81//81
f 66//66 82//82 75//75
f 77//77 74//74 56//56
f 75//75 83//83 76//76
f 77//77 57//57 84//84
f 70//70 71//71 78//78
f 69//69 70//70 78//78
f 65//65 78//78 72//72
f 72//72 85//85 79//79
f 60//60 73//73 86//86
f 58//58 60//60 86//86
f 86//86 73//73 81//81
f 87//87 88//88 81//81
f 61//61 79//79 80//80
f 87//87 53//53 80//80
f 81//81 53//53 87//87
f 82//82 89//89 75//75
f 74//74 82//82 66//66
f 84//84 57//57 90//90
f 57//57 64//64 90//90
f 83//83 91//91 76//76
f 64//64 58//58 90//90
f 76//76 91//91 71//71
f 71//71 91//91 78//78
f 72//72 78//78 85//85
f 86//86 81//81 88//88
f 92//92 84//84 90//90
f 75//75 93//93 83//83
f 86//86 94//94 90//90
f 90//90 58//58 86//86
f 95//95 78//78 91//91
f 78//78 95//95 85//85
f 94//94 86//86 88//88
f 80//80 79//79 85//85
f 75//75 89//89 93//93
f 96//96 92//92 90//90
f 91//91 83//83 93//93
f 90//90 97//97 96//96
f 90//90 94//94 97//97
f 95//95 91//91 98//98
f 94//94 88//88 87//87
f 99//99 80//80 85//85
f 87//87 80//80 99//99
f 100//100 82//82 101//101
f 77//77 102//102 74//74
f 82//82 100//100 89//89
f 103//103 77//77 84//84
f 103//103 84//84 92//92
f 92//92 96//96 104//104
f 93//93 105//105 91//91
f 98//98 91//91 105//105
f 94//94 106//106 97//97
f 87//87 99//99 106//106
f 94//94 87//87 106//106
f 102//102 82//82 74//74
f 107//107 89//89 100//100
f 93//93 89//89 107//107
f 105//105 108//108 98//98
f 95//95 98//98 108//108
f 102//102 101//101 82//82
f 77//77 103//103 102//102
f 100//100 109//109 107//107
f 110//110 103//103 92//92
f 93//93 107//107 111//111
f 105//105 93//93 111//111
f 112//112 104//104 96//96
f 96//96 97//97 112//112
f 95//95 113//113 85//85
f 85//85 113//113 99//99
f 106//106 99//99 97//97
f 97//97 99//99 112//112
f 104//104 114//114 92//92
f 114//114 110//110 92//92
f 108//108 105//105 111//111
f 113//113 95//95 108//108
f 102//102 115//115 101//101
f 102//102 116//116 115//115
f 109//109 100//100 101//101
f 103//103 116//116 102//102
f 117//117 116//116 103//103
f 110//110 117//117 103//103
f 109//109 118//118 107//107
f 111//111 107//107 118//118
f 108//108 119//119 113//113
f 104//104 112//112 114//114
f 120//120 99//99 113//113
f 112//112 99//99 120//120
f 109//109 101//101 121//121
f 115//115 121//121 101//101
f 110//110 114//114 117//117
f 111//111 119//119 108//108
f 112//112 120//120 114//114
f 122//122 121//121 115//115
f 116//116 122//122 115//115
f 122//122 116//116 117//117
f 109//109 121//121 118//118
f 117//117 123//123 122//122
f 117//117 114//114 123//123
f 118//118 119//119 111//111
f 119//119 123//123 113//113
f 123//123 120//120 113//113
f 114//114 120//120 123//123
f 122//122 124//124 121//121
f 121//121 119//119 118//118
f 124//124 119//119 121//121
f 123//123 124//124 122//122
f 123//123 119//119 124//124
