# Blender v2.92.0 OBJ File: 'convert_to_one_sided.blend'
# www.blender.org
mtllib 75L.mtl
o Cube
v 0.001000 0.001000 -0.001000
v 0.001000 -0.001000 -0.001000
v 0.001000 0.001000 0.001000
v 0.001000 -0.001000 0.001000
v -0.001000 0.001000 -0.001000
v -0.001000 -0.001000 -0.001000
v -0.001000 0.001000 0.001000
v -0.001000 -0.001000 0.001000
vt 0.625000 0.500000
vt 0.875000 0.500000
vt 0.875000 0.750000
vt 0.625000 0.750000
vt 0.375000 0.750000
vt 0.625000 1.000000
vt 0.375000 1.000000
vt 0.375000 0.000000
vt 0.625000 0.000000
vt 0.625000 0.250000
vt 0.375000 0.250000
vt 0.125000 0.500000
vt 0.375000 0.500000
vt 0.125000 0.750000
vn 0.0000 1.0000 0.0000
vn 0.0000 0.0000 1.0000
vn -1.0000 0.0000 0.0000
vn 0.0000 -1.0000 0.0000
vn 1.0000 0.0000 0.0000
vn 0.0000 0.0000 -1.0000
usemtl Material
s off
f 1/1/1 5/2/1 7/3/1 3/4/1
f 4/5/2 3/4/2 7/6/2 8/7/2
f 8/8/3 7/9/3 5/10/3 6/11/3
f 6/12/4 2/13/4 4/5/4 8/14/4
f 2/13/5 1/1/5 3/4/5 4/5/5
f 6/11/6 5/10/6 1/1/6 2/13/6
o 75
v 8.677709 3.123939 3.645413
v 8.748298 3.131459 3.648273
v 8.684108 3.098639 3.684823
v 8.732748 3.163159 3.637904
v 8.666099 3.155919 3.666653
v 8.767906 3.164569 3.657213
v 8.716567 3.171438 3.674703
v 8.739767 3.112619 3.664243
v 8.775157 3.153979 3.670913
v 8.606679 3.102649 3.712803
v 8.722828 3.122039 3.690203
v 8.617509 3.128739 3.704143
v 8.753458 3.168329 3.678153
v 8.638619 3.148569 3.721213
v 8.704858 3.158239 3.709383
v 8.631669 3.089449 3.736622
v 8.602369 3.094679 3.740722
v 8.600080 3.105989 3.748672
v 8.709268 3.145749 3.709343
v 8.632109 3.105539 3.749122
v 8.634699 3.131699 3.742922
v 8.606040 3.096929 3.751502
v 8.607369 3.118989 3.751292
v 8.613409 3.112469 3.745552
vn -0.3774 -0.2393 -0.8946
vn 0.6141 -0.5103 -0.6021
vn 0.0541 -0.9640 -0.2605
vn 0.0181 0.5194 -0.8543
vn -0.4897 0.7276 -0.4803
vn 0.6378 0.6605 -0.3962
vn -0.0471 0.9989 -0.0032
vn 0.6770 -0.7212 0.1468
vn 0.9018 -0.1141 0.4167
vn -0.7715 -0.4179 -0.4798
vn 0.6197 -0.5502 0.5596
vn -0.8138 0.4332 -0.3873
vn 0.4479 0.7272 0.5202
vn -0.4092 0.8768 0.2526
vn 0.1720 0.7155 0.6771
vn 0.2096 -0.8783 0.4297
vn -0.5431 -0.8386 0.0434
vn -0.8918 0.1419 0.4296
vn 0.4822 0.0690 0.8734
vn 0.3010 -0.1622 0.9397
vn 0.1436 0.3805 0.9136
vn -0.2457 -0.3689 0.8964
vn -0.2529 0.3125 0.9156
vn -0.0378 0.0239 0.9990
usemtl mtl1.675
s 1
f 9//7 10//8 11//9
f 12//10 9//7 13//11
f 10//8 9//7 12//10
f 12//10 14//12 10//8
f 15//13 12//10 13//11
f 14//12 12//10 15//13
f 10//8 16//14 11//9
f 14//12 17//15 10//8
f 11//9 18//16 9//7
f 19//17 10//8 17//15
f 9//7 20//18 13//11
f 18//16 20//18 9//7
f 10//8 19//17 16//14
f 14//12 21//19 17//15
f 20//18 22//20 13//11
f 13//11 22//20 15//13
f 15//13 21//19 14//12
f 15//13 23//21 21//19
f 16//14 19//17 11//9
f 11//9 19//17 24//22
f 15//13 22//20 23//21
f 11//9 25//23 18//16
f 18//16 25//23 26//24
f 18//16 26//24 20//18
f 19//17 17//15 27//25
f 20//18 26//24 22//20
f 17//15 21//19 27//25
f 21//19 23//21 27//25
f 11//9 24//22 25//23
f 24//22 19//17 28//26
f 19//17 27//25 28//26
f 22//20 29//27 23//21
f 29//27 27//25 23//21
f 24//22 30//28 25//23
f 27//25 29//27 28//26
f 22//20 26//24 31//29
f 31//29 29//27 22//20
f 25//23 30//28 26//24
f 24//22 28//26 30//28
f 30//28 28//26 32//30
f 30//28 32//30 26//24
f 26//24 32//30 31//29
f 28//26 29//27 32//30
f 29//27 31//29 32//30
