# Blender v2.92.0 OBJ File: 'convert_to_one_sided.blend'
# www.blender.org
mtllib 760L.mtl
o 760
v 6.942811 5.250502 4.029059
v 7.028590 5.252622 4.006859
v 7.113248 5.243542 4.024269
v 7.197687 5.245782 4.021599
v 7.196507 5.238002 4.038939
v 6.798142 5.253702 4.034779
v 6.812902 5.268952 4.025879
v 6.935241 5.270112 4.017039
v 7.115549 5.258232 4.009550
v 7.163488 5.274642 4.021139
v 7.030139 5.282062 4.017739
v 6.878171 5.296922 4.027569
v 6.979670 5.333531 4.049969
v 7.348725 5.244412 4.050838
v 7.284966 5.235412 4.061728
v 6.698664 5.245942 4.052539
v 6.684934 5.263652 4.041249
v 7.266877 5.263872 4.035989
v 6.500076 5.281452 4.051829
v 6.708694 5.298741 4.042939
v 7.243737 5.300541 4.053899
v 7.127528 5.329961 4.063979
v 6.796692 5.365430 4.075358
v 6.487106 5.243722 4.064479
v 6.556015 5.231982 4.079488
v 6.726853 5.246622 4.080749
v 6.814182 5.252292 4.053739
v 7.121518 5.251302 4.066769
v 7.438964 5.256532 4.087088
v 7.398974 5.240232 4.082189
v 6.265309 5.229772 4.083169
v 6.359898 5.257602 4.066739
v 7.366365 5.291411 4.084888
v 6.303019 5.282981 4.071939
v 6.527156 5.323571 4.067429
v 7.069889 5.424840 4.133227
v 6.573085 5.390870 4.102348
v 6.174430 5.244802 4.089678
v 6.275439 5.252992 4.078649
v 6.402138 5.224113 4.089698
v 6.554955 5.236622 4.115688
v 7.310596 5.265731 4.157757
v 7.420614 5.243962 4.130408
v 7.472824 5.261782 4.127178
v 6.894291 5.271302 4.098318
v 6.141421 5.288911 4.105198
v 7.456174 5.292291 4.115088
v 7.437454 5.381510 4.174847
v 6.358168 5.347520 4.102998
v 7.251476 5.379780 4.127498
v 6.152581 5.228242 4.112548
v 6.282169 5.219642 4.114298
v 6.427308 5.225362 4.108818
v 6.107252 5.255442 4.113968
v 6.698984 5.264622 4.121488
v 6.074532 5.261262 4.128028
v 7.487584 5.299641 4.142247
v 6.084722 5.286811 4.136968
v 6.132291 5.320321 4.136648
v 6.223540 5.347201 4.136028
v 6.450867 5.411140 4.133287
v 6.725654 5.440650 4.123848
v 6.892151 5.483929 4.155797
v 6.184090 5.229332 4.139238
v 6.111341 5.263212 4.142668
v 6.075802 5.271932 4.114128
v 7.117798 5.307871 4.171287
v 7.543093 5.290261 4.172537
v 6.348698 5.387010 4.147098
v 6.424597 5.427870 4.164787
v 6.602095 5.467219 4.149188
v 6.361518 5.239362 4.143497
v 7.444144 5.267422 4.208687
v 7.488823 5.260612 4.201127
v 7.506564 5.267581 4.176627
v 6.556036 5.270772 4.155077
v 6.728733 5.307331 4.157187
v 6.908651 5.372591 4.207877
v 6.126561 5.321231 4.156267
v 6.184350 5.343940 4.159348
v 6.275179 5.365361 4.174857
v 6.382848 5.408500 4.183167
v 6.508746 5.481059 4.181437
v 6.769633 5.524208 4.179417
v 6.918161 5.543128 4.199357
v 6.620855 5.527399 4.195207
v 6.255229 5.271212 4.175317
v 6.140731 5.306691 4.168898
v 7.285776 5.315571 4.231536
v 7.575682 5.288601 4.210067
v 7.105589 5.392690 4.263446
v 7.559173 5.345231 4.198157
v 6.193100 5.334161 4.172347
v 7.255607 5.490779 4.215677
v 6.449677 5.453169 4.197497
v 7.033249 5.522348 4.201537
v 6.424017 5.279362 4.178487
v 6.186490 5.293952 4.174327
v 7.406355 5.314601 4.273976
v 7.569452 5.286021 4.256766
v 6.577605 5.346971 4.204447
v 7.613552 5.322671 4.228366
v 6.742833 5.390800 4.218407
v 7.529123 5.418380 4.233937
v 6.425387 5.419070 4.212677
v 7.435034 5.477319 4.254496
v 6.493086 5.493159 4.213197
v 6.544566 5.517268 4.210067
v 6.601045 5.544698 4.222757
v 6.726433 5.565868 4.231866
v 6.921471 5.559358 4.225107
v 7.503113 5.288541 4.264116
v 6.415897 5.343701 4.209357
v 6.280059 5.332891 4.187987
v 7.628161 5.306721 4.264836
v 7.265877 5.360810 4.277446
v 6.354448 5.376650 4.195637
v 6.820562 5.455969 4.261086
v 6.998900 5.450439 4.288046
v 7.616682 5.386270 4.261136
v 6.470857 5.466650 4.219157
v 6.625525 5.553788 4.243096
v 6.389468 5.381840 4.207996
v 7.657471 5.345301 4.283996
v 6.470696 5.431409 4.226236
v 6.566626 5.433840 4.239786
v 6.682034 5.430550 4.240576
v 7.666291 5.388370 4.307846
v 7.537953 5.463369 4.287616
v 6.544686 5.506719 4.230136
v 6.712443 5.567838 4.258806
v 6.810082 5.581578 4.261656
v 6.948190 5.583648 4.271756
v 7.132618 5.560208 4.263626
v 7.631322 5.307431 4.317436
v 6.576665 5.490279 4.247196
v 6.692134 5.493859 4.263176
v 6.647385 5.529618 4.252666
v 7.331336 5.537138 4.287966
v 7.115139 5.584488 4.303416
v 7.661962 5.329641 4.325655
v 7.675851 5.367540 4.338625
v 7.618712 5.434880 4.319275
v 7.446274 5.513369 4.306225
v 6.781383 5.549748 4.279006
v 7.241056 5.570688 4.317995
v 6.862122 5.575238 4.280326
v 7.017340 5.576468 4.309536
v 7.663451 5.404810 4.343015
v 7.619822 5.444659 4.366985
v 6.891451 5.509599 4.294745
v 7.059489 5.494328 4.326915
v 7.525343 5.492529 4.344795
v 6.912321 5.550918 4.298885
v 7.383145 5.539618 4.343135
v 7.157917 5.578148 4.327896
v 7.557423 5.325541 4.335916
v 7.640002 5.331331 4.354765
v 7.665562 5.359850 4.371135
v 7.427414 5.371330 4.346115
v 7.223547 5.437349 4.332875
v 7.045329 5.541508 4.328455
v 7.135478 5.567338 4.337825
v 7.247237 5.556748 4.351425
v 7.656151 5.396690 4.372765
v 7.413704 5.429249 4.385784
v 7.173608 5.510669 4.352435
v 7.554713 5.480499 4.384604
v 7.177197 5.543758 4.350375
v 7.468014 5.511388 4.381364
v 7.301876 5.480749 4.373545
v 7.281106 5.521118 4.371415
v 7.374055 5.520588 4.377795
v 7.626672 5.358270 4.385795
v 7.535663 5.383710 4.384665
v 7.642211 5.385729 4.392764
v 7.597032 5.431749 4.396134
v 7.397164 5.483398 4.390864
v 7.527133 5.475308 4.398674
v 7.466134 5.485538 4.393924
v 7.594082 5.398099 4.396364
v 7.504963 5.442049 4.391855
vn -0.0599 -0.9405 -0.3346
vn -0.0451 -0.4264 -0.9034
vn -0.0325 -0.9754 -0.2182
vn 0.1177 -0.5302 -0.8397
vn -0.0190 -0.9908 -0.1337
vn -0.0440 -0.7789 -0.6257
vn -0.0810 -0.1696 -0.9822
vn -0.0882 -0.0817 -0.9927
vn 0.0771 0.1330 -0.9881
vn 0.1236 0.4281 -0.8953
vn 0.0155 0.4389 -0.8984
vn -0.0489 0.3915 -0.9189
vn 0.0339 0.5939 -0.8038
vn 0.2811 -0.3340 -0.8997
vn 0.0087 -0.9982 -0.0591
vn 0.0055 -0.8997 -0.4365
vn -0.0837 -0.3091 -0.9473
vn 0.2157 0.3326 -0.9181
vn -0.0769 0.0363 -0.9964
vn -0.0771 0.3022 -0.9501
vn 0.1718 0.6072 -0.7757
vn 0.0954 0.6325 -0.7687
vn -0.0178 0.5382 -0.8426
vn -0.0360 -0.5939 -0.8038
vn 0.0493 -0.9843 -0.1697
vn 0.0983 -0.9763 0.1928
vn 0.0510 -0.9982 0.0315
vn -0.0758 -0.9523 0.2956
vn 0.5535 -0.0620 -0.8306
vn 0.2782 -0.9083 -0.3123
vn -0.0859 -0.6553 -0.7505
vn -0.0940 -0.1967 -0.9760
vn 0.2527 0.5365 -0.8052
vn -0.1306 0.2030 -0.9704
vn -0.0799 0.4588 -0.8850
vn 0.0947 0.6099 -0.7868
vn -0.0823 0.5275 -0.8456
vn -0.2286 -0.2494 -0.9410
vn -0.1132 -0.1489 -0.9823
vn 0.0120 -0.9469 -0.3214
vn 0.0976 -0.8998 0.4252
vn -0.1381 -0.8961 0.4219
vn 0.1020 -0.9891 0.1063
vn 0.5709 -0.6833 -0.4552
vn 0.0368 -0.8769 0.4792
vn -0.3130 0.4273 -0.8482
vn 0.4023 0.4850 -0.7765
vn 0.2720 0.5814 -0.7668
vn -0.1580 0.6005 -0.7838
vn 0.1636 0.6328 -0.7568
vn -0.2988 -0.9376 -0.1776
vn -0.0064 -0.9970 0.0765
vn 0.0558 -0.9766 0.2077
vn -0.5298 -0.6111 -0.5881
vn 0.1213 -0.7860 0.6062
vn -0.4219 0.3263 -0.8459
vn 0.5473 0.2691 -0.7925
vn -0.8734 0.4302 0.2283
vn -0.4107 0.8175 -0.4037
vn -0.2314 0.8581 -0.4584
vn -0.2091 0.6583 -0.7231
vn -0.0228 0.5445 -0.8385
vn 0.0580 0.5610 -0.8258
vn -0.1191 -0.8203 0.5595
vn -0.4075 -0.6075 0.6818
vn -0.5430 -0.6908 0.4774
vn -0.1344 -0.7963 0.5898
vn 0.6135 -0.2936 -0.7331
vn -0.3174 0.8620 -0.3953
vn -0.4172 0.8255 -0.3802
vn -0.1045 0.5957 -0.7964
vn 0.0482 -0.7940 0.6060
vn -0.1236 -0.9034 0.4106
vn 0.0964 -0.9714 0.2171
vn 0.3771 -0.9115 -0.1644
vn 0.1061 -0.6789 0.7266
vn 0.0862 -0.6470 0.7576
vn -0.0646 -0.6595 0.7489
vn -0.4986 0.7225 0.4790
vn -0.3150 0.9346 0.1653
vn -0.3171 0.8236 0.4702
vn -0.4942 0.8365 0.2366
vn -0.3335 0.7451 -0.5776
vn -0.0213 0.6831 -0.7300
vn 0.0699 0.7173 -0.6932
vn -0.1455 0.7325 -0.6651
vn -0.0759 -0.4470 0.8913
vn -0.3358 0.0512 0.9405
vn -0.1901 -0.7943 0.5770
vn 0.5342 -0.7718 -0.3448
vn -0.1699 -0.6786 0.7146
vn 0.4523 0.3907 -0.8017
vn -0.2514 0.5116 0.8216
vn 0.1683 0.6651 -0.7276
vn -0.6213 0.7829 0.0335
vn 0.1291 0.6834 -0.7185
vn 0.0485 -0.5692 0.8208
vn -0.1526 -0.2714 0.9503
vn -0.1962 -0.7975 0.5705
vn 0.1858 -0.9665 0.1770
vn 0.0578 -0.4801 0.8753
vn 0.7214 -0.0877 -0.6870
vn 0.0165 -0.5401 0.8414
vn 0.3422 0.6117 -0.7133
vn -0.5017 0.4684 0.7273
vn 0.2485 0.7039 -0.6654
vn -0.5506 0.8275 0.1096
vn -0.3895 0.8979 -0.2050
vn -0.3326 0.9304 -0.1537
vn -0.0756 0.9188 -0.3873
vn 0.0569 0.8326 -0.5509
vn -0.0731 -0.8821 0.4653
vn -0.0774 -0.2356 0.9688
vn -0.1905 0.1270 0.9734
vn 0.6442 -0.7282 -0.2337
vn -0.2178 -0.7091 0.6706
vn -0.3757 0.4734 0.7967
vn -0.0862 -0.4718 0.8775
vn -0.1733 -0.5410 0.8230
vn 0.5498 0.4956 -0.6724
vn -0.5289 0.4952 0.6892
vn -0.3253 0.8199 0.4711
vn -0.2823 0.1563 0.9465
vn 0.8751 -0.1103 -0.4713
vn -0.2528 0.0970 0.9626
vn -0.0694 -0.2339 0.9698
vn -0.0210 -0.4000 0.9163
vn 0.8051 0.4179 -0.4209
vn 0.3910 0.7566 -0.5241
vn -0.3947 0.5645 0.7249
vn -0.2027 0.7490 0.6308
vn -0.0850 0.9880 0.1287
vn 0.0049 0.9913 -0.1314
vn 0.1301 0.8233 -0.5526
vn 0.2665 -0.9204 0.2860
vn -0.2107 0.1168 0.9705
vn -0.1212 -0.1535 0.9807
vn -0.2239 0.2219 0.9490
vn 0.2146 0.8439 -0.4917
vn 0.0448 0.9981 -0.0416
vn 0.7720 -0.6279 0.0987
vn 0.9987 0.0179 0.0475
vn 0.5351 0.7668 -0.3545
vn 0.3032 0.8693 -0.3903
vn -0.1734 0.1898 0.9664
vn 0.1652 0.9842 -0.0642
vn -0.1226 0.6939 0.7096
vn -0.1283 0.7321 0.6690
vn 0.8210 0.5706 0.0214
vn 0.6071 0.7612 0.2281
vn -0.1726 -0.2026 0.9639
vn -0.1956 -0.3014 0.9332
vn 0.3948 0.9090 -0.1335
vn -0.1745 0.2337 0.9565
vn 0.2190 0.9692 0.1123
vn 0.0125 0.8962 0.4434
vn -0.1228 -0.7972 0.5911
vn 0.2499 -0.7860 0.5655
vn 0.7156 -0.3471 0.6062
vn -0.2211 -0.6623 0.7159
vn -0.2191 -0.5207 0.8252
vn -0.1918 0.1272 0.9732
vn -0.1129 0.5027 0.8571
vn 0.0259 0.7072 0.7066
vn 0.7680 0.3771 0.5177
vn -0.1693 -0.3320 0.9279
vn -0.1894 -0.1213 0.9744
vn 0.4028 0.7809 0.4774
vn -0.1351 0.2417 0.9609
vn 0.1744 0.8037 0.5689
vn -0.2075 -0.1959 0.9584
vn -0.1257 0.2034 0.9710
vn 0.0080 0.5679 0.8230
vn 0.0540 -0.5371 0.8418
vn -0.1519 -0.4498 0.8801
vn 0.3910 -0.0050 0.9204
vn 0.3042 0.3070 0.9018
vn -0.0946 0.0407 0.9947
vn 0.0917 0.2984 0.9500
vn -0.0312 0.2169 0.9757
vn -0.0345 -0.1489 0.9882
vn -0.0644 -0.1090 0.9920
usemtl mtl1.1502
s 1
f 1//1 2//2 3//3
f 2//2 4//4 3//3
f 3//3 4//4 5//5
f 6//6 7//7 1//1
f 7//7 8//8 1//1
f 2//2 1//1 8//8
f 4//4 2//2 9//9
f 10//10 4//4 9//9
f 2//2 8//8 11//11
f 9//9 2//2 11//11
f 10//10 9//9 11//11
f 7//7 12//12 8//8
f 11//11 8//8 12//12
f 13//13 11//11 12//12
f 4//4 14//14 15//15
f 5//5 4//4 15//15
f 16//16 17//17 6//6
f 14//14 4//4 18//18
f 19//19 20//20 17//17
f 7//7 17//17 20//20
f 6//6 17//17 7//7
f 10//10 18//18 4//4
f 10//10 21//21 18//18
f 12//12 7//7 20//20
f 11//11 22//22 10//10
f 22//22 21//21 10//10
f 13//13 22//22 11//11
f 12//12 20//20 23//23
f 13//13 12//12 23//23
f 24//24 16//16 25//25
f 25//25 16//16 26//26
f 6//6 1//1 27//27
f 3//3 28//28 1//1
f 5//5 28//28 3//3
f 5//5 15//15 28//28
f 14//14 29//29 30//30
f 15//15 14//14 30//30
f 31//31 32//32 24//24
f 16//16 24//24 17//17
f 17//17 24//24 19//19
f 6//6 27//27 16//16
f 16//16 27//27 26//26
f 29//29 14//14 33//33
f 19//19 24//24 32//32
f 18//18 33//33 14//14
f 19//19 32//32 34//34
f 21//21 33//33 18//18
f 19//19 34//34 35//35
f 20//20 19//19 35//35
f 20//20 35//35 23//23
f 13//13 36//36 22//22
f 23//23 35//35 37//37
f 38//38 39//39 31//31
f 32//32 31//31 39//39
f 40//40 24//24 25//25
f 26//26 41//41 25//25
f 15//15 42//42 28//28
f 15//15 43//43 42//42
f 15//15 30//30 43//43
f 30//30 29//29 44//44
f 24//24 40//40 31//31
f 27//27 45//45 26//26
f 1//1 45//45 27//27
f 28//28 45//45 1//1
f 34//34 38//38 46//46
f 39//39 38//38 34//34
f 39//39 34//34 32//32
f 33//33 47//47 29//29
f 48//48 47//47 33//33
f 34//34 46//46 49//49
f 35//35 34//34 49//49
f 37//37 35//35 49//49
f 23//23 36//36 13//13
f 21//21 22//22 50//50
f 51//51 31//31 52//52
f 40//40 52//52 31//31
f 40//40 53//53 52//52
f 51//51 54//54 38//38
f 31//31 51//51 38//38
f 40//40 25//25 53//53
f 30//30 44//44 43//43
f 26//26 45//45 55//55
f 54//54 56//56 46//46
f 54//54 46//46 38//38
f 57//57 44//44 29//29
f 47//47 57//57 29//29
f 58//58 46//46 56//56
f 59//59 46//46 58//58
f 46//46 59//59 60//60
f 46//46 60//60 49//49
f 50//50 48//48 33//33
f 21//21 50//50 33//33
f 37//37 49//49 61//61
f 37//37 62//62 23//23
f 62//62 63//63 23//23
f 36//36 50//50 22//22
f 63//63 36//36 23//23
f 52//52 64//64 51//51
f 65//65 54//54 51//51
f 25//25 41//41 53//53
f 54//54 65//65 66//66
f 66//66 65//65 58//58
f 26//26 55//55 41//41
f 28//28 67//67 45//45
f 57//57 68//68 44//44
f 49//49 60//60 69//69
f 69//69 61//61 49//49
f 70//70 61//61 69//69
f 37//37 71//71 62//62
f 61//61 71//71 37//37
f 52//52 72//72 64//64
f 52//52 53//53 72//72
f 64//64 65//65 51//51
f 53//53 41//41 72//72
f 43//43 73//73 42//42
f 43//43 74//74 73//73
f 44//44 75//75 43//43
f 43//43 75//75 74//74
f 76//76 41//41 55//55
f 68//68 75//75 44//44
f 55//55 45//45 77//77
f 45//45 78//78 77//77
f 42//42 67//67 28//28
f 67//67 78//78 45//45
f 79//79 59//59 58//58
f 47//47 48//48 57//57
f 59//59 79//79 80//80
f 60//60 59//59 80//80
f 60//60 80//80 81//81
f 60//60 81//81 69//69
f 82//82 69//69 81//81
f 69//69 82//82 70//70
f 61//61 70//70 83//83
f 84//84 62//62 71//71
f 63//63 62//62 84//84
f 85//85 63//63 84//84
f 84//84 71//71 86//86
f 87//87 65//65 64//64
f 72//72 41//41 76//76
f 65//65 88//88 58//58
f 89//89 67//67 42//42
f 68//68 90//90 75//75
f 55//55 77//77 76//76
f 78//78 67//67 91//91
f 58//58 88//88 79//79
f 57//57 48//48 92//92
f 57//57 92//92 68//68
f 80//80 79//79 93//93
f 50//50 94//94 48//48
f 36//36 94//94 50//50
f 95//95 70//70 82//82
f 83//83 70//70 95//95
f 83//83 71//71 61//61
f 63//63 96//96 36//36
f 96//96 94//94 36//36
f 86//86 71//71 83//83
f 64//64 72//72 87//87
f 87//87 72//72 97//97
f 72//72 76//76 97//97
f 87//87 98//98 65//65
f 98//98 88//88 65//65
f 73//73 99//99 42//42
f 75//75 90//90 100//100
f 101//101 97//97 76//76
f 76//76 77//77 101//101
f 90//90 68//68 102//102
f 68//68 92//92 102//102
f 78//78 103//103 77//77
f 80//80 93//93 81//81
f 104//104 92//92 48//48
f 105//105 95//95 82//82
f 48//48 94//94 106//106
f 107//107 83//83 95//95
f 63//63 85//85 96//96
f 108//108 83//83 107//107
f 108//108 86//86 83//83
f 109//109 86//86 108//108
f 110//110 86//86 109//109
f 84//84 86//86 110//110
f 111//111 84//84 110//110
f 85//85 84//84 111//111
f 74//74 112//112 73//73
f 75//75 100//100 74//74
f 74//74 100//100 112//112
f 87//87 97//97 113//113
f 42//42 99//99 89//89
f 114//114 88//88 98//98
f 87//87 114//114 98//98
f 113//113 114//114 87//87
f 97//97 101//101 113//113
f 90//90 102//102 115//115
f 93//93 88//88 114//114
f 91//91 67//67 116//116
f 88//88 93//93 79//79
f 103//103 101//101 77//77
f 89//89 116//116 67//67
f 81//81 93//93 114//114
f 81//81 114//114 117//117
f 103//103 78//78 118//118
f 78//78 91//91 119//119
f 92//92 120//120 102//102
f 92//92 104//104 120//120
f 82//82 81//81 117//117
f 105//105 82//82 117//117
f 106//106 104//104 48//48
f 105//105 121//121 95//95
f 121//121 107//107 95//95
f 110//110 109//109 122//122
f 85//85 111//111 96//96
f 73//73 112//112 99//99
f 90//90 115//115 100//100
f 114//114 113//113 123//123
f 115//115 102//102 124//124
f 120//120 124//124 102//102
f 113//113 125//125 123//123
f 101//101 126//126 113//113
f 127//127 126//126 101//101
f 128//128 124//124 120//120
f 114//114 123//123 117//117
f 126//126 125//125 113//113
f 101//101 103//103 127//127
f 118//118 78//78 119//119
f 105//105 117//117 123//123
f 125//125 105//105 123//123
f 105//105 125//125 121//121
f 104//104 106//106 129//129
f 121//121 130//130 107//107
f 108//108 107//107 130//130
f 109//109 108//108 130//130
f 130//130 122//122 109//109
f 110//110 122//122 131//131
f 132//132 110//110 131//131
f 110//110 132//132 133//133
f 111//111 110//110 133//133
f 134//134 111//111 133//133
f 96//96 111//111 134//134
f 115//115 135//135 100//100
f 125//125 126//126 136//136
f 137//137 136//136 126//126
f 127//127 137//137 126//126
f 127//127 103//103 118//118
f 104//104 129//129 120//120
f 121//121 125//125 130//130
f 136//136 130//130 125//125
f 138//138 130//130 136//136
f 122//122 130//130 138//138
f 106//106 94//94 139//139
f 138//138 131//131 122//122
f 96//96 134//134 94//94
f 139//139 94//94 134//134
f 134//134 133//133 140//140
f 115//115 141//141 135//135
f 115//115 124//124 141//141
f 124//124 128//128 142//142
f 120//120 143//143 128//128
f 129//129 143//143 120//120
f 118//118 137//137 127//127
f 137//137 138//138 136//136
f 106//106 144//144 129//129
f 145//145 138//138 137//137
f 139//139 144//144 106//106
f 145//145 131//131 138//138
f 134//134 146//146 139//139
f 147//147 132//132 131//131
f 133//133 132//132 147//147
f 133//133 147//147 148//148
f 140//140 133//133 148//148
f 146//146 134//134 140//140
f 89//89 99//99 116//116
f 141//141 124//124 142//142
f 143//143 149//149 128//128
f 150//150 149//149 143//143
f 119//119 151//151 118//118
f 152//152 151//151 119//119
f 153//153 129//129 144//144
f 153//153 143//143 129//129
f 118//118 151//151 137//137
f 151//151 145//145 137//137
f 154//154 145//145 151//151
f 155//155 144//144 139//139
f 147//147 131//131 145//145
f 154//154 147//147 145//145
f 154//154 148//148 147//147
f 139//139 146//146 155//155
f 140//140 148//148 156//156
f 140//140 156//156 146//146
f 99//99 112//112 157//157
f 100//100 157//157 112//112
f 135//135 157//157 100//100
f 135//135 158//158 157//157
f 141//141 158//158 135//135
f 141//141 159//159 158//158
f 99//99 160//160 116//116
f 141//141 142//142 159//159
f 160//160 161//161 116//116
f 142//142 128//128 149//149
f 119//119 91//91 161//161
f 91//91 116//116 161//161
f 152//152 119//119 161//161
f 143//143 153//153 150//150
f 152//152 162//162 151//151
f 154//154 151//151 162//162
f 148//148 154//154 162//162
f 162//162 163//163 148//148
f 155//155 153//153 144//144
f 146//146 164//164 155//155
f 156//156 148//148 163//163
f 160//160 99//99 157//157
f 142//142 149//149 165//165
f 160//160 166//166 161//161
f 150//150 165//165 149//149
f 161//161 167//167 152//152
f 153//153 168//168 150//150
f 167//167 162//162 152//152
f 167//167 169//169 162//162
f 169//169 163//163 162//162
f 170//170 153//153 155//155
f 164//164 163//163 169//169
f 164//164 156//156 163//163
f 164//164 146//146 156//156
f 165//165 159//159 142//142
f 171//171 161//161 166//166
f 167//167 161//161 171//171
f 172//172 167//167 171//171
f 172//172 169//169 167//167
f 168//168 153//153 170//170
f 155//155 173//173 170//170
f 172//172 164//164 169//169
f 173//173 164//164 172//172
f 155//155 164//164 173//173
f 157//157 158//158 174//174
f 174//174 158//158 159//159
f 160//160 157//157 175//175
f 174//174 175//175 157//157
f 159//159 176//176 174//174
f 159//159 165//165 176//176
f 166//166 160//160 175//175
f 176//176 165//165 177//177
f 171//171 166//166 178//178
f 165//165 150//150 177//177
f 150//150 168//168 177//177
f 179//179 177//177 168//168
f 171//171 178//178 172//172
f 173//173 172//172 178//178
f 180//180 173//173 178//178
f 170//170 173//173 180//180
f 179//179 170//170 180//180
f 168//168 170//170 179//179
f 175//175 174//174 181//181
f 174//174 176//176 181//181
f 166//166 175//175 182//182
f 181//181 182//182 175//175
f 176//176 177//177 181//181
f 178//178 166//166 182//182
f 181//181 177//177 182//182
f 182//182 180//180 178//178
f 179//179 180//180 182//182
f 177//177 179//179 182//182
