# Blender v2.92.0 OBJ File: 'convert_to_one_sided.blend'
# www.blender.org
mtllib 765L.mtl
o Cube
v 0.001000 0.001000 -0.001000
v 0.001000 -0.001000 -0.001000
v 0.001000 0.001000 0.001000
v 0.001000 -0.001000 0.001000
v -0.001000 0.001000 -0.001000
v -0.001000 -0.001000 -0.001000
v -0.001000 0.001000 0.001000
v -0.001000 -0.001000 0.001000
vt 0.625000 0.500000
vt 0.875000 0.500000
vt 0.875000 0.750000
vt 0.625000 0.750000
vt 0.375000 0.750000
vt 0.625000 1.000000
vt 0.375000 1.000000
vt 0.375000 0.000000
vt 0.625000 0.000000
vt 0.625000 0.250000
vt 0.375000 0.250000
vt 0.125000 0.500000
vt 0.375000 0.500000
vt 0.125000 0.750000
vn 0.0000 1.0000 0.0000
vn 0.0000 0.0000 1.0000
vn -1.0000 0.0000 0.0000
vn 0.0000 -1.0000 0.0000
vn 1.0000 0.0000 0.0000
vn 0.0000 0.0000 -1.0000
usemtl Material
s off
f 1/1/1 5/2/1 7/3/1 3/4/1
f 4/5/2 3/4/2 7/6/2 8/7/2
f 8/8/3 7/9/3 5/10/3 6/11/3
f 6/12/4 2/13/4 4/5/4 8/14/4
f 2/13/5 1/1/5 3/4/5 4/5/5
f 6/11/6 5/10/6 1/1/6 2/13/6
o 765
v 11.441153 5.120384 3.756372
v 11.514352 5.082564 3.768702
v 11.495552 5.069234 3.781442
v 11.420553 5.107224 3.775692
v 11.379453 5.144913 3.778562
v 11.559351 5.088594 3.786622
v 11.385254 5.165533 3.776372
v 11.500952 5.147203 3.798622
v 11.417453 5.188973 3.811132
v 11.470352 5.059615 3.819921
v 11.585752 5.043425 3.811462
v 11.685750 5.032145 3.849891
v 11.401254 5.118094 3.811302
v 11.671149 5.083804 3.856111
v 11.370954 5.167363 3.808152
v 11.383153 5.187313 3.815912
v 11.535051 5.177413 3.866781
v 11.648149 5.126604 3.877831
v 11.574351 5.011735 3.847911
v 11.718849 4.977085 3.898271
v 11.435653 5.192643 3.868801
v 11.781249 4.995295 3.905291
v 11.400053 5.177993 3.866911
v 11.668949 4.951996 3.927920
v 11.578851 4.994985 3.915300
v 11.469652 5.076074 3.883931
v 11.423253 5.137574 3.876991
v 11.707649 5.132614 3.932220
v 11.818148 5.025095 3.932420
v 11.774348 5.089504 3.941630
v 11.778448 4.925376 3.976550
v 11.679649 4.940866 3.990510
v 11.829147 4.983145 3.946220
v 11.454053 5.181353 3.917380
v 11.859847 4.951306 4.001309
v 11.551151 5.036984 3.959400
v 11.504151 5.100844 3.955970
v 11.461753 5.157463 3.928280
v 11.659949 5.157443 3.947480
v 11.549552 5.171093 3.936800
v 11.637251 4.989355 4.008639
v 11.896446 4.997915 4.008029
v 11.882048 5.050294 4.015469
v 11.753749 4.922516 4.015219
v 11.845448 4.926956 4.051059
v 11.791348 5.108874 4.000859
v 11.530651 5.154243 3.964780
v 11.618550 5.145873 3.991650
v 11.706750 5.136513 4.004940
v 11.600251 5.038975 4.011329
v 11.544352 5.121474 3.981550
v 11.929446 4.974286 4.061239
v 11.621051 5.065535 4.034589
v 11.655650 5.107543 4.037419
v 11.735349 5.116583 4.052179
v 11.747250 4.948126 4.068149
v 11.907747 4.954026 4.070348
v 11.933146 5.012145 4.068139
v 11.901747 5.057455 4.076438
v 11.809348 5.095194 4.068549
v 11.824147 4.932736 4.080868
v 11.934846 4.980815 4.098418
v 11.689349 5.007445 4.064528
v 11.890547 4.957446 4.106678
v 11.928646 5.016805 4.107948
v 11.783749 5.078014 4.097988
v 11.831548 4.954606 4.111458
v 11.793549 4.990575 4.115528
v 11.728749 5.048015 4.083909
v 11.918247 5.000835 4.129478
v 11.869447 5.041184 4.113568
v 11.862247 4.992435 4.129918
v 11.825548 5.027455 4.117948
v 11.870947 5.012925 4.122098
vn -0.0703 -0.0474 -0.9964
vn 0.1587 -0.3431 -0.9258
vn -0.1750 -0.7280 -0.6629
vn -0.5112 -0.7002 -0.4983
vn -0.7759 -0.3222 -0.5424
vn 0.4024 0.1618 -0.9010
vn -0.3583 0.5771 -0.7339
vn 0.3389 0.6415 -0.6882
vn 0.0890 0.9170 -0.3889
vn -0.5101 -0.8479 -0.1448
vn 0.1870 -0.5652 -0.8035
vn 0.4265 -0.1478 -0.8923
vn -0.7645 -0.6324 0.1249
vn 0.5042 0.4477 -0.7385
vn -0.9958 0.0070 0.0917
vn -0.5332 0.8444 -0.0515
vn 0.2761 0.9208 -0.2753
vn 0.4438 0.6721 -0.5927
vn -0.1724 -0.8649 -0.4714
vn 0.2097 -0.7022 -0.6804
vn -0.1082 0.9830 0.1481
vn 0.4663 -0.3486 -0.8131
vn -0.7513 0.3724 0.5449
vn -0.1944 -0.9318 -0.3064
vn -0.5410 -0.8352 0.0986
vn -0.6894 -0.6331 0.3520
vn -0.7765 -0.3549 0.5208
vn 0.4416 0.8003 -0.4055
vn 0.6245 0.1999 -0.7550
vn 0.5453 0.6210 -0.5630
vn 0.1545 -0.9115 -0.3811
vn -0.4481 -0.8671 0.2177
vn 0.5559 -0.4381 -0.7064
vn -0.3365 0.7180 0.6092
vn 0.5085 -0.6929 -0.5111
vn -0.6501 -0.5875 0.4819
vn -0.6620 -0.2693 0.6995
vn -0.6097 0.0759 0.7890
vn 0.2649 0.9641 -0.0211
vn 0.0458 0.9534 0.2983
vn -0.5918 -0.6039 0.5339
vn 0.7675 -0.0657 -0.6376
vn 0.6866 0.5510 -0.4744
vn -0.1550 -0.9823 0.1053
vn 0.2481 -0.9685 0.0209
vn 0.4494 0.8825 -0.1390
vn -0.2698 0.5859 0.7641
vn -0.0753 0.8322 0.5494
vn 0.1695 0.9519 0.2552
vn -0.6025 -0.3752 0.7045
vn -0.4728 0.1763 0.8634
vn 0.8358 -0.4296 -0.3418
vn -0.4963 0.0073 0.8681
vn -0.3066 0.4520 0.8376
vn -0.0162 0.8228 0.5681
vn -0.4040 -0.6762 0.6161
vn 0.5434 -0.8394 -0.0080
vn 0.9367 0.2639 -0.2300
vn 0.5838 0.8007 0.1347
vn 0.2521 0.8831 0.3957
vn -0.0454 -0.9008 0.4319
vn 0.8736 -0.3852 0.2974
vn -0.5108 -0.2823 0.8120
vn 0.2797 -0.7559 0.5920
vn 0.7689 0.4581 0.4460
vn -0.0996 0.5295 0.8424
vn -0.1294 -0.5953 0.7930
vn -0.3390 -0.1625 0.9266
vn -0.3667 0.1334 0.9207
vn 0.3539 0.0401 0.9344
vn 0.1817 0.5809 0.7935
vn -0.0355 -0.1087 0.9934
vn -0.1335 0.2379 0.9621
vn -0.0077 0.3094 0.9509
usemtl mtl1.685
s 1
f 9//7 10//8 11//9
f 12//10 9//7 11//9
f 12//10 13//11 9//7
f 14//12 10//8 9//7
f 9//7 13//11 15//13
f 16//14 9//7 15//13
f 16//14 14//12 9//7
f 16//14 15//13 17//15
f 12//10 11//9 18//16
f 19//17 11//9 10//8
f 14//12 19//17 10//8
f 20//18 19//17 14//12
f 21//19 12//10 18//16
f 20//18 14//12 22//20
f 12//10 21//19 13//11
f 14//12 16//14 22//20
f 13//11 23//21 15//13
f 23//21 24//22 15//13
f 17//15 15//13 24//22
f 25//23 16//14 17//15
f 26//24 16//14 25//23
f 11//9 19//17 27//25
f 27//25 19//17 28//26
f 27//25 18//16 11//9
f 13//11 21//19 23//21
f 22//20 16//14 26//24
f 17//15 24//22 29//27
f 17//15 29//27 25//23
f 20//18 28//26 19//17
f 30//28 28//26 20//18
f 23//21 31//29 24//22
f 24//22 31//29 29//27
f 27//25 32//30 33//31
f 27//25 33//31 18//16
f 34//32 18//16 33//31
f 34//32 21//19 18//16
f 21//19 35//33 23//21
f 36//34 26//24 25//23
f 28//26 32//30 27//25
f 20//18 37//35 30//28
f 20//18 22//20 37//35
f 21//19 34//32 35//33
f 38//36 22//20 26//24
f 23//21 35//33 31//29
f 39//37 32//30 28//26
f 40//38 33//31 32//30
f 41//39 28//26 30//28
f 41//39 30//28 37//35
f 36//34 38//36 26//24
f 31//29 42//40 29//27
f 28//26 41//39 43//41
f 44//42 34//32 33//31
f 37//35 22//20 38//36
f 45//43 34//32 44//42
f 45//43 35//33 34//32
f 35//33 45//43 46//44
f 35//33 46//44 31//29
f 31//29 46//44 42//40
f 36//34 25//23 47//45
f 25//23 48//46 47//45
f 29//27 42//40 48//46
f 25//23 29//27 48//46
f 43//41 39//37 28//26
f 49//47 33//31 40//38
f 49//47 44//42 33//31
f 50//48 41//39 37//35
f 51//49 50//48 37//35
f 38//36 51//49 37//35
f 32//30 52//50 40//38
f 39//37 52//50 32//30
f 43//41 53//51 39//37
f 39//37 53//51 52//50
f 41//39 50//48 43//41
f 54//52 38//36 36//34
f 42//40 55//53 48//46
f 55//53 56//54 48//46
f 47//45 48//46 57//55
f 48//46 56//54 57//55
f 44//42 58//56 45//43
f 51//49 38//36 54//52
f 46//44 59//57 55//53
f 47//45 57//55 54//52
f 54//52 36//34 47//45
f 42//40 46//44 55//53
f 43//41 50//48 60//58
f 44//42 49//47 58//56
f 45//43 58//56 61//59
f 45//43 59//57 46//44
f 59//57 45//43 61//59
f 62//60 55//53 59//57
f 56//54 63//61 57//55
f 56//54 55//53 62//60
f 40//38 64//62 49//47
f 52//50 64//62 40//38
f 53//51 43//41 65//63
f 60//58 50//48 66//64
f 50//48 51//49 66//64
f 67//65 66//64 51//49
f 67//65 51//49 54//52
f 62//60 59//57 61//59
f 54//52 57//55 68//66
f 52//50 53//51 69//67
f 69//67 64//62 52//50
f 65//63 43//41 60//58
f 66//64 70//68 60//58
f 58//56 49//47 71//69
f 54//52 68//66 67//65
f 56//54 62//60 63//61
f 63//61 68//66 57//55
f 72//70 69//67 53//51
f 53//51 65//63 72//70
f 65//63 60//58 70//68
f 70//68 66//64 73//71
f 61//59 58//56 71//69
f 74//72 63//61 62//60
f 75//73 64//62 69//67
f 64//62 71//69 49//47
f 64//62 76//74 71//69
f 65//63 70//68 72//70
f 77//75 62//60 61//59
f 66//64 67//65 73//71
f 74//72 62//60 77//75
f 74//72 68//66 63//61
f 75//73 76//74 64//62
f 72//70 75//73 69//67
f 78//76 72//70 70//68
f 71//69 76//74 77//75
f 73//71 78//76 70//68
f 77//75 61//59 71//69
f 67//65 79//77 73//71
f 74//72 79//77 68//66
f 67//65 68//66 79//77
f 80//78 75//73 72//70
f 72//70 78//76 80//78
f 81//79 77//75 76//74
f 79//77 78//76 73//71
f 74//72 77//75 81//79
f 81//79 79//77 74//72
f 76//74 75//73 80//78
f 80//78 81//79 76//74
f 78//76 82//80 80//78
f 80//78 82//80 81//79
f 78//76 79//77 82//80
f 82//80 79//77 81//79
