# Blender v2.92.0 OBJ File: 'convert_to_one_sided.blend'
# www.blender.org
mtllib 765L.mtl
o 765
v 11.441153 5.120384 3.756372
v 11.514352 5.082564 3.768702
v 11.495552 5.069234 3.781442
v 11.420553 5.107224 3.775692
v 11.379453 5.144913 3.778562
v 11.559351 5.088594 3.786622
v 11.385254 5.165533 3.776372
v 11.500952 5.147203 3.798622
v 11.417453 5.188973 3.811132
v 11.470352 5.059615 3.819921
v 11.585752 5.043425 3.811462
v 11.685750 5.032145 3.849891
v 11.401254 5.118094 3.811302
v 11.671149 5.083804 3.856111
v 11.370954 5.167363 3.808152
v 11.383153 5.187313 3.815912
v 11.535051 5.177413 3.866781
v 11.648149 5.126604 3.877831
v 11.574351 5.011735 3.847911
v 11.718849 4.977085 3.898271
v 11.435653 5.192643 3.868801
v 11.781249 4.995295 3.905291
v 11.400053 5.177993 3.866911
v 11.668949 4.951996 3.927920
v 11.578851 4.994985 3.915300
v 11.469652 5.076074 3.883931
v 11.423253 5.137574 3.876991
v 11.707649 5.132614 3.932220
v 11.818148 5.025095 3.932420
v 11.774348 5.089504 3.941630
v 11.778448 4.925376 3.976550
v 11.679649 4.940866 3.990510
v 11.829147 4.983145 3.946220
v 11.454053 5.181353 3.917380
v 11.859847 4.951306 4.001309
v 11.551151 5.036984 3.959400
v 11.504151 5.100844 3.955970
v 11.461753 5.157463 3.928280
v 11.659949 5.157443 3.947480
v 11.549552 5.171093 3.936800
v 11.637251 4.989355 4.008639
v 11.896446 4.997915 4.008029
v 11.882048 5.050294 4.015469
v 11.753749 4.922516 4.015219
v 11.845448 4.926956 4.051059
v 11.791348 5.108874 4.000859
v 11.530651 5.154243 3.964780
v 11.618550 5.145873 3.991650
v 11.706750 5.136513 4.004940
v 11.600251 5.038975 4.011329
v 11.544352 5.121474 3.981550
v 11.929446 4.974286 4.061239
v 11.621051 5.065535 4.034589
v 11.655650 5.107543 4.037419
v 11.735349 5.116583 4.052179
v 11.747250 4.948126 4.068149
v 11.907747 4.954026 4.070348
v 11.933146 5.012145 4.068139
v 11.901747 5.057455 4.076438
v 11.809348 5.095194 4.068549
v 11.824147 4.932736 4.080868
v 11.934846 4.980815 4.098418
v 11.689349 5.007445 4.064528
v 11.890547 4.957446 4.106678
v 11.928646 5.016805 4.107948
v 11.783749 5.078014 4.097988
v 11.831548 4.954606 4.111458
v 11.793549 4.990575 4.115528
v 11.728749 5.048015 4.083909
v 11.918247 5.000835 4.129478
v 11.869447 5.041184 4.113568
v 11.862247 4.992435 4.129918
v 11.825548 5.027455 4.117948
v 11.870947 5.012925 4.122098
vn -0.0703 -0.0474 -0.9964
vn 0.1587 -0.3431 -0.9258
vn -0.1750 -0.7280 -0.6629
vn -0.5112 -0.7002 -0.4983
vn -0.7759 -0.3222 -0.5424
vn 0.4024 0.1618 -0.9010
vn -0.3583 0.5771 -0.7339
vn 0.3389 0.6415 -0.6882
vn 0.0890 0.9170 -0.3889
vn -0.5101 -0.8479 -0.1448
vn 0.1870 -0.5652 -0.8035
vn 0.4265 -0.1478 -0.8923
vn -0.7645 -0.6324 0.1249
vn 0.5042 0.4477 -0.7385
vn -0.9958 0.0070 0.0917
vn -0.5332 0.8444 -0.0515
vn 0.2761 0.9208 -0.2753
vn 0.4438 0.6721 -0.5927
vn -0.1724 -0.8649 -0.4714
vn 0.2097 -0.7022 -0.6804
vn -0.1082 0.9830 0.1481
vn 0.4663 -0.3486 -0.8131
vn -0.7513 0.3724 0.5449
vn -0.1944 -0.9318 -0.3064
vn -0.5410 -0.8352 0.0986
vn -0.6894 -0.6331 0.3520
vn -0.7765 -0.3549 0.5208
vn 0.4416 0.8003 -0.4055
vn 0.6245 0.1999 -0.7550
vn 0.5453 0.6210 -0.5630
vn 0.1545 -0.9115 -0.3811
vn -0.4481 -0.8671 0.2177
vn 0.5559 -0.4381 -0.7064
vn -0.3365 0.7180 0.6092
vn 0.5085 -0.6929 -0.5111
vn -0.6501 -0.5875 0.4819
vn -0.6620 -0.2693 0.6995
vn -0.6097 0.0759 0.7890
vn 0.2649 0.9641 -0.0211
vn 0.0458 0.9534 0.2983
vn -0.5918 -0.6039 0.5339
vn 0.7675 -0.0657 -0.6376
vn 0.6866 0.5510 -0.4744
vn -0.1550 -0.9823 0.1053
vn 0.2481 -0.9685 0.0209
vn 0.4494 0.8825 -0.1390
vn -0.2698 0.5859 0.7641
vn -0.0753 0.8322 0.5494
vn 0.1695 0.9519 0.2552
vn -0.6025 -0.3752 0.7045
vn -0.4728 0.1763 0.8634
vn 0.8358 -0.4296 -0.3418
vn -0.4963 0.0073 0.8681
vn -0.3066 0.4520 0.8376
vn -0.0162 0.8228 0.5681
vn -0.4040 -0.6762 0.6161
vn 0.5434 -0.8394 -0.0080
vn 0.9367 0.2639 -0.2300
vn 0.5838 0.8007 0.1347
vn 0.2521 0.8831 0.3957
vn -0.0454 -0.9008 0.4319
vn 0.8736 -0.3852 0.2974
vn -0.5108 -0.2823 0.8120
vn 0.2797 -0.7559 0.5920
vn 0.7689 0.4581 0.4460
vn -0.0996 0.5295 0.8424
vn -0.1294 -0.5953 0.7930
vn -0.3390 -0.1625 0.9266
vn -0.3667 0.1334 0.9207
vn 0.3539 0.0401 0.9344
vn 0.1817 0.5809 0.7935
vn -0.0355 -0.1087 0.9934
vn -0.1335 0.2379 0.9621
vn -0.0077 0.3094 0.9509
usemtl mtl1.1504
s 1
f 1//1 2//2 3//3
f 4//4 1//1 3//3
f 4//4 5//5 1//1
f 6//6 2//2 1//1
f 1//1 5//5 7//7
f 8//8 1//1 7//7
f 8//8 6//6 1//1
f 8//8 7//7 9//9
f 4//4 3//3 10//10
f 11//11 3//3 2//2
f 6//6 11//11 2//2
f 12//12 11//11 6//6
f 13//13 4//4 10//10
f 12//12 6//6 14//14
f 4//4 13//13 5//5
f 6//6 8//8 14//14
f 5//5 15//15 7//7
f 15//15 16//16 7//7
f 9//9 7//7 16//16
f 17//17 8//8 9//9
f 18//18 8//8 17//17
f 3//3 11//11 19//19
f 19//19 11//11 20//20
f 19//19 10//10 3//3
f 5//5 13//13 15//15
f 14//14 8//8 18//18
f 9//9 16//16 21//21
f 9//9 21//21 17//17
f 12//12 20//20 11//11
f 22//22 20//20 12//12
f 15//15 23//23 16//16
f 16//16 23//23 21//21
f 19//19 24//24 25//25
f 19//19 25//25 10//10
f 26//26 10//10 25//25
f 26//26 13//13 10//10
f 13//13 27//27 15//15
f 28//28 18//18 17//17
f 20//20 24//24 19//19
f 12//12 29//29 22//22
f 12//12 14//14 29//29
f 13//13 26//26 27//27
f 30//30 14//14 18//18
f 15//15 27//27 23//23
f 31//31 24//24 20//20
f 32//32 25//25 24//24
f 33//33 20//20 22//22
f 33//33 22//22 29//29
f 28//28 30//30 18//18
f 23//23 34//34 21//21
f 20//20 33//33 35//35
f 36//36 26//26 25//25
f 29//29 14//14 30//30
f 37//37 26//26 36//36
f 37//37 27//27 26//26
f 27//27 37//37 38//38
f 27//27 38//38 23//23
f 23//23 38//38 34//34
f 28//28 17//17 39//39
f 17//17 40//40 39//39
f 21//21 34//34 40//40
f 17//17 21//21 40//40
f 35//35 31//31 20//20
f 41//41 25//25 32//32
f 41//41 36//36 25//25
f 42//42 33//33 29//29
f 43//43 42//42 29//29
f 30//30 43//43 29//29
f 24//24 44//44 32//32
f 31//31 44//44 24//24
f 35//35 45//45 31//31
f 31//31 45//45 44//44
f 33//33 42//42 35//35
f 46//46 30//30 28//28
f 34//34 47//47 40//40
f 47//47 48//48 40//40
f 39//39 40//40 49//49
f 40//40 48//48 49//49
f 36//36 50//50 37//37
f 43//43 30//30 46//46
f 38//38 51//51 47//47
f 39//39 49//49 46//46
f 46//46 28//28 39//39
f 34//34 38//38 47//47
f 35//35 42//42 52//52
f 36//36 41//41 50//50
f 37//37 50//50 53//53
f 37//37 51//51 38//38
f 51//51 37//37 53//53
f 54//54 47//47 51//51
f 48//48 55//55 49//49
f 48//48 47//47 54//54
f 32//32 56//56 41//41
f 44//44 56//56 32//32
f 45//45 35//35 57//57
f 52//52 42//42 58//58
f 42//42 43//43 58//58
f 59//59 58//58 43//43
f 59//59 43//43 46//46
f 54//54 51//51 53//53
f 46//46 49//49 60//60
f 44//44 45//45 61//61
f 61//61 56//56 44//44
f 57//57 35//35 52//52
f 58//58 62//62 52//52
f 50//50 41//41 63//63
f 46//46 60//60 59//59
f 48//48 54//54 55//55
f 55//55 60//60 49//49
f 64//64 61//61 45//45
f 45//45 57//57 64//64
f 57//57 52//52 62//62
f 62//62 58//58 65//65
f 53//53 50//50 63//63
f 66//66 55//55 54//54
f 67//67 56//56 61//61
f 56//56 63//63 41//41
f 56//56 68//68 63//63
f 57//57 62//62 64//64
f 69//69 54//54 53//53
f 58//58 59//59 65//65
f 66//66 54//54 69//69
f 66//66 60//60 55//55
f 67//67 68//68 56//56
f 64//64 67//67 61//61
f 70//70 64//64 62//62
f 63//63 68//68 69//69
f 65//65 70//70 62//62
f 69//69 53//53 63//63
f 59//59 71//71 65//65
f 66//66 71//71 60//60
f 59//59 60//60 71//71
f 72//72 67//67 64//64
f 64//64 70//70 72//72
f 73//73 69//69 68//68
f 71//71 70//70 65//65
f 66//66 69//69 73//73
f 73//73 71//71 66//66
f 68//68 67//67 72//72
f 72//72 73//73 68//68
f 70//70 74//74 72//72
f 72//72 74//74 73//73
f 70//70 71//71 74//74
f 74//74 71//71 73//73
