# Blender v2.92.0 OBJ File: 'convert_to_one_sided.blend'
# www.blender.org
mtllib 773L.mtl
o 773
v 12.342241 5.491768 5.214384
v 12.265742 5.427199 5.233324
v 12.234942 5.487018 5.232704
v 12.415440 5.461849 5.224404
v 12.475240 5.526448 5.217004
v 12.550339 5.513748 5.235193
v 12.339242 5.576597 5.235233
v 12.231243 5.557247 5.252553
v 12.465540 5.592357 5.231114
v 12.574538 5.591997 5.237723
v 12.249043 5.382380 5.261054
v 12.196143 5.396420 5.271913
v 12.353641 5.402979 5.254223
v 12.485939 5.454059 5.250583
v 12.181643 5.440819 5.264253
v 12.168143 5.497468 5.269733
v 12.582539 5.493858 5.265013
v 12.665037 5.548278 5.274443
v 12.669936 5.598297 5.258493
v 12.512539 5.703666 5.266273
v 12.368340 5.668406 5.273763
v 12.676137 5.655426 5.254704
v 12.610238 5.671326 5.253883
v 12.285142 5.360790 5.288983
v 12.366041 5.376480 5.284813
v 12.461639 5.417779 5.286113
v 12.553239 5.466639 5.284583
v 12.118943 5.457069 5.329672
v 12.171943 5.549578 5.280333
v 12.136643 5.518178 5.310232
v 12.256542 5.627897 5.289343
v 12.755936 5.613857 5.290633
v 12.780036 5.683166 5.284093
v 12.732836 5.731975 5.278303
v 12.670437 5.765455 5.285013
v 12.198942 5.361690 5.313542
v 12.320842 5.345380 5.336912
v 12.152744 5.400159 5.324192
v 12.391840 5.374330 5.332152
v 12.657037 5.519448 5.322462
v 12.737836 5.577947 5.318392
v 12.837535 5.680006 5.313723
v 12.391541 5.753075 5.326743
v 12.903634 5.785174 5.349202
v 12.526539 5.799675 5.319122
v 12.837934 5.805025 5.322032
v 12.778336 5.828704 5.315192
v 12.687936 5.857883 5.333252
v 12.247142 5.328600 5.360902
v 12.467740 5.405809 5.349412
v 12.543139 5.453519 5.322052
v 12.170744 5.587577 5.323392
v 12.825635 5.641527 5.339462
v 12.274242 5.689396 5.336682
v 12.891034 5.720396 5.352932
v 12.865735 5.884604 5.349652
v 12.176143 5.326460 5.398511
v 12.149444 5.361070 5.371072
v 12.119344 5.527308 5.361542
v 12.776336 5.593527 5.354882
v 12.145043 5.592487 5.375532
v 12.206943 5.654926 5.364282
v 12.270142 5.717775 5.380822
v 12.357441 5.772204 5.381382
v 12.452640 5.826164 5.375342
v 12.545438 5.865344 5.369972
v 12.615438 5.866774 5.348682
v 12.841035 5.912093 5.362232
v 12.213943 5.311521 5.419271
v 12.287642 5.324461 5.395761
v 12.380840 5.364830 5.404362
v 12.111943 5.402130 5.401661
v 12.097944 5.474978 5.414011
v 12.553638 5.457959 5.397791
v 12.848035 5.642527 5.383282
v 12.171443 5.638816 5.432961
v 12.904534 5.707646 5.389331
v 12.954933 5.795724 5.404581
v 12.919234 5.896773 5.379692
v 12.696836 5.928653 5.386501
v 12.891534 5.918893 5.375202
v 12.817235 5.956492 5.397882
v 12.136844 5.353690 5.426021
v 12.733636 5.571147 5.423851
v 12.236342 5.701546 5.428971
v 12.960033 5.764165 5.450071
v 12.971233 5.885024 5.423191
v 12.663837 5.960172 5.447411
v 12.906034 5.958103 5.413012
v 12.145244 5.337740 5.478290
v 12.267042 5.323030 5.440831
v 12.117944 5.548707 5.441771
v 12.356940 5.797864 5.474720
v 12.489039 5.865213 5.431591
v 12.989233 5.857843 5.440861
v 12.953933 5.947992 5.435061
v 12.781635 5.992132 5.443571
v 12.197143 5.323171 5.468370
v 12.093245 5.434289 5.463181
v 12.574138 5.475978 5.472401
v 12.876235 5.682346 5.454161
v 12.245442 5.708975 5.507860
v 12.990533 5.841714 5.465460
v 12.618637 5.967972 5.527010
v 12.770135 6.016482 5.484390
v 12.882434 6.008282 5.462591
v 12.954432 5.995032 5.494260
v 12.118644 5.384320 5.486701
v 12.437440 5.399700 5.479490
v 12.098845 5.482629 5.479120
v 12.160543 5.611287 5.529970
v 12.493439 5.893473 5.523940
v 12.997533 5.905213 5.482660
v 12.976633 5.943303 5.480550
v 12.326841 5.348030 5.482190
v 12.638238 5.529918 5.516740
v 12.760036 5.615927 5.517320
v 12.938133 5.748085 5.503840
v 12.976933 5.832644 5.538350
v 12.838735 6.040671 5.520720
v 12.742336 6.020412 5.531550
v 12.920433 6.035921 5.546979
v 12.242043 5.337380 5.524220
v 12.134443 5.358850 5.519400
v 12.121044 5.529228 5.533110
v 12.864235 5.705776 5.542269
v 12.996432 5.908693 5.547340
v 12.982932 5.967542 5.551130
v 12.169844 5.354970 5.534229
v 12.114544 5.456199 5.533790
v 12.498439 5.448319 5.528980
v 12.334941 5.779974 5.582189
v 12.455740 5.870714 5.574679
v 12.889034 6.057121 5.586729
v 12.358741 5.384070 5.538809
v 12.138544 5.397769 5.545079
v 12.540339 5.491259 5.563479
v 12.638837 5.566257 5.572129
v 12.150643 5.574597 5.585609
v 12.929934 5.784764 5.567679
v 12.563039 5.942633 5.573529
v 12.958034 6.012392 5.573839
v 12.741436 6.035902 5.596479
v 12.827735 6.051641 5.587209
v 12.220543 5.365410 5.574110
v 12.281941 5.375640 5.571399
v 12.435639 5.437819 5.569059
v 12.184343 5.619476 5.603839
v 12.785435 5.678996 5.586659
v 12.242442 5.686296 5.588869
v 12.985533 5.904083 5.600959
v 12.650237 5.991292 5.605669
v 12.361140 5.416459 5.583689
v 12.141244 5.455469 5.588019
v 12.144244 5.517408 5.588379
v 12.884434 5.767715 5.598479
v 12.935234 5.853884 5.620188
v 12.984033 5.939623 5.600569
v 12.928634 6.041231 5.606869
v 12.182343 5.418109 5.590089
v 12.290442 5.454819 5.619719
v 12.492339 5.520168 5.605679
v 12.185043 5.505208 5.628328
v 12.315941 5.737985 5.639899
v 12.550938 5.930683 5.619549
v 12.954034 5.992812 5.622219
v 12.884734 6.056341 5.615519
v 12.837035 6.046911 5.636259
v 12.220842 5.477388 5.627489
v 12.676237 5.637306 5.614299
v 12.184643 5.577297 5.621208
v 12.241242 5.650466 5.634868
v 12.796236 5.739195 5.625498
v 12.448339 5.845134 5.633759
v 12.964433 5.930763 5.621698
v 12.566838 5.925383 5.651638
v 12.632637 5.970752 5.642159
v 12.716836 6.007452 5.638928
v 12.904334 6.037621 5.627649
v 12.251143 5.533458 5.653478
v 12.440540 5.562128 5.648798
v 12.636337 5.662586 5.642738
v 12.374241 5.582597 5.663848
v 12.238442 5.595127 5.650878
v 12.618338 5.710656 5.670038
v 12.364242 5.734955 5.665828
v 12.807335 5.807234 5.654428
v 12.417140 5.800864 5.655408
v 12.499939 5.857113 5.661368
v 12.911034 5.930953 5.653248
v 12.627637 5.946902 5.658768
v 12.742636 5.987952 5.664218
v 12.862334 5.998272 5.653558
v 12.387440 5.677196 5.672958
v 12.603937 5.767954 5.681578
v 12.647937 5.857183 5.687148
v 12.579739 5.867544 5.671058
v 12.767236 5.838194 5.670608
v 12.764336 5.899473 5.672688
v 12.719537 5.922193 5.669458
v 12.815536 5.917453 5.692098
v 12.728836 5.923993 5.694478
v 12.831635 5.973852 5.696017
v 12.696501 5.841859 5.699999
v 12.840936 5.905027 5.699999
v 12.686580 5.847577 5.699999
v 12.690926 5.929885 5.699999
v 12.729680 5.950623 5.699999
v 12.684157 5.905342 5.699999
v 12.842529 5.933512 5.699999
v 12.789659 5.975438 5.699999
v 12.851118 5.975937 5.699999
v 12.845247 5.988230 5.699999
v 12.825557 5.985808 5.699999
vn -0.0614 0.0167 -0.9980
vn -0.1576 -0.3438 -0.9257
vn -0.3148 0.0630 -0.9471
vn 0.1327 -0.3954 -0.9089
vn 0.1045 -0.0176 -0.9944
vn 0.3005 -0.3297 -0.8950
vn -0.1467 0.3180 -0.9367
vn -0.3440 0.3691 -0.8634
vn -0.0097 0.2418 -0.9703
vn 0.1433 0.0625 -0.9877
vn -0.1282 -0.6815 -0.7205
vn -0.4859 -0.5051 -0.7132
vn 0.1606 -0.6574 -0.7363
vn 0.3199 -0.6726 -0.6672
vn -0.5853 -0.2275 -0.7783
vn -0.6193 0.0890 -0.7801
vn 0.4557 -0.6929 -0.5588
vn 0.4928 -0.5777 -0.6507
vn 0.3196 -0.1871 -0.9289
vn -0.0864 0.4076 -0.9091
vn -0.2324 0.5026 -0.8327
vn 0.1792 0.0714 -0.9812
vn 0.0352 0.2505 -0.9675
vn 0.0269 -0.8529 -0.5215
vn 0.2683 -0.8443 -0.4639
vn 0.3955 -0.8333 -0.3862
vn 0.4589 -0.8192 -0.3439
vn -0.8780 -0.1091 -0.4662
vn -0.5981 0.4209 -0.6820
vn -0.8248 0.2672 -0.4983
vn -0.4166 0.5853 -0.6956
vn 0.5149 -0.4588 -0.7241
vn 0.3658 -0.0293 -0.9302
vn 0.1573 0.2324 -0.9598
vn 0.0012 0.3757 -0.9267
vn -0.3741 -0.7791 -0.5031
vn 0.2542 -0.9360 -0.2437
vn -0.7219 -0.4674 -0.5102
vn 0.3842 -0.9077 -0.1688
vn 0.5331 -0.8251 -0.1874
vn 0.5725 -0.7199 -0.3924
vn 0.6065 -0.3102 -0.7321
vn -0.3510 0.6564 -0.6678
vn 0.6005 0.0031 -0.7996
vn -0.1887 0.5620 -0.8053
vn 0.3341 0.1840 -0.9244
vn 0.0879 0.3799 -0.9209
vn -0.0699 0.5358 -0.8415
vn -0.0120 -0.9541 -0.2994
vn 0.4596 -0.8842 -0.0831
vn 0.4917 -0.8620 -0.1236
vn -0.6784 0.5525 -0.4843
vn 0.6614 -0.6199 -0.4222
vn -0.4895 0.6715 -0.5563
vn 0.7468 -0.3629 -0.5573
vn 0.2599 0.3500 -0.9000
vn -0.4189 -0.8811 -0.2194
vn -0.6871 -0.6163 -0.3848
vn -0.9099 0.3100 -0.2757
vn 0.5792 -0.7999 -0.1572
vn -0.8141 0.5286 -0.2405
vn -0.6511 0.6763 -0.3445
vn -0.5605 0.7632 -0.3216
vn -0.4785 0.7880 -0.3874
vn -0.4166 0.7894 -0.4509
vn -0.3073 0.7483 -0.5879
vn -0.1686 0.6227 -0.7641
vn 0.0620 0.5696 -0.8196
vn -0.0557 -0.9975 -0.0426
vn 0.2209 -0.9727 -0.0712
vn 0.4105 -0.9115 0.0257
vn -0.8954 -0.3825 -0.2277
vn -0.9871 0.0816 -0.1378
vn 0.5041 -0.8628 0.0383
vn 0.6632 -0.7459 -0.0617
vn -0.7692 0.6375 -0.0438
vn 0.7822 -0.5671 -0.2580
vn 0.8329 -0.2373 -0.4999
vn 0.5150 0.3052 -0.8010
vn -0.1673 0.7165 -0.6773
vn 0.2986 0.5151 -0.8034
vn -0.0034 0.6925 -0.7214
vn -0.7773 -0.6148 -0.1336
vn 0.5487 -0.8257 0.1305
vn -0.6540 0.7484 -0.1105
vn 0.8527 -0.5205 -0.0441
vn 0.7701 0.2017 -0.6051
vn -0.3335 0.8418 -0.4245
vn 0.3071 0.6546 -0.6907
vn -0.5625 -0.8172 0.1259
vn 0.1938 -0.9761 0.0981
vn -0.9194 0.3934 0.0030
vn -0.5675 0.8161 -0.1097
vn -0.4584 0.8399 -0.2907
vn 0.9128 -0.0377 -0.4066
vn 0.6630 0.4762 -0.5777
vn -0.1107 0.8146 -0.5693
vn -0.1526 -0.9638 0.2185
vn -0.9837 -0.1602 0.0821
vn 0.5113 -0.8423 0.1704
vn 0.6454 -0.7459 0.1644
vn -0.6872 0.7226 0.0753
vn 0.9666 -0.2454 -0.0736
vn -0.4414 0.8762 -0.1937
vn -0.2176 0.8910 -0.3984
vn 0.1663 0.8249 -0.5403
vn 0.6404 0.6705 -0.3745
vn -0.9041 -0.3968 0.1588
vn 0.4517 -0.8727 0.1852
vn -0.9772 0.1617 0.1377
vn -0.8156 0.5613 0.1401
vn -0.5258 0.8394 -0.1376
vn 0.9553 0.1980 -0.2197
vn 0.8433 0.4144 -0.3423
vn 0.3472 -0.9119 0.2189
vn 0.5233 -0.7815 0.3399
vn 0.5448 -0.7577 0.3593
vn 0.7181 -0.6350 0.2849
vn 0.8603 -0.4140 0.2974
vn -0.0359 0.9392 -0.3414
vn -0.2923 0.9261 -0.2385
vn 0.4018 0.8734 -0.2751
vn 0.1029 -0.9171 0.3852
vn -0.6941 -0.5705 0.4391
vn -0.9337 0.2529 0.2534
vn 0.5701 -0.7037 0.4240
vn 0.9930 -0.0286 0.1145
vn 0.9196 0.3927 -0.0034
vn -0.3231 -0.7646 0.5576
vn -0.9211 -0.0937 0.3779
vn 0.4543 -0.8180 0.3529
vn -0.6299 0.7545 0.1845
vn -0.5789 0.8106 0.0878
vn 0.1626 0.9806 -0.1098
vn 0.3508 -0.8309 0.4318
vn -0.7085 -0.3939 0.5855
vn 0.4290 -0.6941 0.5781
vn 0.4447 -0.6648 0.6002
vn -0.8468 0.3093 0.4328
vn 0.6695 -0.5531 0.4958
vn -0.5201 0.8539 -0.0169
vn 0.7818 0.6234 0.0098
vn -0.3180 0.9453 0.0724
vn -0.1509 0.9878 -0.0372
vn -0.0934 -0.6736 0.7331
vn 0.2067 -0.7207 0.6617
vn 0.3654 -0.7109 0.6009
vn -0.7226 0.5046 0.4725
vn 0.4630 -0.6421 0.6110
vn -0.6947 0.6578 0.2910
vn 0.8388 -0.2009 0.5060
vn -0.4473 0.8822 0.1472
vn 0.2662 -0.6312 0.7285
vn -0.7061 -0.2282 0.6703
vn -0.8151 0.0746 0.5744
vn 0.5089 -0.5672 0.6475
vn 0.5445 -0.3869 0.7442
vn 0.8993 0.1721 0.4020
vn 0.5576 0.7961 0.2352
vn -0.3347 -0.4651 0.8196
vn 0.0711 -0.4583 0.8860
vn 0.2942 -0.5359 0.7913
vn -0.4633 -0.1337 0.8760
vn -0.5697 0.5901 0.5721
vn -0.5356 0.8068 0.2494
vn 0.6810 0.3456 0.6456
vn 0.1411 0.9357 0.3234
vn -0.0624 0.7824 0.6197
vn -0.1555 -0.3989 0.9037
vn 0.3506 -0.5477 0.7597
vn -0.6330 0.1892 0.7507
vn -0.5634 0.4119 0.7162
vn 0.3633 -0.4718 0.8034
vn -0.5427 0.7022 0.4609
vn 0.6162 -0.0357 0.7868
vn -0.4331 0.6373 0.6374
vn -0.3875 0.7671 0.5112
vn -0.2922 0.7684 0.5693
vn 0.3299 0.5576 0.7618
vn -0.1256 -0.2019 0.9713
vn 0.1946 -0.4263 0.8834
vn 0.2780 -0.4443 0.8517
vn 0.0516 -0.2353 0.9705
vn -0.3594 0.1100 0.9267
vn 0.1755 -0.2814 0.9434
vn -0.2973 0.2708 0.9156
vn 0.2895 -0.3230 0.9010
vn -0.4308 0.5386 0.7241
vn -0.3225 0.4259 0.8453
vn 0.3208 -0.0428 0.9462
vn -0.2296 0.4631 0.8561
vn -0.0838 0.3587 0.9297
vn 0.1594 0.2377 0.9582
vn -0.0981 0.0191 0.9950
vn 0.0724 -0.1096 0.9913
vn -0.0302 0.1308 0.9910
vn -0.1298 0.2165 0.9676
vn 0.1602 -0.1312 0.9783
vn 0.0953 0.0459 0.9944
vn -0.0064 0.1927 0.9812
vn 0.8424 -0.5183 0.1476
vn 0.9824 -0.0712 0.1726
vn -0.3820 0.9174 0.1116
vn 0.1425 -0.1175 -0.9828
vn -0.0897 0.0776 -0.9929
vn 0.0700 0.1355 -0.9883
vn 0.9873 0.1329 0.0870
vn 0.5227 0.8491 0.0769
vn -0.2237 0.9625 0.1536
vn -0.2402 -0.9681 0.0708
vn -0.8533 0.5176 0.0624
vn -0.3953 0.9126 0.1048
vn -0.9961 0.0551 0.0682
vn -0.7817 -0.6230 0.0293
usemtl mtl1.1509
s 1
f 1//1 2//2 3//3
f 4//4 2//2 1//1
f 5//5 4//4 1//1
f 6//6 4//4 5//5
f 1//1 3//3 7//7
f 7//7 3//3 8//8
f 9//9 1//1 7//7
f 5//5 1//1 9//9
f 10//10 5//5 9//9
f 6//6 5//5 10//10
f 11//11 12//12 2//2
f 13//13 11//11 2//2
f 13//13 4//4 14//14
f 4//4 13//13 2//2
f 12//12 15//15 2//2
f 3//3 15//15 16//16
f 2//2 15//15 3//3
f 14//14 4//4 6//6
f 6//6 17//17 14//14
f 18//18 17//17 6//6
f 16//16 8//8 3//3
f 19//19 18//18 6//6
f 19//19 6//6 10//10
f 7//7 20//20 9//9
f 21//21 7//7 8//8
f 19//19 10//10 22//22
f 20//20 7//7 21//21
f 10//10 9//9 23//23
f 22//22 10//10 23//23
f 23//23 9//9 20//20
f 11//11 13//13 24//24
f 24//24 13//13 25//25
f 13//13 26//26 25//25
f 13//13 14//14 26//26
f 14//14 27//27 26//26
f 17//17 27//27 14//14
f 16//16 15//15 28//28
f 29//29 16//16 30//30
f 16//16 29//29 8//8
f 8//8 29//29 31//31
f 18//18 19//19 32//32
f 32//32 19//19 33//33
f 31//31 21//21 8//8
f 33//33 19//19 22//22
f 34//34 22//22 23//23
f 33//33 22//22 34//34
f 35//35 23//23 20//20
f 35//35 34//34 23//23
f 12//12 11//11 36//36
f 25//25 37//37 24//24
f 12//12 36//36 38//38
f 25//25 26//26 39//39
f 12//12 38//38 15//15
f 17//17 40//40 27//27
f 28//28 30//30 16//16
f 40//40 17//17 18//18
f 18//18 32//32 41//41
f 32//32 33//33 42//42
f 31//31 43//43 21//21
f 42//42 33//33 44//44
f 21//21 45//45 20//20
f 44//44 33//33 46//46
f 45//45 21//21 43//43
f 34//34 46//46 33//33
f 35//35 47//47 34//34
f 35//35 20//20 48//48
f 46//46 34//34 47//47
f 47//47 35//35 48//48
f 36//36 24//24 49//49
f 24//24 37//37 49//49
f 24//24 36//36 11//11
f 25//25 39//39 37//37
f 26//26 50//50 39//39
f 28//28 15//15 38//38
f 27//27 51//51 26//26
f 26//26 51//51 50//50
f 41//41 40//40 18//18
f 30//30 52//52 29//29
f 29//29 52//52 31//31
f 32//32 42//42 53//53
f 31//31 52//52 54//54
f 31//31 54//54 43//43
f 55//55 42//42 44//44
f 45//45 48//48 20//20
f 47//47 56//56 46//46
f 36//36 57//57 58//58
f 36//36 58//58 38//38
f 59//59 30//30 28//28
f 40//40 41//41 60//60
f 59//59 52//52 30//30
f 41//41 32//32 53//53
f 52//52 61//61 62//62
f 52//52 62//62 54//54
f 42//42 55//55 53//53
f 54//54 62//62 63//63
f 54//54 63//63 64//64
f 43//43 54//54 64//64
f 65//65 43//43 64//64
f 66//66 43//43 65//65
f 43//43 66//66 45//45
f 67//67 45//45 66//66
f 45//45 67//67 48//48
f 48//48 68//68 47//47
f 47//47 68//68 56//56
f 57//57 49//49 69//69
f 49//49 57//57 36//36
f 37//37 70//70 49//49
f 39//39 50//50 71//71
f 72//72 38//38 58//58
f 28//28 72//72 73//73
f 38//38 72//72 28//28
f 51//51 74//74 50//50
f 73//73 59//59 28//28
f 27//27 40//40 51//51
f 59//59 61//61 52//52
f 53//53 60//60 41//41
f 53//53 75//75 60//60
f 62//62 61//61 76//76
f 77//77 53//53 55//55
f 78//78 77//77 55//55
f 44//44 78//78 55//55
f 44//44 46//46 79//79
f 46//46 56//56 79//79
f 67//67 80//80 48//48
f 68//68 81//81 56//56
f 79//79 56//56 81//81
f 80//80 67//67 66//66
f 48//48 82//82 68//68
f 80//80 82//82 48//48
f 37//37 71//71 70//70
f 57//57 83//83 58//58
f 39//39 71//71 37//37
f 40//40 74//74 51//51
f 84//84 74//74 40//40
f 40//40 60//60 84//84
f 53//53 77//77 75//75
f 62//62 76//76 85//85
f 62//62 85//85 63//63
f 86//86 77//77 78//78
f 87//87 78//78 44//44
f 79//79 87//87 44//44
f 80//80 66//66 88//88
f 68//68 89//89 81//81
f 89//89 79//79 81//81
f 89//89 68//68 82//82
f 83//83 57//57 90//90
f 69//69 49//49 91//91
f 49//49 70//70 91//91
f 50//50 74//74 71//71
f 59//59 92//92 61//61
f 75//75 84//84 60//60
f 93//93 63//63 85//85
f 64//64 63//63 93//93
f 65//65 64//64 94//94
f 87//87 95//95 78//78
f 66//66 65//65 94//94
f 66//66 94//94 88//88
f 89//89 96//96 79//79
f 80//80 88//88 97//97
f 82//82 80//80 97//97
f 57//57 98//98 90//90
f 98//98 57//57 69//69
f 83//83 72//72 58//58
f 73//73 72//72 99//99
f 100//100 74//74 84//84
f 92//92 59//59 73//73
f 92//92 76//76 61//61
f 101//101 84//84 75//75
f 75//75 77//77 101//101
f 102//102 85//85 76//76
f 101//101 77//77 86//86
f 85//85 102//102 93//93
f 86//86 78//78 103//103
f 78//78 95//95 103//103
f 64//64 93//93 94//94
f 87//87 79//79 96//96
f 94//94 104//104 88//88
f 97//97 88//88 105//105
f 106//106 82//82 97//97
f 89//89 82//82 106//106
f 89//89 106//106 107//107
f 69//69 91//91 98//98
f 70//70 71//71 91//91
f 108//108 72//72 83//83
f 74//74 109//109 71//71
f 74//74 100//100 109//109
f 110//110 92//92 73//73
f 111//111 76//76 92//92
f 94//94 93//93 112//112
f 103//103 95//95 113//113
f 95//95 87//87 113//113
f 94//94 112//112 104//104
f 87//87 96//96 114//114
f 87//87 114//114 113//113
f 96//96 89//89 107//107
f 83//83 90//90 108//108
f 109//109 115//115 71//71
f 72//72 108//108 99//99
f 99//99 110//110 73//73
f 84//84 116//116 100//100
f 84//84 117//117 116//116
f 101//101 117//117 84//84
f 111//111 102//102 76//76
f 118//118 101//101 86//86
f 119//119 118//118 86//86
f 86//86 103//103 119//119
f 96//96 107//107 114//114
f 120//120 105//105 121//121
f 97//97 105//105 120//120
f 97//97 120//120 106//106
f 107//107 106//106 122//122
f 123//123 98//98 91//91
f 91//91 115//115 123//123
f 71//71 115//115 91//91
f 108//108 90//90 124//124
f 110//110 125//125 92//92
f 92//92 125//125 111//111
f 126//126 117//117 101//101
f 126//126 101//101 118//118
f 119//119 103//103 127//127
f 103//103 113//113 127//127
f 113//113 114//114 128//128
f 88//88 104//104 121//121
f 88//88 121//121 105//105
f 120//120 122//122 106//106
f 90//90 98//98 129//129
f 124//124 90//90 129//129
f 108//108 130//130 99//99
f 109//109 100//100 131//131
f 93//93 102//102 132//132
f 93//93 132//132 133//133
f 112//112 93//93 133//133
f 127//127 113//113 128//128
f 114//114 107//107 128//128
f 122//122 120//120 134//134
f 98//98 123//123 129//129
f 115//115 135//135 123//123
f 124//124 136//136 108//108
f 115//115 109//109 135//135
f 109//109 131//131 135//135
f 130//130 108//108 136//136
f 99//99 130//130 110//110
f 116//116 137//137 131//131
f 116//116 131//131 100//100
f 130//130 125//125 110//110
f 116//116 138//138 137//137
f 125//125 139//139 111//111
f 116//116 117//117 138//138
f 140//140 126//126 118//118
f 118//118 119//119 140//140
f 141//141 112//112 133//133
f 112//112 141//141 104//104
f 107//107 142//142 128//128
f 121//121 104//104 143//143
f 122//122 142//142 107//107
f 120//120 121//121 144//144
f 123//123 145//145 129//129
f 135//135 146//146 123//123
f 129//129 136//136 124//124
f 131//131 147//147 135//135
f 131//131 137//137 147//147
f 148//148 111//111 139//139
f 117//117 149//149 138//138
f 117//117 126//126 149//149
f 111//111 148//148 150//150
f 150//150 102//102 111//111
f 151//151 119//119 127//127
f 141//141 152//152 104//104
f 104//104 152//152 143//143
f 121//121 143//143 144//144
f 144//144 134//134 120//120
f 123//123 146//146 145//145
f 153//153 146//146 135//135
f 147//147 153//153 135//135
f 130//130 136//136 154//154
f 154//154 155//155 130//130
f 130//130 155//155 125//125
f 125//125 155//155 139//139
f 126//126 156//156 149//149
f 126//126 140//140 156//156
f 102//102 150//150 132//132
f 119//119 157//157 140//140
f 151//151 157//157 119//119
f 127//127 128//128 158//158
f 122//122 134//134 159//159
f 142//142 122//122 159//159
f 145//145 160//160 129//129
f 129//129 160//160 136//136
f 161//161 160//160 145//145
f 146//146 161//161 145//145
f 153//153 161//161 146//146
f 136//136 160//160 154//154
f 162//162 153//153 147//147
f 147//147 137//137 162//162
f 155//155 154//154 163//163
f 138//138 162//162 137//137
f 150//150 164//164 132//132
f 141//141 133//133 165//165
f 127//127 158//158 151//151
f 141//141 165//165 152//152
f 128//128 166//166 158//158
f 142//142 159//159 166//166
f 142//142 166//166 128//128
f 134//134 144//144 167//167
f 144//144 168//168 167//167
f 161//161 169//169 160//160
f 160//160 163//163 154//154
f 163//163 160//160 169//169
f 153//153 162//162 161//161
f 162//162 138//138 170//170
f 139//139 171//171 148//148
f 139//139 155//155 171//171
f 149//149 170//170 138//138
f 172//172 148//148 171//171
f 148//148 172//172 150//150
f 149//149 173//173 170//170
f 149//149 156//156 173//173
f 150//150 172//172 164//164
f 164//164 174//174 132//132
f 140//140 157//157 156//156
f 132//132 174//174 133//133
f 175//175 157//157 151//151
f 133//133 174//174 165//165
f 174//174 176//176 165//165
f 158//158 175//175 151//151
f 165//165 177//177 152//152
f 143//143 152//152 178//178
f 144//144 143//143 168//168
f 167//167 159//159 134//134
f 167//167 179//179 159//159
f 161//161 180//180 169//169
f 162//162 181//181 161//161
f 180//180 163//163 169//169
f 163//163 171//171 155//155
f 182//182 181//181 162//162
f 162//162 170//170 182//182
f 170//170 173//173 182//182
f 157//157 173//173 156//156
f 175//175 158//158 166//166
f 165//165 176//176 177//177
f 152//152 177//177 178//178
f 166//166 159//159 179//179
f 168//168 143//143 178//178
f 168//168 179//179 167//167
f 161//161 183//183 180//180
f 161//161 181//181 183//183
f 180//180 184//184 163//163
f 184//184 171//171 163//163
f 183//183 181//181 185//185
f 184//184 172//172 171//171
f 182//182 185//185 181//181
f 186//186 172//172 184//184
f 185//185 182//182 187//187
f 164//164 172//172 186//186
f 188//188 164//164 186//186
f 173//173 187//187 182//182
f 174//174 164//164 188//188
f 188//188 189//189 174//174
f 157//157 187//187 173//173
f 189//189 176//176 174//174
f 157//157 190//190 187//187
f 157//157 175//175 190//190
f 176//176 189//189 191//191
f 175//175 166//166 190//190
f 191//191 177//177 176//176
f 192//192 178//178 191//191
f 178//178 177//177 191//191
f 190//190 166//166 193//193
f 166//166 179//179 193//193
f 168//168 192//192 193//193
f 168//168 178//178 192//192
f 179//179 168//168 193//193
f 194//194 184//184 180//180
f 183//183 194//194 180//180
f 195//195 194//194 183//183
f 185//185 195//195 183//183
f 184//184 194//194 186//186
f 195//195 196//196 194//194
f 196//196 197//197 194//194
f 197//197 186//186 194//194
f 198//198 195//195 185//185
f 187//187 198//198 185//185
f 197//197 189//189 186//186
f 189//189 188//188 186//186
f 199//199 196//196 195//195
f 198//198 199//199 195//195
f 191//191 189//189 197//197
f 196//196 200//200 197//197
f 187//187 190//190 198//198
f 199//199 200//200 196//196
f 192//192 191//191 197//197
f 200//200 192//192 197//197
f 198//198 190//190 199//199
f 193//193 200//200 199//199
f 190//190 193//193 199//199
f 193//193 192//192 200//200
f 205//201 210//202 211//203
f 201//204 210//202 205//201
f 201//204 202//205 203//206
f 212//207 210//202 203//206
f 212//207 203//206 213//208
f 213//208 203//206 214//209
f 205//201 204//210 201//204
f 203//206 211//203 214//209
f 202//205 211//203 203//206
f 202//205 207//211 208//212
f 202//205 209//213 207//211
f 202//205 206//214 209//213
f 204//210 202//205 201//204
f 210//202 212//207 214//209
f 212//207 213//208 214//209
f 214//209 211//203 210//202
f 211//203 208//212 205//201
f 208//212 207//211 209//213
f 205//201 208//212 204//210
f 209//213 206//214 204//210
f 208//212 209//213 204//210
f 201//204 203//206 210//202
f 202//205 208//212 211//203
f 204//210 206//214 202//205
