# Blender v2.92.0 OBJ File: 'convert_to_one_sided.blend'
# www.blender.org
mtllib 773L.mtl
o Cube
v 0.001000 0.001000 -0.001000
v 0.001000 -0.001000 -0.001000
v 0.001000 0.001000 0.001000
v 0.001000 -0.001000 0.001000
v -0.001000 0.001000 -0.001000
v -0.001000 -0.001000 -0.001000
v -0.001000 0.001000 0.001000
v -0.001000 -0.001000 0.001000
vt 0.625000 0.500000
vt 0.875000 0.500000
vt 0.875000 0.750000
vt 0.625000 0.750000
vt 0.375000 0.750000
vt 0.625000 1.000000
vt 0.375000 1.000000
vt 0.375000 0.000000
vt 0.625000 0.000000
vt 0.625000 0.250000
vt 0.375000 0.250000
vt 0.125000 0.500000
vt 0.375000 0.500000
vt 0.125000 0.750000
vn 0.0000 1.0000 0.0000
vn 0.0000 0.0000 1.0000
vn -1.0000 0.0000 0.0000
vn 0.0000 -1.0000 0.0000
vn 1.0000 0.0000 0.0000
vn 0.0000 0.0000 -1.0000
usemtl Material
s off
f 1/1/1 5/2/1 7/3/1 3/4/1
f 4/5/2 3/4/2 7/6/2 8/7/2
f 8/8/3 7/9/3 5/10/3 6/11/3
f 6/12/4 2/13/4 4/5/4 8/14/4
f 2/13/5 1/1/5 3/4/5 4/5/5
f 6/11/6 5/10/6 1/1/6 2/13/6
o 773
v 12.342241 5.491768 5.214384
v 12.265742 5.427199 5.233324
v 12.234942 5.487018 5.232704
v 12.415440 5.461849 5.224404
v 12.475240 5.526448 5.217004
v 12.550339 5.513748 5.235193
v 12.339242 5.576597 5.235233
v 12.231243 5.557247 5.252553
v 12.465540 5.592357 5.231114
v 12.574538 5.591997 5.237723
v 12.249043 5.382380 5.261054
v 12.196143 5.396420 5.271913
v 12.353641 5.402979 5.254223
v 12.485939 5.454059 5.250583
v 12.181643 5.440819 5.264253
v 12.168143 5.497468 5.269733
v 12.582539 5.493858 5.265013
v 12.665037 5.548278 5.274443
v 12.669936 5.598297 5.258493
v 12.512539 5.703666 5.266273
v 12.368340 5.668406 5.273763
v 12.676137 5.655426 5.254704
v 12.610238 5.671326 5.253883
v 12.285142 5.360790 5.288983
v 12.366041 5.376480 5.284813
v 12.461639 5.417779 5.286113
v 12.553239 5.466639 5.284583
v 12.118943 5.457069 5.329672
v 12.171943 5.549578 5.280333
v 12.136643 5.518178 5.310232
v 12.256542 5.627897 5.289343
v 12.755936 5.613857 5.290633
v 12.780036 5.683166 5.284093
v 12.732836 5.731975 5.278303
v 12.670437 5.765455 5.285013
v 12.198942 5.361690 5.313542
v 12.320842 5.345380 5.336912
v 12.152744 5.400159 5.324192
v 12.391840 5.374330 5.332152
v 12.657037 5.519448 5.322462
v 12.737836 5.577947 5.318392
v 12.837535 5.680006 5.313723
v 12.391541 5.753075 5.326743
v 12.903634 5.785174 5.349202
v 12.526539 5.799675 5.319122
v 12.837934 5.805025 5.322032
v 12.778336 5.828704 5.315192
v 12.687936 5.857883 5.333252
v 12.247142 5.328600 5.360902
v 12.467740 5.405809 5.349412
v 12.543139 5.453519 5.322052
v 12.170744 5.587577 5.323392
v 12.825635 5.641527 5.339462
v 12.274242 5.689396 5.336682
v 12.891034 5.720396 5.352932
v 12.865735 5.884604 5.349652
v 12.176143 5.326460 5.398511
v 12.149444 5.361070 5.371072
v 12.119344 5.527308 5.361542
v 12.776336 5.593527 5.354882
v 12.145043 5.592487 5.375532
v 12.206943 5.654926 5.364282
v 12.270142 5.717775 5.380822
v 12.357441 5.772204 5.381382
v 12.452640 5.826164 5.375342
v 12.545438 5.865344 5.369972
v 12.615438 5.866774 5.348682
v 12.841035 5.912093 5.362232
v 12.213943 5.311521 5.419271
v 12.287642 5.324461 5.395761
v 12.380840 5.364830 5.404362
v 12.111943 5.402130 5.401661
v 12.097944 5.474978 5.414011
v 12.553638 5.457959 5.397791
v 12.848035 5.642527 5.383282
v 12.171443 5.638816 5.432961
v 12.904534 5.707646 5.389331
v 12.954933 5.795724 5.404581
v 12.919234 5.896773 5.379692
v 12.696836 5.928653 5.386501
v 12.891534 5.918893 5.375202
v 12.817235 5.956492 5.397882
v 12.136844 5.353690 5.426021
v 12.733636 5.571147 5.423851
v 12.236342 5.701546 5.428971
v 12.960033 5.764165 5.450071
v 12.971233 5.885024 5.423191
v 12.663837 5.960172 5.447411
v 12.906034 5.958103 5.413012
v 12.145244 5.337740 5.478290
v 12.267042 5.323030 5.440831
v 12.117944 5.548707 5.441771
v 12.356940 5.797864 5.474720
v 12.489039 5.865213 5.431591
v 12.989233 5.857843 5.440861
v 12.953933 5.947992 5.435061
v 12.781635 5.992132 5.443571
v 12.197143 5.323171 5.468370
v 12.093245 5.434289 5.463181
v 12.574138 5.475978 5.472401
v 12.876235 5.682346 5.454161
v 12.245442 5.708975 5.507860
v 12.990533 5.841714 5.465460
v 12.618637 5.967972 5.527010
v 12.770135 6.016482 5.484390
v 12.882434 6.008282 5.462591
v 12.954432 5.995032 5.494260
v 12.118644 5.384320 5.486701
v 12.437440 5.399700 5.479490
v 12.098845 5.482629 5.479120
v 12.160543 5.611287 5.529970
v 12.493439 5.893473 5.523940
v 12.997533 5.905213 5.482660
v 12.976633 5.943303 5.480550
v 12.326841 5.348030 5.482190
v 12.638238 5.529918 5.516740
v 12.760036 5.615927 5.517320
v 12.938133 5.748085 5.503840
v 12.976933 5.832644 5.538350
v 12.838735 6.040671 5.520720
v 12.742336 6.020412 5.531550
v 12.920433 6.035921 5.546979
v 12.242043 5.337380 5.524220
v 12.134443 5.358850 5.519400
v 12.121044 5.529228 5.533110
v 12.864235 5.705776 5.542269
v 12.996432 5.908693 5.547340
v 12.982932 5.967542 5.551130
v 12.169844 5.354970 5.534229
v 12.114544 5.456199 5.533790
v 12.498439 5.448319 5.528980
v 12.334941 5.779974 5.582189
v 12.455740 5.870714 5.574679
v 12.889034 6.057121 5.586729
v 12.358741 5.384070 5.538809
v 12.138544 5.397769 5.545079
v 12.540339 5.491259 5.563479
v 12.638837 5.566257 5.572129
v 12.150643 5.574597 5.585609
v 12.929934 5.784764 5.567679
v 12.563039 5.942633 5.573529
v 12.958034 6.012392 5.573839
v 12.741436 6.035902 5.596479
v 12.827735 6.051641 5.587209
v 12.220543 5.365410 5.574110
v 12.281941 5.375640 5.571399
v 12.435639 5.437819 5.569059
v 12.184343 5.619476 5.603839
v 12.785435 5.678996 5.586659
v 12.242442 5.686296 5.588869
v 12.985533 5.904083 5.600959
v 12.650237 5.991292 5.605669
v 12.361140 5.416459 5.583689
v 12.141244 5.455469 5.588019
v 12.144244 5.517408 5.588379
v 12.884434 5.767715 5.598479
v 12.935234 5.853884 5.620188
v 12.984033 5.939623 5.600569
v 12.928634 6.041231 5.606869
v 12.182343 5.418109 5.590089
v 12.290442 5.454819 5.619719
v 12.492339 5.520168 5.605679
v 12.185043 5.505208 5.628328
v 12.315941 5.737985 5.639899
v 12.550938 5.930683 5.619549
v 12.954034 5.992812 5.622219
v 12.884734 6.056341 5.615519
v 12.837035 6.046911 5.636259
v 12.220842 5.477388 5.627489
v 12.676237 5.637306 5.614299
v 12.184643 5.577297 5.621208
v 12.241242 5.650466 5.634868
v 12.796236 5.739195 5.625498
v 12.448339 5.845134 5.633759
v 12.964433 5.930763 5.621698
v 12.566838 5.925383 5.651638
v 12.632637 5.970752 5.642159
v 12.716836 6.007452 5.638928
v 12.904334 6.037621 5.627649
v 12.251143 5.533458 5.653478
v 12.440540 5.562128 5.648798
v 12.636337 5.662586 5.642738
v 12.374241 5.582597 5.663848
v 12.238442 5.595127 5.650878
v 12.618338 5.710656 5.670038
v 12.364242 5.734955 5.665828
v 12.807335 5.807234 5.654428
v 12.417140 5.800864 5.655408
v 12.499939 5.857113 5.661368
v 12.911034 5.930953 5.653248
v 12.627637 5.946902 5.658768
v 12.742636 5.987952 5.664218
v 12.862334 5.998272 5.653558
v 12.387440 5.677196 5.672958
v 12.603937 5.767954 5.681578
v 12.647937 5.857183 5.687148
v 12.579739 5.867544 5.671058
v 12.767236 5.838194 5.670608
v 12.764336 5.899473 5.672688
v 12.719537 5.922193 5.669458
v 12.815536 5.917453 5.692098
v 12.728836 5.923993 5.694478
v 12.831635 5.973852 5.696017
v 12.696501 5.841859 5.699999
v 12.840936 5.905027 5.699999
v 12.686580 5.847577 5.699999
v 12.690926 5.929885 5.699999
v 12.729680 5.950623 5.699999
v 12.684157 5.905342 5.699999
v 12.842529 5.933512 5.699999
v 12.789659 5.975438 5.699999
v 12.851118 5.975937 5.699999
v 12.845247 5.988230 5.699999
v 12.825557 5.985808 5.699999
vn -0.0614 0.0167 -0.9980
vn -0.1576 -0.3438 -0.9257
vn -0.3148 0.0630 -0.9471
vn 0.1327 -0.3954 -0.9089
vn 0.1045 -0.0176 -0.9944
vn 0.3005 -0.3297 -0.8950
vn -0.1467 0.3180 -0.9367
vn -0.3440 0.3691 -0.8634
vn -0.0097 0.2418 -0.9703
vn 0.1433 0.0625 -0.9877
vn -0.1282 -0.6815 -0.7205
vn -0.4859 -0.5051 -0.7132
vn 0.1606 -0.6574 -0.7363
vn 0.3199 -0.6726 -0.6672
vn -0.5853 -0.2275 -0.7783
vn -0.6193 0.0890 -0.7801
vn 0.4557 -0.6929 -0.5588
vn 0.4928 -0.5777 -0.6507
vn 0.3196 -0.1871 -0.9289
vn -0.0864 0.4076 -0.9091
vn -0.2324 0.5026 -0.8327
vn 0.1792 0.0714 -0.9812
vn 0.0352 0.2505 -0.9675
vn 0.0269 -0.8529 -0.5215
vn 0.2683 -0.8443 -0.4639
vn 0.3955 -0.8333 -0.3862
vn 0.4589 -0.8192 -0.3439
vn -0.8780 -0.1091 -0.4662
vn -0.5981 0.4209 -0.6820
vn -0.8248 0.2672 -0.4983
vn -0.4166 0.5853 -0.6956
vn 0.5149 -0.4588 -0.7241
vn 0.3658 -0.0293 -0.9302
vn 0.1573 0.2324 -0.9598
vn 0.0012 0.3757 -0.9267
vn -0.3741 -0.7791 -0.5031
vn 0.2542 -0.9360 -0.2437
vn -0.7219 -0.4674 -0.5102
vn 0.3842 -0.9077 -0.1688
vn 0.5331 -0.8251 -0.1874
vn 0.5725 -0.7199 -0.3924
vn 0.6065 -0.3102 -0.7321
vn -0.3510 0.6564 -0.6678
vn 0.6005 0.0031 -0.7996
vn -0.1887 0.5620 -0.8053
vn 0.3341 0.1840 -0.9244
vn 0.0879 0.3799 -0.9209
vn -0.0699 0.5358 -0.8415
vn -0.0120 -0.9541 -0.2994
vn 0.4596 -0.8842 -0.0831
vn 0.4917 -0.8620 -0.1236
vn -0.6784 0.5525 -0.4843
vn 0.6614 -0.6199 -0.4222
vn -0.4895 0.6715 -0.5563
vn 0.7468 -0.3629 -0.5573
vn 0.2599 0.3500 -0.9000
vn -0.4189 -0.8811 -0.2194
vn -0.6871 -0.6163 -0.3848
vn -0.9099 0.3100 -0.2757
vn 0.5792 -0.7999 -0.1572
vn -0.8141 0.5286 -0.2405
vn -0.6511 0.6763 -0.3445
vn -0.5605 0.7632 -0.3216
vn -0.4785 0.7880 -0.3874
vn -0.4166 0.7894 -0.4509
vn -0.3073 0.7483 -0.5879
vn -0.1686 0.6227 -0.7641
vn 0.0620 0.5696 -0.8196
vn -0.0557 -0.9975 -0.0426
vn 0.2209 -0.9727 -0.0712
vn 0.4105 -0.9115 0.0257
vn -0.8954 -0.3825 -0.2277
vn -0.9871 0.0816 -0.1378
vn 0.5041 -0.8628 0.0383
vn 0.6632 -0.7459 -0.0617
vn -0.7692 0.6375 -0.0438
vn 0.7822 -0.5671 -0.2580
vn 0.8329 -0.2373 -0.4999
vn 0.5150 0.3052 -0.8010
vn -0.1673 0.7165 -0.6773
vn 0.2986 0.5151 -0.8034
vn -0.0034 0.6925 -0.7214
vn -0.7773 -0.6148 -0.1336
vn 0.5487 -0.8257 0.1305
vn -0.6540 0.7484 -0.1105
vn 0.8527 -0.5205 -0.0441
vn 0.7701 0.2017 -0.6051
vn -0.3335 0.8418 -0.4245
vn 0.3071 0.6546 -0.6907
vn -0.5625 -0.8172 0.1259
vn 0.1938 -0.9761 0.0981
vn -0.9194 0.3934 0.0030
vn -0.5675 0.8161 -0.1097
vn -0.4584 0.8399 -0.2907
vn 0.9128 -0.0377 -0.4066
vn 0.6630 0.4762 -0.5777
vn -0.1107 0.8146 -0.5693
vn -0.1526 -0.9638 0.2185
vn -0.9837 -0.1602 0.0821
vn 0.5113 -0.8423 0.1704
vn 0.6454 -0.7459 0.1644
vn -0.6872 0.7226 0.0753
vn 0.9666 -0.2454 -0.0736
vn -0.4414 0.8762 -0.1937
vn -0.2176 0.8910 -0.3984
vn 0.1663 0.8249 -0.5403
vn 0.6404 0.6705 -0.3745
vn -0.9041 -0.3968 0.1588
vn 0.4517 -0.8727 0.1852
vn -0.9772 0.1617 0.1377
vn -0.8156 0.5613 0.1401
vn -0.5258 0.8394 -0.1376
vn 0.9553 0.1980 -0.2197
vn 0.8433 0.4144 -0.3423
vn 0.3472 -0.9119 0.2189
vn 0.5233 -0.7815 0.3399
vn 0.5448 -0.7577 0.3593
vn 0.7181 -0.6350 0.2849
vn 0.8603 -0.4140 0.2974
vn -0.0359 0.9392 -0.3414
vn -0.2923 0.9261 -0.2385
vn 0.4018 0.8734 -0.2751
vn 0.1029 -0.9171 0.3852
vn -0.6941 -0.5705 0.4391
vn -0.9337 0.2529 0.2534
vn 0.5701 -0.7037 0.4240
vn 0.9930 -0.0286 0.1145
vn 0.9196 0.3927 -0.0034
vn -0.3231 -0.7646 0.5576
vn -0.9211 -0.0937 0.3779
vn 0.4543 -0.8180 0.3529
vn -0.6299 0.7545 0.1845
vn -0.5789 0.8106 0.0878
vn 0.1626 0.9806 -0.1098
vn 0.3508 -0.8309 0.4318
vn -0.7085 -0.3939 0.5855
vn 0.4290 -0.6941 0.5781
vn 0.4447 -0.6648 0.6002
vn -0.8468 0.3093 0.4328
vn 0.6695 -0.5531 0.4958
vn -0.5201 0.8539 -0.0169
vn 0.7818 0.6234 0.0098
vn -0.3180 0.9453 0.0724
vn -0.1509 0.9878 -0.0372
vn -0.0934 -0.6736 0.7331
vn 0.2067 -0.7207 0.6617
vn 0.3654 -0.7109 0.6009
vn -0.7226 0.5046 0.4725
vn 0.4630 -0.6421 0.6110
vn -0.6947 0.6578 0.2910
vn 0.8388 -0.2009 0.5060
vn -0.4473 0.8822 0.1472
vn 0.2662 -0.6312 0.7285
vn -0.7061 -0.2282 0.6703
vn -0.8151 0.0746 0.5744
vn 0.5089 -0.5672 0.6475
vn 0.5445 -0.3869 0.7442
vn 0.8993 0.1721 0.4020
vn 0.5576 0.7961 0.2352
vn -0.3347 -0.4651 0.8196
vn 0.0711 -0.4583 0.8860
vn 0.2942 -0.5359 0.7913
vn -0.4633 -0.1337 0.8760
vn -0.5697 0.5901 0.5721
vn -0.5356 0.8068 0.2494
vn 0.6810 0.3456 0.6456
vn 0.1411 0.9357 0.3234
vn -0.0624 0.7824 0.6197
vn -0.1555 -0.3989 0.9037
vn 0.3506 -0.5477 0.7597
vn -0.6330 0.1892 0.7507
vn -0.5634 0.4119 0.7162
vn 0.3633 -0.4718 0.8034
vn -0.5427 0.7022 0.4609
vn 0.6162 -0.0357 0.7868
vn -0.4331 0.6373 0.6374
vn -0.3875 0.7671 0.5112
vn -0.2922 0.7684 0.5693
vn 0.3299 0.5576 0.7618
vn -0.1256 -0.2019 0.9713
vn 0.1946 -0.4263 0.8834
vn 0.2780 -0.4443 0.8517
vn 0.0516 -0.2353 0.9705
vn -0.3594 0.1100 0.9267
vn 0.1755 -0.2814 0.9434
vn -0.2973 0.2708 0.9156
vn 0.2895 -0.3230 0.9010
vn -0.4308 0.5386 0.7241
vn -0.3225 0.4259 0.8453
vn 0.3208 -0.0428 0.9462
vn -0.2296 0.4631 0.8561
vn -0.0838 0.3587 0.9297
vn 0.1594 0.2377 0.9582
vn -0.0981 0.0191 0.9950
vn 0.0724 -0.1096 0.9913
vn -0.0302 0.1308 0.9910
vn -0.1298 0.2165 0.9676
vn 0.1602 -0.1312 0.9783
vn 0.0953 0.0459 0.9944
vn -0.0064 0.1927 0.9812
vn 0.8424 -0.5183 0.1476
vn 0.9824 -0.0712 0.1726
vn -0.3820 0.9174 0.1116
vn 0.1425 -0.1175 -0.9828
vn -0.0897 0.0776 -0.9929
vn 0.0700 0.1355 -0.9883
vn 0.9873 0.1329 0.0870
vn 0.5227 0.8491 0.0769
vn -0.2237 0.9625 0.1536
vn -0.2402 -0.9681 0.0708
vn -0.8533 0.5176 0.0624
vn -0.3953 0.9126 0.1048
vn -0.9961 0.0551 0.0682
vn -0.7817 -0.6230 0.0293
usemtl mtl1.690
s 1
f 9//7 10//8 11//9
f 12//10 10//8 9//7
f 13//11 12//10 9//7
f 14//12 12//10 13//11
f 9//7 11//9 15//13
f 15//13 11//9 16//14
f 17//15 9//7 15//13
f 13//11 9//7 17//15
f 18//16 13//11 17//15
f 14//12 13//11 18//16
f 19//17 20//18 10//8
f 21//19 19//17 10//8
f 21//19 12//10 22//20
f 12//10 21//19 10//8
f 20//18 23//21 10//8
f 11//9 23//21 24//22
f 10//8 23//21 11//9
f 22//20 12//10 14//12
f 14//12 25//23 22//20
f 26//24 25//23 14//12
f 24//22 16//14 11//9
f 27//25 26//24 14//12
f 27//25 14//12 18//16
f 15//13 28//26 17//15
f 29//27 15//13 16//14
f 27//25 18//16 30//28
f 28//26 15//13 29//27
f 18//16 17//15 31//29
f 30//28 18//16 31//29
f 31//29 17//15 28//26
f 19//17 21//19 32//30
f 32//30 21//19 33//31
f 21//19 34//32 33//31
f 21//19 22//20 34//32
f 22//20 35//33 34//32
f 25//23 35//33 22//20
f 24//22 23//21 36//34
f 37//35 24//22 38//36
f 24//22 37//35 16//14
f 16//14 37//35 39//37
f 26//24 27//25 40//38
f 40//38 27//25 41//39
f 39//37 29//27 16//14
f 41//39 27//25 30//28
f 42//40 30//28 31//29
f 41//39 30//28 42//40
f 43//41 31//29 28//26
f 43//41 42//40 31//29
f 20//18 19//17 44//42
f 33//31 45//43 32//30
f 20//18 44//42 46//44
f 33//31 34//32 47//45
f 20//18 46//44 23//21
f 25//23 48//46 35//33
f 36//34 38//36 24//22
f 48//46 25//23 26//24
f 26//24 40//38 49//47
f 40//38 41//39 50//48
f 39//37 51//49 29//27
f 50//48 41//39 52//50
f 29//27 53//51 28//26
f 52//50 41//39 54//52
f 53//51 29//27 51//49
f 42//40 54//52 41//39
f 43//41 55//53 42//40
f 43//41 28//26 56//54
f 54//52 42//40 55//53
f 55//53 43//41 56//54
f 44//42 32//30 57//55
f 32//30 45//43 57//55
f 32//30 44//42 19//17
f 33//31 47//45 45//43
f 34//32 58//56 47//45
f 36//34 23//21 46//44
f 35//33 59//57 34//32
f 34//32 59//57 58//56
f 49//47 48//46 26//24
f 38//36 60//58 37//35
f 37//35 60//58 39//37
f 40//38 50//48 61//59
f 39//37 60//58 62//60
f 39//37 62//60 51//49
f 63//61 50//48 52//50
f 53//51 56//54 28//26
f 55//53 64//62 54//52
f 44//42 65//63 66//64
f 44//42 66//64 46//44
f 67//65 38//36 36//34
f 48//46 49//47 68//66
f 67//65 60//58 38//36
f 49//47 40//38 61//59
f 60//58 69//67 70//68
f 60//58 70//68 62//60
f 50//48 63//61 61//59
f 62//60 70//68 71//69
f 62//60 71//69 72//70
f 51//49 62//60 72//70
f 73//71 51//49 72//70
f 74//72 51//49 73//71
f 51//49 74//72 53//51
f 75//73 53//51 74//72
f 53//51 75//73 56//54
f 56//54 76//74 55//53
f 55//53 76//74 64//62
f 65//63 57//55 77//75
f 57//55 65//63 44//42
f 45//43 78//76 57//55
f 47//45 58//56 79//77
f 80//78 46//44 66//64
f 36//34 80//78 81//79
f 46//44 80//78 36//34
f 59//57 82//80 58//56
f 81//79 67//65 36//34
f 35//33 48//46 59//57
f 67//65 69//67 60//58
f 61//59 68//66 49//47
f 61//59 83//81 68//66
f 70//68 69//67 84//82
f 85//83 61//59 63//61
f 86//84 85//83 63//61
f 52//50 86//84 63//61
f 52//50 54//52 87//85
f 54//52 64//62 87//85
f 75//73 88//86 56//54
f 76//74 89//87 64//62
f 87//85 64//62 89//87
f 88//86 75//73 74//72
f 56//54 90//88 76//74
f 88//86 90//88 56//54
f 45//43 79//77 78//76
f 65//63 91//89 66//64
f 47//45 79//77 45//43
f 48//46 82//80 59//57
f 92//90 82//80 48//46
f 48//46 68//66 92//90
f 61//59 85//83 83//81
f 70//68 84//82 93//91
f 70//68 93//91 71//69
f 94//92 85//83 86//84
f 95//93 86//84 52//50
f 87//85 95//93 52//50
f 88//86 74//72 96//94
f 76//74 97//95 89//87
f 97//95 87//85 89//87
f 97//95 76//74 90//88
f 91//89 65//63 98//96
f 77//75 57//55 99//97
f 57//55 78//76 99//97
f 58//56 82//80 79//77
f 67//65 100//98 69//67
f 83//81 92//90 68//66
f 101//99 71//69 93//91
f 72//70 71//69 101//99
f 73//71 72//70 102//100
f 95//93 103//101 86//84
f 74//72 73//71 102//100
f 74//72 102//100 96//94
f 97//95 104//102 87//85
f 88//86 96//94 105//103
f 90//88 88//86 105//103
f 65//63 106//104 98//96
f 106//104 65//63 77//75
f 91//89 80//78 66//64
f 81//79 80//78 107//105
f 108//106 82//80 92//90
f 100//98 67//65 81//79
f 100//98 84//82 69//67
f 109//107 92//90 83//81
f 83//81 85//83 109//107
f 110//108 93//91 84//82
f 109//107 85//83 94//92
f 93//91 110//108 101//99
f 94//92 86//84 111//109
f 86//84 103//101 111//109
f 72//70 101//99 102//100
f 95//93 87//85 104//102
f 102//100 112//110 96//94
f 105//103 96//94 113//111
f 114//112 90//88 105//103
f 97//95 90//88 114//112
f 97//95 114//112 115//113
f 77//75 99//97 106//104
f 78//76 79//77 99//97
f 116//114 80//78 91//89
f 82//80 117//115 79//77
f 82//80 108//106 117//115
f 118//116 100//98 81//79
f 119//117 84//82 100//98
f 102//100 101//99 120//118
f 111//109 103//101 121//119
f 103//101 95//93 121//119
f 102//100 120//118 112//110
f 95//93 104//102 122//120
f 95//93 122//120 121//119
f 104//102 97//95 115//113
f 91//89 98//96 116//114
f 117//115 123//121 79//77
f 80//78 116//114 107//105
f 107//105 118//116 81//79
f 92//90 124//122 108//106
f 92//90 125//123 124//122
f 109//107 125//123 92//90
f 119//117 110//108 84//82
f 126//124 109//107 94//92
f 127//125 126//124 94//92
f 94//92 111//109 127//125
f 104//102 115//113 122//120
f 128//126 113//111 129//127
f 105//103 113//111 128//126
f 105//103 128//126 114//112
f 115//113 114//112 130//128
f 131//129 106//104 99//97
f 99//97 123//121 131//129
f 79//77 123//121 99//97
f 116//114 98//96 132//130
f 118//116 133//131 100//98
f 100//98 133//131 119//117
f 134//132 125//123 109//107
f 134//132 109//107 126//124
f 127//125 111//109 135//133
f 111//109 121//119 135//133
f 121//119 122//120 136//134
f 96//94 112//110 129//127
f 96//94 129//127 113//111
f 128//126 130//128 114//112
f 98//96 106//104 137//135
f 132//130 98//96 137//135
f 116//114 138//136 107//105
f 117//115 108//106 139//137
f 101//99 110//108 140//138
f 101//99 140//138 141//139
f 120//118 101//99 141//139
f 135//133 121//119 136//134
f 122//120 115//113 136//134
f 130//128 128//126 142//140
f 106//104 131//129 137//135
f 123//121 143//141 131//129
f 132//130 144//142 116//114
f 123//121 117//115 143//141
f 117//115 139//137 143//141
f 138//136 116//114 144//142
f 107//105 138//136 118//116
f 124//122 145//143 139//137
f 124//122 139//137 108//106
f 138//136 133//131 118//116
f 124//122 146//144 145//143
f 133//131 147//145 119//117
f 124//122 125//123 146//144
f 148//146 134//132 126//124
f 126//124 127//125 148//146
f 149//147 120//118 141//139
f 120//118 149//147 112//110
f 115//113 150//148 136//134
f 129//127 112//110 151//149
f 130//128 150//148 115//113
f 128//126 129//127 152//150
f 131//129 153//151 137//135
f 143//141 154//152 131//129
f 137//135 144//142 132//130
f 139//137 155//153 143//141
f 139//137 145//143 155//153
f 156//154 119//117 147//145
f 125//123 157//155 146//144
f 125//123 134//132 157//155
f 119//117 156//154 158//156
f 158//156 110//108 119//117
f 159//157 127//125 135//133
f 149//147 160//158 112//110
f 112//110 160//158 151//149
f 129//127 151//149 152//150
f 152//150 142//140 128//126
f 131//129 154//152 153//151
f 161//159 154//152 143//141
f 155//153 161//159 143//141
f 138//136 144//142 162//160
f 162//160 163//161 138//136
f 138//136 163//161 133//131
f 133//131 163//161 147//145
f 134//132 164//162 157//155
f 134//132 148//146 164//162
f 110//108 158//156 140//138
f 127//125 165//163 148//146
f 159//157 165//163 127//125
f 135//133 136//134 166//164
f 130//128 142//140 167//165
f 150//148 130//128 167//165
f 153//151 168//166 137//135
f 137//135 168//166 144//142
f 169//167 168//166 153//151
f 154//152 169//167 153//151
f 161//159 169//167 154//152
f 144//142 168//166 162//160
f 170//168 161//159 155//153
f 155//153 145//143 170//168
f 163//161 162//160 171//169
f 146//144 170//168 145//143
f 158//156 172//170 140//138
f 149//147 141//139 173//171
f 135//133 166//164 159//157
f 149//147 173//171 160//158
f 136//134 174//172 166//164
f 150//148 167//165 174//172
f 150//148 174//172 136//134
f 142//140 152//150 175//173
f 152//150 176//174 175//173
f 169//167 177//175 168//166
f 168//166 171//169 162//160
f 171//169 168//166 177//175
f 161//159 170//168 169//167
f 170//168 146//144 178//176
f 147//145 179//177 156//154
f 147//145 163//161 179//177
f 157//155 178//176 146//144
f 180//178 156//154 179//177
f 156//154 180//178 158//156
f 157//155 181//179 178//176
f 157//155 164//162 181//179
f 158//156 180//178 172//170
f 172//170 182//180 140//138
f 148//146 165//163 164//162
f 140//138 182//180 141//139
f 183//181 165//163 159//157
f 141//139 182//180 173//171
f 182//180 184//182 173//171
f 166//164 183//181 159//157
f 173//171 185//183 160//158
f 151//149 160//158 186//184
f 152//150 151//149 176//174
f 175//173 167//165 142//140
f 175//173 187//185 167//165
f 169//167 188//186 177//175
f 170//168 189//187 169//167
f 188//186 171//169 177//175
f 171//169 179//177 163//161
f 190//188 189//187 170//168
f 170//168 178//176 190//188
f 178//176 181//179 190//188
f 165//163 181//179 164//162
f 183//181 166//164 174//172
f 173//171 184//182 185//183
f 160//158 185//183 186//184
f 174//172 167//165 187//185
f 176//174 151//149 186//184
f 176//174 187//185 175//173
f 169//167 191//189 188//186
f 169//167 189//187 191//189
f 188//186 192//190 171//169
f 192//190 179//177 171//169
f 191//189 189//187 193//191
f 192//190 180//178 179//177
f 190//188 193//191 189//187
f 194//192 180//178 192//190
f 193//191 190//188 195//193
f 172//170 180//178 194//192
f 196//194 172//170 194//192
f 181//179 195//193 190//188
f 182//180 172//170 196//194
f 196//194 197//195 182//180
f 165//163 195//193 181//179
f 197//195 184//182 182//180
f 165//163 198//196 195//193
f 165//163 183//181 198//196
f 184//182 197//195 199//197
f 183//181 174//172 198//196
f 199//197 185//183 184//182
f 200//198 186//184 199//197
f 186//184 185//183 199//197
f 198//196 174//172 201//199
f 174//172 187//185 201//199
f 176//174 200//198 201//199
f 176//174 186//184 200//198
f 187//185 176//174 201//199
f 202//200 192//190 188//186
f 191//189 202//200 188//186
f 203//201 202//200 191//189
f 193//191 203//201 191//189
f 192//190 202//200 194//192
f 203//201 204//202 202//200
f 204//202 205//203 202//200
f 205//203 194//192 202//200
f 206//204 203//201 193//191
f 195//193 206//204 193//191
f 205//203 197//195 194//192
f 197//195 196//194 194//192
f 207//205 204//202 203//201
f 206//204 207//205 203//201
f 199//197 197//195 205//203
f 204//202 208//206 205//203
f 195//193 198//196 206//204
f 207//205 208//206 204//202
f 200//198 199//197 205//203
f 208//206 200//198 205//203
f 206//204 198//196 207//205
f 201//199 208//206 207//205
f 198//196 201//199 207//205
f 201//199 200//198 208//206
f 213//207 218//208 219//209
f 209//210 218//208 213//207
f 209//210 210//211 211//212
f 220//213 218//208 211//212
f 220//213 211//212 221//214
f 221//214 211//212 222//215
f 213//207 212//216 209//210
f 211//212 219//209 222//215
f 210//211 219//209 211//212
f 210//211 215//217 216//218
f 210//211 217//219 215//217
f 210//211 214//220 217//219
f 212//216 210//211 209//210
f 218//208 220//213 222//215
f 220//213 221//214 222//215
f 222//215 219//209 218//208
f 219//209 216//218 213//207
f 216//218 215//217 217//219
f 213//207 216//218 212//216
f 217//219 214//220 212//216
f 216//218 217//219 212//216
f 209//210 211//212 218//208
f 210//211 216//218 219//209
f 212//216 214//220 210//211
