# Blender v2.92.0 OBJ File: 'convert_to_one_sided.blend'
# www.blender.org
mtllib 791L.mtl
o 791
v 8.735718 2.813184 1.213505
v 8.722318 2.757414 1.238875
v 8.702228 2.794854 1.215415
v 8.687728 2.816413 1.213435
v 8.734407 2.847493 1.214985
v 8.701407 2.857253 1.233515
v 8.748607 2.821483 1.239954
v 8.747547 2.882713 1.229445
v 8.737118 2.882693 1.231905
v 8.650039 2.741684 1.245804
v 8.684548 2.705875 1.264594
v 8.630869 2.622836 1.305594
v 8.643559 2.798174 1.275234
v 8.715928 2.905642 1.277634
v 8.738487 2.904672 1.263084
v 8.587790 2.635606 1.302084
v 8.730128 2.739214 1.273344
v 8.656598 2.868323 1.327063
v 8.749557 2.869413 1.286134
v 8.738438 2.909312 1.286844
v 8.663548 2.593706 1.331843
v 8.695369 2.655056 1.309984
v 8.588550 2.702125 1.313784
v 8.733248 2.757134 1.331693
v 8.724398 2.919922 1.321743
v 8.540100 2.514357 1.361303
v 8.734728 2.895702 1.339833
v 8.519440 2.568777 1.355703
v 8.502961 2.517847 1.367613
v 8.702388 2.644256 1.344803
v 8.737588 2.839863 1.354913
v 8.689438 2.904952 1.338373
v 8.501560 2.401709 1.419762
v 8.593359 2.473088 1.402182
v 8.543280 2.676125 1.370363
v 8.500811 2.621526 1.413922
v 8.596109 2.773294 1.353353
v 8.452061 2.416099 1.409422
v 8.458361 2.471578 1.396672
v 8.439271 2.519807 1.445222
v 8.663678 2.565247 1.374383
v 8.591109 2.800914 1.409742
v 8.649049 2.871293 1.385723
v 8.689838 2.901432 1.374963
v 8.540609 2.706285 1.422672
v 8.708108 2.729465 1.433942
v 8.708548 2.892982 1.379943
v 8.395612 2.383479 1.432852
v 8.378833 2.405889 1.443012
v 8.628299 2.467478 1.447072
v 8.678648 2.607136 1.419612
v 8.715548 2.837203 1.400062
v 8.652028 2.864133 1.416492
v 8.381282 2.303530 1.473551
v 8.332803 2.339050 1.462242
v 8.279063 2.338690 1.483751
v 8.505041 2.307760 1.497221
v 8.562290 2.348979 1.500391
v 8.335853 2.433428 1.515511
v 8.471431 2.615616 1.497101
v 8.691379 2.782834 1.458372
v 8.606500 2.805744 1.444362
v 8.674948 2.863823 1.420582
v 8.192855 2.268011 1.497551
v 8.208724 2.304770 1.498161
v 8.575210 2.346879 1.541981
v 8.625189 2.474988 1.501221
v 8.690378 2.839063 1.425542
v 8.256934 2.177062 1.546510
v 8.075606 2.223151 1.519991
v 8.081056 2.264880 1.517941
v 8.147445 2.297050 1.516191
v 8.207225 2.327720 1.515871
v 8.242594 2.379899 1.551110
v 8.372472 2.505657 1.562330
v 8.636608 2.558017 1.532421
v 8.537540 2.706955 1.484101
v 8.626929 2.801684 1.463962
v 8.653429 2.774524 1.479471
v 8.137905 2.174362 1.546880
v 8.046617 2.235661 1.539351
v 8.398212 2.164792 1.575600
v 8.039117 2.282501 1.544170
v 8.073006 2.310720 1.554390
v 8.520141 2.263661 1.547060
v 8.148835 2.355349 1.575710
v 8.668369 2.691015 1.500101
v 8.572220 2.733525 1.497031
v 8.086886 2.167042 1.563920
v 8.133065 2.096813 1.602230
v 8.202154 2.072653 1.617610
v 8.060287 2.177782 1.588720
v 8.478131 2.194442 1.584130
v 8.033787 2.268751 1.578930
v 8.516790 2.242301 1.579380
v 8.579519 2.395129 1.578700
v 8.290963 2.438118 1.580950
v 8.480741 2.631636 1.529831
v 8.657039 2.710965 1.509451
v 8.578420 2.702445 1.525231
v 8.035896 2.323960 1.593280
v 8.072426 2.357559 1.614610
v 8.214885 2.406199 1.612360
v 8.435212 2.574897 1.566820
v 8.630178 2.621236 1.551211
v 8.503981 2.642036 1.542481
v 8.111365 2.089903 1.631309
v 8.297833 2.084163 1.617200
v 8.431182 2.106763 1.630239
v 8.049867 2.221781 1.641739
v 8.510510 2.237881 1.658519
v 8.039387 2.307850 1.657589
v 8.127565 2.384539 1.633229
v 8.592299 2.643036 1.557860
v 8.362002 2.059423 1.651959
v 8.042327 2.351340 1.650539
v 8.547461 2.391229 1.651369
v 8.283294 2.450398 1.625569
v 8.435822 2.559517 1.601550
v 8.591169 2.524067 1.600720
v 8.488621 2.578017 1.600370
v 8.163035 2.025774 1.672459
v 8.097876 2.116302 1.699568
v 8.464831 2.144392 1.641219
v 8.366922 2.504607 1.615600
v 8.581189 2.565747 1.598170
v 8.516331 2.509248 1.646329
v 8.266903 2.014824 1.686059
v 8.135555 2.039864 1.694479
v 8.412571 2.065473 1.680419
v 8.046536 2.347020 1.697558
v 8.100606 2.372919 1.672239
v 8.394583 2.509897 1.635319
v 8.162795 1.998234 1.727418
v 8.351862 2.028964 1.694649
v 8.440191 2.116922 1.735208
v 8.498880 2.264671 1.721568
v 8.199864 2.410739 1.655059
v 8.294104 2.447048 1.663209
v 8.549970 2.484388 1.638179
v 8.402302 2.454608 1.680249
v 8.199724 1.992454 1.728728
v 8.250344 1.991964 1.726788
v 8.295763 2.006024 1.722668
v 8.148175 2.048673 1.776927
v 8.082396 2.195322 1.738068
v 8.091076 2.252391 1.767148
v 8.176835 2.400109 1.689599
v 8.507771 2.400219 1.695269
v 8.353723 2.041394 1.729528
v 8.475331 2.270720 1.763298
v 8.124175 2.347109 1.731098
v 8.264294 2.380079 1.721588
v 8.466101 2.405629 1.709798
v 8.177674 2.011704 1.768038
v 8.471451 2.208461 1.745108
v 8.464881 2.334880 1.747348
v 8.383652 2.318920 1.769398
v 8.258384 2.025234 1.768898
v 8.355783 2.086943 1.798397
v 8.119465 2.113883 1.771948
v 8.090366 2.311110 1.743948
v 8.191475 2.059633 1.823597
v 8.422682 2.161312 1.798437
v 8.133965 2.264370 1.792717
v 8.441792 2.278970 1.779597
v 8.244684 2.288520 1.788567
v 8.139996 2.135462 1.804957
v 8.348303 2.112663 1.833967
v 8.157905 2.185862 1.834717
v 8.280313 2.092543 1.840227
v 8.412771 2.221301 1.814017
v 8.224714 2.219051 1.833517
v 8.302353 2.209601 1.838797
v 8.349672 2.145632 1.840757
v 8.326253 2.171042 1.847137
v 8.203235 2.120322 1.847576
v 8.279584 2.146502 1.850647
v 8.231934 2.175632 1.840077
vn 0.6445 -0.2381 -0.7266
vn 0.4761 -0.5148 -0.7129
vn 0.0173 -0.2887 -0.9573
vn -0.4814 0.1887 -0.8560
vn 0.2147 0.2256 -0.9503
vn -0.5693 0.5284 -0.6299
vn 0.9559 -0.0871 -0.2806
vn 0.7481 0.4416 -0.4952
vn -0.1261 0.6649 -0.7362
vn -0.4474 -0.1812 -0.8758
vn 0.1862 -0.5196 -0.8339
vn 0.0579 -0.4917 -0.8689
vn -0.8068 0.3294 -0.4905
vn -0.4338 0.8171 -0.3797
vn 0.2163 0.9020 -0.3737
vn -0.4412 -0.1868 -0.8777
vn 0.8848 -0.3784 -0.2721
vn -0.7663 0.5722 -0.2924
vn 0.9923 0.1000 0.0728
vn 0.7987 0.6017 -0.0069
vn 0.4738 -0.5830 -0.6601
vn 0.6784 -0.5390 -0.4992
vn -0.7806 0.2189 -0.5855
vn 0.9767 -0.1846 0.1096
vn 0.2101 0.9711 0.1128
vn -0.0997 -0.3722 -0.9228
vn 0.8538 0.3910 0.3436
vn -0.6607 0.0983 -0.7442
vn -0.2945 -0.1858 -0.9374
vn 0.9145 -0.3970 -0.0776
vn 0.9550 0.0372 0.2942
vn -0.5245 0.8491 -0.0629
vn 0.1587 -0.5433 -0.8244
vn 0.4205 -0.6001 -0.6805
vn -0.8392 0.3400 -0.4245
vn -0.8462 0.3724 -0.3810
vn -0.8443 0.4021 -0.3541
vn -0.1350 -0.3587 -0.9236
vn -0.4903 -0.0352 -0.8709
vn -0.7721 0.4036 -0.4909
vn 0.8000 -0.5313 -0.2787
vn -0.8296 0.5565 -0.0459
vn -0.6708 0.7335 0.1098
vn -0.1879 0.8985 0.3968
vn -0.8624 0.4640 -0.2023
vn 0.9261 -0.0708 0.3705
vn 0.5095 0.6076 0.6093
vn -0.3128 -0.2012 -0.9282
vn -0.5779 0.2370 -0.7809
vn 0.8502 -0.4851 -0.2047
vn 0.9440 -0.2992 0.1391
vn 0.8095 0.2341 0.5384
vn -0.3978 0.7511 0.5269
vn 0.0143 -0.4986 -0.8667
vn -0.2899 -0.0963 -0.9522
vn -0.4372 0.3974 -0.8068
vn 0.3421 -0.6106 -0.7143
vn 0.6754 -0.5844 -0.4498
vn -0.6390 0.5701 -0.5164
vn -0.8214 0.5497 -0.1520
vn 0.6803 0.2615 0.6847
vn -0.6305 0.6624 0.4046
vn 0.1347 0.6362 0.7597
vn -0.1574 -0.1153 -0.9808
vn -0.3231 0.3435 -0.8818
vn 0.9038 -0.4277 0.0148
vn 0.9387 -0.2863 0.1920
vn 0.5228 0.4273 0.7377
vn 0.0474 -0.5402 -0.8402
vn -0.3286 -0.3573 -0.8743
vn -0.3651 0.2345 -0.9009
vn -0.2829 0.4966 -0.8206
vn -0.3562 0.6233 -0.6962
vn -0.4517 0.6869 -0.5694
vn -0.7038 0.6721 -0.2300
vn 0.8961 -0.1500 0.4177
vn -0.7539 0.6256 0.2007
vn -0.2259 0.6210 0.7505
vn 0.2214 0.4757 0.8513
vn -0.0698 -0.5462 -0.8347
vn -0.7795 -0.2686 -0.5659
vn 0.2048 -0.5955 -0.7768
vn -0.7443 0.2792 -0.6067
vn -0.3401 0.6609 -0.6690
vn 0.6129 -0.6086 -0.5039
vn -0.3029 0.7516 -0.5859
vn 0.8040 0.0280 0.5939
vn -0.4876 0.6457 0.5877
vn -0.4977 -0.6090 -0.6176
vn -0.2808 -0.6668 -0.6903
vn 0.0012 -0.6654 -0.7465
vn -0.8796 -0.4505 -0.1530
vn 0.5556 -0.6242 -0.5493
vn -0.9925 -0.1015 -0.0680
vn 0.8091 -0.5514 -0.2035
vn 0.9173 -0.2436 0.3150
vn -0.5680 0.7151 -0.4074
vn -0.7114 0.6755 0.1938
vn 0.5004 0.2821 0.8185
vn -0.1566 0.5774 0.8013
vn -0.8317 0.4719 -0.2925
vn -0.3983 0.8457 -0.3551
vn -0.4076 0.8281 -0.3848
vn -0.6794 0.7133 0.1723
vn 0.6425 0.1496 0.7516
vn -0.4855 0.6974 0.5272
vn -0.7063 -0.6315 -0.3200
vn 0.1093 -0.6479 -0.7538
vn 0.5031 -0.6708 -0.5450
vn -0.9552 -0.2506 0.1575
vn 0.9143 -0.3457 0.2110
vn -0.9785 -0.0045 0.2060
vn -0.3356 0.9071 -0.2540
vn 0.2007 0.4393 0.8756
vn 0.2518 -0.7461 -0.6164
vn -0.7517 0.6594 -0.0123
vn 0.8418 -0.0530 0.5372
vn -0.5209 0.8498 -0.0810
vn -0.4290 0.7371 0.5221
vn 0.7041 0.0651 0.7071
vn -0.1426 0.6163 0.7745
vn -0.3083 -0.8103 -0.4984
vn -0.9063 -0.3962 0.1471
vn 0.8207 -0.5563 -0.1306
vn -0.5541 0.7997 0.2313
vn 0.4507 0.2865 0.8454
vn 0.2189 0.4383 0.8718
vn 0.0998 -0.8512 -0.5153
vn -0.8095 -0.5831 -0.0682
vn 0.6290 -0.7704 -0.1039
vn -0.6822 0.5222 0.5118
vn -0.3768 0.9116 0.1641
vn -0.3039 0.7102 0.6350
vn -0.5626 -0.8252 0.0504
vn 0.3861 -0.9044 -0.1816
vn 0.7755 -0.5363 0.3330
vn 0.8943 -0.1911 0.4045
vn -0.3670 0.9302 -0.0069
vn -0.3169 0.8288 0.4612
vn 0.5651 0.1927 0.8022
vn -0.0760 0.5880 0.8053
vn -0.0566 -0.9982 0.0186
vn 0.1523 -0.9841 0.0914
vn 0.3435 -0.9291 0.1375
vn -0.7655 -0.4630 0.4468
vn -0.9005 -0.1858 0.3933
vn -0.7553 0.0663 0.6521
vn -0.2796 0.8500 0.4465
vn 0.5412 0.2825 0.7920
vn 0.4931 -0.7817 0.3818
vn 0.7015 0.0597 0.7102
vn -0.2332 0.6771 0.6979
vn -0.0937 0.6422 0.7608
vn 0.1830 0.4699 0.8635
vn -0.2393 -0.8111 0.5337
vn 0.8574 -0.2774 0.4335
vn 0.3443 0.3839 0.8568
vn 0.0744 0.5028 0.8612
vn 0.2028 -0.7925 0.5752
vn 0.4611 -0.6867 0.5619
vn -0.8539 -0.2777 0.4401
vn -0.4546 0.4326 0.7786
vn -0.2835 -0.5367 0.7947
vn 0.6723 -0.3002 0.6767
vn -0.3082 0.4515 0.8373
vn 0.3298 0.3583 0.8734
vn -0.0500 0.5677 0.8217
vn -0.7021 -0.2013 0.6830
vn 0.4211 -0.4592 0.7822
vn -0.3897 0.1148 0.9138
vn 0.1440 -0.4817 0.8644
vn 0.3689 0.1947 0.9088
vn -0.0839 0.3672 0.9263
vn 0.0289 0.3447 0.9383
vn 0.3087 -0.1391 0.9410
vn 0.1576 0.1146 0.9808
vn -0.2342 -0.1237 0.9643
vn 0.0145 0.0090 0.9999
vn -0.0748 0.1653 0.9834
usemtl mtl1.1520
s 1
f 1//1 2//2 3//3
f 3//3 4//4 5//5
f 1//1 3//3 5//5
f 6//6 5//5 4//4
f 5//5 7//7 1//1
f 8//8 7//7 5//5
f 9//9 8//8 5//5
f 9//9 5//5 6//6
f 10//10 11//11 12//12
f 3//3 10//10 4//4
f 11//11 10//10 3//3
f 2//2 11//11 3//3
f 4//4 10//10 13//13
f 6//6 4//4 13//13
f 6//6 14//14 9//9
f 8//8 9//9 15//15
f 12//12 16//16 10//10
f 17//17 1//1 7//7
f 6//6 13//13 18//18
f 7//7 8//8 19//19
f 6//6 18//18 14//14
f 8//8 20//20 19//19
f 9//9 14//14 15//15
f 20//20 8//8 15//15
f 21//21 12//12 11//11
f 11//11 22//22 21//21
f 10//10 16//16 23//23
f 22//22 11//11 2//2
f 22//22 2//2 17//17
f 10//10 23//23 13//13
f 2//2 1//1 17//17
f 7//7 19//19 24//24
f 20//20 15//15 25//25
f 12//12 26//26 16//16
f 17//17 7//7 24//24
f 19//19 20//20 27//27
f 15//15 14//14 25//25
f 16//16 26//26 28//28
f 26//26 29//29 28//28
f 16//16 28//28 23//23
f 30//30 22//22 17//17
f 24//24 19//19 31//31
f 25//25 14//14 32//32
f 33//33 26//26 34//34
f 12//12 34//34 26//26
f 21//21 34//34 12//12
f 35//35 28//28 36//36
f 28//28 35//35 23//23
f 30//30 17//17 24//24
f 35//35 37//37 23//23
f 37//37 13//13 23//23
f 37//37 18//18 13//13
f 19//19 27//27 31//31
f 14//14 18//18 32//32
f 20//20 25//25 27//27
f 26//26 38//38 39//39
f 26//26 39//39 29//29
f 36//36 28//28 40//40
f 39//39 28//28 29//29
f 41//41 34//34 21//21
f 21//21 22//22 41//41
f 37//37 42//42 18//18
f 18//18 43//43 32//32
f 32//32 44//44 25//25
f 38//38 26//26 33//33
f 39//39 40//40 28//28
f 22//22 30//30 41//41
f 35//35 45//45 37//37
f 24//24 31//31 46//46
f 18//18 42//42 43//43
f 44//44 32//32 43//43
f 25//25 44//44 47//47
f 47//47 27//27 25//25
f 38//38 48//48 39//39
f 48//48 49//49 39//39
f 49//49 40//40 39//39
f 34//34 41//41 50//50
f 51//51 41//41 30//30
f 24//24 51//51 30//30
f 52//52 46//46 31//31
f 27//27 52//52 31//31
f 47//47 52//52 27//27
f 53//53 44//44 43//43
f 54//54 55//55 48//48
f 49//49 55//55 56//56
f 48//48 55//55 49//49
f 54//54 48//48 38//38
f 38//38 33//33 54//54
f 57//57 33//33 34//34
f 57//57 34//34 58//58
f 49//49 59//59 40//40
f 60//60 36//36 40//40
f 36//36 45//45 35//35
f 61//61 46//46 52//52
f 62//62 43//43 42//42
f 53//53 63//63 44//44
f 47//47 44//44 63//63
f 64//64 55//55 54//54
f 55//55 64//64 56//56
f 56//56 64//64 65//65
f 57//57 54//54 33//33
f 59//59 49//49 56//56
f 58//58 50//50 66//66
f 34//34 50//50 58//58
f 50//50 51//51 67//67
f 41//41 51//51 50//50
f 45//45 36//36 60//60
f 51//51 24//24 46//46
f 42//42 37//37 45//45
f 43//43 62//62 53//53
f 52//52 47//47 68//68
f 47//47 63//63 68//68
f 64//64 54//54 69//69
f 64//64 70//70 71//71
f 72//72 64//64 71//71
f 65//65 64//64 72//72
f 65//65 72//72 73//73
f 56//56 65//65 73//73
f 56//56 74//74 59//59
f 66//66 50//50 67//67
f 40//40 75//75 60//60
f 76//76 51//51 46//46
f 77//77 42//42 45//45
f 62//62 42//42 77//77
f 61//61 52//52 68//68
f 62//62 78//78 53//53
f 53//53 78//78 63//63
f 79//79 63//63 78//78
f 68//68 63//63 79//79
f 64//64 80//80 70//70
f 69//69 80//80 64//64
f 70//70 81//81 71//71
f 57//57 82//82 54//54
f 83//83 71//71 81//81
f 83//83 84//84 71//71
f 84//84 72//72 71//71
f 57//57 58//58 85//85
f 73//73 72//72 86//86
f 56//56 73//73 74//74
f 75//75 40//40 59//59
f 87//87 76//76 46//46
f 60//60 77//77 45//45
f 61//61 87//87 46//46
f 62//62 88//88 78//78
f 68//68 79//79 61//61
f 89//89 80//80 90//90
f 91//91 90//90 80//80
f 69//69 91//91 80//80
f 69//69 54//54 82//82
f 89//89 92//92 81//81
f 89//89 81//81 70//70
f 80//80 89//89 70//70
f 93//93 57//57 85//85
f 81//81 94//94 83//83
f 85//85 58//58 95//95
f 95//95 58//58 66//66
f 73//73 86//86 74//74
f 66//66 67//67 96//96
f 59//59 74//74 97//97
f 59//59 97//97 75//75
f 76//76 67//67 51//51
f 98//98 77//77 60//60
f 99//99 87//87 61//61
f 77//77 88//88 62//62
f 88//88 100//100 78//78
f 99//99 61//61 79//79
f 79//79 78//78 100//100
f 92//92 94//94 81//81
f 82//82 57//57 93//93
f 83//83 94//94 101//101
f 101//101 84//84 83//83
f 84//84 86//86 72//72
f 102//102 84//84 101//101
f 86//86 84//84 102//102
f 74//74 86//86 103//103
f 104//104 60//60 75//75
f 105//105 76//76 87//87
f 60//60 104//104 98//98
f 106//106 77//77 98//98
f 99//99 105//105 87//87
f 88//88 77//77 106//106
f 90//90 107//107 89//89
f 69//69 82//82 108//108
f 82//82 93//93 109//109
f 92//92 110//110 94//94
f 85//85 95//95 93//93
f 66//66 96//96 111//111
f 94//94 112//112 101//101
f 86//86 102//102 113//113
f 76//76 96//96 67//67
f 106//106 100//100 88//88
f 105//105 99//99 114//114
f 79//79 100//100 114//114
f 99//99 79//79 114//114
f 89//89 107//107 92//92
f 69//69 108//108 91//91
f 115//115 82//82 109//109
f 111//111 95//95 66//66
f 102//102 101//101 116//116
f 103//103 86//86 113//113
f 74//74 103//103 97//97
f 96//96 76//76 117//117
f 75//75 97//97 118//118
f 104//104 119//119 106//106
f 120//120 76//76 105//105
f 104//104 106//106 98//98
f 121//121 114//114 100//100
f 100//100 106//106 121//121
f 90//90 122//122 107//107
f 90//90 91//91 122//122
f 92//92 107//107 123//123
f 82//82 115//115 108//108
f 110//110 92//92 123//123
f 109//109 93//93 124//124
f 93//93 95//95 124//124
f 101//101 112//112 116//116
f 117//117 111//111 96//96
f 120//120 117//117 76//76
f 125//125 75//75 118//118
f 125//125 104//104 75//75
f 104//104 125//125 119//119
f 120//120 105//105 126//126
f 126//126 114//114 127//127
f 126//126 105//105 114//114
f 114//114 121//121 127//127
f 91//91 108//108 128//128
f 122//122 91//91 128//128
f 115//115 128//128 108//108
f 107//107 129//129 123//123
f 115//115 109//109 130//130
f 95//95 111//111 124//124
f 94//94 110//110 112//112
f 112//112 131//131 116//116
f 102//102 116//116 132//132
f 97//97 103//103 118//118
f 125//125 133//133 119//119
f 121//121 106//106 119//119
f 122//122 134//134 129//129
f 122//122 129//129 107//107
f 135//135 128//128 115//115
f 115//115 130//130 135//135
f 130//130 109//109 124//124
f 124//124 111//111 136//136
f 117//117 137//137 111//111
f 116//116 131//131 132//132
f 102//102 132//132 113//113
f 113//113 132//132 138//138
f 103//103 113//113 138//138
f 103//103 138//138 118//118
f 118//118 138//138 139//139
f 140//140 117//117 120//120
f 125//125 118//118 139//139
f 140//140 120//120 126//126
f 121//121 141//141 127//127
f 140//140 126//126 127//127
f 121//121 119//119 133//133
f 134//134 122//122 142//142
f 128//128 142//142 122//122
f 128//128 143//143 142//142
f 128//128 144//144 143//143
f 128//128 135//135 144//144
f 124//124 136//136 130//130
f 129//129 145//145 123//123
f 123//123 146//146 110//110
f 110//110 146//146 112//112
f 146//146 147//147 112//112
f 138//138 132//132 148//148
f 138//138 148//148 139//139
f 127//127 149//149 140//140
f 133//133 125//125 139//139
f 141//141 121//121 133//133
f 130//130 150//150 135//135
f 130//130 136//136 150//150
f 117//117 151//151 137//137
f 112//112 147//147 131//131
f 149//149 151//151 117//117
f 132//132 152//152 148//148
f 117//117 140//140 149//149
f 139//139 148//148 153//153
f 141//141 139//139 153//153
f 133//133 139//139 141//141
f 154//154 127//127 141//141
f 149//149 127//127 154//154
f 155//155 134//134 142//142
f 129//129 134//134 145//145
f 135//135 150//150 144//144
f 111//111 156//156 136//136
f 149//149 157//157 151//151
f 131//131 152//152 132//132
f 152//152 153//153 148//148
f 141//141 158//158 154//154
f 134//134 155//155 145//145
f 159//159 142//142 143//143
f 159//159 143//143 144//144
f 144//144 150//150 159//159
f 150//150 136//136 160//160
f 145//145 161//161 123//123
f 161//161 146//146 123//123
f 137//137 156//156 111//111
f 162//162 152//152 131//131
f 147//147 162//162 131//131
f 157//157 149//149 154//154
f 158//158 141//141 153//153
f 159//159 155//155 142//142
f 145//145 155//155 163//163
f 150//150 160//160 159//159
f 136//136 164//164 160//160
f 151//151 156//156 137//137
f 165//165 152//152 162//162
f 166//166 157//157 158//158
f 167//167 152//152 165//165
f 153//153 152//152 167//167
f 154//154 158//158 157//157
f 145//145 168//168 161//161
f 163//163 168//168 145//145
f 160//160 164//164 169//169
f 164//164 136//136 156//156
f 168//168 146//146 161//161
f 147//147 146//146 168//168
f 156//156 151//151 164//164
f 170//170 147//147 168//168
f 165//165 147//147 170//170
f 147//147 165//165 162//162
f 151//151 157//157 166//166
f 158//158 153//153 167//167
f 160//160 171//171 159//159
f 164//164 151//151 172//172
f 172//172 151//151 166//166
f 173//173 165//165 170//170
f 174//174 172//172 158//158
f 172//172 166//166 158//158
f 167//167 165//165 173//173
f 163//163 155//155 159//159
f 160//160 169//169 171//171
f 174//174 167//167 173//173
f 174//174 158//158 167//167
f 163//163 159//159 171//171
f 171//171 169//169 175//175
f 169//169 164//164 175//175
f 164//164 172//172 175//175
f 175//175 172//172 176//176
f 176//176 172//172 174//174
f 177//177 163//163 171//171
f 163//163 177//177 168//168
f 178//178 177//177 171//171
f 171//171 175//175 178//178
f 177//177 170//170 168//168
f 179//179 170//170 177//177
f 175//175 176//176 178//178
f 179//179 173//173 170//170
f 178//178 174//174 179//179
f 176//176 174//174 178//178
f 174//174 173//173 179//179
f 178//178 179//179 177//177
