# Blender v2.92.0 OBJ File: 'convert_to_one_sided.blend'
# www.blender.org
mtllib 791L.mtl
o Cube
v 0.001000 0.001000 -0.001000
v 0.001000 -0.001000 -0.001000
v 0.001000 0.001000 0.001000
v 0.001000 -0.001000 0.001000
v -0.001000 0.001000 -0.001000
v -0.001000 -0.001000 -0.001000
v -0.001000 0.001000 0.001000
v -0.001000 -0.001000 0.001000
vt 0.625000 0.500000
vt 0.875000 0.500000
vt 0.875000 0.750000
vt 0.625000 0.750000
vt 0.375000 0.750000
vt 0.625000 1.000000
vt 0.375000 1.000000
vt 0.375000 0.000000
vt 0.625000 0.000000
vt 0.625000 0.250000
vt 0.375000 0.250000
vt 0.125000 0.500000
vt 0.375000 0.500000
vt 0.125000 0.750000
vn 0.0000 1.0000 0.0000
vn 0.0000 0.0000 1.0000
vn -1.0000 0.0000 0.0000
vn 0.0000 -1.0000 0.0000
vn 1.0000 0.0000 0.0000
vn 0.0000 0.0000 -1.0000
usemtl Material
s off
f 1/1/1 5/2/1 7/3/1 3/4/1
f 4/5/2 3/4/2 7/6/2 8/7/2
f 8/8/3 7/9/3 5/10/3 6/11/3
f 6/12/4 2/13/4 4/5/4 8/14/4
f 2/13/5 1/1/5 3/4/5 4/5/5
f 6/11/6 5/10/6 1/1/6 2/13/6
o 791
v 8.735718 2.813184 1.213505
v 8.722318 2.757414 1.238875
v 8.702228 2.794854 1.215415
v 8.687728 2.816413 1.213435
v 8.734407 2.847493 1.214985
v 8.701407 2.857253 1.233515
v 8.748607 2.821483 1.239954
v 8.747547 2.882713 1.229445
v 8.737118 2.882693 1.231905
v 8.650039 2.741684 1.245804
v 8.684548 2.705875 1.264594
v 8.630869 2.622836 1.305594
v 8.643559 2.798174 1.275234
v 8.715928 2.905642 1.277634
v 8.738487 2.904672 1.263084
v 8.587790 2.635606 1.302084
v 8.730128 2.739214 1.273344
v 8.656598 2.868323 1.327063
v 8.749557 2.869413 1.286134
v 8.738438 2.909312 1.286844
v 8.663548 2.593706 1.331843
v 8.695369 2.655056 1.309984
v 8.588550 2.702125 1.313784
v 8.733248 2.757134 1.331693
v 8.724398 2.919922 1.321743
v 8.540100 2.514357 1.361303
v 8.734728 2.895702 1.339833
v 8.519440 2.568777 1.355703
v 8.502961 2.517847 1.367613
v 8.702388 2.644256 1.344803
v 8.737588 2.839863 1.354913
v 8.689438 2.904952 1.338373
v 8.501560 2.401709 1.419762
v 8.593359 2.473088 1.402182
v 8.543280 2.676125 1.370363
v 8.500811 2.621526 1.413922
v 8.596109 2.773294 1.353353
v 8.452061 2.416099 1.409422
v 8.458361 2.471578 1.396672
v 8.439271 2.519807 1.445222
v 8.663678 2.565247 1.374383
v 8.591109 2.800914 1.409742
v 8.649049 2.871293 1.385723
v 8.689838 2.901432 1.374963
v 8.540609 2.706285 1.422672
v 8.708108 2.729465 1.433942
v 8.708548 2.892982 1.379943
v 8.395612 2.383479 1.432852
v 8.378833 2.405889 1.443012
v 8.628299 2.467478 1.447072
v 8.678648 2.607136 1.419612
v 8.715548 2.837203 1.400062
v 8.652028 2.864133 1.416492
v 8.381282 2.303530 1.473551
v 8.332803 2.339050 1.462242
v 8.279063 2.338690 1.483751
v 8.505041 2.307760 1.497221
v 8.562290 2.348979 1.500391
v 8.335853 2.433428 1.515511
v 8.471431 2.615616 1.497101
v 8.691379 2.782834 1.458372
v 8.606500 2.805744 1.444362
v 8.674948 2.863823 1.420582
v 8.192855 2.268011 1.497551
v 8.208724 2.304770 1.498161
v 8.575210 2.346879 1.541981
v 8.625189 2.474988 1.501221
v 8.690378 2.839063 1.425542
v 8.256934 2.177062 1.546510
v 8.075606 2.223151 1.519991
v 8.081056 2.264880 1.517941
v 8.147445 2.297050 1.516191
v 8.207225 2.327720 1.515871
v 8.242594 2.379899 1.551110
v 8.372472 2.505657 1.562330
v 8.636608 2.558017 1.532421
v 8.537540 2.706955 1.484101
v 8.626929 2.801684 1.463962
v 8.653429 2.774524 1.479471
v 8.137905 2.174362 1.546880
v 8.046617 2.235661 1.539351
v 8.398212 2.164792 1.575600
v 8.039117 2.282501 1.544170
v 8.073006 2.310720 1.554390
v 8.520141 2.263661 1.547060
v 8.148835 2.355349 1.575710
v 8.668369 2.691015 1.500101
v 8.572220 2.733525 1.497031
v 8.086886 2.167042 1.563920
v 8.133065 2.096813 1.602230
v 8.202154 2.072653 1.617610
v 8.060287 2.177782 1.588720
v 8.478131 2.194442 1.584130
v 8.033787 2.268751 1.578930
v 8.516790 2.242301 1.579380
v 8.579519 2.395129 1.578700
v 8.290963 2.438118 1.580950
v 8.480741 2.631636 1.529831
v 8.657039 2.710965 1.509451
v 8.578420 2.702445 1.525231
v 8.035896 2.323960 1.593280
v 8.072426 2.357559 1.614610
v 8.214885 2.406199 1.612360
v 8.435212 2.574897 1.566820
v 8.630178 2.621236 1.551211
v 8.503981 2.642036 1.542481
v 8.111365 2.089903 1.631309
v 8.297833 2.084163 1.617200
v 8.431182 2.106763 1.630239
v 8.049867 2.221781 1.641739
v 8.510510 2.237881 1.658519
v 8.039387 2.307850 1.657589
v 8.127565 2.384539 1.633229
v 8.592299 2.643036 1.557860
v 8.362002 2.059423 1.651959
v 8.042327 2.351340 1.650539
v 8.547461 2.391229 1.651369
v 8.283294 2.450398 1.625569
v 8.435822 2.559517 1.601550
v 8.591169 2.524067 1.600720
v 8.488621 2.578017 1.600370
v 8.163035 2.025774 1.672459
v 8.097876 2.116302 1.699568
v 8.464831 2.144392 1.641219
v 8.366922 2.504607 1.615600
v 8.581189 2.565747 1.598170
v 8.516331 2.509248 1.646329
v 8.266903 2.014824 1.686059
v 8.135555 2.039864 1.694479
v 8.412571 2.065473 1.680419
v 8.046536 2.347020 1.697558
v 8.100606 2.372919 1.672239
v 8.394583 2.509897 1.635319
v 8.162795 1.998234 1.727418
v 8.351862 2.028964 1.694649
v 8.440191 2.116922 1.735208
v 8.498880 2.264671 1.721568
v 8.199864 2.410739 1.655059
v 8.294104 2.447048 1.663209
v 8.549970 2.484388 1.638179
v 8.402302 2.454608 1.680249
v 8.199724 1.992454 1.728728
v 8.250344 1.991964 1.726788
v 8.295763 2.006024 1.722668
v 8.148175 2.048673 1.776927
v 8.082396 2.195322 1.738068
v 8.091076 2.252391 1.767148
v 8.176835 2.400109 1.689599
v 8.507771 2.400219 1.695269
v 8.353723 2.041394 1.729528
v 8.475331 2.270720 1.763298
v 8.124175 2.347109 1.731098
v 8.264294 2.380079 1.721588
v 8.466101 2.405629 1.709798
v 8.177674 2.011704 1.768038
v 8.471451 2.208461 1.745108
v 8.464881 2.334880 1.747348
v 8.383652 2.318920 1.769398
v 8.258384 2.025234 1.768898
v 8.355783 2.086943 1.798397
v 8.119465 2.113883 1.771948
v 8.090366 2.311110 1.743948
v 8.191475 2.059633 1.823597
v 8.422682 2.161312 1.798437
v 8.133965 2.264370 1.792717
v 8.441792 2.278970 1.779597
v 8.244684 2.288520 1.788567
v 8.139996 2.135462 1.804957
v 8.348303 2.112663 1.833967
v 8.157905 2.185862 1.834717
v 8.280313 2.092543 1.840227
v 8.412771 2.221301 1.814017
v 8.224714 2.219051 1.833517
v 8.302353 2.209601 1.838797
v 8.349672 2.145632 1.840757
v 8.326253 2.171042 1.847137
v 8.203235 2.120322 1.847576
v 8.279584 2.146502 1.850647
v 8.231934 2.175632 1.840077
vn 0.6445 -0.2381 -0.7266
vn 0.4761 -0.5148 -0.7129
vn 0.0173 -0.2887 -0.9573
vn -0.4814 0.1887 -0.8560
vn 0.2147 0.2256 -0.9503
vn -0.5693 0.5284 -0.6299
vn 0.9559 -0.0871 -0.2806
vn 0.7481 0.4416 -0.4952
vn -0.1261 0.6649 -0.7362
vn -0.4474 -0.1812 -0.8758
vn 0.1862 -0.5196 -0.8339
vn 0.0579 -0.4917 -0.8689
vn -0.8068 0.3294 -0.4905
vn -0.4338 0.8171 -0.3797
vn 0.2163 0.9020 -0.3737
vn -0.4412 -0.1868 -0.8777
vn 0.8848 -0.3784 -0.2721
vn -0.7663 0.5722 -0.2924
vn 0.9923 0.1000 0.0728
vn 0.7987 0.6017 -0.0069
vn 0.4738 -0.5830 -0.6601
vn 0.6784 -0.5390 -0.4992
vn -0.7806 0.2189 -0.5855
vn 0.9767 -0.1846 0.1096
vn 0.2101 0.9711 0.1128
vn -0.0997 -0.3722 -0.9228
vn 0.8538 0.3910 0.3436
vn -0.6607 0.0983 -0.7442
vn -0.2945 -0.1858 -0.9374
vn 0.9145 -0.3970 -0.0776
vn 0.9550 0.0372 0.2942
vn -0.5245 0.8491 -0.0629
vn 0.1587 -0.5433 -0.8244
vn 0.4205 -0.6001 -0.6805
vn -0.8392 0.3400 -0.4245
vn -0.8462 0.3724 -0.3810
vn -0.8443 0.4021 -0.3541
vn -0.1350 -0.3587 -0.9236
vn -0.4903 -0.0352 -0.8709
vn -0.7721 0.4036 -0.4909
vn 0.8000 -0.5313 -0.2787
vn -0.8296 0.5565 -0.0459
vn -0.6708 0.7335 0.1098
vn -0.1879 0.8985 0.3968
vn -0.8624 0.4640 -0.2023
vn 0.9261 -0.0708 0.3705
vn 0.5095 0.6076 0.6093
vn -0.3128 -0.2012 -0.9282
vn -0.5779 0.2370 -0.7809
vn 0.8502 -0.4851 -0.2047
vn 0.9440 -0.2992 0.1391
vn 0.8095 0.2341 0.5384
vn -0.3978 0.7511 0.5269
vn 0.0143 -0.4986 -0.8667
vn -0.2899 -0.0963 -0.9522
vn -0.4372 0.3974 -0.8068
vn 0.3421 -0.6106 -0.7143
vn 0.6754 -0.5844 -0.4498
vn -0.6390 0.5701 -0.5164
vn -0.8214 0.5497 -0.1520
vn 0.6803 0.2615 0.6847
vn -0.6305 0.6624 0.4046
vn 0.1347 0.6362 0.7597
vn -0.1574 -0.1153 -0.9808
vn -0.3231 0.3435 -0.8818
vn 0.9038 -0.4277 0.0148
vn 0.9387 -0.2863 0.1920
vn 0.5228 0.4273 0.7377
vn 0.0474 -0.5402 -0.8402
vn -0.3286 -0.3573 -0.8743
vn -0.3651 0.2345 -0.9009
vn -0.2829 0.4966 -0.8206
vn -0.3562 0.6233 -0.6962
vn -0.4517 0.6869 -0.5694
vn -0.7038 0.6721 -0.2300
vn 0.8961 -0.1500 0.4177
vn -0.7539 0.6256 0.2007
vn -0.2259 0.6210 0.7505
vn 0.2214 0.4757 0.8513
vn -0.0698 -0.5462 -0.8347
vn -0.7795 -0.2686 -0.5659
vn 0.2048 -0.5955 -0.7768
vn -0.7443 0.2792 -0.6067
vn -0.3401 0.6609 -0.6690
vn 0.6129 -0.6086 -0.5039
vn -0.3029 0.7516 -0.5859
vn 0.8040 0.0280 0.5939
vn -0.4876 0.6457 0.5877
vn -0.4977 -0.6090 -0.6176
vn -0.2808 -0.6668 -0.6903
vn 0.0012 -0.6654 -0.7465
vn -0.8796 -0.4505 -0.1530
vn 0.5556 -0.6242 -0.5493
vn -0.9925 -0.1015 -0.0680
vn 0.8091 -0.5514 -0.2035
vn 0.9173 -0.2436 0.3150
vn -0.5680 0.7151 -0.4074
vn -0.7114 0.6755 0.1938
vn 0.5004 0.2821 0.8185
vn -0.1566 0.5774 0.8013
vn -0.8317 0.4719 -0.2925
vn -0.3983 0.8457 -0.3551
vn -0.4076 0.8281 -0.3848
vn -0.6794 0.7133 0.1723
vn 0.6425 0.1496 0.7516
vn -0.4855 0.6974 0.5272
vn -0.7063 -0.6315 -0.3200
vn 0.1093 -0.6479 -0.7538
vn 0.5031 -0.6708 -0.5450
vn -0.9552 -0.2506 0.1575
vn 0.9143 -0.3457 0.2110
vn -0.9785 -0.0045 0.2060
vn -0.3356 0.9071 -0.2540
vn 0.2007 0.4393 0.8756
vn 0.2518 -0.7461 -0.6164
vn -0.7517 0.6594 -0.0123
vn 0.8418 -0.0530 0.5372
vn -0.5209 0.8498 -0.0810
vn -0.4290 0.7371 0.5221
vn 0.7041 0.0651 0.7071
vn -0.1426 0.6163 0.7745
vn -0.3083 -0.8103 -0.4984
vn -0.9063 -0.3962 0.1471
vn 0.8207 -0.5563 -0.1306
vn -0.5541 0.7997 0.2313
vn 0.4507 0.2865 0.8454
vn 0.2189 0.4383 0.8718
vn 0.0998 -0.8512 -0.5153
vn -0.8095 -0.5831 -0.0682
vn 0.6290 -0.7704 -0.1039
vn -0.6822 0.5222 0.5118
vn -0.3768 0.9116 0.1641
vn -0.3039 0.7102 0.6350
vn -0.5626 -0.8252 0.0504
vn 0.3861 -0.9044 -0.1816
vn 0.7755 -0.5363 0.3330
vn 0.8943 -0.1911 0.4045
vn -0.3670 0.9302 -0.0069
vn -0.3169 0.8288 0.4612
vn 0.5651 0.1927 0.8022
vn -0.0760 0.5880 0.8053
vn -0.0566 -0.9982 0.0186
vn 0.1523 -0.9841 0.0914
vn 0.3435 -0.9291 0.1375
vn -0.7655 -0.4630 0.4468
vn -0.9005 -0.1858 0.3933
vn -0.7553 0.0663 0.6521
vn -0.2796 0.8500 0.4465
vn 0.5412 0.2825 0.7920
vn 0.4931 -0.7817 0.3818
vn 0.7015 0.0597 0.7102
vn -0.2332 0.6771 0.6979
vn -0.0937 0.6422 0.7608
vn 0.1830 0.4699 0.8635
vn -0.2393 -0.8111 0.5337
vn 0.8574 -0.2774 0.4335
vn 0.3443 0.3839 0.8568
vn 0.0744 0.5028 0.8612
vn 0.2028 -0.7925 0.5752
vn 0.4611 -0.6867 0.5619
vn -0.8539 -0.2777 0.4401
vn -0.4546 0.4326 0.7786
vn -0.2835 -0.5367 0.7947
vn 0.6723 -0.3002 0.6767
vn -0.3082 0.4515 0.8373
vn 0.3298 0.3583 0.8734
vn -0.0500 0.5677 0.8217
vn -0.7021 -0.2013 0.6830
vn 0.4211 -0.4592 0.7822
vn -0.3897 0.1148 0.9138
vn 0.1440 -0.4817 0.8644
vn 0.3689 0.1947 0.9088
vn -0.0839 0.3672 0.9263
vn 0.0289 0.3447 0.9383
vn 0.3087 -0.1391 0.9410
vn 0.1576 0.1146 0.9808
vn -0.2342 -0.1237 0.9643
vn 0.0145 0.0090 0.9999
vn -0.0748 0.1653 0.9834
usemtl mtl1.701
s 1
f 9//7 10//8 11//9
f 11//9 12//10 13//11
f 9//7 11//9 13//11
f 14//12 13//11 12//10
f 13//11 15//13 9//7
f 16//14 15//13 13//11
f 17//15 16//14 13//11
f 17//15 13//11 14//12
f 18//16 19//17 20//18
f 11//9 18//16 12//10
f 19//17 18//16 11//9
f 10//8 19//17 11//9
f 12//10 18//16 21//19
f 14//12 12//10 21//19
f 14//12 22//20 17//15
f 16//14 17//15 23//21
f 20//18 24//22 18//16
f 25//23 9//7 15//13
f 14//12 21//19 26//24
f 15//13 16//14 27//25
f 14//12 26//24 22//20
f 16//14 28//26 27//25
f 17//15 22//20 23//21
f 28//26 16//14 23//21
f 29//27 20//18 19//17
f 19//17 30//28 29//27
f 18//16 24//22 31//29
f 30//28 19//17 10//8
f 30//28 10//8 25//23
f 18//16 31//29 21//19
f 10//8 9//7 25//23
f 15//13 27//25 32//30
f 28//26 23//21 33//31
f 20//18 34//32 24//22
f 25//23 15//13 32//30
f 27//25 28//26 35//33
f 23//21 22//20 33//31
f 24//22 34//32 36//34
f 34//32 37//35 36//34
f 24//22 36//34 31//29
f 38//36 30//28 25//23
f 32//30 27//25 39//37
f 33//31 22//20 40//38
f 41//39 34//32 42//40
f 20//18 42//40 34//32
f 29//27 42//40 20//18
f 43//41 36//34 44//42
f 36//34 43//41 31//29
f 38//36 25//23 32//30
f 43//41 45//43 31//29
f 45//43 21//19 31//29
f 45//43 26//24 21//19
f 27//25 35//33 39//37
f 22//20 26//24 40//38
f 28//26 33//31 35//33
f 34//32 46//44 47//45
f 34//32 47//45 37//35
f 44//42 36//34 48//46
f 47//45 36//34 37//35
f 49//47 42//40 29//27
f 29//27 30//28 49//47
f 45//43 50//48 26//24
f 26//24 51//49 40//38
f 40//38 52//50 33//31
f 46//44 34//32 41//39
f 47//45 48//46 36//34
f 30//28 38//36 49//47
f 43//41 53//51 45//43
f 32//30 39//37 54//52
f 26//24 50//48 51//49
f 52//50 40//38 51//49
f 33//31 52//50 55//53
f 55//53 35//33 33//31
f 46//44 56//54 47//45
f 56//54 57//55 47//45
f 57//55 48//46 47//45
f 42//40 49//47 58//56
f 59//57 49//47 38//36
f 32//30 59//57 38//36
f 60//58 54//52 39//37
f 35//33 60//58 39//37
f 55//53 60//58 35//33
f 61//59 52//50 51//49
f 62//60 63//61 56//54
f 57//55 63//61 64//62
f 56//54 63//61 57//55
f 62//60 56//54 46//44
f 46//44 41//39 62//60
f 65//63 41//39 42//40
f 65//63 42//40 66//64
f 57//55 67//65 48//46
f 68//66 44//42 48//46
f 44//42 53//51 43//41
f 69//67 54//52 60//58
f 70//68 51//49 50//48
f 61//59 71//69 52//50
f 55//53 52//50 71//69
f 72//70 63//61 62//60
f 63//61 72//70 64//62
f 64//62 72//70 73//71
f 65//63 62//60 41//39
f 67//65 57//55 64//62
f 66//64 58//56 74//72
f 42//40 58//56 66//64
f 58//56 59//57 75//73
f 49//47 59//57 58//56
f 53//51 44//42 68//66
f 59//57 32//30 54//52
f 50//48 45//43 53//51
f 51//49 70//68 61//59
f 60//58 55//53 76//74
f 55//53 71//69 76//74
f 72//70 62//60 77//75
f 72//70 78//76 79//77
f 80//78 72//70 79//77
f 73//71 72//70 80//78
f 73//71 80//78 81//79
f 64//62 73//71 81//79
f 64//62 82//80 67//65
f 74//72 58//56 75//73
f 48//46 83//81 68//66
f 84//82 59//57 54//52
f 85//83 50//48 53//51
f 70//68 50//48 85//83
f 69//67 60//58 76//74
f 70//68 86//84 61//59
f 61//59 86//84 71//69
f 87//85 71//69 86//84
f 76//74 71//69 87//85
f 72//70 88//86 78//76
f 77//75 88//86 72//70
f 78//76 89//87 79//77
f 65//63 90//88 62//60
f 91//89 79//77 89//87
f 91//89 92//90 79//77
f 92//90 80//78 79//77
f 65//63 66//64 93//91
f 81//79 80//78 94//92
f 64//62 81//79 82//80
f 83//81 48//46 67//65
f 95//93 84//82 54//52
f 68//66 85//83 53//51
f 69//67 95//93 54//52
f 70//68 96//94 86//84
f 76//74 87//85 69//67
f 97//95 88//86 98//96
f 99//97 98//96 88//86
f 77//75 99//97 88//86
f 77//75 62//60 90//88
f 97//95 100//98 89//87
f 97//95 89//87 78//76
f 88//86 97//95 78//76
f 101//99 65//63 93//91
f 89//87 102//100 91//89
f 93//91 66//64 103//101
f 103//101 66//64 74//72
f 81//79 94//92 82//80
f 74//72 75//73 104//102
f 67//65 82//80 105//103
f 67//65 105//103 83//81
f 84//82 75//73 59//57
f 106//104 85//83 68//66
f 107//105 95//93 69//67
f 85//83 96//94 70//68
f 96//94 108//106 86//84
f 107//105 69//67 87//85
f 87//85 86//84 108//106
f 100//98 102//100 89//87
f 90//88 65//63 101//99
f 91//89 102//100 109//107
f 109//107 92//90 91//89
f 92//90 94//92 80//78
f 110//108 92//90 109//107
f 94//92 92//90 110//108
f 82//80 94//92 111//109
f 112//110 68//66 83//81
f 113//111 84//82 95//93
f 68//66 112//110 106//104
f 114//112 85//83 106//104
f 107//105 113//111 95//93
f 96//94 85//83 114//112
f 98//96 115//113 97//95
f 77//75 90//88 116//114
f 90//88 101//99 117//115
f 100//98 118//116 102//100
f 93//91 103//101 101//99
f 74//72 104//102 119//117
f 102//100 120//118 109//107
f 94//92 110//108 121//119
f 84//82 104//102 75//73
f 114//112 108//106 96//94
f 113//111 107//105 122//120
f 87//85 108//106 122//120
f 107//105 87//85 122//120
f 97//95 115//113 100//98
f 77//75 116//114 99//97
f 123//121 90//88 117//115
f 119//117 103//101 74//72
f 110//108 109//107 124//122
f 111//109 94//92 121//119
f 82//80 111//109 105//103
f 104//102 84//82 125//123
f 83//81 105//103 126//124
f 112//110 127//125 114//112
f 128//126 84//82 113//111
f 112//110 114//112 106//104
f 129//127 122//120 108//106
f 108//106 114//112 129//127
f 98//96 130//128 115//113
f 98//96 99//97 130//128
f 100//98 115//113 131//129
f 90//88 123//121 116//114
f 118//116 100//98 131//129
f 117//115 101//99 132//130
f 101//99 103//101 132//130
f 109//107 120//118 124//122
f 125//123 119//117 104//102
f 128//126 125//123 84//82
f 133//131 83//81 126//124
f 133//131 112//110 83//81
f 112//110 133//131 127//125
f 128//126 113//111 134//132
f 134//132 122//120 135//133
f 134//132 113//111 122//120
f 122//120 129//127 135//133
f 99//97 116//114 136//134
f 130//128 99//97 136//134
f 123//121 136//134 116//114
f 115//113 137//135 131//129
f 123//121 117//115 138//136
f 103//101 119//117 132//130
f 102//100 118//116 120//118
f 120//118 139//137 124//122
f 110//108 124//122 140//138
f 105//103 111//109 126//124
f 133//131 141//139 127//125
f 129//127 114//112 127//125
f 130//128 142//140 137//135
f 130//128 137//135 115//113
f 143//141 136//134 123//121
f 123//121 138//136 143//141
f 138//136 117//115 132//130
f 132//130 119//117 144//142
f 125//123 145//143 119//117
f 124//122 139//137 140//138
f 110//108 140//138 121//119
f 121//119 140//138 146//144
f 111//109 121//119 146//144
f 111//109 146//144 126//124
f 126//124 146//144 147//145
f 148//146 125//123 128//126
f 133//131 126//124 147//145
f 148//146 128//126 134//132
f 129//127 149//147 135//133
f 148//146 134//132 135//133
f 129//127 127//125 141//139
f 142//140 130//128 150//148
f 136//134 150//148 130//128
f 136//134 151//149 150//148
f 136//134 152//150 151//149
f 136//134 143//141 152//150
f 132//130 144//142 138//136
f 137//135 153//151 131//129
f 131//129 154//152 118//116
f 118//116 154//152 120//118
f 154//152 155//153 120//118
f 146//144 140//138 156//154
f 146//144 156//154 147//145
f 135//133 157//155 148//146
f 141//139 133//131 147//145
f 149//147 129//127 141//139
f 138//136 158//156 143//141
f 138//136 144//142 158//156
f 125//123 159//157 145//143
f 120//118 155//153 139//137
f 157//155 159//157 125//123
f 140//138 160//158 156//154
f 125//123 148//146 157//155
f 147//145 156//154 161//159
f 149//147 147//145 161//159
f 141//139 147//145 149//147
f 162//160 135//133 149//147
f 157//155 135//133 162//160
f 163//161 142//140 150//148
f 137//135 142//140 153//151
f 143//141 158//156 152//150
f 119//117 164//162 144//142
f 157//155 165//163 159//157
f 139//137 160//158 140//138
f 160//158 161//159 156//154
f 149//147 166//164 162//160
f 142//140 163//161 153//151
f 167//165 150//148 151//149
f 167//165 151//149 152//150
f 152//150 158//156 167//165
f 158//156 144//142 168//166
f 153//151 169//167 131//129
f 169//167 154//152 131//129
f 145//143 164//162 119//117
f 170//168 160//158 139//137
f 155//153 170//168 139//137
f 165//163 157//155 162//160
f 166//164 149//147 161//159
f 167//165 163//161 150//148
f 153//151 163//161 171//169
f 158//156 168//166 167//165
f 144//142 172//170 168//166
f 159//157 164//162 145//143
f 173//171 160//158 170//168
f 174//172 165//163 166//164
f 175//173 160//158 173//171
f 161//159 160//158 175//173
f 162//160 166//164 165//163
f 153//151 176//174 169//167
f 171//169 176//174 153//151
f 168//166 172//170 177//175
f 172//170 144//142 164//162
f 176//174 154//152 169//167
f 155//153 154//152 176//174
f 164//162 159//157 172//170
f 178//176 155//153 176//174
f 173//171 155//153 178//176
f 155//153 173//171 170//168
f 159//157 165//163 174//172
f 166//164 161//159 175//173
f 168//166 179//177 167//165
f 172//170 159//157 180//178
f 180//178 159//157 174//172
f 181//179 173//171 178//176
f 182//180 180//178 166//164
f 180//178 174//172 166//164
f 175//173 173//171 181//179
f 171//169 163//161 167//165
f 168//166 177//175 179//177
f 182//180 175//173 181//179
f 182//180 166//164 175//173
f 171//169 167//165 179//177
f 179//177 177//175 183//181
f 177//175 172//170 183//181
f 172//170 180//178 183//181
f 183//181 180//178 184//182
f 184//182 180//178 182//180
f 185//183 171//169 179//177
f 171//169 185//183 176//174
f 186//184 185//183 179//177
f 179//177 183//181 186//184
f 185//183 178//176 176//174
f 187//185 178//176 185//183
f 183//181 184//182 186//184
f 187//185 181//179 178//176
f 186//184 182//180 187//185
f 184//182 182//180 186//184
f 182//180 181//179 187//185
f 186//184 187//185 185//183
