# Blender v2.92.0 OBJ File: 'convert_to_one_sided.blend'
# www.blender.org
mtllib 798L.mtl
o Cube
v 0.001000 0.001000 -0.001000
v 0.001000 -0.001000 -0.001000
v 0.001000 0.001000 0.001000
v 0.001000 -0.001000 0.001000
v -0.001000 0.001000 -0.001000
v -0.001000 -0.001000 -0.001000
v -0.001000 0.001000 0.001000
v -0.001000 -0.001000 0.001000
vt 0.625000 0.500000
vt 0.875000 0.500000
vt 0.875000 0.750000
vt 0.625000 0.750000
vt 0.375000 0.750000
vt 0.625000 1.000000
vt 0.375000 1.000000
vt 0.375000 0.000000
vt 0.625000 0.000000
vt 0.625000 0.250000
vt 0.375000 0.250000
vt 0.125000 0.500000
vt 0.375000 0.500000
vt 0.125000 0.750000
vn 0.0000 1.0000 0.0000
vn 0.0000 0.0000 1.0000
vn -1.0000 0.0000 0.0000
vn 0.0000 -1.0000 0.0000
vn 1.0000 0.0000 0.0000
vn 0.0000 0.0000 -1.0000
usemtl Material
s off
f 1/1/1 5/2/1 7/3/1 3/4/1
f 4/5/2 3/4/2 7/6/2 8/7/2
f 8/8/3 7/9/3 5/10/3 6/11/3
f 6/12/4 2/13/4 4/5/4 8/14/4
f 2/13/5 1/1/5 3/4/5 4/5/5
f 6/11/6 5/10/6 1/1/6 2/13/6
o 798
v 10.304467 6.291698 3.952860
v 10.262967 6.291909 3.968290
v 10.287568 6.349518 3.953190
v 10.335567 6.314158 3.965950
v 10.230168 6.331608 3.983000
v 10.259868 6.350338 3.976950
v 10.345867 6.325118 3.994410
v 10.300867 6.343548 4.004529
v 10.349767 6.193960 4.013699
v 10.357567 6.254499 3.991119
v 10.250968 6.257359 4.010570
v 10.374766 6.262749 4.008770
v 10.302768 6.195750 4.025149
v 10.265167 6.322098 4.024839
v 10.309768 6.149500 4.074008
v 10.405166 6.193310 4.044559
v 10.403267 6.240689 4.049949
v 10.252769 6.271769 4.040149
v 10.366467 6.279259 4.050259
v 10.277667 6.203300 4.066169
v 10.372766 6.098951 4.086418
v 10.333167 6.130401 4.129958
v 10.438465 6.076171 4.107948
v 10.452366 6.126950 4.107838
v 10.346967 6.264209 4.075398
v 10.294368 6.207190 4.096448
v 10.427666 6.171090 4.117918
v 10.316567 6.234519 4.090398
v 10.498065 6.015372 4.175617
v 10.435066 6.001442 4.156017
v 10.399366 6.014272 4.175107
v 10.509665 6.006662 4.224937
v 10.399965 6.149720 4.155087
v 10.490865 5.950243 4.204787
v 10.347067 6.165300 4.133428
v 10.547164 5.881574 4.273426
v 10.407766 6.023692 4.217617
v 10.470865 6.062572 4.211507
v 10.478665 5.900493 4.234016
v 10.498665 5.803605 4.315586
v 10.446865 5.919953 4.267376
v 10.400867 6.091651 4.185937
v 10.528665 5.852824 4.269316
v 10.456965 6.034632 4.241306
v 10.466365 5.908584 4.308205
v 10.444965 5.999572 4.255376
v 10.548964 5.770225 4.321045
v 10.571864 5.781805 4.324365
v 10.490664 5.819335 4.344465
v 10.528065 5.924933 4.310785
v 10.565364 5.862384 4.320755
v 10.494266 5.921453 4.317616
v 10.605364 5.681826 4.388124
v 10.594264 5.765895 4.362955
v 10.581064 5.635177 4.406954
v 10.552464 5.640626 4.423594
v 10.516464 5.789934 4.390735
v 10.546964 5.678806 4.444754
v 10.521765 5.834145 4.376975
v 10.564564 5.802094 4.398524
v 10.602064 5.752885 4.403174
v 10.587264 5.523388 4.480653
v 10.637663 5.548717 4.463863
v 10.632963 5.638757 4.438864
v 10.569864 5.547368 4.500443
v 10.565064 5.731475 4.440134
v 10.629064 5.641286 4.506543
v 10.616263 5.503038 4.480583
v 10.684662 5.479428 4.542112
v 10.650963 5.603577 4.494833
v 10.649463 5.410570 4.546873
v 10.610163 5.433589 4.532572
v 10.588863 5.447999 4.617551
v 10.593463 5.426159 4.565292
v 10.691563 5.498609 4.588542
v 10.601064 5.601417 4.533583
v 10.696062 5.350410 4.610032
v 10.619264 5.342200 4.602092
v 10.662563 5.287451 4.641642
v 10.725362 5.352350 4.668161
v 10.630363 5.574187 4.572612
v 10.709162 5.240652 4.718600
v 10.642863 5.465069 4.663421
v 10.676662 5.503738 4.622221
v 10.632363 5.213742 4.721540
v 10.608563 5.298271 4.689651
v 10.729762 5.360060 4.731550
v 10.676962 5.177242 4.755860
v 10.635263 5.303011 4.814629
v 10.704863 5.375990 4.753660
v 10.610864 5.258011 4.783279
v 10.725862 5.141763 4.824119
v 10.625063 5.170593 4.824698
v 10.674663 5.344950 4.794680
v 10.682563 5.098924 4.874888
v 10.726762 5.094463 4.876848
v 10.750662 5.213152 4.817209
v 10.757462 5.259922 4.854629
v 10.712461 5.281091 4.873898
v 10.644163 5.166563 4.948067
v 10.759662 5.231232 4.939077
v 10.682063 5.269511 4.896858
v 11.041558 5.408869 4.949307
v 11.003259 5.377090 4.951417
v 11.006858 5.443149 4.932918
v 11.028758 5.469978 4.948267
v 10.668763 5.082263 4.971087
v 10.783861 5.107823 4.906158
v 10.982059 5.429309 4.967997
v 11.004559 5.477468 4.978737
v 11.054258 5.469849 4.989067
v 10.785061 5.049344 4.969237
v 10.731562 5.032994 5.008566
v 10.816360 5.164843 4.917518
v 10.722262 5.238122 4.947638
v 10.976358 5.346050 4.983637
v 11.063658 5.415239 5.024256
v 11.027457 5.487278 5.000486
v 10.876659 5.109063 4.976247
v 10.817361 5.203772 4.950158
v 10.716562 5.219142 4.993947
v 10.997458 5.294591 4.978737
v 11.020158 5.294861 4.990716
v 10.892760 5.186452 4.968937
v 10.965559 5.202772 4.994816
v 10.791361 5.220602 4.984317
v 10.877561 5.229331 4.997196
v 10.943059 5.256361 4.993207
v 11.041058 5.322220 5.041376
v 10.964359 5.390180 5.028096
v 10.983358 5.455029 5.021706
v 10.954659 5.122883 5.052606
v 11.005658 5.225392 5.056496
v 10.849860 5.241742 5.050626
v 10.928359 5.293221 5.032406
v 11.063357 5.452789 5.048186
v 11.007458 5.477149 5.042976
v 11.038658 5.468998 5.050956
v 10.803660 5.017725 5.056196
v 10.702063 5.035464 5.063176
v 10.874061 5.063544 5.050936
v 10.682962 5.087924 5.073485
v 11.046658 5.398660 5.079105
v 10.715862 5.155982 5.109945
v 10.925859 5.284501 5.075995
v 10.984959 5.424189 5.073396
v 10.766562 5.022214 5.093475
v 10.941159 5.103563 5.123325
v 11.004658 5.247952 5.123665
v 10.963559 5.347100 5.087585
v 10.736161 5.056884 5.136175
v 10.863060 5.064984 5.135645
v 10.977058 5.173993 5.134015
v 10.817361 5.217072 5.117755
v 11.039158 5.443809 5.087595
v 11.014858 5.440829 5.088875
v 10.929259 5.277351 5.116815
v 11.000258 5.325031 5.110485
v 10.981459 5.357100 5.118425
v 10.996658 5.397719 5.101695
v 11.011559 5.395380 5.096315
v 10.805561 5.067284 5.170424
v 10.734062 5.106443 5.157764
v 10.933760 5.133713 5.186394
v 10.956059 5.243981 5.172784
v 10.806661 5.177763 5.187854
v 10.883160 5.207832 5.188644
v 10.956159 5.193322 5.189204
v 10.796561 5.102333 5.200964
v 10.866460 5.112263 5.203894
v 10.782161 5.136613 5.185774
v 10.919859 5.190632 5.216063
v 10.857861 5.155093 5.205074
v 10.906960 5.158053 5.199334
vn 0.1238 -0.2335 -0.9644
vn -0.4811 -0.2843 -0.8293
vn 0.0983 0.6601 -0.7447
vn 0.6463 0.1907 -0.7389
vn -0.9727 0.2235 -0.0629
vn -0.4576 0.8643 -0.2088
vn 0.7207 0.6827 -0.1206
vn 0.1793 0.8933 0.4121
vn 0.0966 -0.5178 -0.8500
vn 0.5619 -0.1991 -0.8029
vn -0.8514 -0.4629 -0.2468
vn 0.8196 0.1375 -0.5562
vn -0.4119 -0.6272 -0.6611
vn -0.3425 0.6297 0.6972
vn -0.7476 -0.6242 -0.2268
vn 0.7000 -0.1193 -0.7042
vn 0.9000 0.4180 -0.1240
vn -0.8063 0.1128 0.5806
vn 0.5157 0.7029 0.4899
vn -0.9047 -0.3252 0.2753
vn -0.2614 -0.6709 -0.6940
vn -0.8027 -0.1517 0.5768
vn 0.3990 -0.4086 -0.8209
vn 0.9149 0.1745 -0.3641
vn 0.1426 0.6456 0.7502
vn -0.6282 0.1422 0.7649
vn 0.6495 0.6211 0.4386
vn -0.2686 0.4621 0.8452
vn 0.7925 -0.1082 -0.6002
vn -0.1155 -0.6395 -0.7601
vn -0.7873 -0.5824 -0.2021
vn 0.9033 0.4242 0.0646
vn 0.0071 0.5797 0.8148
vn 0.3597 -0.4518 -0.8164
vn -0.3788 0.3148 0.8703
vn 0.8250 -0.0680 -0.5610
vn -0.8093 0.0191 0.5870
vn 0.4696 0.6551 0.5919
vn -0.1595 -0.6165 -0.7710
vn -0.7536 -0.5470 -0.3644
vn -0.9394 -0.2571 0.2268
vn -0.4430 0.3530 0.8241
vn 0.3597 -0.4085 -0.8389
vn -0.0721 0.5610 0.8247
vn -0.7181 0.1692 0.6750
vn -0.4656 0.3734 0.8024
vn 0.0705 -0.5343 -0.8424
vn 0.6236 -0.2587 -0.7377
vn -0.9408 -0.1949 0.2772
vn 0.5244 0.6095 0.5946
vn 0.9398 0.3417 -0.0076
vn -0.1747 0.5114 0.8414
vn 0.5993 -0.2824 -0.7491
vn 0.9302 0.0778 -0.3586
vn -0.1545 -0.5342 -0.8311
vn -0.8493 -0.4136 -0.3280
vn -0.6911 0.1682 0.7029
vn -0.9188 0.0000 0.3948
vn -0.3177 0.4306 0.8448
vn 0.2258 0.5952 0.7712
vn 0.8899 0.4203 0.1771
vn -0.6499 -0.4844 -0.5857
vn 0.5270 -0.3433 -0.7775
vn 0.9263 0.0561 -0.3725
vn -0.9588 -0.2580 -0.1187
vn -0.3336 0.4227 0.8427
vn 0.4468 0.6529 0.6116
vn -0.0545 -0.5343 -0.8435
vn 0.8785 -0.0785 -0.4713
vn 0.9505 0.3092 -0.0313
vn 0.2461 -0.5321 -0.8101
vn -0.4219 -0.5664 -0.7080
vn -0.9404 0.1337 0.3127
vn -0.8909 -0.3495 -0.2901
vn 0.9365 0.3482 0.0422
vn -0.4567 0.5083 0.7301
vn 0.6536 -0.4097 -0.6364
vn -0.5206 -0.5787 -0.6278
vn 0.1560 -0.6558 -0.7386
vn 0.9547 -0.0698 -0.2893
vn -0.0561 0.6701 0.7401
vn 0.6734 -0.4805 -0.5618
vn -0.2660 0.6488 0.7129
vn 0.5085 0.6557 0.5581
vn -0.5374 -0.6707 -0.5113
vn -0.9478 -0.2732 -0.1646
vn 0.9248 0.3602 0.1221
vn 0.1550 -0.7489 -0.6442
vn -0.6488 0.5429 0.5332
vn 0.3844 0.7290 0.5664
vn -0.9869 0.0160 0.1608
vn 0.5844 -0.5372 -0.6082
vn -0.9082 -0.4071 -0.0966
vn -0.1063 0.7629 0.6377
vn -0.3337 -0.8532 -0.4009
vn 0.2438 -0.7786 -0.5782
vn 0.8950 -0.1300 -0.4267
vn 0.8038 0.5915 0.0632
vn 0.2653 0.8243 0.5001
vn -0.9353 0.1573 0.3168
vn 0.3732 0.9056 0.2017
vn -0.1050 0.8376 0.5361
vn 0.7361 -0.1407 -0.6621
vn -0.2390 -0.2629 -0.9347
vn -0.3478 0.2319 -0.9084
vn 0.2976 0.6969 -0.6526
vn -0.8171 -0.5750 -0.0422
vn 0.5884 -0.4684 -0.6590
vn -0.8921 0.1758 -0.4163
vn -0.5874 0.7640 -0.2669
vn 0.8331 0.5241 -0.1770
vn 0.2760 -0.8329 -0.4797
vn -0.2437 -0.9429 -0.2270
vn 0.7263 0.0910 -0.6813
vn 0.1458 0.9144 0.3776
vn -0.7458 0.0412 -0.6649
vn 0.9943 -0.1013 -0.0339
vn 0.1484 0.9885 -0.0282
vn 0.5599 -0.4717 -0.6812
vn 0.4485 0.7954 -0.4077
vn -0.3274 0.8736 0.3602
vn -0.0466 -0.2068 -0.9773
vn 0.6860 -0.3792 -0.6210
vn 0.3055 0.2615 -0.9156
vn 0.5128 -0.2978 -0.8052
vn 0.0931 0.9906 -0.1000
vn -0.1569 0.7663 -0.6230
vn -0.2741 0.2455 -0.9298
vn 0.9652 -0.2406 0.1028
vn -0.9643 0.2615 -0.0423
vn -0.8771 0.4770 0.0570
vn 0.7714 -0.5846 -0.2514
vn 0.9086 -0.4021 -0.1133
vn -0.3725 0.9268 -0.0470
vn -0.7691 0.5697 -0.2897
vn 0.8875 0.3482 0.3018
vn -0.4217 0.8369 0.3489
vn 0.3277 0.8538 0.4045
vn 0.2462 -0.9662 -0.0758
vn -0.6224 -0.7637 0.1714
vn 0.5367 -0.8188 -0.2041
vn -0.9086 -0.1616 0.3850
vn 0.7974 -0.0980 0.5954
vn -0.7094 0.4946 0.5022
vn -0.7134 0.6869 0.1386
vn -0.7836 0.4293 0.4490
vn -0.0767 -0.9543 0.2890
vn 0.6767 -0.7182 0.1619
vn 0.8838 -0.0644 0.4634
vn -0.8540 0.4230 0.3028
vn -0.5182 -0.5933 0.6159
vn 0.3775 -0.8559 0.3535
vn 0.8886 -0.3917 0.2386
vn -0.4179 0.8413 0.3430
vn 0.4343 0.3846 0.8145
vn -0.1652 0.5563 0.8144
vn -0.5051 0.6949 0.5119
vn 0.5061 0.1253 0.8533
vn -0.1939 0.3157 0.9288
vn -0.3806 0.3953 0.8360
vn 0.3173 0.1347 0.9387
vn 0.0276 -0.7834 0.6208
vn -0.7197 0.0070 0.6943
vn 0.5713 -0.4966 0.6535
vn 0.2296 0.5462 0.8056
vn -0.4210 0.5413 0.7279
vn -0.2890 0.6648 0.6888
vn 0.6796 -0.1384 0.7204
vn -0.3020 -0.2460 0.9210
vn 0.2039 -0.4475 0.8707
vn -0.4985 0.2572 0.8278
vn 0.1566 0.1003 0.9826
vn -0.1379 0.0997 0.9854
vn 0.2831 -0.2768 0.9183
usemtl mtl1.706
s 1
f 9//7 10//8 11//9
f 12//10 9//7 11//9
f 10//8 13//11 14//12
f 10//8 14//12 11//9
f 15//13 12//10 11//9
f 16//14 11//9 14//12
f 15//13 11//9 16//14
f 10//8 9//7 17//15
f 18//16 9//7 12//10
f 13//11 10//8 19//17
f 15//13 20//18 12//10
f 19//17 10//8 21//19
f 17//15 21//19 10//8
f 18//16 17//15 9//7
f 18//16 12//10 20//18
f 22//20 14//12 13//11
f 14//12 22//20 16//14
f 21//19 23//21 19//17
f 18//16 24//22 17//15
f 20//18 24//22 18//16
f 25//23 20//18 15//13
f 26//24 22//20 13//11
f 27//25 15//13 16//14
f 23//21 28//26 19//17
f 19//17 26//24 13//11
f 25//23 15//13 27//25
f 29//27 23//21 21//19
f 29//27 21//19 17//15
f 23//21 30//28 28//26
f 24//22 31//29 17//15
f 31//29 24//22 32//30
f 25//23 32//30 24//22
f 24//22 20//18 25//23
f 19//17 28//26 26//24
f 33//31 27//25 16//14
f 33//31 16//14 22//20
f 29//27 17//15 31//29
f 28//26 30//28 34//32
f 28//26 34//32 26//24
f 25//23 27//25 35//33
f 36//34 26//24 34//32
f 36//34 22//20 26//24
f 33//31 22//20 36//34
f 31//29 32//30 37//35
f 32//30 25//23 35//33
f 33//31 35//33 27//25
f 29//27 38//36 39//37
f 38//36 29//27 31//29
f 29//27 39//37 23//21
f 30//28 23//21 39//37
f 32//30 40//38 37//35
f 41//39 35//33 33//31
f 42//40 38//36 31//29
f 37//35 42//40 31//29
f 40//38 32//30 35//33
f 30//28 43//41 34//32
f 34//32 43//41 36//34
f 40//38 44//42 37//35
f 39//37 45//43 30//28
f 35//33 46//44 40//38
f 35//33 41//39 46//44
f 33//31 36//34 41//39
f 41//39 36//34 43//41
f 47//45 38//36 42//40
f 38//36 47//45 39//37
f 39//37 48//46 49//47
f 49//47 45//43 39//37
f 45//43 50//48 30//28
f 30//28 50//48 43//41
f 41//39 43//41 50//48
f 47//45 42//40 51//49
f 39//37 47//45 48//46
f 37//35 44//42 42//40
f 52//50 41//39 50//48
f 46//44 41//39 52//50
f 51//49 42//40 44//42
f 45//43 49//47 53//51
f 54//52 45//43 53//51
f 54//52 50//48 45//43
f 52//50 50//48 54//52
f 55//53 48//46 47//45
f 55//53 47//45 51//49
f 44//42 56//54 51//49
f 57//55 49//47 48//46
f 46//44 52//50 58//56
f 46//44 58//56 40//38
f 51//49 56//54 55//53
f 49//47 57//55 53//51
f 58//56 59//57 40//38
f 40//38 59//57 44//42
f 52//50 54//52 60//58
f 58//56 52//50 60//58
f 55//53 56//54 61//59
f 44//42 62//60 56//54
f 53//51 60//58 54//52
f 63//61 55//53 61//59
f 63//61 64//62 48//46
f 55//53 63//61 48//46
f 56//54 62//60 61//59
f 62//60 44//42 59//57
f 53//51 57//55 65//63
f 48//46 66//64 57//55
f 66//64 48//46 64//62
f 53//51 65//63 67//65
f 68//66 58//56 60//58
f 57//55 66//64 65//63
f 69//67 59//57 58//56
f 68//66 69//67 58//56
f 53//51 67//65 60//58
f 68//66 60//58 67//65
f 63//61 70//68 64//62
f 61//59 71//69 63//61
f 61//59 62//60 72//70
f 62//60 69//67 72//70
f 62//60 59//57 69//67
f 64//62 70//68 73//71
f 61//59 72//70 71//69
f 64//62 73//71 66//64
f 74//72 65//63 66//64
f 65//63 74//72 67//65
f 68//66 67//65 74//72
f 69//67 68//66 75//73
f 76//74 70//68 63//61
f 71//69 76//74 63//61
f 72//70 77//75 71//69
f 72//70 69//67 78//76
f 78//76 69//67 75//73
f 75//73 68//66 74//72
f 79//77 80//78 76//74
f 80//78 70//68 76//74
f 71//69 79//77 76//74
f 71//69 77//75 79//77
f 77//75 72//70 78//76
f 81//79 66//64 73//71
f 70//68 82//80 73//71
f 78//76 83//81 77//75
f 81//79 84//82 66//64
f 84//82 74//72 66//64
f 77//75 85//83 79//77
f 73//71 82//80 81//79
f 75//73 74//72 84//82
f 86//84 80//78 79//77
f 87//85 86//84 79//77
f 87//85 79//77 85//83
f 86//84 82//80 80//78
f 80//78 82//80 70//68
f 83//81 88//86 77//75
f 83//81 78//76 75//73
f 75//73 84//82 89//87
f 87//85 85//83 90//88
f 85//83 77//75 88//86
f 91//89 84//82 81//79
f 75//73 92//90 83//81
f 75//73 89//87 92//90
f 89//87 84//82 91//89
f 87//85 93//91 86//84
f 82//80 86//84 94//92
f 94//92 81//79 82//80
f 89//87 91//89 92//90
f 94//92 86//84 93//91
f 88//86 83//81 95//93
f 87//85 96//94 93//91
f 87//85 90//88 96//94
f 97//95 91//89 81//79
f 95//93 83//81 92//90
f 91//89 98//96 92//90
f 94//92 99//97 81//79
f 99//97 97//95 81//79
f 92//90 98//96 95//93
f 96//94 90//88 100//98
f 93//91 101//99 94//92
f 90//88 85//83 88//86
f 98//96 91//89 102//100
f 93//91 96//94 103//101
f 96//94 100//98 104//102
f 101//99 99//97 94//92
f 97//95 102//100 91//89
f 96//94 104//102 103//101
f 88//86 95//93 105//103
f 105//103 95//93 106//104
f 107//105 106//104 98//96
f 98//96 106//104 95//93
f 102//100 107//105 98//96
f 103//101 101//99 93//91
f 90//88 88//86 105//103
f 101//99 108//106 99//97
f 106//104 107//105 109//107
f 97//95 110//108 102//100
f 102//100 110//108 107//105
f 90//88 105//103 100//98
f 108//106 97//95 99//97
f 111//109 112//110 113//111
f 111//109 113//111 114//112
f 101//99 103//101 115//113
f 104//102 100//98 116//114
f 116//114 100//98 105//103
f 117//115 113//111 112//110
f 118//116 113//111 117//115
f 114//112 119//117 111//109
f 114//112 113//111 118//116
f 103//101 104//102 120//118
f 121//119 103//101 120//118
f 104//102 116//114 120//118
f 108//106 101//99 115//113
f 122//120 105//103 106//104
f 123//121 107//105 110//108
f 112//110 124//122 117//115
f 111//109 119//117 125//123
f 114//112 118//116 126//124
f 115//113 103//101 121//119
f 105//103 122//120 116//114
f 127//125 116//114 122//120
f 122//120 106//104 128//126
f 97//95 129//127 110//108
f 107//105 123//121 109//107
f 130//128 112//110 131//129
f 130//128 124//122 112//110
f 112//110 111//109 131//129
f 126//124 119//117 114//112
f 116//114 127//125 120//118
f 127//125 122//120 132//130
f 133//131 127//125 132//130
f 122//120 128//126 132//130
f 129//127 97//95 108//106
f 128//126 109//107 134//132
f 106//104 109//107 128//126
f 135//133 136//134 132//130
f 133//131 132//130 136//134
f 130//128 133//131 136//134
f 130//128 131//129 133//131
f 130//128 136//134 124//122
f 131//129 111//109 137//135
f 125//123 137//135 111//109
f 117//115 124//122 138//136
f 139//137 118//116 117//115
f 127//125 133//131 140//138
f 141//139 140//138 133//131
f 128//126 135//133 132//130
f 135//133 128//126 134//132
f 110//108 129//127 123//121
f 109//107 123//121 134//132
f 142//140 143//141 135//133
f 135//133 143//141 136//134
f 141//139 133//131 131//129
f 124//122 136//134 143//141
f 138//136 139//137 117//115
f 144//142 125//123 119//117
f 145//143 118//116 139//137
f 126//124 146//144 119//117
f 118//116 145//143 126//124
f 147//145 121//119 120//118
f 148//146 115//113 121//119
f 120//118 127//125 149//147
f 127//125 140//138 149//147
f 115//113 150//148 108//106
f 141//139 131//129 137//135
f 124//122 143//141 138//136
f 137//135 125//123 151//149
f 144//142 119//117 146//144
f 149//147 147//145 120//118
f 152//150 129//127 108//106
f 134//132 142//140 135//133
f 123//121 129//127 134//132
f 153//151 143//141 142//140
f 138//136 154//152 139//137
f 126//124 145//143 146//144
f 121//119 155//153 148//146
f 147//145 155//153 121//119
f 115//113 148//146 150//148
f 149//147 140//138 156//154
f 129//127 142//140 134//132
f 141//139 137//135 157//155
f 158//156 143//141 153//151
f 143//141 158//156 138//136
f 158//156 154//152 138//136
f 125//123 144//142 151//149
f 145//143 139//137 154//152
f 159//157 148//146 155//153
f 148//146 159//157 150//148
f 149//147 156//154 160//158
f 150//148 152//150 108//106
f 156//154 140//138 161//159
f 140//138 141//139 161//159
f 129//127 152//150 162//160
f 157//155 161//159 141//139
f 144//142 163//161 151//149
f 154//152 164//162 145//143
f 146//144 145//143 164//162
f 144//142 146//144 163//161
f 147//145 160//158 155//153
f 149//147 160//158 147//145
f 142//140 129//127 162//160
f 142//140 162//160 165//163
f 153//151 142//140 165//163
f 137//135 166//164 157//155
f 158//156 153//151 165//163
f 167//165 158//156 165//163
f 168//166 158//156 167//165
f 166//164 137//135 151//149
f 154//152 158//156 168//166
f 151//149 169//167 166//164
f 169//167 151//149 163//161
f 163//161 146//144 164//162
f 155//153 160//158 170//168
f 159//157 171//169 150//148
f 152//150 150//148 171//169
f 172//170 156//154 161//159
f 173//171 166//164 165//163
f 166//164 167//165 165//163
f 168//166 167//165 169//167
f 169//167 167//165 166//164
f 154//152 168//166 164//162
f 169//167 163//161 164//162
f 159//157 155//153 170//168
f 156//154 172//170 160//158
f 162//160 152//150 174//172
f 175//173 162//160 174//172
f 162//160 175//173 165//163
f 157//155 173//171 176//174
f 157//155 166//164 173//171
f 168//166 169//167 164//162
f 159//157 170//168 177//175
f 178//176 177//175 170//168
f 160//158 178//176 170//168
f 177//175 171//169 159//157
f 172//170 178//176 160//158
f 171//169 179//177 152//150
f 152//150 179//177 174//172
f 165//163 175//173 173//171
f 176//174 172//170 161//159
f 161//159 157//155 176//174
f 180//178 176//174 173//171
f 177//175 179//177 171//169
f 179//177 181//179 174//172
f 174//172 181//179 175//173
f 175//173 180//178 173//171
f 178//176 181//179 177//175
f 172//170 182//180 178//176
f 181//179 179//177 177//175
f 172//170 176//174 182//180
f 182//180 176//174 180//178
f 181//179 180//178 175//173
f 181//179 178//176 182//180
f 182//180 180//178 181//179
