# Blender v2.92.0 OBJ File: 'convert_to_one_sided.blend'
# www.blender.org
mtllib 798L.mtl
o 798
v 10.304467 6.291698 3.952860
v 10.262967 6.291909 3.968290
v 10.287568 6.349518 3.953190
v 10.335567 6.314158 3.965950
v 10.230168 6.331608 3.983000
v 10.259868 6.350338 3.976950
v 10.345867 6.325118 3.994410
v 10.300867 6.343548 4.004529
v 10.349767 6.193960 4.013699
v 10.357567 6.254499 3.991119
v 10.250968 6.257359 4.010570
v 10.374766 6.262749 4.008770
v 10.302768 6.195750 4.025149
v 10.265167 6.322098 4.024839
v 10.309768 6.149500 4.074008
v 10.405166 6.193310 4.044559
v 10.403267 6.240689 4.049949
v 10.252769 6.271769 4.040149
v 10.366467 6.279259 4.050259
v 10.277667 6.203300 4.066169
v 10.372766 6.098951 4.086418
v 10.333167 6.130401 4.129958
v 10.438465 6.076171 4.107948
v 10.452366 6.126950 4.107838
v 10.346967 6.264209 4.075398
v 10.294368 6.207190 4.096448
v 10.427666 6.171090 4.117918
v 10.316567 6.234519 4.090398
v 10.498065 6.015372 4.175617
v 10.435066 6.001442 4.156017
v 10.399366 6.014272 4.175107
v 10.509665 6.006662 4.224937
v 10.399965 6.149720 4.155087
v 10.490865 5.950243 4.204787
v 10.347067 6.165300 4.133428
v 10.547164 5.881574 4.273426
v 10.407766 6.023692 4.217617
v 10.470865 6.062572 4.211507
v 10.478665 5.900493 4.234016
v 10.498665 5.803605 4.315586
v 10.446865 5.919953 4.267376
v 10.400867 6.091651 4.185937
v 10.528665 5.852824 4.269316
v 10.456965 6.034632 4.241306
v 10.466365 5.908584 4.308205
v 10.444965 5.999572 4.255376
v 10.548964 5.770225 4.321045
v 10.571864 5.781805 4.324365
v 10.490664 5.819335 4.344465
v 10.528065 5.924933 4.310785
v 10.565364 5.862384 4.320755
v 10.494266 5.921453 4.317616
v 10.605364 5.681826 4.388124
v 10.594264 5.765895 4.362955
v 10.581064 5.635177 4.406954
v 10.552464 5.640626 4.423594
v 10.516464 5.789934 4.390735
v 10.546964 5.678806 4.444754
v 10.521765 5.834145 4.376975
v 10.564564 5.802094 4.398524
v 10.602064 5.752885 4.403174
v 10.587264 5.523388 4.480653
v 10.637663 5.548717 4.463863
v 10.632963 5.638757 4.438864
v 10.569864 5.547368 4.500443
v 10.565064 5.731475 4.440134
v 10.629064 5.641286 4.506543
v 10.616263 5.503038 4.480583
v 10.684662 5.479428 4.542112
v 10.650963 5.603577 4.494833
v 10.649463 5.410570 4.546873
v 10.610163 5.433589 4.532572
v 10.588863 5.447999 4.617551
v 10.593463 5.426159 4.565292
v 10.691563 5.498609 4.588542
v 10.601064 5.601417 4.533583
v 10.696062 5.350410 4.610032
v 10.619264 5.342200 4.602092
v 10.662563 5.287451 4.641642
v 10.725362 5.352350 4.668161
v 10.630363 5.574187 4.572612
v 10.709162 5.240652 4.718600
v 10.642863 5.465069 4.663421
v 10.676662 5.503738 4.622221
v 10.632363 5.213742 4.721540
v 10.608563 5.298271 4.689651
v 10.729762 5.360060 4.731550
v 10.676962 5.177242 4.755860
v 10.635263 5.303011 4.814629
v 10.704863 5.375990 4.753660
v 10.610864 5.258011 4.783279
v 10.725862 5.141763 4.824119
v 10.625063 5.170593 4.824698
v 10.674663 5.344950 4.794680
v 10.682563 5.098924 4.874888
v 10.726762 5.094463 4.876848
v 10.750662 5.213152 4.817209
v 10.757462 5.259922 4.854629
v 10.712461 5.281091 4.873898
v 10.644163 5.166563 4.948067
v 10.759662 5.231232 4.939077
v 10.682063 5.269511 4.896858
v 11.041558 5.408869 4.949307
v 11.003259 5.377090 4.951417
v 11.006858 5.443149 4.932918
v 11.028758 5.469978 4.948267
v 10.668763 5.082263 4.971087
v 10.783861 5.107823 4.906158
v 10.982059 5.429309 4.967997
v 11.004559 5.477468 4.978737
v 11.054258 5.469849 4.989067
v 10.785061 5.049344 4.969237
v 10.731562 5.032994 5.008566
v 10.816360 5.164843 4.917518
v 10.722262 5.238122 4.947638
v 10.976358 5.346050 4.983637
v 11.063658 5.415239 5.024256
v 11.027457 5.487278 5.000486
v 10.876659 5.109063 4.976247
v 10.817361 5.203772 4.950158
v 10.716562 5.219142 4.993947
v 10.997458 5.294591 4.978737
v 11.020158 5.294861 4.990716
v 10.892760 5.186452 4.968937
v 10.965559 5.202772 4.994816
v 10.791361 5.220602 4.984317
v 10.877561 5.229331 4.997196
v 10.943059 5.256361 4.993207
v 11.041058 5.322220 5.041376
v 10.964359 5.390180 5.028096
v 10.983358 5.455029 5.021706
v 10.954659 5.122883 5.052606
v 11.005658 5.225392 5.056496
v 10.849860 5.241742 5.050626
v 10.928359 5.293221 5.032406
v 11.063357 5.452789 5.048186
v 11.007458 5.477149 5.042976
v 11.038658 5.468998 5.050956
v 10.803660 5.017725 5.056196
v 10.702063 5.035464 5.063176
v 10.874061 5.063544 5.050936
v 10.682962 5.087924 5.073485
v 11.046658 5.398660 5.079105
v 10.715862 5.155982 5.109945
v 10.925859 5.284501 5.075995
v 10.984959 5.424189 5.073396
v 10.766562 5.022214 5.093475
v 10.941159 5.103563 5.123325
v 11.004658 5.247952 5.123665
v 10.963559 5.347100 5.087585
v 10.736161 5.056884 5.136175
v 10.863060 5.064984 5.135645
v 10.977058 5.173993 5.134015
v 10.817361 5.217072 5.117755
v 11.039158 5.443809 5.087595
v 11.014858 5.440829 5.088875
v 10.929259 5.277351 5.116815
v 11.000258 5.325031 5.110485
v 10.981459 5.357100 5.118425
v 10.996658 5.397719 5.101695
v 11.011559 5.395380 5.096315
v 10.805561 5.067284 5.170424
v 10.734062 5.106443 5.157764
v 10.933760 5.133713 5.186394
v 10.956059 5.243981 5.172784
v 10.806661 5.177763 5.187854
v 10.883160 5.207832 5.188644
v 10.956159 5.193322 5.189204
v 10.796561 5.102333 5.200964
v 10.866460 5.112263 5.203894
v 10.782161 5.136613 5.185774
v 10.919859 5.190632 5.216063
v 10.857861 5.155093 5.205074
v 10.906960 5.158053 5.199334
vn 0.1238 -0.2335 -0.9644
vn -0.4811 -0.2843 -0.8293
vn 0.0983 0.6601 -0.7447
vn 0.6463 0.1907 -0.7389
vn -0.9727 0.2235 -0.0629
vn -0.4576 0.8643 -0.2088
vn 0.7207 0.6827 -0.1206
vn 0.1793 0.8933 0.4121
vn 0.0966 -0.5178 -0.8500
vn 0.5619 -0.1991 -0.8029
vn -0.8514 -0.4629 -0.2468
vn 0.8196 0.1375 -0.5562
vn -0.4119 -0.6272 -0.6611
vn -0.3425 0.6297 0.6972
vn -0.7476 -0.6242 -0.2268
vn 0.7000 -0.1193 -0.7042
vn 0.9000 0.4180 -0.1240
vn -0.8063 0.1128 0.5806
vn 0.5157 0.7029 0.4899
vn -0.9047 -0.3252 0.2753
vn -0.2614 -0.6709 -0.6940
vn -0.8027 -0.1517 0.5768
vn 0.3990 -0.4086 -0.8209
vn 0.9149 0.1745 -0.3641
vn 0.1426 0.6456 0.7502
vn -0.6282 0.1422 0.7649
vn 0.6495 0.6211 0.4386
vn -0.2686 0.4621 0.8452
vn 0.7925 -0.1082 -0.6002
vn -0.1155 -0.6395 -0.7601
vn -0.7873 -0.5824 -0.2021
vn 0.9033 0.4242 0.0646
vn 0.0071 0.5797 0.8148
vn 0.3597 -0.4518 -0.8164
vn -0.3788 0.3148 0.8703
vn 0.8250 -0.0680 -0.5610
vn -0.8093 0.0191 0.5870
vn 0.4696 0.6551 0.5919
vn -0.1595 -0.6165 -0.7710
vn -0.7536 -0.5470 -0.3644
vn -0.9394 -0.2571 0.2268
vn -0.4430 0.3530 0.8241
vn 0.3597 -0.4085 -0.8389
vn -0.0721 0.5610 0.8247
vn -0.7181 0.1692 0.6750
vn -0.4656 0.3734 0.8024
vn 0.0705 -0.5343 -0.8424
vn 0.6236 -0.2587 -0.7377
vn -0.9408 -0.1949 0.2772
vn 0.5244 0.6095 0.5946
vn 0.9398 0.3417 -0.0076
vn -0.1747 0.5114 0.8414
vn 0.5993 -0.2824 -0.7491
vn 0.9302 0.0778 -0.3586
vn -0.1545 -0.5342 -0.8311
vn -0.8493 -0.4136 -0.3280
vn -0.6911 0.1682 0.7029
vn -0.9188 0.0000 0.3948
vn -0.3177 0.4306 0.8448
vn 0.2258 0.5952 0.7712
vn 0.8899 0.4203 0.1771
vn -0.6499 -0.4844 -0.5857
vn 0.5270 -0.3433 -0.7775
vn 0.9263 0.0561 -0.3725
vn -0.9588 -0.2580 -0.1187
vn -0.3336 0.4227 0.8427
vn 0.4468 0.6529 0.6116
vn -0.0545 -0.5343 -0.8435
vn 0.8785 -0.0785 -0.4713
vn 0.9505 0.3092 -0.0313
vn 0.2461 -0.5321 -0.8101
vn -0.4219 -0.5664 -0.7080
vn -0.9404 0.1337 0.3127
vn -0.8909 -0.3495 -0.2901
vn 0.9365 0.3482 0.0422
vn -0.4567 0.5083 0.7301
vn 0.6536 -0.4097 -0.6364
vn -0.5206 -0.5787 -0.6278
vn 0.1560 -0.6558 -0.7386
vn 0.9547 -0.0698 -0.2893
vn -0.0561 0.6701 0.7401
vn 0.6734 -0.4805 -0.5618
vn -0.2660 0.6488 0.7129
vn 0.5085 0.6557 0.5581
vn -0.5374 -0.6707 -0.5113
vn -0.9478 -0.2732 -0.1646
vn 0.9248 0.3602 0.1221
vn 0.1550 -0.7489 -0.6442
vn -0.6488 0.5429 0.5332
vn 0.3844 0.7290 0.5664
vn -0.9869 0.0160 0.1608
vn 0.5844 -0.5372 -0.6082
vn -0.9082 -0.4071 -0.0966
vn -0.1063 0.7629 0.6377
vn -0.3337 -0.8532 -0.4009
vn 0.2438 -0.7786 -0.5782
vn 0.8950 -0.1300 -0.4267
vn 0.8038 0.5915 0.0632
vn 0.2653 0.8243 0.5001
vn -0.9353 0.1573 0.3168
vn 0.3732 0.9056 0.2017
vn -0.1050 0.8376 0.5361
vn 0.7361 -0.1407 -0.6621
vn -0.2390 -0.2629 -0.9347
vn -0.3478 0.2319 -0.9084
vn 0.2976 0.6969 -0.6526
vn -0.8171 -0.5750 -0.0422
vn 0.5884 -0.4684 -0.6590
vn -0.8921 0.1758 -0.4163
vn -0.5874 0.7640 -0.2669
vn 0.8331 0.5241 -0.1770
vn 0.2760 -0.8329 -0.4797
vn -0.2437 -0.9429 -0.2270
vn 0.7263 0.0910 -0.6813
vn 0.1458 0.9144 0.3776
vn -0.7458 0.0412 -0.6649
vn 0.9943 -0.1013 -0.0339
vn 0.1484 0.9885 -0.0282
vn 0.5599 -0.4717 -0.6812
vn 0.4485 0.7954 -0.4077
vn -0.3274 0.8736 0.3602
vn -0.0466 -0.2068 -0.9773
vn 0.6860 -0.3792 -0.6210
vn 0.3055 0.2615 -0.9156
vn 0.5128 -0.2978 -0.8052
vn 0.0931 0.9906 -0.1000
vn -0.1569 0.7663 -0.6230
vn -0.2741 0.2455 -0.9298
vn 0.9652 -0.2406 0.1028
vn -0.9643 0.2615 -0.0423
vn -0.8771 0.4770 0.0570
vn 0.7714 -0.5846 -0.2514
vn 0.9086 -0.4021 -0.1133
vn -0.3725 0.9268 -0.0470
vn -0.7691 0.5697 -0.2897
vn 0.8875 0.3482 0.3018
vn -0.4217 0.8369 0.3489
vn 0.3277 0.8538 0.4045
vn 0.2462 -0.9662 -0.0758
vn -0.6224 -0.7637 0.1714
vn 0.5367 -0.8188 -0.2041
vn -0.9086 -0.1616 0.3850
vn 0.7974 -0.0980 0.5954
vn -0.7094 0.4946 0.5022
vn -0.7134 0.6869 0.1386
vn -0.7836 0.4293 0.4490
vn -0.0767 -0.9543 0.2890
vn 0.6767 -0.7182 0.1619
vn 0.8838 -0.0644 0.4634
vn -0.8540 0.4230 0.3028
vn -0.5182 -0.5933 0.6159
vn 0.3775 -0.8559 0.3535
vn 0.8886 -0.3917 0.2386
vn -0.4179 0.8413 0.3430
vn 0.4343 0.3846 0.8145
vn -0.1652 0.5563 0.8144
vn -0.5051 0.6949 0.5119
vn 0.5061 0.1253 0.8533
vn -0.1939 0.3157 0.9288
vn -0.3806 0.3953 0.8360
vn 0.3173 0.1347 0.9387
vn 0.0276 -0.7834 0.6208
vn -0.7197 0.0070 0.6943
vn 0.5713 -0.4966 0.6535
vn 0.2296 0.5462 0.8056
vn -0.4210 0.5413 0.7279
vn -0.2890 0.6648 0.6888
vn 0.6796 -0.1384 0.7204
vn -0.3020 -0.2460 0.9210
vn 0.2039 -0.4475 0.8707
vn -0.4985 0.2572 0.8278
vn 0.1566 0.1003 0.9826
vn -0.1379 0.0997 0.9854
vn 0.2831 -0.2768 0.9183
usemtl mtl1.1525
s 1
f 1//1 2//2 3//3
f 4//4 1//1 3//3
f 2//2 5//5 6//6
f 2//2 6//6 3//3
f 7//7 4//4 3//3
f 8//8 3//3 6//6
f 7//7 3//3 8//8
f 2//2 1//1 9//9
f 10//10 1//1 4//4
f 5//5 2//2 11//11
f 7//7 12//12 4//4
f 11//11 2//2 13//13
f 9//9 13//13 2//2
f 10//10 9//9 1//1
f 10//10 4//4 12//12
f 14//14 6//6 5//5
f 6//6 14//14 8//8
f 13//13 15//15 11//11
f 10//10 16//16 9//9
f 12//12 16//16 10//10
f 17//17 12//12 7//7
f 18//18 14//14 5//5
f 19//19 7//7 8//8
f 15//15 20//20 11//11
f 11//11 18//18 5//5
f 17//17 7//7 19//19
f 21//21 15//15 13//13
f 21//21 13//13 9//9
f 15//15 22//22 20//20
f 16//16 23//23 9//9
f 23//23 16//16 24//24
f 17//17 24//24 16//16
f 16//16 12//12 17//17
f 11//11 20//20 18//18
f 25//25 19//19 8//8
f 25//25 8//8 14//14
f 21//21 9//9 23//23
f 20//20 22//22 26//26
f 20//20 26//26 18//18
f 17//17 19//19 27//27
f 28//28 18//18 26//26
f 28//28 14//14 18//18
f 25//25 14//14 28//28
f 23//23 24//24 29//29
f 24//24 17//17 27//27
f 25//25 27//27 19//19
f 21//21 30//30 31//31
f 30//30 21//21 23//23
f 21//21 31//31 15//15
f 22//22 15//15 31//31
f 24//24 32//32 29//29
f 33//33 27//27 25//25
f 34//34 30//30 23//23
f 29//29 34//34 23//23
f 32//32 24//24 27//27
f 22//22 35//35 26//26
f 26//26 35//35 28//28
f 32//32 36//36 29//29
f 31//31 37//37 22//22
f 27//27 38//38 32//32
f 27//27 33//33 38//38
f 25//25 28//28 33//33
f 33//33 28//28 35//35
f 39//39 30//30 34//34
f 30//30 39//39 31//31
f 31//31 40//40 41//41
f 41//41 37//37 31//31
f 37//37 42//42 22//22
f 22//22 42//42 35//35
f 33//33 35//35 42//42
f 39//39 34//34 43//43
f 31//31 39//39 40//40
f 29//29 36//36 34//34
f 44//44 33//33 42//42
f 38//38 33//33 44//44
f 43//43 34//34 36//36
f 37//37 41//41 45//45
f 46//46 37//37 45//45
f 46//46 42//42 37//37
f 44//44 42//42 46//46
f 47//47 40//40 39//39
f 47//47 39//39 43//43
f 36//36 48//48 43//43
f 49//49 41//41 40//40
f 38//38 44//44 50//50
f 38//38 50//50 32//32
f 43//43 48//48 47//47
f 41//41 49//49 45//45
f 50//50 51//51 32//32
f 32//32 51//51 36//36
f 44//44 46//46 52//52
f 50//50 44//44 52//52
f 47//47 48//48 53//53
f 36//36 54//54 48//48
f 45//45 52//52 46//46
f 55//55 47//47 53//53
f 55//55 56//56 40//40
f 47//47 55//55 40//40
f 48//48 54//54 53//53
f 54//54 36//36 51//51
f 45//45 49//49 57//57
f 40//40 58//58 49//49
f 58//58 40//40 56//56
f 45//45 57//57 59//59
f 60//60 50//50 52//52
f 49//49 58//58 57//57
f 61//61 51//51 50//50
f 60//60 61//61 50//50
f 45//45 59//59 52//52
f 60//60 52//52 59//59
f 55//55 62//62 56//56
f 53//53 63//63 55//55
f 53//53 54//54 64//64
f 54//54 61//61 64//64
f 54//54 51//51 61//61
f 56//56 62//62 65//65
f 53//53 64//64 63//63
f 56//56 65//65 58//58
f 66//66 57//57 58//58
f 57//57 66//66 59//59
f 60//60 59//59 66//66
f 61//61 60//60 67//67
f 68//68 62//62 55//55
f 63//63 68//68 55//55
f 64//64 69//69 63//63
f 64//64 61//61 70//70
f 70//70 61//61 67//67
f 67//67 60//60 66//66
f 71//71 72//72 68//68
f 72//72 62//62 68//68
f 63//63 71//71 68//68
f 63//63 69//69 71//71
f 69//69 64//64 70//70
f 73//73 58//58 65//65
f 62//62 74//74 65//65
f 70//70 75//75 69//69
f 73//73 76//76 58//58
f 76//76 66//66 58//58
f 69//69 77//77 71//71
f 65//65 74//74 73//73
f 67//67 66//66 76//76
f 78//78 72//72 71//71
f 79//79 78//78 71//71
f 79//79 71//71 77//77
f 78//78 74//74 72//72
f 72//72 74//74 62//62
f 75//75 80//80 69//69
f 75//75 70//70 67//67
f 67//67 76//76 81//81
f 79//79 77//77 82//82
f 77//77 69//69 80//80
f 83//83 76//76 73//73
f 67//67 84//84 75//75
f 67//67 81//81 84//84
f 81//81 76//76 83//83
f 79//79 85//85 78//78
f 74//74 78//78 86//86
f 86//86 73//73 74//74
f 81//81 83//83 84//84
f 86//86 78//78 85//85
f 80//80 75//75 87//87
f 79//79 88//88 85//85
f 79//79 82//82 88//88
f 89//89 83//83 73//73
f 87//87 75//75 84//84
f 83//83 90//90 84//84
f 86//86 91//91 73//73
f 91//91 89//89 73//73
f 84//84 90//90 87//87
f 88//88 82//82 92//92
f 85//85 93//93 86//86
f 82//82 77//77 80//80
f 90//90 83//83 94//94
f 85//85 88//88 95//95
f 88//88 92//92 96//96
f 93//93 91//91 86//86
f 89//89 94//94 83//83
f 88//88 96//96 95//95
f 80//80 87//87 97//97
f 97//97 87//87 98//98
f 99//99 98//98 90//90
f 90//90 98//98 87//87
f 94//94 99//99 90//90
f 95//95 93//93 85//85
f 82//82 80//80 97//97
f 93//93 100//100 91//91
f 98//98 99//99 101//101
f 89//89 102//102 94//94
f 94//94 102//102 99//99
f 82//82 97//97 92//92
f 100//100 89//89 91//91
f 103//103 104//104 105//105
f 103//103 105//105 106//106
f 93//93 95//95 107//107
f 96//96 92//92 108//108
f 108//108 92//92 97//97
f 109//109 105//105 104//104
f 110//110 105//105 109//109
f 106//106 111//111 103//103
f 106//106 105//105 110//110
f 95//95 96//96 112//112
f 113//113 95//95 112//112
f 96//96 108//108 112//112
f 100//100 93//93 107//107
f 114//114 97//97 98//98
f 115//115 99//99 102//102
f 104//104 116//116 109//109
f 103//103 111//111 117//117
f 106//106 110//110 118//118
f 107//107 95//95 113//113
f 97//97 114//114 108//108
f 119//119 108//108 114//114
f 114//114 98//98 120//120
f 89//89 121//121 102//102
f 99//99 115//115 101//101
f 122//122 104//104 123//123
f 122//122 116//116 104//104
f 104//104 103//103 123//123
f 118//118 111//111 106//106
f 108//108 119//119 112//112
f 119//119 114//114 124//124
f 125//125 119//119 124//124
f 114//114 120//120 124//124
f 121//121 89//89 100//100
f 120//120 101//101 126//126
f 98//98 101//101 120//120
f 127//127 128//128 124//124
f 125//125 124//124 128//128
f 122//122 125//125 128//128
f 122//122 123//123 125//125
f 122//122 128//128 116//116
f 123//123 103//103 129//129
f 117//117 129//129 103//103
f 109//109 116//116 130//130
f 131//131 110//110 109//109
f 119//119 125//125 132//132
f 133//133 132//132 125//125
f 120//120 127//127 124//124
f 127//127 120//120 126//126
f 102//102 121//121 115//115
f 101//101 115//115 126//126
f 134//134 135//135 127//127
f 127//127 135//135 128//128
f 133//133 125//125 123//123
f 116//116 128//128 135//135
f 130//130 131//131 109//109
f 136//136 117//117 111//111
f 137//137 110//110 131//131
f 118//118 138//138 111//111
f 110//110 137//137 118//118
f 139//139 113//113 112//112
f 140//140 107//107 113//113
f 112//112 119//119 141//141
f 119//119 132//132 141//141
f 107//107 142//142 100//100
f 133//133 123//123 129//129
f 116//116 135//135 130//130
f 129//129 117//117 143//143
f 136//136 111//111 138//138
f 141//141 139//139 112//112
f 144//144 121//121 100//100
f 126//126 134//134 127//127
f 115//115 121//121 126//126
f 145//145 135//135 134//134
f 130//130 146//146 131//131
f 118//118 137//137 138//138
f 113//113 147//147 140//140
f 139//139 147//147 113//113
f 107//107 140//140 142//142
f 141//141 132//132 148//148
f 121//121 134//134 126//126
f 133//133 129//129 149//149
f 150//150 135//135 145//145
f 135//135 150//150 130//130
f 150//150 146//146 130//130
f 117//117 136//136 143//143
f 137//137 131//131 146//146
f 151//151 140//140 147//147
f 140//140 151//151 142//142
f 141//141 148//148 152//152
f 142//142 144//144 100//100
f 148//148 132//132 153//153
f 132//132 133//133 153//153
f 121//121 144//144 154//154
f 149//149 153//153 133//133
f 136//136 155//155 143//143
f 146//146 156//156 137//137
f 138//138 137//137 156//156
f 136//136 138//138 155//155
f 139//139 152//152 147//147
f 141//141 152//152 139//139
f 134//134 121//121 154//154
f 134//134 154//154 157//157
f 145//145 134//134 157//157
f 129//129 158//158 149//149
f 150//150 145//145 157//157
f 159//159 150//150 157//157
f 160//160 150//150 159//159
f 158//158 129//129 143//143
f 146//146 150//150 160//160
f 143//143 161//161 158//158
f 161//161 143//143 155//155
f 155//155 138//138 156//156
f 147//147 152//152 162//162
f 151//151 163//163 142//142
f 144//144 142//142 163//163
f 164//164 148//148 153//153
f 165//165 158//158 157//157
f 158//158 159//159 157//157
f 160//160 159//159 161//161
f 161//161 159//159 158//158
f 146//146 160//160 156//156
f 161//161 155//155 156//156
f 151//151 147//147 162//162
f 148//148 164//164 152//152
f 154//154 144//144 166//166
f 167//167 154//154 166//166
f 154//154 167//167 157//157
f 149//149 165//165 168//168
f 149//149 158//158 165//165
f 160//160 161//161 156//156
f 151//151 162//162 169//169
f 170//170 169//169 162//162
f 152//152 170//170 162//162
f 169//169 163//163 151//151
f 164//164 170//170 152//152
f 163//163 171//171 144//144
f 144//144 171//171 166//166
f 157//157 167//167 165//165
f 168//168 164//164 153//153
f 153//153 149//149 168//168
f 172//172 168//168 165//165
f 169//169 171//171 163//163
f 171//171 173//173 166//166
f 166//166 173//173 167//167
f 167//167 172//172 165//165
f 170//170 173//173 169//169
f 164//164 174//174 170//170
f 173//173 171//171 169//169
f 164//164 168//168 174//174
f 174//174 168//168 172//172
f 173//173 172//172 167//167
f 173//173 170//170 174//174
f 174//174 172//172 173//173
