# Blender v2.92.0 OBJ File: 'convert_to_one_sided.blend'
# www.blender.org
mtllib 805L.mtl
o 805
v 7.810080 0.523939 3.343277
v 7.827179 0.523566 3.348407
v 7.825989 0.505026 3.352567
v 7.821330 0.535208 3.354727
v 7.814949 0.493418 3.383266
v 7.866879 0.459145 3.414156
v 7.875178 0.509025 3.373777
v 7.904418 0.477652 3.400426
v 7.880448 0.530948 3.390586
v 7.809189 0.534968 3.361457
v 7.830259 0.538270 3.392636
v 7.954978 0.482724 3.417936
v 7.810299 0.514413 3.395116
v 7.949008 0.507480 3.419736
v 7.963487 0.519086 3.440756
v 7.876688 0.430971 3.463365
v 7.850969 0.446360 3.462845
v 7.828139 0.473386 3.469085
v 7.990907 0.457064 3.446595
v 7.821989 0.520420 3.437096
v 7.946438 0.526025 3.491985
v 8.004957 0.433741 3.481985
v 8.033047 0.462112 3.467915
v 8.016506 0.482249 3.458915
v 8.018867 0.512662 3.491415
v 7.946548 0.412772 3.516945
v 7.868689 0.516611 3.502565
v 8.096005 0.435948 3.516995
v 8.096126 0.461536 3.510055
v 7.826569 0.495392 3.479435
v 8.052917 0.490598 3.493865
v 7.886309 0.413237 3.537265
v 8.154885 0.403909 3.571064
v 7.859399 0.432525 3.552474
v 7.850919 0.481609 3.551514
v 7.944968 0.504584 3.576534
v 8.180885 0.459534 3.567144
v 8.167835 0.481735 3.580414
v 8.179355 0.433639 3.563924
v 7.850249 0.458096 3.553774
v 8.233794 0.465283 3.608674
v 8.043117 0.497737 3.609643
v 8.123125 0.492973 3.596404
v 7.953948 0.382933 3.625043
v 8.105756 0.384006 3.618023
v 8.222064 0.410443 3.595274
v 7.902968 0.395528 3.651453
v 8.283433 0.389632 3.651093
v 8.270384 0.430115 3.618113
v 7.869619 0.442322 3.631323
v 8.307412 0.461529 3.661813
v 7.901188 0.479516 3.614893
v 7.882019 0.421416 3.647803
v 8.293663 0.450452 3.639623
v 8.350642 0.407711 3.670203
v 8.368242 0.427588 3.680043
v 8.326023 0.465211 3.709202
v 8.019856 0.475142 3.692452
v 8.175935 0.474018 3.708112
v 8.058316 0.351478 3.715242
v 8.442582 0.406850 3.722022
v 8.375752 0.443547 3.694052
v 7.889268 0.447237 3.665313
v 8.184875 0.351898 3.713892
v 8.358242 0.351312 3.757142
v 8.456281 0.384621 3.745362
v 7.903418 0.415364 3.718242
v 7.941598 0.448217 3.735162
v 7.966987 0.356444 3.759382
v 8.458121 0.423635 3.737432
v 8.441961 0.441947 3.743502
v 8.225084 0.325603 3.820691
v 7.926838 0.384976 3.739442
v 8.543020 0.403737 3.783451
v 7.937068 0.412882 3.787281
v 8.058146 0.330648 3.823561
v 8.583670 0.424572 3.817851
v 8.161815 0.450635 3.822261
v 8.421741 0.324845 3.858780
v 8.600739 0.324975 3.924459
v 8.583699 0.356593 3.843561
v 8.601219 0.385718 3.823441
v 8.021397 0.436767 3.828071
v 8.366302 0.449691 3.821651
v 8.565460 0.440435 3.847260
v 7.967308 0.352384 3.842931
v 7.958978 0.376000 3.841361
v 8.660948 0.400011 3.852731
v 8.670938 0.431463 3.878170
v 8.016037 0.324964 3.902580
v 8.120516 0.300689 3.922719
v 8.753207 0.416056 3.911410
v 7.978027 0.417759 3.839791
v 8.318202 0.293148 3.963959
v 8.725918 0.368665 3.900610
v 7.986007 0.388795 3.897860
v 8.516910 0.434313 3.915470
v 8.726177 0.344144 3.934139
v 8.776397 0.393956 3.918320
v 8.024096 0.403720 3.935479
v 8.145226 0.417553 3.958169
v 8.000637 0.341719 3.935799
v 8.470011 0.306622 3.957789
v 8.859766 0.359396 3.983769
v 8.004577 0.362900 3.956829
v 8.863106 0.382727 3.969869
v 8.849525 0.404660 3.961359
v 8.881586 0.415029 3.984169
v 8.363173 0.426971 3.953629
v 8.813207 0.429024 3.974269
v 8.691499 0.430552 3.985509
v 8.074387 0.291580 4.016228
v 8.155135 0.274077 4.039988
v 8.964365 0.379592 4.030648
v 8.569050 0.423983 4.013039
v 8.291264 0.277788 4.029018
v 8.823606 0.333139 4.047328
v 8.954215 0.401265 4.023498
v 8.484331 0.279261 4.083268
v 8.049067 0.314148 4.027868
v 8.658918 0.302984 4.069168
v 8.057696 0.353756 4.061357
v 8.097945 0.383195 4.057308
v 8.172524 0.394246 4.064268
v 8.298233 0.397927 4.082367
v 8.830787 0.427666 4.077107
v 8.958815 0.421488 4.039188
v 8.036596 0.337097 4.018058
v 9.023684 0.370312 4.093587
v 8.586769 0.407531 4.128407
v 9.088493 0.417595 4.100887
v 8.719558 0.420819 4.094347
v 8.113476 0.275484 4.077327
v 8.305973 0.261097 4.113007
v 9.031364 0.397213 4.072768
v 9.012704 0.439897 4.152516
v 9.114932 0.438076 4.142377
v 8.176564 0.259213 4.129017
v 8.113235 0.280554 4.130057
v 8.806167 0.305219 4.148596
v 9.108313 0.402351 4.116797
v 8.932355 0.331475 4.165736
v 8.074106 0.317370 4.084787
v 9.067973 0.353886 4.213906
v 9.186992 0.406604 4.164846
v 8.123996 0.353426 4.149857
v 9.200771 0.440295 4.167596
v 8.297013 0.250635 4.194376
v 8.675278 0.283265 4.200556
v 9.184341 0.392689 4.214626
v 9.193072 0.424521 4.161946
v 8.218524 0.373924 4.134727
v 8.881435 0.421629 4.205976
v 9.260341 0.474156 4.224286
v 9.212711 0.471291 4.237955
v 8.182725 0.260143 4.172166
v 8.455791 0.265415 4.169726
v 8.100426 0.311446 4.140627
v 8.134215 0.315374 4.181046
v 9.302390 0.434716 4.244165
v 9.286951 0.442398 4.217106
v 8.414882 0.379151 4.183026
v 9.274121 0.453341 4.207586
v 9.316760 0.477326 4.238345
v 8.188805 0.261969 4.195626
v 8.142975 0.286209 4.176696
v 9.370330 0.484504 4.264285
v 8.498910 0.266260 4.237185
v 8.853155 0.310164 4.234666
v 8.993044 0.340203 4.267105
v 9.171592 0.383225 4.277235
v 9.083213 0.362156 4.273715
v 8.272634 0.342817 4.202616
v 8.706798 0.389506 4.244115
v 9.370919 0.473626 4.271455
v 9.082704 0.442247 4.263765
v 9.174052 0.462244 4.263155
v 9.340290 0.502487 4.288585
v 9.359449 0.499778 4.271075
v 8.314612 0.261395 4.224455
v 8.677428 0.284370 4.263485
v 9.282511 0.422030 4.284635
v 9.432648 0.506514 4.308125
v 9.398039 0.503924 4.283905
v 8.251204 0.281844 4.218656
v 8.424222 0.277266 4.251175
v 8.581559 0.282135 4.270955
v 8.633749 0.284541 4.268935
v 8.775347 0.301048 4.262895
v 8.283974 0.307753 4.225616
v 8.515810 0.355834 4.248115
v 9.369929 0.466077 4.301315
v 9.432199 0.509460 4.307944
v 9.292180 0.484060 4.303804
v 9.418779 0.508446 4.310094
v 8.400752 0.300556 4.255655
v 8.870206 0.322870 4.287375
v 8.422872 0.322918 4.251745
v 8.493851 0.315972 4.273595
v 8.607859 0.335336 4.282375
v 8.697748 0.364445 4.280225
v 8.917995 0.402370 4.289135
v 9.432728 0.504572 4.323255
v 8.702888 0.300237 4.278875
v 8.596779 0.309943 4.278375
v 9.106363 0.372389 4.303005
v 8.760757 0.359484 4.300875
v 9.232541 0.412172 4.316315
v 9.312980 0.440121 4.313824
v 8.828537 0.377088 4.297795
v 9.065793 0.425943 4.298804
v 9.221301 0.455491 4.313744
v 9.437398 0.510187 4.319704
v 9.383259 0.503637 4.321004
v 8.822516 0.328614 4.302435
v 8.984625 0.354643 4.307145
v 8.772767 0.345867 4.302264
v 8.905005 0.366761 4.319544
v 9.357430 0.468207 4.328204
v 9.029674 0.398678 4.318735
v 9.173132 0.427959 4.325824
v 9.429239 0.507896 4.328194
v 8.940015 0.362099 4.318744
v 9.086883 0.381950 4.320594
v 9.037224 0.383529 4.322774
v 9.177181 0.417912 4.324315
v 9.424079 0.504538 4.324634
v 9.352660 0.487871 4.326795
v 9.290520 0.462294 4.325954
v 9.373269 0.489206 4.323724
vn -0.6805 0.0516 -0.7309
vn 0.2780 0.2648 -0.9234
vn 0.0052 -0.5538 -0.8326
vn -0.0413 0.8492 -0.5264
vn -0.7163 -0.6405 -0.2770
vn -0.1042 -0.8567 -0.5052
vn 0.4646 0.0279 -0.8851
vn 0.2587 -0.5902 -0.7647
vn 0.3578 0.8154 -0.4550
vn -0.7231 0.6860 -0.0807
vn -0.1524 0.9854 0.0760
vn 0.4760 -0.1194 -0.8713
vn -0.9979 0.0004 0.0652
vn 0.5248 0.4000 -0.7514
vn 0.4681 0.7209 -0.5110
vn -0.2378 -0.9150 -0.3260
vn -0.5940 -0.7855 -0.1737
vn -0.9172 -0.3881 0.0899
vn 0.3458 -0.5425 -0.7656
vn -0.7206 0.6245 0.3012
vn 0.0620 0.9931 0.1000
vn 0.1513 -0.8236 -0.5467
vn 0.5217 -0.1607 -0.8379
vn 0.5647 0.2295 -0.7928
vn 0.3239 0.9155 -0.2387
vn 0.0106 -0.9369 -0.3494
vn -0.3017 0.8961 0.3255
vn 0.4140 -0.4606 -0.7852
vn 0.5569 0.0816 -0.8266
vn -0.9568 0.1033 0.2718
vn 0.5352 0.5525 -0.6390
vn -0.3747 -0.9163 -0.1413
vn 0.2158 -0.7968 -0.5643
vn -0.7866 -0.6150 0.0553
vn -0.7705 0.5060 0.3876
vn -0.1077 0.9496 0.2945
vn 0.5218 0.3780 -0.7647
vn 0.3733 0.8354 -0.4035
vn 0.5080 -0.1129 -0.8539
vn -0.9583 -0.1664 0.2325
vn 0.4513 0.6398 -0.6221
vn 0.0229 0.9772 0.2111
vn 0.1491 0.9883 0.0329
vn -0.1516 -0.9652 -0.2131
vn 0.0515 -0.9352 -0.3504
vn 0.4199 -0.4707 -0.7760
vn -0.5801 -0.8146 0.0041
vn 0.2569 -0.7959 -0.5482
vn 0.5247 0.0114 -0.8512
vn -0.9456 0.0414 0.3227
vn 0.3973 0.7897 -0.4675
vn -0.3570 0.8570 0.3716
vn -0.8736 -0.4497 0.1860
vn 0.5109 0.4583 -0.7272
vn 0.4651 -0.3506 -0.8129
vn 0.5269 0.2012 -0.8258
vn 0.1691 0.9830 -0.0721
vn -0.1004 0.9558 0.2763
vn 0.0294 0.9845 0.1726
vn -0.0565 -0.9694 -0.2389
vn 0.5115 -0.1080 -0.8525
vn 0.4890 0.5591 -0.6695
vn -0.7196 0.5508 0.4227
vn 0.0389 -0.9529 -0.3009
vn 0.1349 -0.9130 -0.3850
vn 0.3730 -0.6149 -0.6948
vn -0.9285 -0.0785 0.3628
vn -0.4086 0.8356 0.3672
vn -0.3621 -0.9273 -0.0947
vn 0.5040 0.4054 -0.7627
vn 0.3763 0.8004 -0.4666
vn 0.0209 -0.9700 -0.2420
vn -0.7871 -0.5967 0.1564
vn 0.5117 -0.0340 -0.8585
vn -0.7807 0.4423 0.4414
vn -0.1195 -0.9740 -0.1925
vn 0.4154 0.6107 -0.6741
vn -0.0355 0.9755 0.2171
vn 0.0712 -0.9643 -0.2550
vn 0.1364 -0.9498 -0.2815
vn 0.2638 -0.7945 -0.5470
vn 0.4291 -0.4503 -0.7830
vn -0.1952 0.9372 0.2889
vn 0.0231 0.9891 0.1454
vn 0.1300 0.9840 -0.1217
vn -0.7345 -0.6666 0.1272
vn -0.9288 -0.1298 0.3470
vn 0.4988 0.0112 -0.8667
vn 0.2768 0.8510 -0.4463
vn -0.4382 -0.8985 -0.0245
vn -0.0831 -0.9741 -0.2103
vn 0.4312 0.5254 -0.7335
vn -0.5165 0.7643 0.3861
vn 0.0471 -0.9723 -0.2289
vn 0.4050 -0.5253 -0.7484
vn -0.7854 0.4464 0.4287
vn -0.0042 0.9932 0.1161
vn 0.2358 -0.8753 -0.4221
vn 0.4887 -0.0295 -0.8719
vn -0.4310 0.8241 0.3674
vn -0.1053 0.9642 0.2434
vn -0.8444 -0.4580 0.2780
vn 0.0788 -0.9725 -0.2191
vn 0.3488 -0.7634 -0.5437
vn -0.9118 0.0320 0.4094
vn 0.4873 -0.2505 -0.8365
vn 0.4945 0.1835 -0.8496
vn 0.4100 0.6052 -0.6824
vn -0.0265 0.9842 0.1750
vn 0.1523 0.9590 -0.2389
vn -0.0105 0.9973 0.0721
vn -0.3921 -0.9193 -0.0337
vn -0.0824 -0.9817 -0.1715
vn 0.5092 -0.4300 -0.7455
vn -0.0330 0.9915 0.1256
vn 0.0314 -0.9770 -0.2109
vn 0.1978 -0.9498 -0.2422
vn 0.5128 0.1435 -0.8464
vn 0.0883 -0.9793 -0.1819
vn -0.7657 -0.5927 0.2499
vn 0.1199 -0.9732 -0.1961
vn -0.7945 0.3426 0.5015
vn -0.2981 0.8865 0.3539
vn -0.1197 0.9478 0.2954
vn -0.0683 0.9656 0.2508
vn -0.0497 0.9973 0.0534
vn 0.2914 0.7929 -0.5352
vn -0.8881 -0.1936 0.4170
vn 0.3576 -0.8347 -0.4189
vn -0.0714 0.9779 0.1964
vn 0.4546 0.2634 -0.8508
vn -0.0524 0.9932 0.1036
vn -0.2897 -0.9569 -0.0196
vn 0.0353 -0.9875 -0.1537
vn 0.5200 -0.3383 -0.7843
vn -0.0672 0.9964 -0.0518
vn 0.0972 0.8886 -0.4483
vn -0.1570 -0.9871 -0.0312
vn -0.5937 -0.7576 0.2714
vn 0.1684 -0.9755 -0.1418
vn 0.4815 -0.3968 -0.7815
vn 0.2171 -0.9673 -0.1312
vn -0.8681 -0.2818 0.4087
vn 0.2497 -0.9659 -0.0678
vn 0.4727 -0.6704 -0.5719
vn -0.3877 0.7296 0.5634
vn 0.3145 0.5331 -0.7855
vn -0.0247 -0.9933 0.1129
vn 0.1196 -0.9918 -0.0451
vn 0.3403 -0.9240 -0.1745
vn 0.5083 -0.1153 -0.8535
vn -0.1290 0.9095 0.3953
vn -0.1182 0.9746 0.1903
vn 0.0089 0.8880 -0.4597
vn -0.1582 0.9836 -0.0872
vn -0.2430 -0.9597 0.1410
vn 0.0836 -0.9931 -0.0821
vn -0.8205 -0.2118 0.5310
vn -0.5194 0.1994 0.8310
vn 0.4869 -0.8248 -0.2876
vn 0.5645 -0.3967 -0.7238
vn -0.1161 0.9097 0.3987
vn 0.4652 0.1411 -0.8739
vn 0.2603 0.5856 -0.7676
vn -0.3278 -0.7513 0.5728
vn -0.5747 -0.3710 0.7294
vn 0.5486 0.0274 -0.8356
vn 0.0322 -0.9542 0.2975
vn 0.1790 -0.9824 0.0525
vn 0.1934 -0.9675 0.1632
vn 0.2827 -0.9532 0.1074
vn 0.2257 -0.9660 0.1260
vn -0.1898 0.6825 0.7058
vn -0.1327 0.8923 0.4315
vn 0.6119 -0.6224 -0.4881
vn -0.1869 0.9530 0.2383
vn -0.2205 0.9558 0.1946
vn -0.1577 0.9871 -0.0270
vn 0.0333 0.9040 -0.4263
vn -0.1075 -0.7407 0.6632
vn 0.1124 -0.9365 0.3322
vn 0.3709 -0.9266 0.0616
vn 0.8349 -0.3987 -0.3796
vn 0.2714 0.7126 -0.6469
vn -0.2700 -0.2103 0.9396
vn -0.1097 -0.5174 0.8487
vn -0.0156 -0.6589 0.7521
vn 0.0549 -0.8486 0.5262
vn 0.1473 -0.9539 0.2615
vn -0.2436 0.2868 0.9265
vn -0.1585 0.7186 0.6772
vn 0.5126 -0.8568 0.0560
vn 0.6346 0.5560 -0.5368
vn -0.2653 0.8967 0.3544
vn 0.1075 0.9940 -0.0215
vn -0.1882 -0.0568 0.9805
vn 0.1374 -0.9018 0.4097
vn -0.1985 0.4697 0.8602
vn -0.1497 0.1066 0.9830
vn -0.1512 0.3361 0.9296
vn -0.1646 0.7107 0.6839
vn -0.1543 0.8441 0.5135
vn 0.6797 -0.5650 0.4677
vn 0.0627 -0.7225 0.6886
vn -0.0764 -0.2764 0.9580
vn 0.1979 -0.9027 0.3820
vn -0.1557 0.4252 0.8916
vn 0.2402 -0.7810 0.5764
vn 0.3829 -0.8534 0.3537
vn -0.1504 0.7015 0.6966
vn -0.1878 0.8263 0.5309
vn -0.2240 0.7738 0.5924
vn 0.8479 0.3883 0.3611
vn -0.1678 0.8887 0.4266
vn 0.0116 -0.5635 0.8260
vn 0.1238 -0.7931 0.5964
vn -0.1034 -0.1126 0.9882
vn -0.0953 0.1831 0.9785
vn 0.2272 -0.4653 0.8555
vn -0.1178 0.4746 0.8723
vn -0.1329 0.4363 0.8899
vn 0.1407 0.5263 0.8386
vn 0.0054 -0.3826 0.9239
vn 0.1036 -0.5459 0.8314
vn -0.0077 -0.0510 0.9987
vn 0.0207 -0.1271 0.9917
vn 0.3383 -0.1151 0.9340
vn -0.1654 0.4957 0.8526
vn -0.0669 0.2011 0.9773
vn 0.0060 0.0198 0.9998
usemtl mtl1.1531
s 1
f 1//1 2//2 3//3
f 2//2 1//1 4//4
f 5//5 3//3 6//6
f 3//3 7//7 8//8
f 3//3 5//5 1//1
f 2//2 7//7 3//3
f 7//7 2//2 9//9
f 4//4 1//1 10//10
f 2//2 4//4 9//9
f 4//4 10//10 11//11
f 8//8 6//6 3//3
f 12//12 8//8 7//7
f 1//1 5//5 13//13
f 12//12 7//7 14//14
f 13//13 10//10 1//1
f 15//15 14//14 9//9
f 9//9 14//14 7//7
f 9//9 4//4 11//11
f 6//6 16//16 17//17
f 17//17 5//5 6//6
f 18//18 5//5 17//17
f 8//8 12//12 19//19
f 13//13 20//20 10//10
f 10//10 20//20 11//11
f 9//9 11//11 21//21
f 22//22 6//6 8//8
f 19//19 22//22 8//8
f 12//12 23//23 19//19
f 5//5 18//18 13//13
f 23//23 12//12 24//24
f 12//12 14//14 24//24
f 25//25 9//9 21//21
f 22//22 26//26 6//6
f 6//6 26//26 16//16
f 9//9 25//25 15//15
f 20//20 27//27 11//11
f 19//19 23//23 28//28
f 24//24 29//29 23//23
f 18//18 30//30 13//13
f 24//24 14//14 31//31
f 30//30 20//20 13//13
f 14//14 15//15 31//31
f 11//11 27//27 21//21
f 16//16 32//32 17//17
f 22//22 28//28 33//33
f 17//17 34//34 18//18
f 28//28 22//22 19//19
f 29//29 24//24 31//31
f 30//30 35//35 20//20
f 27//27 20//20 35//35
f 31//31 15//15 25//25
f 21//21 27//27 36//36
f 16//16 26//26 32//32
f 29//29 28//28 23//23
f 31//31 37//37 29//29
f 37//37 31//31 38//38
f 38//38 31//31 25//25
f 17//17 32//32 34//34
f 29//29 39//39 28//28
f 29//29 37//37 39//39
f 18//18 40//40 30//30
f 41//41 37//37 38//38
f 21//21 36//36 42//42
f 25//25 21//21 43//43
f 21//21 42//42 43//43
f 26//26 44//44 32//32
f 26//26 45//45 44//44
f 22//22 45//45 26//26
f 28//28 39//39 46//46
f 34//34 40//40 18//18
f 40//40 35//35 30//30
f 34//34 32//32 47//47
f 32//32 44//44 47//47
f 33//33 45//45 22//22
f 33//33 48//48 45//45
f 33//33 46//46 48//48
f 46//46 33//33 28//28
f 49//49 46//46 39//39
f 37//37 49//49 39//39
f 35//35 40//40 50//50
f 41//41 38//38 51//51
f 35//35 52//52 27//27
f 38//38 25//25 43//43
f 34//34 53//53 40//40
f 37//37 54//54 49//49
f 41//41 54//54 37//37
f 54//54 41//41 51//51
f 27//27 52//52 36//36
f 47//47 53//53 34//34
f 49//49 55//55 46//46
f 40//40 53//53 50//50
f 55//55 49//49 56//56
f 49//49 54//54 56//56
f 51//51 38//38 57//57
f 36//36 52//52 58//58
f 43//43 42//42 59//59
f 44//44 45//45 60//60
f 55//55 48//48 46//46
f 56//56 61//61 55//55
f 62//62 56//56 54//54
f 63//63 52//52 35//35
f 63//63 35//35 50//50
f 62//62 54//54 51//51
f 42//42 36//36 58//58
f 45//45 64//64 60//60
f 45//45 65//65 64//64
f 48//48 66//66 65//65
f 48//48 55//55 66//66
f 53//53 67//67 50//50
f 67//67 63//63 50//50
f 63//63 68//68 52//52
f 58//58 52//52 68//68
f 42//42 58//58 59//59
f 44//44 69//69 47//47
f 44//44 60//60 69//69
f 48//48 65//65 45//45
f 55//55 61//61 66//66
f 56//56 70//70 61//61
f 70//70 56//56 62//62
f 71//71 62//62 51//51
f 38//38 43//43 57//57
f 43//43 59//59 57//57
f 64//64 72//72 60//60
f 65//65 72//72 64//64
f 53//53 47//47 73//73
f 74//74 66//66 61//61
f 53//53 73//73 67//67
f 70//70 74//74 61//61
f 67//67 75//75 63//63
f 70//70 62//62 71//71
f 51//51 57//57 71//71
f 60//60 76//76 69//69
f 47//47 69//69 73//73
f 74//74 70//70 77//77
f 63//63 75//75 68//68
f 77//77 70//70 71//71
f 59//59 58//58 78//78
f 72//72 76//76 60//60
f 65//65 79//79 72//72
f 65//65 80//80 79//79
f 81//81 65//65 66//66
f 81//81 66//66 82//82
f 66//66 74//74 82//82
f 58//58 83//83 78//78
f 57//57 59//59 84//84
f 71//71 57//57 85//85
f 81//81 80//80 65//65
f 69//69 86//86 73//73
f 73//73 87//87 67//67
f 74//74 88//88 82//82
f 77//77 88//88 74//74
f 77//77 71//71 85//85
f 85//85 89//89 77//77
f 58//58 68//68 83//83
f 59//59 78//78 84//84
f 85//85 57//57 84//84
f 76//76 90//90 69//69
f 76//76 91//91 90//90
f 76//76 72//72 91//91
f 86//86 87//87 73//73
f 87//87 75//75 67//67
f 88//88 77//77 92//92
f 68//68 75//75 93//93
f 68//68 93//93 83//83
f 92//92 77//77 89//89
f 69//69 90//90 86//86
f 72//72 94//94 91//91
f 95//95 81//81 82//82
f 88//88 95//95 82//82
f 87//87 96//96 75//75
f 96//96 93//93 75//75
f 85//85 84//84 97//97
f 80//80 81//81 98//98
f 99//99 95//95 88//88
f 92//92 99//99 88//88
f 93//93 100//100 83//83
f 83//83 101//101 78//78
f 86//86 90//90 102//102
f 79//79 103//103 72//72
f 72//72 103//103 94//94
f 80//80 103//103 79//79
f 95//95 98//98 81//81
f 95//95 104//104 98//98
f 86//86 102//102 87//87
f 102//102 105//105 87//87
f 99//99 106//106 95//95
f 99//99 92//92 107//107
f 108//108 107//107 92//92
f 83//83 100//100 101//101
f 84//84 78//78 109//109
f 84//84 109//109 97//97
f 89//89 85//85 110//110
f 92//92 89//89 110//110
f 108//108 92//92 110//110
f 106//106 104//104 95//95
f 105//105 96//96 87//87
f 106//106 99//99 107//107
f 93//93 96//96 100//100
f 78//78 101//101 109//109
f 110//110 85//85 111//111
f 91//91 112//112 90//90
f 91//91 113//113 112//112
f 106//106 114//114 104//104
f 97//97 109//109 115//115
f 85//85 97//97 111//111
f 116//116 113//113 91//91
f 94//94 116//116 91//91
f 98//98 117//117 80//80
f 104//104 117//117 98//98
f 114//114 106//106 118//118
f 107//107 118//118 106//106
f 103//103 119//119 94//94
f 90//90 120//120 102//102
f 80//80 121//121 103//103
f 117//117 121//121 80//80
f 96//96 122//122 100//100
f 101//101 100//100 123//123
f 101//101 124//124 125//125
f 109//109 101//101 125//125
f 107//107 108//108 118//118
f 97//97 115//115 111//111
f 110//110 111//111 126//126
f 127//127 108//108 110//110
f 90//90 112//112 120//120
f 119//119 116//116 94//94
f 102//102 128//128 105//105
f 104//104 114//114 129//129
f 105//105 122//122 96//96
f 101//101 123//123 124//124
f 109//109 125//125 130//130
f 115//115 109//109 130//130
f 118//118 108//108 127//127
f 127//127 131//131 118//118
f 115//115 132//132 111//111
f 113//113 133//133 112//112
f 116//116 134//134 113//113
f 120//120 128//128 102//102
f 104//104 129//129 117//117
f 105//105 128//128 122//122
f 114//114 118//118 135//135
f 114//114 135//135 129//129
f 135//135 118//118 131//131
f 122//122 123//123 100//100
f 127//127 110//110 136//136
f 127//127 136//136 137//137
f 113//113 138//138 133//133
f 112//112 139//139 120//120
f 117//117 140//140 121//121
f 141//141 129//129 135//135
f 131//131 141//141 135//135
f 136//136 110//110 126//126
f 131//131 127//127 137//137
f 113//113 134//134 138//138
f 119//119 134//134 116//116
f 103//103 121//121 119//119
f 117//117 142//142 140//140
f 143//143 128//128 120//120
f 129//129 142//142 117//117
f 142//142 129//129 144//144
f 129//129 141//141 145//145
f 123//123 122//122 146//146
f 115//115 130//130 132//132
f 147//147 131//131 137//137
f 138//138 134//134 148//148
f 112//112 133//133 139//139
f 119//119 121//121 149//149
f 120//120 139//139 143//143
f 122//122 128//128 143//143
f 129//129 150//150 144//144
f 129//129 145//145 150//150
f 145//145 141//141 151//151
f 124//124 152//152 125//125
f 132//132 130//130 153//153
f 131//131 151//151 141//141
f 131//131 147//147 151//151
f 126//126 111//111 132//132
f 147//147 137//137 154//154
f 137//137 136//136 155//155
f 138//138 148//148 156//156
f 139//139 133//133 138//138
f 119//119 157//157 134//134
f 121//121 140//140 149//149
f 124//124 123//123 152//152
f 123//123 146//146 152//152
f 154//154 137//137 155//155
f 148//148 134//134 157//157
f 156//156 139//139 138//138
f 143//143 139//139 158//158
f 122//122 143//143 158//158
f 159//159 122//122 158//158
f 146//146 122//122 159//159
f 145//145 160//160 150//150
f 145//145 151//151 161//161
f 145//145 161//161 160//160
f 130//130 125//125 162//162
f 125//125 152//152 162//162
f 163//163 161//161 151//151
f 163//163 151//151 147//147
f 147//147 154//154 164//164
f 156//156 165//165 139//139
f 119//119 149//149 157//157
f 139//139 166//166 158//158
f 126//126 132//132 153//153
f 136//136 126//126 153//153
f 147//147 164//164 163//163
f 167//167 161//161 163//163
f 167//167 163//163 164//164
f 148//148 165//165 156//156
f 157//157 168//168 148//148
f 139//139 165//165 166//166
f 142//142 169//169 140//140
f 159//159 158//158 166//166
f 142//142 144//144 170//170
f 144//144 171//171 172//172
f 144//144 150//150 171//171
f 146//146 159//159 173//173
f 146//146 173//173 152//152
f 162//162 152//152 173//173
f 130//130 162//162 174//174
f 160//160 161//161 175//175
f 130//130 174//174 153//153
f 175//175 161//161 167//167
f 136//136 153//153 176//176
f 155//155 136//136 177//177
f 136//136 176//176 177//177
f 154//154 155//155 178//178
f 164//164 154//154 179//179
f 180//180 165//165 148//148
f 148//148 168//168 180//180
f 149//149 168//168 157//157
f 149//149 181//181 168//168
f 140//140 169//169 149//149
f 142//142 170//170 169//169
f 170//170 144//144 172//172
f 160//160 182//182 150//150
f 150//150 182//182 171//171
f 175//175 167//167 183//183
f 179//179 154//154 178//178
f 164//164 179//179 184//184
f 164//164 184//184 167//167
f 185//185 165//165 180//180
f 186//186 185//185 180//180
f 168//168 186//186 180//180
f 187//187 186//186 168//168
f 188//188 187//187 168//168
f 181//181 188//188 168//168
f 165//165 185//185 166//166
f 149//149 189//189 181//181
f 169//169 189//189 149//149
f 166//166 185//185 159//159
f 190//190 159//159 185//185
f 190//190 173//173 159//159
f 162//162 173//173 191//191
f 162//162 191//191 174//174
f 175//175 192//192 160//160
f 160//160 192//192 182//182
f 183//183 167//167 193//193
f 178//178 155//155 194//194
f 155//155 177//177 194//194
f 167//167 184//184 193//193
f 184//184 179//179 195//195
f 186//186 196//196 185//185
f 196//196 190//190 185//185
f 169//169 197//197 189//189
f 170//170 197//197 169//169
f 196//196 198//198 190//190
f 198//198 196//196 199//199
f 198//198 173//173 190//190
f 191//191 173//173 198//198
f 198//198 200//200 191//191
f 191//191 201//201 174//174
f 153//153 174//174 202//202
f 183//183 192//192 175//175
f 192//192 183//183 203//203
f 179//179 178//178 195//195
f 193//193 184//184 195//195
f 187//187 188//188 204//204
f 186//186 187//187 205//205
f 196//196 186//186 205//205
f 204//204 205//205 187//187
f 188//188 181//181 204//204
f 204//204 181//181 189//189
f 205//205 199//199 196//196
f 189//189 197//197 204//204
f 172//172 206//206 170//170
f 200//200 198//198 199//199
f 200//200 199//199 205//205
f 172//172 171//171 206//206
f 200//200 207//207 201//201
f 182//182 208//208 171//171
f 201//201 191//191 200//200
f 182//182 209//209 208//208
f 174//174 201//201 210//210
f 202//202 174//174 210//210
f 153//153 202//202 211//211
f 192//192 209//209 182//182
f 176//176 153//153 211//211
f 211//211 212//212 176//176
f 177//177 176//176 212//212
f 177//177 212//212 194//194
f 213//213 203//203 183//183
f 183//183 193//193 213//213
f 178//178 214//214 195//195
f 193//193 195//195 213//213
f 205//205 204//204 215//215
f 215//215 204//204 197//197
f 197//197 170//170 216//216
f 217//217 200//200 205//205
f 215//215 217//217 205//205
f 216//216 215//215 197//197
f 170//170 206//206 216//216
f 207//207 200//200 217//217
f 218//218 207//207 217//217
f 208//208 206//206 171//171
f 210//210 207//207 218//218
f 210//210 201//201 207//207
f 209//209 219//219 208//208
f 210//210 220//220 202//202
f 211//211 221//221 212//212
f 178//178 194//194 214//214
f 222//222 213//213 195//195
f 215//215 216//216 223//223
f 217//217 215//215 223//223
f 216//216 206//206 224//224
f 223//223 216//216 224//224
f 223//223 218//218 217//217
f 225//225 218//218 223//223
f 223//223 224//224 225//225
f 206//206 208//208 224//224
f 224//224 208//208 226//226
f 220//220 218//218 225//225
f 220//220 210//210 218//218
f 219//219 226//226 208//208
f 211//211 202//202 220//220
f 192//192 219//219 209//209
f 220//220 221//221 211//211
f 203//203 219//219 192//192
f 203//203 227//227 219//219
f 194//194 228//228 214//214
f 212//212 228//228 194//194
f 203//203 213//213 227//227
f 222//222 227//227 213//213
f 214//214 222//222 195//195
f 225//225 224//224 226//226
f 226//226 220//220 225//225
f 226//226 219//219 229//229
f 221//221 220//220 226//226
f 229//229 221//221 226//226
f 230//230 229//229 219//219
f 212//212 221//221 229//229
f 228//228 212//212 229//229
f 230//230 228//228 229//229
f 219//219 227//227 230//230
f 230//230 222//222 228//228
f 222//222 214//214 228//228
f 227//227 222//222 230//230
