# wavefront obj file written by the visualization toolkit


v 9470.56 4394.94 5533.16
v 9376.36 4454.91 5523.6
v 9436.64 4466.2 5520.78
v 9362.59 4536.54 5519.28
v 9520.93 4427.79 5545.56
v 9313.31 4531.54 5526.87
v 9440.15 4521.18 5533.21
v 9298.1 4599.48 5532.13
v 9342.76 4622 5548.13
v 9409.56 4370.78 5563.6
v 9517.73 4331.48 5579.85
v 9307.4 4464.78 5563.54
v 9557.26 4364.35 5573.66
v 9549.36 4485.06 5586.42
v 9428.83 4581.98 5561.78
v 9250.72 4595.27 5562.64
v 9459.57 4595.7 5607.86
v 9265.75 4668.52 5572.35
v 9467.54 4297.1 5635.3
v 9618.02 4376.19 5609.17
v 9187.17 4646.28 5610.03
v 9224.98 4542.7 5611.28
v 9215.91 4676.06 5598.09
v 9363.1 4662.14 5598.03
v 9295.34 4691.53 5593.37
v 9605.35 4316.39 5618.73
v 9355.55 4361.42 5619.07
v 9276.11 4444.81 5627.2
v 9186.62 4709.93 5639.63
v 9238.99 4715.34 5629.45
v 9571.16 4290.63 5640.18
v 9647.66 4418.04 5642.04
v 9215.94 4506.5 5677.45
v 9617.99 4469.59 5657.97
v 9533.55 4536.12 5634.48
v 9484.64 4590.32 5653.17
v 9180.3 4609.63 5657.48
v 9307.77 4713.57 5646.24
v 9634.83 4286.82 5673.54
v 9651.3 4322.32 5659.93
v 9384.38 4311.71 5691.87
v 9668.45 4370.17 5672.35
v 9297.33 4398.11 5675.97
v 9423.73 4635.07 5668.92
v 9170.08 4680.3 5673.52
v 9544.31 4276.09 5694.02
v 9460.55 4289.2 5692.78
v 9662.3 4417.1 5682.72
v 9541.28 4539.94 5698.67
v 9344.97 4698.66 5720.49
v 9198.45 4723.8 5700.75
v 9262.47 4726.58 5704.11
v 9655.7 4328.25 5713.49
v 9251.37 4446.21 5723.28
v 9174.51 4621.93 5713.77
v 9601.28 4291.34 5722.57
v 9304.6 4385.69 5729.28
v 9664.24 4397.95 5716.79
v 9624.9 4455.48 5715.27
v 9178.35 4683.91 5740.39
v 9454.97 4295.53 5734.41
v 9209.8 4542.13 5748.4
v 9443.3 4611.37 5759.85
v 9236.64 4727.53 5759.22
v 9294.3 4716.76 5753.37
v 9535.55 4297.73 5758.73
v 9368.2 4358.36 5770.26
v 9271.08 4459.6 5768.63
v 9635.95 4428.66 5747.08
v 9564.76 4485.2 5768.64
v 9345.73 4683.37 5773.07
v 9202.81 4704.66 5761.89
v 9463.71 4324.45 5784.39
v 9594.34 4331.27 5771.42
v 9607.26 4396.47 5769.73
v 9187.48 4627.16 5761.97
v 9197.92 4661.83 5778.18
v 9551.81 4384.86 5817.84
v 9315.88 4451.48 5818.18
v 9245.9 4574.26 5801.26
v 9298.41 4692.77 5795.4
v 9496.11 4357.77 5812.45
v 9403.16 4388.25 5817.43
v 9518.91 4467.69 5820.05
v 9386.98 4628.11 5811.38
v 9252.8 4666.87 5797.52
v 9469.97 4549.61 5804.22
v 9332.03 4627.87 5830.84
v 9396.41 4426.13 5843.41
v 9352.83 4446.01 5835.74
v 9339.85 4504.03 5841.55
v 9419.3 4549.28 5833.31
v 9302.74 4591.79 5827.68
v 9437.42 4466.75 5833.14
v 9365.75 4548.8 5832.8
vn 0.0877966 -0.351361 -0.932114
vn -0.242406 -0.29588 -0.923956
vn 0.157018 0.0179078 -0.987433
vn 0.0386011 0.136171 -0.989933
vn 0.443979 0.0669327 -0.893534
vn -0.419327 -0.156959 -0.894163
vn 0.36153 0.330281 -0.871901
vn -0.223414 0.230462 -0.947087
vn 0.229137 0.516998 -0.824748
vn -0.323421 -0.641813 -0.695324
vn 0.0617489 -0.675676 -0.734608
vn -0.614291 -0.449794 -0.64833
vn 0.388762 -0.303805 -0.869809
vn 0.607809 0.457596 -0.648979
vn 0.475445 0.562879 -0.676106
vn -0.59925 -0.0442445 -0.799339
vn 0.597736 0.707808 -0.376458
vn -0.20792 0.522682 -0.826785
vn -0.217167 -0.89421 -0.391443
vn 0.656156 -0.047726 -0.753115
vn -0.827641 -0.0024697 -0.561252
vn -0.788128 -0.368112 -0.493303
vn -0.432691 0.428617 -0.793137
vn 0.473707 0.749887 -0.461812
vn 0.171651 0.770302 -0.614143
vn 0.437327 -0.539368 -0.719603
vn -0.568706 -0.700707 -0.430794
vn -0.7401 -0.552379 -0.383573
vn -0.651674 0.617786 -0.44007
vn -0.0979695 0.891342 -0.442619
vn 0.089276 -0.883064 -0.460681
vn 0.793164 0.30206 -0.52882
vn -0.88024 -0.458457 -0.122452
vn 0.719395 0.661235 -0.212696
vn 0.6671 0.686152 -0.290127
vn 0.641203 0.756439 -0.129068
vn -0.946483 -0.24606 -0.208865
vn 0.350159 0.90911 -0.225628
vn 0.495458 -0.85554 -0.150243
vn 0.830743 -0.367272 -0.418302
vn -0.50114 -0.865366 -1.44816e-05
vn 0.966891 -0.0534768 -0.249523
vn -0.73527 -0.656721 -0.167619
vn 0.595149 0.800681 -0.0686177
vn -0.979949 0.185603 -0.0724616
vn -0.0103492 -0.998939 0.0448822
vn -0.220937 -0.975072 -0.0205183
vn 0.899835 0.433043 -0.0526281
vn 0.666209 0.739789 0.0942236
vn 0.495873 0.865618 0.0693975
vn -0.515653 0.855514 0.0468772
vn 0.124991 0.991471 -0.0369168
vn 0.829051 -0.39376 0.397024
vn -0.809614 -0.559813 0.176449
vn -0.974321 -0.192443 0.116896
vn 0.342587 -0.82735 0.445112
vn -0.683749 -0.683084 0.256678
vn 0.909472 0.16282 0.382557
vn 0.73393 0.641415 0.22346
vn -0.912962 0.259403 0.314977
vn -0.242421 -0.909998 0.336357
vn -0.841035 -0.37056 0.394138
vn 0.631489 0.715853 0.297952
vn -0.126573 0.871089 0.474534
vn 0.30938 0.915816 0.256055
vn 0.0639066 -0.81568 0.574963
vn -0.484687 -0.698597 0.526346
vn -0.690932 -0.480919 0.53975
vn 0.71263 0.376747 0.591794
vn 0.628938 0.545412 0.554042
vn 0.486778 0.783597 0.386034
vn -0.563638 0.560175 0.607056
vn -0.191029 -0.71891 0.668338
vn 0.444026 -0.481873 0.755407
vn 0.645593 0.0459287 0.7623
vn -0.849545 -0.149417 0.505913
vn -0.631502 0.13456 0.763609
vn 0.352506 -0.128438 0.926954
vn -0.540414 -0.420744 0.728648
vn -0.571241 -0.150685 0.806832
vn 0.148506 0.68413 0.714081
vn 0.0580913 -0.467831 0.881907
vn -0.303399 -0.588543 0.749377
vn 0.453997 0.259357 0.85242
vn 0.451127 0.578013 0.67999
vn -0.301226 0.305812 0.903184
vn 0.546927 0.512435 0.662029
vn 0.00394893 0.272494 0.96215
vn -0.0765289 -0.261703 0.96211
vn -0.376362 -0.374994 0.84719
vn -0.200198 -0.0240723 0.97946
vn 0.239243 0.221336 0.945396
vn -0.248623 0.077189 0.96552
vn 0.12252 0.00882748 0.992427
vn 0.0128416 0.0619776 0.997995

g grp1
usemtl mtl1
f 1//1 2//2 3//3 
f 3//3 2//2 4//4 
f 5//5 1//1 3//3 
f 2//2 6//6 4//4 
f 5//5 3//3 7//7 
f 4//4 6//6 8//8 
f 7//7 3//3 4//4 
f 9//9 7//7 4//4 
f 9//9 4//4 8//8 
f 10//10 1//1 11//11 
f 1//1 10//10 2//2 
f 10//10 12//12 2//2 
f 5//5 13//13 1//1 
f 2//2 12//12 6//6 
f 14//14 5//5 7//7 
f 15//15 14//14 7//7 
f 16//16 6//6 12//12 
f 17//17 14//14 15//15 
f 6//6 16//16 8//8 
f 7//7 9//9 15//15 
f 8//8 16//16 18//18 
f 9//9 8//8 18//18 
f 10//10 11//11 19//19 
f 13//13 11//11 1//1 
f 13//13 5//5 20//20 
f 5//5 14//14 20//20 
f 21//21 16//16 22//22 
f 22//22 16//16 12//12 
f 23//23 16//16 21//21 
f 16//16 23//23 18//18 
f 9//9 24//24 15//15 
f 15//15 24//24 17//17 
f 25//25 9//9 18//18 
f 24//24 9//9 25//25 
f 26//26 11//11 13//13 
f 12//12 10//10 27//27 
f 26//26 13//13 20//20 
f 12//12 27//27 28//28 
f 22//22 12//12 28//28 
f 23//23 21//21 29//29 
f 18//18 30//30 25//25 
f 18//18 23//23 30//30 
f 31//31 19//19 11//11 
f 26//26 31//31 11//11 
f 19//19 27//27 10//10 
f 20//20 14//14 32//32 
f 28//28 33//33 22//22 
f 14//14 34//34 32//32 
f 17//17 35//35 14//14 
f 36//36 35//35 17//17 
f 21//21 22//22 37//37 
f 24//24 25//25 38//38 
f 25//25 30//30 38//38 
f 31//31 26//26 39//39 
f 39//39 26//26 40//40 
f 41//41 27//27 19//19 
f 40//40 26//26 20//20 
f 20//20 42//42 40//40 
f 28//28 27//27 43//43 
f 32//32 42//42 20//20 
f 22//22 33//33 37//37 
f 35//35 34//34 14//14 
f 36//36 17//17 44//44 
f 21//21 45//45 29//29 
f 44//44 17//17 24//24 
f 23//23 29//29 30//30 
f 31//31 46//46 19//19 
f 19//19 46//46 47//47 
f 27//27 41//41 43//43 
f 28//28 43//43 33//33 
f 42//42 32//32 48//48 
f 48//48 32//32 34//34 
f 35//35 36//36 49//49 
f 45//45 21//21 37//37 
f 44//44 24//24 38//38 
f 44//44 38//38 50//50 
f 29//29 45//45 51//51 
f 30//30 29//29 51//51 
f 38//38 30//30 52//52 
f 31//31 39//39 46//46 
f 47//47 41//41 19//19 
f 53//53 39//39 40//40 
f 53//53 40//40 42//42 
f 33//33 43//43 54//54 
f 34//34 35//35 49//49 
f 49//49 36//36 44//44 
f 37//37 55//55 45//45 
f 50//50 38//38 52//52 
f 39//39 53//53 56//56 
f 57//57 43//43 41//41 
f 57//57 54//54 43//43 
f 42//42 48//48 58//58 
f 34//34 59//59 48//48 
f 49//49 59//59 34//34 
f 33//33 55//55 37//37 
f 45//45 60//60 51//51 
f 30//30 51//51 52//52 
f 47//47 61//61 41//41 
f 46//46 61//61 47//47 
f 39//39 56//56 46//46 
f 42//42 58//58 53//53 
f 58//58 48//48 59//59 
f 54//54 62//62 33//33 
f 33//33 62//62 55//55 
f 49//49 44//44 63//63 
f 55//55 60//60 45//45 
f 52//52 51//51 64//64 
f 65//65 50//50 52//52 
f 46//46 66//66 61//61 
f 46//46 56//56 66//66 
f 67//67 57//57 41//41 
f 68//68 54//54 57//57 
f 59//59 69//69 58//58 
f 49//49 70//70 59//59 
f 63//63 44//44 50//50 
f 71//71 63//63 50//50 
f 51//51 60//60 72//72 
f 51//51 72//72 64//64 
f 52//52 64//64 65//65 
f 66//66 73//73 61//61 
f 56//56 74//74 66//66 
f 74//74 56//56 53//53 
f 61//61 67//67 41//41 
f 74//74 53//53 75//75 
f 58//58 75//75 53//53 
f 68//68 57//57 67//67 
f 69//69 75//75 58//58 
f 68//68 62//62 54//54 
f 69//69 59//59 70//70 
f 70//70 49//49 63//63 
f 62//62 76//76 55//55 
f 55//55 76//76 60//60 
f 60//60 76//76 77//77 
f 72//72 60//60 77//77 
f 50//50 65//65 71//71 
f 73//73 67//67 61//61 
f 74//74 75//75 78//78 
f 67//67 79//79 68//68 
f 68//68 80//80 62//62 
f 62//62 80//80 76//76 
f 64//64 81//81 65//65 
f 81//81 71//71 65//65 
f 73//73 66//66 82//82 
f 82//82 66//66 74//74 
f 73//73 83//83 67//67 
f 70//70 84//84 75//75 
f 69//69 70//70 75//75 
f 63//63 71//71 85//85 
f 86//86 72//72 77//77 
f 71//71 81//81 85//85 
f 64//64 72//72 86//86 
f 64//64 86//86 81//81 
f 73//73 82//82 83//83 
f 74//74 78//78 82//82 
f 67//67 83//83 79//79 
f 78//78 75//75 84//84 
f 79//79 80//80 68//68 
f 70//70 87//87 84//84 
f 70//70 63//63 87//87 
f 80//80 77//77 76//76 
f 77//77 80//80 86//86 
f 63//63 85//85 87//87 
f 88//88 85//85 81//81 
f 88//88 81//81 86//86 
f 82//82 89//89 83//83 
f 83//83 90//90 79//79 
f 90//90 83//83 89//89 
f 91//91 79//79 90//90 
f 80//80 79//79 91//91 
f 84//84 87//87 92//92 
f 91//91 93//93 80//80 
f 80//80 93//93 86//86 
f 92//92 85//85 88//88 
f 92//92 87//87 85//85 
f 88//88 86//86 93//93 
f 89//89 82//82 94//94 
f 94//94 82//82 78//78 
f 78//78 84//84 94//94 
f 89//89 91//91 90//90 
f 94//94 91//91 89//89 
f 94//94 84//84 92//92 
f 94//94 95//95 91//91 
f 92//92 95//95 94//94 
f 95//95 93//93 91//91 
f 95//95 88//88 93//93 
f 92//92 88//88 95//95 
