# Blender v2.92.0 OBJ File: 'convert_to_one_sided.blend'
# www.blender.org
mtllib 812L.mtl
o 812
v 9.470438 4.394882 5.533090
v 9.376240 4.454852 5.523530
v 9.436518 4.466142 5.520710
v 9.362470 4.536481 5.519210
v 9.520807 4.427732 5.545490
v 9.313190 4.531481 5.526800
v 9.440029 4.521121 5.533140
v 9.297980 4.599420 5.532060
v 9.342640 4.621940 5.548059
v 9.409438 4.370723 5.563529
v 9.517608 4.331423 5.579779
v 9.307281 4.464721 5.563469
v 9.557137 4.364293 5.573589
v 9.549237 4.485002 5.586349
v 9.428709 4.581920 5.561709
v 9.250601 4.595210 5.562570
v 9.459449 4.595640 5.607789
v 9.265631 4.668459 5.572279
v 9.467418 4.297044 5.635228
v 9.617896 4.376132 5.609098
v 9.187052 4.646219 5.609959
v 9.224862 4.542641 5.611208
v 9.215792 4.675999 5.598019
v 9.362979 4.662079 5.597959
v 9.295220 4.691468 5.593299
v 9.605226 4.316334 5.618658
v 9.355430 4.361363 5.618998
v 9.275990 4.444752 5.627129
v 9.186502 4.709868 5.639558
v 9.238872 4.715278 5.629379
v 9.571037 4.290574 5.640108
v 9.647536 4.417982 5.641968
v 9.215822 4.506441 5.677378
v 9.617867 4.469532 5.657898
v 9.533427 4.536061 5.634408
v 9.484517 4.590260 5.653098
v 9.180182 4.609570 5.657408
v 9.307650 4.713508 5.646169
v 9.634706 4.286764 5.673468
v 9.651175 4.322263 5.659858
v 9.384259 4.311654 5.691797
v 9.668325 4.370113 5.672277
v 9.297211 4.398052 5.675898
v 9.423609 4.635009 5.668848
v 9.169962 4.680239 5.673448
v 9.544187 4.276034 5.693947
v 9.460428 4.289144 5.692707
v 9.662175 4.417042 5.682648
v 9.541158 4.539881 5.698597
v 9.198201 4.723584 5.699999
v 9.233310 4.476682 5.699999
v 9.175801 4.618876 5.699999
v 9.366767 4.327874 5.699999
v 9.548219 4.532748 5.699999
v 9.173245 4.681672 5.699999
v 9.397869 4.308534 5.699999
v 9.538913 4.541517 5.699999
v 9.382565 4.316535 5.699999
v 9.541628 4.538784 5.699999
v 9.334620 4.702699 5.699999
v 9.198717 4.723658 5.699999
v 9.265512 4.725611 5.699999
v 9.659734 4.341866 5.699999
v 9.556264 4.279267 5.699999
v 9.665700 4.387442 5.699999
v 9.622944 4.459164 5.699999
v 9.530800 4.278947 5.699999
v 9.543367 4.278058 5.699999
v 9.648566 4.314279 5.699999
v 9.273797 4.422556 5.699999
v 9.616551 4.289209 5.699999
v 9.300497 4.392437 5.699999
v 9.459451 4.290253 5.699999
v 9.190018 4.578335 5.699999
v 9.197626 4.722655 5.699999
v 9.172884 4.641735 5.699999
v 9.261081 4.725910 5.699999
v 9.213863 4.517801 5.699999
v 9.376034 4.673421 5.699999
v 9.654473 4.326707 5.699999
v 9.663164 4.407290 5.699999
v 9.642240 4.437501 5.699999
v 9.430313 4.626890 5.699999
vn 0.0878 -0.3514 -0.9321
vn -0.2424 -0.2959 -0.9240
vn 0.1570 0.0179 -0.9874
vn 0.0386 0.1362 -0.9899
vn 0.4440 0.0669 -0.8935
vn -0.4193 -0.1570 -0.8942
vn 0.3616 0.3303 -0.8719
vn -0.2234 0.2304 -0.9471
vn 0.2291 0.5170 -0.8247
vn -0.3234 -0.6418 -0.6953
vn 0.0618 -0.6756 -0.7346
vn -0.6143 -0.4498 -0.6483
vn 0.3888 -0.3038 -0.8698
vn 0.6078 0.4576 -0.6490
vn 0.4755 0.5629 -0.6761
vn -0.5992 -0.0442 -0.7993
vn 0.5977 0.7078 -0.3765
vn -0.2079 0.5227 -0.8268
vn -0.2172 -0.8942 -0.3914
vn 0.6561 -0.0477 -0.7531
vn -0.8276 -0.0025 -0.5613
vn -0.7881 -0.3681 -0.4933
vn -0.4327 0.4286 -0.7931
vn 0.4737 0.7499 -0.4618
vn 0.1716 0.7703 -0.6141
vn 0.4373 -0.5394 -0.7196
vn -0.5687 -0.7007 -0.4308
vn -0.7401 -0.5524 -0.3836
vn -0.6515 0.6182 -0.4397
vn -0.0979 0.8913 -0.4426
vn 0.0893 -0.8831 -0.4607
vn 0.7932 0.3020 -0.5288
vn -0.8802 -0.4585 -0.1225
vn 0.7194 0.6612 -0.2127
vn 0.6671 0.6862 -0.2901
vn 0.6412 0.7564 -0.1291
vn -0.9465 -0.2460 -0.2089
vn 0.3502 0.9091 -0.2256
vn 0.4954 -0.8555 -0.1502
vn 0.8306 -0.3673 -0.4184
vn -0.5011 -0.8654 -0.0000
vn 0.9669 -0.0535 -0.2495
vn -0.7353 -0.6567 -0.1676
vn 0.5952 0.8007 -0.0686
vn -0.9800 0.1855 -0.0725
vn -0.0103 -0.9989 0.0448
vn -0.2209 -0.9751 -0.0205
vn 0.8998 0.4331 -0.0526
vn 0.6662 0.7398 0.0943
vn 0.5839 -0.3939 0.7098
vn 0.6838 -0.2791 0.6742
vn 0.7106 -0.1894 0.6776
vn 0.3925 0.6705 0.6296
vn 0.1215 0.7471 0.6536
vn -0.4977 -0.5302 0.6864
vn -0.5311 -0.5009 0.6834
vn -0.6141 -0.4682 0.6353
vn 0.6710 0.2058 0.7123
vn 0.4996 0.4574 0.7356
vn -0.6240 -0.4401 0.6457
vn -0.6180 -0.2544 0.7438
vn -0.7378 -0.0828 0.6699
vn -0.6906 0.1827 0.6997
vn -0.3141 -0.4816 0.8182
vn 0.4220 0.5204 0.7423
vn 0.4348 0.6175 0.6555
vn -0.2051 -0.6332 0.7463
vn 0.3795 0.4258 0.8214
vn 0.4211 0.5353 0.7322
vn -0.6733 -0.2326 0.7018
vn -0.1003 -0.6611 0.7435
vn 0.1036 -0.6343 0.7661
vn 0.4873 0.4807 0.7291
vn 0.1993 -0.6597 0.7246
vn 0.0014 -0.5949 0.8038
vn 0.7103 0.0584 0.7015
vn 0.0083 0.7785 0.6276
vn -0.0938 0.7835 0.6142
vn -0.5772 0.3533 0.7362
vn 0.4765 0.4951 0.7265
vn -0.4361 0.6780 0.5917
vn -0.7321 -0.1438 0.6658
vn -0.1515 -0.6645 0.7318
usemtl mtl1.1537
s 1
f 1//1 2//2 3//3
f 3//3 2//2 4//4
f 5//5 1//1 3//3
f 2//2 6//6 4//4
f 5//5 3//3 7//7
f 4//4 6//6 8//8
f 7//7 3//3 4//4
f 9//9 7//7 4//4
f 9//9 4//4 8//8
f 10//10 1//1 11//11
f 1//1 10//10 2//2
f 10//10 12//12 2//2
f 5//5 13//13 1//1
f 2//2 12//12 6//6
f 14//14 5//5 7//7
f 15//15 14//14 7//7
f 16//16 6//6 12//12
f 17//17 14//14 15//15
f 6//6 16//16 8//8
f 7//7 9//9 15//15
f 8//8 16//16 18//18
f 9//9 8//8 18//18
f 10//10 11//11 19//19
f 13//13 11//11 1//1
f 13//13 5//5 20//20
f 5//5 14//14 20//20
f 21//21 16//16 22//22
f 22//22 16//16 12//12
f 23//23 16//16 21//21
f 16//16 23//23 18//18
f 9//9 24//24 15//15
f 15//15 24//24 17//17
f 25//25 9//9 18//18
f 24//24 9//9 25//25
f 26//26 11//11 13//13
f 12//12 10//10 27//27
f 26//26 13//13 20//20
f 12//12 27//27 28//28
f 22//22 12//12 28//28
f 23//23 21//21 29//29
f 18//18 30//30 25//25
f 18//18 23//23 30//30
f 31//31 19//19 11//11
f 26//26 31//31 11//11
f 19//19 27//27 10//10
f 20//20 14//14 32//32
f 28//28 33//33 22//22
f 14//14 34//34 32//32
f 17//17 35//35 14//14
f 36//36 35//35 17//17
f 21//21 22//22 37//37
f 24//24 25//25 38//38
f 25//25 30//30 38//38
f 31//31 26//26 39//39
f 39//39 26//26 40//40
f 41//41 27//27 19//19
f 40//40 26//26 20//20
f 20//20 42//42 40//40
f 28//28 27//27 43//43
f 32//32 42//42 20//20
f 22//22 33//33 37//37
f 35//35 34//34 14//14
f 36//36 17//17 44//44
f 21//21 45//45 29//29
f 44//44 17//17 24//24
f 23//23 29//29 30//30
f 31//31 46//46 19//19
f 19//19 46//46 47//47
f 27//27 41//41 43//43
f 28//28 43//43 33//33
f 42//42 32//32 48//48
f 48//48 32//32 34//34
f 35//35 36//36 49//49
f 45//45 21//21 37//37
f 44//44 24//24 38//38
f 31//31 39//39 46//46
f 47//47 41//41 19//19
f 69//50 40//40 80//51
f 40//40 63//52 80//51
f 34//34 35//35 49//49
f 49//49 36//36 44//44
f 60//53 38//38 62//54
f 43//43 53//55 72//56
f 72//56 70//57 43//43
f 81//58 48//48 82//59
f 51//60 78//61 33//33
f 76//62 55//63 45//45
f 58//64 53//55 41//41
f 83//65 44//44 79//66
f 56//67 58//64 41//41
f 59//68 49//49 57//69
f 33//33 78//61 74//70
f 67//71 64//72 66//73
f 39//39 69//50 71//74
f 67//71 47//47 46//46
f 46//46 68//75 67//71
f 34//34 82//59 48//48
f 48//48 65//76 42//42
f 71//74 46//46 39//39
f 46//46 64//72 68//75
f 42//42 65//76 63//52
f 38//38 77//77 62//54
f 30//30 61//78 77//77
f 38//38 79//66 44//44
f 49//49 83//65 57//69
f 47//47 56//67 41//41
f 45//45 55//63 75//79
f 54//80 34//34 49//49
f 49//49 59//68 54//80
f 37//37 76//62 45//45
f 74//70 37//37 33//33
f 43//43 51//60 33//33
f 45//45 50//81 29//29
f 29//29 61//78 30//30
f 69//50 39//39 40//40
f 40//40 42//42 63//52
f 43//43 41//41 53//55
f 59//68 57//69 53//55
f 57//69 83//65 72//56
f 83//65 79//66 78//61
f 79//66 60//53 74//70
f 78//61 79//66 74//70
f 60//53 62//54 74//70
f 62//54 77//77 52//82
f 77//77 61//78 75//79
f 61//78 50//81 75//79
f 75//79 55//63 77//77
f 55//63 76//62 77//77
f 76//62 52//82 77//77
f 52//82 74//70 62//54
f 78//61 51//60 83//65
f 51//60 70//57 83//65
f 70//57 72//56 83//65
f 72//56 53//55 57//69
f 53//55 58//64 56//67
f 56//67 73//83 54//80
f 73//83 67//71 66//73
f 67//71 68//75 64//72
f 64//72 71//74 63//52
f 71//74 69//50 80//51
f 63//52 71//74 80//51
f 63//52 65//76 82//59
f 65//76 81//58 82//59
f 82//59 66//73 64//72
f 63//52 82//59 64//72
f 66//73 54//80 73//83
f 54//80 59//68 56//67
f 56//67 59//68 53//55
f 67//71 73//83 47//47
f 34//34 66//73 82//59
f 48//48 81//58 65//76
f 71//74 64//72 46//46
f 38//38 30//30 77//77
f 38//38 60//53 79//66
f 49//49 44//44 83//65
f 47//47 73//83 56//67
f 54//80 66//73 34//34
f 37//37 52//82 76//62
f 74//70 52//82 37//37
f 43//43 70//57 51//60
f 45//45 75//79 50//81
f 29//29 50//81 61//78
