# Blender v2.92.0 OBJ File: 'convert_to_one_sided.blend'
# www.blender.org
mtllib 812L.mtl
o Cube
v 0.001000 0.001000 -0.001000
v 0.001000 -0.001000 -0.001000
v 0.001000 0.001000 0.001000
v 0.001000 -0.001000 0.001000
v -0.001000 0.001000 -0.001000
v -0.001000 -0.001000 -0.001000
v -0.001000 0.001000 0.001000
v -0.001000 -0.001000 0.001000
vt 0.625000 0.500000
vt 0.875000 0.500000
vt 0.875000 0.750000
vt 0.625000 0.750000
vt 0.375000 0.750000
vt 0.625000 1.000000
vt 0.375000 1.000000
vt 0.375000 0.000000
vt 0.625000 0.000000
vt 0.625000 0.250000
vt 0.375000 0.250000
vt 0.125000 0.500000
vt 0.375000 0.500000
vt 0.125000 0.750000
vn 0.0000 1.0000 0.0000
vn 0.0000 0.0000 1.0000
vn -1.0000 0.0000 0.0000
vn 0.0000 -1.0000 0.0000
vn 1.0000 0.0000 0.0000
vn 0.0000 0.0000 -1.0000
usemtl Material
s off
f 1/1/1 5/2/1 7/3/1 3/4/1
f 4/5/2 3/4/2 7/6/2 8/7/2
f 8/8/3 7/9/3 5/10/3 6/11/3
f 6/12/4 2/13/4 4/5/4 8/14/4
f 2/13/5 1/1/5 3/4/5 4/5/5
f 6/11/6 5/10/6 1/1/6 2/13/6
o 812
v 9.470438 4.394882 5.533090
v 9.376240 4.454852 5.523530
v 9.436518 4.466142 5.520710
v 9.362470 4.536481 5.519210
v 9.520807 4.427732 5.545490
v 9.313190 4.531481 5.526800
v 9.440029 4.521121 5.533140
v 9.297980 4.599420 5.532060
v 9.342640 4.621940 5.548059
v 9.409438 4.370723 5.563529
v 9.517608 4.331423 5.579779
v 9.307281 4.464721 5.563469
v 9.557137 4.364293 5.573589
v 9.549237 4.485002 5.586349
v 9.428709 4.581920 5.561709
v 9.250601 4.595210 5.562570
v 9.459449 4.595640 5.607789
v 9.265631 4.668459 5.572279
v 9.467418 4.297044 5.635228
v 9.617896 4.376132 5.609098
v 9.187052 4.646219 5.609959
v 9.224862 4.542641 5.611208
v 9.215792 4.675999 5.598019
v 9.362979 4.662079 5.597959
v 9.295220 4.691468 5.593299
v 9.605226 4.316334 5.618658
v 9.355430 4.361363 5.618998
v 9.275990 4.444752 5.627129
v 9.186502 4.709868 5.639558
v 9.238872 4.715278 5.629379
v 9.571037 4.290574 5.640108
v 9.647536 4.417982 5.641968
v 9.215822 4.506441 5.677378
v 9.617867 4.469532 5.657898
v 9.533427 4.536061 5.634408
v 9.484517 4.590260 5.653098
v 9.180182 4.609570 5.657408
v 9.307650 4.713508 5.646169
v 9.634706 4.286764 5.673468
v 9.651175 4.322263 5.659858
v 9.384259 4.311654 5.691797
v 9.668325 4.370113 5.672277
v 9.297211 4.398052 5.675898
v 9.423609 4.635009 5.668848
v 9.169962 4.680239 5.673448
v 9.544187 4.276034 5.693947
v 9.460428 4.289144 5.692707
v 9.662175 4.417042 5.682648
v 9.541158 4.539881 5.698597
v 9.198201 4.723584 5.699999
v 9.233310 4.476682 5.699999
v 9.175801 4.618876 5.699999
v 9.366767 4.327874 5.699999
v 9.548219 4.532748 5.699999
v 9.173245 4.681672 5.699999
v 9.397869 4.308534 5.699999
v 9.538913 4.541517 5.699999
v 9.382565 4.316535 5.699999
v 9.541628 4.538784 5.699999
v 9.334620 4.702699 5.699999
v 9.198717 4.723658 5.699999
v 9.265512 4.725611 5.699999
v 9.659734 4.341866 5.699999
v 9.556264 4.279267 5.699999
v 9.665700 4.387442 5.699999
v 9.622944 4.459164 5.699999
v 9.530800 4.278947 5.699999
v 9.543367 4.278058 5.699999
v 9.648566 4.314279 5.699999
v 9.273797 4.422556 5.699999
v 9.616551 4.289209 5.699999
v 9.300497 4.392437 5.699999
v 9.459451 4.290253 5.699999
v 9.190018 4.578335 5.699999
v 9.197626 4.722655 5.699999
v 9.172884 4.641735 5.699999
v 9.261081 4.725910 5.699999
v 9.213863 4.517801 5.699999
v 9.376034 4.673421 5.699999
v 9.654473 4.326707 5.699999
v 9.663164 4.407290 5.699999
v 9.642240 4.437501 5.699999
v 9.430313 4.626890 5.699999
vn 0.0878 -0.3514 -0.9321
vn -0.2424 -0.2959 -0.9240
vn 0.1570 0.0179 -0.9874
vn 0.0386 0.1362 -0.9899
vn 0.4440 0.0669 -0.8935
vn -0.4193 -0.1570 -0.8942
vn 0.3616 0.3303 -0.8719
vn -0.2234 0.2304 -0.9471
vn 0.2291 0.5170 -0.8247
vn -0.3234 -0.6418 -0.6953
vn 0.0618 -0.6756 -0.7346
vn -0.6143 -0.4498 -0.6483
vn 0.3888 -0.3038 -0.8698
vn 0.6078 0.4576 -0.6490
vn 0.4755 0.5629 -0.6761
vn -0.5992 -0.0442 -0.7993
vn 0.5977 0.7078 -0.3765
vn -0.2079 0.5227 -0.8268
vn -0.2172 -0.8942 -0.3914
vn 0.6561 -0.0477 -0.7531
vn -0.8276 -0.0025 -0.5613
vn -0.7881 -0.3681 -0.4933
vn -0.4327 0.4286 -0.7931
vn 0.4737 0.7499 -0.4618
vn 0.1716 0.7703 -0.6141
vn 0.4373 -0.5394 -0.7196
vn -0.5687 -0.7007 -0.4308
vn -0.7401 -0.5524 -0.3836
vn -0.6515 0.6182 -0.4397
vn -0.0979 0.8913 -0.4426
vn 0.0893 -0.8831 -0.4607
vn 0.7932 0.3020 -0.5288
vn -0.8802 -0.4585 -0.1225
vn 0.7194 0.6612 -0.2127
vn 0.6671 0.6862 -0.2901
vn 0.6412 0.7564 -0.1291
vn -0.9465 -0.2460 -0.2089
vn 0.3502 0.9091 -0.2256
vn 0.4954 -0.8555 -0.1502
vn 0.8306 -0.3673 -0.4184
vn -0.5011 -0.8654 -0.0000
vn 0.9669 -0.0535 -0.2495
vn -0.7353 -0.6567 -0.1676
vn 0.5952 0.8007 -0.0686
vn -0.9800 0.1855 -0.0725
vn -0.0103 -0.9989 0.0448
vn -0.2209 -0.9751 -0.0205
vn 0.8998 0.4331 -0.0526
vn 0.6662 0.7398 0.0943
vn 0.5839 -0.3939 0.7098
vn 0.6838 -0.2791 0.6742
vn 0.7106 -0.1894 0.6776
vn 0.3925 0.6705 0.6296
vn 0.1215 0.7471 0.6536
vn -0.4977 -0.5302 0.6864
vn -0.5311 -0.5009 0.6834
vn -0.6141 -0.4682 0.6353
vn 0.6710 0.2058 0.7123
vn 0.4996 0.4574 0.7356
vn -0.6240 -0.4401 0.6457
vn -0.6180 -0.2544 0.7438
vn -0.7378 -0.0828 0.6699
vn -0.6906 0.1827 0.6997
vn -0.3141 -0.4816 0.8182
vn 0.4220 0.5204 0.7423
vn 0.4348 0.6175 0.6555
vn -0.2051 -0.6332 0.7463
vn 0.3795 0.4258 0.8214
vn 0.4211 0.5353 0.7322
vn -0.6733 -0.2326 0.7018
vn -0.1003 -0.6611 0.7435
vn 0.1036 -0.6343 0.7661
vn 0.4873 0.4807 0.7291
vn 0.1993 -0.6597 0.7246
vn 0.0014 -0.5949 0.8038
vn 0.7103 0.0584 0.7015
vn 0.0083 0.7785 0.6276
vn -0.0938 0.7835 0.6142
vn -0.5772 0.3533 0.7362
vn 0.4765 0.4951 0.7265
vn -0.4361 0.6780 0.5917
vn -0.7321 -0.1438 0.6658
vn -0.1515 -0.6645 0.7318
usemtl mtl1.718
s 1
f 9//7 10//8 11//9
f 11//9 10//8 12//10
f 13//11 9//7 11//9
f 10//8 14//12 12//10
f 13//11 11//9 15//13
f 12//10 14//12 16//14
f 15//13 11//9 12//10
f 17//15 15//13 12//10
f 17//15 12//10 16//14
f 18//16 9//7 19//17
f 9//7 18//16 10//8
f 18//16 20//18 10//8
f 13//11 21//19 9//7
f 10//8 20//18 14//12
f 22//20 13//11 15//13
f 23//21 22//20 15//13
f 24//22 14//12 20//18
f 25//23 22//20 23//21
f 14//12 24//22 16//14
f 15//13 17//15 23//21
f 16//14 24//22 26//24
f 17//15 16//14 26//24
f 18//16 19//17 27//25
f 21//19 19//17 9//7
f 21//19 13//11 28//26
f 13//11 22//20 28//26
f 29//27 24//22 30//28
f 30//28 24//22 20//18
f 31//29 24//22 29//27
f 24//22 31//29 26//24
f 17//15 32//30 23//21
f 23//21 32//30 25//23
f 33//31 17//15 26//24
f 32//30 17//15 33//31
f 34//32 19//17 21//19
f 20//18 18//16 35//33
f 34//32 21//19 28//26
f 20//18 35//33 36//34
f 30//28 20//18 36//34
f 31//29 29//27 37//35
f 26//24 38//36 33//31
f 26//24 31//29 38//36
f 39//37 27//25 19//17
f 34//32 39//37 19//17
f 27//25 35//33 18//16
f 28//26 22//20 40//38
f 36//34 41//39 30//28
f 22//20 42//40 40//38
f 25//23 43//41 22//20
f 44//42 43//41 25//23
f 29//27 30//28 45//43
f 32//30 33//31 46//44
f 33//31 38//36 46//44
f 39//37 34//32 47//45
f 47//45 34//32 48//46
f 49//47 35//33 27//25
f 48//46 34//32 28//26
f 28//26 50//48 48//46
f 36//34 35//33 51//49
f 40//38 50//48 28//26
f 30//28 41//39 45//43
f 43//41 42//40 22//20
f 44//42 25//23 52//50
f 29//27 53//51 37//35
f 52//50 25//23 32//30
f 31//29 37//35 38//36
f 39//37 54//52 27//25
f 27//25 54//52 55//53
f 35//33 49//47 51//49
f 36//34 51//49 41//39
f 50//48 40//38 56//54
f 56//54 40//38 42//40
f 43//41 44//42 57//55
f 53//51 29//27 45//43
f 52//50 32//30 46//44
f 39//37 47//45 54//52
f 55//53 49//47 27//25
f 77//56 48//46 88//57
f 48//46 71//58 88//57
f 42//40 43//41 57//55
f 57//55 44//42 52//50
f 68//59 46//44 70//60
f 51//49 61//61 80//62
f 80//62 78//63 51//49
f 89//64 56//54 90//65
f 59//66 86//67 41//39
f 84//68 63//69 53//51
f 66//70 61//61 49//47
f 91//71 52//50 87//72
f 64//73 66//70 49//47
f 67//74 57//55 65//75
f 41//39 86//67 82//76
f 75//77 72//78 74//79
f 47//45 77//56 79//80
f 75//77 55//53 54//52
f 54//52 76//81 75//77
f 42//40 90//65 56//54
f 56//54 73//82 50//48
f 79//80 54//52 47//45
f 54//52 72//78 76//81
f 50//48 73//82 71//58
f 46//44 85//83 70//60
f 38//36 69//84 85//83
f 46//44 87//72 52//50
f 57//55 91//71 65//75
f 55//53 64//73 49//47
f 53//51 63//69 83//85
f 62//86 42//40 57//55
f 57//55 67//74 62//86
f 45//43 84//68 53//51
f 82//76 45//43 41//39
f 51//49 59//66 41//39
f 53//51 58//87 37//35
f 37//35 69//84 38//36
f 77//56 47//45 48//46
f 48//46 50//48 71//58
f 51//49 49//47 61//61
f 67//74 65//75 61//61
f 65//75 91//71 80//62
f 91//71 87//72 86//67
f 87//72 68//59 82//76
f 86//67 87//72 82//76
f 68//59 70//60 82//76
f 70//60 85//83 60//88
f 85//83 69//84 83//85
f 69//84 58//87 83//85
f 83//85 63//69 85//83
f 63//69 84//68 85//83
f 84//68 60//88 85//83
f 60//88 82//76 70//60
f 86//67 59//66 91//71
f 59//66 78//63 91//71
f 78//63 80//62 91//71
f 80//62 61//61 65//75
f 61//61 66//70 64//73
f 64//73 81//89 62//86
f 81//89 75//77 74//79
f 75//77 76//81 72//78
f 72//78 79//80 71//58
f 79//80 77//56 88//57
f 71//58 79//80 88//57
f 71//58 73//82 90//65
f 73//82 89//64 90//65
f 90//65 74//79 72//78
f 71//58 90//65 72//78
f 74//79 62//86 81//89
f 62//86 67//74 64//73
f 64//73 67//74 61//61
f 75//77 81//89 55//53
f 42//40 74//79 90//65
f 56//54 89//64 73//82
f 79//80 72//78 54//52
f 46//44 38//36 85//83
f 46//44 68//59 87//72
f 57//55 52//50 91//71
f 55//53 81//89 64//73
f 62//86 74//79 42//40
f 45//43 60//88 84//68
f 82//76 60//88 45//43
f 51//49 78//63 59//66
f 53//51 83//85 58//87
f 37//35 58//87 69//84
