# Blender v2.92.0 OBJ File: 'convert_to_one_sided.blend'
# www.blender.org
mtllib 859L.mtl
o Cube
v 0.001000 0.001000 -0.001000
v 0.001000 -0.001000 -0.001000
v 0.001000 0.001000 0.001000
v 0.001000 -0.001000 0.001000
v -0.001000 0.001000 -0.001000
v -0.001000 -0.001000 -0.001000
v -0.001000 0.001000 0.001000
v -0.001000 -0.001000 0.001000
vt 0.625000 0.500000
vt 0.875000 0.500000
vt 0.875000 0.750000
vt 0.625000 0.750000
vt 0.375000 0.750000
vt 0.625000 1.000000
vt 0.375000 1.000000
vt 0.375000 0.000000
vt 0.625000 0.000000
vt 0.625000 0.250000
vt 0.375000 0.250000
vt 0.125000 0.500000
vt 0.375000 0.500000
vt 0.125000 0.750000
vn 0.0000 1.0000 0.0000
vn 0.0000 0.0000 1.0000
vn -1.0000 0.0000 0.0000
vn 0.0000 -1.0000 0.0000
vn 1.0000 0.0000 0.0000
vn 0.0000 0.0000 -1.0000
usemtl Material
s off
f 1/1/1 5/2/1 7/3/1 3/4/1
f 4/5/2 3/4/2 7/6/2 8/7/2
f 8/8/3 7/9/3 5/10/3 6/11/3
f 6/12/4 2/13/4 4/5/4 8/14/4
f 2/13/5 1/1/5 3/4/5 4/5/5
f 6/11/6 5/10/6 1/1/6 2/13/6
o 859
v 12.371242 5.142303 4.636701
v 12.346341 5.105363 4.648461
v 12.334042 5.119983 4.648561
v 12.412140 5.120283 4.669661
v 12.325042 5.051164 4.704210
v 12.370440 5.051934 4.723560
v 12.322341 5.081324 4.684891
v 12.312242 5.067404 4.724320
v 12.384440 5.154403 4.663291
v 12.448139 5.168002 4.689450
v 12.447140 5.060404 4.773339
v 12.337241 5.106583 4.712440
v 12.484739 5.137263 4.735200
v 12.443540 5.179893 4.705150
v 12.324041 5.031454 4.830009
v 12.412241 5.152093 4.739310
v 12.481039 5.189942 4.734270
v 12.337440 5.008004 4.782489
v 12.323042 5.024444 4.765989
v 12.502839 5.174423 4.761970
v 12.516839 5.067324 4.867088
v 12.408340 5.092293 4.842608
v 12.536939 5.128933 4.846378
v 12.473040 5.181242 4.759759
v 12.495139 5.147973 4.847108
v 12.338441 4.974565 4.862198
v 12.391140 4.988865 4.858149
v 12.510339 5.171363 4.798579
v 12.328041 5.002224 4.852808
v 12.538838 5.151123 4.853008
v 12.550838 5.076943 4.930997
v 12.460340 5.000385 4.917368
v 12.554338 5.113623 4.913768
v 12.539938 5.143863 4.873398
v 12.349741 4.982575 4.927338
v 12.407640 5.034944 4.919938
v 12.500139 5.066124 4.947317
v 12.367841 4.957435 4.932377
v 12.350341 4.971065 4.912078
v 12.404040 4.971505 4.926847
v 12.555839 5.121833 4.910738
v 12.541438 5.110643 4.912728
v 12.517240 5.035305 4.950058
v 12.544639 5.084394 4.933397
v 12.384841 4.967245 4.955187
v 12.416841 4.976025 4.956727
v 12.428540 4.999255 4.961747
v 12.479740 5.003655 4.973937
v 12.520339 5.047194 4.954817
v 12.449840 4.992525 4.970327
v 12.477939 5.016634 4.959967
vn 0.0319 0.3092 -0.9505
vn -0.1242 -0.5155 -0.8478
vn -0.8211 0.3646 -0.4391
vn 0.5217 -0.4493 -0.7252
vn -0.3480 -0.7495 -0.5632
vn 0.3085 -0.7811 -0.5429
vn -0.8148 -0.3393 -0.4701
vn -0.9965 0.0821 -0.0149
vn -0.3789 0.9064 -0.1866
vn 0.5064 0.4512 -0.7348
vn 0.5317 -0.7084 -0.4642
vn -0.6815 0.6886 0.2476
vn 0.7792 -0.2949 -0.5531
vn -0.2199 0.9643 -0.1476
vn -0.7929 0.4843 0.3698
vn -0.5204 0.7976 0.3050
vn 0.3157 0.9258 -0.2078
vn -0.0820 -0.9009 -0.4263
vn -0.8023 -0.5485 -0.2356
vn 0.8502 0.3613 -0.3830
vn 0.7269 -0.5886 -0.3539
vn -0.5168 0.7139 0.4726
vn 0.9311 -0.1433 -0.3354
vn -0.2717 0.9220 0.2759
vn -0.3283 0.8046 0.4948
vn -0.5140 -0.8418 -0.1650
vn 0.2969 -0.8848 -0.3592
vn 0.2581 0.9473 0.1898
vn -0.9706 -0.2035 0.1285
vn 0.8054 0.5924 -0.0177
vn 0.9356 -0.2742 0.2227
vn 0.5112 -0.8384 -0.1890
vn 0.9693 0.1590 0.1874
vn 0.0553 0.8942 0.4442
vn -0.7762 0.1783 0.6048
vn -0.4818 0.6431 0.5952
vn -0.1980 0.5682 0.7987
vn -0.0975 -0.9898 0.1039
vn -0.7995 -0.5076 0.3211
vn 0.3625 -0.9215 -0.1393
vn 0.4531 0.6750 0.5823
vn -0.1578 0.6868 0.7095
vn 0.7455 -0.6494 0.1497
vn 0.4172 0.3569 0.8358
vn -0.3892 -0.4318 0.8137
vn 0.2734 -0.8929 0.3576
vn -0.3105 0.3872 0.8681
vn 0.4162 -0.4989 0.7602
vn 0.4162 0.0597 0.9073
vn -0.0539 -0.1131 0.9921
vn -0.0525 0.3243 0.9445
usemtl mtl1.755
s 1
f 9//7 10//8 11//9
f 12//10 10//8 9//7
f 13//11 10//8 14//12
f 13//11 15//13 10//8
f 11//9 15//13 16//14
f 15//13 11//9 10//8
f 9//7 11//9 17//15
f 9//7 18//16 12//10
f 18//16 9//7 17//15
f 10//8 12//10 14//12
f 14//12 12//10 19//17
f 20//18 11//9 16//14
f 17//15 11//9 20//18
f 21//19 12//10 18//16
f 18//16 17//15 22//20
f 12//10 21//19 19//17
f 16//14 23//21 20//18
f 20//18 24//22 17//15
f 17//15 24//22 22//20
f 25//23 18//16 22//20
f 13//11 14//12 26//24
f 27//25 13//11 26//24
f 27//25 15//13 13//11
f 21//19 18//16 28//26
f 18//16 25//23 28//26
f 15//13 27//25 16//14
f 19//17 21//19 29//27
f 20//18 23//21 30//28
f 30//28 24//22 20//18
f 21//19 28//26 31//29
f 22//20 24//22 32//30
f 25//23 22//20 32//30
f 29//27 21//19 31//29
f 24//22 33//31 32//30
f 26//24 34//32 27//25
f 14//12 19//17 35//33
f 33//31 36//34 32//30
f 25//23 32//30 36//34
f 25//23 36//34 28//26
f 14//12 35//33 26//24
f 27//25 37//35 16//14
f 24//22 30//28 33//31
f 31//29 28//26 38//36
f 28//26 36//34 38//36
f 34//32 26//24 35//33
f 27//25 34//32 37//35
f 37//35 23//21 16//14
f 29//27 31//29 39//37
f 35//33 19//17 40//38
f 31//29 38//36 41//39
f 36//34 33//31 42//40
f 38//36 36//34 42//40
f 37//35 43//41 23//21
f 44//42 30//28 23//21
f 44//42 23//21 43//41
f 41//39 39//37 31//29
f 30//28 45//43 33//31
f 35//33 46//44 34//32
f 37//35 34//32 47//45
f 35//33 40//38 48//46
f 19//17 29//27 40//38
f 38//36 49//47 41//39
f 49//47 38//36 42//40
f 50//48 49//47 42//40
f 34//32 46//44 47//45
f 48//46 46//44 35//33
f 37//35 47//45 43//41
f 51//49 40//38 29//27
f 39//37 51//49 29//27
f 33//31 50//48 42//40
f 44//42 45//43 30//28
f 39//37 41//39 52//50
f 45//43 50//48 33//31
f 49//47 52//50 41//39
f 53//51 47//45 46//44
f 48//46 40//38 54//52
f 44//42 55//53 45//43
f 54//52 53//51 46//44
f 48//46 54//52 46//44
f 51//49 56//54 40//38
f 57//55 51//49 39//37
f 44//42 43//41 55//53
f 50//48 52//50 49//47
f 53//51 54//52 58//56
f 53//51 43//41 47//45
f 40//38 56//54 54//52
f 55//53 53//51 58//56
f 55//53 43//41 53//51
f 56//54 58//56 54//52
f 56//54 51//49 57//55
f 52//50 57//55 39//37
f 52//50 50//48 45//43
f 59//57 55//53 58//56
f 56//54 59//57 58//56
f 56//54 57//55 59//57
f 45//43 55//53 59//57
f 57//55 45//43 59//57
f 52//50 45//43 57//55
