# Blender v2.92.0 OBJ File: 'convert_to_one_sided.blend'
# www.blender.org
mtllib 872L.mtl
o 872
v 9.883243 3.482534 5.572909
v 9.834084 3.407025 5.564889
v 9.782774 3.416285 5.556229
v 9.640216 3.418795 5.561688
v 9.708975 3.510994 5.553739
v 9.575987 3.542883 5.569109
v 9.837454 3.553923 5.564449
v 9.679816 3.614182 5.557059
v 9.763934 3.615003 5.556899
v 9.733965 3.711981 5.550899
v 9.624725 3.717011 5.562869
v 9.707485 3.806630 5.549249
v 9.810714 3.830500 5.554479
v 9.651055 3.841429 5.562129
v 9.753784 3.951238 5.576449
v 9.675245 3.331346 5.588149
v 9.787044 3.363676 5.583299
v 9.737575 3.315766 5.603199
v 9.543987 3.343686 5.600399
v 9.864793 3.410095 5.601758
v 9.539337 3.438745 5.583038
v 9.920423 3.600823 5.581658
v 9.854323 3.696441 5.566069
v 9.935452 3.838260 5.575708
v 9.564177 3.826670 5.587308
v 9.617016 3.920979 5.590808
v 9.943512 3.988128 5.584249
v 10.045871 3.902669 5.594388
v 9.934592 4.130396 5.600389
v 9.799604 3.339576 5.616838
v 9.485828 3.397465 5.603388
v 9.484288 3.497844 5.601238
v 9.935573 3.499994 5.613228
v 9.974931 3.586303 5.607328
v 9.525297 3.673372 5.594308
v 10.029071 3.757831 5.598178
v 9.551778 3.943098 5.615618
v 9.668725 4.018607 5.613018
v 10.103070 4.084106 5.604878
v 9.822933 4.125906 5.614779
v 10.020471 4.116376 5.599109
v 9.484928 3.286107 5.643718
v 9.573067 3.277727 5.640808
v 9.675985 3.292356 5.621138
v 9.732565 3.294137 5.637248
v 9.473609 3.342506 5.624708
v 9.441428 3.437575 5.635208
v 9.852613 3.365716 5.659247
v 9.458388 3.698512 5.637358
v 10.018371 3.572963 5.653997
v 10.104170 3.713061 5.635468
v 10.183069 3.838130 5.629508
v 10.136970 3.937778 5.613318
v 9.516238 3.823690 5.615938
v 9.705875 4.111146 5.644058
v 10.186869 4.073357 5.622128
v 10.184169 4.225185 5.622458
v 9.980331 4.288624 5.624748
v 10.063371 4.195675 5.611698
v 10.123270 4.342843 5.619588
v 10.223868 4.386183 5.627048
v 10.193569 4.464952 5.623868
v 10.093470 4.435622 5.629889
v 10.259667 4.497031 5.635978
v 10.174569 4.519571 5.636158
v 10.243968 4.543651 5.648408
v 9.664975 3.269187 5.669247
v 9.734525 3.283347 5.671157
v 9.444798 3.332846 5.659838
v 9.778334 3.310536 5.671427
v 9.922942 3.452795 5.655478
v 9.421688 3.570933 5.669307
v 10.099771 3.670082 5.657898
v 10.160369 3.739501 5.664898
v 10.194269 3.803470 5.651318
v 9.495997 3.921749 5.653168
v 9.457258 3.834579 5.667278
v 10.241968 3.879639 5.655538
v 10.211868 3.967338 5.637288
v 10.253668 4.000527 5.664348
v 9.585136 4.023097 5.646198
v 10.228168 4.109076 5.644818
v 9.832433 4.205855 5.648158
v 10.254368 4.263324 5.651648
v 9.916802 4.319563 5.651688
v 10.278868 4.440522 5.654668
v 10.002471 4.418692 5.650308
v 10.103470 4.510391 5.651488
v 10.287467 4.534260 5.666968
v 10.199368 4.565940 5.669098
v 9.501278 3.260537 5.670997
v 9.464608 3.280487 5.683887
v 9.565396 3.256867 5.691117
v 9.421379 3.435525 5.689407
v 9.437348 3.740381 5.681177
v 10.226568 3.826050 5.683568
v 9.492147 3.992148 5.676918
v 9.528427 4.014637 5.673077
v 10.259467 4.122086 5.670678
v 9.615817 4.081507 5.676948
v 9.743505 4.154416 5.679657
v 9.809084 4.203025 5.675918
v 10.270167 4.213365 5.674198
v 9.864353 4.273644 5.675928
v 9.938211 4.381653 5.672137
v 10.288868 4.338503 5.682127
v 10.029572 4.487751 5.677118
v 10.302467 4.478931 5.680228
v 10.120669 4.547131 5.679788
v 10.270668 4.565970 5.685528
v 9.441938 3.326926 5.698707
v 9.424889 3.616402 5.699967
v 9.961112 3.491954 5.695797
v 10.097469 3.658322 5.682827
v 10.259269 3.933188 5.688617
v 9.472359 3.905739 5.686677
v 10.262668 4.042517 5.693867
v 9.525658 4.017397 5.696737
v 10.268269 4.179195 5.691837
v 9.817324 4.217425 5.696507
v 9.858913 4.265904 5.695827
v 9.897042 4.323664 5.697537
v 10.306567 4.449252 5.699098
v 10.094570 4.547621 5.699138
v 10.163969 4.572340 5.699937
v 9.954485 4.410982 5.699999
v 9.563582 4.045928 5.699999
v 10.089287 4.543324 5.699999
v 10.295837 4.527854 5.699999
v 10.097242 4.548910 5.699999
v 9.518703 4.001927 5.699999
v 9.524011 4.013780 5.699999
v 9.532623 4.020937 5.699999
v 10.094365 4.546910 5.699999
v 10.022614 3.567603 5.699999
v 9.979113 3.513407 5.699999
v 10.162277 3.741501 5.699999
v 10.231213 4.576401 5.699999
v 10.270502 4.215230 5.699999
v 10.292284 4.369779 5.699999
v 10.264101 4.167013 5.699999
v 10.305528 4.444031 5.699999
v 9.969790 4.428434 5.699999
v 9.506199 3.261472 5.699999
v 9.712636 3.281564 5.699999
v 9.651638 3.268013 5.699999
v 9.959050 3.490012 5.699999
v 10.026216 4.489819 5.699999
v 10.051408 3.601022 5.699999
v 10.280463 4.301816 5.699999
v 10.143413 3.717222 5.699999
v 9.673689 4.120520 5.699999
v 9.492435 3.268392 5.699999
v 9.466315 3.285796 5.699999
v 9.733649 3.285790 5.699999
v 10.091622 3.655027 5.699999
v 9.613111 4.082614 5.699999
v 9.811827 4.211353 5.699999
v 10.295906 4.527540 5.699999
v 9.825006 4.224451 5.699999
v 9.680092 4.124139 5.699999
v 9.536475 3.259318 5.699999
v 9.592240 3.260441 5.699999
v 9.761018 4.164614 5.699999
v 9.570773 3.258915 5.699999
v 9.859143 4.263946 5.699999
v 9.460425 3.844766 5.699999
v 9.917501 4.355031 5.699999
v 10.240952 4.575410 5.699999
v 9.747565 3.294418 5.699999
v 9.798561 3.326704 5.699999
v 10.250569 3.902962 5.699999
v 10.256106 3.946997 5.699999
v 10.295663 4.528140 5.699999
v 10.273957 4.565138 5.699999
v 9.426467 3.422052 5.699999
v 9.892082 4.314662 5.699999
v 9.898956 4.324626 5.699999
v 9.424811 3.463955 5.699999
v 9.901598 3.416999 5.699999
v 9.443525 3.324866 5.699999
v 9.441908 3.329200 5.699999
v 9.440987 3.752032 5.699999
v 9.477385 3.913829 5.699999
v 9.886725 3.398756 5.699999
v 9.943510 3.469172 5.699999
v 10.182134 3.767541 5.699999
v 9.834403 3.353540 5.699999
v 10.223592 3.819382 5.699999
v 10.235015 3.851674 5.699999
v 10.259806 4.025399 5.699999
v 10.297108 4.518720 5.699999
v 10.260479 4.060959 5.699999
v 10.306136 4.450231 5.699999
vn 0.4485 -0.1914 -0.8731
vn 0.4157 -0.4480 -0.7915
vn 0.0805 -0.1908 -0.9783
vn -0.1291 -0.1586 -0.9789
vn -0.0183 -0.0034 -0.9998
vn -0.2242 0.0041 -0.9745
vn 0.1437 -0.0036 -0.9896
vn -0.0684 -0.0074 -0.9976
vn 0.0617 -0.0144 -0.9980
vn 0.0113 -0.0307 -0.9995
vn -0.2094 0.0192 -0.9776
vn -0.0695 0.0768 -0.9946
vn 0.0862 0.0559 -0.9947
vn -0.2099 0.1575 -0.9650
vn -0.0882 0.2267 -0.9700
vn -0.0161 -0.4976 -0.8672
vn 0.2967 -0.5898 -0.7511
vn 0.2273 -0.7096 -0.6669
vn -0.2063 -0.3590 -0.9103
vn 0.6528 -0.5769 -0.4910
vn -0.2709 -0.0939 -0.9580
vn 0.2835 -0.0559 -0.9573
vn 0.1584 -0.0270 -0.9870
vn 0.1727 -0.0054 -0.9850
vn -0.3733 0.1242 -0.9193
vn -0.2332 0.2632 -0.9361
vn 0.0771 0.0838 -0.9935
vn 0.1757 -0.0077 -0.9844
vn -0.0380 0.1642 -0.9857
vn 0.5076 -0.7436 -0.4352
vn -0.4371 -0.1363 -0.8890
vn -0.4724 0.0194 -0.8812
vn 0.6831 -0.4459 -0.5784
vn 0.5180 -0.2610 -0.8146
vn -0.4257 0.0684 -0.9023
vn 0.2637 -0.1023 -0.9592
vn -0.4355 0.3069 -0.8463
vn -0.2496 0.3668 -0.8962
vn 0.1432 0.0361 -0.9890
vn -0.2283 0.3278 -0.9168
vn 0.0537 0.1059 -0.9929
vn -0.4397 -0.5893 -0.6778
vn -0.0356 -0.7825 -0.6216
vn 0.0693 -0.8090 -0.5837
vn 0.3237 -0.8686 -0.3752
vn -0.5540 -0.2749 -0.7858
vn -0.7782 -0.0602 -0.6251
vn 0.6709 -0.7239 -0.1608
vn -0.6975 0.1046 -0.7089
vn 0.7217 -0.5591 -0.4080
vn 0.5069 -0.3712 -0.7780
vn 0.4019 -0.1721 -0.8994
vn 0.2505 -0.0330 -0.9676
vn -0.5537 0.1347 -0.8218
vn -0.3970 0.5807 -0.7107
vn 0.3406 -0.0122 -0.9401
vn 0.2509 0.0041 -0.9680
vn -0.1856 0.2042 -0.9612
vn 0.0362 0.0980 -0.9945
vn 0.0031 0.0457 -0.9990
vn 0.2999 -0.0343 -0.9533
vn 0.0352 0.1367 -0.9900
vn -0.1734 0.2021 -0.9639
vn 0.4025 0.1267 -0.9066
vn -0.1169 0.4111 -0.9040
vn 0.1951 0.5094 -0.8381
vn 0.1409 -0.9703 -0.1966
vn 0.3674 -0.9239 -0.1065
vn -0.8636 -0.3068 -0.4000
vn 0.5413 -0.8358 -0.0919
vn 0.7568 -0.6015 -0.2556
vn -0.9502 0.0469 -0.3082
vn 0.6814 -0.5478 -0.4854
vn 0.7454 -0.5643 -0.3548
vn 0.6505 -0.4215 -0.6318
vn -0.6506 0.2725 -0.7088
vn -0.8697 0.2054 -0.4488
vn 0.7615 -0.2077 -0.6140
vn 0.4555 -0.0251 -0.8899
vn 0.8156 -0.0220 -0.5782
vn -0.4319 0.4901 -0.7572
vn 0.5462 -0.0190 -0.8374
vn -0.5109 0.5376 -0.6708
vn 0.6252 -0.0670 -0.7776
vn -0.5112 0.3883 -0.7667
vn 0.6854 -0.0464 -0.7267
vn -0.3884 0.3696 -0.8441
vn -0.3129 0.5216 -0.7937
vn 0.7437 0.3251 -0.5842
vn -0.0899 0.8124 -0.5761
vn -0.2414 -0.9324 -0.2691
vn -0.7195 -0.6925 -0.0525
vn 0.0306 -0.9985 -0.0443
vn -0.9962 -0.0809 0.0315
vn -0.9757 0.1451 -0.1639
vn 0.8808 -0.4535 -0.1357
vn -0.8097 0.5077 -0.2945
vn -0.5189 0.6229 -0.5855
vn 0.8709 -0.0568 -0.4882
vn -0.5209 0.7781 -0.3509
vn -0.5465 0.8046 -0.2323
vn -0.6628 0.6691 -0.3362
vn 0.9025 -0.0978 -0.4194
vn -0.7738 0.5726 -0.2710
vn -0.7180 0.5450 -0.4331
vn 0.9600 -0.1259 -0.2500
vn -0.5836 0.6568 -0.4776
vn 0.9255 0.0435 -0.3762
vn -0.3440 0.7666 -0.5422
vn 0.4916 0.8006 -0.3425
vn -0.9303 -0.3281 0.1641
vn 0.5655 -0.4988 0.6568
vn 0.5812 -0.4737 0.6617
vn -0.7404 0.0413 0.6709
vn 0.6059 -0.4733 0.6395
vn 0.5692 -0.4665 0.6770
vn 0.7716 -0.6349 -0.0399
vn 0.7752 -0.6291 -0.0569
vn 0.9896 -0.1438 -0.0052
vn -0.9604 0.2787 -0.0038
vn 0.9980 -0.0341 0.0534
vn -0.7282 0.6639 0.1700
vn 0.9936 -0.0975 0.0569
vn -0.7196 0.6928 0.0470
vn -0.7908 0.5938 0.1483
vn -0.8253 0.5473 0.1392
vn -0.5847 0.4078 0.7012
vn -0.5771 0.5130 0.6354
vn 0.9920 -0.0198 0.1244
vn -0.5051 0.8599 -0.0732
vn -0.2446 0.8476 0.4709
vn 0.5792 -0.4693 0.6665
vn 0.5891 -0.4902 0.6424
vn 0.5217 -0.3958 0.7558
vn 0.6660 -0.3594 0.6537
vn 0.5802 -0.4664 0.6677
vn 0.6537 -0.1885 0.7329
vn 0.6237 -0.1153 0.7731
vn 0.6361 -0.0946 0.7658
vn -0.2670 0.7680 0.5821
vn 0.6456 0.3839 0.6602
vn 0.7819 0.2284 0.5800
vn 0.5401 0.6137 0.5759
vn -0.3180 -0.6032 0.7315
vn -0.4730 -0.4295 0.7693
vn -0.5526 -0.2954 0.7794
vn -0.5935 -0.1376 0.7930
vn 0.5137 -0.4091 0.7542
vn 0.5682 -0.4285 0.7025
vn 0.7193 0.0557 0.6924
vn 0.7728 0.1645 0.6130
vn -0.7281 0.1559 0.6675
vn -0.5653 0.2412 0.7888
vn 0.6759 -0.1756 0.7158
vn 0.5896 -0.0660 0.8050
vn -0.5693 0.3344 0.7510
vn -0.6770 0.2789 0.6811
vn -0.3051 0.3958 0.8662
vn -0.3681 0.6661 0.6487
vn -0.4254 0.4894 0.7613
vn 0.6500 -0.0710 0.7566
vn 0.5039 -0.0131 0.8637
vn -0.4648 0.3119 0.8287
vn -0.5017 0.2948 0.8133
vn 0.6642 -0.1532 0.7317
vn 0.5905 0.0915 0.8019
vn -0.2725 0.4122 0.8694
vn 0.1183 0.8344 0.5383
vn -0.5784 0.0088 0.8157
vn -0.6126 -0.0995 0.7841
vn 0.5733 -0.0132 0.8192
vn 0.5547 -0.0255 0.8316
vn 0.4283 -0.5514 0.7160
vn 0.4200 -0.5661 0.7093
vn 0.3654 -0.5615 0.7424
vn 0.0784 -0.6816 0.7276
vn 0.0295 -0.6257 0.7795
vn -0.0660 -0.6982 0.7128
vn -0.4299 0.3489 0.8328
vn -0.4686 0.3304 0.8193
vn -0.4031 0.4364 0.8044
vn 0.2692 -0.6565 0.7047
vn -0.4327 0.6888 0.5816
vn -0.4799 0.6118 0.6289
vn 0.1434 -0.6655 0.7325
vn 0.1100 -0.6915 0.7139
vn -0.1653 -0.6852 0.7094
vn -0.6108 0.4827 0.6276
vn -0.5224 0.5361 0.6631
vn 0.0657 0.8434 0.5333
vn 0.5467 -0.4396 0.7127
vn -0.6447 0.1163 0.7555
vn -0.4474 0.5945 0.6681
vn -0.4792 0.6299 0.6112
usemtl mtl1.1581
s 1
f 1//1 2//2 3//3
f 3//3 4//4 5//5
f 5//5 4//4 6//6
f 3//3 5//5 7//7
f 1//1 3//3 7//7
f 6//6 8//8 5//5
f 9//9 5//5 8//8
f 9//9 7//7 5//5
f 10//10 11//11 12//12
f 13//13 10//10 12//12
f 14//14 15//15 12//12
f 13//13 12//12 15//15
f 16//16 17//17 18//18
f 16//16 19//19 4//4
f 17//17 2//2 20//20
f 3//3 16//16 4//4
f 17//17 16//16 3//3
f 3//3 2//2 17//17
f 19//19 21//21 4//4
f 1//1 20//20 2//2
f 4//4 21//21 6//6
f 1//1 7//7 22//22
f 8//8 6//6 11//11
f 22//22 7//7 23//23
f 23//23 7//7 9//9
f 10//10 8//8 11//11
f 9//9 8//8 10//10
f 23//23 9//9 10//10
f 23//23 10//10 13//13
f 11//11 14//14 12//12
f 24//24 23//23 13//13
f 14//14 25//25 26//26
f 14//14 26//26 15//15
f 24//24 13//13 27//27
f 27//27 13//13 15//15
f 28//28 24//24 27//27
f 27//27 15//15 29//29
f 18//18 17//17 30//30
f 19//19 31//31 21//21
f 21//21 31//31 32//32
f 1//1 33//33 20//20
f 34//34 33//33 1//1
f 21//21 32//32 6//6
f 6//6 32//32 35//35
f 1//1 22//22 34//34
f 6//6 35//35 11//11
f 36//36 22//22 23//23
f 35//35 25//25 11//11
f 11//11 25//25 14//14
f 24//24 36//36 23//23
f 36//36 24//24 28//28
f 26//26 25//25 37//37
f 38//38 26//26 37//37
f 15//15 26//26 38//38
f 28//28 27//27 39//39
f 40//40 15//15 38//38
f 29//29 15//15 40//40
f 41//41 27//27 29//29
f 39//39 27//27 41//41
f 42//42 19//19 43//43
f 44//44 43//43 16//16
f 16//16 18//18 44//44
f 18//18 45//45 44//44
f 42//42 46//46 19//19
f 16//16 43//43 19//19
f 18//18 30//30 45//45
f 19//19 46//46 31//31
f 20//20 30//30 17//17
f 46//46 47//47 31//31
f 30//30 20//20 48//48
f 49//49 32//32 47//47
f 31//31 47//47 32//32
f 50//50 33//33 34//34
f 35//35 32//32 49//49
f 34//34 22//22 36//36
f 51//51 34//34 36//36
f 51//51 36//36 52//52
f 52//52 36//36 53//53
f 35//35 54//54 25//25
f 54//54 37//37 25//25
f 53//53 36//36 28//28
f 53//53 28//28 39//39
f 55//55 40//40 38//38
f 53//53 39//39 56//56
f 56//56 39//39 57//57
f 29//29 40//40 58//58
f 59//59 41//41 29//29
f 39//39 41//41 59//59
f 57//57 39//39 59//59
f 59//59 29//29 58//58
f 57//57 59//59 60//60
f 60//60 59//59 58//58
f 61//61 60//60 62//62
f 63//63 62//62 60//60
f 64//64 61//61 62//62
f 63//63 65//65 62//62
f 64//64 62//62 66//66
f 66//66 62//62 65//65
f 43//43 44//44 67//67
f 44//44 45//45 67//67
f 67//67 45//45 68//68
f 42//42 69//69 46//46
f 45//45 30//30 70//70
f 47//47 46//46 69//69
f 20//20 71//71 48//48
f 33//33 71//71 20//20
f 49//49 47//47 72//72
f 33//33 50//50 71//71
f 34//34 51//51 50//50
f 73//73 50//50 51//51
f 35//35 49//49 54//54
f 74//74 51//51 75//75
f 52//52 75//75 51//51
f 76//76 54//54 49//49
f 77//77 76//76 49//49
f 78//78 75//75 52//52
f 78//78 52//52 79//79
f 54//54 76//76 37//37
f 52//52 53//53 79//79
f 80//80 78//78 79//79
f 53//53 56//56 79//79
f 76//76 81//81 37//37
f 38//38 37//37 81//81
f 56//56 82//82 79//79
f 38//38 81//81 55//55
f 55//55 83//83 40//40
f 56//56 57//57 82//82
f 40//40 83//83 58//58
f 82//82 57//57 84//84
f 58//58 83//83 85//85
f 61//61 57//57 60//60
f 84//84 57//57 61//61
f 84//84 61//61 86//86
f 60//60 58//58 63//63
f 58//58 85//85 87//87
f 63//63 58//58 87//87
f 86//86 61//61 64//64
f 87//87 88//88 63//63
f 65//65 63//63 88//88
f 66//66 89//89 64//64
f 89//89 86//86 64//64
f 65//65 88//88 90//90
f 65//65 90//90 66//66
f 42//42 91//91 92//92
f 42//42 43//43 91//91
f 91//91 43//43 93//93
f 43//43 67//67 93//93
f 42//42 92//92 69//69
f 45//45 70//70 68//68
f 47//47 69//69 94//94
f 94//94 72//72 47//47
f 49//49 72//72 95//95
f 51//51 74//74 73//73
f 95//95 77//77 49//49
f 74//74 75//75 96//96
f 75//75 78//78 96//96
f 76//76 97//97 98//98
f 76//76 98//98 81//81
f 80//80 82//82 99//99
f 79//79 82//82 80//80
f 100//100 81//81 98//98
f 55//55 81//81 100//100
f 101//101 55//55 100//100
f 55//55 101//101 83//83
f 102//102 83//83 101//101
f 99//99 82//82 84//84
f 84//84 103//103 99//99
f 83//83 102//102 104//104
f 83//83 104//104 85//85
f 105//105 85//85 104//104
f 106//106 103//103 84//84
f 85//85 105//105 87//87
f 86//86 106//106 84//84
f 87//87 105//105 107//107
f 108//108 106//106 86//86
f 87//87 107//107 88//88
f 86//86 89//89 108//108
f 88//88 107//107 109//109
f 88//88 109//109 90//90
f 66//66 90//90 110//110
f 66//66 110//110 89//89
f 111//111 69//69 92//92
f 30//30 48//48 70//70
f 111//111 94//94 69//69
f 185//112 71//71 180//113
f 112//114 72//72 94//94
f 136//115 50//50 135//116
f 113//117 71//71 50//50
f 114//118 50//50 73//73
f 72//72 112//114 95//95
f 73//73 74//74 114//118
f 115//119 96//96 78//78
f 116//120 77//77 95//95
f 77//77 116//120 76//76
f 76//76 116//120 97//97
f 78//78 80//80 115//119
f 115//119 80//80 117//121
f 80//80 99//99 117//121
f 98//98 97//97 118//122
f 117//121 99//99 119//123
f 98//98 118//122 100//100
f 99//99 103//103 119//123
f 102//102 120//124 104//104
f 106//106 119//123 103//103
f 104//104 121//125 122//126
f 122//126 105//105 104//104
f 105//105 168//127 126//128
f 106//106 108//108 123//129
f 109//109 124//130 125//131
f 90//90 109//109 125//131
f 71//71 186//132 180//113
f 50//50 149//133 135//116
f 156//134 149//133 114//118
f 189//135 187//136 96//96
f 189//135 96//96 190//137
f 118//122 97//97 116//120
f 102//102 101//101 120//124
f 104//104 120//124 121//125
f 150//138 106//106 140//139
f 109//109 107//107 124//130
f 125//131 124//130 130//140
f 89//89 174//141 129//142
f 175//143 174//141 110//110
f 153//144 154//145 92//92
f 181//146 182//147 111//111
f 147//148 186//132 113//117
f 156//134 114//118 151//149
f 192//150 159//151 174//141
f 167//152 184//153 116//120
f 172//154 115//119 173//155
f 131//156 116//120 184//153
f 131//156 132//157 118//122
f 132//157 133//158 118//122
f 161//159 164//160 101//101
f 139//161 141//162 119//123
f 178//163 122//126 177//164
f 178//163 168//127 122//126
f 142//165 123//129 194//166
f 192//150 194//166 123//129
f 134//167 130//140 124//130
f 169//168 175//143 110//110
f 179//169 94//94 176//170
f 191//171 117//121 193//172
f 48//48 185//112 188//173
f 111//111 176//170 94//94
f 115//119 191//171 173//155
f 96//96 172//154 190//137
f 70//70 188//173 171//174
f 70//70 171//174 170//175
f 95//95 167//152 116//120
f 121//125 177//164 122//126
f 93//93 163//176 165//177
f 93//93 165//177 162//178
f 121//125 160//179 166//180
f 108//108 192//150 123//129
f 164//160 120//124 101//101
f 120//124 158//181 160//179
f 68//68 170//175 155//182
f 154//145 111//111 92//92
f 101//101 152//183 161//159
f 100//100 157//184 152//183
f 67//67 163//176 93//93
f 68//68 145//185 67//67
f 67//67 145//185 146//186
f 91//91 153//144 92//92
f 91//91 162//178 144//187
f 107//107 143//188 148//189
f 119//123 193//172 117//121
f 123//129 140//139 106//106
f 119//123 150//138 139//161
f 110//110 138//190 169//168
f 74//74 151//149 114//118
f 74//74 187//136 137//191
f 113//117 136//115 147//148
f 95//95 112//114 183//192
f 94//94 179//169 112//114
f 89//89 159//151 108//108
f 107//107 128//193 124//130
f 124//130 128//193 134//167
f 100//100 127//194 157//184
f 118//122 133//158 127//194
f 90//90 125//131 138//190
f 105//105 143//188 107//107
f 185//112 48//48 71//71
f 136//115 113//117 50//50
f 105//105 122//126 168//127
f 71//71 113//117 186//132
f 50//50 114//118 149//133
f 89//89 110//110 174//141
f 127//194 133//158 131//156
f 133//158 132//157 131//156
f 131//156 184//153 127//194
f 184//153 167//152 157//184
f 127//194 184//153 157//184
f 152//183 157//184 149//133
f 164//160 161//159 156//134
f 161//159 152//183 156//134
f 157//184 167//152 135//116
f 135//116 167//152 136//115
f 167//152 183//192 136//115
f 183//192 112//114 186//132
f 183//192 147//148 136//115
f 112//114 179//169 188//173
f 179//169 176//170 146//186
f 163//176 176//170 165//177
f 176//170 182//147 165//177
f 182//147 181//146 162//178
f 181//146 154//145 153//144
f 153//144 144//187 162//178
f 162//178 165//177 182//147
f 163//176 146//186 176//170
f 146//186 145//185 179//169
f 145//185 155//182 170//175
f 170//175 171//174 179//169
f 171//174 188//173 179//169
f 188//173 185//112 180//113
f 180//113 186//132 112//114
f 186//132 147//148 183//192
f 135//116 149//133 157//184
f 149//133 156//134 152//183
f 156//134 151//149 164//160
f 151//149 137//191 164//160
f 164//160 187//136 190//137
f 187//136 189//135 190//137
f 187//136 164//160 137//191
f 164//160 190//137 173//155
f 188//173 180//113 112//114
f 145//185 170//175 179//169
f 181//146 153//144 162//178
f 164//160 173//155 158//181
f 190//137 172//154 173//155
f 173//155 191//171 158//181
f 191//171 193//172 160//179
f 160//179 193//172 166//180
f 141//162 139//161 178//163
f 139//161 150//138 168//127
f 178//163 139//161 168//127
f 193//172 141//162 166//180
f 166//180 141//162 177//164
f 191//171 160//179 158//181
f 178//163 177//164 141//162
f 140//139 142//165 134//167
f 142//165 194//166 125//131
f 134//167 142//165 125//131
f 150//138 140//139 148//189
f 126//128 168//127 150//138
f 148//189 143//188 150//138
f 143//188 126//128 150//138
f 134//167 128//193 140//139
f 128//193 148//189 140//139
f 125//131 130//140 134//167
f 169//168 138//190 192//150
f 138//190 125//131 192//150
f 169//168 192//150 174//141
f 174//141 175//143 169//168
f 159//151 129//142 174//141
f 194//166 192//150 125//131
f 131//156 118//122 116//120
f 111//111 182//147 176//170
f 115//119 117//121 191//171
f 96//96 115//119 172//154
f 70//70 48//48 188//173
f 95//95 183//192 167//152
f 121//125 166//180 177//164
f 121//125 120//124 160//179
f 108//108 159//151 192//150
f 164//160 158//181 120//124
f 68//68 70//70 170//175
f 154//145 181//146 111//111
f 101//101 100//100 152//183
f 67//67 146//186 163//176
f 68//68 155//182 145//185
f 91//91 144//187 153//144
f 91//91 93//93 162//178
f 119//123 141//162 193//172
f 123//129 142//165 140//139
f 119//123 106//106 150//138
f 110//110 90//90 138//190
f 74//74 137//191 151//149
f 74//74 96//96 187//136
f 89//89 129//142 159//151
f 107//107 148//189 128//193
f 100//100 118//122 127//194
f 105//105 126//128 143//188
