# Blender v2.92.0 OBJ File: 'convert_to_one_sided.blend'
# www.blender.org
mtllib 872L.mtl
o Cube
v 0.001000 0.001000 -0.001000
v 0.001000 -0.001000 -0.001000
v 0.001000 0.001000 0.001000
v 0.001000 -0.001000 0.001000
v -0.001000 0.001000 -0.001000
v -0.001000 -0.001000 -0.001000
v -0.001000 0.001000 0.001000
v -0.001000 -0.001000 0.001000
vt 0.625000 0.500000
vt 0.875000 0.500000
vt 0.875000 0.750000
vt 0.625000 0.750000
vt 0.375000 0.750000
vt 0.625000 1.000000
vt 0.375000 1.000000
vt 0.375000 0.000000
vt 0.625000 0.000000
vt 0.625000 0.250000
vt 0.375000 0.250000
vt 0.125000 0.500000
vt 0.375000 0.500000
vt 0.125000 0.750000
vn 0.0000 1.0000 0.0000
vn 0.0000 0.0000 1.0000
vn -1.0000 0.0000 0.0000
vn 0.0000 -1.0000 0.0000
vn 1.0000 0.0000 0.0000
vn 0.0000 0.0000 -1.0000
usemtl Material
s off
f 1/1/1 5/2/1 7/3/1 3/4/1
f 4/5/2 3/4/2 7/6/2 8/7/2
f 8/8/3 7/9/3 5/10/3 6/11/3
f 6/12/4 2/13/4 4/5/4 8/14/4
f 2/13/5 1/1/5 3/4/5 4/5/5
f 6/11/6 5/10/6 1/1/6 2/13/6
o 872
v 9.883243 3.482534 5.572909
v 9.834084 3.407025 5.564889
v 9.782774 3.416285 5.556229
v 9.640216 3.418795 5.561688
v 9.708975 3.510994 5.553739
v 9.575987 3.542883 5.569109
v 9.837454 3.553923 5.564449
v 9.679816 3.614182 5.557059
v 9.763934 3.615003 5.556899
v 9.733965 3.711981 5.550899
v 9.624725 3.717011 5.562869
v 9.707485 3.806630 5.549249
v 9.810714 3.830500 5.554479
v 9.651055 3.841429 5.562129
v 9.753784 3.951238 5.576449
v 9.675245 3.331346 5.588149
v 9.787044 3.363676 5.583299
v 9.737575 3.315766 5.603199
v 9.543987 3.343686 5.600399
v 9.864793 3.410095 5.601758
v 9.539337 3.438745 5.583038
v 9.920423 3.600823 5.581658
v 9.854323 3.696441 5.566069
v 9.935452 3.838260 5.575708
v 9.564177 3.826670 5.587308
v 9.617016 3.920979 5.590808
v 9.943512 3.988128 5.584249
v 10.045871 3.902669 5.594388
v 9.934592 4.130396 5.600389
v 9.799604 3.339576 5.616838
v 9.485828 3.397465 5.603388
v 9.484288 3.497844 5.601238
v 9.935573 3.499994 5.613228
v 9.974931 3.586303 5.607328
v 9.525297 3.673372 5.594308
v 10.029071 3.757831 5.598178
v 9.551778 3.943098 5.615618
v 9.668725 4.018607 5.613018
v 10.103070 4.084106 5.604878
v 9.822933 4.125906 5.614779
v 10.020471 4.116376 5.599109
v 9.484928 3.286107 5.643718
v 9.573067 3.277727 5.640808
v 9.675985 3.292356 5.621138
v 9.732565 3.294137 5.637248
v 9.473609 3.342506 5.624708
v 9.441428 3.437575 5.635208
v 9.852613 3.365716 5.659247
v 9.458388 3.698512 5.637358
v 10.018371 3.572963 5.653997
v 10.104170 3.713061 5.635468
v 10.183069 3.838130 5.629508
v 10.136970 3.937778 5.613318
v 9.516238 3.823690 5.615938
v 9.705875 4.111146 5.644058
v 10.186869 4.073357 5.622128
v 10.184169 4.225185 5.622458
v 9.980331 4.288624 5.624748
v 10.063371 4.195675 5.611698
v 10.123270 4.342843 5.619588
v 10.223868 4.386183 5.627048
v 10.193569 4.464952 5.623868
v 10.093470 4.435622 5.629889
v 10.259667 4.497031 5.635978
v 10.174569 4.519571 5.636158
v 10.243968 4.543651 5.648408
v 9.664975 3.269187 5.669247
v 9.734525 3.283347 5.671157
v 9.444798 3.332846 5.659838
v 9.778334 3.310536 5.671427
v 9.922942 3.452795 5.655478
v 9.421688 3.570933 5.669307
v 10.099771 3.670082 5.657898
v 10.160369 3.739501 5.664898
v 10.194269 3.803470 5.651318
v 9.495997 3.921749 5.653168
v 9.457258 3.834579 5.667278
v 10.241968 3.879639 5.655538
v 10.211868 3.967338 5.637288
v 10.253668 4.000527 5.664348
v 9.585136 4.023097 5.646198
v 10.228168 4.109076 5.644818
v 9.832433 4.205855 5.648158
v 10.254368 4.263324 5.651648
v 9.916802 4.319563 5.651688
v 10.278868 4.440522 5.654668
v 10.002471 4.418692 5.650308
v 10.103470 4.510391 5.651488
v 10.287467 4.534260 5.666968
v 10.199368 4.565940 5.669098
v 9.501278 3.260537 5.670997
v 9.464608 3.280487 5.683887
v 9.565396 3.256867 5.691117
v 9.421379 3.435525 5.689407
v 9.437348 3.740381 5.681177
v 10.226568 3.826050 5.683568
v 9.492147 3.992148 5.676918
v 9.528427 4.014637 5.673077
v 10.259467 4.122086 5.670678
v 9.615817 4.081507 5.676948
v 9.743505 4.154416 5.679657
v 9.809084 4.203025 5.675918
v 10.270167 4.213365 5.674198
v 9.864353 4.273644 5.675928
v 9.938211 4.381653 5.672137
v 10.288868 4.338503 5.682127
v 10.029572 4.487751 5.677118
v 10.302467 4.478931 5.680228
v 10.120669 4.547131 5.679788
v 10.270668 4.565970 5.685528
v 9.441938 3.326926 5.698707
v 9.424889 3.616402 5.699967
v 9.961112 3.491954 5.695797
v 10.097469 3.658322 5.682827
v 10.259269 3.933188 5.688617
v 9.472359 3.905739 5.686677
v 10.262668 4.042517 5.693867
v 9.525658 4.017397 5.696737
v 10.268269 4.179195 5.691837
v 9.817324 4.217425 5.696507
v 9.858913 4.265904 5.695827
v 9.897042 4.323664 5.697537
v 10.306567 4.449252 5.699098
v 10.094570 4.547621 5.699138
v 10.163969 4.572340 5.699937
v 9.954485 4.410982 5.699999
v 9.563582 4.045928 5.699999
v 10.089287 4.543324 5.699999
v 10.295837 4.527854 5.699999
v 10.097242 4.548910 5.699999
v 9.518703 4.001927 5.699999
v 9.524011 4.013780 5.699999
v 9.532623 4.020937 5.699999
v 10.094365 4.546910 5.699999
v 10.022614 3.567603 5.699999
v 9.979113 3.513407 5.699999
v 10.162277 3.741501 5.699999
v 10.231213 4.576401 5.699999
v 10.270502 4.215230 5.699999
v 10.292284 4.369779 5.699999
v 10.264101 4.167013 5.699999
v 10.305528 4.444031 5.699999
v 9.969790 4.428434 5.699999
v 9.506199 3.261472 5.699999
v 9.712636 3.281564 5.699999
v 9.651638 3.268013 5.699999
v 9.959050 3.490012 5.699999
v 10.026216 4.489819 5.699999
v 10.051408 3.601022 5.699999
v 10.280463 4.301816 5.699999
v 10.143413 3.717222 5.699999
v 9.673689 4.120520 5.699999
v 9.492435 3.268392 5.699999
v 9.466315 3.285796 5.699999
v 9.733649 3.285790 5.699999
v 10.091622 3.655027 5.699999
v 9.613111 4.082614 5.699999
v 9.811827 4.211353 5.699999
v 10.295906 4.527540 5.699999
v 9.825006 4.224451 5.699999
v 9.680092 4.124139 5.699999
v 9.536475 3.259318 5.699999
v 9.592240 3.260441 5.699999
v 9.761018 4.164614 5.699999
v 9.570773 3.258915 5.699999
v 9.859143 4.263946 5.699999
v 9.460425 3.844766 5.699999
v 9.917501 4.355031 5.699999
v 10.240952 4.575410 5.699999
v 9.747565 3.294418 5.699999
v 9.798561 3.326704 5.699999
v 10.250569 3.902962 5.699999
v 10.256106 3.946997 5.699999
v 10.295663 4.528140 5.699999
v 10.273957 4.565138 5.699999
v 9.426467 3.422052 5.699999
v 9.892082 4.314662 5.699999
v 9.898956 4.324626 5.699999
v 9.424811 3.463955 5.699999
v 9.901598 3.416999 5.699999
v 9.443525 3.324866 5.699999
v 9.441908 3.329200 5.699999
v 9.440987 3.752032 5.699999
v 9.477385 3.913829 5.699999
v 9.886725 3.398756 5.699999
v 9.943510 3.469172 5.699999
v 10.182134 3.767541 5.699999
v 9.834403 3.353540 5.699999
v 10.223592 3.819382 5.699999
v 10.235015 3.851674 5.699999
v 10.259806 4.025399 5.699999
v 10.297108 4.518720 5.699999
v 10.260479 4.060959 5.699999
v 10.306136 4.450231 5.699999
vn 0.4485 -0.1914 -0.8731
vn 0.4157 -0.4480 -0.7915
vn 0.0805 -0.1908 -0.9783
vn -0.1291 -0.1586 -0.9789
vn -0.0183 -0.0034 -0.9998
vn -0.2242 0.0041 -0.9745
vn 0.1437 -0.0036 -0.9896
vn -0.0684 -0.0074 -0.9976
vn 0.0617 -0.0144 -0.9980
vn 0.0113 -0.0307 -0.9995
vn -0.2094 0.0192 -0.9776
vn -0.0695 0.0768 -0.9946
vn 0.0862 0.0559 -0.9947
vn -0.2099 0.1575 -0.9650
vn -0.0882 0.2267 -0.9700
vn -0.0161 -0.4976 -0.8672
vn 0.2967 -0.5898 -0.7511
vn 0.2273 -0.7096 -0.6669
vn -0.2063 -0.3590 -0.9103
vn 0.6528 -0.5769 -0.4910
vn -0.2709 -0.0939 -0.9580
vn 0.2835 -0.0559 -0.9573
vn 0.1584 -0.0270 -0.9870
vn 0.1727 -0.0054 -0.9850
vn -0.3733 0.1242 -0.9193
vn -0.2332 0.2632 -0.9361
vn 0.0771 0.0838 -0.9935
vn 0.1757 -0.0077 -0.9844
vn -0.0380 0.1642 -0.9857
vn 0.5076 -0.7436 -0.4352
vn -0.4371 -0.1363 -0.8890
vn -0.4724 0.0194 -0.8812
vn 0.6831 -0.4459 -0.5784
vn 0.5180 -0.2610 -0.8146
vn -0.4257 0.0684 -0.9023
vn 0.2637 -0.1023 -0.9592
vn -0.4355 0.3069 -0.8463
vn -0.2496 0.3668 -0.8962
vn 0.1432 0.0361 -0.9890
vn -0.2283 0.3278 -0.9168
vn 0.0537 0.1059 -0.9929
vn -0.4397 -0.5893 -0.6778
vn -0.0356 -0.7825 -0.6216
vn 0.0693 -0.8090 -0.5837
vn 0.3237 -0.8686 -0.3752
vn -0.5540 -0.2749 -0.7858
vn -0.7782 -0.0602 -0.6251
vn 0.6709 -0.7239 -0.1608
vn -0.6975 0.1046 -0.7089
vn 0.7217 -0.5591 -0.4080
vn 0.5069 -0.3712 -0.7780
vn 0.4019 -0.1721 -0.8994
vn 0.2505 -0.0330 -0.9676
vn -0.5537 0.1347 -0.8218
vn -0.3970 0.5807 -0.7107
vn 0.3406 -0.0122 -0.9401
vn 0.2509 0.0041 -0.9680
vn -0.1856 0.2042 -0.9612
vn 0.0362 0.0980 -0.9945
vn 0.0031 0.0457 -0.9990
vn 0.2999 -0.0343 -0.9533
vn 0.0352 0.1367 -0.9900
vn -0.1734 0.2021 -0.9639
vn 0.4025 0.1267 -0.9066
vn -0.1169 0.4111 -0.9040
vn 0.1951 0.5094 -0.8381
vn 0.1409 -0.9703 -0.1966
vn 0.3674 -0.9239 -0.1065
vn -0.8636 -0.3068 -0.4000
vn 0.5413 -0.8358 -0.0919
vn 0.7568 -0.6015 -0.2556
vn -0.9502 0.0469 -0.3082
vn 0.6814 -0.5478 -0.4854
vn 0.7454 -0.5643 -0.3548
vn 0.6505 -0.4215 -0.6318
vn -0.6506 0.2725 -0.7088
vn -0.8697 0.2054 -0.4488
vn 0.7615 -0.2077 -0.6140
vn 0.4555 -0.0251 -0.8899
vn 0.8156 -0.0220 -0.5782
vn -0.4319 0.4901 -0.7572
vn 0.5462 -0.0190 -0.8374
vn -0.5109 0.5376 -0.6708
vn 0.6252 -0.0670 -0.7776
vn -0.5112 0.3883 -0.7667
vn 0.6854 -0.0464 -0.7267
vn -0.3884 0.3696 -0.8441
vn -0.3129 0.5216 -0.7937
vn 0.7437 0.3251 -0.5842
vn -0.0899 0.8124 -0.5761
vn -0.2414 -0.9324 -0.2691
vn -0.7195 -0.6925 -0.0525
vn 0.0306 -0.9985 -0.0443
vn -0.9962 -0.0809 0.0315
vn -0.9757 0.1451 -0.1639
vn 0.8808 -0.4535 -0.1357
vn -0.8097 0.5077 -0.2945
vn -0.5189 0.6229 -0.5855
vn 0.8709 -0.0568 -0.4882
vn -0.5209 0.7781 -0.3509
vn -0.5465 0.8046 -0.2323
vn -0.6628 0.6691 -0.3362
vn 0.9025 -0.0978 -0.4194
vn -0.7738 0.5726 -0.2710
vn -0.7180 0.5450 -0.4331
vn 0.9600 -0.1259 -0.2500
vn -0.5836 0.6568 -0.4776
vn 0.9255 0.0435 -0.3762
vn -0.3440 0.7666 -0.5422
vn 0.4916 0.8006 -0.3425
vn -0.9303 -0.3281 0.1641
vn 0.5655 -0.4988 0.6568
vn 0.5812 -0.4737 0.6617
vn -0.7404 0.0413 0.6709
vn 0.6059 -0.4733 0.6395
vn 0.5692 -0.4665 0.6770
vn 0.7716 -0.6349 -0.0399
vn 0.7752 -0.6291 -0.0569
vn 0.9896 -0.1438 -0.0052
vn -0.9604 0.2787 -0.0038
vn 0.9980 -0.0341 0.0534
vn -0.7282 0.6639 0.1700
vn 0.9936 -0.0975 0.0569
vn -0.7196 0.6928 0.0470
vn -0.7908 0.5938 0.1483
vn -0.8253 0.5473 0.1392
vn -0.5847 0.4078 0.7012
vn -0.5771 0.5130 0.6354
vn 0.9920 -0.0198 0.1244
vn -0.5051 0.8599 -0.0732
vn -0.2446 0.8476 0.4709
vn 0.5792 -0.4693 0.6665
vn 0.5891 -0.4902 0.6424
vn 0.5217 -0.3958 0.7558
vn 0.6660 -0.3594 0.6537
vn 0.5802 -0.4664 0.6677
vn 0.6537 -0.1885 0.7329
vn 0.6237 -0.1153 0.7731
vn 0.6361 -0.0946 0.7658
vn -0.2670 0.7680 0.5821
vn 0.6456 0.3839 0.6602
vn 0.7819 0.2284 0.5800
vn 0.5401 0.6137 0.5759
vn -0.3180 -0.6032 0.7315
vn -0.4730 -0.4295 0.7693
vn -0.5526 -0.2954 0.7794
vn -0.5935 -0.1376 0.7930
vn 0.5137 -0.4091 0.7542
vn 0.5682 -0.4285 0.7025
vn 0.7193 0.0557 0.6924
vn 0.7728 0.1645 0.6130
vn -0.7281 0.1559 0.6675
vn -0.5653 0.2412 0.7888
vn 0.6759 -0.1756 0.7158
vn 0.5896 -0.0660 0.8050
vn -0.5693 0.3344 0.7510
vn -0.6770 0.2789 0.6811
vn -0.3051 0.3958 0.8662
vn -0.3681 0.6661 0.6487
vn -0.4254 0.4894 0.7613
vn 0.6500 -0.0710 0.7566
vn 0.5039 -0.0131 0.8637
vn -0.4648 0.3119 0.8287
vn -0.5017 0.2948 0.8133
vn 0.6642 -0.1532 0.7317
vn 0.5905 0.0915 0.8019
vn -0.2725 0.4122 0.8694
vn 0.1183 0.8344 0.5383
vn -0.5784 0.0088 0.8157
vn -0.6126 -0.0995 0.7841
vn 0.5733 -0.0132 0.8192
vn 0.5547 -0.0255 0.8316
vn 0.4283 -0.5514 0.7160
vn 0.4200 -0.5661 0.7093
vn 0.3654 -0.5615 0.7424
vn 0.0784 -0.6816 0.7276
vn 0.0295 -0.6257 0.7795
vn -0.0660 -0.6982 0.7128
vn -0.4299 0.3489 0.8328
vn -0.4686 0.3304 0.8193
vn -0.4031 0.4364 0.8044
vn 0.2692 -0.6565 0.7047
vn -0.4327 0.6888 0.5816
vn -0.4799 0.6118 0.6289
vn 0.1434 -0.6655 0.7325
vn 0.1100 -0.6915 0.7139
vn -0.1653 -0.6852 0.7094
vn -0.6108 0.4827 0.6276
vn -0.5224 0.5361 0.6631
vn 0.0657 0.8434 0.5333
vn 0.5467 -0.4396 0.7127
vn -0.6447 0.1163 0.7555
vn -0.4474 0.5945 0.6681
vn -0.4792 0.6299 0.6112
usemtl mtl1.762
s 1
f 9//7 10//8 11//9
f 11//9 12//10 13//11
f 13//11 12//10 14//12
f 11//9 13//11 15//13
f 9//7 11//9 15//13
f 14//12 16//14 13//11
f 17//15 13//11 16//14
f 17//15 15//13 13//11
f 18//16 19//17 20//18
f 21//19 18//16 20//18
f 22//20 23//21 20//18
f 21//19 20//18 23//21
f 24//22 25//23 26//24
f 24//22 27//25 12//10
f 25//23 10//8 28//26
f 11//9 24//22 12//10
f 25//23 24//22 11//9
f 11//9 10//8 25//23
f 27//25 29//27 12//10
f 9//7 28//26 10//8
f 12//10 29//27 14//12
f 9//7 15//13 30//28
f 16//14 14//12 19//17
f 30//28 15//13 31//29
f 31//29 15//13 17//15
f 18//16 16//14 19//17
f 17//15 16//14 18//16
f 31//29 17//15 18//16
f 31//29 18//16 21//19
f 19//17 22//20 20//18
f 32//30 31//29 21//19
f 22//20 33//31 34//32
f 22//20 34//32 23//21
f 32//30 21//19 35//33
f 35//33 21//19 23//21
f 36//34 32//30 35//33
f 35//33 23//21 37//35
f 26//24 25//23 38//36
f 27//25 39//37 29//27
f 29//27 39//37 40//38
f 9//7 41//39 28//26
f 42//40 41//39 9//7
f 29//27 40//38 14//12
f 14//12 40//38 43//41
f 9//7 30//28 42//40
f 14//12 43//41 19//17
f 44//42 30//28 31//29
f 43//41 33//31 19//17
f 19//17 33//31 22//20
f 32//30 44//42 31//29
f 44//42 32//30 36//34
f 34//32 33//31 45//43
f 46//44 34//32 45//43
f 23//21 34//32 46//44
f 36//34 35//33 47//45
f 48//46 23//21 46//44
f 37//35 23//21 48//46
f 49//47 35//33 37//35
f 47//45 35//33 49//47
f 50//48 27//25 51//49
f 52//50 51//49 24//22
f 24//22 26//24 52//50
f 26//24 53//51 52//50
f 50//48 54//52 27//25
f 24//22 51//49 27//25
f 26//24 38//36 53//51
f 27//25 54//52 39//37
f 28//26 38//36 25//23
f 54//52 55//53 39//37
f 38//36 28//26 56//54
f 57//55 40//38 55//53
f 39//37 55//53 40//38
f 58//56 41//39 42//40
f 43//41 40//38 57//55
f 42//40 30//28 44//42
f 59//57 42//40 44//42
f 59//57 44//42 60//58
f 60//58 44//42 61//59
f 43//41 62//60 33//31
f 62//60 45//43 33//31
f 61//59 44//42 36//34
f 61//59 36//34 47//45
f 63//61 48//46 46//44
f 61//59 47//45 64//62
f 64//62 47//45 65//63
f 37//35 48//46 66//64
f 67//65 49//47 37//35
f 47//45 49//47 67//65
f 65//63 47//45 67//65
f 67//65 37//35 66//64
f 65//63 67//65 68//66
f 68//66 67//65 66//64
f 69//67 68//66 70//68
f 71//69 70//68 68//66
f 72//70 69//67 70//68
f 71//69 73//71 70//68
f 72//70 70//68 74//72
f 74//72 70//68 73//71
f 51//49 52//50 75//73
f 52//50 53//51 75//73
f 75//73 53//51 76//74
f 50//48 77//75 54//52
f 53//51 38//36 78//76
f 55//53 54//52 77//75
f 28//26 79//77 56//54
f 41//39 79//77 28//26
f 57//55 55//53 80//78
f 41//39 58//56 79//77
f 42//40 59//57 58//56
f 81//79 58//56 59//57
f 43//41 57//55 62//60
f 82//80 59//57 83//81
f 60//58 83//81 59//57
f 84//82 62//60 57//55
f 85//83 84//82 57//55
f 86//84 83//81 60//58
f 86//84 60//58 87//85
f 62//60 84//82 45//43
f 60//58 61//59 87//85
f 88//86 86//84 87//85
f 61//59 64//62 87//85
f 84//82 89//87 45//43
f 46//44 45//43 89//87
f 64//62 90//88 87//85
f 46//44 89//87 63//61
f 63//61 91//89 48//46
f 64//62 65//63 90//88
f 48//46 91//89 66//64
f 90//88 65//63 92//90
f 66//64 91//89 93//91
f 69//67 65//63 68//66
f 92//90 65//63 69//67
f 92//90 69//67 94//92
f 68//66 66//64 71//69
f 66//64 93//91 95//93
f 71//69 66//64 95//93
f 94//92 69//67 72//70
f 95//93 96//94 71//69
f 73//71 71//69 96//94
f 74//72 97//95 72//70
f 97//95 94//92 72//70
f 73//71 96//94 98//96
f 73//71 98//96 74//72
f 50//48 99//97 100//98
f 50//48 51//49 99//97
f 99//97 51//49 101//99
f 51//49 75//73 101//99
f 50//48 100//98 77//75
f 53//51 78//76 76//74
f 55//53 77//75 102//100
f 102//100 80//78 55//53
f 57//55 80//78 103//101
f 59//57 82//80 81//79
f 103//101 85//83 57//55
f 82//80 83//81 104//102
f 83//81 86//84 104//102
f 84//82 105//103 106//104
f 84//82 106//104 89//87
f 88//86 90//88 107//105
f 87//85 90//88 88//86
f 108//106 89//87 106//104
f 63//61 89//87 108//106
f 109//107 63//61 108//106
f 63//61 109//107 91//89
f 110//108 91//89 109//107
f 107//105 90//88 92//90
f 92//90 111//109 107//105
f 91//89 110//108 112//110
f 91//89 112//110 93//91
f 113//111 93//91 112//110
f 114//112 111//109 92//90
f 93//91 113//111 95//93
f 94//92 114//112 92//90
f 95//93 113//111 115//113
f 116//114 114//112 94//92
f 95//93 115//113 96//94
f 94//92 97//95 116//114
f 96//94 115//113 117//115
f 96//94 117//115 98//96
f 74//72 98//96 118//116
f 74//72 118//116 97//95
f 119//117 77//75 100//98
f 38//36 56//54 78//76
f 119//117 102//100 77//75
f 193//118 79//77 188//119
f 120//120 80//78 102//100
f 144//121 58//56 143//122
f 121//123 79//77 58//56
f 122//124 58//56 81//79
f 80//78 120//120 103//101
f 81//79 82//80 122//124
f 123//125 104//102 86//84
f 124//126 85//83 103//101
f 85//83 124//126 84//82
f 84//82 124//126 105//103
f 86//84 88//86 123//125
f 123//125 88//86 125//127
f 88//86 107//105 125//127
f 106//104 105//103 126//128
f 125//127 107//105 127//129
f 106//104 126//128 108//106
f 107//105 111//109 127//129
f 110//108 128//130 112//110
f 114//112 127//129 111//109
f 112//110 129//131 130//132
f 130//132 113//111 112//110
f 113//111 176//133 134//134
f 114//112 116//114 131//135
f 117//115 132//136 133//137
f 98//96 117//115 133//137
f 79//77 194//138 188//119
f 58//56 157//139 143//122
f 164//140 157//139 122//124
f 197//141 195//142 104//102
f 197//141 104//102 198//143
f 126//128 105//103 124//126
f 110//108 109//107 128//130
f 112//110 128//130 129//131
f 158//144 114//112 148//145
f 117//115 115//113 132//136
f 133//137 132//136 138//146
f 97//95 182//147 137//148
f 183//149 182//147 118//116
f 161//150 162//151 100//98
f 189//152 190//153 119//117
f 155//154 194//138 121//123
f 164//140 122//124 159//155
f 200//156 167//157 182//147
f 175//158 192//159 124//126
f 180//160 123//125 181//161
f 139//162 124//126 192//159
f 139//162 140//163 126//128
f 140//163 141//164 126//128
f 169//165 172//166 109//107
f 147//167 149//168 127//129
f 186//169 130//132 185//170
f 186//169 176//133 130//132
f 150//171 131//135 202//172
f 200//156 202//172 131//135
f 142//173 138//146 132//136
f 177//174 183//149 118//116
f 187//175 102//100 184//176
f 199//177 125//127 201//178
f 56//54 193//118 196//179
f 119//117 184//176 102//100
f 123//125 199//177 181//161
f 104//102 180//160 198//143
f 78//76 196//179 179//180
f 78//76 179//180 178//181
f 103//101 175//158 124//126
f 129//131 185//170 130//132
f 101//99 171//182 173//183
f 101//99 173//183 170//184
f 129//131 168//185 174//186
f 116//114 200//156 131//135
f 172//166 128//130 109//107
f 128//130 166//187 168//185
f 76//74 178//181 163//188
f 162//151 119//117 100//98
f 109//107 160//189 169//165
f 108//106 165//190 160//189
f 75//73 171//182 101//99
f 76//74 153//191 75//73
f 75//73 153//191 154//192
f 99//97 161//150 100//98
f 99//97 170//184 152//193
f 115//113 151//194 156//195
f 127//129 201//178 125//127
f 131//135 148//145 114//112
f 127//129 158//144 147//167
f 118//116 146//196 177//174
f 82//80 159//155 122//124
f 82//80 195//142 145//197
f 121//123 144//121 155//154
f 103//101 120//120 191//198
f 102//100 187//175 120//120
f 97//95 167//157 116//114
f 115//113 136//199 132//136
f 132//136 136//199 142//173
f 108//106 135//200 165//190
f 126//128 141//164 135//200
f 98//96 133//137 146//196
f 113//111 151//194 115//113
f 193//118 56//54 79//77
f 144//121 121//123 58//56
f 113//111 130//132 176//133
f 79//77 121//123 194//138
f 58//56 122//124 157//139
f 97//95 118//116 182//147
f 135//200 141//164 139//162
f 141//164 140//163 139//162
f 139//162 192//159 135//200
f 192//159 175//158 165//190
f 135//200 192//159 165//190
f 160//189 165//190 157//139
f 172//166 169//165 164//140
f 169//165 160//189 164//140
f 165//190 175//158 143//122
f 143//122 175//158 144//121
f 175//158 191//198 144//121
f 191//198 120//120 194//138
f 191//198 155//154 144//121
f 120//120 187//175 196//179
f 187//175 184//176 154//192
f 171//182 184//176 173//183
f 184//176 190//153 173//183
f 190//153 189//152 170//184
f 189//152 162//151 161//150
f 161//150 152//193 170//184
f 170//184 173//183 190//153
f 171//182 154//192 184//176
f 154//192 153//191 187//175
f 153//191 163//188 178//181
f 178//181 179//180 187//175
f 179//180 196//179 187//175
f 196//179 193//118 188//119
f 188//119 194//138 120//120
f 194//138 155//154 191//198
f 143//122 157//139 165//190
f 157//139 164//140 160//189
f 164//140 159//155 172//166
f 159//155 145//197 172//166
f 172//166 195//142 198//143
f 195//142 197//141 198//143
f 195//142 172//166 145//197
f 172//166 198//143 181//161
f 196//179 188//119 120//120
f 153//191 178//181 187//175
f 189//152 161//150 170//184
f 172//166 181//161 166//187
f 198//143 180//160 181//161
f 181//161 199//177 166//187
f 199//177 201//178 168//185
f 168//185 201//178 174//186
f 149//168 147//167 186//169
f 147//167 158//144 176//133
f 186//169 147//167 176//133
f 201//178 149//168 174//186
f 174//186 149//168 185//170
f 199//177 168//185 166//187
f 186//169 185//170 149//168
f 148//145 150//171 142//173
f 150//171 202//172 133//137
f 142//173 150//171 133//137
f 158//144 148//145 156//195
f 134//134 176//133 158//144
f 156//195 151//194 158//144
f 151//194 134//134 158//144
f 142//173 136//199 148//145
f 136//199 156//195 148//145
f 133//137 138//146 142//173
f 177//174 146//196 200//156
f 146//196 133//137 200//156
f 177//174 200//156 182//147
f 182//147 183//149 177//174
f 167//157 137//148 182//147
f 202//172 200//156 133//137
f 139//162 126//128 124//126
f 119//117 190//153 184//176
f 123//125 125//127 199//177
f 104//102 123//125 180//160
f 78//76 56//54 196//179
f 103//101 191//198 175//158
f 129//131 174//186 185//170
f 129//131 128//130 168//185
f 116//114 167//157 200//156
f 172//166 166//187 128//130
f 76//74 78//76 178//181
f 162//151 189//152 119//117
f 109//107 108//106 160//189
f 75//73 154//192 171//182
f 76//74 163//188 153//191
f 99//97 152//193 161//150
f 99//97 101//99 170//184
f 127//129 149//168 201//178
f 131//135 150//171 148//145
f 127//129 114//112 158//144
f 118//116 98//96 146//196
f 82//80 145//197 159//155
f 82//80 104//102 195//142
f 97//95 137//148 167//157
f 115//113 156//195 136//199
f 108//106 126//128 135//200
f 113//111 134//134 151//194
