# Blender v2.92.0 OBJ File: 'convert_to_one_sided.blend'
# www.blender.org
mtllib 874L.mtl
o 874
v 9.586376 3.625123 3.456476
v 9.447888 3.709852 3.465946
v 9.496208 3.741571 3.455846
v 9.570537 3.720942 3.461106
v 9.630246 3.658202 3.463056
v 9.617207 3.711972 3.476226
v 9.402499 3.820071 3.463876
v 9.641206 3.603433 3.486095
v 9.596226 3.580623 3.492136
v 9.522858 3.619503 3.485316
v 9.629706 3.583103 3.495255
v 9.647656 3.663732 3.492166
v 9.328899 3.851620 3.480566
v 9.528646 3.811100 3.504206
v 9.435079 3.852880 3.477666
v 9.344049 3.903999 3.483506
v 9.523297 3.600833 3.499275
v 9.433199 3.672052 3.514796
v 9.658185 3.623023 3.507915
v 9.340330 3.785951 3.508116
v 9.275351 3.890039 3.512756
v 9.423239 3.921829 3.510466
v 9.270970 3.959128 3.513736
v 9.325250 3.997198 3.540475
v 9.611346 3.599793 3.515155
v 9.603216 3.727751 3.517076
v 9.637055 3.666422 3.520665
v 9.447799 3.917339 3.537025
v 9.232072 3.960479 3.546515
v 9.222052 4.014018 3.552825
v 9.376960 3.990118 3.562475
v 9.236211 4.050107 3.575465
v 9.521897 3.616383 3.516015
v 9.428688 3.697602 3.564255
v 9.374809 3.725872 3.553565
v 9.335330 3.771771 3.550815
v 9.277491 3.867280 3.546755
v 9.468718 3.891909 3.558215
v 9.245341 4.093927 3.611384
v 9.627246 3.645092 3.530885
v 9.511337 3.818090 3.559965
v 9.378530 3.997798 3.605344
v 9.203671 4.044457 3.603334
v 9.526628 3.654993 3.555275
v 9.578657 3.657622 3.547565
v 9.547896 3.716602 3.558025
v 9.338910 3.794541 3.586344
v 9.252031 3.927799 3.612094
v 9.227072 3.973518 3.593035
v 9.292400 4.069047 3.625264
v 9.211061 4.097806 3.638614
v 9.471888 3.724752 3.582604
v 9.530807 3.687382 3.560225
v 9.373039 3.844470 3.620294
v 9.432109 3.910989 3.597374
v 9.434609 3.850910 3.602454
v 9.205532 4.030718 3.633394
v 9.297240 4.053437 3.668293
v 9.202191 4.078257 3.652994
v 9.234421 4.105247 3.653564
v 9.280291 3.955769 3.652474
v 9.366769 3.955108 3.634574
v 9.225251 4.039437 3.659853
v 9.370919 3.912309 3.634914
v 9.223941 4.091797 3.665603
v 9.251621 4.080787 3.664083
v 9.313030 3.981888 3.662314
v 9.267781 4.039217 3.666873
v 9.294790 4.026538 3.664943
vn 0.0135 -0.3154 -0.9489
vn -0.3940 -0.3467 -0.8512
vn 0.0135 0.0763 -0.9970
vn 0.2708 0.3151 -0.9096
vn 0.5579 0.0755 -0.8265
vn 0.6970 0.5375 -0.4747
vn -0.0779 0.0891 -0.9930
vn 0.7511 -0.4867 -0.4461
vn -0.0708 -0.9744 -0.2134
vn -0.3963 -0.6052 -0.6904
vn 0.5405 -0.7953 0.2747
vn 0.9450 0.2839 -0.1621
vn -0.4359 -0.1204 -0.8919
vn 0.6935 0.6377 -0.3353
vn 0.2336 0.4088 -0.8822
vn -0.0218 0.3299 -0.9438
vn -0.4620 -0.8839 -0.0725
vn -0.6531 -0.7451 -0.1354
vn 0.8625 -0.2383 0.4465
vn -0.7181 -0.5032 -0.4807
vn -0.7495 -0.2836 -0.5981
vn 0.4368 0.6131 -0.6583
vn -0.3478 0.2521 -0.9031
vn 0.2087 0.6399 -0.7395
vn 0.2497 -0.6079 0.7538
vn 0.7692 0.5293 0.3581
vn 0.7232 0.2972 0.6234
vn 0.7052 0.6763 -0.2131
vn -0.8913 -0.2316 -0.3898
vn -0.6636 0.2694 -0.6978
vn 0.5304 0.7615 -0.3725
vn -0.3112 0.5980 -0.7387
vn -0.2775 -0.7702 0.5743
vn -0.3238 -0.6167 0.7175
vn -0.6268 -0.6938 0.3545
vn -0.7982 -0.5995 0.0587
vn -0.8726 -0.4781 -0.1003
vn 0.8093 0.5375 0.2371
vn 0.1092 0.8655 -0.4888
vn 0.4317 -0.1141 0.8948
vn 0.7162 0.3775 0.5869
vn 0.7432 0.6024 0.2912
vn -0.9576 0.0957 -0.2717
vn 0.0152 -0.4517 0.8920
vn 0.2182 -0.2111 0.9528
vn 0.4199 0.0947 0.9026
vn -0.5009 -0.5271 0.6865
vn -0.7621 -0.4916 0.4212
vn -0.9241 -0.3816 0.0212
vn 0.5664 0.8238 -0.0229
vn -0.6440 0.7498 -0.1520
vn 0.1477 -0.2157 0.9652
vn 0.2262 -0.1328 0.9650
vn 0.0197 -0.3021 0.9531
vn 0.6611 0.2927 0.6908
vn 0.4316 0.0154 0.9019
vn -0.9036 -0.3205 0.2843
vn 0.3971 0.3123 0.8630
vn -0.8991 0.1125 0.4232
vn 0.1596 0.9361 0.3135
vn -0.2884 -0.3531 0.8900
vn 0.5575 0.1446 0.8175
vn -0.4948 -0.2638 0.8280
vn 0.3704 -0.0759 0.9258
vn -0.2956 0.3855 0.8741
vn 0.3089 0.5196 0.7966
vn 0.1568 -0.1042 0.9821
vn -0.0480 -0.0445 0.9979
vn 0.0483 -0.0423 0.9979
usemtl mtl1.1583
s 1
f 1//1 2//2 3//3
f 4//4 1//1 3//3
f 5//5 1//1 4//4
f 4//4 6//6 5//5
f 3//3 2//2 7//7
f 1//1 8//8 9//9
f 10//10 1//1 9//9
f 9//9 8//8 11//11
f 5//5 8//8 1//1
f 1//1 10//10 2//2
f 12//12 8//8 5//5
f 5//5 6//6 12//12
f 2//2 13//13 7//7
f 4//4 14//14 6//6
f 4//4 3//3 15//15
f 7//7 15//15 3//3
f 14//14 4//4 15//15
f 7//7 13//13 16//16
f 15//15 7//7 16//16
f 17//17 10//10 9//9
f 10//10 17//17 18//18
f 10//10 18//18 2//2
f 8//8 12//12 19//19
f 2//2 18//18 20//20
f 2//2 20//20 13//13
f 21//21 13//13 20//20
f 22//22 14//14 15//15
f 13//13 21//21 23//23
f 13//13 23//23 16//16
f 16//16 24//24 15//15
f 24//24 22//22 15//15
f 24//24 16//16 23//23
f 25//25 11//11 8//8
f 12//12 26//26 27//27
f 27//27 19//19 12//12
f 6//6 26//26 12//12
f 6//6 14//14 26//26
f 22//22 28//28 14//14
f 23//23 21//21 29//29
f 30//30 23//23 29//29
f 22//22 24//24 31//31
f 28//28 22//22 31//31
f 32//32 23//23 30//30
f 24//24 23//23 32//32
f 17//17 9//9 33//33
f 11//11 25//25 9//9
f 18//18 17//17 33//33
f 19//19 25//25 8//8
f 34//34 18//18 33//33
f 18//18 35//35 36//36
f 20//20 18//18 36//36
f 20//20 36//36 37//37
f 20//20 37//37 21//21
f 38//38 14//14 28//28
f 21//21 37//37 29//29
f 32//32 39//39 24//24
f 25//25 33//33 9//9
f 25//25 19//19 40//40
f 18//18 34//34 35//35
f 27//27 40//40 19//19
f 41//41 26//26 14//14
f 14//14 38//38 41//41
f 42//42 38//38 28//28
f 31//31 42//42 28//28
f 29//29 43//43 30//30
f 30//30 43//43 32//32
f 44//44 33//33 25//25
f 25//25 45//45 44//44
f 40//40 45//45 25//25
f 33//33 44//44 34//34
f 46//46 45//45 40//40
f 27//27 46//46 40//40
f 36//36 35//35 47//47
f 48//48 36//36 47//47
f 27//27 26//26 46//46
f 26//26 41//41 46//46
f 36//36 48//48 37//37
f 37//37 49//49 29//29
f 29//29 49//49 43//43
f 24//24 50//50 31//31
f 39//39 50//50 24//24
f 39//39 32//32 51//51
f 34//34 44//44 52//52
f 52//52 44//44 53//53
f 45//45 53//53 44//44
f 45//45 46//46 53//53
f 35//35 34//34 47//47
f 34//34 54//54 47//47
f 37//37 48//48 49//49
f 55//55 38//38 42//42
f 42//42 31//31 50//50
f 32//32 43//43 51//51
f 52//52 54//54 34//34
f 53//53 46//46 52//52
f 46//46 56//56 52//52
f 46//46 41//41 56//56
f 55//55 56//56 41//41
f 41//41 38//38 55//55
f 49//49 57//57 43//43
f 58//58 42//42 50//50
f 51//51 43//43 59//59
f 39//39 51//51 60//60
f 52//52 56//56 54//54
f 61//61 47//47 54//54
f 47//47 61//61 48//48
f 62//62 56//56 55//55
f 48//48 61//61 63//63
f 48//48 63//63 57//57
f 48//48 57//57 49//49
f 42//42 62//62 55//55
f 42//42 58//58 62//62
f 60//60 50//50 39//39
f 56//56 64//64 54//54
f 56//56 62//62 64//64
f 43//43 57//57 59//59
f 65//65 51//51 59//59
f 51//51 65//65 60//60
f 60//60 66//66 50//50
f 54//54 67//67 61//61
f 67//67 54//54 64//64
f 67//67 68//68 61//61
f 62//62 67//67 64//64
f 58//58 67//67 62//62
f 57//57 63//63 59//59
f 58//58 50//50 66//66
f 67//67 69//69 68//68
f 68//68 63//63 61//61
f 58//58 69//69 67//67
f 63//63 65//65 59//59
f 60//60 65//65 66//66
f 69//69 58//58 68//68
f 63//63 68//68 65//65
f 66//66 65//65 68//68
f 68//68 58//58 66//66
