# Blender v2.92.0 OBJ File: 'convert_to_one_sided.blend'
# www.blender.org
mtllib 905L.mtl
o 905
v 8.456792 1.752007 1.558080
v 8.341192 1.731117 1.559460
v 8.453571 1.778387 1.556180
v 8.370293 1.769137 1.557320
v 8.449342 1.820266 1.568080
v 8.304353 1.777697 1.578200
v 8.527250 1.765767 1.579390
v 8.531940 1.816406 1.587560
v 8.136366 1.680348 1.591220
v 8.180385 1.735337 1.601140
v 8.256304 1.727268 1.580040
v 8.220514 1.652039 1.611199
v 8.397911 1.674678 1.611339
v 8.498721 1.683028 1.628739
v 8.560890 1.743227 1.636139
v 8.381392 1.832666 1.595830
v 8.480671 1.860336 1.592370
v 8.511641 1.852256 1.595210
v 8.096505 1.642169 1.615359
v 8.057396 1.651119 1.621389
v 8.304833 1.533290 1.733248
v 8.057866 1.685578 1.643109
v 8.541160 1.677708 1.658029
v 8.228204 1.792647 1.632709
v 8.563380 1.803817 1.643639
v 8.432741 1.865526 1.616799
v 8.540680 1.849786 1.624239
v 8.506261 1.868296 1.619849
v 8.068906 1.589929 1.654829
v 8.120376 1.509000 1.738508
v 8.011847 1.615839 1.648279
v 8.447922 1.556080 1.738618
v 8.087296 1.736997 1.670539
v 8.314473 1.831636 1.645879
v 8.454391 1.872576 1.632599
v 7.960567 1.596309 1.664099
v 7.953258 1.566790 1.684759
v 7.977458 1.626349 1.668499
v 8.519150 1.611199 1.708078
v 8.205664 1.800677 1.675249
v 8.555250 1.836736 1.655919
v 8.388762 1.855996 1.644929
v 8.532670 1.856976 1.649279
v 8.482691 1.866426 1.646079
v 7.924618 1.585369 1.693798
v 7.975227 1.507510 1.736528
v 8.542980 1.595159 1.739798
v 7.972667 1.680678 1.715028
v 8.562000 1.677228 1.748338
v 8.121386 1.769497 1.693998
v 8.415022 1.854066 1.662999
v 7.917618 1.531360 1.720708
v 7.899168 1.542670 1.728478
v 7.884559 1.572870 1.748068
v 7.925228 1.614169 1.718128
v 8.552430 1.637539 1.732988
v 8.033836 1.729288 1.716448
v 8.553500 1.757247 1.726558
v 8.338793 1.834256 1.671009
v 8.146165 1.781977 1.703918
v 8.212965 1.795427 1.697728
v 8.328623 1.795727 1.721348
v 8.536381 1.805846 1.707068
v 8.475950 1.816986 1.702648
v 8.051137 1.432981 1.811857
v 7.904698 1.496420 1.766487
v 8.514060 1.522830 1.799147
v 7.900898 1.625589 1.773267
v 7.982118 1.712328 1.752998
v 7.963627 1.423751 1.833727
v 8.355633 1.400362 1.888866
v 7.880488 1.513790 1.793747
v 8.551870 1.562120 1.831697
v 8.071846 1.742887 1.739388
v 8.162174 1.748947 1.755598
v 8.514760 1.773907 1.749888
v 7.899118 1.453051 1.836377
v 8.184635 1.441121 1.818677
v 8.454441 1.471121 1.831717
v 7.876249 1.551610 1.819927
v 8.539900 1.539480 1.816747
v 7.933508 1.676418 1.790067
v 7.976438 1.700388 1.786507
v 8.530081 1.732227 1.778937
v 8.427411 1.726158 1.796717
v 7.926988 1.401052 1.882156
v 7.894228 1.595719 1.851916
v 7.937178 1.665118 1.831027
v 8.539430 1.642048 1.843056
v 8.232413 1.710348 1.810447
v 8.473921 1.412721 1.906426
v 7.879559 1.488200 1.862236
v 7.919488 1.634729 1.846496
v 8.048906 1.658008 1.846666
v 7.990047 1.369572 1.899576
v 8.143166 1.357632 1.920936
v 8.519280 1.465281 1.880126
v 8.535891 1.521380 1.925175
v 8.205784 1.627309 1.892156
v 8.342412 1.628459 1.905316
v 8.502420 1.657248 1.860016
v 7.928398 1.385842 1.905506
v 7.915148 1.426821 1.903716
v 7.973277 1.367782 1.927645
v 7.882749 1.532220 1.883636
v 8.526251 1.450761 1.935505
v 8.518961 1.601819 1.907446
v 7.932208 1.607679 1.877196
v 8.442761 1.624239 1.909836
v 8.073856 1.329643 1.972205
v 8.443501 1.313383 2.014474
v 8.483601 1.343782 1.997645
v 7.965847 1.386282 1.953955
v 8.500921 1.397622 1.957595
v 7.906408 1.536120 1.925786
v 8.515900 1.537580 1.968205
v 7.986657 1.557140 1.938355
v 8.189155 1.282103 2.028334
v 8.343322 1.264893 2.069704
v 8.038926 1.348702 1.997215
v 7.954868 1.433551 1.986685
v 7.908088 1.486361 1.922776
v 8.486811 1.570849 1.957815
v 8.131445 1.539460 1.985885
v 8.278144 1.548030 1.992135
v 7.940507 1.480521 1.978875
v 8.497890 1.516790 2.010334
v 8.151175 1.284173 2.041884
v 8.103436 1.313653 2.031364
v 8.475401 1.279733 2.082933
v 8.498310 1.332232 2.060174
v 8.512771 1.381422 2.066603
v 8.509990 1.418581 2.077794
v 7.963977 1.506630 1.980205
v 8.038997 1.495310 2.016774
v 8.393652 1.537990 2.008524
v 8.470171 1.492060 2.049994
v 8.249974 1.247894 2.093373
v 8.058207 1.370692 2.048814
v 7.975537 1.449881 2.013354
v 8.491151 1.440971 2.096873
v 8.134905 1.463171 2.070034
v 8.223475 1.250203 2.107913
v 8.447660 1.260513 2.096123
v 8.107236 1.325173 2.061074
v 8.031597 1.422881 2.049244
v 8.001887 1.462941 2.019654
v 8.269334 1.458811 2.095803
v 8.293933 1.219444 2.153373
v 8.165865 1.288803 2.086063
v 8.472951 1.246374 2.128873
v 8.478871 1.253453 2.138503
v 8.098366 1.429031 2.081223
v 8.468791 1.421971 2.142543
v 8.416302 1.422301 2.149953
v 8.296943 1.223074 2.175362
v 8.239453 1.262153 2.150323
v 8.444931 1.238394 2.141973
v 8.188095 1.309463 2.134873
v 8.499280 1.332732 2.164292
v 8.166375 1.371472 2.134073
v 8.336722 1.215374 2.165922
v 8.489521 1.294463 2.148673
v 8.165185 1.400712 2.129623
v 8.179595 1.424341 2.112553
v 8.339143 1.208684 2.193642
v 8.408781 1.221424 2.183222
v 8.480190 1.347112 2.193562
v 8.238314 1.387912 2.159772
v 8.467490 1.385802 2.181842
v 8.452211 1.389302 2.186502
v 8.456941 1.247724 2.182992
v 8.295483 1.263893 2.209442
v 8.385352 1.221184 2.224162
v 8.339072 1.230934 2.213142
v 8.295322 1.334302 2.224582
v 8.258264 1.316943 2.195372
v 8.340843 1.370472 2.201632
v 8.430321 1.240944 2.222832
v 8.462151 1.284113 2.208102
v 8.331623 1.291973 2.249341
v 8.430092 1.347492 2.220542
v 8.362762 1.256143 2.244561
v 8.414271 1.262563 2.248832
v 8.441451 1.302683 2.232042
v 8.364543 1.313283 2.248711
v 8.377532 1.279303 2.256061
v 8.404552 1.298313 2.240531
vn 0.1969 -0.4161 -0.8878
vn -0.0471 -0.2776 -0.9595
vn 0.1470 0.0738 -0.9864
vn -0.1505 0.2033 -0.9675
vn 0.0032 0.4402 -0.8979
vn -0.2777 0.4827 -0.8306
vn 0.5359 -0.2657 -0.8014
vn 0.6257 0.2326 -0.7446
vn -0.2402 0.0118 -0.9707
vn -0.3694 0.5027 -0.7816
vn -0.1962 0.0326 -0.9800
vn 0.0214 -0.5605 -0.8279
vn 0.1258 -0.6543 -0.7457
vn 0.3020 -0.6285 -0.7168
vn 0.9155 -0.1666 -0.3662
vn -0.2797 0.7339 -0.6190
vn -0.0020 0.7698 -0.6383
vn 0.3775 0.6140 -0.6932
vn -0.1324 -0.4491 -0.8836
vn -0.4295 0.0471 -0.9019
vn 0.1014 -0.7121 -0.6947
vn -0.5031 0.5051 -0.7013
vn 0.6605 -0.4959 -0.5637
vn -0.3743 0.7813 -0.4995
vn 0.9760 0.1714 -0.1342
vn -0.1997 0.9296 -0.3099
vn 0.7140 0.6328 -0.2996
vn 0.2277 0.9573 -0.1779
vn -0.0435 -0.6193 -0.7840
vn 0.0558 -0.7093 -0.7027
vn -0.2754 -0.2669 -0.9235
vn 0.1939 -0.7059 -0.6813
vn -0.4777 0.7011 -0.5294
vn -0.3115 0.9442 -0.1065
vn -0.0727 0.9898 0.1226
vn -0.4588 -0.0498 -0.8871
vn -0.2961 -0.4810 -0.8252
vn -0.5752 0.3582 -0.7354
vn 0.3669 -0.6609 -0.6547
vn -0.3045 0.9502 -0.0672
vn 0.8084 0.5370 0.2411
vn -0.2513 0.9577 0.1404
vn 0.3706 0.8574 0.3570
vn 0.0860 0.8974 0.4328
vn -0.7051 0.0879 -0.7037
vn -0.0803 -0.7163 -0.6932
vn 0.7216 -0.5208 -0.4562
vn -0.6396 0.6016 -0.4785
vn 0.9948 0.0235 0.0993
vn -0.4287 0.8808 -0.2011
vn -0.0945 0.8512 0.5162
vn -0.3497 -0.5999 -0.7196
vn -0.7129 -0.3216 -0.6231
vn -0.9200 0.1525 -0.3609
vn -0.7333 0.4496 -0.5100
vn 0.9361 -0.2720 -0.2228
vn -0.4701 0.8451 -0.2544
vn 0.8523 0.3340 0.4026
vn -0.2155 0.9001 0.3786
vn -0.2990 0.9362 0.1845
vn -0.1713 0.8942 0.4137
vn -0.0754 0.7709 0.6325
vn 0.4357 0.6547 0.6177
vn 0.0481 0.7470 0.6631
vn 0.0079 -0.7658 -0.6430
vn -0.5045 -0.6624 -0.5539
vn 0.4536 -0.6794 -0.5767
vn -0.8652 0.4684 -0.1790
vn -0.4963 0.8660 -0.0608
vn -0.1961 -0.7782 -0.5966
vn 0.1158 -0.7626 -0.6364
vn -0.9216 -0.2878 -0.2605
vn 0.9795 -0.1951 -0.0497
vn -0.2611 0.9027 0.3421
vn -0.1234 0.7964 0.5921
vn 0.1518 0.6890 0.7086
vn -0.7469 -0.5995 -0.2876
vn 0.0792 -0.7554 -0.6505
vn 0.2138 -0.7285 -0.6509
vn -0.9901 0.1384 0.0218
vn 0.8475 -0.4448 -0.2898
vn -0.7123 0.6981 0.0733
vn -0.2767 0.8741 0.3993
vn 0.4352 0.5879 0.6819
vn 0.0360 0.7173 0.6958
vn -0.5612 -0.7462 -0.3581
vn -0.8248 0.4580 0.3315
vn -0.3751 0.7450 0.5516
vn 0.7797 0.3998 0.4819
vn -0.0557 0.7374 0.6732
vn 0.3870 -0.7163 -0.5806
vn -0.9646 -0.2322 0.1253
vn -0.6625 0.5773 0.4773
vn -0.0917 0.7432 0.6627
vn -0.1837 -0.8807 -0.4367
vn 0.0189 -0.8173 -0.5758
vn 0.7006 -0.5946 -0.3945
vn 0.9742 0.0669 0.2153
vn -0.0650 0.7365 0.6733
vn -0.0301 0.7433 0.6683
vn 0.3141 0.6839 0.6586
vn -0.7276 -0.6779 0.1047
vn -0.8916 -0.3860 0.2368
vn -0.4187 -0.9081 -0.0049
vn -0.9340 0.1011 0.3428
vn 0.9310 -0.3434 -0.1236
vn 0.5276 0.5980 0.6034
vn -0.3683 0.6096 0.7019
vn 0.0861 0.7384 0.6688
vn -0.2975 -0.9306 -0.2134
vn 0.2339 -0.7839 -0.5751
vn 0.6163 -0.6382 -0.4614
vn -0.6656 -0.5895 0.4577
vn 0.7383 -0.5634 -0.3709
vn -0.6510 0.3987 0.6459
vn 0.7323 0.4614 0.5008
vn -0.2109 0.6858 0.6966
vn -0.0807 -0.8830 -0.4624
vn 0.0740 -0.8645 -0.4972
vn -0.5664 -0.7663 0.3032
vn -0.7501 -0.3043 0.5872
vn -0.8741 -0.1304 0.4679
vn 0.3046 0.6927 0.6537
vn -0.0997 0.7389 0.6664
vn -0.0537 0.7550 0.6536
vn -0.6813 0.1552 0.7154
vn 0.4539 0.6577 0.6012
vn -0.4029 -0.9131 -0.0623
vn -0.5525 -0.8106 0.1941
vn 0.6031 -0.6704 -0.4322
vn 0.8918 -0.4130 -0.1848
vn 0.9877 -0.1461 0.0552
vn 0.9172 0.2236 0.3298
vn -0.3797 0.5202 0.7650
vn -0.2437 0.6100 0.7540
vn 0.0376 0.7546 0.6551
vn 0.2478 0.7409 0.6243
vn -0.1130 -0.9303 -0.3489
vn -0.6347 -0.4426 0.6335
vn -0.5849 0.0755 0.8076
vn 0.6491 0.5415 0.5343
vn -0.1798 0.6492 0.7391
vn -0.4977 -0.8560 0.1399
vn 0.1838 -0.8518 -0.4905
vn -0.6179 -0.6360 0.4622
vn -0.5460 -0.0112 0.8377
vn -0.4076 0.3766 0.8319
vn -0.0913 0.7295 0.6779
vn -0.2585 -0.9625 -0.0818
vn -0.6034 -0.6985 0.3847
vn 0.4557 -0.8499 -0.2646
vn 0.7849 -0.6191 0.0256
vn -0.3749 0.4203 0.8263
vn 0.3350 0.7245 0.6025
vn 0.0195 0.7484 0.6629
vn -0.5213 -0.7234 0.4526
vn -0.6285 -0.5896 0.5072
vn 0.2739 -0.9532 -0.1281
vn -0.6359 -0.4080 0.6551
vn 0.9454 -0.0721 0.3179
vn -0.5366 0.0383 0.8429
vn 0.0961 -0.9640 -0.2479
vn 0.9313 -0.3196 0.1747
vn -0.3501 0.4041 0.8451
vn -0.2000 0.6368 0.7447
vn -0.1844 -0.9435 0.2753
vn 0.2871 -0.9571 -0.0390
vn 0.7336 0.2441 0.6342
vn -0.2503 0.5643 0.7867
vn 0.5114 0.5244 0.6808
vn 0.1713 0.6699 0.7224
vn 0.6921 -0.6723 0.2627
vn -0.5574 -0.4390 0.7046
vn 0.0936 -0.8557 0.5090
vn -0.3769 -0.6253 0.6833
vn -0.3704 0.3545 0.8585
vn -0.6085 -0.1450 0.7802
vn -0.0816 0.6704 0.7375
vn 0.5588 -0.6714 0.4867
vn 0.7890 -0.2565 0.5583
vn -0.3882 -0.0891 0.9173
vn 0.2116 0.4800 0.8514
vn -0.2243 -0.4817 0.8472
vn 0.3441 -0.2507 0.9048
vn 0.4795 0.1311 0.8677
vn 0.0136 0.3856 0.9226
vn 0.0562 -0.0025 0.9984
vn 0.2575 0.2470 0.9342
usemtl mtl1.1606
s 1
f 1//1 2//2 3//3
f 3//3 2//2 4//4
f 3//3 4//4 5//5
f 5//5 4//4 6//6
f 7//7 1//1 3//3
f 7//7 3//3 8//8
f 8//8 3//3 5//5
f 9//9 10//10 11//11
f 12//12 9//9 11//11
f 2//2 12//12 11//11
f 13//13 12//12 2//2
f 2//2 11//11 4//4
f 1//1 13//13 2//2
f 13//13 1//1 14//14
f 4//4 11//11 6//6
f 11//11 10//10 6//6
f 7//7 14//14 1//1
f 8//8 15//15 7//7
f 16//16 5//5 6//6
f 17//17 5//5 16//16
f 5//5 18//18 8//8
f 18//18 5//5 17//17
f 9//9 19//19 20//20
f 12//12 19//19 9//9
f 12//12 13//13 21//21
f 9//9 20//20 22//22
f 9//9 22//22 10//10
f 23//23 14//14 7//7
f 24//24 6//6 10//10
f 16//16 6//6 24//24
f 15//15 8//8 25//25
f 26//26 17//17 16//16
f 18//18 27//27 8//8
f 27//27 25//25 8//8
f 17//17 26//26 28//28
f 18//18 17//17 28//28
f 29//29 12//12 30//30
f 12//12 29//29 19//19
f 19//19 31//31 20//20
f 21//21 13//13 32//32
f 14//14 32//32 13//13
f 23//23 7//7 15//15
f 10//10 22//22 33//33
f 24//24 10//10 33//33
f 16//16 24//24 34//34
f 16//16 34//34 26//26
f 28//28 26//26 35//35
f 27//27 18//18 28//28
f 36//36 31//31 37//37
f 29//29 37//37 31//31
f 19//19 29//29 31//31
f 21//21 30//30 12//12
f 38//38 31//31 36//36
f 20//20 31//31 38//38
f 39//39 32//32 14//14
f 39//39 14//14 23//23
f 22//22 20//20 38//38
f 34//34 24//24 40//40
f 25//25 27//27 41//41
f 26//26 34//34 42//42
f 26//26 42//42 35//35
f 43//43 27//27 28//28
f 28//28 35//35 44//44
f 36//36 37//37 45//45
f 29//29 46//46 37//37
f 38//38 36//36 45//45
f 39//39 23//23 47//47
f 22//22 38//38 48//48
f 22//22 48//48 33//33
f 49//49 15//15 25//25
f 24//24 33//33 50//50
f 24//24 50//50 40//40
f 27//27 43//43 41//41
f 42//42 51//51 35//35
f 44//44 43//43 28//28
f 52//52 37//37 46//46
f 52//52 53//53 37//37
f 54//54 45//45 53//53
f 37//37 53//53 45//45
f 55//55 45//45 54//54
f 55//55 38//38 45//45
f 47//47 23//23 56//56
f 23//23 15//15 56//56
f 56//56 15//15 49//49
f 33//33 57//57 50//50
f 25//25 41//41 58//58
f 34//34 59//59 42//42
f 42//42 59//59 51//51
f 35//35 51//51 44//44
f 30//30 46//46 29//29
f 48//48 38//38 55//55
f 33//33 48//48 57//57
f 49//49 25//25 58//58
f 40//40 50//50 60//60
f 40//40 60//60 61//61
f 40//40 61//61 34//34
f 34//34 61//61 59//59
f 59//59 62//62 51//51
f 58//58 41//41 63//63
f 51//51 64//64 44//44
f 63//63 41//41 43//43
f 43//43 44//44 64//64
f 63//63 43//43 64//64
f 46//46 30//30 65//65
f 46//46 66//66 52//52
f 52//52 66//66 53//53
f 32//32 39//39 67//67
f 67//67 39//39 47//47
f 68//68 55//55 54//54
f 57//57 48//48 69//69
f 61//61 62//62 59//59
f 64//64 51//51 62//62
f 46//46 70//70 66//66
f 71//71 21//21 32//32
f 53//53 66//66 72//72
f 72//72 54//54 53//53
f 56//56 49//49 73//73
f 48//48 55//55 68//68
f 57//57 69//69 74//74
f 50//50 57//57 74//74
f 60//60 50//50 74//74
f 60//60 74//74 61//61
f 74//74 75//75 61//61
f 63//63 64//64 76//76
f 70//70 46//46 65//65
f 77//77 66//66 70//70
f 65//65 30//30 78//78
f 30//30 21//21 78//78
f 78//78 21//21 71//71
f 71//71 32//32 79//79
f 67//67 79//79 32//32
f 72//72 80//80 54//54
f 81//81 67//67 47//47
f 47//47 56//56 81//81
f 82//82 48//48 68//68
f 82//82 69//69 48//48
f 83//83 69//69 82//82
f 74//74 69//69 83//83
f 84//84 63//63 76//76
f 84//84 58//58 63//63
f 62//62 61//61 75//75
f 64//64 62//62 85//85
f 64//64 85//85 76//76
f 77//77 70//70 86//86
f 66//66 77//77 72//72
f 81//81 56//56 73//73
f 54//54 80//80 68//68
f 80//80 87//87 68//68
f 68//68 87//87 82//82
f 82//82 88//88 83//83
f 84//84 89//89 58//58
f 62//62 75//75 90//90
f 62//62 90//90 85//85
f 71//71 79//79 91//91
f 72//72 77//77 92//92
f 79//79 67//67 91//91
f 93//93 82//82 87//87
f 49//49 58//58 89//89
f 94//94 74//74 83//83
f 75//75 74//74 94//94
f 84//84 76//76 85//85
f 70//70 95//95 86//86
f 65//65 96//96 70//70
f 91//91 67//67 97//97
f 72//72 92//92 80//80
f 81//81 97//97 67//67
f 73//73 49//49 98//98
f 82//82 93//93 88//88
f 94//94 99//99 90//90
f 94//94 83//83 88//88
f 90//90 75//75 94//94
f 85//85 90//90 100//100
f 84//84 85//85 101//101
f 86//86 102//102 103//103
f 102//102 86//86 104//104
f 104//104 86//86 95//95
f 96//96 95//95 70//70
f 78//78 96//96 65//65
f 86//86 103//103 77//77
f 77//77 103//103 92//92
f 92//92 105//105 80//80
f 97//97 81//81 106//106
f 81//81 73//73 106//106
f 106//106 73//73 98//98
f 98//98 49//49 89//89
f 89//89 101//101 107//107
f 89//89 84//84 101//101
f 100//100 90//90 99//99
f 105//105 87//87 80//80
f 87//87 108//108 93//93
f 93//93 108//108 88//88
f 88//88 108//108 94//94
f 100//100 109//109 85//85
f 101//101 85//85 109//109
f 95//95 110//110 104//104
f 96//96 110//110 95//95
f 71//71 96//96 78//78
f 111//111 91//91 112//112
f 113//113 102//102 104//104
f 111//111 71//71 91//91
f 113//113 103//103 102//102
f 91//91 97//97 114//114
f 105//105 115//115 87//87
f 87//87 115//115 108//108
f 89//89 107//107 116//116
f 108//108 117//117 94//94
f 96//96 118//118 110//110
f 96//96 71//71 119//119
f 118//118 96//96 119//119
f 119//119 71//71 111//111
f 104//104 110//110 120//120
f 91//91 114//114 112//112
f 113//113 121//121 103//103
f 97//97 106//106 114//114
f 103//103 122//122 92//92
f 92//92 122//122 105//105
f 122//122 115//115 105//105
f 107//107 123//123 116//116
f 124//124 94//94 117//117
f 99//99 94//94 124//124
f 100//100 99//99 125//125
f 123//123 101//101 109//109
f 107//107 101//101 123//123
f 104//104 120//120 113//113
f 121//121 122//122 103//103
f 115//115 122//122 126//126
f 98//98 89//89 116//116
f 99//99 124//124 125//125
f 116//116 123//123 127//127
f 118//118 128//128 110//110
f 110//110 129//129 120//120
f 129//129 110//110 128//128
f 111//111 112//112 130//130
f 114//114 106//106 131//131
f 131//131 106//106 132//132
f 132//132 106//106 98//98
f 121//121 126//126 122//122
f 133//133 98//98 116//116
f 115//115 126//126 134//134
f 134//134 117//117 115//115
f 117//117 135//135 124//124
f 115//115 117//117 108//108
f 109//109 136//136 123//123
f 136//136 137//137 123//123
f 127//127 123//123 137//137
f 136//136 100//100 125//125
f 109//109 100//100 136//136
f 128//128 118//118 138//138
f 131//131 130//130 112//112
f 131//131 112//112 114//114
f 120//120 139//139 113//113
f 113//113 139//139 121//121
f 121//121 140//140 126//126
f 132//132 98//98 133//133
f 116//116 127//127 141//141
f 135//135 117//117 134//134
f 142//142 124//124 135//135
f 128//128 138//138 143//143
f 144//144 111//111 130//130
f 129//129 145//145 120//120
f 139//139 146//146 121//121
f 121//121 146//146 140//140
f 147//147 134//134 126//126
f 140//140 147//147 126//126
f 116//116 141//141 133//133
f 134//134 147//147 135//135
f 124//124 148//148 125//125
f 125//125 148//148 136//136
f 143//143 138//138 149//149
f 119//119 111//111 144//144
f 128//128 150//150 129//129
f 128//128 143//143 150//150
f 144//144 130//130 151//151
f 129//129 150//150 145//145
f 130//130 131//131 152//152
f 145//145 139//139 120//120
f 140//140 146//146 147//147
f 124//124 142//142 148//148
f 141//141 127//127 137//137
f 152//152 151//151 130//130
f 153//153 147//147 146//146
f 153//153 135//135 147//147
f 141//141 137//137 154//154
f 136//136 155//155 137//137
f 149//149 156//156 143//143
f 143//143 156//156 157//157
f 144//144 151//151 158//158
f 157//157 150//150 143//143
f 150//150 159//159 145//145
f 145//145 159//159 139//139
f 160//160 132//132 133//133
f 153//153 146//146 161//161
f 142//142 135//135 153//153
f 154//154 137//137 155//155
f 149//149 138//138 162//162
f 162//162 138//138 119//119
f 119//119 138//138 118//118
f 158//158 119//119 144//144
f 157//157 159//159 150//150
f 152//152 131//131 163//163
f 131//131 132//132 163//163
f 163//163 132//132 160//160
f 159//159 161//161 139//139
f 139//139 161//161 146//146
f 153//153 161//161 164//164
f 165//165 153//153 164//164
f 165//165 148//148 142//142
f 153//153 165//165 142//142
f 136//136 148//148 155//155
f 162//162 166//166 149//149
f 158//158 167//167 119//119
f 156//156 149//149 166//166
f 152//152 158//158 151//151
f 160//160 133//133 168//168
f 141//141 168//168 133//133
f 164//164 169//169 165//165
f 141//141 170//170 168//168
f 141//141 154//154 170//170
f 165//165 169//169 148//148
f 155//155 171//171 154//154
f 162//162 119//119 167//167
f 172//172 167//167 158//158
f 158//158 152//152 172//172
f 156//156 173//173 157//157
f 152//152 163//163 172//172
f 169//169 164//164 161//161
f 171//171 170//170 154//154
f 162//162 174//174 166//166
f 162//162 167//167 174//174
f 156//156 175//175 173//173
f 166//166 175//175 156//156
f 173//173 159//159 157//157
f 176//176 161//161 177//177
f 176//176 169//169 161//161
f 178//178 148//148 169//169
f 174//174 175//175 166//166
f 167//167 179//179 174//174
f 172//172 179//179 167//167
f 179//179 172//172 180//180
f 180//180 172//172 163//163
f 163//163 160//160 180//180
f 177//177 159//159 173//173
f 159//159 177//177 161//161
f 180//180 160//160 168//168
f 178//178 169//169 176//176
f 155//155 148//148 178//178
f 181//181 177//177 173//173
f 176//176 177//177 181//181
f 182//182 170//170 171//171
f 182//182 155//155 178//178
f 171//171 155//155 182//182
f 173//173 175//175 183//183
f 175//175 174//174 183//183
f 184//184 183//183 174//174
f 179//179 184//184 174//174
f 179//179 180//180 184//184
f 173//173 183//183 181//181
f 180//180 185//185 184//184
f 180//180 168//168 185//185
f 186//186 176//176 181//181
f 185//185 168//168 182//182
f 182//182 168//168 170//170
f 186//186 178//178 176//176
f 184//184 187//187 183//183
f 188//188 187//187 184//184
f 181//181 183//183 187//187
f 184//184 185//185 188//188
f 186//186 181//181 187//187
f 188//188 182//182 186//186
f 185//185 182//182 188//188
f 182//182 178//178 186//186
f 188//188 186//186 187//187
