# Blender v2.92.0 OBJ File: 'convert_to_one_sided.blend'
# www.blender.org
mtllib 914L.mtl
o 914
v 5.492449 5.735675 5.127585
v 5.503209 5.695986 5.139725
v 5.474050 5.707695 5.144285
v 5.522519 5.719296 5.163394
v 5.462289 5.746965 5.164444
v 5.485590 5.765204 5.174604
v 5.481539 5.684706 5.179174
v 5.462249 5.707356 5.172814
v 5.470160 5.785625 5.190754
v 5.489779 5.779865 5.206794
v 5.524849 5.698106 5.182304
v 5.534729 5.708205 5.201344
v 5.460570 5.725046 5.203694
v 5.504009 5.734255 5.209444
v 5.468260 5.766315 5.207814
v 5.482029 5.707666 5.226694
v 5.502619 5.710205 5.207424
v 5.476789 5.756465 5.218134
v 5.476409 5.731555 5.222313
v 5.482829 5.726086 5.215744
vn 0.0453 0.3427 -0.9384
vn 0.3393 -0.6401 -0.6893
vn -0.6401 -0.4189 -0.6440
vn 0.9150 0.2551 -0.3126
vn -0.8522 0.3344 -0.4024
vn 0.4620 0.7767 -0.4281
vn -0.2773 -0.9512 0.1357
vn -0.9158 -0.3829 -0.1212
vn -0.3676 0.9247 0.0989
vn 0.5528 0.7454 0.3727
vn 0.6166 -0.7850 0.0596
vn 0.8450 -0.1649 0.5087
vn -0.8963 -0.2105 0.3904
vn 0.6991 0.3174 0.6407
vn -0.7901 0.3339 0.5140
vn -0.0085 -0.3643 0.9312
vn 0.3990 -0.4657 0.7899
vn 0.0296 0.3764 0.9260
vn -0.2849 0.1057 0.9527
vn 0.4307 0.0864 0.8983
usemtl mtl1.1615
s 1
f 1//1 2//2 3//3
f 4//4 2//2 1//1
f 1//1 3//3 5//5
f 6//6 4//4 1//1
f 6//6 1//1 5//5
f 3//3 7//7 8//8
f 3//3 2//2 7//7
f 5//5 3//3 8//8
f 9//9 6//6 5//5
f 10//10 6//6 9//9
f 11//11 7//7 2//2
f 2//2 4//4 11//11
f 11//11 4//4 12//12
f 13//13 8//8 7//7
f 8//8 13//13 5//5
f 12//12 4//4 14//14
f 4//4 6//6 14//14
f 5//5 15//15 9//9
f 7//7 16//16 13//13
f 17//17 7//7 11//11
f 12//12 17//17 11//11
f 13//13 15//15 5//5
f 18//18 9//9 15//15
f 9//9 18//18 10//10
f 14//14 6//6 10//10
f 18//18 14//14 10//10
f 7//7 17//17 16//16
f 16//16 19//19 13//13
f 19//19 15//15 13//13
f 12//12 14//14 17//17
f 18//18 15//15 19//19
f 17//17 20//20 16//16
f 20//20 19//19 16//16
f 17//17 14//14 20//20
f 20//20 18//18 19//19
f 14//14 18//18 20//20
