# Blender v2.92.0 OBJ File: 'convert_to_one_sided.blend'
# www.blender.org
mtllib 939L.mtl
o Cube
v 0.001000 0.001000 -0.001000
v 0.001000 -0.001000 -0.001000
v 0.001000 0.001000 0.001000
v 0.001000 -0.001000 0.001000
v -0.001000 0.001000 -0.001000
v -0.001000 -0.001000 -0.001000
v -0.001000 0.001000 0.001000
v -0.001000 -0.001000 0.001000
vt 0.625000 0.500000
vt 0.875000 0.500000
vt 0.875000 0.750000
vt 0.625000 0.750000
vt 0.375000 0.750000
vt 0.625000 1.000000
vt 0.375000 1.000000
vt 0.375000 0.000000
vt 0.625000 0.000000
vt 0.625000 0.250000
vt 0.375000 0.250000
vt 0.125000 0.500000
vt 0.375000 0.500000
vt 0.125000 0.750000
vn 0.0000 1.0000 0.0000
vn 0.0000 0.0000 1.0000
vn -1.0000 0.0000 0.0000
vn 0.0000 -1.0000 0.0000
vn 1.0000 0.0000 0.0000
vn 0.0000 0.0000 -1.0000
usemtl Material
s off
f 1/1/1 5/2/1 7/3/1 3/4/1
f 4/5/2 3/4/2 7/6/2 8/7/2
f 8/8/3 7/9/3 5/10/3 6/11/3
f 6/12/4 2/13/4 4/5/4 8/14/4
f 2/13/5 1/1/5 3/4/5 4/5/5
f 6/11/6 5/10/6 1/1/6 2/13/6
o 939
v 11.591751 6.523576 4.232826
v 11.471852 6.532005 4.246626
v 11.595051 6.563555 4.231167
v 11.754949 6.554415 4.250486
v 11.470253 6.561515 4.254096
v 11.604251 6.593144 4.251276
v 11.704249 6.586185 4.249917
v 11.704449 6.603795 4.264256
v 11.561252 6.499836 4.272976
v 11.704249 6.520746 4.261676
v 11.805348 6.550076 4.266756
v 11.441652 6.541445 4.262886
v 11.828248 6.564585 4.271216
v 11.774348 6.579464 4.273466
v 11.455052 6.530855 4.284116
v 11.675949 6.501776 4.286446
v 11.757349 6.529456 4.280806
v 11.450053 6.552615 4.281396
v 11.518851 6.579825 4.273926
v 11.615351 6.596935 4.283216
v 11.805248 6.552035 4.278996
v 11.812748 6.566335 4.276976
v 11.715250 6.596194 4.286396
v 11.592450 6.492856 4.301116
v 11.512152 6.506505 4.302686
v 11.482652 6.513906 4.309276
v 11.701349 6.523465 4.301745
v 11.449253 6.550445 4.297495
v 11.517752 6.563405 4.303465
v 11.753849 6.579745 4.299706
v 11.745749 6.561225 4.305275
v 11.638450 6.577315 4.310006
v 11.558552 6.519346 4.317075
v 11.495052 6.533626 4.306046
v 11.670949 6.563185 4.321925
v 11.596351 6.549855 4.316245
v 11.654750 6.546525 4.312035
vn 0.0331 -0.5138 -0.8573
vn -0.3719 -0.4549 -0.8092
vn -0.0409 0.2512 -0.9671
vn 0.2660 -0.0059 -0.9639
vn -0.4138 0.6614 -0.6256
vn -0.1083 0.8599 -0.4988
vn 0.1809 0.5582 -0.8097
vn 0.1242 0.9626 -0.2408
vn -0.1094 -0.9406 -0.3213
vn 0.2037 -0.8048 -0.5575
vn 0.5017 -0.7547 -0.4229
vn -0.9300 -0.0028 -0.3675
vn 0.9368 0.1650 -0.3086
vn 0.3915 0.8888 -0.2384
vn -0.7512 -0.6278 0.2041
vn 0.2095 -0.9769 0.0417
vn 0.3686 -0.9189 0.1406
vn -0.7398 0.6434 0.1966
vn -0.2780 0.9554 0.1000
vn -0.1063 0.9462 0.3055
vn 0.5744 -0.5548 0.6019
vn 0.5778 0.4289 0.6944
vn 0.1451 0.9059 0.3978
vn 0.0233 -0.8842 0.4665
vn -0.2391 -0.9211 0.3074
vn -0.4125 -0.3908 0.8229
vn 0.2252 -0.5630 0.7952
vn -0.6382 0.1720 0.7504
vn -0.2028 0.6463 0.7356
vn 0.2603 0.6509 0.7132
vn 0.2847 -0.1415 0.9481
vn -0.0434 0.6268 0.7780
vn -0.0153 -0.3013 0.9534
vn -0.2831 0.0840 0.9554
vn 0.0689 0.0841 0.9941
vn -0.0739 0.1181 0.9903
vn 0.0913 -0.2878 0.9533
usemtl mtl1.817
s 1
f 9//7 10//8 11//9
f 12//10 9//7 11//9
f 11//9 10//8 13//11
f 11//9 13//11 14//12
f 12//10 11//9 15//13
f 15//13 11//9 14//12
f 15//13 14//12 16//14
f 10//8 9//7 17//15
f 9//7 18//16 17//15
f 12//10 18//16 9//7
f 12//10 19//17 18//16
f 10//8 20//18 13//11
f 19//17 12//10 21//19
f 22//20 12//10 15//13
f 21//19 12//10 22//20
f 23//21 10//8 17//15
f 24//22 17//15 18//16
f 10//8 23//21 20//18
f 25//23 18//16 19//17
f 13//11 20//18 26//24
f 13//11 26//24 27//25
f 14//12 13//11 27//25
f 22//20 15//13 16//14
f 16//14 14//12 28//26
f 18//16 25//23 24//22
f 23//21 26//24 20//18
f 19//17 21//19 29//27
f 30//28 29//27 21//19
f 21//19 22//20 30//28
f 14//12 27//25 28//26
f 31//29 22//20 16//14
f 31//29 16//14 28//26
f 17//15 32//30 33//31
f 24//22 32//30 17//15
f 33//31 23//21 17//15
f 34//32 23//21 33//31
f 25//23 35//33 24//22
f 25//23 29//27 35//33
f 19//17 29//27 25//23
f 23//21 36//34 26//24
f 36//34 37//35 26//24
f 26//24 37//35 27//25
f 38//36 30//28 22//20
f 22//20 31//29 38//36
f 24//22 35//33 32//30
f 39//37 35//33 29//27
f 39//37 30//28 38//36
f 29//27 30//28 39//37
f 28//26 27//25 37//35
f 28//26 40//38 31//29
f 38//36 31//29 40//38
f 41//39 34//32 33//31
f 32//30 41//39 33//31
f 35//33 41//39 32//30
f 34//32 42//40 23//21
f 23//21 42//40 36//34
f 42//40 37//35 36//34
f 43//41 39//37 38//36
f 40//38 43//41 38//36
f 28//26 37//35 40//38
f 34//32 41//39 42//40
f 42//40 41//39 44//42
f 45//43 41//39 35//33
f 45//43 35//33 39//37
f 44//42 37//35 42//40
f 39//37 43//41 45//43
f 44//42 43//41 40//38
f 40//38 37//35 44//42
f 41//39 45//43 44//42
f 45//43 43//41 44//42
