# Blender v2.92.0 OBJ File: 'convert_to_one_sided.blend'
# www.blender.org
mtllib 939L.mtl
o 939
v 11.591751 6.523576 4.232826
v 11.471852 6.532005 4.246626
v 11.595051 6.563555 4.231167
v 11.754949 6.554415 4.250486
v 11.470253 6.561515 4.254096
v 11.604251 6.593144 4.251276
v 11.704249 6.586185 4.249917
v 11.704449 6.603795 4.264256
v 11.561252 6.499836 4.272976
v 11.704249 6.520746 4.261676
v 11.805348 6.550076 4.266756
v 11.441652 6.541445 4.262886
v 11.828248 6.564585 4.271216
v 11.774348 6.579464 4.273466
v 11.455052 6.530855 4.284116
v 11.675949 6.501776 4.286446
v 11.757349 6.529456 4.280806
v 11.450053 6.552615 4.281396
v 11.518851 6.579825 4.273926
v 11.615351 6.596935 4.283216
v 11.805248 6.552035 4.278996
v 11.812748 6.566335 4.276976
v 11.715250 6.596194 4.286396
v 11.592450 6.492856 4.301116
v 11.512152 6.506505 4.302686
v 11.482652 6.513906 4.309276
v 11.701349 6.523465 4.301745
v 11.449253 6.550445 4.297495
v 11.517752 6.563405 4.303465
v 11.753849 6.579745 4.299706
v 11.745749 6.561225 4.305275
v 11.638450 6.577315 4.310006
v 11.558552 6.519346 4.317075
v 11.495052 6.533626 4.306046
v 11.670949 6.563185 4.321925
v 11.596351 6.549855 4.316245
v 11.654750 6.546525 4.312035
vn 0.0331 -0.5138 -0.8573
vn -0.3719 -0.4549 -0.8092
vn -0.0409 0.2512 -0.9671
vn 0.2660 -0.0059 -0.9639
vn -0.4138 0.6614 -0.6256
vn -0.1083 0.8599 -0.4988
vn 0.1809 0.5582 -0.8097
vn 0.1242 0.9626 -0.2408
vn -0.1094 -0.9406 -0.3213
vn 0.2037 -0.8048 -0.5575
vn 0.5017 -0.7547 -0.4229
vn -0.9300 -0.0028 -0.3675
vn 0.9368 0.1650 -0.3086
vn 0.3915 0.8888 -0.2384
vn -0.7512 -0.6278 0.2041
vn 0.2095 -0.9769 0.0417
vn 0.3686 -0.9189 0.1406
vn -0.7398 0.6434 0.1966
vn -0.2780 0.9554 0.1000
vn -0.1063 0.9462 0.3055
vn 0.5744 -0.5548 0.6019
vn 0.5778 0.4289 0.6944
vn 0.1451 0.9059 0.3978
vn 0.0233 -0.8842 0.4665
vn -0.2391 -0.9211 0.3074
vn -0.4125 -0.3908 0.8229
vn 0.2252 -0.5630 0.7952
vn -0.6382 0.1720 0.7504
vn -0.2028 0.6463 0.7356
vn 0.2603 0.6509 0.7132
vn 0.2847 -0.1415 0.9481
vn -0.0434 0.6268 0.7780
vn -0.0153 -0.3013 0.9534
vn -0.2831 0.0840 0.9554
vn 0.0689 0.0841 0.9941
vn -0.0739 0.1181 0.9903
vn 0.0913 -0.2878 0.9533
usemtl mtl1.1635
s 1
f 1//1 2//2 3//3
f 4//4 1//1 3//3
f 3//3 2//2 5//5
f 3//3 5//5 6//6
f 4//4 3//3 7//7
f 7//7 3//3 6//6
f 7//7 6//6 8//8
f 2//2 1//1 9//9
f 1//1 10//10 9//9
f 4//4 10//10 1//1
f 4//4 11//11 10//10
f 2//2 12//12 5//5
f 11//11 4//4 13//13
f 14//14 4//4 7//7
f 13//13 4//4 14//14
f 15//15 2//2 9//9
f 16//16 9//9 10//10
f 2//2 15//15 12//12
f 17//17 10//10 11//11
f 5//5 12//12 18//18
f 5//5 18//18 19//19
f 6//6 5//5 19//19
f 14//14 7//7 8//8
f 8//8 6//6 20//20
f 10//10 17//17 16//16
f 15//15 18//18 12//12
f 11//11 13//13 21//21
f 22//22 21//21 13//13
f 13//13 14//14 22//22
f 6//6 19//19 20//20
f 23//23 14//14 8//8
f 23//23 8//8 20//20
f 9//9 24//24 25//25
f 16//16 24//24 9//9
f 25//25 15//15 9//9
f 26//26 15//15 25//25
f 17//17 27//27 16//16
f 17//17 21//21 27//27
f 11//11 21//21 17//17
f 15//15 28//28 18//18
f 28//28 29//29 18//18
f 18//18 29//29 19//19
f 30//30 22//22 14//14
f 14//14 23//23 30//30
f 16//16 27//27 24//24
f 31//31 27//27 21//21
f 31//31 22//22 30//30
f 21//21 22//22 31//31
f 20//20 19//19 29//29
f 20//20 32//32 23//23
f 30//30 23//23 32//32
f 33//33 26//26 25//25
f 24//24 33//33 25//25
f 27//27 33//33 24//24
f 26//26 34//34 15//15
f 15//15 34//34 28//28
f 34//34 29//29 28//28
f 35//35 31//31 30//30
f 32//32 35//35 30//30
f 20//20 29//29 32//32
f 26//26 33//33 34//34
f 34//34 33//33 36//36
f 37//37 33//33 27//27
f 37//37 27//27 31//31
f 36//36 29//29 34//34
f 31//31 35//35 37//37
f 36//36 35//35 32//32
f 32//32 29//29 36//36
f 33//33 37//37 36//36
f 37//37 35//35 36//36
