# Blender v2.92.0 OBJ File: 'convert_to_one_sided.blend'
# www.blender.org
mtllib 93L.mtl
o Cube
v 0.001000 0.001000 -0.001000
v 0.001000 -0.001000 -0.001000
v 0.001000 0.001000 0.001000
v 0.001000 -0.001000 0.001000
v -0.001000 0.001000 -0.001000
v -0.001000 -0.001000 -0.001000
v -0.001000 0.001000 0.001000
v -0.001000 -0.001000 0.001000
vt 0.625000 0.500000
vt 0.875000 0.500000
vt 0.875000 0.750000
vt 0.625000 0.750000
vt 0.375000 0.750000
vt 0.625000 1.000000
vt 0.375000 1.000000
vt 0.375000 0.000000
vt 0.625000 0.000000
vt 0.625000 0.250000
vt 0.375000 0.250000
vt 0.125000 0.500000
vt 0.375000 0.500000
vt 0.125000 0.750000
vn 0.0000 1.0000 0.0000
vn 0.0000 0.0000 1.0000
vn -1.0000 0.0000 0.0000
vn 0.0000 -1.0000 0.0000
vn 1.0000 0.0000 0.0000
vn 0.0000 0.0000 -1.0000
usemtl Material
s off
f 1/1/1 5/2/1 7/3/1 3/4/1
f 4/5/2 3/4/2 7/6/2 8/7/2
f 8/8/3 7/9/3 5/10/3 6/11/3
f 6/12/4 2/13/4 4/5/4 8/14/4
f 2/13/5 1/1/5 3/4/5 4/5/5
f 6/11/6 5/10/6 1/1/6 2/13/6
o 93
v 8.991135 5.879444 3.662174
v 8.968204 5.927203 3.651134
v 9.028354 5.871424 3.655414
v 8.997474 5.925953 3.645944
v 9.061473 5.918613 3.680004
v 8.961325 5.999482 3.659624
v 8.994704 6.024432 3.679294
v 9.088062 5.850474 3.686484
v 9.067233 5.846724 3.693423
v 8.940085 5.964113 3.691014
v 8.940745 6.012162 3.678864
v 9.053284 6.040011 3.718413
v 8.945165 6.093151 3.702603
v 9.161963 5.846654 3.725033
v 9.151002 5.812045 3.725073
v 9.046453 5.887454 3.733583
v 9.117772 5.954743 3.745153
v 8.918315 6.075801 3.729053
v 9.025603 6.142101 3.730323
v 9.392399 5.594168 3.726353
v 9.411348 5.590387 3.721083
v 9.431218 5.579227 3.726413
v 9.349629 5.656786 3.734473
v 9.420598 5.672337 3.758622
v 9.244381 5.746965 3.739083
v 8.955665 6.223739 3.750573
v 9.032164 6.235049 3.768642
v 9.455318 5.608617 3.748563
v 9.427649 5.607427 3.751363
v 9.310370 5.677796 3.744893
v 9.479578 5.710046 3.796672
v 9.299880 5.772365 3.757213
v 9.233591 5.744776 3.745223
v 9.191551 5.789525 3.757203
v 8.970924 5.965182 3.742743
v 8.926785 6.049372 3.750523
v 9.074503 6.021932 3.745763
v 9.057403 6.076001 3.753713
v 9.068273 6.112720 3.755263
v 8.918265 6.197230 3.776132
v 9.354950 5.647037 3.755223
v 9.469579 5.668527 3.786422
v 9.483028 5.835224 3.832602
v 9.370679 5.817025 3.792912
v 9.289821 5.704936 3.758733
v 9.261221 5.900703 3.786392
v 9.108393 5.980893 3.779372
v 8.916676 6.153960 3.789652
v 9.062443 6.010882 3.765382
v 9.110463 6.175620 3.792672
v 8.934505 6.277678 3.801812
v 9.083942 6.267979 3.819842
v 8.988995 6.279729 3.803742
v 9.419538 5.687056 3.807452
v 9.491978 5.778725 3.822012
v 9.085043 5.950283 3.799232
v 9.005024 6.031382 3.772182
v 9.173382 5.963033 3.798642
v 9.049583 6.139101 3.802732
v 9.227601 6.215320 3.846322
v 9.319139 5.720406 3.788712
v 9.484288 5.749655 3.816362
v 9.233931 5.851134 3.821682
v 9.402389 5.929313 3.821212
v 9.313590 6.017592 3.818562
v 9.052414 6.005362 3.776862
v 9.220441 6.023142 3.824022
v 9.094893 5.979113 3.790742
v 8.961814 6.121271 3.793682
v 9.042804 6.052852 3.772302
v 9.163632 6.112700 3.827592
v 9.147472 6.104211 3.847691
v 9.105943 6.183980 3.772242
v 9.265841 6.114171 3.829982
v 8.924564 6.263669 3.828962
v 8.963035 6.292568 3.831432
v 9.026144 6.291998 3.834172
v 9.451988 5.753155 3.829002
v 9.480268 5.807855 3.839851
v 9.175261 5.989293 3.833562
v 9.388849 6.047292 3.839141
v 9.186472 6.058912 3.848742
v 9.106422 6.151851 3.860861
v 8.921525 6.213439 3.813092
v 9.192863 6.256899 3.875381
v 9.086503 6.281209 3.856581
v 9.391719 5.810454 3.849861
v 9.477648 6.005382 3.861551
v 9.513988 5.947793 3.872951
v 9.471148 6.089471 3.884161
v 9.370830 6.129321 3.867801
v 8.959105 6.203310 3.823692
v 9.035514 6.282898 3.860161
v 9.497238 5.895284 3.871851
v 9.498658 6.023322 3.884861
v 9.180061 6.092711 3.876541
v 9.409539 6.148670 3.900281
v 9.036204 6.213339 3.856401
v 9.141083 6.194420 3.896281
v 9.306611 6.204470 3.905231
v 9.462459 5.840454 3.860201
v 9.346060 5.923383 3.892021
v 9.230341 5.998132 3.874491
v 8.993884 6.258409 3.844151
v 9.071303 6.244390 3.870171
v 9.144743 6.247979 3.889831
v 9.431199 5.935033 3.896711
v 9.476878 5.987903 3.893131
v 9.435418 6.094931 3.910151
v 9.366590 6.168850 3.926100
v 9.233591 6.209040 3.934630
v 9.235181 6.228749 3.913341
v 9.329849 6.033972 3.922750
v 9.394629 6.067021 3.925210
v 9.237230 6.118990 3.913011
v 9.362229 6.150740 3.938670
v 9.302111 6.188920 3.930030
v 9.311131 6.130210 3.926760
vn -0.6325 -0.7622 -0.1380
vn -0.5727 -0.2122 -0.7918
vn 0.0410 -0.4443 -0.8949
vn 0.1770 0.1076 -0.9783
vn 0.5169 0.2080 -0.8304
vn -0.2125 0.2470 -0.9455
vn 0.3308 0.3312 -0.8837
vn 0.2924 -0.3812 -0.8771
vn -0.3094 -0.9295 -0.2006
vn -0.9081 -0.4120 0.0748
vn -0.7864 0.0635 -0.6145
vn 0.7772 0.2626 -0.5718
vn -0.3813 0.3456 -0.8574
vn 0.3761 0.1177 -0.9191
vn -0.1878 -0.7084 -0.6804
vn -0.5337 -0.6133 0.5823
vn 0.6165 0.5351 -0.5775
vn -0.9767 -0.0054 -0.2144
vn 0.3844 0.2821 -0.8790
vn -0.5443 -0.8166 -0.1920
vn 0.0242 -0.1078 -0.9939
vn 0.3983 -0.7684 -0.5009
vn -0.1436 -0.0266 -0.9893
vn 0.3788 0.2822 -0.8814
vn -0.1495 -0.2756 -0.9496
vn -0.1916 0.4944 -0.8478
vn 0.2996 0.5024 -0.8111
vn 0.9019 -0.4253 -0.0763
vn -0.0471 -0.6789 0.7327
vn -0.6622 -0.7025 -0.2605
vn 0.9448 -0.0625 -0.3216
vn 0.2624 0.2493 -0.9322
vn -0.6322 -0.7655 -0.1197
vn -0.5436 -0.7083 0.4504
vn -0.5522 -0.4249 0.7173
vn -0.6906 -0.3385 0.6391
vn 0.8432 0.5342 0.0600
vn 0.9302 0.0008 0.3671
vn 0.9744 -0.2002 -0.1021
vn -0.9371 0.1918 -0.2916
vn -0.4655 -0.6495 0.6012
vn 0.5384 -0.4753 0.6958
vn 0.7795 0.1083 -0.6170
vn 0.2727 0.2495 -0.9292
vn -0.5630 -0.6567 0.5017
vn 0.2434 0.3345 -0.9104
vn 0.4106 0.9118 0.0049
vn -0.7940 -0.2195 0.5669
vn 0.5637 0.5045 0.6540
vn 0.3427 0.0625 -0.9374
vn -0.5665 0.7196 -0.4015
vn 0.3221 0.7285 -0.6046
vn 0.0583 0.8175 -0.5730
vn -0.0417 -0.4598 0.8870
vn 0.9690 -0.0673 0.2376
vn -0.3728 0.0403 0.9270
vn -0.1358 -0.1305 0.9821
vn 0.1435 0.7434 -0.6533
vn 0.1321 -0.7044 0.6974
vn 0.3934 0.5401 -0.7440
vn -0.3563 -0.4880 0.7968
vn 0.6802 -0.3317 0.6536
vn -0.3699 -0.4210 0.8282
vn 0.2649 0.1688 -0.9494
vn 0.0975 0.1855 -0.9778
vn 0.1852 0.3774 0.9073
vn -0.2940 0.1867 -0.9374
vn -0.0137 0.7471 0.6646
vn -0.2247 -0.3333 0.9157
vn 0.5183 -0.0125 0.8551
vn -0.2963 -0.5113 -0.8067
vn -0.6087 -0.7869 0.1012
vn 0.6651 -0.5345 0.5215
vn 0.1562 0.1234 -0.9800
vn -0.7470 0.1983 0.6345
vn -0.2932 0.8786 0.3771
vn 0.1046 0.9897 -0.0979
vn 0.2213 -0.3580 0.9071
vn 0.6850 -0.2427 0.6869
vn -0.6910 0.7224 0.0254
vn 0.2736 0.2624 -0.9253
vn -0.8508 -0.3013 -0.4305
vn -0.5134 -0.5291 0.6756
vn -0.8071 -0.1389 0.5738
vn 0.2987 0.9541 0.0226
vn 0.1625 0.9620 0.2195
vn -0.1102 -0.3692 0.9228
vn 0.5154 0.2472 -0.8205
vn 0.9908 -0.0180 0.1342
vn 0.7811 0.5620 -0.2723
vn 0.3623 0.4834 -0.7969
vn -0.2940 -0.3084 0.9047
vn -0.1667 0.5594 0.8120
vn 0.6330 -0.2837 0.7203
vn 0.9120 0.2480 0.3267
vn -0.6729 -0.3887 0.6294
vn 0.6280 0.7782 0.0008
vn -0.3908 -0.3028 0.8693
vn -0.3774 -0.1445 0.9147
vn 0.4473 0.8940 -0.0260
vn 0.1894 -0.3495 0.9176
vn -0.1940 -0.3387 0.9207
vn -0.4519 -0.1839 0.8729
vn -0.3209 0.0145 0.9470
vn -0.2997 0.0305 0.9536
vn -0.1145 0.5419 0.8326
vn 0.1100 -0.2567 0.9602
vn 0.3994 -0.0690 0.9142
vn 0.5493 0.2501 0.7973
vn 0.4602 0.6400 0.6153
vn -0.1157 0.1951 0.9739
vn 0.1826 0.7961 0.5769
vn -0.1380 -0.1955 0.9709
vn 0.1500 -0.1004 0.9836
vn -0.3103 -0.2293 0.9226
vn 0.1766 0.1356 0.9749
vn 0.1740 0.5006 0.8480
vn -0.0955 -0.0989 0.9905
usemtl mtl1.809
s 1
f 9//7 10//8 11//9
f 11//9 10//8 12//10
f 13//11 11//9 12//10
f 14//12 12//10 10//8
f 13//11 12//10 15//13
f 15//13 12//10 14//12
f 11//9 16//14 17//15
f 17//15 9//7 11//9
f 16//14 11//9 13//11
f 10//8 9//7 18//16
f 14//12 10//8 19//17
f 20//18 13//11 15//13
f 15//13 14//12 21//19
f 21//19 14//12 19//17
f 22//20 23//21 16//14
f 24//22 9//7 17//15
f 9//7 24//22 18//16
f 16//14 13//11 22//20
f 13//11 20//18 25//23
f 10//8 18//16 19//17
f 18//16 26//24 19//17
f 21//19 19//17 26//24
f 21//19 27//25 15//13
f 28//26 29//27 30//28
f 29//27 28//26 31//29
f 30//28 29//27 32//30
f 29//27 31//29 32//30
f 23//21 17//15 16//14
f 22//20 33//31 23//21
f 22//20 13//11 25//23
f 27//25 20//18 15//13
f 27//25 21//19 34//32
f 35//33 27//25 34//32
f 30//28 36//34 37//35
f 37//35 28//26 30//28
f 36//34 30//28 32//30
f 38//36 31//29 28//26
f 39//37 36//34 32//30
f 32//30 31//29 40//38
f 38//36 33//31 31//29
f 31//29 33//31 40//38
f 33//31 38//36 41//39
f 33//31 41//39 23//21
f 23//21 41//39 42//40
f 42//40 17//15 23//21
f 42//40 24//22 17//15
f 22//20 40//38 33//31
f 24//22 43//41 18//16
f 26//24 18//16 44//42
f 18//16 43//41 44//42
f 25//23 20//18 45//43
f 46//44 45//43 20//18
f 47//45 46//44 20//18
f 27//25 47//45 20//18
f 21//19 26//24 48//46
f 28//26 37//35 49//47
f 28//26 49//47 38//36
f 50//48 36//34 39//37
f 51//49 32//30 52//50
f 51//49 39//37 32//30
f 52//50 32//30 40//38
f 53//51 41//39 38//36
f 40//38 22//20 54//52
f 22//20 25//23 54//52
f 25//23 45//43 55//53
f 44//42 56//54 26//24
f 57//55 45//43 46//44
f 48//46 26//24 56//54
f 47//45 27//25 58//56
f 21//19 48//46 34//32
f 58//56 27//25 35//33
f 48//46 59//57 34//32
f 60//58 58//56 35//33
f 61//59 34//32 59//57
f 35//33 34//32 61//59
f 50//48 62//60 37//35
f 37//35 36//34 50//48
f 49//47 53//51 38//36
f 63//61 39//37 51//49
f 41//39 53//51 42//40
f 54//52 52//50 40//38
f 43//41 24//22 64//62
f 65//63 43//41 64//62
f 25//23 55//53 66//64
f 54//52 25//23 66//64
f 43//41 65//63 44//42
f 57//55 55//53 45//43
f 67//65 46//44 47//45
f 60//58 68//66 58//56
f 61//59 60//58 35//33
f 37//35 69//67 49//47
f 69//67 37//35 62//60
f 49//47 69//67 53//51
f 50//48 39//37 70//68
f 70//68 39//37 63//61
f 71//69 64//62 24//22
f 54//52 72//70 52//50
f 73//71 72//70 54//52
f 65//63 64//62 74//72
f 66//64 75//73 54//52
f 73//71 54//52 75//73
f 55//53 57//55 76//74
f 65//63 77//75 44//42
f 74//72 78//76 65//63
f 76//74 57//55 74//72
f 57//55 78//76 74//72
f 77//75 56//54 44//42
f 57//55 46//44 78//76
f 78//76 67//65 65//63
f 46//44 67//65 78//76
f 67//65 79//77 80//78
f 81//79 67//65 47//45
f 58//56 79//77 67//65
f 82//80 79//77 58//56
f 48//46 83//81 59//57
f 59//57 83//81 84//82
f 84//82 61//59 59//57
f 85//83 60//58 61//59
f 86//84 62//60 50//48
f 50//48 70//68 86//84
f 42//40 53//51 69//67
f 63//61 51//49 87//85
f 42//40 71//69 24//22
f 42//40 69//67 71//69
f 52//50 72//70 51//49
f 64//62 76//74 74//72
f 88//86 76//74 64//62
f 72//70 73//71 89//87
f 88//86 55//53 76//74
f 55//53 88//86 66//64
f 75//73 66//64 88//86
f 75//73 88//86 90//88
f 73//71 75//73 82//80
f 89//87 73//71 82//80
f 90//88 80//78 79//77
f 90//88 79//77 75//73
f 82//80 75//73 79//77
f 65//63 67//65 77//75
f 91//89 67//65 80//78
f 82//80 58//56 68//66
f 56//54 92//90 48//46
f 48//46 92//90 83//81
f 93//91 60//58 94//92
f 94//92 60//58 85//83
f 61//59 84//82 85//83
f 69//67 62//60 95//93
f 86//84 95//93 62//60
f 63//61 87//85 70//68
f 51//49 72//70 96//94
f 96//94 97//95 51//49
f 72//70 89//87 96//94
f 98//96 96//94 99//97
f 99//97 96//94 89//87
f 56//54 77//75 100//98
f 82//80 99//97 89//87
f 67//65 100//98 77//75
f 82//80 68//66 99//97
f 68//66 60//58 93//91
f 85//83 101//99 94//92
f 70//68 87//85 86//84
f 71//69 69//67 95//93
f 87//85 51//49 102//100
f 51//49 97//95 102//100
f 96//94 103//101 97//95
f 90//88 88//86 104//102
f 96//94 98//96 103//101
f 90//88 104//102 80//78
f 80//78 104//102 91//89
f 98//96 99//97 105//103
f 106//104 67//65 91//89
f 100//98 67//65 106//104
f 56//54 100//98 92//90
f 91//89 107//105 106//104
f 99//97 108//106 105//103
f 68//66 108//106 99//97
f 108//106 68//66 93//91
f 84//82 101//99 85//83
f 109//107 95//93 86//84
f 86//84 87//85 109//107
f 110//108 71//69 95//93
f 87//85 102//100 109//107
f 71//69 111//109 64//62
f 64//62 111//109 88//86
f 106//104 112//110 100//98
f 107//105 113//111 106//104
f 100//98 112//110 83//81
f 92//90 100//98 83//81
f 113//111 112//110 106//104
f 93//91 94//92 114//112
f 113//111 101//99 112//110
f 114//112 101//99 113//111
f 94//92 101//99 114//112
f 83//81 112//110 84//82
f 101//99 84//82 112//110
f 95//93 109//107 115//113
f 110//108 111//109 71//69
f 115//113 110//108 95//93
f 109//107 102//100 115//113
f 102//100 116//114 115//113
f 102//100 97//95 116//114
f 111//109 104//102 88//86
f 116//114 97//95 103//101
f 117//115 116//114 103//101
f 103//101 98//96 117//115
f 98//96 105//103 117//115
f 105//103 118//116 117//115
f 107//105 91//89 104//102
f 113//111 107//105 114//112
f 114//112 107//105 119//117
f 105//103 108//106 118//116
f 108//106 93//91 120//118
f 93//91 114//112 120//118
f 115//113 121//119 110//108
f 115//113 122//120 121//119
f 116//114 122//120 115//113
f 123//121 104//102 111//109
f 122//120 116//114 117//115
f 117//115 124//122 122//120
f 117//115 118//116 124//122
f 104//102 123//121 107//105
f 120//118 114//112 119//117
f 120//118 125//123 108//106
f 108//106 125//123 118//116
f 111//109 110//108 121//119
f 111//109 121//119 123//121
f 123//121 119//117 107//105
f 124//122 118//116 125//123
f 125//123 120//118 119//117
f 122//120 126//124 121//119
f 123//121 121//119 126//124
f 122//120 124//122 126//124
f 126//124 119//117 123//121
f 124//122 125//123 126//124
f 126//124 125//123 119//117
