# Blender v2.92.0 OBJ File: 'convert_to_one_sided.blend'
# www.blender.org
mtllib 93L.mtl
o 93
v 8.991135 5.879444 3.662174
v 8.968204 5.927203 3.651134
v 9.028354 5.871424 3.655414
v 8.997474 5.925953 3.645944
v 9.061473 5.918613 3.680004
v 8.961325 5.999482 3.659624
v 8.994704 6.024432 3.679294
v 9.088062 5.850474 3.686484
v 9.067233 5.846724 3.693423
v 8.940085 5.964113 3.691014
v 8.940745 6.012162 3.678864
v 9.053284 6.040011 3.718413
v 8.945165 6.093151 3.702603
v 9.161963 5.846654 3.725033
v 9.151002 5.812045 3.725073
v 9.046453 5.887454 3.733583
v 9.117772 5.954743 3.745153
v 8.918315 6.075801 3.729053
v 9.025603 6.142101 3.730323
v 9.392399 5.594168 3.726353
v 9.411348 5.590387 3.721083
v 9.431218 5.579227 3.726413
v 9.349629 5.656786 3.734473
v 9.420598 5.672337 3.758622
v 9.244381 5.746965 3.739083
v 8.955665 6.223739 3.750573
v 9.032164 6.235049 3.768642
v 9.455318 5.608617 3.748563
v 9.427649 5.607427 3.751363
v 9.310370 5.677796 3.744893
v 9.479578 5.710046 3.796672
v 9.299880 5.772365 3.757213
v 9.233591 5.744776 3.745223
v 9.191551 5.789525 3.757203
v 8.970924 5.965182 3.742743
v 8.926785 6.049372 3.750523
v 9.074503 6.021932 3.745763
v 9.057403 6.076001 3.753713
v 9.068273 6.112720 3.755263
v 8.918265 6.197230 3.776132
v 9.354950 5.647037 3.755223
v 9.469579 5.668527 3.786422
v 9.483028 5.835224 3.832602
v 9.370679 5.817025 3.792912
v 9.289821 5.704936 3.758733
v 9.261221 5.900703 3.786392
v 9.108393 5.980893 3.779372
v 8.916676 6.153960 3.789652
v 9.062443 6.010882 3.765382
v 9.110463 6.175620 3.792672
v 8.934505 6.277678 3.801812
v 9.083942 6.267979 3.819842
v 8.988995 6.279729 3.803742
v 9.419538 5.687056 3.807452
v 9.491978 5.778725 3.822012
v 9.085043 5.950283 3.799232
v 9.005024 6.031382 3.772182
v 9.173382 5.963033 3.798642
v 9.049583 6.139101 3.802732
v 9.227601 6.215320 3.846322
v 9.319139 5.720406 3.788712
v 9.484288 5.749655 3.816362
v 9.233931 5.851134 3.821682
v 9.402389 5.929313 3.821212
v 9.313590 6.017592 3.818562
v 9.052414 6.005362 3.776862
v 9.220441 6.023142 3.824022
v 9.094893 5.979113 3.790742
v 8.961814 6.121271 3.793682
v 9.042804 6.052852 3.772302
v 9.163632 6.112700 3.827592
v 9.147472 6.104211 3.847691
v 9.105943 6.183980 3.772242
v 9.265841 6.114171 3.829982
v 8.924564 6.263669 3.828962
v 8.963035 6.292568 3.831432
v 9.026144 6.291998 3.834172
v 9.451988 5.753155 3.829002
v 9.480268 5.807855 3.839851
v 9.175261 5.989293 3.833562
v 9.388849 6.047292 3.839141
v 9.186472 6.058912 3.848742
v 9.106422 6.151851 3.860861
v 8.921525 6.213439 3.813092
v 9.192863 6.256899 3.875381
v 9.086503 6.281209 3.856581
v 9.391719 5.810454 3.849861
v 9.477648 6.005382 3.861551
v 9.513988 5.947793 3.872951
v 9.471148 6.089471 3.884161
v 9.370830 6.129321 3.867801
v 8.959105 6.203310 3.823692
v 9.035514 6.282898 3.860161
v 9.497238 5.895284 3.871851
v 9.498658 6.023322 3.884861
v 9.180061 6.092711 3.876541
v 9.409539 6.148670 3.900281
v 9.036204 6.213339 3.856401
v 9.141083 6.194420 3.896281
v 9.306611 6.204470 3.905231
v 9.462459 5.840454 3.860201
v 9.346060 5.923383 3.892021
v 9.230341 5.998132 3.874491
v 8.993884 6.258409 3.844151
v 9.071303 6.244390 3.870171
v 9.144743 6.247979 3.889831
v 9.431199 5.935033 3.896711
v 9.476878 5.987903 3.893131
v 9.435418 6.094931 3.910151
v 9.366590 6.168850 3.926100
v 9.233591 6.209040 3.934630
v 9.235181 6.228749 3.913341
v 9.329849 6.033972 3.922750
v 9.394629 6.067021 3.925210
v 9.237230 6.118990 3.913011
v 9.362229 6.150740 3.938670
v 9.302111 6.188920 3.930030
v 9.311131 6.130210 3.926760
vn -0.6325 -0.7622 -0.1380
vn -0.5727 -0.2122 -0.7918
vn 0.0410 -0.4443 -0.8949
vn 0.1770 0.1076 -0.9783
vn 0.5169 0.2080 -0.8304
vn -0.2125 0.2470 -0.9455
vn 0.3308 0.3312 -0.8837
vn 0.2924 -0.3812 -0.8771
vn -0.3094 -0.9295 -0.2006
vn -0.9081 -0.4120 0.0748
vn -0.7864 0.0635 -0.6145
vn 0.7772 0.2626 -0.5718
vn -0.3813 0.3456 -0.8574
vn 0.3761 0.1177 -0.9191
vn -0.1878 -0.7084 -0.6804
vn -0.5337 -0.6133 0.5823
vn 0.6165 0.5351 -0.5775
vn -0.9767 -0.0054 -0.2144
vn 0.3844 0.2821 -0.8790
vn -0.5443 -0.8166 -0.1920
vn 0.0242 -0.1078 -0.9939
vn 0.3983 -0.7684 -0.5009
vn -0.1436 -0.0266 -0.9893
vn 0.3788 0.2822 -0.8814
vn -0.1495 -0.2756 -0.9496
vn -0.1916 0.4944 -0.8478
vn 0.2996 0.5024 -0.8111
vn 0.9019 -0.4253 -0.0763
vn -0.0471 -0.6789 0.7327
vn -0.6622 -0.7025 -0.2605
vn 0.9448 -0.0625 -0.3216
vn 0.2624 0.2493 -0.9322
vn -0.6322 -0.7655 -0.1197
vn -0.5436 -0.7083 0.4504
vn -0.5522 -0.4249 0.7173
vn -0.6906 -0.3385 0.6391
vn 0.8432 0.5342 0.0600
vn 0.9302 0.0008 0.3671
vn 0.9744 -0.2002 -0.1021
vn -0.9371 0.1918 -0.2916
vn -0.4655 -0.6495 0.6012
vn 0.5384 -0.4753 0.6958
vn 0.7795 0.1083 -0.6170
vn 0.2727 0.2495 -0.9292
vn -0.5630 -0.6567 0.5017
vn 0.2434 0.3345 -0.9104
vn 0.4106 0.9118 0.0049
vn -0.7940 -0.2195 0.5669
vn 0.5637 0.5045 0.6540
vn 0.3427 0.0625 -0.9374
vn -0.5665 0.7196 -0.4015
vn 0.3221 0.7285 -0.6046
vn 0.0583 0.8175 -0.5730
vn -0.0417 -0.4598 0.8870
vn 0.9690 -0.0673 0.2376
vn -0.3728 0.0403 0.9270
vn -0.1358 -0.1305 0.9821
vn 0.1435 0.7434 -0.6533
vn 0.1321 -0.7044 0.6974
vn 0.3934 0.5401 -0.7440
vn -0.3563 -0.4880 0.7968
vn 0.6802 -0.3317 0.6536
vn -0.3699 -0.4210 0.8282
vn 0.2649 0.1688 -0.9494
vn 0.0975 0.1855 -0.9778
vn 0.1852 0.3774 0.9073
vn -0.2940 0.1867 -0.9374
vn -0.0137 0.7471 0.6646
vn -0.2247 -0.3333 0.9157
vn 0.5183 -0.0125 0.8551
vn -0.2963 -0.5113 -0.8067
vn -0.6087 -0.7869 0.1012
vn 0.6651 -0.5345 0.5215
vn 0.1562 0.1234 -0.9800
vn -0.7470 0.1983 0.6345
vn -0.2932 0.8786 0.3771
vn 0.1046 0.9897 -0.0979
vn 0.2213 -0.3580 0.9071
vn 0.6850 -0.2427 0.6869
vn -0.6910 0.7224 0.0254
vn 0.2736 0.2624 -0.9253
vn -0.8508 -0.3013 -0.4305
vn -0.5134 -0.5291 0.6756
vn -0.8071 -0.1389 0.5738
vn 0.2987 0.9541 0.0226
vn 0.1625 0.9620 0.2195
vn -0.1102 -0.3692 0.9228
vn 0.5154 0.2472 -0.8205
vn 0.9908 -0.0180 0.1342
vn 0.7811 0.5620 -0.2723
vn 0.3623 0.4834 -0.7969
vn -0.2940 -0.3084 0.9047
vn -0.1667 0.5594 0.8120
vn 0.6330 -0.2837 0.7203
vn 0.9120 0.2480 0.3267
vn -0.6729 -0.3887 0.6294
vn 0.6280 0.7782 0.0008
vn -0.3908 -0.3028 0.8693
vn -0.3774 -0.1445 0.9147
vn 0.4473 0.8940 -0.0260
vn 0.1894 -0.3495 0.9176
vn -0.1940 -0.3387 0.9207
vn -0.4519 -0.1839 0.8729
vn -0.3209 0.0145 0.9470
vn -0.2997 0.0305 0.9536
vn -0.1145 0.5419 0.8326
vn 0.1100 -0.2567 0.9602
vn 0.3994 -0.0690 0.9142
vn 0.5493 0.2501 0.7973
vn 0.4602 0.6400 0.6153
vn -0.1157 0.1951 0.9739
vn 0.1826 0.7961 0.5769
vn -0.1380 -0.1955 0.9709
vn 0.1500 -0.1004 0.9836
vn -0.3103 -0.2293 0.9226
vn 0.1766 0.1356 0.9749
vn 0.1740 0.5006 0.8480
vn -0.0955 -0.0989 0.9905
usemtl mtl1.1627
s 1
f 1//1 2//2 3//3
f 3//3 2//2 4//4
f 5//5 3//3 4//4
f 6//6 4//4 2//2
f 5//5 4//4 7//7
f 7//7 4//4 6//6
f 3//3 8//8 9//9
f 9//9 1//1 3//3
f 8//8 3//3 5//5
f 2//2 1//1 10//10
f 6//6 2//2 11//11
f 12//12 5//5 7//7
f 7//7 6//6 13//13
f 13//13 6//6 11//11
f 14//14 15//15 8//8
f 16//16 1//1 9//9
f 1//1 16//16 10//10
f 8//8 5//5 14//14
f 5//5 12//12 17//17
f 2//2 10//10 11//11
f 10//10 18//18 11//11
f 13//13 11//11 18//18
f 13//13 19//19 7//7
f 20//20 21//21 22//22
f 21//21 20//20 23//23
f 22//22 21//21 24//24
f 21//21 23//23 24//24
f 15//15 9//9 8//8
f 14//14 25//25 15//15
f 14//14 5//5 17//17
f 19//19 12//12 7//7
f 19//19 13//13 26//26
f 27//27 19//19 26//26
f 22//22 28//28 29//29
f 29//29 20//20 22//22
f 28//28 22//22 24//24
f 30//30 23//23 20//20
f 31//31 28//28 24//24
f 24//24 23//23 32//32
f 30//30 25//25 23//23
f 23//23 25//25 32//32
f 25//25 30//30 33//33
f 25//25 33//33 15//15
f 15//15 33//33 34//34
f 34//34 9//9 15//15
f 34//34 16//16 9//9
f 14//14 32//32 25//25
f 16//16 35//35 10//10
f 18//18 10//10 36//36
f 10//10 35//35 36//36
f 17//17 12//12 37//37
f 38//38 37//37 12//12
f 39//39 38//38 12//12
f 19//19 39//39 12//12
f 13//13 18//18 40//40
f 20//20 29//29 41//41
f 20//20 41//41 30//30
f 42//42 28//28 31//31
f 43//43 24//24 44//44
f 43//43 31//31 24//24
f 44//44 24//24 32//32
f 45//45 33//33 30//30
f 32//32 14//14 46//46
f 14//14 17//17 46//46
f 17//17 37//37 47//47
f 36//36 48//48 18//18
f 49//49 37//37 38//38
f 40//40 18//18 48//48
f 39//39 19//19 50//50
f 13//13 40//40 26//26
f 50//50 19//19 27//27
f 40//40 51//51 26//26
f 52//52 50//50 27//27
f 53//53 26//26 51//51
f 27//27 26//26 53//53
f 42//42 54//54 29//29
f 29//29 28//28 42//42
f 41//41 45//45 30//30
f 55//55 31//31 43//43
f 33//33 45//45 34//34
f 46//46 44//44 32//32
f 35//35 16//16 56//56
f 57//57 35//35 56//56
f 17//17 47//47 58//58
f 46//46 17//17 58//58
f 35//35 57//57 36//36
f 49//49 47//47 37//37
f 59//59 38//38 39//39
f 52//52 60//60 50//50
f 53//53 52//52 27//27
f 29//29 61//61 41//41
f 61//61 29//29 54//54
f 41//41 61//61 45//45
f 42//42 31//31 62//62
f 62//62 31//31 55//55
f 63//63 56//56 16//16
f 46//46 64//64 44//44
f 65//65 64//64 46//46
f 57//57 56//56 66//66
f 58//58 67//67 46//46
f 65//65 46//46 67//67
f 47//47 49//49 68//68
f 57//57 69//69 36//36
f 66//66 70//70 57//57
f 68//68 49//49 66//66
f 49//49 70//70 66//66
f 69//69 48//48 36//36
f 49//49 38//38 70//70
f 70//70 59//59 57//57
f 38//38 59//59 70//70
f 59//59 71//71 72//72
f 73//73 59//59 39//39
f 50//50 71//71 59//59
f 74//74 71//71 50//50
f 40//40 75//75 51//51
f 51//51 75//75 76//76
f 76//76 53//53 51//51
f 77//77 52//52 53//53
f 78//78 54//54 42//42
f 42//42 62//62 78//78
f 34//34 45//45 61//61
f 55//55 43//43 79//79
f 34//34 63//63 16//16
f 34//34 61//61 63//63
f 44//44 64//64 43//43
f 56//56 68//68 66//66
f 80//80 68//68 56//56
f 64//64 65//65 81//81
f 80//80 47//47 68//68
f 47//47 80//80 58//58
f 67//67 58//58 80//80
f 67//67 80//80 82//82
f 65//65 67//67 74//74
f 81//81 65//65 74//74
f 82//82 72//72 71//71
f 82//82 71//71 67//67
f 74//74 67//67 71//71
f 57//57 59//59 69//69
f 83//83 59//59 72//72
f 74//74 50//50 60//60
f 48//48 84//84 40//40
f 40//40 84//84 75//75
f 85//85 52//52 86//86
f 86//86 52//52 77//77
f 53//53 76//76 77//77
f 61//61 54//54 87//87
f 78//78 87//87 54//54
f 55//55 79//79 62//62
f 43//43 64//64 88//88
f 88//88 89//89 43//43
f 64//64 81//81 88//88
f 90//90 88//88 91//91
f 91//91 88//88 81//81
f 48//48 69//69 92//92
f 74//74 91//91 81//81
f 59//59 92//92 69//69
f 74//74 60//60 91//91
f 60//60 52//52 85//85
f 77//77 93//93 86//86
f 62//62 79//79 78//78
f 63//63 61//61 87//87
f 79//79 43//43 94//94
f 43//43 89//89 94//94
f 88//88 95//95 89//89
f 82//82 80//80 96//96
f 88//88 90//90 95//95
f 82//82 96//96 72//72
f 72//72 96//96 83//83
f 90//90 91//91 97//97
f 98//98 59//59 83//83
f 92//92 59//59 98//98
f 48//48 92//92 84//84
f 83//83 99//99 98//98
f 91//91 100//100 97//97
f 60//60 100//100 91//91
f 100//100 60//60 85//85
f 76//76 93//93 77//77
f 101//101 87//87 78//78
f 78//78 79//79 101//101
f 102//102 63//63 87//87
f 79//79 94//94 101//101
f 63//63 103//103 56//56
f 56//56 103//103 80//80
f 98//98 104//104 92//92
f 99//99 105//105 98//98
f 92//92 104//104 75//75
f 84//84 92//92 75//75
f 105//105 104//104 98//98
f 85//85 86//86 106//106
f 105//105 93//93 104//104
f 106//106 93//93 105//105
f 86//86 93//93 106//106
f 75//75 104//104 76//76
f 93//93 76//76 104//104
f 87//87 101//101 107//107
f 102//102 103//103 63//63
f 107//107 102//102 87//87
f 101//101 94//94 107//107
f 94//94 108//108 107//107
f 94//94 89//89 108//108
f 103//103 96//96 80//80
f 108//108 89//89 95//95
f 109//109 108//108 95//95
f 95//95 90//90 109//109
f 90//90 97//97 109//109
f 97//97 110//110 109//109
f 99//99 83//83 96//96
f 105//105 99//99 106//106
f 106//106 99//99 111//111
f 97//97 100//100 110//110
f 100//100 85//85 112//112
f 85//85 106//106 112//112
f 107//107 113//113 102//102
f 107//107 114//114 113//113
f 108//108 114//114 107//107
f 115//115 96//96 103//103
f 114//114 108//108 109//109
f 109//109 116//116 114//114
f 109//109 110//110 116//116
f 96//96 115//115 99//99
f 112//112 106//106 111//111
f 112//112 117//117 100//100
f 100//100 117//117 110//110
f 103//103 102//102 113//113
f 103//103 113//113 115//115
f 115//115 111//111 99//99
f 116//116 110//110 117//117
f 117//117 112//112 111//111
f 114//114 118//118 113//113
f 115//115 113//113 118//118
f 114//114 116//116 118//118
f 118//118 111//111 115//115
f 116//116 117//117 118//118
f 118//118 117//117 111//111
