# wavefront obj file written by the visualization toolkit


v 2070.47 3623.29 5439.64
v 2058.22 3577.41 5440.13
v 2034.61 3582.8 5453.03
v 2080.55 3633.78 5475.05
v 2083.11 3672.92 5480.51
v 1999.32 3569.63 5481.62
v 1988.64 3638.78 5490.07
v 2028.99 3589.05 5498.98
v 2020.92 3678.77 5483.35
v 2052.35 3708.96 5504.7
v 1946.72 3626.51 5535.85
v 2077.65 3705.24 5527.26
v 1979.29 3594.52 5528.36
v 2056.67 3646.89 5527.74
v 1937.35 3689.91 5547.9
v 1989.21 3720.73 5535.78
v 2027.11 3740.91 5547.88
v 2009.92 3661.02 5564.93
v 1930.72 3682.55 5570.84
v 1950.82 3728 5576.28
v 1959.2 3657.96 5562.5
v 2053.09 3709.6 5563.26
v 1996.97 3748.14 5571.9
v 2009.97 3734.56 5576.8
v 1973.48 3734.79 5583.57
v 1981.94 3707.75 5576.62
v 2014.78 3704.07 5569.54
v 1981.01 3734.14 5790.37
v 1968.91 3646.69 5808.82
v 1937.05 3687.33 5802.85
v 2040.14 3671.71 5832.53
v 1947.9 3736.05 5806.14
v 1989.49 3759.56 5800.3
v 2029.89 3743.36 5816.89
v 2082.35 3679.75 5879.87
v 1930.54 3629.62 5822.61
v 1928.51 3660.12 5827.73
v 2015.64 3740.61 5831.86
v 1962.1 3588.33 5856.26
v 1935.45 3616.72 5840.8
v 2003.72 3600.85 5858.76
v 2078.32 3627.76 5906.45
v 1987.34 3677.15 5864.3
v 2071.41 3688.69 5886.52
v 2056.31 3602.22 5920.32
v 1972.29 3617.92 5872.29
v 2028 3586.91 5916.26
v 2082.71 3639.05 5928.52
v 2046.12 3670.45 5904.31
v 2031.32 3598.24 5929.94
v 2022.58 3636.02 5916.89
v 2040.05 3646.21 5925.02
v 2060.98 3606.91 5938.96
v 2047.47 3631.23 5922.57
vn 0.157589 0.261077 -0.952368
vn 0.423433 -0.779592 -0.461456
vn -0.478265 -0.130836 -0.868415
vn 0.944174 -0.304193 0.126504
vn 0.811072 0.394619 -0.431784
vn -0.501839 -0.808426 -0.30758
vn -0.620514 0.15491 -0.768743
vn 0.458088 -0.71402 0.529463
vn -0.343398 0.503721 -0.792681
vn 0.151241 0.753211 -0.640156
vn -0.881456 -0.47138 0.0289002
vn 0.878206 0.425945 0.217545
vn -0.132106 -0.733497 0.666731
vn 0.677301 -0.418853 0.604834
vn -0.82527 0.293994 -0.48218
vn -0.384874 0.677623 -0.626657
vn 0.306741 0.941706 -0.1382
vn 0.238025 -0.379552 0.894027
vn -0.693511 -0.166499 0.700942
vn -0.709593 0.611902 0.349363
vn -0.176652 -0.442786 0.879053
vn 0.530088 -0.0508467 0.846417
vn -0.0767577 0.977638 0.195784
vn 0.405024 0.374297 0.83418
vn -0.111837 0.297424 0.948173
vn -0.00465121 -0.178635 0.983904
vn 0.192673 -0.138797 0.971397
vn 0.0602073 0.112954 -0.991774
vn 0.0990096 -0.453438 -0.885771
vn -0.654765 -0.00396145 -0.755822
vn 0.585353 -0.350746 -0.730986
vn -0.760542 0.645541 0.0696692
vn -0.0043008 0.956537 -0.291581
vn 0.702586 0.615162 -0.357699
vn 0.965911 0.18274 -0.183363
vn -0.728059 -0.44435 -0.522
vn -0.920509 0.154445 0.358902
vn -0.0704962 0.786374 0.613715
vn -0.462668 -0.886468 -0.0106377
vn -0.870376 -0.304602 0.386864
vn 0.397171 -0.725476 -0.562086
vn 0.839976 -0.466818 -0.276624
vn -0.514959 0.448995 0.730219
vn 0.438036 0.739335 0.51138
vn 0.661042 -0.731363 -0.167724
vn -0.677468 0.022771 0.7352
vn 0.142931 -0.971008 0.191609
vn 0.694232 0.15713 0.702391
vn -0.0115778 0.602189 0.79827
vn -0.461742 -0.19426 0.865481
vn -0.498707 0.169067 0.850122
vn -0.138851 0.35852 0.923138
vn 0.255579 -0.436794 0.862491
vn -0.0439362 0.260218 0.96455

g grp1
usemtl mtl1
f 1//1 2//2 3//3 
f 2//2 1//1 4//4 
f 4//4 1//1 5//5 
f 6//6 3//3 2//2 
f 3//3 7//7 1//1 
f 6//6 7//7 3//3 
f 4//4 8//8 2//2 
f 7//7 9//9 1//1 
f 1//1 10//10 5//5 
f 9//9 10//10 1//1 
f 2//2 8//8 6//6 
f 6//6 11//11 7//7 
f 5//5 10//10 12//12 
f 13//13 11//11 6//6 
f 8//8 4//4 14//14 
f 15//15 7//7 11//11 
f 7//7 15//15 16//16 
f 7//7 16//16 9//9 
f 9//9 16//16 10//10 
f 17//17 12//12 10//10 
f 6//6 8//8 13//13 
f 8//8 18//18 13//13 
f 8//8 14//14 18//18 
f 14//14 4//4 12//12 
f 12//12 4//4 5//5 
f 10//10 16//16 17//17 
f 11//11 19//19 15//15 
f 15//15 20//20 16//16 
f 13//13 21//21 11//11 
f 21//21 19//19 11//11 
f 18//18 14//14 22//22 
f 14//14 12//12 22//22 
f 19//19 20//20 15//15 
f 16//16 20//20 23//23 
f 16//16 23//23 17//17 
f 17//17 24//24 12//12 
f 17//17 23//23 24//24 
f 18//18 21//21 13//13 
f 12//12 24//24 22//22 
f 20//20 25//25 23//23 
f 18//18 26//26 21//21 
f 18//18 27//27 26//26 
f 26//26 19//19 21//21 
f 18//18 22//22 27//27 
f 19//19 26//26 20//20 
f 20//20 26//26 25//25 
f 27//27 22//22 24//24 
f 24//24 23//23 25//25 
f 24//24 25//25 26//26 
f 27//27 24//24 26//26 
f 28//28 29//29 30//30 
f 31//31 29//29 28//28 
f 28//28 30//30 32//32 
f 28//28 32//32 33//33 
f 34//34 28//28 33//33 
f 31//31 28//28 34//34 
f 34//34 35//35 31//31 
f 29//29 36//36 30//30 
f 30//30 36//36 37//37 
f 30//30 37//37 32//32 
f 34//34 33//33 38//38 
f 36//36 39//39 40//40 
f 41//41 39//39 29//29 
f 29//29 39//39 36//36 
f 36//36 40//40 37//37 
f 41//41 29//29 31//31 
f 31//31 35//35 42//42 
f 37//37 43//43 32//32 
f 33//33 32//32 38//38 
f 34//34 44//44 35//35 
f 34//34 38//38 44//44 
f 31//31 45//45 41//41 
f 40//40 46//46 37//37 
f 46//46 43//43 37//37 
f 32//32 43//43 38//38 
f 41//41 47//47 39//39 
f 41//41 45//45 47//47 
f 31//31 42//42 45//45 
f 42//42 35//35 48//48 
f 35//35 44//44 48//48 
f 49//49 38//38 43//43 
f 44//44 38//38 49//49 
f 46//46 39//39 50//50 
f 47//47 50//50 39//39 
f 39//39 46//46 40//40 
f 46//46 51//51 43//43 
f 52//52 43//43 51//51 
f 49//49 43//43 52//52 
f 49//49 48//48 44//44 
f 53//53 47//47 45//45 
f 51//51 46//46 50//50 
f 42//42 48//48 45//45 
f 54//54 52//52 51//51 
f 47//47 53//53 50//50 
f 45//45 48//48 53//53 
f 50//50 54//54 51//51 
f 54//54 48//48 49//49 
f 49//49 52//52 54//54 
f 54//54 50//50 53//53 
f 48//48 54//54 53//53 
