# Blender v2.92.0 OBJ File: 'convert_to_one_sided.blend'
# www.blender.org
mtllib 949L.mtl
o Cube
v 0.001000 0.001000 -0.001000
v 0.001000 -0.001000 -0.001000
v 0.001000 0.001000 0.001000
v 0.001000 -0.001000 0.001000
v -0.001000 0.001000 -0.001000
v -0.001000 -0.001000 -0.001000
v -0.001000 0.001000 0.001000
v -0.001000 -0.001000 0.001000
vt 0.625000 0.500000
vt 0.875000 0.500000
vt 0.875000 0.750000
vt 0.625000 0.750000
vt 0.375000 0.750000
vt 0.625000 1.000000
vt 0.375000 1.000000
vt 0.375000 0.000000
vt 0.625000 0.000000
vt 0.625000 0.250000
vt 0.375000 0.250000
vt 0.125000 0.500000
vt 0.375000 0.500000
vt 0.125000 0.750000
vn 0.0000 1.0000 0.0000
vn 0.0000 0.0000 1.0000
vn -1.0000 0.0000 0.0000
vn 0.0000 -1.0000 0.0000
vn 1.0000 0.0000 0.0000
vn 0.0000 0.0000 -1.0000
usemtl Material
s off
f 1/1/1 5/2/1 7/3/1 3/4/1
f 4/5/2 3/4/2 7/6/2 8/7/2
f 8/8/3 7/9/3 5/10/3 6/11/3
f 6/12/4 2/13/4 4/5/4 8/14/4
f 2/13/5 1/1/5 3/4/5 4/5/5
f 6/11/6 5/10/6 1/1/6 2/13/6
o 949
v 2.070443 3.623242 5.439570
v 2.058193 3.577363 5.440060
v 2.034584 3.582753 5.452960
v 2.080523 3.633732 5.474980
v 2.083083 3.672872 5.480440
v 1.999294 3.569583 5.481550
v 1.988614 3.638732 5.490000
v 2.028964 3.589003 5.498909
v 2.020894 3.678722 5.483280
v 2.052324 3.708911 5.504630
v 1.946695 3.626462 5.535779
v 2.077623 3.705191 5.527189
v 1.979264 3.594473 5.528289
v 2.056643 3.646842 5.527669
v 1.937325 3.689862 5.547829
v 1.989184 3.720681 5.535709
v 2.027084 3.740861 5.547809
v 2.009894 3.660972 5.564859
v 1.930695 3.682502 5.570769
v 1.950795 3.727951 5.576209
v 1.959175 3.657912 5.562429
v 2.053064 3.709551 5.563189
v 1.996944 3.748091 5.571829
v 2.009944 3.734511 5.576728
v 1.973455 3.734741 5.583498
v 1.981914 3.707701 5.576549
v 2.014754 3.704021 5.569469
vn 0.1576 0.2611 -0.9524
vn 0.4234 -0.7796 -0.4615
vn -0.4783 -0.1308 -0.8684
vn 0.9442 -0.3042 0.1265
vn 0.8111 0.3946 -0.4318
vn -0.5018 -0.8084 -0.3076
vn -0.6205 0.1549 -0.7687
vn 0.4581 -0.7140 0.5295
vn -0.3434 0.5037 -0.7927
vn 0.1512 0.7532 -0.6402
vn -0.8815 -0.4714 0.0289
vn 0.8782 0.4260 0.2175
vn -0.1321 -0.7335 0.6668
vn 0.6773 -0.4189 0.6048
vn -0.8253 0.2940 -0.4822
vn -0.3849 0.6776 -0.6267
vn 0.3067 0.9417 -0.1382
vn 0.2380 -0.3796 0.8940
vn -0.6935 -0.1665 0.7009
vn -0.7096 0.6119 0.3494
vn -0.1766 -0.4428 0.8791
vn 0.5301 -0.0509 0.8464
vn -0.0768 0.9776 0.1958
vn 0.4050 0.3743 0.8342
vn -0.1118 0.2974 0.9482
vn -0.0046 -0.1786 0.9839
vn 0.1927 -0.1388 0.9714
usemtl mtl1.825
s 1
f 9//7 10//8 11//9
f 10//8 9//7 12//10
f 12//10 9//7 13//11
f 14//12 11//9 10//8
f 11//9 15//13 9//7
f 14//12 15//13 11//9
f 12//10 16//14 10//8
f 15//13 17//15 9//7
f 9//7 18//16 13//11
f 17//15 18//16 9//7
f 10//8 16//14 14//12
f 14//12 19//17 15//13
f 13//11 18//16 20//18
f 21//19 19//17 14//12
f 16//14 12//10 22//20
f 23//21 15//13 19//17
f 15//13 23//21 24//22
f 15//13 24//22 17//15
f 17//15 24//22 18//16
f 25//23 20//18 18//16
f 14//12 16//14 21//19
f 16//14 26//24 21//19
f 16//14 22//20 26//24
f 22//20 12//10 20//18
f 20//18 12//10 13//11
f 18//16 24//22 25//23
f 19//17 27//25 23//21
f 23//21 28//26 24//22
f 21//19 29//27 19//17
f 29//27 27//25 19//17
f 26//24 22//20 30//28
f 22//20 20//18 30//28
f 27//25 28//26 23//21
f 24//22 28//26 31//29
f 24//22 31//29 25//23
f 25//23 32//30 20//18
f 25//23 31//29 32//30
f 26//24 29//27 21//19
f 20//18 32//30 30//28
f 28//26 33//31 31//29
f 26//24 34//32 29//27
f 26//24 35//33 34//32
f 34//32 27//25 29//27
f 26//24 30//28 35//33
f 27//25 34//32 28//26
f 28//26 34//32 33//31
f 35//33 30//28 32//30
f 32//30 31//29 33//31
f 32//30 33//31 34//32
f 35//33 32//30 34//32
