# wavefront obj file written by the visualization toolkit


v 11877.5 6938.23 3782.22
v 11761.4 6960.02 3792.63
v 11850.4 6980.99 3790.63
v 11987.6 6991.53 3805.6
v 11968.8 6931.39 3798.27
v 11894 6905.29 3805.56
v 11767.4 6922.62 3808.95
v 12001.3 6921.49 3822.03
v 11714.7 6954.49 3804.16
v 12048 6961.22 3827.33
v 11700.9 6964.81 3809.21
v 12092.1 7010.52 3850.27
v 11774.8 7024.76 3847.95
v 11920 7035.42 3834.69
v 11831.5 6892 3843.34
v 11739.9 6905.05 3842.47
v 11688.9 6950.78 3838.61
v 12079 6957.55 3867.87
v 12105.8 6993.83 3874.79
v 11689.2 6984.92 3852.63
v 12075.8 7041.49 3852.07
v 12023.2 7065.1 3866.63
v 11939.3 6903.92 3862.87
v 11665.1 6990.08 3885.45
v 12151.7 7049.07 3919.54
v 11928.9 7076.96 3880.8
v 12112.8 7067.99 3903.92
v 11771.7 6897.51 3879.53
v 12021.9 6931.5 3878.13
v 11701.6 6933.46 3896.62
v 11698.2 7016.69 3893.7
v 11878.5 7100.9 3931.22
v 11850.6 6907.47 3910.27
v 11968.8 6945.92 3946.3
v 11674 6973 3898.64
v 12055.1 6966.17 3926.99
v 12163.5 7076.21 3941.68
v 11763.6 7062.19 3936.34
v 12029.3 7105.54 3934.9
v 11775.6 6922.86 3931.33
v 11693.4 6982.01 3953.41
v 12109.3 7010.3 3939.2
v 11709.5 7017.29 3939.7
v 11757.3 6961.29 3974.64
v 12167.1 7082 3966.76
v 12129 7097.04 3960.01
v 12148.4 7061.17 3970.91
v 11869.1 7111.45 4000.02
v 11968 7123.73 3980.25
v 12061.1 7121.1 3999.8
v 11853.1 6953.93 3977.12
v 12055.5 7006.76 3988.71
v 11749.2 7034.1 4003.16
v 11761.6 7005.98 4006.35
v 12119.2 7048.53 3992.31
v 12129.1 7090.72 4005.19
v 11781.9 7061.35 3987.7
v 12125.4 7097.69 3993.18
v 11956.1 7011.19 4023.67
v 11973.9 7124.44 4016.21
v 11836.7 7005.97 4020.13
v 11838.5 7078.84 4027.18
v 12081.3 7111.38 4019.01
v 11944.2 7110.92 4034.2
v 12024.7 7116.07 4023.52
v 11828.9 7042.25 4032.8
v 12054.4 7058.49 4022.56
v 12003.5 7087.27 4038.99
v 11918.5 7049.64 4043.48
v 11982.3 7052.81 4031.73
v 11906.6 7073.97 4033.77
v 11881.4 7000.76 7342.28
v 11810.9 7030.9 7343.55
v 11950.8 7053.24 7332.97
v 11895.6 7077.37 7336.29
v 11994.1 7012.7 7354.39
v 12073.5 7077.46 7356.79
v 11985.6 7093.75 7341.2
v 11918.4 7106.3 7351.48
v 11788.1 6981.88 7374.88
v 11849.5 6936.9 7417.16
v 11921 6972.55 7376.96
v 11783.8 7057.8 7375.55
v 12040.6 7115.87 7364.4
v 12127.6 7104.45 7388.53
v 11963 7126.6 7374.72
v 11985.2 6950.35 7429.03
v 11722.8 7006.48 7402.61
v 12074 7011 7403.26
v 12136.6 7069.21 7401.71
v 11849.3 7101.45 7390.31
v 12058.4 7122.39 7407.43
v 11732 6951.59 7435.6
v 11708.8 7033.37 7413.98
v 11737.7 7057.68 7431.3
v 12159.5 7090.91 7413.5
v 12157.3 7055.57 7448.84
v 11926.1 7120.26 7416.59
v 12064.6 6960.98 7461.22
v 11675.3 6998.23 7470.52
v 12108.9 7000.5 7474.18
v 12137.2 7099.89 7422.49
v 11819.1 7091.8 7439.82
v 11748.3 6913.44 7480.08
v 11679.9 6970.27 7464.9
v 12144.1 7071.94 7461.25
v 11836 6894.99 7510.57
v 11931.6 6912.18 7488.42
v 11678.5 6945.25 7500.29
v 12010.2 6929.23 7494.24
v 11666.1 6968.37 7493.27
v 11699.5 7025.63 7501.33
v 11766.4 7064.36 7477.09
v 12130.4 7037.28 7501.62
v 11867.8 7090.28 7478.18
v 11988.3 7106.53 7462.25
v 11748 6911.41 7537.55
v 12047.8 6943.59 7509.97
v 12117.3 7012.96 7509.09
v 12064.3 7091.19 7470.43
v 11667.6 6963.85 7516.02
v 11915.9 7045.24 7541.53
v 12060 6962.14 7536.13
v 11692.5 6980.09 7540.11
v 12059.3 7033.01 7532.63
v 11776 7032.17 7520.78
v 11958.5 6917.48 7539.23
v 11846.4 6904.59 7568.04
v 11706.8 6943.31 7544.26
v 12072.3 6992.51 7541.97
v 11781.1 6919.53 7576.52
v 11869.5 6912.37 7595.56
v 11924.1 6918.97 7585.99
v 12001.9 6953.64 7568.07
v 11798.8 6985.19 7573.83
v 12012 6983.25 7573.27
v 11963.9 6993.27 7578.6
v 11759.7 6950.82 7568.95
v 11890.8 6977.52 7587.77
v 11927.1 6950.99 7585.27
v 11837.9 6946.93 7579.9
vn 0.00966572 -0.1972 -0.980316
vn -0.187129 0.129371 -0.973779
vn -0.0477498 0.478361 -0.876864
vn 0.2023 0.307681 -0.929735
vn 0.279886 -0.374125 -0.884135
vn 0.0697355 -0.831709 -0.550814
vn -0.239447 -0.66511 -0.707314
vn 0.390785 -0.844675 -0.365803
vn -0.447343 -0.398073 -0.800888
vn 0.567022 -0.331964 -0.753848
vn -0.596925 0.291025 -0.747653
vn 0.621628 0.104075 -0.776367
vn -0.248352 0.767679 -0.590754
vn -0.0234142 0.683232 -0.729826
vn -0.0270142 -0.988487 -0.148877
vn -0.399212 -0.881157 -0.253361
vn -0.818233 -0.42621 -0.385798
vn 0.64146 -0.76455 -0.0631827
vn 0.809503 -0.481492 -0.335961
vn -0.670539 0.543814 -0.504623
vn 0.338211 0.53561 -0.77378
vn 0.0975766 0.752189 -0.651683
vn 0.187088 -0.976181 0.109861
vn -0.931255 0.349794 -0.102025
vn 0.915502 -0.231886 -0.328763
vn -0.0544019 0.820659 -0.568822
vn 0.410781 0.652925 -0.636356
vn -0.191294 -0.952794 0.235776
vn 0.349999 -0.91076 0.219127
vn -0.580612 -0.758373 0.296244
vn -0.547461 0.806388 -0.223662
vn -0.170934 0.918884 -0.355575
vn 0.0517458 -0.916156 0.397467
vn 0.204667 -0.833253 0.513616
vn -0.94842 -0.200688 0.245407
vn 0.426853 -0.808637 0.40485
vn 0.682964 0.548025 -0.482938
vn -0.47371 0.877277 -0.0773554
vn 0.0928004 0.903753 -0.417874
vn -0.172169 -0.830656 0.529499
vn -0.763518 -0.197905 0.614715
vn 0.646801 -0.706187 0.288006
vn -0.753157 0.58983 0.291297
vn -0.270422 -0.665834 0.695368
vn 0.912462 0.352484 0.207768
vn 0.342224 0.909847 -0.234651
vn 0.759907 -0.49781 0.418003
vn -0.310953 0.928495 0.202993
vn -0.0385836 0.986581 -0.158647
vn 0.180827 0.981019 0.0700219
vn 0.0104907 -0.745165 0.666798
vn 0.345713 -0.691108 0.634706
vn -0.608912 0.382207 0.695085
vn -0.361643 -0.306556 0.880476
vn 0.498579 -0.547806 0.671809
vn 0.55101 0.0688807 0.831651
vn -0.549095 0.780137 0.299801
vn 0.479855 0.833535 0.273785
vn 0.132637 -0.541039 0.830472
vn -0.0299641 0.951106 0.307407
vn -0.0853399 -0.495071 0.864651
vn -0.336239 0.530519 0.778134
vn 0.305341 0.676694 0.669964
vn -0.0934604 0.568307 0.817492
vn 0.098642 0.733724 0.672249
vn -0.215593 0.00920575 0.97644
vn 0.253088 -0.339415 0.905949
vn 0.119743 0.100531 0.987702
vn 0.00949993 -0.146574 0.989154
vn 0.16172 -0.279177 0.946524
vn -0.0998848 0.204859 0.973682
vn -0.0122266 -0.535056 -0.844728
vn -0.319223 -0.0174217 -0.94752
vn 0.073455 -0.0827759 -0.993857
vn -0.171051 0.37649 -0.910493
vn 0.265347 -0.562709 -0.782911
vn 0.378134 -0.063818 -0.923549
vn 0.089269 0.37601 -0.922306
vn -0.168825 0.731721 -0.660366
vn -0.304894 -0.57156 -0.761813
vn -0.0241215 -0.840846 -0.540737
vn 0.130984 -0.763249 -0.632688
vn -0.463884 0.582417 -0.667535
vn 0.164208 0.746913 -0.644327
vn 0.51172 0.638238 -0.575148
vn -0.0713676 0.968406 -0.238949
vn 0.241527 -0.828721 -0.504862
vn -0.650236 -0.137777 -0.747135
vn 0.489304 -0.638716 -0.593821
vn 0.675445 -0.391294 -0.625031
vn -0.3308 0.91432 -0.233644
vn 0.140049 0.984913 0.101645
vn -0.424792 -0.679646 -0.598024
vn -0.72546 0.451395 -0.519567
vn -0.530054 0.843232 -0.0894556
vn 0.909401 0.394505 -0.131743
vn 0.959566 -0.262074 0.102712
vn -0.125135 0.976752 0.174061
vn 0.49339 -0.804308 -0.331142
vn -0.926315 0.356794 -0.120993
vn 0.70836 -0.69301 -0.134026
vn 0.386162 0.888451 0.248059
vn -0.29544 0.944503 0.14363
vn -0.282193 -0.905487 -0.316957
vn -0.76742 -0.350208 -0.537049
vn 0.574604 0.595638 0.561289
vn 0.00339539 -0.99601 -0.0891784
vn 0.165248 -0.954152 -0.249574
vn -0.677333 -0.72987 -0.0922482
vn 0.297541 -0.939389 -0.170343
vn -0.960682 -0.199423 -0.193184
vn -0.553539 0.740401 0.381314
vn -0.316967 0.87263 0.371551
vn 0.687297 0.163902 0.707644
vn -0.15313 0.864018 0.479608
vn 0.0237878 0.881806 0.471013
vn -0.343052 -0.905593 0.249434
vn 0.519166 -0.849941 0.0898182
vn 0.781708 -0.454293 0.427261
vn 0.173481 0.803162 0.569944
vn -0.924136 -0.098456 0.369161
vn -0.0211755 0.690916 0.722625
vn 0.585281 -0.66961 0.457239
vn -0.56679 0.363316 0.739426
vn 0.266618 0.542075 0.796912
vn -0.219382 0.713897 0.664998
vn 0.284766 -0.932587 0.221787
vn -0.0143744 -0.944038 0.329523
vn -0.581268 -0.433367 0.688709
vn 0.540057 -0.109311 0.8345
vn -0.306063 -0.450768 0.83853
vn -0.0237687 -0.355433 0.9344
vn 0.279435 -0.675464 0.682397
vn 0.40644 -0.469138 0.784038
vn -0.194147 0.388782 0.900642
vn 0.30599 0.068453 0.949571
vn 0.109542 0.373399 0.921181
vn -0.298861 0.0282429 0.953879
vn -0.0402014 0.234853 0.971199
vn 0.122041 -0.0316715 0.99202
vn -0.127828 0.0697564 0.98934

g grp1
usemtl mtl1
f 1//1 2//2 3//3 
f 4//4 1//1 3//3 
f 5//5 1//1 4//4 
f 6//6 7//7 1//1 
f 5//5 6//6 1//1 
f 8//8 6//6 5//5 
f 2//2 7//7 9//9 
f 7//7 2//2 1//1 
f 10//10 8//8 5//5 
f 2//2 9//9 11//11 
f 5//5 4//4 10//10 
f 4//4 12//12 10//10 
f 2//2 13//13 3//3 
f 2//2 11//11 13//13 
f 3//3 13//13 14//14 
f 4//4 3//3 14//14 
f 6//6 15//15 7//7 
f 7//7 16//16 17//17 
f 7//7 17//17 9//9 
f 8//8 10//10 18//18 
f 9//9 17//17 11//11 
f 18//18 10//10 19//19 
f 17//17 20//20 11//11 
f 4//4 21//21 12//12 
f 14//14 22//22 4//4 
f 22//22 21//21 4//4 
f 6//6 23//23 15//15 
f 7//7 15//15 16//16 
f 6//6 8//8 23//23 
f 24//24 20//20 17//17 
f 19//19 10//10 12//12 
f 12//12 25//25 19//19 
f 13//13 11//11 20//20 
f 26//26 22//22 14//14 
f 27//27 12//12 21//21 
f 26//26 14//14 13//13 
f 27//27 21//21 22//22 
f 28//28 16//16 15//15 
f 8//8 29//29 23//23 
f 17//17 16//16 30//30 
f 8//8 18//18 29//29 
f 13//13 20//20 31//31 
f 13//13 32//32 26//26 
f 15//15 33//33 28//28 
f 23//23 33//33 15//15 
f 28//28 30//30 16//16 
f 23//23 34//34 33//33 
f 23//23 29//29 34//34 
f 30//30 35//35 17//17 
f 36//36 29//29 18//18 
f 35//35 24//24 17//17 
f 20//20 24//24 31//31 
f 25//25 12//12 27//27 
f 37//37 25//25 27//27 
f 13//13 31//31 38//38 
f 32//32 13//13 38//38 
f 22//22 26//26 39//39 
f 30//30 28//28 40//40 
f 30//30 41//41 35//35 
f 42//42 18//18 19//19 
f 19//19 25//25 42//42 
f 43//43 24//24 35//35 
f 24//24 43//43 31//31 
f 27//27 22//22 39//39 
f 33//33 40//40 28//28 
f 40//40 44//44 30//30 
f 30//30 44//44 41//41 
f 29//29 36//36 34//34 
f 36//36 18//18 42//42 
f 25//25 37//37 45//45 
f 37//37 27//27 46//46 
f 39//39 26//26 32//32 
f 41//41 43//43 35//35 
f 47//47 42//42 25//25 
f 25//25 45//45 47//47 
f 37//37 46//46 45//45 
f 32//32 38//38 48//48 
f 27//27 39//39 46//46 
f 32//32 48//48 49//49 
f 39//39 32//32 49//49 
f 46//46 39//39 50//50 
f 51//51 40//40 33//33 
f 36//36 52//52 34//34 
f 36//36 42//42 52//52 
f 43//43 41//41 53//53 
f 31//31 43//43 38//38 
f 50//50 39//39 49//49 
f 41//41 44//44 54//54 
f 42//42 55//55 52//52 
f 42//42 47//47 55//55 
f 45//45 56//56 47//47 
f 43//43 53//53 57//57 
f 43//43 57//57 38//38 
f 48//48 38//38 57//57 
f 45//45 58//58 56//56 
f 46//46 58//58 45//45 
f 46//46 50//50 58//58 
f 44//44 40//40 51//51 
f 33//33 34//34 51//51 
f 52//52 59//59 34//34 
f 53//53 41//41 54//54 
f 47//47 56//56 55//55 
f 49//49 48//48 60//60 
f 49//49 60//60 50//50 
f 51//51 61//61 44//44 
f 59//59 51//51 34//34 
f 54//54 44//44 61//61 
f 53//53 62//62 57//57 
f 56//56 58//58 63//63 
f 57//57 62//62 48//48 
f 48//48 62//62 64//64 
f 48//48 64//64 60//60 
f 65//65 63//63 50//50 
f 63//63 58//58 50//50 
f 65//65 50//50 60//60 
f 59//59 61//61 51//51 
f 61//61 66//66 54//54 
f 66//66 53//53 54//54 
f 67//67 59//59 52//52 
f 67//67 52//52 55//55 
f 56//56 67//67 55//55 
f 53//53 66//66 62//62 
f 68//68 67//67 56//56 
f 56//56 63//63 68//68 
f 64//64 65//65 60//60 
f 68//68 63//63 65//65 
f 59//59 69//69 61//61 
f 69//69 66//66 61//61 
f 70//70 69//69 59//59 
f 67//67 70//70 59//59 
f 71//71 62//62 66//66 
f 67//67 68//68 70//70 
f 64//64 62//62 71//71 
f 71//71 68//68 64//64 
f 68//68 65//65 64//64 
f 71//71 66//66 69//69 
f 68//68 71//71 69//69 
f 70//70 68//68 69//69 
f 72//72 73//73 74//74 
f 74//74 73//73 75//75 
f 76//76 72//72 74//74 
f 77//77 76//76 74//74 
f 74//74 75//75 78//78 
f 77//77 74//74 78//78 
f 78//78 75//75 79//79 
f 80//80 72//72 81//81 
f 72//72 82//82 81//81 
f 76//76 82//82 72//72 
f 72//72 80//80 73//73 
f 73//73 83//83 75//75 
f 77//77 78//78 84//84 
f 85//85 77//77 84//84 
f 79//79 75//75 83//83 
f 79//79 84//84 78//78 
f 84//84 79//79 86//86 
f 82//82 76//76 87//87 
f 73//73 80//80 88//88 
f 73//73 88//88 83//83 
f 76//76 77//77 89//89 
f 85//85 90//90 77//77 
f 79//79 83//83 91//91 
f 79//79 91//91 86//86 
f 85//85 84//84 92//92 
f 92//92 84//84 86//86 
f 80//80 81//81 93//93 
f 80//80 93//93 88//88 
f 87//87 81//81 82//82 
f 87//87 76//76 89//89 
f 83//83 88//88 94//94 
f 90//90 89//89 77//77 
f 83//83 94//94 95//95 
f 96//96 97//97 90//90 
f 83//83 95//95 91//91 
f 90//90 85//85 96//96 
f 86//86 91//91 98//98 
f 87//87 89//89 99//99 
f 88//88 100//100 94//94 
f 89//89 90//90 101//101 
f 97//97 101//101 90//90 
f 85//85 102//102 96//96 
f 98//98 91//91 103//103 
f 85//85 92//92 102//102 
f 81//81 104//104 93//93 
f 89//89 101//101 99//99 
f 93//93 105//105 88//88 
f 105//105 100//100 88//88 
f 100//100 95//95 94//94 
f 91//91 95//95 103//103 
f 106//106 97//97 96//96 
f 106//106 96//96 102//102 
f 86//86 98//98 92//92 
f 104//104 81//81 107//107 
f 81//81 108//108 107//107 
f 109//109 93//93 104//104 
f 81//81 87//87 108//108 
f 99//99 110//110 87//87 
f 87//87 110//110 108//108 
f 93//93 109//109 105//105 
f 105//105 111//111 100//100 
f 112//112 113//113 95//95 
f 106//106 114//114 97//97 
f 95//95 113//113 103//103 
f 103//103 115//115 98//98 
f 115//115 116//116 98//98 
f 92//92 98//98 116//116 
f 117//117 109//109 104//104 
f 105//105 109//109 111//111 
f 99//99 101//101 118//118 
f 101//101 97//97 119//119 
f 112//112 95//95 100//100 
f 103//103 113//113 115//115 
f 120//120 106//106 102//102 
f 92//92 116//116 120//120 
f 102//102 92//92 120//120 
f 104//104 107//107 117//117 
f 110//110 99//99 118//118 
f 111//111 109//109 121//121 
f 111//111 121//121 100//100 
f 114//114 119//119 97//97 
f 115//115 122//122 116//116 
f 122//122 120//120 116//116 
f 101//101 123//123 118//118 
f 123//123 101//101 119//119 
f 121//121 124//124 100//100 
f 112//112 100//100 124//124 
f 106//106 125//125 114//114 
f 126//126 115//115 113//113 
f 125//125 106//106 120//120 
f 122//122 125//125 120//120 
f 107//107 127//127 128//128 
f 107//107 108//108 127//127 
f 107//107 128//128 117//117 
f 110//110 127//127 108//108 
f 110//110 118//118 127//127 
f 109//109 129//129 121//121 
f 126//126 112//112 124//124 
f 113//113 112//112 126//126 
f 115//115 126//126 122//122 
f 109//109 117//117 129//129 
f 118//118 123//123 127//127 
f 119//119 130//130 123//123 
f 119//119 114//114 130//130 
f 130//130 114//114 125//125 
f 117//117 128//128 131//131 
f 132//132 131//131 128//128 
f 127//127 133//133 128//128 
f 131//131 129//129 117//117 
f 127//127 123//123 134//134 
f 129//129 124//124 121//121 
f 124//124 135//135 126//126 
f 126//126 135//135 122//122 
f 136//136 130//130 125//125 
f 137//137 125//125 122//122 
f 133//133 132//132 128//128 
f 133//133 127//127 134//134 
f 138//138 129//129 131//131 
f 138//138 124//124 129//129 
f 123//123 130//130 134//134 
f 136//136 134//134 130//130 
f 135//135 124//124 138//138 
f 136//136 125//125 137//137 
f 139//139 122//122 135//135 
f 137//137 122//122 139//139 
f 140//140 141//141 132//132 
f 133//133 140//140 132//132 
f 133//133 134//134 140//140 
f 138//138 131//131 141//141 
f 132//132 141//141 131//131 
f 141//141 135//135 138//138 
f 139//139 135//135 141//141 
f 139//139 140//140 137//137 
f 136//136 137//137 140//140 
f 134//134 136//136 140//140 
f 140//140 139//139 141//141 
