# Blender v2.92.0 OBJ File: 'convert_to_one_sided.blend'
# www.blender.org
mtllib 963L.mtl
o Cube
v 0.001000 0.001000 -0.001000
v 0.001000 -0.001000 -0.001000
v 0.001000 0.001000 0.001000
v 0.001000 -0.001000 0.001000
v -0.001000 0.001000 -0.001000
v -0.001000 -0.001000 -0.001000
v -0.001000 0.001000 0.001000
v -0.001000 -0.001000 0.001000
vt 0.625000 0.500000
vt 0.875000 0.500000
vt 0.875000 0.750000
vt 0.625000 0.750000
vt 0.375000 0.750000
vt 0.625000 1.000000
vt 0.375000 1.000000
vt 0.375000 0.000000
vt 0.625000 0.000000
vt 0.625000 0.250000
vt 0.375000 0.250000
vt 0.125000 0.500000
vt 0.375000 0.500000
vt 0.125000 0.750000
vn 0.0000 1.0000 0.0000
vn 0.0000 0.0000 1.0000
vn -1.0000 0.0000 0.0000
vn 0.0000 -1.0000 0.0000
vn 1.0000 0.0000 0.0000
vn 0.0000 0.0000 -1.0000
usemtl Material
s off
f 1/1/1 5/2/1 7/3/1 3/4/1
f 4/5/2 3/4/2 7/6/2 8/7/2
f 8/8/3 7/9/3 5/10/3 6/11/3
f 6/12/4 2/13/4 4/5/4 8/14/4
f 2/13/5 1/1/5 3/4/5 4/5/5
f 6/11/6 5/10/6 1/1/6 2/13/6
o 963
v 11.877347 6.938140 3.782172
v 11.761249 6.959930 3.792582
v 11.850247 6.980900 3.790582
v 11.987445 6.991439 3.805552
v 11.968646 6.931301 3.798222
v 11.893847 6.905200 3.805512
v 11.767249 6.922531 3.808902
v 12.001145 6.921401 3.821982
v 11.714549 6.954400 3.804112
v 12.047845 6.961130 3.827282
v 11.700749 6.964720 3.809162
v 12.091944 7.010429 3.850222
v 11.774649 7.024669 3.847902
v 11.919847 7.035329 3.834642
v 11.831347 6.891911 3.843292
v 11.739749 6.904961 3.842422
v 11.688750 6.950690 3.838562
v 12.078844 6.957460 3.867821
v 12.105644 6.993740 3.874741
v 11.689050 6.984829 3.852582
v 12.075644 7.041399 3.852022
v 12.023046 7.065009 3.866581
v 11.939146 6.903831 3.862822
v 11.664949 6.989990 3.885401
v 12.151544 7.048979 3.919491
v 11.928747 7.076869 3.880751
v 12.112644 7.067899 3.903871
v 11.771548 6.897420 3.879481
v 12.021746 6.931410 3.878081
v 11.701449 6.933370 3.896571
v 11.698050 7.016599 3.893651
v 11.878347 7.100808 3.931170
v 11.850447 6.907381 3.910221
v 11.968646 6.945830 3.946250
v 11.673850 6.972910 3.898591
v 12.054944 6.966080 3.926941
v 12.163343 7.076118 3.941630
v 11.763448 7.062099 3.936291
v 12.029145 7.105448 3.934850
v 11.775448 6.922770 3.931281
v 11.693250 6.981919 3.953360
v 12.109144 7.010209 3.939150
v 11.709350 7.017199 3.939651
v 11.757149 6.961200 3.974590
v 12.166943 7.081908 3.966710
v 12.128844 7.096948 3.959960
v 12.148244 7.061079 3.970860
v 11.868947 7.111358 3.999970
v 11.967846 7.123638 3.980200
v 12.060945 7.121008 3.999750
v 11.852947 6.953840 3.977070
v 12.055345 7.006669 3.988660
v 11.749049 7.034009 4.003109
v 11.761448 7.005889 4.006299
v 12.119044 7.048439 3.992260
v 12.128943 7.090629 4.005139
v 11.781749 7.061259 3.987650
v 12.125244 7.097598 3.993130
v 11.955946 7.011099 4.023619
v 11.973746 7.124348 4.016159
v 11.836548 7.005879 4.020079
v 11.838347 7.078748 4.027129
v 12.081144 7.111288 4.018959
v 11.944046 7.110828 4.034149
v 12.024546 7.115978 4.023469
v 11.828748 7.042159 4.032749
v 12.054245 7.058399 4.022509
v 12.003345 7.087178 4.038939
v 11.918346 7.049549 4.043429
v 11.982145 7.052719 4.031679
v 11.906446 7.073879 4.033719
vn 0.0097 -0.1972 -0.9803
vn -0.1871 0.1294 -0.9738
vn -0.0478 0.4783 -0.8769
vn 0.2023 0.3077 -0.9297
vn 0.2799 -0.3741 -0.8841
vn 0.0697 -0.8317 -0.5508
vn -0.2394 -0.6651 -0.7073
vn 0.3908 -0.8447 -0.3658
vn -0.4473 -0.3981 -0.8009
vn 0.5670 -0.3320 -0.7539
vn -0.5970 0.2910 -0.7476
vn 0.6216 0.1040 -0.7764
vn -0.2483 0.7677 -0.5907
vn -0.0234 0.6833 -0.7298
vn -0.0270 -0.9885 -0.1489
vn -0.3992 -0.8812 -0.2534
vn -0.8182 -0.4262 -0.3858
vn 0.6415 -0.7645 -0.0632
vn 0.8095 -0.4815 -0.3359
vn -0.6705 0.5438 -0.5046
vn 0.3382 0.5356 -0.7738
vn 0.0976 0.7522 -0.6517
vn 0.1871 -0.9762 0.1099
vn -0.9313 0.3498 -0.1020
vn 0.9155 -0.2319 -0.3287
vn -0.0544 0.8207 -0.5688
vn 0.4108 0.6529 -0.6364
vn -0.1913 -0.9528 0.2358
vn 0.3500 -0.9108 0.2191
vn -0.5806 -0.7584 0.2963
vn -0.5475 0.8064 -0.2237
vn -0.1709 0.9189 -0.3556
vn 0.0517 -0.9162 0.3975
vn 0.2047 -0.8332 0.5136
vn -0.9484 -0.2007 0.2454
vn 0.4269 -0.8086 0.4049
vn 0.6830 0.5479 -0.4830
vn -0.4737 0.8773 -0.0774
vn 0.0928 0.9038 -0.4179
vn -0.1722 -0.8306 0.5295
vn -0.7635 -0.1979 0.6147
vn 0.6468 -0.7062 0.2880
vn -0.7532 0.5898 0.2913
vn -0.2704 -0.6658 0.6954
vn 0.9125 0.3525 0.2078
vn 0.3422 0.9098 -0.2346
vn 0.7599 -0.4978 0.4180
vn -0.3110 0.9285 0.2030
vn -0.0386 0.9866 -0.1586
vn 0.1808 0.9810 0.0700
vn 0.0105 -0.7452 0.6668
vn 0.3457 -0.6911 0.6347
vn -0.6089 0.3822 0.6951
vn -0.3616 -0.3065 0.8805
vn 0.4986 -0.5478 0.6718
vn 0.5510 0.0689 0.8316
vn -0.5491 0.7801 0.2998
vn 0.4799 0.8335 0.2738
vn 0.1326 -0.5410 0.8305
vn -0.0300 0.9511 0.3074
vn -0.0853 -0.4951 0.8647
vn -0.3362 0.5305 0.7781
vn 0.3053 0.6767 0.6700
vn -0.0935 0.5683 0.8175
vn 0.0986 0.7337 0.6722
vn -0.2156 0.0092 0.9764
vn 0.2531 -0.3394 0.9059
vn 0.1197 0.1005 0.9877
vn 0.0095 -0.1466 0.9892
vn 0.1617 -0.2792 0.9465
vn -0.0999 0.2049 0.9737
usemtl mtl1.840
s 1
f 9//7 10//8 11//9
f 12//10 9//7 11//9
f 13//11 9//7 12//10
f 14//12 15//13 9//7
f 13//11 14//12 9//7
f 16//14 14//12 13//11
f 10//8 15//13 17//15
f 15//13 10//8 9//7
f 18//16 16//14 13//11
f 10//8 17//15 19//17
f 13//11 12//10 18//16
f 12//10 20//18 18//16
f 10//8 21//19 11//9
f 10//8 19//17 21//19
f 11//9 21//19 22//20
f 12//10 11//9 22//20
f 14//12 23//21 15//13
f 15//13 24//22 25//23
f 15//13 25//23 17//15
f 16//14 18//16 26//24
f 17//15 25//23 19//17
f 26//24 18//16 27//25
f 25//23 28//26 19//17
f 12//10 29//27 20//18
f 22//20 30//28 12//10
f 30//28 29//27 12//10
f 14//12 31//29 23//21
f 15//13 23//21 24//22
f 14//12 16//14 31//29
f 32//30 28//26 25//23
f 27//25 18//16 20//18
f 20//18 33//31 27//25
f 21//19 19//17 28//26
f 34//32 30//28 22//20
f 35//33 20//18 29//27
f 34//32 22//20 21//19
f 35//33 29//27 30//28
f 36//34 24//22 23//21
f 16//14 37//35 31//29
f 25//23 24//22 38//36
f 16//14 26//24 37//35
f 21//19 28//26 39//37
f 21//19 40//38 34//32
f 23//21 41//39 36//34
f 31//29 41//39 23//21
f 36//34 38//36 24//22
f 31//29 42//40 41//39
f 31//29 37//35 42//40
f 38//36 43//41 25//23
f 44//42 37//35 26//24
f 43//41 32//30 25//23
f 28//26 32//30 39//37
f 33//31 20//18 35//33
f 45//43 33//31 35//33
f 21//19 39//37 46//44
f 40//38 21//19 46//44
f 30//28 34//32 47//45
f 38//36 36//34 48//46
f 38//36 49//47 43//41
f 50//48 26//24 27//25
f 27//25 33//31 50//48
f 51//49 32//30 43//41
f 32//30 51//49 39//37
f 35//33 30//28 47//45
f 41//39 48//46 36//34
f 48//46 52//50 38//36
f 38//36 52//50 49//47
f 37//35 44//42 42//40
f 44//42 26//24 50//48
f 33//31 45//43 53//51
f 45//43 35//33 54//52
f 47//45 34//32 40//38
f 49//47 51//49 43//41
f 55//53 50//48 33//31
f 33//31 53//51 55//53
f 45//43 54//52 53//51
f 40//38 46//44 56//54
f 35//33 47//45 54//52
f 40//38 56//54 57//55
f 47//45 40//38 57//55
f 54//52 47//45 58//56
f 59//57 48//46 41//39
f 44//42 60//58 42//40
f 44//42 50//48 60//58
f 51//49 49//47 61//59
f 39//37 51//49 46//44
f 58//56 47//45 57//55
f 49//47 52//50 62//60
f 50//48 63//61 60//58
f 50//48 55//53 63//61
f 53//51 64//62 55//53
f 51//49 61//59 65//63
f 51//49 65//63 46//44
f 56//54 46//44 65//63
f 53//51 66//64 64//62
f 54//52 66//64 53//51
f 54//52 58//56 66//64
f 52//50 48//46 59//57
f 41//39 42//40 59//57
f 60//58 67//65 42//40
f 61//59 49//47 62//60
f 55//53 64//62 63//61
f 57//55 56//54 68//66
f 57//55 68//66 58//56
f 59//57 69//67 52//50
f 67//65 59//57 42//40
f 62//60 52//50 69//67
f 61//59 70//68 65//63
f 64//62 66//64 71//69
f 65//63 70//68 56//54
f 56//54 70//68 72//70
f 56//54 72//70 68//66
f 73//71 71//69 58//56
f 71//69 66//64 58//56
f 73//71 58//56 68//66
f 67//65 69//67 59//57
f 69//67 74//72 62//60
f 74//72 61//59 62//60
f 75//73 67//65 60//58
f 75//73 60//58 63//61
f 64//62 75//73 63//61
f 61//59 74//72 70//68
f 76//74 75//73 64//62
f 64//62 71//69 76//74
f 72//70 73//71 68//66
f 76//74 71//69 73//71
f 67//65 77//75 69//67
f 77//75 74//72 69//67
f 78//76 77//75 67//65
f 75//73 78//76 67//65
f 79//77 70//68 74//72
f 75//73 76//74 78//76
f 72//70 70//68 79//77
f 79//77 76//74 72//70
f 76//74 73//71 72//70
f 79//77 74//72 77//75
f 76//74 79//77 77//75
f 78//76 76//74 77//75
