# Blender v2.92.0 OBJ File: 'convert_to_one_sided.blend'
# www.blender.org
mtllib 970L.mtl
o 970
v 11.306954 5.357830 5.111385
v 11.211856 5.341000 5.110915
v 11.287954 5.409789 5.116855
v 11.177556 5.392099 5.118875
v 11.298354 5.294311 5.135925
v 11.177056 5.267421 5.144814
v 11.122156 5.334260 5.138255
v 11.425153 5.349730 5.144375
v 11.108557 5.414090 5.144855
v 11.421554 5.389320 5.140915
v 11.460552 5.434979 5.154635
v 11.334454 5.460089 5.139175
v 11.208956 5.449209 5.139815
v 11.239855 5.236052 5.161785
v 11.107357 5.265652 5.163064
v 11.357654 5.248081 5.172944
v 11.462152 5.309401 5.170324
v 11.065957 5.294551 5.170324
v 11.034657 5.359140 5.191344
v 11.113457 5.459749 5.169704
v 11.483352 5.475859 5.176044
v 11.325154 5.482948 5.163095
v 11.160256 5.216172 5.191374
v 11.279855 5.206852 5.202624
v 11.068657 5.241112 5.205484
v 11.477352 5.265521 5.196554
v 11.574751 5.384160 5.182604
v 11.051558 5.434139 5.199614
v 11.183156 5.484248 5.180034
v 11.354653 5.500278 5.203724
v 11.423853 5.228202 5.217834
v 11.014258 5.282001 5.225654
v 11.614051 5.314061 5.215234
v 11.621251 5.452349 5.198294
v 11.091657 5.475829 5.216693
v 11.483652 5.493629 5.203944
v 11.208256 5.182312 5.235884
v 11.089558 5.193923 5.276083
v 11.559252 5.260251 5.239473
v 11.496252 5.224782 5.259583
v 11.021658 5.232532 5.268173
v 10.964458 5.330020 5.276143
v 11.716849 5.373980 5.220334
v 10.987859 5.392930 5.255303
v 11.739449 5.441139 5.224384
v 11.013958 5.446279 5.284733
v 11.699949 5.473828 5.223274
v 11.632650 5.489569 5.225284
v 11.238855 5.500328 5.268223
v 11.352154 5.196052 5.257783
v 10.974559 5.254931 5.318053
v 11.682750 5.292851 5.265343
v 11.748749 5.342870 5.250753
v 11.809948 5.410510 5.253433
v 11.849048 5.382820 5.285783
v 11.848348 5.476068 5.267503
v 11.758348 5.488288 5.252733
v 11.485652 5.508568 5.312512
v 11.206356 5.174973 5.344012
v 11.604950 5.256112 5.281263
v 11.796648 5.333960 5.299053
v 10.952159 5.367400 5.300513
v 11.910747 5.456799 5.300793
v 11.089457 5.486419 5.352832
v 11.718550 5.512698 5.286373
v 11.873347 5.526918 5.318492
v 11.503451 5.219682 5.373342
v 11.900947 5.388670 5.344452
v 11.930346 5.432729 5.333712
v 10.958158 5.393559 5.351352
v 11.936847 5.512858 5.324633
v 11.243555 5.503938 5.427881
v 11.694949 5.520508 5.368642
v 11.341454 5.188772 5.363842
v 11.003458 5.209002 5.355222
v 11.708448 5.289121 5.353722
v 10.940760 5.293711 5.381622
v 11.841847 5.349020 5.372632
v 10.947760 5.347570 5.351632
v 11.974846 5.481049 5.351042
v 10.984159 5.441189 5.407431
v 11.965746 5.506508 5.338272
v 11.025958 5.468339 5.406152
v 11.987746 5.531198 5.361412
v 11.806848 5.534048 5.384041
v 11.061058 5.187283 5.404711
v 11.998546 5.522458 5.385412
v 11.579851 5.513158 5.419001
v 11.975746 5.546048 5.389362
v 10.963359 5.244021 5.424511
v 11.451352 5.506698 5.434081
v 11.911946 5.551427 5.418191
v 11.001859 5.213242 5.419751
v 11.315354 5.186992 5.446661
v 11.645150 5.265381 5.465540
v 11.805348 5.331980 5.438601
v 11.921547 5.404269 5.426672
v 11.961646 5.452979 5.386102
v 11.019658 5.463069 5.487220
v 11.089758 5.483988 5.439661
v 11.995246 5.499378 5.405371
v 11.998746 5.538858 5.406261
v 11.176455 5.179042 5.438891
v 11.454952 5.211332 5.474201
v 11.533051 5.232332 5.461841
v 10.940060 5.340050 5.427811
v 10.968658 5.400170 5.468980
v 12.000945 5.527868 5.439931
v 11.708649 5.519588 5.441311
v 10.943259 5.296181 5.454241
v 11.976747 5.474288 5.443131
v 11.849048 5.539238 5.459911
v 11.993145 5.547178 5.438821
v 11.970145 5.554148 5.443661
v 11.878847 5.379850 5.492401
v 11.935547 5.549128 5.466560
v 11.098657 5.189652 5.472910
v 11.012259 5.227072 5.472960
v 11.947346 5.446279 5.487980
v 11.554951 5.500928 5.484370
v 11.970846 5.530888 5.479490
v 11.181955 5.189832 5.482440
v 10.962158 5.285461 5.493910
v 11.738249 5.319180 5.509030
v 10.954760 5.337451 5.492290
v 11.972146 5.495458 5.475201
v 11.123057 5.486009 5.498290
v 11.368854 5.501419 5.482190
v 11.132856 5.219062 5.516380
v 11.266255 5.202462 5.502620
v 11.377453 5.210162 5.499070
v 11.500352 5.237612 5.503160
v 11.599851 5.274181 5.516280
v 11.837348 5.368360 5.525870
v 11.901247 5.414809 5.516530
v 11.008658 5.433469 5.524430
v 11.385953 5.482489 5.526240
v 11.255055 5.492388 5.497400
v 11.731849 5.511628 5.494190
v 11.876047 5.521228 5.498820
v 10.974059 5.335600 5.539780
v 10.990059 5.384630 5.529740
v 11.936946 5.472438 5.511170
v 11.067758 5.462039 5.524880
v 11.597450 5.484399 5.515880
v 11.723549 5.481419 5.526690
v 11.197056 5.470748 5.534660
v 11.923047 5.498609 5.516170
v 11.125856 5.277651 5.558209
v 11.348554 5.247612 5.529980
v 11.033558 5.284121 5.526040
v 11.507352 5.262121 5.526229
v 11.561551 5.292101 5.534959
v 11.743948 5.340060 5.534900
v 11.843147 5.401760 5.535270
v 11.883946 5.456339 5.533890
v 11.519152 5.455919 5.542689
v 11.707649 5.449359 5.547459
v 11.313054 5.458539 5.549059
v 11.824748 5.469539 5.530110
v 11.315354 5.321460 5.559629
v 11.143856 5.328520 5.571189
v 11.066358 5.341671 5.561900
v 11.596450 5.368240 5.551090
v 11.027259 5.380209 5.557249
v 11.339454 5.406670 5.562819
v 11.598051 5.420650 5.552820
v 11.743049 5.429199 5.541110
v 11.075258 5.429949 5.544539
v 11.199955 5.437069 5.554110
v 11.187655 5.358960 5.568259
v 11.147857 5.392400 5.557570
vn 0.1531 -0.1105 -0.9820
vn -0.0853 -0.1568 -0.9839
vn 0.0560 0.2308 -0.9714
vn -0.1945 0.1866 -0.9630
vn 0.1324 -0.4152 -0.9001
vn -0.1261 -0.4618 -0.8780
vn -0.3632 -0.1238 -0.9235
vn 0.2572 -0.2365 -0.9370
vn -0.4239 0.2795 -0.8615
vn 0.2375 0.0457 -0.9703
vn 0.2146 0.2183 -0.9520
vn 0.0692 0.5190 -0.8520
vn -0.1190 0.5624 -0.8183
vn 0.0343 -0.6419 -0.7660
vn -0.3137 -0.4835 -0.8172
vn 0.1933 -0.6108 -0.7678
vn 0.2569 -0.3759 -0.8903
vn -0.5441 -0.2741 -0.7930
vn -0.6751 0.0520 -0.7359
vn -0.3453 0.6705 -0.6567
vn 0.1533 0.6360 -0.7563
vn 0.0078 0.8161 -0.5778
vn -0.1659 -0.7685 -0.6180
vn 0.1041 -0.8330 -0.5434
vn -0.4609 -0.6571 -0.5965
vn 0.2710 -0.6025 -0.7507
vn 0.2622 -0.0986 -0.9600
vn -0.6402 0.5057 -0.5783
vn -0.1235 0.8996 -0.4189
vn -0.0073 0.9734 -0.2289
vn 0.2216 -0.8112 -0.5412
vn -0.7205 -0.3613 -0.5919
vn 0.2989 -0.4944 -0.8162
vn 0.2104 0.3243 -0.9223
vn -0.3562 0.8951 -0.2683
vn 0.0704 0.9275 -0.3670
vn -0.0232 -0.9484 -0.3161
vn -0.2777 -0.9197 -0.2777
vn 0.3090 -0.7600 -0.5718
vn 0.2605 -0.9162 -0.3045
vn -0.5854 -0.6928 -0.4212
vn -0.8907 -0.1069 -0.4419
vn 0.3239 -0.2510 -0.9122
vn -0.7985 0.3733 -0.4723
vn 0.2910 0.1569 -0.9438
vn -0.6231 0.7503 -0.2208
vn 0.2133 0.4962 -0.8416
vn 0.1050 0.8167 -0.5674
vn -0.0851 0.9938 -0.0716
vn 0.1598 -0.9656 -0.2050
vn -0.8071 -0.5033 -0.3087
vn 0.3712 -0.8035 -0.4655
vn 0.4084 -0.5466 -0.7310
vn 0.4315 -0.1874 -0.8824
vn 0.5578 -0.5083 -0.6561
vn 0.3418 0.3185 -0.8841
vn 0.1876 0.6649 -0.7230
vn -0.0161 0.9964 -0.0836
vn 0.0062 -0.9996 -0.0281
vn 0.3357 -0.9139 -0.2284
vn 0.4722 -0.8154 -0.3350
vn -0.9425 0.2032 -0.2654
vn 0.5668 -0.1341 -0.8129
vn -0.2394 0.9699 -0.0448
vn -0.0122 0.9538 -0.3001
vn 0.0821 0.8717 -0.4831
vn 0.2469 -0.9690 -0.0088
vn 0.6526 -0.7193 -0.2381
vn 0.7135 -0.5141 -0.4761
vn -0.8922 0.4423 -0.0919
vn 0.3530 0.5202 -0.7776
vn -0.0650 0.9960 0.0606
vn -0.0738 0.9967 -0.0332
vn 0.1462 -0.9892 -0.0142
vn -0.5474 -0.8252 -0.1391
vn 0.3768 -0.9242 -0.0625
vn -0.9726 -0.2019 -0.1152
vn 0.4907 -0.8708 -0.0300
vn -0.9911 0.0676 -0.1150
vn 0.8184 -0.3521 -0.4542
vn -0.7311 0.6822 0.0020
vn 0.6742 0.0517 -0.7368
vn -0.4048 0.9140 -0.0285
vn 0.6478 0.5145 -0.5619
vn -0.1130 0.9909 -0.0724
vn -0.2438 -0.9668 0.0763
vn 0.9529 -0.0125 -0.3032
vn -0.0540 0.9958 0.0733
vn 0.2503 0.9224 -0.2942
vn -0.7755 -0.6207 0.1154
vn -0.0213 0.9967 0.0783
vn -0.0737 0.9958 -0.0546
vn -0.4876 -0.8548 0.1775
vn 0.1012 -0.9803 0.1699
vn 0.3226 -0.9227 0.2110
vn 0.4491 -0.8877 0.1014
vn 0.6682 -0.7416 0.0589
vn 0.7907 -0.6021 -0.1110
vn -0.4870 0.8449 0.2212
vn -0.2020 0.9780 0.0521
vn 0.9158 -0.3991 -0.0461
vn 0.8181 0.5557 -0.1478
vn -0.0230 -0.9905 0.1353
vn 0.2064 -0.9471 0.2457
vn 0.2776 -0.9400 0.1982
vn -0.9842 0.1650 0.0647
vn -0.8697 0.4364 0.2307
vn 0.9636 0.0125 0.2670
vn -0.1043 0.9885 0.1097
vn -0.9571 -0.2038 0.2060
vn 0.8514 -0.4923 0.1810
vn -0.1353 0.9636 0.2304
vn 0.6316 0.7505 0.1946
vn 0.1899 0.9620 0.1961
vn 0.5544 -0.7864 0.2725
vn 0.0050 0.9091 0.4164
vn -0.1823 -0.9043 0.3861
vn -0.4276 -0.7510 0.5032
vn 0.7634 -0.5030 0.4052
vn -0.0350 0.9552 0.2939
vn 0.4987 0.4896 0.7153
vn -0.0043 -0.9102 0.4142
vn -0.7162 -0.4546 0.5295
vn 0.3260 -0.8141 0.4805
vn -0.9245 0.1200 0.3619
vn 0.8186 -0.1827 0.5446
vn -0.1340 0.9486 0.2868
vn -0.0182 0.9709 0.2389
vn -0.1395 -0.6677 0.7312
vn 0.0412 -0.7981 0.6011
vn 0.1101 -0.8212 0.5599
vn 0.1980 -0.8102 0.5517
vn 0.2304 -0.7136 0.6616
vn 0.3873 -0.6354 0.6681
vn 0.5503 -0.4565 0.6991
vn -0.5576 0.5322 0.6370
vn 0.0016 0.8147 0.5799
vn -0.0401 0.9387 0.3423
vn -0.0845 0.8790 0.4693
vn -0.0132 0.7176 0.6964
vn -0.5870 -0.1170 0.8011
vn -0.6690 0.3702 0.6445
vn 0.5666 -0.1164 0.8157
vn -0.2258 0.7344 0.6400
vn -0.0239 0.7771 0.6289
vn -0.0151 0.6332 0.7739
vn -0.0651 0.7098 0.7014
vn 0.2144 0.3790 0.9002
vn -0.1071 -0.3940 0.9128
vn 0.0612 -0.5256 0.8485
vn -0.3158 -0.5138 0.7977
vn 0.1188 -0.5928 0.7965
vn 0.1209 -0.4403 0.8897
vn 0.1754 -0.4766 0.8614
vn 0.2291 -0.1897 0.9547
vn 0.1882 0.0743 0.9793
vn 0.0084 0.4932 0.8699
vn 0.0527 0.2463 0.9678
vn -0.0014 0.4881 0.8728
vn 0.0374 0.3669 0.9295
vn 0.0580 -0.1875 0.9805
vn -0.0289 -0.0685 0.9972
vn -0.1649 -0.0818 0.9829
vn 0.0641 -0.1087 0.9920
vn -0.2656 0.2459 0.9322
vn 0.0126 0.1404 0.9900
vn 0.0418 0.0802 0.9959
vn 0.0751 0.0150 0.9971
vn -0.1903 0.4048 0.8944
vn -0.0573 0.3214 0.9452
vn -0.0198 0.1208 0.9925
vn -0.0527 0.1927 0.9798
usemtl mtl1.1666
s 1
f 1//1 2//2 3//3
f 3//3 2//2 4//4
f 5//5 6//6 2//2
f 1//1 5//5 2//2
f 2//2 6//6 7//7
f 8//8 5//5 1//1
f 2//2 7//7 4//4
f 4//4 7//7 9//9
f 10//10 8//8 1//1
f 10//10 1//1 3//3
f 11//11 10//10 3//3
f 11//11 3//3 12//12
f 9//9 13//13 4//4
f 3//3 4//4 13//13
f 13//13 12//12 3//3
f 6//6 5//5 14//14
f 6//6 15//15 7//7
f 16//16 5//5 17//17
f 7//7 15//15 18//18
f 17//17 5//5 8//8
f 7//7 18//18 19//19
f 7//7 19//19 9//9
f 9//9 20//20 13//13
f 12//12 21//21 11//11
f 13//13 22//22 12//12
f 22//22 21//21 12//12
f 6//6 14//14 23//23
f 14//14 16//16 24//24
f 6//6 23//23 15//15
f 16//16 14//14 5//5
f 15//15 25//25 18//18
f 17//17 26//26 16//16
f 17//17 8//8 27//27
f 27//27 8//8 10//10
f 19//19 28//28 9//9
f 27//27 10//10 11//11
f 28//28 20//20 9//9
f 13//13 20//20 29//29
f 29//29 22//22 13//13
f 30//30 22//22 29//29
f 23//23 14//14 24//24
f 15//15 23//23 25//25
f 16//16 31//31 24//24
f 26//26 31//31 16//16
f 25//25 32//32 18//18
f 33//33 26//26 17//17
f 19//19 18//18 32//32
f 33//33 17//17 27//27
f 27//27 11//11 34//34
f 20//20 28//28 35//35
f 11//11 21//21 34//34
f 20//20 35//35 29//29
f 22//22 36//36 21//21
f 36//36 22//22 30//30
f 23//23 24//24 37//37
f 25//25 23//23 38//38
f 31//31 39//39 40//40
f 32//32 25//25 41//41
f 39//39 31//31 26//26
f 33//33 39//39 26//26
f 32//32 42//42 19//19
f 43//43 33//33 27//27
f 19//19 44//44 28//28
f 42//42 44//44 19//19
f 43//43 27//27 45//45
f 28//28 44//44 46//46
f 45//45 27//27 34//34
f 45//45 34//34 47//47
f 21//21 48//48 34//34
f 47//47 34//34 48//48
f 36//36 48//48 21//21
f 29//29 35//35 49//49
f 29//29 49//49 30//30
f 38//38 23//23 37//37
f 24//24 50//50 37//37
f 41//41 25//25 38//38
f 31//31 50//50 24//24
f 51//51 32//32 41//41
f 39//39 33//33 52//52
f 33//33 53//53 52//52
f 33//33 43//43 53//53
f 54//54 53//53 43//43
f 53//53 54//54 55//55
f 54//54 43//43 45//45
f 56//56 54//54 45//45
f 35//35 28//28 46//46
f 47//47 57//57 45//45
f 45//45 57//57 56//56
f 47//47 48//48 57//57
f 30//30 49//49 58//58
f 36//36 30//30 58//58
f 48//48 36//36 58//58
f 37//37 59//59 38//38
f 37//37 50//50 59//59
f 31//31 40//40 50//50
f 40//40 39//39 60//60
f 39//39 52//52 60//60
f 51//51 42//42 32//32
f 53//53 61//61 52//52
f 53//53 55//55 61//61
f 62//62 44//44 42//42
f 55//55 54//54 63//63
f 63//63 54//54 56//56
f 35//35 64//64 49//49
f 48//48 58//58 65//65
f 57//57 48//48 65//65
f 66//66 57//57 65//65
f 56//56 57//57 66//66
f 40//40 67//67 50//50
f 55//55 68//68 61//61
f 55//55 63//63 69//69
f 70//70 44//44 62//62
f 46//46 44//44 70//70
f 56//56 71//71 63//63
f 35//35 46//46 64//64
f 49//49 72//72 58//58
f 58//58 73//73 65//65
f 66//66 71//71 56//56
f 50//50 74//74 59//59
f 75//75 41//41 38//38
f 50//50 67//67 74//74
f 52//52 76//76 60//60
f 52//52 61//61 76//76
f 51//51 77//77 42//42
f 61//61 68//68 78//78
f 79//79 62//62 42//42
f 69//69 63//63 80//80
f 46//46 70//70 81//81
f 82//82 80//80 63//63
f 46//46 83//83 64//64
f 63//63 71//71 82//82
f 84//84 82//82 71//71
f 66//66 65//65 85//85
f 38//38 59//59 86//86
f 41//41 75//75 51//51
f 60//60 67//67 40//40
f 60//60 76//76 67//67
f 61//61 78//78 76//76
f 42//42 77//77 79//79
f 79//79 70//70 62//62
f 55//55 69//69 68//68
f 46//46 81//81 83//83
f 80//80 82//82 87//87
f 58//58 88//88 73//73
f 82//82 84//84 87//87
f 65//65 73//73 85//85
f 71//71 89//89 84//84
f 66//66 89//89 71//71
f 75//75 38//38 86//86
f 51//51 90//90 77//77
f 90//90 51//51 75//75
f 64//64 72//72 49//49
f 58//58 91//91 88//88
f 89//89 66//66 92//92
f 66//66 85//85 92//92
f 75//75 86//86 93//93
f 59//59 74//74 94//94
f 74//74 67//67 94//94
f 75//75 93//93 90//90
f 76//76 95//95 67//67
f 96//96 76//76 78//78
f 68//68 97//97 78//78
f 68//68 98//98 97//97
f 69//69 98//98 68//68
f 98//98 69//69 80//80
f 81//81 99//99 83//83
f 83//83 100//100 64//64
f 101//101 80//80 87//87
f 64//64 100//100 72//72
f 58//58 72//72 91//91
f 87//87 84//84 102//102
f 89//89 102//102 84//84
f 59//59 103//103 86//86
f 67//67 104//104 94//94
f 105//105 67//67 95//95
f 77//77 106//106 79//79
f 78//78 97//97 96//96
f 107//107 81//81 70//70
f 98//98 80//80 101//101
f 87//87 102//102 108//108
f 87//87 108//108 101//101
f 73//73 109//109 85//85
f 59//59 94//94 103//103
f 67//67 105//105 104//104
f 110//110 77//77 90//90
f 76//76 96//96 95//95
f 98//98 101//101 111//111
f 73//73 88//88 109//109
f 85//85 109//109 112//112
f 92//92 85//85 112//112
f 102//102 89//89 113//113
f 89//89 92//92 114//114
f 77//77 110//110 106//106
f 115//115 96//96 97//97
f 70//70 79//79 106//106
f 70//70 106//106 107//107
f 98//98 111//111 97//97
f 107//107 99//99 81//81
f 111//111 101//101 108//108
f 102//102 113//113 108//108
f 92//92 112//112 116//116
f 92//92 116//116 114//114
f 114//114 113//113 89//89
f 103//103 117//117 86//86
f 86//86 118//118 93//93
f 93//93 118//118 90//90
f 119//119 115//115 97//97
f 111//111 119//119 97//97
f 83//83 99//99 100//100
f 88//88 91//91 120//120
f 88//88 120//120 109//109
f 113//113 121//121 108//108
f 113//113 114//114 121//121
f 103//103 122//122 117//117
f 94//94 122//122 103//103
f 117//117 118//118 86//86
f 90//90 123//123 110//110
f 118//118 123//123 90//90
f 96//96 115//115 124//124
f 125//125 107//107 106//106
f 111//111 108//108 126//126
f 72//72 100//100 127//127
f 91//91 72//72 128//128
f 120//120 91//91 128//128
f 129//129 118//118 117//117
f 129//129 117//117 122//122
f 130//130 129//129 122//122
f 94//94 130//130 122//122
f 131//131 130//130 94//94
f 104//104 131//131 94//94
f 104//104 132//132 131//131
f 105//105 132//132 104//104
f 95//95 133//133 132//132
f 110//110 123//123 125//125
f 95//95 124//124 133//133
f 96//96 124//124 95//95
f 110//110 125//125 106//106
f 115//115 134//134 124//124
f 115//115 135//135 134//134
f 119//119 135//135 115//115
f 136//136 99//99 107//107
f 126//126 119//119 111//111
f 100//100 99//99 127//127
f 128//128 137//137 120//120
f 72//72 127//127 138//138
f 128//128 72//72 138//138
f 139//139 109//109 120//120
f 126//126 108//108 121//121
f 112//112 109//109 139//139
f 112//112 139//139 140//140
f 112//112 140//140 116//116
f 114//114 116//116 121//121
f 105//105 95//95 132//132
f 141//141 142//142 125//125
f 142//142 107//107 125//125
f 142//142 136//136 107//107
f 119//119 143//143 135//135
f 119//119 126//126 143//143
f 144//144 99//99 136//136
f 137//137 145//145 120//120
f 145//145 146//146 139//139
f 127//127 99//99 144//144
f 127//127 147//147 138//138
f 138//138 137//137 128//128
f 147//147 137//137 138//138
f 139//139 120//120 145//145
f 126//126 121//121 143//143
f 143//143 121//121 148//148
f 140//140 139//139 146//146
f 148//148 121//121 140//140
f 121//121 116//116 140//140
f 149//149 129//129 150//150
f 129//129 130//130 150//150
f 130//130 131//131 150//150
f 150//150 131//131 132//132
f 129//129 151//151 118//118
f 129//129 149//149 151//151
f 132//132 152//152 150//150
f 118//118 151//151 123//123
f 152//152 132//132 133//133
f 153//153 152//152 133//133
f 123//123 151//151 141//141
f 124//124 153//153 133//133
f 154//154 153//153 124//124
f 123//123 141//141 125//125
f 154//154 124//124 134//134
f 155//155 154//154 134//134
f 134//134 135//135 155//155
f 155//155 143//143 156//156
f 155//155 135//135 143//143
f 157//157 146//146 145//145
f 158//158 146//146 157//157
f 157//157 137//137 159//159
f 145//145 137//137 157//157
f 146//146 158//158 160//160
f 127//127 144//144 147//147
f 137//137 147//147 159//159
f 140//140 160//160 148//148
f 156//156 148//148 160//160
f 143//143 148//148 156//156
f 140//140 146//146 160//160
f 150//150 152//152 153//153
f 161//161 162//162 149//149
f 150//150 161//161 149//149
f 153//153 161//161 150//150
f 141//141 151//151 163//163
f 149//149 163//163 151//151
f 153//153 154//154 164//164
f 164//164 161//161 153//153
f 165//165 141//141 163//163
f 164//164 166//166 161//161
f 154//154 155//155 164//164
f 141//141 165//165 142//142
f 167//167 166//166 164//164
f 168//168 167//167 164//164
f 155//155 168//168 164//164
f 169//169 142//142 165//165
f 167//167 157//157 166//166
f 142//142 169//169 136//136
f 158//158 157//157 167//167
f 168//168 158//158 167//167
f 160//160 158//158 168//168
f 155//155 156//156 168//168
f 166//166 159//159 170//170
f 157//157 159//159 166//166
f 144//144 136//136 169//169
f 170//170 147//147 169//169
f 147//147 144//144 169//169
f 156//156 160//160 168//168
f 159//159 147//147 170//170
f 163//163 149//149 162//162
f 171//171 163//163 162//162
f 162//162 161//161 171//171
f 171//171 161//161 166//166
f 172//172 165//165 163//163
f 171//171 172//172 163//163
f 169//169 165//165 172//172
f 166//166 172//172 171//171
f 166//166 170//170 172//172
f 170//170 169//169 172//172
