# Blender v2.92.0 OBJ File: 'convert_to_one_sided.blend'
# www.blender.org
mtllib 975L.mtl
o Cube
v 0.001000 0.001000 -0.001000
v 0.001000 -0.001000 -0.001000
v 0.001000 0.001000 0.001000
v 0.001000 -0.001000 0.001000
v -0.001000 0.001000 -0.001000
v -0.001000 -0.001000 -0.001000
v -0.001000 0.001000 0.001000
v -0.001000 -0.001000 0.001000
vt 0.625000 0.500000
vt 0.875000 0.500000
vt 0.875000 0.750000
vt 0.625000 0.750000
vt 0.375000 0.750000
vt 0.625000 1.000000
vt 0.375000 1.000000
vt 0.375000 0.000000
vt 0.625000 0.000000
vt 0.625000 0.250000
vt 0.375000 0.250000
vt 0.125000 0.500000
vt 0.375000 0.500000
vt 0.125000 0.750000
vn 0.0000 1.0000 0.0000
vn 0.0000 0.0000 1.0000
vn -1.0000 0.0000 0.0000
vn 0.0000 -1.0000 0.0000
vn 1.0000 0.0000 0.0000
vn 0.0000 0.0000 -1.0000
usemtl Material
s off
f 1/1/1 5/2/1 7/3/1 3/4/1
f 4/5/2 3/4/2 7/6/2 8/7/2
f 8/8/3 7/9/3 5/10/3 6/11/3
f 6/12/4 2/13/4 4/5/4 8/14/4
f 2/13/5 1/1/5 3/4/5 4/5/5
f 6/11/6 5/10/6 1/1/6 2/13/6
o 975
v 9.021684 3.664492 5.667788
v 8.961995 3.703791 5.648028
v 9.011344 3.738371 5.664217
v 8.858066 3.748771 5.647638
v 8.858235 3.805950 5.645078
v 8.661928 3.925578 5.644648
v 8.723218 3.912019 5.639808
v 8.903275 3.831750 5.656437
v 8.763437 3.921948 5.651618
v 8.620509 4.028677 5.641908
v 8.514291 4.105647 5.638658
v 8.655938 4.043377 5.658428
v 8.433012 4.160836 5.644517
v 8.475410 4.201905 5.641738
v 8.547171 4.176115 5.666898
v 8.546390 4.150705 5.653768
v 8.408672 4.249344 5.640898
v 8.296233 4.319943 5.647798
v 8.323452 4.348323 5.644648
v 8.355352 4.363073 5.653898
v 8.451521 4.272934 5.663818
v 8.262693 4.403012 5.652428
v 8.275864 4.426232 5.658278
v 8.907735 3.703611 5.667187
v 8.747248 3.807750 5.675987
v 9.048744 3.697091 5.687407
v 8.955524 3.820730 5.688007
v 8.527410 4.012847 5.678157
v 8.843976 3.892199 5.685527
v 8.724407 3.991318 5.691127
v 8.624040 4.095476 5.683247
v 8.349763 4.214825 5.675258
v 8.449251 4.294973 5.689167
v 8.254375 4.360173 5.675407
v 8.353812 4.397542 5.686108
v 8.236215 4.450841 5.683418
v 8.281433 4.442602 5.685658
v 8.979825 3.669662 5.693247
v 9.035343 3.679142 5.698377
v 8.546560 4.180895 5.696357
v 8.862201 3.721007 5.699999
v 8.692266 3.851871 5.699999
v 8.489660 4.040538 5.699999
v 8.419950 4.121419 5.699999
v 8.300296 4.273689 5.699999
v 8.228527 4.458757 5.699999
v 8.241172 4.461375 5.699999
v 8.545520 3.988753 5.699999
v 8.567261 4.157726 5.699999
v 8.615149 3.924050 5.699999
v 9.035108 3.738395 5.699999
v 8.256196 4.458117 5.699999
v 8.843064 3.892779 5.699999
v 8.807455 3.921016 5.699999
v 8.419514 4.327197 5.699999
v 8.296474 4.430503 5.699999
v 9.043359 3.711617 5.699999
v 8.488503 4.246811 5.699999
v 8.773448 3.783397 5.699999
v 8.414394 4.127684 5.699999
v 8.347278 4.207000 5.699999
v 8.229493 4.422068 5.699999
v 9.005576 3.777209 5.699999
v 8.891904 3.706004 5.699999
v 8.284342 4.298015 5.699999
v 8.244262 4.366281 5.699999
v 8.230024 4.418343 5.699999
v 8.962418 3.816755 5.699999
v 8.916970 3.845428 5.699999
v 8.749721 3.969185 5.699999
v 8.668010 4.049563 5.699999
v 8.988642 3.673752 5.699999
v 8.971177 3.674814 5.699999
v 8.713425 4.001841 5.699999
v 8.545529 4.181097 5.699999
v 9.026624 3.754317 5.699999
v 8.872002 3.714431 5.699999
v 8.617890 4.101491 5.699999
v 8.374457 4.375652 5.699999
v 8.330643 4.409272 5.699999
v 9.034397 3.679724 5.699999
v 9.035575 3.684264 5.699999
vn 0.3156 -0.7325 -0.6031
vn 0.0067 -0.2787 -0.9604
vn 0.4986 0.2666 -0.8248
vn -0.2798 -0.4326 -0.8571
vn 0.0844 0.0588 -0.9947
vn -0.2510 -0.2756 -0.9279
vn 0.0643 0.0532 -0.9965
vn 0.3887 0.4935 -0.7781
vn 0.3878 0.4441 -0.8077
vn 0.1808 0.1639 -0.9698
vn -0.0338 -0.0337 -0.9989
vn 0.5501 0.5017 -0.6676
vn -0.3276 -0.2805 -0.9022
vn 0.2621 0.2422 -0.9342
vn 0.6598 0.5962 -0.4574
vn 0.4118 0.3727 -0.8316
vn 0.0275 0.0598 -0.9978
vn -0.4822 -0.2708 -0.8332
vn -0.0027 0.0861 -0.9963
vn 0.3683 0.4424 -0.8177
vn 0.5508 0.5138 -0.6578
vn -0.4276 0.0606 -0.9019
vn 0.1043 0.5154 -0.8506
vn -0.3706 -0.8013 -0.4696
vn -0.5758 -0.7211 -0.3853
vn 0.9779 -0.0498 -0.2030
vn 0.5917 0.7451 -0.3078
vn -0.6405 -0.6328 -0.4351
vn 0.5664 0.7757 -0.2785
vn 0.6798 0.7038 -0.2063
vn 0.7267 0.6619 -0.1838
vn -0.7150 -0.5515 -0.4297
vn 0.7397 0.6627 -0.1167
vn -0.8350 -0.3182 -0.4490
vn 0.6308 0.7440 -0.2204
vn -0.5358 0.5110 -0.6721
vn 0.3956 0.8405 -0.3703
vn -0.1295 -0.9734 0.1891
vn 0.6317 -0.6796 0.3731
vn -0.4460 -0.6391 0.6265
vn -0.4139 -0.6847 0.5999
vn -0.4471 -0.6654 0.5977
vn -0.5072 -0.5557 0.6588
vn -0.6057 -0.6394 0.4735
vn -0.6372 -0.4845 0.5994
vn -0.5845 -0.5939 0.5529
vn -0.5835 -0.5227 0.6215
vn 0.7444 0.6671 0.0280
vn -0.7679 -0.2710 0.5804
vn -0.6770 -0.4753 0.5620
vn -0.7147 0.5345 0.4511
vn -0.8789 -0.1429 0.4551
vn 0.4342 0.5799 0.6894
vn 0.6860 0.5824 0.4362
vn -0.5134 -0.6429 0.5684
vn 0.4218 0.5509 0.7201
vn 0.3990 0.5050 0.7654
vn 0.5382 0.4859 0.6886
vn 0.5042 0.4853 0.7143
vn 0.3760 0.5423 0.7514
vn 0.3384 0.6225 0.7057
vn -0.0052 0.8816 0.4719
vn -0.1441 -0.5719 0.8076
vn -0.3527 -0.6870 0.6354
vn 0.4474 -0.1699 0.8781
vn 0.6783 0.1871 0.7106
vn 0.5310 0.4094 0.7419
vn 0.4719 0.5212 0.7111
vn 0.4667 0.5383 0.7018
vn 0.3137 0.8668 0.3876
vn 0.3148 -0.4888 0.8136
vn 0.4185 0.5934 0.6876
vn 0.0877 -0.4972 0.8632
vn 0.4253 0.4856 0.7638
vn 0.3076 0.6175 0.7240
vn -0.8668 -0.1057 0.4873
vn 0.4638 0.4462 0.7654
vn 0.7583 0.4503 0.4713
vn 0.5169 0.4821 0.7074
vn -0.5188 -0.6243 0.5840
vn -0.6638 -0.4159 0.6216
vn 0.7616 0.4782 0.4374
usemtl mtl1.853
s 1
f 9//7 10//8 11//9
f 10//8 12//10 13//11
f 11//9 10//8 13//11
f 12//10 14//12 13//11
f 13//11 14//12 15//13
f 16//14 11//9 13//11
f 17//15 13//11 15//13
f 16//14 13//11 17//15
f 15//13 14//12 18//16
f 17//15 15//13 18//16
f 14//12 19//17 18//16
f 17//15 18//16 20//18
f 14//12 21//19 19//17
f 18//16 19//17 22//20
f 23//21 20//18 24//22
f 24//22 20//18 18//16
f 18//16 22//20 24//22
f 19//17 21//19 25//23
f 19//17 25//23 22//20
f 21//19 26//24 27//25
f 25//23 21//19 27//25
f 22//20 25//23 28//26
f 29//27 22//20 28//26
f 25//23 27//25 28//26
f 26//24 30//28 27//25
f 28//26 27//25 31//29
f 31//29 27//25 30//28
f 9//7 32//30 10//8
f 12//10 32//30 33//31
f 32//30 12//10 10//8
f 11//9 34//32 9//7
f 11//9 16//14 35//33
f 12//10 33//31 14//12
f 33//31 36//34 14//12
f 37//35 16//14 17//15
f 35//33 16//14 37//35
f 17//15 20//18 38//36
f 17//15 38//36 37//35
f 14//12 36//34 21//19
f 38//36 20//18 39//37
f 20//18 23//21 39//37
f 21//19 36//34 40//38
f 24//22 22//20 29//27
f 29//27 23//21 24//22
f 21//19 40//38 26//24
f 41//39 23//21 29//27
f 42//40 26//24 40//38
f 26//24 42//40 30//28
f 43//41 29//27 28//26
f 44//42 30//28 42//40
f 45//43 28//26 31//29
f 31//29 30//28 44//42
f 31//29 44//42 45//43
f 9//7 46//44 32//30
f 9//7 47//45 46//44
f 49//46 32//30 85//47
f 49//46 67//48 33//31
f 50//49 33//31 67//48
f 51//50 52//51 36//34
f 40//38 52//51 68//52
f 68//52 69//53 40//38
f 48//54 39//37 23//21
f 48//54 23//21 41//39
f 74//55 42//40 73//56
f 41//39 29//27 43//41
f 54//57 44//42 70//58
f 28//26 45//43 43//41
f 47//45 9//7 34//32
f 76//59 71//60 35//33
f 51//50 36//34 56//61
f 62//62 38//36 78//63
f 79//64 39//37 86//65
f 88//66 45//43 64//67
f 55//68 44//42 54//57
f 81//69 72//70 46//44
f 90//71 34//32 65//72
f 66//73 41//39 63//74
f 87//75 43//41 88//66
f 60//76 64//67 45//43
f 47//45 90//71 89//77
f 67//48 61//78 62//62
f 46//44 80//79 81//69
f 47//45 80//79 46//44
f 38//36 79//64 82//80
f 38//36 82//80 78//63
f 35//33 77//81 76//59
f 42//40 74//55 75//82
f 72//70 32//30 46//44
f 71//60 11//9 35//33
f 44//42 75//82 70//58
f 48//54 66//73 83//83
f 43//41 63//74 41//39
f 37//35 77//81 35//33
f 37//35 62//62 61//78
f 11//9 59//84 34//32
f 34//32 59//84 65//72
f 39//37 57//85 86//65
f 48//54 83//83 57//85
f 36//34 58//86 56//61
f 44//42 60//76 45//43
f 40//38 69//53 53//87
f 42//40 53//87 73//56
f 33//31 58//86 36//34
f 49//46 33//31 32//30
f 40//38 36//34 52//51
f 62//62 37//35 38//36
f 79//64 38//36 39//37
f 88//66 43//41 45//43
f 90//71 47//45 34//32
f 87//75 88//66 73//56
f 88//66 64//67 74//55
f 87//75 73//56 53//87
f 64//67 60//76 70//58
f 60//76 55//68 70//58
f 55//68 54//57 70//58
f 70//58 75//82 64//67
f 75//82 74//55 64//67
f 74//55 73//56 88//66
f 53//87 69//53 63//74
f 69//53 68//52 66//73
f 52//51 51//50 83//83
f 51//50 56//61 86//65
f 83//83 51//50 57//85
f 69//53 66//73 63//74
f 68//52 52//51 83//83
f 66//73 68//52 83//83
f 63//74 87//75 53//87
f 58//86 50//49 78//63
f 50//49 67//48 62//62
f 58//86 78//63 82//80
f 56//61 58//86 79//64
f 51//50 86//65 57//85
f 67//48 49//46 77//81
f 49//46 85//47 76//59
f 77//81 49//46 76//59
f 85//47 72//70 76//59
f 72//70 81//69 71//60
f 81//69 80//79 84//88
f 80//79 89//77 90//71
f 90//71 65//72 80//79
f 65//72 59//84 80//79
f 72//70 71//60 76//59
f 71//60 81//69 84//88
f 86//65 56//61 79//64
f 82//80 79//64 58//86
f 80//79 59//84 84//88
f 78//63 50//49 62//62
f 67//48 77//81 61//78
f 47//45 89//77 80//79
f 72//70 85//47 32//30
f 71//60 84//88 11//9
f 44//42 42//40 75//82
f 48//54 41//39 66//73
f 43//41 87//75 63//74
f 37//35 61//78 77//81
f 11//9 84//88 59//84
f 39//37 48//54 57//85
f 44//42 55//68 60//76
f 42//40 40//38 53//87
f 33//31 50//49 58//86
