# Blender v2.92.0 OBJ File: 'convert_to_one_sided.blend'
# www.blender.org
mtllib 980L.mtl
o Cube
v 0.001000 0.001000 -0.001000
v 0.001000 -0.001000 -0.001000
v 0.001000 0.001000 0.001000
v 0.001000 -0.001000 0.001000
v -0.001000 0.001000 -0.001000
v -0.001000 -0.001000 -0.001000
v -0.001000 0.001000 0.001000
v -0.001000 -0.001000 0.001000
vt 0.625000 0.500000
vt 0.875000 0.500000
vt 0.875000 0.750000
vt 0.625000 0.750000
vt 0.375000 0.750000
vt 0.625000 1.000000
vt 0.375000 1.000000
vt 0.375000 0.000000
vt 0.625000 0.000000
vt 0.625000 0.250000
vt 0.375000 0.250000
vt 0.125000 0.500000
vt 0.375000 0.500000
vt 0.125000 0.750000
vn 0.0000 1.0000 0.0000
vn 0.0000 0.0000 1.0000
vn -1.0000 0.0000 0.0000
vn 0.0000 -1.0000 0.0000
vn 1.0000 0.0000 0.0000
vn 0.0000 0.0000 -1.0000
usemtl Material
s off
f 1/1/1 5/2/1 7/3/1 3/4/1
f 4/5/2 3/4/2 7/6/2 8/7/2
f 8/8/3 7/9/3 5/10/3 6/11/3
f 6/12/4 2/13/4 4/5/4 8/14/4
f 2/13/5 1/1/5 3/4/5 4/5/5
f 6/11/6 5/10/6 1/1/6 2/13/6
o 980
v 7.612822 6.195999 4.986767
v 7.565333 6.204589 4.985796
v 7.634422 6.278368 4.990256
v 7.701191 6.312258 5.001097
v 7.570063 6.087720 5.010346
v 7.535123 6.125070 5.005677
v 7.531253 6.189749 5.005106
v 7.636002 6.134270 5.023936
v 7.691851 6.251508 5.011786
v 7.705541 6.219939 5.032356
v 7.584373 6.263678 5.002157
v 7.675261 6.354327 5.018286
v 7.533713 6.039681 5.036576
v 7.503573 6.064501 5.033586
v 7.503703 6.131610 5.027056
v 7.528773 6.218639 5.028986
v 7.680751 6.138370 5.058056
v 7.741590 6.301068 5.029746
v 7.588022 6.306218 5.036556
v 7.641151 6.371177 5.054026
v 7.763410 6.379426 5.042436
v 7.694751 6.403207 5.051916
v 7.750460 6.422387 5.066996
v 7.510773 6.012712 5.060186
v 7.488404 6.053031 5.073296
v 7.585443 6.030042 5.056236
v 7.491524 6.146040 5.078706
v 7.735930 6.216109 5.082166
v 7.566473 6.316398 5.083335
v 7.799250 6.438536 5.097035
v 7.819929 6.408387 5.088915
v 7.781650 6.445206 5.097295
v 7.550603 5.975322 5.093825
v 7.646212 6.037811 5.098645
v 7.524523 6.236729 5.088645
v 7.788509 6.333328 5.084735
v 7.613802 6.361207 5.148265
v 7.710851 6.422556 5.129405
v 7.605892 5.981322 5.112615
v 7.512323 5.983322 5.113315
v 7.700061 6.110671 5.123195
v 7.476194 6.095411 5.134705
v 7.779300 6.261428 5.135755
v 7.811110 6.308498 5.220874
v 7.826909 6.377337 5.141385
v 7.551003 5.941133 5.161475
v 7.642941 5.964402 5.172405
v 7.494033 6.038431 5.189164
v 7.496894 6.181149 5.183845
v 7.540993 6.270848 5.221804
v 7.833719 6.428036 5.184394
v 7.782540 6.455466 5.155225
v 7.594002 5.948173 5.159865
v 7.528973 5.975252 5.218044
v 7.684121 6.030712 5.186144
v 7.737340 6.151260 5.187124
v 7.776190 6.233569 5.218654
v 7.665731 6.410816 5.260293
v 7.821069 6.462406 5.224174
v 7.595293 5.929403 5.225143
v 7.837599 6.386327 5.261034
v 7.589762 6.341107 5.297493
v 7.762680 6.179039 5.319952
v 7.747840 6.463096 5.268723
v 7.568882 5.949923 5.249494
v 7.625372 5.939253 5.217693
v 7.662451 5.964692 5.257873
v 7.525103 6.052611 5.332012
v 7.494323 6.122680 5.244523
v 7.841029 6.460766 5.314962
v 7.630372 5.943303 5.270403
v 7.711340 6.059521 5.290573
v 7.521573 6.195409 5.343122
v 7.827629 6.477066 5.360082
v 7.793550 6.477246 5.301653
v 7.611922 5.970242 5.336792
v 7.511064 6.110271 5.309312
v 7.556033 6.286438 5.344192
v 7.802110 6.279348 5.363092
v 7.844779 6.422536 5.339552
v 7.568253 6.012712 5.350502
v 7.694221 6.011431 5.356462
v 7.821849 6.344427 5.361442
v 7.644382 6.394727 5.375751
v 7.728920 6.457796 5.374012
v 7.660962 5.986282 5.360372
v 7.834379 6.439876 5.421831
v 7.766680 6.475536 5.341182
v 7.588752 6.328047 5.390092
v 7.726320 6.108601 5.429551
v 7.540263 6.139060 5.417841
v 7.788400 6.471266 5.399851
v 7.613712 6.039852 5.451811
v 7.651611 6.018722 5.436841
v 7.688711 6.030531 5.419111
v 7.786830 6.270218 5.451451
v 7.674091 6.023801 5.432781
v 7.572803 6.088481 5.439991
v 7.574222 6.274448 5.435761
v 7.823599 6.375097 5.417981
v 7.652411 6.359747 5.464690
v 7.694151 6.420566 5.420891
v 7.732410 6.419716 5.464411
v 7.815179 6.459006 5.432121
v 7.687031 6.085650 5.496620
v 7.582012 6.151180 5.502300
v 7.575943 6.203399 5.473970
v 7.789660 6.442556 5.464890
v 7.655481 6.087241 5.518680
v 7.803549 6.361937 5.492321
v 7.797290 6.409077 5.491830
v 7.750530 6.380397 5.527880
v 7.729650 6.184149 5.531760
v 7.691761 6.319648 5.550879
v 7.628952 6.264548 5.520790
v 7.776350 6.347558 5.548470
v 7.761800 6.351607 5.552249
v 7.618122 6.120750 5.516530
v 7.679901 6.124110 5.552979
v 7.697911 6.167260 5.568130
v 7.622092 6.188179 5.538030
v 7.753000 6.279728 5.551059
v 7.664991 6.166100 5.560849
v 7.721490 6.216859 5.567469
v 7.661531 6.236769 5.558400
v 7.742950 6.311788 5.573779
v 7.734850 6.321828 5.566400
v 7.711131 6.252358 5.559319
vn 0.2000 -0.1805 -0.9630
vn -0.2910 0.1047 -0.9510
vn -0.0982 0.2524 -0.9626
vn 0.3129 0.0643 -0.9476
vn 0.1665 -0.4005 -0.9011
vn -0.3245 -0.1784 -0.9289
vn -0.6547 0.2052 -0.7275
vn 0.5071 -0.4004 -0.7632
vn 0.4929 -0.2638 -0.8292
vn 0.6487 -0.3554 -0.6730
vn -0.5045 0.4589 -0.7313
vn -0.1861 0.5380 -0.8221
vn -0.0815 -0.5187 -0.8511
vn -0.6219 -0.2747 -0.7333
vn -0.8444 0.0681 -0.5314
vn -0.8232 0.4058 -0.3970
vn 0.7097 -0.4335 -0.5553
vn 0.6863 -0.2223 -0.6925
vn -0.6535 0.5558 -0.5138
vn -0.5511 0.7509 -0.3638
vn 0.4683 0.2506 -0.8473
vn -0.3181 0.8160 -0.4827
vn -0.0761 0.8027 -0.5915
vn -0.5446 -0.6018 -0.5841
vn -0.9511 -0.2042 -0.2317
vn 0.3677 -0.5700 -0.7348
vn -0.9590 0.2190 -0.1799
vn 0.8212 -0.3970 -0.4099
vn -0.7666 0.6141 -0.1876
vn 0.4804 0.7305 -0.4853
vn 0.8592 0.1050 -0.5008
vn 0.0320 0.9219 -0.3860
vn -0.0126 -0.8036 -0.5951
vn 0.6748 -0.4949 -0.5475
vn -0.8861 0.4352 -0.1594
vn 0.8490 -0.3049 -0.4316
vn -0.6608 0.7492 -0.0462
vn -0.4392 0.8859 -0.1492
vn 0.4234 -0.6942 -0.5821
vn -0.7591 -0.6295 -0.1659
vn 0.8317 -0.4276 -0.3541
vn -0.9999 0.0112 0.0116
vn 0.8975 -0.3837 -0.2173
vn 0.9307 -0.3547 -0.0898
vn 0.9569 -0.2291 -0.1784
vn -0.3816 -0.9157 -0.1258
vn 0.6421 -0.6770 -0.3597
vn -0.9523 -0.2707 0.1407
vn -0.9529 0.3002 0.0426
vn -0.8651 0.5005 0.0324
vn 0.9544 0.2524 -0.1592
vn -0.0977 0.9772 -0.1883
vn 0.2390 -0.8936 -0.3800
vn -0.7763 -0.5880 0.2273
vn 0.8631 -0.4394 -0.2491
vn 0.8979 -0.4026 -0.1778
vn 0.9082 -0.4062 -0.1005
vn -0.5961 0.8013 -0.0501
vn 0.4996 0.8466 -0.1834
vn -0.0387 -0.9967 0.0715
vn 0.9801 -0.1950 -0.0361
vn -0.7665 0.6420 0.0187
vn 0.9210 -0.3894 -0.0098
vn -0.3833 0.9180 -0.1015
vn -0.5346 -0.7852 0.3125
vn 0.4336 -0.8902 -0.1395
vn 0.7457 -0.6658 -0.0260
vn -0.8633 -0.3589 0.3550
vn -0.9825 0.0218 0.1850
vn 0.9050 0.4246 -0.0259
vn 0.3133 -0.9270 0.2061
vn 0.9156 -0.3976 -0.0602
vn -0.9505 0.2126 0.2265
vn 0.4772 0.8733 0.0985
vn -0.0141 0.9978 -0.0646
vn -0.2191 -0.8767 0.4282
vn -0.9651 -0.0764 0.2505
vn -0.8829 0.4516 0.1282
vn 0.9397 -0.3368 0.0590
vn 0.9960 -0.0772 0.0441
vn -0.6558 -0.6182 0.4333
vn 0.8136 -0.5681 0.1236
vn 0.9559 -0.2853 0.0699
vn -0.6699 0.7266 0.1526
vn -0.4668 0.8715 0.1501
vn 0.4279 -0.8494 0.3090
vn 0.9237 0.2316 0.3053
vn -0.2391 0.9707 0.0253
vn -0.7868 0.5751 0.2240
vn 0.8936 -0.4094 0.1839
vn -0.9182 -0.0780 0.3884
vn -0.1225 0.9588 0.2563
vn -0.4928 -0.6529 0.5753
vn 0.0989 -0.8284 0.5513
vn 0.7259 -0.6104 0.3170
vn 0.9250 -0.3222 0.2013
vn 0.4678 -0.7569 0.4563
vn -0.7407 -0.4343 0.5125
vn -0.8392 0.3819 0.3872
vn 0.9602 -0.2204 0.1715
vn -0.6517 0.6089 0.4523
vn -0.5473 0.7628 0.3444
vn -0.4152 0.7757 0.4753
vn 0.4286 0.7725 0.4685
vn 0.6041 -0.6119 0.5106
vn -0.7756 -0.1452 0.6143
vn -0.8479 0.1957 0.4927
vn -0.0122 0.8095 0.5870
vn -0.1575 -0.6438 0.7488
vn 0.9201 -0.1163 0.3741
vn 0.5474 0.4927 0.6764
vn -0.1569 0.6754 0.7206
vn 0.8222 -0.3824 0.4216
vn -0.4555 0.4359 0.7762
vn -0.7087 0.3287 0.6243
vn 0.7057 0.1115 0.6997
vn 0.1542 0.5206 0.8398
vn -0.5567 -0.3880 0.7345
vn 0.1195 -0.5551 0.8231
vn 0.3513 -0.2871 0.8911
vn -0.6386 0.0351 0.7688
vn 0.7297 -0.2399 0.6403
vn -0.3244 -0.1711 0.9303
vn 0.4594 -0.0980 0.8828
vn -0.3859 0.1429 0.9114
vn 0.2283 0.0377 0.9729
vn -0.2667 0.3477 0.8989
vn -0.0805 0.0275 0.9964
usemtl mtl1.858
s 1
f 9//7 10//8 11//9
f 12//10 9//7 11//9
f 9//7 13//11 14//12
f 10//8 14//12 15//13
f 9//7 14//12 10//8
f 16//14 13//11 9//7
f 16//14 9//7 17//15
f 18//16 16//14 17//15
f 15//13 19//17 10//8
f 10//8 19//17 11//9
f 17//15 9//7 12//10
f 19//17 20//18 11//9
f 12//10 11//9 20//18
f 13//11 21//19 14//12
f 21//19 22//20 14//12
f 23//21 14//12 22//20
f 14//12 23//21 15//13
f 24//22 15//13 23//21
f 18//16 25//23 16//14
f 19//17 15//13 24//22
f 18//16 17//15 26//24
f 19//17 24//22 27//25
f 26//24 17//15 12//10
f 19//17 27//25 20//18
f 20//18 27//25 28//26
f 26//24 12//10 29//27
f 20//18 28//26 30//28
f 20//18 29//27 12//10
f 31//29 20//18 30//28
f 29//27 20//18 31//29
f 22//20 32//30 33//31
f 21//19 32//30 22//20
f 34//32 21//19 13//11
f 13//11 16//14 34//32
f 22//20 33//31 23//21
f 35//33 24//22 23//21
f 18//16 36//34 25//23
f 26//24 36//34 18//16
f 28//26 27//25 37//35
f 38//36 39//37 29//27
f 31//29 38//36 29//27
f 38//36 31//29 40//38
f 21//19 41//39 32//30
f 34//32 41//39 21//19
f 34//32 16//14 42//40
f 16//14 25//23 42//40
f 33//31 35//33 23//21
f 43//41 24//22 35//33
f 24//22 43//41 27//25
f 36//34 26//24 44//42
f 44//42 29//27 39//37
f 26//24 29//27 44//42
f 37//35 45//43 28//26
f 28//26 45//43 46//44
f 30//28 28//26 46//44
f 30//28 46//44 31//29
f 41//39 34//32 47//45
f 41//39 48//46 32//30
f 42//40 47//45 34//32
f 48//46 33//31 32//30
f 25//23 49//47 42//40
f 33//31 50//48 35//33
f 49//47 25//23 36//34
f 37//35 27//25 43//41
f 36//34 44//42 51//49
f 52//50 44//42 53//51
f 44//42 39//37 53//51
f 48//46 41//39 54//52
f 47//45 42//40 55//53
f 48//46 56//54 33//31
f 56//54 50//48 33//31
f 50//48 57//55 35//33
f 35//33 57//55 43//41
f 57//55 58//56 43//41
f 58//56 37//35 43//41
f 51//49 44//42 52//50
f 53//51 39//37 59//57
f 38//36 59//57 39//37
f 31//29 46//44 60//58
f 31//29 60//58 40//38
f 40//38 60//58 38//36
f 61//59 54//52 41//39
f 41//39 47//45 61//59
f 48//46 62//60 56//54
f 55//53 42//40 63//61
f 63//61 42//40 49//47
f 49//47 36//34 64//62
f 36//34 51//49 64//62
f 65//63 51//49 52//50
f 46//44 45//43 66//64
f 67//65 38//36 60//58
f 61//59 68//66 54//52
f 62//60 48//46 54//52
f 47//45 55//53 61//59
f 63//61 49//47 64//62
f 37//35 58//56 45//43
f 69//67 52//50 53//51
f 45//43 70//68 66//64
f 59//57 38//36 67//65
f 64//62 51//49 65//63
f 71//69 65//63 52//50
f 53//51 59//57 69//67
f 60//58 46//44 72//70
f 54//52 68//66 73//71
f 74//72 68//66 61//59
f 73//71 62//60 54//52
f 61//59 55//53 74//72
f 55//53 63//61 75//73
f 62//60 76//74 56//54
f 50//48 77//75 57//55
f 70//68 45//43 58//56
f 46//44 66//64 72//70
f 59//57 67//65 78//76
f 74//72 79//77 68//66
f 74//72 55//53 75//73
f 75//73 63//61 80//78
f 63//61 64//62 80//78
f 57//55 81//79 58//56
f 78//76 67//65 82//80
f 60//58 72//70 83//81
f 67//65 60//58 83//81
f 68//66 84//82 73//71
f 68//66 79//77 84//82
f 56//54 76//74 85//83
f 56//54 77//75 50//48
f 56//54 85//83 77//75
f 81//79 86//84 58//56
f 70//68 58//56 86//84
f 71//69 52//50 87//85
f 69//67 59//57 88//86
f 74//72 75//73 79//77
f 77//75 81//79 57//55
f 71//69 64//62 65//63
f 59//57 78//76 88//86
f 67//65 83//81 82//80
f 62//60 73//71 89//87
f 90//88 75//73 80//78
f 87//85 52//50 91//89
f 69//67 91//89 52//50
f 66//64 70//68 92//90
f 93//91 72//70 66//64
f 79//77 94//92 84//82
f 75//73 94//92 79//77
f 75//73 90//88 94//92
f 89//87 76//74 62//60
f 80//78 64//62 71//69
f 78//76 82//80 95//93
f 72//70 96//94 83//81
f 73//71 84//82 89//87
f 77//75 85//83 81//79
f 70//68 86//84 97//95
f 70//68 97//95 92//90
f 69//67 88//86 91//89
f 66//64 92//90 93//91
f 88//86 78//76 95//93
f 72//70 93//91 96//94
f 80//78 98//96 90//88
f 85//83 76//74 99//97
f 80//78 71//69 98//96
f 81//79 85//83 99//97
f 83//81 96//94 100//98
f 100//98 82//80 83//81
f 89//87 84//82 101//99
f 94//92 102//100 84//82
f 103//101 94//92 90//88
f 71//69 87//85 104//102
f 102//100 101//99 84//82
f 94//92 105//103 102//100
f 94//92 103//101 105//103
f 103//101 90//88 98//96
f 101//99 106//104 89//87
f 89//87 106//104 76//74
f 76//74 106//104 99//97
f 98//96 71//69 104//102
f 81//79 107//105 86//84
f 87//85 91//89 104//102
f 107//105 97//95 86//84
f 108//106 91//89 88//86
f 97//95 109//107 92//90
f 110//108 93//91 92//90
f 110//108 111//109 93//91
f 93//91 111//109 100//98
f 93//91 100//98 96//94
f 82//80 100//98 112//110
f 112//110 95//93 82//80
f 109//107 97//95 107//105
f 110//108 92//90 109//107
f 88//86 95//93 108//106
f 113//111 105//103 103//101
f 106//104 114//112 99//97
f 81//79 99//97 115//113
f 81//79 115//113 107//105
f 109//107 111//109 110//108
f 100//98 111//109 116//114
f 116//114 112//110 100//98
f 102//100 117//115 101//99
f 102//100 105//103 113//111
f 98//96 113//111 103//101
f 108//106 104//102 91//89
f 108//106 118//116 104//102
f 108//106 95//93 118//116
f 95//93 119//117 118//116
f 112//110 119//117 95//93
f 111//109 120//118 116//114
f 102//100 113//111 117//115
f 114//112 115//113 99//97
f 104//102 121//119 98//96
f 122//120 111//109 109//107
f 120//118 119//117 116//114
f 112//110 116//114 119//117
f 121//119 113//111 98//96
f 107//105 115//113 123//121
f 123//121 109//107 107//105
f 111//109 122//120 120//118
f 119//117 124//122 118//116
f 125//123 124//122 119//117
f 120//118 125//123 119//117
f 101//99 117//115 126//124
f 113//111 127//125 117//115
f 106//104 101//99 126//124
f 113//111 128//126 127//125
f 106//104 126//124 114//112
f 128//126 113//111 121//119
f 115//113 114//112 129//127
f 121//119 104//102 130//128
f 123//121 122//120 109//107
f 104//102 118//116 130//128
f 130//128 118//116 124//122
f 131//129 117//115 127//125
f 126//124 117//115 131//129
f 126//124 129//127 114//112
f 121//119 132//130 128//126
f 129//127 123//121 115//113
f 123//121 129//127 133//131
f 121//119 130//128 132//130
f 134//132 130//128 124//122
f 134//132 124//122 125//123
f 120//118 122//120 135//133
f 120//118 135//133 125//123
f 131//129 127//125 128//126
f 126//124 131//129 129//127
f 129//127 131//129 133//131
f 122//120 123//121 133//131
f 135//133 134//132 125//123
f 128//126 136//134 131//129
f 128//126 132//130 136//134
f 131//129 136//134 133//131
f 132//130 130//128 136//134
f 130//128 134//132 136//134
f 133//131 136//134 122//120
f 135//133 122//120 136//134
f 134//132 135//133 136//134
