# Blender v2.92.0 OBJ File: 'convert_to_one_sided.blend'
# www.blender.org
mtllib 980L.mtl
o 980
v 7.612822 6.195999 4.986767
v 7.565333 6.204589 4.985796
v 7.634422 6.278368 4.990256
v 7.701191 6.312258 5.001097
v 7.570063 6.087720 5.010346
v 7.535123 6.125070 5.005677
v 7.531253 6.189749 5.005106
v 7.636002 6.134270 5.023936
v 7.691851 6.251508 5.011786
v 7.705541 6.219939 5.032356
v 7.584373 6.263678 5.002157
v 7.675261 6.354327 5.018286
v 7.533713 6.039681 5.036576
v 7.503573 6.064501 5.033586
v 7.503703 6.131610 5.027056
v 7.528773 6.218639 5.028986
v 7.680751 6.138370 5.058056
v 7.741590 6.301068 5.029746
v 7.588022 6.306218 5.036556
v 7.641151 6.371177 5.054026
v 7.763410 6.379426 5.042436
v 7.694751 6.403207 5.051916
v 7.750460 6.422387 5.066996
v 7.510773 6.012712 5.060186
v 7.488404 6.053031 5.073296
v 7.585443 6.030042 5.056236
v 7.491524 6.146040 5.078706
v 7.735930 6.216109 5.082166
v 7.566473 6.316398 5.083335
v 7.799250 6.438536 5.097035
v 7.819929 6.408387 5.088915
v 7.781650 6.445206 5.097295
v 7.550603 5.975322 5.093825
v 7.646212 6.037811 5.098645
v 7.524523 6.236729 5.088645
v 7.788509 6.333328 5.084735
v 7.613802 6.361207 5.148265
v 7.710851 6.422556 5.129405
v 7.605892 5.981322 5.112615
v 7.512323 5.983322 5.113315
v 7.700061 6.110671 5.123195
v 7.476194 6.095411 5.134705
v 7.779300 6.261428 5.135755
v 7.811110 6.308498 5.220874
v 7.826909 6.377337 5.141385
v 7.551003 5.941133 5.161475
v 7.642941 5.964402 5.172405
v 7.494033 6.038431 5.189164
v 7.496894 6.181149 5.183845
v 7.540993 6.270848 5.221804
v 7.833719 6.428036 5.184394
v 7.782540 6.455466 5.155225
v 7.594002 5.948173 5.159865
v 7.528973 5.975252 5.218044
v 7.684121 6.030712 5.186144
v 7.737340 6.151260 5.187124
v 7.776190 6.233569 5.218654
v 7.665731 6.410816 5.260293
v 7.821069 6.462406 5.224174
v 7.595293 5.929403 5.225143
v 7.837599 6.386327 5.261034
v 7.589762 6.341107 5.297493
v 7.762680 6.179039 5.319952
v 7.747840 6.463096 5.268723
v 7.568882 5.949923 5.249494
v 7.625372 5.939253 5.217693
v 7.662451 5.964692 5.257873
v 7.525103 6.052611 5.332012
v 7.494323 6.122680 5.244523
v 7.841029 6.460766 5.314962
v 7.630372 5.943303 5.270403
v 7.711340 6.059521 5.290573
v 7.521573 6.195409 5.343122
v 7.827629 6.477066 5.360082
v 7.793550 6.477246 5.301653
v 7.611922 5.970242 5.336792
v 7.511064 6.110271 5.309312
v 7.556033 6.286438 5.344192
v 7.802110 6.279348 5.363092
v 7.844779 6.422536 5.339552
v 7.568253 6.012712 5.350502
v 7.694221 6.011431 5.356462
v 7.821849 6.344427 5.361442
v 7.644382 6.394727 5.375751
v 7.728920 6.457796 5.374012
v 7.660962 5.986282 5.360372
v 7.834379 6.439876 5.421831
v 7.766680 6.475536 5.341182
v 7.588752 6.328047 5.390092
v 7.726320 6.108601 5.429551
v 7.540263 6.139060 5.417841
v 7.788400 6.471266 5.399851
v 7.613712 6.039852 5.451811
v 7.651611 6.018722 5.436841
v 7.688711 6.030531 5.419111
v 7.786830 6.270218 5.451451
v 7.674091 6.023801 5.432781
v 7.572803 6.088481 5.439991
v 7.574222 6.274448 5.435761
v 7.823599 6.375097 5.417981
v 7.652411 6.359747 5.464690
v 7.694151 6.420566 5.420891
v 7.732410 6.419716 5.464411
v 7.815179 6.459006 5.432121
v 7.687031 6.085650 5.496620
v 7.582012 6.151180 5.502300
v 7.575943 6.203399 5.473970
v 7.789660 6.442556 5.464890
v 7.655481 6.087241 5.518680
v 7.803549 6.361937 5.492321
v 7.797290 6.409077 5.491830
v 7.750530 6.380397 5.527880
v 7.729650 6.184149 5.531760
v 7.691761 6.319648 5.550879
v 7.628952 6.264548 5.520790
v 7.776350 6.347558 5.548470
v 7.761800 6.351607 5.552249
v 7.618122 6.120750 5.516530
v 7.679901 6.124110 5.552979
v 7.697911 6.167260 5.568130
v 7.622092 6.188179 5.538030
v 7.753000 6.279728 5.551059
v 7.664991 6.166100 5.560849
v 7.721490 6.216859 5.567469
v 7.661531 6.236769 5.558400
v 7.742950 6.311788 5.573779
v 7.734850 6.321828 5.566400
v 7.711131 6.252358 5.559319
vn 0.2000 -0.1805 -0.9630
vn -0.2910 0.1047 -0.9510
vn -0.0982 0.2524 -0.9626
vn 0.3129 0.0643 -0.9476
vn 0.1665 -0.4005 -0.9011
vn -0.3245 -0.1784 -0.9289
vn -0.6547 0.2052 -0.7275
vn 0.5071 -0.4004 -0.7632
vn 0.4929 -0.2638 -0.8292
vn 0.6487 -0.3554 -0.6730
vn -0.5045 0.4589 -0.7313
vn -0.1861 0.5380 -0.8221
vn -0.0815 -0.5187 -0.8511
vn -0.6219 -0.2747 -0.7333
vn -0.8444 0.0681 -0.5314
vn -0.8232 0.4058 -0.3970
vn 0.7097 -0.4335 -0.5553
vn 0.6863 -0.2223 -0.6925
vn -0.6535 0.5558 -0.5138
vn -0.5511 0.7509 -0.3638
vn 0.4683 0.2506 -0.8473
vn -0.3181 0.8160 -0.4827
vn -0.0761 0.8027 -0.5915
vn -0.5446 -0.6018 -0.5841
vn -0.9511 -0.2042 -0.2317
vn 0.3677 -0.5700 -0.7348
vn -0.9590 0.2190 -0.1799
vn 0.8212 -0.3970 -0.4099
vn -0.7666 0.6141 -0.1876
vn 0.4804 0.7305 -0.4853
vn 0.8592 0.1050 -0.5008
vn 0.0320 0.9219 -0.3860
vn -0.0126 -0.8036 -0.5951
vn 0.6748 -0.4949 -0.5475
vn -0.8861 0.4352 -0.1594
vn 0.8490 -0.3049 -0.4316
vn -0.6608 0.7492 -0.0462
vn -0.4392 0.8859 -0.1492
vn 0.4234 -0.6942 -0.5821
vn -0.7591 -0.6295 -0.1659
vn 0.8317 -0.4276 -0.3541
vn -0.9999 0.0112 0.0116
vn 0.8975 -0.3837 -0.2173
vn 0.9307 -0.3547 -0.0898
vn 0.9569 -0.2291 -0.1784
vn -0.3816 -0.9157 -0.1258
vn 0.6421 -0.6770 -0.3597
vn -0.9523 -0.2707 0.1407
vn -0.9529 0.3002 0.0426
vn -0.8651 0.5005 0.0324
vn 0.9544 0.2524 -0.1592
vn -0.0977 0.9772 -0.1883
vn 0.2390 -0.8936 -0.3800
vn -0.7763 -0.5880 0.2273
vn 0.8631 -0.4394 -0.2491
vn 0.8979 -0.4026 -0.1778
vn 0.9082 -0.4062 -0.1005
vn -0.5961 0.8013 -0.0501
vn 0.4996 0.8466 -0.1834
vn -0.0387 -0.9967 0.0715
vn 0.9801 -0.1950 -0.0361
vn -0.7665 0.6420 0.0187
vn 0.9210 -0.3894 -0.0098
vn -0.3833 0.9180 -0.1015
vn -0.5346 -0.7852 0.3125
vn 0.4336 -0.8902 -0.1395
vn 0.7457 -0.6658 -0.0260
vn -0.8633 -0.3589 0.3550
vn -0.9825 0.0218 0.1850
vn 0.9050 0.4246 -0.0259
vn 0.3133 -0.9270 0.2061
vn 0.9156 -0.3976 -0.0602
vn -0.9505 0.2126 0.2265
vn 0.4772 0.8733 0.0985
vn -0.0141 0.9978 -0.0646
vn -0.2191 -0.8767 0.4282
vn -0.9651 -0.0764 0.2505
vn -0.8829 0.4516 0.1282
vn 0.9397 -0.3368 0.0590
vn 0.9960 -0.0772 0.0441
vn -0.6558 -0.6182 0.4333
vn 0.8136 -0.5681 0.1236
vn 0.9559 -0.2853 0.0699
vn -0.6699 0.7266 0.1526
vn -0.4668 0.8715 0.1501
vn 0.4279 -0.8494 0.3090
vn 0.9237 0.2316 0.3053
vn -0.2391 0.9707 0.0253
vn -0.7868 0.5751 0.2240
vn 0.8936 -0.4094 0.1839
vn -0.9182 -0.0780 0.3884
vn -0.1225 0.9588 0.2563
vn -0.4928 -0.6529 0.5753
vn 0.0989 -0.8284 0.5513
vn 0.7259 -0.6104 0.3170
vn 0.9250 -0.3222 0.2013
vn 0.4678 -0.7569 0.4563
vn -0.7407 -0.4343 0.5125
vn -0.8392 0.3819 0.3872
vn 0.9602 -0.2204 0.1715
vn -0.6517 0.6089 0.4523
vn -0.5473 0.7628 0.3444
vn -0.4152 0.7757 0.4753
vn 0.4286 0.7725 0.4685
vn 0.6041 -0.6119 0.5106
vn -0.7756 -0.1452 0.6143
vn -0.8479 0.1957 0.4927
vn -0.0122 0.8095 0.5870
vn -0.1575 -0.6438 0.7488
vn 0.9201 -0.1163 0.3741
vn 0.5474 0.4927 0.6764
vn -0.1569 0.6754 0.7206
vn 0.8222 -0.3824 0.4216
vn -0.4555 0.4359 0.7762
vn -0.7087 0.3287 0.6243
vn 0.7057 0.1115 0.6997
vn 0.1542 0.5206 0.8398
vn -0.5567 -0.3880 0.7345
vn 0.1195 -0.5551 0.8231
vn 0.3513 -0.2871 0.8911
vn -0.6386 0.0351 0.7688
vn 0.7297 -0.2399 0.6403
vn -0.3244 -0.1711 0.9303
vn 0.4594 -0.0980 0.8828
vn -0.3859 0.1429 0.9114
vn 0.2283 0.0377 0.9729
vn -0.2667 0.3477 0.8989
vn -0.0805 0.0275 0.9964
usemtl mtl1.1676
s 1
f 1//1 2//2 3//3
f 4//4 1//1 3//3
f 1//1 5//5 6//6
f 2//2 6//6 7//7
f 1//1 6//6 2//2
f 8//8 5//5 1//1
f 8//8 1//1 9//9
f 10//10 8//8 9//9
f 7//7 11//11 2//2
f 2//2 11//11 3//3
f 9//9 1//1 4//4
f 11//11 12//12 3//3
f 4//4 3//3 12//12
f 5//5 13//13 6//6
f 13//13 14//14 6//6
f 15//15 6//6 14//14
f 6//6 15//15 7//7
f 16//16 7//7 15//15
f 10//10 17//17 8//8
f 11//11 7//7 16//16
f 10//10 9//9 18//18
f 11//11 16//16 19//19
f 18//18 9//9 4//4
f 11//11 19//19 12//12
f 12//12 19//19 20//20
f 18//18 4//4 21//21
f 12//12 20//20 22//22
f 12//12 21//21 4//4
f 23//23 12//12 22//22
f 21//21 12//12 23//23
f 14//14 24//24 25//25
f 13//13 24//24 14//14
f 26//26 13//13 5//5
f 5//5 8//8 26//26
f 14//14 25//25 15//15
f 27//27 16//16 15//15
f 10//10 28//28 17//17
f 18//18 28//28 10//10
f 20//20 19//19 29//29
f 30//30 31//31 21//21
f 23//23 30//30 21//21
f 30//30 23//23 32//32
f 13//13 33//33 24//24
f 26//26 33//33 13//13
f 26//26 8//8 34//34
f 8//8 17//17 34//34
f 25//25 27//27 15//15
f 35//35 16//16 27//27
f 16//16 35//35 19//19
f 28//28 18//18 36//36
f 36//36 21//21 31//31
f 18//18 21//21 36//36
f 29//29 37//37 20//20
f 20//20 37//37 38//38
f 22//22 20//20 38//38
f 22//22 38//38 23//23
f 33//33 26//26 39//39
f 33//33 40//40 24//24
f 34//34 39//39 26//26
f 40//40 25//25 24//24
f 17//17 41//41 34//34
f 25//25 42//42 27//27
f 41//41 17//17 28//28
f 29//29 19//19 35//35
f 28//28 36//36 43//43
f 44//44 36//36 45//45
f 36//36 31//31 45//45
f 40//40 33//33 46//46
f 39//39 34//34 47//47
f 40//40 48//48 25//25
f 48//48 42//42 25//25
f 42//42 49//49 27//27
f 27//27 49//49 35//35
f 49//49 50//50 35//35
f 50//50 29//29 35//35
f 43//43 36//36 44//44
f 45//45 31//31 51//51
f 30//30 51//51 31//31
f 23//23 38//38 52//52
f 23//23 52//52 32//32
f 32//32 52//52 30//30
f 53//53 46//46 33//33
f 33//33 39//39 53//53
f 40//40 54//54 48//48
f 47//47 34//34 55//55
f 55//55 34//34 41//41
f 41//41 28//28 56//56
f 28//28 43//43 56//56
f 57//57 43//43 44//44
f 38//38 37//37 58//58
f 59//59 30//30 52//52
f 53//53 60//60 46//46
f 54//54 40//40 46//46
f 39//39 47//47 53//53
f 55//55 41//41 56//56
f 29//29 50//50 37//37
f 61//61 44//44 45//45
f 37//37 62//62 58//58
f 51//51 30//30 59//59
f 56//56 43//43 57//57
f 63//63 57//57 44//44
f 45//45 51//51 61//61
f 52//52 38//38 64//64
f 46//46 60//60 65//65
f 66//66 60//60 53//53
f 65//65 54//54 46//46
f 53//53 47//47 66//66
f 47//47 55//55 67//67
f 54//54 68//68 48//48
f 42//42 69//69 49//49
f 62//62 37//37 50//50
f 38//38 58//58 64//64
f 51//51 59//59 70//70
f 66//66 71//71 60//60
f 66//66 47//47 67//67
f 67//67 55//55 72//72
f 55//55 56//56 72//72
f 49//49 73//73 50//50
f 70//70 59//59 74//74
f 52//52 64//64 75//75
f 59//59 52//52 75//75
f 60//60 76//76 65//65
f 60//60 71//71 76//76
f 48//48 68//68 77//77
f 48//48 69//69 42//42
f 48//48 77//77 69//69
f 73//73 78//78 50//50
f 62//62 50//50 78//78
f 63//63 44//44 79//79
f 61//61 51//51 80//80
f 66//66 67//67 71//71
f 69//69 73//73 49//49
f 63//63 56//56 57//57
f 51//51 70//70 80//80
f 59//59 75//75 74//74
f 54//54 65//65 81//81
f 82//82 67//67 72//72
f 79//79 44//44 83//83
f 61//61 83//83 44//44
f 58//58 62//62 84//84
f 85//85 64//64 58//58
f 71//71 86//86 76//76
f 67//67 86//86 71//71
f 67//67 82//82 86//86
f 81//81 68//68 54//54
f 72//72 56//56 63//63
f 70//70 74//74 87//87
f 64//64 88//88 75//75
f 65//65 76//76 81//81
f 69//69 77//77 73//73
f 62//62 78//78 89//89
f 62//62 89//89 84//84
f 61//61 80//80 83//83
f 58//58 84//84 85//85
f 80//80 70//70 87//87
f 64//64 85//85 88//88
f 72//72 90//90 82//82
f 77//77 68//68 91//91
f 72//72 63//63 90//90
f 73//73 77//77 91//91
f 75//75 88//88 92//92
f 92//92 74//74 75//75
f 81//81 76//76 93//93
f 86//86 94//94 76//76
f 95//95 86//86 82//82
f 63//63 79//79 96//96
f 94//94 93//93 76//76
f 86//86 97//97 94//94
f 86//86 95//95 97//97
f 95//95 82//82 90//90
f 93//93 98//98 81//81
f 81//81 98//98 68//68
f 68//68 98//98 91//91
f 90//90 63//63 96//96
f 73//73 99//99 78//78
f 79//79 83//83 96//96
f 99//99 89//89 78//78
f 100//100 83//83 80//80
f 89//89 101//101 84//84
f 102//102 85//85 84//84
f 102//102 103//103 85//85
f 85//85 103//103 92//92
f 85//85 92//92 88//88
f 74//74 92//92 104//104
f 104//104 87//87 74//74
f 101//101 89//89 99//99
f 102//102 84//84 101//101
f 80//80 87//87 100//100
f 105//105 97//97 95//95
f 98//98 106//106 91//91
f 73//73 91//91 107//107
f 73//73 107//107 99//99
f 101//101 103//103 102//102
f 92//92 103//103 108//108
f 108//108 104//104 92//92
f 94//94 109//109 93//93
f 94//94 97//97 105//105
f 90//90 105//105 95//95
f 100//100 96//96 83//83
f 100//100 110//110 96//96
f 100//100 87//87 110//110
f 87//87 111//111 110//110
f 104//104 111//111 87//87
f 103//103 112//112 108//108
f 94//94 105//105 109//109
f 106//106 107//107 91//91
f 96//96 113//113 90//90
f 114//114 103//103 101//101
f 112//112 111//111 108//108
f 104//104 108//108 111//111
f 113//113 105//105 90//90
f 99//99 107//107 115//115
f 115//115 101//101 99//99
f 103//103 114//114 112//112
f 111//111 116//116 110//110
f 117//117 116//116 111//111
f 112//112 117//117 111//111
f 93//93 109//109 118//118
f 105//105 119//119 109//109
f 98//98 93//93 118//118
f 105//105 120//120 119//119
f 98//98 118//118 106//106
f 120//120 105//105 113//113
f 107//107 106//106 121//121
f 113//113 96//96 122//122
f 115//115 114//114 101//101
f 96//96 110//110 122//122
f 122//122 110//110 116//116
f 123//123 109//109 119//119
f 118//118 109//109 123//123
f 118//118 121//121 106//106
f 113//113 124//124 120//120
f 121//121 115//115 107//107
f 115//115 121//121 125//125
f 113//113 122//122 124//124
f 126//126 122//122 116//116
f 126//126 116//116 117//117
f 112//112 114//114 127//127
f 112//112 127//127 117//117
f 123//123 119//119 120//120
f 118//118 123//123 121//121
f 121//121 123//123 125//125
f 114//114 115//115 125//125
f 127//127 126//126 117//117
f 120//120 128//128 123//123
f 120//120 124//124 128//128
f 123//123 128//128 125//125
f 124//124 122//122 128//128
f 122//122 126//126 128//128
f 125//125 128//128 114//114
f 127//127 114//114 128//128
f 126//126 127//127 128//128
