# Blender v2.92.0 OBJ File: 'convert_to_one_sided.blend'
# www.blender.org
mtllib 982L.mtl
o Cube
v 0.001000 0.001000 -0.001000
v 0.001000 -0.001000 -0.001000
v 0.001000 0.001000 0.001000
v 0.001000 -0.001000 0.001000
v -0.001000 0.001000 -0.001000
v -0.001000 -0.001000 -0.001000
v -0.001000 0.001000 0.001000
v -0.001000 -0.001000 0.001000
vt 0.625000 0.500000
vt 0.875000 0.500000
vt 0.875000 0.750000
vt 0.625000 0.750000
vt 0.375000 0.750000
vt 0.625000 1.000000
vt 0.375000 1.000000
vt 0.375000 0.000000
vt 0.625000 0.000000
vt 0.625000 0.250000
vt 0.375000 0.250000
vt 0.125000 0.500000
vt 0.375000 0.500000
vt 0.125000 0.750000
vn 0.0000 1.0000 0.0000
vn 0.0000 0.0000 1.0000
vn -1.0000 0.0000 0.0000
vn 0.0000 -1.0000 0.0000
vn 1.0000 0.0000 0.0000
vn 0.0000 0.0000 -1.0000
usemtl Material
s off
f 1/1/1 5/2/1 7/3/1 3/4/1
f 4/5/2 3/4/2 7/6/2 8/7/2
f 8/8/3 7/9/3 5/10/3 6/11/3
f 6/12/4 2/13/4 4/5/4 8/14/4
f 2/13/5 1/1/5 3/4/5 4/5/5
f 6/11/6 5/10/6 1/1/6 2/13/6
o 982
v 7.505444 2.158461 5.473020
v 7.398695 2.228850 5.470410
v 7.484814 2.242270 5.457970
v 7.585402 2.153861 5.468650
v 7.561052 2.211411 5.468140
v 7.471024 2.276150 5.460860
v 7.379355 2.285260 5.464670
v 7.366665 2.317639 5.465611
v 7.242567 2.314999 5.477050
v 7.244347 2.337739 5.483370
v 7.641442 2.092992 5.484200
v 7.600842 2.104372 5.485680
v 7.623732 2.131072 5.481030
v 7.322576 2.158641 5.501180
v 7.598112 2.175251 5.479460
v 7.256456 2.234420 5.487600
v 7.538433 2.228200 5.470950
v 6.977030 2.363509 5.465820
v 6.967440 2.327479 5.475830
v 6.871252 2.347649 5.485630
v 7.091009 2.332519 5.477240
v 7.082589 2.356829 5.478650
v 6.952510 2.371499 5.478900
v 6.887842 2.379438 5.493930
v 6.993940 2.374398 5.484499
v 7.636622 2.080652 5.492480
v 7.556823 2.093202 5.504800
v 7.643902 2.091122 5.485170
v 7.403125 2.109222 5.520920
v 7.621992 2.114602 5.499160
v 7.054319 2.257100 5.492750
v 6.890831 2.265240 5.500280
v 6.815342 2.297149 5.506030
v 7.459154 2.274560 5.474110
v 6.816182 2.343979 5.519400
v 7.351935 2.310969 5.482730
v 7.072679 2.363759 5.490720
v 7.484134 2.082552 5.532939
v 7.588422 2.079042 5.514410
v 7.625002 2.084992 5.494890
v 7.158957 2.124092 5.539099
v 7.141448 2.185661 5.509809
v 6.948801 2.184701 5.530729
v 6.829062 2.244570 5.520979
v 6.782863 2.276460 5.534159
v 6.764863 2.298099 5.563069
v 7.066109 2.346909 5.528920
v 6.852162 2.373299 5.530339
v 6.959761 2.369249 5.509030
v 7.322096 2.095662 5.552539
v 7.018419 2.128432 5.567769
v 6.810183 2.211051 5.551349
v 7.533903 2.210911 5.490370
v 6.761773 2.232110 5.572679
v 7.428444 2.253430 5.509540
v 7.274796 2.295399 5.519159
v 7.186858 2.269270 5.570119
v 6.797712 2.335919 5.562909
v 6.923971 2.351819 5.553919
v 7.596872 2.083992 5.516519
v 7.462594 2.087312 5.549019
v 7.174518 2.104622 5.580109
v 7.586782 2.109342 5.523149
v 7.524343 2.156841 5.528499
v 6.893351 2.157071 5.582808
v 6.794033 2.192521 5.586749
v 6.761563 2.296949 5.591969
v 7.531203 2.110972 5.538919
v 7.312056 2.096262 5.583138
v 7.438284 2.143711 5.569019
v 6.764113 2.205511 5.604649
v 7.353095 2.217970 5.551239
v 6.845242 2.330549 5.584038
v 7.364295 2.096492 5.588328
v 7.439934 2.108712 5.566839
v 7.052689 2.120282 5.601489
v 6.987180 2.134762 5.621318
v 6.853052 2.174891 5.617308
v 7.246117 2.191671 5.597989
v 6.760683 2.251230 5.597858
v 7.028880 2.281340 5.589009
v 6.785563 2.299030 5.606878
v 7.202767 2.109082 5.606638
v 7.341245 2.125662 5.593449
v 6.790312 2.223021 5.624668
v 6.774232 2.269190 5.610908
v 7.096539 2.122612 5.617198
v 7.268587 2.117562 5.610798
v 7.224617 2.148501 5.619248
v 7.083089 2.197401 5.626968
v 6.908091 2.250160 5.624648
v 7.106618 2.138691 5.623128
v 6.962660 2.153641 5.632388
v 6.891521 2.183131 5.636888
v 6.813053 2.252310 5.624258
v 6.961100 2.187991 5.633548
v 6.870862 2.217520 5.628128
vn -0.1224 -0.3763 -0.9184
vn -0.1230 -0.2012 -0.9718
vn 0.0418 0.0229 -0.9989
vn 0.1775 -0.0513 -0.9828
vn 0.5597 0.4994 -0.6613
vn 0.3775 0.6970 -0.6096
vn -0.0542 0.0598 -0.9967
vn 0.1950 0.8572 -0.4767
vn -0.0188 0.1671 -0.9858
vn 0.1711 0.9848 -0.0301
vn 0.4662 -0.2516 -0.8481
vn -0.1104 -0.4974 -0.8605
vn 0.8295 0.3957 -0.3941
vn -0.1164 -0.3871 -0.9147
vn 0.7317 0.6319 0.2556
vn -0.0926 -0.2044 -0.9745
vn 0.5749 0.7915 0.2073
vn -0.0268 0.2457 -0.9690
vn -0.0652 -0.2162 -0.9742
vn -0.2918 0.1808 -0.9392
vn 0.0409 -0.0456 -0.9981
vn 0.1205 0.6582 -0.7431
vn -0.0548 0.6990 -0.7131
vn -0.2095 0.8941 -0.3959
vn 0.0830 0.9680 -0.2368
vn 0.3031 -0.9053 -0.2976
vn -0.1527 -0.7367 -0.6588
vn 0.9746 -0.1392 0.1754
vn -0.1258 -0.6677 -0.7337
vn 0.6494 0.2830 0.7058
vn -0.0452 -0.2681 -0.9623
vn -0.1359 -0.3058 -0.9424
vn -0.4447 -0.0826 -0.8918
vn 0.4030 0.8149 0.4166
vn -0.6607 0.5325 -0.5290
vn 0.2517 0.8156 0.5210
vn 0.1417 0.9885 0.0522
vn -0.0923 -0.9525 -0.2902
vn 0.1263 -0.9707 0.2046
vn 0.5712 -0.4905 0.6582
vn -0.1192 -0.7109 -0.6931
vn -0.0902 -0.3662 -0.9262
vn -0.1662 -0.5632 -0.8094
vn -0.3235 -0.4226 -0.8466
vn -0.6771 -0.1337 -0.7236
vn -0.9232 0.2880 -0.2546
vn 0.1610 0.7897 0.5921
vn -0.2105 0.9446 0.2518
vn 0.0867 0.9486 0.3043
vn -0.0895 -0.9658 -0.2432
vn -0.1882 -0.9017 -0.3893
vn -0.4057 -0.6104 -0.6803
vn 0.4275 0.5700 0.7017
vn -0.8492 -0.3375 -0.4061
vn 0.2878 0.5823 0.7604
vn 0.2104 0.6725 0.7096
vn 0.2003 0.5686 0.7979
vn -0.5352 0.8076 0.2478
vn 0.1065 0.7787 0.6182
vn 0.3982 -0.3647 0.8417
vn 0.1213 -0.8158 0.5655
vn -0.1010 -0.9928 -0.0637
vn 0.4053 0.1421 0.9031
vn 0.3511 0.4123 0.8407
vn -0.2855 -0.9319 -0.2238
vn -0.4757 -0.8434 -0.2498
vn -0.7924 0.4346 0.4281
vn 0.2918 -0.0827 0.9529
vn -0.0258 -0.9734 0.2279
vn 0.2864 0.2366 0.9284
vn -0.7593 -0.5621 0.3278
vn 0.2544 0.5090 0.8223
vn -0.0152 0.6834 0.7299
vn 0.1607 -0.5580 0.8141
vn 0.2847 -0.2204 0.9329
vn -0.1428 -0.9746 0.1727
vn -0.1545 -0.8113 0.5639
vn -0.3145 -0.7806 0.5402
vn 0.2063 0.3960 0.8948
vn -0.9320 0.0002 0.3624
vn 0.1415 0.5400 0.8297
vn -0.2402 0.5232 0.8177
vn -0.0215 -0.8008 0.5986
vn 0.2389 0.0572 0.9693
vn -0.3708 -0.1115 0.9220
vn -0.5242 0.1698 0.8345
vn -0.0380 -0.7111 0.7021
vn 0.1125 -0.2843 0.9521
vn 0.1520 0.0913 0.9841
vn 0.1044 0.2395 0.9653
vn 0.0489 0.3307 0.9425
vn 0.0275 -0.2880 0.9572
vn -0.0728 -0.4140 0.9074
vn -0.1119 -0.1716 0.9788
vn -0.1151 0.1853 0.9759
vn 0.0331 0.0553 0.9979
vn -0.0234 0.1314 0.9911
usemtl mtl1.860
s 1
f 9//7 10//8 11//9
f 12//10 9//7 11//9
f 13//11 12//10 11//9
f 13//11 11//9 14//12
f 11//9 10//8 15//13
f 11//9 15//13 14//12
f 14//12 15//13 16//14
f 16//14 15//13 17//15
f 16//14 17//15 18//16
f 12//10 19//17 20//18
f 12//10 20//18 9//7
f 19//17 12//10 21//19
f 9//7 22//20 10//8
f 23//21 21//19 13//11
f 13//11 21//19 12//10
f 10//8 24//22 15//13
f 15//13 24//22 17//15
f 13//11 14//12 25//23
f 26//24 27//25 28//26
f 29//27 27//25 26//24
f 30//28 29//27 26//24
f 17//15 29//27 30//28
f 31//29 26//24 28//26
f 30//28 26//24 31//29
f 30//28 18//16 17//15
f 31//29 28//26 32//30
f 30//28 31//29 33//31
f 20//18 19//17 34//32
f 35//33 20//18 34//32
f 34//32 19//17 36//34
f 22//20 9//7 37//35
f 35//33 37//35 9//7
f 20//18 35//33 9//7
f 36//34 19//17 21//19
f 21//19 23//21 38//36
f 10//8 22//20 24//22
f 13//11 25//23 23//21
f 24//22 39//37 17//15
f 39//37 40//38 27//25
f 29//27 39//37 27//25
f 17//15 39//37 29//27
f 28//26 40//38 41//39
f 27//25 40//38 28//26
f 25//23 14//12 42//40
f 28//26 41//39 43//41
f 14//12 16//14 42//40
f 16//14 44//42 42//40
f 16//14 18//16 44//42
f 28//26 43//41 32//30
f 30//28 33//31 45//43
f 45//43 18//16 30//28
f 33//31 31//29 32//30
f 46//44 35//33 47//45
f 47//45 35//33 34//32
f 34//32 36//34 48//46
f 35//33 46//44 37//35
f 49//47 22//20 37//35
f 49//47 50//48 22//20
f 36//34 21//19 38//36
f 22//20 50//48 24//22
f 51//49 52//50 40//38
f 50//48 51//49 39//37
f 39//37 51//49 40//38
f 24//22 50//48 39//37
f 41//39 52//50 53//51
f 40//38 52//50 41//39
f 43//41 41//39 53//51
f 54//52 43//41 53//51
f 45//43 55//53 18//16
f 32//30 43//41 56//54
f 33//31 57//55 45//43
f 32//30 56//54 57//55
f 33//31 32//30 57//55
f 34//32 48//46 47//45
f 49//47 37//35 58//56
f 37//35 46//44 58//56
f 48//46 36//34 38//36
f 51//49 49//47 59//57
f 50//48 49//47 51//49
f 51//49 60//58 52//50
f 38//36 23//21 61//59
f 52//50 60//58 53//51
f 53//51 60//58 62//60
f 61//59 42//40 63//61
f 61//59 25//23 42//40
f 23//21 25//23 61//59
f 44//42 64//62 63//61
f 63//61 42//40 44//42
f 55//53 65//63 64//62
f 66//64 43//41 54//52
f 64//62 18//16 55//53
f 44//42 18//16 64//62
f 43//41 66//64 56//54
f 45//43 57//55 55//53
f 57//55 67//65 55//53
f 68//66 47//45 48//46
f 47//45 69//67 46//44
f 47//45 68//66 69//67
f 70//68 49//47 58//56
f 38//36 71//69 68//66
f 68//66 48//46 38//36
f 49//47 70//68 59//57
f 38//36 72//70 71//69
f 60//58 73//71 74//72
f 51//49 73//71 60//58
f 59//57 73//71 51//49
f 38//36 61//59 72//70
f 60//58 74//72 62//60
f 72//70 61//59 63//61
f 53//51 62//60 54//52
f 54//52 75//73 66//64
f 57//55 56//54 67//65
f 58//56 46//44 69//67
f 69//67 68//66 76//74
f 58//56 77//75 70//68
f 68//66 71//69 76//74
f 71//69 72//70 76//74
f 72//70 78//76 76//74
f 62//60 74//72 79//77
f 72//70 63//61 80//78
f 65//63 80//78 64//62
f 63//61 64//62 80//78
f 66//64 81//79 56//54
f 56//54 81//79 67//65
f 77//75 58//56 69//67
f 69//67 82//80 77//75
f 69//67 76//74 83//81
f 73//71 84//82 85//83
f 59//57 84//82 73//71
f 70//68 84//82 59//57
f 76//74 78//76 83//81
f 74//72 86//84 79//77
f 86//84 74//72 73//71
f 78//76 72//70 80//78
f 87//85 80//78 65//63
f 88//86 54//52 62//60
f 75//73 54//52 88//86
f 89//87 55//53 67//65
f 90//88 66//64 75//73
f 66//64 90//88 81//79
f 70//68 91//89 84//82
f 77//75 91//89 70//68
f 82//80 91//89 77//75
f 82//80 69//67 83//81
f 82//80 83//81 92//90
f 73//71 85//83 86//84
f 78//76 92//90 83//81
f 78//76 87//85 92//90
f 93//91 79//77 86//84
f 78//76 80//78 87//85
f 79//77 93//91 88//86
f 79//77 88//86 62//60
f 65//63 89//87 87//85
f 88//86 94//92 75//73
f 65//63 55//53 89//87
f 75//73 94//92 90//88
f 67//65 81//79 89//87
f 84//82 91//89 95//93
f 91//89 82//80 96//94
f 84//82 95//93 85//83
f 92//90 96//94 82//80
f 92//90 97//95 96//94
f 87//85 97//95 92//90
f 97//95 87//85 98//96
f 81//79 99//97 89//87
f 81//79 90//88 99//97
f 95//93 91//89 100//98
f 100//98 91//89 96//94
f 86//84 85//83 101//99
f 100//98 101//99 85//83
f 95//93 100//98 85//83
f 96//94 97//95 100//98
f 101//99 102//100 86//84
f 93//91 86//84 102//100
f 97//95 98//96 100//98
f 88//86 93//91 94//92
f 99//97 98//96 89//87
f 103//101 94//92 93//91
f 98//96 87//85 89//87
f 94//92 103//101 90//88
f 99//97 90//88 103//101
f 101//99 100//98 104//102
f 102//100 101//99 104//102
f 104//102 105//103 102//100
f 100//98 98//96 104//102
f 93//91 102//100 105//103
f 98//96 99//97 104//102
f 104//102 99//97 105//103
f 105//103 103//101 93//91
f 99//97 103//101 105//103
