# Blender v2.92.0 OBJ File: 'convert_to_one_sided.blend'
# www.blender.org
mtllib 982L.mtl
o 982
v 7.505444 2.158461 5.473020
v 7.398695 2.228850 5.470410
v 7.484814 2.242270 5.457970
v 7.585402 2.153861 5.468650
v 7.561052 2.211411 5.468140
v 7.471024 2.276150 5.460860
v 7.379355 2.285260 5.464670
v 7.366665 2.317639 5.465611
v 7.242567 2.314999 5.477050
v 7.244347 2.337739 5.483370
v 7.641442 2.092992 5.484200
v 7.600842 2.104372 5.485680
v 7.623732 2.131072 5.481030
v 7.322576 2.158641 5.501180
v 7.598112 2.175251 5.479460
v 7.256456 2.234420 5.487600
v 7.538433 2.228200 5.470950
v 6.977030 2.363509 5.465820
v 6.967440 2.327479 5.475830
v 6.871252 2.347649 5.485630
v 7.091009 2.332519 5.477240
v 7.082589 2.356829 5.478650
v 6.952510 2.371499 5.478900
v 6.887842 2.379438 5.493930
v 6.993940 2.374398 5.484499
v 7.636622 2.080652 5.492480
v 7.556823 2.093202 5.504800
v 7.643902 2.091122 5.485170
v 7.403125 2.109222 5.520920
v 7.621992 2.114602 5.499160
v 7.054319 2.257100 5.492750
v 6.890831 2.265240 5.500280
v 6.815342 2.297149 5.506030
v 7.459154 2.274560 5.474110
v 6.816182 2.343979 5.519400
v 7.351935 2.310969 5.482730
v 7.072679 2.363759 5.490720
v 7.484134 2.082552 5.532939
v 7.588422 2.079042 5.514410
v 7.625002 2.084992 5.494890
v 7.158957 2.124092 5.539099
v 7.141448 2.185661 5.509809
v 6.948801 2.184701 5.530729
v 6.829062 2.244570 5.520979
v 6.782863 2.276460 5.534159
v 6.764863 2.298099 5.563069
v 7.066109 2.346909 5.528920
v 6.852162 2.373299 5.530339
v 6.959761 2.369249 5.509030
v 7.322096 2.095662 5.552539
v 7.018419 2.128432 5.567769
v 6.810183 2.211051 5.551349
v 7.533903 2.210911 5.490370
v 6.761773 2.232110 5.572679
v 7.428444 2.253430 5.509540
v 7.274796 2.295399 5.519159
v 7.186858 2.269270 5.570119
v 6.797712 2.335919 5.562909
v 6.923971 2.351819 5.553919
v 7.596872 2.083992 5.516519
v 7.462594 2.087312 5.549019
v 7.174518 2.104622 5.580109
v 7.586782 2.109342 5.523149
v 7.524343 2.156841 5.528499
v 6.893351 2.157071 5.582808
v 6.794033 2.192521 5.586749
v 6.761563 2.296949 5.591969
v 7.531203 2.110972 5.538919
v 7.312056 2.096262 5.583138
v 7.438284 2.143711 5.569019
v 6.764113 2.205511 5.604649
v 7.353095 2.217970 5.551239
v 6.845242 2.330549 5.584038
v 7.364295 2.096492 5.588328
v 7.439934 2.108712 5.566839
v 7.052689 2.120282 5.601489
v 6.987180 2.134762 5.621318
v 6.853052 2.174891 5.617308
v 7.246117 2.191671 5.597989
v 6.760683 2.251230 5.597858
v 7.028880 2.281340 5.589009
v 6.785563 2.299030 5.606878
v 7.202767 2.109082 5.606638
v 7.341245 2.125662 5.593449
v 6.790312 2.223021 5.624668
v 6.774232 2.269190 5.610908
v 7.096539 2.122612 5.617198
v 7.268587 2.117562 5.610798
v 7.224617 2.148501 5.619248
v 7.083089 2.197401 5.626968
v 6.908091 2.250160 5.624648
v 7.106618 2.138691 5.623128
v 6.962660 2.153641 5.632388
v 6.891521 2.183131 5.636888
v 6.813053 2.252310 5.624258
v 6.961100 2.187991 5.633548
v 6.870862 2.217520 5.628128
vn -0.1224 -0.3763 -0.9184
vn -0.1230 -0.2012 -0.9718
vn 0.0418 0.0229 -0.9989
vn 0.1775 -0.0513 -0.9828
vn 0.5597 0.4994 -0.6613
vn 0.3775 0.6970 -0.6096
vn -0.0542 0.0598 -0.9967
vn 0.1950 0.8572 -0.4767
vn -0.0188 0.1671 -0.9858
vn 0.1711 0.9848 -0.0301
vn 0.4662 -0.2516 -0.8481
vn -0.1104 -0.4974 -0.8605
vn 0.8295 0.3957 -0.3941
vn -0.1164 -0.3871 -0.9147
vn 0.7317 0.6319 0.2556
vn -0.0926 -0.2044 -0.9745
vn 0.5749 0.7915 0.2073
vn -0.0268 0.2457 -0.9690
vn -0.0652 -0.2162 -0.9742
vn -0.2918 0.1808 -0.9392
vn 0.0409 -0.0456 -0.9981
vn 0.1205 0.6582 -0.7431
vn -0.0548 0.6990 -0.7131
vn -0.2095 0.8941 -0.3959
vn 0.0830 0.9680 -0.2368
vn 0.3031 -0.9053 -0.2976
vn -0.1527 -0.7367 -0.6588
vn 0.9746 -0.1392 0.1754
vn -0.1258 -0.6677 -0.7337
vn 0.6494 0.2830 0.7058
vn -0.0452 -0.2681 -0.9623
vn -0.1359 -0.3058 -0.9424
vn -0.4447 -0.0826 -0.8918
vn 0.4030 0.8149 0.4166
vn -0.6607 0.5325 -0.5290
vn 0.2517 0.8156 0.5210
vn 0.1417 0.9885 0.0522
vn -0.0923 -0.9525 -0.2902
vn 0.1263 -0.9707 0.2046
vn 0.5712 -0.4905 0.6582
vn -0.1192 -0.7109 -0.6931
vn -0.0902 -0.3662 -0.9262
vn -0.1662 -0.5632 -0.8094
vn -0.3235 -0.4226 -0.8466
vn -0.6771 -0.1337 -0.7236
vn -0.9232 0.2880 -0.2546
vn 0.1610 0.7897 0.5921
vn -0.2105 0.9446 0.2518
vn 0.0867 0.9486 0.3043
vn -0.0895 -0.9658 -0.2432
vn -0.1882 -0.9017 -0.3893
vn -0.4057 -0.6104 -0.6803
vn 0.4275 0.5700 0.7017
vn -0.8492 -0.3375 -0.4061
vn 0.2878 0.5823 0.7604
vn 0.2104 0.6725 0.7096
vn 0.2003 0.5686 0.7979
vn -0.5352 0.8076 0.2478
vn 0.1065 0.7787 0.6182
vn 0.3982 -0.3647 0.8417
vn 0.1213 -0.8158 0.5655
vn -0.1010 -0.9928 -0.0637
vn 0.4053 0.1421 0.9031
vn 0.3511 0.4123 0.8407
vn -0.2855 -0.9319 -0.2238
vn -0.4757 -0.8434 -0.2498
vn -0.7924 0.4346 0.4281
vn 0.2918 -0.0827 0.9529
vn -0.0258 -0.9734 0.2279
vn 0.2864 0.2366 0.9284
vn -0.7593 -0.5621 0.3278
vn 0.2544 0.5090 0.8223
vn -0.0152 0.6834 0.7299
vn 0.1607 -0.5580 0.8141
vn 0.2847 -0.2204 0.9329
vn -0.1428 -0.9746 0.1727
vn -0.1545 -0.8113 0.5639
vn -0.3145 -0.7806 0.5402
vn 0.2063 0.3960 0.8948
vn -0.9320 0.0002 0.3624
vn 0.1415 0.5400 0.8297
vn -0.2402 0.5232 0.8177
vn -0.0215 -0.8008 0.5986
vn 0.2389 0.0572 0.9693
vn -0.3708 -0.1115 0.9220
vn -0.5242 0.1698 0.8345
vn -0.0380 -0.7111 0.7021
vn 0.1125 -0.2843 0.9521
vn 0.1520 0.0913 0.9841
vn 0.1044 0.2395 0.9653
vn 0.0489 0.3307 0.9425
vn 0.0275 -0.2880 0.9572
vn -0.0728 -0.4140 0.9074
vn -0.1119 -0.1716 0.9788
vn -0.1151 0.1853 0.9759
vn 0.0331 0.0553 0.9979
vn -0.0234 0.1314 0.9911
usemtl mtl1.1678
s 1
f 1//1 2//2 3//3
f 4//4 1//1 3//3
f 5//5 4//4 3//3
f 5//5 3//3 6//6
f 3//3 2//2 7//7
f 3//3 7//7 6//6
f 6//6 7//7 8//8
f 8//8 7//7 9//9
f 8//8 9//9 10//10
f 4//4 11//11 12//12
f 4//4 12//12 1//1
f 11//11 4//4 13//13
f 1//1 14//14 2//2
f 15//15 13//13 5//5
f 5//5 13//13 4//4
f 2//2 16//16 7//7
f 7//7 16//16 9//9
f 5//5 6//6 17//17
f 18//18 19//19 20//20
f 21//21 19//19 18//18
f 22//22 21//21 18//18
f 9//9 21//21 22//22
f 23//23 18//18 20//20
f 22//22 18//18 23//23
f 22//22 10//10 9//9
f 23//23 20//20 24//24
f 22//22 23//23 25//25
f 12//12 11//11 26//26
f 27//27 12//12 26//26
f 26//26 11//11 28//28
f 14//14 1//1 29//29
f 27//27 29//29 1//1
f 12//12 27//27 1//1
f 28//28 11//11 13//13
f 13//13 15//15 30//30
f 2//2 14//14 16//16
f 5//5 17//17 15//15
f 16//16 31//31 9//9
f 31//31 32//32 19//19
f 21//21 31//31 19//19
f 9//9 31//31 21//21
f 20//20 32//32 33//33
f 19//19 32//32 20//20
f 17//17 6//6 34//34
f 20//20 33//33 35//35
f 6//6 8//8 34//34
f 8//8 36//36 34//34
f 8//8 10//10 36//36
f 20//20 35//35 24//24
f 22//22 25//25 37//37
f 37//37 10//10 22//22
f 25//25 23//23 24//24
f 38//38 27//27 39//39
f 39//39 27//27 26//26
f 26//26 28//28 40//40
f 27//27 38//38 29//29
f 41//41 14//14 29//29
f 41//41 42//42 14//14
f 28//28 13//13 30//30
f 14//14 42//42 16//16
f 43//43 44//44 32//32
f 42//42 43//43 31//31
f 31//31 43//43 32//32
f 16//16 42//42 31//31
f 33//33 44//44 45//45
f 32//32 44//44 33//33
f 35//35 33//33 45//45
f 46//46 35//35 45//45
f 37//37 47//47 10//10
f 24//24 35//35 48//48
f 25//25 49//49 37//37
f 24//24 48//48 49//49
f 25//25 24//24 49//49
f 26//26 40//40 39//39
f 41//41 29//29 50//50
f 29//29 38//38 50//50
f 40//40 28//28 30//30
f 43//43 41//41 51//51
f 42//42 41//41 43//43
f 43//43 52//52 44//44
f 30//30 15//15 53//53
f 44//44 52//52 45//45
f 45//45 52//52 54//54
f 53//53 34//34 55//55
f 53//53 17//17 34//34
f 15//15 17//17 53//53
f 36//36 56//56 55//55
f 55//55 34//34 36//36
f 47//47 57//57 56//56
f 58//58 35//35 46//46
f 56//56 10//10 47//47
f 36//36 10//10 56//56
f 35//35 58//58 48//48
f 37//37 49//49 47//47
f 49//49 59//59 47//47
f 60//60 39//39 40//40
f 39//39 61//61 38//38
f 39//39 60//60 61//61
f 62//62 41//41 50//50
f 30//30 63//63 60//60
f 60//60 40//40 30//30
f 41//41 62//62 51//51
f 30//30 64//64 63//63
f 52//52 65//65 66//66
f 43//43 65//65 52//52
f 51//51 65//65 43//43
f 30//30 53//53 64//64
f 52//52 66//66 54//54
f 64//64 53//53 55//55
f 45//45 54//54 46//46
f 46//46 67//67 58//58
f 49//49 48//48 59//59
f 50//50 38//38 61//61
f 61//61 60//60 68//68
f 50//50 69//69 62//62
f 60//60 63//63 68//68
f 63//63 64//64 68//68
f 64//64 70//70 68//68
f 54//54 66//66 71//71
f 64//64 55//55 72//72
f 57//57 72//72 56//56
f 55//55 56//56 72//72
f 58//58 73//73 48//48
f 48//48 73//73 59//59
f 69//69 50//50 61//61
f 61//61 74//74 69//69
f 61//61 68//68 75//75
f 65//65 76//76 77//77
f 51//51 76//76 65//65
f 62//62 76//76 51//51
f 68//68 70//70 75//75
f 66//66 78//78 71//71
f 78//78 66//66 65//65
f 70//70 64//64 72//72
f 79//79 72//72 57//57
f 80//80 46//46 54//54
f 67//67 46//46 80//80
f 81//81 47//47 59//59
f 82//82 58//58 67//67
f 58//58 82//82 73//73
f 62//62 83//83 76//76
f 69//69 83//83 62//62
f 74//74 83//83 69//69
f 74//74 61//61 75//75
f 74//74 75//75 84//84
f 65//65 77//77 78//78
f 70//70 84//84 75//75
f 70//70 79//79 84//84
f 85//85 71//71 78//78
f 70//70 72//72 79//79
f 71//71 85//85 80//80
f 71//71 80//80 54//54
f 57//57 81//81 79//79
f 80//80 86//86 67//67
f 57//57 47//47 81//81
f 67//67 86//86 82//82
f 59//59 73//73 81//81
f 76//76 83//83 87//87
f 83//83 74//74 88//88
f 76//76 87//87 77//77
f 84//84 88//88 74//74
f 84//84 89//89 88//88
f 79//79 89//89 84//84
f 89//89 79//79 90//90
f 73//73 91//91 81//81
f 73//73 82//82 91//91
f 87//87 83//83 92//92
f 92//92 83//83 88//88
f 78//78 77//77 93//93
f 92//92 93//93 77//77
f 87//87 92//92 77//77
f 88//88 89//89 92//92
f 93//93 94//94 78//78
f 85//85 78//78 94//94
f 89//89 90//90 92//92
f 80//80 85//85 86//86
f 91//91 90//90 81//81
f 95//95 86//86 85//85
f 90//90 79//79 81//81
f 86//86 95//95 82//82
f 91//91 82//82 95//95
f 93//93 92//92 96//96
f 94//94 93//93 96//96
f 96//96 97//97 94//94
f 92//92 90//90 96//96
f 85//85 94//94 97//97
f 90//90 91//91 96//96
f 96//96 91//91 97//97
f 97//97 95//95 85//85
f 91//91 95//95 97//97
