# Blender v2.92.0 OBJ File: 'convert_to_one_sided.blend'
# www.blender.org
mtllib 9L.mtl
o 9
v 7.126478 1.384652 3.310458
v 7.103958 1.417851 3.295408
v 7.138828 1.413011 3.317368
v 7.055729 1.415961 3.295908
v 7.036860 1.451521 3.298178
v 7.094059 1.472901 3.307498
v 7.095819 1.394311 3.309208
v 7.018720 1.382572 3.363017
v 6.986100 1.434661 3.322318
v 7.131498 1.448601 3.312808
v 6.975690 1.479750 3.321507
v 7.034610 1.501190 3.322808
v 7.132038 1.476890 3.322717
v 7.147488 1.446951 3.327407
v 7.094899 1.364652 3.363337
v 6.931801 1.424381 3.360577
v 6.935690 1.494920 3.343427
v 6.944941 1.459611 3.341677
v 7.149928 1.465271 3.352177
v 6.972010 1.522190 3.352807
v 7.080509 1.506810 3.332497
v 7.022560 1.527400 3.351957
v 7.125428 1.372202 3.382857
v 7.145678 1.419891 3.379537
v 6.910181 1.464001 3.374267
v 6.894691 1.500050 3.429896
v 6.932491 1.514120 3.378547
v 7.120628 1.493910 3.350497
v 7.062979 1.310812 3.493335
v 7.094259 1.331032 3.458516
v 6.921551 1.382362 3.438616
v 6.880722 1.425021 3.431046
v 7.122398 1.356462 3.493415
v 6.832682 1.439241 3.516435
v 7.039860 1.532190 3.377047
v 6.979810 1.541589 3.406006
v 6.966500 1.317912 3.541745
v 7.143288 1.429861 3.446856
v 7.136858 1.464141 3.407296
v 7.062859 1.482710 3.478595
v 6.920621 1.519700 3.446356
v 7.003990 1.544209 3.401096
v 6.983710 1.527670 3.454396
v 7.080499 1.304813 3.519495
v 6.856652 1.396771 3.486785
v 6.844592 1.411621 3.493445
v 7.114069 1.432511 3.501705
v 7.084739 1.306223 3.547275
v 6.861052 1.345592 3.581214
v 7.124319 1.373372 3.524985
v 6.829032 1.475970 3.583154
v 6.855122 1.500600 3.576634
v 6.949571 1.496200 3.579914
v 6.922411 1.515490 3.515195
v 7.071239 1.296693 3.545985
v 6.825702 1.395961 3.548545
v 6.898411 1.265383 3.733712
v 7.086219 1.308903 3.658833
v 6.792413 1.399371 3.596994
v 7.085759 1.420871 3.576754
v 7.000240 1.428831 3.687783
v 7.010080 1.263413 3.660303
v 7.056799 1.285713 3.590904
v 7.103158 1.345432 3.634444
v 7.105399 1.389232 3.580844
v 6.755933 1.403901 3.699233
v 6.801912 1.367612 3.618884
v 6.781662 1.444401 3.689833
v 6.870532 1.495470 3.646823
v 6.769273 1.368062 3.676703
v 7.061949 1.373452 3.709763
v 6.781642 1.469620 3.765132
v 6.872001 1.461141 3.786551
v 7.050909 1.272623 3.673193
v 6.790452 1.321062 3.723952
v 7.079559 1.321692 3.731092
v 6.728394 1.357362 3.754952
v 7.081149 1.346272 3.701193
v 6.823362 1.486540 3.709303
v 7.019519 1.238664 3.759812
v 6.738263 1.339752 3.755732
v 6.973130 1.223834 3.804201
v 6.716404 1.335252 3.791171
v 6.699354 1.370652 3.845351
v 6.824972 1.479280 3.768952
v 7.032539 1.246713 3.833191
v 6.721853 1.311283 3.832051
v 7.056779 1.292233 3.804011
v 6.699624 1.333612 3.846201
v 7.008689 1.352662 3.859150
v 6.920211 1.399341 3.895300
v 6.707074 1.411621 3.892160
v 6.790802 1.473380 3.809381
v 7.048349 1.317632 3.824391
v 6.998080 1.219604 3.841551
v 6.780723 1.248823 3.928270
v 6.973780 1.194174 3.912520
v 6.698234 1.280583 3.943959
v 6.663544 1.340282 3.933840
v 6.913451 1.206734 3.916140
v 6.712673 1.446181 3.990259
v 6.759063 1.463071 3.889720
v 6.792333 1.464471 3.869811
v 6.989940 1.198544 3.942250
v 6.666814 1.305143 3.956489
v 6.673214 1.368462 3.926820
v 7.023230 1.259353 3.943439
v 6.749143 1.453911 3.963469
v 6.970690 1.179604 3.987769
v 6.790292 1.426271 4.029868
v 6.617985 1.313982 4.058118
v 7.005600 1.285763 4.003058
v 6.942670 1.170404 4.041878
v 6.966930 1.176804 4.042788
v 6.985780 1.201394 4.041338
v 6.650475 1.262033 4.076948
v 6.630365 1.292343 4.054638
v 6.935181 1.336092 4.049518
v 6.646155 1.364462 4.023918
v 6.860712 1.381412 4.055368
v 6.811962 1.175694 4.136517
v 6.707644 1.224054 4.110117
v 6.983490 1.229843 4.116557
v 6.965160 1.286083 4.137037
v 6.716193 1.440851 4.075148
v 6.603385 1.285653 4.115357
v 6.579556 1.352912 4.188526
v 6.565856 1.297503 4.187616
v 6.638694 1.411591 4.133307
v 6.896051 1.143355 4.177556
v 6.967020 1.252813 4.183396
v 6.905101 1.301623 4.244865
v 6.685974 1.435381 4.218336
v 6.692784 1.409971 4.332514
v 6.652944 1.438001 4.209156
v 6.728993 1.139695 4.362924
v 6.838162 1.128865 4.283485
v 6.936381 1.160794 4.156746
v 6.610115 1.209704 4.285345
v 6.822712 1.356232 4.234035
v 6.900881 1.135075 4.249896
v 6.936881 1.184744 4.255816
v 6.880762 1.126765 4.275105
v 6.561545 1.262943 4.228986
v 6.938341 1.267893 4.250735
v 6.941411 1.226183 4.283445
v 6.522056 1.282993 4.269435
v 6.510086 1.314142 4.293555
v 6.564916 1.404541 4.289065
v 6.484807 1.367902 4.381403
v 6.505236 1.268373 4.307335
v 6.893331 1.136475 4.311564
v 6.932761 1.251473 4.299494
v 6.587575 1.435271 4.320584
v 6.630995 1.442931 4.316954
v 6.862482 1.120065 4.335614
v 6.882351 1.129505 4.292505
v 6.496086 1.252443 4.344504
v 6.472957 1.279413 4.354734
v 6.838612 1.304513 4.384444
v 6.900091 1.268323 4.345214
v 6.602375 1.444321 4.358154
v 6.813632 1.120685 4.376344
v 6.432037 1.306862 4.419663
v 6.606315 1.441851 4.399084
v 6.465397 1.223683 4.439733
v 6.905951 1.233313 4.378513
v 6.910201 1.204194 4.365564
v 6.443427 1.259523 4.411933
v 6.415388 1.277773 4.440303
v 6.508106 1.429001 4.437433
v 6.839932 1.126895 4.396473
v 6.880432 1.162634 4.377604
v 6.739203 1.357122 4.422043
v 6.552425 1.445631 4.431043
v 6.580025 1.175114 4.436313
v 6.626925 1.408631 4.475812
v 6.775573 1.130585 4.438833
v 6.865942 1.201854 4.437053
v 6.398297 1.257443 4.480642
v 6.851342 1.258013 4.434603
v 6.444717 1.398351 4.490722
v 6.831682 1.159994 4.439803
v 6.676534 1.144235 4.465543
v 6.481357 1.194764 4.511182
v 6.388298 1.283523 4.492232
v 6.419598 1.340242 4.486632
v 6.785162 1.306383 4.460692
v 6.467997 1.435551 4.524611
v 6.501006 1.446171 4.503192
v 6.724663 1.147895 4.491373
v 6.650905 1.152444 4.510312
v 6.574845 1.172184 4.511332
v 6.406408 1.232783 4.524502
v 6.384118 1.260713 4.526552
v 6.792812 1.162874 4.474432
v 6.501516 1.190254 4.536912
v 6.824002 1.189934 4.472652
v 6.815562 1.230763 4.482712
v 6.777923 1.284373 4.491402
v 6.683824 1.346302 4.517982
v 6.479217 1.445651 4.545412
v 6.533826 1.436881 4.506092
v 6.676274 1.172904 4.524232
v 6.603855 1.176974 4.531622
v 6.756243 1.199024 4.502352
v 6.455567 1.212584 4.547192
v 6.382108 1.253113 4.552502
v 6.390558 1.291953 4.538912
v 6.425797 1.369162 4.532032
v 6.522766 1.196504 4.543612
v 6.684584 1.226483 4.539042
v 6.402078 1.247143 4.558331
v 6.718644 1.274053 4.523322
v 6.444567 1.387221 4.560482
v 6.597325 1.230404 4.555131
v 6.387618 1.270273 4.557611
v 6.646975 1.280563 4.556252
v 6.410717 1.317912 4.554821
v 6.641595 1.332722 4.557131
v 6.612885 1.371262 4.565141
v 6.569625 1.392051 4.557071
v 6.494776 1.418861 4.549471
v 6.494747 1.280973 4.572781
v 6.431437 1.319682 4.564091
v 6.587605 1.311042 4.572561
v 6.595185 1.356132 4.569341
v 6.494046 1.362322 4.565941
v 6.551425 1.340562 4.566231
vn 0.3911 -0.6918 -0.6070
vn 0.2207 -0.1146 -0.9686
vn 0.8325 -0.2337 -0.5024
vn -0.2326 -0.4592 -0.8574
vn -0.1581 0.1373 -0.9778
vn 0.1855 0.4290 -0.8840
vn -0.1176 -0.7193 -0.6846
vn -0.2965 -0.8090 -0.5076
vn -0.4351 -0.3408 -0.8334
vn 0.5436 0.1675 -0.8225
vn -0.3489 0.2382 -0.9064
vn -0.0525 0.6024 -0.7964
vn 0.5997 0.5682 -0.5635
vn 0.9096 0.0887 -0.4058
vn 0.0916 -0.9217 -0.3769
vn -0.5878 -0.4854 -0.6473
vn -0.6379 0.3784 -0.6708
vn -0.5861 -0.1201 -0.8013
vn 0.9242 0.3808 -0.0291
vn -0.2804 0.8042 -0.5240
vn 0.2520 0.8142 -0.5230
vn 0.0274 0.8922 -0.4508
vn 0.7276 -0.6695 -0.1497
vn 0.9758 -0.2181 -0.0130
vn -0.8184 0.0081 -0.5745
vn -0.7524 0.5853 -0.3023
vn -0.5222 0.7940 -0.3113
vn 0.5593 0.8289 -0.0037
vn 0.0071 -0.9455 -0.3256
vn 0.4541 -0.8518 -0.2610
vn -0.4621 -0.7614 -0.4546
vn -0.7732 -0.3352 -0.5383
vn 0.8927 -0.4504 0.0141
vn -0.9026 0.1519 -0.4027
vn 0.3014 0.9524 -0.0467
vn -0.1388 0.9840 -0.1120
vn -0.2920 -0.8830 -0.3674
vn 0.9388 0.2426 0.2443
vn 0.6996 0.6556 0.2842
vn 0.4811 0.8134 0.3269
vn -0.3938 0.9138 -0.0994
vn 0.1298 0.9906 0.0437
vn 0.2243 0.9259 0.3040
vn 0.4150 -0.8855 -0.2088
vn -0.6653 -0.5905 -0.4568
vn -0.8599 -0.2391 -0.4511
vn 0.7001 0.6131 0.3661
vn 0.6547 -0.7530 -0.0666
vn -0.4873 -0.7821 -0.3884
vn 0.9800 -0.1211 0.1577
vn -0.7837 0.5816 -0.2181
vn -0.3985 0.9164 -0.0370
vn 0.2809 0.9172 0.2825
vn -0.0572 0.9859 0.1574
vn 0.3209 -0.9349 -0.1516
vn -0.7744 -0.4568 -0.4379
vn -0.3126 -0.8949 -0.3184
vn 0.8827 -0.4622 0.0847
vn -0.8624 -0.2581 -0.4356
vn 0.6518 0.6696 0.3560
vn 0.5016 0.8002 0.3287
vn 0.0154 -0.9631 -0.2688
vn 0.2885 -0.9457 -0.1498
vn 0.9742 0.0320 0.2236
vn 0.8656 0.3834 0.3221
vn -0.9202 0.2076 -0.3318
vn -0.6578 -0.6216 -0.4252
vn -0.8329 0.5027 -0.2316
vn 0.0603 0.9851 0.1610
vn -0.7915 -0.4270 -0.4372
vn 0.7305 0.5914 0.3414
vn -0.5749 0.8134 -0.0892
vn 0.3365 0.9064 0.2556
vn 0.5340 -0.8400 -0.0960
vn -0.5020 -0.7779 -0.3780
vn 0.9669 -0.0073 0.2549
vn -0.8962 -0.1546 -0.4159
vn 0.8831 0.3517 0.3106
vn -0.1817 0.9811 0.0664
vn 0.3736 -0.9139 -0.1585
vn -0.6424 -0.6132 -0.4596
vn -0.0291 -0.9653 -0.2594
vn -0.7867 -0.4825 -0.3851
vn -0.9288 0.2027 -0.3102
vn 0.0950 0.9812 0.1679
vn 0.7831 -0.6213 0.0253
vn -0.5949 -0.7259 -0.3451
vn 0.9581 -0.1995 0.2055
vn -0.9034 -0.2676 -0.3350
vn 0.6577 0.6847 0.3141
vn 0.4906 0.8237 0.2843
vn -0.8182 0.5310 -0.2202
vn -0.1487 0.9857 0.0791
vn 0.9020 0.3027 0.3079
vn 0.4174 -0.8959 -0.1522
vn -0.3745 -0.8805 -0.2905
vn 0.1452 -0.9667 -0.2107
vn -0.5372 -0.7824 -0.3151
vn -0.9436 0.0258 -0.3302
vn -0.2395 -0.9374 -0.2529
vn -0.4090 0.9115 -0.0430
vn -0.1648 0.9840 0.0677
vn 0.1407 0.9733 0.1816
vn 0.6316 -0.7728 -0.0617
vn -0.7815 -0.5118 -0.3568
vn -0.8987 0.3537 -0.2592
vn 0.9703 -0.1409 0.1965
vn 0.0502 0.9879 0.1468
vn 0.3717 -0.9236 -0.0936
vn 0.3723 0.9042 0.2095
vn -0.9211 -0.0986 -0.3766
vn 0.8803 0.3946 0.2633
vn 0.0578 -0.9874 -0.1473
vn 0.5701 -0.8214 0.0167
vn 0.8495 -0.5150 0.1145
vn -0.5518 -0.7694 -0.3218
vn -0.7568 -0.5369 -0.3727
vn 0.5840 0.7721 0.2507
vn -0.8868 0.3746 -0.2705
vn 0.4875 0.8372 0.2479
vn -0.2829 -0.9237 -0.2583
vn -0.3808 -0.8817 -0.2784
vn 0.9678 -0.1297 0.2156
vn 0.7474 0.6166 0.2476
vn 0.0876 0.9923 0.0875
vn -0.7807 -0.4889 -0.3893
vn -0.8456 0.3683 -0.3863
vn -0.8869 -0.1278 -0.4440
vn -0.6994 0.6703 -0.2483
vn 0.0855 -0.9809 -0.1746
vn 0.9283 0.2657 0.2602
vn 0.6023 0.7579 0.2507
vn 0.2537 0.9631 0.0899
vn 0.4718 0.8572 0.2063
vn -0.1696 0.9829 -0.0721
vn -0.2559 -0.9565 -0.1401
vn -0.1407 -0.9755 -0.1693
vn 0.6039 -0.7965 0.0302
vn -0.4217 -0.8535 -0.3061
vn 0.5089 0.8314 0.2233
vn 0.4494 -0.8933 -0.0065
vn 0.8721 -0.4348 0.2244
vn 0.2130 -0.9750 -0.0641
vn -0.6844 -0.5987 -0.4161
vn 0.7666 0.5804 0.2746
vn 0.9551 -0.0430 0.2933
vn -0.8300 -0.2430 -0.5020
vn -0.8591 0.1536 -0.4882
vn -0.6859 0.6390 -0.3482
vn -0.7712 0.4832 -0.4146
vn -0.7569 -0.4671 -0.4570
vn 0.6726 -0.7142 0.1939
vn 0.8726 0.3685 0.3205
vn -0.4073 0.8862 -0.2207
vn 0.1162 0.9931 0.0146
vn 0.2720 -0.9604 0.0603
vn 0.4656 -0.8827 0.0631
vn -0.6404 -0.6395 -0.4253
vn -0.8272 -0.2244 -0.5152
vn 0.5857 0.7401 0.3304
vn 0.7056 0.6120 0.3571
vn -0.0543 0.9975 -0.0459
vn -0.0442 -0.9979 0.0481
vn -0.8478 0.2413 -0.4722
vn 0.2784 0.9489 0.1485
vn -0.5125 -0.7927 -0.3301
vn 0.8592 0.2095 0.4668
vn 0.8817 -0.2605 0.3933
vn -0.7107 -0.5098 -0.4848
vn -0.8478 -0.1399 -0.5116
vn -0.5353 0.7853 -0.3111
vn 0.4429 -0.8121 0.3800
vn 0.7560 -0.5035 0.4183
vn 0.5219 0.7952 0.3087
vn -0.0810 0.9957 -0.0447
vn -0.3197 -0.9329 -0.1657
vn 0.4559 0.8161 0.3552
vn 0.1153 -0.9348 0.3358
vn 0.7623 -0.1688 0.6248
vn -0.7971 -0.4783 -0.3686
vn 0.6949 0.4460 0.5640
vn -0.7916 0.5517 -0.2625
vn 0.5537 -0.6031 0.5742
vn -0.1566 -0.9842 0.0826
vn -0.3680 -0.9298 -0.0065
vn -0.9500 0.1324 -0.2828
vn -0.8726 0.4229 -0.2446
vn 0.5814 0.6650 0.4687
vn -0.6712 0.7412 0.0065
vn -0.1591 0.9857 -0.0561
vn 0.1896 -0.7600 0.6216
vn -0.0499 -0.8677 0.4946
vn -0.1932 -0.9473 0.2556
vn -0.6049 -0.7961 0.0177
vn -0.9633 -0.2412 -0.1177
vn 0.3819 -0.5935 0.7085
vn -0.1977 -0.8807 0.4304
vn 0.5301 -0.3269 0.7824
vn 0.5563 0.0734 0.8277
vn 0.5544 0.4009 0.7293
vn 0.5343 0.6098 0.5854
vn -0.1136 0.8486 0.5168
vn 0.2974 0.8844 0.3596
vn 0.1874 -0.4739 0.8604
vn -0.0463 -0.6621 0.7480
vn 0.3655 -0.2557 0.8950
vn -0.2874 -0.7292 0.6210
vn -0.8867 -0.3176 0.3359
vn -0.9394 0.3127 0.1408
vn -0.8719 0.4684 0.1431
vn -0.0503 -0.5984 0.7996
vn 0.3122 -0.1664 0.9353
vn -0.3454 -0.4336 0.8323
vn 0.4484 0.1063 0.8875
vn -0.4871 0.3963 0.7783
vn 0.0954 -0.2918 0.9517
vn -0.6544 0.1307 0.7448
vn 0.2917 -0.0677 0.9541
vn -0.7163 0.3423 0.6081
vn 0.4119 0.1331 0.9015
vn 0.3671 0.4505 0.8138
vn 0.1952 0.6030 0.7735
vn 0.1366 0.4838 0.8644
vn -0.0390 -0.1328 0.9904
vn -0.2540 0.0931 0.9627
vn 0.1080 -0.0196 0.9940
vn 0.0614 0.1712 0.9833
vn -0.0182 0.1804 0.9834
vn -0.0395 0.1587 0.9865
usemtl mtl1.1600
s 1
f 1//1 2//2 3//3
f 2//2 4//4 5//5
f 2//2 5//5 6//6
f 4//4 7//7 8//8
f 4//4 8//8 9//9
f 2//2 7//7 4//4
f 1//1 7//7 2//2
f 3//3 2//2 10//10
f 5//5 4//4 9//9
f 6//6 10//10 2//2
f 5//5 9//9 11//11
f 5//5 11//11 12//12
f 12//12 6//6 5//5
f 13//13 10//10 6//6
f 14//14 10//10 13//13
f 8//8 7//7 15//15
f 7//7 1//1 15//15
f 8//8 16//16 9//9
f 3//3 10//10 14//14
f 17//17 11//11 18//18
f 18//18 11//11 9//9
f 14//14 13//13 19//19
f 11//11 20//20 12//12
f 6//6 21//21 13//13
f 20//20 11//11 17//17
f 12//12 21//21 6//6
f 22//22 12//12 20//20
f 21//21 12//12 22//22
f 15//15 1//1 23//23
f 3//3 23//23 1//1
f 24//24 23//23 3//3
f 9//9 16//16 18//18
f 3//3 14//14 24//24
f 16//16 25//25 18//18
f 24//24 14//14 19//19
f 18//18 25//25 17//17
f 26//26 17//17 25//25
f 17//17 26//26 27//27
f 27//27 20//20 17//17
f 28//28 13//13 21//21
f 8//8 15//15 29//29
f 29//29 15//15 30//30
f 31//31 16//16 8//8
f 16//16 31//31 32//32
f 24//24 33//33 23//23
f 16//16 32//32 25//25
f 25//25 34//34 26//26
f 19//19 13//13 28//28
f 22//22 35//35 21//21
f 28//28 21//21 35//35
f 22//22 20//20 36//36
f 22//22 36//36 35//35
f 8//8 29//29 37//37
f 23//23 30//30 15//15
f 31//31 8//8 37//37
f 24//24 19//19 38//38
f 19//19 39//39 38//38
f 28//28 40//40 39//39
f 39//39 19//19 28//28
f 27//27 26//26 41//41
f 40//40 28//28 35//35
f 20//20 27//27 41//41
f 36//36 20//20 41//41
f 42//42 35//35 36//36
f 43//43 40//40 35//35
f 35//35 42//42 43//43
f 30//30 44//44 29//29
f 31//31 45//45 32//32
f 34//34 32//32 46//46
f 32//32 34//34 25//25
f 39//39 47//47 38//38
f 48//48 44//44 30//30
f 48//48 30//30 23//23
f 49//49 31//31 37//37
f 32//32 45//45 46//46
f 24//24 38//38 50//50
f 51//51 26//26 34//34
f 39//39 40//40 47//47
f 42//42 36//36 43//43
f 50//50 33//33 24//24
f 26//26 52//52 41//41
f 53//53 40//40 43//43
f 36//36 41//41 54//54
f 36//36 54//54 43//43
f 29//29 44//44 55//55
f 23//23 33//33 48//48
f 45//45 31//31 49//49
f 46//46 45//45 56//56
f 56//56 34//34 46//46
f 51//51 52//52 26//26
f 54//54 41//41 52//52
f 57//57 49//49 37//37
f 33//33 50//50 58//58
f 56//56 59//59 34//34
f 47//47 40//40 60//60
f 60//60 40//40 61//61
f 53//53 61//61 40//40
f 37//37 29//29 62//62
f 62//62 29//29 63//63
f 29//29 55//55 63//63
f 48//48 55//55 44//44
f 48//48 33//33 58//58
f 58//58 50//50 64//64
f 38//38 65//65 50//50
f 38//38 47//47 65//65
f 66//66 34//34 59//59
f 54//54 53//53 43//43
f 49//49 67//67 56//56
f 49//49 56//56 45//45
f 64//64 50//50 65//65
f 68//68 34//34 66//66
f 34//34 68//68 51//51
f 57//57 37//37 62//62
f 56//56 67//67 59//59
f 52//52 69//69 54//54
f 63//63 55//55 48//48
f 59//59 67//67 70//70
f 70//70 66//66 59//59
f 65//65 60//60 71//71
f 65//65 47//47 60//60
f 51//51 68//68 72//72
f 72//72 52//52 51//51
f 53//53 73//73 61//61
f 63//63 74//74 62//62
f 75//75 67//67 49//49
f 58//58 64//64 76//76
f 70//70 77//77 66//66
f 78//78 65//65 71//71
f 61//61 71//71 60//60
f 53//53 54//54 69//69
f 74//74 63//63 48//48
f 75//75 49//49 57//57
f 64//64 65//65 78//78
f 72//72 79//79 52//52
f 52//52 79//79 69//69
f 53//53 69//69 73//73
f 80//80 62//62 74//74
f 58//58 74//74 48//48
f 75//75 81//81 70//70
f 75//75 70//70 67//67
f 70//70 81//81 77//77
f 76//76 64//64 78//78
f 62//62 80//80 82//82
f 83//83 77//77 81//81
f 84//84 66//66 77//77
f 69//69 79//79 85//85
f 85//85 73//73 69//69
f 57//57 62//62 82//82
f 74//74 58//58 86//86
f 87//87 81//81 75//75
f 58//58 76//76 88//88
f 77//77 83//83 89//89
f 89//89 84//84 77//77
f 90//90 61//61 91//91
f 68//68 92//92 72//72
f 79//79 72//72 93//93
f 93//93 85//85 79//79
f 80//80 74//74 86//86
f 86//86 58//58 88//88
f 83//83 81//81 87//87
f 76//76 78//78 94//94
f 71//71 94//94 78//78
f 90//90 71//71 61//61
f 91//91 61//61 73//73
f 82//82 80//80 95//95
f 95//95 80//80 86//86
f 87//87 75//75 96//96
f 57//57 96//96 75//75
f 88//88 76//76 94//94
f 66//66 84//84 92//92
f 92//92 68//68 66//66
f 82//82 95//95 97//97
f 98//98 87//87 96//96
f 83//83 87//87 89//89
f 99//99 84//84 89//89
f 71//71 90//90 94//94
f 100//100 96//96 57//57
f 92//92 101//101 72//72
f 93//93 72//72 102//102
f 103//103 73//73 85//85
f 100//100 57//57 82//82
f 82//82 97//97 100//100
f 95//95 86//86 104//104
f 87//87 105//105 89//89
f 99//99 106//106 84//84
f 84//84 106//106 92//92
f 72//72 101//101 102//102
f 85//85 93//93 103//103
f 95//95 104//104 97//97
f 98//98 105//105 87//87
f 107//107 88//88 94//94
f 105//105 99//99 89//89
f 93//93 102//102 103//103
f 102//102 108//108 103//103
f 109//109 97//97 104//104
f 107//107 86//86 88//88
f 103//103 110//110 73//73
f 99//99 105//105 111//111
f 112//112 94//94 90//90
f 73//73 110//110 91//91
f 102//102 101//101 108//108
f 109//109 113//113 97//97
f 114//114 109//109 104//104
f 115//115 114//114 104//104
f 104//104 86//86 115//115
f 107//107 115//115 86//86
f 105//105 98//98 116//116
f 105//105 117//117 111//111
f 90//90 91//91 118//118
f 92//92 106//106 119//119
f 108//108 110//110 103//103
f 97//97 113//113 100//100
f 98//98 96//96 116//116
f 116//116 117//117 105//105
f 107//107 94//94 112//112
f 99//99 111//111 119//119
f 112//112 90//90 118//118
f 119//119 106//106 99//99
f 120//120 118//118 91//91
f 91//91 110//110 120//120
f 121//121 100//100 113//113
f 109//109 114//114 113//113
f 122//122 116//116 96//96
f 123//123 115//115 107//107
f 121//121 96//96 100//100
f 122//122 96//96 121//121
f 112//112 118//118 124//124
f 108//108 101//101 125//125
f 108//108 125//125 110//110
f 123//123 107//107 112//112
f 117//117 126//126 111//111
f 127//127 111//111 128//128
f 111//111 127//127 119//119
f 129//129 92//92 119//119
f 113//113 130//130 121//121
f 116//116 126//126 117//117
f 123//123 112//112 131//131
f 126//126 128//128 111//111
f 132//132 124//124 118//118
f 127//127 129//129 119//119
f 92//92 129//129 101//101
f 133//133 134//134 110//110
f 101//101 135//135 125//125
f 133//133 110//110 125//125
f 136//136 121//121 137//137
f 121//121 130//130 137//137
f 113//113 138//138 130//130
f 114//114 138//138 113//113
f 114//114 115//115 138//138
f 122//122 139//139 116//116
f 124//124 131//131 112//112
f 140//140 120//120 110//110
f 129//129 135//135 101//101
f 141//141 130//130 138//138
f 142//142 115//115 123//123
f 134//134 140//140 110//110
f 125//125 135//135 133//133
f 137//137 130//130 143//143
f 130//130 141//141 143//143
f 138//138 115//115 142//142
f 144//144 126//126 116//116
f 128//128 126//126 144//144
f 145//145 124//124 132//132
f 121//121 139//139 122//122
f 142//142 123//123 146//146
f 144//144 116//116 139//139
f 128//128 144//144 147//147
f 147//147 148//148 128//128
f 124//124 145//145 131//131
f 128//128 148//148 127//127
f 140//140 132//132 118//118
f 118//118 120//120 140//140
f 149//149 129//129 127//127
f 123//123 131//131 146//146
f 150//150 127//127 148//148
f 144//144 151//151 147//147
f 138//138 152//152 141//141
f 152//152 138//138 142//142
f 153//153 146//146 131//131
f 131//131 145//145 153//153
f 149//149 127//127 150//150
f 149//149 154//154 129//129
f 154//154 135//135 129//129
f 133//133 135//135 155//155
f 156//156 137//137 143//143
f 156//156 143//143 157//157
f 143//143 141//141 157//157
f 157//157 141//141 152//152
f 121//121 136//136 139//139
f 151//151 144//144 158//158
f 147//147 151//151 159//159
f 147//147 159//159 148//148
f 160//160 161//161 132//132
f 161//161 145//145 132//132
f 132//132 140//140 160//160
f 135//135 154//154 162//162
f 135//135 162//162 155//155
f 163//163 137//137 156//156
f 158//158 144//144 139//139
f 151//151 158//158 159//159
f 164//164 148//148 159//159
f 164//164 150//150 148//148
f 133//133 155//155 165//165
f 134//134 133//133 165//165
f 136//136 137//137 163//163
f 158//158 139//139 166//166
f 153//153 167//167 146//146
f 156//156 157//157 152//152
f 146//146 167//167 168//168
f 158//158 169//169 159//159
f 159//159 169//169 170//170
f 161//161 167//167 153//153
f 161//161 153//153 145//145
f 149//149 150//150 171//171
f 149//149 171//171 154//154
f 172//172 156//156 152//152
f 173//173 152//152 142//142
f 168//168 173//173 142//142
f 168//168 142//142 146//146
f 170//170 164//164 159//159
f 174//174 140//140 134//134
f 154//154 171//171 175//175
f 154//154 175//175 162//162
f 165//165 155//155 162//162
f 163//163 156//156 172//172
f 172//172 152//152 173//173
f 136//136 176//176 139//139
f 140//140 174//174 160//160
f 134//134 165//165 177//177
f 174//174 134//134 177//177
f 163//163 178//178 136//136
f 163//163 172//172 178//178
f 176//176 166//166 139//139
f 166//166 169//169 158//158
f 168//168 167//167 179//179
f 169//169 180//180 170//170
f 161//161 160//160 181//181
f 167//167 161//161 181//181
f 150//150 182//182 171//171
f 162//162 175//175 165//165
f 172//172 183//183 178//178
f 184//184 136//136 178//178
f 136//136 184//184 176//176
f 172//172 173//173 183//183
f 166//166 176//176 185//185
f 173//173 168//168 179//179
f 186//186 170//170 180//180
f 170//170 186//186 164//164
f 186//186 187//187 164//164
f 188//188 181//181 160//160
f 164//164 187//187 150//150
f 160//160 174//174 188//188
f 182//182 150//150 187//187
f 189//189 171//171 182//182
f 171//171 189//189 190//190
f 171//171 190//190 175//175
f 178//178 191//191 184//184
f 191//191 192//192 184//184
f 184//184 193//193 176//176
f 184//184 192//192 193//193
f 183//183 173//173 179//179
f 180//180 194//194 195//195
f 166//166 194//194 180//180
f 166//166 180//180 169//169
f 181//181 179//179 167//167
f 180//180 195//195 186//186
f 178//178 183//183 196//196
f 191//191 178//178 196//196
f 197//197 185//185 193//193
f 176//176 193//193 185//185
f 196//196 183//183 198//198
f 198//198 183//183 179//179
f 194//194 166//166 185//185
f 179//179 199//199 198//198
f 179//179 181//181 199//199
f 181//181 200//200 199//199
f 181//181 188//188 200//200
f 188//188 174//174 201//201
f 190//190 189//189 202//202
f 165//165 175//175 203//203
f 192//192 191//191 204//204
f 192//192 205//205 193//193
f 204//204 205//205 192//192
f 191//191 206//206 204//204
f 191//191 196//196 206//206
f 196//196 198//198 206//206
f 185//185 207//207 194//194
f 185//185 197//197 207//207
f 195//195 194//194 208//208
f 198//198 199//199 206//206
f 208//208 209//209 195//195
f 195//195 209//209 186//186
f 209//209 187//187 186//186
f 200//200 188//188 201//201
f 182//182 187//187 210//210
f 210//210 189//189 182//182
f 174//174 177//177 201//201
f 177//177 165//165 203//203
f 190//190 202//202 203//203
f 203//203 175//175 190//190
f 211//211 197//197 193//193
f 205//205 211//211 193//193
f 206//206 212//212 204//204
f 194//194 213//213 208//208
f 194//194 207//207 213//213
f 212//212 206//206 214//214
f 206//206 199//199 214//214
f 199//199 200//200 214//214
f 214//214 200//200 201//201
f 210//210 187//187 209//209
f 210//210 215//215 189//189
f 202//202 189//189 215//215
f 211//211 205//205 216//216
f 205//205 204//204 216//216
f 207//207 197//197 211//211
f 204//204 212//212 216//216
f 208//208 213//213 217//217
f 216//216 212//212 218//218
f 217//217 219//219 209//209
f 208//208 217//217 209//209
f 212//212 214//214 218//218
f 214//214 220//220 218//218
f 214//214 201//201 220//220
f 209//209 219//219 210//210
f 219//219 215//215 210//210
f 201//201 221//221 220//220
f 177//177 222//222 201//201
f 221//221 201//201 222//222
f 202//202 215//215 223//223
f 202//202 223//223 203//203
f 223//223 222//222 203//203
f 177//177 203//203 222//222
f 213//213 207//207 224//224
f 207//207 211//211 224//224
f 216//216 224//224 211//211
f 225//225 213//213 224//224
f 225//225 217//217 213//213
f 224//224 216//216 226//226
f 218//218 226//226 216//216
f 225//225 219//219 217//217
f 225//225 215//215 219//219
f 226//226 220//220 227//227
f 226//226 218//218 220//220
f 225//225 228//228 215//215
f 220//220 221//221 227//227
f 227//227 221//221 222//222
f 223//223 215//215 228//228
f 224//224 228//228 225//225
f 224//224 226//226 229//229
f 229//229 228//228 224//224
f 227//227 229//229 226//226
f 222//222 228//228 229//229
f 227//227 222//222 229//229
f 222//222 223//223 228//228
