# Blender v3.6.0 OBJ File: ''
# www.blender.org
o 1.004
v 7700.000000 6500.000977 4649.999023
v 7700.000000 6450.000977 4699.999023
v 7650.000000 6500.000977 4699.999023
v 7750.000000 6500.000977 4699.999023
v 7700.000000 6550.000977 4699.999023
v 7600.000000 6500.000977 4749.999023
v 7622.700195 6472.701172 4813.798828
v 7550.000000 6500.000977 4799.999023
v 7691.600098 6467.000977 4797.398926
v 7750.000000 6500.000977 4799.999023
v 7626.500000 6530.101074 4780.099121
v 7700.000000 6550.000977 4799.999023
v 7622.100098 6480.300781 4894.798828
v 7550.000000 6500.000977 4899.999023
v 7685.500000 6479.701172 4864.699219
v 7721.600098 6528.000977 4892.599121
v 7600.000000 6550.000977 4899.999023
v 7700.000000 6600.000977 4849.999023
v 7650.000000 6600.000977 4899.999023
v 7750.000000 6600.000977 4899.999023
v 7700.000000 6650.000977 4899.999023
v 7600.000000 6500.000977 4949.999023
v 7673.899902 6510.101074 4920.798828
v 7700.000000 6600.000977 4949.999023
vn -0.5774 -0.5774 -0.5774
vn 0.5774 -0.5774 -0.5774
vn -0.5774 0.5774 -0.5774
vn 0.5774 0.5774 -0.5774
vn -0.2882 -0.9132 -0.2882
vn -0.5100 -0.8414 -0.1786
vn -0.0414 -0.9849 0.1683
vn 0.7071 -0.7071 0.0000
vn 0.4765 -0.8582 0.1909
vn 0.4748 -0.8561 0.2041
vn 0.4749 -0.8560 0.2043
vn -0.4250 0.7992 -0.4250
vn -0.6392 0.6392 -0.4277
vn -0.2613 0.9652 0.0000
vn 0.7071 0.7071 0.0000
vn -0.2566 -0.9625 0.0884
vn -0.3515 -0.9362 0.0000
vn -0.0380 -0.9826 0.1820
vn 0.0350 -0.9950 0.0936
vn 0.6118 -0.6854 0.3949
vn 0.4746 -0.8561 0.2046
vn -0.7071 0.7071 0.0000
vn -0.4084 0.8816 -0.2366
vn -0.2040 0.9575 -0.2040
vn 0.8492 -0.3734 0.3734
vn -0.2398 -0.9408 0.2398
vn 0.2295 -0.8351 0.5000
vn 0.2841 -0.8613 0.4211
vn 0.5435 -0.6858 0.4840
vn -0.5774 0.5774 0.5774
vn 0.3842 -0.3842 0.8395
vn 0.6671 -0.3317 0.6671
vn 0.5730 -0.3989 0.7160
vn 0.5774 0.5774 0.5774
s 1
f 1//1 2//1 3//1
f 2//2 1//2 4//2
f 1//3 3//3 5//3
f 4//4 1//4 5//4
f 6//5 7//5 8//5
f 6//1 3//1 2//1
f 6//6 2//6 7//6
f 7//7 2//7 9//7
f 2//8 4//8 10//8
f 2//9 10//10 9//11
f 6//12 8//12 11//12
f 3//12 6//12 11//12
f 3//13 11//13 5//13
f 5//14 11//14 12//14
f 10//15 4//15 5//15
f 12//15 10//15 5//15
f 7//16 13//16 14//16
f 8//17 7//17 14//17
f 9//18 15//18 7//18
f 7//19 15//19 13//19
f 10//20 16//20 15//20
f 10//10 15//21 9//11
f 8//22 14//22 17//22
f 11//23 8//23 17//23
f 18//3 17//3 19//3
f 18//3 12//3 17//3
f 12//24 11//24 17//24
f 12//4 18//4 20//4
f 12//4 20//4 10//4
f 10//25 20//25 16//25
f 18//3 19//3 21//3
f 20//4 18//4 21//4
f 13//26 22//26 14//26
f 13//27 15//27 23//27
f 22//28 13//28 23//28
f 15//29 16//29 23//29
f 14//30 22//30 17//30
f 19//30 17//30 22//30
f 19//30 22//30 24//30
f 24//31 22//31 23//31
f 16//32 20//32 24//32
f 23//33 16//33 24//33
f 19//30 24//30 21//30
f 20//34 21//34 24//34
